<svg width="200" height="60" viewBox="0 0 200 60" fill="none" xmlns="http://www.w3.org/2000/svg">
<rect width="200" height="60" fill="white"/>
<path d="M12.8906 31H11.4062V19.3594H12.8906V24.3906H19V19.3594H20.4844V31H19V25.7031H12.8906V31ZM26.7969 31.1875C25.9531 31.1875 25.2253 31 24.6133 30.625C24.0013 30.25 23.5299 29.7266 23.1992 29.0547C22.8685 28.3828 22.7031 27.599 22.7031 26.7031C22.7031 25.8073 22.8646 25.0182 23.1875 24.3359C23.5104 23.6536 23.9674 23.1198 24.5586 22.7344C25.1497 22.349 25.8411 22.1562 26.6328 22.1562C27.0964 22.1562 27.5534 22.2331 28.0039 22.3867C28.4544 22.5404 28.8633 22.7878 29.2305 23.1289C29.5977 23.4701 29.8906 23.9193 30.1094 24.4766C30.3281 25.0339 30.4375 25.7161 30.4375 26.5234V27.1094H24.125C24.1458 27.6719 24.2578 28.1562 24.4609 28.5625C24.6849 29.0156 24.9987 29.3581 25.4023 29.5898C25.806 29.8216 26.2734 29.9375 26.8047 29.9375C27.1484 29.9375 27.4609 29.888 27.7422 29.7891C28.0234 29.6901 28.2656 29.5404 28.4688 29.3398C28.6719 29.1393 28.8281 28.8906 28.9375 28.5938L30.2969 28.9688C30.1615 29.4062 29.9323 29.7917 29.6094 30.125C29.2865 30.4583 28.8867 30.7188 28.4102 30.9062C27.9336 31.0938 27.3958 31.1875 26.7969 31.1875ZM24.1328 25.9219H29.0078C28.9714 25.526 28.888 25.1615 28.7578 24.8281C28.5755 24.3854 28.3073 24.0378 27.9531 23.7852C27.599 23.5326 27.1589 23.4062 26.6328 23.4062C26.1068 23.4062 25.6562 23.5352 25.2812 23.793C24.9062 24.0508 24.6198 24.3854 24.4219 24.7969C24.2552 25.151 24.1589 25.526 24.1328 25.9219ZM32.4531 19.3594H33.8594V31H32.4531V19.3594ZM36.3281 19.3594H37.7344V31H36.3281V19.3594ZM43.7578 31.1875C42.9661 31.1875 42.2721 31 41.6758 30.625C41.0794 30.25 40.6146 29.724 40.2812 29.0469C39.9479 28.3698 39.7812 27.5833 39.7812 26.6875C39.7812 25.776 39.9479 24.9805 40.2812 24.3008C40.6146 23.6211 41.0794 23.0938 41.6758 22.7188C42.2721 22.3438 42.9661 22.1562 43.7578 22.1562C44.5547 22.1562 45.2526 22.3438 45.8516 22.7188C46.4505 23.0938 46.9167 23.6211 47.25 24.3008C47.5833 24.9805 47.75 25.776 47.75 26.6875C47.75 27.5833 47.5833 28.3698 47.25 29.0469C46.9167 29.724 46.4505 30.25 45.8516 30.625C45.2526 31 44.5547 31.1875 43.7578 31.1875ZM43.7578 29.9297C44.3464 29.9297 44.8307 29.7786 45.2109 29.4766C45.5911 29.1745 45.8724 28.7773 46.0547 28.2852C46.237 27.793 46.3281 27.2604 46.3281 26.6875C46.3281 26.1094 46.237 25.5716 46.0547 25.0742C45.8724 24.5768 45.5911 24.1758 45.2109 23.8711C44.8307 23.5664 44.3464 23.4141 43.7578 23.4141C43.1745 23.4141 42.6953 23.5664 42.3203 23.8711C41.9453 24.1758 41.6667 24.5755 41.4844 25.0703C41.3021 25.5651 41.2109 26.1042 41.2109 26.6875C41.2109 27.2604 41.3021 27.793 41.4844 28.2852C41.6667 28.7773 41.9453 29.1745 42.3203 29.4766C42.6953 29.7786 43.1745 29.9297 43.7578 29.9297ZM58.375 31H56.6406L53.4688 19.3594H54.9844L56.8281 26.5C56.9271 26.8802 57.0208 27.2669 57.1094 27.6602C57.1979 28.0534 57.2839 28.4505 57.3672 28.8516C57.4193 29.1016 57.4688 29.3542 57.5156 29.6094C57.5625 29.3542 57.612 29.1016 57.6641 28.8516C57.7474 28.4505 57.8359 28.0534 57.9297 27.6602C58.0234 27.2669 58.1198 26.8802 58.2188 26.5L60.1016 19.3594H61.7891L63.6562 26.5C63.7604 26.8802 63.8581 27.2669 63.9492 27.6602C64.0404 28.0534 64.1302 28.4505 64.2188 28.8516C64.2708 29.0859 64.3203 29.3229 64.3672 29.5625C64.4141 29.3229 64.4609 29.0859 64.5078 28.8516C64.5911 28.4505 64.6797 28.0534 64.7734 27.6602C64.8672 27.2669 64.9609 26.8802 65.0547 26.5L66.8906 19.3594H68.4219L65.2344 31H63.5078L61.5078 23.625C61.3776 23.1458 61.2526 22.6224 61.1328 22.0547C61.0651 21.7422 61 21.401 60.9375 21.0312C60.875 21.3646 60.8151 21.6771 60.7578 21.9688C60.6484 22.5208 60.5182 23.0729 60.3672 23.625L58.375 31ZM73.6172 31.1875C72.8255 31.1875 72.1315 31 71.5352 30.625C70.9388 30.25 70.474 29.724 70.1406 29.0469C69.8073 28.3698 69.6406 27.5833 69.6406 26.6875C69.6406 25.776 69.8073 24.9805 70.1406 24.3008C70.474 23.6211 70.9388 23.0938 71.5352 22.7188C72.1315 22.3438 72.8255 22.1562 73.6172 22.1562C74.4141 22.1562 75.112 22.3438 75.7109 22.7188C76.3099 23.0938 76.776 23.6211 77.1094 24.3008C77.4427 24.9805 77.6094 25.776 77.6094 26.6875C77.6094 27.5833 77.4427 28.3698 77.1094 29.0469C76.776 29.724 76.3099 30.25 75.7109 30.625C75.112 31 74.4141 31.1875 73.6172 31.1875ZM73.6172 29.9297C74.2057 29.9297 74.6901 29.7786 75.0703 29.4766C75.4505 29.1745 75.7318 28.7773 75.9141 28.2852C76.0964 27.793 76.1875 27.2604 76.1875 26.6875C76.1875 26.1094 76.0964 25.5716 75.9141 25.0742C75.7318 24.5768 75.4505 24.1758 75.0703 23.8711C74.6901 23.5664 74.2057 23.4141 73.6172 23.4141C73.0339 23.4141 72.5547 23.5664 72.1797 23.8711C71.8047 24.1758 71.526 24.5755 71.3438 25.0703C71.1615 25.5651 71.0703 26.1042 71.0703 26.6875C71.0703 27.2604 71.1615 27.793 71.3438 28.2852C71.526 28.7773 71.8047 29.1745 72.1797 29.4766C72.5547 29.7786 73.0339 29.9297 73.6172 29.9297ZM81.0625 31H79.6562V22.2656H81.0156V23.6094H81.1094C81.2708 23.1667 81.5586 22.8112 81.9727 22.543C82.3867 22.2747 82.8542 22.1406 83.375 22.1406C83.4792 22.1406 83.6029 22.1432 83.7461 22.1484C83.8893 22.1536 84.0026 22.1589 84.0859 22.1641V23.5781C84.0443 23.5677 83.9401 23.5521 83.7734 23.5312C83.6068 23.5104 83.4297 23.5 83.2422 23.5C82.8255 23.5 82.4518 23.5872 82.1211 23.7617C81.7904 23.9362 81.5312 24.1758 81.3438 24.4805C81.1562 24.7852 81.0625 25.1354 81.0625 25.5312V31ZM85.6797 19.3594H87.0859V31H85.6797V19.3594ZM92.8281 31.1875C92.1042 31.1875 91.4635 31.0026 90.9062 30.6328C90.349 30.263 89.9141 29.7396 89.6016 29.0625C89.2891 28.3854 89.1328 27.5833 89.1328 26.6562C89.1328 25.7344 89.2904 24.9362 89.6055 24.2617C89.9206 23.5872 90.3568 23.0677 90.9141 22.7031C91.4714 22.3385 92.112 22.1562 92.8359 22.1562C93.4036 22.1562 93.8542 22.25 94.1875 22.4375C94.5208 22.625 94.7773 22.8372 94.957 23.0742C95.1367 23.3112 95.2734 23.5078 95.3672 23.6641H95.4766V19.3594H96.8828V31H95.5234V29.6484H95.3672C95.2734 29.8099 95.1341 30.0117 94.9492 30.2539C94.7643 30.4961 94.5039 30.7122 94.168 30.9023C93.832 31.0924 93.3854 31.1875 92.8281 31.1875ZM93.0391 29.9297C93.5703 29.9297 94.0182 29.7904 94.3828 29.5117C94.7474 29.2331 95.0234 28.8464 95.2109 28.3516C95.3984 27.8568 95.4922 27.2865 95.4922 26.6406C95.4922 25.9948 95.3997 25.431 95.2148 24.9492C95.0299 24.4674 94.7552 24.0911 94.3906 23.8203C94.026 23.5495 93.5755 23.4141 93.0391 23.4141C92.487 23.4141 92.0273 23.5573 91.6602 23.8438C91.293 24.1302 91.0182 24.5169 90.8359 25.0039C90.6536 25.4909 90.5625 26.0365 90.5625 26.6406C90.5625 27.25 90.6549 27.8034 90.8398 28.3008C91.0247 28.7982 91.3021 29.194 91.6719 29.4883C92.0417 29.7826 92.4974 29.9297 93.0391 29.9297Z" fill="black"/>
</svg>
