<svg width="200" height="60" viewBox="0 0 200 60" fill="none" xmlns="http://www.w3.org/2000/svg">
<rect width="200" height="60" fill="white"/>
<path d="M15.9688 31H11.0547V19.3594H15.6719C16.526 19.3594 17.2383 19.4883 17.8086 19.7461C18.3789 20.0039 18.806 20.3568 19.0898 20.8047C19.3737 21.2526 19.5156 21.7682 19.5156 22.3516C19.5156 22.8099 19.4245 23.2096 19.2422 23.5508C19.0599 23.8919 18.8112 24.1706 18.4961 24.3867C18.181 24.6029 17.8229 24.7578 17.4219 24.8516V24.9688C17.8594 24.9844 18.2721 25.1081 18.6602 25.3398C19.0482 25.5716 19.3633 25.8945 19.6055 26.3086C19.8477 26.7227 19.9688 27.2161 19.9688 27.7891C19.9688 28.4036 19.8177 28.9531 19.5156 29.4375C19.2135 29.9219 18.7669 30.3034 18.1758 30.582C17.5846 30.8607 16.849 31 15.9688 31ZM13.4375 25.8828V29.0391H15.5C16.1979 29.0391 16.7083 28.9036 17.0312 28.6328C17.3542 28.362 17.5156 28.0052 17.5156 27.5625C17.5156 27.2344 17.4362 26.944 17.2773 26.6914C17.1185 26.4388 16.8932 26.2409 16.6016 26.0977C16.3099 25.9544 15.9635 25.8828 15.5625 25.8828H13.4375ZM13.4375 21.3047V24.25H15.3203C15.6589 24.25 15.9635 24.1888 16.2344 24.0664C16.5052 23.944 16.7174 23.7695 16.8711 23.543C17.0247 23.3164 17.1016 23.0469 17.1016 22.7344C17.1016 22.3125 16.9518 21.9688 16.6523 21.7031C16.3529 21.4375 15.9245 21.3047 15.3672 21.3047H13.4375ZM25.4922 31.1719C24.6172 31.1719 23.8594 30.9831 23.2188 30.6055C22.5781 30.2279 22.0846 29.7018 21.7383 29.0273C21.3919 28.3529 21.2188 27.5677 21.2188 26.6719C21.2188 25.7656 21.3919 24.9753 21.7383 24.3008C22.0846 23.6263 22.5781 23.1003 23.2188 22.7227C23.8594 22.3451 24.6172 22.1562 25.4922 22.1562C26.3724 22.1562 27.1315 22.3451 27.7695 22.7227C28.4076 23.1003 28.8997 23.6263 29.2461 24.3008C29.5924 24.9753 29.7656 25.7656 29.7656 26.6719C29.7656 27.5677 29.5924 28.3529 29.2461 29.0273C28.8997 29.7018 28.4076 30.2279 27.7695 30.6055C27.1315 30.9831 26.3724 31.1719 25.4922 31.1719ZM25.4922 29.3281C25.9089 29.3281 26.2578 29.2122 26.5391 28.9805C26.8203 28.7487 27.0312 28.431 27.1719 28.0273C27.3125 27.6237 27.3828 27.1693 27.3828 26.6641C27.3828 26.1484 27.3125 25.6901 27.1719 25.2891C27.0312 24.888 26.8203 24.5729 26.5391 24.3438C26.2578 24.1146 25.9089 24 25.4922 24C25.0755 24 24.7279 24.1146 24.4492 24.3438C24.1706 24.5729 23.9609 24.888 23.8203 25.2891C23.6797 25.6901 23.6094 26.1484 23.6094 26.6641C23.6094 27.1693 23.6797 27.6237 23.8203 28.0273C23.9609 28.431 24.1706 28.7487 24.4492 28.9805C24.7279 29.2122 25.0755 29.3281 25.4922 29.3281ZM31.3984 19.3594H33.7422V31H31.3984V19.3594ZM38.9219 31.1484C38.2552 31.1484 37.6523 30.9753 37.1133 30.6289C36.5742 30.2826 36.1484 29.7747 35.8359 29.1055C35.5234 28.4362 35.3672 27.6172 35.3672 26.6484C35.3672 25.6536 35.5286 24.8229 35.8516 24.1562C36.1745 23.4896 36.6042 22.9896 37.1406 22.6562C37.6771 22.3229 38.2682 22.1562 38.9141 22.1562C39.4089 22.1562 39.8203 22.2396 40.1484 22.4062C40.4766 22.5729 40.7422 22.7786 40.9453 23.0234C41.1484 23.2682 41.2995 23.5052 41.3984 23.7344H41.4766V19.3594H43.8203V31H41.5156V29.6016H41.3984C41.2943 29.8359 41.1393 30.0716 40.9336 30.3086C40.7279 30.5456 40.4609 30.7448 40.1328 30.9062C39.8047 31.0677 39.401 31.1484 38.9219 31.1484ZM39.6484 29.2656C40.0443 29.2656 40.3828 29.1562 40.6641 28.9375C40.9453 28.7188 41.1589 28.4128 41.3047 28.0195C41.4505 27.6263 41.5234 27.1667 41.5234 26.6406C41.5234 26.1094 41.4518 25.6497 41.3086 25.2617C41.1654 24.8737 40.9531 24.5716 40.6719 24.3555C40.3906 24.1393 40.0495 24.0312 39.6484 24.0312C39.237 24.0312 38.8919 24.1432 38.6133 24.3672C38.3346 24.5911 38.125 24.8984 37.9844 25.2891C37.8438 25.6797 37.7734 26.1302 37.7734 26.6406C37.7734 27.151 37.8451 27.6042 37.9883 28C38.1315 28.3958 38.3424 28.7057 38.6211 28.9297C38.8997 29.1536 39.2422 29.2656 39.6484 29.2656ZM52.7578 21.3359H49.1953V19.3594H58.7031V21.3359H55.1484V31H52.7578V21.3359ZM64.2344 31.1719C63.3438 31.1719 62.5755 30.9896 61.9297 30.625C61.2839 30.2604 60.7878 29.7422 60.4414 29.0703C60.0951 28.3984 59.9219 27.6016 59.9219 26.6797C59.9219 25.7786 60.0938 24.9896 60.4375 24.3125C60.7812 23.6354 61.2682 23.1068 61.8984 22.7266C62.5286 22.3464 63.2682 22.1562 64.1172 22.1562C64.6901 22.1562 65.224 22.2474 65.7188 22.4297C66.2135 22.612 66.6484 22.8867 67.0234 23.2539C67.3984 23.6211 67.6914 24.0807 67.9023 24.6328C68.1133 25.1849 68.2188 25.8359 68.2188 26.5859V27.2422H62.2422C62.2578 27.6849 62.3438 28.0625 62.5 28.375C62.6667 28.7188 62.9023 28.9766 63.207 29.1484C63.5117 29.3203 63.8672 29.4062 64.2734 29.4062C64.5495 29.4062 64.7995 29.3672 65.0234 29.2891C65.2474 29.2109 65.4388 29.0951 65.5977 28.9414C65.7565 28.7878 65.8776 28.599 65.9609 28.375L68.0859 28.7734C67.9453 29.2526 67.7005 29.6732 67.3516 30.0352C67.0026 30.3971 66.5664 30.6771 66.043 30.875C65.5195 31.0729 64.9167 31.1719 64.2344 31.1719ZM62.2578 25.7734H65.9609C65.9297 25.4818 65.8672 25.2161 65.7734 24.9766C65.6328 24.6432 65.4258 24.3841 65.1523 24.1992C64.8789 24.0143 64.5417 23.9219 64.1406 23.9219C63.7344 23.9219 63.3893 24.0156 63.1055 24.2031C62.8216 24.3906 62.6068 24.6432 62.4609 24.9609C62.3516 25.2057 62.2839 25.4766 62.2578 25.7734ZM71.6328 31H69.1484L71.9609 26.5156L69.3203 22.2656H71.8516L72.6406 23.6406C72.8906 24.0938 73.1172 24.5391 73.3203 24.9766C73.3724 25.1016 73.4271 25.2266 73.4844 25.3516C73.5417 25.2318 73.599 25.1094 73.6562 24.9844C73.8542 24.5417 74.0833 24.0938 74.3438 23.6406L75.1641 22.2656H77.6484L74.9531 26.5469L77.7734 31H75.2578L74.2891 29.3594C74.0339 28.9115 73.8047 28.4661 73.6016 28.0234C73.5443 27.9036 73.487 27.7839 73.4297 27.6641C73.3776 27.7839 73.3255 27.9036 73.2734 28.0234C73.0755 28.4661 72.8516 28.9115 72.6016 29.3594L71.6328 31ZM81.8047 22.2656H83.4375V24.0547H81.8047V28.4453C81.8047 28.7214 81.8659 28.9258 81.9883 29.0586C82.1107 29.1914 82.3151 29.2578 82.6016 29.2578C82.6901 29.2578 82.8151 29.2461 82.9766 29.2227C83.138 29.1992 83.2604 29.1771 83.3438 29.1562L83.6797 30.9141C83.4193 30.9922 83.1602 31.0469 82.9023 31.0781C82.6445 31.1094 82.3984 31.125 82.1641 31.125C81.2891 31.125 80.6198 30.9115 80.1562 30.4844C79.6927 30.0573 79.4609 29.4453 79.4609 28.6484V24.0547H78.2578V22.2656H79.4609V20.1875H81.8047V22.2656Z" fill="black"/>
</svg>
