<svg width="200" height="60" viewBox="0 0 200 60" fill="none" xmlns="http://www.w3.org/2000/svg">
<rect width="200" height="60" fill="white"/>
<path d="M17.2461 29H11.2305V18.8145H12.5293V27.8516H17.2461V29ZM22.209 29.1641C21.4707 29.1641 20.8338 29 20.2983 28.6719C19.7629 28.3438 19.3504 27.8857 19.061 27.2979C18.7716 26.71 18.627 26.0241 18.627 25.2402C18.627 24.4564 18.7682 23.766 19.0508 23.1689C19.3333 22.5719 19.7332 22.1048 20.2505 21.7676C20.7677 21.4303 21.3727 21.2617 22.0654 21.2617C22.471 21.2617 22.8709 21.3289 23.2651 21.4634C23.6593 21.5978 24.0171 21.8143 24.3384 22.1128C24.6597 22.4113 24.916 22.8044 25.1074 23.292C25.2988 23.7796 25.3945 24.3766 25.3945 25.083V25.5957H19.8711C19.8893 26.0879 19.9873 26.5117 20.165 26.8672C20.361 27.2637 20.6356 27.5633 20.9888 27.7661C21.342 27.9689 21.751 28.0703 22.2158 28.0703C22.5166 28.0703 22.79 28.027 23.0361 27.9404C23.2822 27.8538 23.4941 27.7228 23.6719 27.5474C23.8496 27.3719 23.9863 27.1543 24.082 26.8945L25.2715 27.2227C25.153 27.6055 24.9525 27.9427 24.6699 28.2344C24.3874 28.526 24.0376 28.7539 23.6206 28.918C23.2036 29.082 22.7331 29.1641 22.209 29.1641ZM19.8779 24.5566H24.1436C24.1117 24.2103 24.0387 23.8913 23.9248 23.5996C23.7653 23.2122 23.5306 22.908 23.2207 22.687C22.9108 22.466 22.5257 22.3555 22.0654 22.3555C21.6051 22.3555 21.2109 22.4683 20.8828 22.6938C20.5547 22.9194 20.304 23.2122 20.1309 23.5723C19.985 23.8822 19.9007 24.2103 19.8779 24.5566ZM28.9492 21.3574H30.7129V22.4102H28.9492V29H27.7188V22.4102H26.2148V21.3574H27.7188V20.3389C27.7188 19.8968 27.8224 19.5277 28.0298 19.2314C28.2371 18.9352 28.5072 18.7119 28.8398 18.5615C29.1725 18.4111 29.5234 18.3359 29.8926 18.3359C30.1842 18.3359 30.4258 18.3599 30.6172 18.4077C30.8086 18.4556 30.9499 18.5 31.041 18.541L30.6992 19.5938C30.6354 19.571 30.5522 19.5459 30.4497 19.5186C30.3472 19.4912 30.2093 19.4775 30.0361 19.4775C29.6579 19.4775 29.3822 19.5744 29.209 19.7681C29.0358 19.9618 28.9492 20.2432 28.9492 20.6123V21.3574ZM33.7754 21.3574H35.3477V22.4102H33.7754V27.0176C33.7754 27.3594 33.8449 27.6089 33.9839 27.7661C34.1229 27.9233 34.3542 28.002 34.6777 28.002C34.7552 28.002 34.8543 27.9928 34.9751 27.9746C35.0959 27.9564 35.2064 27.9382 35.3066 27.9199L35.5596 28.959C35.432 29.0046 35.2873 29.0387 35.1255 29.0615C34.9637 29.0843 34.8031 29.0957 34.6436 29.0957C33.9827 29.0957 33.4678 28.9214 33.0986 28.5728C32.7295 28.2241 32.5449 27.7376 32.5449 27.1133V22.4102H31.3965V21.3574H32.5449V19.5391H33.7754V21.3574ZM42.9971 29.1777C42.514 29.1777 42.0754 29.0866 41.6812 28.9043C41.2869 28.722 40.9736 28.4554 40.7412 28.1045C40.5088 27.7536 40.3926 27.3275 40.3926 26.8262C40.3926 26.3887 40.4792 26.0332 40.6523 25.7598C40.8255 25.4863 41.0568 25.271 41.3462 25.1138C41.6356 24.9565 41.9557 24.8392 42.3066 24.7617C42.6576 24.6842 43.0107 24.6227 43.3662 24.5771C43.8219 24.5179 44.1934 24.4723 44.4805 24.4404C44.7676 24.4085 44.9806 24.3538 45.1196 24.2764C45.2586 24.1989 45.3281 24.0667 45.3281 23.8799V23.8389C45.3281 23.5199 45.2689 23.2498 45.1504 23.0288C45.0319 22.8078 44.8542 22.638 44.6172 22.5195C44.3802 22.401 44.084 22.3418 43.7285 22.3418C43.3639 22.3418 43.0518 22.3988 42.792 22.5127C42.5322 22.6266 42.3215 22.769 42.1597 22.9399C41.9979 23.1108 41.876 23.2852 41.7939 23.4629L40.6113 23.0732C40.8073 22.6084 41.0716 22.245 41.4043 21.9829C41.737 21.7209 42.1038 21.5352 42.5049 21.4258C42.9059 21.3164 43.3024 21.2617 43.6943 21.2617C43.9495 21.2617 44.2401 21.2925 44.5659 21.354C44.8918 21.4155 45.2062 21.5374 45.5093 21.7197C45.8123 21.902 46.063 22.172 46.2612 22.5298C46.4595 22.8875 46.5586 23.3649 46.5586 23.9619V29H45.3486V27.9609H45.2666C45.18 28.1387 45.041 28.3221 44.8496 28.5112C44.6582 28.7004 44.4098 28.8587 44.1045 28.9863C43.7992 29.1139 43.43 29.1777 42.9971 29.1777ZM43.209 28.0908C43.6647 28.0908 44.0498 28.002 44.3643 27.8242C44.6787 27.6465 44.918 27.4152 45.082 27.1304C45.2461 26.8455 45.3281 26.5482 45.3281 26.2383V25.1787C45.278 25.238 45.1686 25.2915 45 25.3394C44.8314 25.3872 44.6388 25.4294 44.4224 25.4658C44.2059 25.5023 43.9963 25.533 43.7935 25.5581C43.5907 25.5832 43.43 25.6025 43.3115 25.6162C43.0153 25.6527 42.7384 25.7153 42.481 25.8042C42.2235 25.8931 42.0173 26.0229 41.8623 26.1938C41.7074 26.3647 41.6299 26.596 41.6299 26.8877C41.6299 27.152 41.6982 27.373 41.835 27.5508C41.9717 27.7285 42.1585 27.863 42.3955 27.9541C42.6325 28.0452 42.9036 28.0908 43.209 28.0908ZM48.7188 18.8145H49.9492V29H48.7188V18.8145ZM53.3398 29H52.1094V21.3574H53.3398V29ZM52.7314 20.1064C52.499 20.1064 52.2985 20.0267 52.1299 19.8672C51.9613 19.7077 51.877 19.5163 51.877 19.293C51.877 19.0651 51.9613 18.8726 52.1299 18.7153C52.2985 18.5581 52.499 18.4795 52.7314 18.4795C52.9684 18.4795 53.1712 18.5581 53.3398 18.7153C53.5085 18.8726 53.5928 19.0651 53.5928 19.293C53.5928 19.5163 53.5085 19.7077 53.3398 19.8672C53.1712 20.0267 52.9684 20.1064 52.7314 20.1064ZM58.5967 32.0215C58.0316 32.0215 57.5428 31.9497 57.1304 31.8062C56.7179 31.6626 56.375 31.4723 56.1016 31.2354C55.8281 30.9984 55.6117 30.7409 55.4521 30.4629L56.4502 29.8203C56.5596 29.9661 56.6951 30.1279 56.8569 30.3057C57.0187 30.4834 57.2375 30.6349 57.5132 30.7603C57.7889 30.8856 58.1501 30.9482 58.5967 30.9482C59.2074 30.9482 59.7098 30.8024 60.104 30.5107C60.4982 30.2191 60.6953 29.7588 60.6953 29.1299V27.5986H60.5791C60.4925 27.7445 60.3706 27.9176 60.2134 28.1182C60.0562 28.3187 59.8306 28.4953 59.5366 28.6479C59.2427 28.8006 58.8496 28.877 58.3574 28.877C57.7467 28.877 57.1976 28.7323 56.71 28.4429C56.2223 28.1535 55.8372 27.7308 55.5547 27.1748C55.2721 26.6188 55.1309 25.9421 55.1309 25.1445C55.1309 24.3561 55.2699 23.6714 55.5479 23.0903C55.8258 22.5093 56.2098 22.0592 56.6997 21.7402C57.1896 21.4212 57.7513 21.2617 58.3848 21.2617C58.877 21.2617 59.27 21.3426 59.564 21.5044C59.8579 21.6662 60.0846 21.8519 60.2441 22.0615C60.4036 22.2712 60.5267 22.4443 60.6133 22.5811H60.7295V21.3574H61.9258V29.1982C61.9258 29.8545 61.7777 30.3911 61.4814 30.8081C61.1852 31.2251 60.7853 31.5316 60.2817 31.7275C59.7782 31.9235 59.2165 32.0215 58.5967 32.0215ZM58.5625 27.7832C59.0273 27.7832 59.4193 27.6772 59.7383 27.4653C60.0573 27.2534 60.2988 26.9481 60.4629 26.5493C60.627 26.1506 60.709 25.6732 60.709 25.1172C60.709 24.5749 60.6281 24.0975 60.4663 23.6851C60.3045 23.2726 60.0641 22.9491 59.7451 22.7144C59.4261 22.4797 59.0319 22.3623 58.5625 22.3623C58.0794 22.3623 57.6761 22.4865 57.3525 22.7349C57.029 22.9832 56.7863 23.3148 56.6245 23.7295C56.4627 24.1442 56.3818 24.6068 56.3818 25.1172C56.3818 25.6413 56.4639 26.1038 56.6279 26.5049C56.792 26.9059 57.0358 27.2192 57.3594 27.4448C57.6829 27.6704 58.084 27.7832 58.5625 27.7832ZM65.3164 24.4199V29H64.0859V21.3574H65.2686L65.2754 22.7725C65.4896 22.2939 65.7653 21.9385 66.1025 21.7061C66.5309 21.4098 67.0345 21.2617 67.6133 21.2617C68.1283 21.2617 68.5794 21.3677 68.9668 21.5796C69.3542 21.7915 69.6561 22.1105 69.8726 22.5366C70.089 22.9627 70.1973 23.4993 70.1973 24.1465V29H68.9668V24.249C68.9668 23.6611 68.813 23.2008 68.5054 22.8682C68.1978 22.5355 67.7773 22.3691 67.2441 22.3691C66.8796 22.3691 66.5514 22.4489 66.2598 22.6084C65.9681 22.7679 65.738 23.0003 65.5693 23.3057C65.4007 23.611 65.3164 23.9824 65.3164 24.4199ZM75.5703 29.1641C74.832 29.1641 74.1951 29 73.6597 28.6719C73.1242 28.3438 72.7118 27.8857 72.4224 27.2979C72.133 26.71 71.9883 26.0241 71.9883 25.2402C71.9883 24.4564 72.1296 23.766 72.4121 23.1689C72.6947 22.5719 73.0946 22.1048 73.6118 21.7676C74.1291 21.4303 74.734 21.2617 75.4268 21.2617C75.8324 21.2617 76.2323 21.3289 76.6265 21.4634C77.0207 21.5978 77.3784 21.8143 77.6997 22.1128C78.021 22.4113 78.2773 22.8044 78.4688 23.292C78.6602 23.7796 78.7559 24.3766 78.7559 25.083V25.5957H73.2324C73.2507 26.0879 73.3486 26.5117 73.5264 26.8672C73.7223 27.2637 73.9969 27.5633 74.3501 27.7661C74.7033 27.9689 75.1123 28.0703 75.5771 28.0703C75.8779 28.0703 76.1514 28.027 76.3975 27.9404C76.6436 27.8538 76.8555 27.7228 77.0332 27.5474C77.2109 27.3719 77.3477 27.1543 77.4434 26.8945L78.6328 27.2227C78.5143 27.6055 78.3138 27.9427 78.0312 28.2344C77.7487 28.526 77.3989 28.7539 76.9819 28.918C76.5649 29.082 76.0944 29.1641 75.5703 29.1641ZM73.2393 24.5566H77.5049C77.473 24.2103 77.4001 23.8913 77.2861 23.5996C77.1266 23.2122 76.8919 22.908 76.582 22.687C76.2721 22.466 75.887 22.3555 75.4268 22.3555C74.9665 22.3555 74.5723 22.4683 74.2441 22.6938C73.916 22.9194 73.6654 23.2122 73.4922 23.5723C73.3464 23.8822 73.262 24.2103 73.2393 24.5566ZM83.3838 29.1641C82.7503 29.1641 82.1898 29.0023 81.7021 28.6787C81.2145 28.3551 80.834 27.8971 80.5605 27.3047C80.2871 26.7122 80.1504 26.0104 80.1504 25.1992C80.1504 24.3926 80.2882 23.6942 80.564 23.104C80.8397 22.5138 81.2214 22.0592 81.709 21.7402C82.1966 21.4212 82.7572 21.2617 83.3906 21.2617C83.8874 21.2617 84.2816 21.3438 84.5732 21.5078C84.8649 21.6719 85.0894 21.8576 85.2466 22.0649C85.4038 22.2723 85.5234 22.4443 85.6055 22.5811H85.7012V18.8145H86.9316V29H85.7422V27.8174H85.6055C85.5234 27.9587 85.4015 28.1353 85.2397 28.3472C85.078 28.5591 84.8501 28.7482 84.5562 28.9146C84.2622 29.0809 83.8714 29.1641 83.3838 29.1641ZM83.5684 28.0635C84.0332 28.0635 84.4251 27.9416 84.7441 27.6978C85.0632 27.4539 85.3047 27.1156 85.4688 26.6826C85.6328 26.2497 85.7148 25.7507 85.7148 25.1855C85.7148 24.6204 85.634 24.1271 85.4722 23.7056C85.3104 23.284 85.07 22.9548 84.751 22.7178C84.432 22.4808 84.0378 22.3623 83.5684 22.3623C83.0853 22.3623 82.6831 22.4876 82.3618 22.7383C82.0405 22.9889 81.8001 23.3273 81.6406 23.7534C81.4811 24.1795 81.4014 24.6569 81.4014 25.1855C81.4014 25.7188 81.4823 26.203 81.644 26.6382C81.8058 27.0734 82.0485 27.4198 82.3721 27.6772C82.6956 27.9347 83.0944 28.0635 83.5684 28.0635Z" fill="black"/>
</svg>
