<svg width="200" height="60" viewBox="0 0 200 60" fill="none" xmlns="http://www.w3.org/2000/svg">
<rect width="200" height="60" fill="white"/>
<path d="M15.3525 29.1367C14.4821 29.1367 13.7062 28.9259 13.0249 28.5044C12.3436 28.0828 11.8081 27.4813 11.4185 26.6997C11.0288 25.9181 10.834 24.9896 10.834 23.9141C10.834 22.834 11.0288 21.9032 11.4185 21.1216C11.8081 20.34 12.3436 19.7373 13.0249 19.3135C13.7062 18.8896 14.4821 18.6777 15.3525 18.6777C15.8675 18.6777 16.354 18.7529 16.812 18.9033C17.27 19.0537 17.6813 19.2736 18.0459 19.563C18.4105 19.8524 18.7147 20.2033 18.9585 20.6157C19.2023 21.0282 19.3698 21.4964 19.4609 22.0205H18.1621C18.0892 21.6696 17.965 21.362 17.7896 21.0977C17.6141 20.8333 17.3999 20.61 17.147 20.4277C16.894 20.2454 16.6149 20.1087 16.3096 20.0176C16.0042 19.9264 15.6852 19.8809 15.3525 19.8809C14.7419 19.8809 14.1904 20.0358 13.6982 20.3457C13.2061 20.6556 12.8164 21.1102 12.5293 21.7095C12.2422 22.3088 12.0986 23.0436 12.0986 23.9141C12.0986 24.7799 12.2433 25.5125 12.5327 26.1118C12.8221 26.7111 13.2129 27.1646 13.7051 27.4722C14.1973 27.7798 14.7464 27.9336 15.3525 27.9336C15.6852 27.9336 16.0042 27.8869 16.3096 27.7935C16.6149 27.7 16.894 27.5633 17.147 27.3833C17.3999 27.2033 17.6141 26.98 17.7896 26.7134C17.965 26.4468 18.0892 26.1403 18.1621 25.7939H19.4609C19.3743 26.3135 19.2091 26.7783 18.9653 27.1885C18.7215 27.5986 18.4173 27.9495 18.0527 28.2412C17.6882 28.5329 17.2769 28.755 16.8188 28.9077C16.3608 29.0604 15.8721 29.1367 15.3525 29.1367ZM24.5195 29.1641C23.7812 29.1641 23.1444 29 22.6089 28.6719C22.0734 28.3438 21.661 27.8857 21.3716 27.2979C21.0822 26.71 20.9375 26.0241 20.9375 25.2402C20.9375 24.4564 21.0788 23.766 21.3613 23.1689C21.6439 22.5719 22.0438 22.1048 22.561 21.7676C23.0783 21.4303 23.6833 21.2617 24.376 21.2617C24.7816 21.2617 25.1815 21.3289 25.5757 21.4634C25.9699 21.5978 26.3276 21.8143 26.6489 22.1128C26.9702 22.4113 27.2266 22.8044 27.418 23.292C27.6094 23.7796 27.7051 24.3766 27.7051 25.083V25.5957H22.1816C22.1999 26.0879 22.2979 26.5117 22.4756 26.8672C22.6715 27.2637 22.9461 27.5633 23.2993 27.7661C23.6525 27.9689 24.0615 28.0703 24.5264 28.0703C24.8271 28.0703 25.1006 28.027 25.3467 27.9404C25.5928 27.8538 25.8047 27.7228 25.9824 27.5474C26.1602 27.3719 26.2969 27.1543 26.3926 26.8945L27.582 27.2227C27.4635 27.6055 27.263 27.9427 26.9805 28.2344C26.6979 28.526 26.3481 28.7539 25.9312 28.918C25.5142 29.082 25.0436 29.1641 24.5195 29.1641ZM22.1885 24.5566H26.4541C26.4222 24.2103 26.3493 23.8913 26.2354 23.5996C26.0758 23.2122 25.8411 22.908 25.5312 22.687C25.2214 22.466 24.8363 22.3555 24.376 22.3555C23.9157 22.3555 23.5215 22.4683 23.1934 22.6938C22.8652 22.9194 22.6146 23.2122 22.4414 23.5723C22.2956 23.8822 22.2113 24.2103 22.1885 24.5566ZM30.6992 24.4199V29H29.4688V21.3574H30.6514L30.6582 22.7725C30.8724 22.2939 31.1481 21.9385 31.4854 21.7061C31.9137 21.4098 32.4173 21.2617 32.9961 21.2617C33.5111 21.2617 33.9622 21.3677 34.3496 21.5796C34.737 21.7915 35.0389 22.1105 35.2554 22.5366C35.4718 22.9627 35.5801 23.4993 35.5801 24.1465V29H34.3496V24.249C34.3496 23.6611 34.1958 23.2008 33.8882 22.8682C33.5806 22.5355 33.1602 22.3691 32.627 22.3691C32.2624 22.3691 31.9342 22.4489 31.6426 22.6084C31.3509 22.7679 31.1208 23.0003 30.9521 23.3057C30.7835 23.611 30.6992 23.9824 30.6992 24.4199ZM39.1758 21.3574H40.748V22.4102H39.1758V27.0176C39.1758 27.3594 39.2453 27.6089 39.3843 27.7661C39.5233 27.9233 39.7546 28.002 40.0781 28.002C40.1556 28.002 40.2547 27.9928 40.3755 27.9746C40.4963 27.9564 40.6068 27.9382 40.707 27.9199L40.96 28.959C40.8324 29.0046 40.6877 29.0387 40.5259 29.0615C40.3641 29.0843 40.2035 29.0957 40.0439 29.0957C39.3831 29.0957 38.8682 28.9214 38.499 28.5728C38.1299 28.2241 37.9453 27.7376 37.9453 27.1133V22.4102H36.7969V21.3574H37.9453V19.5391H39.1758V21.3574ZM45.5332 29.1641C44.7949 29.1641 44.158 29 43.6226 28.6719C43.0871 28.3438 42.6746 27.8857 42.3853 27.2979C42.0959 26.71 41.9512 26.0241 41.9512 25.2402C41.9512 24.4564 42.0924 23.766 42.375 23.1689C42.6576 22.5719 43.0575 22.1048 43.5747 21.7676C44.092 21.4303 44.6969 21.2617 45.3896 21.2617C45.7952 21.2617 46.1951 21.3289 46.5894 21.4634C46.9836 21.5978 47.3413 21.8143 47.6626 22.1128C47.9839 22.4113 48.2402 22.8044 48.4316 23.292C48.623 23.7796 48.7188 24.3766 48.7188 25.083V25.5957H43.1953C43.2135 26.0879 43.3115 26.5117 43.4893 26.8672C43.6852 27.2637 43.9598 27.5633 44.313 27.7661C44.6662 27.9689 45.0752 28.0703 45.54 28.0703C45.8408 28.0703 46.1143 28.027 46.3604 27.9404C46.6064 27.8538 46.8184 27.7228 46.9961 27.5474C47.1738 27.3719 47.3105 27.1543 47.4062 26.8945L48.5957 27.2227C48.4772 27.6055 48.2767 27.9427 47.9941 28.2344C47.7116 28.526 47.3618 28.7539 46.9448 28.918C46.5278 29.082 46.0573 29.1641 45.5332 29.1641ZM43.2021 24.5566H47.4678C47.4359 24.2103 47.363 23.8913 47.249 23.5996C47.0895 23.2122 46.8548 22.908 46.5449 22.687C46.235 22.466 45.8499 22.3555 45.3896 22.3555C44.9294 22.3555 44.5352 22.4683 44.207 22.6938C43.8789 22.9194 43.6283 23.2122 43.4551 23.5723C43.3092 23.8822 43.2249 24.2103 43.2021 24.5566ZM51.7129 29H50.4824V21.3574H51.6719V22.5332H51.7539C51.8952 22.1458 52.147 21.8348 52.5093 21.6001C52.8716 21.3654 53.2806 21.248 53.7363 21.248C53.8275 21.248 53.9357 21.2503 54.061 21.2549C54.1864 21.2594 54.2855 21.264 54.3584 21.2686V22.5059C54.3219 22.4967 54.2308 22.4831 54.085 22.4648C53.9391 22.4466 53.7842 22.4375 53.6201 22.4375C53.2555 22.4375 52.9285 22.5138 52.6392 22.6665C52.3498 22.8192 52.123 23.0288 51.959 23.2954C51.7949 23.562 51.7129 23.8685 51.7129 24.2148V29ZM61.8301 29.1777C61.347 29.1777 60.9084 29.0866 60.5142 28.9043C60.12 28.722 59.8066 28.4554 59.5742 28.1045C59.3418 27.7536 59.2256 27.3275 59.2256 26.8262C59.2256 26.3887 59.3122 26.0332 59.4854 25.7598C59.6585 25.4863 59.8898 25.271 60.1792 25.1138C60.4686 24.9565 60.7887 24.8392 61.1396 24.7617C61.4906 24.6842 61.8438 24.6227 62.1992 24.5771C62.6549 24.5179 63.0264 24.4723 63.3135 24.4404C63.6006 24.4085 63.8136 24.3538 63.9526 24.2764C64.0916 24.1989 64.1611 24.0667 64.1611 23.8799V23.8389C64.1611 23.5199 64.1019 23.2498 63.9834 23.0288C63.8649 22.8078 63.6872 22.638 63.4502 22.5195C63.2132 22.401 62.917 22.3418 62.5615 22.3418C62.1969 22.3418 61.8848 22.3988 61.625 22.5127C61.3652 22.6266 61.1545 22.769 60.9927 22.9399C60.8309 23.1108 60.709 23.2852 60.627 23.4629L59.4443 23.0732C59.6403 22.6084 59.9046 22.245 60.2373 21.9829C60.57 21.7209 60.9368 21.5352 61.3379 21.4258C61.7389 21.3164 62.1354 21.2617 62.5273 21.2617C62.7826 21.2617 63.0731 21.2925 63.3989 21.354C63.7248 21.4155 64.0392 21.5374 64.3423 21.7197C64.6453 21.902 64.896 22.172 65.0942 22.5298C65.2925 22.8875 65.3916 23.3649 65.3916 23.9619V29H64.1816V27.9609H64.0996C64.013 28.1387 63.874 28.3221 63.6826 28.5112C63.4912 28.7004 63.2428 28.8587 62.9375 28.9863C62.6322 29.1139 62.263 29.1777 61.8301 29.1777ZM62.042 28.0908C62.4977 28.0908 62.8828 28.002 63.1973 27.8242C63.5117 27.6465 63.751 27.4152 63.915 27.1304C64.0791 26.8455 64.1611 26.5482 64.1611 26.2383V25.1787C64.111 25.238 64.0016 25.2915 63.833 25.3394C63.6644 25.3872 63.4718 25.4294 63.2554 25.4658C63.0389 25.5023 62.8293 25.533 62.6265 25.5581C62.4237 25.5832 62.263 25.6025 62.1445 25.6162C61.8483 25.6527 61.5715 25.7153 61.314 25.8042C61.0565 25.8931 60.8503 26.0229 60.6953 26.1938C60.5404 26.3647 60.4629 26.596 60.4629 26.8877C60.4629 27.152 60.5312 27.373 60.668 27.5508C60.8047 27.7285 60.9915 27.863 61.2285 27.9541C61.4655 28.0452 61.7367 28.0908 62.042 28.0908ZM67.5518 18.8145H68.7822V29H67.5518V18.8145ZM72.1729 29H70.9424V21.3574H72.1729V29ZM71.5645 20.1064C71.332 20.1064 71.1315 20.0267 70.9629 19.8672C70.7943 19.7077 70.71 19.5163 70.71 19.293C70.71 19.0651 70.7943 18.8726 70.9629 18.7153C71.1315 18.5581 71.332 18.4795 71.5645 18.4795C71.8014 18.4795 72.0042 18.5581 72.1729 18.7153C72.3415 18.8726 72.4258 19.0651 72.4258 19.293C72.4258 19.5163 72.3415 19.7077 72.1729 19.8672C72.0042 20.0267 71.8014 20.1064 71.5645 20.1064ZM77.4297 32.0215C76.8646 32.0215 76.3758 31.9497 75.9634 31.8062C75.5509 31.6626 75.208 31.4723 74.9346 31.2354C74.6611 30.9984 74.4447 30.7409 74.2852 30.4629L75.2832 29.8203C75.3926 29.9661 75.5282 30.1279 75.6899 30.3057C75.8517 30.4834 76.0705 30.6349 76.3462 30.7603C76.6219 30.8856 76.9831 30.9482 77.4297 30.9482C78.0404 30.9482 78.5428 30.8024 78.937 30.5107C79.3312 30.2191 79.5283 29.7588 79.5283 29.1299V27.5986H79.4121C79.3255 27.7445 79.2036 27.9176 79.0464 28.1182C78.8892 28.3187 78.6636 28.4953 78.3696 28.6479C78.0757 28.8006 77.6826 28.877 77.1904 28.877C76.5798 28.877 76.0306 28.7323 75.543 28.4429C75.0553 28.1535 74.6702 27.7308 74.3877 27.1748C74.1051 26.6188 73.9639 25.9421 73.9639 25.1445C73.9639 24.3561 74.1029 23.6714 74.3809 23.0903C74.6589 22.5093 75.0428 22.0592 75.5327 21.7402C76.0226 21.4212 76.5843 21.2617 77.2178 21.2617C77.71 21.2617 78.103 21.3426 78.397 21.5044C78.6909 21.6662 78.9176 21.8519 79.0771 22.0615C79.2367 22.2712 79.3597 22.4443 79.4463 22.5811H79.5625V21.3574H80.7588V29.1982C80.7588 29.8545 80.6107 30.3911 80.3145 30.8081C80.0182 31.2251 79.6183 31.5316 79.1147 31.7275C78.6112 31.9235 78.0495 32.0215 77.4297 32.0215ZM77.3955 27.7832C77.8604 27.7832 78.2523 27.6772 78.5713 27.4653C78.8903 27.2534 79.1318 26.9481 79.2959 26.5493C79.46 26.1506 79.542 25.6732 79.542 25.1172C79.542 24.5749 79.4611 24.0975 79.2993 23.6851C79.1375 23.2726 78.8971 22.9491 78.5781 22.7144C78.2591 22.4797 77.8649 22.3623 77.3955 22.3623C76.9124 22.3623 76.5091 22.4865 76.1855 22.7349C75.862 22.9832 75.6193 23.3148 75.4575 23.7295C75.2957 24.1442 75.2148 24.6068 75.2148 25.1172C75.2148 25.6413 75.2969 26.1038 75.4609 26.5049C75.625 26.9059 75.8688 27.2192 76.1924 27.4448C76.516 27.6704 76.917 27.7832 77.3955 27.7832ZM84.1494 24.4199V29H82.9189V21.3574H84.1016L84.1084 22.7725C84.3226 22.2939 84.5983 21.9385 84.9355 21.7061C85.3639 21.4098 85.8675 21.2617 86.4463 21.2617C86.9613 21.2617 87.4124 21.3677 87.7998 21.5796C88.1872 21.7915 88.4891 22.1105 88.7056 22.5366C88.922 22.9627 89.0303 23.4993 89.0303 24.1465V29H87.7998V24.249C87.7998 23.6611 87.646 23.2008 87.3384 22.8682C87.0308 22.5355 86.6104 22.3691 86.0771 22.3691C85.7126 22.3691 85.3844 22.4489 85.0928 22.6084C84.8011 22.7679 84.571 23.0003 84.4023 23.3057C84.2337 23.611 84.1494 23.9824 84.1494 24.4199ZM94.4033 29.1641C93.665 29.1641 93.0282 29 92.4927 28.6719C91.9572 28.3438 91.5448 27.8857 91.2554 27.2979C90.966 26.71 90.8213 26.0241 90.8213 25.2402C90.8213 24.4564 90.9626 23.766 91.2451 23.1689C91.5277 22.5719 91.9276 22.1048 92.4448 21.7676C92.9621 21.4303 93.5671 21.2617 94.2598 21.2617C94.6654 21.2617 95.0653 21.3289 95.4595 21.4634C95.8537 21.5978 96.2114 21.8143 96.5327 22.1128C96.854 22.4113 97.1104 22.8044 97.3018 23.292C97.4932 23.7796 97.5889 24.3766 97.5889 25.083V25.5957H92.0654C92.0837 26.0879 92.1816 26.5117 92.3594 26.8672C92.5553 27.2637 92.8299 27.5633 93.1831 27.7661C93.5363 27.9689 93.9453 28.0703 94.4102 28.0703C94.7109 28.0703 94.9844 28.027 95.2305 27.9404C95.4766 27.8538 95.6885 27.7228 95.8662 27.5474C96.0439 27.3719 96.1807 27.1543 96.2764 26.8945L97.4658 27.2227C97.3473 27.6055 97.1468 27.9427 96.8643 28.2344C96.5817 28.526 96.2319 28.7539 95.8149 28.918C95.3979 29.082 94.9274 29.1641 94.4033 29.1641ZM92.0723 24.5566H96.3379C96.306 24.2103 96.2331 23.8913 96.1191 23.5996C95.9596 23.2122 95.7249 22.908 95.415 22.687C95.1051 22.466 94.7201 22.3555 94.2598 22.3555C93.7995 22.3555 93.4053 22.4683 93.0771 22.6938C92.749 22.9194 92.4984 23.2122 92.3252 23.5723C92.1794 23.8822 92.0951 24.2103 92.0723 24.5566ZM102.217 29.1641C101.583 29.1641 101.023 29.0023 100.535 28.6787C100.048 28.3551 99.667 27.8971 99.3936 27.3047C99.1201 26.7122 98.9834 26.0104 98.9834 25.1992C98.9834 24.3926 99.1213 23.6942 99.397 23.104C99.6727 22.5138 100.054 22.0592 100.542 21.7402C101.03 21.4212 101.59 21.2617 102.224 21.2617C102.72 21.2617 103.115 21.3438 103.406 21.5078C103.698 21.6719 103.922 21.8576 104.08 22.0649C104.237 22.2723 104.356 22.4443 104.438 22.5811H104.534V18.8145H105.765V29H104.575V27.8174H104.438C104.356 27.9587 104.235 28.1353 104.073 28.3472C103.911 28.5591 103.683 28.7482 103.389 28.9146C103.095 29.0809 102.704 29.1641 102.217 29.1641ZM102.401 28.0635C102.866 28.0635 103.258 27.9416 103.577 27.6978C103.896 27.4539 104.138 27.1156 104.302 26.6826C104.466 26.2497 104.548 25.7507 104.548 25.1855C104.548 24.6204 104.467 24.1271 104.305 23.7056C104.143 23.284 103.903 22.9548 103.584 22.7178C103.265 22.4808 102.871 22.3623 102.401 22.3623C101.918 22.3623 101.516 22.4876 101.195 22.7383C100.874 22.9889 100.633 23.3273 100.474 23.7534C100.314 24.1795 100.234 24.6569 100.234 25.1855C100.234 25.7188 100.315 26.203 100.477 26.6382C100.639 27.0734 100.882 27.4198 101.205 27.6772C101.529 27.9347 101.927 28.0635 102.401 28.0635Z" fill="black"/>
</svg>
