<svg width="200" height="40" viewBox="0 0 200 40" fill="none" xmlns="http://www.w3.org/2000/svg">
<rect width="200" height="40" fill="white"/>
<path d="M13.208 20.127C12.6839 20.127 12.229 20.0423 11.8433 19.873C11.4575 19.7038 11.1556 19.467 10.9375 19.1626C10.7194 18.8582 10.5957 18.5026 10.5664 18.0957H11.5186C11.5446 18.3691 11.6374 18.5946 11.7969 18.772C11.9564 18.9494 12.1606 19.0812 12.4097 19.1675C12.6587 19.2537 12.9248 19.2969 13.208 19.2969C13.5368 19.2969 13.8322 19.2432 14.0942 19.1357C14.3563 19.0283 14.5638 18.877 14.7168 18.6816C14.8698 18.4863 14.9463 18.2601 14.9463 18.0029C14.9463 17.7686 14.8804 17.5781 14.7485 17.4316C14.6167 17.2852 14.4417 17.1647 14.2236 17.0703C14.0055 16.9759 13.7663 16.8929 13.5059 16.8213L12.627 16.5723C12.041 16.4062 11.5853 16.1686 11.2598 15.8594C10.9342 15.5501 10.7715 15.1546 10.7715 14.6729C10.7715 14.2627 10.8822 13.9038 11.1035 13.5962C11.3249 13.2886 11.6243 13.0501 12.002 12.8809C12.3796 12.7116 12.8027 12.627 13.2715 12.627C13.75 12.627 14.1732 12.7116 14.541 12.8809C14.9089 13.0501 15.1994 13.2804 15.4126 13.5718C15.6258 13.8631 15.7389 14.1927 15.752 14.5605H14.8438C14.8014 14.2057 14.6322 13.9315 14.3359 13.7378C14.0397 13.5441 13.6751 13.4473 13.2422 13.4473C12.9297 13.4473 12.6554 13.4985 12.4194 13.6011C12.1834 13.7036 12.0003 13.8436 11.8701 14.021C11.7399 14.1984 11.6748 14.401 11.6748 14.6289C11.6748 14.8828 11.7537 15.0871 11.9116 15.2417C12.0695 15.3963 12.2567 15.5168 12.4731 15.603C12.6896 15.6893 12.8857 15.7568 13.0615 15.8057L13.7891 16.0059C13.9844 16.0579 14.2 16.1296 14.436 16.2207C14.672 16.3118 14.8975 16.4331 15.1123 16.5845C15.3271 16.7358 15.5037 16.9279 15.6421 17.1606C15.7804 17.3934 15.8496 17.679 15.8496 18.0176C15.8496 18.4147 15.7463 18.7728 15.5396 19.0918C15.3328 19.4108 15.0326 19.6631 14.6387 19.8486C14.2448 20.0342 13.7679 20.127 13.208 20.127ZM18.0664 20H17.1875V14.541H18.042L18.0469 15.542C18.1185 15.3402 18.2145 15.1676 18.335 15.0244C18.4945 14.8324 18.6825 14.6875 18.8989 14.5898C19.1154 14.4922 19.3408 14.4434 19.5752 14.4434C19.9723 14.4434 20.2946 14.5654 20.542 14.8096C20.7406 15.0081 20.8822 15.2555 20.9668 15.5518C21.0352 15.3695 21.1312 15.2067 21.2549 15.0635C21.4274 14.8649 21.6366 14.7119 21.8823 14.6045C22.1281 14.4971 22.3958 14.4434 22.6855 14.4434C23.0013 14.4434 23.2894 14.5117 23.5498 14.6484C23.8102 14.7852 24.0177 14.9919 24.1724 15.2686C24.327 15.5452 24.4043 15.8952 24.4043 16.3184V20H23.5254V16.3428C23.5254 15.9489 23.4147 15.6673 23.1934 15.498C22.972 15.3288 22.7148 15.2441 22.4219 15.2441C22.1777 15.2441 21.967 15.2954 21.7896 15.3979C21.6121 15.5005 21.4754 15.6413 21.3794 15.8203C21.2834 15.9993 21.2354 16.2044 21.2354 16.4355V20H20.3564V16.2549C20.3564 15.9521 20.2555 15.708 20.0537 15.5225C19.8519 15.3369 19.5964 15.2441 19.2871 15.2441C19.0755 15.2441 18.8761 15.2938 18.689 15.3931C18.5018 15.4924 18.3512 15.6396 18.2373 15.835C18.1234 16.0303 18.0664 16.2728 18.0664 16.5625V20ZM27.4756 20.127C27.1305 20.127 26.8172 20.0618 26.5356 19.9316C26.2541 19.8014 26.0303 19.611 25.8643 19.3604C25.6982 19.1097 25.6152 18.8053 25.6152 18.4473C25.6152 18.1348 25.6771 17.8809 25.8008 17.6855C25.9245 17.4902 26.0897 17.3364 26.2964 17.2241C26.5031 17.1118 26.7318 17.028 26.9824 16.9727C27.2331 16.9173 27.4854 16.8734 27.7393 16.8408C28.0648 16.7985 28.3301 16.766 28.5352 16.7432C28.7402 16.7204 28.8924 16.6813 28.9917 16.626C29.091 16.5706 29.1406 16.4762 29.1406 16.3428V16.3135C29.1406 16.0856 29.0983 15.8927 29.0137 15.7349C28.929 15.577 28.8021 15.4557 28.6328 15.3711C28.4635 15.2865 28.252 15.2441 27.998 15.2441C27.7376 15.2441 27.5146 15.2848 27.3291 15.3662C27.1436 15.4476 26.993 15.5493 26.8774 15.6714C26.7619 15.7935 26.6748 15.918 26.6162 16.0449L25.7715 15.7666C25.9115 15.4346 26.1003 15.175 26.3379 14.9878C26.5755 14.8006 26.8376 14.668 27.124 14.5898C27.4105 14.5117 27.6937 14.4727 27.9736 14.4727C28.1559 14.4727 28.3634 14.4946 28.5962 14.5386C28.8289 14.5825 29.0535 14.6696 29.27 14.7998C29.4865 14.93 29.6655 15.1229 29.8071 15.3784C29.9487 15.634 30.0195 15.9749 30.0195 16.4014V20H29.1553V19.2578H29.0967C29.0348 19.3848 28.9355 19.5158 28.7988 19.6509C28.6621 19.786 28.4847 19.8991 28.2666 19.9902C28.0485 20.0814 27.7848 20.127 27.4756 20.127ZM27.627 19.3506C27.9525 19.3506 28.2275 19.2871 28.4521 19.1602C28.6768 19.0332 28.8477 18.868 28.9648 18.6646C29.082 18.4611 29.1406 18.2487 29.1406 18.0273V17.2705C29.1048 17.3128 29.0267 17.3511 28.9062 17.3853C28.7858 17.4194 28.6483 17.4495 28.4937 17.4756C28.339 17.5016 28.1893 17.5236 28.0444 17.5415C27.8996 17.5594 27.7848 17.5732 27.7002 17.583C27.4886 17.609 27.2909 17.6538 27.1069 17.7173C26.923 17.7808 26.7757 17.8735 26.665 17.9956C26.5544 18.1177 26.499 18.2829 26.499 18.4912C26.499 18.68 26.5479 18.8379 26.6455 18.9648C26.7432 19.0918 26.8766 19.1878 27.0459 19.2529C27.2152 19.318 27.4089 19.3506 27.627 19.3506ZM31.5625 12.7246H32.4414V20H31.5625V12.7246ZM33.9844 12.7246H34.8633V20H33.9844V12.7246ZM40.2441 14.541H41.3672V15.293H40.2441V18.584C40.2441 18.8281 40.2938 19.0063 40.3931 19.1187C40.4924 19.231 40.6576 19.2871 40.8887 19.2871C40.944 19.2871 41.0148 19.2806 41.1011 19.2676C41.1873 19.2546 41.2663 19.2415 41.3379 19.2285L41.5186 19.9707C41.4274 20.0033 41.3241 20.0277 41.2085 20.0439C41.0929 20.0602 40.9782 20.0684 40.8643 20.0684C40.3923 20.0684 40.0244 19.9438 39.7607 19.6948C39.4971 19.4458 39.3652 19.0983 39.3652 18.6523V15.293H38.5449V14.541H39.3652V13.2422H40.2441V14.541ZM44.7852 20.1172C44.2578 20.1172 43.8029 20 43.4204 19.7656C43.0379 19.5312 42.7433 19.2041 42.5366 18.7842C42.3299 18.3643 42.2266 17.8743 42.2266 17.3145C42.2266 16.7546 42.3275 16.2614 42.5293 15.835C42.7311 15.4085 43.0168 15.0749 43.3862 14.834C43.7557 14.5931 44.1878 14.4727 44.6826 14.4727C44.9723 14.4727 45.258 14.5207 45.5396 14.6167C45.8211 14.7127 46.0767 14.8674 46.3062 15.0806C46.5356 15.2938 46.7188 15.5745 46.8555 15.9229C46.9922 16.2712 47.0605 16.6976 47.0605 17.2021V17.5684H43.1152C43.1283 17.9199 43.1982 18.2227 43.3252 18.4766C43.4652 18.7598 43.6613 18.9738 43.9136 19.1187C44.1659 19.2635 44.458 19.3359 44.79 19.3359C45.0049 19.3359 45.2002 19.305 45.376 19.2432C45.5518 19.1813 45.7031 19.0877 45.8301 18.9624C45.957 18.8371 46.0547 18.6816 46.123 18.4961L46.9727 18.7305C46.888 19.0039 46.7448 19.2448 46.543 19.4531C46.3411 19.6615 46.0913 19.8242 45.7935 19.9414C45.4956 20.0586 45.1595 20.1172 44.7852 20.1172ZM43.1201 16.8262H46.167C46.1442 16.5788 46.0921 16.3509 46.0107 16.1426C45.8968 15.8659 45.7292 15.6486 45.5078 15.4907C45.2865 15.3328 45.0114 15.2539 44.6826 15.2539C44.3538 15.2539 44.0723 15.3345 43.8379 15.4956C43.6035 15.6567 43.4245 15.8659 43.3008 16.123C43.1966 16.3444 43.1364 16.5788 43.1201 16.8262ZM48.8818 20H47.8662L49.7852 17.1973L47.9785 14.541H49.0039L49.6826 15.6006C49.8584 15.874 50.0114 16.1296 50.1416 16.3672C50.1937 16.4681 50.249 16.569 50.3076 16.6699C50.3597 16.569 50.4118 16.4681 50.4639 16.3672C50.5778 16.1296 50.7243 15.874 50.9033 15.6006L51.5967 14.541H52.6025L50.7764 17.2461L52.6904 20H51.6699L50.8691 18.7744C50.6966 18.5075 50.5485 18.2585 50.4248 18.0273C50.3727 17.9362 50.3206 17.8467 50.2686 17.7588C50.2197 17.8467 50.1725 17.9362 50.127 18.0273C50.013 18.2585 49.8682 18.5075 49.6924 18.7744L48.8818 20ZM54.8047 14.541H55.9277V15.293H54.8047V18.584C54.8047 18.8281 54.8543 19.0063 54.9536 19.1187C55.0529 19.231 55.2181 19.2871 55.4492 19.2871C55.5046 19.2871 55.5754 19.2806 55.6616 19.2676C55.7479 19.2546 55.8268 19.2415 55.8984 19.2285L56.0791 19.9707C55.988 20.0033 55.8846 20.0277 55.769 20.0439C55.6535 20.0602 55.5387 20.0684 55.4248 20.0684C54.9528 20.0684 54.585 19.9438 54.3213 19.6948C54.0576 19.4458 53.9258 19.0983 53.9258 18.6523V15.293H53.1055V14.541H53.9258V13.2422H54.8047V14.541ZM61.3916 20.127C61.0465 20.127 60.7332 20.0618 60.4517 19.9316C60.1701 19.8014 59.9463 19.611 59.7803 19.3604C59.6143 19.1097 59.5312 18.8053 59.5312 18.4473C59.5312 18.1348 59.5931 17.8809 59.7168 17.6855C59.8405 17.4902 60.0057 17.3364 60.2124 17.2241C60.4191 17.1118 60.6478 17.028 60.8984 16.9727C61.1491 16.9173 61.4014 16.8734 61.6553 16.8408C61.9808 16.7985 62.2461 16.766 62.4512 16.7432C62.6562 16.7204 62.8084 16.6813 62.9077 16.626C63.007 16.5706 63.0566 16.4762 63.0566 16.3428V16.3135C63.0566 16.0856 63.0143 15.8927 62.9297 15.7349C62.8451 15.577 62.7181 15.4557 62.5488 15.3711C62.3796 15.2865 62.168 15.2441 61.9141 15.2441C61.6536 15.2441 61.4307 15.2848 61.2451 15.3662C61.0596 15.4476 60.909 15.5493 60.7935 15.6714C60.6779 15.7935 60.5908 15.918 60.5322 16.0449L59.6875 15.7666C59.8275 15.4346 60.0163 15.175 60.2539 14.9878C60.4915 14.8006 60.7536 14.668 61.04 14.5898C61.3265 14.5117 61.6097 14.4727 61.8896 14.4727C62.0719 14.4727 62.2795 14.4946 62.5122 14.5386C62.745 14.5825 62.9696 14.6696 63.186 14.7998C63.4025 14.93 63.5815 15.1229 63.7231 15.3784C63.8647 15.634 63.9355 15.9749 63.9355 16.4014V20H63.0713V19.2578H63.0127C62.9508 19.3848 62.8516 19.5158 62.7148 19.6509C62.5781 19.786 62.4007 19.8991 62.1826 19.9902C61.9645 20.0814 61.7008 20.127 61.3916 20.127ZM61.543 19.3506C61.8685 19.3506 62.1436 19.2871 62.3682 19.1602C62.5928 19.0332 62.7637 18.868 62.8809 18.6646C62.998 18.4611 63.0566 18.2487 63.0566 18.0273V17.2705C63.0208 17.3128 62.9427 17.3511 62.8223 17.3853C62.7018 17.4194 62.5643 17.4495 62.4097 17.4756C62.255 17.5016 62.1053 17.5236 61.9604 17.5415C61.8156 17.5594 61.7008 17.5732 61.6162 17.583C61.4046 17.609 61.2069 17.6538 61.0229 17.7173C60.839 17.7808 60.6917 17.8735 60.5811 17.9956C60.4704 18.1177 60.415 18.2829 60.415 18.4912C60.415 18.68 60.4639 18.8379 60.5615 18.9648C60.6592 19.0918 60.7926 19.1878 60.9619 19.2529C61.1312 19.318 61.3249 19.3506 61.543 19.3506ZM66.5039 14.541H67.627V15.293H66.5039V18.584C66.5039 18.8281 66.5535 19.0063 66.6528 19.1187C66.7521 19.231 66.9173 19.2871 67.1484 19.2871C67.2038 19.2871 67.2746 19.2806 67.3608 19.2676C67.4471 19.2546 67.526 19.2415 67.5977 19.2285L67.7783 19.9707C67.6872 20.0033 67.5838 20.0277 67.4683 20.0439C67.3527 20.0602 67.238 20.0684 67.124 20.0684C66.652 20.0684 66.2842 19.9438 66.0205 19.6948C65.7568 19.4458 65.625 19.0983 65.625 18.6523V15.293H64.8047V14.541H65.625V13.2422H66.5039V14.541ZM72.8418 12.7246H73.9795V20H73.0664V13.584H73.0176L71.2598 14.8877V13.8916L72.8418 12.7246ZM78.0127 20.0977C77.4723 20.0977 77.0117 19.9512 76.6309 19.6582C76.25 19.3652 75.9587 18.9412 75.7568 18.3862C75.555 17.8312 75.4541 17.1582 75.4541 16.3672C75.4541 15.5794 75.5558 14.9072 75.7593 14.3506C75.9627 13.7939 76.2549 13.3675 76.6357 13.0713C77.0166 12.7751 77.4756 12.627 78.0127 12.627C78.5498 12.627 79.0096 12.7751 79.3921 13.0713C79.7746 13.3675 80.0667 13.7939 80.2686 14.3506C80.4704 14.9072 80.5713 15.5794 80.5713 16.3672C80.5713 17.1549 80.4712 17.8271 80.271 18.3838C80.0708 18.9404 79.7803 19.3652 79.3994 19.6582C79.0186 19.9512 78.5563 20.0977 78.0127 20.0977ZM78.0127 19.2871C78.3675 19.2871 78.6686 19.1715 78.916 18.9404C79.1634 18.7093 79.3522 18.3765 79.4824 17.9419C79.6126 17.5073 79.6777 16.9824 79.6777 16.3672C79.6777 15.7487 79.6126 15.2205 79.4824 14.7827C79.3522 14.3449 79.1634 14.0104 78.916 13.7793C78.6686 13.5482 78.3675 13.4326 78.0127 13.4326C77.6579 13.4326 77.3568 13.549 77.1094 13.7817C76.862 14.0145 76.6732 14.349 76.543 14.7852C76.4128 15.2214 76.3477 15.7487 76.3477 16.3672C76.3477 16.9824 76.4128 17.5073 76.543 17.9419C76.6732 18.3765 76.862 18.7093 77.1094 18.9404C77.3568 19.1715 77.6579 19.2871 78.0127 19.2871ZM82.8174 22.041H81.9385V14.541H82.7881V15.415H82.8857C82.9476 15.3174 83.0339 15.1945 83.1445 15.0464C83.2552 14.8983 83.4147 14.7656 83.623 14.6484C83.8314 14.5312 84.113 14.4727 84.4678 14.4727C84.9235 14.4727 85.3247 14.5866 85.6714 14.8145C86.0181 15.0423 86.2899 15.367 86.4868 15.7886C86.6838 16.2101 86.7822 16.709 86.7822 17.2852C86.7822 17.8646 86.6846 18.3659 86.4893 18.7891C86.2939 19.2122 86.0229 19.5394 85.6763 19.7705C85.3296 20.0016 84.9284 20.1172 84.4727 20.1172C84.1276 20.1172 83.8493 20.0578 83.6377 19.939C83.4261 19.8201 83.2633 19.6851 83.1494 19.5337C83.0355 19.3823 82.9476 19.2562 82.8857 19.1553H82.8174V22.041ZM84.3408 19.3311C84.6826 19.3311 84.9683 19.2391 85.1978 19.0552C85.4272 18.8713 85.5998 18.6239 85.7153 18.313C85.8309 18.0021 85.8887 17.6562 85.8887 17.2754C85.8887 16.8978 85.8317 16.5568 85.7178 16.2524C85.6038 15.9481 85.4321 15.7064 85.2026 15.5273C84.9731 15.3483 84.6859 15.2588 84.3408 15.2588C84.0055 15.2588 83.724 15.3434 83.4961 15.5127C83.2682 15.682 83.0965 15.9172 82.981 16.2183C82.8654 16.5194 82.8076 16.8717 82.8076 17.2754C82.8076 17.679 82.8662 18.0355 82.9834 18.3447C83.1006 18.654 83.2739 18.8957 83.5034 19.0698C83.7329 19.244 84.012 19.3311 84.3408 19.3311ZM88.623 20H87.6074L89.5264 17.1973L87.7197 14.541H88.7451L89.4238 15.6006C89.5996 15.874 89.7526 16.1296 89.8828 16.3672C89.9349 16.4681 89.9902 16.569 90.0488 16.6699C90.1009 16.569 90.153 16.4681 90.2051 16.3672C90.319 16.1296 90.4655 15.874 90.6445 15.6006L91.3379 14.541H92.3438L90.5176 17.2461L92.4316 20H91.4111L90.6104 18.7744C90.4378 18.5075 90.2897 18.2585 90.166 18.0273C90.1139 17.9362 90.0618 17.8467 90.0098 17.7588C89.9609 17.8467 89.9137 17.9362 89.8682 18.0273C89.7542 18.2585 89.6094 18.5075 89.4336 18.7744L88.623 20Z" fill="black"/>
</svg>
