<svg width="200" height="60" viewBox="0 0 200 60" fill="none" xmlns="http://www.w3.org/2000/svg">
<rect width="200" height="60" fill="white"/>
<path d="M12.5293 29H11.2305V18.8145H14.7168C15.5098 18.8145 16.1626 18.95 16.6753 19.2212C17.188 19.4923 17.5685 19.8649 17.8169 20.3389C18.0653 20.8128 18.1895 21.3529 18.1895 21.959C18.1895 22.5651 18.0653 23.1006 17.8169 23.5654C17.5685 24.0303 17.1891 24.3926 16.6787 24.6523C16.5602 24.7161 16.4349 24.7708 16.3027 24.8164L18.5859 29H17.082L14.9629 25.042C14.8854 25.0465 14.8057 25.0488 14.7236 25.0488H12.5293V29ZM12.5293 19.9561V23.8936H14.6621C15.1999 23.8936 15.6317 23.8149 15.9575 23.6577C16.2834 23.5005 16.5215 23.2772 16.6719 22.9878C16.8223 22.6984 16.8975 22.3555 16.8975 21.959C16.8975 21.5534 16.8223 21.2013 16.6719 20.9028C16.5215 20.6043 16.2822 20.3719 15.9541 20.2056C15.626 20.0392 15.1908 19.9561 14.6484 19.9561H12.5293ZM21.3203 29H20.0898V21.3574H21.3203V29ZM20.7119 20.1064C20.4795 20.1064 20.279 20.0267 20.1104 19.8672C19.9417 19.7077 19.8574 19.5163 19.8574 19.293C19.8574 19.0651 19.9417 18.8726 20.1104 18.7153C20.279 18.5581 20.4795 18.4795 20.7119 18.4795C20.9489 18.4795 21.1517 18.5581 21.3203 18.7153C21.4889 18.8726 21.5732 19.0651 21.5732 19.293C21.5732 19.5163 21.4889 19.7077 21.3203 19.8672C21.1517 20.0267 20.9489 20.1064 20.7119 20.1064ZM26.5771 32.0215C26.012 32.0215 25.5233 31.9497 25.1108 31.8062C24.6984 31.6626 24.3555 31.4723 24.082 31.2354C23.8086 30.9984 23.5921 30.7409 23.4326 30.4629L24.4307 29.8203C24.54 29.9661 24.6756 30.1279 24.8374 30.3057C24.9992 30.4834 25.2179 30.6349 25.4937 30.7603C25.7694 30.8856 26.1305 30.9482 26.5771 30.9482C27.1878 30.9482 27.6903 30.8024 28.0845 30.5107C28.4787 30.2191 28.6758 29.7588 28.6758 29.1299V27.5986H28.5596C28.473 27.7445 28.3511 27.9176 28.1938 28.1182C28.0366 28.3187 27.811 28.4953 27.5171 28.6479C27.2231 28.8006 26.8301 28.877 26.3379 28.877C25.7272 28.877 25.1781 28.7323 24.6904 28.4429C24.2028 28.1535 23.8177 27.7308 23.5352 27.1748C23.2526 26.6188 23.1113 25.9421 23.1113 25.1445C23.1113 24.3561 23.2503 23.6714 23.5283 23.0903C23.8063 22.5093 24.1903 22.0592 24.6802 21.7402C25.1701 21.4212 25.7318 21.2617 26.3652 21.2617C26.8574 21.2617 27.2505 21.3426 27.5444 21.5044C27.8384 21.6662 28.0651 21.8519 28.2246 22.0615C28.3841 22.2712 28.5072 22.4443 28.5938 22.5811H28.71V21.3574H29.9062V29.1982C29.9062 29.8545 29.7581 30.3911 29.4619 30.8081C29.1657 31.2251 28.7658 31.5316 28.2622 31.7275C27.7586 31.9235 27.1969 32.0215 26.5771 32.0215ZM26.543 27.7832C27.0078 27.7832 27.3997 27.6772 27.7188 27.4653C28.0378 27.2534 28.2793 26.9481 28.4434 26.5493C28.6074 26.1506 28.6895 25.6732 28.6895 25.1172C28.6895 24.5749 28.6086 24.0975 28.4468 23.6851C28.285 23.2726 28.0446 22.9491 27.7256 22.7144C27.4066 22.4797 27.0124 22.3623 26.543 22.3623C26.0599 22.3623 25.6566 22.4865 25.333 22.7349C25.0094 22.9832 24.7668 23.3148 24.605 23.7295C24.4432 24.1442 24.3623 24.6068 24.3623 25.1172C24.3623 25.6413 24.4443 26.1038 24.6084 26.5049C24.7725 26.9059 25.0163 27.2192 25.3398 27.4448C25.6634 27.6704 26.0645 27.7832 26.543 27.7832ZM33.2969 24.4199V29H32.0664V18.8145H33.2969V22.6768C33.5065 22.2438 33.7686 21.9202 34.083 21.7061C34.5114 21.4098 35.015 21.2617 35.5938 21.2617C36.1087 21.2617 36.561 21.3677 36.9507 21.5796C37.3403 21.7915 37.6434 22.1105 37.8599 22.5366C38.0763 22.9627 38.1846 23.4993 38.1846 24.1465V29H36.9473V24.249C36.9473 23.6611 36.7935 23.2008 36.4858 22.8682C36.1782 22.5355 35.7578 22.3691 35.2246 22.3691C34.86 22.3691 34.5319 22.4489 34.2402 22.6084C33.9486 22.7679 33.7184 23.0003 33.5498 23.3057C33.3812 23.611 33.2969 23.9824 33.2969 24.4199ZM41.7803 21.3574H43.3525V22.4102H41.7803V27.0176C41.7803 27.3594 41.8498 27.6089 41.9888 27.7661C42.1278 27.9233 42.359 28.002 42.6826 28.002C42.7601 28.002 42.8592 27.9928 42.98 27.9746C43.1007 27.9564 43.2113 27.9382 43.3115 27.9199L43.5645 28.959C43.4368 29.0046 43.2922 29.0387 43.1304 29.0615C42.9686 29.0843 42.8079 29.0957 42.6484 29.0957C41.9876 29.0957 41.4727 28.9214 41.1035 28.5728C40.7344 28.2241 40.5498 27.7376 40.5498 27.1133V22.4102H39.4014V21.3574H40.5498V19.5391H41.7803V21.3574ZM51.002 29.1777C50.5189 29.1777 50.0802 29.0866 49.686 28.9043C49.2918 28.722 48.9785 28.4554 48.7461 28.1045C48.5137 27.7536 48.3975 27.3275 48.3975 26.8262C48.3975 26.3887 48.484 26.0332 48.6572 25.7598C48.8304 25.4863 49.0617 25.271 49.3511 25.1138C49.6405 24.9565 49.9606 24.8392 50.3115 24.7617C50.6624 24.6842 51.0156 24.6227 51.3711 24.5771C51.8268 24.5179 52.1982 24.4723 52.4854 24.4404C52.7725 24.4085 52.9855 24.3538 53.1245 24.2764C53.2635 24.1989 53.333 24.0667 53.333 23.8799V23.8389C53.333 23.5199 53.2738 23.2498 53.1553 23.0288C53.0368 22.8078 52.859 22.638 52.6221 22.5195C52.3851 22.401 52.0889 22.3418 51.7334 22.3418C51.3688 22.3418 51.0566 22.3988 50.7969 22.5127C50.5371 22.6266 50.3263 22.769 50.1646 22.9399C50.0028 23.1108 49.8809 23.2852 49.7988 23.4629L48.6162 23.0732C48.8122 22.6084 49.0765 22.245 49.4092 21.9829C49.7419 21.7209 50.1087 21.5352 50.5098 21.4258C50.9108 21.3164 51.3073 21.2617 51.6992 21.2617C51.9544 21.2617 52.245 21.2925 52.5708 21.354C52.8966 21.4155 53.2111 21.5374 53.5142 21.7197C53.8172 21.902 54.0679 22.172 54.2661 22.5298C54.4644 22.8875 54.5635 23.3649 54.5635 23.9619V29H53.3535V27.9609H53.2715C53.1849 28.1387 53.0459 28.3221 52.8545 28.5112C52.6631 28.7004 52.4147 28.8587 52.1094 28.9863C51.804 29.1139 51.4349 29.1777 51.002 29.1777ZM51.2139 28.0908C51.6696 28.0908 52.0547 28.002 52.3691 27.8242C52.6836 27.6465 52.9229 27.4152 53.0869 27.1304C53.251 26.8455 53.333 26.5482 53.333 26.2383V25.1787C53.2829 25.238 53.1735 25.2915 53.0049 25.3394C52.8363 25.3872 52.6437 25.4294 52.4272 25.4658C52.2108 25.5023 52.0011 25.533 51.7983 25.5581C51.5955 25.5832 51.4349 25.6025 51.3164 25.6162C51.0202 25.6527 50.7433 25.7153 50.4858 25.8042C50.2284 25.8931 50.0221 26.0229 49.8672 26.1938C49.7122 26.3647 49.6348 26.596 49.6348 26.8877C49.6348 27.152 49.7031 27.373 49.8398 27.5508C49.9766 27.7285 50.1634 27.863 50.4004 27.9541C50.6374 28.0452 50.9085 28.0908 51.2139 28.0908ZM56.7236 18.8145H57.9541V29H56.7236V18.8145ZM61.3447 29H60.1143V21.3574H61.3447V29ZM60.7363 20.1064C60.5039 20.1064 60.3034 20.0267 60.1348 19.8672C59.9661 19.7077 59.8818 19.5163 59.8818 19.293C59.8818 19.0651 59.9661 18.8726 60.1348 18.7153C60.3034 18.5581 60.5039 18.4795 60.7363 18.4795C60.9733 18.4795 61.1761 18.5581 61.3447 18.7153C61.5133 18.8726 61.5977 19.0651 61.5977 19.293C61.5977 19.5163 61.5133 19.7077 61.3447 19.8672C61.1761 20.0267 60.9733 20.1064 60.7363 20.1064ZM66.6016 32.0215C66.0365 32.0215 65.5477 31.9497 65.1353 31.8062C64.7228 31.6626 64.3799 31.4723 64.1064 31.2354C63.833 30.9984 63.6165 30.7409 63.457 30.4629L64.4551 29.8203C64.5645 29.9661 64.7 30.1279 64.8618 30.3057C65.0236 30.4834 65.2424 30.6349 65.5181 30.7603C65.7938 30.8856 66.1549 30.9482 66.6016 30.9482C67.2122 30.9482 67.7147 30.8024 68.1089 30.5107C68.5031 30.2191 68.7002 29.7588 68.7002 29.1299V27.5986H68.584C68.4974 27.7445 68.3755 27.9176 68.2183 28.1182C68.061 28.3187 67.8354 28.4953 67.5415 28.6479C67.2476 28.8006 66.8545 28.877 66.3623 28.877C65.7516 28.877 65.2025 28.7323 64.7148 28.4429C64.2272 28.1535 63.8421 27.7308 63.5596 27.1748C63.277 26.6188 63.1357 25.9421 63.1357 25.1445C63.1357 24.3561 63.2747 23.6714 63.5527 23.0903C63.8307 22.5093 64.2147 22.0592 64.7046 21.7402C65.1945 21.4212 65.7562 21.2617 66.3896 21.2617C66.8818 21.2617 67.2749 21.3426 67.5688 21.5044C67.8628 21.6662 68.0895 21.8519 68.249 22.0615C68.4085 22.2712 68.5316 22.4443 68.6182 22.5811H68.7344V21.3574H69.9307V29.1982C69.9307 29.8545 69.7826 30.3911 69.4863 30.8081C69.1901 31.2251 68.7902 31.5316 68.2866 31.7275C67.783 31.9235 67.2214 32.0215 66.6016 32.0215ZM66.5674 27.7832C67.0322 27.7832 67.4242 27.6772 67.7432 27.4653C68.0622 27.2534 68.3037 26.9481 68.4678 26.5493C68.6318 26.1506 68.7139 25.6732 68.7139 25.1172C68.7139 24.5749 68.633 24.0975 68.4712 23.6851C68.3094 23.2726 68.069 22.9491 67.75 22.7144C67.431 22.4797 67.0368 22.3623 66.5674 22.3623C66.0843 22.3623 65.681 22.4865 65.3574 22.7349C65.0339 22.9832 64.7912 23.3148 64.6294 23.7295C64.4676 24.1442 64.3867 24.6068 64.3867 25.1172C64.3867 25.6413 64.4688 26.1038 64.6328 26.5049C64.7969 26.9059 65.0407 27.2192 65.3643 27.4448C65.6878 27.6704 66.0889 27.7832 66.5674 27.7832ZM73.3213 24.4199V29H72.0908V21.3574H73.2734L73.2803 22.7725C73.4945 22.2939 73.7702 21.9385 74.1074 21.7061C74.5358 21.4098 75.0394 21.2617 75.6182 21.2617C76.1331 21.2617 76.5843 21.3677 76.9717 21.5796C77.359 21.7915 77.661 22.1105 77.8774 22.5366C78.0939 22.9627 78.2021 23.4993 78.2021 24.1465V29H76.9717V24.249C76.9717 23.6611 76.8179 23.2008 76.5103 22.8682C76.2026 22.5355 75.7822 22.3691 75.249 22.3691C74.8844 22.3691 74.5563 22.4489 74.2646 22.6084C73.973 22.7679 73.7428 23.0003 73.5742 23.3057C73.4056 23.611 73.3213 23.9824 73.3213 24.4199ZM83.5752 29.1641C82.8369 29.1641 82.2 29 81.6646 28.6719C81.1291 28.3438 80.7166 27.8857 80.4272 27.2979C80.1379 26.71 79.9932 26.0241 79.9932 25.2402C79.9932 24.4564 80.1344 23.766 80.417 23.1689C80.6995 22.5719 81.0994 22.1048 81.6167 21.7676C82.134 21.4303 82.7389 21.2617 83.4316 21.2617C83.8372 21.2617 84.2371 21.3289 84.6313 21.4634C85.0256 21.5978 85.3833 21.8143 85.7046 22.1128C86.0259 22.4113 86.2822 22.8044 86.4736 23.292C86.665 23.7796 86.7607 24.3766 86.7607 25.083V25.5957H81.2373C81.2555 26.0879 81.3535 26.5117 81.5312 26.8672C81.7272 27.2637 82.0018 27.5633 82.355 27.7661C82.7082 27.9689 83.1172 28.0703 83.582 28.0703C83.8828 28.0703 84.1562 28.027 84.4023 27.9404C84.6484 27.8538 84.8604 27.7228 85.0381 27.5474C85.2158 27.3719 85.3525 27.1543 85.4482 26.8945L86.6377 27.2227C86.5192 27.6055 86.3187 27.9427 86.0361 28.2344C85.7536 28.526 85.4038 28.7539 84.9868 28.918C84.5698 29.082 84.0993 29.1641 83.5752 29.1641ZM81.2441 24.5566H85.5098C85.4779 24.2103 85.4049 23.8913 85.291 23.5996C85.1315 23.2122 84.8968 22.908 84.5869 22.687C84.277 22.466 83.8919 22.3555 83.4316 22.3555C82.9714 22.3555 82.5771 22.4683 82.249 22.6938C81.9209 22.9194 81.6702 23.2122 81.4971 23.5723C81.3512 23.8822 81.2669 24.2103 81.2441 24.5566ZM91.3887 29.1641C90.7552 29.1641 90.1947 29.0023 89.707 28.6787C89.2194 28.3551 88.8389 27.8971 88.5654 27.3047C88.292 26.7122 88.1553 26.0104 88.1553 25.1992C88.1553 24.3926 88.2931 23.6942 88.5688 23.104C88.8446 22.5138 89.2262 22.0592 89.7139 21.7402C90.2015 21.4212 90.762 21.2617 91.3955 21.2617C91.8923 21.2617 92.2865 21.3438 92.5781 21.5078C92.8698 21.6719 93.0942 21.8576 93.2515 22.0649C93.4087 22.2723 93.5283 22.4443 93.6104 22.5811H93.7061V18.8145H94.9365V29H93.7471V27.8174H93.6104C93.5283 27.9587 93.4064 28.1353 93.2446 28.3472C93.0828 28.5591 92.855 28.7482 92.561 28.9146C92.2671 29.0809 91.8763 29.1641 91.3887 29.1641ZM91.5732 28.0635C92.0381 28.0635 92.43 27.9416 92.749 27.6978C93.068 27.4539 93.3096 27.1156 93.4736 26.6826C93.6377 26.2497 93.7197 25.7507 93.7197 25.1855C93.7197 24.6204 93.6388 24.1271 93.4771 23.7056C93.3153 23.284 93.0749 22.9548 92.7559 22.7178C92.4368 22.4808 92.0426 22.3623 91.5732 22.3623C91.0902 22.3623 90.688 22.4876 90.3667 22.7383C90.0454 22.9889 89.805 23.3273 89.6455 23.7534C89.486 24.1795 89.4062 24.6569 89.4062 25.1855C89.4062 25.7188 89.4871 26.203 89.6489 26.6382C89.8107 27.0734 90.0534 27.4198 90.377 27.6772C90.7005 27.9347 91.0993 28.0635 91.5732 28.0635Z" fill="black"/>
</svg>
