<svg width="200" height="80" viewBox="0 0 200 80" fill="none" xmlns="http://www.w3.org/2000/svg">
<rect width="200" height="80" fill="white"/>
<path d="M27.9062 57H13.1641V22.0781H27.0156C29.5781 22.0781 31.7148 22.4648 33.4258 23.2383C35.1367 24.0117 36.418 25.0703 37.2695 26.4141C38.1211 27.7578 38.5469 29.3047 38.5469 31.0547C38.5469 32.4297 38.2734 33.6289 37.7266 34.6523C37.1797 35.6758 36.4336 36.5117 35.4883 37.1602C34.543 37.8086 33.4687 38.2734 32.2656 38.5547V38.9062C33.5781 38.9531 34.8164 39.3242 35.9805 40.0195C37.1445 40.7148 38.0898 41.6836 38.8164 42.9258C39.543 44.168 39.9062 45.6484 39.9062 47.3672C39.9062 49.2109 39.4531 50.8594 38.5469 52.3125C37.6406 53.7656 36.3008 54.9102 34.5273 55.7461C32.7539 56.582 30.5469 57 27.9062 57ZM20.3125 41.6484V51.1172H26.5C28.5937 51.1172 30.125 50.7109 31.0938 49.8984C32.0625 49.0859 32.5469 48.0156 32.5469 46.6875C32.5469 45.7031 32.3086 44.832 31.832 44.0742C31.3555 43.3164 30.6797 42.7227 29.8047 42.293C28.9297 41.8633 27.8906 41.6484 26.6875 41.6484H20.3125ZM20.3125 27.9141V36.75H25.9609C26.9766 36.75 27.8906 36.5664 28.7031 36.1992C29.5156 35.832 30.1523 35.3086 30.6133 34.6289C31.0742 33.9492 31.3047 33.1406 31.3047 32.2031C31.3047 30.9375 30.8555 29.9062 29.957 29.1094C29.0586 28.3125 27.7734 27.9141 26.1016 27.9141H20.3125ZM51.7891 57H44.7578V30.7969H51.7891V57ZM48.2734 27.375C47.2109 27.375 46.3047 27.0234 45.5547 26.3203C44.8047 25.6172 44.4297 24.7656 44.4297 23.7656C44.4297 22.7656 44.8047 21.9141 45.5547 21.2109C46.3047 20.5078 47.2109 20.1562 48.2734 20.1562C49.3359 20.1562 50.2461 20.5039 51.0039 21.1992C51.7617 21.8945 52.1406 22.75 52.1406 23.7656C52.1406 24.7656 51.7617 25.6172 51.0039 26.3203C50.2461 27.0234 49.3359 27.375 48.2734 27.375ZM69.4141 67.3594C67.2266 67.3594 65.3203 67.082 63.6953 66.5273C62.0703 65.9727 60.75 65.2109 59.7344 64.2422C58.7188 63.2734 58.0156 62.1719 57.625 60.9375L63.6719 59.25C63.8906 59.7344 64.2305 60.207 64.6914 60.668C65.1523 61.1289 65.7656 61.5078 66.5312 61.8047C67.2969 62.1016 68.2422 62.25 69.3672 62.25C71.1641 62.25 72.5742 61.8398 73.5977 61.0195C74.6211 60.1992 75.1328 58.9219 75.1328 57.1875V52.3594H74.5938C74.2813 53.0625 73.8281 53.7422 73.2344 54.3984C72.6406 55.0547 71.8633 55.5898 70.9023 56.0039C69.9414 56.418 68.75 56.625 67.3281 56.625C65.3594 56.625 63.5703 56.1641 61.9609 55.2422C60.3516 54.3203 59.0664 52.9141 58.1055 51.0234C57.1445 49.1328 56.6641 46.7422 56.6641 43.8516C56.6641 40.8984 57.1523 38.4297 58.1289 36.4453C59.1055 34.4609 60.4023 32.9687 62.0195 31.9688C63.6367 30.9688 65.4141 30.4688 67.3516 30.4688C68.8203 30.4688 70.0547 30.7148 71.0547 31.207C72.0547 31.6992 72.8633 32.3164 73.4805 33.0586C74.0977 33.8008 74.5625 34.5156 74.875 35.2031H75.1797V30.7969H82.0938V56.7891C82.0938 59.1484 81.5508 61.1094 80.4648 62.6719C79.3789 64.2344 77.8828 65.4062 75.9766 66.1875C74.0703 66.9688 71.8828 67.3594 69.4141 67.3594ZM69.5312 51.2812C70.7344 51.2812 71.7539 50.9844 72.5898 50.3906C73.4258 49.7969 74.0625 48.9414 74.5 47.8242C74.9375 46.707 75.1562 45.3672 75.1562 43.8047C75.1562 42.2578 74.9375 40.9062 74.5 39.75C74.0625 38.5938 73.4258 37.6953 72.5898 37.0547C71.7539 36.4141 70.7344 36.0938 69.5312 36.0938C68.2969 36.0938 67.2617 36.4258 66.4258 37.0898C65.5898 37.7539 64.957 38.6641 64.5273 39.8203C64.0977 40.9766 63.8828 42.3047 63.8828 43.8047C63.8828 45.3359 64.0977 46.6602 64.5273 47.7773C64.957 48.8945 65.5938 49.7578 66.4375 50.3672C67.2812 50.9766 68.3125 51.2812 69.5312 51.2812Z" fill="black"/>
</svg>
