<svg width="200" height="100" viewBox="0 0 200 100" fill="none" xmlns="http://www.w3.org/2000/svg">
<rect width="200" height="100" fill="white"/>
<path d="M17.2461 24H11.2305V13.8145H12.5293V22.8516H17.2461V24ZM20.2266 24H18.9961V16.3574H20.2266V24ZM19.6182 15.1064C19.3857 15.1064 19.1852 15.0267 19.0166 14.8672C18.848 14.7077 18.7637 14.5163 18.7637 14.293C18.7637 14.0651 18.848 13.8726 19.0166 13.7153C19.1852 13.5581 19.3857 13.4795 19.6182 13.4795C19.8551 13.4795 20.0579 13.5581 20.2266 13.7153C20.3952 13.8726 20.4795 14.0651 20.4795 14.293C20.4795 14.5163 20.3952 14.7077 20.2266 14.8672C20.0579 15.0267 19.8551 15.1064 19.6182 15.1064ZM23.6172 19.4199V24H22.3867V16.3574H23.5693L23.5762 17.7725C23.7904 17.2939 24.0661 16.9385 24.4033 16.7061C24.8317 16.4098 25.3353 16.2617 25.9141 16.2617C26.429 16.2617 26.8802 16.3677 27.2676 16.5796C27.6549 16.7915 27.9569 17.1105 28.1733 17.5366C28.3898 17.9627 28.498 18.4993 28.498 19.1465V24H27.2676V19.249C27.2676 18.6611 27.1138 18.2008 26.8062 17.8682C26.4985 17.5355 26.0781 17.3691 25.5449 17.3691C25.1803 17.3691 24.8522 17.4489 24.5605 17.6084C24.2689 17.7679 24.0387 18.0003 23.8701 18.3057C23.7015 18.611 23.6172 18.9824 23.6172 19.4199ZM33.8711 24.1641C33.1328 24.1641 32.4959 24 31.9604 23.6719C31.425 23.3438 31.0125 22.8857 30.7231 22.2979C30.4338 21.71 30.2891 21.0241 30.2891 20.2402C30.2891 19.4564 30.4303 18.766 30.7129 18.1689C30.9954 17.5719 31.3953 17.1048 31.9126 16.7676C32.4299 16.4303 33.0348 16.2617 33.7275 16.2617C34.1331 16.2617 34.533 16.3289 34.9272 16.4634C35.3215 16.5978 35.6792 16.8143 36.0005 17.1128C36.3218 17.4113 36.5781 17.8044 36.7695 18.292C36.9609 18.7796 37.0566 19.3766 37.0566 20.083V20.5957H31.5332C31.5514 21.0879 31.6494 21.5117 31.8271 21.8672C32.0231 22.2637 32.2977 22.5633 32.6509 22.7661C33.0041 22.9689 33.4131 23.0703 33.8779 23.0703C34.1787 23.0703 34.4521 23.027 34.6982 22.9404C34.9443 22.8538 35.1562 22.7228 35.334 22.5474C35.5117 22.3719 35.6484 22.1543 35.7441 21.8945L36.9336 22.2227C36.8151 22.6055 36.6146 22.9427 36.332 23.2344C36.0495 23.526 35.6997 23.7539 35.2827 23.918C34.8657 24.082 34.3952 24.1641 33.8711 24.1641ZM31.54 19.5566H35.8057C35.7738 19.2103 35.7008 18.8913 35.5869 18.5996C35.4274 18.2122 35.1927 17.908 34.8828 17.687C34.5729 17.466 34.1878 17.3555 33.7275 17.3555C33.2673 17.3555 32.873 17.4683 32.5449 17.6938C32.2168 17.9194 31.9661 18.2122 31.793 18.5723C31.6471 18.8822 31.5628 19.2103 31.54 19.5566ZM45.8682 24.1641C45.1755 24.1641 44.5682 24 44.0464 23.6719C43.5246 23.3438 43.1178 22.8835 42.8262 22.291C42.5345 21.6986 42.3887 21.0104 42.3887 20.2266C42.3887 19.429 42.5345 18.7329 42.8262 18.1382C43.1178 17.5435 43.5246 17.082 44.0464 16.7539C44.5682 16.4258 45.1755 16.2617 45.8682 16.2617C46.5654 16.2617 47.1761 16.4258 47.7002 16.7539C48.2243 17.082 48.6322 17.5435 48.9238 18.1382C49.2155 18.7329 49.3613 19.429 49.3613 20.2266C49.3613 21.0104 49.2155 21.6986 48.9238 22.291C48.6322 22.8835 48.2243 23.3438 47.7002 23.6719C47.1761 24 46.5654 24.1641 45.8682 24.1641ZM45.8682 23.0635C46.3831 23.0635 46.807 22.9313 47.1396 22.667C47.4723 22.4027 47.7184 22.0552 47.8779 21.6245C48.0374 21.1938 48.1172 20.7279 48.1172 20.2266C48.1172 19.7207 48.0374 19.2502 47.8779 18.8149C47.7184 18.3797 47.4723 18.0288 47.1396 17.7622C46.807 17.4956 46.3831 17.3623 45.8682 17.3623C45.3577 17.3623 44.9385 17.4956 44.6104 17.7622C44.2822 18.0288 44.0384 18.3786 43.8789 18.8115C43.7194 19.2445 43.6396 19.7161 43.6396 20.2266C43.6396 20.7279 43.7194 21.1938 43.8789 21.6245C44.0384 22.0552 44.2822 22.4027 44.6104 22.667C44.9385 22.9313 45.3577 23.0635 45.8682 23.0635ZM52.3828 19.4199V24H51.1523V16.3574H52.335L52.3418 17.7725C52.556 17.2939 52.8317 16.9385 53.1689 16.7061C53.5973 16.4098 54.1009 16.2617 54.6797 16.2617C55.1947 16.2617 55.6458 16.3677 56.0332 16.5796C56.4206 16.7915 56.7225 17.1105 56.939 17.5366C57.1554 17.9627 57.2637 18.4993 57.2637 19.1465V24H56.0332V19.249C56.0332 18.6611 55.8794 18.2008 55.5718 17.8682C55.2642 17.5355 54.8438 17.3691 54.3105 17.3691C53.946 17.3691 53.6178 17.4489 53.3262 17.6084C53.0345 17.7679 52.8044 18.0003 52.6357 18.3057C52.4671 18.611 52.3828 18.9824 52.3828 19.4199ZM62.6367 24.1641C61.8984 24.1641 61.2616 24 60.7261 23.6719C60.1906 23.3438 59.7782 22.8857 59.4888 22.2979C59.1994 21.71 59.0547 21.0241 59.0547 20.2402C59.0547 19.4564 59.196 18.766 59.4785 18.1689C59.7611 17.5719 60.161 17.1048 60.6782 16.7676C61.1955 16.4303 61.8005 16.2617 62.4932 16.2617C62.8988 16.2617 63.2987 16.3289 63.6929 16.4634C64.0871 16.5978 64.4448 16.8143 64.7661 17.1128C65.0874 17.4113 65.3438 17.8044 65.5352 18.292C65.7266 18.7796 65.8223 19.3766 65.8223 20.083V20.5957H60.2988C60.3171 21.0879 60.415 21.5117 60.5928 21.8672C60.7887 22.2637 61.0633 22.5633 61.4165 22.7661C61.7697 22.9689 62.1787 23.0703 62.6436 23.0703C62.9443 23.0703 63.2178 23.027 63.4639 22.9404C63.71 22.8538 63.9219 22.7228 64.0996 22.5474C64.2773 22.3719 64.4141 22.1543 64.5098 21.8945L65.6992 22.2227C65.5807 22.6055 65.3802 22.9427 65.0977 23.2344C64.8151 23.526 64.4653 23.7539 64.0483 23.918C63.6313 24.082 63.1608 24.1641 62.6367 24.1641ZM60.3057 19.5566H64.5713C64.5394 19.2103 64.4665 18.8913 64.3525 18.5996C64.193 18.2122 63.9583 17.908 63.6484 17.687C63.3385 17.466 62.9535 17.3555 62.4932 17.3555C62.0329 17.3555 61.6387 17.4683 61.3105 17.6938C60.9824 17.9194 60.7318 18.2122 60.5586 18.5723C60.4128 18.8822 60.3285 19.2103 60.3057 19.5566ZM17.2461 41H11.2305V30.8145H12.5293V39.8516H17.2461V41ZM20.2266 41H18.9961V33.3574H20.2266V41ZM19.6182 32.1064C19.3857 32.1064 19.1852 32.0267 19.0166 31.8672C18.848 31.7077 18.7637 31.5163 18.7637 31.293C18.7637 31.0651 18.848 30.8726 19.0166 30.7153C19.1852 30.5581 19.3857 30.4795 19.6182 30.4795C19.8551 30.4795 20.0579 30.5581 20.2266 30.7153C20.3952 30.8726 20.4795 31.0651 20.4795 31.293C20.4795 31.5163 20.3952 31.7077 20.2266 31.8672C20.0579 32.0267 19.8551 32.1064 19.6182 32.1064ZM23.6172 36.4199V41H22.3867V33.3574H23.5693L23.5762 34.7725C23.7904 34.2939 24.0661 33.9385 24.4033 33.7061C24.8317 33.4098 25.3353 33.2617 25.9141 33.2617C26.429 33.2617 26.8802 33.3677 27.2676 33.5796C27.6549 33.7915 27.9569 34.1105 28.1733 34.5366C28.3898 34.9627 28.498 35.4993 28.498 36.1465V41H27.2676V36.249C27.2676 35.6611 27.1138 35.2008 26.8062 34.8682C26.4985 34.5355 26.0781 34.3691 25.5449 34.3691C25.1803 34.3691 24.8522 34.4489 24.5605 34.6084C24.2689 34.7679 24.0387 35.0003 23.8701 35.3057C23.7015 35.611 23.6172 35.9824 23.6172 36.4199ZM33.8711 41.1641C33.1328 41.1641 32.4959 41 31.9604 40.6719C31.425 40.3438 31.0125 39.8857 30.7231 39.2979C30.4338 38.71 30.2891 38.0241 30.2891 37.2402C30.2891 36.4564 30.4303 35.766 30.7129 35.1689C30.9954 34.5719 31.3953 34.1048 31.9126 33.7676C32.4299 33.4303 33.0348 33.2617 33.7275 33.2617C34.1331 33.2617 34.533 33.3289 34.9272 33.4634C35.3215 33.5978 35.6792 33.8143 36.0005 34.1128C36.3218 34.4113 36.5781 34.8044 36.7695 35.292C36.9609 35.7796 37.0566 36.3766 37.0566 37.083V37.5957H31.5332C31.5514 38.0879 31.6494 38.5117 31.8271 38.8672C32.0231 39.2637 32.2977 39.5633 32.6509 39.7661C33.0041 39.9689 33.4131 40.0703 33.8779 40.0703C34.1787 40.0703 34.4521 40.027 34.6982 39.9404C34.9443 39.8538 35.1562 39.7228 35.334 39.5474C35.5117 39.3719 35.6484 39.1543 35.7441 38.8945L36.9336 39.2227C36.8151 39.6055 36.6146 39.9427 36.332 40.2344C36.0495 40.526 35.6997 40.7539 35.2827 40.918C34.8657 41.082 34.3952 41.1641 33.8711 41.1641ZM31.54 36.5566H35.8057C35.7738 36.2103 35.7008 35.8913 35.5869 35.5996C35.4274 35.2122 35.1927 34.908 34.8828 34.687C34.5729 34.466 34.1878 34.3555 33.7275 34.3555C33.2673 34.3555 32.873 34.4683 32.5449 34.6938C32.2168 34.9194 31.9661 35.2122 31.793 35.5723C31.6471 35.8822 31.5628 36.2103 31.54 36.5566ZM44.1934 33.3574H45.7656V34.4102H44.1934V39.0176C44.1934 39.3594 44.2629 39.6089 44.4019 39.7661C44.5409 39.9233 44.7721 40.002 45.0957 40.002C45.1732 40.002 45.2723 39.9928 45.3931 39.9746C45.5138 39.9564 45.6243 39.9382 45.7246 39.9199L45.9775 40.959C45.8499 41.0046 45.7052 41.0387 45.5435 41.0615C45.3817 41.0843 45.221 41.0957 45.0615 41.0957C44.4007 41.0957 43.8857 40.9214 43.5166 40.5728C43.1475 40.2241 42.9629 39.7376 42.9629 39.1133V34.4102H41.8145V33.3574H42.9629V31.5391H44.1934V33.3574ZM50.2773 41H49.0537L46.7363 33.3574H48.042L48.9717 36.6934C49.0993 37.1491 49.236 37.6641 49.3818 38.2383C49.4912 38.6758 49.6006 39.1543 49.71 39.6738C49.8102 39.1771 49.9128 38.7145 50.0176 38.2861C50.1589 37.7074 50.2956 37.1764 50.4277 36.6934L51.3438 33.3574H52.6562L53.5586 36.6934C53.6862 37.1628 53.8206 37.6846 53.9619 38.2588C54.0622 38.6917 54.1647 39.1589 54.2695 39.6602C54.3743 39.1634 54.4814 38.7008 54.5908 38.2725C54.7321 37.6982 54.8688 37.1719 55.001 36.6934L55.9307 33.3574H57.2363L54.9189 41H53.6953L52.7041 37.541C52.6038 37.1901 52.5059 36.8324 52.4102 36.4678C52.3145 36.1032 52.221 35.7295 52.1299 35.3467C52.0843 35.1507 52.0365 34.9525 51.9863 34.752C51.9408 34.9479 51.8952 35.1439 51.8496 35.3398C51.7539 35.7272 51.6582 36.1055 51.5625 36.4746C51.4668 36.8438 51.3688 37.1992 51.2686 37.541L50.2773 41ZM61.9053 41.1641C61.2126 41.1641 60.6053 41 60.0835 40.6719C59.5617 40.3438 59.1549 39.8835 58.8633 39.291C58.5716 38.6986 58.4258 38.0104 58.4258 37.2266C58.4258 36.429 58.5716 35.7329 58.8633 35.1382C59.1549 34.5435 59.5617 34.082 60.0835 33.7539C60.6053 33.4258 61.2126 33.2617 61.9053 33.2617C62.6025 33.2617 63.2132 33.4258 63.7373 33.7539C64.2614 34.082 64.6693 34.5435 64.9609 35.1382C65.2526 35.7329 65.3984 36.429 65.3984 37.2266C65.3984 38.0104 65.2526 38.6986 64.9609 39.291C64.6693 39.8835 64.2614 40.3438 63.7373 40.6719C63.2132 41 62.6025 41.1641 61.9053 41.1641ZM61.9053 40.0635C62.4202 40.0635 62.8441 39.9313 63.1768 39.667C63.5094 39.4027 63.7555 39.0552 63.915 38.6245C64.0745 38.1938 64.1543 37.7279 64.1543 37.2266C64.1543 36.7207 64.0745 36.2502 63.915 35.8149C63.7555 35.3797 63.5094 35.0288 63.1768 34.7622C62.8441 34.4956 62.4202 34.3623 61.9053 34.3623C61.3949 34.3623 60.9756 34.4956 60.6475 34.7622C60.3193 35.0288 60.0755 35.3786 59.916 35.8115C59.7565 36.2445 59.6768 36.7161 59.6768 37.2266C59.6768 37.7279 59.7565 38.1938 59.916 38.6245C60.0755 39.0552 60.3193 39.4027 60.6475 39.667C60.9756 39.9313 61.3949 40.0635 61.9053 40.0635ZM17.2461 57H11.2305V46.8145H12.5293V55.8516H17.2461V57ZM20.2266 57H18.9961V49.3574H20.2266V57ZM19.6182 48.1064C19.3857 48.1064 19.1852 48.0267 19.0166 47.8672C18.848 47.7077 18.7637 47.5163 18.7637 47.293C18.7637 47.0651 18.848 46.8726 19.0166 46.7153C19.1852 46.5581 19.3857 46.4795 19.6182 46.4795C19.8551 46.4795 20.0579 46.5581 20.2266 46.7153C20.3952 46.8726 20.4795 47.0651 20.4795 47.293C20.4795 47.5163 20.3952 47.7077 20.2266 47.8672C20.0579 48.0267 19.8551 48.1064 19.6182 48.1064ZM23.6172 52.4199V57H22.3867V49.3574H23.5693L23.5762 50.7725C23.7904 50.2939 24.0661 49.9385 24.4033 49.7061C24.8317 49.4098 25.3353 49.2617 25.9141 49.2617C26.429 49.2617 26.8802 49.3677 27.2676 49.5796C27.6549 49.7915 27.9569 50.1105 28.1733 50.5366C28.3898 50.9627 28.498 51.4993 28.498 52.1465V57H27.2676V52.249C27.2676 51.6611 27.1138 51.2008 26.8062 50.8682C26.4985 50.5355 26.0781 50.3691 25.5449 50.3691C25.1803 50.3691 24.8522 50.4489 24.5605 50.6084C24.2689 50.7679 24.0387 51.0003 23.8701 51.3057C23.7015 51.611 23.6172 51.9824 23.6172 52.4199ZM33.8711 57.1641C33.1328 57.1641 32.4959 57 31.9604 56.6719C31.425 56.3438 31.0125 55.8857 30.7231 55.2979C30.4338 54.71 30.2891 54.0241 30.2891 53.2402C30.2891 52.4564 30.4303 51.766 30.7129 51.1689C30.9954 50.5719 31.3953 50.1048 31.9126 49.7676C32.4299 49.4303 33.0348 49.2617 33.7275 49.2617C34.1331 49.2617 34.533 49.3289 34.9272 49.4634C35.3215 49.5978 35.6792 49.8143 36.0005 50.1128C36.3218 50.4113 36.5781 50.8044 36.7695 51.292C36.9609 51.7796 37.0566 52.3766 37.0566 53.083V53.5957H31.5332C31.5514 54.0879 31.6494 54.5117 31.8271 54.8672C32.0231 55.2637 32.2977 55.5633 32.6509 55.7661C33.0041 55.9689 33.4131 56.0703 33.8779 56.0703C34.1787 56.0703 34.4521 56.027 34.6982 55.9404C34.9443 55.8538 35.1562 55.7228 35.334 55.5474C35.5117 55.3719 35.6484 55.1543 35.7441 54.8945L36.9336 55.2227C36.8151 55.6055 36.6146 55.9427 36.332 56.2344C36.0495 56.526 35.6997 56.7539 35.2827 56.918C34.8657 57.082 34.3952 57.1641 33.8711 57.1641ZM31.54 52.5566H35.8057C35.7738 52.2103 35.7008 51.8913 35.5869 51.5996C35.4274 51.2122 35.1927 50.908 34.8828 50.687C34.5729 50.466 34.1878 50.3555 33.7275 50.3555C33.2673 50.3555 32.873 50.4683 32.5449 50.6938C32.2168 50.9194 31.9661 51.2122 31.793 51.5723C31.6471 51.8822 31.5628 52.2103 31.54 52.5566ZM44.1934 49.3574H45.7656V50.4102H44.1934V55.0176C44.1934 55.3594 44.2629 55.6089 44.4019 55.7661C44.5409 55.9233 44.7721 56.002 45.0957 56.002C45.1732 56.002 45.2723 55.9928 45.3931 55.9746C45.5138 55.9564 45.6243 55.9382 45.7246 55.9199L45.9775 56.959C45.8499 57.0046 45.7052 57.0387 45.5435 57.0615C45.3817 57.0843 45.221 57.0957 45.0615 57.0957C44.4007 57.0957 43.8857 56.9214 43.5166 56.5728C43.1475 56.2241 42.9629 55.7376 42.9629 55.1133V50.4102H41.8145V49.3574H42.9629V47.5391H44.1934V49.3574ZM48.5684 52.4199V57H47.3379V46.8145H48.5684V50.6768C48.778 50.2438 49.04 49.9202 49.3545 49.7061C49.7829 49.4098 50.2865 49.2617 50.8652 49.2617C51.3802 49.2617 51.8325 49.3677 52.2222 49.5796C52.6118 49.7915 52.9149 50.1105 53.1313 50.5366C53.3478 50.9627 53.4561 51.4993 53.4561 52.1465V57H52.2188V52.249C52.2188 51.6611 52.0649 51.2008 51.7573 50.8682C51.4497 50.5355 51.0293 50.3691 50.4961 50.3691C50.1315 50.3691 49.8034 50.4489 49.5117 50.6084C49.2201 50.7679 48.9899 51.0003 48.8213 51.3057C48.6527 51.611 48.5684 51.9824 48.5684 52.4199ZM56.8467 57H55.6162V49.3574H56.8057V50.5332H56.8877C57.029 50.1458 57.2808 49.8348 57.6431 49.6001C58.0054 49.3654 58.4144 49.248 58.8701 49.248C58.9613 49.248 59.0695 49.2503 59.1948 49.2549C59.3201 49.2594 59.4193 49.264 59.4922 49.2686V50.5059C59.4557 50.4967 59.3646 50.4831 59.2188 50.4648C59.0729 50.4466 58.918 50.4375 58.7539 50.4375C58.3893 50.4375 58.0623 50.5138 57.7729 50.6665C57.4836 50.8192 57.2568 51.0288 57.0928 51.2954C56.9287 51.562 56.8467 51.8685 56.8467 52.2148V57ZM64.0996 57.1641C63.3613 57.1641 62.7244 57 62.189 56.6719C61.6535 56.3438 61.241 55.8857 60.9517 55.2979C60.6623 54.71 60.5176 54.0241 60.5176 53.2402C60.5176 52.4564 60.6589 51.766 60.9414 51.1689C61.224 50.5719 61.6239 50.1048 62.1411 49.7676C62.6584 49.4303 63.2633 49.2617 63.9561 49.2617C64.3617 49.2617 64.7616 49.3289 65.1558 49.4634C65.55 49.5978 65.9077 49.8143 66.229 50.1128C66.5503 50.4113 66.8066 50.8044 66.998 51.292C67.1895 51.7796 67.2852 52.3766 67.2852 53.083V53.5957H61.7617C61.7799 54.0879 61.8779 54.5117 62.0557 54.8672C62.2516 55.2637 62.5262 55.5633 62.8794 55.7661C63.2326 55.9689 63.6416 56.0703 64.1064 56.0703C64.4072 56.0703 64.6807 56.027 64.9268 55.9404C65.1729 55.8538 65.3848 55.7228 65.5625 55.5474C65.7402 55.3719 65.877 55.1543 65.9727 54.8945L67.1621 55.2227C67.0436 55.6055 66.8431 55.9427 66.5605 56.2344C66.278 56.526 65.9282 56.7539 65.5112 56.918C65.0942 57.082 64.6237 57.1641 64.0996 57.1641ZM61.7686 52.5566H66.0342C66.0023 52.2103 65.9294 51.8913 65.8154 51.5996C65.6559 51.2122 65.4212 50.908 65.1113 50.687C64.8014 50.466 64.4163 50.3555 63.9561 50.3555C63.4958 50.3555 63.1016 50.4683 62.7734 50.6938C62.4453 50.9194 62.1947 51.2122 62.0215 51.5723C61.8757 51.8822 61.7913 52.2103 61.7686 52.5566ZM72.2617 57.1641C71.5234 57.1641 70.8866 57 70.3511 56.6719C69.8156 56.3438 69.4032 55.8857 69.1138 55.2979C68.8244 54.71 68.6797 54.0241 68.6797 53.2402C68.6797 52.4564 68.821 51.766 69.1035 51.1689C69.3861 50.5719 69.786 50.1048 70.3032 49.7676C70.8205 49.4303 71.4255 49.2617 72.1182 49.2617C72.5238 49.2617 72.9237 49.3289 73.3179 49.4634C73.7121 49.5978 74.0698 49.8143 74.3911 50.1128C74.7124 50.4113 74.9688 50.8044 75.1602 51.292C75.3516 51.7796 75.4473 52.3766 75.4473 53.083V53.5957H69.9238C69.9421 54.0879 70.04 54.5117 70.2178 54.8672C70.4137 55.2637 70.6883 55.5633 71.0415 55.7661C71.3947 55.9689 71.8037 56.0703 72.2686 56.0703C72.5693 56.0703 72.8428 56.027 73.0889 55.9404C73.335 55.8538 73.5469 55.7228 73.7246 55.5474C73.9023 55.3719 74.0391 55.1543 74.1348 54.8945L75.3242 55.2227C75.2057 55.6055 75.0052 55.9427 74.7227 56.2344C74.4401 56.526 74.0903 56.7539 73.6733 56.918C73.2563 57.082 72.7858 57.1641 72.2617 57.1641ZM69.9307 52.5566H74.1963C74.1644 52.2103 74.0915 51.8913 73.9775 51.5996C73.818 51.2122 73.5833 50.908 73.2734 50.687C72.9635 50.466 72.5785 50.3555 72.1182 50.3555C71.6579 50.3555 71.2637 50.4683 70.9355 50.6938C70.6074 50.9194 70.3568 51.2122 70.1836 51.5723C70.0378 51.8822 69.9535 52.2103 69.9307 52.5566Z" fill="black"/>
</svg>
