<svg width="200" height="100" viewBox="0 0 200 100" fill="none" xmlns="http://www.w3.org/2000/svg">
<rect width="200" height="100" fill="white"/>
<rect x="10" y="10" width="180" height="80" rx="8" fill="#EDEDFA"/>
<circle cx="40" cy="50" r="20" fill="#4D80E6"/>
<path d="M81.1406 41.1562C80.1094 41.1562 79.1862 40.9219 78.3711 40.4531C77.556 39.9844 76.9128 39.3047 76.4414 38.4141C75.9701 37.5234 75.7344 36.4479 75.7344 35.1875C75.7344 33.9219 75.9714 32.8424 76.4453 31.9492C76.9193 31.056 77.5651 30.375 78.3828 29.9062C79.2005 29.4375 80.1198 29.2031 81.1406 29.2031C81.8021 29.2031 82.418 29.2956 82.9883 29.4805C83.5586 29.6654 84.0651 29.9349 84.5078 30.2891C84.9505 30.6432 85.3125 31.0768 85.5938 31.5898C85.875 32.1029 86.0599 32.6875 86.1484 33.3438H83.7344C83.6823 33.0208 83.582 32.7357 83.4336 32.4883C83.2852 32.2409 83.1003 32.0299 82.8789 31.8555C82.6576 31.681 82.4036 31.5482 82.1172 31.457C81.8307 31.3659 81.5208 31.3203 81.1875 31.3203C80.5833 31.3203 80.0534 31.4714 79.5977 31.7734C79.1419 32.0755 78.7878 32.5143 78.5352 33.0898C78.2826 33.6654 78.1562 34.3646 78.1562 35.1875C78.1562 36.026 78.2839 36.7318 78.5391 37.3047C78.7943 37.8776 79.1484 38.3099 79.6016 38.6016C80.0547 38.8932 80.5807 39.0391 81.1797 39.0391C81.513 39.0391 81.8216 38.9935 82.1055 38.9023C82.3893 38.8112 82.6445 38.6784 82.8711 38.5039C83.0977 38.3294 83.2852 38.1172 83.4336 37.8672C83.582 37.6172 83.6849 37.3333 83.7422 37.0156H86.1562C86.0938 37.5573 85.9336 38.0755 85.6758 38.5703C85.418 39.0651 85.0755 39.5078 84.6484 39.8984C84.2214 40.2891 83.7135 40.5964 83.125 40.8203C82.5365 41.0443 81.875 41.1562 81.1406 41.1562ZM90.2734 41.1719C89.7214 41.1719 89.2253 41.0742 88.7852 40.8789C88.3451 40.6836 87.9987 40.3919 87.7461 40.0039C87.4935 39.6159 87.3672 39.1328 87.3672 38.5547C87.3672 38.0703 87.457 37.6641 87.6367 37.3359C87.8164 37.0078 88.0612 36.7448 88.3711 36.5469C88.681 36.349 89.0326 36.1979 89.4258 36.0938C89.819 35.9896 90.2318 35.9167 90.6641 35.875C91.1693 35.8229 91.5768 35.7747 91.8867 35.7305C92.1966 35.6862 92.4232 35.6159 92.5664 35.5195C92.7096 35.4232 92.7812 35.2812 92.7812 35.0938V35.0547C92.7812 34.8047 92.7292 34.5938 92.625 34.4219C92.5208 34.25 92.3659 34.1185 92.1602 34.0273C91.9544 33.9362 91.7057 33.8906 91.4141 33.8906C91.112 33.8906 90.849 33.9362 90.625 34.0273C90.401 34.1185 90.2188 34.2396 90.0781 34.3906C89.9375 34.5417 89.8333 34.7109 89.7656 34.8984L87.6172 34.5469C87.7682 34.0365 88.0182 33.6042 88.3672 33.25C88.7161 32.8958 89.1497 32.625 89.668 32.4375C90.1862 32.25 90.7708 32.1562 91.4219 32.1562C91.8906 32.1562 92.3464 32.2122 92.7891 32.3242C93.2318 32.4362 93.6289 32.6094 93.9805 32.8438C94.332 33.0781 94.6107 33.3841 94.8164 33.7617C95.0221 34.1393 95.125 34.5911 95.125 35.1172V41H92.9062V39.7891H92.8281C92.6875 40.0599 92.5 40.2982 92.2656 40.5039C92.0312 40.7096 91.7487 40.8724 91.418 40.9922C91.0872 41.112 90.7057 41.1719 90.2734 41.1719ZM90.9375 39.5234C91.3073 39.5234 91.6315 39.4505 91.9102 39.3047C92.1888 39.1589 92.4062 38.9609 92.5625 38.7109C92.7188 38.4609 92.7969 38.1823 92.7969 37.875V36.9297C92.7292 36.9818 92.625 37.0286 92.4844 37.0703C92.3438 37.112 92.1875 37.1484 92.0156 37.1797C91.8438 37.2109 91.6745 37.2396 91.5078 37.2656C91.3411 37.2917 91.1927 37.3125 91.0625 37.3281C90.776 37.3698 90.5234 37.4375 90.3047 37.5312C90.0859 37.625 89.9167 37.7487 89.7969 37.9023C89.6771 38.056 89.6172 38.2526 89.6172 38.4922C89.6172 38.7161 89.6745 38.9049 89.7891 39.0586C89.9036 39.2122 90.0599 39.3281 90.2578 39.4062C90.4557 39.4844 90.6823 39.5234 90.9375 39.5234ZM99.4688 41H97.125V32.2656H99.3906V33.7891H99.4844C99.6458 33.2474 99.9154 32.8385 100.293 32.5625C100.671 32.2865 101.104 32.1484 101.594 32.1484C101.714 32.1484 101.844 32.1549 101.984 32.168C102.125 32.181 102.247 32.2005 102.352 32.2266V34.3203C102.247 34.2839 102.096 34.2552 101.898 34.2344C101.701 34.2135 101.513 34.2031 101.336 34.2031C100.982 34.2031 100.661 34.2799 100.375 34.4336C100.089 34.5872 99.8659 34.8008 99.707 35.0742C99.5482 35.3477 99.4688 35.6667 99.4688 36.0312V41ZM106.828 41.1484C106.161 41.1484 105.559 40.9753 105.02 40.6289C104.48 40.2826 104.055 39.7747 103.742 39.1055C103.43 38.4362 103.273 37.6172 103.273 36.6484C103.273 35.6536 103.435 34.8229 103.758 34.1562C104.081 33.4896 104.51 32.9896 105.047 32.6562C105.583 32.3229 106.174 32.1562 106.82 32.1562C107.315 32.1562 107.727 32.2396 108.055 32.4062C108.383 32.5729 108.648 32.7786 108.852 33.0234C109.055 33.2682 109.206 33.5052 109.305 33.7344H109.383V29.3594H111.727V41H109.422V39.6016H109.305C109.201 39.8359 109.046 40.0716 108.84 40.3086C108.634 40.5456 108.367 40.7448 108.039 40.9062C107.711 41.0677 107.307 41.1484 106.828 41.1484ZM107.555 39.2656C107.951 39.2656 108.289 39.1562 108.57 38.9375C108.852 38.7188 109.065 38.4128 109.211 38.0195C109.357 37.6263 109.43 37.1667 109.43 36.6406C109.43 36.1094 109.358 35.6497 109.215 35.2617C109.072 34.8737 108.859 34.5716 108.578 34.3555C108.297 34.1393 107.956 34.0312 107.555 34.0312C107.143 34.0312 106.798 34.1432 106.52 34.3672C106.241 34.5911 106.031 34.8984 105.891 35.2891C105.75 35.6797 105.68 36.1302 105.68 36.6406C105.68 37.151 105.751 37.6042 105.895 38C106.038 38.3958 106.249 38.7057 106.527 38.9297C106.806 39.1536 107.148 39.2656 107.555 39.2656ZM120.664 31.3359H117.102V29.3594H126.609V31.3359H123.055V41H120.664V31.3359ZM130.539 41H128.195V32.2656H130.539V41ZM129.367 31.125C129.013 31.125 128.711 31.0078 128.461 30.7734C128.211 30.5391 128.086 30.2552 128.086 29.9219C128.086 29.5885 128.211 29.3047 128.461 29.0703C128.711 28.8359 129.013 28.7188 129.367 28.7188C129.721 28.7188 130.025 28.8346 130.277 29.0664C130.53 29.2982 130.656 29.5833 130.656 29.9219C130.656 30.2552 130.53 30.5391 130.277 30.7734C130.025 31.0078 129.721 31.125 129.367 31.125ZM135.234 32.2656H136.867V34.0547H135.234V38.4453C135.234 38.7214 135.296 38.9258 135.418 39.0586C135.54 39.1914 135.745 39.2578 136.031 39.2578C136.12 39.2578 136.245 39.2461 136.406 39.2227C136.568 39.1992 136.69 39.1771 136.773 39.1562L137.109 40.9141C136.849 40.9922 136.59 41.0469 136.332 41.0781C136.074 41.1094 135.828 41.125 135.594 41.125C134.719 41.125 134.049 40.9115 133.586 40.4844C133.122 40.0573 132.891 39.4453 132.891 38.6484V34.0547H131.688V32.2656H132.891V30.1875H135.234V32.2656ZM138.391 29.3594H140.734V41H138.391V29.3594ZM146.672 41.1719C145.781 41.1719 145.013 40.9896 144.367 40.625C143.721 40.2604 143.225 39.7422 142.879 39.0703C142.533 38.3984 142.359 37.6016 142.359 36.6797C142.359 35.7786 142.531 34.9896 142.875 34.3125C143.219 33.6354 143.706 33.1068 144.336 32.7266C144.966 32.3464 145.706 32.1562 146.555 32.1562C147.128 32.1562 147.661 32.2474 148.156 32.4297C148.651 32.612 149.086 32.8867 149.461 33.2539C149.836 33.6211 150.129 34.0807 150.34 34.6328C150.551 35.1849 150.656 35.8359 150.656 36.5859V37.2422H144.68C144.695 37.6849 144.781 38.0625 144.938 38.375C145.104 38.7188 145.34 38.9766 145.645 39.1484C145.949 39.3203 146.305 39.4062 146.711 39.4062C146.987 39.4062 147.237 39.3672 147.461 39.2891C147.685 39.2109 147.876 39.0951 148.035 38.9414C148.194 38.7878 148.315 38.599 148.398 38.375L150.523 38.7734C150.383 39.2526 150.138 39.6732 149.789 40.0352C149.44 40.3971 149.004 40.6771 148.48 40.875C147.957 41.0729 147.354 41.1719 146.672 41.1719ZM144.695 35.7734H148.398C148.367 35.4818 148.305 35.2161 148.211 34.9766C148.07 34.6432 147.863 34.3841 147.59 34.1992C147.316 34.0143 146.979 33.9219 146.578 33.9219C146.172 33.9219 145.827 34.0156 145.543 34.2031C145.259 34.3906 145.044 34.6432 144.898 34.9609C144.789 35.2057 144.721 35.4766 144.695 35.7734Z" fill="black"/>
<path d="M78.7793 67H76.0547V58.2695H78.8906C79.7422 58.2695 80.4697 58.4434 81.0732 58.791C81.6768 59.1387 82.1396 59.6377 82.4619 60.2881C82.7842 60.9385 82.9453 61.7148 82.9453 62.6172C82.9453 63.5273 82.7832 64.3096 82.459 64.9639C82.1348 65.6182 81.6621 66.1211 81.041 66.4727C80.4199 66.8242 79.666 67 78.7793 67ZM77.168 59.2539V66.0156H78.709C79.4199 66.0156 80.0088 65.8799 80.4756 65.6084C80.9424 65.3369 81.291 64.9473 81.5215 64.4395C81.752 63.9316 81.8672 63.3242 81.8672 62.6172C81.8672 61.918 81.7529 61.3174 81.5244 60.8154C81.2959 60.3135 80.9561 59.9277 80.5049 59.6582C80.0537 59.3887 79.4902 59.2539 78.8145 59.2539H77.168ZM87.3398 67.1406C86.707 67.1406 86.1611 67 85.7021 66.7188C85.2432 66.4375 84.8896 66.0449 84.6416 65.541C84.3936 65.0371 84.2695 64.4492 84.2695 63.7773C84.2695 63.1055 84.3906 62.5137 84.6328 62.002C84.875 61.4902 85.2178 61.0898 85.6611 60.8008C86.1045 60.5117 86.623 60.3672 87.2168 60.3672C87.5645 60.3672 87.9072 60.4248 88.2451 60.54C88.583 60.6553 88.8896 60.8408 89.165 61.0967C89.4404 61.3525 89.6602 61.6895 89.8242 62.1074C89.9883 62.5254 90.0703 63.0371 90.0703 63.6426V64.082H85.3359C85.3516 64.5039 85.4355 64.8672 85.5879 65.1719C85.7559 65.5117 85.9912 65.7686 86.2939 65.9424C86.5967 66.1162 86.9473 66.2031 87.3457 66.2031C87.6035 66.2031 87.8379 66.166 88.0488 66.0918C88.2598 66.0176 88.4414 65.9053 88.5938 65.7549C88.7461 65.6045 88.8633 65.418 88.9453 65.1953L89.9648 65.4766C89.8633 65.8047 89.6914 66.0937 89.4492 66.3438C89.207 66.5937 88.9072 66.7891 88.5498 66.9297C88.1924 67.0703 87.7891 67.1406 87.3398 67.1406ZM85.3418 63.1914H88.998C88.9707 62.8945 88.9082 62.6211 88.8105 62.3711C88.6738 62.0391 88.4727 61.7783 88.207 61.5889C87.9414 61.3994 87.6113 61.3047 87.2168 61.3047C86.8223 61.3047 86.4844 61.4014 86.2031 61.5947C85.9219 61.7881 85.707 62.0391 85.5586 62.3477C85.4336 62.6133 85.3613 62.8945 85.3418 63.1914ZM93.8086 67.1406C93.3594 67.1406 92.96 67.0752 92.6104 66.9443C92.2607 66.8135 91.9727 66.6191 91.7461 66.3613C91.5195 66.1035 91.3672 65.7871 91.2891 65.4121L92.291 65.1719C92.3848 65.5312 92.5615 65.7949 92.8213 65.9629C93.0811 66.1309 93.4063 66.2148 93.7969 66.2148C94.2539 66.2148 94.6182 66.1172 94.8896 65.9219C95.1611 65.7266 95.2969 65.4941 95.2969 65.2246C95.2969 64.998 95.2178 64.8096 95.0596 64.6592C94.9014 64.5088 94.6602 64.3965 94.3359 64.3223L93.2461 64.0645C92.6523 63.9238 92.2109 63.7061 91.9219 63.4111C91.6328 63.1162 91.4883 62.7383 91.4883 62.2773C91.4883 61.9023 91.5938 61.5713 91.8047 61.2842C92.0156 60.9971 92.3037 60.7725 92.6689 60.6104C93.0342 60.4482 93.4492 60.3672 93.9141 60.3672C94.3633 60.3672 94.7451 60.4346 95.0596 60.5693C95.374 60.7041 95.6299 60.8896 95.8271 61.126C96.0244 61.3623 96.1719 61.6348 96.2695 61.9434L95.3145 62.1895C95.2246 61.9551 95.0752 61.7422 94.8662 61.5508C94.6572 61.3594 94.3418 61.2637 93.9199 61.2637C93.5293 61.2637 93.2041 61.3535 92.9443 61.5332C92.6846 61.7129 92.5547 61.9395 92.5547 62.2129C92.5547 62.4551 92.6426 62.6494 92.8184 62.7959C92.9941 62.9424 93.2734 63.0605 93.6562 63.1504L94.6465 63.3848C95.2402 63.5254 95.6797 63.7432 95.9648 64.0381C96.25 64.333 96.3926 64.7051 96.3926 65.1543C96.3926 65.5371 96.2842 65.8779 96.0674 66.1768C95.8506 66.4756 95.5479 66.7109 95.1592 66.8828C94.7705 67.0547 94.3203 67.1406 93.8086 67.1406ZM100.582 67.1406C99.9883 67.1406 99.4678 67 99.0205 66.7188C98.5732 66.4375 98.2246 66.043 97.9746 65.5352C97.7246 65.0273 97.5996 64.4375 97.5996 63.7656C97.5996 63.082 97.7246 62.4854 97.9746 61.9756C98.2246 61.4658 98.5732 61.0703 99.0205 60.7891C99.4678 60.5078 99.9883 60.3672 100.582 60.3672C100.898 60.3672 101.197 60.4082 101.479 60.4902C101.76 60.5723 102.017 60.6904 102.249 60.8447C102.481 60.999 102.682 61.1885 102.85 61.4131C103.018 61.6377 103.146 61.8926 103.236 62.1777L102.223 62.4648C102.176 62.2969 102.104 62.1426 102.006 62.002C101.908 61.8613 101.79 61.7393 101.651 61.6357C101.513 61.5322 101.354 61.4521 101.174 61.3955C100.994 61.3389 100.797 61.3105 100.582 61.3105C100.145 61.3105 99.7852 61.4248 99.5039 61.6533C99.2227 61.8818 99.0137 62.1816 98.877 62.5527C98.7402 62.9238 98.6719 63.3281 98.6719 63.7656C98.6719 64.1953 98.7402 64.5947 98.877 64.9639C99.0137 65.333 99.2227 65.6309 99.5039 65.8574C99.7852 66.084 100.145 66.1973 100.582 66.1973C100.801 66.1973 101.002 66.168 101.186 66.1094C101.369 66.0508 101.532 65.9678 101.675 65.8604C101.817 65.7529 101.937 65.625 102.035 65.4766C102.133 65.3281 102.205 65.166 102.252 64.9902L103.26 65.2773C103.174 65.5703 103.046 65.8311 102.876 66.0596C102.706 66.2881 102.504 66.4834 102.27 66.6455C102.035 66.8076 101.775 66.9307 101.49 67.0146C101.205 67.0986 100.902 67.1406 100.582 67.1406ZM105.826 67H104.771V60.4492H105.791V61.457H105.861C105.982 61.125 106.198 60.8584 106.509 60.6572C106.819 60.4561 107.17 60.3555 107.561 60.3555C107.639 60.3555 107.731 60.3574 107.839 60.3613C107.946 60.3652 108.031 60.3691 108.094 60.373V61.4336C108.063 61.4258 107.984 61.4141 107.859 61.3984C107.734 61.3828 107.602 61.375 107.461 61.375C107.148 61.375 106.868 61.4404 106.62 61.5713C106.372 61.7021 106.178 61.8818 106.037 62.1104C105.896 62.3389 105.826 62.6016 105.826 62.8984V67ZM110.344 67H109.289V60.4492H110.344V67ZM109.822 59.377C109.623 59.377 109.451 59.3086 109.307 59.1719C109.162 59.0352 109.09 58.8711 109.09 58.6797C109.09 58.4844 109.162 58.3193 109.307 58.1846C109.451 58.0498 109.623 57.9824 109.822 57.9824C110.025 57.9824 110.199 58.0498 110.344 58.1846C110.488 58.3193 110.561 58.4844 110.561 58.6797C110.561 58.8711 110.488 59.0352 110.344 59.1719C110.199 59.3086 110.025 59.377 109.822 59.377ZM113.25 69.4492H112.195V60.4492H113.215V61.498H113.332C113.406 61.3809 113.51 61.2334 113.643 61.0557C113.775 60.8779 113.967 60.7188 114.217 60.5781C114.467 60.4375 114.805 60.3672 115.23 60.3672C115.777 60.3672 116.259 60.5039 116.675 60.7773C117.091 61.0508 117.417 61.4404 117.653 61.9463C117.89 62.4521 118.008 63.0508 118.008 63.7422C118.008 64.4375 117.891 65.0391 117.656 65.5469C117.422 66.0547 117.097 66.4473 116.681 66.7246C116.265 67.002 115.783 67.1406 115.236 67.1406C114.822 67.1406 114.488 67.0693 114.234 66.9268C113.98 66.7842 113.785 66.6221 113.648 66.4404C113.512 66.2588 113.406 66.1074 113.332 65.9863H113.25V69.4492ZM115.078 66.1973C115.488 66.1973 115.831 66.0869 116.106 65.8662C116.382 65.6455 116.589 65.3486 116.728 64.9756C116.866 64.6025 116.936 64.1875 116.936 63.7305C116.936 63.2773 116.867 62.8682 116.73 62.5029C116.594 62.1377 116.388 61.8477 116.112 61.6328C115.837 61.418 115.492 61.3105 115.078 61.3105C114.676 61.3105 114.338 61.4121 114.064 61.6152C113.791 61.8184 113.585 62.1006 113.446 62.4619C113.308 62.8232 113.238 63.2461 113.238 63.7305C113.238 64.2148 113.309 64.6426 113.449 65.0137C113.59 65.3848 113.798 65.6748 114.073 65.8838C114.349 66.0928 114.684 66.1973 115.078 66.1973ZM120.773 60.4492H122.121V61.3516H120.773V65.3008C120.773 65.5938 120.833 65.8076 120.952 65.9424C121.071 66.0771 121.27 66.1445 121.547 66.1445C121.613 66.1445 121.698 66.1367 121.802 66.1211C121.905 66.1055 122 66.0898 122.086 66.0742L122.303 66.9648C122.193 67.0039 122.069 67.0332 121.931 67.0527C121.792 67.0723 121.654 67.082 121.518 67.082C120.951 67.082 120.51 66.9326 120.193 66.6338C119.877 66.335 119.719 65.918 119.719 65.3828V61.3516H118.734V60.4492H119.719V58.8906H120.773V60.4492ZM124.523 67H123.469V60.4492H124.523V67ZM124.002 59.377C123.803 59.377 123.631 59.3086 123.486 59.1719C123.342 59.0352 123.27 58.8711 123.27 58.6797C123.27 58.4844 123.342 58.3193 123.486 58.1846C123.631 58.0498 123.803 57.9824 124.002 57.9824C124.205 57.9824 124.379 58.0498 124.523 58.1846C124.668 58.3193 124.74 58.4844 124.74 58.6797C124.74 58.8711 124.668 59.0352 124.523 59.1719C124.379 59.3086 124.205 59.377 124.002 59.377ZM129.041 67.1406C128.447 67.1406 127.927 67 127.479 66.7188C127.032 66.4375 126.684 66.043 126.434 65.5352C126.184 65.0273 126.059 64.4375 126.059 63.7656C126.059 63.082 126.184 62.4854 126.434 61.9756C126.684 61.4658 127.032 61.0703 127.479 60.7891C127.927 60.5078 128.447 60.3672 129.041 60.3672C129.639 60.3672 130.162 60.5078 130.611 60.7891C131.061 61.0703 131.41 61.4658 131.66 61.9756C131.91 62.4854 132.035 63.082 132.035 63.7656C132.035 64.4375 131.91 65.0273 131.66 65.5352C131.41 66.043 131.061 66.4375 130.611 66.7188C130.162 67 129.639 67.1406 129.041 67.1406ZM129.041 66.1973C129.482 66.1973 129.846 66.084 130.131 65.8574C130.416 65.6309 130.627 65.333 130.764 64.9639C130.9 64.5947 130.969 64.1953 130.969 63.7656C130.969 63.332 130.9 62.9287 130.764 62.5557C130.627 62.1826 130.416 61.8818 130.131 61.6533C129.846 61.4248 129.482 61.3105 129.041 61.3105C128.604 61.3105 128.244 61.4248 127.963 61.6533C127.682 61.8818 127.473 62.1816 127.336 62.5527C127.199 62.9238 127.131 63.3281 127.131 63.7656C127.131 64.1953 127.199 64.5947 127.336 64.9639C127.473 65.333 127.682 65.6309 127.963 65.8574C128.244 66.084 128.604 66.1973 129.041 66.1973ZM134.625 63.0742V67H133.57V60.4492H134.584L134.59 61.6621C134.773 61.252 135.01 60.9473 135.299 60.748C135.666 60.4941 136.098 60.3672 136.594 60.3672C137.035 60.3672 137.422 60.458 137.754 60.6396C138.086 60.8213 138.345 61.0947 138.53 61.46C138.716 61.8252 138.809 62.2852 138.809 62.8398V67H137.754V62.9277C137.754 62.4238 137.622 62.0293 137.358 61.7441C137.095 61.459 136.734 61.3164 136.277 61.3164C135.965 61.3164 135.684 61.3848 135.434 61.5215C135.184 61.6582 134.986 61.8574 134.842 62.1191C134.697 62.3809 134.625 62.6992 134.625 63.0742ZM145.266 60.4492H146.613V61.3516H145.266V65.3008C145.266 65.5938 145.325 65.8076 145.444 65.9424C145.563 66.0771 145.762 66.1445 146.039 66.1445C146.105 66.1445 146.19 66.1367 146.294 66.1211C146.397 66.1055 146.492 66.0898 146.578 66.0742L146.795 66.9648C146.686 67.0039 146.562 67.0332 146.423 67.0527C146.284 67.0723 146.146 67.082 146.01 67.082C145.443 67.082 145.002 66.9326 144.686 66.6338C144.369 66.335 144.211 65.918 144.211 65.3828V61.3516H143.227V60.4492H144.211V58.8906H145.266V60.4492ZM150.715 67.1406C150.082 67.1406 149.536 67 149.077 66.7188C148.618 66.4375 148.265 66.0449 148.017 65.541C147.769 65.0371 147.645 64.4492 147.645 63.7773C147.645 63.1055 147.766 62.5137 148.008 62.002C148.25 61.4902 148.593 61.0898 149.036 60.8008C149.479 60.5117 149.998 60.3672 150.592 60.3672C150.939 60.3672 151.282 60.4248 151.62 60.54C151.958 60.6553 152.265 60.8408 152.54 61.0967C152.815 61.3525 153.035 61.6895 153.199 62.1074C153.363 62.5254 153.445 63.0371 153.445 63.6426V64.082H148.711C148.727 64.5039 148.811 64.8672 148.963 65.1719C149.131 65.5117 149.366 65.7686 149.669 65.9424C149.972 66.1162 150.322 66.2031 150.721 66.2031C150.979 66.2031 151.213 66.166 151.424 66.0918C151.635 66.0176 151.816 65.9053 151.969 65.7549C152.121 65.6045 152.238 65.418 152.32 65.1953L153.34 65.4766C153.238 65.8047 153.066 66.0937 152.824 66.3438C152.582 66.5937 152.282 66.7891 151.925 66.9297C151.567 67.0703 151.164 67.1406 150.715 67.1406ZM148.717 63.1914H152.373C152.346 62.8945 152.283 62.6211 152.186 62.3711C152.049 62.0391 151.848 61.7783 151.582 61.5889C151.316 61.3994 150.986 61.3047 150.592 61.3047C150.197 61.3047 149.859 61.4014 149.578 61.5947C149.297 61.7881 149.082 62.0391 148.934 62.3477C148.809 62.6133 148.736 62.8945 148.717 63.1914ZM155.631 67H154.412L156.715 63.6367L154.547 60.4492H155.777L156.592 61.7207C156.803 62.0488 156.986 62.3555 157.143 62.6406C157.205 62.7617 157.271 62.8828 157.342 63.0039C157.404 62.8828 157.467 62.7617 157.529 62.6406C157.666 62.3555 157.842 62.0488 158.057 61.7207L158.889 60.4492H160.096L157.904 63.6953L160.201 67H158.977L158.016 65.5293C157.809 65.209 157.631 64.9102 157.482 64.6328C157.42 64.5234 157.357 64.416 157.295 64.3105C157.236 64.416 157.18 64.5234 157.125 64.6328C156.988 64.9102 156.814 65.209 156.604 65.5293L155.631 67ZM162.738 60.4492H164.086V61.3516H162.738V65.3008C162.738 65.5938 162.798 65.8076 162.917 65.9424C163.036 66.0771 163.234 66.1445 163.512 66.1445C163.578 66.1445 163.663 66.1367 163.767 66.1211C163.87 66.1055 163.965 66.0898 164.051 66.0742L164.268 66.9648C164.158 67.0039 164.034 67.0332 163.896 67.0527C163.757 67.0723 163.619 67.082 163.482 67.082C162.916 67.082 162.475 66.9326 162.158 66.6338C161.842 66.335 161.684 65.918 161.684 65.3828V61.3516H160.699V60.4492H161.684V58.8906H162.738V60.4492Z" fill="#666666"/>
</svg>
