<svg width="200" height="100" viewBox="0 0 200 100" fill="none" xmlns="http://www.w3.org/2000/svg">
<rect width="200" height="100" fill="white"/>
<rect width="160" height="70" transform="translate(20 15)" fill="#F0F0F0"/>
<rect width="130" height="40" transform="translate(35 30)" fill="white"/>
<path d="M42.5361 49H41.2305V38.8145H42.7617L46.9043 45.3291C47.0137 45.4977 47.1458 45.7142 47.3008 45.9785C47.4557 46.2428 47.6243 46.5413 47.8066 46.874C47.9069 47.0609 48.0049 47.2546 48.1006 47.4551C48.0824 47.2363 48.0687 47.0221 48.0596 46.8125C48.0413 46.457 48.0299 46.1289 48.0254 45.8281C48.0208 45.5273 48.0186 45.2721 48.0186 45.0625V38.8145H49.3174V49H47.7725L44.0811 43.2031C43.9124 42.9342 43.7427 42.6574 43.5718 42.3726C43.4009 42.0877 43.2061 41.7493 42.9873 41.3574C42.8278 41.0794 42.6432 40.7513 42.4336 40.373C42.4473 40.7057 42.4609 41.0202 42.4746 41.3164C42.4928 41.7448 42.5076 42.1185 42.519 42.4375C42.5304 42.7565 42.5361 43.0072 42.5361 43.1895V49ZM54.8408 49.1641C54.1025 49.1641 53.4657 49 52.9302 48.6719C52.3947 48.3438 51.9823 47.8857 51.6929 47.2979C51.4035 46.71 51.2588 46.0241 51.2588 45.2402C51.2588 44.4564 51.4001 43.766 51.6826 43.1689C51.9652 42.5719 52.3651 42.1048 52.8823 41.7676C53.3996 41.4303 54.0046 41.2617 54.6973 41.2617C55.1029 41.2617 55.5028 41.3289 55.897 41.4634C56.2912 41.5978 56.6489 41.8143 56.9702 42.1128C57.2915 42.4113 57.5479 42.8044 57.7393 43.292C57.9307 43.7796 58.0264 44.3766 58.0264 45.083V45.5957H52.5029C52.5212 46.0879 52.6191 46.5117 52.7969 46.8672C52.9928 47.2637 53.2674 47.5633 53.6206 47.7661C53.9738 47.9689 54.3828 48.0703 54.8477 48.0703C55.1484 48.0703 55.4219 48.027 55.668 47.9404C55.9141 47.8538 56.126 47.7228 56.3037 47.5474C56.4814 47.3719 56.6182 47.1543 56.7139 46.8945L57.9033 47.2227C57.7848 47.6055 57.5843 47.9427 57.3018 48.2344C57.0192 48.526 56.6694 48.7539 56.2524 48.918C55.8354 49.082 55.3649 49.1641 54.8408 49.1641ZM52.5098 44.5566H56.7754C56.7435 44.2103 56.6706 43.8913 56.5566 43.5996C56.3971 43.2122 56.1624 42.908 55.8525 42.687C55.5426 42.466 55.1576 42.3555 54.6973 42.3555C54.237 42.3555 53.8428 42.4683 53.5146 42.6938C53.1865 42.9194 52.9359 43.2122 52.7627 43.5723C52.6169 43.8822 52.5326 44.2103 52.5098 44.5566ZM62.3877 49.1641C61.8636 49.1641 61.3976 49.0877 60.9897 48.9351C60.5819 48.7824 60.2458 48.5557 59.9814 48.2549C59.7171 47.9541 59.5394 47.585 59.4482 47.1475L60.6172 46.8672C60.7266 47.2865 60.9328 47.5941 61.2358 47.79C61.5389 47.986 61.9183 48.084 62.374 48.084C62.9072 48.084 63.3322 47.9701 63.6489 47.7422C63.9657 47.5143 64.124 47.2432 64.124 46.9287C64.124 46.6644 64.0317 46.4445 63.8472 46.269C63.6626 46.0936 63.3812 45.9626 63.0029 45.876L61.7314 45.5752C61.0387 45.4111 60.5238 45.1571 60.1865 44.813C59.8493 44.4689 59.6807 44.028 59.6807 43.4902C59.6807 43.0527 59.8037 42.6665 60.0498 42.3315C60.2959 41.9966 60.632 41.7345 61.0581 41.5454C61.4842 41.3563 61.9684 41.2617 62.5107 41.2617C63.0348 41.2617 63.4803 41.3403 63.8472 41.4976C64.214 41.6548 64.5125 41.8713 64.7427 42.147C64.9728 42.4227 65.1449 42.7406 65.2588 43.1006L64.1445 43.3877C64.0397 43.1143 63.8654 42.8659 63.6216 42.6426C63.3778 42.4193 63.0098 42.3076 62.5176 42.3076C62.0618 42.3076 61.6825 42.4124 61.3794 42.6221C61.0763 42.8317 60.9248 43.096 60.9248 43.415C60.9248 43.6976 61.0273 43.9243 61.2324 44.0952C61.4375 44.2661 61.7633 44.404 62.21 44.5088L63.3652 44.7822C64.0579 44.9463 64.5706 45.2004 64.9033 45.5444C65.236 45.8885 65.4023 46.3226 65.4023 46.8467C65.4023 47.2933 65.2759 47.6909 65.0229 48.0396C64.77 48.3882 64.4168 48.6628 63.9634 48.8633C63.5099 49.0638 62.9847 49.1641 62.3877 49.1641ZM68.6152 41.3574H70.1875V42.4102H68.6152V47.0176C68.6152 47.3594 68.6847 47.6089 68.8237 47.7661C68.9627 47.9233 69.194 48.002 69.5176 48.002C69.5951 48.002 69.6942 47.9928 69.8149 47.9746C69.9357 47.9564 70.0462 47.9382 70.1465 47.9199L70.3994 48.959C70.2718 49.0046 70.1271 49.0387 69.9653 49.0615C69.8035 49.0843 69.6429 49.0957 69.4834 49.0957C68.8226 49.0957 68.3076 48.9214 67.9385 48.5728C67.5693 48.2241 67.3848 47.7376 67.3848 47.1133V42.4102H66.2363V41.3574H67.3848V39.5391H68.6152V41.3574ZM74.9727 49.1641C74.2344 49.1641 73.5975 49 73.062 48.6719C72.5265 48.3438 72.1141 47.8857 71.8247 47.2979C71.5353 46.71 71.3906 46.0241 71.3906 45.2402C71.3906 44.4564 71.5319 43.766 71.8145 43.1689C72.097 42.5719 72.4969 42.1048 73.0142 41.7676C73.5314 41.4303 74.1364 41.2617 74.8291 41.2617C75.2347 41.2617 75.6346 41.3289 76.0288 41.4634C76.423 41.5978 76.7808 41.8143 77.1021 42.1128C77.4233 42.4113 77.6797 42.8044 77.8711 43.292C78.0625 43.7796 78.1582 44.3766 78.1582 45.083V45.5957H72.6348C72.653 46.0879 72.751 46.5117 72.9287 46.8672C73.1247 47.2637 73.3993 47.5633 73.7524 47.7661C74.1056 47.9689 74.5146 48.0703 74.9795 48.0703C75.2803 48.0703 75.5537 48.027 75.7998 47.9404C76.0459 47.8538 76.2578 47.7228 76.4355 47.5474C76.6133 47.3719 76.75 47.1543 76.8457 46.8945L78.0352 47.2227C77.9167 47.6055 77.7161 47.9427 77.4336 48.2344C77.151 48.526 76.8013 48.7539 76.3843 48.918C75.9673 49.082 75.4967 49.1641 74.9727 49.1641ZM72.6416 44.5566H76.9072C76.8753 44.2103 76.8024 43.8913 76.6885 43.5996C76.529 43.2122 76.2943 42.908 75.9844 42.687C75.6745 42.466 75.2894 42.3555 74.8291 42.3555C74.3688 42.3555 73.9746 42.4683 73.6465 42.6938C73.3184 42.9194 73.0677 43.2122 72.8945 43.5723C72.7487 43.8822 72.6644 44.2103 72.6416 44.5566ZM82.7861 49.1641C82.1527 49.1641 81.5921 49.0023 81.1045 48.6787C80.6169 48.3551 80.2363 47.8971 79.9629 47.3047C79.6895 46.7122 79.5527 46.0104 79.5527 45.1992C79.5527 44.3926 79.6906 43.6942 79.9663 43.104C80.242 42.5138 80.6237 42.0592 81.1113 41.7402C81.599 41.4212 82.1595 41.2617 82.793 41.2617C83.2897 41.2617 83.6839 41.3438 83.9756 41.5078C84.2673 41.6719 84.4917 41.8576 84.6489 42.0649C84.8062 42.2723 84.9258 42.4443 85.0078 42.5811H85.1035V38.8145H86.334V49H85.1445V47.8174H85.0078C84.9258 47.9587 84.8039 48.1353 84.6421 48.3472C84.4803 48.5591 84.2524 48.7482 83.9585 48.9146C83.6646 49.0809 83.2738 49.1641 82.7861 49.1641ZM82.9707 48.0635C83.4355 48.0635 83.8275 47.9416 84.1465 47.6978C84.4655 47.4539 84.707 47.1156 84.8711 46.6826C85.0352 46.2497 85.1172 45.7507 85.1172 45.1855C85.1172 44.6204 85.0363 44.1271 84.8745 43.7056C84.7127 43.284 84.4723 42.9548 84.1533 42.7178C83.8343 42.4808 83.4401 42.3623 82.9707 42.3623C82.4876 42.3623 82.0854 42.4876 81.7642 42.7383C81.4429 42.9889 81.2025 43.3273 81.043 43.7534C80.8835 44.1795 80.8037 44.6569 80.8037 45.1855C80.8037 45.7188 80.8846 46.203 81.0464 46.6382C81.2082 47.0734 81.4508 47.4198 81.7744 47.6772C82.098 47.9347 82.4967 48.0635 82.9707 48.0635ZM95.542 49.1641C94.8493 49.1641 94.242 49 93.7202 48.6719C93.1984 48.3438 92.7917 47.8835 92.5 47.291C92.2083 46.6986 92.0625 46.0104 92.0625 45.2266C92.0625 44.429 92.2083 43.7329 92.5 43.1382C92.7917 42.5435 93.1984 42.082 93.7202 41.7539C94.242 41.4258 94.8493 41.2617 95.542 41.2617C95.9111 41.2617 96.2598 41.3096 96.5879 41.4053C96.916 41.501 97.2157 41.6388 97.4868 41.8188C97.758 41.9989 97.9915 42.2199 98.1875 42.4819C98.3835 42.744 98.5339 43.0413 98.6387 43.374L97.4561 43.709C97.4014 43.513 97.3171 43.333 97.2031 43.1689C97.0892 43.0049 96.9513 42.8625 96.7896 42.7417C96.6278 42.6209 96.4421 42.5275 96.2324 42.4614C96.0228 42.3953 95.7926 42.3623 95.542 42.3623C95.0316 42.3623 94.6123 42.4956 94.2842 42.7622C93.9561 43.0288 93.7122 43.3786 93.5527 43.8115C93.3932 44.2445 93.3135 44.7161 93.3135 45.2266C93.3135 45.7279 93.3932 46.1938 93.5527 46.6245C93.7122 47.0552 93.9561 47.4027 94.2842 47.667C94.6123 47.9313 95.0316 48.0635 95.542 48.0635C95.7972 48.0635 96.0319 48.0293 96.2461 47.9609C96.4603 47.8926 96.6506 47.7957 96.8169 47.6704C96.9832 47.5451 97.1234 47.3958 97.2373 47.2227C97.3512 47.0495 97.4355 46.8604 97.4902 46.6553L98.666 46.9902C98.5658 47.332 98.4165 47.6362 98.2183 47.9028C98.02 48.1694 97.7842 48.3973 97.5107 48.5864C97.2373 48.7756 96.9342 48.9191 96.6016 49.0171C96.2689 49.1151 95.9157 49.1641 95.542 49.1641ZM100.43 38.8145H101.66V49H100.43V38.8145ZM105.051 49H103.82V41.3574H105.051V49ZM104.442 40.1064C104.21 40.1064 104.009 40.0267 103.841 39.8672C103.672 39.7077 103.588 39.5163 103.588 39.293C103.588 39.0651 103.672 38.8726 103.841 38.7153C104.009 38.5581 104.21 38.4795 104.442 38.4795C104.679 38.4795 104.882 38.5581 105.051 38.7153C105.219 38.8726 105.304 39.0651 105.304 39.293C105.304 39.5163 105.219 39.7077 105.051 39.8672C104.882 40.0267 104.679 40.1064 104.442 40.1064ZM108.441 51.8574H107.211V41.3574H108.4V42.5811H108.537C108.624 42.4443 108.744 42.2723 108.899 42.0649C109.054 41.8576 109.278 41.6719 109.569 41.5078C109.861 41.3438 110.255 41.2617 110.752 41.2617C111.39 41.2617 111.952 41.4212 112.437 41.7402C112.922 42.0592 113.303 42.5138 113.579 43.104C113.854 43.6942 113.992 44.3926 113.992 45.1992C113.992 46.0104 113.855 46.7122 113.582 47.3047C113.309 47.8971 112.929 48.3551 112.444 48.6787C111.958 49.0023 111.397 49.1641 110.759 49.1641C110.276 49.1641 109.886 49.0809 109.59 48.9146C109.294 48.7482 109.066 48.5591 108.906 48.3472C108.747 48.1353 108.624 47.9587 108.537 47.8174H108.441V51.8574ZM110.574 48.0635C111.053 48.0635 111.453 47.9347 111.774 47.6772C112.095 47.4198 112.337 47.0734 112.499 46.6382C112.66 46.203 112.741 45.7188 112.741 45.1855C112.741 44.6569 112.661 44.1795 112.502 43.7534C112.342 43.3273 112.102 42.9889 111.781 42.7383C111.459 42.4876 111.057 42.3623 110.574 42.3623C110.105 42.3623 109.711 42.4808 109.392 42.7178C109.073 42.9548 108.832 43.284 108.67 43.7056C108.509 44.1271 108.428 44.6204 108.428 45.1855C108.428 45.7507 108.51 46.2497 108.674 46.6826C108.838 47.1156 109.081 47.4539 109.402 47.6978C109.723 47.9416 110.114 48.0635 110.574 48.0635ZM121.156 41.3574H122.729V42.4102H121.156V47.0176C121.156 47.3594 121.226 47.6089 121.365 47.7661C121.504 47.9233 121.735 48.002 122.059 48.002C122.136 48.002 122.235 47.9928 122.356 47.9746C122.477 47.9564 122.587 47.9382 122.688 47.9199L122.94 48.959C122.813 49.0046 122.668 49.0387 122.506 49.0615C122.345 49.0843 122.184 49.0957 122.024 49.0957C121.364 49.0957 120.849 48.9214 120.479 48.5728C120.11 48.2241 119.926 47.7376 119.926 47.1133V42.4102H118.777V41.3574H119.926V39.5391H121.156V41.3574ZM127.514 49.1641C126.775 49.1641 126.139 49 125.603 48.6719C125.068 48.3438 124.655 47.8857 124.366 47.2979C124.076 46.71 123.932 46.0241 123.932 45.2402C123.932 44.4564 124.073 43.766 124.355 43.1689C124.638 42.5719 125.038 42.1048 125.555 41.7676C126.072 41.4303 126.677 41.2617 127.37 41.2617C127.776 41.2617 128.176 41.3289 128.57 41.4634C128.964 41.5978 129.322 41.8143 129.643 42.1128C129.964 42.4113 130.221 42.8044 130.412 43.292C130.604 43.7796 130.699 44.3766 130.699 45.083V45.5957H125.176C125.194 46.0879 125.292 46.5117 125.47 46.8672C125.666 47.2637 125.94 47.5633 126.293 47.7661C126.647 47.9689 127.056 48.0703 127.521 48.0703C127.821 48.0703 128.095 48.027 128.341 47.9404C128.587 47.8538 128.799 47.7228 128.977 47.5474C129.154 47.3719 129.291 47.1543 129.387 46.8945L130.576 47.2227C130.458 47.6055 130.257 47.9427 129.975 48.2344C129.692 48.526 129.342 48.7539 128.925 48.918C128.508 49.082 128.038 49.1641 127.514 49.1641ZM125.183 44.5566H129.448C129.416 44.2103 129.343 43.8913 129.229 43.5996C129.07 43.2122 128.835 42.908 128.525 42.687C128.215 42.466 127.83 42.3555 127.37 42.3555C126.91 42.3555 126.516 42.4683 126.188 42.6938C125.859 42.9194 125.609 43.2122 125.436 43.5723C125.29 43.8822 125.205 44.2103 125.183 44.5566ZM133.249 49H131.827L134.514 45.0762L131.984 41.3574H133.42L134.37 42.8408C134.616 43.2236 134.83 43.5814 135.013 43.9141C135.086 44.0553 135.163 44.1966 135.245 44.3379C135.318 44.1966 135.391 44.0553 135.464 43.9141C135.623 43.5814 135.828 43.2236 136.079 42.8408L137.05 41.3574H138.458L135.901 45.1445L138.581 49H137.152L136.031 47.2842C135.79 46.9105 135.582 46.5618 135.409 46.2383C135.336 46.1107 135.263 45.9854 135.19 45.8623C135.122 45.9854 135.056 46.1107 134.992 46.2383C134.833 46.5618 134.63 46.9105 134.384 47.2842L133.249 49ZM141.541 41.3574H143.113V42.4102H141.541V47.0176C141.541 47.3594 141.611 47.6089 141.75 47.7661C141.889 47.9233 142.12 48.002 142.443 48.002C142.521 48.002 142.62 47.9928 142.741 47.9746C142.861 47.9564 142.972 47.9382 143.072 47.9199L143.325 48.959C143.198 49.0046 143.053 49.0387 142.891 49.0615C142.729 49.0843 142.569 49.0957 142.409 49.0957C141.748 49.0957 141.233 48.9214 140.864 48.5728C140.495 48.2241 140.311 47.7376 140.311 47.1133V42.4102H139.162V41.3574H140.311V39.5391H141.541V41.3574Z" fill="black"/>
</svg>
