<svg width="200" height="80" viewBox="0 0 200 80" fill="none" xmlns="http://www.w3.org/2000/svg">
<rect width="200" height="80" fill="white"/>
<g clip-path="url(#clip0_1_30)">
<rect width="160" height="50" transform="translate(20 15)" fill="#F0F0F0"/>
<path d="M30.3525 39.1367C29.4821 39.1367 28.7062 38.9259 28.0249 38.5044C27.3436 38.0828 26.8081 37.4813 26.4185 36.6997C26.0288 35.9181 25.834 34.9896 25.834 33.9141C25.834 32.834 26.0288 31.9032 26.4185 31.1216C26.8081 30.34 27.3436 29.7373 28.0249 29.3135C28.7062 28.8896 29.4821 28.6777 30.3525 28.6777C30.8675 28.6777 31.354 28.7529 31.812 28.9033C32.27 29.0537 32.6813 29.2736 33.0459 29.563C33.4105 29.8524 33.7147 30.2033 33.9585 30.6157C34.2023 31.0282 34.3698 31.4964 34.4609 32.0205H33.1621C33.0892 31.6696 32.965 31.362 32.7896 31.0977C32.6141 30.8333 32.3999 30.61 32.147 30.4277C31.894 30.2454 31.6149 30.1087 31.3096 30.0176C31.0042 29.9264 30.6852 29.8809 30.3525 29.8809C29.7419 29.8809 29.1904 30.0358 28.6982 30.3457C28.2061 30.6556 27.8164 31.1102 27.5293 31.7095C27.2422 32.3088 27.0986 33.0436 27.0986 33.9141C27.0986 34.7799 27.2433 35.5125 27.5327 36.1118C27.8221 36.7111 28.2129 37.1646 28.7051 37.4722C29.1973 37.7798 29.7464 37.9336 30.3525 37.9336C30.6852 37.9336 31.0042 37.8869 31.3096 37.7935C31.6149 37.7 31.894 37.5633 32.147 37.3833C32.3999 37.2033 32.6141 36.98 32.7896 36.7134C32.965 36.4468 33.0892 36.1403 33.1621 35.7939H34.4609C34.3743 36.3135 34.2091 36.7783 33.9653 37.1885C33.7215 37.5986 33.4173 37.9495 33.0527 38.2412C32.6882 38.5329 32.2769 38.755 31.8188 38.9077C31.3608 39.0604 30.8721 39.1367 30.3525 39.1367ZM36.3066 28.8145H37.5371V39H36.3066V28.8145ZM40.9277 39H39.6973V31.3574H40.9277V39ZM40.3193 30.1064C40.0869 30.1064 39.8864 30.0267 39.7178 29.8672C39.5492 29.7077 39.4648 29.5163 39.4648 29.293C39.4648 29.0651 39.5492 28.8726 39.7178 28.7153C39.8864 28.5581 40.0869 28.4795 40.3193 28.4795C40.5563 28.4795 40.7591 28.5581 40.9277 28.7153C41.0964 28.8726 41.1807 29.0651 41.1807 29.293C41.1807 29.5163 41.0964 29.7077 40.9277 29.8672C40.7591 30.0267 40.5563 30.1064 40.3193 30.1064ZM44.3184 41.8574H43.0879V31.3574H44.2773V32.5811H44.4141C44.5007 32.4443 44.6214 32.2723 44.7764 32.0649C44.9313 31.8576 45.1546 31.6719 45.4463 31.5078C45.738 31.3438 46.1322 31.2617 46.6289 31.2617C47.2669 31.2617 47.8286 31.4212 48.314 31.7402C48.7993 32.0592 49.1798 32.5138 49.4556 33.104C49.7313 33.6942 49.8691 34.3926 49.8691 35.1992C49.8691 36.0104 49.7324 36.7122 49.459 37.3047C49.1855 37.8971 48.8062 38.3551 48.3208 38.6787C47.8354 39.0023 47.2738 39.1641 46.6357 39.1641C46.1527 39.1641 45.763 39.0809 45.4668 38.9146C45.1706 38.7482 44.9427 38.5591 44.7832 38.3472C44.6237 38.1353 44.5007 37.9587 44.4141 37.8174H44.3184V41.8574ZM46.4512 38.0635C46.9297 38.0635 47.3296 37.9347 47.6509 37.6772C47.9722 37.4198 48.2137 37.0734 48.3755 36.6382C48.5373 36.203 48.6182 35.7188 48.6182 35.1855C48.6182 34.6569 48.5384 34.1795 48.3789 33.7534C48.2194 33.3273 47.979 32.9889 47.6577 32.7383C47.3364 32.4876 46.9342 32.3623 46.4512 32.3623C45.9818 32.3623 45.5876 32.4808 45.2686 32.7178C44.9495 32.9548 44.7091 33.284 44.5474 33.7056C44.3856 34.1271 44.3047 34.6204 44.3047 35.1855C44.3047 35.7507 44.3867 36.2497 44.5508 36.6826C44.7148 37.1156 44.9575 37.4539 45.2788 37.6978C45.6001 37.9416 45.9909 38.0635 46.4512 38.0635ZM52.8906 41.8574H51.6602V31.3574H52.8496V32.5811H52.9863C53.0729 32.4443 53.1937 32.2723 53.3486 32.0649C53.5036 31.8576 53.7269 31.6719 54.0186 31.5078C54.3102 31.3438 54.7044 31.2617 55.2012 31.2617C55.8392 31.2617 56.4009 31.4212 56.8862 31.7402C57.3716 32.0592 57.7521 32.5138 58.0278 33.104C58.3035 33.6942 58.4414 34.3926 58.4414 35.1992C58.4414 36.0104 58.3047 36.7122 58.0312 37.3047C57.7578 37.8971 57.3784 38.3551 56.8931 38.6787C56.4077 39.0023 55.846 39.1641 55.208 39.1641C54.7249 39.1641 54.3353 39.0809 54.0391 38.9146C53.7428 38.7482 53.515 38.5591 53.3555 38.3472C53.196 38.1353 53.0729 37.9587 52.9863 37.8174H52.8906V41.8574ZM55.0234 38.0635C55.502 38.0635 55.9019 37.9347 56.2231 37.6772C56.5444 37.4198 56.786 37.0734 56.9478 36.6382C57.1095 36.203 57.1904 35.7188 57.1904 35.1855C57.1904 34.6569 57.1107 34.1795 56.9512 33.7534C56.7917 33.3273 56.5513 32.9889 56.23 32.7383C55.9087 32.4876 55.5065 32.3623 55.0234 32.3623C54.554 32.3623 54.1598 32.4808 53.8408 32.7178C53.5218 32.9548 53.2814 33.284 53.1196 33.7056C52.9578 34.1271 52.877 34.6204 52.877 35.1855C52.877 35.7507 52.959 36.2497 53.123 36.6826C53.2871 37.1156 53.5298 37.4539 53.8511 37.6978C54.1724 37.9416 54.5632 38.0635 55.0234 38.0635ZM63.4453 39.1641C62.707 39.1641 62.0701 39 61.5347 38.6719C60.9992 38.3438 60.5868 37.8857 60.2974 37.2979C60.008 36.71 59.8633 36.0241 59.8633 35.2402C59.8633 34.4564 60.0046 33.766 60.2871 33.1689C60.5697 32.5719 60.9696 32.1048 61.4868 31.7676C62.0041 31.4303 62.609 31.2617 63.3018 31.2617C63.7074 31.2617 64.1073 31.3289 64.5015 31.4634C64.8957 31.5978 65.2534 31.8143 65.5747 32.1128C65.896 32.4113 66.1523 32.8044 66.3438 33.292C66.5352 33.7796 66.6309 34.3766 66.6309 35.083V35.5957H61.1074C61.1257 36.0879 61.2236 36.5117 61.4014 36.8672C61.5973 37.2637 61.8719 37.5633 62.2251 37.7661C62.5783 37.9689 62.9873 38.0703 63.4521 38.0703C63.7529 38.0703 64.0264 38.027 64.2725 37.9404C64.5186 37.8538 64.7305 37.7228 64.9082 37.5474C65.0859 37.3719 65.2227 37.1543 65.3184 36.8945L66.5078 37.2227C66.3893 37.6055 66.1888 37.9427 65.9062 38.2344C65.6237 38.526 65.2739 38.7539 64.8569 38.918C64.4399 39.082 63.9694 39.1641 63.4453 39.1641ZM61.1143 34.5566H65.3799C65.348 34.2103 65.2751 33.8913 65.1611 33.5996C65.0016 33.2122 64.7669 32.908 64.457 32.687C64.1471 32.466 63.762 32.3555 63.3018 32.3555C62.8415 32.3555 62.4473 32.4683 62.1191 32.6938C61.791 32.9194 61.5404 33.2122 61.3672 33.5723C61.2214 33.8822 61.137 34.2103 61.1143 34.5566ZM71.2588 39.1641C70.6253 39.1641 70.0648 39.0023 69.5771 38.6787C69.0895 38.3551 68.709 37.8971 68.4355 37.3047C68.1621 36.7122 68.0254 36.0104 68.0254 35.1992C68.0254 34.3926 68.1632 33.6942 68.439 33.104C68.7147 32.5138 69.0964 32.0592 69.584 31.7402C70.0716 31.4212 70.6322 31.2617 71.2656 31.2617C71.7624 31.2617 72.1566 31.3438 72.4482 31.5078C72.7399 31.6719 72.9644 31.8576 73.1216 32.0649C73.2788 32.2723 73.3984 32.4443 73.4805 32.5811H73.5762V28.8145H74.8066V39H73.6172V37.8174H73.4805C73.3984 37.9587 73.2765 38.1353 73.1147 38.3472C72.953 38.5591 72.7251 38.7482 72.4312 38.9146C72.1372 39.0809 71.7464 39.1641 71.2588 39.1641ZM71.4434 38.0635C71.9082 38.0635 72.3001 37.9416 72.6191 37.6978C72.9382 37.4539 73.1797 37.1156 73.3438 36.6826C73.5078 36.2497 73.5898 35.7507 73.5898 35.1855C73.5898 34.6204 73.509 34.1271 73.3472 33.7056C73.1854 33.284 72.945 32.9548 72.626 32.7178C72.307 32.4808 71.9128 32.3623 71.4434 32.3623C70.9603 32.3623 70.5581 32.4876 70.2368 32.7383C69.9155 32.9889 69.6751 33.3273 69.5156 33.7534C69.3561 34.1795 69.2764 34.6569 69.2764 35.1855C69.2764 35.7188 69.3573 36.203 69.519 36.6382C69.6808 37.0734 69.9235 37.4198 70.2471 37.6772C70.5706 37.9347 70.9694 38.0635 71.4434 38.0635ZM82.3398 31.3574H83.9121V32.4102H82.3398V37.0176C82.3398 37.3594 82.4093 37.6089 82.5483 37.7661C82.6873 37.9233 82.9186 38.002 83.2422 38.002C83.3197 38.002 83.4188 37.9928 83.5396 37.9746C83.6603 37.9564 83.7708 37.9382 83.8711 37.9199L84.124 38.959C83.9964 39.0046 83.8517 39.0387 83.6899 39.0615C83.5282 39.0843 83.3675 39.0957 83.208 39.0957C82.5472 39.0957 82.0322 38.9214 81.6631 38.5728C81.2939 38.2241 81.1094 37.7376 81.1094 37.1133V32.4102H79.9609V31.3574H81.1094V29.5391H82.3398V31.3574ZM88.6973 39.1641C87.959 39.1641 87.3221 39 86.7866 38.6719C86.2511 38.3438 85.8387 37.8857 85.5493 37.2979C85.2599 36.71 85.1152 36.0241 85.1152 35.2402C85.1152 34.4564 85.2565 33.766 85.5391 33.1689C85.8216 32.5719 86.2215 32.1048 86.7388 31.7676C87.256 31.4303 87.861 31.2617 88.5537 31.2617C88.9593 31.2617 89.3592 31.3289 89.7534 31.4634C90.1476 31.5978 90.5054 31.8143 90.8267 32.1128C91.1479 32.4113 91.4043 32.8044 91.5957 33.292C91.7871 33.7796 91.8828 34.3766 91.8828 35.083V35.5957H86.3594C86.3776 36.0879 86.4756 36.5117 86.6533 36.8672C86.8493 37.2637 87.1239 37.5633 87.4771 37.7661C87.8302 37.9689 88.2393 38.0703 88.7041 38.0703C89.0049 38.0703 89.2783 38.027 89.5244 37.9404C89.7705 37.8538 89.9824 37.7228 90.1602 37.5474C90.3379 37.3719 90.4746 37.1543 90.5703 36.8945L91.7598 37.2227C91.6413 37.6055 91.4408 37.9427 91.1582 38.2344C90.8757 38.526 90.5259 38.7539 90.1089 38.918C89.6919 39.082 89.2214 39.1641 88.6973 39.1641ZM86.3662 34.5566H90.6318C90.5999 34.2103 90.527 33.8913 90.4131 33.5996C90.2536 33.2122 90.0189 32.908 89.709 32.687C89.3991 32.466 89.014 32.3555 88.5537 32.3555C88.0934 32.3555 87.6992 32.4683 87.3711 32.6938C87.043 32.9194 86.7923 33.2122 86.6191 33.5723C86.4733 33.8822 86.389 34.2103 86.3662 34.5566ZM94.4326 39H93.0107L95.6973 35.0762L93.168 31.3574H94.6035L95.5537 32.8408C95.7998 33.2236 96.014 33.5814 96.1963 33.9141C96.2692 34.0553 96.3467 34.1966 96.4287 34.3379C96.5016 34.1966 96.5745 34.0553 96.6475 33.9141C96.807 33.5814 97.012 33.2236 97.2627 32.8408L98.2334 31.3574H99.6416L97.085 35.1445L99.7646 39H98.3359L97.2148 37.2842C96.9733 36.9105 96.766 36.5618 96.5928 36.2383C96.5199 36.1107 96.4469 35.9854 96.374 35.8623C96.3057 35.9854 96.2396 36.1107 96.1758 36.2383C96.0163 36.5618 95.8135 36.9105 95.5674 37.2842L94.4326 39ZM102.725 31.3574H104.297V32.4102H102.725V37.0176C102.725 37.3594 102.794 37.6089 102.933 37.7661C103.072 37.9233 103.303 38.002 103.627 38.002C103.704 38.002 103.804 37.9928 103.924 37.9746C104.045 37.9564 104.156 37.9382 104.256 37.9199L104.509 38.959C104.381 39.0046 104.236 39.0387 104.075 39.0615C103.913 39.0843 103.752 39.0957 103.593 39.0957C102.932 39.0957 102.417 38.9214 102.048 38.5728C101.679 38.2241 101.494 37.7376 101.494 37.1133V32.4102H100.346V31.3574H101.494V29.5391H102.725V31.3574ZM112.917 39.1641C112.224 39.1641 111.617 39 111.095 38.6719C110.573 38.3438 110.167 37.8835 109.875 37.291C109.583 36.6986 109.438 36.0104 109.438 35.2266C109.438 34.429 109.583 33.7329 109.875 33.1382C110.167 32.5435 110.573 32.082 111.095 31.7539C111.617 31.4258 112.224 31.2617 112.917 31.2617C113.286 31.2617 113.635 31.3096 113.963 31.4053C114.291 31.501 114.591 31.6388 114.862 31.8188C115.133 31.9989 115.367 32.2199 115.562 32.4819C115.758 32.744 115.909 33.0413 116.014 33.374L114.831 33.709C114.776 33.513 114.692 33.333 114.578 33.1689C114.464 33.0049 114.326 32.8625 114.165 32.7417C114.003 32.6209 113.817 32.5275 113.607 32.4614C113.398 32.3953 113.168 32.3623 112.917 32.3623C112.407 32.3623 111.987 32.4956 111.659 32.7622C111.331 33.0288 111.087 33.3786 110.928 33.8115C110.768 34.2445 110.688 34.7161 110.688 35.2266C110.688 35.7279 110.768 36.1938 110.928 36.6245C111.087 37.0552 111.331 37.4027 111.659 37.667C111.987 37.9313 112.407 38.0635 112.917 38.0635C113.172 38.0635 113.407 38.0293 113.621 37.9609C113.835 37.8926 114.026 37.7957 114.192 37.6704C114.358 37.5451 114.498 37.3958 114.612 37.2227C114.726 37.0495 114.811 36.8604 114.865 36.6553L116.041 36.9902C115.941 37.332 115.792 37.6362 115.593 37.9028C115.395 38.1694 115.159 38.3973 114.886 38.5864C114.612 38.7756 114.309 38.9191 113.977 39.0171C113.644 39.1151 113.291 39.1641 112.917 39.1641ZM120.915 39.1641C120.222 39.1641 119.615 39 119.093 38.6719C118.571 38.3438 118.165 37.8835 117.873 37.291C117.581 36.6986 117.436 36.0104 117.436 35.2266C117.436 34.429 117.581 33.7329 117.873 33.1382C118.165 32.5435 118.571 32.082 119.093 31.7539C119.615 31.4258 120.222 31.2617 120.915 31.2617C121.612 31.2617 122.223 31.4258 122.747 31.7539C123.271 32.082 123.679 32.5435 123.971 33.1382C124.262 33.7329 124.408 34.429 124.408 35.2266C124.408 36.0104 124.262 36.6986 123.971 37.291C123.679 37.8835 123.271 38.3438 122.747 38.6719C122.223 39 121.612 39.1641 120.915 39.1641ZM120.915 38.0635C121.43 38.0635 121.854 37.9313 122.187 37.667C122.519 37.4027 122.765 37.0552 122.925 36.6245C123.084 36.1938 123.164 35.7279 123.164 35.2266C123.164 34.7207 123.084 34.2502 122.925 33.8149C122.765 33.3797 122.519 33.0288 122.187 32.7622C121.854 32.4956 121.43 32.3623 120.915 32.3623C120.405 32.3623 119.985 32.4956 119.657 32.7622C119.329 33.0288 119.085 33.3786 118.926 33.8115C118.766 34.2445 118.687 34.7161 118.687 35.2266C118.687 35.7279 118.766 36.1938 118.926 36.6245C119.085 37.0552 119.329 37.4027 119.657 37.667C119.985 37.9313 120.405 38.0635 120.915 38.0635ZM127.43 34.4199V39H126.199V31.3574H127.382L127.389 32.7725C127.603 32.2939 127.879 31.9385 128.216 31.7061C128.644 31.4098 129.148 31.2617 129.727 31.2617C130.242 31.2617 130.693 31.3677 131.08 31.5796C131.467 31.7915 131.769 32.1105 131.986 32.5366C132.202 32.9627 132.311 33.4993 132.311 34.1465V39H131.08V34.249C131.08 33.6611 130.926 33.2008 130.619 32.8682C130.311 32.5355 129.891 32.3691 129.357 32.3691C128.993 32.3691 128.665 32.4489 128.373 32.6084C128.081 32.7679 127.851 33.0003 127.683 33.3057C127.514 33.611 127.43 33.9824 127.43 34.4199ZM135.906 31.3574H137.479V32.4102H135.906V37.0176C135.906 37.3594 135.976 37.6089 136.115 37.7661C136.254 37.9233 136.485 38.002 136.809 38.002C136.886 38.002 136.985 37.9928 137.106 37.9746C137.227 37.9564 137.337 37.9382 137.438 37.9199L137.69 38.959C137.563 39.0046 137.418 39.0387 137.256 39.0615C137.095 39.0843 136.934 39.0957 136.774 39.0957C136.114 39.0957 135.599 38.9214 135.229 38.5728C134.86 38.2241 134.676 37.7376 134.676 37.1133V32.4102H133.527V31.3574H134.676V29.5391H135.906V31.3574ZM142.264 39.1641C141.525 39.1641 140.889 39 140.353 38.6719C139.818 38.3438 139.405 37.8857 139.116 37.2979C138.826 36.71 138.682 36.0241 138.682 35.2402C138.682 34.4564 138.823 33.766 139.105 33.1689C139.388 32.5719 139.788 32.1048 140.305 31.7676C140.822 31.4303 141.427 31.2617 142.12 31.2617C142.526 31.2617 142.926 31.3289 143.32 31.4634C143.714 31.5978 144.072 31.8143 144.393 32.1128C144.714 32.4113 144.971 32.8044 145.162 33.292C145.354 33.7796 145.449 34.3766 145.449 35.083V35.5957H139.926C139.944 36.0879 140.042 36.5117 140.22 36.8672C140.416 37.2637 140.69 37.5633 141.043 37.7661C141.397 37.9689 141.806 38.0703 142.271 38.0703C142.571 38.0703 142.845 38.027 143.091 37.9404C143.337 37.8538 143.549 37.7228 143.727 37.5474C143.904 37.3719 144.041 37.1543 144.137 36.8945L145.326 37.2227C145.208 37.6055 145.007 37.9427 144.725 38.2344C144.442 38.526 144.092 38.7539 143.675 38.918C143.258 39.082 142.788 39.1641 142.264 39.1641ZM139.933 34.5566H144.198C144.166 34.2103 144.093 33.8913 143.979 33.5996C143.82 33.2122 143.585 32.908 143.275 32.687C142.965 32.466 142.58 32.3555 142.12 32.3555C141.66 32.3555 141.266 32.4683 140.938 32.6938C140.609 32.9194 140.359 33.2122 140.186 33.5723C140.04 33.8822 139.955 34.2103 139.933 34.5566ZM148.443 34.4199V39H147.213V31.3574H148.396L148.402 32.7725C148.617 32.2939 148.892 31.9385 149.229 31.7061C149.658 31.4098 150.161 31.2617 150.74 31.2617C151.255 31.2617 151.706 31.3677 152.094 31.5796C152.481 31.7915 152.783 32.1105 153 32.5366C153.216 32.9627 153.324 33.4993 153.324 34.1465V39H152.094V34.249C152.094 33.6611 151.94 33.2008 151.632 32.8682C151.325 32.5355 150.904 32.3691 150.371 32.3691C150.007 32.3691 149.678 32.4489 149.387 32.6084C149.095 32.7679 148.865 33.0003 148.696 33.3057C148.528 33.611 148.443 33.9824 148.443 34.4199ZM156.92 31.3574H158.492V32.4102H156.92V37.0176C156.92 37.3594 156.989 37.6089 157.128 37.7661C157.267 37.9233 157.499 38.002 157.822 38.002C157.9 38.002 157.999 37.9928 158.12 37.9746C158.24 37.9564 158.351 37.9382 158.451 37.9199L158.704 38.959C158.576 39.0046 158.432 39.0387 158.27 39.0615C158.108 39.0843 157.948 39.0957 157.788 39.0957C157.127 39.0957 156.612 38.9214 156.243 38.5728C155.874 38.2241 155.689 37.7376 155.689 37.1133V32.4102H154.541V31.3574H155.689V29.5391H156.92V31.3574ZM165.232 34.4199V39H164.002V28.8145H165.232V32.6768C165.442 32.2438 165.704 31.9202 166.019 31.7061C166.447 31.4098 166.951 31.2617 167.529 31.2617C168.044 31.2617 168.497 31.3677 168.886 31.5796C169.276 31.7915 169.579 32.1105 169.795 32.5366C170.012 32.9627 170.12 33.4993 170.12 34.1465V39H168.883V34.249C168.883 33.6611 168.729 33.2008 168.421 32.8682C168.114 32.5355 167.693 32.3691 167.16 32.3691C166.796 32.3691 166.467 32.4489 166.176 32.6084C165.884 32.7679 165.654 33.0003 165.485 33.3057C165.317 33.611 165.232 33.9824 165.232 34.4199ZM175.493 39.1641C174.755 39.1641 174.118 39 173.583 38.6719C173.047 38.3438 172.635 37.8857 172.345 37.2979C172.056 36.71 171.911 36.0241 171.911 35.2402C171.911 34.4564 172.052 33.766 172.335 33.1689C172.618 32.5719 173.017 32.1048 173.535 31.7676C174.052 31.4303 174.657 31.2617 175.35 31.2617C175.755 31.2617 176.155 31.3289 176.549 31.4634C176.944 31.5978 177.301 31.8143 177.623 32.1128C177.944 32.4113 178.2 32.8044 178.392 33.292C178.583 33.7796 178.679 34.3766 178.679 35.083V35.5957H173.155C173.174 36.0879 173.271 36.5117 173.449 36.8672C173.645 37.2637 173.92 37.5633 174.273 37.7661C174.626 37.9689 175.035 38.0703 175.5 38.0703C175.801 38.0703 176.074 38.027 176.32 37.9404C176.566 37.8538 176.778 37.7228 176.956 37.5474C177.134 37.3719 177.271 37.1543 177.366 36.8945L178.556 37.2227C178.437 37.6055 178.237 37.9427 177.954 38.2344C177.672 38.526 177.322 38.7539 176.905 38.918C176.488 39.082 176.017 39.1641 175.493 39.1641ZM173.162 34.5566H177.428C177.396 34.2103 177.323 33.8913 177.209 33.5996C177.049 33.2122 176.815 32.908 176.505 32.687C176.195 32.466 175.81 32.3555 175.35 32.3555C174.889 32.3555 174.495 32.4683 174.167 32.6938C173.839 32.9194 173.588 33.2122 173.415 33.5723C173.269 33.8822 173.185 34.2103 173.162 34.5566ZM181.673 39H180.442V31.3574H181.632V32.5332H181.714C181.855 32.1458 182.107 31.8348 182.469 31.6001C182.832 31.3654 183.241 31.248 183.696 31.248C183.787 31.248 183.896 31.2503 184.021 31.2549C184.146 31.2594 184.245 31.264 184.318 31.2686V32.5059C184.282 32.4967 184.191 32.4831 184.045 32.4648C183.899 32.4466 183.744 32.4375 183.58 32.4375C183.215 32.4375 182.889 32.5138 182.599 32.6665C182.31 32.8192 182.083 33.0288 181.919 33.2954C181.755 33.562 181.673 33.8685 181.673 34.2148V39ZM188.926 39.1641C188.188 39.1641 187.551 39 187.015 38.6719C186.48 38.3438 186.067 37.8857 185.778 37.2979C185.488 36.71 185.344 36.0241 185.344 35.2402C185.344 34.4564 185.485 33.766 185.768 33.1689C186.05 32.5719 186.45 32.1048 186.967 31.7676C187.485 31.4303 188.09 31.2617 188.782 31.2617C189.188 31.2617 189.588 31.3289 189.982 31.4634C190.376 31.5978 190.734 31.8143 191.055 32.1128C191.376 32.4113 191.633 32.8044 191.824 33.292C192.016 33.7796 192.111 34.3766 192.111 35.083V35.5957H186.588C186.606 36.0879 186.704 36.5117 186.882 36.8672C187.078 37.2637 187.352 37.5633 187.706 37.7661C188.059 37.9689 188.468 38.0703 188.933 38.0703C189.233 38.0703 189.507 38.027 189.753 37.9404C189.999 37.8538 190.211 37.7228 190.389 37.5474C190.566 37.3719 190.703 37.1543 190.799 36.8945L191.988 37.2227C191.87 37.6055 191.669 37.9427 191.387 38.2344C191.104 38.526 190.754 38.7539 190.337 38.918C189.92 39.082 189.45 39.1641 188.926 39.1641ZM186.595 34.5566H190.86C190.828 34.2103 190.756 33.8913 190.642 33.5996C190.482 33.2122 190.247 32.908 189.938 32.687C189.628 32.466 189.243 32.3555 188.782 32.3555C188.322 32.3555 187.928 32.4683 187.6 32.6938C187.271 32.9194 187.021 33.2122 186.848 33.5723C186.702 33.8822 186.618 34.2103 186.595 34.5566Z" fill="black"/>
</g>
<defs>
<clipPath id="clip0_1_30">
<rect width="160" height="50" fill="white" transform="translate(20 15)"/>
</clipPath>
</defs>
</svg>
