<svg width="200" height="60" viewBox="0 0 200 60" fill="none" xmlns="http://www.w3.org/2000/svg">
<rect width="200" height="60" fill="white"/>
<path d="M13.0078 29H10.9229V18.8145H14.8945C15.6693 18.8145 16.3278 18.9512 16.8701 19.2246C17.4124 19.498 17.826 19.8831 18.1108 20.3799C18.3957 20.8766 18.5381 21.46 18.5381 22.1299C18.5381 22.7998 18.3934 23.3774 18.104 23.8628C17.8146 24.3481 17.3965 24.7184 16.8496 24.9736C16.8086 24.9919 16.7699 25.0101 16.7334 25.0283L18.9004 29H16.5898L14.6416 25.3633H13.0078V29ZM13.0078 20.5371V23.6748H14.5117C14.9401 23.6748 15.291 23.6167 15.5645 23.5005C15.8379 23.3843 16.043 23.2111 16.1797 22.981C16.3164 22.7508 16.3848 22.4671 16.3848 22.1299C16.3848 21.7835 16.3164 21.493 16.1797 21.2583C16.043 21.0236 15.8368 20.8447 15.561 20.7217C15.2853 20.5986 14.9333 20.5371 14.5049 20.5371H13.0078ZM23.5215 29.1504C22.7422 29.1504 22.07 28.9909 21.5049 28.6719C20.9398 28.3529 20.5057 27.8994 20.2026 27.3115C19.8996 26.7236 19.748 26.0264 19.748 25.2197C19.748 24.4313 19.8984 23.7409 20.1992 23.1484C20.5 22.556 20.9261 22.0934 21.4775 21.7607C22.029 21.4281 22.6761 21.2617 23.4189 21.2617C23.9202 21.2617 24.3874 21.3415 24.8203 21.501C25.2533 21.6605 25.6338 21.9009 25.9619 22.2222C26.29 22.5435 26.5464 22.9456 26.731 23.4287C26.9155 23.9118 27.0078 24.4814 27.0078 25.1377V25.7119H21.7783C21.792 26.0993 21.8672 26.4297 22.0039 26.7031C22.1497 27.0039 22.356 27.2295 22.6226 27.3799C22.8892 27.5303 23.2002 27.6055 23.5557 27.6055C23.7972 27.6055 24.016 27.5713 24.2119 27.5029C24.4079 27.4346 24.5754 27.3332 24.7144 27.1987C24.8534 27.0643 24.9593 26.8991 25.0322 26.7031L26.8916 27.0518C26.7686 27.471 26.5544 27.839 26.249 28.1558C25.9437 28.4725 25.562 28.7174 25.104 28.8906C24.646 29.0638 24.1185 29.1504 23.5215 29.1504ZM21.792 24.4268H25.0322C25.0049 24.1715 24.9502 23.9391 24.8682 23.7295C24.7451 23.4378 24.564 23.2111 24.3247 23.0493C24.0854 22.8875 23.7904 22.8066 23.4395 22.8066C23.084 22.8066 22.7821 22.8887 22.5337 23.0527C22.2853 23.2168 22.0973 23.4378 21.9697 23.7158C21.874 23.93 21.8148 24.167 21.792 24.4268ZM31.1982 29.1299C30.6149 29.1299 30.0874 28.9784 29.6157 28.6753C29.144 28.3722 28.7715 27.9279 28.498 27.3423C28.2246 26.7567 28.0879 26.04 28.0879 25.1924C28.0879 24.3219 28.2292 23.5951 28.5117 23.0117C28.7943 22.4284 29.1702 21.9909 29.6396 21.6992C30.109 21.4076 30.6263 21.2617 31.1914 21.2617C31.6243 21.2617 31.9844 21.3346 32.2715 21.4805C32.5586 21.6263 32.791 21.8063 32.9688 22.0205C33.1465 22.2347 33.2786 22.4421 33.3652 22.6426H33.4336V18.8145H35.4844V29H33.4678V27.7764H33.3652C33.2741 27.9814 33.1385 28.1877 32.9585 28.395C32.7785 28.6024 32.5449 28.7767 32.2578 28.918C31.9707 29.0592 31.6175 29.1299 31.1982 29.1299ZM31.834 27.4824C32.1803 27.4824 32.4766 27.3867 32.7227 27.1953C32.9688 27.0039 33.1556 26.7362 33.2832 26.3921C33.4108 26.048 33.4746 25.6458 33.4746 25.1855C33.4746 24.7207 33.4119 24.3185 33.2866 23.979C33.1613 23.6395 32.9756 23.3752 32.7295 23.186C32.4834 22.9969 32.1849 22.9023 31.834 22.9023C31.474 22.9023 31.172 23.0003 30.9282 23.1963C30.6844 23.3923 30.501 23.6611 30.3779 24.0029C30.2549 24.3447 30.1934 24.7389 30.1934 25.1855C30.1934 25.6322 30.256 26.0286 30.3813 26.375C30.5067 26.7214 30.6912 26.9925 30.9351 27.1885C31.1789 27.3844 31.4785 27.4824 31.834 27.4824Z" fill="#E61A1A"/>
<path d="M75.4346 29.1367C74.4821 29.1367 73.647 28.9259 72.9292 28.5044C72.2114 28.0828 71.6509 27.4813 71.2476 26.6997C70.8442 25.9181 70.6426 24.9919 70.6426 23.9209C70.6426 22.818 70.8522 21.8758 71.2715 21.0942C71.6908 20.3127 72.2581 19.7145 72.9736 19.2998C73.6891 18.8851 74.4935 18.6777 75.3867 18.6777C75.9609 18.6777 76.4953 18.7609 76.9897 18.9272C77.4842 19.0936 77.924 19.3294 78.3091 19.6348C78.6942 19.9401 79.0086 20.3013 79.2524 20.7183C79.4963 21.1353 79.6546 21.5967 79.7275 22.1025H77.6084C77.5355 21.8564 77.4341 21.6366 77.3042 21.4429C77.1743 21.2492 77.0171 21.084 76.8325 20.9473C76.6479 20.8105 76.4372 20.7069 76.2002 20.6362C75.9632 20.5656 75.7035 20.5303 75.4209 20.5303C74.8968 20.5303 74.4342 20.6613 74.0332 20.9233C73.6322 21.1854 73.32 21.5671 73.0967 22.0684C72.8734 22.5697 72.7617 23.1803 72.7617 23.9004C72.7617 24.6204 72.8722 25.2323 73.0933 25.7358C73.3143 26.2394 73.6253 26.6234 74.0264 26.8877C74.4274 27.152 74.9014 27.2842 75.4482 27.2842C75.9404 27.2842 76.362 27.1953 76.7129 27.0176C77.0638 26.8398 77.335 26.5846 77.5264 26.252C77.7041 25.9375 77.7975 25.5729 77.8066 25.1582H75.5918V23.5723H79.8301V24.8438C79.8301 25.737 79.641 26.5037 79.2627 27.144C78.8844 27.7843 78.3649 28.2765 77.7041 28.6206C77.0433 28.9647 76.2868 29.1367 75.4346 29.1367ZM83.4326 29H81.3818V21.3574H83.3643V22.6904H83.4463C83.5876 22.2165 83.8234 21.8587 84.1538 21.6172C84.4842 21.3757 84.8636 21.2549 85.292 21.2549C85.3968 21.2549 85.5107 21.2606 85.6338 21.272C85.7568 21.2834 85.8639 21.3005 85.9551 21.3232V23.1553C85.8639 23.1234 85.7318 23.0983 85.5586 23.0801C85.3854 23.0618 85.2214 23.0527 85.0664 23.0527C84.7565 23.0527 84.4762 23.12 84.2256 23.2544C83.9749 23.3888 83.7801 23.5757 83.6411 23.8149C83.5021 24.0542 83.4326 24.3333 83.4326 24.6523V29ZM90.5352 29.1504C89.7559 29.1504 89.0837 28.9909 88.5186 28.6719C87.9535 28.3529 87.5194 27.8994 87.2163 27.3115C86.9132 26.7236 86.7617 26.0264 86.7617 25.2197C86.7617 24.4313 86.9121 23.7409 87.2129 23.1484C87.5137 22.556 87.9398 22.0934 88.4912 21.7607C89.0426 21.4281 89.6898 21.2617 90.4326 21.2617C90.9339 21.2617 91.401 21.3415 91.834 21.501C92.2669 21.6605 92.6475 21.9009 92.9756 22.2222C93.3037 22.5435 93.5601 22.9456 93.7446 23.4287C93.9292 23.9118 94.0215 24.4814 94.0215 25.1377V25.7119H88.792C88.8057 26.0993 88.8809 26.4297 89.0176 26.7031C89.1634 27.0039 89.3696 27.2295 89.6362 27.3799C89.9028 27.5303 90.2139 27.6055 90.5693 27.6055C90.8109 27.6055 91.0296 27.5713 91.2256 27.5029C91.4215 27.4346 91.589 27.3332 91.728 27.1987C91.867 27.0643 91.973 26.8991 92.0459 26.7031L93.9053 27.0518C93.7822 27.471 93.568 27.839 93.2627 28.1558C92.9574 28.4725 92.5757 28.7174 92.1177 28.8906C91.6597 29.0638 91.1322 29.1504 90.5352 29.1504ZM88.8057 24.4268H92.0459C92.0186 24.1715 91.9639 23.9391 91.8818 23.7295C91.7588 23.4378 91.5776 23.2111 91.3384 23.0493C91.0991 22.8875 90.804 22.8066 90.4531 22.8066C90.0977 22.8066 89.7957 22.8887 89.5474 23.0527C89.299 23.2168 89.111 23.4378 88.9834 23.7158C88.8877 23.93 88.8285 24.167 88.8057 24.4268ZM98.875 29.1504C98.0957 29.1504 97.4235 28.9909 96.8584 28.6719C96.2933 28.3529 95.8592 27.8994 95.5562 27.3115C95.2531 26.7236 95.1016 26.0264 95.1016 25.2197C95.1016 24.4313 95.252 23.7409 95.5527 23.1484C95.8535 22.556 96.2796 22.0934 96.8311 21.7607C97.3825 21.4281 98.0296 21.2617 98.7725 21.2617C99.2738 21.2617 99.7409 21.3415 100.174 21.501C100.607 21.6605 100.987 21.9009 101.315 22.2222C101.644 22.5435 101.9 22.9456 102.084 23.4287C102.269 23.9118 102.361 24.4814 102.361 25.1377V25.7119H97.1318C97.1455 26.0993 97.2207 26.4297 97.3574 26.7031C97.5033 27.0039 97.7095 27.2295 97.9761 27.3799C98.2427 27.5303 98.5537 27.6055 98.9092 27.6055C99.1507 27.6055 99.3695 27.5713 99.5654 27.5029C99.7614 27.4346 99.9289 27.3332 100.068 27.1987C100.207 27.0643 100.313 26.8991 100.386 26.7031L102.245 27.0518C102.122 27.471 101.908 27.839 101.603 28.1558C101.297 28.4725 100.916 28.7174 100.458 28.8906C99.9995 29.0638 99.472 29.1504 98.875 29.1504ZM97.1455 24.4268H100.386C100.358 24.1715 100.304 23.9391 100.222 23.7295C100.099 23.4378 99.9175 23.2111 99.6782 23.0493C99.439 22.8875 99.1439 22.8066 98.793 22.8066C98.4375 22.8066 98.1356 22.8887 97.8872 23.0527C97.6388 23.2168 97.4508 23.4378 97.3232 23.7158C97.2275 23.93 97.1683 24.167 97.1455 24.4268ZM105.813 24.5771V29H103.763V21.3574H105.697L105.725 22.9365C105.921 22.4535 106.187 22.0684 106.524 21.7812C106.93 21.4349 107.456 21.2617 108.104 21.2617C108.632 21.2617 109.094 21.3768 109.488 21.6069C109.882 21.8371 110.187 22.1675 110.404 22.5981C110.62 23.0288 110.729 23.5426 110.729 24.1396V29H108.678V24.4951C108.678 24.0212 108.556 23.6497 108.312 23.3809C108.068 23.112 107.73 22.9775 107.297 22.9775C107.01 22.9775 106.753 23.0402 106.528 23.1655C106.302 23.2909 106.127 23.472 106.001 23.709C105.876 23.946 105.813 24.2354 105.813 24.5771Z" fill="#1AB31A"/>
<path d="M135.223 29H130.923V18.8145H134.963C135.71 18.8145 136.333 18.9272 136.833 19.1528C137.332 19.3784 137.705 19.6872 137.954 20.0791C138.202 20.471 138.326 20.9222 138.326 21.4326C138.326 21.8337 138.246 22.1834 138.087 22.4819C137.927 22.7804 137.71 23.0243 137.434 23.2134C137.158 23.4025 136.845 23.5381 136.494 23.6201V23.7227C136.877 23.7363 137.238 23.8446 137.578 24.0474C137.917 24.2502 138.193 24.5327 138.405 24.895C138.617 25.2573 138.723 25.6891 138.723 26.1904C138.723 26.7282 138.59 27.209 138.326 27.6328C138.062 28.0566 137.671 28.3905 137.154 28.6343C136.637 28.8781 135.993 29 135.223 29ZM133.008 24.5225V27.2842H134.812C135.423 27.2842 135.87 27.1657 136.152 26.9287C136.435 26.6917 136.576 26.3796 136.576 25.9922C136.576 25.7051 136.507 25.451 136.368 25.23C136.229 25.009 136.032 24.8358 135.776 24.7104C135.521 24.5851 135.218 24.5225 134.867 24.5225H133.008ZM133.008 20.5166V23.0938H134.655C134.951 23.0938 135.218 23.0402 135.455 22.9331C135.692 22.826 135.878 22.6733 136.012 22.4751C136.147 22.2769 136.214 22.041 136.214 21.7676C136.214 21.3984 136.083 21.0977 135.821 20.8652C135.559 20.6328 135.184 20.5166 134.696 20.5166H133.008ZM140.138 18.8145H142.188V29H140.138V18.8145ZM146.563 29.0957C146.035 29.0957 145.572 28.9806 145.176 28.7505C144.779 28.5203 144.473 28.1899 144.256 27.7593C144.04 27.3286 143.932 26.8148 143.932 26.2178V21.3574H145.982V25.8623C145.982 26.3363 146.105 26.7077 146.352 26.9766C146.598 27.2454 146.935 27.3799 147.363 27.3799C147.655 27.3799 147.912 27.3172 148.136 27.1919C148.359 27.0666 148.533 26.8843 148.659 26.645C148.784 26.4058 148.847 26.1175 148.847 25.7803V21.3574H150.904V29H148.963L148.942 27.4072C148.746 27.8994 148.478 28.2891 148.136 28.5762C147.721 28.9225 147.197 29.0957 146.563 29.0957ZM156.1 29.1504C155.32 29.1504 154.648 28.9909 154.083 28.6719C153.518 28.3529 153.084 27.8994 152.781 27.3115C152.478 26.7236 152.326 26.0264 152.326 25.2197C152.326 24.4313 152.477 23.7409 152.777 23.1484C153.078 22.556 153.504 22.0934 154.056 21.7607C154.607 21.4281 155.254 21.2617 155.997 21.2617C156.498 21.2617 156.965 21.3415 157.398 21.501C157.831 21.6605 158.212 21.9009 158.54 22.2222C158.868 22.5435 159.125 22.9456 159.309 23.4287C159.494 23.9118 159.586 24.4814 159.586 25.1377V25.7119H154.356C154.37 26.0993 154.445 26.4297 154.582 26.7031C154.728 27.0039 154.934 27.2295 155.201 27.3799C155.467 27.5303 155.778 27.6055 156.134 27.6055C156.375 27.6055 156.594 27.5713 156.79 27.5029C156.986 27.4346 157.153 27.3332 157.292 27.1987C157.431 27.0643 157.537 26.8991 157.61 26.7031L159.47 27.0518C159.347 27.471 159.132 27.839 158.827 28.1558C158.522 28.4725 158.14 28.7174 157.682 28.8906C157.224 29.0638 156.697 29.1504 156.1 29.1504ZM154.37 24.4268H157.61C157.583 24.1715 157.528 23.9391 157.446 23.7295C157.323 23.4378 157.142 23.2111 156.903 23.0493C156.664 22.8875 156.368 22.8066 156.018 22.8066C155.662 22.8066 155.36 22.8887 155.112 23.0527C154.863 23.2168 154.675 23.4378 154.548 23.7158C154.452 23.93 154.393 24.167 154.37 24.4268Z" fill="#1A1AE6"/>
</svg>
