<svg xmlns="http://www.w3.org/2000/svg" width="320" height="180" viewBox="0 0 320 180"><g><defs><clipPath id="clip-g58-1"><rect x="0" y="0" width="320" height="180"/></clipPath></defs><g clip-path="url(#clip-g58-1)"><rect x="0" y="0" width="320" height="180" fill="#ffffff"/><g transform="matrix(1,0,0,1,10,10)"><defs><clipPath id="clip-g58-0"><rect x="0" y="0" width="300" height="160"/></clipPath></defs><g clip-path="url(#clip-g58-0)"><rect x="0" y="0" width="300" height="160" fill="#ffffff"/><rect x="0" y="0" width="300" height="160" fill="#e6e6f2"/><g transform="matrix(1,0,0,1,120,65)"><path d="M 8 0 L 52 0 C 56.418277998646346 0 60 3.5817220013536533 60 8 L 60 22 C 60 26.418277998646346 56.418277998646346 30 52 30 L 8 30 C 3.5817220013536533 30 0 26.418277998646346 0 22 L 0 8 C 0 3.5817220013536533 3.5817220013536533 0 8 0 Z" fill="#007aff"/></g><g transform="matrix(1,0,0,1,270,130)"><path d="M 10 0 L 10 0 C 15.522847498307932 0 20 4.477152501692067 20 10 L 20 10 C 20 15.522847498307932 15.522847498307932 20 10 20 L 10 20 C 4.477152501692067 20 0 15.522847498307932 0 10 L 0 10 C 0 4.477152501692067 4.477152501692067 0 10 0 Z" fill="#ff3b30"/></g></g></g></g></g></svg>