<svg xmlns="http://www.w3.org/2000/svg" width="180" height="120" viewBox="0 0 180 120"><g><defs><clipPath id="clip-g39-1"><rect x="0" y="0" width="180" height="120"/></clipPath></defs><g clip-path="url(#clip-g39-1)"><rect x="0" y="0" width="180" height="120" fill="#ffffff"/><g transform="matrix(1,0,0,1,10,10)"><defs><clipPath id="clip-g39-0"><rect x="0" y="0" width="160" height="100"/></clipPath></defs><g clip-path="url(#clip-g39-0)"><rect x="0" y="0" width="160" height="100" fill="#ffffff"/><g transform="matrix(1,0,0,1,10,16.66666603088379)"><path d="M 4 0 L 116 0 C 118.20913899932317 0 120 1.7908610006768266 120 4 L 120 46 C 120 48.20913899932317 118.20913899932317 50 116 50 L 4 50 C 1.7908610006768266 50 0 48.20913899932317 0 46 L 0 4 C 0 1.7908610006768266 1.7908610006768266 0 4 0 Z" fill="#007aff"/></g></g></g></g></g></svg>