<svg width="248" height="355" viewBox="0 0 248 355" fill="none" xmlns="http://www.w3.org/2000/svg">
<rect width="248" height="354.833" fill="white"/>
<path d="M43 62C41.34 62 40 60.66 40 59V49C40 47.34 41.34 46 43 46C44.66 46 46 47.34 46 49V59C46 60.66 44.66 62 43 62Z" stroke="#1E1E1E" stroke-width="4" stroke-linecap="round" stroke-linejoin="round"/>
<path d="M55 62H52V59C52 57.34 53.34 56 55 56C56.66 56 58 57.34 58 59C58 60.66 56.66 62 55 62Z" stroke="#1E1E1E" stroke-width="4" stroke-linecap="round" stroke-linejoin="round"/>
<path d="M33 70C34.66 70 36 71.34 36 73V83C36 84.66 34.66 86 33 86C31.34 86 30 84.66 30 83V73C30 71.34 31.34 70 33 70Z" stroke="#1E1E1E" stroke-width="4" stroke-linecap="round" stroke-linejoin="round"/>
<path d="M21 70H24V73C24 74.66 22.66 76 21 76C19.34 76 18 74.66 18 73C18 71.34 19.34 70 21 70Z" stroke="#1E1E1E" stroke-width="4" stroke-linecap="round" stroke-linejoin="round"/>
<path d="M42 71C42 69.34 43.34 68 45 68H55C56.66 68 58 69.34 58 71C58 72.66 56.66 74 55 74H45C43.34 74 42 72.66 42 71Z" stroke="#1E1E1E" stroke-width="4" stroke-linecap="round" stroke-linejoin="round"/>
<path d="M45 80H42V83C42 84.66 43.34 86 45 86C46.66 86 48 84.66 48 83C48 81.34 46.66 80 45 80Z" stroke="#1E1E1E" stroke-width="4" stroke-linecap="round" stroke-linejoin="round"/>
<path d="M34 61C34 59.34 32.66 58 31 58H21C19.34 58 18 59.34 18 61C18 62.66 19.34 64 21 64H31C32.66 64 34 62.66 34 61Z" stroke="#1E1E1E" stroke-width="4" stroke-linecap="round" stroke-linejoin="round"/>
<path d="M31 52H34V49C34 47.34 32.66 46 31 46C29.34 46 28 47.34 28 49C28 50.66 29.34 52 31 52Z" stroke="#1E1E1E" stroke-width="4" stroke-linecap="round" stroke-linejoin="round"/>
<path d="M58 122.167H50L44 140.167L32 104.167L26 122.167H18" stroke="#1E1E1E" stroke-width="4" stroke-linecap="round" stroke-linejoin="round"/>
<g clip-path="url(#clip0_4_385)">
<path d="M102 44L146 88M118 60V66C118.001 67.1859 118.354 68.3449 119.013 69.3307C119.672 70.3164 120.609 71.0846 121.705 71.5383C122.8 71.992 124.006 72.1108 125.169 71.8797C126.332 71.6486 127.401 71.0781 128.24 70.24M130 60.68V50C130.001 48.5121 129.45 47.0766 128.453 45.9724C127.455 44.8682 126.083 44.1739 124.603 44.0243C123.123 43.8748 121.639 44.2807 120.441 45.1632C119.243 46.0457 118.416 47.3418 118.12 48.8M134 75.9C132.048 77.8928 129.544 79.2569 126.811 79.8172C124.078 80.3775 121.24 80.1084 118.661 79.0446C116.082 77.9807 113.88 76.1705 112.336 73.8463C110.793 71.5221 109.98 68.7898 110 66V62M138 62V66C137.999 66.8249 137.926 67.6481 137.78 68.46M124 80V88M116 88H132" stroke="#1E1E1E" stroke-width="4" stroke-linecap="round" stroke-linejoin="round"/>
</g>
<path d="M196 76H194C192.939 76 191.922 75.5786 191.172 74.8284C190.421 74.0783 190 73.0609 190 72V52C190 50.9391 190.421 49.9217 191.172 49.1716C191.922 48.4214 192.939 48 194 48H226C227.061 48 228.078 48.4214 228.828 49.1716C229.579 49.9217 230 50.9391 230 52V72C230 73.0609 229.579 74.0783 228.828 74.8284C228.078 75.5786 227.061 76 226 76H224M210 72L220 84H200L210 72Z" stroke="#1E1E1E" stroke-width="4" stroke-linecap="round" stroke-linejoin="round"/>
<path d="M142 118.167H114M142 110.167H106M142 126.167H106M142 134.167H114" stroke="#1E1E1E" stroke-width="4" stroke-linecap="round" stroke-linejoin="round"/>
<path d="M201 106.587L210 111.787L219 106.587M201 137.747V127.367L192 122.167M228 122.167L219 127.367V137.747M192.54 112.087L210 122.187L227.46 112.087M210 142.327V122.167M228 130.167V114.167C227.999 113.465 227.814 112.776 227.463 112.169C227.112 111.562 226.607 111.057 226 110.707L212 102.707C211.392 102.356 210.702 102.171 210 102.171C209.298 102.171 208.608 102.356 208 102.707L194 110.707C193.393 111.057 192.888 111.562 192.537 112.169C192.186 112.776 192.001 113.465 192 114.167V130.167C192.001 130.868 192.186 131.557 192.537 132.164C192.888 132.772 193.393 133.276 194 133.627L208 141.627C208.608 141.978 209.298 142.163 210 142.163C210.702 142.163 211.392 141.978 212 141.627L226 133.627C226.607 133.276 227.112 132.772 227.463 132.164C227.814 131.557 227.999 130.868 228 130.167Z" stroke="#1E1E1E" stroke-width="4" stroke-linecap="round" stroke-linejoin="round"/>
<defs>
<clipPath id="clip0_4_385">
<rect width="48" height="48" fill="white" transform="translate(100 42)"/>
</clipPath>
</defs>
</svg>
