<svg width="186" height="40" viewBox="0 0 186 40" fill="none" xmlns="http://www.w3.org/2000/svg">
<g clip-path="url(#clip0_1_10)">
<rect width="186" height="40" rx="8" fill="#3380E6"/>
<rect width="120" height="40" rx="8" fill="#3380E6"/>
<path d="M137.575 18.6293H136.024C135.964 18.2978 135.853 18.0062 135.691 17.7543C135.529 17.5024 135.33 17.2886 135.094 17.1129C134.859 16.9373 134.596 16.8047 134.304 16.7152C134.016 16.6257 133.709 16.581 133.384 16.581C132.798 16.581 132.272 16.7285 131.808 17.0234C131.348 17.3184 130.983 17.7509 130.714 18.321C130.449 18.8911 130.317 19.5871 130.317 20.4091C130.317 21.2377 130.449 21.937 130.714 22.5071C130.983 23.0772 131.349 23.508 131.813 23.7997C132.277 24.0914 132.799 24.2372 133.379 24.2372C133.701 24.2372 134.006 24.1941 134.294 24.108C134.586 24.0185 134.849 23.8875 135.085 23.7152C135.32 23.5429 135.519 23.3324 135.681 23.0838C135.847 22.8319 135.961 22.5436 136.024 22.2188L137.575 22.2237C137.492 22.7242 137.332 23.1849 137.093 23.6058C136.858 24.0234 136.554 24.3847 136.183 24.6896C135.815 24.9912 135.394 25.2249 134.92 25.3906C134.446 25.5563 133.929 25.6392 133.369 25.6392C132.488 25.6392 131.702 25.4304 131.013 25.0128C130.323 24.5919 129.78 23.9903 129.382 23.2081C128.988 22.4259 128.79 21.4929 128.79 20.4091C128.79 19.322 128.989 18.389 129.387 17.6101C129.785 16.8279 130.328 16.228 131.018 15.8104C131.707 15.3894 132.491 15.179 133.369 15.179C133.91 15.179 134.413 15.2569 134.881 15.4126C135.351 15.5651 135.774 15.7905 136.148 16.0888C136.523 16.3838 136.833 16.745 137.078 17.1726C137.323 17.5968 137.489 18.0824 137.575 18.6293ZM140.781 15.3182V25.5H139.294V15.3182H140.781ZM142.781 25.5V17.8636H144.267V25.5H142.781ZM143.531 16.6854C143.273 16.6854 143.051 16.5992 142.865 16.4268C142.683 16.2512 142.592 16.0424 142.592 15.8004C142.592 15.5552 142.683 15.3464 142.865 15.174C143.051 14.9983 143.273 14.9105 143.531 14.9105C143.79 14.9105 144.01 14.9983 144.192 15.174C144.378 15.3464 144.471 15.5552 144.471 15.8004C144.471 16.0424 144.378 16.2512 144.192 16.4268C144.01 16.5992 143.79 16.6854 143.531 16.6854ZM149.483 25.6541C148.744 25.6541 148.108 25.4867 147.574 25.152C147.044 24.8139 146.636 24.3482 146.351 23.755C146.066 23.1617 145.924 22.4822 145.924 21.7166C145.924 20.9411 146.07 20.2566 146.361 19.6634C146.653 19.0668 147.064 18.6011 147.594 18.2663C148.125 17.9316 148.749 17.7642 149.469 17.7642C150.049 17.7642 150.566 17.8719 151.02 18.0874C151.474 18.2995 151.84 18.5978 152.118 18.9822C152.4 19.3667 152.568 19.8158 152.621 20.3295H151.174C151.094 19.9716 150.912 19.6634 150.627 19.4048C150.345 19.1463 149.967 19.017 149.493 19.017C149.079 19.017 148.716 19.1264 148.405 19.3452C148.096 19.5606 147.856 19.8688 147.684 20.2699C147.511 20.6676 147.425 21.1383 147.425 21.6818C147.425 22.2386 147.51 22.7192 147.679 23.1236C147.848 23.5279 148.086 23.8411 148.395 24.0632C148.706 24.2853 149.073 24.3963 149.493 24.3963C149.775 24.3963 150.03 24.3449 150.259 24.2422C150.491 24.1361 150.685 23.9853 150.841 23.7898C151 23.5942 151.111 23.3589 151.174 23.0838H152.621C152.568 23.5777 152.407 24.0185 152.138 24.4062C151.87 24.794 151.51 25.099 151.059 25.321C150.612 25.5431 150.087 25.6541 149.483 25.6541ZM155.577 22.9098L155.567 21.0952H155.826L158.869 17.8636H160.648L157.178 21.5426H156.945L155.577 22.9098ZM154.21 25.5V15.3182H155.697V25.5H154.21ZM159.033 25.5L156.298 21.8707L157.322 20.8317L160.857 25.5H159.033ZM165.828 15.3182H167.692L170.933 23.233H171.053L174.294 15.3182H176.159V25.5H174.697V18.1321H174.602L171.6 25.4851H170.387L167.384 18.1271H167.289V25.5H165.828V15.3182ZM181.564 25.6541C180.812 25.6541 180.164 25.4934 179.62 25.1719C179.08 24.8471 178.662 24.3913 178.367 23.8047C178.076 23.2147 177.93 22.5237 177.93 21.7315C177.93 20.9493 178.076 20.2599 178.367 19.6634C178.662 19.0668 179.073 18.6011 179.6 18.2663C180.13 17.9316 180.75 17.7642 181.46 17.7642C181.89 17.7642 182.308 17.8355 182.712 17.978C183.117 18.1205 183.48 18.3442 183.801 18.6491C184.123 18.9541 184.376 19.3501 184.562 19.8374C184.747 20.3213 184.84 20.9096 184.84 21.6023V22.1293H178.77V21.0156H183.384C183.384 20.6245 183.304 20.2782 183.145 19.9766C182.986 19.6716 182.762 19.4313 182.474 19.2557C182.189 19.08 181.854 18.9922 181.469 18.9922C181.052 18.9922 180.687 19.0949 180.376 19.3004C180.067 19.5026 179.829 19.7678 179.66 20.0959C179.494 20.4207 179.411 20.7737 179.411 21.1548V22.0249C179.411 22.5353 179.501 22.9695 179.68 23.3274C179.862 23.6854 180.116 23.9588 180.44 24.1477C180.765 24.3333 181.145 24.4261 181.579 24.4261C181.861 24.4261 182.117 24.3864 182.349 24.3068C182.581 24.224 182.782 24.1013 182.951 23.9389C183.12 23.7765 183.249 23.576 183.339 23.3374L184.746 23.5909C184.633 24.0052 184.431 24.3681 184.139 24.6797C183.851 24.9879 183.488 25.2282 183.05 25.4006C182.616 25.5696 182.121 25.6541 181.564 25.6541Z" fill="white"/>
</g>
<defs>
<clipPath id="clip0_1_10">
<rect width="186" height="40" rx="8" fill="white"/>
</clipPath>
</defs>
</svg>
