<svg width="180" height="68" viewBox="0 0 180 68" fill="none" xmlns="http://www.w3.org/2000/svg">
<g clip-path="url(#clip0_1_22)">
<rect width="180" height="68" rx="12" fill="white"/>
<path d="M11.2784 8.4375H8.78977C8.74432 8.11553 8.65152 7.82955 8.51136 7.57955C8.37121 7.32576 8.19129 7.10985 7.97159 6.93182C7.75189 6.75379 7.49811 6.61742 7.21023 6.52273C6.92614 6.42803 6.61742 6.38068 6.28409 6.38068C5.68182 6.38068 5.1572 6.5303 4.71023 6.82955C4.26326 7.125 3.91667 7.55682 3.67045 8.125C3.42424 8.68939 3.30114 9.375 3.30114 10.1818C3.30114 11.0114 3.42424 11.7083 3.67045 12.2727C3.92045 12.8371 4.26894 13.2633 4.71591 13.5511C5.16288 13.839 5.67992 13.983 6.26705 13.983C6.59659 13.983 6.90152 13.9394 7.18182 13.8523C7.46591 13.7652 7.7178 13.6383 7.9375 13.4716C8.1572 13.3011 8.33902 13.0947 8.48295 12.8523C8.63068 12.6098 8.73295 12.3333 8.78977 12.0227L11.2784 12.0341C11.214 12.5682 11.053 13.0833 10.7955 13.5795C10.5417 14.072 10.1989 14.5133 9.76705 14.9034C9.33902 15.2898 8.82765 15.5966 8.23295 15.8239C7.64205 16.0473 6.97348 16.1591 6.22727 16.1591C5.18939 16.1591 4.26136 15.9242 3.44318 15.4545C2.62879 14.9848 1.98485 14.3049 1.51136 13.4148C1.04167 12.5246 0.806818 11.447 0.806818 10.1818C0.806818 8.91288 1.04545 7.83333 1.52273 6.94318C2 6.05303 2.64773 5.375 3.46591 4.90909C4.28409 4.43939 5.20455 4.20455 6.22727 4.20455C6.90152 4.20455 7.52652 4.29924 8.10227 4.48864C8.68182 4.67803 9.19508 4.95455 9.64205 5.31818C10.089 5.67803 10.4527 6.11932 10.733 6.64205C11.017 7.16477 11.1989 7.76326 11.2784 8.4375ZM15.4858 16.1648C14.929 16.1648 14.4328 16.0682 13.9972 15.875C13.5616 15.678 13.2169 15.3883 12.9631 15.0057C12.7131 14.6193 12.5881 14.1383 12.5881 13.5625C12.5881 13.0777 12.6771 12.6705 12.8551 12.3409C13.0331 12.0114 13.2756 11.7462 13.5824 11.5455C13.8892 11.3447 14.2377 11.1932 14.6278 11.0909C15.0218 10.9886 15.4347 10.9167 15.8665 10.875C16.3741 10.822 16.7831 10.7727 17.0938 10.7273C17.4044 10.678 17.6297 10.6061 17.7699 10.5114C17.91 10.4167 17.9801 10.2765 17.9801 10.0909V10.0568C17.9801 9.69697 17.8665 9.41856 17.6392 9.22159C17.4157 9.02462 17.0975 8.92614 16.6847 8.92614C16.2491 8.92614 15.9025 9.02273 15.6449 9.21591C15.3873 9.4053 15.2169 9.64394 15.1335 9.93182L12.8949 9.75C13.0085 9.2197 13.232 8.76136 13.5653 8.375C13.8987 7.98485 14.3286 7.68561 14.8551 7.47727C15.3854 7.26515 15.9991 7.15909 16.696 7.15909C17.1809 7.15909 17.6449 7.21591 18.0881 7.32955C18.535 7.44318 18.9309 7.61932 19.2756 7.85795C19.6241 8.09659 19.8987 8.40341 20.0994 8.77841C20.3002 9.14962 20.4006 9.5947 20.4006 10.1136V16H18.1051V14.7898H18.0369C17.8968 15.0625 17.7093 15.303 17.4744 15.5114C17.2396 15.7159 16.9574 15.8769 16.6278 15.9943C16.2983 16.108 15.9176 16.1648 15.4858 16.1648ZM16.179 14.4943C16.535 14.4943 16.8494 14.4242 17.1222 14.2841C17.3949 14.1402 17.6089 13.947 17.7642 13.7045C17.9195 13.4621 17.9972 13.1875 17.9972 12.8807V11.9545C17.9214 12.0038 17.8172 12.0492 17.6847 12.0909C17.5559 12.1288 17.41 12.1648 17.2472 12.1989C17.0843 12.2292 16.9214 12.2576 16.7585 12.2841C16.5956 12.3068 16.4479 12.3277 16.3153 12.3466C16.0313 12.3883 15.7831 12.4545 15.571 12.5455C15.3589 12.6364 15.1941 12.7595 15.0767 12.9148C14.9593 13.0663 14.9006 13.2557 14.9006 13.483C14.9006 13.8125 15.0199 14.0644 15.2585 14.2386C15.5009 14.4091 15.8078 14.4943 16.179 14.4943ZM22.2784 16V7.27273H24.625V8.79545H24.7159C24.875 8.25379 25.142 7.8447 25.517 7.56818C25.892 7.28788 26.3239 7.14773 26.8125 7.14773C26.9337 7.14773 27.0644 7.1553 27.2045 7.17045C27.3447 7.18561 27.4678 7.20644 27.5739 7.23295V9.38068C27.4602 9.34659 27.303 9.31629 27.1023 9.28977C26.9015 9.26326 26.7178 9.25 26.5511 9.25C26.1951 9.25 25.8769 9.32765 25.5966 9.48295C25.3201 9.63447 25.1004 9.84659 24.9375 10.1193C24.7784 10.392 24.6989 10.7064 24.6989 11.0625V16H22.2784ZM31.6349 16.142C30.9721 16.142 30.3717 15.9716 29.8338 15.6307C29.2997 15.286 28.8755 14.7803 28.5611 14.1136C28.2505 13.4432 28.0952 12.6212 28.0952 11.6477C28.0952 10.6477 28.2562 9.81629 28.5781 9.15341C28.9001 8.48674 29.3281 7.98864 29.8622 7.65909C30.4001 7.32576 30.9891 7.15909 31.6293 7.15909C32.1179 7.15909 32.5251 7.24242 32.8509 7.40909C33.1804 7.57197 33.4455 7.77652 33.6463 8.02273C33.8509 8.26515 34.0062 8.50379 34.1122 8.73864H34.1861V4.36364H36.6009V16H34.2145V14.6023H34.1122C33.9986 14.8447 33.8376 15.0852 33.6293 15.3239C33.4247 15.5587 33.1577 15.7538 32.8281 15.9091C32.5024 16.0644 32.1046 16.142 31.6349 16.142ZM32.402 14.2159C32.7921 14.2159 33.1217 14.1098 33.3906 13.8977C33.6634 13.6818 33.8717 13.3807 34.0156 12.9943C34.1634 12.608 34.2372 12.1553 34.2372 11.6364C34.2372 11.1174 34.1652 10.6667 34.0213 10.2841C33.8774 9.90151 33.669 9.60606 33.3963 9.39773C33.1236 9.18939 32.7921 9.08523 32.402 9.08523C32.0043 9.08523 31.669 9.19318 31.3963 9.40909C31.1236 9.625 30.9171 9.92424 30.777 10.3068C30.6368 10.6894 30.5668 11.1326 30.5668 11.6364C30.5668 12.1439 30.6368 12.5928 30.777 12.983C30.9209 13.3693 31.1274 13.6723 31.3963 13.892C31.669 14.108 32.0043 14.2159 32.402 14.2159ZM41.8963 6.39205V4.36364H51.4531V6.39205H47.8906V16H45.4588V6.39205H41.8963ZM52.9815 16V7.27273H55.402V16H52.9815ZM54.1974 6.14773C53.8376 6.14773 53.5289 6.02841 53.2713 5.78977C53.0175 5.54735 52.8906 5.25758 52.8906 4.92045C52.8906 4.58712 53.0175 4.30114 53.2713 4.0625C53.5289 3.82008 53.8376 3.69886 54.1974 3.69886C54.5573 3.69886 54.8641 3.82008 55.1179 4.0625C55.3755 4.30114 55.5043 4.58712 55.5043 4.92045C55.5043 5.25758 55.3755 5.54735 55.1179 5.78977C54.8641 6.02841 54.5573 6.14773 54.1974 6.14773ZM61.983 7.27273V9.09091H56.7273V7.27273H61.983ZM57.9205 5.18182H60.3409V13.3182C60.3409 13.5417 60.375 13.7159 60.4432 13.8409C60.5114 13.9621 60.6061 14.0473 60.7273 14.0966C60.8523 14.1458 60.9962 14.1705 61.1591 14.1705C61.2727 14.1705 61.3864 14.161 61.5 14.142C61.6136 14.1193 61.7008 14.1023 61.7614 14.0909L62.142 15.892C62.0208 15.9299 61.8504 15.9735 61.6307 16.0227C61.411 16.0758 61.1439 16.108 60.8295 16.1193C60.2462 16.142 59.7348 16.0644 59.2955 15.8864C58.8598 15.7083 58.5208 15.4318 58.2784 15.0568C58.036 14.6818 57.9167 14.2083 57.9205 13.6364V5.18182ZM66.1676 4.36364V16H63.7472V4.36364H66.1676ZM72.0838 16.1705C71.1861 16.1705 70.4134 15.9886 69.7656 15.625C69.1217 15.2576 68.6255 14.7386 68.277 14.0682C67.9285 13.3939 67.7543 12.5966 67.7543 11.6761C67.7543 10.7784 67.9285 9.99053 68.277 9.3125C68.6255 8.63447 69.116 8.10606 69.7486 7.72727C70.3849 7.34848 71.1312 7.15909 71.9872 7.15909C72.563 7.15909 73.099 7.25189 73.5952 7.4375C74.0952 7.61932 74.5308 7.89394 74.902 8.26136C75.277 8.62879 75.5687 9.09091 75.777 9.64773C75.9853 10.2008 76.0895 10.8485 76.0895 11.5909V12.2557H68.7202V10.7557H73.8111C73.8111 10.4072 73.7353 10.0985 73.5838 9.82955C73.4323 9.56061 73.2221 9.35038 72.9531 9.19886C72.688 9.04356 72.3793 8.96591 72.027 8.96591C71.6596 8.96591 71.3338 9.05114 71.0497 9.22159C70.7694 9.38826 70.5497 9.61364 70.3906 9.89773C70.2315 10.178 70.1501 10.4905 70.1463 10.8352V12.2614C70.1463 12.6932 70.2259 13.0663 70.3849 13.3807C70.5478 13.6951 70.777 13.9375 71.0724 14.108C71.3679 14.2784 71.7183 14.3636 72.1236 14.3636C72.3925 14.3636 72.6387 14.3258 72.8622 14.25C73.0857 14.1742 73.277 14.0606 73.4361 13.9091C73.5952 13.7576 73.7164 13.572 73.7997 13.3523L76.0384 13.5C75.9247 14.0379 75.6918 14.5076 75.3395 14.9091C74.991 15.3068 74.5402 15.6174 73.9872 15.8409C73.438 16.0606 72.8035 16.1705 72.0838 16.1705Z" fill="#1A1A1A"/>
<g clip-path="url(#clip1_1_22)">
<rect y="28" width="186" height="40" rx="8" fill="#3380E6"/>
<rect y="28" width="120" height="40" rx="8" fill="#3380E6"/>
<path d="M137.575 46.6293H136.024C135.964 46.2978 135.853 46.0062 135.691 45.7543C135.529 45.5024 135.33 45.2886 135.094 45.1129C134.859 44.9373 134.596 44.8047 134.304 44.7152C134.016 44.6257 133.709 44.581 133.384 44.581C132.798 44.581 132.272 44.7285 131.808 45.0234C131.348 45.3184 130.983 45.7509 130.714 46.321C130.449 46.8911 130.317 47.5871 130.317 48.4091C130.317 49.2377 130.449 49.937 130.714 50.5071C130.983 51.0772 131.349 51.508 131.813 51.7997C132.277 52.0914 132.799 52.2372 133.379 52.2372C133.701 52.2372 134.006 52.1941 134.294 52.108C134.586 52.0185 134.849 51.8875 135.085 51.7152C135.32 51.5429 135.519 51.3324 135.681 51.0838C135.847 50.8319 135.961 50.5436 136.024 50.2188L137.575 50.2237C137.492 50.7242 137.332 51.1849 137.093 51.6058C136.858 52.0234 136.554 52.3847 136.183 52.6896C135.815 52.9912 135.394 53.2249 134.92 53.3906C134.446 53.5563 133.929 53.6392 133.369 53.6392C132.488 53.6392 131.702 53.4304 131.013 53.0128C130.323 52.5919 129.78 51.9903 129.382 51.2081C128.988 50.4259 128.79 49.4929 128.79 48.4091C128.79 47.322 128.989 46.389 129.387 45.6101C129.785 44.8279 130.328 44.228 131.018 43.8104C131.707 43.3894 132.491 43.179 133.369 43.179C133.91 43.179 134.413 43.2569 134.881 43.4126C135.351 43.5651 135.774 43.7905 136.148 44.0888C136.523 44.3838 136.833 44.745 137.078 45.1726C137.323 45.5968 137.489 46.0824 137.575 46.6293ZM140.781 43.3182V53.5H139.294V43.3182H140.781ZM142.781 53.5V45.8636H144.267V53.5H142.781ZM143.531 44.6854C143.273 44.6854 143.051 44.5992 142.865 44.4268C142.683 44.2512 142.592 44.0424 142.592 43.8004C142.592 43.5552 142.683 43.3464 142.865 43.174C143.051 42.9983 143.273 42.9105 143.531 42.9105C143.79 42.9105 144.01 42.9983 144.192 43.174C144.378 43.3464 144.471 43.5552 144.471 43.8004C144.471 44.0424 144.378 44.2512 144.192 44.4268C144.01 44.5992 143.79 44.6854 143.531 44.6854ZM149.483 53.6541C148.744 53.6541 148.108 53.4867 147.574 53.152C147.044 52.8139 146.636 52.3482 146.351 51.755C146.066 51.1617 145.924 50.4822 145.924 49.7166C145.924 48.9411 146.07 48.2566 146.361 47.6634C146.653 47.0668 147.064 46.6011 147.594 46.2663C148.125 45.9316 148.749 45.7642 149.469 45.7642C150.049 45.7642 150.566 45.8719 151.02 46.0874C151.474 46.2995 151.84 46.5978 152.118 46.9822C152.4 47.3667 152.568 47.8158 152.621 48.3295H151.174C151.094 47.9716 150.912 47.6634 150.627 47.4048C150.345 47.1463 149.967 47.017 149.493 47.017C149.079 47.017 148.716 47.1264 148.405 47.3452C148.096 47.5606 147.856 47.8688 147.684 48.2699C147.511 48.6676 147.425 49.1383 147.425 49.6818C147.425 50.2386 147.51 50.7192 147.679 51.1236C147.848 51.5279 148.086 51.8411 148.395 52.0632C148.706 52.2853 149.073 52.3963 149.493 52.3963C149.775 52.3963 150.03 52.3449 150.259 52.2422C150.491 52.1361 150.685 51.9853 150.841 51.7898C151 51.5942 151.111 51.3589 151.174 51.0838H152.621C152.568 51.5777 152.407 52.0185 152.138 52.4062C151.87 52.794 151.51 53.099 151.059 53.321C150.612 53.5431 150.087 53.6541 149.483 53.6541ZM155.577 50.9098L155.567 49.0952H155.826L158.869 45.8636H160.648L157.178 49.5426H156.945L155.577 50.9098ZM154.21 53.5V43.3182H155.697V53.5H154.21ZM159.033 53.5L156.298 49.8707L157.322 48.8317L160.857 53.5H159.033ZM165.828 43.3182H167.692L170.933 51.233H171.053L174.294 43.3182H176.159V53.5H174.697V46.1321H174.602L171.6 53.4851H170.387L167.384 46.1271H167.289V53.5H165.828V43.3182ZM181.564 53.6541C180.812 53.6541 180.164 53.4934 179.62 53.1719C179.08 52.8471 178.662 52.3913 178.367 51.8047C178.076 51.2147 177.93 50.5237 177.93 49.7315C177.93 48.9493 178.076 48.2599 178.367 47.6634C178.662 47.0668 179.073 46.6011 179.6 46.2663C180.13 45.9316 180.75 45.7642 181.46 45.7642C181.89 45.7642 182.308 45.8355 182.712 45.978C183.117 46.1205 183.48 46.3442 183.801 46.6491C184.123 46.9541 184.376 47.3501 184.562 47.8374C184.747 48.3213 184.84 48.9096 184.84 49.6023V50.1293H178.77V49.0156H183.384C183.384 48.6245 183.304 48.2782 183.145 47.9766C182.986 47.6716 182.762 47.4313 182.474 47.2557C182.189 47.08 181.854 46.9922 181.469 46.9922C181.052 46.9922 180.687 47.0949 180.376 47.3004C180.067 47.5026 179.829 47.7678 179.66 48.0959C179.494 48.4207 179.411 48.7737 179.411 49.1548V50.0249C179.411 50.5353 179.501 50.9695 179.68 51.3274C179.862 51.6854 180.116 51.9588 180.44 52.1477C180.765 52.3333 181.145 52.4261 181.579 52.4261C181.861 52.4261 182.117 52.3864 182.349 52.3068C182.581 52.224 182.782 52.1013 182.951 51.9389C183.12 51.7765 183.249 51.576 183.339 51.3374L184.746 51.5909C184.633 52.0052 184.431 52.3681 184.139 52.6797C183.851 52.9879 183.488 53.2282 183.05 53.4006C182.616 53.5696 182.121 53.6541 181.564 53.6541Z" fill="white"/>
</g>
</g>
<defs>
<clipPath id="clip0_1_22">
<rect width="180" height="68" rx="12" fill="white"/>
</clipPath>
<clipPath id="clip1_1_22">
<rect y="28" width="186" height="40" rx="8" fill="white"/>
</clipPath>
</defs>
</svg>
