<svg width="558" height="80" viewBox="0 0 558 80" fill="none" xmlns="http://www.w3.org/2000/svg">
<rect width="558" height="80" fill="#F2F2F2"/>
<g clip-path="url(#clip0_1_27)">
<rect y="20" width="186" height="40" rx="8" fill="#3380E6"/>
<rect y="20" width="120" height="40" rx="8" fill="#3380E6"/>
<path d="M137.575 38.6293H136.024C135.964 38.2978 135.853 38.0062 135.691 37.7543C135.529 37.5024 135.33 37.2886 135.094 37.1129C134.859 36.9373 134.596 36.8047 134.304 36.7152C134.016 36.6257 133.709 36.581 133.384 36.581C132.798 36.581 132.272 36.7285 131.808 37.0234C131.348 37.3184 130.983 37.7509 130.714 38.321C130.449 38.8911 130.317 39.5871 130.317 40.4091C130.317 41.2377 130.449 41.937 130.714 42.5071C130.983 43.0772 131.349 43.508 131.813 43.7997C132.277 44.0914 132.799 44.2372 133.379 44.2372C133.701 44.2372 134.006 44.1941 134.294 44.108C134.586 44.0185 134.849 43.8875 135.085 43.7152C135.32 43.5429 135.519 43.3324 135.681 43.0838C135.847 42.8319 135.961 42.5436 136.024 42.2188L137.575 42.2237C137.492 42.7242 137.332 43.1849 137.093 43.6058C136.858 44.0234 136.554 44.3847 136.183 44.6896C135.815 44.9912 135.394 45.2249 134.92 45.3906C134.446 45.5563 133.929 45.6392 133.369 45.6392C132.488 45.6392 131.702 45.4304 131.013 45.0128C130.323 44.5919 129.78 43.9903 129.382 43.2081C128.988 42.4259 128.79 41.4929 128.79 40.4091C128.79 39.322 128.989 38.389 129.387 37.6101C129.785 36.8279 130.328 36.228 131.018 35.8104C131.707 35.3894 132.491 35.179 133.369 35.179C133.91 35.179 134.413 35.2569 134.881 35.4126C135.351 35.5651 135.774 35.7905 136.148 36.0888C136.523 36.3838 136.833 36.745 137.078 37.1726C137.323 37.5968 137.489 38.0824 137.575 38.6293ZM140.781 35.3182V45.5H139.294V35.3182H140.781ZM142.781 45.5V37.8636H144.267V45.5H142.781ZM143.531 36.6854C143.273 36.6854 143.051 36.5992 142.865 36.4268C142.683 36.2512 142.592 36.0424 142.592 35.8004C142.592 35.5552 142.683 35.3464 142.865 35.174C143.051 34.9983 143.273 34.9105 143.531 34.9105C143.79 34.9105 144.01 34.9983 144.192 35.174C144.378 35.3464 144.471 35.5552 144.471 35.8004C144.471 36.0424 144.378 36.2512 144.192 36.4268C144.01 36.5992 143.79 36.6854 143.531 36.6854ZM149.483 45.6541C148.744 45.6541 148.108 45.4867 147.574 45.152C147.044 44.8139 146.636 44.3482 146.351 43.755C146.066 43.1617 145.924 42.4822 145.924 41.7166C145.924 40.9411 146.07 40.2566 146.361 39.6634C146.653 39.0668 147.064 38.6011 147.594 38.2663C148.125 37.9316 148.749 37.7642 149.469 37.7642C150.049 37.7642 150.566 37.8719 151.02 38.0874C151.474 38.2995 151.84 38.5978 152.118 38.9822C152.4 39.3667 152.568 39.8158 152.621 40.3295H151.174C151.094 39.9716 150.912 39.6634 150.627 39.4048C150.345 39.1463 149.967 39.017 149.493 39.017C149.079 39.017 148.716 39.1264 148.405 39.3452C148.096 39.5606 147.856 39.8688 147.684 40.2699C147.511 40.6676 147.425 41.1383 147.425 41.6818C147.425 42.2386 147.51 42.7192 147.679 43.1236C147.848 43.5279 148.086 43.8411 148.395 44.0632C148.706 44.2853 149.073 44.3963 149.493 44.3963C149.775 44.3963 150.03 44.3449 150.259 44.2422C150.491 44.1361 150.685 43.9853 150.841 43.7898C151 43.5942 151.111 43.3589 151.174 43.0838H152.621C152.568 43.5777 152.407 44.0185 152.138 44.4062C151.87 44.794 151.51 45.099 151.059 45.321C150.612 45.5431 150.087 45.6541 149.483 45.6541ZM155.577 42.9098L155.567 41.0952H155.826L158.869 37.8636H160.648L157.178 41.5426H156.945L155.577 42.9098ZM154.21 45.5V35.3182H155.697V45.5H154.21ZM159.033 45.5L156.298 41.8707L157.322 40.8317L160.857 45.5H159.033ZM165.828 35.3182H167.692L170.933 43.233H171.053L174.294 35.3182H176.159V45.5H174.697V38.1321H174.602L171.6 45.4851H170.387L167.384 38.1271H167.289V45.5H165.828V35.3182ZM181.564 45.6541C180.812 45.6541 180.164 45.4934 179.62 45.1719C179.08 44.8471 178.662 44.3913 178.367 43.8047C178.076 43.2147 177.93 42.5237 177.93 41.7315C177.93 40.9493 178.076 40.2599 178.367 39.6634C178.662 39.0668 179.073 38.6011 179.6 38.2663C180.13 37.9316 180.75 37.7642 181.46 37.7642C181.89 37.7642 182.308 37.8355 182.712 37.978C183.117 38.1205 183.48 38.3442 183.801 38.6491C184.123 38.9541 184.376 39.3501 184.562 39.8374C184.747 40.3213 184.84 40.9096 184.84 41.6023V42.1293H178.77V41.0156H183.384C183.384 40.6245 183.304 40.2782 183.145 39.9766C182.986 39.6716 182.762 39.4313 182.474 39.2557C182.189 39.08 181.854 38.9922 181.469 38.9922C181.052 38.9922 180.687 39.0949 180.376 39.3004C180.067 39.5026 179.829 39.7678 179.66 40.0959C179.494 40.4207 179.411 40.7737 179.411 41.1548V42.0249C179.411 42.5353 179.501 42.9695 179.68 43.3274C179.862 43.6854 180.116 43.9588 180.44 44.1477C180.765 44.3333 181.145 44.4261 181.579 44.4261C181.861 44.4261 182.117 44.3864 182.349 44.3068C182.581 44.224 182.782 44.1013 182.951 43.9389C183.12 43.7765 183.249 43.576 183.339 43.3374L184.746 43.5909C184.633 44.0052 184.431 44.3681 184.139 44.6797C183.851 44.9879 183.488 45.2282 183.05 45.4006C182.616 45.5696 182.121 45.6541 181.564 45.6541Z" fill="white"/>
</g>
<g clip-path="url(#clip1_1_27)">
<rect x="186" y="20" width="186" height="40" rx="8" fill="#3380E6"/>
<rect x="186" y="20" width="120" height="40" rx="8" fill="#3380E6"/>
<path d="M323.575 38.6293H322.024C321.964 38.2978 321.853 38.0062 321.691 37.7543C321.529 37.5024 321.33 37.2886 321.094 37.1129C320.859 36.9373 320.596 36.8047 320.304 36.7152C320.016 36.6257 319.709 36.581 319.384 36.581C318.798 36.581 318.272 36.7285 317.808 37.0234C317.348 37.3184 316.983 37.7509 316.714 38.321C316.449 38.8911 316.317 39.5871 316.317 40.4091C316.317 41.2377 316.449 41.937 316.714 42.5071C316.983 43.0772 317.349 43.508 317.813 43.7997C318.277 44.0914 318.799 44.2372 319.379 44.2372C319.701 44.2372 320.006 44.1941 320.294 44.108C320.586 44.0185 320.849 43.8875 321.085 43.7152C321.32 43.5429 321.519 43.3324 321.681 43.0838C321.847 42.8319 321.961 42.5436 322.024 42.2188L323.575 42.2237C323.492 42.7242 323.332 43.1849 323.093 43.6058C322.858 44.0234 322.554 44.3847 322.183 44.6896C321.815 44.9912 321.394 45.2249 320.92 45.3906C320.446 45.5563 319.929 45.6392 319.369 45.6392C318.488 45.6392 317.702 45.4304 317.013 45.0128C316.323 44.5919 315.78 43.9903 315.382 43.2081C314.988 42.4259 314.79 41.4929 314.79 40.4091C314.79 39.322 314.989 38.389 315.387 37.6101C315.785 36.8279 316.328 36.228 317.018 35.8104C317.707 35.3894 318.491 35.179 319.369 35.179C319.91 35.179 320.413 35.2569 320.881 35.4126C321.351 35.5651 321.774 35.7905 322.148 36.0888C322.523 36.3838 322.833 36.745 323.078 37.1726C323.323 37.5968 323.489 38.0824 323.575 38.6293ZM326.781 35.3182V45.5H325.294V35.3182H326.781ZM328.781 45.5V37.8636H330.267V45.5H328.781ZM329.531 36.6854C329.273 36.6854 329.051 36.5992 328.865 36.4268C328.683 36.2512 328.592 36.0424 328.592 35.8004C328.592 35.5552 328.683 35.3464 328.865 35.174C329.051 34.9983 329.273 34.9105 329.531 34.9105C329.79 34.9105 330.01 34.9983 330.192 35.174C330.378 35.3464 330.471 35.5552 330.471 35.8004C330.471 36.0424 330.378 36.2512 330.192 36.4268C330.01 36.5992 329.79 36.6854 329.531 36.6854ZM335.483 45.6541C334.744 45.6541 334.108 45.4867 333.574 45.152C333.044 44.8139 332.636 44.3482 332.351 43.755C332.066 43.1617 331.924 42.4822 331.924 41.7166C331.924 40.9411 332.07 40.2566 332.361 39.6634C332.653 39.0668 333.064 38.6011 333.594 38.2663C334.125 37.9316 334.749 37.7642 335.469 37.7642C336.049 37.7642 336.566 37.8719 337.02 38.0874C337.474 38.2995 337.84 38.5978 338.118 38.9822C338.4 39.3667 338.568 39.8158 338.621 40.3295H337.174C337.094 39.9716 336.912 39.6634 336.627 39.4048C336.345 39.1463 335.967 39.017 335.493 39.017C335.079 39.017 334.716 39.1264 334.405 39.3452C334.096 39.5606 333.856 39.8688 333.684 40.2699C333.511 40.6676 333.425 41.1383 333.425 41.6818C333.425 42.2386 333.51 42.7192 333.679 43.1236C333.848 43.5279 334.086 43.8411 334.395 44.0632C334.706 44.2853 335.073 44.3963 335.493 44.3963C335.775 44.3963 336.03 44.3449 336.259 44.2422C336.491 44.1361 336.685 43.9853 336.841 43.7898C337 43.5942 337.111 43.3589 337.174 43.0838H338.621C338.568 43.5777 338.407 44.0185 338.138 44.4062C337.87 44.794 337.51 45.099 337.059 45.321C336.612 45.5431 336.087 45.6541 335.483 45.6541ZM341.577 42.9098L341.567 41.0952H341.826L344.869 37.8636H346.648L343.178 41.5426H342.945L341.577 42.9098ZM340.21 45.5V35.3182H341.697V45.5H340.21ZM345.033 45.5L342.298 41.8707L343.322 40.8317L346.857 45.5H345.033ZM351.828 35.3182H353.692L356.933 43.233H357.053L360.294 35.3182H362.159V45.5H360.697V38.1321H360.602L357.6 45.4851H356.387L353.384 38.1271H353.289V45.5H351.828V35.3182ZM367.564 45.6541C366.812 45.6541 366.164 45.4934 365.62 45.1719C365.08 44.8471 364.662 44.3913 364.367 43.8047C364.076 43.2147 363.93 42.5237 363.93 41.7315C363.93 40.9493 364.076 40.2599 364.367 39.6634C364.662 39.0668 365.073 38.6011 365.6 38.2663C366.13 37.9316 366.75 37.7642 367.46 37.7642C367.89 37.7642 368.308 37.8355 368.712 37.978C369.117 38.1205 369.48 38.3442 369.801 38.6491C370.123 38.9541 370.376 39.3501 370.562 39.8374C370.747 40.3213 370.84 40.9096 370.84 41.6023V42.1293H364.77V41.0156H369.384C369.384 40.6245 369.304 40.2782 369.145 39.9766C368.986 39.6716 368.762 39.4313 368.474 39.2557C368.189 39.08 367.854 38.9922 367.469 38.9922C367.052 38.9922 366.687 39.0949 366.376 39.3004C366.067 39.5026 365.829 39.7678 365.66 40.0959C365.494 40.4207 365.411 40.7737 365.411 41.1548V42.0249C365.411 42.5353 365.501 42.9695 365.68 43.3274C365.862 43.6854 366.116 43.9588 366.44 44.1477C366.765 44.3333 367.145 44.4261 367.579 44.4261C367.861 44.4261 368.117 44.3864 368.349 44.3068C368.581 44.224 368.782 44.1013 368.951 43.9389C369.12 43.7765 369.249 43.576 369.339 43.3374L370.746 43.5909C370.633 44.0052 370.431 44.3681 370.139 44.6797C369.851 44.9879 369.488 45.2282 369.05 45.4006C368.616 45.5696 368.121 45.6541 367.564 45.6541Z" fill="white"/>
</g>
<g clip-path="url(#clip2_1_27)">
<rect x="372" y="20" width="186" height="40" rx="8" fill="#3380E6"/>
<rect x="372" y="20" width="120" height="40" rx="8" fill="#3380E6"/>
<path d="M509.575 38.6293H508.024C507.964 38.2978 507.853 38.0062 507.691 37.7543C507.529 37.5024 507.33 37.2886 507.094 37.1129C506.859 36.9373 506.596 36.8047 506.304 36.7152C506.016 36.6257 505.709 36.581 505.384 36.581C504.798 36.581 504.272 36.7285 503.808 37.0234C503.348 37.3184 502.983 37.7509 502.714 38.321C502.449 38.8911 502.317 39.5871 502.317 40.4091C502.317 41.2377 502.449 41.937 502.714 42.5071C502.983 43.0772 503.349 43.508 503.813 43.7997C504.277 44.0914 504.799 44.2372 505.379 44.2372C505.701 44.2372 506.006 44.1941 506.294 44.108C506.586 44.0185 506.849 43.8875 507.085 43.7152C507.32 43.5429 507.519 43.3324 507.681 43.0838C507.847 42.8319 507.961 42.5436 508.024 42.2188L509.575 42.2237C509.492 42.7242 509.332 43.1849 509.093 43.6058C508.858 44.0234 508.554 44.3847 508.183 44.6896C507.815 44.9912 507.394 45.2249 506.92 45.3906C506.446 45.5563 505.929 45.6392 505.369 45.6392C504.488 45.6392 503.702 45.4304 503.013 45.0128C502.323 44.5919 501.78 43.9903 501.382 43.2081C500.988 42.4259 500.79 41.4929 500.79 40.4091C500.79 39.322 500.989 38.389 501.387 37.6101C501.785 36.8279 502.328 36.228 503.018 35.8104C503.707 35.3894 504.491 35.179 505.369 35.179C505.91 35.179 506.413 35.2569 506.881 35.4126C507.351 35.5651 507.774 35.7905 508.148 36.0888C508.523 36.3838 508.833 36.745 509.078 37.1726C509.323 37.5968 509.489 38.0824 509.575 38.6293ZM512.781 35.3182V45.5H511.294V35.3182H512.781ZM514.781 45.5V37.8636H516.267V45.5H514.781ZM515.531 36.6854C515.273 36.6854 515.051 36.5992 514.865 36.4268C514.683 36.2512 514.592 36.0424 514.592 35.8004C514.592 35.5552 514.683 35.3464 514.865 35.174C515.051 34.9983 515.273 34.9105 515.531 34.9105C515.79 34.9105 516.01 34.9983 516.192 35.174C516.378 35.3464 516.471 35.5552 516.471 35.8004C516.471 36.0424 516.378 36.2512 516.192 36.4268C516.01 36.5992 515.79 36.6854 515.531 36.6854ZM521.483 45.6541C520.744 45.6541 520.108 45.4867 519.574 45.152C519.044 44.8139 518.636 44.3482 518.351 43.755C518.066 43.1617 517.924 42.4822 517.924 41.7166C517.924 40.9411 518.07 40.2566 518.361 39.6634C518.653 39.0668 519.064 38.6011 519.594 38.2663C520.125 37.9316 520.749 37.7642 521.469 37.7642C522.049 37.7642 522.566 37.8719 523.02 38.0874C523.474 38.2995 523.84 38.5978 524.118 38.9822C524.4 39.3667 524.568 39.8158 524.621 40.3295H523.174C523.094 39.9716 522.912 39.6634 522.627 39.4048C522.345 39.1463 521.967 39.017 521.493 39.017C521.079 39.017 520.716 39.1264 520.405 39.3452C520.096 39.5606 519.856 39.8688 519.684 40.2699C519.511 40.6676 519.425 41.1383 519.425 41.6818C519.425 42.2386 519.51 42.7192 519.679 43.1236C519.848 43.5279 520.086 43.8411 520.395 44.0632C520.706 44.2853 521.073 44.3963 521.493 44.3963C521.775 44.3963 522.03 44.3449 522.259 44.2422C522.491 44.1361 522.685 43.9853 522.841 43.7898C523 43.5942 523.111 43.3589 523.174 43.0838H524.621C524.568 43.5777 524.407 44.0185 524.138 44.4062C523.87 44.794 523.51 45.099 523.059 45.321C522.612 45.5431 522.087 45.6541 521.483 45.6541ZM527.577 42.9098L527.567 41.0952H527.826L530.869 37.8636H532.648L529.178 41.5426H528.945L527.577 42.9098ZM526.21 45.5V35.3182H527.697V45.5H526.21ZM531.033 45.5L528.298 41.8707L529.322 40.8317L532.857 45.5H531.033ZM537.828 35.3182H539.692L542.933 43.233H543.053L546.294 35.3182H548.159V45.5H546.697V38.1321H546.602L543.6 45.4851H542.387L539.384 38.1271H539.289V45.5H537.828V35.3182ZM553.564 45.6541C552.812 45.6541 552.164 45.4934 551.62 45.1719C551.08 44.8471 550.662 44.3913 550.367 43.8047C550.076 43.2147 549.93 42.5237 549.93 41.7315C549.93 40.9493 550.076 40.2599 550.367 39.6634C550.662 39.0668 551.073 38.6011 551.6 38.2663C552.13 37.9316 552.75 37.7642 553.46 37.7642C553.89 37.7642 554.308 37.8355 554.712 37.978C555.117 38.1205 555.48 38.3442 555.801 38.6491C556.123 38.9541 556.376 39.3501 556.562 39.8374C556.747 40.3213 556.84 40.9096 556.84 41.6023V42.1293H550.77V41.0156H555.384C555.384 40.6245 555.304 40.2782 555.145 39.9766C554.986 39.6716 554.762 39.4313 554.474 39.2557C554.189 39.08 553.854 38.9922 553.469 38.9922C553.052 38.9922 552.687 39.0949 552.376 39.3004C552.067 39.5026 551.829 39.7678 551.66 40.0959C551.494 40.4207 551.411 40.7737 551.411 41.1548V42.0249C551.411 42.5353 551.501 42.9695 551.68 43.3274C551.862 43.6854 552.116 43.9588 552.44 44.1477C552.765 44.3333 553.145 44.4261 553.579 44.4261C553.861 44.4261 554.117 44.3864 554.349 44.3068C554.581 44.224 554.782 44.1013 554.951 43.9389C555.12 43.7765 555.249 43.576 555.339 43.3374L556.746 43.5909C556.633 44.0052 556.431 44.3681 556.139 44.6797C555.851 44.9879 555.488 45.2282 555.05 45.4006C554.616 45.5696 554.121 45.6541 553.564 45.6541Z" fill="white"/>
</g>
<defs>
<clipPath id="clip0_1_27">
<rect y="20" width="186" height="40" rx="8" fill="white"/>
</clipPath>
<clipPath id="clip1_1_27">
<rect x="186" y="20" width="186" height="40" rx="8" fill="white"/>
</clipPath>
<clipPath id="clip2_1_27">
<rect x="372" y="20" width="186" height="40" rx="8" fill="white"/>
</clipPath>
</defs>
</svg>
