<svg width="220" height="140" viewBox="0 0 220 140" fill="none" xmlns="http://www.w3.org/2000/svg">
<rect width="220" height="140" fill="#E6E6F2"/>
<g clip-path="url(#clip0_1_25)">
<rect x="20" y="20" width="180" height="68" rx="12" fill="white"/>
<path d="M31.2784 28.4375H28.7898C28.7443 28.1155 28.6515 27.8295 28.5114 27.5795C28.3712 27.3258 28.1913 27.1098 27.9716 26.9318C27.7519 26.7538 27.4981 26.6174 27.2102 26.5227C26.9261 26.428 26.6174 26.3807 26.2841 26.3807C25.6818 26.3807 25.1572 26.5303 24.7102 26.8295C24.2633 27.125 23.9167 27.5568 23.6705 28.125C23.4242 28.6894 23.3011 29.375 23.3011 30.1818C23.3011 31.0114 23.4242 31.7083 23.6705 32.2727C23.9205 32.8371 24.2689 33.2633 24.7159 33.5511C25.1629 33.839 25.6799 33.983 26.267 33.983C26.5966 33.983 26.9015 33.9394 27.1818 33.8523C27.4659 33.7652 27.7178 33.6383 27.9375 33.4716C28.1572 33.3011 28.339 33.0947 28.483 32.8523C28.6307 32.6098 28.733 32.3333 28.7898 32.0227L31.2784 32.0341C31.214 32.5682 31.053 33.0833 30.7955 33.5795C30.5417 34.072 30.1989 34.5133 29.767 34.9034C29.339 35.2898 28.8277 35.5966 28.233 35.8239C27.642 36.0473 26.9735 36.1591 26.2273 36.1591C25.1894 36.1591 24.2614 35.9242 23.4432 35.4545C22.6288 34.9848 21.9848 34.3049 21.5114 33.4148C21.0417 32.5246 20.8068 31.447 20.8068 30.1818C20.8068 28.9129 21.0455 27.8333 21.5227 26.9432C22 26.053 22.6477 25.375 23.4659 24.9091C24.2841 24.4394 25.2045 24.2045 26.2273 24.2045C26.9015 24.2045 27.5265 24.2992 28.1023 24.4886C28.6818 24.678 29.1951 24.9545 29.642 25.3182C30.089 25.678 30.4527 26.1193 30.733 26.642C31.017 27.1648 31.1989 27.7633 31.2784 28.4375ZM35.4858 36.1648C34.929 36.1648 34.4328 36.0682 33.9972 35.875C33.5616 35.678 33.2169 35.3883 32.9631 35.0057C32.7131 34.6193 32.5881 34.1383 32.5881 33.5625C32.5881 33.0777 32.6771 32.6705 32.8551 32.3409C33.0331 32.0114 33.2756 31.7462 33.5824 31.5455C33.8892 31.3447 34.2377 31.1932 34.6278 31.0909C35.0218 30.9886 35.4347 30.9167 35.8665 30.875C36.3741 30.822 36.7831 30.7727 37.0938 30.7273C37.4044 30.678 37.6297 30.6061 37.7699 30.5114C37.91 30.4167 37.9801 30.2765 37.9801 30.0909V30.0568C37.9801 29.697 37.8665 29.4186 37.6392 29.2216C37.4157 29.0246 37.0975 28.9261 36.6847 28.9261C36.2491 28.9261 35.9025 29.0227 35.6449 29.2159C35.3873 29.4053 35.2169 29.6439 35.1335 29.9318L32.8949 29.75C33.0085 29.2197 33.232 28.7614 33.5653 28.375C33.8987 27.9848 34.3286 27.6856 34.8551 27.4773C35.3854 27.2652 35.9991 27.1591 36.696 27.1591C37.1809 27.1591 37.6449 27.2159 38.0881 27.3295C38.535 27.4432 38.9309 27.6193 39.2756 27.858C39.6241 28.0966 39.8987 28.4034 40.0994 28.7784C40.3002 29.1496 40.4006 29.5947 40.4006 30.1136V36H38.1051V34.7898H38.0369C37.8968 35.0625 37.7093 35.303 37.4744 35.5114C37.2396 35.7159 36.9574 35.8769 36.6278 35.9943C36.2983 36.108 35.9176 36.1648 35.4858 36.1648ZM36.179 34.4943C36.535 34.4943 36.8494 34.4242 37.1222 34.2841C37.3949 34.1402 37.6089 33.947 37.7642 33.7045C37.9195 33.4621 37.9972 33.1875 37.9972 32.8807V31.9545C37.9214 32.0038 37.8172 32.0492 37.6847 32.0909C37.5559 32.1288 37.41 32.1648 37.2472 32.1989C37.0843 32.2292 36.9214 32.2576 36.7585 32.2841C36.5956 32.3068 36.4479 32.3277 36.3153 32.3466C36.0313 32.3883 35.7831 32.4545 35.571 32.5455C35.3589 32.6364 35.1941 32.7595 35.0767 32.9148C34.9593 33.0663 34.9006 33.2557 34.9006 33.483C34.9006 33.8125 35.0199 34.0644 35.2585 34.2386C35.5009 34.4091 35.8078 34.4943 36.179 34.4943ZM42.2784 36V27.2727H44.625V28.7955H44.7159C44.875 28.2538 45.142 27.8447 45.517 27.5682C45.892 27.2879 46.3239 27.1477 46.8125 27.1477C46.9337 27.1477 47.0644 27.1553 47.2045 27.1705C47.3447 27.1856 47.4678 27.2064 47.5739 27.233V29.3807C47.4602 29.3466 47.303 29.3163 47.1023 29.2898C46.9015 29.2633 46.7178 29.25 46.5511 29.25C46.1951 29.25 45.8769 29.3277 45.5966 29.483C45.3201 29.6345 45.1004 29.8466 44.9375 30.1193C44.7784 30.392 44.6989 30.7064 44.6989 31.0625V36H42.2784ZM51.6349 36.142C50.9721 36.142 50.3717 35.9716 49.8338 35.6307C49.2997 35.286 48.8755 34.7803 48.5611 34.1136C48.2505 33.4432 48.0952 32.6212 48.0952 31.6477C48.0952 30.6477 48.2562 29.8163 48.5781 29.1534C48.9001 28.4867 49.3281 27.9886 49.8622 27.6591C50.4001 27.3258 50.9891 27.1591 51.6293 27.1591C52.1179 27.1591 52.5251 27.2424 52.8509 27.4091C53.1804 27.572 53.4455 27.7765 53.6463 28.0227C53.8509 28.2652 54.0062 28.5038 54.1122 28.7386H54.1861V24.3636H56.6009V36H54.2145V34.6023H54.1122C53.9986 34.8447 53.8376 35.0852 53.6293 35.3239C53.4247 35.5587 53.1577 35.7538 52.8281 35.9091C52.5024 36.0644 52.1046 36.142 51.6349 36.142ZM52.402 34.2159C52.7921 34.2159 53.1217 34.1098 53.3906 33.8977C53.6634 33.6818 53.8717 33.3807 54.0156 32.9943C54.1634 32.608 54.2372 32.1553 54.2372 31.6364C54.2372 31.1174 54.1652 30.6667 54.0213 30.2841C53.8774 29.9015 53.669 29.6061 53.3963 29.3977C53.1236 29.1894 52.7921 29.0852 52.402 29.0852C52.0043 29.0852 51.669 29.1932 51.3963 29.4091C51.1236 29.625 50.9171 29.9242 50.777 30.3068C50.6368 30.6894 50.5668 31.1326 50.5668 31.6364C50.5668 32.1439 50.6368 32.5928 50.777 32.983C50.9209 33.3693 51.1274 33.6723 51.3963 33.892C51.669 34.108 52.0043 34.2159 52.402 34.2159ZM61.8963 26.392V24.3636H71.4531V26.392H67.8906V36H65.4588V26.392H61.8963ZM72.9815 36V27.2727H75.402V36H72.9815ZM74.1974 26.1477C73.8376 26.1477 73.5289 26.0284 73.2713 25.7898C73.0175 25.5473 72.8906 25.2576 72.8906 24.9205C72.8906 24.5871 73.0175 24.3011 73.2713 24.0625C73.5289 23.8201 73.8376 23.6989 74.1974 23.6989C74.5573 23.6989 74.8641 23.8201 75.1179 24.0625C75.3755 24.3011 75.5043 24.5871 75.5043 24.9205C75.5043 25.2576 75.3755 25.5473 75.1179 25.7898C74.8641 26.0284 74.5573 26.1477 74.1974 26.1477ZM81.983 27.2727V29.0909H76.7273V27.2727H81.983ZM77.9205 25.1818H80.3409V33.3182C80.3409 33.5417 80.375 33.7159 80.4432 33.8409C80.5114 33.9621 80.6061 34.0473 80.7273 34.0966C80.8523 34.1458 80.9962 34.1705 81.1591 34.1705C81.2727 34.1705 81.3864 34.161 81.5 34.142C81.6136 34.1193 81.7008 34.1023 81.7614 34.0909L82.142 35.892C82.0208 35.9299 81.8504 35.9735 81.6307 36.0227C81.411 36.0758 81.1439 36.108 80.8295 36.1193C80.2462 36.142 79.7348 36.0644 79.2955 35.8864C78.8598 35.7083 78.5208 35.4318 78.2784 35.0568C78.036 34.6818 77.9167 34.2083 77.9205 33.6364V25.1818ZM86.1676 24.3636V36H83.7472V24.3636H86.1676ZM92.0838 36.1705C91.1861 36.1705 90.4134 35.9886 89.7656 35.625C89.1217 35.2576 88.6255 34.7386 88.277 34.0682C87.9285 33.3939 87.7543 32.5966 87.7543 31.6761C87.7543 30.7784 87.9285 29.9905 88.277 29.3125C88.6255 28.6345 89.116 28.1061 89.7486 27.7273C90.3849 27.3485 91.1312 27.1591 91.9872 27.1591C92.563 27.1591 93.099 27.2519 93.5952 27.4375C94.0952 27.6193 94.5308 27.8939 94.902 28.2614C95.277 28.6288 95.5687 29.0909 95.777 29.6477C95.9853 30.2008 96.0895 30.8485 96.0895 31.5909V32.2557H88.7202V30.7557H93.8111C93.8111 30.4072 93.7353 30.0985 93.5838 29.8295C93.4323 29.5606 93.2221 29.3504 92.9531 29.1989C92.688 29.0436 92.3793 28.9659 92.027 28.9659C91.6596 28.9659 91.3338 29.0511 91.0497 29.2216C90.7694 29.3883 90.5497 29.6136 90.3906 29.8977C90.2315 30.178 90.1501 30.4905 90.1463 30.8352V32.2614C90.1463 32.6932 90.2259 33.0663 90.3849 33.3807C90.5478 33.6951 90.777 33.9375 91.0724 34.108C91.3679 34.2784 91.7183 34.3636 92.1236 34.3636C92.3925 34.3636 92.6387 34.3258 92.8622 34.25C93.0857 34.1742 93.277 34.0606 93.4361 33.9091C93.5952 33.7576 93.7164 33.572 93.7997 33.3523L96.0384 33.5C95.9247 34.0379 95.6918 34.5076 95.3395 34.9091C94.991 35.3068 94.5402 35.6174 93.9872 35.8409C93.438 36.0606 92.8035 36.1705 92.0838 36.1705Z" fill="#1A1A1A"/>
<g clip-path="url(#clip1_1_25)">
<rect x="20" y="48" width="186" height="40" rx="8" fill="#3380E6"/>
<rect x="20" y="48" width="120" height="40" rx="8" fill="#3380E6"/>
<path d="M157.575 66.6293H156.024C155.964 66.2978 155.853 66.0062 155.691 65.7543C155.529 65.5024 155.33 65.2886 155.094 65.1129C154.859 64.9373 154.596 64.8047 154.304 64.7152C154.016 64.6257 153.709 64.581 153.384 64.581C152.798 64.581 152.272 64.7285 151.808 65.0234C151.348 65.3184 150.983 65.7509 150.714 66.321C150.449 66.8911 150.317 67.5871 150.317 68.4091C150.317 69.2377 150.449 69.937 150.714 70.5071C150.983 71.0772 151.349 71.508 151.813 71.7997C152.277 72.0914 152.799 72.2372 153.379 72.2372C153.701 72.2372 154.006 72.1941 154.294 72.108C154.586 72.0185 154.849 71.8875 155.085 71.7152C155.32 71.5429 155.519 71.3324 155.681 71.0838C155.847 70.8319 155.961 70.5436 156.024 70.2188L157.575 70.2237C157.492 70.7242 157.332 71.1849 157.093 71.6058C156.858 72.0234 156.554 72.3847 156.183 72.6896C155.815 72.9912 155.394 73.2249 154.92 73.3906C154.446 73.5563 153.929 73.6392 153.369 73.6392C152.488 73.6392 151.702 73.4304 151.013 73.0128C150.323 72.5919 149.78 71.9903 149.382 71.2081C148.988 70.4259 148.79 69.4929 148.79 68.4091C148.79 67.322 148.989 66.389 149.387 65.6101C149.785 64.8279 150.328 64.228 151.018 63.8104C151.707 63.3894 152.491 63.179 153.369 63.179C153.91 63.179 154.413 63.2569 154.881 63.4126C155.351 63.5651 155.774 63.7905 156.148 64.0888C156.523 64.3838 156.833 64.745 157.078 65.1726C157.323 65.5968 157.489 66.0824 157.575 66.6293ZM160.781 63.3182V73.5H159.294V63.3182H160.781ZM162.781 73.5V65.8636H164.267V73.5H162.781ZM163.531 64.6854C163.273 64.6854 163.051 64.5992 162.865 64.4268C162.683 64.2512 162.592 64.0424 162.592 63.8004C162.592 63.5552 162.683 63.3464 162.865 63.174C163.051 62.9983 163.273 62.9105 163.531 62.9105C163.79 62.9105 164.01 62.9983 164.192 63.174C164.378 63.3464 164.471 63.5552 164.471 63.8004C164.471 64.0424 164.378 64.2512 164.192 64.4268C164.01 64.5992 163.79 64.6854 163.531 64.6854ZM169.483 73.6541C168.744 73.6541 168.108 73.4867 167.574 73.152C167.044 72.8139 166.636 72.3482 166.351 71.755C166.066 71.1617 165.924 70.4822 165.924 69.7166C165.924 68.9411 166.07 68.2566 166.361 67.6634C166.653 67.0668 167.064 66.6011 167.594 66.2663C168.125 65.9316 168.749 65.7642 169.469 65.7642C170.049 65.7642 170.566 65.8719 171.02 66.0874C171.474 66.2995 171.84 66.5978 172.118 66.9822C172.4 67.3667 172.568 67.8158 172.621 68.3295H171.174C171.094 67.9716 170.912 67.6634 170.627 67.4048C170.345 67.1463 169.967 67.017 169.493 67.017C169.079 67.017 168.716 67.1264 168.405 67.3452C168.096 67.5606 167.856 67.8688 167.684 68.2699C167.511 68.6676 167.425 69.1383 167.425 69.6818C167.425 70.2386 167.51 70.7192 167.679 71.1236C167.848 71.5279 168.086 71.8411 168.395 72.0632C168.706 72.2853 169.073 72.3963 169.493 72.3963C169.775 72.3963 170.03 72.3449 170.259 72.2422C170.491 72.1361 170.685 71.9853 170.841 71.7898C171 71.5942 171.111 71.3589 171.174 71.0838H172.621C172.568 71.5777 172.407 72.0185 172.138 72.4062C171.87 72.794 171.51 73.099 171.059 73.321C170.612 73.5431 170.087 73.6541 169.483 73.6541ZM175.577 70.9098L175.567 69.0952H175.826L178.869 65.8636H180.648L177.178 69.5426H176.945L175.577 70.9098ZM174.21 73.5V63.3182H175.697V73.5H174.21ZM179.033 73.5L176.298 69.8707L177.322 68.8317L180.857 73.5H179.033ZM185.828 63.3182H187.692L190.933 71.233H191.053L194.294 63.3182H196.159V73.5H194.697V66.1321H194.602L191.6 73.4851H190.387L187.384 66.1271H187.289V73.5H185.828V63.3182ZM201.564 73.6541C200.812 73.6541 200.164 73.4934 199.62 73.1719C199.08 72.8471 198.662 72.3913 198.367 71.8047C198.076 71.2147 197.93 70.5237 197.93 69.7315C197.93 68.9493 198.076 68.2599 198.367 67.6634C198.662 67.0668 199.073 66.6011 199.6 66.2663C200.13 65.9316 200.75 65.7642 201.46 65.7642C201.89 65.7642 202.308 65.8355 202.712 65.978C203.117 66.1205 203.48 66.3442 203.801 66.6491C204.123 66.9541 204.376 67.3501 204.562 67.8374C204.747 68.3213 204.84 68.9096 204.84 69.6023V70.1293H198.77V69.0156H203.384C203.384 68.6245 203.304 68.2782 203.145 67.9766C202.986 67.6716 202.762 67.4313 202.474 67.2557C202.189 67.08 201.854 66.9922 201.469 66.9922C201.052 66.9922 200.687 67.0949 200.376 67.3004C200.067 67.5026 199.829 67.7678 199.66 68.0959C199.494 68.4207 199.411 68.7737 199.411 69.1548V70.0249C199.411 70.5353 199.501 70.9695 199.68 71.3274C199.862 71.6854 200.116 71.9588 200.44 72.1477C200.765 72.3333 201.145 72.4261 201.579 72.4261C201.861 72.4261 202.117 72.3864 202.349 72.3068C202.581 72.224 202.782 72.1013 202.951 71.9389C203.12 71.7765 203.249 71.576 203.339 71.3374L204.746 71.5909C204.633 72.0052 204.431 72.3681 204.139 72.6797C203.851 72.9879 203.488 73.2282 203.05 73.4006C202.616 73.5696 202.121 73.6541 201.564 73.6541Z" fill="white"/>
</g>
</g>
<defs>
<clipPath id="clip0_1_25">
<rect x="20" y="20" width="180" height="68" rx="12" fill="white"/>
</clipPath>
<clipPath id="clip1_1_25">
<rect x="20" y="48" width="186" height="40" rx="8" fill="white"/>
</clipPath>
</defs>
</svg>
