<svg width="160" height="140" viewBox="0 0 160 140" fill="none" xmlns="http://www.w3.org/2000/svg">
<g clip-path="url(#clip0_1_15)">
<rect width="160" height="140" fill="#F2F2F2"/>
<g clip-path="url(#clip1_1_15)">
<rect width="186" height="40" rx="8" fill="#3380E6"/>
<rect width="120" height="40" rx="8" fill="#3380E6"/>
<path d="M137.575 18.6293H136.024C135.964 18.2978 135.853 18.0062 135.691 17.7543C135.529 17.5024 135.33 17.2886 135.094 17.1129C134.859 16.9373 134.596 16.8047 134.304 16.7152C134.016 16.6257 133.709 16.581 133.384 16.581C132.798 16.581 132.272 16.7285 131.808 17.0234C131.348 17.3184 130.983 17.7509 130.714 18.321C130.449 18.8911 130.317 19.5871 130.317 20.4091C130.317 21.2377 130.449 21.937 130.714 22.5071C130.983 23.0772 131.349 23.508 131.813 23.7997C132.277 24.0914 132.799 24.2372 133.379 24.2372C133.701 24.2372 134.006 24.1941 134.294 24.108C134.586 24.0185 134.849 23.8875 135.085 23.7152C135.32 23.5429 135.519 23.3324 135.681 23.0838C135.847 22.8319 135.961 22.5436 136.024 22.2188L137.575 22.2237C137.492 22.7242 137.332 23.1849 137.093 23.6058C136.858 24.0234 136.554 24.3847 136.183 24.6896C135.815 24.9912 135.394 25.2249 134.92 25.3906C134.446 25.5563 133.929 25.6392 133.369 25.6392C132.488 25.6392 131.702 25.4304 131.013 25.0128C130.323 24.5919 129.78 23.9903 129.382 23.2081C128.988 22.4259 128.79 21.4929 128.79 20.4091C128.79 19.322 128.989 18.389 129.387 17.6101C129.785 16.8279 130.328 16.228 131.018 15.8104C131.707 15.3894 132.491 15.179 133.369 15.179C133.91 15.179 134.413 15.2569 134.881 15.4126C135.351 15.5651 135.774 15.7905 136.148 16.0888C136.523 16.3838 136.833 16.745 137.078 17.1726C137.323 17.5968 137.489 18.0824 137.575 18.6293ZM140.781 15.3182V25.5H139.294V15.3182H140.781ZM142.781 25.5V17.8636H144.267V25.5H142.781ZM143.531 16.6854C143.273 16.6854 143.051 16.5992 142.865 16.4268C142.683 16.2512 142.592 16.0424 142.592 15.8004C142.592 15.5552 142.683 15.3464 142.865 15.174C143.051 14.9983 143.273 14.9105 143.531 14.9105C143.79 14.9105 144.01 14.9983 144.192 15.174C144.378 15.3464 144.471 15.5552 144.471 15.8004C144.471 16.0424 144.378 16.2512 144.192 16.4268C144.01 16.5992 143.79 16.6854 143.531 16.6854ZM149.483 25.6541C148.744 25.6541 148.108 25.4867 147.574 25.152C147.044 24.8139 146.636 24.3482 146.351 23.755C146.066 23.1617 145.924 22.4822 145.924 21.7166C145.924 20.9411 146.07 20.2566 146.361 19.6634C146.653 19.0668 147.064 18.6011 147.594 18.2663C148.125 17.9316 148.749 17.7642 149.469 17.7642C150.049 17.7642 150.566 17.8719 151.02 18.0874C151.474 18.2995 151.84 18.5978 152.118 18.9822C152.4 19.3667 152.568 19.8158 152.621 20.3295H151.174C151.094 19.9716 150.912 19.6634 150.627 19.4048C150.345 19.1463 149.967 19.017 149.493 19.017C149.079 19.017 148.716 19.1264 148.405 19.3452C148.096 19.5606 147.856 19.8688 147.684 20.2699C147.511 20.6676 147.425 21.1383 147.425 21.6818C147.425 22.2386 147.51 22.7192 147.679 23.1236C147.848 23.5279 148.086 23.8411 148.395 24.0632C148.706 24.2853 149.073 24.3963 149.493 24.3963C149.775 24.3963 150.03 24.3449 150.259 24.2422C150.491 24.1361 150.685 23.9853 150.841 23.7898C151 23.5942 151.111 23.3589 151.174 23.0838H152.621C152.568 23.5777 152.407 24.0185 152.138 24.4062C151.87 24.794 151.51 25.099 151.059 25.321C150.612 25.5431 150.087 25.6541 149.483 25.6541ZM155.577 22.9098L155.567 21.0952H155.826L158.869 17.8636H160.648L157.178 21.5426H156.945L155.577 22.9098ZM154.21 25.5V15.3182H155.697V25.5H154.21ZM159.033 25.5L156.298 21.8707L157.322 20.8317L160.857 25.5H159.033ZM165.828 15.3182H167.692L170.933 23.233H171.053L174.294 15.3182H176.159V25.5H174.697V18.1321H174.602L171.6 25.4851H170.387L167.384 18.1271H167.289V25.5H165.828V15.3182ZM181.564 25.6541C180.812 25.6541 180.164 25.4934 179.62 25.1719C179.08 24.8471 178.662 24.3913 178.367 23.8047C178.076 23.2147 177.93 22.5237 177.93 21.7315C177.93 20.9493 178.076 20.2599 178.367 19.6634C178.662 19.0668 179.073 18.6011 179.6 18.2663C180.13 17.9316 180.75 17.7642 181.46 17.7642C181.89 17.7642 182.308 17.8355 182.712 17.978C183.117 18.1205 183.48 18.3442 183.801 18.6491C184.123 18.9541 184.376 19.3501 184.562 19.8374C184.747 20.3213 184.84 20.9096 184.84 21.6023V22.1293H178.77V21.0156H183.384C183.384 20.6245 183.304 20.2782 183.145 19.9766C182.986 19.6716 182.762 19.4313 182.474 19.2557C182.189 19.08 181.854 18.9922 181.469 18.9922C181.052 18.9922 180.687 19.0949 180.376 19.3004C180.067 19.5026 179.829 19.7678 179.66 20.0959C179.494 20.4207 179.411 20.7737 179.411 21.1548V22.0249C179.411 22.5353 179.501 22.9695 179.68 23.3274C179.862 23.6854 180.116 23.9588 180.44 24.1477C180.765 24.3333 181.145 24.4261 181.579 24.4261C181.861 24.4261 182.117 24.3864 182.349 24.3068C182.581 24.224 182.782 24.1013 182.951 23.9389C183.12 23.7765 183.249 23.576 183.339 23.3374L184.746 23.5909C184.633 24.0052 184.431 24.3681 184.139 24.6797C183.851 24.9879 183.488 25.2282 183.05 25.4006C182.616 25.5696 182.121 25.6541 181.564 25.6541Z" fill="white"/>
</g>
<g clip-path="url(#clip2_1_15)">
<rect y="50" width="186" height="40" rx="8" fill="#3380E6"/>
<rect y="50" width="120" height="40" rx="8" fill="#3380E6"/>
<path d="M137.575 68.6293H136.024C135.964 68.2978 135.853 68.0062 135.691 67.7543C135.529 67.5024 135.33 67.2886 135.094 67.1129C134.859 66.9373 134.596 66.8047 134.304 66.7152C134.016 66.6257 133.709 66.581 133.384 66.581C132.798 66.581 132.272 66.7285 131.808 67.0234C131.348 67.3184 130.983 67.7509 130.714 68.321C130.449 68.8911 130.317 69.5871 130.317 70.4091C130.317 71.2377 130.449 71.937 130.714 72.5071C130.983 73.0772 131.349 73.508 131.813 73.7997C132.277 74.0914 132.799 74.2372 133.379 74.2372C133.701 74.2372 134.006 74.1941 134.294 74.108C134.586 74.0185 134.849 73.8875 135.085 73.7152C135.32 73.5429 135.519 73.3324 135.681 73.0838C135.847 72.8319 135.961 72.5436 136.024 72.2188L137.575 72.2237C137.492 72.7242 137.332 73.1849 137.093 73.6058C136.858 74.0234 136.554 74.3847 136.183 74.6896C135.815 74.9912 135.394 75.2249 134.92 75.3906C134.446 75.5563 133.929 75.6392 133.369 75.6392C132.488 75.6392 131.702 75.4304 131.013 75.0128C130.323 74.5919 129.78 73.9903 129.382 73.2081C128.988 72.4259 128.79 71.4929 128.79 70.4091C128.79 69.322 128.989 68.389 129.387 67.6101C129.785 66.8279 130.328 66.228 131.018 65.8104C131.707 65.3894 132.491 65.179 133.369 65.179C133.91 65.179 134.413 65.2569 134.881 65.4126C135.351 65.5651 135.774 65.7905 136.148 66.0888C136.523 66.3838 136.833 66.745 137.078 67.1726C137.323 67.5968 137.489 68.0824 137.575 68.6293ZM140.781 65.3182V75.5H139.294V65.3182H140.781ZM142.781 75.5V67.8636H144.267V75.5H142.781ZM143.531 66.6854C143.273 66.6854 143.051 66.5992 142.865 66.4268C142.683 66.2512 142.592 66.0424 142.592 65.8004C142.592 65.5552 142.683 65.3464 142.865 65.174C143.051 64.9983 143.273 64.9105 143.531 64.9105C143.79 64.9105 144.01 64.9983 144.192 65.174C144.378 65.3464 144.471 65.5552 144.471 65.8004C144.471 66.0424 144.378 66.2512 144.192 66.4268C144.01 66.5992 143.79 66.6854 143.531 66.6854ZM149.483 75.6541C148.744 75.6541 148.108 75.4867 147.574 75.152C147.044 74.8139 146.636 74.3482 146.351 73.755C146.066 73.1617 145.924 72.4822 145.924 71.7166C145.924 70.9411 146.07 70.2566 146.361 69.6634C146.653 69.0668 147.064 68.6011 147.594 68.2663C148.125 67.9316 148.749 67.7642 149.469 67.7642C150.049 67.7642 150.566 67.8719 151.02 68.0874C151.474 68.2995 151.84 68.5978 152.118 68.9822C152.4 69.3667 152.568 69.8158 152.621 70.3295H151.174C151.094 69.9716 150.912 69.6634 150.627 69.4048C150.345 69.1463 149.967 69.017 149.493 69.017C149.079 69.017 148.716 69.1264 148.405 69.3452C148.096 69.5606 147.856 69.8688 147.684 70.2699C147.511 70.6676 147.425 71.1383 147.425 71.6818C147.425 72.2386 147.51 72.7192 147.679 73.1236C147.848 73.5279 148.086 73.8411 148.395 74.0632C148.706 74.2853 149.073 74.3963 149.493 74.3963C149.775 74.3963 150.03 74.3449 150.259 74.2422C150.491 74.1361 150.685 73.9853 150.841 73.7898C151 73.5942 151.111 73.3589 151.174 73.0838H152.621C152.568 73.5777 152.407 74.0185 152.138 74.4062C151.87 74.794 151.51 75.099 151.059 75.321C150.612 75.5431 150.087 75.6541 149.483 75.6541ZM155.577 72.9098L155.567 71.0952H155.826L158.869 67.8636H160.648L157.178 71.5426H156.945L155.577 72.9098ZM154.21 75.5V65.3182H155.697V75.5H154.21ZM159.033 75.5L156.298 71.8707L157.322 70.8317L160.857 75.5H159.033ZM165.828 65.3182H167.692L170.933 73.233H171.053L174.294 65.3182H176.159V75.5H174.697V68.1321H174.602L171.6 75.4851H170.387L167.384 68.1271H167.289V75.5H165.828V65.3182ZM181.564 75.6541C180.812 75.6541 180.164 75.4934 179.62 75.1719C179.08 74.8471 178.662 74.3913 178.367 73.8047C178.076 73.2147 177.93 72.5237 177.93 71.7315C177.93 70.9493 178.076 70.2599 178.367 69.6634C178.662 69.0668 179.073 68.6011 179.6 68.2663C180.13 67.9316 180.75 67.7642 181.46 67.7642C181.89 67.7642 182.308 67.8355 182.712 67.978C183.117 68.1205 183.48 68.3442 183.801 68.6491C184.123 68.9541 184.376 69.3501 184.562 69.8374C184.747 70.3213 184.84 70.9096 184.84 71.6023V72.1293H178.77V71.0156H183.384C183.384 70.6245 183.304 70.2782 183.145 69.9766C182.986 69.6716 182.762 69.4313 182.474 69.2557C182.189 69.08 181.854 68.9922 181.469 68.9922C181.052 68.9922 180.687 69.0949 180.376 69.3004C180.067 69.5026 179.829 69.7678 179.66 70.0959C179.494 70.4207 179.411 70.7737 179.411 71.1548V72.0249C179.411 72.5353 179.501 72.9695 179.68 73.3274C179.862 73.6854 180.116 73.9588 180.44 74.1477C180.765 74.3333 181.145 74.4261 181.579 74.4261C181.861 74.4261 182.117 74.3864 182.349 74.3068C182.581 74.224 182.782 74.1013 182.951 73.9389C183.12 73.7765 183.249 73.576 183.339 73.3374L184.746 73.5909C184.633 74.0052 184.431 74.3681 184.139 74.6797C183.851 74.9879 183.488 75.2282 183.05 75.4006C182.616 75.5696 182.121 75.6541 181.564 75.6541Z" fill="white"/>
</g>
<g clip-path="url(#clip3_1_15)">
<rect y="100" width="186" height="40" rx="8" fill="#3380E6"/>
<rect y="100" width="120" height="40" rx="8" fill="#3380E6"/>
<path d="M137.575 118.629H136.024C135.964 118.298 135.853 118.006 135.691 117.754C135.529 117.502 135.33 117.289 135.094 117.113C134.859 116.937 134.596 116.805 134.304 116.715C134.016 116.626 133.709 116.581 133.384 116.581C132.798 116.581 132.272 116.728 131.808 117.023C131.348 117.318 130.983 117.751 130.714 118.321C130.449 118.891 130.317 119.587 130.317 120.409C130.317 121.238 130.449 121.937 130.714 122.507C130.983 123.077 131.349 123.508 131.813 123.8C132.277 124.091 132.799 124.237 133.379 124.237C133.701 124.237 134.006 124.194 134.294 124.108C134.586 124.018 134.849 123.888 135.085 123.715C135.32 123.543 135.519 123.332 135.681 123.084C135.847 122.832 135.961 122.544 136.024 122.219L137.575 122.224C137.492 122.724 137.332 123.185 137.093 123.606C136.858 124.023 136.554 124.385 136.183 124.69C135.815 124.991 135.394 125.225 134.92 125.391C134.446 125.556 133.929 125.639 133.369 125.639C132.488 125.639 131.702 125.43 131.013 125.013C130.323 124.592 129.78 123.99 129.382 123.208C128.988 122.426 128.79 121.493 128.79 120.409C128.79 119.322 128.989 118.389 129.387 117.61C129.785 116.828 130.328 116.228 131.018 115.81C131.707 115.389 132.491 115.179 133.369 115.179C133.91 115.179 134.413 115.257 134.881 115.413C135.351 115.565 135.774 115.79 136.148 116.089C136.523 116.384 136.833 116.745 137.078 117.173C137.323 117.597 137.489 118.082 137.575 118.629ZM140.781 115.318V125.5H139.294V115.318H140.781ZM142.781 125.5V117.864H144.267V125.5H142.781ZM143.531 116.685C143.273 116.685 143.051 116.599 142.865 116.427C142.683 116.251 142.592 116.042 142.592 115.8C142.592 115.555 142.683 115.346 142.865 115.174C143.051 114.998 143.273 114.911 143.531 114.911C143.79 114.911 144.01 114.998 144.192 115.174C144.378 115.346 144.471 115.555 144.471 115.8C144.471 116.042 144.378 116.251 144.192 116.427C144.01 116.599 143.79 116.685 143.531 116.685ZM149.483 125.654C148.744 125.654 148.108 125.487 147.574 125.152C147.044 124.814 146.636 124.348 146.351 123.755C146.066 123.162 145.924 122.482 145.924 121.717C145.924 120.941 146.07 120.257 146.361 119.663C146.653 119.067 147.064 118.601 147.594 118.266C148.125 117.932 148.749 117.764 149.469 117.764C150.049 117.764 150.566 117.872 151.02 118.087C151.474 118.299 151.84 118.598 152.118 118.982C152.4 119.367 152.568 119.816 152.621 120.33H151.174C151.094 119.972 150.912 119.663 150.627 119.405C150.345 119.146 149.967 119.017 149.493 119.017C149.079 119.017 148.716 119.126 148.405 119.345C148.096 119.561 147.856 119.869 147.684 120.27C147.511 120.668 147.425 121.138 147.425 121.682C147.425 122.239 147.51 122.719 147.679 123.124C147.848 123.528 148.086 123.841 148.395 124.063C148.706 124.285 149.073 124.396 149.493 124.396C149.775 124.396 150.03 124.345 150.259 124.242C150.491 124.136 150.685 123.985 150.841 123.79C151 123.594 151.111 123.359 151.174 123.084H152.621C152.568 123.578 152.407 124.018 152.138 124.406C151.87 124.794 151.51 125.099 151.059 125.321C150.612 125.543 150.087 125.654 149.483 125.654ZM155.577 122.91L155.567 121.095H155.826L158.869 117.864H160.648L157.178 121.543H156.945L155.577 122.91ZM154.21 125.5V115.318H155.697V125.5H154.21ZM159.033 125.5L156.298 121.871L157.322 120.832L160.857 125.5H159.033ZM165.828 115.318H167.692L170.933 123.233H171.053L174.294 115.318H176.159V125.5H174.697V118.132H174.602L171.6 125.485H170.387L167.384 118.127H167.289V125.5H165.828V115.318ZM181.564 125.654C180.812 125.654 180.164 125.493 179.62 125.172C179.08 124.847 178.662 124.391 178.367 123.805C178.076 123.215 177.93 122.524 177.93 121.732C177.93 120.949 178.076 120.26 178.367 119.663C178.662 119.067 179.073 118.601 179.6 118.266C180.13 117.932 180.75 117.764 181.46 117.764C181.89 117.764 182.308 117.835 182.712 117.978C183.117 118.121 183.48 118.344 183.801 118.649C184.123 118.954 184.376 119.35 184.562 119.837C184.747 120.321 184.84 120.91 184.84 121.602V122.129H178.77V121.016H183.384C183.384 120.625 183.304 120.278 183.145 119.977C182.986 119.672 182.762 119.431 182.474 119.256C182.189 119.08 181.854 118.992 181.469 118.992C181.052 118.992 180.687 119.095 180.376 119.3C180.067 119.503 179.829 119.768 179.66 120.096C179.494 120.421 179.411 120.774 179.411 121.155V122.025C179.411 122.535 179.501 122.969 179.68 123.327C179.862 123.685 180.116 123.959 180.44 124.148C180.765 124.333 181.145 124.426 181.579 124.426C181.861 124.426 182.117 124.386 182.349 124.307C182.581 124.224 182.782 124.101 182.951 123.939C183.12 123.777 183.249 123.576 183.339 123.337L184.746 123.591C184.633 124.005 184.431 124.368 184.139 124.68C183.851 124.988 183.488 125.228 183.05 125.401C182.616 125.57 182.121 125.654 181.564 125.654Z" fill="white"/>
</g>
</g>
<defs>
<clipPath id="clip0_1_15">
<rect width="160" height="140" fill="white"/>
</clipPath>
<clipPath id="clip1_1_15">
<rect width="186" height="40" rx="8" fill="white"/>
</clipPath>
<clipPath id="clip2_1_15">
<rect y="50" width="186" height="40" rx="8" fill="white"/>
</clipPath>
<clipPath id="clip3_1_15">
<rect y="100" width="186" height="40" rx="8" fill="white"/>
</clipPath>
</defs>
</svg>
