<svg width="160" height="80" viewBox="0 0 160 80" fill="none" xmlns="http://www.w3.org/2000/svg">
<g clip-path="url(#clip0_1_13)">
<rect width="160" height="80" fill="#F2F2F2"/>
<g clip-path="url(#clip1_1_13)">
<rect x="20" y="20" width="186" height="40" rx="8" fill="#3380E6"/>
<rect x="20" y="20" width="120" height="40" rx="8" fill="#3380E6"/>
<path d="M157.575 38.6293H156.024C155.964 38.2978 155.853 38.0062 155.691 37.7543C155.529 37.5024 155.33 37.2886 155.094 37.1129C154.859 36.9373 154.596 36.8047 154.304 36.7152C154.016 36.6257 153.709 36.581 153.384 36.581C152.798 36.581 152.272 36.7285 151.808 37.0234C151.348 37.3184 150.983 37.7509 150.714 38.321C150.449 38.8911 150.317 39.5871 150.317 40.4091C150.317 41.2377 150.449 41.937 150.714 42.5071C150.983 43.0772 151.349 43.508 151.813 43.7997C152.277 44.0914 152.799 44.2372 153.379 44.2372C153.701 44.2372 154.006 44.1941 154.294 44.108C154.586 44.0185 154.849 43.8875 155.085 43.7152C155.32 43.5429 155.519 43.3324 155.681 43.0838C155.847 42.8319 155.961 42.5436 156.024 42.2188L157.575 42.2237C157.492 42.7242 157.332 43.1849 157.093 43.6058C156.858 44.0234 156.554 44.3847 156.183 44.6896C155.815 44.9912 155.394 45.2249 154.92 45.3906C154.446 45.5563 153.929 45.6392 153.369 45.6392C152.488 45.6392 151.702 45.4304 151.013 45.0128C150.323 44.5919 149.78 43.9903 149.382 43.2081C148.988 42.4259 148.79 41.4929 148.79 40.4091C148.79 39.322 148.989 38.389 149.387 37.6101C149.785 36.8279 150.328 36.228 151.018 35.8104C151.707 35.3894 152.491 35.179 153.369 35.179C153.91 35.179 154.413 35.2569 154.881 35.4126C155.351 35.5651 155.774 35.7905 156.148 36.0888C156.523 36.3838 156.833 36.745 157.078 37.1726C157.323 37.5968 157.489 38.0824 157.575 38.6293ZM160.781 35.3182V45.5H159.294V35.3182H160.781ZM162.781 45.5V37.8636H164.267V45.5H162.781ZM163.531 36.6854C163.273 36.6854 163.051 36.5992 162.865 36.4268C162.683 36.2512 162.592 36.0424 162.592 35.8004C162.592 35.5552 162.683 35.3464 162.865 35.174C163.051 34.9983 163.273 34.9105 163.531 34.9105C163.79 34.9105 164.01 34.9983 164.192 35.174C164.378 35.3464 164.471 35.5552 164.471 35.8004C164.471 36.0424 164.378 36.2512 164.192 36.4268C164.01 36.5992 163.79 36.6854 163.531 36.6854ZM169.483 45.6541C168.744 45.6541 168.108 45.4867 167.574 45.152C167.044 44.8139 166.636 44.3482 166.351 43.755C166.066 43.1617 165.924 42.4822 165.924 41.7166C165.924 40.9411 166.07 40.2566 166.361 39.6634C166.653 39.0668 167.064 38.6011 167.594 38.2663C168.125 37.9316 168.749 37.7642 169.469 37.7642C170.049 37.7642 170.566 37.8719 171.02 38.0874C171.474 38.2995 171.84 38.5978 172.118 38.9822C172.4 39.3667 172.568 39.8158 172.621 40.3295H171.174C171.094 39.9716 170.912 39.6634 170.627 39.4048C170.345 39.1463 169.967 39.017 169.493 39.017C169.079 39.017 168.716 39.1264 168.405 39.3452C168.096 39.5606 167.856 39.8688 167.684 40.2699C167.511 40.6676 167.425 41.1383 167.425 41.6818C167.425 42.2386 167.51 42.7192 167.679 43.1236C167.848 43.5279 168.086 43.8411 168.395 44.0632C168.706 44.2853 169.073 44.3963 169.493 44.3963C169.775 44.3963 170.03 44.3449 170.259 44.2422C170.491 44.1361 170.685 43.9853 170.841 43.7898C171 43.5942 171.111 43.3589 171.174 43.0838H172.621C172.568 43.5777 172.407 44.0185 172.138 44.4062C171.87 44.794 171.51 45.099 171.059 45.321C170.612 45.5431 170.087 45.6541 169.483 45.6541ZM175.577 42.9098L175.567 41.0952H175.826L178.869 37.8636H180.648L177.178 41.5426H176.945L175.577 42.9098ZM174.21 45.5V35.3182H175.697V45.5H174.21ZM179.033 45.5L176.298 41.8707L177.322 40.8317L180.857 45.5H179.033ZM185.828 35.3182H187.692L190.933 43.233H191.053L194.294 35.3182H196.159V45.5H194.697V38.1321H194.602L191.6 45.4851H190.387L187.384 38.1271H187.289V45.5H185.828V35.3182ZM201.564 45.6541C200.812 45.6541 200.164 45.4934 199.62 45.1719C199.08 44.8471 198.662 44.3913 198.367 43.8047C198.076 43.2147 197.93 42.5237 197.93 41.7315C197.93 40.9493 198.076 40.2599 198.367 39.6634C198.662 39.0668 199.073 38.6011 199.6 38.2663C200.13 37.9316 200.75 37.7642 201.46 37.7642C201.89 37.7642 202.308 37.8355 202.712 37.978C203.117 38.1205 203.48 38.3442 203.801 38.6491C204.123 38.9541 204.376 39.3501 204.562 39.8374C204.747 40.3213 204.84 40.9096 204.84 41.6023V42.1293H198.77V41.0156H203.384C203.384 40.6245 203.304 40.2782 203.145 39.9766C202.986 39.6716 202.762 39.4313 202.474 39.2557C202.189 39.08 201.854 38.9922 201.469 38.9922C201.052 38.9922 200.687 39.0949 200.376 39.3004C200.067 39.5026 199.829 39.7678 199.66 40.0959C199.494 40.4207 199.411 40.7737 199.411 41.1548V42.0249C199.411 42.5353 199.501 42.9695 199.68 43.3274C199.862 43.6854 200.116 43.9588 200.44 44.1477C200.765 44.3333 201.145 44.4261 201.579 44.4261C201.861 44.4261 202.117 44.3864 202.349 44.3068C202.581 44.224 202.782 44.1013 202.951 43.9389C203.12 43.7765 203.249 43.576 203.339 43.3374L204.746 43.5909C204.633 44.0052 204.431 44.3681 204.139 44.6797C203.851 44.9879 203.488 45.2282 203.05 45.4006C202.616 45.5696 202.121 45.6541 201.564 45.6541Z" fill="white"/>
</g>
</g>
<defs>
<clipPath id="clip0_1_13">
<rect width="160" height="80" fill="white"/>
</clipPath>
<clipPath id="clip1_1_13">
<rect x="20" y="20" width="186" height="40" rx="8" fill="white"/>
</clipPath>
</defs>
</svg>
