<svg xmlns="http://www.w3.org/2000/svg" width="140" height="200" viewBox="0 0 140 200"><g><defs><clipPath id="clip-g1-0"><rect x="0" y="0" width="140" height="200"/></clipPath></defs><g clip-path="url(#clip-g1-0)"><rect x="0" y="0" width="140" height="200" fill="#f2f2f2"/><path d="M 4 0 L 36 0 C 38.20913899932317 0 40 1.7908610006768266 40 4 L 40 36 C 40 38.20913899932317 38.20913899932317 40 36 40 L 4 40 C 1.7908610006768266 40 0 38.20913899932317 0 36 L 0 4 C 0 1.7908610006768266 1.7908610006768266 0 4 0 Z" fill="#e64d4d"/><g transform="matrix(1,0,0,1,50,0)"><path d="M 4 0 L 36 0 C 38.20913899932317 0 40 1.7908610006768266 40 4 L 40 56 C 40 58.20913899932317 38.20913899932317 60 36 60 L 4 60 C 1.7908610006768266 60 0 58.20913899932317 0 56 L 0 4 C 0 1.7908610006768266 1.7908610006768266 0 4 0 Z" fill="#4de64d"/></g><g transform="matrix(1,0,0,1,100,0)"><path d="M 4 0 L 36 0 C 38.20913899932317 0 40 1.7908610006768266 40 4 L 40 46 C 40 48.20913899932317 38.20913899932317 50 36 50 L 4 50 C 1.7908610006768266 50 0 48.20913899932317 0 46 L 0 4 C 0 1.7908610006768266 1.7908610006768266 0 4 0 Z" fill="#4d4de6"/></g></g></g></svg>