<svg xmlns="http://www.w3.org/2000/svg" width="200" height="200" viewBox="0 0 200 200"><g><defs><clipPath id="clip-g88-1"><rect x="0" y="0" width="200" height="200"/></clipPath></defs><rect x="0" y="0" width="200" height="200" fill="#ffffff"/><g transform="matrix(1,0,0,1,10,10)"><path d="M 6 0 L 54 0 C 57.31370849898476 0 60 2.6862915010152397 60 6 L 60 54 C 60 57.31370849898476 57.31370849898476 60 54 60 L 6 60 C 2.6862915010152397 60 0 57.31370849898476 0 54 L 0 6 C 0 2.6862915010152397 2.6862915010152397 0 6 0 Z" fill="#e64d4d"/></g><g transform="matrix(1,0,0,1,70,70)"><defs><clipPath id="clip-g88-0"><rect x="0" y="0" width="120" height="120"/></clipPath></defs><g clip-path="url(#clip-g88-0)"><rect x="0" y="0" width="120" height="120" fill="#f0f0f0"/><g transform="matrix(1,0,0,1,20,20)"><path d="M 8 0 L 72 0 C 76.41827799864635 0 80 3.5817220013536533 80 8 L 80 72 C 80 76.41827799864635 76.41827799864635 80 72 80 L 8 80 C 3.5817220013536533 80 0 76.41827799864635 0 72 L 0 8 C 0 3.5817220013536533 3.5817220013536533 0 8 0 Z" fill="#4db34d"/></g><g transform="matrix(1,0,0,1,60,60)"><circle cx="25" cy="25" r="25" fill="#4d80e6"/></g></g></g></g></svg>