<svg xmlns="http://www.w3.org/2000/svg" width="200" height="200" viewBox="0 0 200 200"><g><defs><clipPath id="clip-g2-2"><rect x="0" y="0" width="200" height="200"/></clipPath></defs><rect x="0" y="0" width="200" height="200" fill="#ffffff"/><g transform="matrix(1,0,0,1,10,10)"><defs><clipPath id="clip-g2-1"><rect x="0" y="0" width="180" height="180"/></clipPath></defs><g clip-path="url(#clip-g2-1)"><rect x="0" y="0" width="180" height="180" fill="#f0f0f0"/><g transform="matrix(1,0,0,1,10,10)"><defs><clipPath id="clip-g2-0"><rect x="0" y="0" width="160" height="160"/></clipPath></defs><g clip-path="url(#clip-g2-0)"><rect x="0" y="0" width="160" height="160" fill="#ffffff"/><g transform="matrix(1,0,0,1,40,40)"><circle cx="40" cy="40" r="40" fill="#66b366"/></g><g transform="matrix(1,0,0,1,10,10)"><path d="M 8 0 L 42 0 C 46.418277998646346 0 50 3.5817220013536533 50 8 L 50 42 C 50 46.418277998646346 46.418277998646346 50 42 50 L 8 50 C 3.5817220013536533 50 0 46.418277998646346 0 42 L 0 8 C 0 3.5817220013536533 3.5817220013536533 0 8 0 Z" fill="#e64d99"/></g></g></g></g></g></g></svg>