<svg xmlns="http://www.w3.org/2000/svg" width="200" height="200" viewBox="0 0 200 200"><g><defs><clipPath id="clip-g89-0"><rect x="0" y="0" width="200" height="200"/></clipPath></defs><rect x="0" y="0" width="200" height="200" fill="#ffffff"/><g transform="matrix(1,0,0,1,40,40)"><path d="M 10 0 L 110 0 C 115.52284749830794 0 120 4.477152501692067 120 10 L 120 110 C 120 115.52284749830794 115.52284749830794 120 110 120 L 10 120 C 4.477152501692067 120 0 115.52284749830794 0 110 L 0 10 C 0 4.477152501692067 4.477152501692067 0 10 0 Z" fill="#3380cc"/></g><g transform="matrix(1,0,0,1,60,60)"><circle cx="50" cy="50" r="50" fill="#e64d4d"/></g><g transform="matrix(1,0,0,1,20,20)"><path d="M 8 0 L 72 0 C 76.41827799864635 0 80 3.5817220013536533 80 8 L 80 72 C 80 76.41827799864635 76.41827799864635 80 72 80 L 8 80 C 3.5817220013536533 80 0 76.41827799864635 0 72 L 0 8 C 0 3.5817220013536533 3.5817220013536533 0 8 0 Z" fill="#ffcc00"/></g></g></svg>