<svg xmlns="http://www.w3.org/2000/svg" width="200" height="200" viewBox="0 0 200 200"><g><defs><clipPath id="clip-g1-1"><rect x="0" y="0" width="200" height="200"/></clipPath></defs><rect x="0" y="0" width="200" height="200" fill="#ffffff"/><g transform="matrix(1,0,0,1,20,20)"><defs><clipPath id="clip-g1-0"><rect x="0" y="0" width="160" height="160"/></clipPath></defs><g clip-path="url(#clip-g1-0)"><rect x="0" y="0" width="160" height="160" fill="#f0f0f0"/><g transform="matrix(1,0,0,1,40,40)"><circle cx="40" cy="40" r="40" fill="#ffcc00"/></g><g transform="matrix(1,0,0,1,10,90)"><path d="M 6 0 L 54 0 C 57.31370849898476 0 60 2.6862915010152397 60 6 L 60 54 C 60 57.31370849898476 57.31370849898476 60 54 60 L 6 60 C 2.6862915010152397 60 0 57.31370849898476 0 54 L 0 6 C 0 2.6862915010152397 2.6862915010152397 0 6 0 Z" fill="#4db34d"/></g></g></g></g></svg>