<svg xmlns="http://www.w3.org/2000/svg" width="200" height="160" viewBox="0 0 200 160"><g><defs><clipPath id="clip-g10-1"><rect x="0" y="0" width="200" height="160"/></clipPath></defs><rect x="0" y="0" width="200" height="160" fill="#f2f2f2"/><g transform="matrix(1,0,0,1,40,35)"><defs><linearGradient id="lg-g10-0" x1="120" y1="45" x2="0" y2="45" gradientUnits="userSpaceOnUse"><stop offset="0%" stop-color="#3366e6"/><stop offset="100%" stop-color="#33cc80"/></linearGradient></defs><path d="M12 0C5.372582912445 0 0 5.372582912445 0 12L0 78C0 84.627418518066 5.372582912445 90 12 90L108 90C114.627418518066 90 120 84.627418518066 120 78L120 12C120 5.372582912445 114.627418518066 0 108 0L12 0M60 25C71.045694351196 25 80 33.954304695129 80 45C80 56.045694351196 71.045694351196 65 60 65C48.954304695129 65 40 56.045694351196 40 45C40 33.954304695129 48.954304695129 25 60 25" fill-rule="evenodd" fill="url(#lg-g10-0)"/></g></g></svg>