<svg xmlns="http://www.w3.org/2000/svg" width="160" height="140" viewBox="0 0 160 140"><g><defs><clipPath id="clip-g149-4"><rect x="0" y="0" width="160" height="140"/></clipPath></defs><rect x="0" y="0" width="160" height="140" fill="#f2f2f2"/><g transform="matrix(1,0,0,1,20,20)"><defs><clipPath id="clip-g149-3"><rect x="0" y="0" width="120" height="100"/></clipPath></defs><g clip-path="url(#clip-g149-3)"><rect x="0" y="0" width="120" height="100" fill="#ffffff"/><g transform="matrix(1,0,0,1,30,30)" filter="url(#filter-g149-2)" style="isolation:isolate"><defs><filter id="filter-g149-2" x="-16" y="-8" width="112" height="92" filterUnits="userSpaceOnUse" color-interpolation-filters="sRGB"><feColorMatrix in="SourceAlpha" type="matrix" values="0 0 0 0 0 0 0 0 0 0 0 0 0 0 0 0 0 0 127 0" result="hardAlpha-g149-0"/><feOffset in="hardAlpha-g149-0" dx="0" dy="8"/><feGaussianBlur stdDeviation="8"/><feColorMatrix type="matrix" values="0 0 0 0 0 0 0 0 0 0 0 0 0 0 0 0 0 0 0.30000001192092896 0" result="drop-tinted-g149-1"/><feMerge><feMergeNode in="drop-tinted-g149-1"/><feMergeNode in="SourceGraphic"/></feMerge></filter></defs><path d="M 8 0 L 72 0 C 76.41827799864635 0 80 3.5817220013536533 80 8 L 80 52 C 80 56.418277998646346 76.41827799864635 60 72 60 L 8 60 C 3.5817220013536533 60 0 56.418277998646346 0 52 L 0 8 C 0 3.5817220013536533 3.5817220013536533 0 8 0 Z" fill="#3366e6"/></g></g></g></g></svg>