<svg xmlns="http://www.w3.org/2000/svg" width="160" height="120" viewBox="0 0 160 120"><g><defs><clipPath id="clip-g153-1"><rect x="0" y="0" width="160" height="120"/></clipPath></defs><rect x="0" y="0" width="160" height="120" fill="#f2f2f2"/><g transform="matrix(1,0,0,1,20,20)"><rect x="0" y="0" width="120" height="80" fill="#e63333"/></g><g transform="matrix(1,0,0,1,40,30)" opacity="0.6000000238418579"><defs><linearGradient id="lg-g153-0" x1="100" y1="30" x2="0" y2="30" gradientUnits="userSpaceOnUse"><stop offset="0%" stop-color="#3366e6"/><stop offset="100%" stop-color="#33cc80"/></linearGradient></defs><path d="M 8 0 L 92 0 C 96.41827799864635 0 100 3.5817220013536533 100 8 L 100 52 C 100 56.418277998646346 96.41827799864635 60 92 60 L 8 60 C 3.5817220013536533 60 0 56.418277998646346 0 52 L 0 8 C 0 3.5817220013536533 3.5817220013536533 0 8 0 Z" fill="url(#lg-g153-0)"/></g></g></svg>