<svg xmlns="http://www.w3.org/2000/svg" width="360" height="120" viewBox="0 0 360 120"><g><defs><clipPath id="clip-g12-10"><rect x="0" y="0" width="360" height="120"/></clipPath></defs><rect x="0" y="0" width="360" height="120" fill="#f2f2f2"/><g transform="matrix(1,0,0,1,10,20)"><defs><clipPath id="clip-g12-4"><path d="M 12 0 L 128 0 C 134.62741699796953 0 140 5.3725830020304794 140 12 L 140 68 C 140 74.62741699796952 134.62741699796953 80 128 80 L 12 80 C 5.3725830020304794 80 0 74.62741699796952 0 68 L 0 12 C 0 5.3725830020304794 5.3725830020304794 0 12 0 Z"/></clipPath></defs><g clip-path="url(#clip-g12-4)"><path d="M 12 0 L 128 0 C 134.62741699796953 0 140 5.3725830020304794 140 12 L 140 68 C 140 74.62741699796952 134.62741699796953 80 128 80 L 12 80 C 5.3725830020304794 80 0 74.62741699796952 0 68 L 0 12 C 0 5.3725830020304794 5.3725830020304794 0 12 0 Z" fill="#ffffff"/><g filter="url(#filter-g12-2)" style="isolation:isolate"><defs><filter id="filter-g12-2" x="-8" y="-4" width="156" height="96" filterUnits="userSpaceOnUse" color-interpolation-filters="sRGB"><feColorMatrix in="SourceAlpha" type="matrix" values="0 0 0 0 0 0 0 0 0 0 0 0 0 0 0 0 0 0 127 0" result="hardAlpha-g12-0"/><feOffset in="hardAlpha-g12-0" dx="0" dy="4"/><feGaussianBlur stdDeviation="4"/><feColorMatrix type="matrix" values="0 0 0 0 0 0 0 0 0 0 0 0 0 0 0 0 0 0 0.20000000298023224 0" result="drop-tinted-g12-1"/><feMerge><feMergeNode in="drop-tinted-g12-1"/><feMergeNode in="SourceGraphic"/></feMerge></filter><linearGradient id="lg-g12-3" x1="140" y1="40" x2="0" y2="40" gradientUnits="userSpaceOnUse"><stop offset="0%" stop-color="#3366e6"/><stop offset="100%" stop-color="#33cc80"/></linearGradient></defs><path d="M 12 0 L 128 0 C 134.62741699796953 0 140 5.3725830020304794 140 12 L 140 68 C 140 74.62741699796952 134.62741699796953 80 128 80 L 12 80 C 5.3725830020304794 80 0 74.62741699796952 0 68 L 0 12 C 0 5.3725830020304794 5.3725830020304794 0 12 0 Z" fill="url(#lg-g12-3)"/></g></g></g><g transform="matrix(1,0,0,1,170,20)"><defs><clipPath id="clip-g12-9"><path d="M 12 0 L 128 0 C 134.62741699796953 0 140 5.3725830020304794 140 12 L 140 68 C 140 74.62741699796952 134.62741699796953 80 128 80 L 12 80 C 5.3725830020304794 80 0 74.62741699796952 0 68 L 0 12 C 0 5.3725830020304794 5.3725830020304794 0 12 0 Z"/></clipPath></defs><g clip-path="url(#clip-g12-9)"><path d="M 12 0 L 128 0 C 134.62741699796953 0 140 5.3725830020304794 140 12 L 140 68 C 140 74.62741699796952 134.62741699796953 80 128 80 L 12 80 C 5.3725830020304794 80 0 74.62741699796952 0 68 L 0 12 C 0 5.3725830020304794 5.3725830020304794 0 12 0 Z" fill="#ffffff"/><g filter="url(#filter-g12-7)" style="isolation:isolate"><defs><filter id="filter-g12-7" x="-8" y="-4" width="156" height="96" filterUnits="userSpaceOnUse" color-interpolation-filters="sRGB"><feColorMatrix in="SourceAlpha" type="matrix" values="0 0 0 0 0 0 0 0 0 0 0 0 0 0 0 0 0 0 127 0" result="hardAlpha-g12-5"/><feOffset in="hardAlpha-g12-5" dx="0" dy="4"/><feGaussianBlur stdDeviation="4"/><feColorMatrix type="matrix" values="0 0 0 0 0 0 0 0 0 0 0 0 0 0 0 0 0 0 0.20000000298023224 0" result="drop-tinted-g12-6"/><feMerge><feMergeNode in="drop-tinted-g12-6"/><feMergeNode in="SourceGraphic"/></feMerge></filter><linearGradient id="lg-g12-8" x1="140" y1="40" x2="0" y2="40" gradientUnits="userSpaceOnUse"><stop offset="0%" stop-color="#3366e6"/><stop offset="100%" stop-color="#33cc80"/></linearGradient></defs><path d="M 12 0 L 128 0 C 134.62741699796953 0 140 5.3725830020304794 140 12 L 140 68 C 140 74.62741699796952 134.62741699796953 80 128 80 L 12 80 C 5.3725830020304794 80 0 74.62741699796952 0 68 L 0 12 C 0 5.3725830020304794 5.3725830020304794 0 12 0 Z" fill="url(#lg-g12-8)"/></g></g></g></g></svg>