<svg xmlns="http://www.w3.org/2000/svg" width="300" height="100" viewBox="0 0 300 100"><g><defs><clipPath id="clip-g13-2"><rect x="0" y="0" width="300" height="100"/></clipPath></defs><rect x="0" y="0" width="300" height="100" fill="#ffffff"/><g transform="matrix(1,0,0,1,15,28)"><defs><clipPath id="clip-g13-0"><path d="M 8 0 L 112 0 C 116.41827799864635 0 120 3.5817220013536533 120 8 L 120 36 C 120 40.418277998646346 116.41827799864635 44 112 44 L 8 44 C 3.5817220013536533 44 0 40.418277998646346 0 36 L 0 8 C 0 3.5817220013536533 3.5817220013536533 0 8 0 Z"/></clipPath></defs><g clip-path="url(#clip-g13-0)"><path d="M 8 0 L 112 0 C 116.41827799864635 0 120 3.5817220013536533 120 8 L 120 36 C 120 40.418277998646346 116.41827799864635 44 112 44 L 8 44 C 3.5817220013536533 44 0 40.418277998646346 0 36 L 0 8 C 0 3.5817220013536533 3.5817220013536533 0 8 0 Z" fill="#3366e6"/><path d="M 8 0 L 112 0 C 116.41827799864635 0 120 3.5817220013536533 120 8 L 120 36 C 120 40.418277998646346 116.41827799864635 44 112 44 L 8 44 C 3.5817220013536533 44 0 40.418277998646346 0 36 L 0 8 C 0 3.5817220013536533 3.5817220013536533 0 8 0 Z" fill="#3366e6"/></g></g><g transform="matrix(1,0,0,1,160,28)"><defs><clipPath id="clip-g13-1"><path d="M 8 0 L 112 0 C 116.41827799864635 0 120 3.5817220013536533 120 8 L 120 36 C 120 40.418277998646346 116.41827799864635 44 112 44 L 8 44 C 3.5817220013536533 44 0 40.418277998646346 0 36 L 0 8 C 0 3.5817220013536533 3.5817220013536533 0 8 0 Z"/></clipPath></defs><g clip-path="url(#clip-g13-1)"><path d="M 8 0 L 112 0 C 116.41827799864635 0 120 3.5817220013536533 120 8 L 120 36 C 120 40.418277998646346 116.41827799864635 44 112 44 L 8 44 C 3.5817220013536533 44 0 40.418277998646346 0 36 L 0 8 C 0 3.5817220013536533 3.5817220013536533 0 8 0 Z" fill="#3366e6"/><path d="M 8 0 L 112 0 C 116.41827799864635 0 120 3.5817220013536533 120 8 L 120 36 C 120 40.418277998646346 116.41827799864635 44 112 44 L 8 44 C 3.5817220013536533 44 0 40.418277998646346 0 36 L 0 8 C 0 3.5817220013536533 3.5817220013536533 0 8 0 Z" fill="#3366e6"/></g></g></g></svg>