<svg xmlns="http://www.w3.org/2000/svg" width="260" height="84" viewBox="0 0 260 84"><g><defs><clipPath id="clip-g11-3"><rect x="0" y="0" width="260" height="84"/></clipPath></defs><g clip-path="url(#clip-g11-3)"><rect x="0" y="0" width="260" height="84" fill="#ffffff"/><g transform="matrix(1,0,0,1,10,10)"><defs><clipPath id="clip-g11-0"><path d="M 32 0 L 32 0 C 49.67311199458538 0 64 14.326888005414613 64 32 L 64 32 C 64 49.67311199458538 49.67311199458538 64 32 64 L 32 64 C 14.326888005414613 64 0 49.67311199458538 0 32 L 0 32 C 0 14.326888005414613 14.326888005414613 0 32 0 Z"/></clipPath></defs><g clip-path="url(#clip-g11-0)"><path d="M 32 0 L 32 0 C 49.67311199458538 0 64 14.326888005414613 64 32 L 64 32 C 64 49.67311199458538 49.67311199458538 64 32 64 L 32 64 C 14.326888005414613 64 0 49.67311199458538 0 32 L 0 32 C 0 14.326888005414613 14.326888005414613 0 32 0 Z" fill="#c7c7cc"/><g transform="matrix(1,0,0,1,-8,-8)"><rect x="0" y="0" width="80" height="80" fill="#af52de"/></g><g transform="matrix(1,0,0,1,22,22)"><circle cx="10" cy="10" r="10" fill="#ff9500"/></g></g></g><g transform="matrix(1,0,0,1,94,10)"><defs><clipPath id="clip-g11-1"><path d="M 32 0 L 32 0 C 49.67311199458538 0 64 14.326888005414613 64 32 L 64 32 C 64 49.67311199458538 49.67311199458538 64 32 64 L 32 64 C 14.326888005414613 64 0 49.67311199458538 0 32 L 0 32 C 0 14.326888005414613 14.326888005414613 0 32 0 Z"/></clipPath></defs><g clip-path="url(#clip-g11-1)"><path d="M 32 0 L 32 0 C 49.67311199458538 0 64 14.326888005414613 64 32 L 64 32 C 64 49.67311199458538 49.67311199458538 64 32 64 L 32 64 C 14.326888005414613 64 0 49.67311199458538 0 32 L 0 32 C 0 14.326888005414613 14.326888005414613 0 32 0 Z" fill="#c7c7cc"/><g transform="matrix(1,0,0,1,-8,-8)"><rect x="0" y="0" width="80" height="80" fill="#af52de"/></g><g transform="matrix(1,0,0,1,22,22)"><circle cx="10" cy="10" r="10" fill="#ff9500"/></g></g></g><g transform="matrix(1,0,0,1,178,10)"><defs><clipPath id="clip-g11-2"><path d="M 32 0 L 32 0 C 49.67311199458538 0 64 14.326888005414613 64 32 L 64 32 C 64 49.67311199458538 49.67311199458538 64 32 64 L 32 64 C 14.326888005414613 64 0 49.67311199458538 0 32 L 0 32 C 0 14.326888005414613 14.326888005414613 0 32 0 Z"/></clipPath></defs><g clip-path="url(#clip-g11-2)"><path d="M 32 0 L 32 0 C 49.67311199458538 0 64 14.326888005414613 64 32 L 64 32 C 64 49.67311199458538 49.67311199458538 64 32 64 L 32 64 C 14.326888005414613 64 0 49.67311199458538 0 32 L 0 32 C 0 14.326888005414613 14.326888005414613 0 32 0 Z" fill="#c7c7cc"/><g transform="matrix(1,0,0,1,-8,-8)"><rect x="0" y="0" width="80" height="80" fill="#af52de"/></g><g transform="matrix(1,0,0,1,22,22)"><circle cx="10" cy="10" r="10" fill="#ff9500"/></g></g></g></g></g></svg>