<svg xmlns="http://www.w3.org/2000/svg" width="200" height="140" viewBox="0 0 200 140"><defs><clipPath id="clip-0"><rect x="0" y="0" width="200" height="140" rx="24" fill="black"/></clipPath></defs><g><rect x="0" y="0" width="200" height="140" rx="24" fill="#ffffff"/><g clip-path="url(#clip-0)"><path d="M 0.00 0.00 L 60.00 0.00 L 60.00 40.00 L 0.00 40.00 L 0.00 0.00" fill-rule="nonzero" fill="#ff3b30"/><path d="M 0.00 0.00 L 60.00 0.00 L 60.00 40.00 L 0.00 40.00 L 0.00 0.00" fill-rule="nonzero" transform="matrix(1, 0, 0, 1, 140, 0)" fill="#34c759"/><path d="M 0.00 0.00 L 60.00 0.00 L 60.00 40.00 L 0.00 40.00 L 0.00 0.00" fill-rule="nonzero" transform="matrix(1, 0, 0, 1, 0, 100)" fill="#007aff"/><path d="M 0.00 0.00 L 60.00 0.00 L 60.00 40.00 L 0.00 40.00 L 0.00 0.00" fill-rule="nonzero" transform="matrix(1, 0, 0, 1, 140, 100)" fill="#ff9500"/><ellipse cx="40" cy="30" rx="40" ry="30" transform="matrix(1, 0, 0, 1, 60, 40)" fill="#af52de"/></g></g></svg>