<svg xmlns="http://www.w3.org/2000/svg" width="300" height="220" viewBox="0 0 300 220"><defs><clipPath id="clip-0"><rect x="0" y="0" width="280" height="48" fill="black"/></clipPath><clipPath id="clip-1"><rect x="0" y="0" width="280" height="120" fill="black"/></clipPath><clipPath id="clip-2"><rect x="0" y="0" width="280" height="200" rx="16" fill="black"/></clipPath><clipPath id="clip-3"><path d="M 0.00 0.00 L 300.00 0.00 L 300.00 220.00 L 0.00 220.00 L 0.00 0.00" fill-rule="nonzero" fill="black"/></clipPath></defs><g><path d="M 0.00 0.00 L 300.00 0.00 L 300.00 220.00 L 0.00 220.00 L 0.00 0.00" fill-rule="nonzero" fill="#f2f2f7"/><g clip-path="url(#clip-3)"><g transform="matrix(1, 0, 0, 1, 10, 10)"><rect x="0" y="0" width="280" height="200" rx="16" fill="#ffffff"/><g clip-path="url(#clip-2)"><g><rect x="0" y="0" width="280" height="48" fill="#007aff"/><g clip-path="url(#clip-0)"><path d="M 0.00 0.00 L 280.00 0.00 L 280.00 4.00 L 0.00 4.00 L 0.00 0.00" fill-rule="nonzero" transform="matrix(1, 0, 0, 1, 0, 44)" opacity="0.10000000149011612" fill="#000000"/></g></g><g transform="matrix(1, 0, 0, 1, 0, 48)"><rect x="0" y="0" width="280" height="120" fill="#ffffff"/><g clip-path="url(#clip-1)"><path d="M 8.00 0.00 L 112.00 0.00 C 116.42 0.00 120.00 3.58 120.00 8.00 L 120.00 72.00 C 120.00 76.42 116.42 80.00 112.00 80.00 L 8.00 80.00 C 3.58 80.00 0.00 76.42 0.00 72.00 L 0.00 8.00 C 0.00 3.58 3.58 0.00 8.00 0.00" fill-rule="nonzero" transform="matrix(1, 0, 0, 1, 16, 16)" fill="#f2f2f7"/><path d="M 8.00 0.00 L 112.00 0.00 C 116.42 0.00 120.00 3.58 120.00 8.00 L 120.00 72.00 C 120.00 76.42 116.42 80.00 112.00 80.00 L 8.00 80.00 C 3.58 80.00 0.00 76.42 0.00 72.00 L 0.00 8.00 C 0.00 3.58 3.58 0.00 8.00 0.00" fill-rule="nonzero" transform="matrix(1, 0, 0, 1, 144, 16)" fill="#f2f2f7"/></g></g><path d="M 0.00 0.00 L 280.00 0.00 L 280.00 32.00 L 0.00 32.00 L 0.00 0.00" fill-rule="nonzero" transform="matrix(1, 0, 0, 1, 0, 168)" fill="#f2f2f7"/></g></g></g></g></svg>