<svg xmlns="http://www.w3.org/2000/svg" width="200" height="200" viewBox="0 0 200 200"><g><defs><clipPath id="clip-g4-1"><rect x="0" y="0" width="200" height="200"/></clipPath></defs><g clip-path="url(#clip-g4-1)"><rect x="0" y="0" width="200" height="200" fill="#ffffff"/><g transform="matrix(1,0,0,1,20,20)"><defs><clipPath id="clip-g4-0"><rect x="0" y="0" width="160" height="160"/></clipPath></defs><g clip-path="url(#clip-g4-0)"><rect x="0" y="0" width="160" height="160" fill="#ffffff"/><g transform="matrix(1,0,0,1,30,30)"><path d="M 10 0 L 90 0 C 95.52284749830794 0 100 4.477152501692067 100 10 L 100 90 C 100 95.52284749830794 95.52284749830794 100 90 100 L 10 100 C 4.477152501692067 100 0 95.52284749830794 0 90 L 0 10 C 0 4.477152501692067 4.477152501692067 0 10 0 Z" fill="#4d4de6"/></g><g transform="matrix(1,0,0,1,10,10)"><circle cx="30" cy="30" r="30" fill="#e6b300"/></g></g></g></g></g></svg>