<svg xmlns="http://www.w3.org/2000/svg" width="1200" height="800" viewBox="0 0 1200 800"><defs><clipPath id="clip-0"><rect x="0" y="0" width="200" height="120" rx="12" fill="black"/></clipPath><clipPath id="clip-1"><rect x="0" y="0" width="300" height="100" rx="8" fill="black"/></clipPath><clipPath id="clip-2"><rect x="0" y="0" width="240" height="120" rx="10" fill="black"/></clipPath><clipPath id="clip-3"><rect x="0" y="0" width="320" height="200" rx="12" fill="black"/></clipPath><clipPath id="clip-4"><path d="M 0.00 0.00 L 340.00 0.00 L 340.00 220.00 L 0.00 220.00 L 0.00 0.00" fill-rule="nonzero" fill="black"/></clipPath><clipPath id="clip-5"><rect x="0" y="0" width="120" height="80" rx="12" fill="black"/></clipPath><clipPath id="clip-6"><path d="M 0.00 0.00 L 140.00 0.00 L 140.00 100.00 L 0.00 100.00 L 0.00 0.00" fill-rule="nonzero" fill="black"/></clipPath><clipPath id="clip-7"><rect x="0" y="0" width="400" height="140" rx="8" fill="black"/></clipPath><clipPath id="clip-8"><path d="M 0.00 0.00 L 420.00 0.00 L 420.00 160.00 L 0.00 160.00 L 0.00 0.00" fill-rule="nonzero" fill="black"/></clipPath><clipPath id="clip-9"><rect x="0" y="0" width="200" height="60" rx="8" fill="black"/></clipPath><clipPath id="clip-10"><path d="M 0.00 0.00 L 220.00 0.00 L 220.00 80.00 L 0.00 80.00 L 0.00 0.00" fill-rule="nonzero" fill="black"/></clipPath><clipPath id="clip-11"><rect x="0" y="0" width="360" height="180" rx="10" fill="black"/></clipPath><clipPath id="clip-12"><path d="M 0.00 0.00 L 380.00 0.00 L 380.00 200.00 L 0.00 200.00 L 0.00 0.00" fill-rule="nonzero" fill="black"/></clipPath><clipPath id="clip-13"><rect x="0" y="0" width="180" height="100" rx="10" fill="black"/></clipPath><clipPath id="clip-14"><path d="M 0.00 0.00 L 200.00 0.00 L 200.00 120.00 L 0.00 120.00 L 0.00 0.00" fill-rule="nonzero" fill="black"/></clipPath><clipPath id="clip-15"><rect x="0" y="0" width="200" height="120" rx="12" fill="black"/></clipPath><clipPath id="clip-16"><path d="M 0.00 0.00 L 220.00 0.00 L 220.00 140.00 L 0.00 140.00 L 0.00 0.00" fill-rule="nonzero" fill="black"/></clipPath></defs><g><rect x="0" y="0" width="200" height="120" rx="12" fill="#ffffff"/><g clip-path="url(#clip-0)"><path d="M 6.00 0.00 L 134.00 0.00 C 137.31 0.00 140.00 2.69 140.00 6.00 L 140.00 64.00 C 140.00 67.31 137.31 70.00 134.00 70.00 L 6.00 70.00 C 2.69 70.00 0.00 67.31 0.00 64.00 L 0.00 6.00 C 0.00 2.69 2.69 0.00 6.00 0.00" fill-rule="nonzero" transform="matrix(1, 0, 0, 1, 10, 15)" fill="#ff3b30"/></g></g><g transform="matrix(1, 0, 0, 1, 300, 0)"><rect x="0" y="0" width="300" height="100" rx="8" fill="#f2f2f7"/><g clip-path="url(#clip-1)"><path d="M 4.00 0.00 L 196.00 0.00 C 198.21 0.00 200.00 1.79 200.00 4.00 L 200.00 46.00 C 200.00 48.21 198.21 50.00 196.00 50.00 L 4.00 50.00 C 1.79 50.00 0.00 48.21 0.00 46.00 L 0.00 4.00 C 0.00 1.79 1.79 0.00 4.00 0.00" fill-rule="nonzero" transform="matrix(1, 0, 0, 1, 30, 10)" fill="#34c759"/></g></g><g transform="matrix(1, 0, 0, 1, 600, 0)"><rect x="0" y="0" width="240" height="120" rx="10" fill="#ffffff"/><g clip-path="url(#clip-2)"><path d="M 4.00 0.00 L 96.00 0.00 C 98.21 0.00 100.00 1.79 100.00 4.00 L 100.00 36.00 C 100.00 38.21 98.21 40.00 96.00 40.00 L 4.00 40.00 C 1.79 40.00 0.00 38.21 0.00 36.00 L 0.00 4.00 C 0.00 1.79 1.79 0.00 4.00 0.00" fill-rule="nonzero" transform="matrix(1, 0, 0, 1, 10, 10)" fill="#007aff"/><path d="M 4.00 0.00 L 96.00 0.00 C 98.21 0.00 100.00 1.79 100.00 4.00 L 100.00 36.00 C 100.00 38.21 98.21 40.00 96.00 40.00 L 4.00 40.00 C 1.79 40.00 0.00 38.21 0.00 36.00 L 0.00 4.00 C 0.00 1.79 1.79 0.00 4.00 0.00" fill-rule="nonzero" transform="matrix(1, 0, 0, 1, 130, 70)" fill="#ff9500"/></g></g><g transform="matrix(1, 0, 0, 1, 50, 650)"><path d="M 0.00 0.00 L 340.00 0.00 L 340.00 220.00 L 0.00 220.00 L 0.00 0.00" fill-rule="nonzero" fill="#f2f2f7"/><g clip-path="url(#clip-4)"><g transform="matrix(1, 0, 0, 1, 10, 10)"><rect x="0" y="0" width="320" height="200" rx="12" fill="#ffffff"/><g clip-path="url(#clip-3)"><rect x="0" y="0" width="260" height="150" rx="6" ry="6" transform="matrix(1, 0, 0, 1, 10, 15)" fill="#ff3b30"/></g></g></g></g><g transform="matrix(1, 0, 0, 1, 420, 650)"><path d="M 0.00 0.00 L 140.00 0.00 L 140.00 100.00 L 0.00 100.00 L 0.00 0.00" fill-rule="nonzero" fill="#f2f2f7"/><g clip-path="url(#clip-6)"><g transform="matrix(1, 0, 0, 1, 10, 10)"><rect x="0" y="0" width="120" height="80" rx="12" fill="#ffffff"/><g clip-path="url(#clip-5)"><rect x="0" y="0" width="60" height="30" rx="6" ry="6" transform="matrix(1, 0, 0, 1, 10, 15)" fill="#ff3b30"/></g></g></g></g><g transform="matrix(1, 0, 0, 1, 50, 900)"><path d="M 0.00 0.00 L 420.00 0.00 L 420.00 160.00 L 0.00 160.00 L 0.00 0.00" fill-rule="nonzero" fill="#ffffff"/><g clip-path="url(#clip-8)"><g transform="matrix(1, 0, 0, 1, 10, 10)"><rect x="0" y="0" width="400" height="140" rx="8" fill="#f2f2f7"/><g clip-path="url(#clip-7)"><rect x="0" y="0" width="300" height="90" rx="4" ry="4" transform="matrix(1, 0, 0, 1, 30, 10)" fill="#34c759"/></g></g></g></g><g transform="matrix(1, 0, 0, 1, 500, 900)"><path d="M 0.00 0.00 L 220.00 0.00 L 220.00 80.00 L 0.00 80.00 L 0.00 0.00" fill-rule="nonzero" fill="#ffffff"/><g clip-path="url(#clip-10)"><g transform="matrix(1, 0, 0, 1, 10, 10)"><rect x="0" y="0" width="200" height="60" rx="8" fill="#f2f2f7"/><g clip-path="url(#clip-9)"><rect x="0" y="0" width="100" height="10" rx="4" ry="4" transform="matrix(1, 0, 0, 1, 30, 10)" fill="#34c759"/></g></g></g></g><g transform="matrix(1, 0, 0, 1, 50, 1090)"><path d="M 0.00 0.00 L 380.00 0.00 L 380.00 200.00 L 0.00 200.00 L 0.00 0.00" fill-rule="nonzero" fill="#f2f2f7"/><g clip-path="url(#clip-12)"><g transform="matrix(1, 0, 0, 1, 10, 10)"><rect x="0" y="0" width="360" height="180" rx="10" fill="#ffffff"/><g clip-path="url(#clip-11)"><rect x="0" y="0" width="220" height="40" rx="4" ry="4" transform="matrix(1, 0, 0, 1, 10, 10)" fill="#007aff"/><rect x="0" y="0" width="220" height="40" rx="4" ry="4" transform="matrix(1, 0, 0, 1, 130, 130)" fill="#ff9500"/></g></g></g></g><g transform="matrix(1, 0, 0, 1, 460, 1090)"><path d="M 0.00 0.00 L 200.00 0.00 L 200.00 120.00 L 0.00 120.00 L 0.00 0.00" fill-rule="nonzero" fill="#f2f2f7"/><g clip-path="url(#clip-14)"><g transform="matrix(1, 0, 0, 1, 10, 10)"><rect x="0" y="0" width="180" height="100" rx="10" fill="#ffffff"/><g clip-path="url(#clip-13)"><rect x="0" y="0" width="40" height="40" rx="4" ry="4" transform="matrix(1, 0, 0, 1, 10, 10)" fill="#007aff"/><rect x="0" y="0" width="40" height="40" rx="4" ry="4" transform="matrix(1, 0, 0, 1, 130, 50)" fill="#ff9500"/></g></g></g></g><g transform="matrix(1, 0, 0, 1, 50, 1320)"><path d="M 0.00 0.00 L 220.00 0.00 L 220.00 140.00 L 0.00 140.00 L 0.00 0.00" fill-rule="nonzero" fill="#ffffff"/><g clip-path="url(#clip-16)"><g transform="matrix(1, 0, 0, 1, 10, 10)"><rect x="0" y="0" width="200" height="120" rx="12" fill="#ffffff"/><g clip-path="url(#clip-15)"><path d="M 6.00 0.00 L 134.00 0.00 C 137.31 0.00 140.00 2.69 140.00 6.00 L 140.00 64.00 C 140.00 67.31 137.31 70.00 134.00 70.00 L 6.00 70.00 C 2.69 70.00 0.00 67.31 0.00 64.00 L 0.00 6.00 C 0.00 2.69 2.69 0.00 6.00 0.00" fill-rule="nonzero" transform="matrix(1, 0, 0, 1, 10, 15)" fill="#ff3b30"/></g></g></g></g></svg>