<svg xmlns="http://www.w3.org/2000/svg" width="220" height="140" viewBox="0 0 220 140"><g><defs><clipPath id="clip-g256-1"><rect x="0" y="0" width="220" height="140"/></clipPath></defs><rect x="0" y="0" width="220" height="140" fill="#ffffff"/><g transform="matrix(1,0,0,1,10,10)"><defs><clipPath id="clip-g256-0"><path d="M 12 0 L 188 0 C 194.62741699796953 0 200 5.3725830020304794 200 12 L 200 108 C 200 114.62741699796952 194.62741699796953 120 188 120 L 12 120 C 5.3725830020304794 120 0 114.62741699796952 0 108 L 0 12 C 0 5.3725830020304794 5.3725830020304794 0 12 0 Z"/></clipPath></defs><g clip-path="url(#clip-g256-0)"><path d="M 12 0 L 188 0 C 194.62741699796953 0 200 5.3725830020304794 200 12 L 200 108 C 200 114.62741699796952 194.62741699796953 120 188 120 L 12 120 C 5.3725830020304794 120 0 114.62741699796952 0 108 L 0 12 C 0 5.3725830020304794 5.3725830020304794 0 12 0 Z" fill="#ffffff"/><g transform="matrix(1,0,0,1,10,15)"><path d="M 6 0 L 134 0 C 137.31370849898477 0 140 2.6862915010152397 140 6 L 140 64 C 140 67.31370849898477 137.31370849898477 70 134 70 L 6 70 C 2.6862915010152397 70 0 67.31370849898477 0 64 L 0 6 C 0 2.6862915010152397 2.6862915010152397 0 6 0 Z" fill="#ff3b30"/></g></g></g></g></svg>