<svg xmlns="http://www.w3.org/2000/svg" width="220" height="80" viewBox="0 0 220 80"><g><defs><clipPath id="clip-g253-1"><rect x="0" y="0" width="220" height="80"/></clipPath></defs><rect x="0" y="0" width="220" height="80" fill="#ffffff"/><g transform="matrix(1,0,0,1,10,10)"><defs><clipPath id="clip-g253-0"><path d="M 8 0 L 192 0 C 196.41827799864635 0 200 3.5817220013536533 200 8 L 200 52 C 200 56.418277998646346 196.41827799864635 60 192 60 L 8 60 C 3.5817220013536533 60 0 56.418277998646346 0 52 L 0 8 C 0 3.5817220013536533 3.5817220013536533 0 8 0 Z"/></clipPath></defs><g clip-path="url(#clip-g253-0)"><path d="M 8 0 L 192 0 C 196.41827799864635 0 200 3.5817220013536533 200 8 L 200 52 C 200 56.418277998646346 196.41827799864635 60 192 60 L 8 60 C 3.5817220013536533 60 0 56.418277998646346 0 52 L 0 8 C 0 3.5817220013536533 3.5817220013536533 0 8 0 Z" fill="#f2f2f7"/><g transform="matrix(1,0,0,1,30,10)"><path d="M 4 0 L 96 0 C 98.20913899932317 0 100 1.7908610006768266 100 4 L 100 6 C 100 8.209138999323173 98.20913899932317 10 96 10 L 4 10 C 1.7908610006768266 10 0 8.209138999323173 0 6 L 0 4 C 0 1.7908610006768266 1.7908610006768266 0 4 0 Z" fill="#34c759"/></g></g></g></g></svg>