<svg xmlns="http://www.w3.org/2000/svg" width="340" height="220" viewBox="0 0 340 220"><g><defs><clipPath id="clip-g14-1"><rect x="0" y="0" width="340" height="220"/></clipPath></defs><rect x="0" y="0" width="340" height="220" fill="#f2f2f7"/><g transform="matrix(1,0,0,1,10,10)"><defs><clipPath id="clip-g14-0"><path d="M 12 0 L 308 0 C 314.62741699796953 0 320 5.3725830020304794 320 12 L 320 188 C 320 194.62741699796953 314.62741699796953 200 308 200 L 12 200 C 5.3725830020304794 200 0 194.62741699796953 0 188 L 0 12 C 0 5.3725830020304794 5.3725830020304794 0 12 0 Z"/></clipPath></defs><g clip-path="url(#clip-g14-0)"><path d="M 12 0 L 308 0 C 314.62741699796953 0 320 5.3725830020304794 320 12 L 320 188 C 320 194.62741699796953 314.62741699796953 200 308 200 L 12 200 C 5.3725830020304794 200 0 194.62741699796953 0 188 L 0 12 C 0 5.3725830020304794 5.3725830020304794 0 12 0 Z" fill="#ffffff"/><g transform="matrix(1,0,0,1,10,15)"><path d="M 6 0 L 254 0 C 257.31370849898474 0 260 2.6862915010152397 260 6 L 260 144 C 260 147.31370849898477 257.31370849898474 150 254 150 L 6 150 C 2.6862915010152397 150 0 147.31370849898477 0 144 L 0 6 C 0 2.6862915010152397 2.6862915010152397 0 6 0 Z" fill="#ff3b30"/></g></g></g></g></svg>