<svg xmlns="http://www.w3.org/2000/svg" width="240" height="120" viewBox="0 0 240 120"><defs><clipPath id="clip-0"><rect x="0" y="0" width="240" height="120" rx="10" fill="black"/></clipPath></defs><g><rect x="0" y="0" width="240" height="120" rx="10" fill="#ffffff"/><g clip-path="url(#clip-0)"><path d="M 4.00 0.00 L 96.00 0.00 C 98.21 0.00 100.00 1.79 100.00 4.00 L 100.00 36.00 C 100.00 38.21 98.21 40.00 96.00 40.00 L 4.00 40.00 C 1.79 40.00 0.00 38.21 0.00 36.00 L 0.00 4.00 C 0.00 1.79 1.79 0.00 4.00 0.00" fill-rule="nonzero" transform="matrix(1, 0, 0, 1, 10, 10)" fill="#007aff"/><path d="M 4.00 0.00 L 96.00 0.00 C 98.21 0.00 100.00 1.79 100.00 4.00 L 100.00 36.00 C 100.00 38.21 98.21 40.00 96.00 40.00 L 4.00 40.00 C 1.79 40.00 0.00 38.21 0.00 36.00 L 0.00 4.00 C 0.00 1.79 1.79 0.00 4.00 0.00" fill-rule="nonzero" transform="matrix(1, 0, 0, 1, 130, 70)" fill="#ff9500"/></g></g></svg>