<svg xmlns="http://www.w3.org/2000/svg" width="140" height="100" viewBox="0 0 140 100"><g><defs><clipPath id="clip-g251-1"><rect x="0" y="0" width="140" height="100"/></clipPath></defs><rect x="0" y="0" width="140" height="100" fill="#f2f2f7"/><g transform="matrix(1,0,0,1,10,10)"><defs><clipPath id="clip-g251-0"><path d="M 12 0 L 108 0 C 114.62741699796952 0 120 5.3725830020304794 120 12 L 120 68 C 120 74.62741699796952 114.62741699796952 80 108 80 L 12 80 C 5.3725830020304794 80 0 74.62741699796952 0 68 L 0 12 C 0 5.3725830020304794 5.3725830020304794 0 12 0 Z"/></clipPath></defs><g clip-path="url(#clip-g251-0)"><path d="M 12 0 L 108 0 C 114.62741699796952 0 120 5.3725830020304794 120 12 L 120 68 C 120 74.62741699796952 114.62741699796952 80 108 80 L 12 80 C 5.3725830020304794 80 0 74.62741699796952 0 68 L 0 12 C 0 5.3725830020304794 5.3725830020304794 0 12 0 Z" fill="#ffffff"/><g transform="matrix(1,0,0,1,10,15)"><path d="M 6 0 L 54 0 C 57.31370849898476 0 60 2.6862915010152397 60 6 L 60 24 C 60 27.31370849898476 57.31370849898476 30 54 30 L 6 30 C 2.6862915010152397 30 0 27.31370849898476 0 24 L 0 6 C 0 2.6862915010152397 2.6862915010152397 0 6 0 Z" fill="#ff3b30"/></g></g></g></g></svg>