<svg xmlns="http://www.w3.org/2000/svg" width="200" height="120" viewBox="0 0 200 120"><g><defs><clipPath id="clip-g19-1"><rect x="0" y="0" width="200" height="120"/></clipPath></defs><g clip-path="url(#clip-g19-1)"><rect x="0" y="0" width="200" height="120" fill="#f2f2f7"/><g transform="matrix(1,0,0,1,10,10)"><defs><clipPath id="clip-g19-0"><path d="M 10 0 L 170 0 C 175.52284749830793 0 180 4.477152501692067 180 10 L 180 90 C 180 95.52284749830794 175.52284749830793 100 170 100 L 10 100 C 4.477152501692067 100 0 95.52284749830794 0 90 L 0 10 C 0 4.477152501692067 4.477152501692067 0 10 0 Z"/></clipPath></defs><g clip-path="url(#clip-g19-0)"><path d="M 10 0 L 170 0 C 175.52284749830793 0 180 4.477152501692067 180 10 L 180 90 C 180 95.52284749830794 175.52284749830793 100 170 100 L 10 100 C 4.477152501692067 100 0 95.52284749830794 0 90 L 0 10 C 0 4.477152501692067 4.477152501692067 0 10 0 Z" fill="#ffffff"/><g transform="matrix(1,0,0,1,10,10)"><path d="M 4 0 L 36 0 C 38.20913899932317 0 40 1.7908610006768266 40 4 L 40 36 C 40 38.20913899932317 38.20913899932317 40 36 40 L 4 40 C 1.7908610006768266 40 0 38.20913899932317 0 36 L 0 4 C 0 1.7908610006768266 1.7908610006768266 0 4 0 Z" fill="#007aff"/></g><g transform="matrix(1,0,0,1,130,50)"><path d="M 4 0 L 36 0 C 38.20913899932317 0 40 1.7908610006768266 40 4 L 40 36 C 40 38.20913899932317 38.20913899932317 40 36 40 L 4 40 C 1.7908610006768266 40 0 38.20913899932317 0 36 L 0 4 C 0 1.7908610006768266 1.7908610006768266 0 4 0 Z" fill="#ff9500"/></g></g></g></g></g></svg>