<svg xmlns="http://www.w3.org/2000/svg" width="220" height="140" viewBox="0 0 220 140"><g><defs><clipPath id="clip-g13-1"><rect x="0" y="0" width="220" height="140"/></clipPath></defs><rect x="0" y="0" width="220" height="140" fill="#ffffff"/><g transform="matrix(1,0,0,1,10,10)"><defs><clipPath id="clip-g13-0"><path d="M 12 0 L 188 0 C 194.62741699796953 0 200 5.3725830020304794 200 12 L 200 108 C 200 114.62741699796952 194.62741699796953 120 188 120 L 12 120 C 5.3725830020304794 120 0 114.62741699796952 0 108 L 0 12 C 0 5.3725830020304794 5.3725830020304794 0 12 0 Z"/></clipPath></defs><g clip-path="url(#clip-g13-0)"><path d="M 12 0 L 188 0 C 194.62741699796953 0 200 5.3725830020304794 200 12 L 200 108 C 200 114.62741699796952 194.62741699796953 120 188 120 L 12 120 C 5.3725830020304794 120 0 114.62741699796952 0 108 L 0 12 C 0 5.3725830020304794 5.3725830020304794 0 12 0 Z" fill="#ffffff"/><g transform="matrix(1,0,0,1,70,40)"><ellipse cx="30" cy="20" rx="30" ry="20" fill="#af52de"/></g><g transform="matrix(1,0,0,1,20,20)" opacity="0.5"><ellipse cx="80" cy="40" rx="80" ry="40" fill="#ff9500"/></g></g></g></g></svg>