<svg xmlns="http://www.w3.org/2000/svg" width="320" height="200" viewBox="0 0 320 200"><g><defs><clipPath id="clip-g246-1"><rect x="0" y="0" width="320" height="200"/></clipPath></defs><rect x="0" y="0" width="320" height="200" fill="#f2f2f7"/><g transform="matrix(1,0,0,1,10,10)"><defs><clipPath id="clip-g246-0"><path d="M 12 0 L 288 0 C 294.62741699796953 0 300 5.3725830020304794 300 12 L 300 168 C 300 174.62741699796953 294.62741699796953 180 288 180 L 12 180 C 5.3725830020304794 180 0 174.62741699796953 0 168 L 0 12 C 0 5.3725830020304794 5.3725830020304794 0 12 0 Z"/></clipPath></defs><g clip-path="url(#clip-g246-0)"><path d="M 12 0 L 288 0 C 294.62741699796953 0 300 5.3725830020304794 300 12 L 300 168 C 300 174.62741699796953 294.62741699796953 180 288 180 L 12 180 C 5.3725830020304794 180 0 174.62741699796953 0 168 L 0 12 C 0 5.3725830020304794 5.3725830020304794 0 12 0 Z" fill="#ffffff"/><g transform="matrix(1,0,0,1,120,70)"><ellipse cx="30" cy="20" rx="30" ry="20" fill="#af52de"/></g><g transform="matrix(1,0,0,1,20,20)" opacity="0.5"><ellipse cx="130" cy="70" rx="130" ry="70" fill="#ff9500"/></g></g></g></g></svg>