<svg xmlns="http://www.w3.org/2000/svg" width="180" height="120" viewBox="0 0 180 120"><g><defs><clipPath id="clip-g247-1"><rect x="0" y="0" width="180" height="120"/></clipPath></defs><rect x="0" y="0" width="180" height="120" fill="#f2f2f7"/><g transform="matrix(1,0,0,1,10,10)"><defs><clipPath id="clip-g247-0"><path d="M 12 0 L 148 0 C 154.62741699796953 0 160 5.3725830020304794 160 12 L 160 88 C 160 94.62741699796952 154.62741699796953 100 148 100 L 12 100 C 5.3725830020304794 100 0 94.62741699796952 0 88 L 0 12 C 0 5.3725830020304794 5.3725830020304794 0 12 0 Z"/></clipPath></defs><g clip-path="url(#clip-g247-0)"><path d="M 12 0 L 148 0 C 154.62741699796953 0 160 5.3725830020304794 160 12 L 160 88 C 160 94.62741699796952 154.62741699796953 100 148 100 L 12 100 C 5.3725830020304794 100 0 94.62741699796952 0 88 L 0 12 C 0 5.3725830020304794 5.3725830020304794 0 12 0 Z" fill="#ffffff"/><g transform="matrix(1,0,0,1,50,30)"><ellipse cx="30" cy="20" rx="30" ry="20" fill="#af52de"/></g><g transform="matrix(1,0,0,1,20,20)" opacity="0.5"><ellipse cx="60" cy="30" rx="60" ry="30" fill="#ff9500"/></g></g></g></g></svg>