<svg xmlns="http://www.w3.org/2000/svg" width="1200" height="800" viewBox="0 0 1200 800"><defs><clipPath id="clip-0"><rect x="0" y="0" width="200" height="120" rx="12" fill="black"/></clipPath><clipPath id="clip-1"><rect x="0" y="0" width="200" height="120" rx="12" fill="black"/></clipPath><clipPath id="clip-2"><rect x="0" y="0" width="300" height="180" rx="12" fill="black"/></clipPath><clipPath id="clip-3"><path d="M 0.00 0.00 L 320.00 0.00 L 320.00 200.00 L 0.00 200.00 L 0.00 0.00" fill-rule="nonzero" fill="black"/></clipPath><clipPath id="clip-4"><rect x="0" y="0" width="160" height="100" rx="12" fill="black"/></clipPath><clipPath id="clip-5"><path d="M 0.00 0.00 L 180.00 0.00 L 180.00 120.00 L 0.00 120.00 L 0.00 0.00" fill-rule="nonzero" fill="black"/></clipPath><clipPath id="clip-6"><rect x="0" y="0" width="300" height="180" rx="12" fill="black"/></clipPath><clipPath id="clip-7"><path d="M 0.00 0.00 L 320.00 0.00 L 320.00 200.00 L 0.00 200.00 L 0.00 0.00" fill-rule="nonzero" fill="black"/></clipPath><clipPath id="clip-8"><rect x="0" y="0" width="200" height="120" rx="12" fill="black"/></clipPath><clipPath id="clip-9"><path d="M 0.00 0.00 L 220.00 0.00 L 220.00 140.00 L 0.00 140.00 L 0.00 0.00" fill-rule="nonzero" fill="black"/></clipPath></defs><g><rect x="0" y="0" width="200" height="120" rx="12" fill="#ffffff"/><g clip-path="url(#clip-0)"><ellipse cx="30" cy="20" rx="30" ry="20" transform="matrix(1, 0, 0, 1, 70, 40)" fill="#af52de"/><ellipse cx="80" cy="40" rx="80" ry="40" transform="matrix(1, 0, 0, 1, 20, 20)" opacity="0.5" fill="#ff9500"/></g></g><g transform="matrix(1, 0, 0, 1, 300, 0)"><rect x="0" y="0" width="200" height="120" rx="12" fill="#f2f2f7"/><g clip-path="url(#clip-1)"><ellipse cx="50" cy="30" rx="50" ry="30" transform="matrix(1, 0, 0, 1, 50, 30)" fill="#ff3b30"/></g></g><g transform="matrix(1, 0, 0, 1, 50, 650)"><path d="M 0.00 0.00 L 320.00 0.00 L 320.00 200.00 L 0.00 200.00 L 0.00 0.00" fill-rule="nonzero" fill="#f2f2f7"/><g clip-path="url(#clip-3)"><g transform="matrix(1, 0, 0, 1, 10, 10)"><rect x="0" y="0" width="300" height="180" rx="12" fill="#ffffff"/><g clip-path="url(#clip-2)"><ellipse cx="30" cy="20" rx="30" ry="20" transform="matrix(1, 0, 0, 1, 120, 70)" fill="#af52de"/><ellipse cx="130" cy="70" rx="130" ry="70" transform="matrix(1, 0, 0, 1, 20, 20)" opacity="0.5" fill="#ff9500"/></g></g></g></g><g transform="matrix(1, 0, 0, 1, 400, 650)"><path d="M 0.00 0.00 L 180.00 0.00 L 180.00 120.00 L 0.00 120.00 L 0.00 0.00" fill-rule="nonzero" fill="#f2f2f7"/><g clip-path="url(#clip-5)"><g transform="matrix(1, 0, 0, 1, 10, 10)"><rect x="0" y="0" width="160" height="100" rx="12" fill="#ffffff"/><g clip-path="url(#clip-4)"><ellipse cx="30" cy="20" rx="30" ry="20" transform="matrix(1, 0, 0, 1, 50, 30)" fill="#af52de"/><ellipse cx="60" cy="30" rx="60" ry="30" transform="matrix(1, 0, 0, 1, 20, 20)" opacity="0.5" fill="#ff9500"/></g></g></g></g><g transform="matrix(1, 0, 0, 1, 50, 880)"><path d="M 0.00 0.00 L 320.00 0.00 L 320.00 200.00 L 0.00 200.00 L 0.00 0.00" fill-rule="nonzero" fill="#ffffff"/><g clip-path="url(#clip-7)"><g transform="matrix(1, 0, 0, 1, 10, 10)"><rect x="0" y="0" width="300" height="180" rx="12" fill="#f2f2f7"/><g clip-path="url(#clip-6)"><ellipse cx="75" cy="45" rx="75" ry="45" transform="matrix(1, 0, 0, 1, 75, 45)" fill="#ff3b30"/></g></g></g></g><g transform="matrix(1, 0, 0, 1, 400, 880)"><path d="M 0.00 0.00 L 220.00 0.00 L 220.00 140.00 L 0.00 140.00 L 0.00 0.00" fill-rule="nonzero" fill="#ffffff"/><g clip-path="url(#clip-9)"><g transform="matrix(1, 0, 0, 1, 10, 10)"><rect x="0" y="0" width="200" height="120" rx="12" fill="#ffffff"/><g clip-path="url(#clip-8)"><ellipse cx="30" cy="20" rx="30" ry="20" transform="matrix(1, 0, 0, 1, 70, 40)" fill="#af52de"/><ellipse cx="80" cy="40" rx="80" ry="40" transform="matrix(1, 0, 0, 1, 20, 20)" opacity="0.5" fill="#ff9500"/></g></g></g></g></svg>