<svg xmlns="http://www.w3.org/2000/svg" width="220" height="160" viewBox="0 0 220 160"><defs><clipPath id="clip-0"><rect x="0" y="0" width="60" height="20" rx="8" fill="black"/></clipPath><clipPath id="clip-1"><rect x="0" y="0" width="200" height="140" rx="12" fill="black"/></clipPath><clipPath id="clip-2"><path d="M 0.00 0.00 L 220.00 0.00 L 220.00 160.00 L 0.00 160.00 L 0.00 0.00" fill-rule="nonzero" fill="black"/></clipPath></defs><g><path d="M 0.00 0.00 L 220.00 0.00 L 220.00 160.00 L 0.00 160.00 L 0.00 0.00" fill-rule="nonzero" fill="#ffffff"/><g clip-path="url(#clip-2)"><g transform="matrix(1, 0, 0, 1, 10, 10)"><rect x="0" y="0" width="200" height="140" rx="12" fill="#f2f2f7"/><g clip-path="url(#clip-1)"><g transform="matrix(1, 0, 0, 1, 70, 60)"><rect x="0" y="0" width="60" height="20" rx="8" fill="#ffffff"/><g clip-path="url(#clip-0)"><rect x="0" y="0" width="20" height="0" transform="matrix(1, 0, 0, 1, 20, 20)" fill="#007aff"/></g></g></g></g></g></g></svg>