<svg xmlns="http://www.w3.org/2000/svg" width="320" height="220" viewBox="0 0 320 220"><g><defs><clipPath id="clip-g6-2"><rect x="0" y="0" width="320" height="220"/></clipPath></defs><g clip-path="url(#clip-g6-2)"><rect x="0" y="0" width="320" height="220" fill="#ffffff"/><g transform="matrix(1,0,0,1,10,10)"><defs><clipPath id="clip-g6-1"><path d="M 12 0 L 288 0 C 294.62741699796953 0 300 5.3725830020304794 300 12 L 300 188 C 300 194.62741699796953 294.62741699796953 200 288 200 L 12 200 C 5.3725830020304794 200 0 194.62741699796953 0 188 L 0 12 C 0 5.3725830020304794 5.3725830020304794 0 12 0 Z"/></clipPath></defs><g clip-path="url(#clip-g6-1)"><path d="M 12 0 L 288 0 C 294.62741699796953 0 300 5.3725830020304794 300 12 L 300 188 C 300 194.62741699796953 294.62741699796953 200 288 200 L 12 200 C 5.3725830020304794 200 0 194.62741699796953 0 188 L 0 12 C 0 5.3725830020304794 5.3725830020304794 0 12 0 Z" fill="#f2f2f7"/><g transform="matrix(1,0,0,1,70,60)"><defs><clipPath id="clip-g6-0"><path d="M 8 0 L 152 0 C 156.41827799864635 0 160 3.5817220013536533 160 8 L 160 72 C 160 76.41827799864635 156.41827799864635 80 152 80 L 8 80 C 3.5817220013536533 80 0 76.41827799864635 0 72 L 0 8 C 0 3.5817220013536533 3.5817220013536533 0 8 0 Z"/></clipPath></defs><g clip-path="url(#clip-g6-0)"><path d="M 8 0 L 152 0 C 156.41827799864635 0 160 3.5817220013536533 160 8 L 160 72 C 160 76.41827799864635 156.41827799864635 80 152 80 L 8 80 C 3.5817220013536533 80 0 76.41827799864635 0 72 L 0 8 C 0 3.5817220013536533 3.5817220013536533 0 8 0 Z" fill="#ffffff"/><g transform="matrix(1,0,0,1,20,20)"><path d="M 6 0 L 114 0 C 117.31370849898477 0 120 2.6862915010152397 120 6 L 120 34 C 120 37.31370849898476 117.31370849898477 40 114 40 L 6 40 C 2.6862915010152397 40 0 37.31370849898476 0 34 L 0 6 C 0 2.6862915010152397 2.6862915010152397 0 6 0 Z" fill="#007aff"/></g></g></g></g></g></g></g></svg>