<svg xmlns="http://www.w3.org/2000/svg" width="420" height="300" viewBox="0 0 420 300"><g><defs><clipPath id="clip-g4-2"><rect x="0" y="0" width="420" height="300"/></clipPath></defs><rect x="0" y="0" width="420" height="300" fill="#ffffff"/><g transform="matrix(1,0,0,1,10,10)"><defs><clipPath id="clip-g4-1"><path d="M 12 0 L 388 0 C 394.62741699796953 0 400 5.3725830020304794 400 12 L 400 268 C 400 274.62741699796953 394.62741699796953 280 388 280 L 12 280 C 5.3725830020304794 280 0 274.62741699796953 0 268 L 0 12 C 0 5.3725830020304794 5.3725830020304794 0 12 0 Z"/></clipPath></defs><g clip-path="url(#clip-g4-1)"><path d="M 12 0 L 388 0 C 394.62741699796953 0 400 5.3725830020304794 400 12 L 400 268 C 400 274.62741699796953 394.62741699796953 280 388 280 L 12 280 C 5.3725830020304794 280 0 274.62741699796953 0 268 L 0 12 C 0 5.3725830020304794 5.3725830020304794 0 12 0 Z" fill="#f2f2f7"/><g transform="matrix(1,0,0,1,70,60)"><defs><clipPath id="clip-g4-0"><path d="M 8 0 L 252 0 C 256.4182779986464 0 260 3.5817220013536533 260 8 L 260 152 C 260 156.41827799864635 256.4182779986464 160 252 160 L 8 160 C 3.5817220013536533 160 0 156.41827799864635 0 152 L 0 8 C 0 3.5817220013536533 3.5817220013536533 0 8 0 Z"/></clipPath></defs><g clip-path="url(#clip-g4-0)"><path d="M 8 0 L 252 0 C 256.4182779986464 0 260 3.5817220013536533 260 8 L 260 152 C 260 156.41827799864635 256.4182779986464 160 252 160 L 8 160 C 3.5817220013536533 160 0 156.41827799864635 0 152 L 0 8 C 0 3.5817220013536533 3.5817220013536533 0 8 0 Z" fill="#ffffff"/><g transform="matrix(1,0,0,1,20,20)"><path d="M 6 0 L 214 0 C 217.31370849898477 0 220 2.6862915010152397 220 6 L 220 114 C 220 117.31370849898477 217.31370849898477 120 214 120 L 6 120 C 2.6862915010152397 120 0 117.31370849898477 0 114 L 0 6 C 0 2.6862915010152397 2.6862915010152397 0 6 0 Z" fill="#007aff"/></g></g></g></g></g></g></svg>