<svg xmlns="http://www.w3.org/2000/svg" width="220" height="160" viewBox="0 0 220 160"><g><defs><clipPath id="clip-g5-2"><rect x="0" y="0" width="220" height="160"/></clipPath></defs><g clip-path="url(#clip-g5-2)"><rect x="0" y="0" width="220" height="160" fill="#ffffff"/><g transform="matrix(1,0,0,1,10,10)"><defs><clipPath id="clip-g5-1"><path d="M 12 0 L 188 0 C 194.62741699796953 0 200 5.3725830020304794 200 12 L 200 128 C 200 134.62741699796953 194.62741699796953 140 188 140 L 12 140 C 5.3725830020304794 140 0 134.62741699796953 0 128 L 0 12 C 0 5.3725830020304794 5.3725830020304794 0 12 0 Z"/></clipPath></defs><g clip-path="url(#clip-g5-1)"><path d="M 12 0 L 188 0 C 194.62741699796953 0 200 5.3725830020304794 200 12 L 200 128 C 200 134.62741699796953 194.62741699796953 140 188 140 L 12 140 C 5.3725830020304794 140 0 134.62741699796953 0 128 L 0 12 C 0 5.3725830020304794 5.3725830020304794 0 12 0 Z" fill="#f2f2f7"/><g transform="matrix(1,0,0,1,70,60)"><defs><clipPath id="clip-g5-0"><path d="M 8 0 L 52 0 C 56.418277998646346 0 60 3.5817220013536533 60 8 L 60 12 C 60 16.418277998646346 56.418277998646346 20 52 20 L 8 20 C 3.5817220013536533 20 0 16.418277998646346 0 12 L 0 8 C 0 3.5817220013536533 3.5817220013536533 0 8 0 Z"/></clipPath></defs><g clip-path="url(#clip-g5-0)"><path d="M 8 0 L 52 0 C 56.418277998646346 0 60 3.5817220013536533 60 8 L 60 12 C 60 16.418277998646346 56.418277998646346 20 52 20 L 8 20 C 3.5817220013536533 20 0 16.418277998646346 0 12 L 0 8 C 0 3.5817220013536533 3.5817220013536533 0 8 0 Z" fill="#ffffff"/><g transform="matrix(1,0,0,1,20,20)"><rect x="0" y="0" width="20" height="0" fill="#007aff"/></g></g></g></g></g></g></g></svg>