<svg xmlns="http://www.w3.org/2000/svg" width="440" height="100" viewBox="0 0 440 100"><defs><clipPath id="clip-0"><rect x="0" y="0" width="200" height="60" rx="12" fill="black"/></clipPath><clipPath id="clip-1"><rect x="0" y="0" width="200" height="60" rx="12" fill="black"/></clipPath><clipPath id="clip-2"><path d="M 0.00 0.00 L 440.00 0.00 L 440.00 80.00 L 0.00 80.00 L 0.00 0.00" fill-rule="nonzero" fill="black"/></clipPath></defs><g><path d="M 0.00 0.00 L 440.00 0.00 L 440.00 80.00 L 0.00 80.00 L 0.00 0.00" fill-rule="nonzero" fill="#f2f2f7"/><g clip-path="url(#clip-2)"><g transform="matrix(1, 0, 0, 1, 10, 10)"><rect x="0" y="0" width="200" height="60" rx="12" fill="#007aff"/><g clip-path="url(#clip-0)"><rect x="0" y="0" width="160" height="36" rx="4" ry="4" transform="matrix(1, 0, 0, 1, 20, 12)" opacity="0.20000000298023224" fill="#ffffff"/></g></g><g transform="matrix(1, 0, 0, 1, 230, 10)"><rect x="0" y="0" width="200" height="60" rx="12" fill="#007aff"/><g clip-path="url(#clip-1)"><rect x="0" y="0" width="160" height="36" rx="4" ry="4" transform="matrix(1, 0, 0, 1, 20, 12)" opacity="0.20000000298023224" fill="#ffffff"/></g></g></g></g></svg>