<svg xmlns="http://www.w3.org/2000/svg" width="440" height="80" viewBox="0 0 440 80"><g><defs><clipPath id="clip-g9-2"><rect x="0" y="0" width="440" height="80"/></clipPath></defs><rect x="0" y="0" width="440" height="80" fill="#f2f2f7"/><g transform="matrix(1,0,0,1,10,10)"><defs><clipPath id="clip-g9-0"><path d="M 12 0 L 188 0 C 194.62741699796953 0 200 5.3725830020304794 200 12 L 200 48 C 200 54.62741699796952 194.62741699796953 60 188 60 L 12 60 C 5.3725830020304794 60 0 54.62741699796952 0 48 L 0 12 C 0 5.3725830020304794 5.3725830020304794 0 12 0 Z"/></clipPath></defs><g clip-path="url(#clip-g9-0)"><path d="M 12 0 L 188 0 C 194.62741699796953 0 200 5.3725830020304794 200 12 L 200 48 C 200 54.62741699796952 194.62741699796953 60 188 60 L 12 60 C 5.3725830020304794 60 0 54.62741699796952 0 48 L 0 12 C 0 5.3725830020304794 5.3725830020304794 0 12 0 Z" fill="#007aff"/><g transform="matrix(1,0,0,1,20,12)" opacity="0.20000000298023224"><path d="M 4 0 L 156 0 C 158.2091389993232 0 160 1.7908610006768266 160 4 L 160 32 C 160 34.20913899932317 158.2091389993232 36 156 36 L 4 36 C 1.7908610006768266 36 0 34.20913899932317 0 32 L 0 4 C 0 1.7908610006768266 1.7908610006768266 0 4 0 Z" fill="#ffffff"/></g></g></g><g transform="matrix(1,0,0,1,230,10)"><defs><clipPath id="clip-g9-1"><path d="M 12 0 L 188 0 C 194.62741699796953 0 200 5.3725830020304794 200 12 L 200 48 C 200 54.62741699796952 194.62741699796953 60 188 60 L 12 60 C 5.3725830020304794 60 0 54.62741699796952 0 48 L 0 12 C 0 5.3725830020304794 5.3725830020304794 0 12 0 Z"/></clipPath></defs><g clip-path="url(#clip-g9-1)"><path d="M 12 0 L 188 0 C 194.62741699796953 0 200 5.3725830020304794 200 12 L 200 48 C 200 54.62741699796952 194.62741699796953 60 188 60 L 12 60 C 5.3725830020304794 60 0 54.62741699796952 0 48 L 0 12 C 0 5.3725830020304794 5.3725830020304794 0 12 0 Z" fill="#007aff"/><g transform="matrix(1,0,0,1,20,12)" opacity="0.20000000298023224"><path d="M 4 0 L 156 0 C 158.2091389993232 0 160 1.7908610006768266 160 4 L 160 32 C 160 34.20913899932317 158.2091389993232 36 156 36 L 4 36 C 1.7908610006768266 36 0 34.20913899932317 0 32 L 0 4 C 0 1.7908610006768266 1.7908610006768266 0 4 0 Z" fill="#ffffff"/></g></g></g></g></svg>