<svg xmlns="http://www.w3.org/2000/svg" width="248" height="354.8333435058594" viewBox="0 0 248 354.8333435058594"><g><defs><clipPath id="clip-g1-6"><rect x="0" y="0" width="248" height="354.8333435058594"/></clipPath></defs><g clip-path="url(#clip-g1-6)"><rect x="0" y="0" width="248" height="354.8333435058594" fill="#ffffff"/><g transform="matrix(1,0,0,1,14,98.16667175292969)"><defs><clipPath id="clip-g1-0"><rect x="0" y="0" width="48" height="48"/></clipPath></defs><g clip-path="url(#clip-g1-0)"><g transform="matrix(1,0,0,1,4,6)"><path d="M40 20C41.10456848144531 20 42 19.104570388793945 42 18C42 16.895429611206055 41.10456848144531 16 40 16L40 18L40 20M32 18L32 16C31.13913917541504 16 30.374860763549805 16.550859451293945 30.102632522583008 17.367544174194336L32 18M26 36L24.102632522583008 36.63245391845703C24.374860763549805 37.44913864135742 25.13913917541504 38 26 38C26.86086082458496 38 27.625139236450195 37.44913864135742 27.897367477416992 36.63245391845703L26 36M14 0L15.897366523742676 -0.6324555277824402C15.625138282775879 -1.4491398334503174 14.860860824584961 -2 14 -2C13.139139175415039 -2 12.374861717224121 -1.4491398334503174 12.102633476257324 -0.6324555277824402L14 0M8 18L8 20C8.860860824584961 20 9.625138282775879 19.449140548706055 9.897366523742676 18.632455825805664L8 18M0 16C-1.1045695543289185 16 -2 16.895429611206055 -2 18C-2 19.104570388793945 -1.1045695543289185 20 0 20L0 18L0 16M40 18L40 16L32 16L32 18L32 20L40 20L40 18M32 18L30.102632522583008 17.367544174194336L24.102632522583008 35.36754608154297L26 36L27.897367477416992 36.63245391845703L33.89736557006836 18.632455825805664L32 18M26 36L27.897367477416992 35.36754608154297L15.897366523742676 -0.6324555277824402L14 0L12.102633476257324 0.6324555277824402L24.102632522583008 36.63245391845703L26 36M14 0L12.102633476257324 -0.6324555277824402L6.102633476257324 17.367544174194336L8 18L9.897366523742676 18.632455825805664L15.897366523742676 0.6324555277824402L14 0M8 18L8 16L0 16L0 18L0 20L8 20L8 18" fill="#1e1e1e"/></g></g></g><g transform="matrix(1,0,0,1,186,42)"><defs><clipPath id="clip-g1-1"><rect x="0" y="0" width="48" height="48"/></clipPath></defs><g clip-path="url(#clip-g1-1)"><g transform="matrix(1,0,0,1,4,6)"><path d="M6 30C7.104569435119629 30 8 29.104570388793945 8 28C8 26.895429611206055 7.104569435119629 26 6 26L6 28L6 30M0 24L-2 24L0 24M4 0L4 -2L4 0M36 0L36 -2L36 0M34 26C32.89543151855469 26 32 26.895429611206055 32 28C32 29.104570388793945 32.89543151855469 30 34 30L34 28L34 26M20 24L21.536441802978516 22.71963119506836C21.15645408630371 22.26364517211914 20.59355926513672 22 20 22C19.40644073486328 22 18.84354591369629 22.26364517211914 18.463558197021484 22.71963119506836L20 24M30 36L30 38C30.77603530883789 38 31.482019424438477 37.55107879638672 31.81117820739746 36.84831237792969C32.14033889770508 36.14554214477539 32.03324890136719 35.315799713134766 31.536441802978516 34.71963119506836L30 36M10 36L8.463557243347168 34.71963119506836C7.966751575469971 35.315799713134766 7.85966157913208 36.14554214477539 8.188820838928223 36.84831237792969C8.517980575561523 37.55107879638672 9.22396469116211 38 10 38L10 36M6 28L6 26L4 26L4 28L4 30L6 30L6 28M4 28L4 26C3.4695677757263184 26 2.960859537124634 25.78928565979004 2.5857863426208496 25.414213180541992L1.1715726852416992 26.828426361083984L-0.242640882730484 28.242639541625977C0.8825767636299133 29.367856979370117 2.4087002277374268 30 4 30L4 28M1.1715726852416992 26.828426361083984L2.5857863426208496 25.414213180541992C2.2107133865356445 25.039140701293945 2 24.530433654785156 2 24L0 24L-2 24C-2 25.591299057006836 -1.3678590059280396 27.117422103881836 -0.242640882730484 28.242639541625977L1.1715726852416992 26.828426361083984M0 24L2 24L2 4L0 4L-2 4L-2 24L0 24M0 4L2 4C2 3.469566583633423 2.2107136249542236 2.9608588218688965 2.5857863426208496 2.5857863426208496L1.1715726852416992 1.1715726852416992L-0.242640882730484 -0.242640882730484C-1.3678593635559082 0.8825775980949402 -2 2.4087014198303223 -2 4L0 4M1.1715726852416992 1.1715726852416992L2.5857863426208496 2.5857863426208496C2.9608588218688965 2.2107136249542236 3.469566583633423 2 4 2L4 0L4 -2C2.4087014198303223 -2 0.8825775980949402 -1.3678593635559082 -0.242640882730484 -0.242640882730484L1.1715726852416992 1.1715726852416992M4 0L4 2L36 2L36 0L36 -2L4 -2L4 0M36 0L36 2C36.530433654785156 2 37.03913879394531 2.2107133865356445 37.41421127319336 2.5857863426208496L38.828426361083984 1.1715726852416992L40.24264144897461 -0.242640882730484C39.1174201965332 -1.3678590059280396 37.59130096435547 -2 36 -2L36 0M38.828426361083984 1.1715726852416992L37.41421127319336 2.5857863426208496C37.78928756713867 2.960859537124634 38 3.4695677757263184 38 4L40 4L42 4C42 2.4087002277374268 41.36785888671875 0.8825767636299133 40.24264144897461 -0.242640882730484L38.828426361083984 1.1715726852416992M40 4L38 4L38 24L40 24L42 24L42 4L40 4M40 24L38 24C38 24.530431747436523 37.78928756713867 25.039138793945312 37.41421127319336 25.414213180541992L38.828426361083984 26.828426361083984L40.24264144897461 28.242639541625977C41.36785888671875 27.117422103881836 42 25.59130096435547 42 24L40 24M38.828426361083984 26.828426361083984L37.41421127319336 25.414213180541992C37.03913879394531 25.78928565979004 36.53042984008789 26 36 26L36 28L36 30C37.59130096435547 30 39.11742401123047 29.367856979370117 40.24264144897461 28.242639541625977L38.828426361083984 26.828426361083984M36 28L36 26L34 26L34 28L34 30L36 30L36 28M20 24L18.463558197021484 25.28036880493164L28.463558197021484 37.28036880493164L30 36L31.536441802978516 34.71963119506836L21.536441802978516 22.71963119506836L20 24M30 36L30 34L10 34L10 36L10 38L30 38L30 36M10 36L11.536442756652832 37.28036880493164L21.536441802978516 25.28036880493164L20 24L18.463558197021484 22.71963119506836L8.463557243347168 34.71963119506836L10 36" fill="#1e1e1e"/></g></g></g><g transform="matrix(1,0,0,1,100,98.16667175292969)"><defs><clipPath id="clip-g1-2"><rect x="0" y="0" width="48" height="48"/></clipPath></defs><g clip-path="url(#clip-g1-2)"><g transform="matrix(1,0,0,1,6,12)"><path d="M36 10C37.10456848144531 10 38 9.104569435119629 38 8C38 6.895430564880371 37.10456848144531 6 36 6L36 8L36 10M8 6C6.895430564880371 6 6 6.895430564880371 6 8C6 9.104569435119629 6.895430564880371 10 8 10L8 8L8 6M36 2C37.10456848144531 2 38 1.1045695543289185 38 0C38 -1.1045695543289185 37.10456848144531 -2 36 -2L36 0L36 2M0 -2C-1.1045695543289185 -2 -2 -1.1045695543289185 -2 0C-2 1.1045695543289185 -1.1045695543289185 2 0 2L0 0L0 -2M36 18C37.10456848144531 18 38 17.104570388793945 38 16C38 14.895430564880371 37.10456848144531 14 36 14L36 16L36 18M0 14C-1.1045695543289185 14 -2 14.895430564880371 -2 16C-2 17.104570388793945 -1.1045695543289185 18 0 18L0 16L0 14M36 26C37.10456848144531 26 38 25.104570388793945 38 24C38 22.895429611206055 37.10456848144531 22 36 22L36 24L36 26M8 22C6.895430564880371 22 6 22.895429611206055 6 24C6 25.104570388793945 6.895430564880371 26 8 26L8 24L8 22M36 8L36 6L8 6L8 8L8 10L36 10L36 8M36 0L36 -2L0 -2L0 0L0 2L36 2L36 0M36 16L36 14L0 14L0 16L0 18L36 18L36 16M36 24L36 22L8 22L8 24L8 26L36 26L36 24" fill="#1e1e1e"/></g></g></g><g transform="matrix(1,0,0,1,186,98.16667175292969)"><defs><clipPath id="clip-g1-3"><rect x="0" y="0" width="48" height="48"/></clipPath></defs><g clip-path="url(#clip-g1-3)"><g transform="matrix(1,0,0,1,6,4.004101753234863)"><path d="M36 27.995899200439453L38 27.99795150756836L38 27.995899200439453L36 27.995899200439453M36 11.995898246765137L38 11.995898246765137L38 11.993846893310547L36 11.995898246765137M34 8.535898208618164L35.00000762939453 6.803829669952393L34.992279052734375 6.799411773681641L34 8.535898208618164M20 0.5358982086181641L18.999990463256836 2.2679662704467773L19.007722854614258 2.2723844051361084L20 0.5358982086181641M16 0.5358982086181641L16.99228858947754 2.272401809692383L17 2.267949104309082L16 0.5358982086181641M2 8.535898208618164L1.0077122449874878 6.799394607543945L1.000001072883606 6.803846836090088L2 8.535898208618164M0 11.995898246765137L-2 11.993846893310547L-2 11.995898246765137L0 11.995898246765137M0 27.995899200439453L-2.0000009536743164 27.995899200439453L-1.999998927116394 27.99795150756836L0 27.995899200439453M2 31.45589828491211L0.9999911189079285 33.187965393066406L1.0077221393585205 33.1923828125L2 31.45589828491211M16 39.45589828491211L17.000009536743164 37.72383117675781L16.992277145385742 37.71941375732422L16 39.45589828491211M20 39.45589828491211L19.00771141052246 37.71939468383789L19 37.723846435546875L20 39.45589828491211M34 31.45589828491211L34.992286682128906 33.19240188598633L35 33.187950134277344L34 31.45589828491211M10.000555038452148 2.6841681003570557C9.044146537780762 2.1315767765045166 7.820861339569092 2.458935022354126 7.268270015716553 3.4153430461883545C6.715678691864014 4.371751308441162 7.043036460876465 5.59503698348999 7.999444961547852 6.147628307342529L9 4.415898323059082L10.000555038452148 2.6841681003570557M18 9.615898132324219L16.99944496154785 11.347628593444824C17.618528366088867 11.705321311950684 18.381471633911133 11.705321311950684 19.00055503845215 11.347628593444824L18 9.615898132324219M28.00055503845215 6.147628307342529C28.95696258544922 5.59503698348999 29.284320831298828 4.371751308441162 28.73172950744629 3.4153430461883545C28.17913818359375 2.458935022354126 26.955852508544922 2.1315767765045166 25.99944496154785 2.6841681003570557L27 4.415898323059082L28.00055503845215 6.147628307342529M7 35.57590103149414C7 36.68046951293945 7.895430564880371 37.57590103149414 9 37.57590103149414C10.104569435119629 37.57590103149414 11 36.68046951293945 11 35.57590103149414L9 35.57590103149414L7 35.57590103149414M9 25.195899963378906L11 25.195899963378906C11 24.481597900390625 10.619044303894043 23.82151985168457 10.000555038452148 23.464170455932617L9 25.195899963378906M1.0005552768707275 18.264169692993164C0.04414718970656395 17.711578369140625 -1.1791386604309082 18.038936614990234 -1.7317301034927368 18.995344161987305C-2.2843215465545654 19.951751708984375 -1.9569634199142456 21.175037384033203 -1.0005552768707275 21.727628707885742L0 19.995899200439453L1.0005552768707275 18.264169692993164M37.00055694580078 21.727628707885742C37.95696258544922 21.175037384033203 38.28432083129883 19.951751708984375 37.73173141479492 18.995344161987305C37.17913818359375 18.038936614990234 35.95585250854492 17.711578369140625 34.99944305419922 18.264169692993164L36 19.995899200439453L37.00055694580078 21.727628707885742M27 25.195899963378906L25.99944496154785 23.464170455932617C25.38095474243164 23.82151985168457 25 24.481597900390625 25 25.195899963378906L27 25.195899963378906M25 35.57590103149414C25 36.68046951293945 25.895429611206055 37.57590103149414 27 37.57590103149414C28.104570388793945 37.57590103149414 29 36.68046951293945 29 35.57590103149414L27 35.57590103149414L25 35.57590103149414M1.5414471626281738 8.184683799743652C0.5853238105773926 7.6315999031066895 -0.6381304860115051 7.958327770233154 -1.1912144422531128 8.914450645446777C-1.7442984580993652 9.870573997497559 -1.4175705909729004 11.09402847290039 -0.46144723892211914 11.647112846374512L0.5399999618530273 9.915898323059082L1.5414471626281738 8.184683799743652M18 20.015899658203125L16.998552322387695 21.747114181518555C17.61808967590332 22.10549545288086 18.38191032409668 22.10549545288086 19.001447677612305 21.747114181518555L18 20.015899658203125M36.46144485473633 11.647112846374512C37.41756820678711 11.09402847290039 37.74429702758789 9.870573997497559 37.19121170043945 8.914450645446777C36.63813018798828 7.958327770233154 35.414676666259766 7.6315999031066895 34.458553314208984 8.184683799743652L35.459999084472656 9.915898323059082L36.46144485473633 11.647112846374512M16 40.15589904785156C16 41.260467529296875 16.895429611206055 42.15589904785156 18 42.15589904785156C19.104570388793945 42.15589904785156 20 41.260467529296875 20 40.15589904785156L18 40.15589904785156L16 40.15589904785156M20 19.995899200439453C20 18.891328811645508 19.104570388793945 17.995899200439453 18 17.995899200439453C16.895429611206055 17.995899200439453 16 18.891328811645508 16 19.995899200439453L18 19.995899200439453L20 19.995899200439453M36 27.995899200439453L38 27.995899200439453L38 11.995898246765137L36 11.995898246765137L34 11.995898246765137L34 27.995899200439453L36 27.995899200439453M36 11.995898246765137L38 11.993846893310547C37.99892044067383 10.941671371459961 37.72117233276367 9.90827751159668 37.19461441040039 8.997334480285645L35.463077545166016 9.998223304748535L33.73154067993164 10.999112129211426C33.90705871582031 11.30275821685791 33.99964141845703 11.647222518920898 34 11.997949600219727L36 11.995898246765137M35.463077545166016 9.998223304748535L37.19461441040039 8.997334480285645C36.66805648803711 8.08639144897461 35.91120910644531 7.329934120178223 35 6.803846836090088L34 8.535898208618164L33 10.267950057983398C33.303741455078125 10.443312644958496 33.55602264404297 10.695466041564941 33.73154067993164 10.999112129211426L35.463077545166016 9.998223304748535M34 8.535898208618164L34.992279052734375 6.799411773681641L20.992277145385742 -1.2005881071090698L20 0.5358982086181641L19.007722854614258 2.2723844051361084L33.007720947265625 10.272384643554688L34 8.535898208618164M20 0.5358982086181641L21 -1.1961525678634644C20.0878849029541 -1.7227628231048584 19.053218841552734 -2 18 -2L18 0L18 2C18.35107421875 2 18.695960998535156 2.0924124717712402 19 2.267949104309082L20 0.5358982086181641M18 0L18 -2C16.946781158447266 -2 15.912115097045898 -1.7227628231048584 15 -1.1961525678634644L16 0.5358982086181641L17 2.267949104309082C17.304039001464844 2.0924124717712402 17.64892578125 2 18 2L18 0M16 0.5358982086181641L15.007721900939941 -1.2005881071090698L1.0077221393585205 6.799411773681641L2 8.535898208618164L2.9922778606414795 10.272384643554688L16.992277145385742 2.2723844051361084L16 0.5358982086181641M2 8.535898208618164L1.000001072883606 6.803846836090088C0.08878917992115021 7.329934597015381 -0.6680580973625183 8.086392402648926 -1.1946145296096802 8.997334480285645L0.5369229316711426 9.998223304748535L2.268460273742676 10.999112129211426C2.443978786468506 10.695465087890625 2.696260929107666 10.443312644958496 2.9999990463256836 10.267950057983398L2 8.535898208618164M0.5369229316711426 9.998223304748535L-1.1946145296096802 8.997334480285645C-1.7211707830429077 9.908276557922363 -1.9989197254180908 10.941670417785645 -1.999998927116394 11.993846893310547L0 11.995898246765137L1.999998927116394 11.997949600219727C2.0003585815429688 11.647223472595215 2.092941999435425 11.302759170532227 2.268460273742676 10.999112129211426L0.5369229316711426 9.998223304748535M0 11.995898246765137L-2 11.995898246765137L-2 27.995899200439453L0 27.995899200439453L2 27.995899200439453L2 11.995898246765137L0 11.995898246765137M0 27.995899200439453L-1.999998927116394 27.99795150756836C-1.9989197254180908 29.050127029418945 -1.7211703062057495 30.083518981933594 -1.1946145296096802 30.994461059570312L0.5369229316711426 29.993572235107422L2.268460273742676 28.99268341064453C2.0929412841796875 28.689035415649414 2.0003585815429688 28.344572067260742 1.999998927116394 27.993846893310547L0 27.995899200439453M0.5369229316711426 29.993572235107422L-1.1946145296096802 30.994461059570312C-0.6680587530136108 31.90540313720703 0.08878801763057709 32.661861419677734 1.000001072883606 33.187950134277344L2 31.45589828491211L2.9999990463256836 29.723846435546875C2.6962621212005615 29.548484802246094 2.443979263305664 29.29633140563965 2.268460273742676 28.99268341064453L0.5369229316711426 29.993572235107422M2 31.45589828491211L1.0077221393585205 33.1923828125L15.007721900939941 41.1923828125L16 39.45589828491211L16.992277145385742 37.71941375732422L2.9922778606414795 29.719411849975586L2 31.45589828491211M16 39.45589828491211L15 41.187950134277344C15.91211223602295 41.71455764770508 16.94677734375 41.991798400878906 18 41.991798400878906L18 39.991798400878906L18 37.991798400878906C17.648929595947266 37.991798400878906 17.304040908813477 37.89938735961914 17 37.723846435546875L16 39.45589828491211M18 39.991798400878906L18 41.991798400878906C19.05322265625 41.991798400878906 20.087886810302734 41.71455764770508 21 41.187950134277344L20 39.45589828491211L19 37.723846435546875C18.695959091186523 37.89938735961914 18.351070404052734 37.991798400878906 18 37.991798400878906L18 39.991798400878906M20 39.45589828491211L20.992277145385742 41.1923828125L34.992279052734375 33.1923828125L34 31.45589828491211L33.007720947265625 29.719411849975586L19.007722854614258 37.71941375732422L20 39.45589828491211M34 31.45589828491211L35 33.187950134277344C35.91121292114258 32.661861419677734 36.668060302734375 31.90540313720703 37.19461441040039 30.994461059570312L35.463077545166016 29.993572235107422L33.73154067993164 28.99268341064453C33.55602264404297 29.29633140563965 33.30373764038086 29.548484802246094 33 29.723846435546875L34 31.45589828491211M35.463077545166016 29.993572235107422L37.19461441040039 30.994461059570312C37.72117233276367 30.083518981933594 37.99892044067383 29.050127029418945 38 27.99795150756836L36 27.995899200439453L34 27.993846893310547C33.99964141845703 28.344573974609375 33.90705871582031 28.689037322998047 33.73154067993164 28.99268341064453L35.463077545166016 29.993572235107422M9 4.415898323059082L7.999444961547852 6.147628307342529L16.99944496154785 11.347628593444824L18 9.615898132324219L19.00055503845215 7.8841681480407715L10.000555038452148 2.6841681003570557L9 4.415898323059082M18 9.615898132324219L19.00055503845215 11.347628593444824L28.00055503845215 6.147628307342529L27 4.415898323059082L25.99944496154785 2.6841681003570557L16.99944496154785 7.8841681480407715L18 9.615898132324219M9 35.57590103149414L11 35.57590103149414L11 25.195899963378906L9 25.195899963378906L7 25.195899963378906L7 35.57590103149414L9 35.57590103149414M9 25.195899963378906L10.000555038452148 23.464170455932617L1.0005552768707275 18.264169692993164L0 19.995899200439453L-1.0005552768707275 21.727628707885742L7.999444484710693 26.927629470825195L9 25.195899963378906M36 19.995899200439453L34.99944305419922 18.264169692993164L25.99944496154785 23.464170455932617L27 25.195899963378906L28.00055503845215 26.927629470825195L37.00055694580078 21.727628707885742L36 19.995899200439453M27 25.195899963378906L25 25.195899963378906L25 35.57590103149414L27 35.57590103149414L29 35.57590103149414L29 25.195899963378906L27 25.195899963378906M0.5399999618530273 9.915898323059082L-0.46144723892211914 11.647112846374512L16.998552322387695 21.747114181518555L18 20.015899658203125L19.001447677612305 18.284685134887695L1.5414471626281738 8.184683799743652L0.5399999618530273 9.915898323059082M18 20.015899658203125L19.001447677612305 21.747114181518555L36.46144485473633 11.647112846374512L35.459999084472656 9.915898323059082L34.458553314208984 8.184683799743652L16.998552322387695 18.284685134887695L18 20.015899658203125M18 40.15589904785156L20 40.15589904785156L20 19.995899200439453L18 19.995899200439453L16 19.995899200439453L16 40.15589904785156L18 40.15589904785156" fill="#1e1e1e"/></g></g></g><g transform="matrix(1,0,0,1,100,42)"><defs><clipPath id="clip-g1-4"><rect x="0" y="0" width="48" height="48"/></clipPath></defs><g clip-path="url(#clip-g1-4)"><g transform="matrix(1,0,0,1,2,1.993956446647644)"><path d="M1.4142135381698608 -1.4081699848175049C0.6331649422645569 -2.189218521118164 -0.6331650018692017 -2.189218521118164 -1.4142135381698608 -1.4081699848175049C-2.1952621936798096 -0.6271213889122009 -2.1952621936798096 0.6392085552215576 -1.4142135381698608 1.4202570915222168L0 0.006043556611984968L1.4142135381698608 -1.4081699848175049M42.585784912109375 45.420257568359375C43.36683654785156 46.2013053894043 44.63316345214844 46.2013053894043 45.414215087890625 45.420257568359375C46.19526290893555 44.63920593261719 46.19526290893555 43.37287902832031 45.414215087890625 42.591827392578125L44 44.00604248046875L42.585784912109375 45.420257568359375M18 16.006044387817383C18 14.901474952697754 17.104570388793945 14.006044387817383 16 14.006044387817383C14.895430564880371 14.006044387817383 14 14.901474952697754 14 16.006044387817383L16 16.006044387817383L18 16.006044387817383M16 22.006044387817383L13.999999046325684 22.006044387817383L14.000000953674316 22.007802963256836L16 22.006044387817383M27.65333366394043 27.661136627197266C28.43486785888672 26.880573272705078 28.43565559387207 25.61424446105957 27.655092239379883 24.83271026611328C26.874528884887695 24.051176071166992 25.608200073242188 24.05038833618164 24.8266658782959 24.830951690673828L26.239999771118164 26.246044158935547L27.65333366394043 27.661136627197266M26 16.686044692993164C26 17.79061508178711 26.895429611206055 18.686044692993164 28 18.686044692993164C29.104570388793945 18.686044692993164 30 17.79061508178711 30 16.686044692993164L28 16.686044692993164L26 16.686044692993164M28 6.006043434143066L26 6.00403356552124L26 6.006043434143066L28 6.006043434143066M14.15999984741211 4.408053398132324C13.94019603729248 5.490532398223877 14.639532089233398 6.54624080657959 15.722010612487793 6.766044616699219C16.804489135742188 6.985848426818848 17.860198974609375 6.28651237487793 18.080001831054688 5.204033851623535L16.1200008392334 4.80604362487793L14.15999984741211 4.408053398132324M33.42862319946289 33.30569839477539C34.20163345336914 32.516693115234375 34.18865966796875 31.250429153442383 33.399654388427734 30.477420806884766C32.61064529418945 29.70441436767578 31.344383239746094 29.717384338378906 30.571374893188477 30.506391525268555L32 31.90604591369629L33.42862319946289 33.30569839477539M8 22.006044387817383L9.999946594238281 22.020675659179688C9.999981880187988 22.015798568725586 10 22.010921478271484 10 22.006044387817383L8 22.006044387817383M10 18.006044387817383C10 16.901473999023438 9.104569435119629 16.006044387817383 8 16.006044387817383C6.895430564880371 16.006044387817383 6 16.901473999023438 6 18.006044387817383L8 18.006044387817383L10 18.006044387817383M38 18.006044387817383C38 16.901473999023438 37.10456848144531 16.006044387817383 36 16.006044387817383C34.89543151855469 16.006044387817383 34 16.901473999023438 34 18.006044387817383L36 18.006044387817383L38 18.006044387817383M36 22.006044387817383L38 22.00778579711914L38 22.006044387817383L36 22.006044387817383M33.81142807006836 24.112873077392578C33.61637878417969 25.200084686279297 34.33961486816406 26.23956298828125 35.42682647705078 26.434614181518555C36.5140380859375 26.62966537475586 37.55352020263672 25.90642547607422 37.74856948852539 24.8192138671875L35.779998779296875 24.46604347229004L33.81142807006836 24.112873077392578M24 36.00604248046875C24 34.90147399902344 23.104570388793945 34.00604248046875 22 34.00604248046875C20.895429611206055 34.00604248046875 20 34.90147399902344 20 36.00604248046875L22 36.00604248046875L24 36.00604248046875M20 44.00604248046875C20 45.11061096191406 20.895429611206055 46.00604248046875 22 46.00604248046875C23.104570388793945 46.00604248046875 24 45.11061096191406 24 44.00604248046875L22 44.00604248046875L20 44.00604248046875M14 42.00604248046875C12.895430564880371 42.00604248046875 12 42.90147399902344 12 44.00604248046875C12 45.11061096191406 12.895430564880371 46.00604248046875 14 46.00604248046875L14 44.00604248046875L14 42.00604248046875M30 46.00604248046875C31.104570388793945 46.00604248046875 32 45.11061096191406 32 44.00604248046875C32 42.90147399902344 31.104570388793945 42.00604248046875 30 42.00604248046875L30 44.00604248046875L30 46.00604248046875M0 0.006043556611984968L-1.4142135381698608 1.4202570915222168L42.585784912109375 45.420257568359375L44 44.00604248046875L45.414215087890625 42.591827392578125L1.4142135381698608 -1.4081699848175049L0 0.006043556611984968M16 16.006044387817383L14 16.006044387817383L14 22.006044387817383L16 22.006044387817383L18 22.006044387817383L18 16.006044387817383L16 16.006044387817383M16 22.006044387817383L14.000000953674316 22.007802963256836C14.001391410827637 23.58902931213379 14.471336364746094 25.134382247924805 15.350482940673828 26.44868278503418L17.012861251831055 25.33670425415039L18.67523956298828 24.2247257232666C18.235668182373047 23.567575454711914 18.000694274902344 22.794898986816406 18 22.00428581237793L16 22.006044387817383M17.012861251831055 25.33670425415039L15.350482940673828 26.44868278503418C16.229629516601562 27.762983322143555 17.478544235229492 28.787277221679688 18.939483642578125 29.39219856262207L19.704612731933594 27.544340133666992L20.469741821289062 25.696481704711914C19.739269256591797 25.39402198791504 19.11481285095215 24.881874084472656 18.67523956298828 24.2247257232666L17.012861251831055 25.33670425415039M19.704612731933594 27.544340133666992L18.939483642578125 29.39219856262207C20.40042495727539 29.997119903564453 22.00786590576172 30.155534744262695 23.558788299560547 29.84743309020996L23.169090270996094 27.885766983032227L22.77939224243164 25.924100875854492C22.00393295288086 26.078149795532227 21.200212478637695 25.998943328857422 20.469741821289062 25.696481704711914L19.704612731933594 27.544340133666992M23.169090270996094 27.885766983032227L23.558788299560547 29.84743309020996C25.109708786010742 29.53933334350586 26.534542083740234 28.77853775024414 27.65333366394043 27.661136627197266L26.239999771118164 26.246044158935547L24.8266658782959 24.830951690673828C24.267269134521484 25.389652252197266 23.554853439331055 25.770050048828125 22.77939224243164 25.924100875854492L23.169090270996094 27.885766983032227M28 16.686044692993164L30 16.686044692993164L30 6.006043434143066L28 6.006043434143066L26 6.006043434143066L26 16.686044692993164L28 16.686044692993164M28 6.006043434143066L29.999998092651367 6.008053302764893C30.00199317932129 4.024129867553711 29.266748428344727 2.110238552093506 27.937000274658203 0.6379201412200928L26.45275115966797 1.9784435033798218L24.968502044677734 3.318966865539551C25.63337516784668 4.055127143859863 26.00099754333496 5.012073040008545 26.000001907348633 6.00403356552124L28 6.006043434143066M26.45275115966797 1.9784435033798218L27.937000274658203 0.6379201412200928C26.60725212097168 -0.834398627281189 24.77787208557129 -1.7601021528244019 22.803993225097656 -1.9594839811325073L22.602994918823242 0.030390437692403793L22.401996612548828 2.0202648639678955C23.38893699645996 2.1199557781219482 24.303627014160156 2.5828070640563965 24.968502044677734 3.318966865539551L26.45275115966797 1.9784435033798218M22.602994918823242 0.030390437692403793L22.803993225097656 -1.9594839811325073C20.83011245727539 -2.1588656902313232 18.852563858032227 -1.6177005767822266 17.2552433013916 -0.4410454034805298L18.44143295288086 1.1692193746566772L19.627622604370117 2.779484272003174C20.426284790039062 2.1911561489105225 21.415058135986328 1.9205739498138428 22.401996612548828 2.0202648639678955L22.602994918823242 0.030390437692403793M18.44143295288086 1.1692193746566772L17.2552433013916 -0.4410454034805298C15.65792179107666 0.7356101274490356 14.554790496826172 2.4638075828552246 14.15999984741211 4.408053398132324L16.1200008392334 4.80604362487793L18.080001831054688 5.204033851623535C18.27739715576172 4.231910705566406 18.828962326049805 3.367811918258667 19.627622604370117 2.779484272003174L18.44143295288086 1.1692193746566772M32 31.90604591369629L30.571374893188477 30.506391525268555C28.897863388061523 32.214542388916016 26.752164840698242 33.38373947143555 24.40955924987793 33.86398696899414L24.811214447021484 35.823238372802734L25.21286964416504 37.78248977661133C28.336341857910156 37.14216613769531 31.19727325439453 35.58323669433594 33.42862319946289 33.30569839477539L32 31.90604591369629M24.811214447021484 35.823238372802734L24.40955924987793 33.86398696899414C22.066953659057617 34.34423065185547 19.634286880493164 34.11361312866211 17.42365264892578 33.20172882080078L16.660991668701172 35.05060577392578L15.898329734802246 36.89948272705078C18.84583854675293 38.11532974243164 22.089397430419922 38.42281723022461 25.21286964416504 37.78248977661133L24.811214447021484 35.823238372802734M16.660991668701172 35.05060577392578L17.42365264892578 33.20172882080078C15.213020324707031 32.28984069824219 13.325247764587402 30.738277435302734 12.002523422241211 28.746084213256836L10.336339950561523 29.852354049682617L8.670156478881836 30.9586238861084C10.433789253234863 33.6148796081543 12.950820922851562 35.68363571166992 15.898329734802246 36.89948272705078L16.660991668701172 35.05060577392578M10.336339950561523 29.852354049682617L12.002523422241211 28.746084213256836C10.67979907989502 26.75389289855957 9.982451438903809 24.411935806274414 9.999946594238281 22.020675659179688L8 22.006044387817383L6.000053405761719 21.991413116455078C5.97672700881958 25.179759979248047 6.906523704528809 28.302366256713867 8.670156478881836 30.9586238861084L10.336339950561523 29.852354049682617M8 22.006044387817383L10 22.006044387817383L10 18.006044387817383L8 18.006044387817383L6 18.006044387817383L6 22.006044387817383L8 22.006044387817383M36 18.006044387817383L34 18.006044387817383L34 22.006044387817383L36 22.006044387817383L38 22.006044387817383L38 18.006044387817383L36 18.006044387817383M36 22.006044387817383L34 22.004302978515625C33.999385833740234 22.711339950561523 33.936283111572266 23.416940689086914 33.81142807006836 24.112873077392578L35.779998779296875 24.46604347229004L37.74856948852539 24.8192138671875C37.9150390625 23.89130973815918 37.99917984008789 22.95050811767578 38 22.00778579711914L36 22.006044387817383M22 36.00604248046875L20 36.00604248046875L20 44.00604248046875L22 44.00604248046875L24 44.00604248046875L24 36.00604248046875L22 36.00604248046875M14 44.00604248046875L14 46.00604248046875L30 46.00604248046875L30 44.00604248046875L30 42.00604248046875L14 42.00604248046875L14 44.00604248046875" fill="#1e1e1e"/></g></g></g><g transform="matrix(1,0,0,1,14,42)"><defs><clipPath id="clip-g1-5"><rect x="0" y="0" width="48" height="48"/></clipPath></defs><g clip-path="url(#clip-g1-5)"><g transform="matrix(1,0,0,1,4,4)"><path d="M34 16L32 16C32 17.104570388793945 32.89543151855469 18 34 18L34 16M6 24L8 24C8 22.895429611206055 7.104569435119629 22 6 22L6 24M24 34L24 32C22.895429611206055 32 22 32.89543151855469 22 34L24 34M16 6L16 8C17.104570388793945 8 18 7.104569435119629 18 6L16 6M25 16L25 14C24.444568634033203 14 24 13.55543041229248 24 13L22 13L20 13C20 15.764569282531738 22.235429763793945 18 25 18L25 16M22 13L24 13L24 3L22 3L20 3L20 13L22 13M22 3L24 3C24 2.4445695877075195 24.444568634033203 2 25 2L25 0L25 -2C22.235429763793945 -2 20 0.2354305386543274 20 3L22 3M25 0L25 2C25.555431365966797 2 26 2.4445695877075195 26 3L28 3L30 3C30 0.2354305386543274 27.764570236206055 -2 25 -2L25 0M28 3L26 3L26 13L28 13L30 13L30 3L28 3M28 13L26 13C26 13.55543041229248 25.555431365966797 14 25 14L25 16L25 18C27.764570236206055 18 30 15.764569282531738 30 13L28 13M37 16L37 14L34 14L34 16L34 18L37 18L37 16M34 16L36 16L36 13L34 13L32 13L32 16L34 16M34 13L36 13C36 12.44456958770752 36.4445686340332 12 37 12L37 10L37 8C34.23543167114258 8 32 10.235430717468262 32 13L34 13M37 10L37 12C37.5554313659668 12 38 12.44456958770752 38 13L40 13L42 13C42 10.235430717468262 39.76456832885742 8 37 8L37 10M40 13L38 13C38 13.55543041229248 37.5554313659668 14 37 14L37 16L37 18C39.76456832885742 18 42 15.764569282531738 42 13L40 13M15 24L15 26C15.55543041229248 26 16 26.444568634033203 16 27L18 27L20 27C20 24.235429763793945 17.764570236206055 22 15 22L15 24M18 27L16 27L16 37L18 37L20 37L20 27L18 27M18 37L16 37C16 37.5554313659668 15.55543041229248 38 15 38L15 40L15 42C17.764570236206055 42 20 39.76456832885742 20 37L18 37M15 40L15 38C14.44456958770752 38 14 37.5554313659668 14 37L12 37L10 37C10 39.76456832885742 12.235430717468262 42 15 42L15 40M12 37L14 37L14 27L12 27L10 27L10 37L12 37M12 27L14 27C14 26.444568634033203 14.44456958770752 26 15 26L15 24L15 22C12.235430717468262 22 10 24.235429763793945 10 27L12 27M3 24L3 26L6 26L6 24L6 22L3 22L3 24M6 24L4 24L4 27L6 27L8 27L8 24L6 24M6 27L4 27C4 27.555431365966797 3.5554304122924805 28 3 28L3 30L3 32C5.764569282531738 32 8 29.764570236206055 8 27L6 27M3 30L3 28C2.4445695877075195 28 2 27.555431365966797 2 27L0 27L-2 27C-2 29.764570236206055 0.2354305386543274 32 3 32L3 30M0 27L2 27C2 26.444568634033203 2.4445695877075195 26 3 26L3 24L3 22C0.2354305386543274 22 -2 24.235429763793945 -2 27L0 27M24 25L26 25C26 24.444568634033203 26.444568634033203 24 27 24L27 22L27 20C24.235429763793945 20 22 22.235429763793945 22 25L24 25M27 22L27 24L37 24L37 22L37 20L27 20L27 22M37 22L37 24C37.5554313659668 24 38 24.444568634033203 38 25L40 25L42 25C42 22.235429763793945 39.76456832885742 20 37 20L37 22M40 25L38 25C38 25.555431365966797 37.5554313659668 26 37 26L37 28L37 30C39.76456832885742 30 42 27.764570236206055 42 25L40 25M37 28L37 26L27 26L27 28L27 30L37 30L37 28M27 28L27 26C26.444568634033203 26 26 25.555431365966797 26 25L24 25L22 25C22 27.764570236206055 24.235429763793945 30 27 30L27 28M27 34L27 32L24 32L24 34L24 36L27 36L27 34M24 34L22 34L22 37L24 37L26 37L26 34L24 34M24 37L22 37C22 39.76456832885742 24.235429763793945 42 27 42L27 40L27 38C26.444568634033203 38 26 37.5554313659668 26 37L24 37M27 40L27 42C29.764570236206055 42 32 39.76456832885742 32 37L30 37L28 37C28 37.5554313659668 27.555431365966797 38 27 38L27 40M30 37L32 37C32 34.23543167114258 29.764570236206055 32 27 32L27 34L27 36C27.555431365966797 36 28 36.4445686340332 28 37L30 37M16 15L18 15C18 12.235430717468262 15.764569282531738 10 13 10L13 12L13 14C13.55543041229248 14 14 14.44456958770752 14 15L16 15M13 12L13 10L3 10L3 12L3 14L13 14L13 12M3 12L3 10C0.2354305386543274 10 -2 12.235430717468262 -2 15L0 15L2 15C2 14.44456958770752 2.4445695877075195 14 3 14L3 12M0 15L-2 15C-2 17.764570236206055 0.2354305386543274 20 3 20L3 18L3 16C2.4445695877075195 16 2 15.55543041229248 2 15L0 15M3 18L3 20L13 20L13 18L13 16L3 16L3 18M13 18L13 20C15.764569282531738 20 18 17.764570236206055 18 15L16 15L14 15C14 15.55543041229248 13.55543041229248 16 13 16L13 18M13 6L13 8L16 8L16 6L16 4L13 4L13 6M16 6L18 6L18 3L16 3L14 3L14 6L16 6M16 3L18 3C18 0.2354305386543274 15.764569282531738 -2 13 -2L13 0L13 2C13.55543041229248 2 14 2.4445695877075195 14 3L16 3M13 0L13 -2C10.235430717468262 -2 8 0.2354305386543274 8 3L10 3L12 3C12 2.4445695877075195 12.44456958770752 2 13 2L13 0M10 3L8 3C8 5.764569282531738 10.235430717468262 8 13 8L13 6L13 4C12.44456958770752 4 12 3.5554304122924805 12 3L10 3" fill="#1e1e1e"/></g></g></g></g></g></svg>