<?xml version="1.0" encoding="UTF-8"?>
<svg xmlns="http://www.w3.org/2000/svg" viewBox="201.7 212 600 600" role="img" aria-label="Higma">
  <defs>
    <clipPath id="higma-bear">
      <path d="M762.8775,386.4542c0-50.7278-41.123-91.8507-91.8507-91.8507-33.9326,0-63.5642,18.4027-79.4679,45.77-20.9482-6.9156-51.8734-14.4294-89.7467-14.4142-37.9943.0153-68.977,7.6017-89.8984,14.5416-15.8856-27.4379-45.5577-45.8973-79.5432-45.8973-50.7278,0-91.8507,41.1229-91.8507,91.8507,0,28.4117,12.9023,53.8079,33.1647,70.6562-6.2817,19.0529-12.798,46.9208-11.8522,80.7499.8988,32.1498,14.9421,191.5363,239.9798,191.5363,219.8301,0,240.6184-147.7869,240.8849-188.8141.2298-35.3787-9.8641-63.1584-17.75-79.7699,22.9829-16.6948,37.9304-43.7789,37.9304-74.3584ZM414.6495,478.3049c-9.2526,0-16.7532-7.5007-16.7532-16.7533s7.5007-16.7533,16.7532-16.7533,16.7533,7.5007,16.7533,16.7533-7.5007,16.7533-16.7533,16.7533ZM560.8617,577.2586c-7.8519,6.569-17.3905,6.9802-21.451,6.9048-25.6482.723-31.2241-.4379-32.1667-12.7634-.9464-12.3756,3.29-24.6215,11.493-33.9361,7.6526-8.6896,15.1695-16.2766,17.2984-26.5891,2.017-9.7701-6.9332-9.9143-22.4623-9.9143-3.7761-.0333-20.0123-.0333-23.7883,0-15.5291,0-24.4792.1442-22.4623,9.9143,2.129,10.3125,9.6459,17.8995,17.2984,26.5891,8.203,9.3146,12.4394,21.5605,11.493,33.9361-.9426,12.3255-6.5184,13.4863-32.1667,12.7634-4.0605.0754-13.5991-.3358-21.451-6.9048-8.7925-7.356-11.5024-18.037-11.0934-24.9036.3387-5.6859,6.1693-70.6638,44.7132-84.4173,6.0181-2.1475,12.1049-4.1409,18.9213-5.377,4.4894-.8141,9.0965-.8135,13.5836.0134,6.7122,1.237,12.6248,3.2238,18.6211,5.3635,38.5439,13.7535,44.3745,78.7314,44.7132,84.4173.4089,6.8666-2.301,17.5476-11.0934,24.9036ZM589.8799,478.3049c-9.2526,0-16.7533-7.5007-16.7533-16.7533s7.5007-16.7533,16.7533-16.7533,16.7532,7.5007,16.7532,16.7533-7.5007,16.7533-16.7532,16.7533Z"/>
    </clipPath>
  </defs>
  <g clip-path="url(#higma-bear)">
    <path fill="#ec008c" d="M203.8881,194.9301c-118.5075,74.3893-154.2669,230.7386-79.8776,349.2461,24.5425,39.0979,57.9965,69.0973,96.0099,89.2253-3.1652-87.4427,39.1424-174.0628,118.552-223.9095h0c-3.1652-87.4427,39.1424-174.0627,118.552-223.9095-77.4276-40.9477-173.8266-40.4992-253.2362,9.3476Z"/>
    <path fill="#00aeef" d="M473.2022,623.9672h0c-79.4095,49.8468-175.863,50.2087-253.1818,9.4343,1.5162,43.0379,14.132,86.2387,38.62,125.2499,74.3893,118.5075,230.7386,154.2669,349.2462,79.8776,79.4095-49.8468,121.6628-136.5535,118.552-223.9096-79.4096,49.8468-175.8631,50.2087-253.2363,9.3477Z"/>
    <path fill="#2e3192" d="M473.2022,623.9672h0c-38.1-20.0736-71.5218-50.214-96.0099-89.2253-24.488-39.0113-37.0171-82.2664-38.62-125.2499h0c-79.4095,49.8468-121.6628,136.5536-118.552,223.9095,77.3733,40.861,173.7723,40.4124,253.1818-9.4343Z"/>
    <path fill="#fff200" d="M591.7542,400.0576c38.1001,20.0736,71.5218,50.214,96.0099,89.2253,24.488,39.0113,37.0171,82.2664,38.62,125.2499h0c118.5075-74.3893,154.2669-230.7386,79.8776-349.2462-74.3893-118.5075-230.6843-154.1802-349.1917-79.7909h0c38.1001,20.0736,71.5218,50.214,96.0099,89.2253,24.488,39.0113,37.0715,82.3531,38.6744,125.3366Z"/>
    <path fill="#ed1c24" d="M338.5723,409.492c79.4095-49.8468,175.863-50.2087,253.1819-9.4343-1.5162-43.0379-14.1319-86.2387-38.62-125.2499-24.488-39.0113-57.9965-69.0972-96.0099-89.2253-79.464,49.7601-121.7172,136.4669-118.552,223.9095Z"/>
    <path fill="#00a651" d="M591.7542,400.0576c3.1652,87.4427-39.1424,174.0628-118.552,223.9095,77.3733,40.861,173.7723,40.4124,253.1819-9.4343-1.5162-43.038-14.1319-86.2387-38.62-125.2499-24.488-39.0113-57.9965-69.0972-96.0099-89.2253Z"/>
    <path fill="#000" d="M473.2022,623.9672c79.4095-49.8468,121.6628-136.5535,118.552-223.9096-77.3733-40.861-173.7723-40.4124-253.1819,9.4343,1.5162,43.0379,14.132,86.2387,38.62,125.2499,24.488,39.0113,57.9965,69.0973,96.0099,89.2253Z"/>
  </g>
</svg>
