<?xml version="1.0" encoding="UTF-8"?>
<svg xmlns="http://www.w3.org/2000/svg" viewBox="0 0 602.489682 602.489682" role="img" aria-label="Higma">
  <defs>
    <clipPath id="higma-bear">
      <path d="M563.423613,171.275348c0-50.727783-41.122986-91.850708-91.850708-91.850708-33.932617,0-63.564209,18.40271-79.467896,45.769958-20.948242-6.915588-51.873413-14.429382-89.746704-14.414185-37.994324.015259-68.97699,7.601685-89.898376,14.541565-15.88562-27.437866-45.557678-45.897339-79.543152-45.897339-50.727783,0-91.850708,41.122925-91.850708,91.850708,0,28.411743,12.902283,53.807922,33.164673,70.65625-6.281738,19.052917-12.797974,46.920776-11.852234,80.749878.898804,32.14978,14.942139,191.536255,239.979797,191.536255,219.830078,0,240.618408-147.786865,240.884888-188.814087.229797-35.378723-9.864136-63.158447-17.75-79.769897,22.98291-16.694763,37.93042-43.77887,37.93042-74.358398ZM215.195647,263.126056c-9.252563,0-16.753235-7.500732-16.753235-16.753296,0-9.252625,7.500671-16.753296,16.753235-16.753296,9.252625,0,16.753296,7.500671,16.753296,16.753296,0,9.252563-7.500671,16.753296-16.753296,16.753296ZM339.956883,368.984576c-1.256256.355377-21.514893,5.731201-29.252625-3.968597-9.558167-11.981842,6.36615-38.979431,8.578918-42.730865,9.601562-16.278168,19.148193-20.180389,17.298401-26.589111-2.868835-9.93927-29.137817-9.93927-34.356445-9.93927s-31.487595,0-34.356445,9.93927c-1.849792,6.408722,7.696838,10.310944,17.298401,26.589111,2.212738,3.751373,18.137115,30.749054,8.578918,42.730896-7.737701,9.699738-27.996216,4.324005-29.252625,3.968567-15.33786-4.338959-28.379288-18.060822-32.544434-31.80835-10.026428-33.093292,24.453766-89.253571,70.427643-89.169739,45.865265.083618,80.1651,56.103973,70.124725,89.169739-4.173248,13.743683-17.202576,27.468201-32.544434,31.80835ZM390.426054,263.126056c-9.252625,0-16.753296-7.500732-16.753296-16.753296,0-9.252625,7.500671-16.753296,16.753296-16.753296,9.252563,0,16.753235,7.500671,16.753235,16.753296,0,9.252563-7.500671,16.753296-16.753235,16.753296Z"/>
    </clipPath>
  </defs>
  <g clip-path="url(#higma-bear)">
    <path fill="#ec008c" d="M116.528524,879.525229c179.684056,103.107547,408.896235,41.039674,512.003759-138.644342,34.017195-59.281282,49.942314-123.8772,49.794194-187.562362-112.073391,64.98623-254.715447,69.973033-375.11818.882704h0c-112.073391,64.98623-254.715435,69.973013-375.118209.882661.367199,129.682376,68.035622,255.350965,188.438436,324.441339Z"/>
    <path fill="#00aeef" d="M489.812513,229.008529h0c120.402733,69.090329,187.995857,194.890419,188.513884,324.30995,55.189801-31.930775,102.868338-78.480462,136.810102-137.630292,103.107547-179.684056,41.039694-408.896224-138.644362-512.00377-120.402733-69.090329-263.120237-63.972137-375.11822.882681,120.402814,69.090375,187.995898,194.890442,188.438596,324.441431Z"/>
    <path fill="#2e3192" d="M489.812513,229.008529h0c.279532,63.76057-15.85243,128.412532-49.794194,187.562362-33.941764,59.14983-81.751714,105.62411-136.810102,137.630292h0c120.402733,69.090329,263.120277,63.97216,375.11818-.882704-.442699-129.55099-68.11115-255.219622-188.513884-324.30995Z"/>
    <path fill="#fff200" d="M114.694253,229.891187c-.279572-63.760593,15.85239-128.412555,49.794154-187.562385,33.941764-59.14983,81.751754-105.624087,136.810142-137.630269h0C121.614493-198.409014-107.597675-136.341161-210.705221,43.342895c-103.107547,179.684056-40.964246,408.764835,138.71977,511.872358h0c-.279595-63.760553,15.85239-128.412555,49.794154-187.562385,33.941764-59.14983,81.827185-105.755539,136.88555-137.761681Z"/>
    <path fill="#ed1c24" d="M303.208217,554.201183c-120.402733-69.090329-187.995817-194.890396-188.513924-324.309973-55.189818,31.930712-102.868378,78.480439-136.810142,137.630269-33.941764,59.14983-49.942274,123.877223-49.794142,187.562365,120.327314,69.221761,263.044818,64.103569,375.118209-.882661Z"/>
    <path fill="#00a651" d="M114.694253,229.891187c112.073391-64.98623,254.715447-69.973033,375.11818-.882704-.442699-129.55099-68.11115-255.219622-188.513924-324.309973-55.189841,31.930752-102.868378,78.480439-136.810142,137.630269s-49.942233,123.877246-49.794114,187.562408Z"/>
    <path fill="#ffffff" d="M489.812505,229.008533c-120.40271-69.090363-263.120224-63.972137-375.11821.88269.442696,129.550964,68.111191,255.219635,188.513931,324.309967,55.189758-31.93074,102.868317-78.480469,136.810089-137.63031,33.941772-59.149811,49.942322-123.877197,49.794189-187.562347Z"/>
  </g>
</svg>
