<?xml version="1.0" encoding="UTF-8"?>
<svg xmlns="http://www.w3.org/2000/svg" viewBox="0 0 602.489682 602.489682" role="img" aria-label="Higma">
  <path fill="currentColor" fill-rule="evenodd" d="M563.423613,171.275348c0-50.727783-41.122986-91.850708-91.850708-91.850708-33.932617,0-63.564209,18.40271-79.467896,45.769958-20.948242-6.915588-51.873413-14.429382-89.746704-14.414185-37.994324.015259-68.97699,7.601685-89.898376,14.541565-15.88562-27.437866-45.557678-45.897339-79.543152-45.897339-50.727783,0-91.850708,41.122925-91.850708,91.850708,0,28.411743,12.902283,53.807922,33.164673,70.65625-6.281738,19.052917-12.797974,46.920776-11.852234,80.749878.898804,32.14978,14.942139,191.536255,239.979797,191.536255,219.830078,0,240.618408-147.786865,240.884888-188.814087.229797-35.378723-9.864136-63.158447-17.75-79.769897,22.98291-16.694763,37.93042-43.77887,37.93042-74.358398ZM215.195647,263.126056c-9.252563,0-16.753235-7.500732-16.753235-16.753296,0-9.252625,7.500671-16.753296,16.753235-16.753296,9.252625,0,16.753296,7.500671,16.753296,16.753296,0,9.252563-7.500671,16.753296-16.753296,16.753296ZM339.956883,368.984576c-1.256256.355377-21.514893,5.731201-29.252625-3.968597-9.558167-11.981842,6.36615-38.979431,8.578918-42.730865,9.601562-16.278168,19.148193-20.180389,17.298401-26.589111-2.868835-9.93927-29.137817-9.93927-34.356445-9.93927s-31.487595,0-34.356445,9.93927c-1.849792,6.408722,7.696838,10.310944,17.298401,26.589111,2.212738,3.751373,18.137115,30.749054,8.578918,42.730896-7.737701,9.699738-27.996216,4.324005-29.252625,3.968567-15.33786-4.338959-28.379288-18.060822-32.544434-31.80835-10.026428-33.093292,24.453766-89.253571,70.427643-89.169739,45.865265.083618,80.1651,56.103973,70.124725,89.169739-4.173248,13.743683-17.202576,27.468201-32.544434,31.80835ZM390.426054,263.126056c-9.252625,0-16.753296-7.500732-16.753296-16.753296,0-9.252625,7.500671-16.753296,16.753296-16.753296,9.252563,0,16.753235,7.500671,16.753235,16.753296,0,9.252563-7.500671,16.753296-16.753235,16.753296Z"/>
</svg>
