<svg xmlns="http://www.w3.org/2000/svg" width="256" height="256" viewBox="0 0 256 256"><defs><clipPath id="clip-0"><rect x="0" y="0" width="256" height="256" fill="black"/></clipPath></defs><g><rect x="0" y="0" width="256" height="256" fill="#ffffff" stroke="#000000" stroke-width="1"/><g clip-path="url(#clip-0)"><rect x="0" y="0" width="48" height="48" transform="matrix(1, 0, 0, 1, 104, 0)" fill="#d9d9d9"/><rect x="0" y="0" width="48" height="48" transform="matrix(1, 0, 0, 1, 208, 0)" fill="#d9d9d9"/><rect x="0" y="0" width="48" height="48" fill="#d9d9d9"/><rect x="0" y="0" width="48" height="48" transform="matrix(1, 0, 0, 1, 104, 104)" fill="#d9d9d9"/><rect x="0" y="0" width="48" height="48" transform="matrix(1, 0, 0, 1, 0, 104)" fill="#d9d9d9"/><rect x="0" y="0" width="48" height="48" transform="matrix(1, 0, 0, 1, 208, 104)" fill="#d9d9d9"/><rect x="0" y="0" width="48" height="48" transform="matrix(1, 0, 0, 1, 104, 208)" fill="#d9d9d9"/><rect x="0" y="0" width="48" height="48" transform="matrix(1, 0, 0, 1, 0, 208)" fill="#d9d9d9"/><rect x="0" y="0" width="48" height="48" transform="matrix(1, 0, 0, 1, 208, 208)" fill="#d9d9d9"/></g></g></svg>