<svg xmlns="http://www.w3.org/2000/svg" width="187" height="180" viewBox="0 0 187 180"><defs><clipPath id="clip-0"><rect x="0" y="0" width="187" height="180" fill="black"/></clipPath><clipPath id="clip-1"><rect x="0" y="0" width="187" height="180" fill="black"/></clipPath></defs><g><rect x="0" y="0" width="187" height="180" fill="#ffffff"/><g clip-path="url(#clip-1)"><g><rect x="0" y="0" width="187" height="180" fill="#ffffff" stroke="#000000" stroke-width="1"/><g clip-path="url(#clip-0)"><rect x="0" y="0" width="48" height="48" transform="matrix(1, 0, 0, 1, 70, 0)" fill="#d9d9d9"/><rect x="0" y="0" width="48" height="48" transform="matrix(1, 0, 0, 1, 139, 0)" fill="#d9d9d9"/><rect x="0" y="0" width="48" height="48" fill="#d9d9d9"/><rect x="0" y="0" width="48" height="48" transform="matrix(1, 0, 0, 1, 70, 66)" fill="#d9d9d9"/><rect x="0" y="0" width="48" height="48" transform="matrix(1, 0, 0, 1, 0, 66)" fill="#d9d9d9"/><rect x="0" y="0" width="48" height="48" transform="matrix(1, 0, 0, 1, 139, 66)" fill="#d9d9d9"/><rect x="0" y="0" width="48" height="48" transform="matrix(1, 0, 0, 1, 70, 132)" fill="#d9d9d9"/><rect x="0" y="0" width="48" height="48" transform="matrix(1, 0, 0, 1, 0, 132)" fill="#d9d9d9"/><rect x="0" y="0" width="48" height="48" transform="matrix(1, 0, 0, 1, 139, 132)" fill="#d9d9d9"/></g></g></g></g></svg>