<svg xmlns="http://www.w3.org/2000/svg" width="280" height="100" viewBox="0 0 280 100"><g><defs><clipPath id="clip-g8-9"><rect x="0" y="0" width="280" height="100"/></clipPath></defs><rect x="0" y="0" width="280" height="100" fill="#ffffff"/><g transform="matrix(1,0,0,1,20,20)" filter="url(#filter-g8-2)" style="isolation:isolate"><defs><filter id="filter-g8-2" x="-8" y="-4" width="76" height="76" filterUnits="userSpaceOnUse" color-interpolation-filters="sRGB"><feColorMatrix in="SourceAlpha" type="matrix" values="0 0 0 0 0 0 0 0 0 0 0 0 0 0 0 0 0 0 127 0" result="hardAlpha-g8-0"/><feOffset in="hardAlpha-g8-0" dx="0" dy="4"/><feGaussianBlur stdDeviation="4"/><feColorMatrix type="matrix" values="0 0 0 0 0 0 0 0 0 0 0 0 0 0 0 0 0 0 0.25 0" result="drop-tinted-g8-1"/><feMerge><feMergeNode in="drop-tinted-g8-1"/><feMergeNode in="SourceGraphic"/></feMerge></filter></defs><rect x="0" y="0" width="60" height="60" fill="#e64d4d"/></g><g transform="matrix(1,0,0,1,110,20)" filter="url(#filter-g8-5)" style="isolation:isolate"><defs><filter id="filter-g8-5" x="-8" y="-4" width="76" height="76" filterUnits="userSpaceOnUse" color-interpolation-filters="sRGB"><feColorMatrix in="SourceAlpha" type="matrix" values="0 0 0 0 0 0 0 0 0 0 0 0 0 0 0 0 0 0 127 0" result="hardAlpha-g8-3"/><feOffset in="hardAlpha-g8-3" dx="0" dy="4"/><feGaussianBlur stdDeviation="4"/><feColorMatrix type="matrix" values="0 0 0 0 0 0 0 0 0 0 0 0 0 0 0 0 0 0 0.25 0" result="drop-tinted-g8-4"/><feMerge><feMergeNode in="drop-tinted-g8-4"/><feMergeNode in="SourceGraphic"/></feMerge></filter></defs><path d="M 12 0 L 48 0 C 54.62741699796952 0 60 5.3725830020304794 60 12 L 60 48 C 60 54.62741699796952 54.62741699796952 60 48 60 L 12 60 C 5.3725830020304794 60 0 54.62741699796952 0 48 L 0 12 C 0 5.3725830020304794 5.3725830020304794 0 12 0 Z" fill="#4db34d"/></g><g transform="matrix(1,0,0,1,200,20)" filter="url(#filter-g8-8)" style="isolation:isolate"><defs><filter id="filter-g8-8" x="-8" y="-4" width="76" height="76" filterUnits="userSpaceOnUse" color-interpolation-filters="sRGB"><feColorMatrix in="SourceAlpha" type="matrix" values="0 0 0 0 0 0 0 0 0 0 0 0 0 0 0 0 0 0 127 0" result="hardAlpha-g8-6"/><feOffset in="hardAlpha-g8-6" dx="0" dy="4"/><feGaussianBlur stdDeviation="4"/><feColorMatrix type="matrix" values="0 0 0 0 0 0 0 0 0 0 0 0 0 0 0 0 0 0 0.25 0" result="drop-tinted-g8-7"/><feMerge><feMergeNode in="drop-tinted-g8-7"/><feMergeNode in="SourceGraphic"/></feMerge></filter></defs><circle cx="30" cy="30" r="30" fill="#4d80e6"/></g></g></svg>