<svg xmlns="http://www.w3.org/2000/svg" width="1200" height="800" viewBox="0 0 1200 800"><defs><clipPath id="clip-0"><rect x="0" y="0" width="150" height="80" fill="black"/></clipPath><clipPath id="clip-1"><rect x="0" y="0" width="150" height="80" fill="black"/></clipPath><clipPath id="clip-2"><rect x="0" y="0" width="150" height="80" fill="black"/></clipPath><clipPath id="clip-3"><rect x="0" y="0" width="150" height="80" fill="black"/></clipPath><clipPath id="clip-4"><rect x="0" y="0" width="150" height="80" fill="black"/></clipPath><clipPath id="clip-5"><rect x="0" y="0" width="150" height="80" fill="black"/></clipPath><clipPath id="clip-6"><rect x="0" y="0" width="150" height="80" fill="black"/></clipPath><clipPath id="clip-7"><rect x="0" y="0" width="150" height="80" fill="black"/></clipPath><clipPath id="clip-8"><rect x="0" y="0" width="150" height="80" fill="black"/></clipPath><clipPath id="clip-9"><rect x="0" y="0" width="150" height="80" fill="black"/></clipPath><clipPath id="clip-10"><rect x="0" y="0" width="150" height="80" fill="black"/></clipPath><clipPath id="clip-11"><rect x="0" y="0" width="150" height="80" fill="black"/></clipPath></defs><g><rect x="0" y="0" width="150" height="80" fill="#ffffff"/><g clip-path="url(#clip-0)"><g><text x="0" y="14" fill="#000000" font-family="Inter" font-size="14" font-weight="400">Align</text><text x="0" y="28" fill="#000000" font-family="Inter" font-size="14" font-weight="400">Test</text></g></g></g><g transform="matrix(1, 0, 0, 1, 0, 100)"><rect x="0" y="0" width="150" height="80" fill="#ffffff"/><g clip-path="url(#clip-1)"><g><text x="0" y="40" fill="#000000" font-family="Inter" font-size="14" font-weight="400">Align</text><text x="0" y="54" fill="#000000" font-family="Inter" font-size="14" font-weight="400">Test</text></g></g></g><g transform="matrix(1, 0, 0, 1, 0, 200)"><rect x="0" y="0" width="150" height="80" fill="#ffffff"/><g clip-path="url(#clip-2)"><g><text x="0" y="66" fill="#000000" font-family="Inter" font-size="14" font-weight="400">Align</text><text x="0" y="80" fill="#000000" font-family="Inter" font-size="14" font-weight="400">Test</text></g></g></g><g transform="matrix(1, 0, 0, 1, 170, 0)"><rect x="0" y="0" width="150" height="80" fill="#ffffff"/><g clip-path="url(#clip-3)"><g><text x="75" y="14" fill="#000000" font-family="Inter" font-size="14" font-weight="400" text-anchor="middle">Align</text><text x="75" y="28" fill="#000000" font-family="Inter" font-size="14" font-weight="400" text-anchor="middle">Test</text></g></g></g><g transform="matrix(1, 0, 0, 1, 170, 100)"><rect x="0" y="0" width="150" height="80" fill="#ffffff"/><g clip-path="url(#clip-4)"><g><text x="75" y="40" fill="#000000" font-family="Inter" font-size="14" font-weight="400" text-anchor="middle">Align</text><text x="75" y="54" fill="#000000" font-family="Inter" font-size="14" font-weight="400" text-anchor="middle">Test</text></g></g></g><g transform="matrix(1, 0, 0, 1, 170, 200)"><rect x="0" y="0" width="150" height="80" fill="#ffffff"/><g clip-path="url(#clip-5)"><g><text x="75" y="66" fill="#000000" font-family="Inter" font-size="14" font-weight="400" text-anchor="middle">Align</text><text x="75" y="80" fill="#000000" font-family="Inter" font-size="14" font-weight="400" text-anchor="middle">Test</text></g></g></g><g transform="matrix(1, 0, 0, 1, 340, 0)"><rect x="0" y="0" width="150" height="80" fill="#ffffff"/><g clip-path="url(#clip-6)"><g><text x="150" y="14" fill="#000000" font-family="Inter" font-size="14" font-weight="400" text-anchor="end">Align</text><text x="150" y="28" fill="#000000" font-family="Inter" font-size="14" font-weight="400" text-anchor="end">Test</text></g></g></g><g transform="matrix(1, 0, 0, 1, 340, 100)"><rect x="0" y="0" width="150" height="80" fill="#ffffff"/><g clip-path="url(#clip-7)"><g><text x="150" y="40" fill="#000000" font-family="Inter" font-size="14" font-weight="400" text-anchor="end">Align</text><text x="150" y="54" fill="#000000" font-family="Inter" font-size="14" font-weight="400" text-anchor="end">Test</text></g></g></g><g transform="matrix(1, 0, 0, 1, 340, 200)"><rect x="0" y="0" width="150" height="80" fill="#ffffff"/><g clip-path="url(#clip-8)"><g><text x="150" y="66" fill="#000000" font-family="Inter" font-size="14" font-weight="400" text-anchor="end">Align</text><text x="150" y="80" fill="#000000" font-family="Inter" font-size="14" font-weight="400" text-anchor="end">Test</text></g></g></g><g transform="matrix(1, 0, 0, 1, 510, 0)"><rect x="0" y="0" width="150" height="80" fill="#ffffff"/><g clip-path="url(#clip-9)"><g><text x="0" y="14" fill="#000000" font-family="Inter" font-size="14" font-weight="400">Align</text><text x="0" y="28" fill="#000000" font-family="Inter" font-size="14" font-weight="400">Test</text></g></g></g><g transform="matrix(1, 0, 0, 1, 510, 100)"><rect x="0" y="0" width="150" height="80" fill="#ffffff"/><g clip-path="url(#clip-10)"><g><text x="0" y="40" fill="#000000" font-family="Inter" font-size="14" font-weight="400">Align</text><text x="0" y="54" fill="#000000" font-family="Inter" font-size="14" font-weight="400">Test</text></g></g></g><g transform="matrix(1, 0, 0, 1, 510, 200)"><rect x="0" y="0" width="150" height="80" fill="#ffffff"/><g clip-path="url(#clip-11)"><g><text x="0" y="66" fill="#000000" font-family="Inter" font-size="14" font-weight="400">Align</text><text x="0" y="80" fill="#000000" font-family="Inter" font-size="14" font-weight="400">Test</text></g></g></g></svg>