<svg xmlns="http://www.w3.org/2000/svg" width="1200" height="800" viewBox="0 0 1200 800"><defs><clipPath id="clip-0"><rect x="0" y="0" width="50" height="50" fill="black"/></clipPath><clipPath id="clip-1"><rect x="0" y="0" width="100" height="50" fill="black"/></clipPath><clipPath id="clip-2"><rect x="0" y="0" width="200" height="50" fill="black"/></clipPath><clipPath id="clip-3"><rect x="0" y="0" width="200" height="50" fill="black"/></clipPath><clipPath id="clip-4"><rect x="0" y="0" width="200" height="50" fill="black"/></clipPath><clipPath id="clip-5"><rect x="0" y="0" width="150" height="80" fill="black"/></clipPath><clipPath id="clip-6"><rect x="0" y="0" width="150" height="50" fill="black"/></clipPath><clipPath id="clip-7"><rect x="0" y="0" width="200" height="50" fill="black"/></clipPath></defs><g><rect x="0" y="0" width="100" height="50" fill="#ffffff"/></g><g transform="matrix(1, 0, 0, 1, 0, 65)"><rect x="0" y="0" width="50" height="50" fill="#ffffff"/><g clip-path="url(#clip-0)"><text x="0" y="14" fill="#000000" font-family="Inter" font-size="14" font-weight="400">A</text></g></g><g transform="matrix(1, 0, 0, 1, 0, 130)"><rect x="0" y="0" width="100" height="50" fill="#ffffff"/><g clip-path="url(#clip-1)"><text x="0" y="14" fill="#000000" font-family="Inter" font-size="14" font-weight="400">   </text></g></g><g transform="matrix(1, 0, 0, 1, 0, 195)"><rect x="0" y="0" width="200" height="50" fill="#ffffff"/><g clip-path="url(#clip-2)"><text x="0" y="14" fill="#000000" font-family="Inter" font-size="14" font-weight="400">Hello 👋 World 🌍</text></g></g><g transform="matrix(1, 0, 0, 1, 0, 260)"><rect x="0" y="0" width="200" height="50" fill="#ffffff"/><g clip-path="url(#clip-3)"><text x="0" y="14" fill="#000000" font-family="Inter" font-size="14" font-weight="400">你好世界 こんにちは</text></g></g><g transform="matrix(1, 0, 0, 1, 0, 325)"><rect x="0" y="0" width="200" height="50" fill="#ffffff"/><g clip-path="url(#clip-4)"><text x="0" y="14" fill="#000000" font-family="Inter" font-size="14" font-weight="400">مرحبا بالعالم</text></g></g><g transform="matrix(1, 0, 0, 1, 0, 390)"><rect x="0" y="0" width="150" height="80" fill="#ffffff"/><g clip-path="url(#clip-5)"><text x="0" y="14" fill="#000000" font-family="Inter" font-size="14" font-weight="400">Supercalifragilisticexpialidocious</text></g></g><g transform="matrix(1, 0, 0, 1, 0, 485)"><rect x="0" y="0" width="150" height="50" fill="#ffffff"/><g clip-path="url(#clip-6)"><text x="0" y="14" fill="#000000" font-family="Inter" font-size="14" font-weight="400">0123456789</text></g></g><g transform="matrix(1, 0, 0, 1, 0, 550)"><rect x="0" y="0" width="200" height="50" fill="#ffffff"/><g clip-path="url(#clip-7)"><text x="0" y="14" fill="#000000" font-family="Inter" font-size="14" font-weight="400">!@#$%^&amp;*()[]{}|\</text></g></g></svg>