<svg xmlns="http://www.w3.org/2000/svg" width="1200" height="800" viewBox="0 0 1200 800"><defs><clipPath id="clip-0"><rect x="0" y="0" width="200" height="30" fill="black"/></clipPath><clipPath id="clip-1"><rect x="0" y="0" width="200" height="30" fill="black"/></clipPath><clipPath id="clip-2"><rect x="0" y="0" width="200" height="30" fill="black"/></clipPath><clipPath id="clip-3"><rect x="0" y="0" width="200" height="30" fill="black"/></clipPath><clipPath id="clip-4"><rect x="0" y="0" width="200" height="30" fill="black"/></clipPath><clipPath id="clip-5"><rect x="0" y="0" width="200" height="30" fill="black"/></clipPath><clipPath id="clip-6"><rect x="0" y="0" width="200" height="30" fill="black"/></clipPath><clipPath id="clip-7"><rect x="0" y="0" width="200" height="36" fill="black"/></clipPath><clipPath id="clip-8"><rect x="0" y="0" width="200" height="42" fill="black"/></clipPath><clipPath id="clip-9"><rect x="0" y="0" width="200" height="48" fill="black"/></clipPath><clipPath id="clip-10"><rect x="0" y="0" width="200" height="60" fill="black"/></clipPath><clipPath id="clip-11"><rect x="0" y="0" width="200" height="72" fill="black"/></clipPath><clipPath id="clip-12"><rect x="0" y="0" width="200" height="96" fill="black"/></clipPath></defs><g><rect x="0" y="0" width="200" height="30" fill="#ffffff"/><g clip-path="url(#clip-0)"><text x="0" y="8" fill="#000000" font-family="Inter" font-size="8" font-weight="400">Font 8px</text></g></g><g transform="matrix(1, 0, 0, 1, 0, 50)"><rect x="0" y="0" width="200" height="30" fill="#ffffff"/><g clip-path="url(#clip-1)"><text x="0" y="10" fill="#000000" font-family="Inter" font-size="10" font-weight="400">Font 10px</text></g></g><g transform="matrix(1, 0, 0, 1, 0, 100)"><rect x="0" y="0" width="200" height="30" fill="#ffffff"/><g clip-path="url(#clip-2)"><text x="0" y="12" fill="#000000" font-family="Inter" font-size="12" font-weight="400">Font 12px</text></g></g><g transform="matrix(1, 0, 0, 1, 0, 150)"><rect x="0" y="0" width="200" height="30" fill="#ffffff"/><g clip-path="url(#clip-3)"><text x="0" y="14" fill="#000000" font-family="Inter" font-size="14" font-weight="400">Font 14px</text></g></g><g transform="matrix(1, 0, 0, 1, 0, 200)"><rect x="0" y="0" width="200" height="30" fill="#ffffff"/><g clip-path="url(#clip-4)"><text x="0" y="16" fill="#000000" font-family="Inter" font-size="16" font-weight="400">Font 16px</text></g></g><g transform="matrix(1, 0, 0, 1, 0, 250)"><rect x="0" y="0" width="200" height="30" fill="#ffffff"/><g clip-path="url(#clip-5)"><text x="0" y="18" fill="#000000" font-family="Inter" font-size="18" font-weight="400">Font 18px</text></g></g><g transform="matrix(1, 0, 0, 1, 0, 300)"><rect x="0" y="0" width="200" height="30" fill="#ffffff"/><g clip-path="url(#clip-6)"><text x="0" y="20" fill="#000000" font-family="Inter" font-size="20" font-weight="400">Font 20px</text></g></g><g transform="matrix(1, 0, 0, 1, 0, 350)"><rect x="0" y="0" width="200" height="36" fill="#ffffff"/><g clip-path="url(#clip-7)"><text x="0" y="24" fill="#000000" font-family="Inter" font-size="24" font-weight="400">Font 24px</text></g></g><g transform="matrix(1, 0, 0, 1, 0, 406)"><rect x="0" y="0" width="200" height="42" fill="#ffffff"/><g clip-path="url(#clip-8)"><text x="0" y="28" fill="#000000" font-family="Inter" font-size="28" font-weight="400">Font 28px</text></g></g><g transform="matrix(1, 0, 0, 1, 0, 468)"><rect x="0" y="0" width="200" height="48" fill="#ffffff"/><g clip-path="url(#clip-9)"><text x="0" y="32" fill="#000000" font-family="Inter" font-size="32" font-weight="400">Font 32px</text></g></g><g transform="matrix(1, 0, 0, 1, 0, 536)"><rect x="0" y="0" width="200" height="60" fill="#ffffff"/><g clip-path="url(#clip-10)"><text x="0" y="40" fill="#000000" font-family="Inter" font-size="40" font-weight="400">Font 40px</text></g></g><g transform="matrix(1, 0, 0, 1, 0, 616)"><rect x="0" y="0" width="200" height="72" fill="#ffffff"/><g clip-path="url(#clip-11)"><text x="0" y="48" fill="#000000" font-family="Inter" font-size="48" font-weight="400">Font 48px</text></g></g><g transform="matrix(1, 0, 0, 1, 0, 708)"><rect x="0" y="0" width="200" height="96" fill="#ffffff"/><g clip-path="url(#clip-12)"><text x="0" y="64" fill="#000000" font-family="Inter" font-size="64" font-weight="400">Font 64px</text></g></g></svg>