<svg xmlns="http://www.w3.org/2000/svg" width="1200" height="800" viewBox="0 0 1200 800"><defs><clipPath id="clip-0"><rect x="0" y="0" width="150" height="80" fill="black"/></clipPath><clipPath id="clip-1"><rect x="0" y="0" width="150" height="80" fill="black"/></clipPath><clipPath id="clip-2"><rect x="0" y="0" width="150" height="80" fill="black"/></clipPath><clipPath id="clip-3"><rect x="0" y="0" width="150" height="80" fill="black"/></clipPath><clipPath id="clip-4"><rect x="0" y="0" width="150" height="80" fill="black"/></clipPath><clipPath id="clip-5"><rect x="0" y="0" width="150" height="80" fill="black"/></clipPath></defs><g><rect x="0" y="0" width="150" height="80" fill="#ffffff"/><g clip-path="url(#clip-0)"><text x="0" y="14" fill="#000000" font-family="Inter" font-size="14" font-weight="400">Short</text></g></g><g transform="matrix(1, 0, 0, 1, 0, 110)"><rect x="0" y="0" width="150" height="80" fill="#ffffff"/><g clip-path="url(#clip-1)"><text x="0" y="14" fill="#000000" font-family="Inter" font-size="14" font-weight="400">This is a longer text that might wrap.</text></g></g><g transform="matrix(1, 0, 0, 1, 180, 0)"><rect x="0" y="0" width="150" height="80" fill="#ffffff"/><g clip-path="url(#clip-2)"><text x="0" y="14" fill="#000000" font-family="Inter" font-size="14" font-weight="400">Short</text></g></g><g transform="matrix(1, 0, 0, 1, 180, 110)"><rect x="0" y="0" width="150" height="80" fill="#ffffff"/><g clip-path="url(#clip-3)"><text x="0" y="14" fill="#000000" font-family="Inter" font-size="14" font-weight="400">This is a longer text that might wrap.</text></g></g><g transform="matrix(1, 0, 0, 1, 360, 0)"><rect x="0" y="0" width="150" height="80" fill="#ffffff"/><g clip-path="url(#clip-4)"><text x="0" y="14" fill="#000000" font-family="Inter" font-size="14" font-weight="400">Short</text></g></g><g transform="matrix(1, 0, 0, 1, 360, 110)"><rect x="0" y="0" width="150" height="80" fill="#ffffff"/><g clip-path="url(#clip-5)"><text x="0" y="14" fill="#000000" font-family="Inter" font-size="14" font-weight="400">This is a longer text that might wrap.</text></g></g></svg>