<svg xmlns="http://www.w3.org/2000/svg" width="1200" height="800" viewBox="0 0 1200 800"><defs><clipPath id="clip-0"><rect x="0" y="0" width="180" height="120" fill="black"/></clipPath><clipPath id="clip-1"><rect x="0" y="0" width="180" height="120" fill="black"/></clipPath><clipPath id="clip-2"><rect x="0" y="0" width="180" height="120" fill="black"/></clipPath><clipPath id="clip-3"><rect x="0" y="0" width="180" height="120" fill="black"/></clipPath><clipPath id="clip-4"><rect x="0" y="0" width="180" height="120" fill="black"/></clipPath><clipPath id="clip-5"><rect x="0" y="0" width="180" height="120" fill="black"/></clipPath></defs><g><rect x="0" y="0" width="180" height="120" fill="#ffffff"/><g clip-path="url(#clip-0)"><g><text x="0" y="14" fill="#000000" font-family="Inter" font-size="14" font-weight="400">Line 1</text><text x="0" y="28" fill="#000000" font-family="Inter" font-size="14" font-weight="400">Line 2</text></g></g></g><g transform="matrix(1, 0, 0, 1, 200, 0)"><rect x="0" y="0" width="180" height="120" fill="#ffffff"/><g clip-path="url(#clip-1)"><g><text x="0" y="14" fill="#000000" font-family="Inter" font-size="14" font-weight="400">Line 1</text><text x="0" y="28" fill="#000000" font-family="Inter" font-size="14" font-weight="400">Line 2</text><text x="0" y="42" fill="#000000" font-family="Inter" font-size="14" font-weight="400">Line 3</text></g></g></g><g transform="matrix(1, 0, 0, 1, 400, 0)"><rect x="0" y="0" width="180" height="120" fill="#ffffff"/><g clip-path="url(#clip-2)"><g><text x="0" y="14" fill="#000000" font-family="Inter" font-size="14" font-weight="400">Line 1</text><text x="0" y="28" fill="#000000" font-family="Inter" font-size="14" font-weight="400">Line 2</text><text x="0" y="42" fill="#000000" font-family="Inter" font-size="14" font-weight="400">Line 3</text><text x="0" y="56" fill="#000000" font-family="Inter" font-size="14" font-weight="400">Line 4</text><text x="0" y="70" fill="#000000" font-family="Inter" font-size="14" font-weight="400">Line 5</text></g></g></g><g transform="matrix(1, 0, 0, 1, 0, 140)"><rect x="0" y="0" width="180" height="120" fill="#ffffff"/><g clip-path="url(#clip-3)"><g><text x="0" y="14" fill="#000000" font-family="Inter" font-size="14" font-weight="400">Before</text><text x="0" y="28" fill="#000000" font-family="Inter" font-size="14" font-weight="400"></text><text x="0" y="42" fill="#000000" font-family="Inter" font-size="14" font-weight="400"></text><text x="0" y="56" fill="#000000" font-family="Inter" font-size="14" font-weight="400">After</text></g></g></g><g transform="matrix(1, 0, 0, 1, 200, 140)"><rect x="0" y="0" width="180" height="120" fill="#ffffff"/><g clip-path="url(#clip-4)"><text x="0" y="14" fill="#000000" font-family="Inter" font-size="14" font-weight="400">This text should wrap in a narrow container</text></g></g><g transform="matrix(1, 0, 0, 1, 400, 140)"><rect x="0" y="0" width="180" height="120" fill="#ffffff"/><g clip-path="url(#clip-5)"><g><text x="0" y="14" fill="#000000" font-family="Inter" font-size="14" font-weight="400">Explicit</text><text x="0" y="28" fill="#000000" font-family="Inter" font-size="14" font-weight="400">break and wrapping text</text></g></g></g></svg>