<svg xmlns="http://www.w3.org/2000/svg" width="200" height="150" viewBox="0 0 200 150"><g><defs><clipPath id="clip-g11-0"><rect x="0" y="0" width="200" height="150"/></clipPath></defs><g clip-path="url(#clip-g11-0)"><rect x="0" y="0" width="200" height="150" fill="#ffffff"/><g transform="matrix(1,0,0,1,30,25)"><path d="M20 0C8.954304695129 0 0 8.954304695129 0 20L0 80C0 91.045692443848 8.954304695129 100 20 100L120 100C131.045700073242 100 140 91.045692443848 140 80L140 20C140 8.954304695129 131.045700073242 0 120 0L20 0M30 20L110 20C115.522850036621 20 120 24.477152347565 120 30L120 70C120 75.522846221924 115.522850036621 80 110 80L30 80C24.477152347565 80 20 75.522846221924 20 70L20 30C20 24.477152347565 24.477152347565 20 30 20" fill-rule="evenodd" fill="#3366e6"/></g></g></g></svg>