<svg width="580" height="580" viewBox="0 0 580 580" fill="none" xmlns="http://www.w3.org/2000/svg">
<path d="M40 42C40 40.8954 40.8954 40 42 40H538C539.105 40 540 40.8954 540 42V538C540 539.105 539.105 540 538 540H42C40.8954 540 40 539.105 40 538V42Z" fill="white"/>
<path d="M42 40V41H538V40V39H42V40ZM540 42H539V538H540H541V42H540ZM538 540V539H42V540V541H538V540ZM40 538H41V42H40H39V538H40ZM42 540V539C41.4477 539 41 538.552 41 538H40H39C39 539.657 40.3432 541 42 541V540ZM540 538H539C539 538.552 538.552 539 538 539V540V541C539.657 541 541 539.657 541 538H540ZM538 40V41C538.552 41 539 41.4477 539 42H540H541C541 40.3431 539.657 39 538 39V40ZM42 40V39C40.3431 39 39 40.3432 39 42H40H41C41 41.4477 41.4477 41 42 41V40Z" fill="black" fill-opacity="0.1"/>
<rect x="40" y="4" width="82.125" height="30" rx="3" fill="white"/>
<rect x="40.5" y="4.5" width="81.125" height="29" rx="2.5" stroke="black" stroke-opacity="0.2"/>
<path d="M46.9688 22V14H49.7656C50.3229 14 50.7826 14.0964 51.1445 14.2891C51.5065 14.4792 51.776 14.7357 51.9531 15.0586C52.1302 15.3789 52.2188 15.7344 52.2188 16.125C52.2188 16.4687 52.1576 16.7526 52.0352 16.9766C51.9154 17.2005 51.7565 17.3776 51.5586 17.5078C51.3633 17.638 51.151 17.7344 50.9219 17.7969V17.875C51.1667 17.8906 51.4128 17.9766 51.6602 18.1328C51.9076 18.2891 52.1146 18.513 52.2813 18.8047C52.4479 19.0964 52.5312 19.4531 52.5312 19.875C52.5312 20.276 52.4401 20.6367 52.2578 20.957C52.0755 21.2773 51.7878 21.5312 51.3945 21.7187C51.0013 21.9062 50.4896 22 49.8594 22H46.9688ZM47.9375 21.1406H49.8594C50.4922 21.1406 50.9414 21.0182 51.207 20.7734C51.4753 20.526 51.6094 20.2266 51.6094 19.875C51.6094 19.6042 51.5404 19.3542 51.4023 19.125C51.2643 18.8932 51.0677 18.7083 50.8125 18.5703C50.5573 18.4297 50.2552 18.3594 49.9063 18.3594H47.9375V21.1406ZM47.9375 17.5156H49.7344C50.026 17.5156 50.2891 17.4583 50.5234 17.3437C50.7604 17.2292 50.9479 17.0677 51.0859 16.8594C51.2266 16.651 51.2969 16.4062 51.2969 16.125C51.2969 15.7734 51.1745 15.4753 50.9297 15.2305C50.6849 14.9831 50.2969 14.8594 49.7656 14.8594H47.9375V17.5156ZM55.7637 22.1406C55.3835 22.1406 55.0384 22.069 54.7285 21.9258C54.4186 21.7799 54.1725 21.5703 53.9902 21.2969C53.8079 21.0208 53.7168 20.6875 53.7168 20.2969C53.7168 19.9531 53.7845 19.6745 53.9199 19.4609C54.0553 19.2448 54.2363 19.0755 54.4629 18.9531C54.6895 18.8307 54.9395 18.7396 55.2129 18.6797C55.4889 18.6172 55.7663 18.5677 56.0449 18.5313C56.4095 18.4844 56.7051 18.4492 56.9316 18.4258C57.1608 18.3997 57.3275 18.3568 57.4316 18.2969C57.5384 18.237 57.5918 18.1328 57.5918 17.9844V17.9531C57.5918 17.5677 57.4863 17.2682 57.2754 17.0547C57.0671 16.8411 56.7507 16.7344 56.3262 16.7344C55.8861 16.7344 55.541 16.8307 55.291 17.0234C55.041 17.2161 54.8652 17.4219 54.7637 17.6406L53.8887 17.3281C54.0449 16.9635 54.2533 16.6797 54.5137 16.4766C54.7767 16.2708 55.0632 16.1276 55.373 16.0469C55.6855 15.9635 55.9928 15.9219 56.2949 15.9219C56.4876 15.9219 56.709 15.9453 56.959 15.9922C57.2116 16.0365 57.4551 16.1289 57.6895 16.2695C57.9264 16.4102 58.123 16.6224 58.2793 16.9062C58.4355 17.1901 58.5137 17.5703 58.5137 18.0469V22H57.5918V21.1875H57.5449C57.4824 21.3177 57.3783 21.457 57.2324 21.6055C57.0866 21.7539 56.8926 21.8802 56.6504 21.9844C56.4082 22.0885 56.1126 22.1406 55.7637 22.1406ZM55.9043 21.3125C56.2689 21.3125 56.5762 21.2409 56.8262 21.0977C57.0788 20.9544 57.2689 20.7695 57.3965 20.543C57.5267 20.3164 57.5918 20.0781 57.5918 19.8281V18.9844C57.5527 19.0312 57.4668 19.0742 57.334 19.1133C57.2038 19.1497 57.0527 19.1823 56.8809 19.2109C56.7116 19.237 56.5462 19.2604 56.3848 19.2812C56.2259 19.2995 56.097 19.3151 55.998 19.3281C55.7585 19.3594 55.5345 19.4102 55.3262 19.4805C55.1204 19.5482 54.9538 19.651 54.8262 19.7891C54.7012 19.9245 54.6387 20.1094 54.6387 20.3437C54.6387 20.6641 54.7572 20.9062 54.9941 21.0703C55.2337 21.2318 55.5371 21.3125 55.9043 21.3125ZM64.4463 17.3437L63.6182 17.5781C63.5661 17.4401 63.4893 17.306 63.3877 17.1758C63.2887 17.043 63.1533 16.9336 62.9814 16.8477C62.8096 16.7617 62.5895 16.7187 62.3213 16.7187C61.9541 16.7187 61.6481 16.8034 61.4033 16.9727C61.1611 17.1393 61.04 17.3516 61.04 17.6094C61.04 17.8385 61.1234 18.0195 61.29 18.1523C61.4567 18.2852 61.7171 18.3958 62.0713 18.4844L62.9619 18.7031C63.4984 18.8333 63.8981 19.0326 64.1611 19.3008C64.4242 19.5664 64.5557 19.9089 64.5557 20.3281C64.5557 20.6719 64.4567 20.9792 64.2588 21.25C64.0635 21.5208 63.79 21.7344 63.4385 21.8906C63.0869 22.0469 62.6781 22.125 62.2119 22.125C61.5999 22.125 61.0934 21.9922 60.6924 21.7266C60.2913 21.4609 60.0374 21.0729 59.9307 20.5625L60.8057 20.3437C60.889 20.6667 61.0465 20.9089 61.2783 21.0703C61.5127 21.2318 61.8187 21.3125 62.1963 21.3125C62.626 21.3125 62.9671 21.2214 63.2197 21.0391C63.4749 20.8542 63.6025 20.6328 63.6025 20.375C63.6025 20.1667 63.5296 19.9922 63.3838 19.8516C63.238 19.7083 63.014 19.6016 62.7119 19.5312L61.7119 19.2969C61.1624 19.1667 60.7588 18.9648 60.501 18.6914C60.2458 18.4154 60.1182 18.0703 60.1182 17.6562C60.1182 17.3177 60.2132 17.0182 60.4033 16.7578C60.596 16.4974 60.8577 16.293 61.1885 16.1445C61.5218 15.9961 61.8994 15.9219 62.3213 15.9219C62.915 15.9219 63.3812 16.0521 63.7197 16.3125C64.0609 16.5729 64.3031 16.9167 64.4463 17.3437ZM65.9434 22V16H66.8652V22H65.9434ZM66.4121 15C66.2324 15 66.0775 14.9388 65.9473 14.8164C65.8197 14.694 65.7559 14.5469 65.7559 14.375C65.7559 14.2031 65.8197 14.056 65.9473 13.9336C66.0775 13.8112 66.2324 13.75 66.4121 13.75C66.5918 13.75 66.7454 13.8112 66.873 13.9336C67.0033 14.056 67.0684 14.2031 67.0684 14.375C67.0684 14.5469 67.0033 14.694 66.873 14.8164C66.7454 14.9388 66.5918 15 66.4121 15ZM70.9912 22.125C70.4287 22.125 69.9443 21.9922 69.5381 21.7266C69.1318 21.4609 68.8193 21.0951 68.6006 20.6289C68.3818 20.1628 68.2725 19.6302 68.2725 19.0312C68.2725 18.4219 68.3844 17.8841 68.6084 17.418C68.835 16.9492 69.1501 16.5833 69.5537 16.3203C69.96 16.0547 70.4339 15.9219 70.9756 15.9219C71.3975 15.9219 71.7777 16 72.1162 16.1562C72.4548 16.3125 72.7321 16.5312 72.9482 16.8125C73.1644 17.0937 73.2985 17.4219 73.3506 17.7969H72.4287C72.3584 17.5234 72.2021 17.2812 71.96 17.0703C71.7204 16.8568 71.3975 16.75 70.9912 16.75C70.6318 16.75 70.3167 16.8437 70.0459 17.0312C69.7777 17.2161 69.568 17.4779 69.417 17.8164C69.2686 18.1523 69.1943 18.5469 69.1943 19C69.1943 19.4635 69.2673 19.8672 69.4131 20.2109C69.5615 20.5547 69.7699 20.8216 70.0381 21.0117C70.3089 21.2018 70.6266 21.2969 70.9912 21.2969C71.2308 21.2969 71.4482 21.2552 71.6436 21.1719C71.8389 21.0885 72.0042 20.9688 72.1396 20.8125C72.2751 20.6562 72.3714 20.4687 72.4287 20.25H73.3506C73.2985 20.6042 73.1696 20.9232 72.9639 21.207C72.7607 21.4883 72.4912 21.7122 72.1553 21.8789C71.8219 22.043 71.4339 22.125 70.9912 22.125ZM82.292 16C82.2451 15.6042 82.055 15.2969 81.7217 15.0781C81.3883 14.8594 80.9795 14.75 80.4951 14.75C80.141 14.75 79.8311 14.8073 79.5654 14.9219C79.3024 15.0365 79.0967 15.194 78.9482 15.3945C78.8024 15.5951 78.7295 15.8229 78.7295 16.0781C78.7295 16.2917 78.7803 16.4753 78.8818 16.6289C78.986 16.7799 79.1188 16.9062 79.2803 17.0078C79.4417 17.1068 79.611 17.1888 79.7881 17.2539C79.9652 17.3164 80.1279 17.3672 80.2764 17.4062L81.0889 17.625C81.2972 17.6797 81.529 17.7552 81.7842 17.8516C82.042 17.9479 82.2881 18.0794 82.5225 18.2461C82.7594 18.4102 82.9548 18.6211 83.1084 18.8789C83.262 19.1367 83.3389 19.4531 83.3389 19.8281C83.3389 20.2604 83.2256 20.651 82.999 21C82.7751 21.349 82.4469 21.6263 82.0146 21.832C81.585 22.0378 81.0628 22.1406 80.4482 22.1406C79.8753 22.1406 79.3792 22.0482 78.96 21.8633C78.5433 21.6784 78.2152 21.4206 77.9756 21.0898C77.7386 20.7591 77.6045 20.375 77.5732 19.9375H78.5732C78.5993 20.2396 78.7008 20.4896 78.8779 20.6875C79.0576 20.8828 79.2842 21.0286 79.5576 21.125C79.8337 21.2187 80.1305 21.2656 80.4482 21.2656C80.818 21.2656 81.1501 21.2057 81.4443 21.0859C81.7386 20.9635 81.9717 20.7943 82.1436 20.5781C82.3154 20.3594 82.4014 20.1042 82.4014 19.8125C82.4014 19.5469 82.3271 19.3307 82.1787 19.1641C82.0303 18.9974 81.835 18.862 81.5928 18.7578C81.3506 18.6536 81.0889 18.5625 80.8076 18.4844L79.8232 18.2031C79.1982 18.0234 78.7035 17.7669 78.3389 17.4336C77.9743 17.1003 77.792 16.6641 77.792 16.125C77.792 15.6771 77.9131 15.2865 78.1553 14.9531C78.4001 14.6172 78.7282 14.3568 79.1396 14.1719C79.5537 13.9844 80.016 13.8906 80.5264 13.8906C81.042 13.8906 81.5003 13.9831 81.9014 14.168C82.3024 14.3503 82.6201 14.6003 82.8545 14.918C83.0915 15.2357 83.2165 15.5964 83.2295 16H82.292ZM87.3223 22.125C86.7441 22.125 86.2454 21.9974 85.8262 21.7422C85.4095 21.4844 85.0879 21.125 84.8613 20.6641C84.6374 20.2005 84.5254 19.6615 84.5254 19.0469C84.5254 18.4323 84.6374 17.8906 84.8613 17.4219C85.0879 16.9505 85.403 16.5833 85.8066 16.3203C86.2129 16.0547 86.6868 15.9219 87.2285 15.9219C87.541 15.9219 87.8496 15.974 88.1543 16.0781C88.459 16.1823 88.7363 16.3516 88.9863 16.5859C89.2363 16.8177 89.4355 17.125 89.584 17.5078C89.7324 17.8906 89.8066 18.362 89.8066 18.9219V19.3125H85.1816V18.5156H88.8691C88.8691 18.1771 88.8014 17.875 88.666 17.6094C88.5332 17.3437 88.3431 17.1341 88.0957 16.9805C87.8509 16.8268 87.5618 16.75 87.2285 16.75C86.8613 16.75 86.5436 16.8411 86.2754 17.0234C86.0098 17.2031 85.8053 17.4375 85.6621 17.7266C85.5189 18.0156 85.4473 18.3255 85.4473 18.6562V19.1875C85.4473 19.6406 85.5254 20.0247 85.6816 20.3398C85.8405 20.6523 86.0605 20.8906 86.3418 21.0547C86.623 21.2161 86.9499 21.2969 87.3223 21.2969C87.5645 21.2969 87.7832 21.263 87.9785 21.1953C88.1764 21.125 88.347 21.0208 88.4902 20.8828C88.6335 20.7422 88.7441 20.5677 88.8223 20.3594L89.7129 20.6094C89.6191 20.9115 89.4616 21.1771 89.2402 21.4062C89.0189 21.6328 88.7454 21.8099 88.4199 21.9375C88.0944 22.0625 87.7285 22.125 87.3223 22.125ZM93.6465 22.125C93.084 22.125 92.5996 21.9922 92.1934 21.7266C91.7871 21.4609 91.4746 21.0951 91.2559 20.6289C91.0371 20.1628 90.9277 19.6302 90.9277 19.0312C90.9277 18.4219 91.0397 17.8841 91.2637 17.418C91.4902 16.9492 91.8053 16.5833 92.209 16.3203C92.6152 16.0547 93.0892 15.9219 93.6309 15.9219C94.0527 15.9219 94.4329 16 94.7715 16.1562C95.11 16.3125 95.3874 16.5312 95.6035 16.8125C95.8197 17.0937 95.9538 17.4219 96.0059 17.7969H95.084C95.0137 17.5234 94.8574 17.2812 94.6152 17.0703C94.3757 16.8568 94.0527 16.75 93.6465 16.75C93.2871 16.75 92.972 16.8437 92.7012 17.0312C92.4329 17.2161 92.2233 17.4779 92.0723 17.8164C91.9238 18.1523 91.8496 18.5469 91.8496 19C91.8496 19.4635 91.9225 19.8672 92.0684 20.2109C92.2168 20.5547 92.4251 20.8216 92.6934 21.0117C92.9642 21.2018 93.2819 21.2969 93.6465 21.2969C93.8861 21.2969 94.1035 21.2552 94.2988 21.1719C94.4941 21.0885 94.6595 20.9688 94.7949 20.8125C94.9303 20.6562 95.0267 20.4687 95.084 20.25H96.0059C95.9538 20.6042 95.8249 20.9232 95.6191 21.207C95.416 21.4883 95.1465 21.7122 94.8105 21.8789C94.4772 22.043 94.0892 22.125 93.6465 22.125ZM99.9629 16V16.7812H96.8535V16H99.9629ZM97.7598 14.5625H98.6816V20.2812C98.6816 20.5417 98.7194 20.737 98.7949 20.8672C98.873 20.9948 98.972 21.0807 99.0918 21.125C99.2142 21.1667 99.3431 21.1875 99.4785 21.1875C99.5801 21.1875 99.6634 21.1823 99.7285 21.1719C99.7936 21.1589 99.8457 21.1484 99.8848 21.1406L100.072 21.9687C100.01 21.9922 99.9225 22.0156 99.8105 22.0391C99.6986 22.0651 99.5566 22.0781 99.3848 22.0781C99.1243 22.0781 98.8691 22.0221 98.6191 21.9102C98.3717 21.7982 98.166 21.6276 98.002 21.3984C97.8405 21.1693 97.7598 20.8802 97.7598 20.5312V14.5625ZM101.35 22V16H102.271V22H101.35ZM101.818 15C101.639 15 101.484 14.9388 101.354 14.8164C101.226 14.694 101.162 14.5469 101.162 14.375C101.162 14.2031 101.226 14.056 101.354 13.9336C101.484 13.8112 101.639 13.75 101.818 13.75C101.998 13.75 102.152 13.8112 102.279 13.9336C102.41 14.056 102.475 14.2031 102.475 14.375C102.475 14.5469 102.41 14.694 102.279 14.8164C102.152 14.9388 101.998 15 101.818 15ZM106.397 22.125C105.856 22.125 105.381 21.9961 104.972 21.7383C104.565 21.4805 104.248 21.1198 104.019 20.6562C103.792 20.1927 103.679 19.651 103.679 19.0312C103.679 18.4062 103.792 17.8607 104.019 17.3945C104.248 16.9284 104.565 16.5664 104.972 16.3086C105.381 16.0508 105.856 15.9219 106.397 15.9219C106.939 15.9219 107.413 16.0508 107.819 16.3086C108.228 16.5664 108.546 16.9284 108.772 17.3945C109.002 17.8607 109.116 18.4062 109.116 19.0312C109.116 19.651 109.002 20.1927 108.772 20.6562C108.546 21.1198 108.228 21.4805 107.819 21.7383C107.413 21.9961 106.939 22.125 106.397 22.125ZM106.397 21.2969C106.809 21.2969 107.147 21.1914 107.413 20.9805C107.679 20.7695 107.875 20.4922 108.003 20.1484C108.131 19.8047 108.194 19.4323 108.194 19.0312C108.194 18.6302 108.131 18.2565 108.003 17.9102C107.875 17.5638 107.679 17.2839 107.413 17.0703C107.147 16.8568 106.809 16.75 106.397 16.75C105.986 16.75 105.647 16.8568 105.382 17.0703C105.116 17.2839 104.92 17.5638 104.792 17.9102C104.664 18.2565 104.601 18.6302 104.601 19.0312C104.601 19.4323 104.664 19.8047 104.792 20.1484C104.92 20.4922 105.116 20.7695 105.382 20.9805C105.647 21.1914 105.986 21.2969 106.397 21.2969ZM111.445 18.3906V22H110.523V16H111.414V16.9375H111.492C111.633 16.6328 111.846 16.388 112.133 16.2031C112.419 16.0156 112.789 15.9219 113.242 15.9219C113.648 15.9219 114.004 16.0052 114.309 16.1719C114.613 16.3359 114.85 16.5859 115.02 16.9219C115.189 17.2552 115.273 17.6771 115.273 18.1875V22H114.352V18.25C114.352 17.7786 114.229 17.4115 113.984 17.1484C113.74 16.8828 113.404 16.75 112.977 16.75C112.682 16.75 112.419 16.8138 112.188 16.9414C111.958 17.069 111.777 17.2552 111.645 17.5C111.512 17.7448 111.445 18.0417 111.445 18.3906Z" fill="black"/>
</svg>
