<svg width="480" height="280" viewBox="0 0 480 280" fill="none" xmlns="http://www.w3.org/2000/svg">
<g opacity="0.6">
<path d="M40 42C40 40.8954 40.8954 40 42 40H438C439.105 40 440 40.8954 440 42V238C440 239.105 439.105 240 438 240H42C40.8954 240 40 239.105 40 238V42Z" fill="white"/>
<path d="M42 40V41H438V40V39H42V40ZM440 42H439V238H440H441V42H440ZM438 240V239H42V240V241H438V240ZM40 238H41V42H40H39V238H40ZM42 240V239C41.4477 239 41 238.552 41 238H40H39C39 239.657 40.3431 241 42 241V240ZM440 238H439C439 238.552 438.552 239 438 239V240V241C439.657 241 441 239.657 441 238H440ZM438 40V41C438.552 41 439 41.4477 439 42H440H441C441 40.3431 439.657 39 438 39V40ZM42 40V39C40.3431 39 39 40.3431 39 42H40H41C41 41.4477 41.4477 41 42 41V40Z" fill="black" fill-opacity="0.1"/>
</g>
<rect x="40" y="4" width="86.9844" height="30" rx="3" fill="white"/>
<rect x="40.5" y="4.5" width="85.9844" height="29" rx="2.5" stroke="black" stroke-opacity="0.2"/>
<path d="M46.9688 22V14H51.7656V14.8594H47.9375V17.5625H51.4063V18.4219H47.9375V22H46.9688ZM55.0654 22.1406C54.6852 22.1406 54.3402 22.069 54.0303 21.9258C53.7204 21.7799 53.4743 21.5703 53.292 21.2969C53.1097 21.0208 53.0186 20.6875 53.0186 20.2969C53.0186 19.9531 53.0863 19.6745 53.2217 19.4609C53.3571 19.2448 53.5381 19.0755 53.7646 18.9531C53.9912 18.8307 54.2412 18.7396 54.5146 18.6797C54.7907 18.6172 55.068 18.5677 55.3467 18.5313C55.7113 18.4844 56.0068 18.4492 56.2334 18.4258C56.4626 18.3997 56.6292 18.3568 56.7334 18.2969C56.8402 18.237 56.8936 18.1328 56.8936 17.9844V17.9531C56.8936 17.5677 56.7881 17.2682 56.5771 17.0547C56.3688 16.8411 56.0524 16.7344 55.6279 16.7344C55.1878 16.7344 54.8428 16.8307 54.5928 17.0234C54.3428 17.2161 54.167 17.4219 54.0654 17.6406L53.1904 17.3281C53.3467 16.9635 53.555 16.6797 53.8154 16.4766C54.0785 16.2708 54.3649 16.1276 54.6748 16.0469C54.9873 15.9635 55.2946 15.9219 55.5967 15.9219C55.7894 15.9219 56.0107 15.9453 56.2607 15.9922C56.5133 16.0365 56.7568 16.1289 56.9912 16.2695C57.2282 16.4102 57.4248 16.6224 57.5811 16.9062C57.7373 17.1901 57.8154 17.5703 57.8154 18.0469V22H56.8936V21.1875H56.8467C56.7842 21.3177 56.68 21.457 56.5342 21.6055C56.3883 21.7539 56.1943 21.8802 55.9521 21.9844C55.71 22.0885 55.4144 22.1406 55.0654 22.1406ZM55.2061 21.3125C55.5706 21.3125 55.8779 21.2409 56.1279 21.0977C56.3805 20.9544 56.5706 20.7695 56.6982 20.543C56.8285 20.3164 56.8936 20.0781 56.8936 19.8281V18.9844C56.8545 19.0312 56.7686 19.0742 56.6357 19.1133C56.5055 19.1497 56.3545 19.1823 56.1826 19.2109C56.0133 19.237 55.848 19.2604 55.6865 19.2812C55.5277 19.2995 55.3988 19.3151 55.2998 19.3281C55.0602 19.3594 54.8363 19.4102 54.6279 19.4805C54.4222 19.5482 54.2555 19.651 54.1279 19.7891C54.0029 19.9245 53.9404 20.1094 53.9404 20.3437C53.9404 20.6641 54.0589 20.9062 54.2959 21.0703C54.5355 21.2318 54.8389 21.3125 55.2061 21.3125ZM61.7637 22.125C61.2637 22.125 60.8223 21.9987 60.4395 21.7461C60.0566 21.4909 59.7572 21.1315 59.541 20.668C59.3249 20.2018 59.2168 19.651 59.2168 19.0156C59.2168 18.3854 59.3249 17.8385 59.541 17.375C59.7572 16.9115 60.0579 16.5534 60.4434 16.3008C60.8288 16.0482 61.2741 15.9219 61.7793 15.9219C62.1699 15.9219 62.4785 15.987 62.7051 16.1172C62.9342 16.2448 63.1087 16.3906 63.2285 16.5547C63.3509 16.7161 63.446 16.849 63.5137 16.9531H63.5918V14H64.5137V22H63.623V21.0781H63.5137C63.446 21.1875 63.3496 21.3255 63.2246 21.4922C63.0996 21.6562 62.9212 21.8034 62.6895 21.9336C62.4577 22.0612 62.1491 22.125 61.7637 22.125ZM61.8887 21.2969C62.2585 21.2969 62.571 21.2005 62.8262 21.0078C63.0814 20.8125 63.2754 20.543 63.4082 20.1992C63.541 19.8529 63.6074 19.4531 63.6074 19C63.6074 18.5521 63.5423 18.1602 63.4121 17.8242C63.2819 17.4857 63.0892 17.2227 62.834 17.0352C62.5788 16.8451 62.2637 16.75 61.8887 16.75C61.498 16.75 61.1725 16.8503 60.9121 17.0508C60.6543 17.2487 60.4603 17.5182 60.3301 17.8594C60.2025 18.1979 60.1387 18.5781 60.1387 19C60.1387 19.4271 60.2038 19.8151 60.334 20.1641C60.4668 20.5104 60.6621 20.7865 60.9199 20.9922C61.1803 21.1953 61.5033 21.2969 61.8887 21.2969ZM68.8457 22.125C68.2676 22.125 67.7689 21.9974 67.3496 21.7422C66.9329 21.4844 66.6113 21.125 66.3848 20.6641C66.1608 20.2005 66.0488 19.6615 66.0488 19.0469C66.0488 18.4323 66.1608 17.8906 66.3848 17.4219C66.6113 16.9505 66.9264 16.5833 67.3301 16.3203C67.7363 16.0547 68.2103 15.9219 68.752 15.9219C69.0645 15.9219 69.373 15.974 69.6777 16.0781C69.9824 16.1823 70.2598 16.3516 70.5098 16.5859C70.7598 16.8177 70.959 17.125 71.1074 17.5078C71.2559 17.8906 71.3301 18.362 71.3301 18.9219V19.3125H66.7051V18.5156H70.3926C70.3926 18.1771 70.3249 17.875 70.1895 17.6094C70.0566 17.3437 69.8665 17.1341 69.6191 16.9805C69.3743 16.8268 69.0853 16.75 68.752 16.75C68.3848 16.75 68.0671 16.8411 67.7988 17.0234C67.5332 17.2031 67.3288 17.4375 67.1855 17.7266C67.0423 18.0156 66.9707 18.3255 66.9707 18.6562V19.1875C66.9707 19.6406 67.0488 20.0247 67.2051 20.3398C67.3639 20.6523 67.584 20.8906 67.8652 21.0547C68.1465 21.2161 68.4733 21.2969 68.8457 21.2969C69.0879 21.2969 69.3066 21.263 69.502 21.1953C69.6999 21.125 69.8704 21.0208 70.0137 20.8828C70.1569 20.7422 70.2676 20.5677 70.3457 20.3594L71.2363 20.6094C71.1426 20.9115 70.985 21.1771 70.7637 21.4062C70.5423 21.6328 70.2689 21.8099 69.9434 21.9375C69.6178 22.0625 69.252 22.125 68.8457 22.125ZM74.998 22.125C74.498 22.125 74.0566 21.9987 73.6738 21.7461C73.291 21.4909 72.9915 21.1315 72.7754 20.668C72.5592 20.2018 72.4512 19.651 72.4512 19.0156C72.4512 18.3854 72.5592 17.8385 72.7754 17.375C72.9915 16.9115 73.2923 16.5534 73.6777 16.3008C74.0632 16.0482 74.5085 15.9219 75.0137 15.9219C75.4043 15.9219 75.7129 15.987 75.9395 16.1172C76.1686 16.2448 76.3431 16.3906 76.4629 16.5547C76.5853 16.7161 76.6803 16.849 76.748 16.9531H76.8262V14H77.748V22H76.8574V21.0781H76.748C76.6803 21.1875 76.584 21.3255 76.459 21.4922C76.334 21.6562 76.1556 21.8034 75.9238 21.9336C75.6921 22.0612 75.3835 22.125 74.998 22.125ZM75.123 21.2969C75.4928 21.2969 75.8053 21.2005 76.0605 21.0078C76.3158 20.8125 76.5098 20.543 76.6426 20.1992C76.7754 19.8529 76.8418 19.4531 76.8418 19C76.8418 18.5521 76.7767 18.1602 76.6465 17.8242C76.5163 17.4857 76.3236 17.2227 76.0684 17.0352C75.8132 16.8451 75.498 16.75 75.123 16.75C74.7324 16.75 74.4069 16.8503 74.1465 17.0508C73.8887 17.2487 73.6947 17.5182 73.5645 17.8594C73.4368 18.1979 73.373 18.5781 73.373 19C73.373 19.4271 73.4382 19.8151 73.5684 20.1641C73.7012 20.5104 73.8965 20.7865 74.1543 20.9922C74.4147 21.1953 74.7376 21.2969 75.123 21.2969ZM87.1582 16C87.1113 15.6042 86.9212 15.2969 86.5879 15.0781C86.2546 14.8594 85.8457 14.75 85.3613 14.75C85.0072 14.75 84.6973 14.8073 84.4316 14.9219C84.1686 15.0365 83.9629 15.194 83.8145 15.3945C83.6686 15.5951 83.5957 15.8229 83.5957 16.0781C83.5957 16.2917 83.6465 16.4753 83.748 16.6289C83.8522 16.7799 83.985 16.9062 84.1465 17.0078C84.3079 17.1068 84.4772 17.1888 84.6543 17.2539C84.8314 17.3164 84.9941 17.3672 85.1426 17.4062L85.9551 17.625C86.1634 17.6797 86.3952 17.7552 86.6504 17.8516C86.9082 17.9479 87.1543 18.0794 87.3887 18.2461C87.6257 18.4102 87.821 18.6211 87.9746 18.8789C88.1283 19.1367 88.2051 19.4531 88.2051 19.8281C88.2051 20.2604 88.0918 20.651 87.8652 21C87.6413 21.349 87.3132 21.6263 86.8809 21.832C86.4512 22.0378 85.929 22.1406 85.3145 22.1406C84.7415 22.1406 84.2454 22.0482 83.8262 21.8633C83.4095 21.6784 83.0814 21.4206 82.8418 21.0898C82.6048 20.7591 82.4707 20.375 82.4395 19.9375H83.4395C83.4655 20.2396 83.5671 20.4896 83.7441 20.6875C83.9238 20.8828 84.1504 21.0286 84.4238 21.125C84.6999 21.2187 84.9967 21.2656 85.3145 21.2656C85.6842 21.2656 86.0163 21.2057 86.3105 21.0859C86.6048 20.9635 86.8379 20.7943 87.0098 20.5781C87.1816 20.3594 87.2676 20.1042 87.2676 19.8125C87.2676 19.5469 87.1934 19.3307 87.0449 19.1641C86.8965 18.9974 86.7012 18.862 86.459 18.7578C86.2168 18.6536 85.9551 18.5625 85.6738 18.4844L84.6895 18.2031C84.0645 18.0234 83.5697 17.7669 83.2051 17.4336C82.8405 17.1003 82.6582 16.6641 82.6582 16.125C82.6582 15.6771 82.7793 15.2865 83.0215 14.9531C83.2663 14.6172 83.5944 14.3568 84.0059 14.1719C84.4199 13.9844 84.8822 13.8906 85.3926 13.8906C85.9082 13.8906 86.3665 13.9831 86.7676 14.168C87.1686 14.3503 87.4863 14.6003 87.7207 14.918C87.9577 15.2357 88.0827 15.5964 88.0957 16H87.1582ZM92.1885 22.125C91.6104 22.125 91.1117 21.9974 90.6924 21.7422C90.2757 21.4844 89.9541 21.125 89.7275 20.6641C89.5036 20.2005 89.3916 19.6615 89.3916 19.0469C89.3916 18.4323 89.5036 17.8906 89.7275 17.4219C89.9541 16.9505 90.2692 16.5833 90.6729 16.3203C91.0791 16.0547 91.5531 15.9219 92.0947 15.9219C92.4072 15.9219 92.7158 15.974 93.0205 16.0781C93.3252 16.1823 93.6025 16.3516 93.8525 16.5859C94.1025 16.8177 94.3018 17.125 94.4502 17.5078C94.5986 17.8906 94.6729 18.362 94.6729 18.9219V19.3125H90.0479V18.5156H93.7354C93.7354 18.1771 93.6676 17.875 93.5322 17.6094C93.3994 17.3437 93.2093 17.1341 92.9619 16.9805C92.7171 16.8268 92.4281 16.75 92.0947 16.75C91.7275 16.75 91.4098 16.8411 91.1416 17.0234C90.876 17.2031 90.6715 17.4375 90.5283 17.7266C90.3851 18.0156 90.3135 18.3255 90.3135 18.6562V19.1875C90.3135 19.6406 90.3916 20.0247 90.5479 20.3398C90.7067 20.6523 90.9268 20.8906 91.208 21.0547C91.4893 21.2161 91.8161 21.2969 92.1885 21.2969C92.4307 21.2969 92.6494 21.263 92.8447 21.1953C93.0426 21.125 93.2132 21.0208 93.3564 20.8828C93.4997 20.7422 93.6104 20.5677 93.6885 20.3594L94.5791 20.6094C94.4854 20.9115 94.3278 21.1771 94.1064 21.4062C93.8851 21.6328 93.6117 21.8099 93.2861 21.9375C92.9606 22.0625 92.5947 22.125 92.1885 22.125ZM98.5127 22.125C97.9502 22.125 97.4658 21.9922 97.0596 21.7266C96.6533 21.4609 96.3408 21.0951 96.1221 20.6289C95.9033 20.1628 95.7939 19.6302 95.7939 19.0312C95.7939 18.4219 95.9059 17.8841 96.1299 17.418C96.3564 16.9492 96.6715 16.5833 97.0752 16.3203C97.4814 16.0547 97.9554 15.9219 98.4971 15.9219C98.9189 15.9219 99.2992 16 99.6377 16.1562C99.9762 16.3125 100.254 16.5312 100.47 16.8125C100.686 17.0937 100.82 17.4219 100.872 17.7969H99.9502C99.8799 17.5234 99.7236 17.2812 99.4814 17.0703C99.2419 16.8568 98.9189 16.75 98.5127 16.75C98.1533 16.75 97.8382 16.8437 97.5674 17.0312C97.2992 17.2161 97.0895 17.4779 96.9385 17.8164C96.79 18.1523 96.7158 18.5469 96.7158 19C96.7158 19.4635 96.7887 19.8672 96.9346 20.2109C97.083 20.5547 97.2913 20.8216 97.5596 21.0117C97.8304 21.2018 98.1481 21.2969 98.5127 21.2969C98.7523 21.2969 98.9697 21.2552 99.165 21.1719C99.3604 21.0885 99.5257 20.9688 99.6611 20.8125C99.7965 20.6562 99.8929 20.4687 99.9502 20.25H100.872C100.82 20.6042 100.691 20.9232 100.485 21.207C100.282 21.4883 100.013 21.7122 99.6768 21.8789C99.3434 22.043 98.9554 22.125 98.5127 22.125ZM104.829 16V16.7812H101.72V16H104.829ZM102.626 14.5625H103.548V20.2812C103.548 20.5417 103.586 20.737 103.661 20.8672C103.739 20.9948 103.838 21.0807 103.958 21.125C104.08 21.1667 104.209 21.1875 104.345 21.1875C104.446 21.1875 104.53 21.1823 104.595 21.1719C104.66 21.1589 104.712 21.1484 104.751 21.1406L104.938 21.9687C104.876 21.9922 104.789 22.0156 104.677 22.0391C104.565 22.0651 104.423 22.0781 104.251 22.0781C103.991 22.0781 103.735 22.0221 103.485 21.9102C103.238 21.7982 103.032 21.6276 102.868 21.3984C102.707 21.1693 102.626 20.8802 102.626 20.5312V14.5625ZM106.216 22V16H107.138V22H106.216ZM106.685 15C106.505 15 106.35 14.9388 106.22 14.8164C106.092 14.694 106.028 14.5469 106.028 14.375C106.028 14.2031 106.092 14.056 106.22 13.9336C106.35 13.8112 106.505 13.75 106.685 13.75C106.864 13.75 107.018 13.8112 107.146 13.9336C107.276 14.056 107.341 14.2031 107.341 14.375C107.341 14.5469 107.276 14.694 107.146 14.8164C107.018 14.9388 106.864 15 106.685 15ZM111.264 22.125C110.722 22.125 110.247 21.9961 109.838 21.7383C109.432 21.4805 109.114 21.1198 108.885 20.6562C108.658 20.1927 108.545 19.651 108.545 19.0312C108.545 18.4062 108.658 17.8607 108.885 17.3945C109.114 16.9284 109.432 16.5664 109.838 16.3086C110.247 16.0508 110.722 15.9219 111.264 15.9219C111.805 15.9219 112.279 16.0508 112.686 16.3086C113.094 16.5664 113.412 16.9284 113.639 17.3945C113.868 17.8607 113.982 18.4062 113.982 19.0312C113.982 19.651 113.868 20.1927 113.639 20.6562C113.412 21.1198 113.094 21.4805 112.686 21.7383C112.279 21.9961 111.805 22.125 111.264 22.125ZM111.264 21.2969C111.675 21.2969 112.014 21.1914 112.279 20.9805C112.545 20.7695 112.742 20.4922 112.869 20.1484C112.997 19.8047 113.061 19.4323 113.061 19.0312C113.061 18.6302 112.997 18.2565 112.869 17.9102C112.742 17.5638 112.545 17.2839 112.279 17.0703C112.014 16.8568 111.675 16.75 111.264 16.75C110.852 16.75 110.514 16.8568 110.248 17.0703C109.982 17.2839 109.786 17.5638 109.658 17.9102C109.531 18.2565 109.467 18.6302 109.467 19.0312C109.467 19.4323 109.531 19.8047 109.658 20.1484C109.786 20.4922 109.982 20.7695 110.248 20.9805C110.514 21.1914 110.852 21.2969 111.264 21.2969ZM116.312 18.3906V22H115.39V16H116.28V16.9375H116.358C116.499 16.6328 116.713 16.388 116.999 16.2031C117.285 16.0156 117.655 15.9219 118.108 15.9219C118.515 15.9219 118.87 16.0052 119.175 16.1719C119.479 16.3359 119.716 16.5859 119.886 16.9219C120.055 17.2552 120.14 17.6771 120.14 18.1875V22H119.218V18.25C119.218 17.7786 119.095 17.4115 118.851 17.1484C118.606 16.8828 118.27 16.75 117.843 16.75C117.549 16.75 117.285 16.8138 117.054 16.9414C116.825 17.069 116.644 17.2552 116.511 17.5C116.378 17.7448 116.312 18.0417 116.312 18.3906Z" fill="black"/>
</svg>
