<svg width="580" height="330" viewBox="0 0 580 330" fill="none" xmlns="http://www.w3.org/2000/svg">
<path d="M40 42C40 40.8954 40.8954 40 42 40H538C539.105 40 540 40.8954 540 42V288C540 289.105 539.105 290 538 290H42C40.8954 290 40 289.105 40 288V42Z" fill="white"/>
<path d="M42 40V41H538V40V39H42V40ZM540 42H539V288H540H541V42H540ZM538 290V289H42V290V291H538V290ZM40 288H41V42H40H39V288H40ZM42 290V289C41.4477 289 41 288.552 41 288H40H39C39 289.657 40.3432 291 42 291V290ZM540 288H539C539 288.552 538.552 289 538 289V290V291C539.657 291 541 289.657 541 288H540ZM538 40V41C538.552 41 539 41.4477 539 42H540H541C541 40.3431 539.657 39 538 39V40ZM42 40V39C40.3431 39 39 40.3432 39 42H40H41C41 41.4477 41.4477 41 42 41V40Z" fill="black" fill-opacity="0.1"/>
<rect width="200" height="150" transform="translate(190 90)" fill="white"/>
<rect x="40" y="4" width="148.219" height="30" rx="3" fill="white"/>
<rect x="40.5" y="4.5" width="147.219" height="29" rx="2.5" stroke="black" stroke-opacity="0.2"/>
<path d="M46.9688 22V14H47.9375V17.5625H52.2031V14H53.1719V22H52.2031V18.4219H47.9375V22H46.9688ZM54.9863 22V16H55.9082V22H54.9863ZM55.4551 15C55.2754 15 55.1204 14.9388 54.9902 14.8164C54.8626 14.694 54.7988 14.5469 54.7988 14.375C54.7988 14.2031 54.8626 14.056 54.9902 13.9336C55.1204 13.8112 55.2754 13.75 55.4551 13.75C55.6348 13.75 55.7884 13.8112 55.916 13.9336C56.0462 14.056 56.1113 14.2031 56.1113 14.375C56.1113 14.5469 56.0462 14.694 55.916 14.8164C55.7884 14.9388 55.6348 15 55.4551 15ZM59.8623 22.125C59.3623 22.125 58.9209 21.9987 58.5381 21.7461C58.1553 21.4909 57.8558 21.1315 57.6396 20.668C57.4235 20.2018 57.3154 19.651 57.3154 19.0156C57.3154 18.3854 57.4235 17.8385 57.6396 17.375C57.8558 16.9115 58.1566 16.5534 58.542 16.3008C58.9274 16.0482 59.3727 15.9219 59.8779 15.9219C60.2686 15.9219 60.5771 15.987 60.8037 16.1172C61.0329 16.2448 61.2074 16.3906 61.3271 16.5547C61.4495 16.7161 61.5446 16.849 61.6123 16.9531H61.6904V14H62.6123V22H61.7217V21.0781H61.6123C61.5446 21.1875 61.4482 21.3255 61.3232 21.4922C61.1982 21.6562 61.0199 21.8034 60.7881 21.9336C60.5563 22.0612 60.2477 22.125 59.8623 22.125ZM59.9873 21.2969C60.3571 21.2969 60.6696 21.2005 60.9248 21.0078C61.18 20.8125 61.374 20.543 61.5068 20.1992C61.6396 19.8529 61.7061 19.4531 61.7061 19C61.7061 18.5521 61.641 18.1602 61.5107 17.8242C61.3805 17.4857 61.1878 17.2227 60.9326 17.0352C60.6774 16.8451 60.3623 16.75 59.9873 16.75C59.5967 16.75 59.2712 16.8503 59.0107 17.0508C58.7529 17.2487 58.5589 17.5182 58.4287 17.8594C58.3011 18.1979 58.2373 18.5781 58.2373 19C58.2373 19.4271 58.3024 19.8151 58.4326 20.1641C58.5654 20.5104 58.7607 20.7865 59.0186 20.9922C59.279 21.1953 59.6019 21.2969 59.9873 21.2969ZM66.6943 22.125C66.1943 22.125 65.7529 21.9987 65.3701 21.7461C64.9873 21.4909 64.6878 21.1315 64.4717 20.668C64.2555 20.2018 64.1475 19.651 64.1475 19.0156C64.1475 18.3854 64.2555 17.8385 64.4717 17.375C64.6878 16.9115 64.9886 16.5534 65.374 16.3008C65.7594 16.0482 66.2048 15.9219 66.71 15.9219C67.1006 15.9219 67.4092 15.987 67.6357 16.1172C67.8649 16.2448 68.0394 16.3906 68.1592 16.5547C68.2816 16.7161 68.3766 16.849 68.4443 16.9531H68.5225V14H69.4443V22H68.5537V21.0781H68.4443C68.3766 21.1875 68.2803 21.3255 68.1553 21.4922C68.0303 21.6562 67.8519 21.8034 67.6201 21.9336C67.3883 22.0612 67.0798 22.125 66.6943 22.125ZM66.8193 21.2969C67.1891 21.2969 67.5016 21.2005 67.7568 21.0078C68.012 20.8125 68.2061 20.543 68.3389 20.1992C68.4717 19.8529 68.5381 19.4531 68.5381 19C68.5381 18.5521 68.473 18.1602 68.3428 17.8242C68.2126 17.4857 68.0199 17.2227 67.7646 17.0352C67.5094 16.8451 67.1943 16.75 66.8193 16.75C66.4287 16.75 66.1032 16.8503 65.8428 17.0508C65.585 17.2487 65.391 17.5182 65.2607 17.8594C65.1331 18.1979 65.0693 18.5781 65.0693 19C65.0693 19.4271 65.1344 19.8151 65.2646 20.1641C65.3975 20.5104 65.5928 20.7865 65.8506 20.9922C66.111 21.1953 66.4339 21.2969 66.8193 21.2969ZM73.7764 22.125C73.1982 22.125 72.6995 21.9974 72.2803 21.7422C71.8636 21.4844 71.542 21.125 71.3154 20.6641C71.0915 20.2005 70.9795 19.6615 70.9795 19.0469C70.9795 18.4323 71.0915 17.8906 71.3154 17.4219C71.542 16.9505 71.8571 16.5833 72.2607 16.3203C72.667 16.0547 73.141 15.9219 73.6826 15.9219C73.9951 15.9219 74.3037 15.974 74.6084 16.0781C74.9131 16.1823 75.1904 16.3516 75.4404 16.5859C75.6904 16.8177 75.8896 17.125 76.0381 17.5078C76.1865 17.8906 76.2607 18.362 76.2607 18.9219V19.3125H71.6357V18.5156H75.3232C75.3232 18.1771 75.2555 17.875 75.1201 17.6094C74.9873 17.3437 74.7972 17.1341 74.5498 16.9805C74.305 16.8268 74.016 16.75 73.6826 16.75C73.3154 16.75 72.9977 16.8411 72.7295 17.0234C72.4639 17.2031 72.2594 17.4375 72.1162 17.7266C71.973 18.0156 71.9014 18.3255 71.9014 18.6562V19.1875C71.9014 19.6406 71.9795 20.0247 72.1357 20.3398C72.2946 20.6523 72.5146 20.8906 72.7959 21.0547C73.0771 21.2161 73.404 21.2969 73.7764 21.2969C74.0186 21.2969 74.2373 21.263 74.4326 21.1953C74.6305 21.125 74.8011 21.0208 74.9443 20.8828C75.0876 20.7422 75.1982 20.5677 75.2764 20.3594L76.167 20.6094C76.0732 20.9115 75.9157 21.1771 75.6943 21.4062C75.473 21.6328 75.1995 21.8099 74.874 21.9375C74.5485 22.0625 74.1826 22.125 73.7764 22.125ZM78.585 18.3906V22H77.6631V16H78.5537V16.9375H78.6318C78.7725 16.6328 78.986 16.388 79.2725 16.2031C79.5589 16.0156 79.9287 15.9219 80.3818 15.9219C80.7881 15.9219 81.1436 16.0052 81.4482 16.1719C81.7529 16.3359 81.9899 16.5859 82.1592 16.9219C82.3285 17.2552 82.4131 17.6771 82.4131 18.1875V22H81.4912V18.25C81.4912 17.7786 81.3688 17.4115 81.124 17.1484C80.8792 16.8828 80.5433 16.75 80.1162 16.75C79.8219 16.75 79.5589 16.8138 79.3271 16.9414C79.098 17.069 78.917 17.2552 78.7842 17.5C78.6514 17.7448 78.585 18.0417 78.585 18.3906ZM93.7539 16.5H92.7852C92.7279 16.2214 92.6276 15.9766 92.4844 15.7656C92.3438 15.5547 92.1719 15.3776 91.9688 15.2344C91.7682 15.0885 91.5456 14.9792 91.3008 14.9062C91.056 14.8333 90.8008 14.7969 90.5352 14.7969C90.0508 14.7969 89.612 14.9193 89.2188 15.1641C88.8281 15.4089 88.5169 15.7695 88.2852 16.2461C88.056 16.7227 87.9414 17.3073 87.9414 18C87.9414 18.6927 88.056 19.2773 88.2852 19.7539C88.5169 20.2305 88.8281 20.5911 89.2188 20.8359C89.612 21.0807 90.0508 21.2031 90.5352 21.2031C90.8008 21.2031 91.056 21.1667 91.3008 21.0937C91.5456 21.0208 91.7682 20.9128 91.9688 20.7695C92.1719 20.6237 92.3438 20.4453 92.4844 20.2344C92.6276 20.0208 92.7279 19.776 92.7852 19.5H93.7539C93.681 19.9089 93.5482 20.2747 93.3555 20.5977C93.1628 20.9206 92.9232 21.1953 92.6367 21.4219C92.3503 21.6458 92.0286 21.8164 91.6719 21.9336C91.3177 22.0508 90.9388 22.1094 90.5352 22.1094C89.8529 22.1094 89.2461 21.9427 88.7148 21.6094C88.1836 21.276 87.7656 20.8021 87.4609 20.1875C87.1563 19.5729 87.0039 18.8437 87.0039 18C87.0039 17.1562 87.1563 16.4271 87.4609 15.8125C87.7656 15.1979 88.1836 14.724 88.7148 14.3906C89.2461 14.0573 89.8529 13.8906 90.5352 13.8906C90.9388 13.8906 91.3177 13.9492 91.6719 14.0664C92.0286 14.1836 92.3503 14.3555 92.6367 14.582C92.9232 14.806 93.1628 15.0794 93.3555 15.4023C93.5482 15.7227 93.681 16.0885 93.7539 16.5ZM97.6318 22.125C97.0902 22.125 96.6149 21.9961 96.2061 21.7383C95.7998 21.4805 95.4821 21.1198 95.2529 20.6562C95.0264 20.1927 94.9131 19.651 94.9131 19.0312C94.9131 18.4062 95.0264 17.8607 95.2529 17.3945C95.4821 16.9284 95.7998 16.5664 96.2061 16.3086C96.6149 16.0508 97.0902 15.9219 97.6318 15.9219C98.1735 15.9219 98.6475 16.0508 99.0537 16.3086C99.4626 16.5664 99.7803 16.9284 100.007 17.3945C100.236 17.8607 100.351 18.4062 100.351 19.0312C100.351 19.651 100.236 20.1927 100.007 20.6562C99.7803 21.1198 99.4626 21.4805 99.0537 21.7383C98.6475 21.9961 98.1735 22.125 97.6318 22.125ZM97.6318 21.2969C98.0433 21.2969 98.3818 21.1914 98.6475 20.9805C98.9131 20.7695 99.1097 20.4922 99.2373 20.1484C99.3649 19.8047 99.4287 19.4323 99.4287 19.0312C99.4287 18.6302 99.3649 18.2565 99.2373 17.9102C99.1097 17.5638 98.9131 17.2839 98.6475 17.0703C98.3818 16.8568 98.0433 16.75 97.6318 16.75C97.2204 16.75 96.8818 16.8568 96.6162 17.0703C96.3506 17.2839 96.154 17.5638 96.0264 17.9102C95.8988 18.2565 95.835 18.6302 95.835 19.0312C95.835 19.4323 95.8988 19.8047 96.0264 20.1484C96.154 20.4922 96.3506 20.7695 96.6162 20.9805C96.8818 21.1914 97.2204 21.2969 97.6318 21.2969ZM102.68 18.3906V22H101.758V16H102.648V16.9375H102.727C102.867 16.6328 103.081 16.388 103.367 16.2031C103.654 16.0156 104.023 15.9219 104.477 15.9219C104.883 15.9219 105.238 16.0052 105.543 16.1719C105.848 16.3359 106.085 16.5859 106.254 16.9219C106.423 17.2552 106.508 17.6771 106.508 18.1875V22H105.586V18.25C105.586 17.7786 105.464 17.4115 105.219 17.1484C104.974 16.8828 104.638 16.75 104.211 16.75C103.917 16.75 103.654 16.8138 103.422 16.9414C103.193 17.069 103.012 17.2552 102.879 17.5C102.746 17.7448 102.68 18.0417 102.68 18.3906ZM110.802 16V16.7812H107.692V16H110.802ZM108.599 14.5625H109.521V20.2812C109.521 20.5417 109.558 20.737 109.634 20.8672C109.712 20.9948 109.811 21.0807 109.931 21.125C110.053 21.1667 110.182 21.1875 110.317 21.1875C110.419 21.1875 110.502 21.1823 110.567 21.1719C110.632 21.1589 110.685 21.1484 110.724 21.1406L110.911 21.9687C110.849 21.9922 110.761 22.0156 110.649 22.0391C110.537 22.0651 110.396 22.0781 110.224 22.0781C109.963 22.0781 109.708 22.0221 109.458 21.9102C109.211 21.7982 109.005 21.6276 108.841 21.3984C108.679 21.1693 108.599 20.8802 108.599 20.5312V14.5625ZM114.64 22.125C114.062 22.125 113.563 21.9974 113.144 21.7422C112.727 21.4844 112.405 21.125 112.179 20.6641C111.955 20.2005 111.843 19.6615 111.843 19.0469C111.843 18.4323 111.955 17.8906 112.179 17.4219C112.405 16.9505 112.72 16.5833 113.124 16.3203C113.53 16.0547 114.004 15.9219 114.546 15.9219C114.858 15.9219 115.167 15.974 115.472 16.0781C115.776 16.1823 116.054 16.3516 116.304 16.5859C116.554 16.8177 116.753 17.125 116.901 17.5078C117.05 17.8906 117.124 18.362 117.124 18.9219V19.3125H112.499V18.5156H116.187C116.187 18.1771 116.119 17.875 115.983 17.6094C115.851 17.3437 115.66 17.1341 115.413 16.9805C115.168 16.8268 114.879 16.75 114.546 16.75C114.179 16.75 113.861 16.8411 113.593 17.0234C113.327 17.2031 113.123 17.4375 112.979 17.7266C112.836 18.0156 112.765 18.3255 112.765 18.6562V19.1875C112.765 19.6406 112.843 20.0247 112.999 20.3398C113.158 20.6523 113.378 20.8906 113.659 21.0547C113.94 21.2161 114.267 21.2969 114.64 21.2969C114.882 21.2969 115.101 21.263 115.296 21.1953C115.494 21.125 115.664 21.0208 115.808 20.8828C115.951 20.7422 116.062 20.5677 116.14 20.3594L117.03 20.6094C116.937 20.9115 116.779 21.1771 116.558 21.4062C116.336 21.6328 116.063 21.8099 115.737 21.9375C115.412 22.0625 115.046 22.125 114.64 22.125ZM119.448 18.3906V22H118.526V16H119.417V16.9375H119.495C119.636 16.6328 119.849 16.388 120.136 16.2031C120.422 16.0156 120.792 15.9219 121.245 15.9219C121.651 15.9219 122.007 16.0052 122.312 16.1719C122.616 16.3359 122.853 16.5859 123.022 16.9219C123.192 17.2552 123.276 17.6771 123.276 18.1875V22H122.354V18.25C122.354 17.7786 122.232 17.4115 121.987 17.1484C121.743 16.8828 121.407 16.75 120.979 16.75C120.685 16.75 120.422 16.8138 120.19 16.9414C119.961 17.069 119.78 17.2552 119.647 17.5C119.515 17.7448 119.448 18.0417 119.448 18.3906ZM127.57 16V16.7812H124.461V16H127.57ZM125.367 14.5625H126.289V20.2812C126.289 20.5417 126.327 20.737 126.402 20.8672C126.48 20.9948 126.579 21.0807 126.699 21.125C126.822 21.1667 126.951 21.1875 127.086 21.1875C127.188 21.1875 127.271 21.1823 127.336 21.1719C127.401 21.1589 127.453 21.1484 127.492 21.1406L127.68 21.9687C127.617 21.9922 127.53 22.0156 127.418 22.0391C127.306 22.0651 127.164 22.0781 126.992 22.0781C126.732 22.0781 126.477 22.0221 126.227 21.9102C125.979 21.7982 125.773 21.6276 125.609 21.3984C125.448 21.1693 125.367 20.8802 125.367 20.5312V14.5625ZM133.1 17.3437L132.271 17.5781C132.219 17.4401 132.143 17.306 132.041 17.1758C131.942 17.043 131.807 16.9336 131.635 16.8477C131.463 16.7617 131.243 16.7187 130.975 16.7187C130.607 16.7187 130.301 16.8034 130.057 16.9727C129.814 17.1393 129.693 17.3516 129.693 17.6094C129.693 17.8385 129.777 18.0195 129.943 18.1523C130.11 18.2852 130.37 18.3958 130.725 18.4844L131.615 18.7031C132.152 18.8333 132.551 19.0326 132.814 19.3008C133.077 19.5664 133.209 19.9089 133.209 20.3281C133.209 20.6719 133.11 20.9792 132.912 21.25C132.717 21.5208 132.443 21.7344 132.092 21.8906C131.74 22.0469 131.331 22.125 130.865 22.125C130.253 22.125 129.747 21.9922 129.346 21.7266C128.945 21.4609 128.691 21.0729 128.584 20.5625L129.459 20.3437C129.542 20.6667 129.7 20.9089 129.932 21.0703C130.166 21.2318 130.472 21.3125 130.85 21.3125C131.279 21.3125 131.62 21.2214 131.873 21.0391C132.128 20.8542 132.256 20.6328 132.256 20.375C132.256 20.1667 132.183 19.9922 132.037 19.8516C131.891 19.7083 131.667 19.6016 131.365 19.5312L130.365 19.2969C129.816 19.1667 129.412 18.9648 129.154 18.6914C128.899 18.4154 128.771 18.0703 128.771 17.6562C128.771 17.3177 128.867 17.0182 129.057 16.7578C129.249 16.4974 129.511 16.293 129.842 16.1445C130.175 15.9961 130.553 15.9219 130.975 15.9219C131.568 15.9219 132.035 16.0521 132.373 16.3125C132.714 16.5729 132.956 16.9167 133.1 17.3437ZM148.378 16C148.331 15.6042 148.141 15.2969 147.808 15.0781C147.474 14.8594 147.065 14.75 146.581 14.75C146.227 14.75 145.917 14.8073 145.651 14.9219C145.388 15.0365 145.183 15.194 145.034 15.3945C144.888 15.5951 144.815 15.8229 144.815 16.0781C144.815 16.2917 144.866 16.4753 144.968 16.6289C145.072 16.7799 145.205 16.9062 145.366 17.0078C145.528 17.1068 145.697 17.1888 145.874 17.2539C146.051 17.3164 146.214 17.3672 146.362 17.4062L147.175 17.625C147.383 17.6797 147.615 17.7552 147.87 17.8516C148.128 17.9479 148.374 18.0794 148.608 18.2461C148.845 18.4102 149.041 18.6211 149.194 18.8789C149.348 19.1367 149.425 19.4531 149.425 19.8281C149.425 20.2604 149.312 20.651 149.085 21C148.861 21.349 148.533 21.6263 148.101 21.832C147.671 22.0378 147.149 22.1406 146.534 22.1406C145.961 22.1406 145.465 22.0482 145.046 21.8633C144.629 21.6784 144.301 21.4206 144.062 21.0898C143.825 20.7591 143.69 20.375 143.659 19.9375H144.659C144.685 20.2396 144.787 20.4896 144.964 20.6875C145.144 20.8828 145.37 21.0286 145.644 21.125C145.92 21.2187 146.216 21.2656 146.534 21.2656C146.904 21.2656 147.236 21.2057 147.53 21.0859C147.825 20.9635 148.058 20.7943 148.229 20.5781C148.401 20.3594 148.487 20.1042 148.487 19.8125C148.487 19.5469 148.413 19.3307 148.265 19.1641C148.116 18.9974 147.921 18.862 147.679 18.7578C147.437 18.6536 147.175 18.5625 146.894 18.4844L145.909 18.2031C145.284 18.0234 144.789 17.7669 144.425 17.4336C144.06 17.1003 143.878 16.6641 143.878 16.125C143.878 15.6771 143.999 15.2865 144.241 14.9531C144.486 14.6172 144.814 14.3568 145.226 14.1719C145.64 13.9844 146.102 13.8906 146.612 13.8906C147.128 13.8906 147.586 13.9831 147.987 14.168C148.388 14.3503 148.706 14.6003 148.94 14.918C149.177 15.2357 149.302 15.5964 149.315 16H148.378ZM153.408 22.125C152.83 22.125 152.331 21.9974 151.912 21.7422C151.495 21.4844 151.174 21.125 150.947 20.6641C150.723 20.2005 150.611 19.6615 150.611 19.0469C150.611 18.4323 150.723 17.8906 150.947 17.4219C151.174 16.9505 151.489 16.5833 151.893 16.3203C152.299 16.0547 152.773 15.9219 153.314 15.9219C153.627 15.9219 153.936 15.974 154.24 16.0781C154.545 16.1823 154.822 16.3516 155.072 16.5859C155.322 16.8177 155.521 17.125 155.67 17.5078C155.818 17.8906 155.893 18.362 155.893 18.9219V19.3125H151.268V18.5156H154.955C154.955 18.1771 154.887 17.875 154.752 17.6094C154.619 17.3437 154.429 17.1341 154.182 16.9805C153.937 16.8268 153.648 16.75 153.314 16.75C152.947 16.75 152.63 16.8411 152.361 17.0234C152.096 17.2031 151.891 17.4375 151.748 17.7266C151.605 18.0156 151.533 18.3255 151.533 18.6562V19.1875C151.533 19.6406 151.611 20.0247 151.768 20.3398C151.926 20.6523 152.146 20.8906 152.428 21.0547C152.709 21.2161 153.036 21.2969 153.408 21.2969C153.65 21.2969 153.869 21.263 154.064 21.1953C154.262 21.125 154.433 21.0208 154.576 20.8828C154.719 20.7422 154.83 20.5677 154.908 20.3594L155.799 20.6094C155.705 20.9115 155.548 21.1771 155.326 21.4062C155.105 21.6328 154.831 21.8099 154.506 21.9375C154.18 22.0625 153.814 22.125 153.408 22.125ZM159.732 22.125C159.17 22.125 158.686 21.9922 158.279 21.7266C157.873 21.4609 157.561 21.0951 157.342 20.6289C157.123 20.1628 157.014 19.6302 157.014 19.0312C157.014 18.4219 157.126 17.8841 157.35 17.418C157.576 16.9492 157.891 16.5833 158.295 16.3203C158.701 16.0547 159.175 15.9219 159.717 15.9219C160.139 15.9219 160.519 16 160.857 16.1562C161.196 16.3125 161.473 16.5312 161.689 16.8125C161.906 17.0937 162.04 17.4219 162.092 17.7969H161.17C161.1 17.5234 160.943 17.2812 160.701 17.0703C160.462 16.8568 160.139 16.75 159.732 16.75C159.373 16.75 159.058 16.8437 158.787 17.0312C158.519 17.2161 158.309 17.4779 158.158 17.8164C158.01 18.1523 157.936 18.5469 157.936 19C157.936 19.4635 158.008 19.8672 158.154 20.2109C158.303 20.5547 158.511 20.8216 158.779 21.0117C159.05 21.2018 159.368 21.2969 159.732 21.2969C159.972 21.2969 160.189 21.2552 160.385 21.1719C160.58 21.0885 160.745 20.9688 160.881 20.8125C161.016 20.6562 161.113 20.4687 161.17 20.25H162.092C162.04 20.6042 161.911 20.9232 161.705 21.207C161.502 21.4883 161.232 21.7122 160.896 21.8789C160.563 22.043 160.175 22.125 159.732 22.125ZM166.049 16V16.7812H162.939V16H166.049ZM163.846 14.5625H164.768V20.2812C164.768 20.5417 164.805 20.737 164.881 20.8672C164.959 20.9948 165.058 21.0807 165.178 21.125C165.3 21.1667 165.429 21.1875 165.564 21.1875C165.666 21.1875 165.749 21.1823 165.814 21.1719C165.88 21.1589 165.932 21.1484 165.971 21.1406L166.158 21.9687C166.096 21.9922 166.008 22.0156 165.896 22.0391C165.785 22.0651 165.643 22.0781 165.471 22.0781C165.21 22.0781 164.955 22.0221 164.705 21.9102C164.458 21.7982 164.252 21.6276 164.088 21.3984C163.926 21.1693 163.846 20.8802 163.846 20.5312V14.5625ZM167.436 22V16H168.357V22H167.436ZM167.904 15C167.725 15 167.57 14.9388 167.439 14.8164C167.312 14.694 167.248 14.5469 167.248 14.375C167.248 14.2031 167.312 14.056 167.439 13.9336C167.57 13.8112 167.725 13.75 167.904 13.75C168.084 13.75 168.238 13.8112 168.365 13.9336C168.495 14.056 168.561 14.2031 168.561 14.375C168.561 14.5469 168.495 14.694 168.365 14.8164C168.238 14.9388 168.084 15 167.904 15ZM172.483 22.125C171.942 22.125 171.466 21.9961 171.058 21.7383C170.651 21.4805 170.334 21.1198 170.104 20.6562C169.878 20.1927 169.765 19.651 169.765 19.0312C169.765 18.4062 169.878 17.8607 170.104 17.3945C170.334 16.9284 170.651 16.5664 171.058 16.3086C171.466 16.0508 171.942 15.9219 172.483 15.9219C173.025 15.9219 173.499 16.0508 173.905 16.3086C174.314 16.5664 174.632 16.9284 174.858 17.3945C175.088 17.8607 175.202 18.4062 175.202 19.0312C175.202 19.651 175.088 20.1927 174.858 20.6562C174.632 21.1198 174.314 21.4805 173.905 21.7383C173.499 21.9961 173.025 22.125 172.483 22.125ZM172.483 21.2969C172.895 21.2969 173.233 21.1914 173.499 20.9805C173.765 20.7695 173.961 20.4922 174.089 20.1484C174.216 19.8047 174.28 19.4323 174.28 19.0312C174.28 18.6302 174.216 18.2565 174.089 17.9102C173.961 17.5638 173.765 17.2839 173.499 17.0703C173.233 16.8568 172.895 16.75 172.483 16.75C172.072 16.75 171.733 16.8568 171.468 17.0703C171.202 17.2839 171.006 17.5638 170.878 17.9102C170.75 18.2565 170.687 18.6302 170.687 19.0312C170.687 19.4323 170.75 19.8047 170.878 20.1484C171.006 20.4922 171.202 20.7695 171.468 20.9805C171.733 21.1914 172.072 21.2969 172.483 21.2969ZM177.531 18.3906V22H176.609V16H177.5V16.9375H177.578C177.719 16.6328 177.932 16.388 178.219 16.2031C178.505 16.0156 178.875 15.9219 179.328 15.9219C179.734 15.9219 180.09 16.0052 180.395 16.1719C180.699 16.3359 180.936 16.5859 181.105 16.9219C181.275 17.2552 181.359 17.6771 181.359 18.1875V22H180.438V18.25C180.438 17.7786 180.315 17.4115 180.07 17.1484C179.826 16.8828 179.49 16.75 179.062 16.75C178.768 16.75 178.505 16.8138 178.273 16.9414C178.044 17.069 177.863 17.2552 177.73 17.5C177.598 17.7448 177.531 18.0417 177.531 18.3906Z" fill="black"/>
</svg>
