<svg width="880" height="380" viewBox="0 0 880 380" fill="none" xmlns="http://www.w3.org/2000/svg">
<path d="M40 42C40 40.8954 40.8954 40 42 40H838C839.105 40 840 40.8954 840 42V338C840 339.105 839.105 340 838 340H42C40.8954 340 40 339.105 40 338V42Z" fill="white"/>
<path d="M42 40V41H838V40V39H42V40ZM840 42H839V338H840H841V42H840ZM838 340V339H42V340V341H838V340ZM40 338H41V42H40H39V338H40ZM42 340V339C41.4477 339 41 338.552 41 338H40H39C39 339.657 40.3431 341 42 341V340ZM840 338H839C839 338.552 838.552 339 838 339V340V341C839.657 341 841 339.657 841 338H840ZM838 40V41C838.552 41 839 41.4477 839 42H840H841C841 40.3431 839.657 39 838 39V40ZM42 40V39C40.3431 39 39 40.3431 39 42H40H41C41 41.4477 41.4477 41 42 41V40Z" fill="black" fill-opacity="0.1"/>
<rect width="100" height="100" transform="translate(126 140)" fill="#E64D4D"/>
<rect width="100" height="100" transform="translate(297 140)" fill="#4DE64D"/>
<rect width="100" height="100" transform="translate(468 140)" fill="#4D4DE6"/>
<rect width="100" height="100" transform="translate(639 140)" fill="#E6E64D"/>
<rect x="40" y="4" width="83.6719" height="30" rx="3" fill="white"/>
<rect x="40.5" y="4.5" width="82.6719" height="29" rx="2.5" stroke="black" stroke-opacity="0.2"/>
<path d="M46.9688 22V14H47.9375V21.1406H51.6563V22H46.9688ZM54.7969 22.1406C54.4167 22.1406 54.0716 22.069 53.7617 21.9258C53.4518 21.7799 53.2057 21.5703 53.0234 21.2969C52.8411 21.0208 52.75 20.6875 52.75 20.2969C52.75 19.9531 52.8177 19.6745 52.9531 19.4609C53.0885 19.2448 53.2695 19.0755 53.4961 18.9531C53.7227 18.8307 53.9727 18.7396 54.2461 18.6797C54.5221 18.6172 54.7995 18.5677 55.0781 18.5313C55.4427 18.4844 55.7383 18.4492 55.9648 18.4258C56.194 18.3997 56.3607 18.3568 56.4648 18.2969C56.5716 18.237 56.625 18.1328 56.625 17.9844V17.9531C56.625 17.5677 56.5195 17.2682 56.3086 17.0547C56.1003 16.8411 55.7839 16.7344 55.3594 16.7344C54.9193 16.7344 54.5742 16.8307 54.3242 17.0234C54.0742 17.2161 53.8984 17.4219 53.7969 17.6406L52.9219 17.3281C53.0781 16.9635 53.2865 16.6797 53.5469 16.4766C53.8099 16.2708 54.0964 16.1276 54.4063 16.0469C54.7188 15.9635 55.026 15.9219 55.3281 15.9219C55.5208 15.9219 55.7422 15.9453 55.9922 15.9922C56.2448 16.0365 56.4883 16.1289 56.7227 16.2695C56.9596 16.4102 57.1563 16.6224 57.3125 16.9062C57.4688 17.1901 57.5469 17.5703 57.5469 18.0469V22H56.625V21.1875H56.5781C56.5156 21.3177 56.4115 21.457 56.2656 21.6055C56.1198 21.7539 55.9258 21.8802 55.6836 21.9844C55.4414 22.0885 55.1458 22.1406 54.7969 22.1406ZM54.9375 21.3125C55.3021 21.3125 55.6094 21.2409 55.8594 21.0977C56.112 20.9544 56.3021 20.7695 56.4297 20.543C56.5599 20.3164 56.625 20.0781 56.625 19.8281V18.9844C56.5859 19.0312 56.5 19.0742 56.3672 19.1133C56.237 19.1497 56.0859 19.1823 55.9141 19.2109C55.7448 19.237 55.5794 19.2604 55.418 19.2812C55.2591 19.2995 55.1302 19.3151 55.0313 19.3281C54.7917 19.3594 54.5677 19.4102 54.3594 19.4805C54.1536 19.5482 53.987 19.651 53.8594 19.7891C53.7344 19.9245 53.6719 20.1094 53.6719 20.3437C53.6719 20.6641 53.7904 20.9062 54.0273 21.0703C54.2669 21.2318 54.5703 21.3125 54.9375 21.3125ZM59.2295 22V16H60.1201V16.9062H60.1826C60.292 16.6094 60.4899 16.3685 60.7764 16.1836C61.0628 15.9987 61.3857 15.9062 61.7451 15.9062C61.8128 15.9062 61.8975 15.9076 61.999 15.9102C62.1006 15.9128 62.1774 15.9167 62.2295 15.9219V16.8594C62.1982 16.8516 62.1266 16.8398 62.0146 16.8242C61.9053 16.806 61.7894 16.7969 61.667 16.7969C61.3753 16.7969 61.1149 16.8581 60.8857 16.9805C60.6592 17.1003 60.4795 17.2669 60.3467 17.4805C60.2165 17.6914 60.1514 17.9323 60.1514 18.2031V22H59.2295ZM65.5615 24.375C65.1162 24.375 64.7334 24.3177 64.4131 24.2031C64.0928 24.0911 63.8258 23.9427 63.6123 23.7578C63.4014 23.5755 63.2334 23.3802 63.1084 23.1719L63.8428 22.6563C63.9261 22.7656 64.0316 22.8906 64.1592 23.0312C64.2868 23.1745 64.4613 23.2982 64.6826 23.4023C64.9066 23.5091 65.1995 23.5625 65.5615 23.5625C66.0459 23.5625 66.4456 23.4453 66.7607 23.2109C67.0758 22.9766 67.2334 22.6094 67.2334 22.1094V20.8906H67.1553C67.0876 21 66.9912 21.1354 66.8662 21.2969C66.7438 21.4557 66.5667 21.5977 66.335 21.7227C66.1058 21.8451 65.7959 21.9062 65.4053 21.9062C64.9209 21.9062 64.486 21.7917 64.1006 21.5625C63.7178 21.3333 63.4144 21 63.1904 20.5625C62.9691 20.125 62.8584 19.5937 62.8584 18.9687C62.8584 18.3542 62.9665 17.819 63.1826 17.3633C63.3988 16.9049 63.6995 16.5508 64.085 16.3008C64.4704 16.0482 64.9157 15.9219 65.4209 15.9219C65.8115 15.9219 66.1214 15.987 66.3506 16.1172C66.5824 16.2448 66.7594 16.3906 66.8818 16.5547C67.0068 16.7161 67.1032 16.849 67.1709 16.9531H67.2646V16H68.1553V22.1719C68.1553 22.6875 68.0381 23.1068 67.8037 23.4297C67.5719 23.7552 67.2594 23.9935 66.8662 24.1445C66.4756 24.2982 66.0407 24.375 65.5615 24.375ZM65.5303 21.0781C65.9001 21.0781 66.2126 20.9935 66.4678 20.8242C66.723 20.6549 66.917 20.4115 67.0498 20.0938C67.1826 19.776 67.249 19.3958 67.249 18.9531C67.249 18.5208 67.1839 18.1393 67.0537 17.8086C66.9235 17.4779 66.7308 17.2187 66.4756 17.0312C66.2204 16.8437 65.9053 16.75 65.5303 16.75C65.1396 16.75 64.8141 16.849 64.5537 17.0469C64.2959 17.2448 64.1019 17.5104 63.9717 17.8438C63.8441 18.1771 63.7803 18.5469 63.7803 18.9531C63.7803 19.3698 63.8454 19.7383 63.9756 20.0586C64.1084 20.3763 64.3037 20.6263 64.5615 20.8086C64.8219 20.9883 65.1449 21.0781 65.5303 21.0781ZM72.3584 22.125C71.7803 22.125 71.2816 21.9974 70.8623 21.7422C70.4456 21.4844 70.124 21.125 69.8975 20.6641C69.6735 20.2005 69.5615 19.6615 69.5615 19.0469C69.5615 18.4323 69.6735 17.8906 69.8975 17.4219C70.124 16.9505 70.4391 16.5833 70.8428 16.3203C71.249 16.0547 71.723 15.9219 72.2646 15.9219C72.5771 15.9219 72.8857 15.974 73.1904 16.0781C73.4951 16.1823 73.7725 16.3516 74.0225 16.5859C74.2725 16.8177 74.4717 17.125 74.6201 17.5078C74.7686 17.8906 74.8428 18.362 74.8428 18.9219V19.3125H70.2178V18.5156H73.9053C73.9053 18.1771 73.8376 17.875 73.7021 17.6094C73.5693 17.3437 73.3792 17.1341 73.1318 16.9805C72.887 16.8268 72.598 16.75 72.2646 16.75C71.8975 16.75 71.5798 16.8411 71.3115 17.0234C71.0459 17.2031 70.8415 17.4375 70.6982 17.7266C70.555 18.0156 70.4834 18.3255 70.4834 18.6562V19.1875C70.4834 19.6406 70.5615 20.0247 70.7178 20.3398C70.8766 20.6523 71.0967 20.8906 71.3779 21.0547C71.6592 21.2161 71.986 21.2969 72.3584 21.2969C72.6006 21.2969 72.8193 21.263 73.0146 21.1953C73.2126 21.125 73.3831 21.0208 73.5264 20.8828C73.6696 20.7422 73.7803 20.5677 73.8584 20.3594L74.749 20.6094C74.6553 20.9115 74.4977 21.1771 74.2764 21.4062C74.055 21.6328 73.7816 21.8099 73.4561 21.9375C73.1305 22.0625 72.7646 22.125 72.3584 22.125ZM83.8389 16C83.792 15.6042 83.6019 15.2969 83.2686 15.0781C82.9352 14.8594 82.5264 14.75 82.042 14.75C81.6878 14.75 81.3779 14.8073 81.1123 14.9219C80.8493 15.0365 80.6436 15.194 80.4951 15.3945C80.3493 15.5951 80.2764 15.8229 80.2764 16.0781C80.2764 16.2917 80.3271 16.4753 80.4287 16.6289C80.5329 16.7799 80.6657 16.9062 80.8271 17.0078C80.9886 17.1068 81.1579 17.1888 81.335 17.2539C81.512 17.3164 81.6748 17.3672 81.8232 17.4062L82.6357 17.625C82.8441 17.6797 83.0758 17.7552 83.3311 17.8516C83.5889 17.9479 83.835 18.0794 84.0693 18.2461C84.3063 18.4102 84.5016 18.6211 84.6553 18.8789C84.8089 19.1367 84.8857 19.4531 84.8857 19.8281C84.8857 20.2604 84.7725 20.651 84.5459 21C84.3219 21.349 83.9938 21.6263 83.5615 21.832C83.1318 22.0378 82.6097 22.1406 81.9951 22.1406C81.4222 22.1406 80.9261 22.0482 80.5068 21.8633C80.0902 21.6784 79.762 21.4206 79.5225 21.0898C79.2855 20.7591 79.1514 20.375 79.1201 19.9375H80.1201C80.1462 20.2396 80.2477 20.4896 80.4248 20.6875C80.6045 20.8828 80.8311 21.0286 81.1045 21.125C81.3805 21.2187 81.6774 21.2656 81.9951 21.2656C82.3649 21.2656 82.6969 21.2057 82.9912 21.0859C83.2855 20.9635 83.5186 20.7943 83.6904 20.5781C83.8623 20.3594 83.9482 20.1042 83.9482 19.8125C83.9482 19.5469 83.874 19.3307 83.7256 19.1641C83.5771 18.9974 83.3818 18.862 83.1396 18.7578C82.8975 18.6536 82.6357 18.5625 82.3545 18.4844L81.3701 18.2031C80.7451 18.0234 80.2503 17.7669 79.8857 17.4336C79.5212 17.1003 79.3389 16.6641 79.3389 16.125C79.3389 15.6771 79.46 15.2865 79.7021 14.9531C79.9469 14.6172 80.2751 14.3568 80.6865 14.1719C81.1006 13.9844 81.5628 13.8906 82.0732 13.8906C82.5889 13.8906 83.0472 13.9831 83.4482 14.168C83.8493 14.3503 84.167 14.6003 84.4014 14.918C84.6383 15.2357 84.7633 15.5964 84.7764 16H83.8389ZM88.8691 22.125C88.291 22.125 87.7923 21.9974 87.373 21.7422C86.9564 21.4844 86.6348 21.125 86.4082 20.6641C86.1842 20.2005 86.0723 19.6615 86.0723 19.0469C86.0723 18.4323 86.1842 17.8906 86.4082 17.4219C86.6348 16.9505 86.9499 16.5833 87.3535 16.3203C87.7598 16.0547 88.2337 15.9219 88.7754 15.9219C89.0879 15.9219 89.3965 15.974 89.7012 16.0781C90.0059 16.1823 90.2832 16.3516 90.5332 16.5859C90.7832 16.8177 90.9824 17.125 91.1309 17.5078C91.2793 17.8906 91.3535 18.362 91.3535 18.9219V19.3125H86.7285V18.5156H90.416C90.416 18.1771 90.3483 17.875 90.2129 17.6094C90.0801 17.3437 89.89 17.1341 89.6426 16.9805C89.3978 16.8268 89.1087 16.75 88.7754 16.75C88.4082 16.75 88.0905 16.8411 87.8223 17.0234C87.5566 17.2031 87.3522 17.4375 87.209 17.7266C87.0658 18.0156 86.9941 18.3255 86.9941 18.6562V19.1875C86.9941 19.6406 87.0723 20.0247 87.2285 20.3398C87.3874 20.6523 87.6074 20.8906 87.8887 21.0547C88.1699 21.2161 88.4967 21.2969 88.8691 21.2969C89.1113 21.2969 89.3301 21.263 89.5254 21.1953C89.7233 21.125 89.8939 21.0208 90.0371 20.8828C90.1803 20.7422 90.291 20.5677 90.3691 20.3594L91.2598 20.6094C91.166 20.9115 91.0085 21.1771 90.7871 21.4062C90.5658 21.6328 90.2923 21.8099 89.9668 21.9375C89.6413 22.0625 89.2754 22.125 88.8691 22.125ZM95.1934 22.125C94.6309 22.125 94.1465 21.9922 93.7402 21.7266C93.334 21.4609 93.0215 21.0951 92.8027 20.6289C92.584 20.1628 92.4746 19.6302 92.4746 19.0312C92.4746 18.4219 92.5866 17.8841 92.8105 17.418C93.0371 16.9492 93.3522 16.5833 93.7559 16.3203C94.1621 16.0547 94.6361 15.9219 95.1777 15.9219C95.5996 15.9219 95.9798 16 96.3184 16.1562C96.6569 16.3125 96.9342 16.5312 97.1504 16.8125C97.3665 17.0937 97.5007 17.4219 97.5527 17.7969H96.6309C96.5605 17.5234 96.4043 17.2812 96.1621 17.0703C95.9225 16.8568 95.5996 16.75 95.1934 16.75C94.834 16.75 94.5189 16.8437 94.248 17.0312C93.9798 17.2161 93.7702 17.4779 93.6191 17.8164C93.4707 18.1523 93.3965 18.5469 93.3965 19C93.3965 19.4635 93.4694 19.8672 93.6152 20.2109C93.7637 20.5547 93.972 20.8216 94.2402 21.0117C94.5111 21.2018 94.8288 21.2969 95.1934 21.2969C95.4329 21.2969 95.6504 21.2552 95.8457 21.1719C96.041 21.0885 96.2064 20.9688 96.3418 20.8125C96.4772 20.6562 96.5736 20.4687 96.6309 20.25H97.5527C97.5007 20.6042 97.3717 20.9232 97.166 21.207C96.9629 21.4883 96.6934 21.7122 96.3574 21.8789C96.0241 22.043 95.6361 22.125 95.1934 22.125ZM101.51 16V16.7812H98.4004V16H101.51ZM99.3066 14.5625H100.229V20.2812C100.229 20.5417 100.266 20.737 100.342 20.8672C100.42 20.9948 100.519 21.0807 100.639 21.125C100.761 21.1667 100.89 21.1875 101.025 21.1875C101.127 21.1875 101.21 21.1823 101.275 21.1719C101.34 21.1589 101.393 21.1484 101.432 21.1406L101.619 21.9687C101.557 21.9922 101.469 22.0156 101.357 22.0391C101.245 22.0651 101.104 22.0781 100.932 22.0781C100.671 22.0781 100.416 22.0221 100.166 21.9102C99.9186 21.7982 99.7129 21.6276 99.5488 21.3984C99.3874 21.1693 99.3066 20.8802 99.3066 20.5312V14.5625ZM102.896 22V16H103.818V22H102.896ZM103.365 15C103.186 15 103.031 14.9388 102.9 14.8164C102.773 14.694 102.709 14.5469 102.709 14.375C102.709 14.2031 102.773 14.056 102.9 13.9336C103.031 13.8112 103.186 13.75 103.365 13.75C103.545 13.75 103.699 13.8112 103.826 13.9336C103.956 14.056 104.021 14.2031 104.021 14.375C104.021 14.5469 103.956 14.694 103.826 14.8164C103.699 14.9388 103.545 15 103.365 15ZM107.944 22.125C107.403 22.125 106.927 21.9961 106.519 21.7383C106.112 21.4805 105.795 21.1198 105.565 20.6562C105.339 20.1927 105.226 19.651 105.226 19.0312C105.226 18.4062 105.339 17.8607 105.565 17.3945C105.795 16.9284 106.112 16.5664 106.519 16.3086C106.927 16.0508 107.403 15.9219 107.944 15.9219C108.486 15.9219 108.96 16.0508 109.366 16.3086C109.775 16.5664 110.093 16.9284 110.319 17.3945C110.549 17.8607 110.663 18.4062 110.663 19.0312C110.663 19.651 110.549 20.1927 110.319 20.6562C110.093 21.1198 109.775 21.4805 109.366 21.7383C108.96 21.9961 108.486 22.125 107.944 22.125ZM107.944 21.2969C108.356 21.2969 108.694 21.1914 108.96 20.9805C109.226 20.7695 109.422 20.4922 109.55 20.1484C109.677 19.8047 109.741 19.4323 109.741 19.0312C109.741 18.6302 109.677 18.2565 109.55 17.9102C109.422 17.5638 109.226 17.2839 108.96 17.0703C108.694 16.8568 108.356 16.75 107.944 16.75C107.533 16.75 107.194 16.8568 106.929 17.0703C106.663 17.2839 106.466 17.5638 106.339 17.9102C106.211 18.2565 106.147 18.6302 106.147 19.0312C106.147 19.4323 106.211 19.8047 106.339 20.1484C106.466 20.4922 106.663 20.7695 106.929 20.9805C107.194 21.1914 107.533 21.2969 107.944 21.2969ZM112.992 18.3906V22H112.07V16H112.961V16.9375H113.039C113.18 16.6328 113.393 16.388 113.68 16.2031C113.966 16.0156 114.336 15.9219 114.789 15.9219C115.195 15.9219 115.551 16.0052 115.855 16.1719C116.16 16.3359 116.397 16.5859 116.566 16.9219C116.736 17.2552 116.82 17.6771 116.82 18.1875V22H115.898V18.25C115.898 17.7786 115.776 17.4115 115.531 17.1484C115.286 16.8828 114.951 16.75 114.523 16.75C114.229 16.75 113.966 16.8138 113.734 16.9414C113.505 17.069 113.324 17.2552 113.191 17.5C113.059 17.7448 112.992 18.0417 112.992 18.3906Z" fill="black"/>
</svg>
