<svg width="680" height="380" viewBox="0 0 680 380" fill="none" xmlns="http://www.w3.org/2000/svg">
<path d="M40 42C40 40.8954 40.8954 40 42 40H638C639.105 40 640 40.8954 640 42V338C640 339.105 639.105 340 638 340H42C40.8954 340 40 339.105 40 338V42Z" fill="white"/>
<path d="M42 40V41H638V40V39H42V40ZM640 42H639V338H640H641V42H640ZM638 340V339H42V340V341H638V340ZM40 338H41V42H40H39V338H40ZM42 340V339C41.4477 339 41 338.552 41 338H40H39C39 339.657 40.3431 341 42 341V340ZM640 338H639C639 338.552 638.552 339 638 339V340V341C639.657 341 641 339.657 641 338H640ZM638 40V41C638.552 41 639 41.4477 639 42H640H641C641 40.3431 639.657 39 638 39V40ZM42 40V39C40.3431 39 39 40.3431 39 42H40H41C41 41.4477 41.4477 41 42 41V40Z" fill="black" fill-opacity="0.1"/>
<rect width="150" height="100" transform="translate(122 140)" fill="white"/>
<rect x="161" y="155" width="71" height="71" rx="8" fill="#3399EE"/>
<rect width="150" height="100" transform="translate(398 140)" fill="white"/>
<rect x="437" y="155" width="71" height="71" rx="8" fill="#E66633"/>
<rect x="40" y="4" width="124.328" height="30" rx="3" fill="white"/>
<rect x="40.5" y="4.5" width="123.328" height="29" rx="2.5" stroke="black" stroke-opacity="0.2"/>
<path d="M51.3438 16C51.2969 15.6042 51.1068 15.2969 50.7734 15.0781C50.4401 14.8594 50.0313 14.75 49.5469 14.75C49.1927 14.75 48.8828 14.8073 48.6172 14.9219C48.3542 15.0365 48.1484 15.194 48 15.3945C47.8542 15.5951 47.7813 15.8229 47.7813 16.0781C47.7813 16.2917 47.832 16.4753 47.9336 16.6289C48.0378 16.7799 48.1706 16.9062 48.332 17.0078C48.4935 17.1068 48.6628 17.1888 48.8398 17.2539C49.0169 17.3164 49.1797 17.3672 49.3281 17.4062L50.1406 17.625C50.349 17.6797 50.5807 17.7552 50.8359 17.8516C51.0938 17.9479 51.3398 18.0794 51.5742 18.2461C51.8112 18.4102 52.0065 18.6211 52.1602 18.8789C52.3138 19.1367 52.3906 19.4531 52.3906 19.8281C52.3906 20.2604 52.2773 20.651 52.0508 21C51.8268 21.349 51.4987 21.6263 51.0664 21.832C50.6367 22.0378 50.1146 22.1406 49.5 22.1406C48.9271 22.1406 48.431 22.0482 48.0117 21.8633C47.5951 21.6784 47.2669 21.4206 47.0273 21.0898C46.7904 20.7591 46.6563 20.375 46.625 19.9375H47.625C47.651 20.2396 47.7526 20.4896 47.9297 20.6875C48.1094 20.8828 48.3359 21.0286 48.6094 21.125C48.8854 21.2187 49.1823 21.2656 49.5 21.2656C49.8698 21.2656 50.2018 21.2057 50.4961 21.0859C50.7904 20.9635 51.0234 20.7943 51.1953 20.5781C51.3672 20.3594 51.4531 20.1042 51.4531 19.8125C51.4531 19.5469 51.3789 19.3307 51.2305 19.1641C51.082 18.9974 50.8867 18.862 50.6445 18.7578C50.4023 18.6536 50.1406 18.5625 49.8594 18.4844L48.875 18.2031C48.25 18.0234 47.7552 17.7669 47.3906 17.4336C47.026 17.1003 46.8438 16.6641 46.8438 16.125C46.8438 15.6771 46.9648 15.2865 47.207 14.9531C47.4518 14.6172 47.7799 14.3568 48.1914 14.1719C48.6055 13.9844 49.0677 13.8906 49.5781 13.8906C50.0938 13.8906 50.5521 13.9831 50.9531 14.168C51.3542 14.3503 51.6719 14.6003 51.9062 14.918C52.1432 15.2357 52.2682 15.5964 52.2813 16H51.3438ZM56.374 22.125C55.7959 22.125 55.2972 21.9974 54.8779 21.7422C54.4613 21.4844 54.1396 21.125 53.9131 20.6641C53.6891 20.2005 53.5771 19.6615 53.5771 19.0469C53.5771 18.4323 53.6891 17.8906 53.9131 17.4219C54.1396 16.9505 54.4548 16.5833 54.8584 16.3203C55.2646 16.0547 55.7386 15.9219 56.2803 15.9219C56.5928 15.9219 56.9014 15.974 57.2061 16.0781C57.5107 16.1823 57.7881 16.3516 58.0381 16.5859C58.2881 16.8177 58.4873 17.125 58.6357 17.5078C58.7842 17.8906 58.8584 18.362 58.8584 18.9219V19.3125H54.2334V18.5156H57.9209C57.9209 18.1771 57.8532 17.875 57.7178 17.6094C57.585 17.3437 57.3949 17.1341 57.1475 16.9805C56.9027 16.8268 56.6136 16.75 56.2803 16.75C55.9131 16.75 55.5954 16.8411 55.3271 17.0234C55.0615 17.2031 54.8571 17.4375 54.7139 17.7266C54.5706 18.0156 54.499 18.3255 54.499 18.6562V19.1875C54.499 19.6406 54.5771 20.0247 54.7334 20.3398C54.8923 20.6523 55.1123 20.8906 55.3936 21.0547C55.6748 21.2161 56.0016 21.2969 56.374 21.2969C56.6162 21.2969 56.835 21.263 57.0303 21.1953C57.2282 21.125 57.3988 21.0208 57.542 20.8828C57.6852 20.7422 57.7959 20.5677 57.874 20.3594L58.7646 20.6094C58.6709 20.9115 58.5133 21.1771 58.292 21.4062C58.0706 21.6328 57.7972 21.8099 57.4717 21.9375C57.1462 22.0625 56.7803 22.125 56.374 22.125ZM62.6982 22.125C62.1357 22.125 61.6514 21.9922 61.2451 21.7266C60.8389 21.4609 60.5264 21.0951 60.3076 20.6289C60.0889 20.1628 59.9795 19.6302 59.9795 19.0312C59.9795 18.4219 60.0915 17.8841 60.3154 17.418C60.542 16.9492 60.8571 16.5833 61.2607 16.3203C61.667 16.0547 62.141 15.9219 62.6826 15.9219C63.1045 15.9219 63.4847 16 63.8232 16.1562C64.1618 16.3125 64.4391 16.5312 64.6553 16.8125C64.8714 17.0937 65.0055 17.4219 65.0576 17.7969H64.1357C64.0654 17.5234 63.9092 17.2812 63.667 17.0703C63.4274 16.8568 63.1045 16.75 62.6982 16.75C62.3389 16.75 62.0238 16.8437 61.7529 17.0312C61.4847 17.2161 61.2751 17.4779 61.124 17.8164C60.9756 18.1523 60.9014 18.5469 60.9014 19C60.9014 19.4635 60.9743 19.8672 61.1201 20.2109C61.2686 20.5547 61.4769 20.8216 61.7451 21.0117C62.016 21.2018 62.3337 21.2969 62.6982 21.2969C62.9378 21.2969 63.1553 21.2552 63.3506 21.1719C63.5459 21.0885 63.7113 20.9688 63.8467 20.8125C63.9821 20.6562 64.0785 20.4687 64.1357 20.25H65.0576C65.0055 20.6042 64.8766 20.9232 64.6709 21.207C64.4678 21.4883 64.1982 21.7122 63.8623 21.8789C63.529 22.043 63.141 22.125 62.6982 22.125ZM69.0146 16V16.7812H65.9053V16H69.0146ZM66.8115 14.5625H67.7334V20.2812C67.7334 20.5417 67.7712 20.737 67.8467 20.8672C67.9248 20.9948 68.0238 21.0807 68.1436 21.125C68.266 21.1667 68.3949 21.1875 68.5303 21.1875C68.6318 21.1875 68.7152 21.1823 68.7803 21.1719C68.8454 21.1589 68.8975 21.1484 68.9365 21.1406L69.124 21.9687C69.0615 21.9922 68.9743 22.0156 68.8623 22.0391C68.7503 22.0651 68.6084 22.0781 68.4365 22.0781C68.1761 22.0781 67.9209 22.0221 67.6709 21.9102C67.4235 21.7982 67.2178 21.6276 67.0537 21.3984C66.8923 21.1693 66.8115 20.8802 66.8115 20.5312V14.5625ZM70.4014 22V16H71.3232V22H70.4014ZM70.8701 15C70.6904 15 70.5355 14.9388 70.4053 14.8164C70.2777 14.694 70.2139 14.5469 70.2139 14.375C70.2139 14.2031 70.2777 14.056 70.4053 13.9336C70.5355 13.8112 70.6904 13.75 70.8701 13.75C71.0498 13.75 71.2035 13.8112 71.3311 13.9336C71.4613 14.056 71.5264 14.2031 71.5264 14.375C71.5264 14.5469 71.4613 14.694 71.3311 14.8164C71.2035 14.9388 71.0498 15 70.8701 15ZM75.4492 22.125C74.9076 22.125 74.4323 21.9961 74.0234 21.7383C73.6172 21.4805 73.2995 21.1198 73.0703 20.6562C72.8438 20.1927 72.7305 19.651 72.7305 19.0312C72.7305 18.4062 72.8438 17.8607 73.0703 17.3945C73.2995 16.9284 73.6172 16.5664 74.0234 16.3086C74.4323 16.0508 74.9076 15.9219 75.4492 15.9219C75.9909 15.9219 76.4648 16.0508 76.8711 16.3086C77.2799 16.5664 77.5977 16.9284 77.8242 17.3945C78.0534 17.8607 78.168 18.4062 78.168 19.0312C78.168 19.651 78.0534 20.1927 77.8242 20.6562C77.5977 21.1198 77.2799 21.4805 76.8711 21.7383C76.4648 21.9961 75.9909 22.125 75.4492 22.125ZM75.4492 21.2969C75.8607 21.2969 76.1992 21.1914 76.4648 20.9805C76.7305 20.7695 76.9271 20.4922 77.0547 20.1484C77.1823 19.8047 77.2461 19.4323 77.2461 19.0312C77.2461 18.6302 77.1823 18.2565 77.0547 17.9102C76.9271 17.5638 76.7305 17.2839 76.4648 17.0703C76.1992 16.8568 75.8607 16.75 75.4492 16.75C75.0378 16.75 74.6992 16.8568 74.4336 17.0703C74.168 17.2839 73.9714 17.5638 73.8438 17.9102C73.7161 18.2565 73.6523 18.6302 73.6523 19.0312C73.6523 19.4323 73.7161 19.8047 73.8438 20.1484C73.9714 20.4922 74.168 20.7695 74.4336 20.9805C74.6992 21.1914 75.0378 21.2969 75.4492 21.2969ZM80.4971 18.3906V22H79.5752V16H80.4658V16.9375H80.5439C80.6846 16.6328 80.8981 16.388 81.1846 16.2031C81.471 16.0156 81.8408 15.9219 82.2939 15.9219C82.7002 15.9219 83.0557 16.0052 83.3604 16.1719C83.665 16.3359 83.902 16.5859 84.0713 16.9219C84.2406 17.2552 84.3252 17.6771 84.3252 18.1875V22H83.4033V18.25C83.4033 17.7786 83.2809 17.4115 83.0361 17.1484C82.7913 16.8828 82.4554 16.75 82.0283 16.75C81.734 16.75 81.471 16.8138 81.2393 16.9414C81.0101 17.069 80.8291 17.2552 80.6963 17.5C80.5635 17.7448 80.4971 18.0417 80.4971 18.3906ZM90.6816 22L88.4941 14H89.4785L91.1504 20.5156H91.2285L92.9316 14H94.0254L95.7285 20.5156H95.8066L97.4785 14H98.4629L96.2754 22H95.2754L93.5098 15.625H93.4473L91.6816 22H90.6816ZM99.5449 22V16H100.467V22H99.5449ZM100.014 15C99.834 15 99.679 14.9388 99.5488 14.8164C99.4212 14.694 99.3574 14.5469 99.3574 14.375C99.3574 14.2031 99.4212 14.056 99.5488 13.9336C99.679 13.8112 99.834 13.75 100.014 13.75C100.193 13.75 100.347 13.8112 100.475 13.9336C100.605 14.056 100.67 14.2031 100.67 14.375C100.67 14.5469 100.605 14.694 100.475 14.8164C100.347 14.9388 100.193 15 100.014 15ZM104.765 16V16.7812H101.655V16H104.765ZM102.562 14.5625H103.483V20.2812C103.483 20.5417 103.521 20.737 103.597 20.8672C103.675 20.9948 103.774 21.0807 103.894 21.125C104.016 21.1667 104.145 21.1875 104.28 21.1875C104.382 21.1875 104.465 21.1823 104.53 21.1719C104.595 21.1589 104.647 21.1484 104.687 21.1406L104.874 21.9687C104.812 21.9922 104.724 22.0156 104.612 22.0391C104.5 22.0651 104.358 22.0781 104.187 22.0781C103.926 22.0781 103.671 22.0221 103.421 21.9102C103.174 21.7982 102.968 21.6276 102.804 21.3984C102.642 21.1693 102.562 20.8802 102.562 20.5312V14.5625ZM107.202 18.3906V22H106.28V14H107.202V16.9375H107.28C107.421 16.6276 107.632 16.3815 107.913 16.1992C108.197 16.0143 108.575 15.9219 109.046 15.9219C109.455 15.9219 109.813 16.0039 110.12 16.168C110.427 16.3294 110.666 16.5781 110.835 16.9141C111.007 17.2474 111.093 17.6719 111.093 18.1875V22H110.171V18.25C110.171 17.7734 110.047 17.4049 109.8 17.1445C109.555 16.8815 109.215 16.75 108.78 16.75C108.478 16.75 108.207 16.8138 107.968 16.9414C107.731 17.069 107.543 17.2552 107.405 17.5C107.27 17.7448 107.202 18.0417 107.202 18.3906ZM122.436 16.5H121.467C121.41 16.2214 121.309 15.9766 121.166 15.7656C121.025 15.5547 120.854 15.3776 120.65 15.2344C120.45 15.0885 120.227 14.9792 119.982 14.9062C119.738 14.8333 119.482 14.7969 119.217 14.7969C118.732 14.7969 118.294 14.9193 117.9 15.1641C117.51 15.4089 117.199 15.7695 116.967 16.2461C116.738 16.7227 116.623 17.3073 116.623 18C116.623 18.6927 116.738 19.2773 116.967 19.7539C117.199 20.2305 117.51 20.5911 117.9 20.8359C118.294 21.0807 118.732 21.2031 119.217 21.2031C119.482 21.2031 119.738 21.1667 119.982 21.0937C120.227 21.0208 120.45 20.9128 120.65 20.7695C120.854 20.6237 121.025 20.4453 121.166 20.2344C121.309 20.0208 121.41 19.776 121.467 19.5H122.436C122.363 19.9089 122.23 20.2747 122.037 20.5977C121.844 20.9206 121.605 21.1953 121.318 21.4219C121.032 21.6458 120.71 21.8164 120.354 21.9336C119.999 22.0508 119.62 22.1094 119.217 22.1094C118.535 22.1094 117.928 21.9427 117.396 21.6094C116.865 21.276 116.447 20.8021 116.143 20.1875C115.838 19.5729 115.686 18.8437 115.686 18C115.686 17.1562 115.838 16.4271 116.143 15.8125C116.447 15.1979 116.865 14.724 117.396 14.3906C117.928 14.0573 118.535 13.8906 119.217 13.8906C119.62 13.8906 119.999 13.9492 120.354 14.0664C120.71 14.1836 121.032 14.3555 121.318 14.582C121.605 14.806 121.844 15.0794 122.037 15.4023C122.23 15.7227 122.363 16.0885 122.436 16.5ZM124.798 18.3906V22H123.876V14H124.798V16.9375H124.876C125.017 16.6276 125.228 16.3815 125.509 16.1992C125.793 16.0143 126.17 15.9219 126.642 15.9219C127.05 15.9219 127.409 16.0039 127.716 16.168C128.023 16.3294 128.261 16.5781 128.431 16.9141C128.603 17.2474 128.688 17.6719 128.688 18.1875V22H127.767V18.25C127.767 17.7734 127.643 17.4049 127.396 17.1445C127.151 16.8815 126.811 16.75 126.376 16.75C126.074 16.75 125.803 16.8138 125.563 16.9414C125.326 17.069 125.139 17.2552 125.001 17.5C124.866 17.7448 124.798 18.0417 124.798 18.3906ZM130.375 22V16H131.297V22H130.375ZM130.844 15C130.664 15 130.509 14.9388 130.379 14.8164C130.251 14.694 130.188 14.5469 130.188 14.375C130.188 14.2031 130.251 14.056 130.379 13.9336C130.509 13.8112 130.664 13.75 130.844 13.75C131.023 13.75 131.177 13.8112 131.305 13.9336C131.435 14.056 131.5 14.2031 131.5 14.375C131.5 14.5469 131.435 14.694 131.305 14.8164C131.177 14.9388 131.023 15 130.844 15ZM133.907 14V22H132.985V14H133.907ZM137.861 22.125C137.361 22.125 136.92 21.9987 136.537 21.7461C136.154 21.4909 135.855 21.1315 135.639 20.668C135.423 20.2018 135.314 19.651 135.314 19.0156C135.314 18.3854 135.423 17.8385 135.639 17.375C135.855 16.9115 136.156 16.5534 136.541 16.3008C136.926 16.0482 137.372 15.9219 137.877 15.9219C138.268 15.9219 138.576 15.987 138.803 16.1172C139.032 16.2448 139.206 16.3906 139.326 16.5547C139.449 16.7161 139.544 16.849 139.611 16.9531H139.689V14H140.611V22H139.721V21.0781H139.611C139.544 21.1875 139.447 21.3255 139.322 21.4922C139.197 21.6562 139.019 21.8034 138.787 21.9336C138.555 22.0612 138.247 22.125 137.861 22.125ZM137.986 21.2969C138.356 21.2969 138.669 21.2005 138.924 21.0078C139.179 20.8125 139.373 20.543 139.506 20.1992C139.639 19.8529 139.705 19.4531 139.705 19C139.705 18.5521 139.64 18.1602 139.51 17.8242C139.38 17.4857 139.187 17.2227 138.932 17.0352C138.676 16.8451 138.361 16.75 137.986 16.75C137.596 16.75 137.27 16.8503 137.01 17.0508C136.752 17.2487 136.558 17.5182 136.428 17.8594C136.3 18.1979 136.236 18.5781 136.236 19C136.236 19.4271 136.301 19.8151 136.432 20.1641C136.564 20.5104 136.76 20.7865 137.018 20.9922C137.278 21.1953 137.601 21.2969 137.986 21.2969ZM142.428 22V16H143.318V16.9062H143.381C143.49 16.6094 143.688 16.3685 143.975 16.1836C144.261 15.9987 144.584 15.9062 144.943 15.9062C145.011 15.9062 145.096 15.9076 145.197 15.9102C145.299 15.9128 145.376 15.9167 145.428 15.9219V16.8594C145.396 16.8516 145.325 16.8398 145.213 16.8242C145.104 16.806 144.988 16.7969 144.865 16.7969C144.574 16.7969 144.313 16.8581 144.084 16.9805C143.857 17.1003 143.678 17.2669 143.545 17.4805C143.415 17.6914 143.35 17.9323 143.35 18.2031V22H142.428ZM148.854 22.125C148.275 22.125 147.777 21.9974 147.357 21.7422C146.941 21.4844 146.619 21.125 146.393 20.6641C146.169 20.2005 146.057 19.6615 146.057 19.0469C146.057 18.4323 146.169 17.8906 146.393 17.4219C146.619 16.9505 146.934 16.5833 147.338 16.3203C147.744 16.0547 148.218 15.9219 148.76 15.9219C149.072 15.9219 149.381 15.974 149.686 16.0781C149.99 16.1823 150.268 16.3516 150.518 16.5859C150.768 16.8177 150.967 17.125 151.115 17.5078C151.264 17.8906 151.338 18.362 151.338 18.9219V19.3125H146.713V18.5156H150.4C150.4 18.1771 150.333 17.875 150.197 17.6094C150.064 17.3437 149.874 17.1341 149.627 16.9805C149.382 16.8268 149.093 16.75 148.76 16.75C148.393 16.75 148.075 16.8411 147.807 17.0234C147.541 17.2031 147.337 17.4375 147.193 17.7266C147.05 18.0156 146.979 18.3255 146.979 18.6562V19.1875C146.979 19.6406 147.057 20.0247 147.213 20.3398C147.372 20.6523 147.592 20.8906 147.873 21.0547C148.154 21.2161 148.481 21.2969 148.854 21.2969C149.096 21.2969 149.314 21.263 149.51 21.1953C149.708 21.125 149.878 21.0208 150.021 20.8828C150.165 20.7422 150.275 20.5677 150.354 20.3594L151.244 20.6094C151.15 20.9115 150.993 21.1771 150.771 21.4062C150.55 21.6328 150.277 21.8099 149.951 21.9375C149.626 22.0625 149.26 22.125 148.854 22.125ZM153.662 18.3906V22H152.74V16H153.631V16.9375H153.709C153.85 16.6328 154.063 16.388 154.35 16.2031C154.636 16.0156 155.006 15.9219 155.459 15.9219C155.865 15.9219 156.221 16.0052 156.525 16.1719C156.83 16.3359 157.067 16.5859 157.236 16.9219C157.406 17.2552 157.49 17.6771 157.49 18.1875V22H156.568V18.25C156.568 17.7786 156.446 17.4115 156.201 17.1484C155.956 16.8828 155.62 16.75 155.193 16.75C154.899 16.75 154.636 16.8138 154.404 16.9414C154.175 17.069 153.994 17.2552 153.861 17.5C153.729 17.7448 153.662 18.0417 153.662 18.3906Z" fill="black"/>
</svg>
