<svg width="200" height="100" viewBox="0 0 200 100" fill="none" xmlns="http://www.w3.org/2000/svg">
<rect width="200" height="100" fill="#F7F7F7"/>
<path d="M20.5858 46.5858C19.8047 47.3668 19.8047 48.6332 20.5858 49.4142L33.3137 62.1421C34.0948 62.9232 35.3611 62.9232 36.1421 62.1421C36.9232 61.3611 36.9232 60.0948 36.1421 59.3137L24.8284 48L36.1421 36.6863C36.9232 35.9052 36.9232 34.6389 36.1421 33.8579C35.3611 33.0768 34.0948 33.0768 33.3137 33.8579L20.5858 46.5858ZM179.414 49.4142C180.195 48.6332 180.195 47.3668 179.414 46.5858L166.686 33.8579C165.905 33.0768 164.639 33.0768 163.858 33.8579C163.077 34.6389 163.077 35.9052 163.858 36.6863L175.172 48L163.858 59.3137C163.077 60.0948 163.077 61.3611 163.858 62.1421C164.639 62.9232 165.905 62.9232 166.686 62.1421L179.414 49.4142ZM22 48V50H178V48V46H22V48Z" fill="#D92626"/>
</svg>
