<svg xmlns="http://www.w3.org/2000/svg" width="250" height="200" viewBox="0 0 250 200"><g><defs><clipPath id="clip-g160-2"><rect x="0" y="0" width="250" height="200"/></clipPath></defs><rect x="0" y="0" width="250" height="200" fill="#ffffff"/><g transform="matrix(1,0,0,1,35,15)"><rect x="0" y="0" width="180" height="40" fill="#d9d9d9" stroke="#000000" stroke-width="4"/></g><g transform="matrix(1,0,0,1,35,75)"><defs><mask id="stroke-mask-g160-0" style="mask-type:luminance"><g fill="white"><rect x="0" y="0" width="180" height="40"/></g></mask></defs><rect x="0" y="0" width="180" height="40" fill="#d9d9d9"/><g mask="url(#stroke-mask-g160-0)"><rect x="0" y="0" width="180" height="40" fill="none" stroke="#cc0000" stroke-width="8"/></g></g><g transform="matrix(1,0,0,1,35,140)"><defs><mask id="stroke-mask-g160-1" style="mask-type:luminance"><rect x="-100" y="-100" width="10000" height="10000" fill="white"/><g fill="black"><rect x="0" y="0" width="180" height="40"/></g></mask></defs><rect x="0" y="0" width="180" height="40" fill="#d9d9d9"/><g mask="url(#stroke-mask-g160-1)"><rect x="0" y="0" width="180" height="40" fill="none" stroke="#0000cc" stroke-width="8"/></g></g></g></svg>