<svg xmlns="http://www.w3.org/2000/svg" width="1200" height="800" viewBox="0 0 1200 800"><defs><clipPath id="clip-0"><rect x="0" y="0" width="150" height="120" fill="black"/></clipPath><clipPath id="clip-1"><rect x="0" y="0" width="150" height="120" fill="black"/></clipPath><clipPath id="clip-2"><rect x="0" y="0" width="150" height="120" fill="black"/></clipPath><clipPath id="clip-3"><rect x="0" y="0" width="150" height="120" fill="black"/></clipPath><clipPath id="clip-4"><rect x="0" y="0" width="150" height="120" fill="black"/></clipPath><clipPath id="clip-5"><rect x="0" y="0" width="150" height="120" fill="black"/></clipPath><clipPath id="clip-6"><rect x="0" y="0" width="150" height="120" fill="black"/></clipPath><clipPath id="clip-7"><rect x="0" y="0" width="150" height="120" fill="black"/></clipPath><clipPath id="clip-8"><rect x="0" y="0" width="150" height="120" fill="black"/></clipPath><clipPath id="clip-9"><rect x="0" y="0" width="150" height="120" fill="black"/></clipPath></defs><g><rect x="0" y="0" width="150" height="120" fill="#ffffff"/><g clip-path="url(#clip-0)"><g><text x="0" y="14" fill="#000000" font-family="Inter" font-size="14" font-weight="400">Line 1</text><text x="0" y="25.200000000000003" fill="#000000" font-family="Inter" font-size="14" font-weight="400">Line 2</text><text x="0" y="36.400000000000006" fill="#000000" font-family="Inter" font-size="14" font-weight="400">Line 3</text></g></g></g><g transform="matrix(1, 0, 0, 1, 170, 0)"><rect x="0" y="0" width="150" height="120" fill="#ffffff"/><g clip-path="url(#clip-1)"><g><text x="0" y="14" fill="#000000" font-family="Inter" font-size="14" font-weight="400">Line 1</text><text x="0" y="28" fill="#000000" font-family="Inter" font-size="14" font-weight="400">Line 2</text><text x="0" y="42" fill="#000000" font-family="Inter" font-size="14" font-weight="400">Line 3</text></g></g></g><g transform="matrix(1, 0, 0, 1, 340, 0)"><rect x="0" y="0" width="150" height="120" fill="#ffffff"/><g clip-path="url(#clip-2)"><g><text x="0" y="14" fill="#000000" font-family="Inter" font-size="14" font-weight="400">Line 1</text><text x="0" y="30.8" fill="#000000" font-family="Inter" font-size="14" font-weight="400">Line 2</text><text x="0" y="47.6" fill="#000000" font-family="Inter" font-size="14" font-weight="400">Line 3</text></g></g></g><g transform="matrix(1, 0, 0, 1, 510, 0)"><rect x="0" y="0" width="150" height="120" fill="#ffffff"/><g clip-path="url(#clip-3)"><g><text x="0" y="14" fill="#000000" font-family="Inter" font-size="14" font-weight="400">Line 1</text><text x="0" y="35" fill="#000000" font-family="Inter" font-size="14" font-weight="400">Line 2</text><text x="0" y="56" fill="#000000" font-family="Inter" font-size="14" font-weight="400">Line 3</text></g></g></g><g transform="matrix(1, 0, 0, 1, 680, 0)"><rect x="0" y="0" width="150" height="120" fill="#ffffff"/><g clip-path="url(#clip-4)"><g><text x="0" y="14" fill="#000000" font-family="Inter" font-size="14" font-weight="400">Line 1</text><text x="0" y="42" fill="#000000" font-family="Inter" font-size="14" font-weight="400">Line 2</text><text x="0" y="70" fill="#000000" font-family="Inter" font-size="14" font-weight="400">Line 3</text></g></g></g><g transform="matrix(1, 0, 0, 1, 0, 160)"><rect x="0" y="0" width="150" height="120" fill="#ffffff"/><g clip-path="url(#clip-5)"><g><text x="0" y="14" fill="#000000" font-family="Inter" font-size="14" font-weight="400">Line 1</text><text x="0" y="26" fill="#000000" font-family="Inter" font-size="14" font-weight="400">Line 2</text><text x="0" y="38" fill="#000000" font-family="Inter" font-size="14" font-weight="400">Line 3</text></g></g></g><g transform="matrix(1, 0, 0, 1, 170, 160)"><rect x="0" y="0" width="150" height="120" fill="#ffffff"/><g clip-path="url(#clip-6)"><g><text x="0" y="14" fill="#000000" font-family="Inter" font-size="14" font-weight="400">Line 1</text><text x="0" y="30" fill="#000000" font-family="Inter" font-size="14" font-weight="400">Line 2</text><text x="0" y="46" fill="#000000" font-family="Inter" font-size="14" font-weight="400">Line 3</text></g></g></g><g transform="matrix(1, 0, 0, 1, 340, 160)"><rect x="0" y="0" width="150" height="120" fill="#ffffff"/><g clip-path="url(#clip-7)"><g><text x="0" y="14" fill="#000000" font-family="Inter" font-size="14" font-weight="400">Line 1</text><text x="0" y="34" fill="#000000" font-family="Inter" font-size="14" font-weight="400">Line 2</text><text x="0" y="54" fill="#000000" font-family="Inter" font-size="14" font-weight="400">Line 3</text></g></g></g><g transform="matrix(1, 0, 0, 1, 510, 160)"><rect x="0" y="0" width="150" height="120" fill="#ffffff"/><g clip-path="url(#clip-8)"><g><text x="0" y="14" fill="#000000" font-family="Inter" font-size="14" font-weight="400">Line 1</text><text x="0" y="38" fill="#000000" font-family="Inter" font-size="14" font-weight="400">Line 2</text><text x="0" y="62" fill="#000000" font-family="Inter" font-size="14" font-weight="400">Line 3</text></g></g></g><g transform="matrix(1, 0, 0, 1, 680, 160)"><rect x="0" y="0" width="150" height="120" fill="#ffffff"/><g clip-path="url(#clip-9)"><g><text x="0" y="14" fill="#000000" font-family="Inter" font-size="14" font-weight="400">Line 1</text><text x="0" y="46" fill="#000000" font-family="Inter" font-size="14" font-weight="400">Line 2</text><text x="0" y="78" fill="#000000" font-family="Inter" font-size="14" font-weight="400">Line 3</text></g></g></g></svg>