<svg xmlns="http://www.w3.org/2000/svg" width="200" height="100" viewBox="0 0 200 100"><defs><clipPath id="clip-0"><path d="M 0.00 0.00 L 160.00 0.00 L 160.00 50.00 L 0.00 50.00 L 0.00 0.00" fill-rule="nonzero" fill="black"/></clipPath><clipPath id="clip-1"><path d="M 0.00 0.00 L 200.00 0.00 L 200.00 80.00 L 0.00 80.00 L 0.00 0.00" fill-rule="nonzero" fill="black"/></clipPath></defs><g><path d="M 0.00 0.00 L 200.00 0.00 L 200.00 80.00 L 0.00 80.00 L 0.00 0.00" fill-rule="nonzero" fill="#ffffff"/><g clip-path="url(#clip-1)"><g transform="matrix(1, 0, 0, 1, 20, 15)"><path d="M 0.00 0.00 L 160.00 0.00 L 160.00 50.00 L 0.00 50.00 L 0.00 0.00" fill-rule="nonzero" fill="#f0f0f0"/><g clip-path="url(#clip-0)"><g transform="matrix(1, 0, 0, 1, 5, 10)"><path d="M5.35254 14.13672L5.35254 14.13672C4.4821 14.13672 3.70622 13.92594 3.0249 13.50439C2.34359 13.08285 1.80811 12.48128 1.41846 11.69971C1.02881 10.91813 0.83398 9.98958 0.83398 8.91406L0.83398 8.91406C0.83398 7.83398 1.02881 6.90316 1.41846 6.12158C1.80811 5.34001 2.34359 4.7373 3.0249 4.31348C3.70622 3.88965 4.4821 3.67773 5.35254 3.67773L5.35254 3.67773C5.86751 3.67773 6.354 3.75293 6.81201 3.90332C7.27002 4.05371 7.68131 4.2736 8.0459 4.56299C8.41048 4.85238 8.71468 5.20329 8.9585 5.61572C9.20231 6.02816 9.36979 6.49642 9.46094 7.02051L9.46094 7.02051L8.16211 7.02051C8.08919 6.6696 7.96501 6.36198 7.78955 6.09766C7.6141 5.83333 7.3999 5.61003 7.14697 5.42773C6.89404 5.24544 6.61491 5.10872 6.30957 5.01758C6.00423 4.92643 5.68522 4.88086 5.35254 4.88086L5.35254 4.88086C4.74186 4.88086 4.19043 5.03581 3.69824 5.3457C3.20605 5.6556 2.81641 6.11019 2.5293 6.70947C2.24219 7.30876 2.09863 8.04362 2.09863 8.91406L2.09863 8.91406C2.09863 9.77995 2.24333 10.51253 2.53271 11.11182C2.8221 11.7111 3.21289 12.16455 3.70508 12.47217C4.19727 12.77979 4.74642 12.93359 5.35254 12.93359L5.35254 12.93359C5.68522 12.93359 6.00423 12.88688 6.30957 12.79346C6.61491 12.70003 6.89404 12.56331 7.14697 12.3833C7.3999 12.20329 7.6141 11.97998 7.78955 11.71338C7.96501 11.44678 8.08919 11.1403 8.16211 10.79395L8.16211 10.79395L9.46094 10.79395C9.37435 11.31348 9.20915 11.77832 8.96533 12.18848C8.72152 12.59863 8.41732 12.94954 8.05273 13.24121C7.68815 13.53288 7.27686 13.75505 6.81885 13.90771C6.36084 14.06038 5.87207 14.13672 5.35254 14.13672M11.30664 3.81445L12.53711 3.81445L12.53711 14L11.30664 14L11.30664 3.81445M15.92773 14L14.69727 14L14.69727 6.35742L15.92773 6.35742L15.92773 14M15.31934 5.10645L15.31934 5.10645C15.08691 5.10645 14.88639 5.02669 14.71777 4.86719C14.54915 4.70768 14.46484 4.51628 14.46484 4.29297L14.46484 4.29297C14.46484 4.0651 14.54915 3.87256 14.71777 3.71533C14.88639 3.55811 15.08691 3.47949 15.31934 3.47949L15.31934 3.47949C15.55632 3.47949 15.75911 3.55811 15.92773 3.71533C16.09635 3.87256 16.18066 4.0651 16.18066 4.29297L16.18066 4.29297C16.18066 4.51628 16.09635 4.70768 15.92773 4.86719C15.75911 5.02669 15.55632 5.10645 15.31934 5.10645M19.31836 16.85742L18.08789 16.85742L18.08789 6.35742L19.27734 6.35742L19.27734 7.58105L19.41406 7.58105C19.50065 7.44434 19.62142 7.2723 19.77637 7.06494C19.93132 6.85758 20.15462 6.67188 20.44629 6.50781C20.73796 6.34375 21.13216 6.26172 21.62891 6.26172L21.62891 6.26172C22.26693 6.26172 22.82861 6.42122 23.31396 6.74023C23.79932 7.05924 24.17985 7.51383 24.45557 8.104C24.73128 8.69417 24.86914 9.39258 24.86914 10.19922L24.86914 10.19922C24.86914 11.01042 24.73242 11.71224 24.45898 12.30469C24.18555 12.89714 23.80615 13.35514 23.3208 13.67871C22.83545 14.00228 22.27376 14.16406 21.63574 14.16406L21.63574 14.16406C21.15267 14.16406 20.76302 14.08089 20.4668 13.91455C20.17057 13.74821 19.94271 13.55908 19.7832 13.34717C19.6237 13.13525 19.50065 12.95866 19.41406 12.81738L19.41406 12.81738L19.31836 12.81738L19.31836 16.85742M21.45117 13.06348L21.45117 13.06348C21.92969 13.06348 22.32959 12.93473 22.65088 12.67725C22.97217 12.41976 23.2137 12.0734 23.37549 11.63818C23.53727 11.20296 23.61816 10.71875 23.61816 10.18555L23.61816 10.18555C23.61816 9.6569 23.53841 9.17952 23.37891 8.75342C23.2194 8.32731 22.979 7.98893 22.65771 7.73828C22.33643 7.48763 21.93424 7.3623 21.45117 7.3623L21.45117 7.3623C20.98177 7.3623 20.58757 7.48079 20.26855 7.71777C19.94954 7.95475 19.70915 8.28402 19.54736 8.70557C19.38558 9.12712 19.30469 9.62044 19.30469 10.18555L19.30469 10.18555C19.30469 10.75065 19.38672 11.24967 19.55078 11.68262C19.71484 12.11556 19.95752 12.45394 20.27881 12.69775C20.6001 12.94157 20.99089 13.06348 21.45117 13.06348M27.89063 16.85742L26.66016 16.85742L26.66016 6.35742L27.84961 6.35742L27.84961 7.58105L27.98633 7.58105C28.07292 7.44434 28.19368 7.2723 28.34863 7.06494C28.50358 6.85758 28.72689 6.67188 29.01855 6.50781C29.31022 6.34375 29.70443 6.26172 30.20117 6.26172L30.20117 6.26172C30.83919 6.26172 31.40088 6.42122 31.88623 6.74023C32.37158 7.05924 32.75212 7.51383 33.02783 8.104C33.30355 8.69417 33.44141 9.39258 33.44141 10.19922L33.44141 10.19922C33.44141 11.01042 33.30469 11.71224 33.03125 12.30469C32.75781 12.89714 32.37842 13.35514 31.89307 13.67871C31.40771 14.00228 30.84603 14.16406 30.20801 14.16406L30.20801 14.16406C29.72493 14.16406 29.33529 14.08089 29.03906 13.91455C28.74284 13.74821 28.51497 13.55908 28.35547 13.34717C28.19596 13.13525 28.07292 12.95866 27.98633 12.81738L27.98633 12.81738L27.89063 12.81738L27.89063 16.85742M30.02344 13.06348L30.02344 13.06348C30.50195 13.06348 30.90186 12.93473 31.22314 12.67725C31.54443 12.41976 31.78597 12.0734 31.94775 11.63818C32.10954 11.20296 32.19043 10.71875 32.19043 10.18555L32.19043 10.18555C32.19043 9.6569 32.11068 9.17952 31.95117 8.75342C31.79167 8.32731 31.55127 7.98893 31.22998 7.73828C30.90869 7.48763 30.50651 7.3623 30.02344 7.3623L30.02344 7.3623C29.55404 7.3623 29.15983 7.48079 28.84082 7.71777C28.52181 7.95475 28.28141 8.28402 28.11963 8.70557C27.95785 9.12712 27.87695 9.62044 27.87695 10.18555L27.87695 10.18555C27.87695 10.75065 27.95898 11.24967 28.12305 11.68262C28.28711 12.11556 28.52979 12.45394 28.85107 12.69775C29.17236 12.94157 29.56315 13.06348 30.02344 13.06348M38.44531 14.16406L38.44531 14.16406C37.70703 14.16406 37.07015 14 36.53467 13.67188C35.99919 13.34375 35.58675 12.88574 35.29736 12.29785C35.00798 11.70996 34.86328 11.02409 34.86328 10.24023C34.86328 9.45638 35.00456 8.76595 35.28711 8.16895C35.56966 7.57194 35.96956 7.10482 36.48682 6.76758C37.00407 6.43034 37.60905 6.26172 38.30176 6.26172L38.30176 6.26172C38.70736 6.26172 39.10726 6.32894 39.50146 6.46338C39.89567 6.59782 40.25342 6.81429 40.57471 7.11279C40.896 7.4113 41.15234 7.80436 41.34375 8.29199C41.53516 8.77962 41.63086 9.37663 41.63086 10.08301L41.63086 10.08301L41.63086 10.5957L36.10742 10.5957C36.12565 11.08789 36.22363 11.51172 36.40137 11.86719L36.40137 11.86719C36.59733 12.26367 36.87191 12.56331 37.2251 12.76611C37.57829 12.96891 37.9873 13.07031 38.45215 13.07031L38.45215 13.07031C38.75293 13.07031 39.02637 13.02702 39.27246 12.94043C39.51855 12.85384 39.73047 12.72282 39.9082 12.54736C40.08594 12.37191 40.22266 12.1543 40.31836 11.89453L40.31836 11.89453L41.50781 12.22266C41.38932 12.60547 41.1888 12.94271 40.90625 13.23438C40.6237 13.52604 40.27393 13.75391 39.85693 13.91797C39.43994 14.08203 38.9694 14.16406 38.44531 14.16406M36.11426 9.55664L36.11426 9.55664L40.37988 9.55664C40.34798 9.21029 40.27507 8.89128 40.16113 8.59961L40.16113 8.59961C40.00163 8.21224 39.76693 7.90804 39.45703 7.68701C39.14714 7.46598 38.76204 7.35547 38.30176 7.35547C37.84147 7.35547 37.44727 7.46826 37.11914 7.69385C36.79102 7.91943 36.54036 8.21224 36.36719 8.57227L36.36719 8.57227C36.22135 8.88216 36.13704 9.21029 36.11426 9.55664M46.25879 14.16406L46.25879 14.16406C45.62533 14.16406 45.06478 14.00228 44.57715 13.67871C44.08952 13.35514 43.70898 12.89714 43.43555 12.30469C43.16211 11.71224 43.02539 11.01042 43.02539 10.19922L43.02539 10.19922C43.02539 9.39258 43.16325 8.69417 43.43896 8.104C43.71468 7.51383 44.09635 7.05924 44.58398 6.74023C45.07161 6.42122 45.63216 6.26172 46.26563 6.26172L46.26563 6.26172C46.76237 6.26172 47.15658 6.34375 47.44824 6.50781C47.73991 6.67188 47.96436 6.85758 48.12158 7.06494C48.27881 7.2723 48.39844 7.44434 48.48047 7.58105L48.48047 7.58105L48.57617 7.58105L48.57617 3.81445L49.80664 3.81445L49.80664 14L48.61719 14L48.61719 12.81738L48.48047 12.81738C48.39844 12.95866 48.27653 13.13525 48.11475 13.34717C47.95296 13.55908 47.7251 13.74821 47.43115 13.91455C47.13721 14.08089 46.74642 14.16406 46.25879 14.16406M46.44336 13.06348L46.44336 13.06348C46.9082 13.06348 47.30013 12.94157 47.61914 12.69775C47.93815 12.45394 48.17969 12.11556 48.34375 11.68262C48.50781 11.24967 48.58984 10.75065 48.58984 10.18555L48.58984 10.18555C48.58984 9.62044 48.50895 9.12712 48.34717 8.70557C48.18538 8.28402 47.94499 7.95475 47.62598 7.71777C47.30697 7.48079 46.91276 7.3623 46.44336 7.3623L46.44336 7.3623C45.96029 7.3623 45.55811 7.48763 45.23682 7.73828C44.91553 7.98893 44.67513 8.32731 44.51563 8.75342C44.35612 9.17952 44.27637 9.6569 44.27637 10.18555L44.27637 10.18555C44.27637 10.71875 44.35726 11.20296 44.51904 11.63818C44.68083 12.0734 44.9235 12.41976 45.24707 12.67725C45.57064 12.93473 45.9694 13.06348 46.44336 13.06348M57.33984 6.35742L58.91211 6.35742L58.91211 7.41016L57.33984 7.41016L57.33984 12.01758C57.33984 12.35938 57.40934 12.60889 57.54834 12.76611C57.68734 12.92334 57.91862 13.00195 58.24219 13.00195L58.24219 13.00195C58.31966 13.00195 58.41878 12.99284 58.53955 12.97461C58.66032 12.95638 58.77083 12.93815 58.87109 12.91992L58.87109 12.91992L59.12402 13.95898C58.99642 14.00456 58.85173 14.03874 58.68994 14.06152C58.52816 14.08431 58.36751 14.0957 58.20801 14.0957L58.20801 14.0957C57.5472 14.0957 57.03223 13.92139 56.66309 13.57275C56.29395 13.22412 56.10938 12.73763 56.10938 12.11328L56.10938 12.11328L56.10938 7.41016L54.96094 7.41016L54.96094 6.35742L56.10938 6.35742L56.10938 4.53906L57.33984 4.53906L57.33984 6.35742M63.69727 14.16406L63.69727 14.16406C62.95898 14.16406 62.3221 14 61.78662 13.67188C61.25114 13.34375 60.8387 12.88574 60.54932 12.29785C60.25993 11.70996 60.11523 11.02409 60.11523 10.24023C60.11523 9.45638 60.25651 8.76595 60.53906 8.16895C60.82161 7.57194 61.22152 7.10482 61.73877 6.76758C62.25602 6.43034 62.861 6.26172 63.55371 6.26172L63.55371 6.26172C63.95931 6.26172 64.35921 6.32894 64.75342 6.46338C65.14762 6.59782 65.50537 6.81429 65.82666 7.11279C66.14795 7.4113 66.4043 7.80436 66.5957 8.29199C66.78711 8.77962 66.88281 9.37663 66.88281 10.08301L66.88281 10.08301L66.88281 10.5957L61.35938 10.5957C61.3776 11.08789 61.47559 11.51172 61.65332 11.86719L61.65332 11.86719C61.84928 12.26367 62.12386 12.56331 62.47705 12.76611C62.83024 12.96891 63.23926 13.07031 63.7041 13.07031L63.7041 13.07031C64.00488 13.07031 64.27832 13.02702 64.52441 12.94043C64.77051 12.85384 64.98242 12.72282 65.16016 12.54736C65.33789 12.37191 65.47461 12.1543 65.57031 11.89453L65.57031 11.89453L66.75977 12.22266C66.64128 12.60547 66.44076 12.94271 66.1582 13.23438C65.87565 13.52604 65.52588 13.75391 65.10889 13.91797C64.69189 14.08203 64.22135 14.16406 63.69727 14.16406M61.36621 9.55664L61.36621 9.55664L65.63184 9.55664C65.59993 9.21029 65.52702 8.89128 65.41309 8.59961L65.41309 8.59961C65.25358 8.21224 65.01888 7.90804 64.70898 7.68701C64.39909 7.46598 64.014 7.35547 63.55371 7.35547C63.09342 7.35547 62.69922 7.46826 62.37109 7.69385C62.04297 7.91943 61.79232 8.21224 61.61914 8.57227L61.61914 8.57227C61.47331 8.88216 61.389 9.21029 61.36621 9.55664M69.43262 14L68.01074 14L70.69727 10.07617L68.16797 6.35742L69.60352 6.35742L70.55371 7.84082C70.7998 8.22363 71.014 8.58138 71.19629 8.91406L71.19629 8.91406C71.26921 9.05534 71.34668 9.19661 71.42871 9.33789L71.42871 9.33789C71.50163 9.19661 71.57454 9.05534 71.64746 8.91406L71.64746 8.91406C71.80697 8.58138 72.01204 8.22363 72.2627 7.84082L72.2627 7.84082L73.2334 6.35742L74.6416 6.35742L72.08496 10.14453L74.76465 14L73.33594 14L72.21484 12.28418C71.97331 11.91048 71.76595 11.56185 71.59277 11.23828L71.59277 11.23828C71.51986 11.11068 71.44694 10.98535 71.37402 10.8623L71.37402 10.8623C71.30566 10.98535 71.23958 11.11068 71.17578 11.23828L71.17578 11.23828C71.01628 11.56185 70.81348 11.91048 70.56738 12.28418L70.56738 12.28418L69.43262 14M77.72461 6.35742L79.29688 6.35742L79.29688 7.41016L77.72461 7.41016L77.72461 12.01758C77.72461 12.35938 77.79411 12.60889 77.93311 12.76611C78.0721 12.92334 78.30339 13.00195 78.62695 13.00195L78.62695 13.00195C78.70443 13.00195 78.80355 12.99284 78.92432 12.97461C79.04508 12.95638 79.1556 12.93815 79.25586 12.91992L79.25586 12.91992L79.50879 13.95898C79.38118 14.00456 79.23649 14.03874 79.07471 14.06152C78.91292 14.08431 78.75228 14.0957 78.59277 14.0957L78.59277 14.0957C77.93197 14.0957 77.41699 13.92139 77.04785 13.57275C76.67871 13.22412 76.49414 12.73763 76.49414 12.11328L76.49414 12.11328L76.49414 7.41016L75.3457 7.41016L75.3457 6.35742L76.49414 6.35742L76.49414 4.53906L77.72461 4.53906L77.72461 6.35742M87.91699 14.16406L87.91699 14.16406C87.22428 14.16406 86.61702 14 86.09521 13.67188C85.5734 13.34375 85.16667 12.88346 84.875 12.29102C84.58333 11.69857 84.4375 11.01042 84.4375 10.22656L84.4375 10.22656C84.4375 9.42904 84.58333 8.73291 84.875 8.13818C85.16667 7.54346 85.5734 7.08203 86.09521 6.75391C86.61702 6.42578 87.22428 6.26172 87.91699 6.26172L87.91699 6.26172C88.28613 6.26172 88.63477 6.30957 88.96289 6.40527C89.29102 6.50098 89.59066 6.63883 89.86182 6.81885C90.13298 6.99886 90.36654 7.21989 90.5625 7.48193C90.75846 7.74398 90.90885 8.04134 91.01367 8.37402L91.01367 8.37402L89.83105 8.70898C89.77637 8.51302 89.69206 8.33301 89.57813 8.16895C89.46419 8.00488 89.32633 7.86247 89.16455 7.7417C89.00277 7.62093 88.81706 7.52751 88.60742 7.46143C88.39779 7.39534 88.16764 7.3623 87.91699 7.3623L87.91699 7.3623C87.40658 7.3623 86.9873 7.49561 86.65918 7.76221C86.33105 8.02881 86.08724 8.37858 85.92773 8.81152C85.76823 9.24447 85.68848 9.71615 85.68848 10.22656L85.68848 10.22656C85.68848 10.72786 85.76823 11.19385 85.92773 11.62451C86.08724 12.05518 86.33105 12.40267 86.65918 12.66699C86.9873 12.93132 87.40658 13.06348 87.91699 13.06348L87.91699 13.06348C88.1722 13.06348 88.4069 13.0293 88.62109 12.96094C88.83529 12.89258 89.02555 12.79574 89.19189 12.67041C89.35824 12.54508 89.49837 12.39583 89.6123 12.22266C89.72624 12.04948 89.81055 11.86035 89.86523 11.65527L89.86523 11.65527L91.04102 11.99023C90.94076 12.33203 90.7915 12.63623 90.59326 12.90283C90.39502 13.16943 90.15918 13.3973 89.88574 13.58643C89.6123 13.77555 89.30924 13.91911 88.97656 14.01709C88.64388 14.11507 88.29069 14.16406 87.91699 14.16406M95.91504 14.16406L95.91504 14.16406C95.22233 14.16406 94.61507 14 94.09326 13.67188C93.57145 13.34375 93.16471 12.88346 92.87305 12.29102C92.58138 11.69857 92.43555 11.01042 92.43555 10.22656L92.43555 10.22656C92.43555 9.42904 92.58138 8.73291 92.87305 8.13818C93.16471 7.54346 93.57145 7.08203 94.09326 6.75391C94.61507 6.42578 95.22233 6.26172 95.91504 6.26172L95.91504 6.26172C96.6123 6.26172 97.22298 6.42578 97.74707 6.75391C98.27116 7.08203 98.67904 7.54346 98.9707 8.13818C99.26237 8.73291 99.4082 9.42904 99.4082 10.22656L99.4082 10.22656C99.4082 11.01042 99.26237 11.69857 98.9707 12.29102C98.67904 12.88346 98.27116 13.34375 97.74707 13.67188C97.22298 14 96.6123 14.16406 95.91504 14.16406M95.91504 13.06348L95.91504 13.06348C96.43001 13.06348 96.85384 12.93132 97.18652 12.66699C97.51921 12.40267 97.7653 12.05518 97.9248 11.62451C98.08431 11.19385 98.16406 10.72786 98.16406 10.22656L98.16406 10.22656C98.16406 9.7207 98.08431 9.25016 97.9248 8.81494C97.7653 8.37972 97.51921 8.02881 97.18652 7.76221C96.85384 7.49561 96.43001 7.3623 95.91504 7.3623L95.91504 7.3623C95.40462 7.3623 94.98535 7.49561 94.65723 7.76221C94.3291 8.02881 94.08529 8.37858 93.92578 8.81152C93.76628 9.24447 93.68652 9.71615 93.68652 10.22656L93.68652 10.22656C93.68652 10.72786 93.76628 11.19385 93.92578 11.62451C94.08529 12.05518 94.3291 12.40267 94.65723 12.66699C94.98535 12.93132 95.40462 13.06348 95.91504 13.06348M102.42969 9.41992L102.42969 9.41992L102.42969 14L101.19922 14L101.19922 6.35742L102.38184 6.35742L102.38867 7.77246C102.60286 7.29395 102.87858 6.93848 103.21582 6.70605L103.21582 6.70605C103.64421 6.40983 104.14779 6.26172 104.72656 6.26172L104.72656 6.26172C105.24154 6.26172 105.69271 6.36768 106.08008 6.57959C106.46745 6.7915 106.76937 7.11051 106.98584 7.53662C107.20231 7.96273 107.31055 8.49935 107.31055 9.14648L107.31055 9.14648L107.31055 14L106.08008 14L106.08008 9.24902C106.08008 8.66113 105.92627 8.20085 105.61865 7.86816C105.31104 7.53548 104.89063 7.36914 104.35742 7.36914L104.35742 7.36914C103.99284 7.36914 103.66471 7.44889 103.37305 7.6084C103.08138 7.7679 102.85124 8.00033 102.68262 8.30566C102.514 8.611 102.42969 8.98242 102.42969 9.41992M110.90625 6.35742L112.47852 6.35742L112.47852 7.41016L110.90625 7.41016L110.90625 12.01758C110.90625 12.35938 110.97575 12.60889 111.11475 12.76611C111.25374 12.92334 111.48503 13.00195 111.80859 13.00195L111.80859 13.00195C111.88607 13.00195 111.98519 12.99284 112.10596 12.97461C112.22673 12.95638 112.33724 12.93815 112.4375 12.91992L112.4375 12.91992L112.69043 13.95898C112.56283 14.00456 112.41813 14.03874 112.25635 14.06152C112.09456 14.08431 111.93392 14.0957 111.77441 14.0957L111.77441 14.0957C111.11361 14.0957 110.59863 13.92139 110.22949 13.57275C109.86035 13.22412 109.67578 12.73763 109.67578 12.11328L109.67578 12.11328L109.67578 7.41016L108.52734 7.41016L108.52734 6.35742L109.67578 6.35742L109.67578 4.53906L110.90625 4.53906L110.90625 6.35742M117.26367 14.16406L117.26367 14.16406C116.52539 14.16406 115.88851 14 115.35303 13.67188C114.81755 13.34375 114.40511 12.88574 114.11572 12.29785C113.82633 11.70996 113.68164 11.02409 113.68164 10.24023C113.68164 9.45638 113.82292 8.76595 114.10547 8.16895C114.38802 7.57194 114.78792 7.10482 115.30518 6.76758C115.82243 6.43034 116.42741 6.26172 117.12012 6.26172L117.12012 6.26172C117.52572 6.26172 117.92562 6.32894 118.31982 6.46338C118.71403 6.59782 119.07178 6.81429 119.39307 7.11279C119.71436 7.4113 119.9707 7.80436 120.16211 8.29199C120.35352 8.77962 120.44922 9.37663 120.44922 10.08301L120.44922 10.08301L120.44922 10.5957L114.92578 10.5957C114.94401 11.08789 115.04199 11.51172 115.21973 11.86719L115.21973 11.86719C115.41569 12.26367 115.69027 12.56331 116.04346 12.76611C116.39665 12.96891 116.80566 13.07031 117.27051 13.07031L117.27051 13.07031C117.57129 13.07031 117.84473 13.02702 118.09082 12.94043C118.33691 12.85384 118.54883 12.72282 118.72656 12.54736C118.9043 12.37191 119.04102 12.1543 119.13672 11.89453L119.13672 11.89453L120.32617 12.22266C120.20768 12.60547 120.00716 12.94271 119.72461 13.23438C119.44206 13.52604 119.09229 13.75391 118.67529 13.91797C118.2583 14.08203 117.78776 14.16406 117.26367 14.16406M114.93262 9.55664L114.93262 9.55664L119.19824 9.55664C119.16634 9.21029 119.09342 8.89128 118.97949 8.59961L118.97949 8.59961C118.81999 8.21224 118.58529 7.90804 118.27539 7.68701C117.96549 7.46598 117.5804 7.35547 117.12012 7.35547C116.65983 7.35547 116.26563 7.46826 115.9375 7.69385C115.60938 7.91943 115.35872 8.21224 115.18555 8.57227L115.18555 8.57227C115.03971 8.88216 114.9554 9.21029 114.93262 9.55664M123.44336 9.41992L123.44336 9.41992L123.44336 14L122.21289 14L122.21289 6.35742L123.39551 6.35742L123.40234 7.77246C123.61654 7.29395 123.89225 6.93848 124.22949 6.70605L124.22949 6.70605C124.65788 6.40983 125.16146 6.26172 125.74023 6.26172L125.74023 6.26172C126.25521 6.26172 126.70638 6.36768 127.09375 6.57959C127.48112 6.7915 127.78304 7.11051 127.99951 7.53662C128.21598 7.96273 128.32422 8.49935 128.32422 9.14648L128.32422 9.14648L128.32422 14L127.09375 14L127.09375 9.24902C127.09375 8.66113 126.93994 8.20085 126.63232 7.86816C126.32471 7.53548 125.9043 7.36914 125.37109 7.36914L125.37109 7.36914C125.00651 7.36914 124.67839 7.44889 124.38672 7.6084C124.09505 7.7679 123.86491 8.00033 123.69629 8.30566C123.52767 8.611 123.44336 8.98242 123.44336 9.41992M131.91992 6.35742L133.49219 6.35742L133.49219 7.41016L131.91992 7.41016L131.91992 12.01758C131.91992 12.35938 131.98942 12.60889 132.12842 12.76611C132.26742 12.92334 132.4987 13.00195 132.82227 13.00195L132.82227 13.00195C132.89974 13.00195 132.99886 12.99284 133.11963 12.97461C133.2404 12.95638 133.35091 12.93815 133.45117 12.91992L133.45117 12.91992L133.7041 13.95898C133.5765 14.00456 133.4318 14.03874 133.27002 14.06152C133.10824 14.08431 132.94759 14.0957 132.78809 14.0957L132.78809 14.0957C132.12728 14.0957 131.6123 13.92139 131.24316 13.57275C130.87402 13.22412 130.68945 12.73763 130.68945 12.11328L130.68945 12.11328L130.68945 7.41016L129.54102 7.41016L129.54102 6.35742L130.68945 6.35742L130.68945 4.53906L131.91992 4.53906L131.91992 6.35742M140.23242 9.41992L140.23242 9.41992L140.23242 14L139.00195 14L139.00195 3.81445L140.23242 3.81445L140.23242 7.67676C140.44206 7.24382 140.7041 6.92025 141.01855 6.70605L141.01855 6.70605C141.44694 6.40983 141.95052 6.26172 142.5293 6.26172L142.5293 6.26172C143.04427 6.26172 143.49658 6.36768 143.88623 6.57959C144.27588 6.7915 144.57894 7.11051 144.79541 7.53662C145.01188 7.96273 145.12012 8.49935 145.12012 9.14648L145.12012 9.14648L145.12012 14L143.88281 14L143.88281 9.24902C143.88281 8.66113 143.729 8.20085 143.42139 7.86816C143.11377 7.53548 142.69336 7.36914 142.16016 7.36914L142.16016 7.36914C141.79557 7.36914 141.46745 7.44889 141.17578 7.6084C140.88411 7.7679 140.65397 8.00033 140.48535 8.30566C140.31673 8.611 140.23242 8.98242 140.23242 9.41992M150.49316 14.16406L150.49316 14.16406C149.75488 14.16406 149.118 14 148.58252 13.67188C148.04704 13.34375 147.6346 12.88574 147.34521 12.29785C147.05583 11.70996 146.91113 11.02409 146.91113 10.24023C146.91113 9.45638 147.05241 8.76595 147.33496 8.16895C147.61751 7.57194 148.01742 7.10482 148.53467 6.76758C149.05192 6.43034 149.6569 6.26172 150.34961 6.26172L150.34961 6.26172C150.75521 6.26172 151.15511 6.32894 151.54932 6.46338C151.94352 6.59782 152.30127 6.81429 152.62256 7.11279C152.94385 7.4113 153.2002 7.80436 153.3916 8.29199C153.58301 8.77962 153.67871 9.37663 153.67871 10.08301L153.67871 10.08301L153.67871 10.5957L148.15527 10.5957C148.1735 11.08789 148.27148 11.51172 148.44922 11.86719L148.44922 11.86719C148.64518 12.26367 148.91976 12.56331 149.27295 12.76611C149.62614 12.96891 150.03516 13.07031 150.5 13.07031L150.5 13.07031C150.80078 13.07031 151.07422 13.02702 151.32031 12.94043C151.56641 12.85384 151.77832 12.72282 151.95605 12.54736C152.13379 12.37191 152.27051 12.1543 152.36621 11.89453L152.36621 11.89453L153.55566 12.22266C153.43717 12.60547 153.23665 12.94271 152.9541 13.23438C152.67155 13.52604 152.32178 13.75391 151.90479 13.91797C151.48779 14.08203 151.01725 14.16406 150.49316 14.16406M148.16211 9.55664L148.16211 9.55664L152.42773 9.55664C152.39583 9.21029 152.32292 8.89128 152.20898 8.59961L152.20898 8.59961C152.04948 8.21224 151.81478 7.90804 151.50488 7.68701C151.19499 7.46598 150.8099 7.35547 150.34961 7.35547C149.88932 7.35547 149.49512 7.46826 149.16699 7.69385C148.83887 7.91943 148.58822 8.21224 148.41504 8.57227L148.41504 8.57227C148.26921 8.88216 148.1849 9.21029 148.16211 9.55664M156.67285 14L155.44238 14L155.44238 6.35742L156.63184 6.35742L156.63184 7.5332L156.71387 7.5332C156.85514 7.14583 157.10693 6.8348 157.46924 6.6001C157.83154 6.3654 158.24056 6.24805 158.69629 6.24805L158.69629 6.24805C158.78743 6.24805 158.89567 6.25033 159.021 6.25488C159.14632 6.25944 159.24544 6.264 159.31836 6.26855L159.31836 6.26855L159.31836 7.50586C159.2819 7.49674 159.19076 7.48307 159.04492 7.46484C158.89909 7.44661 158.74414 7.4375 158.58008 7.4375L158.58008 7.4375C158.21549 7.4375 157.88851 7.51383 157.59912 7.6665C157.30973 7.81917 157.08301 8.02881 156.91895 8.29541C156.75488 8.56201 156.67285 8.86849 156.67285 9.21484L156.67285 9.21484L156.67285 14M163.92578 14.16406L163.92578 14.16406C163.1875 14.16406 162.55062 14 162.01514 13.67188C161.47965 13.34375 161.06722 12.88574 160.77783 12.29785C160.48844 11.70996 160.34375 11.02409 160.34375 10.24023C160.34375 9.45638 160.48503 8.76595 160.76758 8.16895C161.05013 7.57194 161.45003 7.10482 161.96729 6.76758C162.48454 6.43034 163.08952 6.26172 163.78223 6.26172L163.78223 6.26172C164.18783 6.26172 164.58773 6.32894 164.98193 6.46338C165.37614 6.59782 165.73389 6.81429 166.05518 7.11279C166.37646 7.4113 166.63281 7.80436 166.82422 8.29199C167.01563 8.77962 167.11133 9.37663 167.11133 10.08301L167.11133 10.08301L167.11133 10.5957L161.58789 10.5957C161.60612 11.08789 161.7041 11.51172 161.88184 11.86719L161.88184 11.86719C162.0778 12.26367 162.35238 12.56331 162.70557 12.76611C163.05876 12.96891 163.46777 13.07031 163.93262 13.07031L163.93262 13.07031C164.2334 13.07031 164.50684 13.02702 164.75293 12.94043C164.99902 12.85384 165.21094 12.72282 165.38867 12.54736C165.56641 12.37191 165.70313 12.1543 165.79883 11.89453L165.79883 11.89453L166.98828 12.22266C166.86979 12.60547 166.66927 12.94271 166.38672 13.23438C166.10417 13.52604 165.75439 13.75391 165.3374 13.91797C164.92041 14.08203 164.44987 14.16406 163.92578 14.16406M161.59473 9.55664L161.59473 9.55664L165.86035 9.55664C165.82845 9.21029 165.75553 8.89128 165.6416 8.59961L165.6416 8.59961C165.4821 8.21224 165.2474 7.90804 164.9375 7.68701C164.6276 7.46598 164.24251 7.35547 163.78223 7.35547C163.32194 7.35547 162.92773 7.46826 162.59961 7.69385C162.27148 7.91943 162.02083 8.21224 161.84766 8.57227L161.84766 8.57227C161.70182 8.88216 161.61751 9.21029 161.59473 9.55664" fill="#000000"/></g></g></g></g></g></svg>