<svg xmlns="http://www.w3.org/2000/svg" width="200" height="100" viewBox="0 0 200 100"><defs><clipPath id="clip-0"><path d="M 0.00 0.00 L 200.00 0.00 L 200.00 60.00 L 0.00 60.00 L 0.00 0.00" fill-rule="nonzero" fill="black"/></clipPath></defs><g><path d="M 0.00 0.00 L 200.00 0.00 L 200.00 60.00 L 0.00 60.00 L 0.00 0.00" fill-rule="nonzero" fill="#ffffff"/><g clip-path="url(#clip-0)"><g transform="matrix(1, 0, 0, 1, 10, 15)"><path d="M7.24609 14L1.23047 14L1.23047 3.81445L2.5293 3.81445L2.5293 12.85156L7.24609 12.85156L7.24609 14M12.20898 14.16406L12.20898 14.16406C11.4707 14.16406 10.83382 14 10.29834 13.67188C9.76286 13.34375 9.35042 12.88574 9.06104 12.29785C8.77165 11.70996 8.62695 11.02409 8.62695 10.24023C8.62695 9.45638 8.76823 8.76595 9.05078 8.16895C9.33333 7.57194 9.73324 7.10482 10.25049 6.76758C10.76774 6.43034 11.37272 6.26172 12.06543 6.26172L12.06543 6.26172C12.47103 6.26172 12.87093 6.32894 13.26514 6.46338C13.65934 6.59782 14.01709 6.81429 14.33838 7.11279C14.65967 7.4113 14.91602 7.80436 15.10742 8.29199C15.29883 8.77962 15.39453 9.37663 15.39453 10.08301L15.39453 10.08301L15.39453 10.5957L9.87109 10.5957C9.88932 11.08789 9.9873 11.51172 10.16504 11.86719L10.16504 11.86719C10.361 12.26367 10.63558 12.56331 10.98877 12.76611C11.34196 12.96891 11.75098 13.07031 12.21582 13.07031L12.21582 13.07031C12.5166 13.07031 12.79004 13.02702 13.03613 12.94043C13.28223 12.85384 13.49414 12.72282 13.67188 12.54736C13.84961 12.37191 13.98633 12.1543 14.08203 11.89453L14.08203 11.89453L15.27148 12.22266C15.15299 12.60547 14.95247 12.94271 14.66992 13.23438C14.38737 13.52604 14.0376 13.75391 13.62061 13.91797C13.20361 14.08203 12.73307 14.16406 12.20898 14.16406M9.87793 9.55664L9.87793 9.55664L14.14355 9.55664C14.11165 9.21029 14.03874 8.89128 13.9248 8.59961L13.9248 8.59961C13.7653 8.21224 13.5306 7.90804 13.2207 7.68701C12.91081 7.46598 12.52572 7.35547 12.06543 7.35547C11.60514 7.35547 11.21094 7.46826 10.88281 7.69385C10.55469 7.91943 10.30404 8.21224 10.13086 8.57227L10.13086 8.57227C9.98503 8.88216 9.90072 9.21029 9.87793 9.55664M18.94922 6.35742L20.71289 6.35742L20.71289 7.41016L18.94922 7.41016L18.94922 14L17.71875 14L17.71875 7.41016L16.21484 7.41016L16.21484 6.35742L17.71875 6.35742L17.71875 5.33887C17.71875 4.89681 17.82243 4.52767 18.02979 4.23145C18.23714 3.93522 18.50716 3.71191 18.83984 3.56152C19.17253 3.41113 19.52344 3.33594 19.89258 3.33594L19.89258 3.33594C20.18424 3.33594 20.42578 3.35986 20.61719 3.40771C20.80859 3.45557 20.94987 3.5 21.04102 3.54102L21.04102 3.54102L20.69922 4.59375C20.63542 4.57096 20.55225 4.5459 20.44971 4.51855C20.34717 4.49121 20.20931 4.47754 20.03613 4.47754L20.03613 4.47754C19.65788 4.47754 19.38216 4.57438 19.20898 4.76807C19.03581 4.96175 18.94922 5.24316 18.94922 5.6123L18.94922 5.6123L18.94922 6.35742M23.77539 6.35742L25.34766 6.35742L25.34766 7.41016L23.77539 7.41016L23.77539 12.01758C23.77539 12.35938 23.84489 12.60889 23.98389 12.76611C24.12288 12.92334 24.35417 13.00195 24.67773 13.00195L24.67773 13.00195C24.75521 13.00195 24.85433 12.99284 24.9751 12.97461C25.09587 12.95638 25.20638 12.93815 25.30664 12.91992L25.30664 12.91992L25.55957 13.95898C25.43197 14.00456 25.28727 14.03874 25.12549 14.06152C24.9637 14.08431 24.80306 14.0957 24.64355 14.0957L24.64355 14.0957C23.98275 14.0957 23.46777 13.92139 23.09863 13.57275C22.72949 13.22412 22.54492 12.73763 22.54492 12.11328L22.54492 12.11328L22.54492 7.41016L21.39648 7.41016L21.39648 6.35742L22.54492 6.35742L22.54492 4.53906L23.77539 4.53906L23.77539 6.35742M32.99707 14.17773L32.99707 14.17773C32.514 14.17773 32.07536 14.08659 31.68115 13.9043C31.28695 13.72201 30.97363 13.4554 30.74121 13.10449C30.50879 12.75358 30.39258 12.32747 30.39258 11.82617L30.39258 11.82617C30.39258 11.38867 30.47917 11.0332 30.65234 10.75977C30.82552 10.48633 31.0568 10.271 31.34619 10.11377C31.63558 9.95654 31.95573 9.83919 32.30664 9.76172C32.65755 9.68424 33.01074 9.62272 33.36621 9.57715L33.36621 9.57715C33.82194 9.5179 34.19336 9.47233 34.48047 9.44043C34.76758 9.40853 34.98063 9.35384 35.11963 9.27637C35.25863 9.19889 35.32813 9.06673 35.32813 8.87988L35.32813 8.87988L35.32813 8.83887C35.32813 8.51986 35.26888 8.24984 35.15039 8.02881C35.0319 7.80778 34.85417 7.63802 34.61719 7.51953C34.38021 7.40104 34.08398 7.3418 33.72852 7.3418L33.72852 7.3418C33.36393 7.3418 33.05176 7.39876 32.79199 7.5127C32.53223 7.62663 32.32145 7.76904 32.15967 7.93994C31.99788 8.11084 31.87598 8.28516 31.79395 8.46289L31.79395 8.46289L30.61133 8.07324C30.80729 7.6084 31.07161 7.24495 31.4043 6.98291C31.73698 6.72087 32.10384 6.53516 32.50488 6.42578C32.90592 6.31641 33.30241 6.26172 33.69434 6.26172L33.69434 6.26172C33.94954 6.26172 34.24007 6.29248 34.56592 6.354C34.89176 6.41553 35.20622 6.53744 35.50928 6.71973C35.81234 6.90202 36.06299 7.17204 36.26123 7.52979C36.45947 7.88753 36.55859 8.36491 36.55859 8.96191L36.55859 8.96191L36.55859 14L35.34863 14L35.34863 12.96094L35.2666 12.96094C35.18001 13.13867 35.04102 13.3221 34.84961 13.51123C34.6582 13.70036 34.40983 13.85872 34.10449 13.98633C33.79915 14.11393 33.43001 14.17773 32.99707 14.17773M33.20898 13.09082L33.20898 13.09082C33.66471 13.09082 34.0498 13.00195 34.36426 12.82422C34.67871 12.64648 34.91797 12.4152 35.08203 12.13037C35.24609 11.84554 35.32813 11.54818 35.32813 11.23828L35.32813 11.23828L35.32813 10.17871C35.27799 10.23796 35.16862 10.2915 35 10.33936C34.83138 10.38721 34.63883 10.42936 34.42236 10.46582C34.20589 10.50228 33.99626 10.53304 33.79346 10.55811C33.59066 10.58317 33.43001 10.60254 33.31152 10.61621L33.31152 10.61621C33.0153 10.65267 32.73844 10.71533 32.48096 10.8042C32.22347 10.89307 32.01725 11.02295 31.8623 11.19385C31.70736 11.36475 31.62988 11.59603 31.62988 11.8877L31.62988 11.8877C31.62988 12.15202 31.69824 12.37305 31.83496 12.55078C31.97168 12.72852 32.15853 12.86296 32.39551 12.9541C32.63249 13.04525 32.90365 13.09082 33.20898 13.09082M38.71875 3.81445L39.94922 3.81445L39.94922 14L38.71875 14L38.71875 3.81445M43.33984 14L42.10938 14L42.10938 6.35742L43.33984 6.35742L43.33984 14M42.73145 5.10645L42.73145 5.10645C42.49902 5.10645 42.2985 5.02669 42.12988 4.86719C41.96126 4.70768 41.87695 4.51628 41.87695 4.29297L41.87695 4.29297C41.87695 4.0651 41.96126 3.87256 42.12988 3.71533C42.2985 3.55811 42.49902 3.47949 42.73145 3.47949L42.73145 3.47949C42.96842 3.47949 43.17122 3.55811 43.33984 3.71533C43.50846 3.87256 43.59277 4.0651 43.59277 4.29297L43.59277 4.29297C43.59277 4.51628 43.50846 4.70768 43.33984 4.86719C43.17122 5.02669 42.96842 5.10645 42.73145 5.10645M48.59668 17.02148L48.59668 17.02148C48.03158 17.02148 47.54281 16.94971 47.13037 16.80615C46.71794 16.6626 46.375 16.47233 46.10156 16.23535C45.82813 15.99837 45.61165 15.74089 45.45215 15.46289L45.45215 15.46289L46.4502 14.82031C46.55957 14.96615 46.69515 15.12793 46.85693 15.30566C47.01872 15.4834 47.23747 15.63493 47.51318 15.76025C47.7889 15.88558 48.15007 15.94824 48.59668 15.94824L48.59668 15.94824C49.20736 15.94824 49.7098 15.80241 50.104 15.51074C50.49821 15.21908 50.69531 14.75879 50.69531 14.12988L50.69531 14.12988L50.69531 12.59863L50.5791 12.59863C50.49251 12.74447 50.37061 12.91764 50.21338 13.11816C50.05615 13.31868 49.83057 13.49528 49.53662 13.64795C49.24268 13.80062 48.84961 13.87695 48.35742 13.87695L48.35742 13.87695C47.74674 13.87695 47.19759 13.73226 46.70996 13.44287C46.22233 13.15348 45.83724 12.73079 45.55469 12.1748C45.27214 11.61882 45.13086 10.94206 45.13086 10.14453L45.13086 10.14453C45.13086 9.35612 45.26986 8.67139 45.54785 8.09033C45.82585 7.50928 46.2098 7.05924 46.69971 6.74023C47.18962 6.42122 47.7513 6.26172 48.38477 6.26172L48.38477 6.26172C48.87695 6.26172 49.27002 6.34261 49.56396 6.50439C49.85791 6.66618 50.08464 6.85189 50.24414 7.06152C50.40365 7.27116 50.52669 7.44434 50.61328 7.58105L50.61328 7.58105L50.72949 7.58105L50.72949 6.35742L51.92578 6.35742L51.92578 14.19824C51.92578 14.85449 51.77767 15.39111 51.48145 15.80811C51.18522 16.2251 50.78532 16.53158 50.28174 16.72754C49.77816 16.9235 49.21647 17.02148 48.59668 17.02148M48.5625 12.7832L48.5625 12.7832C49.02734 12.7832 49.41927 12.67725 49.73828 12.46533C50.05729 12.25342 50.29883 11.94808 50.46289 11.54932C50.62695 11.15055 50.70898 10.67318 50.70898 10.11719L50.70898 10.11719C50.70898 9.57487 50.62809 9.09749 50.46631 8.68506C50.30452 8.27262 50.06413 7.94906 49.74512 7.71436C49.42611 7.47966 49.0319 7.3623 48.5625 7.3623L48.5625 7.3623C48.07943 7.3623 47.67611 7.48649 47.35254 7.73486C47.02897 7.98324 46.7863 8.31478 46.62451 8.72949C46.46273 9.14421 46.38184 9.60677 46.38184 10.11719L46.38184 10.11719C46.38184 10.64128 46.46387 11.10384 46.62793 11.50488C46.79199 11.90592 47.03581 12.21924 47.35938 12.44482C47.68294 12.67041 48.08398 12.7832 48.5625 12.7832M55.31641 9.41992L55.31641 9.41992L55.31641 14L54.08594 14L54.08594 6.35742L55.26855 6.35742L55.27539 7.77246C55.48958 7.29395 55.7653 6.93848 56.10254 6.70605L56.10254 6.70605C56.53092 6.40983 57.03451 6.26172 57.61328 6.26172L57.61328 6.26172C58.12826 6.26172 58.57943 6.36768 58.9668 6.57959C59.35417 6.7915 59.65609 7.11051 59.87256 7.53662C60.08903 7.96273 60.19727 8.49935 60.19727 9.14648L60.19727 9.14648L60.19727 14L58.9668 14L58.9668 9.24902C58.9668 8.66113 58.81299 8.20085 58.50537 7.86816C58.19775 7.53548 57.77734 7.36914 57.24414 7.36914L57.24414 7.36914C56.87956 7.36914 56.55143 7.44889 56.25977 7.6084C55.9681 7.7679 55.73796 8.00033 55.56934 8.30566C55.40072 8.611 55.31641 8.98242 55.31641 9.41992M65.57031 14.16406L65.57031 14.16406C64.83203 14.16406 64.19515 14 63.65967 13.67188C63.12419 13.34375 62.71175 12.88574 62.42236 12.29785C62.13298 11.70996 61.98828 11.02409 61.98828 10.24023C61.98828 9.45638 62.12956 8.76595 62.41211 8.16895C62.69466 7.57194 63.09456 7.10482 63.61182 6.76758C64.12907 6.43034 64.73405 6.26172 65.42676 6.26172L65.42676 6.26172C65.83236 6.26172 66.23226 6.32894 66.62646 6.46338C67.02067 6.59782 67.37842 6.81429 67.69971 7.11279C68.021 7.4113 68.27734 7.80436 68.46875 8.29199C68.66016 8.77962 68.75586 9.37663 68.75586 10.08301L68.75586 10.08301L68.75586 10.5957L63.23242 10.5957C63.25065 11.08789 63.34863 11.51172 63.52637 11.86719L63.52637 11.86719C63.72233 12.26367 63.99691 12.56331 64.3501 12.76611C64.70329 12.96891 65.1123 13.07031 65.57715 13.07031L65.57715 13.07031C65.87793 13.07031 66.15137 13.02702 66.39746 12.94043C66.64355 12.85384 66.85547 12.72282 67.0332 12.54736C67.21094 12.37191 67.34766 12.1543 67.44336 11.89453L67.44336 11.89453L68.63281 12.22266C68.51432 12.60547 68.3138 12.94271 68.03125 13.23438C67.7487 13.52604 67.39893 13.75391 66.98193 13.91797C66.56494 14.08203 66.0944 14.16406 65.57031 14.16406M63.23926 9.55664L63.23926 9.55664L67.50488 9.55664C67.47298 9.21029 67.40007 8.89128 67.28613 8.59961L67.28613 8.59961C67.12663 8.21224 66.89193 7.90804 66.58203 7.68701C66.27214 7.46598 65.88704 7.35547 65.42676 7.35547C64.96647 7.35547 64.57227 7.46826 64.24414 7.69385C63.91602 7.91943 63.66536 8.21224 63.49219 8.57227L63.49219 8.57227C63.34635 8.88216 63.26204 9.21029 63.23926 9.55664M73.38379 14.16406L73.38379 14.16406C72.75033 14.16406 72.18978 14.00228 71.70215 13.67871C71.21452 13.35514 70.83398 12.89714 70.56055 12.30469C70.28711 11.71224 70.15039 11.01042 70.15039 10.19922L70.15039 10.19922C70.15039 9.39258 70.28825 8.69417 70.56396 8.104C70.83968 7.51383 71.22135 7.05924 71.70898 6.74023C72.19661 6.42122 72.75716 6.26172 73.39063 6.26172L73.39063 6.26172C73.88737 6.26172 74.28158 6.34375 74.57324 6.50781C74.86491 6.67188 75.08936 6.85758 75.24658 7.06494C75.40381 7.2723 75.52344 7.44434 75.60547 7.58105L75.60547 7.58105L75.70117 7.58105L75.70117 3.81445L76.93164 3.81445L76.93164 14L75.74219 14L75.74219 12.81738L75.60547 12.81738C75.52344 12.95866 75.40153 13.13525 75.23975 13.34717C75.07796 13.55908 74.8501 13.74821 74.55615 13.91455C74.26221 14.08089 73.87142 14.16406 73.38379 14.16406M73.56836 13.06348L73.56836 13.06348C74.0332 13.06348 74.42513 12.94157 74.74414 12.69775C75.06315 12.45394 75.30469 12.11556 75.46875 11.68262C75.63281 11.24967 75.71484 10.75065 75.71484 10.18555L75.71484 10.18555C75.71484 9.62044 75.63395 9.12712 75.47217 8.70557C75.31038 8.28402 75.06999 7.95475 74.75098 7.71777C74.43197 7.48079 74.03776 7.3623 73.56836 7.3623L73.56836 7.3623C73.08529 7.3623 72.68311 7.48763 72.36182 7.73828C72.04053 7.98893 71.80013 8.32731 71.64063 8.75342C71.48112 9.17952 71.40137 9.6569 71.40137 10.18555L71.40137 10.18555C71.40137 10.71875 71.48226 11.20296 71.64404 11.63818C71.80583 12.0734 72.0485 12.41976 72.37207 12.67725C72.69564 12.93473 73.0944 13.06348 73.56836 13.06348" fill="#000000"/></g></g></g></svg>