<svg xmlns="http://www.w3.org/2000/svg" width="200" height="100" viewBox="0 0 200 100"><g><defs><clipPath id="clip-0"><rect x="0" y="0" width="200" height="100"/></clipPath></defs><g clip-path="url(#clip-0)"><g transform="matrix(1,0,0,1,10,10)"><path d="M7.24609375 14L1.23046875 14L1.23046875 3.814453125L2.529296875 3.814453125L2.529296875 12.8515625L7.24609375 12.8515625L7.24609375 14M10.2265625 14L8.99609375 14L8.99609375 6.357421875L10.2265625 6.357421875L10.2265625 14M9.6181640625 5.1064453125L9.6181640625 5.1064453125C9.3857421875 5.1064453125 9.185221388936043 5.026692986488342 9.0166015625 4.8671875C8.847981736063957 4.707682013511658 8.763671875 4.516275763511658 8.763671875 4.29296875L8.763671875 4.29296875C8.763671875 4.065103888511658 8.847981736063957 3.87255859375 9.0166015625 3.71533203125C9.185221388936043 3.55810546875 9.3857421875 3.4794921875 9.6181640625 3.4794921875L9.6181640625 3.4794921875C9.855143159627914 3.4794921875 10.057942777872086 3.55810546875 10.2265625 3.71533203125C10.395182222127914 3.87255859375 10.4794921875 4.065103888511658 10.4794921875 4.29296875L10.4794921875 4.29296875C10.4794921875 4.516275763511658 10.395182222127914 4.707682013511658 10.2265625 4.8671875C10.057942777872086 5.026692986488342 9.855143159627914 5.1064453125 9.6181640625 5.1064453125M13.6171875 9.419921875L13.6171875 9.419921875L13.6171875 14L12.38671875 14L12.38671875 6.357421875L13.5693359375 6.357421875L13.576171875 7.7724609375C13.790364652872086 7.2939453125 14.066080659627914 6.9384765625 14.4033203125 6.7060546875L14.4033203125 6.7060546875C14.831705868244171 6.409830451011658 15.335286319255829 6.26171875 15.9140625 6.26171875L15.9140625 6.26171875C16.42903631925583 6.26171875 16.88020819425583 6.36767578125 17.267578125 6.57958984375C17.65494805574417 6.79150390625 17.95686835050583 7.110514461994171 18.17333984375 7.53662109375C18.389810919761658 7.962727725505829 18.498046875 8.499348819255829 18.498046875 9.146484375L18.498046875 9.146484375L18.498046875 14L17.267578125 14L17.267578125 9.2490234375C17.267578125 8.6611328125 17.11376953125 8.200846493244171 16.80615234375 7.8681640625C16.49853515625 7.535481631755829 16.078125 7.369140625 15.544921875 7.369140625L15.544921875 7.369140625C15.180338680744171 7.369140625 14.852213680744171 7.448893368244171 14.560546875 7.6083984375C14.268880277872086 7.767903506755829 14.038736909627914 8.000325381755829 13.8701171875 8.3056640625C13.701497465372086 8.611002743244171 13.6171875 8.982421875 13.6171875 9.419921875M23.87109375 14.1640625L23.87109375 14.1640625C23.1328125 14.1640625 22.495931059122086 14 21.96044921875 13.671875C21.424967378377914 13.34375 21.012532517313957 12.8857421875 20.72314453125 12.2978515625C20.43375649303198 11.7099609375 20.2890625 11.024088472127914 20.2890625 10.240234375C20.2890625 9.456380069255829 20.43033852428198 8.765950381755829 20.712890625 8.1689453125C20.995442673563957 7.571940243244171 21.395345121622086 7.104817569255829 21.91259765625 6.767578125C22.429850190877914 6.430338263511658 23.034830659627914 6.26171875 23.7275390625 6.26171875L23.7275390625 6.26171875C24.13313788175583 6.26171875 24.53304022550583 6.328939080238342 24.92724609375 6.46337890625C25.32145196199417 6.597818732261658 25.67919921875 6.814290642738342 26.00048828125 7.11279296875C26.32177734375 7.411295711994171 26.578125 7.804362118244171 26.76953125 8.2919921875C26.9609375 8.779622256755829 27.056640625 9.376627743244171 27.056640625 10.0830078125L27.056640625 10.0830078125L27.056640625 10.595703125L21.533203125 10.595703125C21.551432222127914 11.087890625 21.6494140625 11.51171875 21.8271484375 11.8671875L21.8271484375 11.8671875C22.023111909627914 12.263671875 22.297688871622086 12.563313767313957 22.65087890625 12.76611328125C23.004068940877914 12.968912795186043 23.4130859375 13.0703125 23.8779296875 13.0703125L23.8779296875 13.0703125C24.1787109375 13.0703125 24.4521484375 13.027018263936043 24.6982421875 12.9404296875C24.9443359375 12.853841111063957 25.15625 12.722819045186043 25.333984375 12.54736328125C25.51171875 12.371907517313957 25.6484375 12.154296875 25.744140625 11.89453125L25.744140625 11.89453125L26.93359375 12.22265625C26.815103888511658 12.60546875 26.614583611488342 12.942708298563957 26.33203125 13.234375C26.04947930574417 13.526041649281979 25.69970703125 13.75390625 25.28271484375 13.91796875C24.86572265625 14.08203125 24.39518243074417 14.1640625 23.87109375 14.1640625M21.5400390625 9.556640625L21.5400390625 9.556640625L25.8056640625 9.556640625C25.77376288175583 9.210286319255829 25.70084649324417 8.891276180744171 25.5869140625 8.599609375L25.5869140625 8.599609375C25.42740899324417 8.212239444255829 25.19270819425583 7.908040225505829 24.8828125 7.68701171875C24.57291680574417 7.465983211994171 24.18782538175583 7.35546875 23.7275390625 7.35546875C23.26725274324417 7.35546875 22.873046875 7.46826171875 22.544921875 7.69384765625C22.216796875 7.91943359375 21.966145902872086 8.212239444255829 21.79296875 8.572265625L21.79296875 8.572265625C21.647135347127914 8.882161319255829 21.562825590372086 9.210286319255829 21.5400390625 9.556640625M35.8681640625 14.1640625L35.8681640625 14.1640625C35.175455659627914 14.1640625 34.568196684122086 14 34.04638671875 13.671875C33.524576753377914 13.34375 33.11783857643604 12.883463576436043 32.826171875 12.291015625C32.53450522571802 11.698567777872086 32.388671875 11.010416597127914 32.388671875 10.2265625L32.388671875 10.2265625C32.388671875 9.429036319255829 32.53450522571802 8.73291015625 32.826171875 8.13818359375C33.11783857643604 7.54345703125 33.524576753377914 7.08203125 34.04638671875 6.75390625C34.568196684122086 6.42578125 35.175455659627914 6.26171875 35.8681640625 6.26171875L35.8681640625 6.26171875C36.5654296875 6.26171875 37.17610663175583 6.42578125 37.7001953125 6.75390625C38.22428399324417 7.08203125 38.63216131925583 7.54345703125 38.923828125 8.13818359375C39.21549451351166 8.73291015625 39.361328125 9.429036319255829 39.361328125 10.2265625L39.361328125 10.2265625C39.361328125 11.010416597127914 39.21549451351166 11.698567777872086 38.923828125 12.291015625C38.63216131925583 12.883463576436043 38.22428399324417 13.34375 37.7001953125 13.671875C37.17610663175583 14 36.5654296875 14.1640625 35.8681640625 14.1640625M35.8681640625 13.0634765625L35.8681640625 13.0634765625C36.38313788175583 13.0634765625 36.80696600675583 12.931315138936043 37.1396484375 12.6669921875C37.47233086824417 12.402669236063957 37.71842461824417 12.05517578125 37.8779296875 11.62451171875C38.03743475675583 11.19384765625 38.1171875 10.727864652872086 38.1171875 10.2265625L38.1171875 10.2265625C38.1171875 9.720703125 38.03743475675583 9.250162899494171 37.8779296875 8.81494140625C37.71842461824417 8.379719913005829 37.47233086824417 8.02880859375 37.1396484375 7.76220703125C36.80696600675583 7.49560546875 36.38313788175583 7.3623046875 35.8681640625 7.3623046875L35.8681640625 7.3623046875C35.35774725675583 7.3623046875 34.9384765625 7.49560546875 34.6103515625 7.76220703125C34.2822265625 8.02880859375 34.038411527872086 8.378580868244171 33.87890625 8.8115234375C33.719400972127914 9.244466006755829 33.6396484375 9.716145694255829 33.6396484375 10.2265625L33.6396484375 10.2265625C33.6396484375 10.727864652872086 33.719400972127914 11.19384765625 33.87890625 11.62451171875C34.038411527872086 12.05517578125 34.2822265625 12.402669236063957 34.6103515625 12.6669921875C34.9384765625 12.931315138936043 35.35774725675583 13.0634765625 35.8681640625 13.0634765625M42.3828125 9.419921875L42.3828125 9.419921875L42.3828125 14L41.15234375 14L41.15234375 6.357421875L42.3349609375 6.357421875L42.341796875 7.7724609375C42.555989652872086 7.2939453125 42.831705659627914 6.9384765625 43.1689453125 6.7060546875L43.1689453125 6.7060546875C43.59733086824417 6.409830451011658 44.10091131925583 6.26171875 44.6796875 6.26171875L44.6796875 6.26171875C45.19466131925583 6.26171875 45.64583319425583 6.36767578125 46.033203125 6.57958984375C46.42057305574417 6.79150390625 46.72249335050583 7.110514461994171 46.93896484375 7.53662109375C47.15543591976166 7.962727725505829 47.263671875 8.499348819255829 47.263671875 9.146484375L47.263671875 9.146484375L47.263671875 14L46.033203125 14L46.033203125 9.2490234375C46.033203125 8.6611328125 45.87939453125 8.200846493244171 45.57177734375 7.8681640625C45.26416015625 7.535481631755829 44.84375 7.369140625 44.310546875 7.369140625L44.310546875 7.369140625C43.94596368074417 7.369140625 43.61783868074417 7.448893368244171 43.326171875 7.6083984375C43.034505277872086 7.767903506755829 42.804361909627914 8.000325381755829 42.6357421875 8.3056640625C42.467122465372086 8.611002743244171 42.3828125 8.982421875 42.3828125 9.419921875M52.63671875 14.1640625L52.63671875 14.1640625C51.8984375 14.1640625 51.261556059122086 14 50.72607421875 13.671875C50.190592378377914 13.34375 49.77815751731396 12.8857421875 49.48876953125 12.2978515625C49.19938149303198 11.7099609375 49.0546875 11.024088472127914 49.0546875 10.240234375C49.0546875 9.456380069255829 49.19596352428198 8.765950381755829 49.478515625 8.1689453125C49.76106767356396 7.571940243244171 50.160970121622086 7.104817569255829 50.67822265625 6.767578125C51.195475190877914 6.430338263511658 51.800455659627914 6.26171875 52.4931640625 6.26171875L52.4931640625 6.26171875C52.89876288175583 6.26171875 53.29866522550583 6.328939080238342 53.69287109375 6.46337890625C54.08707696199417 6.597818732261658 54.44482421875 6.814290642738342 54.76611328125 7.11279296875C55.08740234375 7.411295711994171 55.34375 7.804362118244171 55.53515625 8.2919921875C55.7265625 8.779622256755829 55.822265625 9.376627743244171 55.822265625 10.0830078125L55.822265625 10.0830078125L55.822265625 10.595703125L50.298828125 10.595703125C50.317057222127914 11.087890625 50.4150390625 11.51171875 50.5927734375 11.8671875L50.5927734375 11.8671875C50.788736909627914 12.263671875 51.063313871622086 12.563313767313957 51.41650390625 12.76611328125C51.769693940877914 12.968912795186043 52.1787109375 13.0703125 52.6435546875 13.0703125L52.6435546875 13.0703125C52.9443359375 13.0703125 53.2177734375 13.027018263936043 53.4638671875 12.9404296875C53.7099609375 12.853841111063957 53.921875 12.722819045186043 54.099609375 12.54736328125C54.27734375 12.371907517313957 54.4140625 12.154296875 54.509765625 11.89453125L54.509765625 11.89453125L55.69921875 12.22265625C55.58072888851166 12.60546875 55.38020861148834 12.942708298563957 55.09765625 13.234375C54.81510430574417 13.526041649281979 54.46533203125 13.75390625 54.04833984375 13.91796875C53.63134765625 14.08203125 53.16080743074417 14.1640625 52.63671875 14.1640625M50.3056640625 9.556640625L50.3056640625 9.556640625L54.5712890625 9.556640625C54.53938788175583 9.210286319255829 54.46647149324417 8.891276180744171 54.3525390625 8.599609375L54.3525390625 8.599609375C54.19303399324417 8.212239444255829 53.95833319425583 7.908040225505829 53.6484375 7.68701171875C53.33854180574417 7.465983211994171 52.95345038175583 7.35546875 52.4931640625 7.35546875C52.03287774324417 7.35546875 51.638671875 7.46826171875 51.310546875 7.69384765625C50.982421875 7.91943359375 50.731770902872086 8.212239444255829 50.55859375 8.572265625L50.55859375 8.572265625C50.412760347127914 8.882161319255829 50.328450590372086 9.210286319255829 50.3056640625 9.556640625M7.24609375 31L1.23046875 31L1.23046875 20.814453125L2.529296875 20.814453125L2.529296875 29.8515625L7.24609375 29.8515625L7.24609375 31M10.2265625 31L8.99609375 31L8.99609375 23.357421875L10.2265625 23.357421875L10.2265625 31M9.6181640625 22.1064453125L9.6181640625 22.1064453125C9.3857421875 22.1064453125 9.185221388936043 22.026692986488342 9.0166015625 21.8671875C8.847981736063957 21.707682013511658 8.763671875 21.516275763511658 8.763671875 21.29296875L8.763671875 21.29296875C8.763671875 21.065103888511658 8.847981736063957 20.87255859375 9.0166015625 20.71533203125C9.185221388936043 20.55810546875 9.3857421875 20.4794921875 9.6181640625 20.4794921875L9.6181640625 20.4794921875C9.855143159627914 20.4794921875 10.057942777872086 20.55810546875 10.2265625 20.71533203125C10.395182222127914 20.87255859375 10.4794921875 21.065103888511658 10.4794921875 21.29296875L10.4794921875 21.29296875C10.4794921875 21.516275763511658 10.395182222127914 21.707682013511658 10.2265625 21.8671875C10.057942777872086 22.026692986488342 9.855143159627914 22.1064453125 9.6181640625 22.1064453125M13.6171875 26.419921875L13.6171875 26.419921875L13.6171875 31L12.38671875 31L12.38671875 23.357421875L13.5693359375 23.357421875L13.576171875 24.7724609375C13.790364652872086 24.2939453125 14.066080659627914 23.9384765625 14.4033203125 23.7060546875L14.4033203125 23.7060546875C14.831705868244171 23.409830451011658 15.335286319255829 23.26171875 15.9140625 23.26171875L15.9140625 23.26171875C16.42903631925583 23.26171875 16.88020819425583 23.36767578125 17.267578125 23.57958984375C17.65494805574417 23.79150390625 17.95686835050583 24.11051446199417 18.17333984375 24.53662109375C18.389810919761658 24.96272772550583 18.498046875 25.49934881925583 18.498046875 26.146484375L18.498046875 26.146484375L18.498046875 31L17.267578125 31L17.267578125 26.2490234375C17.267578125 25.6611328125 17.11376953125 25.20084649324417 16.80615234375 24.8681640625C16.49853515625 24.53548163175583 16.078125 24.369140625 15.544921875 24.369140625L15.544921875 24.369140625C15.180338680744171 24.369140625 14.852213680744171 24.44889336824417 14.560546875 24.6083984375C14.268880277872086 24.76790350675583 14.038736909627914 25.00032538175583 13.8701171875 25.3056640625C13.701497465372086 25.61100274324417 13.6171875 25.982421875 13.6171875 26.419921875M23.87109375 31.1640625L23.87109375 31.1640625C23.1328125 31.1640625 22.495931059122086 31 21.96044921875 30.671875C21.424967378377914 30.34375 21.012532517313957 29.8857421875 20.72314453125 29.2978515625C20.43375649303198 28.7099609375 20.2890625 28.024088472127914 20.2890625 27.240234375C20.2890625 26.45638006925583 20.43033852428198 25.76595038175583 20.712890625 25.1689453125C20.995442673563957 24.57194024324417 21.395345121622086 24.10481756925583 21.91259765625 23.767578125C22.429850190877914 23.430338263511658 23.034830659627914 23.26171875 23.7275390625 23.26171875L23.7275390625 23.26171875C24.13313788175583 23.26171875 24.53304022550583 23.328939080238342 24.92724609375 23.46337890625C25.32145196199417 23.597818732261658 25.67919921875 23.814290642738342 26.00048828125 24.11279296875C26.32177734375 24.41129571199417 26.578125 24.80436211824417 26.76953125 25.2919921875C26.9609375 25.77962225675583 27.056640625 26.37662774324417 27.056640625 27.0830078125L27.056640625 27.0830078125L27.056640625 27.595703125L21.533203125 27.595703125C21.551432222127914 28.087890625 21.6494140625 28.51171875 21.8271484375 28.8671875L21.8271484375 28.8671875C22.023111909627914 29.263671875 22.297688871622086 29.563313767313957 22.65087890625 29.76611328125C23.004068940877914 29.968912795186043 23.4130859375 30.0703125 23.8779296875 30.0703125L23.8779296875 30.0703125C24.1787109375 30.0703125 24.4521484375 30.027018263936043 24.6982421875 29.9404296875C24.9443359375 29.853841111063957 25.15625 29.722819045186043 25.333984375 29.54736328125C25.51171875 29.371907517313957 25.6484375 29.154296875 25.744140625 28.89453125L25.744140625 28.89453125L26.93359375 29.22265625C26.815103888511658 29.60546875 26.614583611488342 29.942708298563957 26.33203125 30.234375C26.04947930574417 30.52604164928198 25.69970703125 30.75390625 25.28271484375 30.91796875C24.86572265625 31.08203125 24.39518243074417 31.1640625 23.87109375 31.1640625M21.5400390625 26.556640625L21.5400390625 26.556640625L25.8056640625 26.556640625C25.77376288175583 26.21028631925583 25.70084649324417 25.89127618074417 25.5869140625 25.599609375L25.5869140625 25.599609375C25.42740899324417 25.21223944425583 25.19270819425583 24.90804022550583 24.8828125 24.68701171875C24.57291680574417 24.46598321199417 24.18782538175583 24.35546875 23.7275390625 24.35546875C23.26725274324417 24.35546875 22.873046875 24.46826171875 22.544921875 24.69384765625C22.216796875 24.91943359375 21.966145902872086 25.21223944425583 21.79296875 25.572265625L21.79296875 25.572265625C21.647135347127914 25.88216131925583 21.562825590372086 26.21028631925583 21.5400390625 26.556640625M34.193359375 23.357421875L35.765625 23.357421875L35.765625 24.41015625L34.193359375 24.41015625L34.193359375 29.017578125C34.193359375 29.359375 34.262858003377914 29.60888671875 34.40185546875 29.76611328125C34.540852934122086 29.92333984375 34.772135347127914 30.001953125 35.095703125 30.001953125L35.095703125 30.001953125C35.173177152872086 30.001953125 35.27229803800583 29.992838576436043 35.39306640625 29.974609375C35.51383477449417 29.956380173563957 35.62434881925583 29.938151076436043 35.724609375 29.919921875L35.724609375 29.919921875L35.9775390625 30.958984375C35.84993475675583 31.004557291802485 35.70524102449417 31.038736978080124 35.54345703125 31.0615234375C35.38167303800583 31.084309893660247 35.22102850675583 31.095703125 35.0615234375 31.095703125L35.0615234375 31.095703125C34.400716215372086 31.095703125 33.8857421875 30.92138671875 33.5166015625 30.57275390625C33.1474609375 30.22412109375 32.962890625 29.737630173563957 32.962890625 29.11328125L32.962890625 29.11328125L32.962890625 24.41015625L31.814453125 24.41015625L31.814453125 23.357421875L32.962890625 23.357421875L32.962890625 21.5390625L34.193359375 21.5390625L34.193359375 23.357421875M40.27734375 31L39.0537109375 31L36.736328125 23.357421875L38.0419921875 23.357421875L38.9716796875 26.693359375C39.099283784627914 27.14908868074417 39.236002534627914 27.6640625 39.3818359375 28.23828125L39.3818359375 28.23828125C39.4912109375 28.67578125 39.6005859375 29.154296875 39.7099609375 29.673828125L39.7099609375 29.673828125C39.81022149324417 29.177083402872086 39.91276055574417 28.714518159627914 40.017578125 28.2861328125L40.017578125 28.2861328125C40.15885430574417 27.707356840372086 40.29557305574417 27.17643243074417 40.427734375 26.693359375L40.427734375 26.693359375L41.34375 23.357421875L42.65625 23.357421875L43.55859375 26.693359375C43.68619763851166 27.16276055574417 43.82063829898834 27.6845703125 43.9619140625 28.2587890625L43.9619140625 28.2587890625C44.06217420101166 28.691731840372086 44.16471326351166 29.158854097127914 44.26953125 29.66015625L44.26953125 29.66015625C44.37434923648834 29.163411527872086 44.4814453125 28.700846284627914 44.5908203125 28.2724609375L44.5908203125 28.2724609375C44.73209607601166 27.6982421875 44.86881482601166 27.171875 45.0009765625 26.693359375L45.0009765625 26.693359375L45.9306640625 23.357421875L47.236328125 23.357421875L44.9189453125 31L43.6953125 31L42.7041015625 27.541015625C42.60384100675583 27.19010430574417 42.505859375 26.83235663175583 42.41015625 26.4677734375C42.314453125 26.10319024324417 42.22102850675583 25.7294921875 42.1298828125 25.3466796875L42.1298828125 25.3466796875C42.08430975675583 25.15071600675583 42.03645819425583 24.95247381925583 41.986328125 24.751953125L41.986328125 24.751953125C41.94075506925583 24.94791680574417 41.89518243074417 25.14388006925583 41.849609375 25.33984375L41.849609375 25.33984375C41.75390625 25.72721368074417 41.658203125 26.10546875 41.5625 26.474609375C41.466796875 26.84375 41.36881524324417 27.19921875 41.2685546875 27.541015625L41.2685546875 27.541015625L40.27734375 31M51.9052734375 31.1640625L51.9052734375 31.1640625C51.212565034627914 31.1640625 50.605306059122086 31 50.08349609375 30.671875C49.561686128377914 30.34375 49.15494795143604 29.883463576436043 48.86328125 29.291015625C48.57161460071802 28.698567777872086 48.42578125 28.010416597127914 48.42578125 27.2265625L48.42578125 27.2265625C48.42578125 26.42903631925583 48.57161460071802 25.73291015625 48.86328125 25.13818359375C49.15494795143604 24.54345703125 49.561686128377914 24.08203125 50.08349609375 23.75390625C50.605306059122086 23.42578125 51.212565034627914 23.26171875 51.9052734375 23.26171875L51.9052734375 23.26171875C52.6025390625 23.26171875 53.21321600675583 23.42578125 53.7373046875 23.75390625C54.26139336824417 24.08203125 54.66927069425583 24.54345703125 54.9609375 25.13818359375C55.25260388851166 25.73291015625 55.3984375 26.42903631925583 55.3984375 27.2265625L55.3984375 27.2265625C55.3984375 28.010416597127914 55.25260388851166 28.698567777872086 54.9609375 29.291015625C54.66927069425583 29.883463576436043 54.26139336824417 30.34375 53.7373046875 30.671875C53.21321600675583 31 52.6025390625 31.1640625 51.9052734375 31.1640625M51.9052734375 30.0634765625L51.9052734375 30.0634765625C52.42024725675583 30.0634765625 52.84407538175583 29.931315138936043 53.1767578125 29.6669921875C53.50944024324417 29.402669236063957 53.75553399324417 29.05517578125 53.9150390625 28.62451171875C54.07454413175583 28.19384765625 54.154296875 27.727864652872086 54.154296875 27.2265625L54.154296875 27.2265625C54.154296875 26.720703125 54.07454413175583 26.25016289949417 53.9150390625 25.81494140625C53.75553399324417 25.37971991300583 53.50944024324417 25.02880859375 53.1767578125 24.76220703125C52.84407538175583 24.49560546875 52.42024725675583 24.3623046875 51.9052734375 24.3623046875L51.9052734375 24.3623046875C51.39485663175583 24.3623046875 50.9755859375 24.49560546875 50.6474609375 24.76220703125C50.3193359375 25.02880859375 50.075520902872086 25.37858086824417 49.916015625 25.8115234375C49.756510347127914 26.24446600675583 49.6767578125 26.71614569425583 49.6767578125 27.2265625L49.6767578125 27.2265625C49.6767578125 27.727864652872086 49.756510347127914 28.19384765625 49.916015625 28.62451171875C50.075520902872086 29.05517578125 50.3193359375 29.402669236063957 50.6474609375 29.6669921875C50.9755859375 29.931315138936043 51.39485663175583 30.0634765625 51.9052734375 30.0634765625M7.24609375 47L1.23046875 47L1.23046875 36.814453125L2.529296875 36.814453125L2.529296875 45.8515625L7.24609375 45.8515625L7.24609375 47M10.2265625 47L8.99609375 47L8.99609375 39.357421875L10.2265625 39.357421875L10.2265625 47M9.6181640625 38.1064453125L9.6181640625 38.1064453125C9.3857421875 38.1064453125 9.185221388936043 38.02669298648834 9.0166015625 37.8671875C8.847981736063957 37.70768201351166 8.763671875 37.51627576351166 8.763671875 37.29296875L8.763671875 37.29296875C8.763671875 37.06510388851166 8.847981736063957 36.87255859375 9.0166015625 36.71533203125C9.185221388936043 36.55810546875 9.3857421875 36.4794921875 9.6181640625 36.4794921875L9.6181640625 36.4794921875C9.855143159627914 36.4794921875 10.057942777872086 36.55810546875 10.2265625 36.71533203125C10.395182222127914 36.87255859375 10.4794921875 37.06510388851166 10.4794921875 37.29296875L10.4794921875 37.29296875C10.4794921875 37.51627576351166 10.395182222127914 37.70768201351166 10.2265625 37.8671875C10.057942777872086 38.02669298648834 9.855143159627914 38.1064453125 9.6181640625 38.1064453125M13.6171875 42.419921875L13.6171875 42.419921875L13.6171875 47L12.38671875 47L12.38671875 39.357421875L13.5693359375 39.357421875L13.576171875 40.7724609375C13.790364652872086 40.2939453125 14.066080659627914 39.9384765625 14.4033203125 39.7060546875L14.4033203125 39.7060546875C14.831705868244171 39.40983045101166 15.335286319255829 39.26171875 15.9140625 39.26171875L15.9140625 39.26171875C16.42903631925583 39.26171875 16.88020819425583 39.36767578125 17.267578125 39.57958984375C17.65494805574417 39.79150390625 17.95686835050583 40.11051446199417 18.17333984375 40.53662109375C18.389810919761658 40.96272772550583 18.498046875 41.49934881925583 18.498046875 42.146484375L18.498046875 42.146484375L18.498046875 47L17.267578125 47L17.267578125 42.2490234375C17.267578125 41.6611328125 17.11376953125 41.20084649324417 16.80615234375 40.8681640625C16.49853515625 40.53548163175583 16.078125 40.369140625 15.544921875 40.369140625L15.544921875 40.369140625C15.180338680744171 40.369140625 14.852213680744171 40.44889336824417 14.560546875 40.6083984375C14.268880277872086 40.76790350675583 14.038736909627914 41.00032538175583 13.8701171875 41.3056640625C13.701497465372086 41.61100274324417 13.6171875 41.982421875 13.6171875 42.419921875M23.87109375 47.1640625L23.87109375 47.1640625C23.1328125 47.1640625 22.495931059122086 47 21.96044921875 46.671875C21.424967378377914 46.34375 21.012532517313957 45.8857421875 20.72314453125 45.2978515625C20.43375649303198 44.7099609375 20.2890625 44.024088472127914 20.2890625 43.240234375C20.2890625 42.45638006925583 20.43033852428198 41.76595038175583 20.712890625 41.1689453125C20.995442673563957 40.57194024324417 21.395345121622086 40.10481756925583 21.91259765625 39.767578125C22.429850190877914 39.43033826351166 23.034830659627914 39.26171875 23.7275390625 39.26171875L23.7275390625 39.26171875C24.13313788175583 39.26171875 24.53304022550583 39.32893908023834 24.92724609375 39.46337890625C25.32145196199417 39.59781873226166 25.67919921875 39.81429064273834 26.00048828125 40.11279296875C26.32177734375 40.41129571199417 26.578125 40.80436211824417 26.76953125 41.2919921875C26.9609375 41.77962225675583 27.056640625 42.37662774324417 27.056640625 43.0830078125L27.056640625 43.0830078125L27.056640625 43.595703125L21.533203125 43.595703125C21.551432222127914 44.087890625 21.6494140625 44.51171875 21.8271484375 44.8671875L21.8271484375 44.8671875C22.023111909627914 45.263671875 22.297688871622086 45.56331376731396 22.65087890625 45.76611328125C23.004068940877914 45.96891279518604 23.4130859375 46.0703125 23.8779296875 46.0703125L23.8779296875 46.0703125C24.1787109375 46.0703125 24.4521484375 46.02701826393604 24.6982421875 45.9404296875C24.9443359375 45.85384111106396 25.15625 45.72281904518604 25.333984375 45.54736328125C25.51171875 45.37190751731396 25.6484375 45.154296875 25.744140625 44.89453125L25.744140625 44.89453125L26.93359375 45.22265625C26.815103888511658 45.60546875 26.614583611488342 45.94270829856396 26.33203125 46.234375C26.04947930574417 46.52604164928198 25.69970703125 46.75390625 25.28271484375 46.91796875C24.86572265625 47.08203125 24.39518243074417 47.1640625 23.87109375 47.1640625M21.5400390625 42.556640625L21.5400390625 42.556640625L25.8056640625 42.556640625C25.77376288175583 42.21028631925583 25.70084649324417 41.89127618074417 25.5869140625 41.599609375L25.5869140625 41.599609375C25.42740899324417 41.21223944425583 25.19270819425583 40.90804022550583 24.8828125 40.68701171875C24.57291680574417 40.46598321199417 24.18782538175583 40.35546875 23.7275390625 40.35546875C23.26725274324417 40.35546875 22.873046875 40.46826171875 22.544921875 40.69384765625C22.216796875 40.91943359375 21.966145902872086 41.21223944425583 21.79296875 41.572265625L21.79296875 41.572265625C21.647135347127914 41.88216131925583 21.562825590372086 42.21028631925583 21.5400390625 42.556640625M34.193359375 39.357421875L35.765625 39.357421875L35.765625 40.41015625L34.193359375 40.41015625L34.193359375 45.017578125C34.193359375 45.359375 34.262858003377914 45.60888671875 34.40185546875 45.76611328125C34.540852934122086 45.92333984375 34.772135347127914 46.001953125 35.095703125 46.001953125L35.095703125 46.001953125C35.173177152872086 46.001953125 35.27229803800583 45.99283857643604 35.39306640625 45.974609375C35.51383477449417 45.95638017356396 35.62434881925583 45.93815107643604 35.724609375 45.919921875L35.724609375 45.919921875L35.9775390625 46.958984375C35.84993475675583 47.004557291802485 35.70524102449417 47.038736978080124 35.54345703125 47.0615234375C35.38167303800583 47.08430989366025 35.22102850675583 47.095703125 35.0615234375 47.095703125L35.0615234375 47.095703125C34.400716215372086 47.095703125 33.8857421875 46.92138671875 33.5166015625 46.57275390625C33.1474609375 46.22412109375 32.962890625 45.73763017356396 32.962890625 45.11328125L32.962890625 45.11328125L32.962890625 40.41015625L31.814453125 40.41015625L31.814453125 39.357421875L32.962890625 39.357421875L32.962890625 37.5390625L34.193359375 37.5390625L34.193359375 39.357421875M38.568359375 42.419921875L38.568359375 42.419921875L38.568359375 47L37.337890625 47L37.337890625 36.814453125L38.568359375 36.814453125L38.568359375 40.6767578125C38.777994722127914 40.24381524324417 39.0400390625 39.92024767398834 39.3544921875 39.7060546875L39.3544921875 39.7060546875C39.78287774324417 39.40983045101166 40.28645819425583 39.26171875 40.865234375 39.26171875L40.865234375 39.26171875C41.38020819425583 39.26171875 41.83251953125 39.36767578125 42.22216796875 39.57958984375C42.61181640625 39.79150390625 42.91487616300583 40.11051446199417 43.13134765625 40.53662109375C43.34781873226166 40.96272772550583 43.4560546875 41.49934881925583 43.4560546875 42.146484375L43.4560546875 42.146484375L43.4560546875 47L42.21875 47L42.21875 42.2490234375C42.21875 41.6611328125 42.06494140625 41.20084649324417 41.75732421875 40.8681640625C41.44970703125 40.53548163175583 41.029296875 40.369140625 40.49609375 40.369140625L40.49609375 40.369140625C40.13151055574417 40.369140625 39.80338555574417 40.44889336824417 39.51171875 40.6083984375C39.220052152872086 40.76790350675583 38.989908784627914 41.00032538175583 38.8212890625 41.3056640625C38.652669340372086 41.61100274324417 38.568359375 41.982421875 38.568359375 42.419921875M46.8466796875 47L45.6162109375 47L45.6162109375 39.357421875L46.8056640625 39.357421875L46.8056640625 40.533203125L46.8876953125 40.533203125C47.028971284627914 40.14583319425583 47.28076171875 39.83479845523834 47.64306640625 39.60009765625C48.00537109375 39.36539685726166 48.41438788175583 39.248046875 48.8701171875 39.248046875L48.8701171875 39.248046875C48.96126288175583 39.248046875 49.06949883699417 39.25032579898834 49.19482421875 39.2548828125C49.32014960050583 39.25943982601166 49.41927069425583 39.26399767398834 49.4921875 39.2685546875L49.4921875 39.2685546875L49.4921875 40.505859375C49.45572930574417 40.49674493074417 49.36458319425583 40.48307305574417 49.21875 40.46484375C49.07291680574417 40.44661444425583 48.91796875 40.4375 48.75390625 40.4375L48.75390625 40.4375C48.38932305574417 40.4375 48.06233710050583 40.51383477449417 47.77294921875 40.66650390625C47.483561128377914 40.81917303800583 47.2568359375 41.02880859375 47.0927734375 41.29541015625C46.9287109375 41.56201171875 46.8466796875 41.86848944425583 46.8466796875 42.21484375L46.8466796875 42.21484375L46.8466796875 47M54.099609375 47.1640625L54.099609375 47.1640625C53.361328125 47.1640625 52.724446684122086 47 52.18896484375 46.671875C51.653483003377914 46.34375 51.24104814231396 45.8857421875 50.95166015625 45.2978515625C50.66227211803198 44.7099609375 50.517578125 44.024088472127914 50.517578125 43.240234375C50.517578125 42.45638006925583 50.65885414928198 41.76595038175583 50.94140625 41.1689453125C51.22395829856396 40.57194024324417 51.623860746622086 40.10481756925583 52.14111328125 39.767578125C52.658365815877914 39.43033826351166 53.263346284627914 39.26171875 53.9560546875 39.26171875L53.9560546875 39.26171875C54.36165350675583 39.26171875 54.76155585050583 39.32893908023834 55.15576171875 39.46337890625C55.54996758699417 39.59781873226166 55.90771484375 39.81429064273834 56.22900390625 40.11279296875C56.55029296875 40.41129571199417 56.806640625 40.80436211824417 56.998046875 41.2919921875C57.189453125 41.77962225675583 57.28515625 42.37662774324417 57.28515625 43.0830078125L57.28515625 43.0830078125L57.28515625 43.595703125L51.76171875 43.595703125C51.779947847127914 44.087890625 51.8779296875 44.51171875 52.0556640625 44.8671875L52.0556640625 44.8671875C52.251627534627914 45.263671875 52.526204496622086 45.56331376731396 52.87939453125 45.76611328125C53.232584565877914 45.96891279518604 53.6416015625 46.0703125 54.1064453125 46.0703125L54.1064453125 46.0703125C54.4072265625 46.0703125 54.6806640625 46.02701826393604 54.9267578125 45.9404296875C55.1728515625 45.85384111106396 55.384765625 45.72281904518604 55.5625 45.54736328125C55.740234375 45.37190751731396 55.876953125 45.154296875 55.97265625 44.89453125L55.97265625 44.89453125L57.162109375 45.22265625C57.04361951351166 45.60546875 56.84309923648834 45.94270829856396 56.560546875 46.234375C56.27799493074417 46.52604164928198 55.92822265625 46.75390625 55.51123046875 46.91796875C55.09423828125 47.08203125 54.62369805574417 47.1640625 54.099609375 47.1640625M51.7685546875 42.556640625L51.7685546875 42.556640625L56.0341796875 42.556640625C56.00227850675583 42.21028631925583 55.92936211824417 41.89127618074417 55.8154296875 41.599609375L55.8154296875 41.599609375C55.65592461824417 41.21223944425583 55.42122381925583 40.90804022550583 55.111328125 40.68701171875C54.80143243074417 40.46598321199417 54.41634100675583 40.35546875 53.9560546875 40.35546875C53.49576836824417 40.35546875 53.1015625 40.46826171875 52.7734375 40.69384765625C52.4453125 40.91943359375 52.194661527872086 41.21223944425583 52.021484375 41.572265625L52.021484375 41.572265625C51.875650972127914 41.88216131925583 51.791341215372086 42.21028631925583 51.7685546875 42.556640625M62.26171875 47.1640625L62.26171875 47.1640625C61.5234375 47.1640625 60.886556059122086 47 60.35107421875 46.671875C59.815592378377914 46.34375 59.40315751731396 45.8857421875 59.11376953125 45.2978515625C58.82438149303198 44.7099609375 58.6796875 44.024088472127914 58.6796875 43.240234375C58.6796875 42.45638006925583 58.82096352428198 41.76595038175583 59.103515625 41.1689453125C59.38606767356396 40.57194024324417 59.785970121622086 40.10481756925583 60.30322265625 39.767578125C60.820475190877914 39.43033826351166 61.425455659627914 39.26171875 62.1181640625 39.26171875L62.1181640625 39.26171875C62.52376288175583 39.26171875 62.92366522550583 39.32893908023834 63.31787109375 39.46337890625C63.71207696199417 39.59781873226166 64.06982421875 39.81429064273834 64.39111328125 40.11279296875C64.71240234375 40.41129571199417 64.96875 40.80436211824417 65.16015625 41.2919921875C65.3515625 41.77962225675583 65.447265625 42.37662774324417 65.447265625 43.0830078125L65.447265625 43.0830078125L65.447265625 43.595703125L59.923828125 43.595703125C59.942057222127914 44.087890625 60.0400390625 44.51171875 60.2177734375 44.8671875L60.2177734375 44.8671875C60.413736909627914 45.263671875 60.688313871622086 45.56331376731396 61.04150390625 45.76611328125C61.394693940877914 45.96891279518604 61.8037109375 46.0703125 62.2685546875 46.0703125L62.2685546875 46.0703125C62.5693359375 46.0703125 62.8427734375 46.02701826393604 63.0888671875 45.9404296875C63.3349609375 45.85384111106396 63.546875 45.72281904518604 63.724609375 45.54736328125C63.90234375 45.37190751731396 64.0390625 45.154296875 64.134765625 44.89453125L64.134765625 44.89453125L65.32421875 45.22265625C65.20572888851166 45.60546875 65.00520861148834 45.94270829856396 64.72265625 46.234375C64.44010430574417 46.52604164928198 64.09033203125 46.75390625 63.67333984375 46.91796875C63.25634765625 47.08203125 62.78580743074417 47.1640625 62.26171875 47.1640625M59.9306640625 42.556640625L59.9306640625 42.556640625L64.1962890625 42.556640625C64.16438788175583 42.21028631925583 64.09147149324417 41.89127618074417 63.9775390625 41.599609375L63.9775390625 41.599609375C63.81803399324417 41.21223944425583 63.58333319425583 40.90804022550583 63.2734375 40.68701171875C62.96354180574417 40.46598321199417 62.57845038175583 40.35546875 62.1181640625 40.35546875C61.65787774324417 40.35546875 61.263671875 40.46826171875 60.935546875 40.69384765625C60.607421875 40.91943359375 60.356770902872086 41.21223944425583 60.18359375 41.572265625L60.18359375 41.572265625C60.037760347127914 41.88216131925583 59.953450590372086 42.21028631925583 59.9306640625 42.556640625" fill="#000000"/></g></g></g></svg>