<svg xmlns="http://www.w3.org/2000/svg" width="200" height="100" viewBox="0 0 200 100"><defs><clipPath id="clip-0"><path d="M 0.00 0.00 L 200.00 0.00 L 200.00 100.00 L 0.00 100.00 L 0.00 0.00" fill-rule="nonzero" fill="black"/></clipPath></defs><g><path d="M 0.00 0.00 L 200.00 0.00 L 200.00 100.00 L 0.00 100.00 L 0.00 0.00" fill-rule="nonzero" fill="#ffffff"/><g clip-path="url(#clip-0)"><g transform="matrix(1, 0, 0, 1, 10, 10)"><path d="M7.24609 14L1.23047 14L1.23047 3.81445L2.5293 3.81445L2.5293 12.85156L7.24609 12.85156L7.24609 14M10.22656 14L8.99609 14L8.99609 6.35742L10.22656 6.35742L10.22656 14M9.61816 5.10645L9.61816 5.10645C9.38574 5.10645 9.18522 5.02669 9.0166 4.86719C8.84798 4.70768 8.76367 4.51628 8.76367 4.29297L8.76367 4.29297C8.76367 4.0651 8.84798 3.87256 9.0166 3.71533C9.18522 3.55811 9.38574 3.47949 9.61816 3.47949L9.61816 3.47949C9.85514 3.47949 10.05794 3.55811 10.22656 3.71533C10.39518 3.87256 10.47949 4.0651 10.47949 4.29297L10.47949 4.29297C10.47949 4.51628 10.39518 4.70768 10.22656 4.86719C10.05794 5.02669 9.85514 5.10645 9.61816 5.10645M13.61719 9.41992L13.61719 9.41992L13.61719 14L12.38672 14L12.38672 6.35742L13.56934 6.35742L13.57617 7.77246C13.79036 7.29395 14.06608 6.93848 14.40332 6.70605L14.40332 6.70605C14.83171 6.40983 15.33529 6.26172 15.91406 6.26172L15.91406 6.26172C16.42904 6.26172 16.88021 6.36768 17.26758 6.57959C17.65495 6.7915 17.95687 7.11051 18.17334 7.53662C18.38981 7.96273 18.49805 8.49935 18.49805 9.14648L18.49805 9.14648L18.49805 14L17.26758 14L17.26758 9.24902C17.26758 8.66113 17.11377 8.20085 16.80615 7.86816C16.49854 7.53548 16.07813 7.36914 15.54492 7.36914L15.54492 7.36914C15.18034 7.36914 14.85221 7.44889 14.56055 7.6084C14.26888 7.7679 14.03874 8.00033 13.87012 8.30566C13.7015 8.611 13.61719 8.98242 13.61719 9.41992M23.87109 14.16406L23.87109 14.16406C23.13281 14.16406 22.49593 14 21.96045 13.67188C21.42497 13.34375 21.01253 12.88574 20.72314 12.29785C20.43376 11.70996 20.28906 11.02409 20.28906 10.24023C20.28906 9.45638 20.43034 8.76595 20.71289 8.16895C20.99544 7.57194 21.39535 7.10482 21.9126 6.76758C22.42985 6.43034 23.03483 6.26172 23.72754 6.26172L23.72754 6.26172C24.13314 6.26172 24.53304 6.32894 24.92725 6.46338C25.32145 6.59782 25.6792 6.81429 26.00049 7.11279C26.32178 7.4113 26.57813 7.80436 26.76953 8.29199C26.96094 8.77962 27.05664 9.37663 27.05664 10.08301L27.05664 10.08301L27.05664 10.5957L21.5332 10.5957C21.55143 11.08789 21.64941 11.51172 21.82715 11.86719L21.82715 11.86719C22.02311 12.26367 22.29769 12.56331 22.65088 12.76611C23.00407 12.96891 23.41309 13.07031 23.87793 13.07031L23.87793 13.07031C24.17871 13.07031 24.45215 13.02702 24.69824 12.94043C24.94434 12.85384 25.15625 12.72282 25.33398 12.54736C25.51172 12.37191 25.64844 12.1543 25.74414 11.89453L25.74414 11.89453L26.93359 12.22266C26.8151 12.60547 26.61458 12.94271 26.33203 13.23438C26.04948 13.52604 25.69971 13.75391 25.28271 13.91797C24.86572 14.08203 24.39518 14.16406 23.87109 14.16406M21.54004 9.55664L21.54004 9.55664L25.80566 9.55664C25.77376 9.21029 25.70085 8.89128 25.58691 8.59961L25.58691 8.59961C25.42741 8.21224 25.19271 7.90804 24.88281 7.68701C24.57292 7.46598 24.18783 7.35547 23.72754 7.35547C23.26725 7.35547 22.87305 7.46826 22.54492 7.69385C22.2168 7.91943 21.96615 8.21224 21.79297 8.57227L21.79297 8.57227C21.64714 8.88216 21.56283 9.21029 21.54004 9.55664M35.86816 14.16406L35.86816 14.16406C35.17546 14.16406 34.5682 14 34.04639 13.67188C33.52458 13.34375 33.11784 12.88346 32.82617 12.29102C32.53451 11.69857 32.38867 11.01042 32.38867 10.22656L32.38867 10.22656C32.38867 9.42904 32.53451 8.73291 32.82617 8.13818C33.11784 7.54346 33.52458 7.08203 34.04639 6.75391C34.5682 6.42578 35.17546 6.26172 35.86816 6.26172L35.86816 6.26172C36.56543 6.26172 37.17611 6.42578 37.7002 6.75391C38.22428 7.08203 38.63216 7.54346 38.92383 8.13818C39.21549 8.73291 39.36133 9.42904 39.36133 10.22656L39.36133 10.22656C39.36133 11.01042 39.21549 11.69857 38.92383 12.29102C38.63216 12.88346 38.22428 13.34375 37.7002 13.67188C37.17611 14 36.56543 14.16406 35.86816 14.16406M35.86816 13.06348L35.86816 13.06348C36.38314 13.06348 36.80697 12.93132 37.13965 12.66699C37.47233 12.40267 37.71842 12.05518 37.87793 11.62451C38.03743 11.19385 38.11719 10.72786 38.11719 10.22656L38.11719 10.22656C38.11719 9.7207 38.03743 9.25016 37.87793 8.81494C37.71842 8.37972 37.47233 8.02881 37.13965 7.76221C36.80697 7.49561 36.38314 7.3623 35.86816 7.3623L35.86816 7.3623C35.35775 7.3623 34.93848 7.49561 34.61035 7.76221C34.28223 8.02881 34.03841 8.37858 33.87891 8.81152C33.7194 9.24447 33.63965 9.71615 33.63965 10.22656L33.63965 10.22656C33.63965 10.72786 33.7194 11.19385 33.87891 11.62451C34.03841 12.05518 34.28223 12.40267 34.61035 12.66699C34.93848 12.93132 35.35775 13.06348 35.86816 13.06348M42.38281 9.41992L42.38281 9.41992L42.38281 14L41.15234 14L41.15234 6.35742L42.33496 6.35742L42.3418 7.77246C42.55599 7.29395 42.83171 6.93848 43.16895 6.70605L43.16895 6.70605C43.59733 6.40983 44.10091 6.26172 44.67969 6.26172L44.67969 6.26172C45.19466 6.26172 45.64583 6.36768 46.0332 6.57959C46.42057 6.7915 46.72249 7.11051 46.93896 7.53662C47.15544 7.96273 47.26367 8.49935 47.26367 9.14648L47.26367 9.14648L47.26367 14L46.0332 14L46.0332 9.24902C46.0332 8.66113 45.87939 8.20085 45.57178 7.86816C45.26416 7.53548 44.84375 7.36914 44.31055 7.36914L44.31055 7.36914C43.94596 7.36914 43.61784 7.44889 43.32617 7.6084C43.03451 7.7679 42.80436 8.00033 42.63574 8.30566C42.46712 8.611 42.38281 8.98242 42.38281 9.41992M52.63672 14.16406L52.63672 14.16406C51.89844 14.16406 51.26156 14 50.72607 13.67188C50.19059 13.34375 49.77816 12.88574 49.48877 12.29785C49.19938 11.70996 49.05469 11.02409 49.05469 10.24023C49.05469 9.45638 49.19596 8.76595 49.47852 8.16895C49.76107 7.57194 50.16097 7.10482 50.67822 6.76758C51.19548 6.43034 51.80046 6.26172 52.49316 6.26172L52.49316 6.26172C52.89876 6.26172 53.29867 6.32894 53.69287 6.46338C54.08708 6.59782 54.44482 6.81429 54.76611 7.11279C55.0874 7.4113 55.34375 7.80436 55.53516 8.29199C55.72656 8.77962 55.82227 9.37663 55.82227 10.08301L55.82227 10.08301L55.82227 10.5957L50.29883 10.5957C50.31706 11.08789 50.41504 11.51172 50.59277 11.86719L50.59277 11.86719C50.78874 12.26367 51.06331 12.56331 51.4165 12.76611C51.76969 12.96891 52.17871 13.07031 52.64355 13.07031L52.64355 13.07031C52.94434 13.07031 53.21777 13.02702 53.46387 12.94043C53.70996 12.85384 53.92188 12.72282 54.09961 12.54736C54.27734 12.37191 54.41406 12.1543 54.50977 11.89453L54.50977 11.89453L55.69922 12.22266C55.58073 12.60547 55.38021 12.94271 55.09766 13.23438C54.8151 13.52604 54.46533 13.75391 54.04834 13.91797C53.63135 14.08203 53.16081 14.16406 52.63672 14.16406M50.30566 9.55664L50.30566 9.55664L54.57129 9.55664C54.53939 9.21029 54.46647 8.89128 54.35254 8.59961L54.35254 8.59961C54.19303 8.21224 53.95833 7.90804 53.64844 7.68701C53.33854 7.46598 52.95345 7.35547 52.49316 7.35547C52.03288 7.35547 51.63867 7.46826 51.31055 7.69385C50.98242 7.91943 50.73177 8.21224 50.55859 8.57227L50.55859 8.57227C50.41276 8.88216 50.32845 9.21029 50.30566 9.55664M7.24609 31L1.23047 31L1.23047 20.81445L2.5293 20.81445L2.5293 29.85156L7.24609 29.85156L7.24609 31M10.22656 31L8.99609 31L8.99609 23.35742L10.22656 23.35742L10.22656 31M9.61816 22.10645L9.61816 22.10645C9.38574 22.10645 9.18522 22.02669 9.0166 21.86719C8.84798 21.70768 8.76367 21.51628 8.76367 21.29297L8.76367 21.29297C8.76367 21.0651 8.84798 20.87256 9.0166 20.71533C9.18522 20.55811 9.38574 20.47949 9.61816 20.47949L9.61816 20.47949C9.85514 20.47949 10.05794 20.55811 10.22656 20.71533C10.39518 20.87256 10.47949 21.0651 10.47949 21.29297L10.47949 21.29297C10.47949 21.51628 10.39518 21.70768 10.22656 21.86719C10.05794 22.02669 9.85514 22.10645 9.61816 22.10645M13.61719 26.41992L13.61719 26.41992L13.61719 31L12.38672 31L12.38672 23.35742L13.56934 23.35742L13.57617 24.77246C13.79036 24.29395 14.06608 23.93848 14.40332 23.70605L14.40332 23.70605C14.83171 23.40983 15.33529 23.26172 15.91406 23.26172L15.91406 23.26172C16.42904 23.26172 16.88021 23.36768 17.26758 23.57959C17.65495 23.7915 17.95687 24.11051 18.17334 24.53662C18.38981 24.96273 18.49805 25.49935 18.49805 26.14648L18.49805 26.14648L18.49805 31L17.26758 31L17.26758 26.24902C17.26758 25.66113 17.11377 25.20085 16.80615 24.86816C16.49854 24.53548 16.07813 24.36914 15.54492 24.36914L15.54492 24.36914C15.18034 24.36914 14.85221 24.44889 14.56055 24.6084C14.26888 24.7679 14.03874 25.00033 13.87012 25.30566C13.7015 25.611 13.61719 25.98242 13.61719 26.41992M23.87109 31.16406L23.87109 31.16406C23.13281 31.16406 22.49593 31 21.96045 30.67188C21.42497 30.34375 21.01253 29.88574 20.72314 29.29785C20.43376 28.70996 20.28906 28.02409 20.28906 27.24023C20.28906 26.45638 20.43034 25.76595 20.71289 25.16895C20.99544 24.57194 21.39535 24.10482 21.9126 23.76758C22.42985 23.43034 23.03483 23.26172 23.72754 23.26172L23.72754 23.26172C24.13314 23.26172 24.53304 23.32894 24.92725 23.46338C25.32145 23.59782 25.6792 23.81429 26.00049 24.11279C26.32178 24.4113 26.57813 24.80436 26.76953 25.29199C26.96094 25.77962 27.05664 26.37663 27.05664 27.08301L27.05664 27.08301L27.05664 27.5957L21.5332 27.5957C21.55143 28.08789 21.64941 28.51172 21.82715 28.86719L21.82715 28.86719C22.02311 29.26367 22.29769 29.56331 22.65088 29.76611C23.00407 29.96891 23.41309 30.07031 23.87793 30.07031L23.87793 30.07031C24.17871 30.07031 24.45215 30.02702 24.69824 29.94043C24.94434 29.85384 25.15625 29.72282 25.33398 29.54736C25.51172 29.37191 25.64844 29.1543 25.74414 28.89453L25.74414 28.89453L26.93359 29.22266C26.8151 29.60547 26.61458 29.94271 26.33203 30.23438C26.04948 30.52604 25.69971 30.75391 25.28271 30.91797C24.86572 31.08203 24.39518 31.16406 23.87109 31.16406M21.54004 26.55664L21.54004 26.55664L25.80566 26.55664C25.77376 26.21029 25.70085 25.89128 25.58691 25.59961L25.58691 25.59961C25.42741 25.21224 25.19271 24.90804 24.88281 24.68701C24.57292 24.46598 24.18783 24.35547 23.72754 24.35547C23.26725 24.35547 22.87305 24.46826 22.54492 24.69385C22.2168 24.91943 21.96615 25.21224 21.79297 25.57227L21.79297 25.57227C21.64714 25.88216 21.56283 26.21029 21.54004 26.55664M34.19336 23.35742L35.76563 23.35742L35.76563 24.41016L34.19336 24.41016L34.19336 29.01758C34.19336 29.35938 34.26286 29.60889 34.40186 29.76611C34.54085 29.92334 34.77214 30.00195 35.0957 30.00195L35.0957 30.00195C35.17318 30.00195 35.2723 29.99284 35.39307 29.97461C35.51383 29.95638 35.62435 29.93815 35.72461 29.91992L35.72461 29.91992L35.97754 30.95898C35.84993 31.00456 35.70524 31.03874 35.54346 31.06152C35.38167 31.08431 35.22103 31.0957 35.06152 31.0957L35.06152 31.0957C34.40072 31.0957 33.88574 30.92139 33.5166 30.57275C33.14746 30.22412 32.96289 29.73763 32.96289 29.11328L32.96289 29.11328L32.96289 24.41016L31.81445 24.41016L31.81445 23.35742L32.96289 23.35742L32.96289 21.53906L34.19336 21.53906L34.19336 23.35742M40.27734 31L39.05371 31L36.73633 23.35742L38.04199 23.35742L38.97168 26.69336C39.09928 27.14909 39.236 27.66406 39.38184 28.23828L39.38184 28.23828C39.49121 28.67578 39.60059 29.1543 39.70996 29.67383L39.70996 29.67383C39.81022 29.17708 39.91276 28.71452 40.01758 28.28613L40.01758 28.28613C40.15885 27.70736 40.29557 27.17643 40.42773 26.69336L40.42773 26.69336L41.34375 23.35742L42.65625 23.35742L43.55859 26.69336C43.6862 27.16276 43.82064 27.68457 43.96191 28.25879L43.96191 28.25879C44.06217 28.69173 44.16471 29.15885 44.26953 29.66016L44.26953 29.66016C44.37435 29.16341 44.48145 28.70085 44.59082 28.27246L44.59082 28.27246C44.7321 27.69824 44.86881 27.17188 45.00098 26.69336L45.00098 26.69336L45.93066 23.35742L47.23633 23.35742L44.91895 31L43.69531 31L42.7041 27.54102C42.60384 27.1901 42.50586 26.83236 42.41016 26.46777C42.31445 26.10319 42.22103 25.72949 42.12988 25.34668L42.12988 25.34668C42.08431 25.15072 42.03646 24.95247 41.98633 24.75195L41.98633 24.75195C41.94076 24.94792 41.89518 25.14388 41.84961 25.33984L41.84961 25.33984C41.75391 25.72721 41.6582 26.10547 41.5625 26.47461C41.4668 26.84375 41.36882 27.19922 41.26855 27.54102L41.26855 27.54102L40.27734 31M51.90527 31.16406L51.90527 31.16406C51.21257 31.16406 50.60531 31 50.0835 30.67188C49.56169 30.34375 49.15495 29.88346 48.86328 29.29102C48.57161 28.69857 48.42578 28.01042 48.42578 27.22656L48.42578 27.22656C48.42578 26.42904 48.57161 25.73291 48.86328 25.13818C49.15495 24.54346 49.56169 24.08203 50.0835 23.75391C50.60531 23.42578 51.21257 23.26172 51.90527 23.26172L51.90527 23.26172C52.60254 23.26172 53.21322 23.42578 53.7373 23.75391C54.26139 24.08203 54.66927 24.54346 54.96094 25.13818C55.2526 25.73291 55.39844 26.42904 55.39844 27.22656L55.39844 27.22656C55.39844 28.01042 55.2526 28.69857 54.96094 29.29102C54.66927 29.88346 54.26139 30.34375 53.7373 30.67188C53.21322 31 52.60254 31.16406 51.90527 31.16406M51.90527 30.06348L51.90527 30.06348C52.42025 30.06348 52.84408 29.93132 53.17676 29.66699C53.50944 29.40267 53.75553 29.05518 53.91504 28.62451C54.07454 28.19385 54.1543 27.72786 54.1543 27.22656L54.1543 27.22656C54.1543 26.7207 54.07454 26.25016 53.91504 25.81494C53.75553 25.37972 53.50944 25.02881 53.17676 24.76221C52.84408 24.49561 52.42025 24.3623 51.90527 24.3623L51.90527 24.3623C51.39486 24.3623 50.97559 24.49561 50.64746 24.76221C50.31934 25.02881 50.07552 25.37858 49.91602 25.81152C49.75651 26.24447 49.67676 26.71615 49.67676 27.22656L49.67676 27.22656C49.67676 27.72786 49.75651 28.19385 49.91602 28.62451C50.07552 29.05518 50.31934 29.40267 50.64746 29.66699C50.97559 29.93132 51.39486 30.06348 51.90527 30.06348M7.24609 47L1.23047 47L1.23047 36.81445L2.5293 36.81445L2.5293 45.85156L7.24609 45.85156L7.24609 47M10.22656 47L8.99609 47L8.99609 39.35742L10.22656 39.35742L10.22656 47M9.61816 38.10645L9.61816 38.10645C9.38574 38.10645 9.18522 38.02669 9.0166 37.86719C8.84798 37.70768 8.76367 37.51628 8.76367 37.29297L8.76367 37.29297C8.76367 37.0651 8.84798 36.87256 9.0166 36.71533C9.18522 36.55811 9.38574 36.47949 9.61816 36.47949L9.61816 36.47949C9.85514 36.47949 10.05794 36.55811 10.22656 36.71533C10.39518 36.87256 10.47949 37.0651 10.47949 37.29297L10.47949 37.29297C10.47949 37.51628 10.39518 37.70768 10.22656 37.86719C10.05794 38.02669 9.85514 38.10645 9.61816 38.10645M13.61719 42.41992L13.61719 42.41992L13.61719 47L12.38672 47L12.38672 39.35742L13.56934 39.35742L13.57617 40.77246C13.79036 40.29395 14.06608 39.93848 14.40332 39.70605L14.40332 39.70605C14.83171 39.40983 15.33529 39.26172 15.91406 39.26172L15.91406 39.26172C16.42904 39.26172 16.88021 39.36768 17.26758 39.57959C17.65495 39.7915 17.95687 40.11051 18.17334 40.53662C18.38981 40.96273 18.49805 41.49935 18.49805 42.14648L18.49805 42.14648L18.49805 47L17.26758 47L17.26758 42.24902C17.26758 41.66113 17.11377 41.20085 16.80615 40.86816C16.49854 40.53548 16.07813 40.36914 15.54492 40.36914L15.54492 40.36914C15.18034 40.36914 14.85221 40.44889 14.56055 40.6084C14.26888 40.7679 14.03874 41.00033 13.87012 41.30566C13.7015 41.611 13.61719 41.98242 13.61719 42.41992M23.87109 47.16406L23.87109 47.16406C23.13281 47.16406 22.49593 47 21.96045 46.67188C21.42497 46.34375 21.01253 45.88574 20.72314 45.29785C20.43376 44.70996 20.28906 44.02409 20.28906 43.24023C20.28906 42.45638 20.43034 41.76595 20.71289 41.16895C20.99544 40.57194 21.39535 40.10482 21.9126 39.76758C22.42985 39.43034 23.03483 39.26172 23.72754 39.26172L23.72754 39.26172C24.13314 39.26172 24.53304 39.32894 24.92725 39.46338C25.32145 39.59782 25.6792 39.81429 26.00049 40.11279C26.32178 40.4113 26.57813 40.80436 26.76953 41.29199C26.96094 41.77962 27.05664 42.37663 27.05664 43.08301L27.05664 43.08301L27.05664 43.5957L21.5332 43.5957C21.55143 44.08789 21.64941 44.51172 21.82715 44.86719L21.82715 44.86719C22.02311 45.26367 22.29769 45.56331 22.65088 45.76611C23.00407 45.96891 23.41309 46.07031 23.87793 46.07031L23.87793 46.07031C24.17871 46.07031 24.45215 46.02702 24.69824 45.94043C24.94434 45.85384 25.15625 45.72282 25.33398 45.54736C25.51172 45.37191 25.64844 45.1543 25.74414 44.89453L25.74414 44.89453L26.93359 45.22266C26.8151 45.60547 26.61458 45.94271 26.33203 46.23438C26.04948 46.52604 25.69971 46.75391 25.28271 46.91797C24.86572 47.08203 24.39518 47.16406 23.87109 47.16406M21.54004 42.55664L21.54004 42.55664L25.80566 42.55664C25.77376 42.21029 25.70085 41.89128 25.58691 41.59961L25.58691 41.59961C25.42741 41.21224 25.19271 40.90804 24.88281 40.68701C24.57292 40.46598 24.18783 40.35547 23.72754 40.35547C23.26725 40.35547 22.87305 40.46826 22.54492 40.69385C22.2168 40.91943 21.96615 41.21224 21.79297 41.57227L21.79297 41.57227C21.64714 41.88216 21.56283 42.21029 21.54004 42.55664M34.19336 39.35742L35.76563 39.35742L35.76563 40.41016L34.19336 40.41016L34.19336 45.01758C34.19336 45.35938 34.26286 45.60889 34.40186 45.76611C34.54085 45.92334 34.77214 46.00195 35.0957 46.00195L35.0957 46.00195C35.17318 46.00195 35.2723 45.99284 35.39307 45.97461C35.51383 45.95638 35.62435 45.93815 35.72461 45.91992L35.72461 45.91992L35.97754 46.95898C35.84993 47.00456 35.70524 47.03874 35.54346 47.06152C35.38167 47.08431 35.22103 47.0957 35.06152 47.0957L35.06152 47.0957C34.40072 47.0957 33.88574 46.92139 33.5166 46.57275C33.14746 46.22412 32.96289 45.73763 32.96289 45.11328L32.96289 45.11328L32.96289 40.41016L31.81445 40.41016L31.81445 39.35742L32.96289 39.35742L32.96289 37.53906L34.19336 37.53906L34.19336 39.35742M38.56836 42.41992L38.56836 42.41992L38.56836 47L37.33789 47L37.33789 36.81445L38.56836 36.81445L38.56836 40.67676C38.77799 40.24382 39.04004 39.92025 39.35449 39.70605L39.35449 39.70605C39.78288 39.40983 40.28646 39.26172 40.86523 39.26172L40.86523 39.26172C41.38021 39.26172 41.83252 39.36768 42.22217 39.57959C42.61182 39.7915 42.91488 40.11051 43.13135 40.53662C43.34782 40.96273 43.45605 41.49935 43.45605 42.14648L43.45605 42.14648L43.45605 47L42.21875 47L42.21875 42.24902C42.21875 41.66113 42.06494 41.20085 41.75732 40.86816C41.44971 40.53548 41.0293 40.36914 40.49609 40.36914L40.49609 40.36914C40.13151 40.36914 39.80339 40.44889 39.51172 40.6084C39.22005 40.7679 38.98991 41.00033 38.82129 41.30566C38.65267 41.611 38.56836 41.98242 38.56836 42.41992M46.84668 47L45.61621 47L45.61621 39.35742L46.80566 39.35742L46.80566 40.5332L46.8877 40.5332C47.02897 40.14583 47.28076 39.8348 47.64307 39.6001C48.00537 39.3654 48.41439 39.24805 48.87012 39.24805L48.87012 39.24805C48.96126 39.24805 49.0695 39.25033 49.19482 39.25488C49.32015 39.25944 49.41927 39.264 49.49219 39.26855L49.49219 39.26855L49.49219 40.50586C49.45573 40.49674 49.36458 40.48307 49.21875 40.46484C49.07292 40.44661 48.91797 40.4375 48.75391 40.4375L48.75391 40.4375C48.38932 40.4375 48.06234 40.51383 47.77295 40.6665C47.48356 40.81917 47.25684 41.02881 47.09277 41.29541C46.92871 41.56201 46.84668 41.86849 46.84668 42.21484L46.84668 42.21484L46.84668 47M54.09961 47.16406L54.09961 47.16406C53.36133 47.16406 52.72445 47 52.18896 46.67188C51.65348 46.34375 51.24105 45.88574 50.95166 45.29785C50.66227 44.70996 50.51758 44.02409 50.51758 43.24023C50.51758 42.45638 50.65885 41.76595 50.94141 41.16895C51.22396 40.57194 51.62386 40.10482 52.14111 39.76758C52.65837 39.43034 53.26335 39.26172 53.95605 39.26172L53.95605 39.26172C54.36165 39.26172 54.76156 39.32894 55.15576 39.46338C55.54997 39.59782 55.90771 39.81429 56.229 40.11279C56.55029 40.4113 56.80664 40.80436 56.99805 41.29199C57.18945 41.77962 57.28516 42.37663 57.28516 43.08301L57.28516 43.08301L57.28516 43.5957L51.76172 43.5957C51.77995 44.08789 51.87793 44.51172 52.05566 44.86719L52.05566 44.86719C52.25163 45.26367 52.5262 45.56331 52.87939 45.76611C53.23258 45.96891 53.6416 46.07031 54.10645 46.07031L54.10645 46.07031C54.40723 46.07031 54.68066 46.02702 54.92676 45.94043C55.17285 45.85384 55.38477 45.72282 55.5625 45.54736C55.74023 45.37191 55.87695 45.1543 55.97266 44.89453L55.97266 44.89453L57.16211 45.22266C57.04362 45.60547 56.8431 45.94271 56.56055 46.23438C56.27799 46.52604 55.92822 46.75391 55.51123 46.91797C55.09424 47.08203 54.6237 47.16406 54.09961 47.16406M51.76855 42.55664L51.76855 42.55664L56.03418 42.55664C56.00228 42.21029 55.92936 41.89128 55.81543 41.59961L55.81543 41.59961C55.65592 41.21224 55.42122 40.90804 55.11133 40.68701C54.80143 40.46598 54.41634 40.35547 53.95605 40.35547C53.49577 40.35547 53.10156 40.46826 52.77344 40.69385C52.44531 40.91943 52.19466 41.21224 52.02148 41.57227L52.02148 41.57227C51.87565 41.88216 51.79134 42.21029 51.76855 42.55664M62.26172 47.16406L62.26172 47.16406C61.52344 47.16406 60.88656 47 60.35107 46.67188C59.81559 46.34375 59.40316 45.88574 59.11377 45.29785C58.82438 44.70996 58.67969 44.02409 58.67969 43.24023C58.67969 42.45638 58.82096 41.76595 59.10352 41.16895C59.38607 40.57194 59.78597 40.10482 60.30322 39.76758C60.82048 39.43034 61.42546 39.26172 62.11816 39.26172L62.11816 39.26172C62.52376 39.26172 62.92367 39.32894 63.31787 39.46338C63.71208 39.59782 64.06982 39.81429 64.39111 40.11279C64.7124 40.4113 64.96875 40.80436 65.16016 41.29199C65.35156 41.77962 65.44727 42.37663 65.44727 43.08301L65.44727 43.08301L65.44727 43.5957L59.92383 43.5957C59.94206 44.08789 60.04004 44.51172 60.21777 44.86719L60.21777 44.86719C60.41374 45.26367 60.68831 45.56331 61.0415 45.76611C61.39469 45.96891 61.80371 46.07031 62.26855 46.07031L62.26855 46.07031C62.56934 46.07031 62.84277 46.02702 63.08887 45.94043C63.33496 45.85384 63.54688 45.72282 63.72461 45.54736C63.90234 45.37191 64.03906 45.1543 64.13477 44.89453L64.13477 44.89453L65.32422 45.22266C65.20573 45.60547 65.00521 45.94271 64.72266 46.23438C64.4401 46.52604 64.09033 46.75391 63.67334 46.91797C63.25635 47.08203 62.78581 47.16406 62.26172 47.16406M59.93066 42.55664L59.93066 42.55664L64.19629 42.55664C64.16439 42.21029 64.09147 41.89128 63.97754 41.59961L63.97754 41.59961C63.81803 41.21224 63.58333 40.90804 63.27344 40.68701C62.96354 40.46598 62.57845 40.35547 62.11816 40.35547C61.65788 40.35547 61.26367 40.46826 60.93555 40.69385C60.60742 40.91943 60.35677 41.21224 60.18359 41.57227L60.18359 41.57227C60.03776 41.88216 59.95345 42.21029 59.93066 42.55664" fill="#000000"/></g></g></g></svg>