<svg xmlns="http://www.w3.org/2000/svg" width="200" height="60" viewBox="0 0 200 60"><g><defs><clipPath id="clip-0"><rect x="0" y="0" width="200" height="60"/></clipPath></defs><g clip-path="url(#clip-0)"><g transform="matrix(1,0,0,1,10,15)"><path d="M2.890625 16L1.40625 16L1.40625 4.359375L2.890625 4.359375L2.890625 9.390625L9 9.390625L9 4.359375L10.484375 4.359375L10.484375 16L9 16L9 10.703125L2.890625 10.703125L2.890625 16M16.796875 16.1875L16.796875 16.1875C15.953125 16.1875 15.225260496139526 16 14.61328125 15.625C14.001302003860474 15.25 13.529947876930237 14.7265625 13.19921875 14.0546875C12.868489563465118 13.3828125 12.703125 12.598958253860474 12.703125 11.703125C12.703125 10.807291507720947 12.864583313465118 10.018229007720947 13.1875 9.3359375C13.510416626930237 8.653645992279053 13.967447996139526 8.119791507720947 14.55859375 7.734375C15.149739503860474 7.3489580154418945 15.841145753860474 7.15625 16.6328125 7.15625L16.6328125 7.15625C17.096354007720947 7.15625 17.553385257720947 7.2330732345581055 18.00390625 7.38671875C18.454427242279053 7.5403642654418945 18.86328125 7.7877607345581055 19.23046875 8.12890625C19.59765625 8.470052242279053 19.890625 8.919270992279053 20.109375 9.4765625C20.328125 10.033854007720947 20.4375 10.716145992279053 20.4375 11.5234375L20.4375 11.5234375L20.4375 12.109375L14.125 12.109375C14.145833253860474 12.671875 14.2578125 13.15625 14.4609375 13.5625L14.4609375 13.5625C14.684895753860474 14.015625 14.998697996139526 14.358072876930237 15.40234375 14.58984375C15.805989503860474 14.821614623069763 16.2734375 14.9375 16.8046875 14.9375L16.8046875 14.9375C17.1484375 14.9375 17.4609375 14.888020873069763 17.7421875 14.7890625C18.0234375 14.690104126930237 18.265625 14.540364623069763 18.46875 14.33984375C18.671875 14.139322876930237 18.828125 13.890625 18.9375 13.59375L18.9375 13.59375L20.296875 13.96875C20.161458015441895 14.40625 19.932291984558105 14.791666626930237 19.609375 15.125C19.286458492279053 15.458333313465118 18.88671875 15.71875 18.41015625 15.90625C17.93359375 16.09375 17.395833492279053 16.1875 16.796875 16.1875M14.1328125 10.921875L14.1328125 10.921875L19.0078125 10.921875C18.971354007720947 10.526041507720947 18.888020992279053 10.161458492279053 18.7578125 9.828125L18.7578125 9.828125C18.575520992279053 9.385416507720947 18.307291507720947 9.037760257720947 17.953125 8.78515625C17.598958492279053 8.532552242279053 17.158854007720947 8.40625 16.6328125 8.40625C16.106770992279053 8.40625 15.65625 8.53515625 15.28125 8.79296875C14.90625 9.05078125 14.619791746139526 9.385416507720947 14.421875 9.796875L14.421875 9.796875C14.255208253860474 10.151041507720947 14.158854246139526 10.526041507720947 14.1328125 10.921875M22.453125 4.359375L23.859375 4.359375L23.859375 16L22.453125 16L22.453125 4.359375M26.328125 4.359375L27.734375 4.359375L27.734375 16L26.328125 16L26.328125 4.359375M33.7578125 16.1875L33.7578125 16.1875C32.966145753860474 16.1875 32.272135496139526 16 31.67578125 15.625C31.079427003860474 15.25 30.614583373069763 14.723958373069763 30.28125 14.046875C29.94791668653488 13.369791746139526 29.78125 12.583333253860474 29.78125 11.6875L29.78125 11.6875C29.78125 10.776041507720947 29.94791668653488 9.98046875 30.28125 9.30078125C30.614583373069763 8.62109375 31.079427003860474 8.09375 31.67578125 7.71875C32.272135496139526 7.34375 32.966145753860474 7.15625 33.7578125 7.15625L33.7578125 7.15625C34.5546875 7.15625 35.25260400772095 7.34375 35.8515625 7.71875C36.45052099227905 8.09375 36.91666650772095 8.62109375 37.25 9.30078125C37.583333015441895 9.98046875 37.75 10.776041507720947 37.75 11.6875L37.75 11.6875C37.75 12.583333253860474 37.583333015441895 13.369791746139526 37.25 14.046875C36.91666650772095 14.723958373069763 36.45052099227905 15.25 35.8515625 15.625C35.25260400772095 16 34.5546875 16.1875 33.7578125 16.1875M33.7578125 14.9296875L33.7578125 14.9296875C34.34635400772095 14.9296875 34.83072900772095 14.778645873069763 35.2109375 14.4765625C35.59114599227905 14.174479126930237 35.87239599227905 13.77734375 36.0546875 13.28515625C36.23697900772095 12.79296875 36.328125 12.260416746139526 36.328125 11.6875L36.328125 11.6875C36.328125 11.109375 36.23697900772095 10.571614742279053 36.0546875 10.07421875C35.87239599227905 9.576822757720947 35.59114599227905 9.17578125 35.2109375 8.87109375C34.83072900772095 8.56640625 34.34635400772095 8.4140625 33.7578125 8.4140625L33.7578125 8.4140625C33.17447900772095 8.4140625 32.6953125 8.56640625 32.3203125 8.87109375C31.9453125 9.17578125 31.666666746139526 9.575520992279053 31.484375 10.0703125C31.302083253860474 10.565104007720947 31.2109375 11.104166507720947 31.2109375 11.6875L31.2109375 11.6875C31.2109375 12.260416746139526 31.302083253860474 12.79296875 31.484375 13.28515625C31.666666746139526 13.77734375 31.9453125 14.174479126930237 32.3203125 14.4765625C32.6953125 14.778645873069763 33.17447900772095 14.9296875 33.7578125 14.9296875M48.375 16L46.640625 16L43.46875 4.359375L44.984375 4.359375L46.828125 11.5C46.927083253860474 11.880208492279053 47.020833253860474 12.266927003860474 47.109375 12.66015625C47.19791650772095 13.053385496139526 47.28385400772095 13.450520753860474 47.3671875 13.8515625L47.3671875 13.8515625C47.41927099227905 14.1015625 47.46875 14.354166626930237 47.515625 14.609375L47.515625 14.609375C47.5625 14.354166626930237 47.61197900772095 14.1015625 47.6640625 13.8515625L47.6640625 13.8515625C47.74739599227905 13.450520753860474 47.8359375 13.053385496139526 47.9296875 12.66015625C48.0234375 12.266927003860474 48.11979150772095 11.880208492279053 48.21875 11.5L48.21875 11.5L50.1015625 4.359375L51.7890625 4.359375L53.65625 11.5C53.760416984558105 11.880208492279053 53.858073234558105 12.266927003860474 53.94921875 12.66015625C54.040364265441895 13.053385496139526 54.130208015441895 13.450520753860474 54.21875 13.8515625L54.21875 13.8515625C54.270833015441895 14.0859375 54.3203125 14.322916626930237 54.3671875 14.5625L54.3671875 14.5625C54.4140625 14.322916626930237 54.4609375 14.0859375 54.5078125 13.8515625L54.5078125 13.8515625C54.591145515441895 13.450520753860474 54.6796875 13.053385496139526 54.7734375 12.66015625C54.8671875 12.266927003860474 54.9609375 11.880208492279053 55.0546875 11.5L55.0546875 11.5L56.890625 4.359375L58.421875 4.359375L55.234375 16L53.5078125 16L51.5078125 8.625C51.377604484558105 8.145833492279053 51.252604484558105 7.6223955154418945 51.1328125 7.0546875L51.1328125 7.0546875C51.065104484558105 6.7421875 51 6.4010419845581055 50.9375 6.03125L50.9375 6.03125C50.875 6.3645830154418945 50.81510400772095 6.6770830154418945 50.7578125 6.96875L50.7578125 6.96875C50.6484375 7.5208330154418945 50.51822900772095 8.072916507720947 50.3671875 8.625L50.3671875 8.625L48.375 16M63.6171875 16.1875L63.6171875 16.1875C62.825520753860474 16.1875 62.131510496139526 16 61.53515625 15.625C60.938802003860474 15.25 60.47395837306976 14.723958373069763 60.140625 14.046875C59.80729168653488 13.369791746139526 59.640625 12.583333253860474 59.640625 11.6875L59.640625 11.6875C59.640625 10.776041507720947 59.80729168653488 9.98046875 60.140625 9.30078125C60.47395837306976 8.62109375 60.938802003860474 8.09375 61.53515625 7.71875C62.131510496139526 7.34375 62.825520753860474 7.15625 63.6171875 7.15625L63.6171875 7.15625C64.4140625 7.15625 65.11197900772095 7.34375 65.7109375 7.71875C66.30989599227905 8.09375 66.77604150772095 8.62109375 67.109375 9.30078125C67.4427080154419 9.98046875 67.609375 10.776041507720947 67.609375 11.6875L67.609375 11.6875C67.609375 12.583333253860474 67.4427080154419 13.369791746139526 67.109375 14.046875C66.77604150772095 14.723958373069763 66.30989599227905 15.25 65.7109375 15.625C65.11197900772095 16 64.4140625 16.1875 63.6171875 16.1875M63.6171875 14.9296875L63.6171875 14.9296875C64.20572900772095 14.9296875 64.69010400772095 14.778645873069763 65.0703125 14.4765625C65.45052099227905 14.174479126930237 65.73177099227905 13.77734375 65.9140625 13.28515625C66.09635400772095 12.79296875 66.1875 12.260416746139526 66.1875 11.6875L66.1875 11.6875C66.1875 11.109375 66.09635400772095 10.571614742279053 65.9140625 10.07421875C65.73177099227905 9.576822757720947 65.45052099227905 9.17578125 65.0703125 8.87109375C64.69010400772095 8.56640625 64.20572900772095 8.4140625 63.6171875 8.4140625L63.6171875 8.4140625C63.03385400772095 8.4140625 62.5546875 8.56640625 62.1796875 8.87109375C61.8046875 9.17578125 61.526041746139526 9.575520992279053 61.34375 10.0703125C61.161458253860474 10.565104007720947 61.0703125 11.104166507720947 61.0703125 11.6875L61.0703125 11.6875C61.0703125 12.260416746139526 61.161458253860474 12.79296875 61.34375 13.28515625C61.526041746139526 13.77734375 61.8046875 14.174479126930237 62.1796875 14.4765625C62.5546875 14.778645873069763 63.03385400772095 14.9296875 63.6171875 14.9296875M71.0625 16L69.65625 16L69.65625 7.265625L71.015625 7.265625L71.015625 8.609375L71.109375 8.609375C71.27083325386047 8.166666507720947 71.55859375 7.8111982345581055 71.97265625 7.54296875C72.38671875 7.2747392654418945 72.85416650772095 7.140625 73.375 7.140625L73.375 7.140625C73.47916650772095 7.140625 73.60286474227905 7.1432294845581055 73.74609375 7.1484375C73.88932275772095 7.1536455154418945 74.00260400772095 7.1588544845581055 74.0859375 7.1640625L74.0859375 7.1640625L74.0859375 8.578125C74.04427099227905 8.567708492279053 73.94010400772095 8.552083492279053 73.7734375 8.53125C73.60677099227905 8.510416507720947 73.4296875 8.5 73.2421875 8.5L73.2421875 8.5C72.82552099227905 8.5 72.45182275772095 8.587239742279053 72.12109375 8.76171875C71.79036450386047 8.936197757720947 71.53125 9.17578125 71.34375 9.48046875C71.15625 9.78515625 71.0625 10.135416507720947 71.0625 10.53125L71.0625 10.53125L71.0625 16M75.6796875 4.359375L77.0859375 4.359375L77.0859375 16L75.6796875 16L75.6796875 4.359375M82.828125 16.1875L82.828125 16.1875C82.10416674613953 16.1875 81.46354174613953 16.002604166744277 80.90625 15.6328125C80.34895825386047 15.263020813465118 79.9140625 14.739583373069763 79.6015625 14.0625C79.2890625 13.385416746139526 79.1328125 12.583333253860474 79.1328125 11.65625L79.1328125 11.65625C79.1328125 10.734375 79.29036456346512 9.936197757720947 79.60546875 9.26171875C79.92057287693024 8.587239742279053 80.35677075386047 8.067708492279053 80.9140625 7.703125C81.47135424613953 7.3385419845581055 82.11197924613953 7.15625 82.8359375 7.15625L82.8359375 7.15625C83.40364599227905 7.15625 83.85416650772095 7.25 84.1875 7.4375C84.52083349227905 7.625 84.77734375 7.8372392654418945 84.95703125 8.07421875C85.13671875 8.311197757720947 85.2734375 8.5078125 85.3671875 8.6640625L85.3671875 8.6640625L85.4765625 8.6640625L85.4765625 4.359375L86.8828125 4.359375L86.8828125 16L85.5234375 16L85.5234375 14.6484375L85.3671875 14.6484375C85.2734375 14.809895873069763 85.13411474227905 15.01171875 84.94921875 15.25390625C84.76432275772095 15.49609375 84.50390625 15.71223959326744 84.16796875 15.90234375C83.83203125 16.09244791418314 83.38541650772095 16.1875 82.828125 16.1875M83.0390625 14.9296875L83.0390625 14.9296875C83.5703125 14.9296875 84.01822900772095 14.790364623069763 84.3828125 14.51171875C84.74739599227905 14.233072876930237 85.0234375 13.846354246139526 85.2109375 13.3515625C85.3984375 12.856770753860474 85.4921875 12.286458253860474 85.4921875 11.640625L85.4921875 11.640625C85.4921875 10.994791507720947 85.39973974227905 10.430989742279053 85.21484375 9.94921875C85.02994775772095 9.467447757720947 84.75520849227905 9.091145992279053 84.390625 8.8203125C84.02604150772095 8.549479007720947 83.57552099227905 8.4140625 83.0390625 8.4140625L83.0390625 8.4140625C82.48697900772095 8.4140625 82.02734375 8.557291507720947 81.66015625 8.84375C81.29296875 9.130208492279053 81.01822924613953 9.516927242279053 80.8359375 10.00390625C80.65364575386047 10.490885257720947 80.5625 11.036458492279053 80.5625 11.640625L80.5625 11.640625C80.5625 12.25 80.65494799613953 12.803385496139526 80.83984375 13.30078125C81.02473950386047 13.798177003860474 81.30208325386047 14.194010376930237 81.671875 14.48828125C82.04166674613953 14.782552123069763 82.49739599227905 14.9296875 83.0390625 14.9296875" fill="#000000"/></g></g></g></svg>