<svg xmlns="http://www.w3.org/2000/svg" width="200" height="100" viewBox="0 0 200 100"><defs><clipPath id="clip-0"><path d="M 0.00 0.00 L 200.00 0.00 L 200.00 100.00 L 0.00 100.00 L 0.00 0.00" fill-rule="nonzero" fill="black"/></clipPath></defs><g><path d="M 0.00 0.00 L 200.00 0.00 L 200.00 100.00 L 0.00 100.00 L 0.00 0.00" fill-rule="nonzero" fill="#ffffff"/><g clip-path="url(#clip-0)"><path d="M 8.00 0.00 L 172.00 0.00 C 176.42 0.00 180.00 3.58 180.00 8.00 L 180.00 72.00 C 180.00 76.42 176.42 80.00 172.00 80.00 L 8.00 80.00 C 3.58 80.00 0.00 76.42 0.00 72.00 L 0.00 8.00 C 0.00 3.58 3.58 0.00 8.00 0.00" fill-rule="nonzero" transform="matrix(1, 0, 0, 1, 10, 10)" fill="#ededfa"/><ellipse cx="20" cy="20" rx="20" ry="20" transform="matrix(1, 0, 0, 1, 20, 30)" fill="#4d80e5"/><g transform="matrix(1, 0, 0, 1, 75, 25)"><path d="M6.14063 16.15625L6.14063 16.15625C5.10938 16.15625 4.1862 15.92188 3.37109 15.45313C2.55599 14.98438 1.91276 14.30469 1.44141 13.41406C0.97005 12.52344 0.73438 11.44792 0.73438 10.1875L0.73438 10.1875C0.73438 8.92188 0.97135 7.84245 1.44531 6.94922C1.91927 6.05599 2.5651 5.375 3.38281 4.90625C4.20052 4.4375 5.11979 4.20313 6.14063 4.20313L6.14063 4.20313C6.80208 4.20313 7.41797 4.29557 7.98828 4.48047C8.55859 4.66536 9.0651 4.9349 9.50781 5.28906C9.95052 5.64323 10.3125 6.07682 10.59375 6.58984C10.875 7.10286 11.0599 7.6875 11.14844 8.34375L11.14844 8.34375L8.73438 8.34375C8.68229 8.02083 8.58203 7.73568 8.43359 7.48828C8.28516 7.24089 8.10026 7.02995 7.87891 6.85547C7.65755 6.68099 7.40365 6.54818 7.11719 6.45703C6.83073 6.36589 6.52083 6.32031 6.1875 6.32031L6.1875 6.32031C5.58333 6.32031 5.05339 6.47135 4.59766 6.77344C4.14193 7.07552 3.78776 7.51432 3.53516 8.08984C3.28255 8.66536 3.15625 9.36458 3.15625 10.1875L3.15625 10.1875C3.15625 11.02604 3.28385 11.73177 3.53906 12.30469C3.79427 12.8776 4.14844 13.3099 4.60156 13.60156C5.05469 13.89323 5.58073 14.03906 6.17969 14.03906L6.17969 14.03906C6.51302 14.03906 6.82161 13.99349 7.10547 13.90234C7.38932 13.8112 7.64453 13.67839 7.87109 13.50391C8.09766 13.32943 8.28516 13.11719 8.43359 12.86719C8.58203 12.61719 8.6849 12.33333 8.74219 12.01563L8.74219 12.01563L11.15625 12.01563C11.09375 12.55729 10.93359 13.07552 10.67578 13.57031C10.41797 14.0651 10.07552 14.50781 9.64844 14.89844C9.22135 15.28906 8.71354 15.59635 8.125 15.82031C7.53646 16.04427 6.875 16.15625 6.14063 16.15625M15.27344 16.17188L15.27344 16.17188C14.72135 16.17188 14.22526 16.07422 13.78516 15.87891C13.34505 15.68359 12.9987 15.39193 12.74609 15.00391C12.49349 14.61589 12.36719 14.13281 12.36719 13.55469L12.36719 13.55469C12.36719 13.07031 12.45703 12.66406 12.63672 12.33594C12.81641 12.00781 13.0612 11.74479 13.37109 11.54688C13.68099 11.34896 14.03255 11.19792 14.42578 11.09375C14.81901 10.98958 15.23177 10.91667 15.66406 10.875L15.66406 10.875C16.16927 10.82292 16.57682 10.77474 16.88672 10.73047C17.19661 10.6862 17.42318 10.61589 17.56641 10.51953C17.70964 10.42318 17.78125 10.28125 17.78125 10.09375L17.78125 10.09375L17.78125 10.05469C17.78125 9.80469 17.72917 9.59375 17.625 9.42188C17.52083 9.25 17.36589 9.11849 17.16016 9.02734C16.95443 8.9362 16.70573 8.89063 16.41406 8.89063L16.41406 8.89063C16.11198 8.89063 15.84896 8.9362 15.625 9.02734C15.40104 9.11849 15.21875 9.23958 15.07813 9.39063C14.9375 9.54167 14.83333 9.71094 14.76563 9.89844L14.76563 9.89844L12.61719 9.54688C12.76823 9.03646 13.01823 8.60417 13.36719 8.25C13.71615 7.89583 14.14974 7.625 14.66797 7.4375C15.1862 7.25 15.77083 7.15625 16.42188 7.15625L16.42188 7.15625C16.89063 7.15625 17.34635 7.21224 17.78906 7.32422C18.23177 7.4362 18.62891 7.60938 18.98047 7.84375C19.33203 8.07813 19.61068 8.38411 19.81641 8.76172C20.02214 9.13932 20.125 9.59115 20.125 10.11719L20.125 10.11719L20.125 16L17.90625 16L17.90625 14.78906L17.82813 14.78906C17.6875 15.0599 17.5 15.29818 17.26563 15.50391C17.03125 15.70964 16.7487 15.8724 16.41797 15.99219C16.08724 16.11198 15.70573 16.17188 15.27344 16.17188M15.9375 14.52344L15.9375 14.52344C16.30729 14.52344 16.63151 14.45052 16.91016 14.30469C17.1888 14.15885 17.40625 13.96094 17.5625 13.71094C17.71875 13.46094 17.79688 13.18229 17.79688 12.875L17.79688 12.875L17.79688 11.92969C17.72917 11.98177 17.625 12.02865 17.48438 12.07031C17.34375 12.11198 17.1875 12.14844 17.01563 12.17969C16.84375 12.21094 16.67448 12.23958 16.50781 12.26563C16.34115 12.29167 16.19271 12.3125 16.0625 12.32813L16.0625 12.32813C15.77604 12.36979 15.52344 12.4375 15.30469 12.53125C15.08594 12.625 14.91667 12.7487 14.79688 12.90234C14.67708 13.05599 14.61719 13.2526 14.61719 13.49219L14.61719 13.49219C14.61719 13.71615 14.67448 13.90495 14.78906 14.05859C14.90365 14.21224 15.0599 14.32813 15.25781 14.40625C15.45573 14.48438 15.68229 14.52344 15.9375 14.52344M24.46875 16L22.125 16L22.125 7.26563L24.39063 7.26563L24.39063 8.78906L24.48438 8.78906C24.64583 8.2474 24.91536 7.83854 25.29297 7.5625C25.67057 7.28646 26.10417 7.14844 26.59375 7.14844L26.59375 7.14844C26.71354 7.14844 26.84375 7.15495 26.98438 7.16797C27.125 7.18099 27.2474 7.20052 27.35156 7.22656L27.35156 7.22656L27.35156 9.32031C27.2474 9.28385 27.09635 9.25521 26.89844 9.23438C26.70052 9.21354 26.51302 9.20313 26.33594 9.20313L26.33594 9.20313C25.98177 9.20313 25.66146 9.27995 25.375 9.43359C25.08854 9.58724 24.86589 9.80078 24.70703 10.07422C24.54818 10.34766 24.46875 10.66667 24.46875 11.03125L24.46875 11.03125L24.46875 16M31.82813 16.14844L31.82813 16.14844C31.16146 16.14844 30.55859 15.97526 30.01953 15.62891C29.48047 15.28255 29.05469 14.77474 28.74219 14.10547C28.42969 13.4362 28.27344 12.61719 28.27344 11.64844L28.27344 11.64844C28.27344 10.65365 28.4349 9.82292 28.75781 9.15625C29.08073 8.48958 29.51042 7.98958 30.04688 7.65625C30.58333 7.32292 31.17448 7.15625 31.82031 7.15625L31.82031 7.15625C32.3151 7.15625 32.72656 7.23958 33.05469 7.40625C33.38281 7.57292 33.64844 7.77865 33.85156 8.02344C34.05469 8.26823 34.20573 8.50521 34.30469 8.73438L34.30469 8.73438L34.38281 8.73438L34.38281 4.35938L36.72656 4.35938L36.72656 16L34.42188 16L34.42188 14.60156L34.30469 14.60156C34.20052 14.83594 34.04557 15.07161 33.83984 15.30859C33.63411 15.54557 33.36719 15.74479 33.03906 15.90625C32.71094 16.06771 32.30729 16.14844 31.82813 16.14844M32.55469 14.26563L32.55469 14.26563C32.95052 14.26563 33.28906 14.15625 33.57031 13.9375C33.85156 13.71875 34.0651 13.41276 34.21094 13.01953C34.35677 12.6263 34.42969 12.16667 34.42969 11.64063L34.42969 11.64063C34.42969 11.10938 34.35807 10.64974 34.21484 10.26172C34.07161 9.8737 33.85938 9.57161 33.57813 9.35547C33.29688 9.13932 32.95573 9.03125 32.55469 9.03125L32.55469 9.03125C32.14323 9.03125 31.79818 9.14323 31.51953 9.36719C31.24089 9.59115 31.03125 9.89844 30.89063 10.28906C30.75 10.67969 30.67969 11.13021 30.67969 11.64063L30.67969 11.64063C30.67969 12.15104 30.7513 12.60417 30.89453 13C31.03776 13.39583 31.2487 13.70573 31.52734 13.92969C31.80599 14.15365 32.14844 14.26563 32.55469 14.26563M45.66406 6.33594L42.10156 6.33594L42.10156 4.35938L51.60938 4.35938L51.60938 6.33594L48.05469 6.33594L48.05469 16L45.66406 16L45.66406 6.33594M55.53906 16L53.19531 16L53.19531 7.26563L55.53906 7.26563L55.53906 16M54.36719 6.125L54.36719 6.125C54.01302 6.125 53.71094 6.00781 53.46094 5.77344C53.21094 5.53906 53.08594 5.25521 53.08594 4.92188L53.08594 4.92188C53.08594 4.58854 53.21094 4.30469 53.46094 4.07031C53.71094 3.83594 54.01302 3.71875 54.36719 3.71875L54.36719 3.71875C54.72135 3.71875 55.02474 3.83464 55.27734 4.06641C55.52995 4.29818 55.65625 4.58333 55.65625 4.92188L55.65625 4.92188C55.65625 5.25521 55.52995 5.53906 55.27734 5.77344C55.02474 6.00781 54.72135 6.125 54.36719 6.125M60.23438 7.26563L61.86719 7.26563L61.86719 9.05469L60.23438 9.05469L60.23438 13.44531C60.23438 13.72135 60.29557 13.92578 60.41797 14.05859C60.54036 14.19141 60.74479 14.25781 61.03125 14.25781L61.03125 14.25781C61.11979 14.25781 61.24479 14.24609 61.40625 14.22266C61.56771 14.19922 61.6901 14.17708 61.77344 14.15625L61.77344 14.15625L62.10938 15.91406C61.84896 15.99219 61.58984 16.04688 61.33203 16.07813C61.07422 16.10938 60.82813 16.125 60.59375 16.125L60.59375 16.125C59.71875 16.125 59.04948 15.91146 58.58594 15.48438C58.1224 15.05729 57.89063 14.44531 57.89063 13.64844L57.89063 13.64844L57.89063 9.05469L56.6875 9.05469L56.6875 7.26563L57.89063 7.26563L57.89063 5.1875L60.23438 5.1875L60.23438 7.26563M63.39063 4.35938L65.73438 4.35938L65.73438 16L63.39063 16L63.39063 4.35938M71.67188 16.17188L71.67188 16.17188C70.78125 16.17188 70.01302 15.98958 69.36719 15.625C68.72135 15.26042 68.22526 14.74219 67.87891 14.07031C67.53255 13.39844 67.35938 12.60156 67.35938 11.67969L67.35938 11.67969C67.35938 10.77865 67.53125 9.98958 67.875 9.3125C68.21875 8.63542 68.70573 8.10677 69.33594 7.72656C69.96615 7.34635 70.70573 7.15625 71.55469 7.15625L71.55469 7.15625C72.1276 7.15625 72.66146 7.2474 73.15625 7.42969C73.65104 7.61198 74.08594 7.88672 74.46094 8.25391C74.83594 8.62109 75.12891 9.08073 75.33984 9.63281C75.55078 10.1849 75.65625 10.83594 75.65625 11.58594L75.65625 11.58594L75.65625 12.24219L69.67969 12.24219C69.69531 12.6849 69.78125 13.0625 69.9375 13.375L69.9375 13.375C70.10417 13.71875 70.33984 13.97656 70.64453 14.14844C70.94922 14.32031 71.30469 14.40625 71.71094 14.40625L71.71094 14.40625C71.98698 14.40625 72.23698 14.36719 72.46094 14.28906C72.6849 14.21094 72.8763 14.09505 73.03516 13.94141C73.19401 13.78776 73.3151 13.59896 73.39844 13.375L73.39844 13.375L75.52344 13.77344C75.38281 14.2526 75.13802 14.67318 74.78906 15.03516C74.4401 15.39714 74.00391 15.67708 73.48047 15.875C72.95703 16.07292 72.35417 16.17188 71.67188 16.17188M69.69531 10.77344L69.69531 10.77344L73.39844 10.77344C73.36719 10.48177 73.30469 10.21615 73.21094 9.97656L73.21094 9.97656C73.07031 9.64323 72.86328 9.38411 72.58984 9.19922C72.31641 9.01432 71.97917 8.92188 71.57813 8.92188L71.57813 8.92188C71.17188 8.92188 70.82682 9.01563 70.54297 9.20313C70.25911 9.39063 70.04427 9.64323 69.89844 9.96094L69.89844 9.96094C69.78906 10.20573 69.72135 10.47656 69.69531 10.77344" fill="#000000"/></g><g transform="matrix(1, 0, 0, 1, 75, 55)"><path d="M3.7793 12L3.7793 12L1.05469 12L1.05469 3.26953L3.89063 3.26953C4.74219 3.26953 5.46973 3.44336 6.07324 3.79102C6.67676 4.13867 7.13965 4.6377 7.46191 5.28809C7.78418 5.93848 7.94531 6.71484 7.94531 7.61719L7.94531 7.61719C7.94531 8.52734 7.7832 9.30957 7.45898 9.96387C7.13477 10.61816 6.66211 11.12109 6.04102 11.47266C5.41992 11.82422 4.66602 12 3.7793 12M2.16797 4.25391L2.16797 11.01563L3.70898 11.01563C4.41992 11.01563 5.00879 10.87988 5.47559 10.6084C5.94238 10.33691 6.29102 9.94727 6.52148 9.43945C6.75195 8.93164 6.86719 8.32422 6.86719 7.61719L6.86719 7.61719C6.86719 6.91797 6.75293 6.31738 6.52441 5.81543C6.2959 5.31348 5.95605 4.92773 5.50488 4.6582C5.05371 4.38867 4.49023 4.25391 3.81445 4.25391L3.81445 4.25391L2.16797 4.25391M12.33984 12.14063L12.33984 12.14063C11.70703 12.14063 11.16113 12 10.70215 11.71875C10.24316 11.4375 9.88965 11.04492 9.6416 10.54102C9.39355 10.03711 9.26953 9.44922 9.26953 8.77734C9.26953 8.10547 9.39062 7.51367 9.63281 7.00195C9.875 6.49023 10.21777 6.08984 10.66113 5.80078C11.10449 5.51172 11.62305 5.36719 12.2168 5.36719L12.2168 5.36719C12.56445 5.36719 12.90723 5.4248 13.24512 5.54004C13.58301 5.65527 13.88965 5.84082 14.16504 6.09668C14.44043 6.35254 14.66016 6.68945 14.82422 7.10742C14.98828 7.52539 15.07031 8.03711 15.07031 8.64258L15.07031 8.64258L15.07031 9.08203L10.33594 9.08203C10.35156 9.50391 10.43555 9.86719 10.58789 10.17188L10.58789 10.17188C10.75586 10.51172 10.99121 10.76855 11.29395 10.94238C11.59668 11.11621 11.94727 11.20313 12.3457 11.20313L12.3457 11.20313C12.60352 11.20313 12.83789 11.16602 13.04883 11.0918C13.25977 11.01758 13.44141 10.90527 13.59375 10.75488C13.74609 10.60449 13.86328 10.41797 13.94531 10.19531L13.94531 10.19531L14.96484 10.47656C14.86328 10.80469 14.69141 11.09375 14.44922 11.34375C14.20703 11.59375 13.90723 11.78906 13.5498 11.92969C13.19238 12.07031 12.78906 12.14063 12.33984 12.14063M10.3418 8.19141L10.3418 8.19141L13.99805 8.19141C13.9707 7.89453 13.9082 7.62109 13.81055 7.37109L13.81055 7.37109C13.67383 7.03906 13.47266 6.77832 13.20703 6.58887C12.94141 6.39941 12.61133 6.30469 12.2168 6.30469C11.82227 6.30469 11.48438 6.40137 11.20313 6.59473C10.92188 6.78809 10.70703 7.03906 10.55859 7.34766L10.55859 7.34766C10.43359 7.61328 10.36133 7.89453 10.3418 8.19141M18.80859 12.14063L18.80859 12.14063C18.35938 12.14063 17.95996 12.0752 17.61035 11.94434C17.26074 11.81348 16.97266 11.61914 16.74609 11.36133C16.51953 11.10352 16.36719 10.78711 16.28906 10.41211L16.28906 10.41211L17.29102 10.17188C17.38477 10.53125 17.56152 10.79492 17.82129 10.96289C18.08105 11.13086 18.40625 11.21484 18.79688 11.21484L18.79688 11.21484C19.25391 11.21484 19.61816 11.11719 19.88965 10.92188C20.16113 10.72656 20.29688 10.49414 20.29688 10.22461L20.29688 10.22461C20.29688 9.99805 20.21777 9.80957 20.05957 9.65918C19.90137 9.50879 19.66016 9.39648 19.33594 9.32227L19.33594 9.32227L18.24609 9.06445C17.65234 8.92383 17.21094 8.70605 16.92188 8.41113C16.63281 8.11621 16.48828 7.73828 16.48828 7.27734L16.48828 7.27734C16.48828 6.90234 16.59375 6.57129 16.80469 6.28418C17.01563 5.99707 17.30371 5.77246 17.66895 5.61035C18.03418 5.44824 18.44922 5.36719 18.91406 5.36719L18.91406 5.36719C19.36328 5.36719 19.74512 5.43457 20.05957 5.56934C20.37402 5.7041 20.62988 5.88965 20.82715 6.12598C21.02441 6.3623 21.17187 6.63477 21.26953 6.94336L21.26953 6.94336L20.31445 7.18945C20.22461 6.95508 20.0752 6.74219 19.86621 6.55078C19.65723 6.35937 19.3418 6.26367 18.91992 6.26367L18.91992 6.26367C18.5293 6.26367 18.2041 6.35352 17.94434 6.5332C17.68457 6.71289 17.55469 6.93945 17.55469 7.21289L17.55469 7.21289C17.55469 7.45508 17.64258 7.64941 17.81836 7.7959C17.99414 7.94238 18.27344 8.06055 18.65625 8.15039L18.65625 8.15039L19.64648 8.38477C20.24023 8.52539 20.67969 8.74316 20.96484 9.03809C21.25 9.33301 21.39258 9.70508 21.39258 10.1543L21.39258 10.1543C21.39258 10.53711 21.28418 10.87793 21.06738 11.17676C20.85059 11.47559 20.54785 11.71094 20.15918 11.88281C19.77051 12.05469 19.32031 12.14063 18.80859 12.14063M25.58203 12.14063L25.58203 12.14063C24.98828 12.14063 24.46777 12 24.02051 11.71875C23.57324 11.4375 23.22461 11.04297 22.97461 10.53516C22.72461 10.02734 22.59961 9.4375 22.59961 8.76563L22.59961 8.76563C22.59961 8.08203 22.72461 7.48535 22.97461 6.97559C23.22461 6.46582 23.57324 6.07031 24.02051 5.78906C24.46777 5.50781 24.98828 5.36719 25.58203 5.36719L25.58203 5.36719C25.89844 5.36719 26.19727 5.4082 26.47852 5.49023C26.75977 5.57227 27.0166 5.69043 27.24902 5.84473C27.48145 5.99902 27.68164 6.18848 27.84961 6.41309C28.01758 6.6377 28.14648 6.89258 28.23633 7.17773L28.23633 7.17773L27.22266 7.46484C27.17578 7.29687 27.10352 7.14258 27.00586 7.00195C26.9082 6.86133 26.79004 6.73926 26.65137 6.63574C26.5127 6.53223 26.35352 6.45215 26.17383 6.39551C25.99414 6.33887 25.79688 6.31055 25.58203 6.31055L25.58203 6.31055C25.14453 6.31055 24.78516 6.4248 24.50391 6.65332C24.22266 6.88184 24.01367 7.18164 23.87695 7.55273C23.74023 7.92383 23.67188 8.32812 23.67188 8.76563L23.67188 8.76563C23.67188 9.19531 23.74023 9.59473 23.87695 9.96387C24.01367 10.33301 24.22266 10.63086 24.50391 10.85742C24.78516 11.08398 25.14453 11.19727 25.58203 11.19727L25.58203 11.19727C25.80078 11.19727 26.00195 11.16797 26.18555 11.10938C26.36914 11.05078 26.53223 10.96777 26.6748 10.86035C26.81738 10.75293 26.9375 10.625 27.03516 10.47656C27.13281 10.32812 27.20508 10.16602 27.25195 9.99023L27.25195 9.99023L28.25977 10.27734C28.17383 10.57031 28.0459 10.83105 27.87598 11.05957C27.70605 11.28809 27.50391 11.4834 27.26953 11.64551C27.03516 11.80762 26.77539 11.93066 26.49023 12.01465C26.20508 12.09863 25.90234 12.14063 25.58203 12.14063M30.82617 12L29.77148 12L29.77148 5.44922L30.79102 5.44922L30.79102 6.45703L30.86133 6.45703C30.98242 6.125 31.19824 5.8584 31.50879 5.65723C31.81934 5.45605 32.16992 5.35547 32.56055 5.35547L32.56055 5.35547C32.63867 5.35547 32.73145 5.35742 32.83887 5.36133C32.94629 5.36523 33.03125 5.36914 33.09375 5.37305L33.09375 5.37305L33.09375 6.43359C33.0625 6.42578 32.98437 6.41406 32.85938 6.39844C32.73438 6.38281 32.60156 6.375 32.46094 6.375L32.46094 6.375C32.14844 6.375 31.86816 6.44043 31.62012 6.57129C31.37207 6.70215 31.17773 6.88184 31.03711 7.11035C30.89648 7.33887 30.82617 7.60156 30.82617 7.89844L30.82617 7.89844L30.82617 12M35.34375 12L34.28906 12L34.28906 5.44922L35.34375 5.44922L35.34375 12M34.82227 4.37695L34.82227 4.37695C34.62305 4.37695 34.45117 4.30859 34.30664 4.17188C34.16211 4.03516 34.08984 3.87109 34.08984 3.67969L34.08984 3.67969C34.08984 3.48437 34.16211 3.31934 34.30664 3.18457C34.45117 3.0498 34.62305 2.98242 34.82227 2.98242L34.82227 2.98242C35.02539 2.98242 35.19922 3.0498 35.34375 3.18457C35.48828 3.31934 35.56055 3.48437 35.56055 3.67969L35.56055 3.67969C35.56055 3.87109 35.48828 4.03516 35.34375 4.17188C35.19922 4.30859 35.02539 4.37695 34.82227 4.37695M38.25 14.44922L37.19531 14.44922L37.19531 5.44922L38.21484 5.44922L38.21484 6.49805L38.33203 6.49805C38.40625 6.38086 38.50977 6.2334 38.64258 6.05566C38.77539 5.87793 38.9668 5.71875 39.2168 5.57813C39.4668 5.4375 39.80469 5.36719 40.23047 5.36719L40.23047 5.36719C40.77734 5.36719 41.25879 5.50391 41.6748 5.77734C42.09082 6.05078 42.41699 6.44043 42.65332 6.94629C42.88965 7.45215 43.00781 8.05078 43.00781 8.74219L43.00781 8.74219C43.00781 9.4375 42.89063 10.03906 42.65625 10.54688C42.42188 11.05469 42.09668 11.44727 41.68066 11.72461C41.26465 12.00195 40.7832 12.14063 40.23633 12.14063L40.23633 12.14063C39.82227 12.14063 39.48828 12.06934 39.23438 11.92676C38.98047 11.78418 38.78516 11.62207 38.64844 11.44043C38.51172 11.25879 38.40625 11.10742 38.33203 10.98633L38.33203 10.98633L38.25 10.98633L38.25 14.44922M40.07813 11.19727L40.07813 11.19727C40.48828 11.19727 40.83105 11.08691 41.10645 10.86621C41.38184 10.64551 41.58887 10.34863 41.72754 9.97559C41.86621 9.60254 41.93555 9.1875 41.93555 8.73047L41.93555 8.73047C41.93555 8.27734 41.86719 7.86816 41.73047 7.50293C41.59375 7.1377 41.3877 6.84766 41.1123 6.63281C40.83691 6.41797 40.49219 6.31055 40.07813 6.31055L40.07813 6.31055C39.67578 6.31055 39.33789 6.41211 39.06445 6.61523C38.79102 6.81836 38.58496 7.10059 38.44629 7.46191C38.30762 7.82324 38.23828 8.24609 38.23828 8.73047L38.23828 8.73047C38.23828 9.21484 38.30859 9.64258 38.44922 10.01367C38.58984 10.38477 38.79785 10.6748 39.07324 10.88379C39.34863 11.09277 39.68359 11.19727 40.07813 11.19727M45.77344 5.44922L47.12109 5.44922L47.12109 6.35156L45.77344 6.35156L45.77344 10.30078C45.77344 10.59375 45.83301 10.80762 45.95215 10.94238C46.07129 11.07715 46.26953 11.14453 46.54688 11.14453L46.54688 11.14453C46.61328 11.14453 46.69824 11.13672 46.80176 11.12109C46.90527 11.10547 47 11.08984 47.08594 11.07422L47.08594 11.07422L47.30273 11.96484C47.19336 12.00391 47.06934 12.0332 46.93066 12.05273C46.79199 12.07227 46.6543 12.08203 46.51758 12.08203L46.51758 12.08203C45.95117 12.08203 45.50977 11.93262 45.19336 11.63379C44.87695 11.33496 44.71875 10.91797 44.71875 10.38281L44.71875 10.38281L44.71875 6.35156L43.73438 6.35156L43.73438 5.44922L44.71875 5.44922L44.71875 3.89063L45.77344 3.89063L45.77344 5.44922M49.52344 12L48.46875 12L48.46875 5.44922L49.52344 5.44922L49.52344 12M49.00195 4.37695L49.00195 4.37695C48.80273 4.37695 48.63086 4.30859 48.48633 4.17188C48.3418 4.03516 48.26953 3.87109 48.26953 3.67969L48.26953 3.67969C48.26953 3.48437 48.3418 3.31934 48.48633 3.18457C48.63086 3.0498 48.80273 2.98242 49.00195 2.98242L49.00195 2.98242C49.20508 2.98242 49.37891 3.0498 49.52344 3.18457C49.66797 3.31934 49.74023 3.48437 49.74023 3.67969L49.74023 3.67969C49.74023 3.87109 49.66797 4.03516 49.52344 4.17188C49.37891 4.30859 49.20508 4.37695 49.00195 4.37695M54.04102 12.14063L54.04102 12.14063C53.44727 12.14063 52.92676 12 52.47949 11.71875C52.03223 11.4375 51.68359 11.04297 51.43359 10.53516C51.18359 10.02734 51.05859 9.4375 51.05859 8.76563L51.05859 8.76563C51.05859 8.08203 51.18359 7.48535 51.43359 6.97559C51.68359 6.46582 52.03223 6.07031 52.47949 5.78906C52.92676 5.50781 53.44727 5.36719 54.04102 5.36719L54.04102 5.36719C54.63867 5.36719 55.16211 5.50781 55.61133 5.78906C56.06055 6.07031 56.41016 6.46582 56.66016 6.97559C56.91016 7.48535 57.03516 8.08203 57.03516 8.76563L57.03516 8.76563C57.03516 9.4375 56.91016 10.02734 56.66016 10.53516C56.41016 11.04297 56.06055 11.4375 55.61133 11.71875C55.16211 12 54.63867 12.14063 54.04102 12.14063M54.04102 11.19727L54.04102 11.19727C54.48242 11.19727 54.8457 11.08398 55.13086 10.85742C55.41602 10.63086 55.62695 10.33301 55.76367 9.96387C55.90039 9.59473 55.96875 9.19531 55.96875 8.76563L55.96875 8.76563C55.96875 8.33203 55.90039 7.92871 55.76367 7.55566C55.62695 7.18262 55.41602 6.88184 55.13086 6.65332C54.8457 6.4248 54.48242 6.31055 54.04102 6.31055L54.04102 6.31055C53.60352 6.31055 53.24414 6.4248 52.96289 6.65332C52.68164 6.88184 52.47266 7.18164 52.33594 7.55273C52.19922 7.92383 52.13086 8.32812 52.13086 8.76563L52.13086 8.76563C52.13086 9.19531 52.19922 9.59473 52.33594 9.96387C52.47266 10.33301 52.68164 10.63086 52.96289 10.85742C53.24414 11.08398 53.60352 11.19727 54.04102 11.19727M59.625 8.07422L59.625 8.07422L59.625 12L58.57031 12L58.57031 5.44922L59.58398 5.44922L59.58984 6.66211C59.77344 6.25195 60.00977 5.94727 60.29883 5.74805L60.29883 5.74805C60.66602 5.49414 61.09766 5.36719 61.59375 5.36719L61.59375 5.36719C62.03516 5.36719 62.42187 5.45801 62.75391 5.63965C63.08594 5.82129 63.34473 6.09473 63.53027 6.45996C63.71582 6.8252 63.80859 7.28516 63.80859 7.83984L63.80859 7.83984L63.80859 12L62.75391 12L62.75391 7.92773C62.75391 7.42383 62.62207 7.0293 62.3584 6.74414C62.09473 6.45898 61.73438 6.31641 61.27734 6.31641L61.27734 6.31641C60.96484 6.31641 60.68359 6.38477 60.43359 6.52148C60.18359 6.6582 59.98633 6.85742 59.8418 7.11914C59.69727 7.38086 59.625 7.69922 59.625 8.07422M70.26563 5.44922L71.61328 5.44922L71.61328 6.35156L70.26563 6.35156L70.26563 10.30078C70.26563 10.59375 70.3252 10.80762 70.44434 10.94238C70.56348 11.07715 70.76172 11.14453 71.03906 11.14453L71.03906 11.14453C71.10547 11.14453 71.19043 11.13672 71.29395 11.12109C71.39746 11.10547 71.49219 11.08984 71.57813 11.07422L71.57813 11.07422L71.79492 11.96484C71.68555 12.00391 71.56152 12.0332 71.42285 12.05273C71.28418 12.07227 71.14648 12.08203 71.00977 12.08203L71.00977 12.08203C70.44336 12.08203 70.00195 11.93262 69.68555 11.63379C69.36914 11.33496 69.21094 10.91797 69.21094 10.38281L69.21094 10.38281L69.21094 6.35156L68.22656 6.35156L68.22656 5.44922L69.21094 5.44922L69.21094 3.89063L70.26563 3.89063L70.26563 5.44922M75.71484 12.14063L75.71484 12.14063C75.08203 12.14063 74.53613 12 74.07715 11.71875C73.61816 11.4375 73.26465 11.04492 73.0166 10.54102C72.76855 10.03711 72.64453 9.44922 72.64453 8.77734C72.64453 8.10547 72.76562 7.51367 73.00781 7.00195C73.25 6.49023 73.59277 6.08984 74.03613 5.80078C74.47949 5.51172 74.99805 5.36719 75.5918 5.36719L75.5918 5.36719C75.93945 5.36719 76.28223 5.4248 76.62012 5.54004C76.95801 5.65527 77.26465 5.84082 77.54004 6.09668C77.81543 6.35254 78.03516 6.68945 78.19922 7.10742C78.36328 7.52539 78.44531 8.03711 78.44531 8.64258L78.44531 8.64258L78.44531 9.08203L73.71094 9.08203C73.72656 9.50391 73.81055 9.86719 73.96289 10.17188L73.96289 10.17188C74.13086 10.51172 74.36621 10.76855 74.66895 10.94238C74.97168 11.11621 75.32227 11.20313 75.7207 11.20313L75.7207 11.20313C75.97852 11.20313 76.21289 11.16602 76.42383 11.0918C76.63477 11.01758 76.81641 10.90527 76.96875 10.75488C77.12109 10.60449 77.23828 10.41797 77.32031 10.19531L77.32031 10.19531L78.33984 10.47656C78.23828 10.80469 78.06641 11.09375 77.82422 11.34375C77.58203 11.59375 77.28223 11.78906 76.9248 11.92969C76.56738 12.07031 76.16406 12.14063 75.71484 12.14063M73.7168 8.19141L73.7168 8.19141L77.37305 8.19141C77.3457 7.89453 77.2832 7.62109 77.18555 7.37109L77.18555 7.37109C77.04883 7.03906 76.84766 6.77832 76.58203 6.58887C76.31641 6.39941 75.98633 6.30469 75.5918 6.30469C75.19727 6.30469 74.85938 6.40137 74.57813 6.59473C74.29688 6.78809 74.08203 7.03906 73.93359 7.34766L73.93359 7.34766C73.80859 7.61328 73.73633 7.89453 73.7168 8.19141M80.63086 12L79.41211 12L81.71484 8.63672L79.54688 5.44922L80.77734 5.44922L81.5918 6.7207C81.80273 7.04883 81.98633 7.35547 82.14258 7.64063L82.14258 7.64063C82.20508 7.76172 82.27148 7.88281 82.3418 8.00391L82.3418 8.00391C82.4043 7.88281 82.4668 7.76172 82.5293 7.64063L82.5293 7.64063C82.66602 7.35547 82.8418 7.04883 83.05664 6.7207L83.05664 6.7207L83.88867 5.44922L85.0957 5.44922L82.9043 8.69531L85.20117 12L83.97656 12L83.01563 10.5293C82.80859 10.20898 82.63086 9.91016 82.48242 9.63281L82.48242 9.63281C82.41992 9.52344 82.35742 9.41602 82.29492 9.31055L82.29492 9.31055C82.23633 9.41602 82.17969 9.52344 82.125 9.63281L82.125 9.63281C81.98828 9.91016 81.81445 10.20898 81.60352 10.5293L81.60352 10.5293L80.63086 12M87.73828 5.44922L89.08594 5.44922L89.08594 6.35156L87.73828 6.35156L87.73828 10.30078C87.73828 10.59375 87.79785 10.80762 87.91699 10.94238C88.03613 11.07715 88.23437 11.14453 88.51172 11.14453L88.51172 11.14453C88.57813 11.14453 88.66309 11.13672 88.7666 11.12109C88.87012 11.10547 88.96484 11.08984 89.05078 11.07422L89.05078 11.07422L89.26758 11.96484C89.1582 12.00391 89.03418 12.0332 88.89551 12.05273C88.75684 12.07227 88.61914 12.08203 88.48242 12.08203L88.48242 12.08203C87.91602 12.08203 87.47461 11.93262 87.1582 11.63379C86.8418 11.33496 86.68359 10.91797 86.68359 10.38281L86.68359 10.38281L86.68359 6.35156L85.69922 6.35156L85.69922 5.44922L86.68359 5.44922L86.68359 3.89063L87.73828 3.89063L87.73828 5.44922" fill="#666666"/></g></g></g></svg>