<svg xmlns="http://www.w3.org/2000/svg" width="200" height="100" viewBox="0 0 200 100"><g><defs><clipPath id="clip-0"><rect x="0" y="0" width="200" height="100"/></clipPath></defs><g clip-path="url(#clip-0)"><g transform="matrix(1,0,0,1,10,10)"><rect x="0" y="0" width="180" height="80" rx="8" ry="8" fill="none"/></g><g transform="matrix(1,0,0,1,20,30)"><ellipse cx="20" cy="20" rx="20" ry="20" fill="none"/></g><g transform="matrix(1,0,0,1,75,25)"><path d="M6.140625 16.15625L6.140625 16.15625C5.109375 16.15625 4.186197757720947 15.921875 3.37109375 15.453125C2.5559895038604736 14.984375 1.9127603769302368 14.3046875 1.44140625 13.4140625C0.9700520634651184 12.5234375 0.734375 11.447916507720947 0.734375 10.1875L0.734375 10.1875C0.734375 8.921875 0.9713541865348816 7.8424482345581055 1.4453125 6.94921875C1.9192708730697632 6.0559892654418945 2.5651042461395264 5.375 3.3828125 4.90625C4.200520992279053 4.4375 5.119791507720947 4.203125 6.140625 4.203125L6.140625 4.203125C6.802083492279053 4.203125 7.41796875 4.2955732345581055 7.98828125 4.48046875C8.55859375 4.6653642654418945 9.065104484558105 4.9348955154418945 9.5078125 5.2890625C9.950520515441895 5.6432294845581055 10.3125 6.0768232345581055 10.59375 6.58984375C10.875 7.1028642654418945 11.059895515441895 7.6875 11.1484375 8.34375L11.1484375 8.34375L8.734375 8.34375C8.682291984558105 8.020833492279053 8.58203125 7.7356767654418945 8.43359375 7.48828125C8.28515625 7.2408857345581055 8.100260734558105 7.0299482345581055 7.87890625 6.85546875C7.657552242279053 6.6809892654418945 7.403645992279053 6.5481767654418945 7.1171875 6.45703125C6.830729007720947 6.3658857345581055 6.520833492279053 6.3203125 6.1875 6.3203125L6.1875 6.3203125C5.583333492279053 6.3203125 5.053385257720947 6.4713544845581055 4.59765625 6.7734375C4.141927242279053 7.0755205154418945 3.7877604961395264 7.5143232345581055 3.53515625 8.08984375C3.2825520038604736 8.665364742279053 3.15625 9.364583492279053 3.15625 10.1875L3.15625 10.1875C3.15625 11.026041507720947 3.2838542461395264 11.731770992279053 3.5390625 12.3046875C3.7942707538604736 12.877604246139526 4.1484375 13.309895753860474 4.6015625 13.6015625C5.0546875 13.893229246139526 5.580729007720947 14.0390625 6.1796875 14.0390625L6.1796875 14.0390625C6.513020992279053 14.0390625 6.821614742279053 13.993489503860474 7.10546875 13.90234375C7.389322757720947 13.811197996139526 7.64453125 13.678385496139526 7.87109375 13.50390625C8.09765625 13.329427003860474 8.28515625 13.1171875 8.43359375 12.8671875C8.58203125 12.6171875 8.684895515441895 12.333333253860474 8.7421875 12.015625L8.7421875 12.015625L11.15625 12.015625C11.09375 12.557291746139526 10.93359375 13.075520753860474 10.67578125 13.5703125C10.41796875 14.065104126930237 10.075520515441895 14.5078125 9.6484375 14.8984375C9.221354484558105 15.2890625 8.713541984558105 15.59635415673256 8.125 15.8203125C7.536458492279053 16.04427083209157 6.875 16.15625 6.140625 16.15625M15.2734375 16.171875L15.2734375 16.171875C14.721354246139526 16.171875 14.225260496139526 16.07421875 13.78515625 15.87890625C13.345052123069763 15.68359375 12.998697876930237 15.391927063465118 12.74609375 15.00390625C12.493489563465118 14.615885376930237 12.3671875 14.1328125 12.3671875 13.5546875L12.3671875 13.5546875C12.3671875 13.0703125 12.45703125 12.6640625 12.63671875 12.3359375C12.81640625 12.0078125 13.061197876930237 11.744791507720947 13.37109375 11.546875C13.680989623069763 11.348958492279053 14.032552003860474 11.197916507720947 14.42578125 11.09375C14.819010496139526 10.989583492279053 15.231770753860474 10.916666507720947 15.6640625 10.875L15.6640625 10.875C16.169270992279053 10.822916507720947 16.576822757720947 10.774739742279053 16.88671875 10.73046875C17.196614742279053 10.686197757720947 17.423177242279053 10.615885257720947 17.56640625 10.51953125C17.709635257720947 10.423177242279053 17.78125 10.28125 17.78125 10.09375L17.78125 10.09375L17.78125 10.0546875C17.78125 9.8046875 17.729166507720947 9.59375 17.625 9.421875C17.520833492279053 9.25 17.365885257720947 9.118489742279053 17.16015625 9.02734375C16.954427242279053 8.936197757720947 16.705729007720947 8.890625 16.4140625 8.890625L16.4140625 8.890625C16.111979007720947 8.890625 15.848958492279053 8.936197757720947 15.625 9.02734375C15.401041746139526 9.118489742279053 15.21875 9.239583492279053 15.078125 9.390625C14.9375 9.541666507720947 14.833333253860474 9.7109375 14.765625 9.8984375L14.765625 9.8984375L12.6171875 9.546875C12.768229186534882 9.036458492279053 13.018229126930237 8.604166507720947 13.3671875 8.25C13.716145873069763 7.8958330154418945 14.149739503860474 7.625 14.66796875 7.4375C15.186197996139526 7.25 15.770833253860474 7.15625 16.421875 7.15625L16.421875 7.15625C16.890625 7.15625 17.346354007720947 7.2122392654418945 17.7890625 7.32421875C18.231770992279053 7.4361982345581055 18.62890625 7.609375 18.98046875 7.84375C19.33203125 8.078125 19.610677242279053 8.384114742279053 19.81640625 8.76171875C20.022135734558105 9.139322757720947 20.125 9.591145992279053 20.125 10.1171875L20.125 10.1171875L20.125 16L17.90625 16L17.90625 14.7890625L17.828125 14.7890625C17.6875 15.059895813465118 17.5 15.298177063465118 17.265625 15.50390625C17.03125 15.70963540673256 16.748697757720947 15.87239582836628 16.41796875 15.9921875C16.087239742279053 16.11197916418314 15.705729246139526 16.171875 15.2734375 16.171875M15.9375 14.5234375L15.9375 14.5234375C16.307291507720947 14.5234375 16.631510257720947 14.450520873069763 16.91015625 14.3046875C17.188802242279053 14.158854126930237 17.40625 13.9609375 17.5625 13.7109375C17.71875 13.4609375 17.796875 13.182291746139526 17.796875 12.875L17.796875 12.875L17.796875 11.9296875C17.729166507720947 11.981770992279053 17.625 12.028645753860474 17.484375 12.0703125C17.34375 12.111979246139526 17.1875 12.1484375 17.015625 12.1796875C16.84375 12.2109375 16.674479007720947 12.239583253860474 16.5078125 12.265625C16.341145992279053 12.291666746139526 16.192708492279053 12.3125 16.0625 12.328125L16.0625 12.328125C15.776041746139526 12.369791746139526 15.5234375 12.4375 15.3046875 12.53125C15.0859375 12.625 14.916666746139526 12.748697996139526 14.796875 12.90234375C14.677083253860474 13.055989503860474 14.6171875 13.252604246139526 14.6171875 13.4921875L14.6171875 13.4921875C14.6171875 13.716145753860474 14.674479246139526 13.904947996139526 14.7890625 14.05859375C14.903645753860474 14.212239623069763 15.059895753860474 14.328125 15.2578125 14.40625C15.455729246139526 14.484375 15.682291746139526 14.5234375 15.9375 14.5234375M24.46875 16L22.125 16L22.125 7.265625L24.390625 7.265625L24.390625 8.7890625L24.484375 8.7890625C24.645833253860474 8.247395992279053 24.915364503860474 7.8385419845581055 25.29296875 7.5625C25.670572757720947 7.2864580154418945 26.104166507720947 7.1484375 26.59375 7.1484375L26.59375 7.1484375C26.713541507720947 7.1484375 26.84375 7.1549482345581055 26.984375 7.16796875C27.125 7.1809892654418945 27.247395992279053 7.2005205154418945 27.3515625 7.2265625L27.3515625 7.2265625L27.3515625 9.3203125C27.247395992279053 9.283854007720947 27.096354007720947 9.255208492279053 26.8984375 9.234375C26.700520992279053 9.213541507720947 26.513020992279053 9.203125 26.3359375 9.203125L26.3359375 9.203125C25.981770992279053 9.203125 25.661458492279053 9.279947757720947 25.375 9.43359375C25.088541746139526 9.587239742279053 24.865885496139526 9.80078125 24.70703125 10.07421875C24.548177003860474 10.34765625 24.46875 10.666666507720947 24.46875 11.03125L24.46875 11.03125L24.46875 16M31.828125 16.1484375L31.828125 16.1484375C31.161458253860474 16.1484375 30.55859375 15.975260416045785 30.01953125 15.62890625C29.48046875 15.282552063465118 29.0546875 14.774739623069763 28.7421875 14.10546875C28.4296875 13.436197996139526 28.2734375 12.6171875 28.2734375 11.6484375L28.2734375 11.6484375C28.2734375 10.653645992279053 28.43489581346512 9.822916507720947 28.7578125 9.15625C29.080729126930237 8.489583492279053 29.510416626930237 7.9895830154418945 30.046875 7.65625C30.583333253860474 7.3229169845581055 31.174479246139526 7.15625 31.8203125 7.15625L31.8203125 7.15625C32.31510400772095 7.15625 32.7265625 7.2395830154418945 33.0546875 7.40625C33.3828125 7.5729169845581055 33.6484375 7.7786455154418945 33.8515625 8.0234375C34.0546875 8.268229007720947 34.20572900772095 8.505208492279053 34.3046875 8.734375L34.3046875 8.734375L34.3828125 8.734375L34.3828125 4.359375L36.7265625 4.359375L36.7265625 16L34.421875 16L34.421875 14.6015625L34.3046875 14.6015625C34.20052099227905 14.8359375 34.04557275772095 15.071614563465118 33.83984375 15.30859375C33.63411474227905 15.54557290673256 33.3671875 15.74479165673256 33.0390625 15.90625C32.7109375 16.06770833581686 32.30729150772095 16.1484375 31.828125 16.1484375M32.5546875 14.265625L32.5546875 14.265625C32.95052099227905 14.265625 33.2890625 14.15625 33.5703125 13.9375C33.8515625 13.71875 34.06510400772095 13.412760496139526 34.2109375 13.01953125C34.35677099227905 12.626302003860474 34.4296875 12.166666746139526 34.4296875 11.640625L34.4296875 11.640625C34.4296875 11.109375 34.35807275772095 10.649739742279053 34.21484375 10.26171875C34.07161474227905 9.873697757720947 33.859375 9.571614742279053 33.578125 9.35546875C33.296875 9.139322757720947 32.95572900772095 9.03125 32.5546875 9.03125L32.5546875 9.03125C32.14322900772095 9.03125 31.798177242279053 9.143229007720947 31.51953125 9.3671875C31.240885496139526 9.591145992279053 31.03125 9.8984375 30.890625 10.2890625C30.75 10.6796875 30.6796875 11.130208492279053 30.6796875 11.640625L30.6796875 11.640625C30.6796875 12.151041746139526 30.751302003860474 12.604166746139526 30.89453125 13C31.037760496139526 13.395833253860474 31.248697996139526 13.705729246139526 31.52734375 13.9296875C31.805989742279053 14.153645873069763 32.1484375 14.265625 32.5546875 14.265625M45.6640625 6.3359375L42.1015625 6.3359375L42.1015625 4.359375L51.609375 4.359375L51.609375 6.3359375L48.0546875 6.3359375L48.0546875 16L45.6640625 16L45.6640625 6.3359375M55.5390625 16L53.1953125 16L53.1953125 7.265625L55.5390625 7.265625L55.5390625 16M54.3671875 6.125L54.3671875 6.125C54.01302087306976 6.125 53.7109375 6.0078125 53.4609375 5.7734375C53.2109375 5.5390625 53.0859375 5.2552080154418945 53.0859375 4.921875L53.0859375 4.921875C53.0859375 4.5885419845581055 53.2109375 4.3046875 53.4609375 4.0703125C53.7109375 3.8359375 54.01302087306976 3.71875 54.3671875 3.71875L54.3671875 3.71875C54.721354246139526 3.71875 55.024739503860474 3.8346357345581055 55.27734375 4.06640625C55.529947996139526 4.2981767654418945 55.65625 4.5833330154418945 55.65625 4.921875L55.65625 4.921875C55.65625 5.2552080154418945 55.529947996139526 5.5390625 55.27734375 5.7734375C55.024739503860474 6.0078125 54.721354246139526 6.125 54.3671875 6.125M60.234375 7.265625L61.8671875 7.265625L61.8671875 9.0546875L60.234375 9.0546875L60.234375 13.4453125C60.234375 13.721354246139526 60.295572996139526 13.92578125 60.41796875 14.05859375C60.54036474227905 14.19140625 60.74479150772095 14.2578125 61.03125 14.2578125L61.03125 14.2578125C61.11979150772095 14.2578125 61.24479150772095 14.24609375 61.40625 14.22265625C61.56770849227905 14.19921875 61.69010400772095 14.177083373069763 61.7734375 14.15625L61.7734375 14.15625L62.109375 15.9140625C61.84895849227905 15.9921875 61.58984375 16.046875 61.33203125 16.078125C61.07421875 16.109375 60.828125 16.125 60.59375 16.125L60.59375 16.125C59.71875 16.125 59.049479246139526 15.91145833581686 58.5859375 15.484375C58.12239587306976 15.057291686534882 57.890625 14.4453125 57.890625 13.6484375L57.890625 13.6484375L57.890625 9.0546875L56.6875 9.0546875L56.6875 7.265625L57.890625 7.265625L57.890625 5.1875L60.234375 5.1875L60.234375 7.265625M63.390625 4.359375L65.734375 4.359375L65.734375 16L63.390625 16L63.390625 4.359375M71.671875 16.171875L71.671875 16.171875C70.78125 16.171875 70.01302075386047 15.989583333022892 69.3671875 15.625C68.72135412693024 15.260416686534882 68.22526037693024 14.7421875 67.87890625 14.0703125C67.53255206346512 13.3984375 67.359375 12.6015625 67.359375 11.6796875L67.359375 11.6796875C67.359375 10.778645992279053 67.53125 9.989583492279053 67.875 9.3125C68.21875 8.635416507720947 68.70572912693024 8.106770992279053 69.3359375 7.7265625C69.96614575386047 7.3463544845581055 70.70572924613953 7.15625 71.5546875 7.15625L71.5546875 7.15625C72.12760400772095 7.15625 72.66145849227905 7.2473955154418945 73.15625 7.4296875C73.65104150772095 7.6119794845581055 74.0859375 7.88671875 74.4609375 8.25390625C74.8359375 8.62109375 75.12890625 9.080729007720947 75.33984375 9.6328125C75.55078125 10.184895992279053 75.65625 10.8359375 75.65625 11.5859375L75.65625 11.5859375L75.65625 12.2421875L69.6796875 12.2421875C69.6953125 12.684895753860474 69.78125 13.0625 69.9375 13.375L69.9375 13.375C70.10416674613953 13.71875 70.33984375 13.9765625 70.64453125 14.1484375C70.94921875 14.3203125 71.3046875 14.40625 71.7109375 14.40625L71.7109375 14.40625C71.98697900772095 14.40625 72.23697900772095 14.3671875 72.4609375 14.2890625C72.68489599227905 14.2109375 72.87630224227905 14.095052123069763 73.03515625 13.94140625C73.19401025772095 13.787760496139526 73.31510400772095 13.598958253860474 73.3984375 13.375L73.3984375 13.375L75.5234375 13.7734375C75.3828125 14.252604126930237 75.1380205154419 14.673177123069763 74.7890625 15.03515625C74.44010400772095 15.397135436534882 74.00390625 15.67708334326744 73.48046875 15.875C72.95703125 16.07291666418314 72.35416650772095 16.171875 71.671875 16.171875M69.6953125 10.7734375L69.6953125 10.7734375L73.3984375 10.7734375C73.3671875 10.481770992279053 73.3046875 10.216145992279053 73.2109375 9.9765625L73.2109375 9.9765625C73.0703125 9.643229007720947 72.86328125 9.384114742279053 72.58984375 9.19921875C72.31640625 9.014322757720947 71.97916650772095 8.921875 71.578125 8.921875L71.578125 8.921875C71.171875 8.921875 70.82682275772095 9.015625 70.54296875 9.203125C70.25911450386047 9.390625 70.04427075386047 9.643229007720947 69.8984375 9.9609375L69.8984375 9.9609375C69.7890625 10.205729007720947 69.72135424613953 10.4765625 69.6953125 10.7734375" fill="#000000"/></g><g transform="matrix(1,0,0,1,75,55)"><path d="M3.779296875 12L3.779296875 12L1.0546875 12L1.0546875 3.26953125L3.890625 3.26953125C4.7421873807907104 3.26953125 5.4697265625 3.443359136581421 6.0732421875 3.791015625C6.6767578125 4.138672113418579 7.1396484375 4.6376953125 7.4619140625 5.2880859375C7.7841796875 5.9384765625 7.9453125 6.71484375 7.9453125 7.6171875L7.9453125 7.6171875C7.9453125 8.52734363079071 7.783203363418579 9.309570372104645 7.458984375 9.9638671875C7.134765386581421 10.618164092302322 6.662109375 11.12109375 6.041015625 11.47265625C5.419921875 11.82421875 4.6660155057907104 12 3.779296875 12M2.16796875 4.25390625L2.16796875 11.015625L3.708984375 11.015625C4.4199217557907104 11.015625 5.0087889432907104 10.879882782697678 5.4755859375 10.6083984375C5.9423829317092896 10.336914002895355 6.291015386581421 9.947265565395355 6.521484375 9.439453125C6.751953363418579 8.93164050579071 6.8671875 8.32421886920929 6.8671875 7.6171875L6.8671875 7.6171875C6.8671875 6.9179688692092896 6.7529296875 6.3173829317092896 6.5244140625 5.8154296875C6.2958984375 5.313476800918579 5.9560546875 4.927734375 5.5048828125 4.658203125C5.0537109375 4.388671875 4.4902342557907104 4.25390625 3.814453125 4.25390625L3.814453125 4.25390625L2.16796875 4.25390625M12.33984375 12.140625L12.33984375 12.140625C11.70703125 12.140625 11.161132872104645 12 10.7021484375 11.71875C10.243164002895355 11.4375 9.889648407697678 11.044921875 9.6416015625 10.541015625C9.393554672598839 10.037109375 9.26953125 9.449218690395355 9.26953125 8.77734375C9.26953125 8.10546863079071 9.390624985098839 7.5136717557907104 9.6328125 7.001953125C9.874999970197678 6.4902344942092896 10.217773497104645 6.0898436307907104 10.6611328125 5.80078125C11.104492127895355 5.511718511581421 11.623046815395355 5.3671875 12.216796875 5.3671875L12.216796875 5.3671875C12.56445300579071 5.3671875 12.90722644329071 5.424804925918579 13.2451171875 5.5400390625C13.58300793170929 5.655273199081421 13.8896484375 5.840820550918579 14.1650390625 6.0966796875C14.4404296875 6.3525391817092896 14.66015625 6.6894532442092896 14.82421875 7.107421875C14.98828125 7.5253905057907104 15.0703125 8.03710949420929 15.0703125 8.642578125L15.0703125 8.642578125L15.0703125 9.08203125L10.3359375 9.08203125C10.351562440395355 9.50390625 10.435546875 9.8671875 10.587890625 10.171875L10.587890625 10.171875C10.755859315395355 10.51171875 10.991210997104645 10.768554657697678 11.2939453125 10.9423828125C11.596679627895355 11.116210967302322 11.947265625 11.203125 12.345703125 11.203125L12.345703125 11.203125C12.603515625 11.203125 12.837890625 11.166015654802322 13.048828125 11.091796875C13.259765625 11.017578095197678 13.44140625 10.905273467302322 13.59375 10.7548828125C13.74609375 10.604492157697678 13.86328125 10.41796875 13.9453125 10.1953125L13.9453125 10.1953125L14.96484375 10.4765625C14.863281011581421 10.8046875 14.691406488418579 11.093749970197678 14.44921875 11.34375C14.20703136920929 11.593749985098839 13.9072265625 11.7890625 13.5498046875 11.9296875C13.1923828125 12.0703125 12.78906261920929 12.140625 12.33984375 12.140625M10.341796875 8.19140625L10.341796875 8.19140625L13.998046875 8.19140625C13.97070300579071 7.8945311307907104 13.90820324420929 7.6210938692092896 13.810546875 7.37109375L13.810546875 7.37109375C13.67382824420929 7.0390623807907104 13.47265613079071 6.7783201932907104 13.20703125 6.5888671875C12.94140636920929 6.3994141817092896 12.61132800579071 6.3046875 12.216796875 6.3046875C11.82226574420929 6.3046875 11.484375 6.4013671875 11.203125 6.5947265625C10.921875 6.7880859375 10.707031309604645 7.0390623807907104 10.55859375 7.34765625L10.55859375 7.34765625C10.433593690395355 7.6132811307907104 10.361328184604645 7.8945311307907104 10.341796875 8.19140625M18.80859375 12.140625L18.80859375 12.140625C18.359375059604645 12.140625 17.959960877895355 12.075195310637355 17.6103515625 11.9443359375C17.260742247104645 11.81347655877471 16.972656279802322 11.619140625 16.74609375 11.361328125C16.519531220197678 11.103515625 16.36718751490116 10.787109375 16.2890625 10.412109375L16.2890625 10.412109375L17.291015625 10.171875C17.384765625 10.531249970197678 17.561523377895355 10.794921845197678 17.8212890625 10.962890625C18.081054747104645 11.130859404802322 18.406250059604645 11.21484375 18.796875 11.21484375L18.796875 11.21484375C19.25390625 11.21484375 19.61816418170929 11.117187470197678 19.8896484375 10.921875C20.16113269329071 10.726562529802322 20.296875 10.494140625 20.296875 10.224609375L20.296875 10.224609375C20.296875 9.998046934604645 20.2177734375 9.809570252895355 20.0595703125 9.6591796875C19.9013671875 9.508789122104645 19.66015613079071 9.396484315395355 19.3359375 9.322265625L19.3359375 9.322265625L18.24609375 9.064453125C17.652343690395355 8.923828125 17.210937559604645 8.70605456829071 16.921875 8.4111328125C16.632812529802322 8.11621105670929 16.48828125 7.7382813692092896 16.48828125 7.27734375L16.48828125 7.27734375C16.48828125 6.90234375 16.59375 6.5712890625 16.8046875 6.2841796875C17.015625 5.9970703125 17.303710877895355 5.772460699081421 17.6689453125 5.6103515625C18.034179747104645 5.448242425918579 18.449218690395355 5.3671875 18.9140625 5.3671875L18.9140625 5.3671875C19.36328136920929 5.3671875 19.74511706829071 5.4345703125 20.0595703125 5.5693359375C20.37402355670929 5.7041015625 20.62988269329071 5.889648199081421 20.8271484375 6.1259765625C21.02441418170929 6.3623045682907104 21.17187488079071 6.6347655057907104 21.26953125 6.943359375L21.26953125 6.943359375L20.314453125 7.189453125C20.22460949420929 6.955078125 20.07519543170929 6.7421876192092896 19.8662109375 6.55078125C19.65722644329071 6.3593748807907104 19.341796875 6.263671875 18.919921875 6.263671875L18.919921875 6.263671875C18.529296934604645 6.263671875 18.204101622104645 6.3535155057907104 17.9443359375 6.533203125C17.684570252895355 6.7128907442092896 17.5546875 6.9394530057907104 17.5546875 7.212890625L17.5546875 7.212890625C17.5546875 7.4550780057907104 17.642578125 7.6494140625 17.818359375 7.7958984375C17.994140625 7.9423828125 18.273437440395355 8.06054699420929 18.65625 8.150390625L18.65625 8.150390625L19.646484375 8.384765625C20.24023425579071 8.525390625 20.67968738079071 8.74316418170929 20.96484375 9.0380859375C21.25000011920929 9.333007872104645 21.392578125 9.705078184604645 21.392578125 10.154296875L21.392578125 10.154296875C21.392578125 10.537109345197678 21.2841796875 10.8779296875 21.0673828125 11.1767578125C20.8505859375 11.4755859375 20.54785144329071 11.71093750745058 20.1591796875 11.8828125C19.77050793170929 12.054687498137355 19.32031238079071 12.140625 18.80859375 12.140625M25.58203125 12.140625L25.58203125 12.140625C24.988281190395355 12.140625 24.467773497104645 12 24.0205078125 11.71875C23.573242127895355 11.4375 23.224609404802322 11.042968779802322 22.974609375 10.53515625C22.72460938990116 10.027343809604645 22.599609375 9.437499940395355 22.599609375 8.765625L22.599609375 8.765625C22.599609375 8.08203113079071 22.72460938990116 7.4853515625 22.974609375 6.9755859375C23.224609404802322 6.4658203125 23.573242127895355 6.0703125 24.0205078125 5.7890625C24.467773497104645 5.5078125 24.988281190395355 5.3671875 25.58203125 5.3671875L25.58203125 5.3671875C25.8984375 5.3671875 26.197265625 5.408203125 26.478515625 5.490234375C26.759765625 5.572265625 27.01660144329071 5.690429449081421 27.2490234375 5.8447265625C27.48144543170929 5.999023675918579 27.68164050579071 6.1884766817092896 27.849609375 6.4130859375C28.01757788658142 6.6376951932907104 28.14648413658142 6.8925780057907104 28.236328125 7.177734375L28.236328125 7.177734375L27.22265625 7.46484375C27.17578125 7.2968748807907104 27.10351574420929 7.142578125 27.005859375 7.001953125C26.90820300579071 6.861328125 26.79003918170929 6.7392579317092896 26.6513671875 6.6357421875C26.51269519329071 6.5322264432907104 26.35351574420929 6.4521485567092896 26.173828125 6.3955078125C25.99414050579071 6.3388670682907104 25.79687511920929 6.310546875 25.58203125 6.310546875L25.58203125 6.310546875C25.14453113079071 6.310546875 24.78515625 6.4248046875 24.50390625 6.6533203125C24.22265625 6.8818359375 24.013671934604645 7.1816407442092896 23.876953125 7.552734375C23.740234315395355 7.9238280057907104 23.671875 8.32812488079071 23.671875 8.765625L23.671875 8.765625C23.671875 9.195312559604645 23.740234315395355 9.5947265625 23.876953125 9.9638671875C24.013671934604645 10.3330078125 24.22265625 10.630859345197678 24.50390625 10.857421875C24.78515625 11.083984404802322 25.14453113079071 11.197265625 25.58203125 11.197265625L25.58203125 11.197265625C25.80078113079071 11.197265625 26.00195324420929 11.16796875 26.185546875 11.109375C26.36914050579071 11.05078125 26.53222668170929 10.967773407697678 26.6748046875 10.8603515625C26.81738269329071 10.752929717302322 26.93749988079071 10.624999970197678 27.03515625 10.4765625C27.13281261920929 10.328124940395355 27.205078125 10.166015625 27.251953125 9.990234375L27.251953125 9.990234375L28.259765625 10.27734375C28.17382836341858 10.5703125 28.0458984375 10.8310546875 27.8759765625 11.0595703125C27.7060546875 11.2880859375 27.50390625 11.483398452401161 27.26953125 11.6455078125C27.03515625 11.80761719495058 26.77539074420929 11.930664064362645 26.490234375 12.0146484375C26.20507800579071 12.09863281622529 25.90234386920929 12.140625 25.58203125 12.140625M30.826171875 12L29.771484375 12L29.771484375 5.44921875L30.791015625 5.44921875L30.791015625 6.45703125L30.861328125 6.45703125C30.982421815395355 6.1249998807907104 31.1982421875 5.858398675918579 31.5087890625 5.6572265625C31.8193359375 5.456054449081421 32.16992175579071 5.35546875 32.560546875 5.35546875L32.560546875 5.35546875C32.63867175579071 5.35546875 32.73144543170929 5.357422113418579 32.8388671875 5.361328125C32.94628894329071 5.365234136581421 33.03124988079071 5.369140863418579 33.09375 5.373046875L33.09375 5.373046875L33.09375 6.43359375C33.06250011920929 6.4257813692092896 32.98437488079071 6.4140626192092896 32.859375 6.3984375C32.73437511920929 6.3828123807907104 32.6015625 6.375 32.4609375 6.375L32.4609375 6.375C32.14843761920929 6.375 31.86816394329071 6.4404298067092896 31.6201171875 6.5712890625C31.372070252895355 6.7021483182907104 31.177734375 6.8818359375 31.037109375 7.1103515625C30.896484375 7.3388671875 30.826171875 7.6015623807907104 30.826171875 7.8984375L30.826171875 7.8984375L30.826171875 12M35.34375 12L34.2890625 12L34.2890625 5.44921875L35.34375 5.44921875L35.34375 12M34.822265625 4.376953125L34.822265625 4.376953125C34.623046875 4.376953125 34.45117190480232 4.308593988418579 34.306640625 4.171875C34.16210934519768 4.035156011581421 34.08984375 3.871093511581421 34.08984375 3.6796875L34.08984375 3.6796875C34.08984375 3.484374761581421 34.16210934519768 3.3193359375 34.306640625 3.1845703125C34.45117190480232 3.0498046875 34.623046875 2.982421875 34.822265625 2.982421875L34.822265625 2.982421875C35.025390565395355 2.982421875 35.199218809604645 3.0498046875 35.34375 3.1845703125C35.488281190395355 3.3193359375 35.560546875 3.484374761581421 35.560546875 3.6796875L35.560546875 3.6796875C35.560546875 3.871093511581421 35.488281190395355 4.035156011581421 35.34375 4.171875C35.199218809604645 4.308593988418579 35.025390565395355 4.376953125 34.822265625 4.376953125M38.25 14.44921875L37.1953125 14.44921875L37.1953125 5.44921875L38.21484375 5.44921875L38.21484375 6.498046875L38.33203125 6.498046875C38.406249940395355 6.380859375 38.509765684604645 6.2333983182907104 38.642578125 6.0556640625C38.775390565395355 5.877929449081421 38.966796934604645 5.71875 39.216796875 5.578125C39.46679699420929 5.4375 39.80468738079071 5.3671875 40.23046875 5.3671875L40.23046875 5.3671875C40.77734363079071 5.3671875 41.2587890625 5.503906488418579 41.6748046875 5.77734375C42.0908203125 6.0507813692092896 42.41699194908142 6.4404298067092896 42.6533203125 6.9462890625C42.88964867591858 7.4521483182907104 43.0078125 8.05078125 43.0078125 8.7421875L43.0078125 8.7421875C43.0078125 9.437499940395355 42.890625 10.039062559604645 42.65625 10.546875C42.421875 11.054687529802322 42.0966796875 11.447265610098839 41.6806640625 11.724609375C41.2646484375 12.001953125058208 40.78320300579071 12.140625 40.236328125 12.140625L40.236328125 12.140625C39.82226550579071 12.140625 39.48828113079071 12.069335935637355 39.234375 11.9267578125C38.980468690395355 11.78417969495058 38.785156309604645 11.6220703125 38.6484375 11.4404296875C38.511718690395355 11.2587890625 38.406249940395355 11.107421904802322 38.33203125 10.986328125L38.33203125 10.986328125L38.25 10.986328125L38.25 14.44921875M40.078125 11.197265625L40.078125 11.197265625C40.48828125 11.197265625 40.8310546875 11.086914092302322 41.1064453125 10.8662109375C41.3818359375 10.645507782697678 41.58886706829071 10.348632752895355 41.7275390625 9.9755859375C41.86621105670929 9.602539122104645 41.935546875 9.1875 41.935546875 8.73046875L41.935546875 8.73046875C41.935546875 8.27734386920929 41.86718738079071 7.8681639432907104 41.73046875 7.5029296875C41.59375011920929 7.1376954317092896 41.3876953125 6.8476563692092896 41.1123046875 6.6328125C40.8369140625 6.4179686307907104 40.49218761920929 6.310546875 40.078125 6.310546875L40.078125 6.310546875C39.67578113079071 6.310546875 39.33789074420929 6.4121092557907104 39.064453125 6.615234375C38.791015684604645 6.8183594942092896 38.584960877895355 7.1005858182907104 38.4462890625 7.4619140625C38.307617247104645 7.8232423067092896 38.23828125 8.24609363079071 38.23828125 8.73046875L38.23828125 8.73046875C38.23828125 9.214843690395355 38.30859375 9.642578065395355 38.44921875 10.013671875C38.58984375 10.384765684604645 38.7978515625 10.674804657697678 39.0732421875 10.8837890625C39.3486328125 11.092773467302322 39.68359386920929 11.197265625 40.078125 11.197265625M45.7734375 5.44921875L47.12109375 5.44921875L47.12109375 6.3515625L45.7734375 6.3515625L45.7734375 10.30078125C45.7734375 10.59375 45.833007752895355 10.8076171875 45.9521484375 10.9423828125C46.071289122104645 11.0771484375 46.269531190395355 11.14453125 46.546875 11.14453125L46.546875 11.14453125C46.613281309604645 11.14453125 46.69824206829071 11.136718779802322 46.8017578125 11.12109375C46.90527355670929 11.105468720197678 46.99999988079071 11.089843779802322 47.0859375 11.07421875L47.0859375 11.07421875L47.302734375 11.96484375C47.19335925579071 12.003906250116415 47.06933605670929 12.033203124068677 46.9306640625 12.052734375C46.79199206829071 12.072265623137355 46.65429675579071 12.08203125 46.517578125 12.08203125L46.517578125 12.08203125C45.951171934604645 12.08203125 45.509765625 11.9326171875 45.193359375 11.6337890625C44.876953125 11.3349609375 44.71875 10.917968720197678 44.71875 10.3828125L44.71875 10.3828125L44.71875 6.3515625L43.734375 6.3515625L43.734375 5.44921875L44.71875 5.44921875L44.71875 3.890625L45.7734375 3.890625L45.7734375 5.44921875M49.5234375 12L48.46875 12L48.46875 5.44921875L49.5234375 5.44921875L49.5234375 12M49.001953125 4.376953125L49.001953125 4.376953125C48.802734375 4.376953125 48.63085940480232 4.308593988418579 48.486328125 4.171875C48.34179684519768 4.035156011581421 48.26953125 3.871093511581421 48.26953125 3.6796875L48.26953125 3.6796875C48.26953125 3.484374761581421 48.34179684519768 3.3193359375 48.486328125 3.1845703125C48.63085940480232 3.0498046875 48.802734375 2.982421875 49.001953125 2.982421875L49.001953125 2.982421875C49.205078065395355 2.982421875 49.378906309604645 3.0498046875 49.5234375 3.1845703125C49.667968690395355 3.3193359375 49.740234375 3.484374761581421 49.740234375 3.6796875L49.740234375 3.6796875C49.740234375 3.871093511581421 49.667968690395355 4.035156011581421 49.5234375 4.171875C49.378906309604645 4.308593988418579 49.205078065395355 4.376953125 49.001953125 4.376953125M54.041015625 12.140625L54.041015625 12.140625C53.447265565395355 12.140625 52.926757872104645 12 52.4794921875 11.71875C52.032226502895355 11.4375 51.68359377980232 11.042968779802322 51.43359375 10.53515625C51.18359376490116 10.027343809604645 51.05859375 9.437499940395355 51.05859375 8.765625L51.05859375 8.765625C51.05859375 8.08203113079071 51.18359376490116 7.4853515625 51.43359375 6.9755859375C51.68359377980232 6.4658203125 52.032226502895355 6.0703125 52.4794921875 5.7890625C52.926757872104645 5.5078125 53.447265565395355 5.3671875 54.041015625 5.3671875L54.041015625 5.3671875C54.638671875 5.3671875 55.16210925579071 5.5078125 55.611328125 5.7890625C56.06054699420929 6.0703125 56.41015613079071 6.4658203125 56.66015625 6.9755859375C56.91015601158142 7.4853515625 57.03515625 8.08203113079071 57.03515625 8.765625L57.03515625 8.765625C57.03515625 9.437499940395355 56.91015601158142 10.027343809604645 56.66015625 10.53515625C56.41015613079071 11.042968779802322 56.06054699420929 11.4375 55.611328125 11.71875C55.16210925579071 12 54.638671875 12.140625 54.041015625 12.140625M54.041015625 11.197265625L54.041015625 11.197265625C54.48242175579071 11.197265625 54.84570300579071 11.083984404802322 55.130859375 10.857421875C55.41601574420929 10.630859345197678 55.62695324420929 10.3330078125 55.763671875 9.9638671875C55.90039050579071 9.5947265625 55.96875 9.195312559604645 55.96875 8.765625L55.96875 8.765625C55.96875 8.33203125 55.90039050579071 7.9287110567092896 55.763671875 7.5556640625C55.62695324420929 7.1826170682907104 55.41601574420929 6.8818359375 55.130859375 6.6533203125C54.84570300579071 6.4248046875 54.48242175579071 6.310546875 54.041015625 6.310546875L54.041015625 6.310546875C53.60351550579071 6.310546875 53.244140625 6.4248046875 52.962890625 6.6533203125C52.681640625 6.8818359375 52.472656309604645 7.1816407442092896 52.3359375 7.552734375C52.199218690395355 7.9238280057907104 52.130859375 8.32812488079071 52.130859375 8.765625L52.130859375 8.765625C52.130859375 9.195312559604645 52.199218690395355 9.5947265625 52.3359375 9.9638671875C52.472656309604645 10.3330078125 52.681640625 10.630859345197678 52.962890625 10.857421875C53.244140625 11.083984404802322 53.60351550579071 11.197265625 54.041015625 11.197265625M59.625 8.07421875L59.625 8.07421875L59.625 12L58.5703125 12L58.5703125 5.44921875L59.583984375 5.44921875L59.58984375 6.662109375C59.773437559604645 6.251953125 60.009765565395355 5.947265625 60.298828125 5.748046875L60.298828125 5.748046875C60.66601574420929 5.494140386581421 61.09765613079071 5.3671875 61.59375 5.3671875L61.59375 5.3671875C62.03515613079071 5.3671875 62.42187488079071 5.4580078125 62.75390625 5.6396484375C63.08593761920929 5.8212890625 63.34472644329071 6.0947266817092896 63.5302734375 6.4599609375C63.71582007408142 6.8251951932907104 63.80859375 7.2851561307907104 63.80859375 7.83984375L63.80859375 7.83984375L63.80859375 12L62.75390625 12L62.75390625 7.927734375C62.75390625 7.423828125 62.6220703125 7.0292969942092896 62.3583984375 6.744140625C62.0947265625 6.4589842557907104 61.734375 6.31640625 61.27734375 6.31640625L61.27734375 6.31640625C60.96484386920929 6.31640625 60.68359386920929 6.3847657442092896 60.43359375 6.521484375C60.183593809604645 6.6582030057907104 59.986328065395355 6.8574217557907104 59.841796875 7.119140625C59.697265684604645 7.3808594942092896 59.625 7.69921875 59.625 8.07421875M70.265625 5.44921875L71.61328125 5.44921875L71.61328125 6.3515625L70.265625 6.3515625L70.265625 10.30078125C70.265625 10.59375 70.32519525289536 10.8076171875 70.4443359375 10.9423828125C70.56347662210464 11.0771484375 70.76171869039536 11.14453125 71.0390625 11.14453125L71.0390625 11.14453125C71.10546880960464 11.14453125 71.19042956829071 11.136718779802322 71.2939453125 11.12109375C71.39746105670929 11.105468720197678 71.49218738079071 11.089843779802322 71.578125 11.07421875L71.578125 11.07421875L71.794921875 11.96484375C71.68554675579071 12.003906250116415 71.56152355670929 12.033203124068677 71.4228515625 12.052734375C71.28417956829071 12.072265623137355 71.14648425579071 12.08203125 71.009765625 12.08203125L71.009765625 12.08203125C70.44335943460464 12.08203125 70.001953125 11.9326171875 69.685546875 11.6337890625C69.369140625 11.3349609375 69.2109375 10.917968720197678 69.2109375 10.3828125L69.2109375 10.3828125L69.2109375 6.3515625L68.2265625 6.3515625L68.2265625 5.44921875L69.2109375 5.44921875L69.2109375 3.890625L70.265625 3.890625L70.265625 5.44921875M75.71484375 12.140625L75.71484375 12.140625C75.08203125 12.140625 74.53613287210464 12 74.0771484375 11.71875C73.61816400289536 11.4375 73.26464840769768 11.044921875 73.0166015625 10.541015625C72.76855467259884 10.037109375 72.64453125 9.449218690395355 72.64453125 8.77734375C72.64453125 8.10546863079071 72.76562498509884 7.5136717557907104 73.0078125 7.001953125C73.24999997019768 6.4902344942092896 73.59277349710464 6.0898436307907104 74.0361328125 5.80078125C74.47949212789536 5.511718511581421 74.99804681539536 5.3671875 75.591796875 5.3671875L75.591796875 5.3671875C75.93945300579071 5.3671875 76.28222644329071 5.424804925918579 76.6201171875 5.5400390625C76.95800793170929 5.655273199081421 77.2646484375 5.840820550918579 77.5400390625 6.0966796875C77.8154296875 6.3525391817092896 78.03515625 6.6894532442092896 78.19921875 7.107421875C78.36328125 7.5253905057907104 78.4453125 8.03710949420929 78.4453125 8.642578125L78.4453125 8.642578125L78.4453125 9.08203125L73.7109375 9.08203125C73.72656244039536 9.50390625 73.810546875 9.8671875 73.962890625 10.171875L73.962890625 10.171875C74.13085931539536 10.51171875 74.36621099710464 10.768554657697678 74.6689453125 10.9423828125C74.97167962789536 11.116210967302322 75.322265625 11.203125 75.720703125 11.203125L75.720703125 11.203125C75.978515625 11.203125 76.212890625 11.166015654802322 76.423828125 11.091796875C76.634765625 11.017578095197678 76.81640625 10.905273467302322 76.96875 10.7548828125C77.12109375 10.604492157697678 77.23828125 10.41796875 77.3203125 10.1953125L77.3203125 10.1953125L78.33984375 10.4765625C78.23828101158142 10.8046875 78.06640648841858 11.093749970197678 77.82421875 11.34375C77.58203136920929 11.593749985098839 77.2822265625 11.7890625 76.9248046875 11.9296875C76.5673828125 12.0703125 76.16406261920929 12.140625 75.71484375 12.140625M73.716796875 8.19140625L73.716796875 8.19140625L77.373046875 8.19140625C77.34570300579071 7.8945311307907104 77.28320324420929 7.6210938692092896 77.185546875 7.37109375L77.185546875 7.37109375C77.04882824420929 7.0390623807907104 76.84765613079071 6.7783201932907104 76.58203125 6.5888671875C76.31640636920929 6.3994141817092896 75.98632800579071 6.3046875 75.591796875 6.3046875C75.19726574420929 6.3046875 74.859375 6.4013671875 74.578125 6.5947265625C74.296875 6.7880859375 74.08203130960464 7.0390623807907104 73.93359375 7.34765625L73.93359375 7.34765625C73.80859369039536 7.6132811307907104 73.73632818460464 7.8945311307907104 73.716796875 8.19140625M80.630859375 12L79.412109375 12L81.71484375 8.63671875L79.546875 5.44921875L80.77734375 5.44921875L81.591796875 6.720703125C81.802734375 7.048828125 81.98632818460464 7.3554686307907104 82.142578125 7.640625L82.142578125 7.640625C82.20507824420929 7.7617188692092896 82.271484375 7.8828123807907104 82.341796875 8.00390625L82.341796875 8.00390625C82.40429699420929 7.8828123807907104 82.46679675579071 7.7617188692092896 82.529296875 7.640625L82.529296875 7.640625C82.66601550579071 7.3554686307907104 82.84179675579071 7.048828125 83.056640625 6.720703125L83.056640625 6.720703125L83.888671875 5.44921875L85.095703125 5.44921875L82.904296875 8.6953125L85.201171875 12L83.9765625 12L83.015625 10.529296875C82.80859386920929 10.208984434604645 82.63085925579071 9.910156309604645 82.482421875 9.6328125L82.482421875 9.6328125C82.41992175579071 9.523437559604645 82.35742199420929 9.416015625 82.294921875 9.310546875L82.294921875 9.310546875C82.236328125 9.416015625 82.17968738079071 9.523437559604645 82.125 9.6328125L82.125 9.6328125C81.98828119039536 9.910156309604645 81.814453125 10.208984434604645 81.603515625 10.529296875L81.603515625 10.529296875L80.630859375 12M87.73828125 5.44921875L89.0859375 5.44921875L89.0859375 6.3515625L87.73828125 6.3515625L87.73828125 10.30078125C87.73828125 10.59375 87.79785150289536 10.8076171875 87.9169921875 10.9423828125C88.03613287210464 11.0771484375 88.23437494039536 11.14453125 88.51171875 11.14453125L88.51171875 11.14453125C88.57812505960464 11.14453125 88.66308581829071 11.136718779802322 88.7666015625 11.12109375C88.87011730670929 11.105468720197678 88.96484363079071 11.089843779802322 89.05078125 11.07421875L89.05078125 11.07421875L89.267578125 11.96484375C89.15820300579071 12.003906250116415 89.03417980670929 12.033203124068677 88.8955078125 12.052734375C88.75683581829071 12.072265623137355 88.61914050579071 12.08203125 88.482421875 12.08203125L88.482421875 12.08203125C87.91601568460464 12.08203125 87.474609375 11.9326171875 87.158203125 11.6337890625C86.841796875 11.3349609375 86.68359375 10.917968720197678 86.68359375 10.3828125L86.68359375 10.3828125L86.68359375 6.3515625L85.69921875 6.3515625L85.69921875 5.44921875L86.68359375 5.44921875L86.68359375 3.890625L87.73828125 3.890625L87.73828125 5.44921875" fill="#666666"/></g></g></g></svg>