<svg xmlns="http://www.w3.org/2000/svg" width="200" height="80" viewBox="0 0 200 80"><g><defs><clipPath id="clip-1"><rect x="0" y="0" width="200" height="80"/></clipPath></defs><g clip-path="url(#clip-1)"><g transform="matrix(1,0,0,1,20,15)"><defs><clipPath id="clip-0"><rect x="0" y="0" width="160" height="50"/></clipPath></defs><g clip-path="url(#clip-0)"><g transform="matrix(1,0,0,1,5,10)"><path d="M5.3525390625 14.13671875L5.3525390625 14.13671875C4.482096493244171 14.13671875 3.706217586994171 13.925944012589753 3.02490234375 13.50439453125C2.3435873091220856 13.082845017313957 1.80810546875 12.481282517313957 1.41845703125 11.69970703125C1.02880859375 10.918131440877914 0.833984375 9.989583194255829 0.833984375 8.9140625L0.833984375 8.9140625C0.833984375 7.833984375 1.02880859375 6.903157830238342 1.41845703125 6.12158203125C1.80810546875 5.340006232261658 2.3435873091220856 4.7373046875 3.02490234375 4.3134765625C3.706217586994171 3.8896484375 4.482096493244171 3.677734375 5.3525390625 3.677734375L5.3525390625 3.677734375C5.867512881755829 3.677734375 6.35400390625 3.7529296875 6.81201171875 3.9033203125C7.27001953125 4.0537109375 7.681314826011658 4.273599982261658 8.0458984375 4.56298828125C8.410482048988342 4.852376580238342 8.714681267738342 5.203287482261658 8.95849609375 5.61572265625C9.202310919761658 6.028157830238342 9.369791388511658 6.496419548988342 9.4609375 7.0205078125L9.4609375 7.0205078125L8.162109375 7.0205078125C8.089192986488342 6.669596076011658 7.965006232261658 6.361978888511658 7.78955078125 6.09765625C7.614095330238342 5.833333611488342 7.39990234375 5.610025763511658 7.14697265625 5.427734375C6.89404296875 5.245442986488342 6.614908993244171 5.108724236488342 6.3095703125 5.017578125C6.004231631755829 4.926432013511658 5.685221493244171 4.880859375 5.3525390625 4.880859375L5.3525390625 4.880859375C4.741862118244171 4.880859375 4.1904296875 5.035807013511658 3.6982421875 5.345703125C3.2060546875 5.655599236488342 2.81640625 6.110189080238342 2.529296875 6.70947265625C2.2421875 7.308756649494171 2.0986328125 8.043619930744171 2.0986328125 8.9140625L2.0986328125 8.9140625C2.0986328125 9.779948055744171 2.2433267533779144 10.512532621622086 2.53271484375 11.11181640625C2.8221029341220856 11.711100190877914 3.212890625 12.16455078125 3.705078125 12.47216796875C4.197265625 12.77978515625 4.746419131755829 12.93359375 5.3525390625 12.93359375L5.3525390625 12.93359375C5.685221493244171 12.93359375 6.004231631755829 12.886881545186043 6.3095703125 12.79345703125C6.614908993244171 12.700032517313957 6.89404296875 12.563313767313957 7.14697265625 12.38330078125C7.39990234375 12.203287690877914 7.614095330238342 11.97998046875 7.78955078125 11.71337890625C7.965006232261658 11.44677734375 8.089192986488342 11.140299409627914 8.162109375 10.7939453125L8.162109375 10.7939453125L9.4609375 10.7939453125C9.374349236488342 11.3134765625 9.209146857261658 11.7783203125 8.96533203125 12.1884765625C8.721517205238342 12.5986328125 8.417317986488342 12.949544236063957 8.052734375 13.2412109375C7.688150763511658 13.532877586781979 7.27685546875 13.75504558160901 6.81884765625 13.90771484375C6.36083984375 14.060384112410247 5.8720703125 14.13671875 5.3525390625 14.13671875M11.306640625 3.814453125L12.537109375 3.814453125L12.537109375 14L11.306640625 14L11.306640625 3.814453125M15.927734375 14L14.697265625 14L14.697265625 6.357421875L15.927734375 6.357421875L15.927734375 14M15.3193359375 5.1064453125L15.3193359375 5.1064453125C15.0869140625 5.1064453125 14.886393263936043 5.026692986488342 14.7177734375 4.8671875C14.549153611063957 4.707682013511658 14.46484375 4.516275763511658 14.46484375 4.29296875L14.46484375 4.29296875C14.46484375 4.065103888511658 14.549153611063957 3.87255859375 14.7177734375 3.71533203125C14.886393263936043 3.55810546875 15.0869140625 3.4794921875 15.3193359375 3.4794921875L15.3193359375 3.4794921875C15.556315034627914 3.4794921875 15.759114652872086 3.55810546875 15.927734375 3.71533203125C16.096354097127914 3.87255859375 16.1806640625 4.065103888511658 16.1806640625 4.29296875L16.1806640625 4.29296875C16.1806640625 4.516275763511658 16.096354097127914 4.707682013511658 15.927734375 4.8671875C15.759114652872086 5.026692986488342 15.556315034627914 5.1064453125 15.3193359375 5.1064453125M19.318359375 16.857421875L18.087890625 16.857421875L18.087890625 6.357421875L19.27734375 6.357421875L19.27734375 7.5810546875L19.4140625 7.5810546875C19.500650972127914 7.4443359375 19.621419340372086 7.272298038005829 19.7763671875 7.06494140625C19.931315034627914 6.857584357261658 20.154622465372086 6.671875 20.4462890625 6.5078125C20.73795586824417 6.34375 21.13216131925583 6.26171875 21.62890625 6.26171875L21.62890625 6.26171875C22.26692694425583 6.26171875 22.82861328125 6.421224236488342 23.31396484375 6.740234375C23.79931640625 7.059244930744171 24.179849982261658 7.513834774494171 24.45556640625 8.10400390625C24.731282830238342 8.694173038005829 24.869140625 9.392578125 24.869140625 10.19921875L24.869140625 10.19921875C24.869140625 11.010416597127914 24.732421875 11.712239652872086 24.458984375 12.3046875C24.185546875 12.897135451436043 23.80615234375 13.355143211781979 23.32080078125 13.6787109375C22.83544921875 14.002278645901242 22.27376288175583 14.1640625 21.6357421875 14.1640625L21.6357421875 14.1640625C21.15266913175583 14.1640625 20.76302069425583 14.080891924910247 20.466796875 13.91455078125C20.170572847127914 13.74820964410901 19.942708402872086 13.55908203125 19.783203125 13.34716796875C19.623697847127914 13.13525390625 19.500650972127914 12.958658888936043 19.4140625 12.8173828125L19.4140625 12.8173828125L19.318359375 12.8173828125L19.318359375 16.857421875M21.451171875 13.0634765625L21.451171875 13.0634765625C21.9296875 13.0634765625 22.32958984375 12.934733107686043 22.65087890625 12.67724609375C22.97216796875 12.419759079813957 23.21370428800583 12.073404878377914 23.37548828125 11.63818359375C23.53727227449417 11.202962309122086 23.6181640625 10.71875 23.6181640625 10.185546875L23.6181640625 10.185546875C23.6181640625 9.656901180744171 23.53841131925583 9.179524600505829 23.37890625 8.75341796875C23.21940118074417 8.327311336994171 22.97900390625 7.988932430744171 22.65771484375 7.73828125C22.33642578125 7.487630069255829 21.93424493074417 7.3623046875 21.451171875 7.3623046875L21.451171875 7.3623046875C20.98177069425583 7.3623046875 20.58756524324417 7.480794131755829 20.2685546875 7.7177734375C19.949544340372086 7.954752743244171 19.709147065877914 8.284016788005829 19.54736328125 8.70556640625C19.385579496622086 9.127116024494171 19.3046875 9.620442569255829 19.3046875 10.185546875L19.3046875 10.185546875C19.3046875 10.750650972127914 19.38671875 11.249674409627914 19.55078125 11.6826171875C19.71484375 12.115559965372086 19.95751953125 12.453938767313957 20.27880859375 12.69775390625C20.60009765625 12.941569045186043 20.99088555574417 13.0634765625 21.451171875 13.0634765625M27.890625 16.857421875L26.66015625 16.857421875L26.66015625 6.357421875L27.849609375 6.357421875L27.849609375 7.5810546875L27.986328125 7.5810546875C28.072916597127914 7.4443359375 28.193684965372086 7.272298038005829 28.3486328125 7.06494140625C28.503580659627914 6.857584357261658 28.726888090372086 6.671875 29.0185546875 6.5078125C29.31022149324417 6.34375 29.70442694425583 6.26171875 30.201171875 6.26171875L30.201171875 6.26171875C30.83919256925583 6.26171875 31.40087890625 6.421224236488342 31.88623046875 6.740234375C32.37158203125 7.059244930744171 32.75211560726166 7.513834774494171 33.02783203125 8.10400390625C33.30354845523834 8.694173038005829 33.44140625 9.392578125 33.44140625 10.19921875L33.44140625 10.19921875C33.44140625 11.010416597127914 33.3046875 11.712239652872086 33.03125 12.3046875C32.7578125 12.897135451436043 32.37841796875 13.355143211781979 31.89306640625 13.6787109375C31.40771484375 14.002278645901242 30.84602850675583 14.1640625 30.2080078125 14.1640625L30.2080078125 14.1640625C29.72493475675583 14.1640625 29.33528631925583 14.080891924910247 29.0390625 13.91455078125C28.742838472127914 13.74820964410901 28.514974027872086 13.55908203125 28.35546875 13.34716796875C28.195963472127914 13.13525390625 28.072916597127914 12.958658888936043 27.986328125 12.8173828125L27.986328125 12.8173828125L27.890625 12.8173828125L27.890625 16.857421875M30.0234375 13.0634765625L30.0234375 13.0634765625C30.501953125 13.0634765625 30.90185546875 12.934733107686043 31.22314453125 12.67724609375C31.54443359375 12.419759079813957 31.78596991300583 12.073404878377914 31.94775390625 11.63818359375C32.10953789949417 11.202962309122086 32.1904296875 10.71875 32.1904296875 10.185546875L32.1904296875 10.185546875C32.1904296875 9.656901180744171 32.11067694425583 9.179524600505829 31.951171875 8.75341796875C31.79166680574417 8.327311336994171 31.55126953125 7.988932430744171 31.22998046875 7.73828125C30.90869140625 7.487630069255829 30.50651055574417 7.3623046875 30.0234375 7.3623046875L30.0234375 7.3623046875C29.55403631925583 7.3623046875 29.15983086824417 7.480794131755829 28.8408203125 7.7177734375C28.521809965372086 7.954752743244171 28.281412690877914 8.284016788005829 28.11962890625 8.70556640625C27.957845121622086 9.127116024494171 27.876953125 9.620442569255829 27.876953125 10.185546875L27.876953125 10.185546875C27.876953125 10.750650972127914 27.958984375 11.249674409627914 28.123046875 11.6826171875C28.287109375 12.115559965372086 28.52978515625 12.453938767313957 28.85107421875 12.69775390625C29.17236328125 12.941569045186043 29.56315118074417 13.0634765625 30.0234375 13.0634765625M38.4453125 14.1640625L38.4453125 14.1640625C37.70703125 14.1640625 37.070149809122086 14 36.53466796875 13.671875C35.999186128377914 13.34375 35.58675126731396 12.8857421875 35.29736328125 12.2978515625C35.00797524303198 11.7099609375 34.86328125 11.024088472127914 34.86328125 10.240234375C34.86328125 9.456380069255829 35.00455727428198 8.765950381755829 35.287109375 8.1689453125C35.56966142356396 7.571940243244171 35.969563871622086 7.104817569255829 36.48681640625 6.767578125C37.004068940877914 6.430338263511658 37.609049409627914 6.26171875 38.3017578125 6.26171875L38.3017578125 6.26171875C38.70735663175583 6.26171875 39.10725897550583 6.328939080238342 39.50146484375 6.46337890625C39.89567071199417 6.597818732261658 40.25341796875 6.814290642738342 40.57470703125 7.11279296875C40.89599609375 7.411295711994171 41.15234375 7.804362118244171 41.34375 8.2919921875C41.53515625 8.779622256755829 41.630859375 9.376627743244171 41.630859375 10.0830078125L41.630859375 10.0830078125L41.630859375 10.595703125L36.107421875 10.595703125C36.125650972127914 11.087890625 36.2236328125 11.51171875 36.4013671875 11.8671875L36.4013671875 11.8671875C36.597330659627914 12.263671875 36.871907621622086 12.563313767313957 37.22509765625 12.76611328125C37.578287690877914 12.968912795186043 37.9873046875 13.0703125 38.4521484375 13.0703125L38.4521484375 13.0703125C38.7529296875 13.0703125 39.0263671875 13.027018263936043 39.2724609375 12.9404296875C39.5185546875 12.853841111063957 39.73046875 12.722819045186043 39.908203125 12.54736328125C40.0859375 12.371907517313957 40.22265625 12.154296875 40.318359375 11.89453125L40.318359375 11.89453125L41.5078125 12.22265625C41.38932263851166 12.60546875 41.18880236148834 12.942708298563957 40.90625 13.234375C40.62369805574417 13.526041649281979 40.27392578125 13.75390625 39.85693359375 13.91796875C39.43994140625 14.08203125 38.96940118074417 14.1640625 38.4453125 14.1640625M36.1142578125 9.556640625L36.1142578125 9.556640625L40.3798828125 9.556640625C40.34798163175583 9.210286319255829 40.27506524324417 8.891276180744171 40.1611328125 8.599609375L40.1611328125 8.599609375C40.00162774324417 8.212239444255829 39.76692694425583 7.908040225505829 39.45703125 7.68701171875C39.14713555574417 7.465983211994171 38.76204413175583 7.35546875 38.3017578125 7.35546875C37.84147149324417 7.35546875 37.447265625 7.46826171875 37.119140625 7.69384765625C36.791015625 7.91943359375 36.540364652872086 8.212239444255829 36.3671875 8.572265625L36.3671875 8.572265625C36.221354097127914 8.882161319255829 36.137044340372086 9.210286319255829 36.1142578125 9.556640625M46.2587890625 14.1640625L46.2587890625 14.1640625C45.625325590372086 14.1640625 45.064778715372086 14.002278645901242 44.5771484375 13.6787109375C44.089518159627914 13.355143211781979 43.708984375 12.897135451436043 43.435546875 12.3046875C43.162109375 11.712239652872086 43.025390625 11.010416597127914 43.025390625 10.19921875L43.025390625 10.19921875C43.025390625 9.392578125 43.16324868053198 8.694173038005829 43.43896484375 8.10400390625C43.71468095481396 7.513834774494171 44.096354097127914 7.059244930744171 44.583984375 6.740234375C45.071614652872086 6.421224236488342 45.632161527872086 6.26171875 46.265625 6.26171875L46.265625 6.26171875C46.76236993074417 6.26171875 47.15657538175583 6.34375 47.4482421875 6.5078125C47.73990899324417 6.671875 47.96435546875 6.857584357261658 48.12158203125 7.06494140625C48.27880859375 7.272298038005829 48.3984375 7.4443359375 48.48046875 7.5810546875L48.48046875 7.5810546875L48.576171875 7.5810546875L48.576171875 3.814453125L49.806640625 3.814453125L49.806640625 14L48.6171875 14L48.6171875 12.8173828125L48.48046875 12.8173828125C48.3984375 12.958658888936043 48.27653008699417 13.13525390625 48.11474609375 13.34716796875C47.95296210050583 13.55908203125 47.72509765625 13.74820964410901 47.43115234375 13.91455078125C47.13720703125 14.080891924910247 46.74641913175583 14.1640625 46.2587890625 14.1640625M46.443359375 13.0634765625L46.443359375 13.0634765625C46.908203125 13.0634765625 47.30013006925583 12.941569045186043 47.619140625 12.69775390625C47.93815118074417 12.453938767313957 48.1796875 12.115559965372086 48.34375 11.6826171875C48.5078125 11.249674409627914 48.58984375 10.750650972127914 48.58984375 10.185546875L48.58984375 10.185546875C48.58984375 9.620442569255829 48.50895196199417 9.127116024494171 48.34716796875 8.70556640625C48.18538397550583 8.284016788005829 47.94498711824417 7.954752743244171 47.6259765625 7.7177734375C47.30696600675583 7.480794131755829 46.91276055574417 7.3623046875 46.443359375 7.3623046875L46.443359375 7.3623046875C45.96028631925583 7.3623046875 45.55810546875 7.487630069255829 45.23681640625 7.73828125C44.91552734375 7.988932430744171 44.675130277872086 8.327311336994171 44.515625 8.75341796875C44.356119722127914 9.179524600505829 44.2763671875 9.656901180744171 44.2763671875 10.185546875L44.2763671875 10.185546875C44.2763671875 10.71875 44.357259184122086 11.202962309122086 44.51904296875 11.63818359375C44.680826753377914 12.073404878377914 44.923502534627914 12.419759079813957 45.2470703125 12.67724609375C45.570638090372086 12.934733107686043 45.96940118074417 13.0634765625 46.443359375 13.0634765625M57.33984375 6.357421875L58.912109375 6.357421875L58.912109375 7.41015625L57.33984375 7.41015625L57.33984375 12.017578125C57.33984375 12.359375 57.409342378377914 12.60888671875 57.54833984375 12.76611328125C57.687337309122086 12.92333984375 57.918619722127914 13.001953125 58.2421875 13.001953125L58.2421875 13.001953125C58.319661527872086 13.001953125 58.41878241300583 12.992838576436043 58.53955078125 12.974609375C58.66031914949417 12.956380173563957 58.77083319425583 12.938151076436043 58.87109375 12.919921875L58.87109375 12.919921875L59.1240234375 13.958984375C58.99641913175583 14.004557291802485 58.85172539949417 14.038736978080124 58.68994140625 14.0615234375C58.52815741300583 14.084309893660247 58.36751288175583 14.095703125 58.2080078125 14.095703125L58.2080078125 14.095703125C57.547200590372086 14.095703125 57.0322265625 13.92138671875 56.6630859375 13.57275390625C56.2939453125 13.22412109375 56.109375 12.737630173563957 56.109375 12.11328125L56.109375 12.11328125L56.109375 7.41015625L54.9609375 7.41015625L54.9609375 6.357421875L56.109375 6.357421875L56.109375 4.5390625L57.33984375 4.5390625L57.33984375 6.357421875M63.697265625 14.1640625L63.697265625 14.1640625C62.958984375 14.1640625 62.322102934122086 14 61.78662109375 13.671875C61.251139253377914 13.34375 60.83870439231396 12.8857421875 60.54931640625 12.2978515625C60.25992836803198 11.7099609375 60.115234375 11.024088472127914 60.115234375 10.240234375C60.115234375 9.456380069255829 60.25651039928198 8.765950381755829 60.5390625 8.1689453125C60.82161454856396 7.571940243244171 61.221516996622086 7.104817569255829 61.73876953125 6.767578125C62.256022065877914 6.430338263511658 62.861002534627914 6.26171875 63.5537109375 6.26171875L63.5537109375 6.26171875C63.95930975675583 6.26171875 64.35921210050583 6.328939080238342 64.75341796875 6.46337890625C65.14762383699417 6.597818732261658 65.50537109375 6.814290642738342 65.82666015625 7.11279296875C66.14794921875 7.411295711994171 66.404296875 7.804362118244171 66.595703125 8.2919921875C66.787109375 8.779622256755829 66.8828125 9.376627743244171 66.8828125 10.0830078125L66.8828125 10.0830078125L66.8828125 10.595703125L61.359375 10.595703125C61.377604097127914 11.087890625 61.4755859375 11.51171875 61.6533203125 11.8671875L61.6533203125 11.8671875C61.849283784627914 12.263671875 62.123860746622086 12.563313767313957 62.47705078125 12.76611328125C62.830240815877914 12.968912795186043 63.2392578125 13.0703125 63.7041015625 13.0703125L63.7041015625 13.0703125C64.0048828125 13.0703125 64.2783203125 13.027018263936043 64.5244140625 12.9404296875C64.7705078125 12.853841111063957 64.982421875 12.722819045186043 65.16015625 12.54736328125C65.337890625 12.371907517313957 65.474609375 12.154296875 65.5703125 11.89453125L65.5703125 11.89453125L66.759765625 12.22265625C66.64127576351166 12.60546875 66.44075548648834 12.942708298563957 66.158203125 13.234375C65.87565118074417 13.526041649281979 65.52587890625 13.75390625 65.10888671875 13.91796875C64.69189453125 14.08203125 64.22135430574417 14.1640625 63.697265625 14.1640625M61.3662109375 9.556640625L61.3662109375 9.556640625L65.6318359375 9.556640625C65.59993475675583 9.210286319255829 65.52701836824417 8.891276180744171 65.4130859375 8.599609375L65.4130859375 8.599609375C65.25358086824417 8.212239444255829 65.01888006925583 7.908040225505829 64.708984375 7.68701171875C64.39908868074417 7.465983211994171 64.01399725675583 7.35546875 63.5537109375 7.35546875C63.09342461824417 7.35546875 62.69921875 7.46826171875 62.37109375 7.69384765625C62.04296875 7.91943359375 61.792317777872086 8.212239444255829 61.619140625 8.572265625L61.619140625 8.572265625C61.473307222127914 8.882161319255829 61.388997465372086 9.210286319255829 61.3662109375 9.556640625M69.4326171875 14L68.0107421875 14L70.697265625 10.076171875L68.16796875 6.357421875L69.603515625 6.357421875L70.5537109375 7.8408203125C70.7998046875 8.2236328125 71.01399746537209 8.581380069255829 71.1962890625 8.9140625L71.1962890625 8.9140625C71.26920586824417 9.055338680744171 71.3466796875 9.196614444255829 71.4287109375 9.337890625L71.4287109375 9.337890625C71.50162774324417 9.196614444255829 71.57454413175583 9.055338680744171 71.6474609375 8.9140625L71.6474609375 8.9140625C71.80696600675583 8.581380069255829 72.01204413175583 8.2236328125 72.2626953125 7.8408203125L72.2626953125 7.8408203125L73.2333984375 6.357421875L74.6416015625 6.357421875L72.0849609375 10.14453125L74.7646484375 14L73.3359375 14L72.21484375 12.2841796875C71.97330743074417 11.910481840372086 71.76595038175583 11.561849027872086 71.5927734375 11.23828125L71.5927734375 11.23828125C71.51985663175583 11.110677152872086 71.44694024324417 10.9853515625 71.3740234375 10.8623046875L71.3740234375 10.8623046875C71.3056640625 10.9853515625 71.23958319425583 11.110677152872086 71.17578125 11.23828125L71.17578125 11.23828125C71.01627597212791 11.561849027872086 70.8134765625 11.910481840372086 70.5673828125 12.2841796875L70.5673828125 12.2841796875L69.4326171875 14M77.724609375 6.357421875L79.296875 6.357421875L79.296875 7.41015625L77.724609375 7.41015625L77.724609375 12.017578125C77.724609375 12.359375 77.79410800337791 12.60888671875 77.93310546875 12.76611328125C78.07210293412209 12.92333984375 78.30338534712791 13.001953125 78.626953125 13.001953125L78.626953125 13.001953125C78.70442715287209 13.001953125 78.80354803800583 12.992838576436043 78.92431640625 12.974609375C79.04508477449417 12.956380173563957 79.15559881925583 12.938151076436043 79.255859375 12.919921875L79.255859375 12.919921875L79.5087890625 13.958984375C79.38118475675583 14.004557291802485 79.23649102449417 14.038736978080124 79.07470703125 14.0615234375C78.91292303800583 14.084309893660247 78.75227850675583 14.095703125 78.5927734375 14.095703125L78.5927734375 14.095703125C77.93196621537209 14.095703125 77.4169921875 13.92138671875 77.0478515625 13.57275390625C76.6787109375 13.22412109375 76.494140625 12.737630173563957 76.494140625 12.11328125L76.494140625 12.11328125L76.494140625 7.41015625L75.345703125 7.41015625L75.345703125 6.357421875L76.494140625 6.357421875L76.494140625 4.5390625L77.724609375 4.5390625L77.724609375 6.357421875M87.9169921875 14.1640625L87.9169921875 14.1640625C87.22428378462791 14.1640625 86.61702480912209 14 86.09521484375 13.671875C85.57340487837791 13.34375 85.16666670143604 12.883463576436043 84.875 12.291015625C84.58333335071802 11.698567777872086 84.4375 11.010416597127914 84.4375 10.2265625L84.4375 10.2265625C84.4375 9.429036319255829 84.58333335071802 8.73291015625 84.875 8.13818359375C85.16666670143604 7.54345703125 85.57340487837791 7.08203125 86.09521484375 6.75390625C86.61702480912209 6.42578125 87.22428378462791 6.26171875 87.9169921875 6.26171875L87.9169921875 6.26171875C88.2861328125 6.26171875 88.634765625 6.3095703125 88.962890625 6.4052734375C89.291015625 6.5009765625 89.59065741300583 6.638834357261658 89.86181640625 6.81884765625C90.13297539949417 6.998860955238342 90.36653631925583 7.219889461994171 90.5625 7.48193359375C90.75846326351166 7.743977725505829 90.90885388851166 8.041341006755829 91.013671875 8.3740234375L91.013671875 8.3740234375L89.8310546875 8.708984375C89.7763671875 8.513020694255829 89.69205743074417 8.3330078125 89.578125 8.1689453125C89.46419256925583 8.0048828125 89.32633477449417 7.862467586994171 89.16455078125 7.74169921875C89.00276678800583 7.620930850505829 88.81705743074417 7.527506649494171 88.607421875 7.46142578125C88.39778631925583 7.395344913005829 88.16764336824417 7.3623046875 87.9169921875 7.3623046875L87.9169921875 7.3623046875C87.40657538175583 7.3623046875 86.9873046875 7.49560546875 86.6591796875 7.76220703125C86.3310546875 8.02880859375 86.08723965287209 8.378580868244171 85.927734375 8.8115234375C85.76822909712791 9.244466006755829 85.6884765625 9.716145694255829 85.6884765625 10.2265625L85.6884765625 10.2265625C85.6884765625 10.727864652872086 85.76822909712791 11.19384765625 85.927734375 11.62451171875C86.08723965287209 12.05517578125 86.3310546875 12.402669236063957 86.6591796875 12.6669921875C86.9873046875 12.931315138936043 87.40657538175583 13.0634765625 87.9169921875 13.0634765625L87.9169921875 13.0634765625C88.17220038175583 13.0634765625 88.40690118074417 13.029296875 88.62109375 12.9609375C88.83528631925583 12.892578125 89.02555352449417 12.795735642313957 89.19189453125 12.67041015625C89.35823553800583 12.545084670186043 89.49837225675583 12.395833298563957 89.6123046875 12.22265625C89.72623711824417 12.049479097127914 89.810546875 11.8603515625 89.865234375 11.6552734375L89.865234375 11.6552734375L91.041015625 11.990234375C90.94075548648834 12.33203125 90.79150390625 12.63623046875 90.59326171875 12.90283203125C90.39501953125 13.16943359375 90.1591796875 13.397298194468021 89.8857421875 13.58642578125C89.6123046875 13.77555339410901 89.30924493074417 13.919108075089753 88.9765625 14.01708984375C88.64388006925583 14.115071618929505 88.29069024324417 14.1640625 87.9169921875 14.1640625M95.9150390625 14.1640625L95.9150390625 14.1640625C95.22233065962791 14.1640625 94.61507168412209 14 94.09326171875 13.671875C93.57145175337791 13.34375 93.16471357643604 12.883463576436043 92.873046875 12.291015625C92.58138022571802 11.698567777872086 92.435546875 11.010416597127914 92.435546875 10.2265625L92.435546875 10.2265625C92.435546875 9.429036319255829 92.58138022571802 8.73291015625 92.873046875 8.13818359375C93.16471357643604 7.54345703125 93.57145175337791 7.08203125 94.09326171875 6.75390625C94.61507168412209 6.42578125 95.22233065962791 6.26171875 95.9150390625 6.26171875L95.9150390625 6.26171875C96.6123046875 6.26171875 97.22298163175583 6.42578125 97.7470703125 6.75390625C98.27115899324417 7.08203125 98.67903631925583 7.54345703125 98.970703125 8.13818359375C99.26236951351166 8.73291015625 99.408203125 9.429036319255829 99.408203125 10.2265625L99.408203125 10.2265625C99.408203125 11.010416597127914 99.26236951351166 11.698567777872086 98.970703125 12.291015625C98.67903631925583 12.883463576436043 98.27115899324417 13.34375 97.7470703125 13.671875C97.22298163175583 14 96.6123046875 14.1640625 95.9150390625 14.1640625M95.9150390625 13.0634765625L95.9150390625 13.0634765625C96.43001288175583 13.0634765625 96.85384100675583 12.931315138936043 97.1865234375 12.6669921875C97.51920586824417 12.402669236063957 97.76529961824417 12.05517578125 97.9248046875 11.62451171875C98.08430975675583 11.19384765625 98.1640625 10.727864652872086 98.1640625 10.2265625L98.1640625 10.2265625C98.1640625 9.720703125 98.08430975675583 9.250162899494171 97.9248046875 8.81494140625C97.76529961824417 8.379719913005829 97.51920586824417 8.02880859375 97.1865234375 7.76220703125C96.85384100675583 7.49560546875 96.43001288175583 7.3623046875 95.9150390625 7.3623046875L95.9150390625 7.3623046875C95.40462225675583 7.3623046875 94.9853515625 7.49560546875 94.6572265625 7.76220703125C94.3291015625 8.02880859375 94.08528652787209 8.378580868244171 93.92578125 8.8115234375C93.76627597212791 9.244466006755829 93.6865234375 9.716145694255829 93.6865234375 10.2265625L93.6865234375 10.2265625C93.6865234375 10.727864652872086 93.76627597212791 11.19384765625 93.92578125 11.62451171875C94.08528652787209 12.05517578125 94.3291015625 12.402669236063957 94.6572265625 12.6669921875C94.9853515625 12.931315138936043 95.40462225675583 13.0634765625 95.9150390625 13.0634765625M102.4296875 9.419921875L102.4296875 9.419921875L102.4296875 14L101.19921875 14L101.19921875 6.357421875L102.3818359375 6.357421875L102.388671875 7.7724609375C102.60286465287209 7.2939453125 102.87858065962791 6.9384765625 103.2158203125 6.7060546875L103.2158203125 6.7060546875C103.64420586824417 6.409830451011658 104.14778631925583 6.26171875 104.7265625 6.26171875L104.7265625 6.26171875C105.24153631925583 6.26171875 105.69270819425583 6.36767578125 106.080078125 6.57958984375C106.46744805574417 6.79150390625 106.76936835050583 7.110514461994171 106.98583984375 7.53662109375C107.20231091976166 7.962727725505829 107.310546875 8.499348819255829 107.310546875 9.146484375L107.310546875 9.146484375L107.310546875 14L106.080078125 14L106.080078125 9.2490234375C106.080078125 8.6611328125 105.92626953125 8.200846493244171 105.61865234375 7.8681640625C105.31103515625 7.535481631755829 104.890625 7.369140625 104.357421875 7.369140625L104.357421875 7.369140625C103.99283868074417 7.369140625 103.66471368074417 7.448893368244171 103.373046875 7.6083984375C103.08138027787209 7.767903506755829 102.85123690962791 8.000325381755829 102.6826171875 8.3056640625C102.51399746537209 8.611002743244171 102.4296875 8.982421875 102.4296875 9.419921875M110.90625 6.357421875L112.478515625 6.357421875L112.478515625 7.41015625L110.90625 7.41015625L110.90625 12.017578125C110.90625 12.359375 110.97574862837791 12.60888671875 111.11474609375 12.76611328125C111.25374355912209 12.92333984375 111.48502597212791 13.001953125 111.80859375 13.001953125L111.80859375 13.001953125C111.88606777787209 13.001953125 111.98518866300583 12.992838576436043 112.10595703125 12.974609375C112.22672539949417 12.956380173563957 112.33723944425583 12.938151076436043 112.4375 12.919921875L112.4375 12.919921875L112.6904296875 13.958984375C112.56282538175583 14.004557291802485 112.41813164949417 14.038736978080124 112.25634765625 14.0615234375C112.09456366300583 14.084309893660247 111.93391913175583 14.095703125 111.7744140625 14.095703125L111.7744140625 14.095703125C111.11360684037209 14.095703125 110.5986328125 13.92138671875 110.2294921875 13.57275390625C109.8603515625 13.22412109375 109.67578125 12.737630173563957 109.67578125 12.11328125L109.67578125 12.11328125L109.67578125 7.41015625L108.52734375 7.41015625L108.52734375 6.357421875L109.67578125 6.357421875L109.67578125 4.5390625L110.90625 4.5390625L110.90625 6.357421875M117.263671875 14.1640625L117.263671875 14.1640625C116.525390625 14.1640625 115.88850918412209 14 115.35302734375 13.671875C114.81754550337791 13.34375 114.40511064231396 12.8857421875 114.11572265625 12.2978515625C113.82633461803198 11.7099609375 113.681640625 11.024088472127914 113.681640625 10.240234375C113.681640625 9.456380069255829 113.82291664928198 8.765950381755829 114.10546875 8.1689453125C114.38802079856396 7.571940243244171 114.78792324662209 7.104817569255829 115.30517578125 6.767578125C115.82242831587791 6.430338263511658 116.42740878462791 6.26171875 117.1201171875 6.26171875L117.1201171875 6.26171875C117.52571600675583 6.26171875 117.92561835050583 6.328939080238342 118.31982421875 6.46337890625C118.71403008699417 6.597818732261658 119.07177734375 6.814290642738342 119.39306640625 7.11279296875C119.71435546875 7.411295711994171 119.970703125 7.804362118244171 120.162109375 8.2919921875C120.353515625 8.779622256755829 120.44921875 9.376627743244171 120.44921875 10.0830078125L120.44921875 10.0830078125L120.44921875 10.595703125L114.92578125 10.595703125C114.94401034712791 11.087890625 115.0419921875 11.51171875 115.2197265625 11.8671875L115.2197265625 11.8671875C115.41569003462791 12.263671875 115.69026699662209 12.563313767313957 116.04345703125 12.76611328125C116.39664706587791 12.968912795186043 116.8056640625 13.0703125 117.2705078125 13.0703125L117.2705078125 13.0703125C117.5712890625 13.0703125 117.8447265625 13.027018263936043 118.0908203125 12.9404296875C118.3369140625 12.853841111063957 118.548828125 12.722819045186043 118.7265625 12.54736328125C118.904296875 12.371907517313957 119.041015625 12.154296875 119.13671875 11.89453125L119.13671875 11.89453125L120.326171875 12.22265625C120.20768201351166 12.60546875 120.00716173648834 12.942708298563957 119.724609375 13.234375C119.44205743074417 13.526041649281979 119.09228515625 13.75390625 118.67529296875 13.91796875C118.25830078125 14.08203125 117.78776055574417 14.1640625 117.263671875 14.1640625M114.9326171875 9.556640625L114.9326171875 9.556640625L119.1982421875 9.556640625C119.16634100675583 9.210286319255829 119.09342461824417 8.891276180744171 118.9794921875 8.599609375L118.9794921875 8.599609375C118.81998711824417 8.212239444255829 118.58528631925583 7.908040225505829 118.275390625 7.68701171875C117.96549493074417 7.465983211994171 117.58040350675583 7.35546875 117.1201171875 7.35546875C116.65983086824417 7.35546875 116.265625 7.46826171875 115.9375 7.69384765625C115.609375 7.91943359375 115.35872402787209 8.212239444255829 115.185546875 8.572265625L115.185546875 8.572265625C115.03971347212791 8.882161319255829 114.95540371537209 9.210286319255829 114.9326171875 9.556640625M123.443359375 9.419921875L123.443359375 9.419921875L123.443359375 14L122.212890625 14L122.212890625 6.357421875L123.3955078125 6.357421875L123.40234375 7.7724609375C123.61653652787209 7.2939453125 123.89225253462791 6.9384765625 124.2294921875 6.7060546875L124.2294921875 6.7060546875C124.65787774324417 6.409830451011658 125.16145819425583 6.26171875 125.740234375 6.26171875L125.740234375 6.26171875C126.25520819425583 6.26171875 126.70638006925583 6.36767578125 127.09375 6.57958984375C127.48111993074417 6.79150390625 127.78304022550583 7.110514461994171 127.99951171875 7.53662109375C128.21598279476166 7.962727725505829 128.32421875 8.499348819255829 128.32421875 9.146484375L128.32421875 9.146484375L128.32421875 14L127.09375 14L127.09375 9.2490234375C127.09375 8.6611328125 126.93994140625 8.200846493244171 126.63232421875 7.8681640625C126.32470703125 7.535481631755829 125.904296875 7.369140625 125.37109375 7.369140625L125.37109375 7.369140625C125.00651055574417 7.369140625 124.67838555574417 7.448893368244171 124.38671875 7.6083984375C124.09505215287209 7.767903506755829 123.86490878462791 8.000325381755829 123.6962890625 8.3056640625C123.52766934037209 8.611002743244171 123.443359375 8.982421875 123.443359375 9.419921875M131.919921875 6.357421875L133.4921875 6.357421875L133.4921875 7.41015625L131.919921875 7.41015625L131.919921875 12.017578125C131.919921875 12.359375 131.98942050337791 12.60888671875 132.12841796875 12.76611328125C132.26741543412209 12.92333984375 132.49869784712791 13.001953125 132.822265625 13.001953125L132.822265625 13.001953125C132.89973965287209 13.001953125 132.99886053800583 12.992838576436043 133.11962890625 12.974609375C133.24039727449417 12.956380173563957 133.35091131925583 12.938151076436043 133.451171875 12.919921875L133.451171875 12.919921875L133.7041015625 13.958984375C133.57649725675583 14.004557291802485 133.43180352449417 14.038736978080124 133.27001953125 14.0615234375C133.10823553800583 14.084309893660247 132.94759100675583 14.095703125 132.7880859375 14.095703125L132.7880859375 14.095703125C132.12727871537209 14.095703125 131.6123046875 13.92138671875 131.2431640625 13.57275390625C130.8740234375 13.22412109375 130.689453125 12.737630173563957 130.689453125 12.11328125L130.689453125 12.11328125L130.689453125 7.41015625L129.541015625 7.41015625L129.541015625 6.357421875L130.689453125 6.357421875L130.689453125 4.5390625L131.919921875 4.5390625L131.919921875 6.357421875M140.232421875 9.419921875L140.232421875 9.419921875L140.232421875 14L139.001953125 14L139.001953125 3.814453125L140.232421875 3.814453125L140.232421875 7.6767578125C140.44205722212791 7.243815243244171 140.7041015625 6.920247673988342 141.0185546875 6.7060546875L141.0185546875 6.7060546875C141.44694024324417 6.409830451011658 141.95052069425583 6.26171875 142.529296875 6.26171875L142.529296875 6.26171875C143.04427069425583 6.26171875 143.49658203125 6.36767578125 143.88623046875 6.57958984375C144.27587890625 6.79150390625 144.57893866300583 7.110514461994171 144.79541015625 7.53662109375C145.01188123226166 7.962727725505829 145.1201171875 8.499348819255829 145.1201171875 9.146484375L145.1201171875 9.146484375L145.1201171875 14L143.8828125 14L143.8828125 9.2490234375C143.8828125 8.6611328125 143.72900390625 8.200846493244171 143.42138671875 7.8681640625C143.11376953125 7.535481631755829 142.693359375 7.369140625 142.16015625 7.369140625L142.16015625 7.369140625C141.79557305574417 7.369140625 141.46744805574417 7.448893368244171 141.17578125 7.6083984375C140.88411465287209 7.767903506755829 140.65397128462791 8.000325381755829 140.4853515625 8.3056640625C140.31673184037209 8.611002743244171 140.232421875 8.982421875 140.232421875 9.419921875M150.4931640625 14.1640625L150.4931640625 14.1640625C149.7548828125 14.1640625 149.11800137162209 14 148.58251953125 13.671875C148.04703769087791 13.34375 147.63460282981396 12.8857421875 147.34521484375 12.2978515625C147.05582680553198 11.7099609375 146.9111328125 11.024088472127914 146.9111328125 10.240234375C146.9111328125 9.456380069255829 147.05240883678198 8.765950381755829 147.3349609375 8.1689453125C147.61751298606396 7.571940243244171 148.01741543412209 7.104817569255829 148.53466796875 6.767578125C149.05192050337791 6.430338263511658 149.65690097212791 6.26171875 150.349609375 6.26171875L150.349609375 6.26171875C150.75520819425583 6.26171875 151.15511053800583 6.328939080238342 151.54931640625 6.46337890625C151.94352227449417 6.597818732261658 152.30126953125 6.814290642738342 152.62255859375 7.11279296875C152.94384765625 7.411295711994171 153.2001953125 7.804362118244171 153.3916015625 8.2919921875C153.5830078125 8.779622256755829 153.6787109375 9.376627743244171 153.6787109375 10.0830078125L153.6787109375 10.0830078125L153.6787109375 10.595703125L148.1552734375 10.595703125C148.17350253462791 11.087890625 148.271484375 11.51171875 148.44921875 11.8671875L148.44921875 11.8671875C148.64518222212791 12.263671875 148.91975918412209 12.563313767313957 149.27294921875 12.76611328125C149.62613925337791 12.968912795186043 150.03515625 13.0703125 150.5 13.0703125L150.5 13.0703125C150.80078125 13.0703125 151.07421875 13.027018263936043 151.3203125 12.9404296875C151.56640625 12.853841111063957 151.7783203125 12.722819045186043 151.9560546875 12.54736328125C152.1337890625 12.371907517313957 152.2705078125 12.154296875 152.3662109375 11.89453125L152.3662109375 11.89453125L153.5556640625 12.22265625C153.43717420101166 12.60546875 153.23665392398834 12.942708298563957 152.9541015625 13.234375C152.67154961824417 13.526041649281979 152.32177734375 13.75390625 151.90478515625 13.91796875C151.48779296875 14.08203125 151.01725274324417 14.1640625 150.4931640625 14.1640625M148.162109375 9.556640625L148.162109375 9.556640625L152.427734375 9.556640625C152.39583319425583 9.210286319255829 152.32291680574417 8.891276180744171 152.208984375 8.599609375L152.208984375 8.599609375C152.04947930574417 8.212239444255829 151.81477850675583 7.908040225505829 151.5048828125 7.68701171875C151.19498711824417 7.465983211994171 150.80989569425583 7.35546875 150.349609375 7.35546875C149.88932305574417 7.35546875 149.4951171875 7.46826171875 149.1669921875 7.69384765625C148.8388671875 7.91943359375 148.58821621537209 8.212239444255829 148.4150390625 8.572265625L148.4150390625 8.572265625C148.26920565962791 8.882161319255829 148.18489590287209 9.210286319255829 148.162109375 9.556640625M156.6728515625 14L155.4423828125 14L155.4423828125 6.357421875L156.6318359375 6.357421875L156.6318359375 7.533203125L156.7138671875 7.533203125C156.85514315962791 7.145833194255829 157.10693359375 6.834798455238342 157.46923828125 6.60009765625C157.83154296875 6.365396857261658 158.24055975675583 6.248046875 158.6962890625 6.248046875L158.6962890625 6.248046875C158.78743475675583 6.248046875 158.89567071199417 6.250325798988342 159.02099609375 6.2548828125C159.14632147550583 6.259439826011658 159.24544256925583 6.263997673988342 159.318359375 6.2685546875L159.318359375 6.2685546875L159.318359375 7.505859375C159.28190118074417 7.496744930744171 159.19075506925583 7.483073055744171 159.044921875 7.46484375C158.89908868074417 7.446614444255829 158.744140625 7.4375 158.580078125 7.4375L158.580078125 7.4375C158.21549493074417 7.4375 157.88850897550583 7.513834774494171 157.59912109375 7.66650390625C157.30973300337791 7.819173038005829 157.0830078125 8.02880859375 156.9189453125 8.29541015625C156.7548828125 8.56201171875 156.6728515625 8.868489444255829 156.6728515625 9.21484375L156.6728515625 9.21484375L156.6728515625 14M163.92578125 14.1640625L163.92578125 14.1640625C163.1875 14.1640625 162.55061855912209 14 162.01513671875 13.671875C161.47965487837791 13.34375 161.06722001731396 12.8857421875 160.77783203125 12.2978515625C160.48844399303198 11.7099609375 160.34375 11.024088472127914 160.34375 10.240234375C160.34375 9.456380069255829 160.48502602428198 8.765950381755829 160.767578125 8.1689453125C161.05013017356396 7.571940243244171 161.45003262162209 7.104817569255829 161.96728515625 6.767578125C162.48453769087791 6.430338263511658 163.08951815962791 6.26171875 163.7822265625 6.26171875L163.7822265625 6.26171875C164.18782538175583 6.26171875 164.58772772550583 6.328939080238342 164.98193359375 6.46337890625C165.37613946199417 6.597818732261658 165.73388671875 6.814290642738342 166.05517578125 7.11279296875C166.37646484375 7.411295711994171 166.6328125 7.804362118244171 166.82421875 8.2919921875C167.015625 8.779622256755829 167.111328125 9.376627743244171 167.111328125 10.0830078125L167.111328125 10.0830078125L167.111328125 10.595703125L161.587890625 10.595703125C161.60611972212791 11.087890625 161.7041015625 11.51171875 161.8818359375 11.8671875L161.8818359375 11.8671875C162.07779940962791 12.263671875 162.35237637162209 12.563313767313957 162.70556640625 12.76611328125C163.05875644087791 12.968912795186043 163.4677734375 13.0703125 163.9326171875 13.0703125L163.9326171875 13.0703125C164.2333984375 13.0703125 164.5068359375 13.027018263936043 164.7529296875 12.9404296875C164.9990234375 12.853841111063957 165.2109375 12.722819045186043 165.388671875 12.54736328125C165.56640625 12.371907517313957 165.703125 12.154296875 165.798828125 11.89453125L165.798828125 11.89453125L166.98828125 12.22265625C166.86979138851166 12.60546875 166.66927111148834 12.942708298563957 166.38671875 13.234375C166.10416680574417 13.526041649281979 165.75439453125 13.75390625 165.33740234375 13.91796875C164.92041015625 14.08203125 164.44986993074417 14.1640625 163.92578125 14.1640625M161.5947265625 9.556640625L161.5947265625 9.556640625L165.8603515625 9.556640625C165.82845038175583 9.210286319255829 165.75553399324417 8.891276180744171 165.6416015625 8.599609375L165.6416015625 8.599609375C165.48209649324417 8.212239444255829 165.24739569425583 7.908040225505829 164.9375 7.68701171875C164.62760430574417 7.465983211994171 164.24251288175583 7.35546875 163.7822265625 7.35546875C163.32194024324417 7.35546875 162.927734375 7.46826171875 162.599609375 7.69384765625C162.271484375 7.91943359375 162.02083340287209 8.212239444255829 161.84765625 8.572265625L161.84765625 8.572265625C161.70182284712791 8.882161319255829 161.61751309037209 9.210286319255829 161.5947265625 9.556640625" fill="#000000"/></g></g></g></g></g></svg>