<svg xmlns="http://www.w3.org/2000/svg" width="200" height="60" viewBox="0 0 200 60"><g><defs><clipPath id="clip-0"><rect x="0" y="0" width="200" height="60"/></clipPath></defs><g clip-path="url(#clip-0)"><g transform="matrix(1,0,0,1,10,15)"><path d="M2.529296875 14L1.23046875 14L1.23046875 3.814453125L4.716796875 3.814453125C5.509765625 3.814453125 6.16259765625 3.9500328302383423 6.67529296875 4.22119140625C7.18798828125 4.492349982261658 7.568521857261658 4.864908576011658 7.81689453125 5.3388671875C8.065267205238342 5.812825798988342 8.189453125 6.352864861488342 8.189453125 6.958984375C8.189453125 7.565104305744171 8.065267205238342 8.1005859375 7.81689453125 8.5654296875C7.568521857261658 9.0302734375 7.189127326011658 9.392578125 6.6787109375 9.65234375L6.6787109375 9.65234375C6.560221493244171 9.716145694255829 6.434895694255829 9.770833194255829 6.302734375 9.81640625L6.302734375 9.81640625L8.5859375 14L7.08203125 14L4.962890625 10.0419921875C4.885416805744171 10.046549618244171 4.8056640625 10.048828125 4.7236328125 10.048828125L4.7236328125 10.048828125L2.529296875 10.048828125L2.529296875 14M2.529296875 4.9560546875L2.529296875 8.8935546875L4.662109375 8.8935546875C5.199869930744171 8.8935546875 5.631673038005829 8.81494140625 5.95751953125 8.65771484375C6.283366024494171 8.50048828125 6.521484375 8.277180850505829 6.671875 7.98779296875C6.822265625 7.698405086994171 6.8974609375 7.35546875 6.8974609375 6.958984375L6.8974609375 6.958984375C6.8974609375 6.553385138511658 6.822265625 6.201334357261658 6.671875 5.90283203125C6.521484375 5.604329705238342 6.2822265625 5.371907830238342 5.9541015625 5.20556640625C5.6259765625 5.039224982261658 5.190755069255829 4.9560546875 4.6484375 4.9560546875L4.6484375 4.9560546875L2.529296875 4.9560546875M11.3203125 14L10.08984375 14L10.08984375 6.357421875L11.3203125 6.357421875L11.3203125 14M10.7119140625 5.1064453125L10.7119140625 5.1064453125C10.4794921875 5.1064453125 10.278971388936043 5.026692986488342 10.1103515625 4.8671875C9.941731736063957 4.707682013511658 9.857421875 4.516275763511658 9.857421875 4.29296875L9.857421875 4.29296875C9.857421875 4.065103888511658 9.941731736063957 3.87255859375 10.1103515625 3.71533203125C10.278971388936043 3.55810546875 10.4794921875 3.4794921875 10.7119140625 3.4794921875L10.7119140625 3.4794921875C10.948893159627914 3.4794921875 11.151692777872086 3.55810546875 11.3203125 3.71533203125C11.488932222127914 3.87255859375 11.5732421875 4.065103888511658 11.5732421875 4.29296875L11.5732421875 4.29296875C11.5732421875 4.516275763511658 11.488932222127914 4.707682013511658 11.3203125 4.8671875C11.151692777872086 5.026692986488342 10.948893159627914 5.1064453125 10.7119140625 5.1064453125M16.5771484375 17.021484375L16.5771484375 17.021484375C16.01204413175583 17.021484375 15.523274809122086 16.94970703125 15.11083984375 16.80615234375C14.698404878377914 16.66259765625 14.35546875 16.472330659627914 14.08203125 16.2353515625C13.80859375 15.998372465372086 13.592122361063957 15.740885451436043 13.4326171875 15.462890625L13.4326171875 15.462890625L14.4306640625 14.8203125C14.5400390625 14.966145798563957 14.675618559122086 15.1279296875 14.83740234375 15.3056640625C14.999186128377914 15.4833984375 15.217936128377914 15.634928420186043 15.49365234375 15.76025390625C15.769368559122086 15.885579496622086 16.13053399324417 15.9482421875 16.5771484375 15.9482421875L16.5771484375 15.9482421875C17.18782538175583 15.9482421875 17.69026678800583 15.802408784627914 18.08447265625 15.5107421875C18.47867852449417 15.219075486063957 18.67578125 14.7587890625 18.67578125 14.1298828125L18.67578125 14.1298828125L18.67578125 12.5986328125L18.5595703125 12.5986328125C18.47298163175583 12.744466111063957 18.35107421875 12.917643263936043 18.19384765625 13.1181640625C18.03662109375 13.318684913218021 17.81103515625 13.495279930531979 17.51708984375 13.64794921875C17.22314453125 13.800618493929505 16.830078125 13.876953125 16.337890625 13.876953125L16.337890625 13.876953125C15.727213472127914 13.876953125 15.178059965372086 13.73225910589099 14.6904296875 13.44287109375C14.202799409627914 13.153483055531979 13.817708298563957 12.730794236063957 13.53515625 12.1748046875C13.252604149281979 11.618815034627914 13.111328125 10.942057222127914 13.111328125 10.14453125L13.111328125 10.14453125C13.111328125 9.356119930744171 13.250325538218021 8.67138671875 13.5283203125 8.09033203125C13.806315138936043 7.50927734375 14.190266996622086 7.059244930744171 14.68017578125 6.740234375C15.170084565877914 6.421224236488342 15.731770902872086 6.26171875 16.365234375 6.26171875L16.365234375 6.26171875C16.857421875 6.26171875 17.25048828125 6.342610955238342 17.54443359375 6.50439453125C17.83837890625 6.666178107261658 18.06510430574417 6.851888298988342 18.224609375 7.0615234375C18.38411444425583 7.271158993244171 18.50716131925583 7.4443359375 18.59375 7.5810546875L18.59375 7.5810546875L18.7099609375 7.5810546875L18.7099609375 6.357421875L19.90625 6.357421875L19.90625 14.1982421875C19.90625 14.8544921875 19.758138298988342 15.39111328125 19.4619140625 15.80810546875C19.16569024324417 16.22509765625 18.76578789949417 16.531575590372086 18.26220703125 16.7275390625C17.75862616300583 16.923502534627914 17.19694024324417 17.021484375 16.5771484375 17.021484375M16.54296875 12.783203125L16.54296875 12.783203125C17.0078125 12.783203125 17.39973944425583 12.67724609375 17.71875 12.46533203125C18.03776055574417 12.25341796875 18.279296875 11.948079496622086 18.443359375 11.54931640625C18.607421875 11.150553315877914 18.689453125 10.673177152872086 18.689453125 10.1171875L18.689453125 10.1171875C18.689453125 9.574869930744171 18.60856133699417 9.097493350505829 18.44677734375 8.68505859375C18.28499335050583 8.272623836994171 18.04459649324417 7.949055850505829 17.7255859375 7.71435546875C17.40657538175583 7.479655086994171 17.01236993074417 7.3623046875 16.54296875 7.3623046875L16.54296875 7.3623046875C16.05989569425583 7.3623046875 15.656575590372086 7.486491024494171 15.3330078125 7.73486328125C15.009440034627914 7.983235538005829 14.766764253377914 8.314778506755829 14.60498046875 8.7294921875C14.443196684122086 9.144205868244171 14.3623046875 9.606770694255829 14.3623046875 10.1171875L14.3623046875 10.1171875C14.3623046875 10.641275972127914 14.4443359375 11.103841215372086 14.6083984375 11.5048828125C14.7724609375 11.905924409627914 15.016275972127914 12.21923828125 15.33984375 12.44482421875C15.663411527872086 12.67041015625 16.064453125 12.783203125 16.54296875 12.783203125M23.296875 9.419921875L23.296875 9.419921875L23.296875 14L22.06640625 14L22.06640625 3.814453125L23.296875 3.814453125L23.296875 7.6767578125C23.506510347127914 7.243815243244171 23.7685546875 6.920247673988342 24.0830078125 6.7060546875L24.0830078125 6.7060546875C24.51139336824417 6.409830451011658 25.01497381925583 6.26171875 25.59375 6.26171875L25.59375 6.26171875C26.10872381925583 6.26171875 26.56103515625 6.36767578125 26.95068359375 6.57958984375C27.34033203125 6.79150390625 27.64339178800583 7.110514461994171 27.85986328125 7.53662109375C28.076334357261658 7.962727725505829 28.1845703125 8.499348819255829 28.1845703125 9.146484375L28.1845703125 9.146484375L28.1845703125 14L26.947265625 14L26.947265625 9.2490234375C26.947265625 8.6611328125 26.79345703125 8.200846493244171 26.48583984375 7.8681640625C26.17822265625 7.535481631755829 25.7578125 7.369140625 25.224609375 7.369140625L25.224609375 7.369140625C24.86002618074417 7.369140625 24.53190118074417 7.448893368244171 24.240234375 7.6083984375C23.948567777872086 7.767903506755829 23.718424409627914 8.000325381755829 23.5498046875 8.3056640625C23.381184965372086 8.611002743244171 23.296875 8.982421875 23.296875 9.419921875M31.7802734375 6.357421875L33.3525390625 6.357421875L33.3525390625 7.41015625L31.7802734375 7.41015625L31.7802734375 12.017578125C31.7802734375 12.359375 31.849772065877914 12.60888671875 31.98876953125 12.76611328125C32.127766996622086 12.92333984375 32.359049409627914 13.001953125 32.6826171875 13.001953125L32.6826171875 13.001953125C32.760091215372086 13.001953125 32.85921210050583 12.992838576436043 32.97998046875 12.974609375C33.10074883699417 12.956380173563957 33.21126288175583 12.938151076436043 33.3115234375 12.919921875L33.3115234375 12.919921875L33.564453125 13.958984375C33.43684881925583 14.004557291802485 33.29215508699417 14.038736978080124 33.13037109375 14.0615234375C32.96858710050583 14.084309893660247 32.80794256925583 14.095703125 32.6484375 14.095703125L32.6484375 14.095703125C31.987630277872086 14.095703125 31.47265625 13.92138671875 31.103515625 13.57275390625C30.734375 13.22412109375 30.5498046875 12.737630173563957 30.5498046875 12.11328125L30.5498046875 12.11328125L30.5498046875 7.41015625L29.4013671875 7.41015625L29.4013671875 6.357421875L30.5498046875 6.357421875L30.5498046875 4.5390625L31.7802734375 4.5390625L31.7802734375 6.357421875M41.001953125 14.177734375L41.001953125 14.177734375C40.518880277872086 14.177734375 40.080240815877914 14.086588543839753 39.68603515625 13.904296875C39.29182939231396 13.72200519964099 38.978515625 13.455403663218021 38.74609375 13.1044921875C38.513671875 12.753580763936043 38.3974609375 12.327473923563957 38.3974609375 11.826171875L38.3974609375 11.826171875C38.3974609375 11.388671875 38.48404946178198 11.033203125 38.6572265625 10.759765625C38.83040361106396 10.486328125 39.06168623268604 10.27099609375 39.35107421875 10.11376953125C39.640462309122086 9.95654296875 39.960611909627914 9.839192569255829 40.3115234375 9.76171875C40.662434965372086 9.684244930744171 41.015625 9.622721493244171 41.37109375 9.5771484375L41.37109375 9.5771484375C41.82682305574417 9.517903506755829 42.1982421875 9.472330868244171 42.4853515625 9.4404296875C42.7724609375 9.408528506755829 42.98551446199417 9.353841006755829 43.12451171875 9.2763671875C43.26350897550583 9.198893368244171 43.3330078125 9.066731631755829 43.3330078125 8.8798828125L43.3330078125 8.8798828125L43.3330078125 8.8388671875C43.3330078125 8.519856631755829 43.27376288175583 8.249837100505829 43.1552734375 8.02880859375C43.03678399324417 7.807780086994171 42.85904961824417 7.638020694255829 42.6220703125 7.51953125C42.38509100675583 7.401041805744171 42.0888671875 7.341796875 41.7333984375 7.341796875L41.7333984375 7.341796875C41.36881524324417 7.341796875 41.056640625 7.398762881755829 40.796875 7.5126953125C40.537109375 7.626627743244171 40.326334565877914 7.76904296875 40.16455078125 7.93994140625C40.002766996622086 8.11083984375 39.880859375 8.28515625 39.798828125 8.462890625L39.798828125 8.462890625L38.6162109375 8.0732421875C38.81217451393604 7.6083984375 39.07649736106396 7.244954288005829 39.4091796875 6.98291015625C39.741861909627914 6.720865607261658 40.108724027872086 6.53515625 40.509765625 6.42578125C40.910807222127914 6.31640625 41.30729180574417 6.26171875 41.69921875 6.26171875L41.69921875 6.26171875C41.95442694425583 6.26171875 42.24495428800583 6.29248046875 42.57080078125 6.35400390625C42.89664727449417 6.41552734375 43.21110039949417 6.537435173988342 43.51416015625 6.7197265625C43.81721991300583 6.902017951011658 44.06787109375 7.172037899494171 44.26611328125 7.52978515625C44.46435546875 7.887532413005829 44.5634765625 8.364908993244171 44.5634765625 8.9619140625L44.5634765625 8.9619140625L44.5634765625 14L43.353515625 14L43.353515625 12.9609375L43.271484375 12.9609375C43.18489569425583 13.138671875 43.0458984375 13.322102881968021 42.8544921875 13.51123046875C42.6630859375 13.70035808160901 42.41471368074417 13.858723962679505 42.109375 13.986328125C41.80403631925583 14.113932287320495 41.43489569425583 14.177734375 41.001953125 14.177734375M41.2138671875 13.0908203125L41.2138671875 13.0908203125C41.66959649324417 13.0908203125 42.0546875 13.001953125 42.369140625 12.82421875C42.68359375 12.646484375 42.9228515625 12.415201857686043 43.0869140625 12.13037109375C43.2509765625 11.845540434122086 43.3330078125 11.548177152872086 43.3330078125 11.23828125L43.3330078125 11.23828125L43.3330078125 10.1787109375C43.28287774324417 10.237955868244171 43.17350274324417 10.29150390625 43.0048828125 10.33935546875C42.83626288175583 10.38720703125 42.64371758699417 10.429362118244171 42.42724609375 10.4658203125C42.21077460050583 10.502278715372086 42.00113946199417 10.533040434122086 41.79833984375 10.55810546875C41.59554022550583 10.583170503377914 41.43489569425583 10.6025390625 41.31640625 10.6162109375L41.31640625 10.6162109375C41.020182222127914 10.652669340372086 40.743326753377914 10.71533203125 40.48583984375 10.80419921875C40.228352934122086 10.89306640625 40.022135347127914 11.02294921875 39.8671875 11.19384765625C39.712239652872086 11.36474609375 39.634765625 11.596028715372086 39.634765625 11.8876953125L39.634765625 11.8876953125C39.634765625 12.152018159627914 39.703125 12.373046875 39.83984375 12.55078125C39.9765625 12.728515625 40.163411527872086 12.862955763936043 40.400390625 12.9541015625C40.637369722127914 13.045247361063957 40.908528715372086 13.0908203125 41.2138671875 13.0908203125M46.7236328125 3.814453125L47.9541015625 3.814453125L47.9541015625 14L46.7236328125 14L46.7236328125 3.814453125M51.3447265625 14L50.1142578125 14L50.1142578125 6.357421875L51.3447265625 6.357421875L51.3447265625 14M50.736328125 5.1064453125L50.736328125 5.1064453125C50.50390625 5.1064453125 50.30338545143604 5.026692986488342 50.134765625 4.8671875C49.96614579856396 4.707682013511658 49.8818359375 4.516275763511658 49.8818359375 4.29296875L49.8818359375 4.29296875C49.8818359375 4.065103888511658 49.96614579856396 3.87255859375 50.134765625 3.71533203125C50.30338545143604 3.55810546875 50.50390625 3.4794921875 50.736328125 3.4794921875L50.736328125 3.4794921875C50.973307222127914 3.4794921875 51.176106840372086 3.55810546875 51.3447265625 3.71533203125C51.513346284627914 3.87255859375 51.59765625 4.065103888511658 51.59765625 4.29296875L51.59765625 4.29296875C51.59765625 4.516275763511658 51.513346284627914 4.707682013511658 51.3447265625 4.8671875C51.176106840372086 5.026692986488342 50.973307222127914 5.1064453125 50.736328125 5.1064453125M56.6015625 17.021484375L56.6015625 17.021484375C56.03645819425583 17.021484375 55.547688871622086 16.94970703125 55.13525390625 16.80615234375C54.722818940877914 16.66259765625 54.3798828125 16.472330659627914 54.1064453125 16.2353515625C53.8330078125 15.998372465372086 53.61653642356396 15.740885451436043 53.45703125 15.462890625L53.45703125 15.462890625L54.455078125 14.8203125C54.564453125 14.966145798563957 54.700032621622086 15.1279296875 54.86181640625 15.3056640625C55.023600190877914 15.4833984375 55.242350190877914 15.634928420186043 55.51806640625 15.76025390625C55.793782621622086 15.885579496622086 56.15494805574417 15.9482421875 56.6015625 15.9482421875L56.6015625 15.9482421875C57.21223944425583 15.9482421875 57.71468085050583 15.802408784627914 58.10888671875 15.5107421875C58.50309258699417 15.219075486063957 58.7001953125 14.7587890625 58.7001953125 14.1298828125L58.7001953125 14.1298828125L58.7001953125 12.5986328125L58.583984375 12.5986328125C58.49739569425583 12.744466111063957 58.37548828125 12.917643263936043 58.21826171875 13.1181640625C58.06103515625 13.318684913218021 57.83544921875 13.495279930531979 57.54150390625 13.64794921875C57.24755859375 13.800618493929505 56.8544921875 13.876953125 56.3623046875 13.876953125L56.3623046875 13.876953125C55.751627534627914 13.876953125 55.202474027872086 13.73225910589099 54.71484375 13.44287109375C54.227213472127914 13.153483055531979 53.84212236106396 12.730794236063957 53.5595703125 12.1748046875C53.27701821178198 11.618815034627914 53.1357421875 10.942057222127914 53.1357421875 10.14453125L53.1357421875 10.14453125C53.1357421875 9.356119930744171 53.27473960071802 8.67138671875 53.552734375 8.09033203125C53.83072920143604 7.50927734375 54.214681059122086 7.059244930744171 54.70458984375 6.740234375C55.194498628377914 6.421224236488342 55.756184965372086 6.26171875 56.3896484375 6.26171875L56.3896484375 6.26171875C56.8818359375 6.26171875 57.27490234375 6.342610955238342 57.56884765625 6.50439453125C57.86279296875 6.666178107261658 58.08951836824417 6.851888298988342 58.2490234375 7.0615234375C58.40852850675583 7.271158993244171 58.53157538175583 7.4443359375 58.6181640625 7.5810546875L58.6181640625 7.5810546875L58.734375 7.5810546875L58.734375 6.357421875L59.9306640625 6.357421875L59.9306640625 14.1982421875C59.9306640625 14.8544921875 59.78255236148834 15.39111328125 59.486328125 15.80810546875C59.19010430574417 16.22509765625 58.79020196199417 16.531575590372086 58.28662109375 16.7275390625C57.78304022550583 16.923502534627914 57.22135430574417 17.021484375 56.6015625 17.021484375M56.5673828125 12.783203125L56.5673828125 12.783203125C57.0322265625 12.783203125 57.42415350675583 12.67724609375 57.7431640625 12.46533203125C58.06217461824417 12.25341796875 58.3037109375 11.948079496622086 58.4677734375 11.54931640625C58.6318359375 11.150553315877914 58.7138671875 10.673177152872086 58.7138671875 10.1171875L58.7138671875 10.1171875C58.7138671875 9.574869930744171 58.63297539949417 9.097493350505829 58.47119140625 8.68505859375C58.30940741300583 8.272623836994171 58.06901055574417 7.949055850505829 57.75 7.71435546875C57.43098944425583 7.479655086994171 57.03678399324417 7.3623046875 56.5673828125 7.3623046875L56.5673828125 7.3623046875C56.08430975675583 7.3623046875 55.680989652872086 7.486491024494171 55.357421875 7.73486328125C55.033854097127914 7.983235538005829 54.791178315877914 8.314778506755829 54.62939453125 8.7294921875C54.467610746622086 9.144205868244171 54.38671875 9.606770694255829 54.38671875 10.1171875L54.38671875 10.1171875C54.38671875 10.641275972127914 54.46875 11.103841215372086 54.6328125 11.5048828125C54.796875 11.905924409627914 55.040690034627914 12.21923828125 55.3642578125 12.44482421875C55.687825590372086 12.67041015625 56.0888671875 12.783203125 56.5673828125 12.783203125M63.3212890625 9.419921875L63.3212890625 9.419921875L63.3212890625 14L62.0908203125 14L62.0908203125 6.357421875L63.2734375 6.357421875L63.2802734375 7.7724609375C63.494466215372086 7.2939453125 63.770182222127914 6.9384765625 64.107421875 6.7060546875L64.107421875 6.7060546875C64.53580743074417 6.409830451011658 65.03938788175583 6.26171875 65.6181640625 6.26171875L65.6181640625 6.26171875C66.13313788175583 6.26171875 66.58430975675583 6.36767578125 66.9716796875 6.57958984375C67.35904961824417 6.79150390625 67.66096991300583 7.110514461994171 67.87744140625 7.53662109375C68.09391248226166 7.962727725505829 68.2021484375 8.499348819255829 68.2021484375 9.146484375L68.2021484375 9.146484375L68.2021484375 14L66.9716796875 14L66.9716796875 9.2490234375C66.9716796875 8.6611328125 66.81787109375 8.200846493244171 66.51025390625 7.8681640625C66.20263671875 7.535481631755829 65.7822265625 7.369140625 65.2490234375 7.369140625L65.2490234375 7.369140625C64.88444024324417 7.369140625 64.55631524324417 7.448893368244171 64.2646484375 7.6083984375C63.972981840372086 7.767903506755829 63.742838472127914 8.000325381755829 63.57421875 8.3056640625C63.405599027872086 8.611002743244171 63.3212890625 8.982421875 63.3212890625 9.419921875M73.5751953125 14.1640625L73.5751953125 14.1640625C72.8369140625 14.1640625 72.20003262162209 14 71.66455078125 13.671875C71.12906894087791 13.34375 70.71663407981396 12.8857421875 70.42724609375 12.2978515625C70.13785805553198 11.7099609375 69.9931640625 11.024088472127914 69.9931640625 10.240234375C69.9931640625 9.456380069255829 70.13444008678198 8.765950381755829 70.4169921875 8.1689453125C70.69954423606396 7.571940243244171 71.09944668412209 7.104817569255829 71.61669921875 6.767578125C72.13395175337791 6.430338263511658 72.73893222212791 6.26171875 73.431640625 6.26171875L73.431640625 6.26171875C73.83723944425583 6.26171875 74.23714178800583 6.328939080238342 74.63134765625 6.46337890625C75.02555352449417 6.597818732261658 75.38330078125 6.814290642738342 75.70458984375 7.11279296875C76.02587890625 7.411295711994171 76.2822265625 7.804362118244171 76.4736328125 8.2919921875C76.6650390625 8.779622256755829 76.7607421875 9.376627743244171 76.7607421875 10.0830078125L76.7607421875 10.0830078125L76.7607421875 10.595703125L71.2373046875 10.595703125C71.25553378462791 11.087890625 71.353515625 11.51171875 71.53125 11.8671875L71.53125 11.8671875C71.72721347212791 12.263671875 72.00179043412209 12.563313767313957 72.35498046875 12.76611328125C72.70817050337791 12.968912795186043 73.1171875 13.0703125 73.58203125 13.0703125L73.58203125 13.0703125C73.8828125 13.0703125 74.15625 13.027018263936043 74.40234375 12.9404296875C74.6484375 12.853841111063957 74.8603515625 12.722819045186043 75.0380859375 12.54736328125C75.2158203125 12.371907517313957 75.3525390625 12.154296875 75.4482421875 11.89453125L75.4482421875 11.89453125L76.6376953125 12.22265625C76.51920545101166 12.60546875 76.31868517398834 12.942708298563957 76.0361328125 13.234375C75.75358086824417 13.526041649281979 75.40380859375 13.75390625 74.98681640625 13.91796875C74.56982421875 14.08203125 74.09928399324417 14.1640625 73.5751953125 14.1640625M71.244140625 9.556640625L71.244140625 9.556640625L75.509765625 9.556640625C75.47786444425583 9.210286319255829 75.40494805574417 8.891276180744171 75.291015625 8.599609375L75.291015625 8.599609375C75.13151055574417 8.212239444255829 74.89680975675583 7.908040225505829 74.5869140625 7.68701171875C74.27701836824417 7.465983211994171 73.89192694425583 7.35546875 73.431640625 7.35546875C72.97135430574417 7.35546875 72.5771484375 7.46826171875 72.2490234375 7.69384765625C71.9208984375 7.91943359375 71.67024746537209 8.212239444255829 71.4970703125 8.572265625L71.4970703125 8.572265625C71.35123690962791 8.882161319255829 71.26692715287209 9.210286319255829 71.244140625 9.556640625M81.388671875 14.1640625L81.388671875 14.1640625C80.75520840287209 14.1640625 80.19466152787209 14.002278645901242 79.70703125 13.6787109375C79.21940097212791 13.355143211781979 78.8388671875 12.897135451436043 78.5654296875 12.3046875C78.2919921875 11.712239652872086 78.1552734375 11.010416597127914 78.1552734375 10.19921875L78.1552734375 10.19921875C78.1552734375 9.392578125 78.29313149303198 8.694173038005829 78.56884765625 8.10400390625C78.84456376731396 7.513834774494171 79.22623690962791 7.059244930744171 79.7138671875 6.740234375C80.20149746537209 6.421224236488342 80.76204434037209 6.26171875 81.3955078125 6.26171875L81.3955078125 6.26171875C81.89225274324417 6.26171875 82.28645819425583 6.34375 82.578125 6.5078125C82.86979180574417 6.671875 83.09423828125 6.857584357261658 83.25146484375 7.06494140625C83.40869140625 7.272298038005829 83.5283203125 7.4443359375 83.6103515625 7.5810546875L83.6103515625 7.5810546875L83.7060546875 7.5810546875L83.7060546875 3.814453125L84.9365234375 3.814453125L84.9365234375 14L83.7470703125 14L83.7470703125 12.8173828125L83.6103515625 12.8173828125C83.5283203125 12.958658888936043 83.40641289949417 13.13525390625 83.24462890625 13.34716796875C83.08284491300583 13.55908203125 82.85498046875 13.74820964410901 82.56103515625 13.91455078125C82.26708984375 14.080891924910247 81.87630194425583 14.1640625 81.388671875 14.1640625M81.5732421875 13.0634765625L81.5732421875 13.0634765625C82.0380859375 13.0634765625 82.43001288175583 12.941569045186043 82.7490234375 12.69775390625C83.06803399324417 12.453938767313957 83.3095703125 12.115559965372086 83.4736328125 11.6826171875C83.6376953125 11.249674409627914 83.7197265625 10.750650972127914 83.7197265625 10.185546875L83.7197265625 10.185546875C83.7197265625 9.620442569255829 83.63883477449417 9.127116024494171 83.47705078125 8.70556640625C83.31526678800583 8.284016788005829 83.07486993074417 7.954752743244171 82.755859375 7.7177734375C82.43684881925583 7.480794131755829 82.04264336824417 7.3623046875 81.5732421875 7.3623046875L81.5732421875 7.3623046875C81.09016913175583 7.3623046875 80.68798828125 7.487630069255829 80.36669921875 7.73828125C80.04541015625 7.988932430744171 79.80501309037209 8.327311336994171 79.6455078125 8.75341796875C79.48600253462791 9.179524600505829 79.40625 9.656901180744171 79.40625 10.185546875L79.40625 10.185546875C79.40625 10.71875 79.48714199662209 11.202962309122086 79.64892578125 11.63818359375C79.81070956587791 12.073404878377914 80.05338534712791 12.419759079813957 80.376953125 12.67724609375C80.70052090287209 12.934733107686043 81.09928399324417 13.0634765625 81.5732421875 13.0634765625" fill="#000000"/></g></g></g></svg>