<svg xmlns="http://www.w3.org/2000/svg" width="200" height="100" viewBox="0 0 200 100"><defs><clipPath id="clip-0"><path d="M 0.00 0.00 L 200.00 0.00 L 200.00 40.00 L 0.00 40.00 L 0.00 0.00" fill-rule="nonzero" fill="black"/></clipPath></defs><g><path d="M 0.00 0.00 L 200.00 0.00 L 200.00 40.00 L 0.00 40.00 L 0.00 0.00" fill-rule="nonzero" fill="#ffffff"/><g clip-path="url(#clip-0)"><g transform="matrix(1, 0, 0, 1, 10, 10)"><path d="M3.20801 10.12695L3.20801 10.12695C2.68392 10.12695 2.229 10.04232 1.84326 9.87305C1.45752 9.70378 1.1556 9.46696 0.9375 9.1626C0.7194 8.85824 0.5957 8.5026 0.56641 8.0957L0.56641 8.0957L1.51855 8.0957C1.5446 8.36914 1.63737 8.59456 1.79688 8.77197C1.95638 8.94938 2.16064 9.08122 2.40967 9.16748C2.65869 9.25374 2.9248 9.29688 3.20801 9.29688L3.20801 9.29688C3.53678 9.29688 3.83219 9.24316 4.09424 9.13574C4.35628 9.02832 4.5638 8.87695 4.7168 8.68164C4.86979 8.48633 4.94629 8.26009 4.94629 8.00293L4.94629 8.00293C4.94629 7.76855 4.88037 7.57813 4.74854 7.43164C4.6167 7.28516 4.44173 7.16471 4.22363 7.07031C4.00553 6.97591 3.76628 6.8929 3.50586 6.82129L3.50586 6.82129L2.62695 6.57227C2.04102 6.40625 1.58529 6.16862 1.25977 5.85938C0.93424 5.55013 0.77148 5.15462 0.77148 4.67285L0.77148 4.67285C0.77148 4.2627 0.88216 3.90381 1.10352 3.59619C1.32487 3.28857 1.62435 3.05013 2.00195 2.88086C2.37956 2.71159 2.80273 2.62695 3.27148 2.62695L3.27148 2.62695C3.75 2.62695 4.17318 2.71159 4.54102 2.88086C4.90885 3.05013 5.19938 3.28044 5.4126 3.57178C5.62581 3.86312 5.73893 4.19271 5.75195 4.56055L5.75195 4.56055L4.84375 4.56055C4.80143 4.20573 4.63216 3.93148 4.33594 3.73779C4.03971 3.54411 3.67513 3.44727 3.24219 3.44727L3.24219 3.44727C2.92969 3.44727 2.65544 3.49854 2.41943 3.60107C2.18343 3.70361 2.00033 3.84359 1.87012 4.021C1.73991 4.19841 1.6748 4.40104 1.6748 4.62891L1.6748 4.62891C1.6748 4.88281 1.75374 5.08708 1.91162 5.2417C2.0695 5.39632 2.25667 5.51676 2.47314 5.60303C2.68962 5.68929 2.88574 5.75684 3.06152 5.80566L3.06152 5.80566L3.78906 6.00586C3.98438 6.05794 4.20003 6.12956 4.43604 6.2207C4.67204 6.31185 4.89746 6.43311 5.1123 6.58447C5.32715 6.73584 5.50374 6.9279 5.64209 7.16064C5.78044 7.39339 5.84961 7.67904 5.84961 8.01758L5.84961 8.01758C5.84961 8.41471 5.74626 8.77279 5.53955 9.0918C5.33284 9.41081 5.03255 9.66309 4.63867 9.84863C4.24479 10.03418 3.7679 10.12695 3.20801 10.12695M8.06641 10L7.1875 10L7.1875 4.54102L8.04199 4.54102L8.04688 5.54199C8.11849 5.34017 8.21452 5.16764 8.33496 5.02441L8.33496 5.02441C8.49447 4.83236 8.68245 4.6875 8.89893 4.58984C9.1154 4.49219 9.34082 4.44336 9.5752 4.44336L9.5752 4.44336C9.97233 4.44336 10.2946 4.56543 10.54199 4.80957L10.54199 4.80957C10.74056 5.00814 10.88216 5.25553 10.9668 5.55176L10.9668 5.55176C11.03516 5.36947 11.13118 5.20671 11.25488 5.06348L11.25488 5.06348C11.42741 4.86491 11.63656 4.71191 11.88232 4.60449C12.12809 4.49707 12.39583 4.44336 12.68555 4.44336L12.68555 4.44336C13.0013 4.44336 13.28939 4.51172 13.5498 4.64844C13.81022 4.78516 14.01774 4.99186 14.17236 5.26855C14.32699 5.54525 14.4043 5.89518 14.4043 6.31836L14.4043 6.31836L14.4043 10L13.52539 10L13.52539 6.34277C13.52539 5.94889 13.41471 5.66732 13.19336 5.49805C12.97201 5.32878 12.71484 5.24414 12.42188 5.24414L12.42188 5.24414C12.17773 5.24414 11.96696 5.29541 11.78955 5.39795C11.61214 5.50049 11.47542 5.64128 11.37939 5.82031C11.28337 5.99935 11.23535 6.20443 11.23535 6.43555L11.23535 6.43555L11.23535 10L10.35645 10L10.35645 6.25488C10.35645 5.95215 10.25553 5.70801 10.05371 5.52246C9.85189 5.33691 9.59635 5.24414 9.28711 5.24414L9.28711 5.24414C9.07552 5.24414 8.87614 5.29378 8.68896 5.39307C8.50179 5.49235 8.35124 5.63965 8.2373 5.83496C8.12337 6.03027 8.06641 6.27279 8.06641 6.5625L8.06641 6.5625L8.06641 10M17.47559 10.12695L17.47559 10.12695C17.13053 10.12695 16.81722 10.06185 16.53564 9.93164C16.25407 9.80143 16.03027 9.611 15.86426 9.36035C15.69824 9.1097 15.61523 8.80534 15.61523 8.44727L15.61523 8.44727C15.61523 8.13477 15.67708 7.88086 15.80078 7.68555C15.92448 7.49023 16.08968 7.33643 16.29639 7.22412C16.50309 7.11182 16.73177 7.02799 16.98242 6.97266C17.23307 6.91732 17.48535 6.87337 17.73926 6.84082L17.73926 6.84082C18.06478 6.7985 18.33008 6.76595 18.53516 6.74316C18.74023 6.72038 18.89242 6.68132 18.9917 6.62598C19.09098 6.57064 19.14063 6.47624 19.14063 6.34277L19.14063 6.34277L19.14063 6.31348C19.14063 6.08561 19.09831 5.89274 19.01367 5.73486C18.92904 5.57699 18.80208 5.45573 18.63281 5.37109C18.46354 5.28646 18.25195 5.24414 17.99805 5.24414L17.99805 5.24414C17.73763 5.24414 17.51465 5.28483 17.3291 5.36621C17.14355 5.44759 16.993 5.54932 16.87744 5.67139C16.76188 5.79346 16.6748 5.91797 16.61621 6.04492L16.61621 6.04492L15.77148 5.7666C15.91146 5.43457 16.10026 5.17497 16.33789 4.98779C16.57552 4.80062 16.83757 4.66797 17.12402 4.58984C17.41048 4.51172 17.69368 4.47266 17.97363 4.47266L17.97363 4.47266C18.15592 4.47266 18.36344 4.49463 18.59619 4.53857C18.82894 4.58252 19.05355 4.6696 19.27002 4.7998C19.48649 4.93001 19.66553 5.12288 19.80713 5.37842C19.94873 5.63395 20.01953 5.97493 20.01953 6.40137L20.01953 6.40137L20.01953 10L19.15527 10L19.15527 9.25781L19.09668 9.25781C19.03483 9.38477 18.93555 9.51579 18.79883 9.65088C18.66211 9.78597 18.4847 9.89909 18.2666 9.99023C18.0485 10.08138 17.78483 10.12695 17.47559 10.12695M17.62695 9.35059L17.62695 9.35059C17.95247 9.35059 18.22754 9.28711 18.45215 9.16016C18.67676 9.0332 18.84766 8.868 18.96484 8.66455C19.08203 8.4611 19.14063 8.2487 19.14063 8.02734L19.14063 8.02734L19.14063 7.27051C19.10482 7.31283 19.02669 7.35107 18.90625 7.38525C18.78581 7.41943 18.64827 7.44954 18.49365 7.47559C18.33903 7.50163 18.18929 7.5236 18.04443 7.5415C17.89958 7.55941 17.78483 7.57324 17.7002 7.58301L17.7002 7.58301C17.48861 7.60905 17.29085 7.65381 17.10693 7.71729C16.92301 7.78076 16.77572 7.87354 16.66504 7.99561C16.55436 8.11768 16.49902 8.28288 16.49902 8.49121L16.49902 8.49121C16.49902 8.68001 16.54785 8.83789 16.64551 8.96484C16.74316 9.0918 16.87663 9.18783 17.0459 9.25293C17.21517 9.31803 17.40885 9.35059 17.62695 9.35059M21.5625 2.72461L22.44141 2.72461L22.44141 10L21.5625 10L21.5625 2.72461M23.98438 2.72461L24.86328 2.72461L24.86328 10L23.98438 10L23.98438 2.72461M30.24414 4.54102L31.36719 4.54102L31.36719 5.29297L30.24414 5.29297L30.24414 8.58398C30.24414 8.82813 30.29378 9.00635 30.39307 9.11865C30.49235 9.23096 30.65755 9.28711 30.88867 9.28711L30.88867 9.28711C30.94401 9.28711 31.01481 9.2806 31.10107 9.26758C31.18734 9.25456 31.26628 9.24154 31.33789 9.22852L31.33789 9.22852L31.51855 9.9707C31.42741 10.00326 31.32406 10.02767 31.2085 10.04395C31.09294 10.06022 30.97819 10.06836 30.86426 10.06836L30.86426 10.06836C30.39225 10.06836 30.02441 9.94385 29.76074 9.69482C29.49707 9.4458 29.36523 9.09831 29.36523 8.65234L29.36523 8.65234L29.36523 5.29297L28.54492 5.29297L28.54492 4.54102L29.36523 4.54102L29.36523 3.24219L30.24414 3.24219L30.24414 4.54102M34.78516 10.11719L34.78516 10.11719C34.25781 10.11719 33.8029 10 33.42041 9.76563C33.03792 9.53125 32.74333 9.2041 32.53662 8.78418C32.32992 8.36426 32.22656 7.87435 32.22656 7.31445C32.22656 6.75456 32.32747 6.26139 32.5293 5.83496C32.73112 5.40853 33.01676 5.07487 33.38623 4.83398C33.7557 4.5931 34.18783 4.47266 34.68262 4.47266L34.68262 4.47266C34.97233 4.47266 35.25798 4.52067 35.53955 4.6167C35.82113 4.71273 36.07666 4.86735 36.30615 5.08057C36.53564 5.29378 36.71875 5.57454 36.85547 5.92285C36.99219 6.27116 37.06055 6.69759 37.06055 7.20215L37.06055 7.20215L37.06055 7.56836L33.11523 7.56836C33.12826 7.91992 33.19824 8.22266 33.3252 8.47656L33.3252 8.47656C33.46517 8.75977 33.6613 8.9738 33.91357 9.11865C34.16585 9.26351 34.45801 9.33594 34.79004 9.33594L34.79004 9.33594C35.00488 9.33594 35.2002 9.30501 35.37598 9.24316C35.55176 9.18132 35.70313 9.08773 35.83008 8.9624C35.95703 8.83708 36.05469 8.68164 36.12305 8.49609L36.12305 8.49609L36.97266 8.73047C36.88802 9.00391 36.74479 9.24479 36.54297 9.45313C36.34115 9.66146 36.09131 9.82422 35.79346 9.94141C35.49561 10.05859 35.15951 10.11719 34.78516 10.11719M33.12012 6.82617L33.12012 6.82617L36.16699 6.82617C36.14421 6.57878 36.09212 6.35091 36.01074 6.14258L36.01074 6.14258C35.89681 5.86589 35.72917 5.6486 35.50781 5.49072C35.28646 5.33285 35.01139 5.25391 34.68262 5.25391C34.35384 5.25391 34.07227 5.33447 33.83789 5.49561C33.60352 5.65674 33.42448 5.86589 33.30078 6.12305L33.30078 6.12305C33.19661 6.3444 33.13639 6.57878 33.12012 6.82617M38.88184 10L37.86621 10L39.78516 7.19727L37.97852 4.54102L39.00391 4.54102L39.68262 5.60059C39.8584 5.87402 40.01139 6.12956 40.1416 6.36719L40.1416 6.36719C40.19368 6.4681 40.24902 6.56901 40.30762 6.66992L40.30762 6.66992C40.3597 6.56901 40.41178 6.4681 40.46387 6.36719L40.46387 6.36719C40.5778 6.12956 40.72428 5.87402 40.90332 5.60059L40.90332 5.60059L41.59668 4.54102L42.60254 4.54102L40.77637 7.24609L42.69043 10L41.66992 10L40.86914 8.77441C40.69661 8.50749 40.5485 8.25846 40.4248 8.02734L40.4248 8.02734C40.37272 7.9362 40.32064 7.84668 40.26855 7.75879L40.26855 7.75879C40.21973 7.84668 40.17253 7.9362 40.12695 8.02734L40.12695 8.02734C40.01302 8.25846 39.86816 8.50749 39.69238 8.77441L39.69238 8.77441L38.88184 10M44.80469 4.54102L45.92773 4.54102L45.92773 5.29297L44.80469 5.29297L44.80469 8.58398C44.80469 8.82813 44.85433 9.00635 44.95361 9.11865C45.0529 9.23096 45.2181 9.28711 45.44922 9.28711L45.44922 9.28711C45.50456 9.28711 45.57536 9.2806 45.66162 9.26758C45.74788 9.25456 45.82682 9.24154 45.89844 9.22852L45.89844 9.22852L46.0791 9.9707C45.98796 10.00326 45.8846 10.02767 45.76904 10.04395C45.65348 10.06022 45.53874 10.06836 45.4248 10.06836L45.4248 10.06836C44.9528 10.06836 44.58496 9.94385 44.32129 9.69482C44.05762 9.4458 43.92578 9.09831 43.92578 8.65234L43.92578 8.65234L43.92578 5.29297L43.10547 5.29297L43.10547 4.54102L43.92578 4.54102L43.92578 3.24219L44.80469 3.24219L44.80469 4.54102M51.3916 10.12695L51.3916 10.12695C51.04655 10.12695 50.73324 10.06185 50.45166 9.93164C50.17008 9.80143 49.94629 9.611 49.78027 9.36035C49.61426 9.1097 49.53125 8.80534 49.53125 8.44727L49.53125 8.44727C49.53125 8.13477 49.5931 7.88086 49.7168 7.68555C49.84049 7.49023 50.0057 7.33643 50.2124 7.22412C50.41911 7.11182 50.64779 7.02799 50.89844 6.97266C51.14909 6.91732 51.40137 6.87337 51.65527 6.84082L51.65527 6.84082C51.98079 6.7985 52.24609 6.76595 52.45117 6.74316C52.65625 6.72038 52.80843 6.68132 52.90771 6.62598C53.007 6.57064 53.05664 6.47624 53.05664 6.34277L53.05664 6.34277L53.05664 6.31348C53.05664 6.08561 53.01432 5.89274 52.92969 5.73486C52.84505 5.57699 52.7181 5.45573 52.54883 5.37109C52.37956 5.28646 52.16797 5.24414 51.91406 5.24414L51.91406 5.24414C51.65365 5.24414 51.43066 5.28483 51.24512 5.36621C51.05957 5.44759 50.90902 5.54932 50.79346 5.67139C50.6779 5.79346 50.59082 5.91797 50.53223 6.04492L50.53223 6.04492L49.6875 5.7666C49.82747 5.43457 50.01628 5.17497 50.25391 4.98779C50.49154 4.80062 50.75358 4.66797 51.04004 4.58984C51.3265 4.51172 51.6097 4.47266 51.88965 4.47266L51.88965 4.47266C52.07194 4.47266 52.27946 4.49463 52.51221 4.53857C52.74495 4.58252 52.96956 4.6696 53.18604 4.7998C53.40251 4.93001 53.58154 5.12288 53.72314 5.37842C53.86475 5.63395 53.93555 5.97493 53.93555 6.40137L53.93555 6.40137L53.93555 10L53.07129 10L53.07129 9.25781L53.0127 9.25781C52.95085 9.38477 52.85156 9.51579 52.71484 9.65088C52.57813 9.78597 52.40072 9.89909 52.18262 9.99023C51.96452 10.08138 51.70085 10.12695 51.3916 10.12695M51.54297 9.35059L51.54297 9.35059C51.86849 9.35059 52.14355 9.28711 52.36816 9.16016C52.59277 9.0332 52.76367 8.868 52.88086 8.66455C52.99805 8.4611 53.05664 8.2487 53.05664 8.02734L53.05664 8.02734L53.05664 7.27051C53.02083 7.31283 52.94271 7.35107 52.82227 7.38525C52.70182 7.41943 52.56429 7.44954 52.40967 7.47559C52.25505 7.50163 52.10531 7.5236 51.96045 7.5415C51.81559 7.55941 51.70085 7.57324 51.61621 7.58301L51.61621 7.58301C51.40462 7.60905 51.20687 7.65381 51.02295 7.71729C50.83903 7.78076 50.69173 7.87354 50.58105 7.99561C50.47038 8.11768 50.41504 8.28288 50.41504 8.49121L50.41504 8.49121C50.41504 8.68001 50.46387 8.83789 50.56152 8.96484C50.65918 9.0918 50.79264 9.18783 50.96191 9.25293C51.13118 9.31803 51.32487 9.35059 51.54297 9.35059M56.50391 4.54102L57.62695 4.54102L57.62695 5.29297L56.50391 5.29297L56.50391 8.58398C56.50391 8.82813 56.55355 9.00635 56.65283 9.11865C56.75212 9.23096 56.91732 9.28711 57.14844 9.28711L57.14844 9.28711C57.20378 9.28711 57.27458 9.2806 57.36084 9.26758C57.4471 9.25456 57.52604 9.24154 57.59766 9.22852L57.59766 9.22852L57.77832 9.9707C57.68717 10.00326 57.58382 10.02767 57.46826 10.04395C57.3527 10.06022 57.23796 10.06836 57.12402 10.06836L57.12402 10.06836C56.65202 10.06836 56.28418 9.94385 56.02051 9.69482C55.75684 9.4458 55.625 9.09831 55.625 8.65234L55.625 8.65234L55.625 5.29297L54.80469 5.29297L54.80469 4.54102L55.625 4.54102L55.625 3.24219L56.50391 3.24219L56.50391 4.54102M62.8418 2.72461L63.97949 2.72461L63.97949 10L63.06641 10L63.06641 3.58398L63.01758 3.58398L61.25977 4.8877L61.25977 3.8916L62.8418 2.72461M68.0127 10.09766L68.0127 10.09766C67.47233 10.09766 67.01172 9.95117 66.63086 9.6582C66.25 9.36523 65.95866 8.94124 65.75684 8.38623C65.55501 7.83122 65.4541 7.1582 65.4541 6.36719L65.4541 6.36719C65.4541 5.57943 65.55583 4.90723 65.75928 4.35059C65.96273 3.79395 66.25488 3.36751 66.63574 3.07129C67.0166 2.77507 67.47559 2.62695 68.0127 2.62695L68.0127 2.62695C68.5498 2.62695 69.0096 2.77507 69.39209 3.07129C69.77458 3.36751 70.06673 3.79395 70.26855 4.35059C70.47038 4.90723 70.57129 5.57943 70.57129 6.36719L70.57129 6.36719C70.57129 7.15495 70.47119 7.82715 70.271 8.38379C70.0708 8.94043 69.78027 9.36523 69.39941 9.6582C69.01855 9.95117 68.55632 10.09766 68.0127 10.09766M68.0127 9.28711L68.0127 9.28711C68.36751 9.28711 68.66862 9.17155 68.91602 8.94043C69.16341 8.70931 69.35221 8.37646 69.48242 7.94189C69.61263 7.50732 69.67773 6.98242 69.67773 6.36719L69.67773 6.36719C69.67773 5.7487 69.61263 5.22054 69.48242 4.78271C69.35221 4.34489 69.16341 4.01042 68.91602 3.7793C68.66862 3.54818 68.36751 3.43262 68.0127 3.43262L68.0127 3.43262C67.65788 3.43262 67.35677 3.54899 67.10938 3.78174C66.86198 4.01449 66.67318 4.34896 66.54297 4.78516C66.41276 5.22135 66.34766 5.7487 66.34766 6.36719L66.34766 6.36719C66.34766 6.98242 66.41276 7.50732 66.54297 7.94189C66.67318 8.37646 66.86198 8.70931 67.10938 8.94043C67.35677 9.17155 67.65788 9.28711 68.0127 9.28711M72.81738 12.04102L71.93848 12.04102L71.93848 4.54102L72.78809 4.54102L72.78809 5.41504L72.88574 5.41504C72.94759 5.31738 73.03385 5.1945 73.14453 5.04639C73.25521 4.89827 73.41471 4.76563 73.62305 4.64844C73.83138 4.53125 74.11296 4.47266 74.46777 4.47266L74.46777 4.47266C74.9235 4.47266 75.32471 4.58659 75.67139 4.81445C76.01807 5.04232 76.28988 5.36702 76.48682 5.78857C76.68376 6.21012 76.78223 6.70898 76.78223 7.28516L76.78223 7.28516C76.78223 7.86458 76.68457 8.36589 76.48926 8.78906C76.29395 9.21224 76.02295 9.53939 75.67627 9.77051C75.32959 10.00163 74.92839 10.11719 74.47266 10.11719L74.47266 10.11719C74.1276 10.11719 73.84928 10.05778 73.6377 9.93896C73.42611 9.82015 73.26335 9.68506 73.14941 9.53369C73.03548 9.38232 72.94759 9.25618 72.88574 9.15527L72.88574 9.15527L72.81738 9.15527L72.81738 12.04102M74.34082 9.33105L74.34082 9.33105C74.68262 9.33105 74.96826 9.2391 75.19775 9.05518C75.42725 8.87126 75.59977 8.62386 75.71533 8.31299C75.83089 8.00212 75.88867 7.65625 75.88867 7.27539L75.88867 7.27539C75.88867 6.89779 75.83171 6.5568 75.71777 6.25244C75.60384 5.94808 75.43213 5.70638 75.20264 5.52734C74.97314 5.34831 74.68587 5.25879 74.34082 5.25879L74.34082 5.25879C74.00553 5.25879 73.72396 5.34342 73.49609 5.5127C73.26823 5.68197 73.09652 5.91715 72.98096 6.21826C72.8654 6.51937 72.80762 6.87174 72.80762 7.27539L72.80762 7.27539C72.80762 7.67904 72.86621 8.03548 72.9834 8.34473C73.10059 8.65397 73.27393 8.89567 73.50342 9.06982C73.73291 9.24398 74.01204 9.33105 74.34082 9.33105M78.62305 10L77.60742 10L79.52637 7.19727L77.71973 4.54102L78.74512 4.54102L79.42383 5.60059C79.59961 5.87402 79.7526 6.12956 79.88281 6.36719L79.88281 6.36719C79.9349 6.4681 79.99023 6.56901 80.04883 6.66992L80.04883 6.66992C80.10091 6.56901 80.15299 6.4681 80.20508 6.36719L80.20508 6.36719C80.31901 6.12956 80.46549 5.87402 80.64453 5.60059L80.64453 5.60059L81.33789 4.54102L82.34375 4.54102L80.51758 7.24609L82.43164 10L81.41113 10L80.61035 8.77441C80.43783 8.50749 80.28971 8.25846 80.16602 8.02734L80.16602 8.02734C80.11393 7.9362 80.06185 7.84668 80.00977 7.75879L80.00977 7.75879C79.96094 7.84668 79.91374 7.9362 79.86816 8.02734L79.86816 8.02734C79.75423 8.25846 79.60938 8.50749 79.43359 8.77441L79.43359 8.77441L78.62305 10" fill="#000000"/></g></g></g></svg>