<svg xmlns="http://www.w3.org/2000/svg" width="200" height="100" viewBox="0 0 200 100"><g><defs><clipPath id="clip-2"><rect x="0" y="0" width="200" height="100"/></clipPath></defs><g clip-path="url(#clip-2)"><g transform="matrix(1,0,0,1,20,15)"><defs><clipPath id="clip-1"><rect x="0" y="0" width="160" height="70"/></clipPath></defs><g clip-path="url(#clip-1)"><g transform="matrix(1,0,0,1,15,15)"><defs><clipPath id="clip-0"><rect x="0" y="0" width="130" height="40"/></clipPath></defs><g clip-path="url(#clip-0)"><g transform="matrix(1,0,0,1,5,5)"><path d="M2.5361328125 14L1.23046875 14L1.23046875 3.814453125L2.76171875 3.814453125L6.904296875 10.3291015625C7.013671875 10.497721493244171 7.145833611488342 10.714192777872086 7.30078125 10.978515625C7.455728888511658 11.242838472127914 7.624349236488342 11.541341215372086 7.806640625 11.8740234375L7.806640625 11.8740234375C7.906900763511658 12.060872465372086 8.0048828125 12.254557326436043 8.1005859375 12.455078125L8.1005859375 12.455078125C8.082357048988342 12.236328125 8.068685173988342 12.022135347127914 8.0595703125 11.8125L8.0595703125 11.8125C8.041341423988342 11.45703125 8.029947638511658 11.12890625 8.025390625 10.828125C8.020833611488342 10.52734375 8.0185546875 10.272135555744171 8.0185546875 10.0625L8.0185546875 10.0625L8.0185546875 3.814453125L9.3173828125 3.814453125L9.3173828125 14L7.7724609375 14L4.0810546875 8.203125C3.912434756755829 7.934244930744171 3.74267578125 7.657389461994171 3.57177734375 7.37255859375C3.40087890625 7.087727725505829 3.2060546875 6.749349236488342 2.9873046875 6.357421875L2.9873046875 6.357421875C2.8277994096279144 6.079427361488342 2.6432290971279144 5.751302361488342 2.43359375 5.373046875L2.43359375 5.373046875C2.447265625 5.705728888511658 2.4609375 6.020182013511658 2.474609375 6.31640625L2.474609375 6.31640625C2.4928384721279144 6.744791388511658 2.5076498091220856 7.118489444255829 2.51904296875 7.4375C2.5304361283779144 7.756510555744171 2.5361328125 8.007161319255829 2.5361328125 8.189453125L2.5361328125 8.189453125L2.5361328125 14M14.8408203125 14.1640625L14.8408203125 14.1640625C14.1025390625 14.1640625 13.465657621622086 14 12.93017578125 13.671875C12.394693940877914 13.34375 11.982259079813957 12.8857421875 11.69287109375 12.2978515625C11.403483055531979 11.7099609375 11.2587890625 11.024088472127914 11.2587890625 10.240234375C11.2587890625 9.456380069255829 11.400065086781979 8.765950381755829 11.6826171875 8.1689453125C11.965169236063957 7.571940243244171 12.365071684122086 7.104817569255829 12.88232421875 6.767578125C13.399576753377914 6.430338263511658 14.004557222127914 6.26171875 14.697265625 6.26171875L14.697265625 6.26171875C15.102864444255829 6.26171875 15.502766788005829 6.328939080238342 15.89697265625 6.46337890625C16.29117852449417 6.597818732261658 16.64892578125 6.814290642738342 16.97021484375 7.11279296875C17.29150390625 7.411295711994171 17.5478515625 7.804362118244171 17.7392578125 8.2919921875C17.9306640625 8.779622256755829 18.0263671875 9.376627743244171 18.0263671875 10.0830078125L18.0263671875 10.0830078125L18.0263671875 10.595703125L12.5029296875 10.595703125C12.521158784627914 11.087890625 12.619140625 11.51171875 12.796875 11.8671875L12.796875 11.8671875C12.992838472127914 12.263671875 13.267415434122086 12.563313767313957 13.62060546875 12.76611328125C13.973795503377914 12.968912795186043 14.3828125 13.0703125 14.84765625 13.0703125L14.84765625 13.0703125C15.1484375 13.0703125 15.421875 13.027018263936043 15.66796875 12.9404296875C15.9140625 12.853841111063957 16.1259765625 12.722819045186043 16.3037109375 12.54736328125C16.4814453125 12.371907517313957 16.6181640625 12.154296875 16.7138671875 11.89453125L16.7138671875 11.89453125L17.9033203125 12.22265625C17.784830451011658 12.60546875 17.584310173988342 12.942708298563957 17.3017578125 13.234375C17.01920586824417 13.526041649281979 16.66943359375 13.75390625 16.25244140625 13.91796875C15.83544921875 14.08203125 15.364908993244171 14.1640625 14.8408203125 14.1640625M12.509765625 9.556640625L12.509765625 9.556640625L16.775390625 9.556640625C16.74348944425583 9.210286319255829 16.67057305574417 8.891276180744171 16.556640625 8.599609375L16.556640625 8.599609375C16.39713555574417 8.212239444255829 16.16243475675583 7.908040225505829 15.8525390625 7.68701171875C15.542643368244171 7.465983211994171 15.157551944255829 7.35546875 14.697265625 7.35546875C14.236979305744171 7.35546875 13.8427734375 7.46826171875 13.5146484375 7.69384765625C13.1865234375 7.91943359375 12.935872465372086 8.212239444255829 12.7626953125 8.572265625L12.7626953125 8.572265625C12.616861909627914 8.882161319255829 12.532552152872086 9.210286319255829 12.509765625 9.556640625M22.3876953125 14.1640625L22.3876953125 14.1640625C21.863606840372086 14.1640625 21.397623628377914 14.087727862410247 20.98974609375 13.93505859375C20.581868559122086 13.782389318570495 20.245768263936043 13.5556640625 19.9814453125 13.2548828125C19.717122361063957 12.9541015625 19.53938803821802 12.5849609375 19.4482421875 12.1474609375L19.4482421875 12.1474609375L20.6171875 11.8671875C20.7265625 12.286458298563957 20.932779878377914 12.594075486063957 21.23583984375 12.7900390625C21.538899809122086 12.986002638936043 21.918294340372086 13.083984375 22.3740234375 13.083984375L22.3740234375 13.083984375C22.9072265625 13.083984375 23.33219414949417 12.970052048563957 23.64892578125 12.7421875C23.96565741300583 12.514322951436043 24.1240234375 12.2431640625 24.1240234375 11.9287109375L24.1240234375 11.9287109375C24.1240234375 11.664388090372086 24.03173828125 11.444498628377914 23.84716796875 11.26904296875C23.66259765625 11.093587309122086 23.38118475675583 10.962565034627914 23.0029296875 10.8759765625L23.0029296875 10.8759765625L21.7314453125 10.5751953125C21.038736909627914 10.4111328125 20.523763090372086 10.157063663005829 20.1865234375 9.81298828125C19.849283888936043 9.468912899494171 19.6806640625 9.027994930744171 19.6806640625 8.490234375L19.6806640625 8.490234375C19.6806640625 8.052734375 19.8037109375 7.66650390625 20.0498046875 7.33154296875C20.2958984375 6.99658203125 20.631998628377914 6.734537482261658 21.05810546875 6.54541015625C21.484212309122086 6.356282830238342 21.968424409627914 6.26171875 22.5107421875 6.26171875L22.5107421875 6.26171875C23.03483086824417 6.26171875 23.48030585050583 6.34033203125 23.84716796875 6.49755859375C24.21403008699417 6.65478515625 24.51253241300583 6.871256232261658 24.74267578125 7.14697265625C24.97281914949417 7.422688663005829 25.14485663175583 7.740559756755829 25.2587890625 8.1005859375L25.2587890625 8.1005859375L24.14453125 8.3876953125C24.03971368074417 8.1142578125 23.86539727449417 7.865885555744171 23.62158203125 7.642578125C23.37776678800583 7.419270694255829 23.009765625 7.3076171875 22.517578125 7.3076171875L22.517578125 7.3076171875C22.061849027872086 7.3076171875 21.682454496622086 7.412434756755829 21.37939453125 7.6220703125C21.076334565877914 7.831705868244171 20.9248046875 8.096028506755829 20.9248046875 8.4150390625L20.9248046875 8.4150390625C20.9248046875 8.697591006755829 21.02734375 8.92431640625 21.232421875 9.09521484375C21.4375 9.26611328125 21.763346284627914 9.403971493244171 22.2099609375 9.5087890625L22.2099609375 9.5087890625L23.365234375 9.7822265625C24.05794256925583 9.9462890625 24.57063788175583 10.200358211994171 24.9033203125 10.54443359375C25.23600274324417 10.888509184122086 25.40234375 11.322591215372086 25.40234375 11.8466796875L25.40234375 11.8466796875C25.40234375 12.293294236063957 25.27587890625 12.69091796875 25.02294921875 13.03955078125C24.77001953125 13.38818359375 24.41682928800583 13.66276042535901 23.96337890625 13.86328125C23.50992852449417 14.063802081160247 22.98470038175583 14.1640625 22.3876953125 14.1640625M28.615234375 6.357421875L30.1875 6.357421875L30.1875 7.41015625L28.615234375 7.41015625L28.615234375 12.017578125C28.615234375 12.359375 28.684733003377914 12.60888671875 28.82373046875 12.76611328125C28.962727934122086 12.92333984375 29.194010347127914 13.001953125 29.517578125 13.001953125L29.517578125 13.001953125C29.595052152872086 13.001953125 29.69417303800583 12.992838576436043 29.81494140625 12.974609375C29.93570977449417 12.956380173563957 30.04622381925583 12.938151076436043 30.146484375 12.919921875L30.146484375 12.919921875L30.3994140625 13.958984375C30.27180975675583 14.004557291802485 30.12711602449417 14.038736978080124 29.96533203125 14.0615234375C29.80354803800583 14.084309893660247 29.64290350675583 14.095703125 29.4833984375 14.095703125L29.4833984375 14.095703125C28.822591215372086 14.095703125 28.3076171875 13.92138671875 27.9384765625 13.57275390625C27.5693359375 13.22412109375 27.384765625 12.737630173563957 27.384765625 12.11328125L27.384765625 12.11328125L27.384765625 7.41015625L26.236328125 7.41015625L26.236328125 6.357421875L27.384765625 6.357421875L27.384765625 4.5390625L28.615234375 4.5390625L28.615234375 6.357421875M34.97265625 14.1640625L34.97265625 14.1640625C34.234375 14.1640625 33.597493559122086 14 33.06201171875 13.671875C32.526529878377914 13.34375 32.11409501731396 12.8857421875 31.82470703125 12.2978515625C31.53531899303198 11.7099609375 31.390625 11.024088472127914 31.390625 10.240234375C31.390625 9.456380069255829 31.53190102428198 8.765950381755829 31.814453125 8.1689453125C32.09700517356396 7.571940243244171 32.496907621622086 7.104817569255829 33.01416015625 6.767578125C33.531412690877914 6.430338263511658 34.136393159627914 6.26171875 34.8291015625 6.26171875L34.8291015625 6.26171875C35.23470038175583 6.26171875 35.63460272550583 6.328939080238342 36.02880859375 6.46337890625C36.42301446199417 6.597818732261658 36.78076171875 6.814290642738342 37.10205078125 7.11279296875C37.42333984375 7.411295711994171 37.6796875 7.804362118244171 37.87109375 8.2919921875C38.0625 8.779622256755829 38.158203125 9.376627743244171 38.158203125 10.0830078125L38.158203125 10.0830078125L38.158203125 10.595703125L32.634765625 10.595703125C32.652994722127914 11.087890625 32.7509765625 11.51171875 32.9287109375 11.8671875L32.9287109375 11.8671875C33.124674409627914 12.263671875 33.399251371622086 12.563313767313957 33.75244140625 12.76611328125C34.105631440877914 12.968912795186043 34.5146484375 13.0703125 34.9794921875 13.0703125L34.9794921875 13.0703125C35.2802734375 13.0703125 35.5537109375 13.027018263936043 35.7998046875 12.9404296875C36.0458984375 12.853841111063957 36.2578125 12.722819045186043 36.435546875 12.54736328125C36.61328125 12.371907517313957 36.75 12.154296875 36.845703125 11.89453125L36.845703125 11.89453125L38.03515625 12.22265625C37.91666638851166 12.60546875 37.71614611148834 12.942708298563957 37.43359375 13.234375C37.15104180574417 13.526041649281979 36.80126953125 13.75390625 36.38427734375 13.91796875C35.96728515625 14.08203125 35.49674493074417 14.1640625 34.97265625 14.1640625M32.6416015625 9.556640625L32.6416015625 9.556640625L36.9072265625 9.556640625C36.87532538175583 9.210286319255829 36.80240899324417 8.891276180744171 36.6884765625 8.599609375L36.6884765625 8.599609375C36.52897149324417 8.212239444255829 36.29427069425583 7.908040225505829 35.984375 7.68701171875C35.67447930574417 7.465983211994171 35.28938788175583 7.35546875 34.8291015625 7.35546875C34.36881524324417 7.35546875 33.974609375 7.46826171875 33.646484375 7.69384765625C33.318359375 7.91943359375 33.067708402872086 8.212239444255829 32.89453125 8.572265625L32.89453125 8.572265625C32.748697847127914 8.882161319255829 32.664388090372086 9.210286319255829 32.6416015625 9.556640625M42.7861328125 14.1640625L42.7861328125 14.1640625C42.152669340372086 14.1640625 41.592122465372086 14.002278645901242 41.1044921875 13.6787109375C40.616861909627914 13.355143211781979 40.236328125 12.897135451436043 39.962890625 12.3046875C39.689453125 11.712239652872086 39.552734375 11.010416597127914 39.552734375 10.19921875L39.552734375 10.19921875C39.552734375 9.392578125 39.69059243053198 8.694173038005829 39.96630859375 8.10400390625C40.24202470481396 7.513834774494171 40.623697847127914 7.059244930744171 41.111328125 6.740234375C41.598958402872086 6.421224236488342 42.159505277872086 6.26171875 42.79296875 6.26171875L42.79296875 6.26171875C43.28971368074417 6.26171875 43.68391913175583 6.34375 43.9755859375 6.5078125C44.26725274324417 6.671875 44.49169921875 6.857584357261658 44.64892578125 7.06494140625C44.80615234375 7.272298038005829 44.92578125 7.4443359375 45.0078125 7.5810546875L45.0078125 7.5810546875L45.103515625 7.5810546875L45.103515625 3.814453125L46.333984375 3.814453125L46.333984375 14L45.14453125 14L45.14453125 12.8173828125L45.0078125 12.8173828125C44.92578125 12.958658888936043 44.80387383699417 13.13525390625 44.64208984375 13.34716796875C44.48030585050583 13.55908203125 44.25244140625 13.74820964410901 43.95849609375 13.91455078125C43.66455078125 14.080891924910247 43.27376288175583 14.1640625 42.7861328125 14.1640625M42.970703125 13.0634765625L42.970703125 13.0634765625C43.435546875 13.0634765625 43.82747381925583 12.941569045186043 44.146484375 12.69775390625C44.46549493074417 12.453938767313957 44.70703125 12.115559965372086 44.87109375 11.6826171875C45.03515625 11.249674409627914 45.1171875 10.750650972127914 45.1171875 10.185546875L45.1171875 10.185546875C45.1171875 9.620442569255829 45.03629571199417 9.127116024494171 44.87451171875 8.70556640625C44.71272772550583 8.284016788005829 44.47233086824417 7.954752743244171 44.1533203125 7.7177734375C43.83430975675583 7.480794131755829 43.44010430574417 7.3623046875 42.970703125 7.3623046875L42.970703125 7.3623046875C42.48763006925583 7.3623046875 42.08544921875 7.487630069255829 41.76416015625 7.73828125C41.44287109375 7.988932430744171 41.202474027872086 8.327311336994171 41.04296875 8.75341796875C40.883463472127914 9.179524600505829 40.8037109375 9.656901180744171 40.8037109375 10.185546875L40.8037109375 10.185546875C40.8037109375 10.71875 40.884602934122086 11.202962309122086 41.04638671875 11.63818359375C41.208170503377914 12.073404878377914 41.450846284627914 12.419759079813957 41.7744140625 12.67724609375C42.097981840372086 12.934733107686043 42.49674493074417 13.0634765625 42.970703125 13.0634765625M55.5419921875 14.1640625L55.5419921875 14.1640625C54.849283784627914 14.1640625 54.242024809122086 14 53.72021484375 13.671875C53.198404878377914 13.34375 52.79166670143604 12.883463576436043 52.5 12.291015625C52.20833335071802 11.698567777872086 52.0625 11.010416597127914 52.0625 10.2265625L52.0625 10.2265625C52.0625 9.429036319255829 52.20833335071802 8.73291015625 52.5 8.13818359375C52.79166670143604 7.54345703125 53.198404878377914 7.08203125 53.72021484375 6.75390625C54.242024809122086 6.42578125 54.849283784627914 6.26171875 55.5419921875 6.26171875L55.5419921875 6.26171875C55.9111328125 6.26171875 56.259765625 6.3095703125 56.587890625 6.4052734375C56.916015625 6.5009765625 57.21565741300583 6.638834357261658 57.48681640625 6.81884765625C57.75797539949417 6.998860955238342 57.99153631925583 7.219889461994171 58.1875 7.48193359375C58.38346326351166 7.743977725505829 58.53385388851166 8.041341006755829 58.638671875 8.3740234375L58.638671875 8.3740234375L57.4560546875 8.708984375C57.4013671875 8.513020694255829 57.31705743074417 8.3330078125 57.203125 8.1689453125C57.08919256925583 8.0048828125 56.95133477449417 7.862467586994171 56.78955078125 7.74169921875C56.62776678800583 7.620930850505829 56.44205743074417 7.527506649494171 56.232421875 7.46142578125C56.02278631925583 7.395344913005829 55.79264336824417 7.3623046875 55.5419921875 7.3623046875L55.5419921875 7.3623046875C55.03157538175583 7.3623046875 54.6123046875 7.49560546875 54.2841796875 7.76220703125C53.9560546875 8.02880859375 53.712239652872086 8.378580868244171 53.552734375 8.8115234375C53.393229097127914 9.244466006755829 53.3134765625 9.716145694255829 53.3134765625 10.2265625L53.3134765625 10.2265625C53.3134765625 10.727864652872086 53.393229097127914 11.19384765625 53.552734375 11.62451171875C53.712239652872086 12.05517578125 53.9560546875 12.402669236063957 54.2841796875 12.6669921875C54.6123046875 12.931315138936043 55.03157538175583 13.0634765625 55.5419921875 13.0634765625L55.5419921875 13.0634765625C55.79720038175583 13.0634765625 56.03190118074417 13.029296875 56.24609375 12.9609375C56.46028631925583 12.892578125 56.65055352449417 12.795735642313957 56.81689453125 12.67041015625C56.98323553800583 12.545084670186043 57.12337225675583 12.395833298563957 57.2373046875 12.22265625C57.35123711824417 12.049479097127914 57.435546875 11.8603515625 57.490234375 11.6552734375L57.490234375 11.6552734375L58.666015625 11.990234375C58.56575548648834 12.33203125 58.41650390625 12.63623046875 58.21826171875 12.90283203125C58.02001953125 13.16943359375 57.7841796875 13.397298194468021 57.5107421875 13.58642578125C57.2373046875 13.77555339410901 56.93424493074417 13.919108075089753 56.6015625 14.01708984375C56.26888006925583 14.115071618929505 55.91569024324417 14.1640625 55.5419921875 14.1640625M60.4296875 3.814453125L61.66015625 3.814453125L61.66015625 14L60.4296875 14L60.4296875 3.814453125M65.05078125 14L63.8203125 14L63.8203125 6.357421875L65.05078125 6.357421875L65.05078125 14M64.4423828125 5.1064453125L64.4423828125 5.1064453125C64.2099609375 5.1064453125 64.00944013893604 5.026692986488342 63.8408203125 4.8671875C63.67220048606396 4.707682013511658 63.587890625 4.516275763511658 63.587890625 4.29296875L63.587890625 4.29296875C63.587890625 4.065103888511658 63.67220048606396 3.87255859375 63.8408203125 3.71533203125C64.00944013893604 3.55810546875 64.2099609375 3.4794921875 64.4423828125 3.4794921875L64.4423828125 3.4794921875C64.67936190962791 3.4794921875 64.88216152787209 3.55810546875 65.05078125 3.71533203125C65.21940097212791 3.87255859375 65.3037109375 4.065103888511658 65.3037109375 4.29296875L65.3037109375 4.29296875C65.3037109375 4.516275763511658 65.21940097212791 4.707682013511658 65.05078125 4.8671875C64.88216152787209 5.026692986488342 64.67936190962791 5.1064453125 64.4423828125 5.1064453125M68.44140625 16.857421875L67.2109375 16.857421875L67.2109375 6.357421875L68.400390625 6.357421875L68.400390625 7.5810546875L68.537109375 7.5810546875C68.62369784712791 7.4443359375 68.74446621537209 7.272298038005829 68.8994140625 7.06494140625C69.05436190962791 6.857584357261658 69.27766934037209 6.671875 69.5693359375 6.5078125C69.86100274324417 6.34375 70.25520819425583 6.26171875 70.751953125 6.26171875L70.751953125 6.26171875C71.38997381925583 6.26171875 71.95166015625 6.421224236488342 72.43701171875 6.740234375C72.92236328125 7.059244930744171 73.30289685726166 7.513834774494171 73.57861328125 8.10400390625C73.85432970523834 8.694173038005829 73.9921875 9.392578125 73.9921875 10.19921875L73.9921875 10.19921875C73.9921875 11.010416597127914 73.85546875 11.712239652872086 73.58203125 12.3046875C73.30859375 12.897135451436043 72.92919921875 13.355143211781979 72.44384765625 13.6787109375C71.95849609375 14.002278645901242 71.39680975675583 14.1640625 70.7587890625 14.1640625L70.7587890625 14.1640625C70.27571600675583 14.1640625 69.88606756925583 14.080891924910247 69.58984375 13.91455078125C69.29361972212791 13.74820964410901 69.06575527787209 13.55908203125 68.90625 13.34716796875C68.74674472212791 13.13525390625 68.62369784712791 12.958658888936043 68.537109375 12.8173828125L68.537109375 12.8173828125L68.44140625 12.8173828125L68.44140625 16.857421875M70.57421875 13.0634765625L70.57421875 13.0634765625C71.052734375 13.0634765625 71.45263671875 12.934733107686043 71.77392578125 12.67724609375C72.09521484375 12.419759079813957 72.33675116300583 12.073404878377914 72.49853515625 11.63818359375C72.66031914949417 11.202962309122086 72.7412109375 10.71875 72.7412109375 10.185546875L72.7412109375 10.185546875C72.7412109375 9.656901180744171 72.66145819425583 9.179524600505829 72.501953125 8.75341796875C72.34244805574417 8.327311336994171 72.10205078125 7.988932430744171 71.78076171875 7.73828125C71.45947265625 7.487630069255829 71.05729180574417 7.3623046875 70.57421875 7.3623046875L70.57421875 7.3623046875C70.10481756925583 7.3623046875 69.71061211824417 7.480794131755829 69.3916015625 7.7177734375C69.07259121537209 7.954752743244171 68.83219394087791 8.284016788005829 68.67041015625 8.70556640625C68.50862637162209 9.127116024494171 68.427734375 9.620442569255829 68.427734375 10.185546875L68.427734375 10.185546875C68.427734375 10.750650972127914 68.509765625 11.249674409627914 68.673828125 11.6826171875C68.837890625 12.115559965372086 69.08056640625 12.453938767313957 69.40185546875 12.69775390625C69.72314453125 12.941569045186043 70.11393243074417 13.0634765625 70.57421875 13.0634765625M81.15625 6.357421875L82.728515625 6.357421875L82.728515625 7.41015625L81.15625 7.41015625L81.15625 12.017578125C81.15625 12.359375 81.22574862837791 12.60888671875 81.36474609375 12.76611328125C81.50374355912209 12.92333984375 81.73502597212791 13.001953125 82.05859375 13.001953125L82.05859375 13.001953125C82.13606777787209 13.001953125 82.23518866300583 12.992838576436043 82.35595703125 12.974609375C82.47672539949417 12.956380173563957 82.58723944425583 12.938151076436043 82.6875 12.919921875L82.6875 12.919921875L82.9404296875 13.958984375C82.81282538175583 14.004557291802485 82.66813164949417 14.038736978080124 82.50634765625 14.0615234375C82.34456366300583 14.084309893660247 82.18391913175583 14.095703125 82.0244140625 14.095703125L82.0244140625 14.095703125C81.36360684037209 14.095703125 80.8486328125 13.92138671875 80.4794921875 13.57275390625C80.1103515625 13.22412109375 79.92578125 12.737630173563957 79.92578125 12.11328125L79.92578125 12.11328125L79.92578125 7.41015625L78.77734375 7.41015625L78.77734375 6.357421875L79.92578125 6.357421875L79.92578125 4.5390625L81.15625 4.5390625L81.15625 6.357421875M87.513671875 14.1640625L87.513671875 14.1640625C86.775390625 14.1640625 86.13850918412209 14 85.60302734375 13.671875C85.06754550337791 13.34375 84.65511064231396 12.8857421875 84.36572265625 12.2978515625C84.07633461803198 11.7099609375 83.931640625 11.024088472127914 83.931640625 10.240234375C83.931640625 9.456380069255829 84.07291664928198 8.765950381755829 84.35546875 8.1689453125C84.63802079856396 7.571940243244171 85.03792324662209 7.104817569255829 85.55517578125 6.767578125C86.07242831587791 6.430338263511658 86.67740878462791 6.26171875 87.3701171875 6.26171875L87.3701171875 6.26171875C87.77571600675583 6.26171875 88.17561835050583 6.328939080238342 88.56982421875 6.46337890625C88.96403008699417 6.597818732261658 89.32177734375 6.814290642738342 89.64306640625 7.11279296875C89.96435546875 7.411295711994171 90.220703125 7.804362118244171 90.412109375 8.2919921875C90.603515625 8.779622256755829 90.69921875 9.376627743244171 90.69921875 10.0830078125L90.69921875 10.0830078125L90.69921875 10.595703125L85.17578125 10.595703125C85.19401034712791 11.087890625 85.2919921875 11.51171875 85.4697265625 11.8671875L85.4697265625 11.8671875C85.66569003462791 12.263671875 85.94026699662209 12.563313767313957 86.29345703125 12.76611328125C86.64664706587791 12.968912795186043 87.0556640625 13.0703125 87.5205078125 13.0703125L87.5205078125 13.0703125C87.8212890625 13.0703125 88.0947265625 13.027018263936043 88.3408203125 12.9404296875C88.5869140625 12.853841111063957 88.798828125 12.722819045186043 88.9765625 12.54736328125C89.154296875 12.371907517313957 89.291015625 12.154296875 89.38671875 11.89453125L89.38671875 11.89453125L90.576171875 12.22265625C90.45768201351166 12.60546875 90.25716173648834 12.942708298563957 89.974609375 13.234375C89.69205743074417 13.526041649281979 89.34228515625 13.75390625 88.92529296875 13.91796875C88.50830078125 14.08203125 88.03776055574417 14.1640625 87.513671875 14.1640625M85.1826171875 9.556640625L85.1826171875 9.556640625L89.4482421875 9.556640625C89.41634100675583 9.210286319255829 89.34342461824417 8.891276180744171 89.2294921875 8.599609375L89.2294921875 8.599609375C89.06998711824417 8.212239444255829 88.83528631925583 7.908040225505829 88.525390625 7.68701171875C88.21549493074417 7.465983211994171 87.83040350675583 7.35546875 87.3701171875 7.35546875C86.90983086824417 7.35546875 86.515625 7.46826171875 86.1875 7.69384765625C85.859375 7.91943359375 85.60872402787209 8.212239444255829 85.435546875 8.572265625L85.435546875 8.572265625C85.28971347212791 8.882161319255829 85.20540371537209 9.210286319255829 85.1826171875 9.556640625M93.2490234375 14L91.8271484375 14L94.513671875 10.076171875L91.984375 6.357421875L93.419921875 6.357421875L94.3701171875 7.8408203125C94.6162109375 8.2236328125 94.83040371537209 8.581380069255829 95.0126953125 8.9140625L95.0126953125 8.9140625C95.08561211824417 9.055338680744171 95.1630859375 9.196614444255829 95.2451171875 9.337890625L95.2451171875 9.337890625C95.31803399324417 9.196614444255829 95.39095038175583 9.055338680744171 95.4638671875 8.9140625L95.4638671875 8.9140625C95.62337225675583 8.581380069255829 95.82845038175583 8.2236328125 96.0791015625 7.8408203125L96.0791015625 7.8408203125L97.0498046875 6.357421875L98.4580078125 6.357421875L95.9013671875 10.14453125L98.5810546875 14L97.15234375 14L96.03125 12.2841796875C95.78971368074417 11.910481840372086 95.58235663175583 11.561849027872086 95.4091796875 11.23828125L95.4091796875 11.23828125C95.33626288175583 11.110677152872086 95.26334649324417 10.9853515625 95.1904296875 10.8623046875L95.1904296875 10.8623046875C95.1220703125 10.9853515625 95.05598944425583 11.110677152872086 94.9921875 11.23828125L94.9921875 11.23828125C94.83268222212791 11.561849027872086 94.6298828125 11.910481840372086 94.3837890625 12.2841796875L94.3837890625 12.2841796875L93.2490234375 14M101.541015625 6.357421875L103.11328125 6.357421875L103.11328125 7.41015625L101.541015625 7.41015625L101.541015625 12.017578125C101.541015625 12.359375 101.61051425337791 12.60888671875 101.74951171875 12.76611328125C101.88850918412209 12.92333984375 102.11979159712791 13.001953125 102.443359375 13.001953125L102.443359375 13.001953125C102.52083340287209 13.001953125 102.61995428800583 12.992838576436043 102.74072265625 12.974609375C102.86149102449417 12.956380173563957 102.97200506925583 12.938151076436043 103.072265625 12.919921875L103.072265625 12.919921875L103.3251953125 13.958984375C103.19759100675583 14.004557291802485 103.05289727449417 14.038736978080124 102.89111328125 14.0615234375C102.72932928800583 14.084309893660247 102.56868475675583 14.095703125 102.4091796875 14.095703125L102.4091796875 14.095703125C101.74837246537209 14.095703125 101.2333984375 13.92138671875 100.8642578125 13.57275390625C100.4951171875 13.22412109375 100.310546875 12.737630173563957 100.310546875 12.11328125L100.310546875 12.11328125L100.310546875 7.41015625L99.162109375 7.41015625L99.162109375 6.357421875L100.310546875 6.357421875L100.310546875 4.5390625L101.541015625 4.5390625L101.541015625 6.357421875" fill="#000000"/></g></g></g></g></g></g></g></svg>