<svg xmlns="http://www.w3.org/2000/svg" width="200" height="100" viewBox="0 0 200 100"><defs><clipPath id="clip-0"><path d="M 0.00 0.00 L 130.00 0.00 L 130.00 40.00 L 0.00 40.00 L 0.00 0.00" fill-rule="nonzero" fill="black"/></clipPath><clipPath id="clip-1"><path d="M 0.00 0.00 L 160.00 0.00 L 160.00 70.00 L 0.00 70.00 L 0.00 0.00" fill-rule="nonzero" fill="black"/></clipPath><clipPath id="clip-2"><path d="M 0.00 0.00 L 200.00 0.00 L 200.00 100.00 L 0.00 100.00 L 0.00 0.00" fill-rule="nonzero" fill="black"/></clipPath></defs><g><path d="M 0.00 0.00 L 200.00 0.00 L 200.00 100.00 L 0.00 100.00 L 0.00 0.00" fill-rule="nonzero" fill="#ffffff"/><g clip-path="url(#clip-2)"><g transform="matrix(1, 0, 0, 1, 20, 15)"><path d="M 0.00 0.00 L 160.00 0.00 L 160.00 70.00 L 0.00 70.00 L 0.00 0.00" fill-rule="nonzero" fill="#f0f0f0"/><g clip-path="url(#clip-1)"><g transform="matrix(1, 0, 0, 1, 15, 15)"><path d="M 0.00 0.00 L 130.00 0.00 L 130.00 40.00 L 0.00 40.00 L 0.00 0.00" fill-rule="nonzero" fill="#ffffff"/><g clip-path="url(#clip-0)"><g transform="matrix(1, 0, 0, 1, 5, 5)"><path d="M2.53613 14L1.23047 14L1.23047 3.81445L2.76172 3.81445L6.9043 10.3291C7.01367 10.49772 7.14583 10.71419 7.30078 10.97852C7.45573 11.24284 7.62435 11.54134 7.80664 11.87402L7.80664 11.87402C7.9069 12.06087 8.00488 12.25456 8.10059 12.45508L8.10059 12.45508C8.08236 12.23633 8.06869 12.02214 8.05957 11.8125L8.05957 11.8125C8.04134 11.45703 8.02995 11.12891 8.02539 10.82813C8.02083 10.52734 8.01855 10.27214 8.01855 10.0625L8.01855 10.0625L8.01855 3.81445L9.31738 3.81445L9.31738 14L7.77246 14L4.08105 8.20313C3.91243 7.93424 3.74268 7.65739 3.57178 7.37256C3.40088 7.08773 3.20605 6.74935 2.9873 6.35742L2.9873 6.35742C2.8278 6.07943 2.64323 5.7513 2.43359 5.37305L2.43359 5.37305C2.44727 5.70573 2.46094 6.02018 2.47461 6.31641L2.47461 6.31641C2.49284 6.74479 2.50765 7.11849 2.51904 7.4375C2.53044 7.75651 2.53613 8.00716 2.53613 8.18945L2.53613 8.18945L2.53613 14M14.84082 14.16406L14.84082 14.16406C14.10254 14.16406 13.46566 14 12.93018 13.67188C12.39469 13.34375 11.98226 12.88574 11.69287 12.29785C11.40348 11.70996 11.25879 11.02409 11.25879 10.24023C11.25879 9.45638 11.40007 8.76595 11.68262 8.16895C11.96517 7.57194 12.36507 7.10482 12.88232 6.76758C13.39958 6.43034 14.00456 6.26172 14.69727 6.26172L14.69727 6.26172C15.10286 6.26172 15.50277 6.32894 15.89697 6.46338C16.29118 6.59782 16.64893 6.81429 16.97021 7.11279C17.2915 7.4113 17.54785 7.80436 17.73926 8.29199C17.93066 8.77962 18.02637 9.37663 18.02637 10.08301L18.02637 10.08301L18.02637 10.5957L12.50293 10.5957C12.52116 11.08789 12.61914 11.51172 12.79688 11.86719L12.79688 11.86719C12.99284 12.26367 13.26742 12.56331 13.62061 12.76611C13.9738 12.96891 14.38281 13.07031 14.84766 13.07031L14.84766 13.07031C15.14844 13.07031 15.42188 13.02702 15.66797 12.94043C15.91406 12.85384 16.12598 12.72282 16.30371 12.54736C16.48145 12.37191 16.61816 12.1543 16.71387 11.89453L16.71387 11.89453L17.90332 12.22266C17.78483 12.60547 17.58431 12.94271 17.30176 13.23438C17.01921 13.52604 16.66943 13.75391 16.25244 13.91797C15.83545 14.08203 15.36491 14.16406 14.84082 14.16406M12.50977 9.55664L12.50977 9.55664L16.77539 9.55664C16.74349 9.21029 16.67057 8.89128 16.55664 8.59961L16.55664 8.59961C16.39714 8.21224 16.16243 7.90804 15.85254 7.68701C15.54264 7.46598 15.15755 7.35547 14.69727 7.35547C14.23698 7.35547 13.84277 7.46826 13.51465 7.69385C13.18652 7.91943 12.93587 8.21224 12.7627 8.57227L12.7627 8.57227C12.61686 8.88216 12.53255 9.21029 12.50977 9.55664M22.3877 14.16406L22.3877 14.16406C21.86361 14.16406 21.39762 14.08773 20.98975 13.93506C20.58187 13.78239 20.24577 13.55566 19.98145 13.25488C19.71712 12.9541 19.53939 12.58496 19.44824 12.14746L19.44824 12.14746L20.61719 11.86719C20.72656 12.28646 20.93278 12.59408 21.23584 12.79004C21.5389 12.986 21.91829 13.08398 22.37402 13.08398L22.37402 13.08398C22.90723 13.08398 23.33219 12.97005 23.64893 12.74219C23.96566 12.51432 24.12402 12.24316 24.12402 11.92871L24.12402 11.92871C24.12402 11.66439 24.03174 11.4445 23.84717 11.26904C23.6626 11.09359 23.38118 10.96257 23.00293 10.87598L23.00293 10.87598L21.73145 10.5752C21.03874 10.41113 20.52376 10.15706 20.18652 9.81299C19.84928 9.46891 19.68066 9.02799 19.68066 8.49023L19.68066 8.49023C19.68066 8.05273 19.80371 7.6665 20.0498 7.33154C20.2959 6.99658 20.632 6.73454 21.05811 6.54541C21.48421 6.35628 21.96842 6.26172 22.51074 6.26172L22.51074 6.26172C23.03483 6.26172 23.48031 6.34033 23.84717 6.49756C24.21403 6.65479 24.51253 6.87126 24.74268 7.14697C24.97282 7.42269 25.14486 7.74056 25.25879 8.10059L25.25879 8.10059L24.14453 8.3877C24.03971 8.11426 23.8654 7.86589 23.62158 7.64258C23.37777 7.41927 23.00977 7.30762 22.51758 7.30762L22.51758 7.30762C22.06185 7.30762 21.68245 7.41243 21.37939 7.62207C21.07633 7.83171 20.9248 8.09603 20.9248 8.41504L20.9248 8.41504C20.9248 8.69759 21.02734 8.92432 21.23242 9.09521C21.4375 9.26611 21.76335 9.40397 22.20996 9.50879L22.20996 9.50879L23.36523 9.78223C24.05794 9.94629 24.57064 10.20036 24.90332 10.54443C25.236 10.88851 25.40234 11.32259 25.40234 11.84668L25.40234 11.84668C25.40234 12.29329 25.27588 12.69092 25.02295 13.03955C24.77002 13.38818 24.41683 13.66276 23.96338 13.86328C23.50993 14.0638 22.9847 14.16406 22.3877 14.16406M28.61523 6.35742L30.1875 6.35742L30.1875 7.41016L28.61523 7.41016L28.61523 12.01758C28.61523 12.35938 28.68473 12.60889 28.82373 12.76611C28.96273 12.92334 29.19401 13.00195 29.51758 13.00195L29.51758 13.00195C29.59505 13.00195 29.69417 12.99284 29.81494 12.97461C29.93571 12.95638 30.04622 12.93815 30.14648 12.91992L30.14648 12.91992L30.39941 13.95898C30.27181 14.00456 30.12712 14.03874 29.96533 14.06152C29.80355 14.08431 29.6429 14.0957 29.4834 14.0957L29.4834 14.0957C28.82259 14.0957 28.30762 13.92139 27.93848 13.57275C27.56934 13.22412 27.38477 12.73763 27.38477 12.11328L27.38477 12.11328L27.38477 7.41016L26.23633 7.41016L26.23633 6.35742L27.38477 6.35742L27.38477 4.53906L28.61523 4.53906L28.61523 6.35742M34.97266 14.16406L34.97266 14.16406C34.23438 14.16406 33.59749 14 33.06201 13.67188C32.52653 13.34375 32.1141 12.88574 31.82471 12.29785C31.53532 11.70996 31.39063 11.02409 31.39063 10.24023C31.39063 9.45638 31.5319 8.76595 31.81445 8.16895C32.09701 7.57194 32.49691 7.10482 33.01416 6.76758C33.53141 6.43034 34.13639 6.26172 34.8291 6.26172L34.8291 6.26172C35.2347 6.26172 35.6346 6.32894 36.02881 6.46338C36.42301 6.59782 36.78076 6.81429 37.10205 7.11279C37.42334 7.4113 37.67969 7.80436 37.87109 8.29199C38.0625 8.77962 38.1582 9.37663 38.1582 10.08301L38.1582 10.08301L38.1582 10.5957L32.63477 10.5957C32.65299 11.08789 32.75098 11.51172 32.92871 11.86719L32.92871 11.86719C33.12467 12.26367 33.39925 12.56331 33.75244 12.76611C34.10563 12.96891 34.51465 13.07031 34.97949 13.07031L34.97949 13.07031C35.28027 13.07031 35.55371 13.02702 35.7998 12.94043C36.0459 12.85384 36.25781 12.72282 36.43555 12.54736C36.61328 12.37191 36.75 12.1543 36.8457 11.89453L36.8457 11.89453L38.03516 12.22266C37.91667 12.60547 37.71615 12.94271 37.43359 13.23438C37.15104 13.52604 36.80127 13.75391 36.38428 13.91797C35.96729 14.08203 35.49674 14.16406 34.97266 14.16406M32.6416 9.55664L32.6416 9.55664L36.90723 9.55664C36.87533 9.21029 36.80241 8.89128 36.68848 8.59961L36.68848 8.59961C36.52897 8.21224 36.29427 7.90804 35.98438 7.68701C35.67448 7.46598 35.28939 7.35547 34.8291 7.35547C34.36882 7.35547 33.97461 7.46826 33.64648 7.69385C33.31836 7.91943 33.06771 8.21224 32.89453 8.57227L32.89453 8.57227C32.7487 8.88216 32.66439 9.21029 32.6416 9.55664M42.78613 14.16406L42.78613 14.16406C42.15267 14.16406 41.59212 14.00228 41.10449 13.67871C40.61686 13.35514 40.23633 12.89714 39.96289 12.30469C39.68945 11.71224 39.55273 11.01042 39.55273 10.19922L39.55273 10.19922C39.55273 9.39258 39.69059 8.69417 39.96631 8.104C40.24202 7.51383 40.6237 7.05924 41.11133 6.74023C41.59896 6.42122 42.15951 6.26172 42.79297 6.26172L42.79297 6.26172C43.28971 6.26172 43.68392 6.34375 43.97559 6.50781C44.26725 6.67188 44.4917 6.85758 44.64893 7.06494C44.80615 7.2723 44.92578 7.44434 45.00781 7.58105L45.00781 7.58105L45.10352 7.58105L45.10352 3.81445L46.33398 3.81445L46.33398 14L45.14453 14L45.14453 12.81738L45.00781 12.81738C44.92578 12.95866 44.80387 13.13525 44.64209 13.34717C44.48031 13.55908 44.25244 13.74821 43.9585 13.91455C43.66455 14.08089 43.27376 14.16406 42.78613 14.16406M42.9707 13.06348L42.9707 13.06348C43.43555 13.06348 43.82747 12.94157 44.14648 12.69775C44.46549 12.45394 44.70703 12.11556 44.87109 11.68262C45.03516 11.24967 45.11719 10.75065 45.11719 10.18555L45.11719 10.18555C45.11719 9.62044 45.0363 9.12712 44.87451 8.70557C44.71273 8.28402 44.47233 7.95475 44.15332 7.71777C43.83431 7.48079 43.4401 7.3623 42.9707 7.3623L42.9707 7.3623C42.48763 7.3623 42.08545 7.48763 41.76416 7.73828C41.44287 7.98893 41.20247 8.32731 41.04297 8.75342C40.88346 9.17952 40.80371 9.6569 40.80371 10.18555L40.80371 10.18555C40.80371 10.71875 40.8846 11.20296 41.04639 11.63818C41.20817 12.0734 41.45085 12.41976 41.77441 12.67725C42.09798 12.93473 42.49674 13.06348 42.9707 13.06348M55.54199 14.16406L55.54199 14.16406C54.84928 14.16406 54.24202 14 53.72021 13.67188C53.1984 13.34375 52.79167 12.88346 52.5 12.29102C52.20833 11.69857 52.0625 11.01042 52.0625 10.22656L52.0625 10.22656C52.0625 9.42904 52.20833 8.73291 52.5 8.13818C52.79167 7.54346 53.1984 7.08203 53.72021 6.75391C54.24202 6.42578 54.84928 6.26172 55.54199 6.26172L55.54199 6.26172C55.91113 6.26172 56.25977 6.30957 56.58789 6.40527C56.91602 6.50098 57.21566 6.63883 57.48682 6.81885C57.75798 6.99886 57.99154 7.21989 58.1875 7.48193C58.38346 7.74398 58.53385 8.04134 58.63867 8.37402L58.63867 8.37402L57.45605 8.70898C57.40137 8.51302 57.31706 8.33301 57.20313 8.16895C57.08919 8.00488 56.95133 7.86247 56.78955 7.7417C56.62777 7.62093 56.44206 7.52751 56.23242 7.46143C56.02279 7.39534 55.79264 7.3623 55.54199 7.3623L55.54199 7.3623C55.03158 7.3623 54.6123 7.49561 54.28418 7.76221C53.95605 8.02881 53.71224 8.37858 53.55273 8.81152C53.39323 9.24447 53.31348 9.71615 53.31348 10.22656L53.31348 10.22656C53.31348 10.72786 53.39323 11.19385 53.55273 11.62451C53.71224 12.05518 53.95605 12.40267 54.28418 12.66699C54.6123 12.93132 55.03158 13.06348 55.54199 13.06348L55.54199 13.06348C55.7972 13.06348 56.0319 13.0293 56.24609 12.96094C56.46029 12.89258 56.65055 12.79574 56.81689 12.67041C56.98324 12.54508 57.12337 12.39583 57.2373 12.22266C57.35124 12.04948 57.43555 11.86035 57.49023 11.65527L57.49023 11.65527L58.66602 11.99023C58.56576 12.33203 58.4165 12.63623 58.21826 12.90283C58.02002 13.16943 57.78418 13.3973 57.51074 13.58643C57.2373 13.77555 56.93424 13.91911 56.60156 14.01709C56.26888 14.11507 55.91569 14.16406 55.54199 14.16406M60.42969 3.81445L61.66016 3.81445L61.66016 14L60.42969 14L60.42969 3.81445M65.05078 14L63.82031 14L63.82031 6.35742L65.05078 6.35742L65.05078 14M64.44238 5.10645L64.44238 5.10645C64.20996 5.10645 64.00944 5.02669 63.84082 4.86719C63.6722 4.70768 63.58789 4.51628 63.58789 4.29297L63.58789 4.29297C63.58789 4.0651 63.6722 3.87256 63.84082 3.71533C64.00944 3.55811 64.20996 3.47949 64.44238 3.47949L64.44238 3.47949C64.67936 3.47949 64.88216 3.55811 65.05078 3.71533C65.2194 3.87256 65.30371 4.0651 65.30371 4.29297L65.30371 4.29297C65.30371 4.51628 65.2194 4.70768 65.05078 4.86719C64.88216 5.02669 64.67936 5.10645 64.44238 5.10645M68.44141 16.85742L67.21094 16.85742L67.21094 6.35742L68.40039 6.35742L68.40039 7.58105L68.53711 7.58105C68.6237 7.44434 68.74447 7.2723 68.89941 7.06494C69.05436 6.85758 69.27767 6.67188 69.56934 6.50781C69.861 6.34375 70.25521 6.26172 70.75195 6.26172L70.75195 6.26172C71.38997 6.26172 71.95166 6.42122 72.43701 6.74023C72.92236 7.05924 73.3029 7.51383 73.57861 8.104C73.85433 8.69417 73.99219 9.39258 73.99219 10.19922L73.99219 10.19922C73.99219 11.01042 73.85547 11.71224 73.58203 12.30469C73.30859 12.89714 72.9292 13.35514 72.44385 13.67871C71.9585 14.00228 71.39681 14.16406 70.75879 14.16406L70.75879 14.16406C70.27572 14.16406 69.88607 14.08089 69.58984 13.91455C69.29362 13.74821 69.06576 13.55908 68.90625 13.34717C68.74674 13.13525 68.6237 12.95866 68.53711 12.81738L68.53711 12.81738L68.44141 12.81738L68.44141 16.85742M70.57422 13.06348L70.57422 13.06348C71.05273 13.06348 71.45264 12.93473 71.77393 12.67725C72.09521 12.41976 72.33675 12.0734 72.49854 11.63818C72.66032 11.20296 72.74121 10.71875 72.74121 10.18555L72.74121 10.18555C72.74121 9.6569 72.66146 9.17952 72.50195 8.75342C72.34245 8.32731 72.10205 7.98893 71.78076 7.73828C71.45947 7.48763 71.05729 7.3623 70.57422 7.3623L70.57422 7.3623C70.10482 7.3623 69.71061 7.48079 69.3916 7.71777C69.07259 7.95475 68.83219 8.28402 68.67041 8.70557C68.50863 9.12712 68.42773 9.62044 68.42773 10.18555L68.42773 10.18555C68.42773 10.75065 68.50977 11.24967 68.67383 11.68262C68.83789 12.11556 69.08057 12.45394 69.40186 12.69775C69.72314 12.94157 70.11393 13.06348 70.57422 13.06348M81.15625 6.35742L82.72852 6.35742L82.72852 7.41016L81.15625 7.41016L81.15625 12.01758C81.15625 12.35938 81.22575 12.60889 81.36475 12.76611C81.50374 12.92334 81.73503 13.00195 82.05859 13.00195L82.05859 13.00195C82.13607 13.00195 82.23519 12.99284 82.35596 12.97461C82.47673 12.95638 82.58724 12.93815 82.6875 12.91992L82.6875 12.91992L82.94043 13.95898C82.81283 14.00456 82.66813 14.03874 82.50635 14.06152C82.34456 14.08431 82.18392 14.0957 82.02441 14.0957L82.02441 14.0957C81.36361 14.0957 80.84863 13.92139 80.47949 13.57275C80.11035 13.22412 79.92578 12.73763 79.92578 12.11328L79.92578 12.11328L79.92578 7.41016L78.77734 7.41016L78.77734 6.35742L79.92578 6.35742L79.92578 4.53906L81.15625 4.53906L81.15625 6.35742M87.51367 14.16406L87.51367 14.16406C86.77539 14.16406 86.13851 14 85.60303 13.67188C85.06755 13.34375 84.65511 12.88574 84.36572 12.29785C84.07633 11.70996 83.93164 11.02409 83.93164 10.24023C83.93164 9.45638 84.07292 8.76595 84.35547 8.16895C84.63802 7.57194 85.03792 7.10482 85.55518 6.76758C86.07243 6.43034 86.67741 6.26172 87.37012 6.26172L87.37012 6.26172C87.77572 6.26172 88.17562 6.32894 88.56982 6.46338C88.96403 6.59782 89.32178 6.81429 89.64307 7.11279C89.96436 7.4113 90.2207 7.80436 90.41211 8.29199C90.60352 8.77962 90.69922 9.37663 90.69922 10.08301L90.69922 10.08301L90.69922 10.5957L85.17578 10.5957C85.19401 11.08789 85.29199 11.51172 85.46973 11.86719L85.46973 11.86719C85.66569 12.26367 85.94027 12.56331 86.29346 12.76611C86.64665 12.96891 87.05566 13.07031 87.52051 13.07031L87.52051 13.07031C87.82129 13.07031 88.09473 13.02702 88.34082 12.94043C88.58691 12.85384 88.79883 12.72282 88.97656 12.54736C89.1543 12.37191 89.29102 12.1543 89.38672 11.89453L89.38672 11.89453L90.57617 12.22266C90.45768 12.60547 90.25716 12.94271 89.97461 13.23438C89.69206 13.52604 89.34229 13.75391 88.92529 13.91797C88.5083 14.08203 88.03776 14.16406 87.51367 14.16406M85.18262 9.55664L85.18262 9.55664L89.44824 9.55664C89.41634 9.21029 89.34342 8.89128 89.22949 8.59961L89.22949 8.59961C89.06999 8.21224 88.83529 7.90804 88.52539 7.68701C88.21549 7.46598 87.8304 7.35547 87.37012 7.35547C86.90983 7.35547 86.51563 7.46826 86.1875 7.69385C85.85938 7.91943 85.60872 8.21224 85.43555 8.57227L85.43555 8.57227C85.28971 8.88216 85.2054 9.21029 85.18262 9.55664M93.24902 14L91.82715 14L94.51367 10.07617L91.98438 6.35742L93.41992 6.35742L94.37012 7.84082C94.61621 8.22363 94.8304 8.58138 95.0127 8.91406L95.0127 8.91406C95.08561 9.05534 95.16309 9.19661 95.24512 9.33789L95.24512 9.33789C95.31803 9.19661 95.39095 9.05534 95.46387 8.91406L95.46387 8.91406C95.62337 8.58138 95.82845 8.22363 96.0791 7.84082L96.0791 7.84082L97.0498 6.35742L98.45801 6.35742L95.90137 10.14453L98.58105 14L97.15234 14L96.03125 12.28418C95.78971 11.91048 95.58236 11.56185 95.40918 11.23828L95.40918 11.23828C95.33626 11.11068 95.26335 10.98535 95.19043 10.8623L95.19043 10.8623C95.12207 10.98535 95.05599 11.11068 94.99219 11.23828L94.99219 11.23828C94.83268 11.56185 94.62988 11.91048 94.38379 12.28418L94.38379 12.28418L93.24902 14M101.54102 6.35742L103.11328 6.35742L103.11328 7.41016L101.54102 7.41016L101.54102 12.01758C101.54102 12.35938 101.61051 12.60889 101.74951 12.76611C101.88851 12.92334 102.11979 13.00195 102.44336 13.00195L102.44336 13.00195C102.52083 13.00195 102.61995 12.99284 102.74072 12.97461C102.86149 12.95638 102.97201 12.93815 103.07227 12.91992L103.07227 12.91992L103.3252 13.95898C103.19759 14.00456 103.0529 14.03874 102.89111 14.06152C102.72933 14.08431 102.56868 14.0957 102.40918 14.0957L102.40918 14.0957C101.74837 14.0957 101.2334 13.92139 100.86426 13.57275C100.49512 13.22412 100.31055 12.73763 100.31055 12.11328L100.31055 12.11328L100.31055 7.41016L99.16211 7.41016L99.16211 6.35742L100.31055 6.35742L100.31055 4.53906L101.54102 4.53906L101.54102 6.35742" fill="#000000"/></g></g></g></g></g></g></g></svg>