<svg xmlns="http://www.w3.org/2000/svg" width="180" height="180" viewBox="0 0 180 180"><g><defs><clipPath id="clip-g287-4"><rect x="0" y="0" width="180" height="180"/></clipPath></defs><rect x="0" y="0" width="180" height="180" fill="#ffffff"/><g transform="matrix(1,0,0,1,30,30)" filter="url(#filter-g287-2)" style="isolation:isolate"><defs><filter id="filter-g287-2" x="-12" y="-8" width="144" height="144" filterUnits="userSpaceOnUse" color-interpolation-filters="sRGB"><feColorMatrix in="SourceAlpha" type="matrix" values="0 0 0 0 0 0 0 0 0 0 0 0 0 0 0 0 0 0 127 0" result="hardAlpha-g287-0"/><feOffset in="hardAlpha-g287-0" dx="0" dy="4"/><feGaussianBlur stdDeviation="6"/><feColorMatrix type="matrix" values="0 0 0 0 0 0 0 0 0 0 0 0 0 0 0 0 0 0 0.20000000298023224 0" result="drop-tinted-g287-1"/><feMerge><feMergeNode in="drop-tinted-g287-1"/><feMergeNode in="SourceGraphic"/></feMerge></filter><pattern id="ag-g287-3" patternUnits="userSpaceOnUse" width="340" height="340"><path d="M60,60 L229.7056274847714,60 L229.65451532262406,64.164784585728 Z" fill="rgb(255,78,77)"/><path d="M60,60 L229.65451532262406,64.164784585728 L229.5012096242373,68.32706046095288 Z" fill="rgb(255,80,76)"/><path d="M60,60 L229.5012096242373,68.32706046095288 L229.24580273523136,72.48432042632493 Z" fill="rgb(255,82,76)"/><path d="M60,60 L229.24580273523136,72.48432042632493 L228.8884485031659,76.63406030389098 Z" fill="rgb(255,84,76)"/><path d="M60,60 L228.8884485031659,76.63406030389098 L228.42936218486798,80.77378044551753 Z" fill="rgb(255,86,75)"/><path d="M60,60 L228.42936218486798,80.77378044551753 L227.86882031676942,84.90098723858539 Z" fill="rgb(255,88,75)"/><path d="M60,60 L227.86882031676942,84.90098723858539 L227.20716054833147,89.01319460804861 Z" fill="rgb(255,90,74)"/><path d="M60,60 L227.20716054833147,89.01319460804861 L226.44478143865769,93.10792551395316 Z" fill="rgb(255,92,74)"/><path d="M60,60 L226.44478143865769,93.10792551395316 L225.5821422164165,97.18271344351318 Z" fill="rgb(255,94,74)"/><path d="M60,60 L225.5821422164165,97.18271344351318 L224.61976250321925,101.23510389684604 Z" fill="rgb(255,96,73)"/><path d="M60,60 L224.61976250321925,101.23510389684604 L223.55822200061945,105.26265586547129 Z" fill="rgb(255,98,73)"/><path d="M60,60 L223.55822200061945,105.26265586547129 L222.39816014092233,109.26294330268288 Z" fill="rgb(255,100,72)"/><path d="M60,60 L222.39816014092233,109.26294330268288 L221.14027570201463,113.23355658490905 Z" fill="rgb(255,102,72)"/><path d="M60,60 L221.14027570201463,113.23355658490905 L219.78532638644705,117.17210396317935 Z" fill="rgb(255,104,72)"/><path d="M60,60 L219.78532638644705,117.17210396317935 L218.33412836502245,121.0762130038249 Z" fill="rgb(255,106,71)"/><path d="M60,60 L218.33412836502245,121.0762130038249 L216.78755578516518,124.94353201754365 Z" fill="rgb(255,108,71)"/><path d="M60,60 L216.78755578516518,124.94353201754365 L215.14654024436726,128.77173147597009 Z" fill="rgb(255,110,70)"/><path d="M60,60 L215.14654024436726,128.77173147597009 L213.4120702290289,132.55850541489608 Z" fill="rgb(255,112,70)"/><path d="M60,60 L213.4120702290289,132.55850541489608 L211.58519051903139,136.30157282329742 Z" fill="rgb(255,114,69)"/><path d="M60,60 L211.58519051903139,136.30157282329742 L209.66700155840056,139.99867901732958 Z" fill="rgb(255,116,69)"/><path d="M60,60 L209.66700155840056,139.99867901732958 L207.6586587924406,143.64759699846496 Z" fill="rgb(255,118,69)"/><path d="M60,60 L207.6586587924406,143.64759699846496 L205.56137197173695,147.24612879495362 Z" fill="rgb(255,120,68)"/><path d="M60,60 L205.56137197173695,147.24612879495362 L203.3764044234478,150.79210678579904 Z" fill="rgb(255,122,68)"/><path d="M60,60 L203.3764044234478,150.79210678579904 L201.10507229032305,154.28339500645225 Z" fill="rgb(255,124,67)"/><path d="M60,60 L201.10507229032305,154.28339500645225 L198.7487437379091,157.7178904354368 Z" fill="rgb(255,126,67)"/><path d="M60,60 L198.7487437379091,157.7178904354368 L196.30883813041714,161.0935242611303 Z" fill="rgb(255,128,67)"/><path d="M60,60 L196.30883813041714,161.0935242611303 L193.78682517575115,164.40826312793925 Z" fill="rgb(255,130,66)"/><path d="M60,60 L193.78682517575115,164.40826312793925 L191.18422404021092,167.66011036111635 Z" fill="rgb(255,132,66)"/><path d="M60,60 L191.18422404021092,167.66011036111635 L188.50260243340293,170.84710716948274 Z" fill="rgb(255,134,65)"/><path d="M60,60 L188.50260243340293,170.84710716948274 L185.74357566391086,173.96733382533054 Z" fill="rgb(255,136,65)"/><path d="M60,60 L185.74357566391086,173.96733382533054 L182.908805666294,177.018910820795 Z" fill="rgb(255,138,65)"/><path d="M60,60 L182.908805666294,177.018910820795 L180,180 Z" fill="rgb(255,140,64)"/><path d="M60,60 L180,180 L177.01891082079504,182.90880566629397 Z" fill="rgb(255,141,64)"/><path d="M60,60 L177.01891082079504,182.90880566629397 L173.96733382533054,185.74357566391083 Z" fill="rgb(255,143,63)"/><path d="M60,60 L173.96733382533054,185.74357566391083 L170.84710716948274,188.5026024334029 Z" fill="rgb(255,145,63)"/><path d="M60,60 L170.84710716948274,188.5026024334029 L167.66011036111638,191.1842240402109 Z" fill="rgb(255,147,63)"/><path d="M60,60 L167.66011036111638,191.1842240402109 L164.40826312793925,193.78682517575115 Z" fill="rgb(255,149,62)"/><path d="M60,60 L164.40826312793925,193.78682517575115 L161.0935242611303,196.30883813041714 Z" fill="rgb(255,151,62)"/><path d="M60,60 L161.0935242611303,196.30883813041714 L157.7178904354368,198.7487437379091 Z" fill="rgb(255,153,61)"/><path d="M60,60 L157.7178904354368,198.7487437379091 L154.28339500645228,201.10507229032305 Z" fill="rgb(255,155,61)"/><path d="M60,60 L154.28339500645228,201.10507229032305 L150.79210678579904,203.3764044234478 Z" fill="rgb(255,157,61)"/><path d="M60,60 L150.79210678579904,203.3764044234478 L147.24612879495365,205.56137197173695 Z" fill="rgb(255,159,60)"/><path d="M60,60 L147.24612879495365,205.56137197173695 L143.647596998465,207.65865879244058 Z" fill="rgb(255,161,60)"/><path d="M60,60 L143.647596998465,207.65865879244058 L139.99867901732958,209.66700155840056 Z" fill="rgb(255,163,59)"/><path d="M60,60 L139.99867901732958,209.66700155840056 L136.30157282329742,211.58519051903139 Z" fill="rgb(255,165,59)"/><path d="M60,60 L136.30157282329742,211.58519051903139 L132.5585054148961,213.4120702290289 Z" fill="rgb(255,167,59)"/><path d="M60,60 L132.5585054148961,213.4120702290289 L128.77173147597009,215.14654024436726 Z" fill="rgb(255,169,58)"/><path d="M60,60 L128.77173147597009,215.14654024436726 L124.94353201754365,216.78755578516518 Z" fill="rgb(255,171,58)"/><path d="M60,60 L124.94353201754365,216.78755578516518 L121.07621300382492,218.33412836502245 Z" fill="rgb(255,173,57)"/><path d="M60,60 L121.07621300382492,218.33412836502245 L117.17210396317935,219.78532638644705 Z" fill="rgb(255,175,57)"/><path d="M60,60 L117.17210396317935,219.78532638644705 L113.23355658490907,221.14027570201463 Z" fill="rgb(255,177,56)"/><path d="M60,60 L113.23355658490907,221.14027570201463 L109.26294330268288,222.39816014092233 Z" fill="rgb(255,179,56)"/><path d="M60,60 L109.26294330268288,222.39816014092233 L105.26265586547129,223.55822200061945 Z" fill="rgb(255,181,56)"/><path d="M60,60 L105.26265586547129,223.55822200061945 L101.23510389684606,224.61976250321925 Z" fill="rgb(255,183,55)"/><path d="M60,60 L101.23510389684606,224.61976250321925 L97.18271344351318,225.5821422164165 Z" fill="rgb(255,185,55)"/><path d="M60,60 L97.18271344351318,225.5821422164165 L93.10792551395318,226.44478143865769 Z" fill="rgb(255,187,54)"/><path d="M60,60 L93.10792551395318,226.44478143865769 L89.01319460804864,227.20716054833147 Z" fill="rgb(255,189,54)"/><path d="M60,60 L89.01319460804864,227.20716054833147 L84.90098723858539,227.86882031676942 Z" fill="rgb(255,191,54)"/><path d="M60,60 L84.90098723858539,227.86882031676942 L80.77378044551754,228.42936218486798 Z" fill="rgb(255,193,53)"/><path d="M60,60 L80.77378044551754,228.42936218486798 L76.63406030389096,228.8884485031659 Z" fill="rgb(255,195,53)"/><path d="M60,60 L76.63406030389096,228.8884485031659 L72.48432042632498,229.24580273523136 Z" fill="rgb(255,197,52)"/><path d="M60,60 L72.48432042632498,229.24580273523136 L68.32706046095291,229.5012096242373 Z" fill="rgb(255,199,52)"/><path d="M60,60 L68.32706046095291,229.5012096242373 L64.164784585728,229.65451532262406 Z" fill="rgb(255,201,52)"/><path d="M60,60 L64.164784585728,229.65451532262406 L60.00000000000001,229.7056274847714 Z" fill="rgb(255,203,51)"/><path d="M60,60 L60.00000000000001,229.7056274847714 L55.835215414271985,229.65451532262406 Z" fill="rgb(253,204,52)"/><path d="M60,60 L55.835215414271985,229.65451532262406 L51.67293953904712,229.5012096242373 Z" fill="rgb(250,204,53)"/><path d="M60,60 L51.67293953904712,229.5012096242373 L47.51567957367508,229.24580273523136 Z" fill="rgb(247,204,54)"/><path d="M60,60 L47.51567957367508,229.24580273523136 L43.36593969610905,228.8884485031659 Z" fill="rgb(244,204,55)"/><path d="M60,60 L43.36593969610905,228.8884485031659 L39.226219554482476,228.42936218486798 Z" fill="rgb(241,204,56)"/><path d="M60,60 L39.226219554482476,228.42936218486798 L35.09901276141463,227.86882031676942 Z" fill="rgb(237,204,58)"/><path d="M60,60 L35.09901276141463,227.86882031676942 L30.98680539195139,227.20716054833147 Z" fill="rgb(234,204,59)"/><path d="M60,60 L30.98680539195139,227.20716054833147 L26.892074486046887,226.4447814386577 Z" fill="rgb(231,204,60)"/><path d="M60,60 L26.892074486046887,226.4447814386577 L22.81728655648684,225.5821422164165 Z" fill="rgb(228,204,61)"/><path d="M60,60 L22.81728655648684,225.5821422164165 L18.76489610315396,224.61976250321925 Z" fill="rgb(225,204,62)"/><path d="M60,60 L18.76489610315396,224.61976250321925 L14.737344134528726,223.55822200061945 Z" fill="rgb(222,204,64)"/><path d="M60,60 L14.737344134528726,223.55822200061945 L10.737056697317108,222.39816014092233 Z" fill="rgb(218,204,65)"/><path d="M60,60 L10.737056697317108,222.39816014092233 L6.766443415090961,221.14027570201463 Z" fill="rgb(215,204,66)"/><path d="M60,60 L6.766443415090961,221.14027570201463 L2.8278960368206683,219.78532638644705 Z" fill="rgb(212,204,67)"/><path d="M60,60 L2.8278960368206683,219.78532638644705 L-1.0762130038248614,218.33412836502248 Z" fill="rgb(209,204,68)"/><path d="M60,60 L-1.0762130038248614,218.33412836502248 L-4.943532017543632,216.78755578516518 Z" fill="rgb(206,204,70)"/><path d="M60,60 L-4.943532017543632,216.78755578516518 L-8.771731475970071,215.14654024436726 Z" fill="rgb(202,204,71)"/><path d="M60,60 L-8.771731475970071,215.14654024436726 L-12.558505414896118,213.4120702290289 Z" fill="rgb(199,204,72)"/><path d="M60,60 L-12.558505414896118,213.4120702290289 L-16.301572823297448,211.58519051903139 Z" fill="rgb(196,204,73)"/><path d="M60,60 L-16.301572823297448,211.58519051903139 L-19.998679017329522,209.66700155840059 Z" fill="rgb(193,204,74)"/><path d="M60,60 L-19.998679017329522,209.66700155840059 L-23.647596998464977,207.6586587924406 Z" fill="rgb(190,204,76)"/><path d="M60,60 L-23.647596998464977,207.6586587924406 L-27.246128794953606,205.56137197173695 Z" fill="rgb(186,204,77)"/><path d="M60,60 L-27.246128794953606,205.56137197173695 L-30.79210678579902,203.37640442344784 Z" fill="rgb(183,204,78)"/><path d="M60,60 L-30.79210678579902,203.37640442344784 L-34.283395006452295,201.10507229032302 Z" fill="rgb(180,204,79)"/><path d="M60,60 L-34.283395006452295,201.10507229032302 L-37.717890435436814,198.7487437379091 Z" fill="rgb(177,204,80)"/><path d="M60,60 L-37.717890435436814,198.7487437379091 L-41.09352426113031,196.30883813041714 Z" fill="rgb(174,204,82)"/><path d="M60,60 L-41.09352426113031,196.30883813041714 L-44.40826312793925,193.78682517575118 Z" fill="rgb(171,204,83)"/><path d="M60,60 L-44.40826312793925,193.78682517575118 L-47.66011036111634,191.18422404021092 Z" fill="rgb(167,204,84)"/><path d="M60,60 L-47.66011036111634,191.18422404021092 L-50.847107169482754,188.5026024334029 Z" fill="rgb(164,204,85)"/><path d="M60,60 L-50.847107169482754,188.5026024334029 L-53.96733382533054,185.74357566391086 Z" fill="rgb(161,204,86)"/><path d="M60,60 L-53.96733382533054,185.74357566391086 L-57.018910820794986,182.90880566629403 Z" fill="rgb(158,204,88)"/><path d="M60,60 L-57.018910820794986,182.90880566629403 L-60,180 Z" fill="rgb(155,204,89)"/><path d="M60,60 L-60,180 L-62.90880566629396,177.01891082079504 Z" fill="rgb(151,204,90)"/><path d="M60,60 L-62.90880566629396,177.01891082079504 L-65.74357566391082,173.96733382533057 Z" fill="rgb(148,204,91)"/><path d="M60,60 L-65.74357566391082,173.96733382533057 L-68.50260243340293,170.84710716948274 Z" fill="rgb(145,204,93)"/><path d="M60,60 L-68.50260243340293,170.84710716948274 L-71.18422404021092,167.66011036111635 Z" fill="rgb(142,204,94)"/><path d="M60,60 L-71.18422404021092,167.66011036111635 L-73.78682517575115,164.40826312793928 Z" fill="rgb(139,204,95)"/><path d="M60,60 L-73.78682517575115,164.40826312793928 L-76.30883813041712,161.0935242611303 Z" fill="rgb(135,204,96)"/><path d="M60,60 L-76.30883813041712,161.0935242611303 L-78.74874373790908,157.71789043543683 Z" fill="rgb(132,204,97)"/><path d="M60,60 L-78.74874373790908,157.71789043543683 L-81.10507229032308,154.28339500645225 Z" fill="rgb(129,204,99)"/><path d="M60,60 L-81.10507229032308,154.28339500645225 L-83.37640442344781,150.79210678579904 Z" fill="rgb(126,204,100)"/><path d="M60,60 L-83.37640442344781,150.79210678579904 L-85.56137197173695,147.24612879495362 Z" fill="rgb(123,204,101)"/><path d="M60,60 L-85.56137197173695,147.24612879495362 L-87.65865879244058,143.64759699846502 Z" fill="rgb(120,204,102)"/><path d="M60,60 L-87.65865879244058,143.64759699846502 L-89.66700155840053,139.9986790173296 Z" fill="rgb(116,204,103)"/><path d="M60,60 L-89.66700155840053,139.9986790173296 L-91.58519051903136,136.30157282329748 Z" fill="rgb(113,204,105)"/><path d="M60,60 L-91.58519051903136,136.30157282329748 L-93.4120702290289,132.55850541489608 Z" fill="rgb(110,204,106)"/><path d="M60,60 L-93.4120702290289,132.55850541489608 L-95.14654024436726,128.7717314759701 Z" fill="rgb(107,204,107)"/><path d="M60,60 L-95.14654024436726,128.7717314759701 L-96.78755578516518,124.94353201754366 Z" fill="rgb(104,204,108)"/><path d="M60,60 L-96.78755578516518,124.94353201754366 L-98.33412836502245,121.07621300382493 Z" fill="rgb(100,204,109)"/><path d="M60,60 L-98.33412836502245,121.07621300382493 L-99.78532638644705,117.1721039631794 Z" fill="rgb(97,204,111)"/><path d="M60,60 L-99.78532638644705,117.1721039631794 L-101.14027570201463,113.23355658490904 Z" fill="rgb(94,204,112)"/><path d="M60,60 L-101.14027570201463,113.23355658490904 L-102.39816014092233,109.26294330268288 Z" fill="rgb(91,204,113)"/><path d="M60,60 L-102.39816014092233,109.26294330268288 L-103.55822200061942,105.26265586547137 Z" fill="rgb(88,204,114)"/><path d="M60,60 L-103.55822200061942,105.26265586547137 L-104.61976250321925,101.23510389684607 Z" fill="rgb(84,204,115)"/><path d="M60,60 L-104.61976250321925,101.23510389684607 L-105.58214221641651,97.18271344351322 Z" fill="rgb(81,204,117)"/><path d="M60,60 L-105.58214221641651,97.18271344351322 L-106.44478143865769,93.10792551395315 Z" fill="rgb(78,204,118)"/><path d="M60,60 L-106.44478143865769,93.10792551395315 L-107.20716054833147,89.01319460804861 Z" fill="rgb(75,204,119)"/><path d="M60,60 L-107.20716054833147,89.01319460804861 L-107.86882031676939,84.90098723858547 Z" fill="rgb(72,204,120)"/><path d="M60,60 L-107.86882031676939,84.90098723858547 L-108.42936218486798,80.77378044551756 Z" fill="rgb(69,204,121)"/><path d="M60,60 L-108.42936218486798,80.77378044551756 L-108.88844850316588,76.63406030389102 Z" fill="rgb(65,204,123)"/><path d="M60,60 L-108.88844850316588,76.63406030389102 L-109.24580273523136,72.48432042632491 Z" fill="rgb(62,204,124)"/><path d="M60,60 L-109.24580273523136,72.48432042632491 L-109.5012096242373,68.32706046095288 Z" fill="rgb(59,204,125)"/><path d="M60,60 L-109.5012096242373,68.32706046095288 L-109.65451532262406,64.16478458572809 Z" fill="rgb(56,204,126)"/><path d="M60,60 L-109.65451532262406,64.16478458572809 L-109.70562748477141,60.00000000000002 Z" fill="rgb(53,204,127)"/><path d="M60,60 L-109.70562748477141,60.00000000000002 L-109.65451532262406,55.835215414272035 Z" fill="rgb(51,203,129)"/><path d="M60,60 L-109.65451532262406,55.835215414272035 L-109.5012096242373,51.67293953904709 Z" fill="rgb(52,201,131)"/><path d="M60,60 L-109.5012096242373,51.67293953904709 L-109.24580273523136,47.51567957367513 Z" fill="rgb(52,199,133)"/><path d="M60,60 L-109.24580273523136,47.51567957367513 L-108.8884485031659,43.365939696109024 Z" fill="rgb(52,197,135)"/><path d="M60,60 L-108.8884485031659,43.365939696109024 L-108.42936218486798,39.22621955448248 Z" fill="rgb(53,195,137)"/><path d="M60,60 L-108.42936218486798,39.22621955448248 L-107.86882031676942,35.09901276141464 Z" fill="rgb(53,193,139)"/><path d="M60,60 L-107.86882031676942,35.09901276141464 L-107.20716054833147,30.98680539195136 Z" fill="rgb(54,191,141)"/><path d="M60,60 L-107.20716054833147,30.98680539195136 L-106.44478143865771,26.892074486046894 Z" fill="rgb(54,189,143)"/><path d="M60,60 L-106.44478143865771,26.892074486046894 L-105.58214221641651,22.817286556486813 Z" fill="rgb(54,187,145)"/><path d="M60,60 L-105.58214221641651,22.817286556486813 L-104.61976250321925,18.764896103153973 Z" fill="rgb(55,185,147)"/><path d="M60,60 L-104.61976250321925,18.764896103153973 L-103.55822200061948,14.737344134528811 Z" fill="rgb(55,183,149)"/><path d="M60,60 L-103.55822200061948,14.737344134528811 L-102.39816014092233,10.737056697317158 Z" fill="rgb(56,181,151)"/><path d="M60,60 L-102.39816014092233,10.737056697317158 L-101.14027570201466,6.766443415091004 Z" fill="rgb(56,179,153)"/><path d="M60,60 L-101.14027570201466,6.766443415091004 L-99.78532638644705,2.827896036820647 Z" fill="rgb(56,177,155)"/><path d="M60,60 L-99.78532638644705,2.827896036820647 L-98.33412836502248,-1.0762130038248898 Z" fill="rgb(57,175,157)"/><path d="M60,60 L-98.33412836502248,-1.0762130038248898 L-96.78755578516521,-4.943532017543546 Z" fill="rgb(57,173,159)"/><path d="M60,60 L-96.78755578516521,-4.943532017543546 L-95.14654024436729,-8.771731475970057 Z" fill="rgb(58,171,161)"/><path d="M60,60 L-95.14654024436729,-8.771731475970057 L-93.41207022902893,-12.558505414896047 Z" fill="rgb(58,169,163)"/><path d="M60,60 L-93.41207022902893,-12.558505414896047 L-91.58519051903139,-16.301572823297434 Z" fill="rgb(59,167,165)"/><path d="M60,60 L-91.58519051903139,-16.301572823297434 L-89.66700155840056,-19.99867901732958 Z" fill="rgb(59,165,167)"/><path d="M60,60 L-89.66700155840056,-19.99867901732958 L-87.65865879244058,-23.647596998465033 Z" fill="rgb(59,163,169)"/><path d="M60,60 L-87.65865879244058,-23.647596998465033 L-85.56137197173697,-27.24612879495359 Z" fill="rgb(60,161,171)"/><path d="M60,60 L-85.56137197173697,-27.24612879495359 L-83.37640442344784,-30.792106785799007 Z" fill="rgb(60,159,173)"/><path d="M60,60 L-83.37640442344784,-30.792106785799007 L-81.10507229032305,-34.28339500645228 Z" fill="rgb(61,157,175)"/><path d="M60,60 L-81.10507229032305,-34.28339500645228 L-78.74874373790914,-37.71789043543674 Z" fill="rgb(61,155,177)"/><path d="M60,60 L-78.74874373790914,-37.71789043543674 L-76.30883813041714,-41.0935242611303 Z" fill="rgb(61,153,179)"/><path d="M60,60 L-76.30883813041714,-41.0935242611303 L-73.78682517575118,-44.408263127939236 Z" fill="rgb(62,151,181)"/><path d="M60,60 L-73.78682517575118,-44.408263127939236 L-71.18422404021092,-47.660110361116324 Z" fill="rgb(62,149,183)"/><path d="M60,60 L-71.18422404021092,-47.660110361116324 L-68.5026024334029,-50.847107169482754 Z" fill="rgb(63,147,185)"/><path d="M60,60 L-68.5026024334029,-50.847107169482754 L-65.74357566391089,-53.967333825330485 Z" fill="rgb(63,145,187)"/><path d="M60,60 L-65.74357566391089,-53.967333825330485 L-62.908805666294,-57.018910820795014 Z" fill="rgb(63,143,189)"/><path d="M60,60 L-62.908805666294,-57.018910820795014 L-60.00000000000003,-60 Z" fill="rgb(64,141,191)"/><path d="M60,60 L-60.00000000000003,-60 L-57.018910820795,-62.908805666294 Z" fill="rgb(64,140,192)"/><path d="M60,60 L-57.018910820795,-62.908805666294 L-53.96733382533057,-65.74357566391082 Z" fill="rgb(65,138,194)"/><path d="M60,60 L-53.96733382533057,-65.74357566391082 L-50.8471071694828,-68.5026024334029 Z" fill="rgb(65,136,196)"/><path d="M60,60 L-50.8471071694828,-68.5026024334029 L-47.660110361116296,-71.18422404021095 Z" fill="rgb(65,134,198)"/><path d="M60,60 L-47.660110361116296,-71.18422404021095 L-44.408263127939335,-73.78682517575109 Z" fill="rgb(66,132,200)"/><path d="M60,60 L-44.408263127939335,-73.78682517575109 L-41.09352426113027,-76.30883813041714 Z" fill="rgb(66,130,202)"/><path d="M60,60 L-41.09352426113027,-76.30883813041714 L-37.7178904354368,-78.74874373790911 Z" fill="rgb(67,128,204)"/><path d="M60,60 L-37.7178904354368,-78.74874373790911 L-34.283395006452395,-81.10507229032297 Z" fill="rgb(67,126,206)"/><path d="M60,60 L-34.283395006452395,-81.10507229032297 L-30.792106785799064,-83.37640442344778 Z" fill="rgb(67,124,208)"/><path d="M60,60 L-30.792106785799064,-83.37640442344778 L-27.24612879495362,-85.56137197173695 Z" fill="rgb(68,122,210)"/><path d="M60,60 L-27.24612879495362,-85.56137197173695 L-23.647596998465005,-87.65865879244058 Z" fill="rgb(68,120,212)"/><path d="M60,60 L-23.647596998465005,-87.65865879244058 L-19.998679017329636,-89.66700155840053 Z" fill="rgb(69,118,214)"/><path d="M60,60 L-19.998679017329636,-89.66700155840053 L-16.301572823297477,-91.58519051903136 Z" fill="rgb(69,116,216)"/><path d="M60,60 L-16.301572823297477,-91.58519051903136 L-12.55850541489616,-93.41207022902887 Z" fill="rgb(69,114,218)"/><path d="M60,60 L-12.55850541489616,-93.41207022902887 L-8.77173147597017,-95.14654024436723 Z" fill="rgb(70,112,220)"/><path d="M60,60 L-8.77173147597017,-95.14654024436723 L-4.943532017543589,-96.78755578516521 Z" fill="rgb(70,110,222)"/><path d="M60,60 L-4.943532017543589,-96.78755578516521 L-1.0762130038248685,-98.33412836502248 Z" fill="rgb(71,108,224)"/><path d="M60,60 L-1.0762130038248685,-98.33412836502248 L2.8278960368206683,-99.78532638644705 Z" fill="rgb(71,106,226)"/><path d="M60,60 L2.8278960368206683,-99.78532638644705 L6.766443415090954,-101.14027570201463 Z" fill="rgb(72,104,228)"/><path d="M60,60 L6.766443415090954,-101.14027570201463 L10.7370566973171,-102.39816014092233 Z" fill="rgb(72,102,230)"/><path d="M60,60 L10.7370566973171,-102.39816014092233 L14.73734413452869,-103.55822200061945 Z" fill="rgb(72,100,232)"/><path d="M60,60 L14.73734413452869,-103.55822200061945 L18.764896103153916,-104.61976250321925 Z" fill="rgb(73,98,234)"/><path d="M60,60 L18.764896103153916,-104.61976250321925 L22.817286556486764,-105.58214221641651 Z" fill="rgb(73,96,236)"/><path d="M60,60 L22.817286556486764,-105.58214221641651 L26.892074486046774,-106.44478143865769 Z" fill="rgb(74,94,238)"/><path d="M60,60 L26.892074486046774,-106.44478143865769 L30.986805391951314,-107.20716054833147 Z" fill="rgb(74,92,240)"/><path d="M60,60 L30.986805391951314,-107.20716054833147 L35.09901276141466,-107.86882031676942 Z" fill="rgb(74,90,242)"/><path d="M60,60 L35.09901276141466,-107.86882031676942 L39.226219554482356,-108.42936218486798 Z" fill="rgb(75,88,244)"/><path d="M60,60 L39.226219554482356,-108.42936218486798 L43.36593969610905,-108.8884485031659 Z" fill="rgb(75,86,246)"/><path d="M60,60 L43.36593969610905,-108.8884485031659 L47.51567957367508,-109.24580273523136 Z" fill="rgb(76,84,248)"/><path d="M60,60 L47.51567957367508,-109.24580273523136 L51.672939539046965,-109.50120962423728 Z" fill="rgb(76,82,250)"/><path d="M60,60 L51.672939539046965,-109.50120962423728 L55.835215414271985,-109.65451532262406 Z" fill="rgb(76,80,252)"/><path d="M60,60 L55.835215414271985,-109.65451532262406 L59.99999999999997,-109.70562748477141 Z" fill="rgb(77,78,254)"/><path d="M60,60 L59.99999999999997,-109.70562748477141 L64.16478458572796,-109.65451532262406 Z" fill="rgb(78,77,254)"/><path d="M60,60 L64.16478458572796,-109.65451532262406 L68.32706046095282,-109.5012096242373 Z" fill="rgb(81,77,251)"/><path d="M60,60 L68.32706046095282,-109.5012096242373 L72.48432042632501,-109.24580273523136 Z" fill="rgb(84,77,248)"/><path d="M60,60 L72.48432042632501,-109.24580273523136 L76.63406030389089,-108.8884485031659 Z" fill="rgb(87,77,245)"/><path d="M60,60 L76.63406030389089,-108.8884485031659 L80.77378044551743,-108.42936218486798 Z" fill="rgb(90,77,242)"/><path d="M60,60 L80.77378044551743,-108.42936218486798 L84.90098723858543,-107.86882031676939 Z" fill="rgb(92,77,240)"/><path d="M60,60 L84.90098723858543,-107.86882031676939 L89.01319460804862,-107.20716054833147 Z" fill="rgb(95,77,237)"/><path d="M60,60 L89.01319460804862,-107.20716054833147 L93.10792551395318,-106.44478143865769 Z" fill="rgb(98,77,234)"/><path d="M60,60 L93.10792551395318,-106.44478143865769 L97.18271344351317,-105.58214221641651 Z" fill="rgb(101,77,231)"/><path d="M60,60 L97.18271344351317,-105.58214221641651 L101.23510389684603,-104.61976250321925 Z" fill="rgb(103,77,229)"/><path d="M60,60 L101.23510389684603,-104.61976250321925 L105.26265586547126,-103.55822200061948 Z" fill="rgb(106,77,226)"/><path d="M60,60 L105.26265586547126,-103.55822200061948 L109.26294330268283,-102.39816014092233 Z" fill="rgb(109,77,223)"/><path d="M60,60 L109.26294330268283,-102.39816014092233 L113.233556584909,-101.14027570201466 Z" fill="rgb(112,77,220)"/><path d="M60,60 L113.233556584909,-101.14027570201466 L117.17210396317927,-99.78532638644708 Z" fill="rgb(115,77,217)"/><path d="M60,60 L117.17210396317927,-99.78532638644708 L121.07621300382495,-98.33412836502245 Z" fill="rgb(117,77,215)"/><path d="M60,60 L121.07621300382495,-98.33412836502245 L124.94353201754367,-96.78755578516515 Z" fill="rgb(120,77,212)"/><path d="M60,60 L124.94353201754367,-96.78755578516515 L128.77173147596997,-95.14654024436729 Z" fill="rgb(123,77,209)"/><path d="M60,60 L128.77173147596997,-95.14654024436729 L132.5585054148961,-93.4120702290289 Z" fill="rgb(126,77,206)"/><path d="M60,60 L132.5585054148961,-93.4120702290289 L136.30157282329742,-91.58519051903139 Z" fill="rgb(128,77,204)"/><path d="M60,60 L136.30157282329742,-91.58519051903139 L139.99867901732958,-89.66700155840056 Z" fill="rgb(131,77,201)"/><path d="M60,60 L139.99867901732958,-89.66700155840056 L143.64759699846496,-87.6586587924406 Z" fill="rgb(134,77,198)"/><path d="M60,60 L143.64759699846496,-87.6586587924406 L147.2461287949536,-85.56137197173697 Z" fill="rgb(137,77,195)"/><path d="M60,60 L147.2461287949536,-85.56137197173697 L150.792106785799,-83.37640442344784 Z" fill="rgb(140,77,192)"/><path d="M60,60 L150.792106785799,-83.37640442344784 L154.2833950064522,-81.10507229032308 Z" fill="rgb(142,77,190)"/><path d="M60,60 L154.2833950064522,-81.10507229032308 L157.71789043543686,-78.74874373790908 Z" fill="rgb(145,77,187)"/><path d="M60,60 L157.71789043543686,-78.74874373790908 L161.09352426113026,-76.3088381304172 Z" fill="rgb(148,77,184)"/><path d="M60,60 L161.09352426113026,-76.3088381304172 L164.40826312793916,-73.7868251757512 Z" fill="rgb(151,77,181)"/><path d="M60,60 L164.40826312793916,-73.7868251757512 L167.66011036111638,-71.18422404021089 Z" fill="rgb(153,77,179)"/><path d="M60,60 L167.66011036111638,-71.18422404021089 L170.84710716948274,-68.50260243340293 Z" fill="rgb(156,77,176)"/><path d="M60,60 L170.84710716948274,-68.50260243340293 L173.96733382533054,-65.74357566391086 Z" fill="rgb(159,77,173)"/><path d="M60,60 L173.96733382533054,-65.74357566391086 L177.018910820795,-62.908805666294 Z" fill="rgb(162,77,170)"/><path d="M60,60 L177.018910820795,-62.908805666294 L179.99999999999997,-60.00000000000003 Z" fill="rgb(165,77,167)"/><path d="M60,60 L179.99999999999997,-60.00000000000003 L182.90880566629394,-57.01891082079507 Z" fill="rgb(167,77,165)"/><path d="M60,60 L182.90880566629394,-57.01891082079507 L185.7435756639108,-53.96733382533057 Z" fill="rgb(170,77,162)"/><path d="M60,60 L185.7435756639108,-53.96733382533057 L188.50260243340287,-50.8471071694828 Z" fill="rgb(173,77,159)"/><path d="M60,60 L188.50260243340287,-50.8471071694828 L191.18422404021086,-47.66011036111644 Z" fill="rgb(176,77,156)"/><path d="M60,60 L191.18422404021086,-47.66011036111644 L193.78682517575118,-44.40826312793922 Z" fill="rgb(179,77,153)"/><path d="M60,60 L193.78682517575118,-44.40826312793922 L196.30883813041714,-41.0935242611303 Z" fill="rgb(181,77,151)"/><path d="M60,60 L196.30883813041714,-41.0935242611303 L198.74874373790902,-37.71789043543693 Z" fill="rgb(184,77,148)"/><path d="M60,60 L198.74874373790902,-37.71789043543693 L201.10507229032305,-34.28339500645225 Z" fill="rgb(187,77,145)"/><path d="M60,60 L201.10507229032305,-34.28339500645225 L203.37640442344778,-30.792106785799064 Z" fill="rgb(190,77,142)"/><path d="M60,60 L203.37640442344778,-30.792106785799064 L205.56137197173686,-27.246128794953776 Z" fill="rgb(192,77,140)"/><path d="M60,60 L205.56137197173686,-27.246128794953776 L207.65865879244058,-23.64759699846502 Z" fill="rgb(195,77,137)"/><path d="M60,60 L207.65865879244058,-23.64759699846502 L209.66700155840053,-19.998679017329636 Z" fill="rgb(198,77,134)"/><path d="M60,60 L209.66700155840053,-19.998679017329636 L211.58519051903136,-16.30157282329749 Z" fill="rgb(201,77,131)"/><path d="M60,60 L211.58519051903136,-16.30157282329749 L213.41207022902887,-12.55850541489616 Z" fill="rgb(204,77,128)"/><path d="M60,60 L213.41207022902887,-12.55850541489616 L215.1465402443673,-8.771731475970043 Z" fill="rgb(206,77,126)"/><path d="M60,60 L215.1465402443673,-8.771731475970043 L216.7875557851652,-4.943532017543603 Z" fill="rgb(209,77,123)"/><path d="M60,60 L216.7875557851652,-4.943532017543603 L218.33412836502242,-1.0762130038250106 Z" fill="rgb(212,77,120)"/><path d="M60,60 L218.33412836502242,-1.0762130038250106 L219.78532638644705,2.827896036820661 Z" fill="rgb(215,77,117)"/><path d="M60,60 L219.78532638644705,2.827896036820661 L221.14027570201463,6.766443415090947 Z" fill="rgb(217,77,115)"/><path d="M60,60 L221.14027570201463,6.766443415090947 L222.39816014092227,10.737056697316952 Z" fill="rgb(220,77,112)"/><path d="M60,60 L222.39816014092227,10.737056697316952 L223.55822200061945,14.737344134528676 Z" fill="rgb(223,77,109)"/><path d="M60,60 L223.55822200061945,14.737344134528676 L224.61976250321925,18.76489610315391 Z" fill="rgb(226,77,106)"/><path d="M60,60 L224.61976250321925,18.76489610315391 L225.58214221641654,22.8172865564869 Z" fill="rgb(229,77,103)"/><path d="M60,60 L225.58214221641654,22.8172865564869 L226.44478143865769,26.89207448604676 Z" fill="rgb(231,77,101)"/><path d="M60,60 L226.44478143865769,26.89207448604676 L227.20716054833147,30.9868053919513 Z" fill="rgb(234,77,98)"/><path d="M60,60 L227.20716054833147,30.9868053919513 L227.86882031676942,35.099012761414656 Z" fill="rgb(237,77,95)"/><path d="M60,60 L227.86882031676942,35.099012761414656 L228.42936218486795,39.22621955448235 Z" fill="rgb(240,77,92)"/><path d="M60,60 L228.42936218486795,39.22621955448235 L228.8884485031659,43.36593969610904 Z" fill="rgb(242,77,90)"/><path d="M60,60 L228.8884485031659,43.36593969610904 L229.24580273523136,47.515679573675065 Z" fill="rgb(245,77,87)"/><path d="M60,60 L229.24580273523136,47.515679573675065 L229.50120962423728,51.67293953904695 Z" fill="rgb(248,77,84)"/><path d="M60,60 L229.50120962423728,51.67293953904695 L229.65451532262406,55.83521541427197 Z" fill="rgb(251,77,81)"/><path d="M60,60 L229.65451532262406,55.83521541427197 L229.7056274847714,59.99999999999996 Z" fill="rgb(254,77,78)"/></pattern></defs><path d="M 20 0 L 100 0 C 111.04569499661586 0 120 8.954305003384134 120 20 L 120 100 C 120 111.04569499661586 111.04569499661586 120 100 120 L 20 120 C 8.954305003384134 120 0 111.04569499661586 0 100 L 0 20 C 0 8.954305003384134 8.954305003384134 0 20 0 Z" fill="url(#ag-g287-3)"/></g></g></svg>