<svg xmlns="http://www.w3.org/2000/svg" width="200" height="140" viewBox="0 0 200 140"><g><defs><clipPath id="clip-g281-1"><rect x="0" y="0" width="200" height="140"/></clipPath></defs><rect x="0" y="0" width="200" height="140" fill="#ffffff"/><g transform="matrix(1,0,0,1,20,20)"><defs><pattern id="ag-g281-0" patternUnits="userSpaceOnUse" width="378" height="378"><path d="M80,50 L213.41664064126334,-83.41664064126334 L216.65066631022347,-80.10224977675043 Z" fill="rgb(229,51,128)"/><path d="M80,50 L216.65066631022347,-80.10224977675043 L219.80237872749584,-76.7094901818085 Z" fill="rgb(228,52,129)"/><path d="M80,50 L219.80237872749584,-76.7094901818085 L222.86987941937042,-73.24040552795402 Z" fill="rgb(227,53,130)"/><path d="M80,50 L222.86987941937042,-73.24040552795402 L225.85132063813165,-69.6970854620651 Z" fill="rgb(225,53,131)"/><path d="M80,50 L225.85132063813165,-69.6970854620651 L228.7449064750726,-66.08166434765614 Z" fill="rgb(224,54,132)"/><path d="M80,50 L228.7449064750726,-66.08166434765614 L231.5488939422833,-62.39631997921717 Z" fill="rgb(222,54,132)"/><path d="M80,50 L231.5488939422833,-62.39631997921717 L234.2615940225613,-58.643272270391805 Z" fill="rgb(221,55,133)"/><path d="M80,50 L234.2615940225613,-58.643272270391805 L236.88137268681263,-54.82478191678436 Z" fill="rgb(220,56,134)"/><path d="M80,50 L236.88137268681263,-54.82478191678436 L239.4066518783298,-50.94314903420131 Z" fill="rgb(218,56,135)"/><path d="M80,50 L239.4066518783298,-50.94314903420131 L241.83591046335408,-47.00071177314754 Z" fill="rgb(217,57,136)"/><path d="M80,50 L241.83591046335408,-47.00071177314754 L244.16768514734972,-42.99984491041181 Z" fill="rgb(215,57,136)"/><path d="M80,50 L244.16768514734972,-42.99984491041181 L246.40057135643772,-38.942958418590294 Z" fill="rgb(214,58,137)"/><path d="M80,50 L246.40057135643772,-38.942958418590294 L248.53322408345875,-34.83249601440882 Z" fill="rgb(213,59,138)"/><path d="M80,50 L248.53322408345875,-34.83249601440882 L250.56435869815502,-30.67093368671958 Z" fill="rgb(211,59,139)"/><path d="M80,50 L250.56435869815502,-30.67093368671958 L252.49275172098373,-26.46077820505799 Z" fill="rgb(210,60,140)"/><path d="M80,50 L252.49275172098373,-26.46077820505799 L254.3172415600951,-22.20456560965833 Z" fill="rgb(208,60,140)"/><path d="M80,50 L254.3172415600951,-22.20456560965833 L256.0367292110322,-17.904859683838012 Z" fill="rgb(207,61,141)"/><path d="M80,50 L256.0367292110322,-17.904859683838012 L257.6501789187298,-13.564250409670393 Z" fill="rgb(206,62,142)"/><path d="M80,50 L257.6501789187298,-13.564250409670393 L259.1566188014149,-9.185352407876408 Z" fill="rgb(204,62,143)"/><path d="M80,50 L259.1566188014149,-9.185352407876408 L260.5551414360314,-4.770803362874773 Z" fill="rgb(203,63,144)"/><path d="M80,50 L260.5551414360314,-4.770803362874773 L261.8449044048385,-0.3232624339396182 Z" fill="rgb(201,63,144)"/><path d="M80,50 L261.8449044048385,-0.3232624339396182 L263.025130802851,4.154591346577789 Z" fill="rgb(200,64,145)"/><path d="M80,50 L263.025130802851,4.154591346577789 L264.09510970581834,8.66006068699776 Z" fill="rgb(199,65,146)"/><path d="M80,50 L264.09510970581834,8.66006068699776 L265.0541965984585,13.190431661059982 Z" fill="rgb(197,65,147)"/><path d="M80,50 L265.0541965984585,13.190431661059982 L265.9018137626897,17.742975342691167 Z" fill="rgb(196,66,148)"/><path d="M80,50 L265.9018137626897,17.742975342691167 L266.6374506256269,22.314949449808076 Z" fill="rgb(194,66,148)"/><path d="M80,50 L266.6374506256269,22.314949449808076 L267.26066406713096,26.903599996165703 Z" fill="rgb(193,67,149)"/><path d="M80,50 L267.26066406713096,26.903599996165703 L267.7710786867283,31.506162950255618 Z" fill="rgb(192,68,150)"/><path d="M80,50 L267.7710786867283,31.506162950255618 L268.1683870297376,36.11986590025519 Z" fill="rgb(190,68,151)"/><path d="M80,50 L268.1683870297376,36.11986590025519 L268.4523497724693,40.7419297240248 Z" fill="rgb(189,69,152)"/><path d="M80,50 L268.4523497724693,40.7419297240248 L268.62279586638533,45.369570263147125 Z" fill="rgb(187,69,152)"/><path d="M80,50 L268.62279586638533,45.369570263147125 L268.6796226411321,50 Z" fill="rgb(186,70,153)"/><path d="M80,50 L268.6796226411321,50 L268.62279586638533,54.630429736852875 Z" fill="rgb(185,71,154)"/><path d="M80,50 L268.62279586638533,54.630429736852875 L268.4523497724693,59.2580702759752 Z" fill="rgb(183,71,155)"/><path d="M80,50 L268.4523497724693,59.2580702759752 L268.1683870297376,63.88013409974481 Z" fill="rgb(182,72,155)"/><path d="M80,50 L268.1683870297376,63.88013409974481 L267.7710786867283,68.49383704974439 Z" fill="rgb(180,72,156)"/><path d="M80,50 L267.7710786867283,68.49383704974439 L267.26066406713096,73.0964000038343 Z" fill="rgb(179,73,157)"/><path d="M80,50 L267.26066406713096,73.0964000038343 L266.6374506256269,77.68505055019193 Z" fill="rgb(178,74,158)"/><path d="M80,50 L266.6374506256269,77.68505055019193 L265.9018137626897,82.25702465730883 Z" fill="rgb(176,74,159)"/><path d="M80,50 L265.9018137626897,82.25702465730883 L265.0541965984585,86.80956833894001 Z" fill="rgb(175,75,159)"/><path d="M80,50 L265.0541965984585,86.80956833894001 L264.09510970581834,91.33993931300225 Z" fill="rgb(173,75,160)"/><path d="M80,50 L264.09510970581834,91.33993931300225 L263.025130802851,95.84540865342221 Z" fill="rgb(172,76,161)"/><path d="M80,50 L263.025130802851,95.84540865342221 L261.8449044048385,100.32326243393962 Z" fill="rgb(171,77,162)"/><path d="M80,50 L261.8449044048385,100.32326243393962 L260.5551414360314,104.77080336287477 Z" fill="rgb(169,77,163)"/><path d="M80,50 L260.5551414360314,104.77080336287477 L259.1566188014149,109.18535240787641 Z" fill="rgb(168,78,163)"/><path d="M80,50 L259.1566188014149,109.18535240787641 L257.6501789187298,113.5642504096704 Z" fill="rgb(166,78,164)"/><path d="M80,50 L257.6501789187298,113.5642504096704 L256.0367292110322,117.90485968383801 Z" fill="rgb(165,79,165)"/><path d="M80,50 L256.0367292110322,117.90485968383801 L254.3172415600951,122.20456560965833 Z" fill="rgb(164,80,166)"/><path d="M80,50 L254.3172415600951,122.20456560965833 L252.49275172098373,126.46077820505799 Z" fill="rgb(162,80,167)"/><path d="M80,50 L252.49275172098373,126.46077820505799 L250.56435869815502,130.6709336867196 Z" fill="rgb(161,81,167)"/><path d="M80,50 L250.56435869815502,130.6709336867196 L248.53322408345875,134.83249601440883 Z" fill="rgb(159,81,168)"/><path d="M80,50 L248.53322408345875,134.83249601440883 L246.40057135643772,138.9429584185903 Z" fill="rgb(158,82,169)"/><path d="M80,50 L246.40057135643772,138.9429584185903 L244.16768514734972,142.9998449104118 Z" fill="rgb(157,83,170)"/><path d="M80,50 L244.16768514734972,142.9998449104118 L241.83591046335408,147.00071177314754 Z" fill="rgb(155,83,171)"/><path d="M80,50 L241.83591046335408,147.00071177314754 L239.4066518783298,150.94314903420133 Z" fill="rgb(154,84,171)"/><path d="M80,50 L239.4066518783298,150.94314903420133 L236.88137268681263,154.82478191678436 Z" fill="rgb(152,84,172)"/><path d="M80,50 L236.88137268681263,154.82478191678436 L234.2615940225613,158.6432722703918 Z" fill="rgb(151,85,173)"/><path d="M80,50 L234.2615940225613,158.6432722703918 L231.5488939422833,162.39631997921717 Z" fill="rgb(150,86,174)"/><path d="M80,50 L231.5488939422833,162.39631997921717 L228.7449064750726,166.08166434765616 Z" fill="rgb(148,86,175)"/><path d="M80,50 L228.7449064750726,166.08166434765616 L225.85132063813165,169.6970854620651 Z" fill="rgb(147,87,175)"/><path d="M80,50 L225.85132063813165,169.6970854620651 L222.86987941937042,173.240405527954 Z" fill="rgb(145,87,176)"/><path d="M80,50 L222.86987941937042,173.240405527954 L219.80237872749584,176.70949018180852 Z" fill="rgb(144,88,177)"/><path d="M80,50 L219.80237872749584,176.70949018180852 L216.65066631022347,180.10224977675043 Z" fill="rgb(143,89,178)"/><path d="M80,50 L216.65066631022347,180.10224977675043 L213.41664064126334,183.41664064126334 Z" fill="rgb(141,89,179)"/><path d="M80,50 L213.41664064126334,183.41664064126334 L210.10224977675045,186.65066631022347 Z" fill="rgb(140,90,179)"/><path d="M80,50 L210.10224977675045,186.65066631022347 L206.70949018180852,189.8023787274958 Z" fill="rgb(138,90,180)"/><path d="M80,50 L206.70949018180852,189.8023787274958 L203.24040552795407,192.8698794193704 Z" fill="rgb(137,91,181)"/><path d="M80,50 L203.24040552795407,192.8698794193704 L199.69708546206513,195.85132063813163 Z" fill="rgb(136,92,182)"/><path d="M80,50 L199.69708546206513,195.85132063813163 L196.08166434765616,198.7449064750726 Z" fill="rgb(134,92,183)"/><path d="M80,50 L196.08166434765616,198.7449064750726 L192.39631997921717,201.5488939422833 Z" fill="rgb(133,93,183)"/><path d="M80,50 L192.39631997921717,201.5488939422833 L188.6432722703918,204.2615940225613 Z" fill="rgb(131,93,184)"/><path d="M80,50 L188.6432722703918,204.2615940225613 L184.8247819167844,206.88137268681263 Z" fill="rgb(130,94,185)"/><path d="M80,50 L184.8247819167844,206.88137268681263 L180.94314903420133,209.4066518783298 Z" fill="rgb(129,95,186)"/><path d="M80,50 L180.94314903420133,209.4066518783298 L177.00071177314754,211.83591046335408 Z" fill="rgb(127,95,187)"/><path d="M80,50 L177.00071177314754,211.83591046335408 L172.99984491041187,214.16768514734972 Z" fill="rgb(126,96,187)"/><path d="M80,50 L172.99984491041187,214.16768514734972 L168.94295841859028,216.40057135643772 Z" fill="rgb(124,96,188)"/><path d="M80,50 L168.94295841859028,216.40057135643772 L164.83249601440883,218.53322408345875 Z" fill="rgb(123,97,189)"/><path d="M80,50 L164.83249601440883,218.53322408345875 L160.67093368671962,220.56435869815502 Z" fill="rgb(122,98,190)"/><path d="M80,50 L160.67093368671962,220.56435869815502 L156.460778205058,222.49275172098373 Z" fill="rgb(120,98,191)"/><path d="M80,50 L156.460778205058,222.49275172098373 L152.20456560965835,224.3172415600951 Z" fill="rgb(119,99,191)"/><path d="M80,50 L152.20456560965835,224.3172415600951 L147.90485968383803,226.0367292110322 Z" fill="rgb(117,99,192)"/><path d="M80,50 L147.90485968383803,226.0367292110322 L143.5642504096704,227.65017891872984 Z" fill="rgb(116,100,193)"/><path d="M80,50 L143.5642504096704,227.65017891872984 L139.18535240787642,229.15661880141488 Z" fill="rgb(115,101,194)"/><path d="M80,50 L139.18535240787642,229.15661880141488 L134.77080336287477,230.55514143603142 Z" fill="rgb(113,101,195)"/><path d="M80,50 L134.77080336287477,230.55514143603142 L130.32326243393962,231.84490440483847 Z" fill="rgb(112,102,195)"/><path d="M80,50 L130.32326243393962,231.84490440483847 L125.84540865342223,233.025130802851 Z" fill="rgb(110,102,196)"/><path d="M80,50 L125.84540865342223,233.025130802851 L121.33993931300225,234.09510970581834 Z" fill="rgb(109,103,197)"/><path d="M80,50 L121.33993931300225,234.09510970581834 L116.80956833894004,235.05419659845845 Z" fill="rgb(108,104,198)"/><path d="M80,50 L116.80956833894004,235.05419659845845 L112.25702465730886,235.90181376268973 Z" fill="rgb(106,104,199)"/><path d="M80,50 L112.25702465730886,235.90181376268973 L107.68505055019193,236.6374506256269 Z" fill="rgb(105,105,199)"/><path d="M80,50 L107.68505055019193,236.6374506256269 L103.09640000383432,237.260664067131 Z" fill="rgb(103,105,200)"/><path d="M80,50 L103.09640000383432,237.260664067131 L98.49383704974437,237.7710786867283 Z" fill="rgb(102,106,201)"/><path d="M80,50 L98.49383704974437,237.7710786867283 L93.88013409974485,238.16838702973754 Z" fill="rgb(101,107,202)"/><path d="M80,50 L93.88013409974485,238.16838702973754 L89.25807027597521,238.4523497724693 Z" fill="rgb(99,107,203)"/><path d="M80,50 L89.25807027597521,238.4523497724693 L84.63042973685288,238.62279586638533 Z" fill="rgb(98,108,203)"/><path d="M80,50 L84.63042973685288,238.62279586638533 L80.00000000000001,238.67962264113208 Z" fill="rgb(96,108,204)"/><path d="M80,50 L80.00000000000001,238.67962264113208 L75.36957026314711,238.62279586638533 Z" fill="rgb(95,109,205)"/><path d="M80,50 L75.36957026314711,238.62279586638533 L70.7419297240248,238.4523497724693 Z" fill="rgb(94,110,206)"/><path d="M80,50 L70.7419297240248,238.4523497724693 L66.1198659002552,238.16838702973754 Z" fill="rgb(92,110,206)"/><path d="M80,50 L66.1198659002552,238.16838702973754 L61.50616295025565,237.7710786867283 Z" fill="rgb(91,111,207)"/><path d="M80,50 L61.50616295025565,237.7710786867283 L56.90359999616571,237.260664067131 Z" fill="rgb(89,111,208)"/><path d="M80,50 L56.90359999616571,237.260664067131 L52.3149494498081,236.6374506256269 Z" fill="rgb(88,112,209)"/><path d="M80,50 L52.3149494498081,236.6374506256269 L47.74297534269116,235.90181376268973 Z" fill="rgb(87,113,210)"/><path d="M80,50 L47.74297534269116,235.90181376268973 L43.19043166106003,235.05419659845845 Z" fill="rgb(85,113,210)"/><path d="M80,50 L43.19043166106003,235.05419659845845 L38.660060686997774,234.09510970581834 Z" fill="rgb(84,114,211)"/><path d="M80,50 L38.660060686997774,234.09510970581834 L34.15459134657779,233.025130802851 Z" fill="rgb(82,114,212)"/><path d="M80,50 L34.15459134657779,233.025130802851 L29.676737566060403,231.84490440483847 Z" fill="rgb(81,115,213)"/><path d="M80,50 L29.676737566060403,231.84490440483847 L25.22919663712522,230.55514143603142 Z" fill="rgb(80,116,214)"/><path d="M80,50 L25.22919663712522,230.55514143603142 L20.814647592123613,229.15661880141488 Z" fill="rgb(78,116,214)"/><path d="M80,50 L20.814647592123613,229.15661880141488 L16.43574959032963,227.65017891872984 Z" fill="rgb(77,117,215)"/><path d="M80,50 L16.43574959032963,227.65017891872984 L12.09514031616203,226.0367292110322 Z" fill="rgb(75,117,216)"/><path d="M80,50 L12.09514031616203,226.0367292110322 L7.795434390341683,224.3172415600951 Z" fill="rgb(74,118,217)"/><path d="M80,50 L7.795434390341683,224.3172415600951 L3.539221794942023,222.49275172098373 Z" fill="rgb(73,119,218)"/><path d="M80,50 L3.539221794942023,222.49275172098373 L-0.6709336867196214,220.56435869815502 Z" fill="rgb(71,119,218)"/><path d="M80,50 L-0.6709336867196214,220.56435869815502 L-4.832496014408832,218.53322408345875 Z" fill="rgb(70,120,219)"/><path d="M80,50 L-4.832496014408832,218.53322408345875 L-8.942958418590223,216.40057135643778 Z" fill="rgb(68,120,220)"/><path d="M80,50 L-8.942958418590223,216.40057135643778 L-12.999844910411824,214.16768514734972 Z" fill="rgb(67,121,221)"/><path d="M80,50 L-12.999844910411824,214.16768514734972 L-17.00071177314753,211.83591046335408 Z" fill="rgb(66,122,222)"/><path d="M80,50 L-17.00071177314753,211.83591046335408 L-20.943149034201298,209.40665187832982 Z" fill="rgb(64,122,222)"/><path d="M80,50 L-20.943149034201298,209.40665187832982 L-24.824781916784403,206.8813726868126 Z" fill="rgb(63,123,223)"/><path d="M80,50 L-24.824781916784403,206.8813726868126 L-28.643272270391805,204.2615940225613 Z" fill="rgb(61,123,224)"/><path d="M80,50 L-28.643272270391805,204.2615940225613 L-32.39631997921717,201.5488939422833 Z" fill="rgb(60,124,225)"/><path d="M80,50 L-32.39631997921717,201.5488939422833 L-36.081664347656144,198.74490647507264 Z" fill="rgb(59,125,226)"/><path d="M80,50 L-36.081664347656144,198.74490647507264 L-39.69708546206509,195.85132063813168 Z" fill="rgb(57,125,226)"/><path d="M80,50 L-39.69708546206509,195.85132063813168 L-43.24040552795405,192.8698794193704 Z" fill="rgb(56,126,227)"/><path d="M80,50 L-43.24040552795405,192.8698794193704 L-46.709490181808505,189.80237872749584 Z" fill="rgb(54,126,228)"/><path d="M80,50 L-46.709490181808505,189.80237872749584 L-50.1022497767504,186.65066631022353 Z" fill="rgb(53,127,229)"/><path d="M80,50 L-50.1022497767504,186.65066631022353 L-53.41664064126334,183.41664064126334 Z" fill="rgb(52,128,230)"/><path d="M80,50 L-53.41664064126334,183.41664064126334 L-56.65066631022344,180.10224977675045 Z" fill="rgb(52,128,230)"/><path d="M80,50 L-56.65066631022344,180.10224977675045 L-59.80237872749581,176.70949018180852 Z" fill="rgb(53,127,229)"/><path d="M80,50 L-59.80237872749581,176.70949018180852 L-62.86987941937042,173.240405527954 Z" fill="rgb(54,126,228)"/><path d="M80,50 L-62.86987941937042,173.240405527954 L-65.85132063813165,169.6970854620651 Z" fill="rgb(56,126,227)"/><path d="M80,50 L-65.85132063813165,169.6970854620651 L-68.74490647507261,166.08166434765616 Z" fill="rgb(57,125,226)"/><path d="M80,50 L-68.74490647507261,166.08166434765616 L-71.54889394228329,162.3963199792172 Z" fill="rgb(59,125,226)"/><path d="M80,50 L-71.54889394228329,162.3963199792172 L-74.26159402256127,158.64327227039183 Z" fill="rgb(60,124,225)"/><path d="M80,50 L-74.26159402256127,158.64327227039183 L-76.88137268681265,154.82478191678436 Z" fill="rgb(61,123,224)"/><path d="M80,50 L-76.88137268681265,154.82478191678436 L-79.4066518783298,150.94314903420133 Z" fill="rgb(63,123,223)"/><path d="M80,50 L-79.4066518783298,150.94314903420133 L-81.83591046335408,147.00071177314754 Z" fill="rgb(64,122,222)"/><path d="M80,50 L-81.83591046335408,147.00071177314754 L-84.16768514734972,142.99984491041187 Z" fill="rgb(66,122,222)"/><path d="M80,50 L-84.16768514734972,142.99984491041187 L-86.4005713564377,138.9429584185903 Z" fill="rgb(67,121,221)"/><path d="M80,50 L-86.4005713564377,138.9429584185903 L-88.53322408345872,134.83249601440886 Z" fill="rgb(68,120,220)"/><path d="M80,50 L-88.53322408345872,134.83249601440886 L-90.56435869815502,130.6709336867196 Z" fill="rgb(70,120,219)"/><path d="M80,50 L-90.56435869815502,130.6709336867196 L-92.49275172098373,126.460778205058 Z" fill="rgb(71,119,218)"/><path d="M80,50 L-92.49275172098373,126.460778205058 L-94.31724156009511,122.20456560965836 Z" fill="rgb(73,119,218)"/><path d="M80,50 L-94.31724156009511,122.20456560965836 L-96.0367292110322,117.90485968383804 Z" fill="rgb(74,118,217)"/><path d="M80,50 L-96.0367292110322,117.90485968383804 L-97.65017891872981,113.56425040967045 Z" fill="rgb(75,117,216)"/><path d="M80,50 L-97.65017891872981,113.56425040967045 L-99.15661880141488,109.1853524078764 Z" fill="rgb(77,117,215)"/><path d="M80,50 L-99.15661880141488,109.1853524078764 L-100.55514143603142,104.77080336287477 Z" fill="rgb(78,116,214)"/><path d="M80,50 L-100.55514143603142,104.77080336287477 L-101.84490440483845,100.3232624339397 Z" fill="rgb(80,116,214)"/><path d="M80,50 L-101.84490440483845,100.3232624339397 L-103.02513080285101,95.84540865342225 Z" fill="rgb(81,115,213)"/><path d="M80,50 L-103.02513080285101,95.84540865342225 L-104.09510970581834,91.3399393130023 Z" fill="rgb(82,114,212)"/><path d="M80,50 L-104.09510970581834,91.3399393130023 L-105.05419659845845,86.80956833894001 Z" fill="rgb(84,114,211)"/><path d="M80,50 L-105.05419659845845,86.80956833894001 L-105.90181376268973,82.25702465730883 Z" fill="rgb(85,113,210)"/><path d="M80,50 L-105.90181376268973,82.25702465730883 L-106.63745062562688,77.68505055019202 Z" fill="rgb(87,113,210)"/><path d="M80,50 L-106.63745062562688,77.68505055019202 L-107.26066406713099,73.09640000383433 Z" fill="rgb(88,112,209)"/><path d="M80,50 L-107.26066406713099,73.09640000383433 L-107.77107868672826,68.49383704974443 Z" fill="rgb(89,111,208)"/><path d="M80,50 L-107.77107868672826,68.49383704974443 L-108.16838702973754,63.88013409974479 Z" fill="rgb(91,111,207)"/><path d="M80,50 L-108.16838702973754,63.88013409974479 L-108.45234977246929,59.258070275975186 Z" fill="rgb(92,110,206)"/><path d="M80,50 L-108.45234977246929,59.258070275975186 L-108.62279586638533,54.63042973685297 Z" fill="rgb(94,110,206)"/><path d="M80,50 L-108.62279586638533,54.63042973685297 L-108.67962264113208,50.00000000000002 Z" fill="rgb(95,109,205)"/><path d="M80,50 L-108.67962264113208,50.00000000000002 L-108.62279586638533,45.36957026314716 Z" fill="rgb(96,108,204)"/><path d="M80,50 L-108.62279586638533,45.36957026314716 L-108.45234977246929,40.74192972402477 Z" fill="rgb(98,108,203)"/><path d="M80,50 L-108.45234977246929,40.74192972402477 L-108.16838702973754,36.11986590025526 Z" fill="rgb(99,107,203)"/><path d="M80,50 L-108.16838702973754,36.11986590025526 L-107.77107868672829,31.506162950255618 Z" fill="rgb(101,107,202)"/><path d="M80,50 L-107.77107868672829,31.506162950255618 L-107.26066406713099,26.90359999616572 Z" fill="rgb(102,106,201)"/><path d="M80,50 L-107.26066406713099,26.90359999616572 L-106.63745062562691,22.314949449808108 Z" fill="rgb(103,105,200)"/><path d="M80,50 L-106.63745062562691,22.314949449808108 L-105.90181376268973,17.742975342691132 Z" fill="rgb(105,105,199)"/><path d="M80,50 L-105.90181376268973,17.742975342691132 L-105.05419659845845,13.190431661060039 Z" fill="rgb(106,104,199)"/><path d="M80,50 L-105.05419659845845,13.190431661060039 L-104.09510970581834,8.660060686997753 Z" fill="rgb(108,104,198)"/><path d="M80,50 L-104.09510970581834,8.660060686997753 L-103.02513080285101,4.154591346577796 Z" fill="rgb(109,103,197)"/><path d="M80,50 L-103.02513080285101,4.154591346577796 L-101.84490440483853,-0.3232624339394974 Z" fill="rgb(110,102,196)"/><path d="M80,50 L-101.84490440483853,-0.3232624339394974 L-100.55514143603142,-4.77080336287473 Z" fill="rgb(112,102,195)"/><path d="M80,50 L-100.55514143603142,-4.77080336287473 L-99.15661880141491,-9.185352407876344 Z" fill="rgb(113,101,195)"/><path d="M80,50 L-99.15661880141491,-9.185352407876344 L-97.65017891872984,-13.564250409670393 Z" fill="rgb(115,101,194)"/><path d="M80,50 L-97.65017891872984,-13.564250409670393 L-96.0367292110322,-17.904859683837998 Z" fill="rgb(116,100,193)"/><path d="M80,50 L-96.0367292110322,-17.904859683837998 L-94.31724156009514,-22.204565609658232 Z" fill="rgb(117,99,192)"/><path d="M80,50 L-94.31724156009514,-22.204565609658232 L-92.49275172098373,-26.460778205057963 Z" fill="rgb(119,99,191)"/><path d="M80,50 L-92.49275172098373,-26.460778205057963 L-90.56435869815505,-30.670933686719536 Z" fill="rgb(120,98,191)"/><path d="M80,50 L-90.56435869815505,-30.670933686719536 L-88.53322408345875,-34.83249601440882 Z" fill="rgb(122,98,190)"/><path d="M80,50 L-88.53322408345875,-34.83249601440882 L-86.40057135643772,-38.942958418590294 Z" fill="rgb(123,97,189)"/><path d="M80,50 L-86.40057135643772,-38.942958418590294 L-84.16768514734969,-42.99984491041188 Z" fill="rgb(124,96,188)"/><path d="M80,50 L-84.16768514734969,-42.99984491041188 L-81.83591046335411,-47.0007117731475 Z" fill="rgb(126,96,187)"/><path d="M80,50 L-81.83591046335411,-47.0007117731475 L-79.40665187832982,-50.94314903420127 Z" fill="rgb(127,95,187)"/><path d="M80,50 L-79.40665187832982,-50.94314903420127 L-76.88137268681263,-54.824781916784374 Z" fill="rgb(129,95,186)"/><path d="M80,50 L-76.88137268681263,-54.824781916784374 L-74.26159402256135,-58.64327227039172 Z" fill="rgb(130,94,185)"/><path d="M80,50 L-74.26159402256135,-58.64327227039172 L-71.54889394228331,-62.39631997921714 Z" fill="rgb(131,93,184)"/><path d="M80,50 L-71.54889394228331,-62.39631997921714 L-68.74490647507264,-66.08166434765612 Z" fill="rgb(133,93,183)"/><path d="M80,50 L-68.74490647507264,-66.08166434765612 L-65.85132063813168,-69.69708546206506 Z" fill="rgb(134,92,183)"/><path d="M80,50 L-65.85132063813168,-69.69708546206506 L-62.86987941937039,-73.24040552795405 Z" fill="rgb(136,92,182)"/><path d="M80,50 L-62.86987941937039,-73.24040552795405 L-59.80237872749589,-76.70949018180843 Z" fill="rgb(137,91,181)"/><path d="M80,50 L-59.80237872749589,-76.70949018180843 L-56.65066631022347,-80.10224977675043 Z" fill="rgb(138,90,180)"/><path d="M80,50 L-56.65066631022347,-80.10224977675043 L-53.41664064126337,-83.41664064126334 Z" fill="rgb(140,90,179)"/><path d="M80,50 L-53.41664064126337,-83.41664064126334 L-50.1022497767504,-86.65066631022347 Z" fill="rgb(141,89,179)"/><path d="M80,50 L-50.1022497767504,-86.65066631022347 L-46.70949018180855,-89.8023787274958 Z" fill="rgb(143,89,178)"/><path d="M80,50 L-46.70949018180855,-89.8023787274958 L-43.240405527954096,-92.86987941937036 Z" fill="rgb(144,88,177)"/><path d="M80,50 L-43.240405527954096,-92.86987941937036 L-39.69708546206505,-95.85132063813168 Z" fill="rgb(145,87,176)"/><path d="M80,50 L-39.69708546206505,-95.85132063813168 L-36.08166434765623,-98.74490647507255 Z" fill="rgb(147,87,175)"/><path d="M80,50 L-36.08166434765623,-98.74490647507255 L-32.396319979217125,-101.54889394228331 Z" fill="rgb(148,86,175)"/><path d="M80,50 L-32.396319979217125,-101.54889394228331 L-28.64327227039179,-104.26159402256133 Z" fill="rgb(150,86,174)"/><path d="M80,50 L-28.64327227039179,-104.26159402256133 L-24.824781916784502,-106.88137268681254 Z" fill="rgb(151,85,173)"/><path d="M80,50 L-24.824781916784502,-106.88137268681254 L-20.94314903420134,-109.40665187832977 Z" fill="rgb(152,84,172)"/><path d="M80,50 L-20.94314903420134,-109.40665187832977 L-17.000711773147543,-111.83591046335408 Z" fill="rgb(154,84,171)"/><path d="M80,50 L-17.000711773147543,-111.83591046335408 L-12.999844910411866,-114.16768514734972 Z" fill="rgb(155,83,171)"/><path d="M80,50 L-12.999844910411866,-114.16768514734972 L-8.942958418590337,-116.4005713564377 Z" fill="rgb(157,83,170)"/><path d="M80,50 L-8.942958418590337,-116.4005713564377 L-4.832496014408875,-118.53322408345869 Z" fill="rgb(158,82,169)"/><path d="M80,50 L-4.832496014408875,-118.53322408345869 L-0.670933686719664,-120.56435869815499 Z" fill="rgb(159,81,168)"/><path d="M80,50 L-0.670933686719664,-120.56435869815499 L3.539221794941909,-122.49275172098368 Z" fill="rgb(161,81,167)"/><path d="M80,50 L3.539221794941909,-122.49275172098368 L7.795434390341725,-124.31724156009511 Z" fill="rgb(162,80,167)"/><path d="M80,50 L7.795434390341725,-124.31724156009511 L12.095140316162016,-126.0367292110322 Z" fill="rgb(164,80,166)"/><path d="M80,50 L12.095140316162016,-126.0367292110322 L16.43574959032963,-127.65017891872984 Z" fill="rgb(165,79,165)"/><path d="M80,50 L16.43574959032963,-127.65017891872984 L20.8146475921236,-129.15661880141488 Z" fill="rgb(166,78,164)"/><path d="M80,50 L20.8146475921236,-129.15661880141488 L25.229196637125206,-130.55514143603142 Z" fill="rgb(168,78,163)"/><path d="M80,50 L25.229196637125206,-130.55514143603142 L29.676737566060368,-131.84490440483847 Z" fill="rgb(169,77,163)"/><path d="M80,50 L29.676737566060368,-131.84490440483847 L34.15459134657774,-133.025130802851 Z" fill="rgb(171,77,162)"/><path d="M80,50 L34.15459134657774,-133.025130802851 L38.660060686997696,-134.09510970581834 Z" fill="rgb(172,76,161)"/><path d="M80,50 L38.660060686997696,-134.09510970581834 L43.190431661059904,-135.05419659845842 Z" fill="rgb(173,75,160)"/><path d="M80,50 L43.190431661059904,-135.05419659845842 L47.742975342691075,-135.9018137626897 Z" fill="rgb(175,75,159)"/><path d="M80,50 L47.742975342691075,-135.9018137626897 L52.31494944980813,-136.6374506256269 Z" fill="rgb(176,74,159)"/><path d="M80,50 L52.31494944980813,-136.6374506256269 L56.90359999616558,-137.260664067131 Z" fill="rgb(178,74,158)"/><path d="M80,50 L56.90359999616558,-137.260664067131 L61.50616295025564,-137.7710786867283 Z" fill="rgb(179,73,157)"/><path d="M80,50 L61.50616295025564,-137.7710786867283 L66.1198659002552,-138.16838702973754 Z" fill="rgb(180,72,156)"/><path d="M80,50 L66.1198659002552,-138.16838702973754 L70.74192972402463,-138.45234977246926 Z" fill="rgb(182,72,155)"/><path d="M80,50 L70.74192972402463,-138.45234977246926 L75.3695702631471,-138.62279586638533 Z" fill="rgb(183,71,155)"/><path d="M80,50 L75.3695702631471,-138.62279586638533 L79.99999999999997,-138.67962264113208 Z" fill="rgb(185,71,154)"/><path d="M80,50 L79.99999999999997,-138.67962264113208 L84.63042973685283,-138.62279586638533 Z" fill="rgb(186,70,153)"/><path d="M80,50 L84.63042973685283,-138.62279586638533 L89.25807027597513,-138.4523497724693 Z" fill="rgb(187,69,152)"/><path d="M80,50 L89.25807027597513,-138.4523497724693 L93.8801340997449,-138.16838702973754 Z" fill="rgb(189,69,152)"/><path d="M80,50 L93.8801340997449,-138.16838702973754 L98.49383704974429,-137.7710786867283 Z" fill="rgb(190,68,151)"/><path d="M80,50 L98.49383704974429,-137.7710786867283 L103.09640000383419,-137.26066406713102 Z" fill="rgb(192,68,150)"/><path d="M80,50 L103.09640000383419,-137.26066406713102 L107.68505055019196,-136.63745062562688 Z" fill="rgb(193,67,149)"/><path d="M80,50 L107.68505055019196,-136.63745062562688 L112.25702465730885,-135.90181376268973 Z" fill="rgb(194,66,148)"/><path d="M80,50 L112.25702465730885,-135.90181376268973 L116.80956833894004,-135.05419659845845 Z" fill="rgb(196,66,148)"/><path d="M80,50 L116.80956833894004,-135.05419659845845 L121.33993931300225,-134.09510970581834 Z" fill="rgb(197,65,147)"/><path d="M80,50 L121.33993931300225,-134.09510970581834 L125.8454086534222,-133.025130802851 Z" fill="rgb(199,65,146)"/><path d="M80,50 L125.8454086534222,-133.025130802851 L130.3232624339396,-131.8449044048385 Z" fill="rgb(200,64,145)"/><path d="M80,50 L130.3232624339396,-131.8449044048385 L134.77080336287472,-130.55514143603142 Z" fill="rgb(201,63,144)"/><path d="M80,50 L134.77080336287472,-130.55514143603142 L139.18535240787634,-129.1566188014149 Z" fill="rgb(203,63,144)"/><path d="M80,50 L139.18535240787634,-129.1566188014149 L143.5642504096703,-127.65017891872986 Z" fill="rgb(204,62,143)"/><path d="M80,50 L143.5642504096703,-127.65017891872986 L147.90485968383808,-126.03672921103217 Z" fill="rgb(206,62,142)"/><path d="M80,50 L147.90485968383808,-126.03672921103217 L152.20456560965837,-124.31724156009508 Z" fill="rgb(207,61,141)"/><path d="M80,50 L152.20456560965837,-124.31724156009508 L156.46077820505786,-122.49275172098376 Z" fill="rgb(208,60,140)"/><path d="M80,50 L156.46077820505786,-122.49275172098376 L160.6709336867196,-120.56435869815502 Z" fill="rgb(210,60,140)"/><path d="M80,50 L160.6709336867196,-120.56435869815502 L164.83249601440883,-118.53322408345875 Z" fill="rgb(211,59,139)"/><path d="M80,50 L164.83249601440883,-118.53322408345875 L168.94295841859028,-116.40057135643772 Z" fill="rgb(213,59,138)"/><path d="M80,50 L168.94295841859028,-116.40057135643772 L172.9998449104118,-114.16768514734972 Z" fill="rgb(214,58,137)"/><path d="M80,50 L172.9998449104118,-114.16768514734972 L177.0007117731475,-111.83591046335411 Z" fill="rgb(215,57,136)"/><path d="M80,50 L177.0007117731475,-111.83591046335411 L180.94314903420127,-109.40665187832982 Z" fill="rgb(217,57,136)"/><path d="M80,50 L180.94314903420127,-109.40665187832982 L184.82478191678427,-106.88137268681268 Z" fill="rgb(218,56,135)"/><path d="M80,50 L184.82478191678427,-106.88137268681268 L188.6432722703919,-104.26159402256127 Z" fill="rgb(220,56,134)"/><path d="M80,50 L188.6432722703919,-104.26159402256127 L192.39631997921708,-101.54889394228337 Z" fill="rgb(221,55,133)"/><path d="M80,50 L192.39631997921708,-101.54889394228337 L196.08166434765604,-98.7449064750727 Z" fill="rgb(222,54,132)"/><path d="M80,50 L196.08166434765604,-98.7449064750727 L199.69708546206513,-95.85132063813163 Z" fill="rgb(224,54,132)"/><path d="M80,50 L199.69708546206513,-95.85132063813163 L203.240405527954,-92.86987941937042 Z" fill="rgb(225,53,131)"/><path d="M80,50 L203.240405527954,-92.86987941937042 L206.70949018180852,-89.80237872749584 Z" fill="rgb(227,53,130)"/><path d="M80,50 L206.70949018180852,-89.80237872749584 L210.10224977675043,-86.65066631022347 Z" fill="rgb(228,52,129)"/><path d="M80,50 L210.10224977675043,-86.65066631022347 L213.4166406412633,-83.41664064126337 Z" fill="rgb(229,51,128)"/></pattern></defs><path d="M 16 0 L 144 0 C 152.8365559972927 0 160 7.1634440027073065 160 16 L 160 84 C 160 92.83655599729269 152.8365559972927 100 144 100 L 16 100 C 7.1634440027073065 100 0 92.83655599729269 0 84 L 0 16 C 0 7.1634440027073065 7.1634440027073065 0 16 0 Z" fill="url(#ag-g281-0)"/></g></g></svg>