<svg xmlns="http://www.w3.org/2000/svg" width="200" height="140" viewBox="0 0 200 140"><g><defs><clipPath id="clip-g1-1"><rect x="0" y="0" width="200" height="140"/></clipPath></defs><rect x="0" y="0" width="200" height="140" fill="#ffffff"/><g transform="matrix(1,0,0,1,20,20)"><defs><pattern id="ag-g1-0" patternUnits="userSpaceOnUse" width="378" height="378"><path d="M80,50 L213.41664064126334,-83.41664064126331 L216.65066631022347,-80.10224977675043 Z" fill="rgb(229,51,128)"/><path d="M80,50 L216.65066631022347,-80.10224977675043 L219.8023787274958,-76.70949018180848 Z" fill="rgb(228,52,129)"/><path d="M80,50 L219.8023787274958,-76.70949018180848 L222.8698794193704,-73.24040552795401 Z" fill="rgb(227,53,130)"/><path d="M80,50 L222.8698794193704,-73.24040552795401 L225.85132063813163,-69.69708546206509 Z" fill="rgb(225,53,131)"/><path d="M80,50 L225.85132063813163,-69.69708546206509 L228.7449064750726,-66.08166434765613 Z" fill="rgb(224,54,132)"/><path d="M80,50 L228.7449064750726,-66.08166434765613 L231.54889394228329,-62.396319979217154 Z" fill="rgb(222,54,132)"/><path d="M80,50 L231.54889394228329,-62.396319979217154 L234.26159402256127,-58.64327227039179 Z" fill="rgb(221,55,133)"/><path d="M80,50 L234.26159402256127,-58.64327227039179 L236.8813726868126,-54.824781916784346 Z" fill="rgb(220,56,134)"/><path d="M80,50 L236.8813726868126,-54.824781916784346 L239.40665187832977,-50.9431490342013 Z" fill="rgb(218,56,135)"/><path d="M80,50 L239.40665187832977,-50.9431490342013 L241.83591046335405,-47.00071177314753 Z" fill="rgb(217,57,136)"/><path d="M80,50 L241.83591046335405,-47.00071177314753 L244.1676851473497,-42.999844910411795 Z" fill="rgb(215,57,136)"/><path d="M80,50 L244.1676851473497,-42.999844910411795 L246.4005713564377,-38.94295841859028 Z" fill="rgb(214,58,137)"/><path d="M80,50 L246.4005713564377,-38.94295841859028 L248.53322408345872,-34.832496014408804 Z" fill="rgb(213,59,138)"/><path d="M80,50 L248.53322408345872,-34.832496014408804 L250.564358698155,-30.67093368671958 Z" fill="rgb(211,59,139)"/><path d="M80,50 L250.564358698155,-30.67093368671958 L252.4927517209837,-26.460778205057977 Z" fill="rgb(210,60,140)"/><path d="M80,50 L252.4927517209837,-26.460778205057977 L254.31724156009508,-22.204565609658317 Z" fill="rgb(208,60,140)"/><path d="M80,50 L254.31724156009508,-22.204565609658317 L256.03672921103214,-17.904859683837998 Z" fill="rgb(207,61,141)"/><path d="M80,50 L256.03672921103214,-17.904859683837998 L257.6501789187298,-13.564250409670379 Z" fill="rgb(206,62,142)"/><path d="M80,50 L257.6501789187298,-13.564250409670379 L259.1566188014149,-9.185352407876401 Z" fill="rgb(204,62,143)"/><path d="M80,50 L259.1566188014149,-9.185352407876401 L260.55514143603136,-4.770803362874766 Z" fill="rgb(203,63,144)"/><path d="M80,50 L260.55514143603136,-4.770803362874766 L261.8449044048384,-0.32326243393960397 Z" fill="rgb(201,63,144)"/><path d="M80,50 L261.8449044048384,-0.32326243393960397 L263.025130802851,4.154591346577796 Z" fill="rgb(200,64,145)"/><path d="M80,50 L263.025130802851,4.154591346577796 L264.09510970581834,8.66006068699776 Z" fill="rgb(199,65,146)"/><path d="M80,50 L264.09510970581834,8.66006068699776 L265.0541965984584,13.190431661059982 Z" fill="rgb(197,65,147)"/><path d="M80,50 L265.0541965984584,13.190431661059982 L265.9018137626897,17.742975342691167 Z" fill="rgb(196,66,148)"/><path d="M80,50 L265.9018137626897,17.742975342691167 L266.6374506256269,22.31494944980808 Z" fill="rgb(194,66,148)"/><path d="M80,50 L266.6374506256269,22.31494944980808 L267.26066406713096,26.903599996165706 Z" fill="rgb(193,67,149)"/><path d="M80,50 L267.26066406713096,26.903599996165706 L267.7710786867283,31.506162950255618 Z" fill="rgb(192,68,150)"/><path d="M80,50 L267.7710786867283,31.506162950255618 L268.1683870297375,36.11986590025519 Z" fill="rgb(190,68,151)"/><path d="M80,50 L268.1683870297375,36.11986590025519 L268.45234977246923,40.74192972402481 Z" fill="rgb(189,69,152)"/><path d="M80,50 L268.45234977246923,40.74192972402481 L268.62279586638533,45.369570263147125 Z" fill="rgb(187,69,152)"/><path d="M80,50 L268.62279586638533,45.369570263147125 L268.679622641132,50 Z" fill="rgb(186,70,153)"/><path d="M80,50 L268.679622641132,50 L268.62279586638533,54.630429736852875 Z" fill="rgb(185,71,154)"/><path d="M80,50 L268.62279586638533,54.630429736852875 L268.45234977246923,59.25807027597519 Z" fill="rgb(183,71,155)"/><path d="M80,50 L268.45234977246923,59.25807027597519 L268.1683870297375,63.88013409974481 Z" fill="rgb(182,72,155)"/><path d="M80,50 L268.1683870297375,63.88013409974481 L267.7710786867283,68.49383704974439 Z" fill="rgb(180,72,156)"/><path d="M80,50 L267.7710786867283,68.49383704974439 L267.26066406713096,73.09640000383429 Z" fill="rgb(179,73,157)"/><path d="M80,50 L267.26066406713096,73.09640000383429 L266.6374506256269,77.68505055019192 Z" fill="rgb(178,74,158)"/><path d="M80,50 L266.6374506256269,77.68505055019192 L265.9018137626897,82.25702465730883 Z" fill="rgb(176,74,159)"/><path d="M80,50 L265.9018137626897,82.25702465730883 L265.0541965984584,86.80956833894001 Z" fill="rgb(175,75,159)"/><path d="M80,50 L265.0541965984584,86.80956833894001 L264.09510970581834,91.33993931300225 Z" fill="rgb(173,75,160)"/><path d="M80,50 L264.09510970581834,91.33993931300225 L263.025130802851,95.8454086534222 Z" fill="rgb(172,76,161)"/><path d="M80,50 L263.025130802851,95.8454086534222 L261.8449044048384,100.3232624339396 Z" fill="rgb(171,77,162)"/><path d="M80,50 L261.8449044048384,100.3232624339396 L260.55514143603136,104.77080336287477 Z" fill="rgb(169,77,163)"/><path d="M80,50 L260.55514143603136,104.77080336287477 L259.1566188014149,109.1853524078764 Z" fill="rgb(168,78,163)"/><path d="M80,50 L259.1566188014149,109.1853524078764 L257.6501789187298,113.56425040967038 Z" fill="rgb(166,78,164)"/><path d="M80,50 L257.6501789187298,113.56425040967038 L256.03672921103214,117.904859683838 Z" fill="rgb(165,79,165)"/><path d="M80,50 L256.03672921103214,117.904859683838 L254.31724156009508,122.20456560965832 Z" fill="rgb(164,80,166)"/><path d="M80,50 L254.31724156009508,122.20456560965832 L252.4927517209837,126.46077820505798 Z" fill="rgb(162,80,167)"/><path d="M80,50 L252.4927517209837,126.46077820505798 L250.564358698155,130.6709336867196 Z" fill="rgb(161,81,167)"/><path d="M80,50 L250.564358698155,130.6709336867196 L248.53322408345872,134.8324960144088 Z" fill="rgb(159,81,168)"/><path d="M80,50 L248.53322408345872,134.8324960144088 L246.4005713564377,138.94295841859028 Z" fill="rgb(158,82,169)"/><path d="M80,50 L246.4005713564377,138.94295841859028 L244.1676851473497,142.9998449104118 Z" fill="rgb(157,83,170)"/><path d="M80,50 L244.1676851473497,142.9998449104118 L241.83591046335405,147.00071177314754 Z" fill="rgb(155,83,171)"/><path d="M80,50 L241.83591046335405,147.00071177314754 L239.40665187832977,150.9431490342013 Z" fill="rgb(154,84,171)"/><path d="M80,50 L239.40665187832977,150.9431490342013 L236.8813726868126,154.82478191678433 Z" fill="rgb(152,84,172)"/><path d="M80,50 L236.8813726868126,154.82478191678433 L234.26159402256127,158.64327227039178 Z" fill="rgb(151,85,173)"/><path d="M80,50 L234.26159402256127,158.64327227039178 L231.54889394228329,162.39631997921714 Z" fill="rgb(150,86,174)"/><path d="M80,50 L231.54889394228329,162.39631997921714 L228.7449064750726,166.08166434765613 Z" fill="rgb(148,86,175)"/><path d="M80,50 L228.7449064750726,166.08166434765613 L225.85132063813163,169.6970854620651 Z" fill="rgb(147,87,175)"/><path d="M80,50 L225.85132063813163,169.6970854620651 L222.8698794193704,173.240405527954 Z" fill="rgb(145,87,176)"/><path d="M80,50 L222.8698794193704,173.240405527954 L219.8023787274958,176.70949018180846 Z" fill="rgb(144,88,177)"/><path d="M80,50 L219.8023787274958,176.70949018180846 L216.65066631022347,180.10224977675043 Z" fill="rgb(143,89,178)"/><path d="M80,50 L216.65066631022347,180.10224977675043 L213.41664064126334,183.4166406412633 Z" fill="rgb(141,89,179)"/><path d="M80,50 L213.41664064126334,183.4166406412633 L210.10224977675043,186.65066631022344 Z" fill="rgb(140,90,179)"/><path d="M80,50 L210.10224977675043,186.65066631022344 L206.70949018180846,189.8023787274958 Z" fill="rgb(138,90,180)"/><path d="M80,50 L206.70949018180846,189.8023787274958 L203.240405527954,192.8698794193704 Z" fill="rgb(137,91,181)"/><path d="M80,50 L203.240405527954,192.8698794193704 L199.6970854620651,195.8513206381316 Z" fill="rgb(136,92,182)"/><path d="M80,50 L199.6970854620651,195.8513206381316 L196.08166434765613,198.74490647507258 Z" fill="rgb(134,92,183)"/><path d="M80,50 L196.08166434765613,198.74490647507258 L192.39631997921714,201.54889394228329 Z" fill="rgb(133,93,183)"/><path d="M80,50 L192.39631997921714,201.54889394228329 L188.64327227039178,204.26159402256127 Z" fill="rgb(131,93,184)"/><path d="M80,50 L188.64327227039178,204.26159402256127 L184.82478191678436,206.8813726868126 Z" fill="rgb(130,94,185)"/><path d="M80,50 L184.82478191678436,206.8813726868126 L180.9431490342013,209.40665187832977 Z" fill="rgb(129,95,186)"/><path d="M80,50 L180.9431490342013,209.40665187832977 L177.00071177314754,211.83591046335405 Z" fill="rgb(127,95,187)"/><path d="M80,50 L177.00071177314754,211.83591046335405 L172.99984491041184,214.1676851473497 Z" fill="rgb(126,96,187)"/><path d="M80,50 L172.99984491041184,214.1676851473497 L168.94295841859025,216.4005713564377 Z" fill="rgb(124,96,188)"/><path d="M80,50 L168.94295841859025,216.4005713564377 L164.8324960144088,218.53322408345872 Z" fill="rgb(123,97,189)"/><path d="M80,50 L164.8324960144088,218.53322408345872 L160.6709336867196,220.564358698155 Z" fill="rgb(122,98,190)"/><path d="M80,50 L160.6709336867196,220.564358698155 L156.46077820505798,222.4927517209837 Z" fill="rgb(120,98,191)"/><path d="M80,50 L156.46077820505798,222.4927517209837 L152.20456560965835,224.31724156009508 Z" fill="rgb(119,99,191)"/><path d="M80,50 L152.20456560965835,224.31724156009508 L147.90485968383803,226.03672921103217 Z" fill="rgb(117,99,192)"/><path d="M80,50 L147.90485968383803,226.03672921103217 L143.56425040967036,227.6501789187298 Z" fill="rgb(116,100,193)"/><path d="M80,50 L143.56425040967036,227.6501789187298 L139.1853524078764,229.15661880141485 Z" fill="rgb(115,101,194)"/><path d="M80,50 L139.1853524078764,229.15661880141485 L134.77080336287477,230.5551414360314 Z" fill="rgb(113,101,195)"/><path d="M80,50 L134.77080336287477,230.5551414360314 L130.3232624339396,231.84490440483845 Z" fill="rgb(112,102,195)"/><path d="M80,50 L130.3232624339396,231.84490440483845 L125.84540865342223,233.02513080285098 Z" fill="rgb(110,102,196)"/><path d="M80,50 L125.84540865342223,233.02513080285098 L121.33993931300225,234.09510970581832 Z" fill="rgb(109,103,197)"/><path d="M80,50 L121.33993931300225,234.09510970581832 L116.80956833894004,235.05419659845842 Z" fill="rgb(108,104,198)"/><path d="M80,50 L116.80956833894004,235.05419659845842 L112.25702465730885,235.9018137626897 Z" fill="rgb(106,104,199)"/><path d="M80,50 L112.25702465730885,235.9018137626897 L107.68505055019192,236.63745062562688 Z" fill="rgb(105,105,199)"/><path d="M80,50 L107.68505055019192,236.63745062562688 L103.0964000038343,237.26066406713096 Z" fill="rgb(103,105,200)"/><path d="M80,50 L103.0964000038343,237.26066406713096 L98.49383704974437,237.77107868672826 Z" fill="rgb(102,106,201)"/><path d="M80,50 L98.49383704974437,237.77107868672826 L93.88013409974485,238.16838702973752 Z" fill="rgb(101,107,202)"/><path d="M80,50 L93.88013409974485,238.16838702973752 L89.25807027597521,238.45234977246926 Z" fill="rgb(99,107,203)"/><path d="M80,50 L89.25807027597521,238.45234977246926 L84.63042973685288,238.6227958663853 Z" fill="rgb(98,108,203)"/><path d="M80,50 L84.63042973685288,238.6227958663853 L80.00000000000001,238.67962264113206 Z" fill="rgb(96,108,204)"/><path d="M80,50 L80.00000000000001,238.67962264113206 L75.36957026314711,238.6227958663853 Z" fill="rgb(95,109,205)"/><path d="M80,50 L75.36957026314711,238.6227958663853 L70.7419297240248,238.45234977246926 Z" fill="rgb(94,110,206)"/><path d="M80,50 L70.7419297240248,238.45234977246926 L66.1198659002552,238.16838702973752 Z" fill="rgb(92,110,206)"/><path d="M80,50 L66.1198659002552,238.16838702973752 L61.50616295025566,237.77107868672826 Z" fill="rgb(91,111,207)"/><path d="M80,50 L61.50616295025566,237.77107868672826 L56.90359999616571,237.26066406713096 Z" fill="rgb(89,111,208)"/><path d="M80,50 L56.90359999616571,237.26066406713096 L52.3149494498081,236.63745062562688 Z" fill="rgb(88,112,209)"/><path d="M80,50 L52.3149494498081,236.63745062562688 L47.74297534269117,235.9018137626897 Z" fill="rgb(87,113,210)"/><path d="M80,50 L47.74297534269117,235.9018137626897 L43.19043166106004,235.05419659845842 Z" fill="rgb(85,113,210)"/><path d="M80,50 L43.19043166106004,235.05419659845842 L38.66006068699778,234.09510970581832 Z" fill="rgb(84,114,211)"/><path d="M80,50 L38.66006068699778,234.09510970581832 L34.154591346577796,233.02513080285098 Z" fill="rgb(82,114,212)"/><path d="M80,50 L34.154591346577796,233.02513080285098 L29.676737566060417,231.84490440483845 Z" fill="rgb(81,115,213)"/><path d="M80,50 L29.676737566060417,231.84490440483845 L25.229196637125227,230.5551414360314 Z" fill="rgb(80,116,214)"/><path d="M80,50 L25.229196637125227,230.5551414360314 L20.81464759212362,229.15661880141485 Z" fill="rgb(78,116,214)"/><path d="M80,50 L20.81464759212362,229.15661880141485 L16.435749590329642,227.6501789187298 Z" fill="rgb(77,117,215)"/><path d="M80,50 L16.435749590329642,227.6501789187298 L12.095140316162045,226.03672921103217 Z" fill="rgb(75,117,216)"/><path d="M80,50 L12.095140316162045,226.03672921103217 L7.795434390341683,224.31724156009508 Z" fill="rgb(74,118,217)"/><path d="M80,50 L7.795434390341683,224.31724156009508 L3.539221794942037,222.4927517209837 Z" fill="rgb(73,119,218)"/><path d="M80,50 L3.539221794942037,222.4927517209837 L-0.6709336867196214,220.564358698155 Z" fill="rgb(71,119,218)"/><path d="M80,50 L-0.6709336867196214,220.564358698155 L-4.832496014408818,218.5332240834587 Z" fill="rgb(70,120,219)"/><path d="M80,50 L-4.832496014408818,218.5332240834587 L-8.942958418590209,216.40057135643775 Z" fill="rgb(68,120,220)"/><path d="M80,50 L-8.942958418590209,216.40057135643775 L-12.99984491041181,214.1676851473497 Z" fill="rgb(67,121,221)"/><path d="M80,50 L-12.99984491041181,214.1676851473497 L-17.000711773147486,211.83591046335408 Z" fill="rgb(66,122,222)"/><path d="M80,50 L-17.000711773147486,211.83591046335408 L-20.943149034201284,209.4066518783298 Z" fill="rgb(64,122,222)"/><path d="M80,50 L-20.943149034201284,209.4066518783298 L-24.82478191678436,206.8813726868126 Z" fill="rgb(63,123,223)"/><path d="M80,50 L-24.82478191678436,206.8813726868126 L-28.64327227039179,204.26159402256127 Z" fill="rgb(61,123,224)"/><path d="M80,50 L-28.64327227039179,204.26159402256127 L-32.396319979217154,201.54889394228329 Z" fill="rgb(60,124,225)"/><path d="M80,50 L-32.396319979217154,201.54889394228329 L-36.0816643476561,198.7449064750726 Z" fill="rgb(59,125,226)"/><path d="M80,50 L-36.0816643476561,198.7449064750726 L-39.69708546206506,195.85132063813165 Z" fill="rgb(57,125,226)"/><path d="M80,50 L-39.69708546206506,195.85132063813165 L-43.240405527954024,192.86987941937036 Z" fill="rgb(56,126,227)"/><path d="M80,50 L-43.240405527954024,192.86987941937036 L-46.70949018180848,189.8023787274958 Z" fill="rgb(54,126,228)"/><path d="M80,50 L-46.70949018180848,189.8023787274958 L-50.10224977675037,186.6506663102235 Z" fill="rgb(53,127,229)"/><path d="M80,50 L-50.10224977675037,186.6506663102235 L-53.416640641263314,183.41664064126334 Z" fill="rgb(52,128,230)"/><path d="M80,50 L-53.416640641263314,183.41664064126334 L-56.650666310223414,180.10224977675045 Z" fill="rgb(52,128,230)"/><path d="M80,50 L-56.650666310223414,180.10224977675045 L-59.80237872749578,176.70949018180852 Z" fill="rgb(53,127,229)"/><path d="M80,50 L-59.80237872749578,176.70949018180852 L-62.86987941937042,173.24040552795398 Z" fill="rgb(54,126,228)"/><path d="M80,50 L-62.86987941937042,173.24040552795398 L-65.85132063813163,169.6970854620651 Z" fill="rgb(56,126,227)"/><path d="M80,50 L-65.85132063813163,169.6970854620651 L-68.74490647507258,166.08166434765616 Z" fill="rgb(57,125,226)"/><path d="M80,50 L-68.74490647507258,166.08166434765616 L-71.54889394228326,162.39631997921717 Z" fill="rgb(59,125,226)"/><path d="M80,50 L-71.54889394228326,162.39631997921717 L-74.26159402256124,158.64327227039183 Z" fill="rgb(60,124,225)"/><path d="M80,50 L-74.26159402256124,158.64327227039183 L-76.88137268681263,154.82478191678433 Z" fill="rgb(61,123,224)"/><path d="M80,50 L-76.88137268681263,154.82478191678433 L-79.40665187832977,150.9431490342013 Z" fill="rgb(63,123,223)"/><path d="M80,50 L-79.40665187832977,150.9431490342013 L-81.83591046335405,147.00071177314754 Z" fill="rgb(64,122,222)"/><path d="M80,50 L-81.83591046335405,147.00071177314754 L-84.16768514734969,142.99984491041184 Z" fill="rgb(66,122,222)"/><path d="M80,50 L-84.16768514734969,142.99984491041184 L-86.40057135643767,138.9429584185903 Z" fill="rgb(67,121,221)"/><path d="M80,50 L-86.40057135643767,138.9429584185903 L-88.53322408345869,134.83249601440883 Z" fill="rgb(68,120,220)"/><path d="M80,50 L-88.53322408345869,134.83249601440883 L-90.56435869815499,130.6709336867196 Z" fill="rgb(70,120,219)"/><path d="M80,50 L-90.56435869815499,130.6709336867196 L-92.4927517209837,126.460778205058 Z" fill="rgb(71,119,218)"/><path d="M80,50 L-92.4927517209837,126.460778205058 L-94.31724156009508,122.20456560965835 Z" fill="rgb(73,119,218)"/><path d="M80,50 L-94.31724156009508,122.20456560965835 L-96.03672921103217,117.90485968383803 Z" fill="rgb(74,118,217)"/><path d="M80,50 L-96.03672921103217,117.90485968383803 L-97.65017891872978,113.56425040967044 Z" fill="rgb(75,117,216)"/><path d="M80,50 L-97.65017891872978,113.56425040967044 L-99.15661880141485,109.18535240787638 Z" fill="rgb(77,117,215)"/><path d="M80,50 L-99.15661880141485,109.18535240787638 L-100.55514143603139,104.77080336287477 Z" fill="rgb(78,116,214)"/><path d="M80,50 L-100.55514143603139,104.77080336287477 L-101.84490440483842,100.3232624339397 Z" fill="rgb(80,116,214)"/><path d="M80,50 L-101.84490440483842,100.3232624339397 L-103.02513080285098,95.84540865342224 Z" fill="rgb(81,115,213)"/><path d="M80,50 L-103.02513080285098,95.84540865342224 L-104.09510970581832,91.33993931300229 Z" fill="rgb(82,114,212)"/><path d="M80,50 L-104.09510970581832,91.33993931300229 L-105.05419659845842,86.80956833894 Z" fill="rgb(84,114,211)"/><path d="M80,50 L-105.05419659845842,86.80956833894 L-105.9018137626897,82.25702465730883 Z" fill="rgb(85,113,210)"/><path d="M80,50 L-105.9018137626897,82.25702465730883 L-106.63745062562685,77.68505055019202 Z" fill="rgb(87,113,210)"/><path d="M80,50 L-106.63745062562685,77.68505055019202 L-107.26066406713096,73.09640000383432 Z" fill="rgb(88,112,209)"/><path d="M80,50 L-107.26066406713096,73.09640000383432 L-107.77107868672823,68.49383704974443 Z" fill="rgb(89,111,208)"/><path d="M80,50 L-107.77107868672823,68.49383704974443 L-108.16838702973752,63.88013409974478 Z" fill="rgb(91,111,207)"/><path d="M80,50 L-108.16838702973752,63.88013409974478 L-108.45234977246926,59.258070275975186 Z" fill="rgb(92,110,206)"/><path d="M80,50 L-108.45234977246926,59.258070275975186 L-108.6227958663853,54.63042973685297 Z" fill="rgb(94,110,206)"/><path d="M80,50 L-108.6227958663853,54.63042973685297 L-108.67962264113206,50.00000000000002 Z" fill="rgb(95,109,205)"/><path d="M80,50 L-108.67962264113206,50.00000000000002 L-108.6227958663853,45.36957026314716 Z" fill="rgb(96,108,204)"/><path d="M80,50 L-108.6227958663853,45.36957026314716 L-108.45234977246926,40.74192972402478 Z" fill="rgb(98,108,203)"/><path d="M80,50 L-108.45234977246926,40.74192972402478 L-108.16838702973752,36.11986590025526 Z" fill="rgb(99,107,203)"/><path d="M80,50 L-108.16838702973752,36.11986590025526 L-107.77107868672826,31.50616295025562 Z" fill="rgb(101,107,202)"/><path d="M80,50 L-107.77107868672826,31.50616295025562 L-107.26066406713096,26.903599996165724 Z" fill="rgb(102,106,201)"/><path d="M80,50 L-107.26066406713096,26.903599996165724 L-106.63745062562688,22.31494944980811 Z" fill="rgb(103,105,200)"/><path d="M80,50 L-106.63745062562688,22.31494944980811 L-105.9018137626897,17.742975342691132 Z" fill="rgb(105,105,199)"/><path d="M80,50 L-105.9018137626897,17.742975342691132 L-105.05419659845842,13.190431661060046 Z" fill="rgb(106,104,199)"/><path d="M80,50 L-105.05419659845842,13.190431661060046 L-104.09510970581832,8.66006068699776 Z" fill="rgb(108,104,198)"/><path d="M80,50 L-104.09510970581832,8.66006068699776 L-103.02513080285098,4.154591346577803 Z" fill="rgb(109,103,197)"/><path d="M80,50 L-103.02513080285098,4.154591346577803 L-101.8449044048385,-0.3232624339394903 Z" fill="rgb(110,102,196)"/><path d="M80,50 L-101.8449044048385,-0.3232624339394903 L-100.55514143603139,-4.770803362874723 Z" fill="rgb(112,102,195)"/><path d="M80,50 L-100.55514143603139,-4.770803362874723 L-99.15661880141488,-9.185352407876337 Z" fill="rgb(113,101,195)"/><path d="M80,50 L-99.15661880141488,-9.185352407876337 L-97.65017891872981,-13.564250409670379 Z" fill="rgb(115,101,194)"/><path d="M80,50 L-97.65017891872981,-13.564250409670379 L-96.03672921103217,-17.904859683837998 Z" fill="rgb(116,100,193)"/><path d="M80,50 L-96.03672921103217,-17.904859683837998 L-94.31724156009511,-22.204565609658218 Z" fill="rgb(117,99,192)"/><path d="M80,50 L-94.31724156009511,-22.204565609658218 L-92.4927517209837,-26.460778205057963 Z" fill="rgb(119,99,191)"/><path d="M80,50 L-92.4927517209837,-26.460778205057963 L-90.56435869815502,-30.670933686719536 Z" fill="rgb(120,98,191)"/><path d="M80,50 L-90.56435869815502,-30.670933686719536 L-88.53322408345872,-34.832496014408804 Z" fill="rgb(122,98,190)"/><path d="M80,50 L-88.53322408345872,-34.832496014408804 L-86.4005713564377,-38.94295841859028 Z" fill="rgb(123,97,189)"/><path d="M80,50 L-86.4005713564377,-38.94295841859028 L-84.16768514734966,-42.999844910411866 Z" fill="rgb(124,96,188)"/><path d="M80,50 L-84.16768514734966,-42.999844910411866 L-81.83591046335408,-47.000711773147486 Z" fill="rgb(126,96,187)"/><path d="M80,50 L-81.83591046335408,-47.000711773147486 L-79.4066518783298,-50.943149034201255 Z" fill="rgb(127,95,187)"/><path d="M80,50 L-79.4066518783298,-50.943149034201255 L-76.8813726868126,-54.82478191678436 Z" fill="rgb(129,95,186)"/><path d="M80,50 L-76.8813726868126,-54.82478191678436 L-74.26159402256133,-58.643272270391705 Z" fill="rgb(130,94,185)"/><path d="M80,50 L-74.26159402256133,-58.643272270391705 L-71.54889394228329,-62.396319979217125 Z" fill="rgb(131,93,184)"/><path d="M80,50 L-71.54889394228329,-62.396319979217125 L-68.74490647507261,-66.0816643476561 Z" fill="rgb(133,93,183)"/><path d="M80,50 L-68.74490647507261,-66.0816643476561 L-65.85132063813165,-69.69708546206505 Z" fill="rgb(134,92,183)"/><path d="M80,50 L-65.85132063813165,-69.69708546206505 L-62.86987941937036,-73.24040552795402 Z" fill="rgb(136,92,182)"/><path d="M80,50 L-62.86987941937036,-73.24040552795402 L-59.80237872749589,-76.70949018180842 Z" fill="rgb(137,91,181)"/><path d="M80,50 L-59.80237872749589,-76.70949018180842 L-56.65066631022347,-80.1022497767504 Z" fill="rgb(138,90,180)"/><path d="M80,50 L-56.65066631022347,-80.1022497767504 L-53.41664064126334,-83.41664064126331 Z" fill="rgb(140,90,179)"/><path d="M80,50 L-53.41664064126334,-83.41664064126331 L-50.1022497767504,-86.65066631022347 Z" fill="rgb(141,89,179)"/><path d="M80,50 L-50.1022497767504,-86.65066631022347 L-46.70949018180852,-89.80237872749578 Z" fill="rgb(143,89,178)"/><path d="M80,50 L-46.70949018180852,-89.80237872749578 L-43.24040552795407,-92.86987941937033 Z" fill="rgb(144,88,177)"/><path d="M80,50 L-43.24040552795407,-92.86987941937033 L-39.69708546206502,-95.85132063813168 Z" fill="rgb(145,87,176)"/><path d="M80,50 L-39.69708546206502,-95.85132063813168 L-36.0816643476562,-98.74490647507253 Z" fill="rgb(147,87,175)"/><path d="M80,50 L-36.0816643476562,-98.74490647507253 L-32.39631997921711,-101.54889394228331 Z" fill="rgb(148,86,175)"/><path d="M80,50 L-32.39631997921711,-101.54889394228331 L-28.643272270391776,-104.2615940225613 Z" fill="rgb(150,86,174)"/><path d="M80,50 L-28.643272270391776,-104.2615940225613 L-24.824781916784488,-106.88137268681251 Z" fill="rgb(151,85,173)"/><path d="M80,50 L-24.824781916784488,-106.88137268681251 L-20.943149034201312,-109.40665187832977 Z" fill="rgb(152,84,172)"/><path d="M80,50 L-20.943149034201312,-109.40665187832977 L-17.00071177314753,-111.83591046335405 Z" fill="rgb(154,84,171)"/><path d="M80,50 L-17.00071177314753,-111.83591046335405 L-12.999844910411852,-114.16768514734969 Z" fill="rgb(155,83,171)"/><path d="M80,50 L-12.999844910411852,-114.16768514734969 L-8.942958418590322,-116.40057135643767 Z" fill="rgb(157,83,170)"/><path d="M80,50 L-8.942958418590322,-116.40057135643767 L-4.832496014408861,-118.53322408345869 Z" fill="rgb(158,82,169)"/><path d="M80,50 L-4.832496014408861,-118.53322408345869 L-0.6709336867196498,-120.56435869815496 Z" fill="rgb(159,81,168)"/><path d="M80,50 L-0.6709336867196498,-120.56435869815496 L3.539221794941909,-122.49275172098365 Z" fill="rgb(161,81,167)"/><path d="M80,50 L3.539221794941909,-122.49275172098365 L7.795434390341725,-124.31724156009508 Z" fill="rgb(162,80,167)"/><path d="M80,50 L7.795434390341725,-124.31724156009508 L12.095140316162045,-126.03672921103217 Z" fill="rgb(164,80,166)"/><path d="M80,50 L12.095140316162045,-126.03672921103217 L16.435749590329642,-127.65017891872981 Z" fill="rgb(165,79,165)"/><path d="M80,50 L16.435749590329642,-127.65017891872981 L20.814647592123613,-129.15661880141485 Z" fill="rgb(166,78,164)"/><path d="M80,50 L20.814647592123613,-129.15661880141485 L25.22919663712522,-130.5551414360314 Z" fill="rgb(168,78,163)"/><path d="M80,50 L25.22919663712522,-130.5551414360314 L29.676737566060375,-131.84490440483845 Z" fill="rgb(169,77,163)"/><path d="M80,50 L29.676737566060375,-131.84490440483845 L34.154591346577746,-133.02513080285098 Z" fill="rgb(171,77,162)"/><path d="M80,50 L34.154591346577746,-133.02513080285098 L38.6600606869977,-134.09510970581832 Z" fill="rgb(172,76,161)"/><path d="M80,50 L38.6600606869977,-134.09510970581832 L43.190431661059904,-135.0541965984584 Z" fill="rgb(173,75,160)"/><path d="M80,50 L43.190431661059904,-135.0541965984584 L47.74297534269108,-135.90181376268967 Z" fill="rgb(175,75,159)"/><path d="M80,50 L47.74297534269108,-135.90181376268967 L52.31494944980814,-136.63745062562688 Z" fill="rgb(176,74,159)"/><path d="M80,50 L52.31494944980814,-136.63745062562688 L56.90359999616558,-137.26066406713096 Z" fill="rgb(178,74,158)"/><path d="M80,50 L56.90359999616558,-137.26066406713096 L61.50616295025564,-137.77107868672826 Z" fill="rgb(179,73,157)"/><path d="M80,50 L61.50616295025564,-137.77107868672826 L66.1198659002552,-138.16838702973752 Z" fill="rgb(180,72,156)"/><path d="M80,50 L66.1198659002552,-138.16838702973752 L70.74192972402463,-138.45234977246923 Z" fill="rgb(182,72,155)"/><path d="M80,50 L70.74192972402463,-138.45234977246923 L75.3695702631471,-138.6227958663853 Z" fill="rgb(183,71,155)"/><path d="M80,50 L75.3695702631471,-138.6227958663853 L79.99999999999997,-138.67962264113206 Z" fill="rgb(185,71,154)"/><path d="M80,50 L79.99999999999997,-138.67962264113206 L84.63042973685283,-138.6227958663853 Z" fill="rgb(186,70,153)"/><path d="M80,50 L84.63042973685283,-138.6227958663853 L89.25807027597513,-138.45234977246926 Z" fill="rgb(187,69,152)"/><path d="M80,50 L89.25807027597513,-138.45234977246926 L93.8801340997449,-138.16838702973752 Z" fill="rgb(189,69,152)"/><path d="M80,50 L93.8801340997449,-138.16838702973752 L98.49383704974429,-137.77107868672826 Z" fill="rgb(190,68,151)"/><path d="M80,50 L98.49383704974429,-137.77107868672826 L103.09640000383418,-137.260664067131 Z" fill="rgb(192,68,150)"/><path d="M80,50 L103.09640000383418,-137.260664067131 L107.68505055019196,-136.63745062562685 Z" fill="rgb(193,67,149)"/><path d="M80,50 L107.68505055019196,-136.63745062562685 L112.25702465730885,-135.9018137626897 Z" fill="rgb(194,66,148)"/><path d="M80,50 L112.25702465730885,-135.9018137626897 L116.80956833894003,-135.05419659845842 Z" fill="rgb(196,66,148)"/><path d="M80,50 L116.80956833894003,-135.05419659845842 L121.33993931300223,-134.09510970581832 Z" fill="rgb(197,65,147)"/><path d="M80,50 L121.33993931300223,-134.09510970581832 L125.84540865342218,-133.02513080285098 Z" fill="rgb(199,65,146)"/><path d="M80,50 L125.84540865342218,-133.02513080285098 L130.32326243393956,-131.84490440483847 Z" fill="rgb(200,64,145)"/><path d="M80,50 L130.32326243393956,-131.84490440483847 L134.77080336287472,-130.5551414360314 Z" fill="rgb(201,63,144)"/><path d="M80,50 L134.77080336287472,-130.5551414360314 L139.18535240787634,-129.15661880141488 Z" fill="rgb(203,63,144)"/><path d="M80,50 L139.18535240787634,-129.15661880141488 L143.5642504096703,-127.65017891872984 Z" fill="rgb(204,62,143)"/><path d="M80,50 L143.5642504096703,-127.65017891872984 L147.90485968383805,-126.03672921103214 Z" fill="rgb(206,62,142)"/><path d="M80,50 L147.90485968383805,-126.03672921103214 L152.20456560965835,-124.31724156009506 Z" fill="rgb(207,61,141)"/><path d="M80,50 L152.20456560965835,-124.31724156009506 L156.46077820505786,-122.49275172098373 Z" fill="rgb(208,60,140)"/><path d="M80,50 L156.46077820505786,-122.49275172098373 L160.6709336867196,-120.56435869815499 Z" fill="rgb(210,60,140)"/><path d="M80,50 L160.6709336867196,-120.56435869815499 L164.8324960144088,-118.53322408345872 Z" fill="rgb(211,59,139)"/><path d="M80,50 L164.8324960144088,-118.53322408345872 L168.94295841859025,-116.4005713564377 Z" fill="rgb(213,59,138)"/><path d="M80,50 L168.94295841859025,-116.4005713564377 L172.9998449104118,-114.16768514734969 Z" fill="rgb(214,58,137)"/><path d="M80,50 L172.9998449104118,-114.16768514734969 L177.0007117731475,-111.83591046335408 Z" fill="rgb(215,57,136)"/><path d="M80,50 L177.0007117731475,-111.83591046335408 L180.94314903420127,-109.4066518783298 Z" fill="rgb(217,57,136)"/><path d="M80,50 L180.94314903420127,-109.4066518783298 L184.82478191678427,-106.88137268681265 Z" fill="rgb(218,56,135)"/><path d="M80,50 L184.82478191678427,-106.88137268681265 L188.64327227039183,-104.26159402256124 Z" fill="rgb(220,56,134)"/><path d="M80,50 L188.64327227039183,-104.26159402256124 L192.39631997921703,-101.54889394228334 Z" fill="rgb(221,55,133)"/><path d="M80,50 L192.39631997921703,-101.54889394228334 L196.08166434765602,-98.74490647507267 Z" fill="rgb(222,54,132)"/><path d="M80,50 L196.08166434765602,-98.74490647507267 L199.6970854620651,-95.8513206381316 Z" fill="rgb(224,54,132)"/><path d="M80,50 L199.6970854620651,-95.8513206381316 L203.240405527954,-92.86987941937039 Z" fill="rgb(225,53,131)"/><path d="M80,50 L203.240405527954,-92.86987941937039 L206.70949018180846,-89.8023787274958 Z" fill="rgb(227,53,130)"/><path d="M80,50 L206.70949018180846,-89.8023787274958 L210.1022497767504,-86.65066631022347 Z" fill="rgb(228,52,129)"/><path d="M80,50 L210.1022497767504,-86.65066631022347 L213.41664064126329,-83.41664064126334 Z" fill="rgb(229,51,128)"/></pattern></defs><path d="M 16 0 L 144 0 C 152.8365559972927 0 160 7.1634440027073065 160 16 L 160 84 C 160 92.83655599729269 152.8365559972927 100 144 100 L 16 100 C 7.1634440027073065 100 0 92.83655599729269 0 84 L 0 16 C 0 7.1634440027073065 7.1634440027073065 0 16 0 Z" fill="url(#ag-g1-0)"/></g></g></svg>