<svg xmlns="http://www.w3.org/2000/svg" width="160" height="160" viewBox="0 0 160 160"><g><defs><clipPath id="clip-g280-1"><rect x="0" y="0" width="160" height="160"/></clipPath></defs><rect x="0" y="0" width="160" height="160" fill="#ffffff"/><g transform="matrix(1,0,0,1,20,20)"><defs><pattern id="ag-g280-0" patternUnits="userSpaceOnUse" width="340" height="340"><path d="M60,60 L229.7056274847714,60 L229.65451532262406,64.164784585728 Z" fill="rgb(253,2,0)"/><path d="M60,60 L229.65451532262406,64.164784585728 L229.5012096242373,68.32706046095288 Z" fill="rgb(250,5,0)"/><path d="M60,60 L229.5012096242373,68.32706046095288 L229.24580273523136,72.48432042632493 Z" fill="rgb(247,8,0)"/><path d="M60,60 L229.24580273523136,72.48432042632493 L228.8884485031659,76.63406030389098 Z" fill="rgb(244,11,0)"/><path d="M60,60 L228.8884485031659,76.63406030389098 L228.42936218486798,80.77378044551753 Z" fill="rgb(241,14,0)"/><path d="M60,60 L228.42936218486798,80.77378044551753 L227.86882031676942,84.90098723858539 Z" fill="rgb(238,17,0)"/><path d="M60,60 L227.86882031676942,84.90098723858539 L227.20716054833147,89.01319460804861 Z" fill="rgb(235,20,0)"/><path d="M60,60 L227.20716054833147,89.01319460804861 L226.44478143865769,93.10792551395316 Z" fill="rgb(232,23,0)"/><path d="M60,60 L226.44478143865769,93.10792551395316 L225.5821422164165,97.18271344351318 Z" fill="rgb(229,26,0)"/><path d="M60,60 L225.5821422164165,97.18271344351318 L224.61976250321925,101.23510389684604 Z" fill="rgb(226,29,0)"/><path d="M60,60 L224.61976250321925,101.23510389684604 L223.55822200061945,105.26265586547129 Z" fill="rgb(223,32,0)"/><path d="M60,60 L223.55822200061945,105.26265586547129 L222.39816014092233,109.26294330268288 Z" fill="rgb(220,35,0)"/><path d="M60,60 L222.39816014092233,109.26294330268288 L221.14027570201463,113.23355658490905 Z" fill="rgb(217,38,0)"/><path d="M60,60 L221.14027570201463,113.23355658490905 L219.78532638644705,117.17210396317935 Z" fill="rgb(214,41,0)"/><path d="M60,60 L219.78532638644705,117.17210396317935 L218.33412836502245,121.0762130038249 Z" fill="rgb(211,44,0)"/><path d="M60,60 L218.33412836502245,121.0762130038249 L216.78755578516518,124.94353201754365 Z" fill="rgb(208,47,0)"/><path d="M60,60 L216.78755578516518,124.94353201754365 L215.14654024436726,128.77173147597009 Z" fill="rgb(205,50,0)"/><path d="M60,60 L215.14654024436726,128.77173147597009 L213.4120702290289,132.55850541489608 Z" fill="rgb(202,53,0)"/><path d="M60,60 L213.4120702290289,132.55850541489608 L211.58519051903139,136.30157282329742 Z" fill="rgb(199,56,0)"/><path d="M60,60 L211.58519051903139,136.30157282329742 L209.66700155840056,139.99867901732958 Z" fill="rgb(196,59,0)"/><path d="M60,60 L209.66700155840056,139.99867901732958 L207.6586587924406,143.64759699846496 Z" fill="rgb(193,62,0)"/><path d="M60,60 L207.6586587924406,143.64759699846496 L205.56137197173695,147.24612879495362 Z" fill="rgb(190,65,0)"/><path d="M60,60 L205.56137197173695,147.24612879495362 L203.3764044234478,150.79210678579904 Z" fill="rgb(187,68,0)"/><path d="M60,60 L203.3764044234478,150.79210678579904 L201.10507229032305,154.28339500645225 Z" fill="rgb(184,71,0)"/><path d="M60,60 L201.10507229032305,154.28339500645225 L198.7487437379091,157.7178904354368 Z" fill="rgb(181,74,0)"/><path d="M60,60 L198.7487437379091,157.7178904354368 L196.30883813041714,161.0935242611303 Z" fill="rgb(178,77,0)"/><path d="M60,60 L196.30883813041714,161.0935242611303 L193.78682517575115,164.40826312793925 Z" fill="rgb(175,80,0)"/><path d="M60,60 L193.78682517575115,164.40826312793925 L191.18422404021092,167.66011036111635 Z" fill="rgb(172,83,0)"/><path d="M60,60 L191.18422404021092,167.66011036111635 L188.50260243340293,170.84710716948274 Z" fill="rgb(169,86,0)"/><path d="M60,60 L188.50260243340293,170.84710716948274 L185.74357566391086,173.96733382533054 Z" fill="rgb(166,89,0)"/><path d="M60,60 L185.74357566391086,173.96733382533054 L182.908805666294,177.018910820795 Z" fill="rgb(163,92,0)"/><path d="M60,60 L182.908805666294,177.018910820795 L180,180 Z" fill="rgb(160,95,0)"/><path d="M60,60 L180,180 L177.01891082079504,182.90880566629397 Z" fill="rgb(157,98,0)"/><path d="M60,60 L177.01891082079504,182.90880566629397 L173.96733382533054,185.74357566391083 Z" fill="rgb(154,101,0)"/><path d="M60,60 L173.96733382533054,185.74357566391083 L170.84710716948274,188.5026024334029 Z" fill="rgb(151,104,0)"/><path d="M60,60 L170.84710716948274,188.5026024334029 L167.66011036111638,191.1842240402109 Z" fill="rgb(148,107,0)"/><path d="M60,60 L167.66011036111638,191.1842240402109 L164.40826312793925,193.78682517575115 Z" fill="rgb(145,110,0)"/><path d="M60,60 L164.40826312793925,193.78682517575115 L161.0935242611303,196.30883813041714 Z" fill="rgb(142,113,0)"/><path d="M60,60 L161.0935242611303,196.30883813041714 L157.7178904354368,198.7487437379091 Z" fill="rgb(139,116,0)"/><path d="M60,60 L157.7178904354368,198.7487437379091 L154.28339500645228,201.10507229032305 Z" fill="rgb(136,119,0)"/><path d="M60,60 L154.28339500645228,201.10507229032305 L150.79210678579904,203.3764044234478 Z" fill="rgb(133,122,0)"/><path d="M60,60 L150.79210678579904,203.3764044234478 L147.24612879495365,205.56137197173695 Z" fill="rgb(130,125,0)"/><path d="M60,60 L147.24612879495365,205.56137197173695 L143.647596998465,207.65865879244058 Z" fill="rgb(127,128,0)"/><path d="M60,60 L143.647596998465,207.65865879244058 L139.99867901732958,209.66700155840056 Z" fill="rgb(124,131,0)"/><path d="M60,60 L139.99867901732958,209.66700155840056 L136.30157282329742,211.58519051903139 Z" fill="rgb(121,134,0)"/><path d="M60,60 L136.30157282329742,211.58519051903139 L132.5585054148961,213.4120702290289 Z" fill="rgb(118,137,0)"/><path d="M60,60 L132.5585054148961,213.4120702290289 L128.77173147597009,215.14654024436726 Z" fill="rgb(115,140,0)"/><path d="M60,60 L128.77173147597009,215.14654024436726 L124.94353201754365,216.78755578516518 Z" fill="rgb(112,143,0)"/><path d="M60,60 L124.94353201754365,216.78755578516518 L121.07621300382492,218.33412836502245 Z" fill="rgb(109,146,0)"/><path d="M60,60 L121.07621300382492,218.33412836502245 L117.17210396317935,219.78532638644705 Z" fill="rgb(106,149,0)"/><path d="M60,60 L117.17210396317935,219.78532638644705 L113.23355658490907,221.14027570201463 Z" fill="rgb(103,152,0)"/><path d="M60,60 L113.23355658490907,221.14027570201463 L109.26294330268288,222.39816014092233 Z" fill="rgb(100,155,0)"/><path d="M60,60 L109.26294330268288,222.39816014092233 L105.26265586547129,223.55822200061945 Z" fill="rgb(97,158,0)"/><path d="M60,60 L105.26265586547129,223.55822200061945 L101.23510389684606,224.61976250321925 Z" fill="rgb(94,161,0)"/><path d="M60,60 L101.23510389684606,224.61976250321925 L97.18271344351318,225.5821422164165 Z" fill="rgb(90,165,0)"/><path d="M60,60 L97.18271344351318,225.5821422164165 L93.10792551395318,226.44478143865769 Z" fill="rgb(87,168,0)"/><path d="M60,60 L93.10792551395318,226.44478143865769 L89.01319460804864,227.20716054833147 Z" fill="rgb(84,171,0)"/><path d="M60,60 L89.01319460804864,227.20716054833147 L84.90098723858539,227.86882031676942 Z" fill="rgb(81,174,0)"/><path d="M60,60 L84.90098723858539,227.86882031676942 L80.77378044551754,228.42936218486798 Z" fill="rgb(78,177,0)"/><path d="M60,60 L80.77378044551754,228.42936218486798 L76.63406030389096,228.8884485031659 Z" fill="rgb(75,180,0)"/><path d="M60,60 L76.63406030389096,228.8884485031659 L72.48432042632498,229.24580273523136 Z" fill="rgb(72,183,0)"/><path d="M60,60 L72.48432042632498,229.24580273523136 L68.32706046095291,229.5012096242373 Z" fill="rgb(69,186,0)"/><path d="M60,60 L68.32706046095291,229.5012096242373 L64.164784585728,229.65451532262406 Z" fill="rgb(66,189,0)"/><path d="M60,60 L64.164784585728,229.65451532262406 L60.00000000000001,229.7056274847714 Z" fill="rgb(63,192,0)"/><path d="M60,60 L60.00000000000001,229.7056274847714 L55.835215414271985,229.65451532262406 Z" fill="rgb(60,195,0)"/><path d="M60,60 L55.835215414271985,229.65451532262406 L51.67293953904712,229.5012096242373 Z" fill="rgb(57,198,0)"/><path d="M60,60 L51.67293953904712,229.5012096242373 L47.51567957367508,229.24580273523136 Z" fill="rgb(54,201,0)"/><path d="M60,60 L47.51567957367508,229.24580273523136 L43.36593969610905,228.8884485031659 Z" fill="rgb(51,204,0)"/><path d="M60,60 L43.36593969610905,228.8884485031659 L39.226219554482476,228.42936218486798 Z" fill="rgb(48,207,0)"/><path d="M60,60 L39.226219554482476,228.42936218486798 L35.09901276141463,227.86882031676942 Z" fill="rgb(45,210,0)"/><path d="M60,60 L35.09901276141463,227.86882031676942 L30.98680539195139,227.20716054833147 Z" fill="rgb(42,213,0)"/><path d="M60,60 L30.98680539195139,227.20716054833147 L26.892074486046887,226.4447814386577 Z" fill="rgb(39,216,0)"/><path d="M60,60 L26.892074486046887,226.4447814386577 L22.81728655648684,225.5821422164165 Z" fill="rgb(36,219,0)"/><path d="M60,60 L22.81728655648684,225.5821422164165 L18.76489610315396,224.61976250321925 Z" fill="rgb(33,222,0)"/><path d="M60,60 L18.76489610315396,224.61976250321925 L14.737344134528726,223.55822200061945 Z" fill="rgb(30,225,0)"/><path d="M60,60 L14.737344134528726,223.55822200061945 L10.737056697317108,222.39816014092233 Z" fill="rgb(27,228,0)"/><path d="M60,60 L10.737056697317108,222.39816014092233 L6.766443415090961,221.14027570201463 Z" fill="rgb(24,231,0)"/><path d="M60,60 L6.766443415090961,221.14027570201463 L2.8278960368206683,219.78532638644705 Z" fill="rgb(21,234,0)"/><path d="M60,60 L2.8278960368206683,219.78532638644705 L-1.0762130038248614,218.33412836502248 Z" fill="rgb(18,237,0)"/><path d="M60,60 L-1.0762130038248614,218.33412836502248 L-4.943532017543632,216.78755578516518 Z" fill="rgb(15,240,0)"/><path d="M60,60 L-4.943532017543632,216.78755578516518 L-8.771731475970071,215.14654024436726 Z" fill="rgb(12,243,0)"/><path d="M60,60 L-8.771731475970071,215.14654024436726 L-12.558505414896118,213.4120702290289 Z" fill="rgb(9,246,0)"/><path d="M60,60 L-12.558505414896118,213.4120702290289 L-16.301572823297448,211.58519051903139 Z" fill="rgb(6,249,0)"/><path d="M60,60 L-16.301572823297448,211.58519051903139 L-19.998679017329522,209.66700155840059 Z" fill="rgb(3,252,0)"/><path d="M60,60 L-19.998679017329522,209.66700155840059 L-23.647596998464977,207.6586587924406 Z" fill="rgb(0,255,0)"/><path d="M60,60 L-23.647596998464977,207.6586587924406 L-27.246128794953606,205.56137197173695 Z" fill="rgb(0,252,3)"/><path d="M60,60 L-27.246128794953606,205.56137197173695 L-30.79210678579902,203.37640442344784 Z" fill="rgb(0,249,6)"/><path d="M60,60 L-30.79210678579902,203.37640442344784 L-34.283395006452295,201.10507229032302 Z" fill="rgb(0,246,9)"/><path d="M60,60 L-34.283395006452295,201.10507229032302 L-37.717890435436814,198.7487437379091 Z" fill="rgb(0,243,12)"/><path d="M60,60 L-37.717890435436814,198.7487437379091 L-41.09352426113031,196.30883813041714 Z" fill="rgb(0,240,15)"/><path d="M60,60 L-41.09352426113031,196.30883813041714 L-44.40826312793925,193.78682517575118 Z" fill="rgb(0,237,18)"/><path d="M60,60 L-44.40826312793925,193.78682517575118 L-47.66011036111634,191.18422404021092 Z" fill="rgb(0,234,21)"/><path d="M60,60 L-47.66011036111634,191.18422404021092 L-50.847107169482754,188.5026024334029 Z" fill="rgb(0,232,23)"/><path d="M60,60 L-50.847107169482754,188.5026024334029 L-53.96733382533054,185.74357566391086 Z" fill="rgb(0,229,26)"/><path d="M60,60 L-53.96733382533054,185.74357566391086 L-57.018910820794986,182.90880566629403 Z" fill="rgb(0,226,29)"/><path d="M60,60 L-57.018910820794986,182.90880566629403 L-60,180 Z" fill="rgb(0,223,32)"/><path d="M60,60 L-60,180 L-62.90880566629396,177.01891082079504 Z" fill="rgb(0,220,35)"/><path d="M60,60 L-62.90880566629396,177.01891082079504 L-65.74357566391082,173.96733382533057 Z" fill="rgb(0,217,38)"/><path d="M60,60 L-65.74357566391082,173.96733382533057 L-68.50260243340293,170.84710716948274 Z" fill="rgb(0,214,41)"/><path d="M60,60 L-68.50260243340293,170.84710716948274 L-71.18422404021092,167.66011036111635 Z" fill="rgb(0,211,44)"/><path d="M60,60 L-71.18422404021092,167.66011036111635 L-73.78682517575115,164.40826312793928 Z" fill="rgb(0,208,47)"/><path d="M60,60 L-73.78682517575115,164.40826312793928 L-76.30883813041712,161.0935242611303 Z" fill="rgb(0,205,50)"/><path d="M60,60 L-76.30883813041712,161.0935242611303 L-78.74874373790908,157.71789043543683 Z" fill="rgb(0,202,53)"/><path d="M60,60 L-78.74874373790908,157.71789043543683 L-81.10507229032308,154.28339500645225 Z" fill="rgb(0,199,56)"/><path d="M60,60 L-81.10507229032308,154.28339500645225 L-83.37640442344781,150.79210678579904 Z" fill="rgb(0,196,59)"/><path d="M60,60 L-83.37640442344781,150.79210678579904 L-85.56137197173695,147.24612879495362 Z" fill="rgb(0,193,62)"/><path d="M60,60 L-85.56137197173695,147.24612879495362 L-87.65865879244058,143.64759699846502 Z" fill="rgb(0,190,65)"/><path d="M60,60 L-87.65865879244058,143.64759699846502 L-89.66700155840053,139.9986790173296 Z" fill="rgb(0,188,67)"/><path d="M60,60 L-89.66700155840053,139.9986790173296 L-91.58519051903136,136.30157282329748 Z" fill="rgb(0,185,70)"/><path d="M60,60 L-91.58519051903136,136.30157282329748 L-93.4120702290289,132.55850541489608 Z" fill="rgb(0,182,73)"/><path d="M60,60 L-93.4120702290289,132.55850541489608 L-95.14654024436726,128.7717314759701 Z" fill="rgb(0,179,76)"/><path d="M60,60 L-95.14654024436726,128.7717314759701 L-96.78755578516518,124.94353201754366 Z" fill="rgb(0,176,79)"/><path d="M60,60 L-96.78755578516518,124.94353201754366 L-98.33412836502245,121.07621300382493 Z" fill="rgb(0,173,82)"/><path d="M60,60 L-98.33412836502245,121.07621300382493 L-99.78532638644705,117.1721039631794 Z" fill="rgb(0,170,85)"/><path d="M60,60 L-99.78532638644705,117.1721039631794 L-101.14027570201463,113.23355658490904 Z" fill="rgb(0,167,88)"/><path d="M60,60 L-101.14027570201463,113.23355658490904 L-102.39816014092233,109.26294330268288 Z" fill="rgb(0,164,91)"/><path d="M60,60 L-102.39816014092233,109.26294330268288 L-103.55822200061942,105.26265586547137 Z" fill="rgb(0,161,94)"/><path d="M60,60 L-103.55822200061942,105.26265586547137 L-104.61976250321925,101.23510389684607 Z" fill="rgb(0,158,97)"/><path d="M60,60 L-104.61976250321925,101.23510389684607 L-105.58214221641651,97.18271344351322 Z" fill="rgb(0,155,100)"/><path d="M60,60 L-105.58214221641651,97.18271344351322 L-106.44478143865769,93.10792551395315 Z" fill="rgb(0,152,103)"/><path d="M60,60 L-106.44478143865769,93.10792551395315 L-107.20716054833147,89.01319460804861 Z" fill="rgb(0,149,106)"/><path d="M60,60 L-107.20716054833147,89.01319460804861 L-107.86882031676939,84.90098723858547 Z" fill="rgb(0,147,108)"/><path d="M60,60 L-107.86882031676939,84.90098723858547 L-108.42936218486798,80.77378044551756 Z" fill="rgb(0,144,111)"/><path d="M60,60 L-108.42936218486798,80.77378044551756 L-108.88844850316588,76.63406030389102 Z" fill="rgb(0,141,114)"/><path d="M60,60 L-108.88844850316588,76.63406030389102 L-109.24580273523136,72.48432042632491 Z" fill="rgb(0,138,117)"/><path d="M60,60 L-109.24580273523136,72.48432042632491 L-109.5012096242373,68.32706046095288 Z" fill="rgb(0,135,120)"/><path d="M60,60 L-109.5012096242373,68.32706046095288 L-109.65451532262406,64.16478458572809 Z" fill="rgb(0,132,123)"/><path d="M60,60 L-109.65451532262406,64.16478458572809 L-109.70562748477141,60.00000000000002 Z" fill="rgb(0,129,126)"/><path d="M60,60 L-109.70562748477141,60.00000000000002 L-109.65451532262406,55.835215414272035 Z" fill="rgb(0,126,129)"/><path d="M60,60 L-109.65451532262406,55.835215414272035 L-109.5012096242373,51.67293953904709 Z" fill="rgb(0,123,132)"/><path d="M60,60 L-109.5012096242373,51.67293953904709 L-109.24580273523136,47.51567957367513 Z" fill="rgb(0,120,135)"/><path d="M60,60 L-109.24580273523136,47.51567957367513 L-108.8884485031659,43.365939696109024 Z" fill="rgb(0,117,138)"/><path d="M60,60 L-108.8884485031659,43.365939696109024 L-108.42936218486798,39.22621955448248 Z" fill="rgb(0,114,141)"/><path d="M60,60 L-108.42936218486798,39.22621955448248 L-107.86882031676942,35.09901276141464 Z" fill="rgb(0,111,144)"/><path d="M60,60 L-107.86882031676942,35.09901276141464 L-107.20716054833147,30.98680539195136 Z" fill="rgb(0,108,147)"/><path d="M60,60 L-107.20716054833147,30.98680539195136 L-106.44478143865771,26.892074486046894 Z" fill="rgb(0,106,149)"/><path d="M60,60 L-106.44478143865771,26.892074486046894 L-105.58214221641651,22.817286556486813 Z" fill="rgb(0,103,152)"/><path d="M60,60 L-105.58214221641651,22.817286556486813 L-104.61976250321925,18.764896103153973 Z" fill="rgb(0,100,155)"/><path d="M60,60 L-104.61976250321925,18.764896103153973 L-103.55822200061948,14.737344134528811 Z" fill="rgb(0,97,158)"/><path d="M60,60 L-103.55822200061948,14.737344134528811 L-102.39816014092233,10.737056697317158 Z" fill="rgb(0,94,161)"/><path d="M60,60 L-102.39816014092233,10.737056697317158 L-101.14027570201466,6.766443415091004 Z" fill="rgb(0,91,164)"/><path d="M60,60 L-101.14027570201466,6.766443415091004 L-99.78532638644705,2.827896036820647 Z" fill="rgb(0,88,167)"/><path d="M60,60 L-99.78532638644705,2.827896036820647 L-98.33412836502248,-1.0762130038248898 Z" fill="rgb(0,85,170)"/><path d="M60,60 L-98.33412836502248,-1.0762130038248898 L-96.78755578516521,-4.943532017543546 Z" fill="rgb(0,82,173)"/><path d="M60,60 L-96.78755578516521,-4.943532017543546 L-95.14654024436729,-8.771731475970057 Z" fill="rgb(0,79,176)"/><path d="M60,60 L-95.14654024436729,-8.771731475970057 L-93.41207022902893,-12.558505414896047 Z" fill="rgb(0,76,179)"/><path d="M60,60 L-93.41207022902893,-12.558505414896047 L-91.58519051903139,-16.301572823297434 Z" fill="rgb(0,73,182)"/><path d="M60,60 L-91.58519051903139,-16.301572823297434 L-89.66700155840056,-19.99867901732958 Z" fill="rgb(0,70,185)"/><path d="M60,60 L-89.66700155840056,-19.99867901732958 L-87.65865879244058,-23.647596998465033 Z" fill="rgb(0,67,188)"/><path d="M60,60 L-87.65865879244058,-23.647596998465033 L-85.56137197173697,-27.24612879495359 Z" fill="rgb(0,65,190)"/><path d="M60,60 L-85.56137197173697,-27.24612879495359 L-83.37640442344784,-30.792106785799007 Z" fill="rgb(0,62,193)"/><path d="M60,60 L-83.37640442344784,-30.792106785799007 L-81.10507229032305,-34.28339500645228 Z" fill="rgb(0,59,196)"/><path d="M60,60 L-81.10507229032305,-34.28339500645228 L-78.74874373790914,-37.71789043543674 Z" fill="rgb(0,56,199)"/><path d="M60,60 L-78.74874373790914,-37.71789043543674 L-76.30883813041714,-41.0935242611303 Z" fill="rgb(0,53,202)"/><path d="M60,60 L-76.30883813041714,-41.0935242611303 L-73.78682517575118,-44.408263127939236 Z" fill="rgb(0,50,205)"/><path d="M60,60 L-73.78682517575118,-44.408263127939236 L-71.18422404021092,-47.660110361116324 Z" fill="rgb(0,47,208)"/><path d="M60,60 L-71.18422404021092,-47.660110361116324 L-68.5026024334029,-50.847107169482754 Z" fill="rgb(0,44,211)"/><path d="M60,60 L-68.5026024334029,-50.847107169482754 L-65.74357566391089,-53.967333825330485 Z" fill="rgb(0,41,214)"/><path d="M60,60 L-65.74357566391089,-53.967333825330485 L-62.908805666294,-57.018910820795014 Z" fill="rgb(0,38,217)"/><path d="M60,60 L-62.908805666294,-57.018910820795014 L-60.00000000000003,-60 Z" fill="rgb(0,35,220)"/><path d="M60,60 L-60.00000000000003,-60 L-57.018910820795,-62.908805666294 Z" fill="rgb(0,32,223)"/><path d="M60,60 L-57.018910820795,-62.908805666294 L-53.96733382533057,-65.74357566391082 Z" fill="rgb(0,29,226)"/><path d="M60,60 L-53.96733382533057,-65.74357566391082 L-50.8471071694828,-68.5026024334029 Z" fill="rgb(0,26,229)"/><path d="M60,60 L-50.8471071694828,-68.5026024334029 L-47.660110361116296,-71.18422404021095 Z" fill="rgb(0,23,232)"/><path d="M60,60 L-47.660110361116296,-71.18422404021095 L-44.408263127939335,-73.78682517575109 Z" fill="rgb(0,21,234)"/><path d="M60,60 L-44.408263127939335,-73.78682517575109 L-41.09352426113027,-76.30883813041714 Z" fill="rgb(0,18,237)"/><path d="M60,60 L-41.09352426113027,-76.30883813041714 L-37.7178904354368,-78.74874373790911 Z" fill="rgb(0,15,240)"/><path d="M60,60 L-37.7178904354368,-78.74874373790911 L-34.283395006452395,-81.10507229032297 Z" fill="rgb(0,12,243)"/><path d="M60,60 L-34.283395006452395,-81.10507229032297 L-30.792106785799064,-83.37640442344778 Z" fill="rgb(0,9,246)"/><path d="M60,60 L-30.792106785799064,-83.37640442344778 L-27.24612879495362,-85.56137197173695 Z" fill="rgb(0,6,249)"/><path d="M60,60 L-27.24612879495362,-85.56137197173695 L-23.647596998465005,-87.65865879244058 Z" fill="rgb(0,3,252)"/><path d="M60,60 L-23.647596998465005,-87.65865879244058 L-19.998679017329636,-89.66700155840053 Z" fill="rgb(0,0,255)"/><path d="M60,60 L-19.998679017329636,-89.66700155840053 L-16.301572823297477,-91.58519051903136 Z" fill="rgb(3,0,252)"/><path d="M60,60 L-16.301572823297477,-91.58519051903136 L-12.55850541489616,-93.41207022902887 Z" fill="rgb(6,0,249)"/><path d="M60,60 L-12.55850541489616,-93.41207022902887 L-8.77173147597017,-95.14654024436723 Z" fill="rgb(9,0,246)"/><path d="M60,60 L-8.77173147597017,-95.14654024436723 L-4.943532017543589,-96.78755578516521 Z" fill="rgb(12,0,243)"/><path d="M60,60 L-4.943532017543589,-96.78755578516521 L-1.0762130038248685,-98.33412836502248 Z" fill="rgb(15,0,240)"/><path d="M60,60 L-1.0762130038248685,-98.33412836502248 L2.8278960368206683,-99.78532638644705 Z" fill="rgb(18,0,237)"/><path d="M60,60 L2.8278960368206683,-99.78532638644705 L6.766443415090954,-101.14027570201463 Z" fill="rgb(21,0,234)"/><path d="M60,60 L6.766443415090954,-101.14027570201463 L10.7370566973171,-102.39816014092233 Z" fill="rgb(24,0,231)"/><path d="M60,60 L10.7370566973171,-102.39816014092233 L14.73734413452869,-103.55822200061945 Z" fill="rgb(27,0,228)"/><path d="M60,60 L14.73734413452869,-103.55822200061945 L18.764896103153916,-104.61976250321925 Z" fill="rgb(30,0,225)"/><path d="M60,60 L18.764896103153916,-104.61976250321925 L22.817286556486764,-105.58214221641651 Z" fill="rgb(33,0,222)"/><path d="M60,60 L22.817286556486764,-105.58214221641651 L26.892074486046774,-106.44478143865769 Z" fill="rgb(36,0,219)"/><path d="M60,60 L26.892074486046774,-106.44478143865769 L30.986805391951314,-107.20716054833147 Z" fill="rgb(39,0,216)"/><path d="M60,60 L30.986805391951314,-107.20716054833147 L35.09901276141466,-107.86882031676942 Z" fill="rgb(42,0,213)"/><path d="M60,60 L35.09901276141466,-107.86882031676942 L39.226219554482356,-108.42936218486798 Z" fill="rgb(45,0,210)"/><path d="M60,60 L39.226219554482356,-108.42936218486798 L43.36593969610905,-108.8884485031659 Z" fill="rgb(48,0,207)"/><path d="M60,60 L43.36593969610905,-108.8884485031659 L47.51567957367508,-109.24580273523136 Z" fill="rgb(51,0,204)"/><path d="M60,60 L47.51567957367508,-109.24580273523136 L51.672939539046965,-109.50120962423728 Z" fill="rgb(54,0,201)"/><path d="M60,60 L51.672939539046965,-109.50120962423728 L55.835215414271985,-109.65451532262406 Z" fill="rgb(57,0,198)"/><path d="M60,60 L55.835215414271985,-109.65451532262406 L59.99999999999997,-109.70562748477141 Z" fill="rgb(60,0,195)"/><path d="M60,60 L59.99999999999997,-109.70562748477141 L64.16478458572796,-109.65451532262406 Z" fill="rgb(63,0,192)"/><path d="M60,60 L64.16478458572796,-109.65451532262406 L68.32706046095282,-109.5012096242373 Z" fill="rgb(66,0,189)"/><path d="M60,60 L68.32706046095282,-109.5012096242373 L72.48432042632501,-109.24580273523136 Z" fill="rgb(69,0,186)"/><path d="M60,60 L72.48432042632501,-109.24580273523136 L76.63406030389089,-108.8884485031659 Z" fill="rgb(72,0,183)"/><path d="M60,60 L76.63406030389089,-108.8884485031659 L80.77378044551743,-108.42936218486798 Z" fill="rgb(75,0,180)"/><path d="M60,60 L80.77378044551743,-108.42936218486798 L84.90098723858543,-107.86882031676939 Z" fill="rgb(78,0,177)"/><path d="M60,60 L84.90098723858543,-107.86882031676939 L89.01319460804862,-107.20716054833147 Z" fill="rgb(81,0,174)"/><path d="M60,60 L89.01319460804862,-107.20716054833147 L93.10792551395318,-106.44478143865769 Z" fill="rgb(84,0,171)"/><path d="M60,60 L93.10792551395318,-106.44478143865769 L97.18271344351317,-105.58214221641651 Z" fill="rgb(87,0,168)"/><path d="M60,60 L97.18271344351317,-105.58214221641651 L101.23510389684603,-104.61976250321925 Z" fill="rgb(90,0,165)"/><path d="M60,60 L101.23510389684603,-104.61976250321925 L105.26265586547126,-103.55822200061948 Z" fill="rgb(94,0,161)"/><path d="M60,60 L105.26265586547126,-103.55822200061948 L109.26294330268283,-102.39816014092233 Z" fill="rgb(97,0,158)"/><path d="M60,60 L109.26294330268283,-102.39816014092233 L113.233556584909,-101.14027570201466 Z" fill="rgb(100,0,155)"/><path d="M60,60 L113.233556584909,-101.14027570201466 L117.17210396317927,-99.78532638644708 Z" fill="rgb(103,0,152)"/><path d="M60,60 L117.17210396317927,-99.78532638644708 L121.07621300382495,-98.33412836502245 Z" fill="rgb(106,0,149)"/><path d="M60,60 L121.07621300382495,-98.33412836502245 L124.94353201754367,-96.78755578516515 Z" fill="rgb(109,0,146)"/><path d="M60,60 L124.94353201754367,-96.78755578516515 L128.77173147596997,-95.14654024436729 Z" fill="rgb(112,0,143)"/><path d="M60,60 L128.77173147596997,-95.14654024436729 L132.5585054148961,-93.4120702290289 Z" fill="rgb(115,0,140)"/><path d="M60,60 L132.5585054148961,-93.4120702290289 L136.30157282329742,-91.58519051903139 Z" fill="rgb(118,0,137)"/><path d="M60,60 L136.30157282329742,-91.58519051903139 L139.99867901732958,-89.66700155840056 Z" fill="rgb(121,0,134)"/><path d="M60,60 L139.99867901732958,-89.66700155840056 L143.64759699846496,-87.6586587924406 Z" fill="rgb(124,0,131)"/><path d="M60,60 L143.64759699846496,-87.6586587924406 L147.2461287949536,-85.56137197173697 Z" fill="rgb(127,0,128)"/><path d="M60,60 L147.2461287949536,-85.56137197173697 L150.792106785799,-83.37640442344784 Z" fill="rgb(130,0,125)"/><path d="M60,60 L150.792106785799,-83.37640442344784 L154.2833950064522,-81.10507229032308 Z" fill="rgb(133,0,122)"/><path d="M60,60 L154.2833950064522,-81.10507229032308 L157.71789043543686,-78.74874373790908 Z" fill="rgb(136,0,119)"/><path d="M60,60 L157.71789043543686,-78.74874373790908 L161.09352426113026,-76.3088381304172 Z" fill="rgb(139,0,116)"/><path d="M60,60 L161.09352426113026,-76.3088381304172 L164.40826312793916,-73.7868251757512 Z" fill="rgb(142,0,113)"/><path d="M60,60 L164.40826312793916,-73.7868251757512 L167.66011036111638,-71.18422404021089 Z" fill="rgb(145,0,110)"/><path d="M60,60 L167.66011036111638,-71.18422404021089 L170.84710716948274,-68.50260243340293 Z" fill="rgb(148,0,107)"/><path d="M60,60 L170.84710716948274,-68.50260243340293 L173.96733382533054,-65.74357566391086 Z" fill="rgb(151,0,104)"/><path d="M60,60 L173.96733382533054,-65.74357566391086 L177.018910820795,-62.908805666294 Z" fill="rgb(154,0,101)"/><path d="M60,60 L177.018910820795,-62.908805666294 L179.99999999999997,-60.00000000000003 Z" fill="rgb(157,0,98)"/><path d="M60,60 L179.99999999999997,-60.00000000000003 L182.90880566629394,-57.01891082079507 Z" fill="rgb(160,0,95)"/><path d="M60,60 L182.90880566629394,-57.01891082079507 L185.7435756639108,-53.96733382533057 Z" fill="rgb(163,0,92)"/><path d="M60,60 L185.7435756639108,-53.96733382533057 L188.50260243340287,-50.8471071694828 Z" fill="rgb(166,0,89)"/><path d="M60,60 L188.50260243340287,-50.8471071694828 L191.18422404021086,-47.66011036111644 Z" fill="rgb(169,0,86)"/><path d="M60,60 L191.18422404021086,-47.66011036111644 L193.78682517575118,-44.40826312793922 Z" fill="rgb(172,0,83)"/><path d="M60,60 L193.78682517575118,-44.40826312793922 L196.30883813041714,-41.0935242611303 Z" fill="rgb(175,0,80)"/><path d="M60,60 L196.30883813041714,-41.0935242611303 L198.74874373790902,-37.71789043543693 Z" fill="rgb(178,0,77)"/><path d="M60,60 L198.74874373790902,-37.71789043543693 L201.10507229032305,-34.28339500645225 Z" fill="rgb(181,0,74)"/><path d="M60,60 L201.10507229032305,-34.28339500645225 L203.37640442344778,-30.792106785799064 Z" fill="rgb(184,0,71)"/><path d="M60,60 L203.37640442344778,-30.792106785799064 L205.56137197173686,-27.246128794953776 Z" fill="rgb(187,0,68)"/><path d="M60,60 L205.56137197173686,-27.246128794953776 L207.65865879244058,-23.64759699846502 Z" fill="rgb(190,0,65)"/><path d="M60,60 L207.65865879244058,-23.64759699846502 L209.66700155840053,-19.998679017329636 Z" fill="rgb(193,0,62)"/><path d="M60,60 L209.66700155840053,-19.998679017329636 L211.58519051903136,-16.30157282329749 Z" fill="rgb(196,0,59)"/><path d="M60,60 L211.58519051903136,-16.30157282329749 L213.41207022902887,-12.55850541489616 Z" fill="rgb(199,0,56)"/><path d="M60,60 L213.41207022902887,-12.55850541489616 L215.1465402443673,-8.771731475970043 Z" fill="rgb(202,0,53)"/><path d="M60,60 L215.1465402443673,-8.771731475970043 L216.7875557851652,-4.943532017543603 Z" fill="rgb(205,0,50)"/><path d="M60,60 L216.7875557851652,-4.943532017543603 L218.33412836502242,-1.0762130038250106 Z" fill="rgb(208,0,47)"/><path d="M60,60 L218.33412836502242,-1.0762130038250106 L219.78532638644705,2.827896036820661 Z" fill="rgb(211,0,44)"/><path d="M60,60 L219.78532638644705,2.827896036820661 L221.14027570201463,6.766443415090947 Z" fill="rgb(214,0,41)"/><path d="M60,60 L221.14027570201463,6.766443415090947 L222.39816014092227,10.737056697316952 Z" fill="rgb(217,0,38)"/><path d="M60,60 L222.39816014092227,10.737056697316952 L223.55822200061945,14.737344134528676 Z" fill="rgb(220,0,35)"/><path d="M60,60 L223.55822200061945,14.737344134528676 L224.61976250321925,18.76489610315391 Z" fill="rgb(223,0,32)"/><path d="M60,60 L224.61976250321925,18.76489610315391 L225.58214221641654,22.8172865564869 Z" fill="rgb(226,0,29)"/><path d="M60,60 L225.58214221641654,22.8172865564869 L226.44478143865769,26.89207448604676 Z" fill="rgb(229,0,26)"/><path d="M60,60 L226.44478143865769,26.89207448604676 L227.20716054833147,30.9868053919513 Z" fill="rgb(232,0,23)"/><path d="M60,60 L227.20716054833147,30.9868053919513 L227.86882031676942,35.099012761414656 Z" fill="rgb(235,0,20)"/><path d="M60,60 L227.86882031676942,35.099012761414656 L228.42936218486795,39.22621955448235 Z" fill="rgb(238,0,17)"/><path d="M60,60 L228.42936218486795,39.22621955448235 L228.8884485031659,43.36593969610904 Z" fill="rgb(241,0,14)"/><path d="M60,60 L228.8884485031659,43.36593969610904 L229.24580273523136,47.515679573675065 Z" fill="rgb(244,0,11)"/><path d="M60,60 L229.24580273523136,47.515679573675065 L229.50120962423728,51.67293953904695 Z" fill="rgb(247,0,8)"/><path d="M60,60 L229.50120962423728,51.67293953904695 L229.65451532262406,55.83521541427197 Z" fill="rgb(250,0,5)"/><path d="M60,60 L229.65451532262406,55.83521541427197 L229.7056274847714,59.99999999999996 Z" fill="rgb(253,0,2)"/></pattern></defs><circle cx="60" cy="60" r="60" fill="url(#ag-g280-0)"/></g></g></svg>