<svg xmlns="http://www.w3.org/2000/svg" width="160" height="160" viewBox="0 0 160 160"><g><defs><clipPath id="clip-g282-1"><rect x="0" y="0" width="160" height="160"/></clipPath></defs><rect x="0" y="0" width="160" height="160" fill="#ffffff"/><g transform="matrix(1,0,0,1,20,20)"><defs><pattern id="dg-g282-0" patternUnits="userSpaceOnUse" width="120" height="120"><path d="M0,60 L60,0 L120,60 L60,120 Z" fill="#cc331a"/><path d="M1.875,60 L60,1.875 L118.125,60 L60,118.125 Z" fill="rgb(206,56,27)"/><path d="M3.75,60 L60,3.75 L116.25,60 L60,116.25 Z" fill="rgb(207,61,28)"/><path d="M5.625,60 L60,5.625 L114.375,60 L60,114.375 Z" fill="rgb(209,65,28)"/><path d="M7.5,60 L60,7.5 L112.5,60 L60,112.5 Z" fill="rgb(210,70,29)"/><path d="M9.375,60 L60,9.375 L110.625,60 L60,110.625 Z" fill="rgb(212,75,30)"/><path d="M11.25,60 L60,11.25 L108.75,60 L60,108.75 Z" fill="rgb(214,80,31)"/><path d="M13.125,60 L60,13.125 L106.875,60 L60,106.875 Z" fill="rgb(215,84,31)"/><path d="M15,60 L60,15 L105,60 L60,105 Z" fill="rgb(217,89,32)"/><path d="M16.875,60 L60,16.875 L103.125,60 L60,103.125 Z" fill="rgb(218,94,33)"/><path d="M18.75,60 L60,18.75 L101.25,60 L60,101.25 Z" fill="rgb(220,99,34)"/><path d="M20.625,60 L60,20.625 L99.375,60 L60,99.375 Z" fill="rgb(222,104,35)"/><path d="M22.5,60 L60,22.5 L97.5,60 L60,97.5 Z" fill="rgb(223,108,35)"/><path d="M24.375,60 L60,24.375 L95.625,60 L60,95.625 Z" fill="rgb(225,113,36)"/><path d="M26.25,60 L60,26.25 L93.75,60 L60,93.75 Z" fill="rgb(226,118,37)"/><path d="M28.125,60 L60,28.125 L91.875,60 L60,91.875 Z" fill="rgb(228,123,38)"/><path d="M30,60 L60,30 L90,60 L60,90 Z" fill="rgb(230,128,39)"/><path d="M31.875,60 L60,31.875 L88.125,60 L60,88.125 Z" fill="rgb(231,132,39)"/><path d="M33.75,60 L60,33.75 L86.25,60 L60,86.25 Z" fill="rgb(233,137,40)"/><path d="M35.625,60 L60,35.625 L84.375,60 L60,84.375 Z" fill="rgb(234,142,41)"/><path d="M37.5,60 L60,37.5 L82.5,60 L60,82.5 Z" fill="rgb(236,147,42)"/><path d="M39.375,60 L60,39.375 L80.625,60 L60,80.625 Z" fill="rgb(237,151,42)"/><path d="M41.25,60 L60,41.25 L78.75,60 L60,78.75 Z" fill="rgb(239,156,43)"/><path d="M43.125,60 L60,43.125 L76.875,60 L60,76.875 Z" fill="rgb(241,161,44)"/><path d="M45,60 L60,45 L75,60 L60,75 Z" fill="rgb(242,166,45)"/><path d="M46.875,60 L60,46.875 L73.125,60 L60,73.125 Z" fill="rgb(244,171,46)"/><path d="M48.75,60 L60,48.75 L71.25,60 L60,71.25 Z" fill="rgb(245,175,46)"/><path d="M50.625,60 L60,50.625 L69.375,60 L60,69.375 Z" fill="rgb(247,180,47)"/><path d="M52.5,60 L60,52.5 L67.5,60 L60,67.5 Z" fill="rgb(249,185,48)"/><path d="M54.375,60 L60,54.375 L65.625,60 L60,65.625 Z" fill="rgb(250,190,49)"/><path d="M56.25,60 L60,56.25 L63.75,60 L60,63.75 Z" fill="rgb(252,194,49)"/><path d="M58.125,60 L60,58.125 L61.875,60 L60,61.875 Z" fill="rgb(253,199,50)"/><path d="M60,60 L60,60 L60,60 L60,60 Z" fill="#ffcc33"/></pattern></defs><path d="M 8 0 L 112 0 C 116.41827799864635 0 120 3.5817220013536533 120 8 L 120 112 C 120 116.41827799864635 116.41827799864635 120 112 120 L 8 120 C 3.5817220013536533 120 0 116.41827799864635 0 112 L 0 8 C 0 3.5817220013536533 3.5817220013536533 0 8 0 Z" fill="url(#dg-g282-0)"/></g></g></svg>