<svg xmlns="http://www.w3.org/2000/svg" width="200" height="140" viewBox="0 0 200 140"><g><defs><clipPath id="clip-g286-2"><rect x="0" y="0" width="200" height="140"/></clipPath></defs><rect x="0" y="0" width="200" height="140" fill="#f2f2f2"/><g transform="matrix(1,0,0,1,20,20)"><defs><clipPath id="clip-g286-1"><rect x="0" y="0" width="160" height="100"/></clipPath></defs><g clip-path="url(#clip-g286-1)"><rect x="0" y="0" width="160" height="100" fill="#ffffff"/><path d="M 20 0 L 140 0 C 151.04569499661588 0 160 8.954305003384134 160 20 L 160 80 C 160 91.04569499661586 151.04569499661588 100 140 100 L 20 100 C 8.954305003384134 100 0 91.04569499661586 0 80 L 0 20 C 0 8.954305003384134 8.954305003384134 0 20 0 Z" fill="#ffffff"/><g transform="matrix(1,0,0,1,-20,-20)"><defs><radialGradient id="rg-g286-0" cx="0" cy="0" r="1" gradientUnits="userSpaceOnUse" gradientTransform="translate(150 105) rotate(0) scale(50 35)"><stop offset="0%" stop-color="#ffcc00"/><stop offset="100%" stop-color="#800080"/></radialGradient></defs><rect x="0" y="0" width="200" height="140" fill="url(#rg-g286-0)"/></g></g></g></g></svg>