<svg xmlns="http://www.w3.org/2000/svg" width="200" height="140" viewBox="0 0 200 140"><g><defs><clipPath id="clip-g4-2"><rect x="0" y="0" width="200" height="140"/></clipPath></defs><rect x="0" y="0" width="200" height="140" fill="#f2f2f2"/><g transform="matrix(1,0,0,1,20,20)"><defs><linearGradient id="lg-g4-0" x1="80.00000337174794" y1="-70.71068143615894" x2="193.13709029785431" y2="-0.0000021073424616103316" gradientUnits="userSpaceOnUse"><stop offset="0%" stop-color="#ff8000" stop-opacity="0.699999988079071"/><stop offset="100%" stop-color="#000000" stop-opacity="0"/></linearGradient><linearGradient id="lg-g4-1" x1="80.00000337174794" y1="-70.71068143615894" x2="193.13709029785431" y2="-0.0000021073424616103316" gradientUnits="userSpaceOnUse"><stop offset="0%" stop-color="#ff8000" stop-opacity="0.699999988079071"/><stop offset="100%" stop-color="#000000" stop-opacity="0"/></linearGradient></defs><path d="M 10 0 L 150 0 C 155.52284749830793 0 160 4.477152501692067 160 10 L 160 90 C 160 95.52284749830794 155.52284749830793 100 150 100 L 10 100 C 4.477152501692067 100 0 95.52284749830794 0 90 L 0 10 C 0 4.477152501692067 4.477152501692067 0 10 0 Z" fill="#1a1a4d"/><path d="M 10 0 L 150 0 C 155.52284749830793 0 160 4.477152501692067 160 10 L 160 90 C 160 95.52284749830794 155.52284749830793 100 150 100 L 10 100 C 4.477152501692067 100 0 95.52284749830794 0 90 L 0 10 C 0 4.477152501692067 4.477152501692067 0 10 0 Z" fill="url(#lg-g4-1)"/></g></g></svg>