<svg xmlns="http://www.w3.org/2000/svg" width="160" height="120" viewBox="0 0 160 120"><g><defs><clipPath id="clip-g3-0"><rect x="0" y="0" width="160" height="120"/></clipPath></defs><rect x="0" y="0" width="160" height="120" fill="#ffffff"/><g transform="matrix(1,0,0,1,20,20)"><path d="M 12 0 L 108 0 C 114.62741699796952 0 120 5.3725830020304794 120 12 L 120 68 C 120 74.62741699796952 114.62741699796952 80 108 80 L 12 80 C 5.3725830020304794 80 0 74.62741699796952 0 68 L 0 12 C 0 5.3725830020304794 5.3725830020304794 0 12 0 Z" fill="#3366e6"/><path d="M 12 0 L 108 0 C 114.62741699796952 0 120 5.3725830020304794 120 12 L 120 68 C 120 74.62741699796952 114.62741699796952 80 108 80 L 12 80 C 5.3725830020304794 80 0 74.62741699796952 0 68 L 0 12 C 0 5.3725830020304794 5.3725830020304794 0 12 0 Z" fill="#e63333" fill-opacity="0.5"/></g></g></svg>