<svg xmlns="http://www.w3.org/2000/svg" width="160" height="120" viewBox="0 0 160 120"><g><defs><clipPath id="clip-g0-1"><rect x="0" y="0" width="160" height="120"/></clipPath></defs><g clip-path="url(#clip-g0-1)"><rect x="0" y="0" width="160" height="120" fill="#ffffff"/><g transform="matrix(1,0,0,1,20,20)"><defs><clipPath id="clip-g0-0"><path d="M 20 0 L 100 0 C 111.04569499661586 0 120 8.954305003384134 120 20 L 120 60 C 120 71.04569499661586 111.04569499661586 80 100 80 L 20 80 C 8.954305003384134 80 0 71.04569499661586 0 60 L 0 20 C 0 8.954305003384134 8.954305003384134 0 20 0 Z"/></clipPath></defs><g clip-path="url(#clip-g0-0)"><path d="M 20 0 L 100 0 C 111.04569499661586 0 120 8.954305003384134 120 20 L 120 60 C 120 71.04569499661586 111.04569499661586 80 100 80 L 20 80 C 8.954305003384134 80 0 71.04569499661586 0 60 L 0 20 C 0 8.954305003384134 8.954305003384134 0 20 0 Z" fill="#f2f2f2"/><g transform="matrix(1,0,0,1,-20,-20)"><rect x="0" y="0" width="160" height="120" fill="#3366e6"/></g></g></g></g></g></svg>