<svg xmlns="http://www.w3.org/2000/svg" width="160" height="120" viewBox="0 0 160 120"><g><defs><clipPath id="clip-g508-2"><rect x="0" y="0" width="160" height="120"/></clipPath></defs><rect x="0" y="0" width="160" height="120" fill="#ffffff"/><g transform="matrix(1,0,0,1,20,20)"><defs><clipPath id="clip-g508-1"><path d="M 16 0 L 104 0 C 112.83655599729269 0 120 7.1634440027073065 120 16 L 120 64 C 120 72.83655599729269 112.83655599729269 80 104 80 L 16 80 C 7.1634440027073065 80 0 72.83655599729269 0 64 L 0 16 C 0 7.1634440027073065 7.1634440027073065 0 16 0 Z"/></clipPath></defs><g clip-path="url(#clip-g508-1)"><path d="M 16 0 L 104 0 C 112.83655599729269 0 120 7.1634440027073065 120 16 L 120 64 C 120 72.83655599729269 112.83655599729269 80 104 80 L 16 80 C 7.1634440027073065 80 0 72.83655599729269 0 64 L 0 16 C 0 7.1634440027073065 7.1634440027073065 0 16 0 Z" fill="#ffffff"/><g transform="matrix(1,0,0,1,-20,-20)"><defs><linearGradient id="lg-g508-0" x1="80.00000337174794" y1="-84.85281772339073" x2="193.13709029785431" y2="-0.000002528810953932398" gradientUnits="userSpaceOnUse"><stop offset="0%" stop-color="#ff4d4d"/><stop offset="100%" stop-color="#4d4dff"/></linearGradient></defs><rect x="0" y="0" width="160" height="120" fill="url(#lg-g508-0)"/></g></g></g></g></svg>