<svg xmlns="http://www.w3.org/2000/svg" width="200" height="80" viewBox="0 0 200 80"><g><defs><clipPath id="clip-g1-1"><rect x="0" y="0" width="200" height="80"/></clipPath></defs><rect x="0" y="0" width="200" height="80" fill="#ffffff"/><g transform="matrix(1,0,0,1,20,20)"><defs><clipPath id="clip-g1-0"><path d="M 20 0 L 140 0 C 151.04569499661588 0 160 8.954305003384134 160 20 L 160 20 C 160 31.045694996615865 151.04569499661588 40 140 40 L 20 40 C 8.954305003384134 40 0 31.045694996615865 0 20 L 0 20 C 0 8.954305003384134 8.954305003384134 0 20 0 Z"/></clipPath></defs><g clip-path="url(#clip-g1-0)"><path d="M 20 0 L 140 0 C 151.04569499661588 0 160 8.954305003384134 160 20 L 160 20 C 160 31.045694996615865 151.04569499661588 40 140 40 L 20 40 C 8.954305003384134 40 0 31.045694996615865 0 20 L 0 20 C 0 8.954305003384134 8.954305003384134 0 20 0 Z" fill="#ffffff"/><rect x="0" y="0" width="160" height="40" fill="#e63333"/></g></g></g></svg>