<svg xmlns="http://www.w3.org/2000/svg" width="180" height="140" viewBox="0 0 180 140"><g><defs><clipPath id="clip-g507-2"><rect x="0" y="0" width="180" height="140"/></clipPath></defs><rect x="0" y="0" width="180" height="140" fill="#f2f2f2"/><g transform="matrix(1,0,0,1,20,20)"><defs><clipPath id="clip-g507-1"><path d="M 24 0 L 116 0 C 129.25483399593904 0 140 10.745166004060959 140 24 L 140 76 C 140 89.25483399593904 129.25483399593904 100 116 100 L 24 100 C 10.745166004060959 100 0 89.25483399593904 0 76 L 0 24 C 0 10.745166004060959 10.745166004060959 0 24 0 Z"/></clipPath></defs><g clip-path="url(#clip-g507-1)"><path d="M 24 0 L 116 0 C 129.25483399593904 0 140 10.745166004060959 140 24 L 140 76 C 140 89.25483399593904 129.25483399593904 100 116 100 L 24 100 C 10.745166004060959 100 0 89.25483399593904 0 76 L 0 24 C 0 10.745166004060959 10.745166004060959 0 24 0 Z" fill="#ffffff"/><g transform="matrix(1,0,0,1,20,20)"><defs><clipPath id="clip-g507-0"><path d="M 12 0 L 88 0 C 94.62741699796952 0 100 5.3725830020304794 100 12 L 100 48 C 100 54.62741699796952 94.62741699796952 60 88 60 L 12 60 C 5.3725830020304794 60 0 54.62741699796952 0 48 L 0 12 C 0 5.3725830020304794 5.3725830020304794 0 12 0 Z"/></clipPath></defs><g clip-path="url(#clip-g507-0)"><path d="M 12 0 L 88 0 C 94.62741699796952 0 100 5.3725830020304794 100 12 L 100 48 C 100 54.62741699796952 94.62741699796952 60 88 60 L 12 60 C 5.3725830020304794 60 0 54.62741699796952 0 48 L 0 12 C 0 5.3725830020304794 5.3725830020304794 0 12 0 Z" fill="#ffffff"/><g transform="matrix(1,0,0,1,-20,-20)"><rect x="0" y="0" width="140" height="100" fill="#33b34d"/></g></g></g></g></g></g></svg>