<svg xmlns="http://www.w3.org/2000/svg" width="200" height="120" viewBox="0 0 200 120"><defs><clipPath id="clip-0"><path d="M 0 0 L 200 0 L 200 120 L 0 120 L 0 0" fill-rule="nonzero" fill="black"/></clipPath></defs><g><path d="M 0 0 L 200 0 L 200 120 L 0 120 L 0 0" fill-rule="nonzero" fill="#ffffff"/><g clip-path="url(#clip-0)"><path d="M 8 0 L 92 0 C 96.42 0 100 3.58 100 8 L 100 52 C 100 56.42 96.42 60 92 60 L 8 60 C 3.58 60 0 56.42 0 52 L 0 8 C 0 3.58 3.58 0 8 0" fill-rule="nonzero" transform="matrix(1, 0, 0, 1, 20, 20)" fill="#4d80e5"/><path d="M 0 0 L 60 0 L 60 40 L 0 40 L 0 0" fill-rule="nonzero" transform="matrix(1, 0, 0, 1, 130, 40)" fill="#e5334d"/></g></g></svg>