<svg xmlns="http://www.w3.org/2000/svg" width="150" height="100" viewBox="0 0 150 100"><defs><clipPath id="clip-0"><path d="M 0 0 L 150 0 L 150 100 L 0 100 L 0 0" fill-rule="nonzero" fill="black"/></clipPath></defs><g opacity="0.5"><path d="M 0 0 L 150 0 L 150 100 L 0 100 L 0 0" fill-rule="nonzero" fill="#ffe533"/><g clip-path="url(#clip-0)"><path d="M 6 0 L 84 0 C 87.31 0 90 2.69 90 6 L 90 64 C 90 67.31 87.31 70 84 70 L 6 70 C 2.69 70 0 67.31 0 64 L 0 6 C 0 2.69 2.69 0 6 0" fill-rule="nonzero" transform="matrix(1, 0, 0, 1, 10, 15)" fill="#1a99e5"/><path d="M 6 0 L 74 0 C 77.31 0 80 2.69 80 6 L 80 54 C 80 57.31 77.31 60 74 60 L 6 60 C 2.69 60 0 57.31 0 54 L 0 6 C 0 2.69 2.69 0 6 0" fill-rule="nonzero" transform="matrix(1, 0, 0, 1, 55, 25)" fill="#f23340"/></g></g></svg>