<svg xmlns="http://www.w3.org/2000/svg" width="200" height="150" viewBox="0 0 200 150"><defs><clipPath id="clip-0"><rect x="0" y="0" width="140" height="90" rx="8" ry="8" fill="black"/></clipPath><clipPath id="clip-1"><rect x="0" y="0" width="180" height="130" rx="12" ry="12" fill="black"/></clipPath><clipPath id="clip-2"><path d="M 0 0 L 200 0 L 200 150 L 0 150 L 0 0" fill-rule="nonzero" fill="black"/></clipPath></defs><g><path d="M 0 0 L 200 0 L 200 150 L 0 150 L 0 0" fill-rule="nonzero" fill="#ffffff"/><g clip-path="url(#clip-2)"><g transform="matrix(1, 0, 0, 1, 10, 10)"><rect x="0" y="0" width="180" height="130" rx="12" ry="12" fill="#e5e5f2"/><g clip-path="url(#clip-1)"><g transform="matrix(1, 0, 0, 1, 20, 20)"><rect x="0" y="0" width="140" height="90" rx="8" ry="8" fill="#d9d9eb"/><g clip-path="url(#clip-0)"><path d="M 0 0 L 200 0 L 200 50 L 0 50 L 0 0" fill-rule="nonzero" transform="matrix(1, 0, 0, 1, -30, 20)" fill="#33b266"/></g></g></g></g></g></g></svg>