<svg xmlns="http://www.w3.org/2000/svg" width="200" height="150" viewBox="0 0 200 150"><defs><clipPath id="clip-0"><path d="M 0 0 L 160 0 L 160 110 L 0 110 L 0 0" fill-rule="nonzero" fill="black"/></clipPath><clipPath id="clip-1"><path d="M 0 0 L 200 0 L 200 150 L 0 150 L 0 0" fill-rule="nonzero" fill="black"/></clipPath></defs><g><path d="M 0 0 L 200 0 L 200 150 L 0 150 L 0 0" fill-rule="nonzero" fill="#f2f2f2"/><g clip-path="url(#clip-1)"><g transform="matrix(1, 0, 0, 1, 20, 20)"><path d="M 0 0 L 160 0 L 160 110 L 0 110 L 0 0" fill-rule="nonzero" fill="#e54d4d"/><g clip-path="url(#clip-0)"><path d="M 0 0 L 80 0 L 80 60 L 0 60 L 0 0" fill-rule="nonzero" transform="matrix(1, 0, 0, 1, 40, 25)" fill="#3333e5"/></g></g></g></g></svg>