<svg width="180" height="120" viewBox="0 0 180 120" fill="none" xmlns="http://www.w3.org/2000/svg">
<g clip-path="url(#clip0_0_1161)">
<rect width="180" height="120" fill="white"/>
<path d="M1.23295 14V3.81818H2.46591V12.9062H7.19886V14H1.23295ZM8.94886 14V6.36364H10.1222V14H8.94886ZM9.54545 5.09091C9.31676 5.09091 9.11955 5.01302 8.95384 4.85724C8.79143 4.70147 8.71023 4.5142 8.71023 4.29545C8.71023 4.0767 8.79143 3.88944 8.95384 3.73366C9.11955 3.57789 9.31676 3.5 9.54545 3.5C9.77415 3.5 9.9697 3.57789 10.1321 3.73366C10.2978 3.88944 10.3807 4.0767 10.3807 4.29545C10.3807 4.5142 10.2978 4.70147 10.1321 4.85724C9.9697 5.01302 9.77415 5.09091 9.54545 5.09091ZM13.4444 9.40625V14H12.2711V6.36364H13.4047V7.55682H13.5041C13.6831 7.16903 13.9548 6.85748 14.3194 6.62216C14.684 6.38352 15.1547 6.2642 15.7314 6.2642C16.2484 6.2642 16.7008 6.37027 17.0886 6.58239C17.4764 6.79119 17.778 7.10938 17.9934 7.53693C18.2089 7.96117 18.3166 8.49811 18.3166 9.14773V14H17.1433V9.22727C17.1433 8.62737 16.9875 8.16004 16.676 7.82528C16.3644 7.48722 15.9368 7.31818 15.3933 7.31818C15.0188 7.31818 14.684 7.39938 14.389 7.56179C14.0974 7.72419 13.867 7.96117 13.698 8.27273C13.5289 8.58428 13.4444 8.96212 13.4444 9.40625ZM23.6623 14.1591C22.9265 14.1591 22.2918 13.9967 21.7582 13.6719C21.2279 13.3438 20.8185 12.8864 20.5302 12.2997C20.2451 11.7098 20.1026 11.0237 20.1026 10.2415C20.1026 9.45928 20.2451 8.76989 20.5302 8.1733C20.8185 7.57339 21.2196 7.10606 21.7333 6.77131C22.2504 6.43324 22.8536 6.2642 23.543 6.2642C23.9407 6.2642 24.3335 6.33049 24.7212 6.46307C25.109 6.59564 25.462 6.81108 25.7802 7.10938C26.0984 7.40436 26.3519 7.79545 26.5408 8.28267C26.7298 8.76989 26.8242 9.36979 26.8242 10.0824V10.5795H20.9379V9.56534H25.631C25.631 9.13447 25.5449 8.75 25.3725 8.41193C25.2035 8.07386 24.9615 7.80705 24.6467 7.61151C24.3351 7.41596 23.9672 7.31818 23.543 7.31818C23.0756 7.31818 22.6713 7.43419 22.3299 7.66619C21.9918 7.89489 21.7317 8.19318 21.5494 8.56108C21.3671 8.92898 21.2759 9.32339 21.2759 9.74432V10.4205C21.2759 10.9972 21.3754 11.486 21.5742 11.8871C21.7764 12.2848 22.0565 12.5881 22.4144 12.7969C22.7724 13.0024 23.1883 13.1051 23.6623 13.1051C23.9705 13.1051 24.2489 13.062 24.4975 12.9759C24.7494 12.8864 24.9665 12.7538 25.1488 12.5781C25.3311 12.3991 25.4719 12.1771 25.5714 11.9119L26.7049 12.2301C26.5856 12.6146 26.3851 12.9527 26.1033 13.2443C25.8216 13.5327 25.4736 13.758 25.0593 13.9205C24.645 14.0795 24.1793 14.1591 23.6623 14.1591ZM36.1062 3.81818V14H34.8732V5.1108H34.8136L32.3278 6.76136V5.50852L34.8732 3.81818H36.1062ZM1.23295 31V20.8182H2.46591V29.9062H7.19886V31H1.23295ZM8.94886 31V23.3636H10.1222V31H8.94886ZM9.54545 22.0909C9.31676 22.0909 9.11955 22.013 8.95384 21.8572C8.79143 21.7015 8.71023 21.5142 8.71023 21.2955C8.71023 21.0767 8.79143 20.8894 8.95384 20.7337C9.11955 20.5779 9.31676 20.5 9.54545 20.5C9.77415 20.5 9.9697 20.5779 10.1321 20.7337C10.2978 20.8894 10.3807 21.0767 10.3807 21.2955C10.3807 21.5142 10.2978 21.7015 10.1321 21.8572C9.9697 22.013 9.77415 22.0909 9.54545 22.0909ZM13.4444 26.4062V31H12.2711V23.3636H13.4047V24.5568H13.5041C13.6831 24.169 13.9548 23.8575 14.3194 23.6222C14.684 23.3835 15.1547 23.2642 15.7314 23.2642C16.2484 23.2642 16.7008 23.3703 17.0886 23.5824C17.4764 23.7912 17.778 24.1094 17.9934 24.5369C18.2089 24.9612 18.3166 25.4981 18.3166 26.1477V31H17.1433V26.2273C17.1433 25.6274 16.9875 25.16 16.676 24.8253C16.3644 24.4872 15.9368 24.3182 15.3933 24.3182C15.0188 24.3182 14.684 24.3994 14.389 24.5618C14.0974 24.7242 13.867 24.9612 13.698 25.2727C13.5289 25.5843 13.4444 25.9621 13.4444 26.4062ZM23.6623 31.1591C22.9265 31.1591 22.2918 30.9967 21.7582 30.6719C21.2279 30.3438 20.8185 29.8864 20.5302 29.2997C20.2451 28.7098 20.1026 28.0237 20.1026 27.2415C20.1026 26.4593 20.2451 25.7699 20.5302 25.1733C20.8185 24.5734 21.2196 24.1061 21.7333 23.7713C22.2504 23.4332 22.8536 23.2642 23.543 23.2642C23.9407 23.2642 24.3335 23.3305 24.7212 23.4631C25.109 23.5956 25.462 23.8111 25.7802 24.1094C26.0984 24.4044 26.3519 24.7955 26.5408 25.2827C26.7298 25.7699 26.8242 26.3698 26.8242 27.0824V27.5795H20.9379V26.5653H25.631C25.631 26.1345 25.5449 25.75 25.3725 25.4119C25.2035 25.0739 24.9615 24.8071 24.6467 24.6115C24.3351 24.416 23.9672 24.3182 23.543 24.3182C23.0756 24.3182 22.6713 24.4342 22.3299 24.6662C21.9918 24.8949 21.7317 25.1932 21.5494 25.5611C21.3671 25.929 21.2759 26.3234 21.2759 26.7443V27.4205C21.2759 27.9972 21.3754 28.486 21.5742 28.8871C21.7764 29.2848 22.0565 29.5881 22.4144 29.7969C22.7724 30.0024 23.1883 30.1051 23.6623 30.1051C23.9705 30.1051 24.2489 30.062 24.4975 29.9759C24.7494 29.8864 24.9665 29.7538 25.1488 29.5781C25.3311 29.3991 25.4719 29.1771 25.5714 28.9119L26.7049 29.2301C26.5856 29.6146 26.3851 29.9527 26.1033 30.2443C25.8216 30.5327 25.4736 30.758 25.0593 30.9205C24.645 31.0795 24.1793 31.1591 23.6623 31.1591ZM32.5266 31V30.1051L35.8874 26.4261C36.2818 25.9953 36.6067 25.6207 36.8619 25.3026C37.1171 24.9811 37.306 24.6795 37.4286 24.3977C37.5546 24.1127 37.6175 23.8144 37.6175 23.5028C37.6175 23.1449 37.5314 22.835 37.359 22.5732C37.19 22.3113 36.958 22.1091 36.663 21.9666C36.368 21.8241 36.0366 21.7528 35.6687 21.7528C35.2776 21.7528 34.9362 21.834 34.6445 21.9964C34.3562 22.1555 34.1325 22.3793 33.9734 22.6676C33.8176 22.956 33.7397 23.294 33.7397 23.6818H32.5664C32.5664 23.0852 32.704 22.5616 32.979 22.1108C33.2541 21.66 33.6287 21.3087 34.1026 21.0568C34.5799 20.8049 35.1152 20.679 35.7085 20.679C36.305 20.679 36.8337 20.8049 37.2944 21.0568C37.7551 21.3087 38.1164 21.6484 38.3782 22.076C38.64 22.5036 38.771 22.9792 38.771 23.5028C38.771 23.8774 38.703 24.2436 38.5671 24.6016C38.4345 24.9562 38.2025 25.3523 37.8711 25.7898C37.543 26.224 37.0872 26.7543 36.5039 27.3807L34.217 29.8267V29.9062H38.9499V31H32.5266ZM1.23295 47V36.8182H2.46591V45.9062H7.19886V47H1.23295ZM8.94886 47V39.3636H10.1222V47H8.94886ZM9.54545 38.0909C9.31676 38.0909 9.11955 38.013 8.95384 37.8572C8.79143 37.7015 8.71023 37.5142 8.71023 37.2955C8.71023 37.0767 8.79143 36.8894 8.95384 36.7337C9.11955 36.5779 9.31676 36.5 9.54545 36.5C9.77415 36.5 9.9697 36.5779 10.1321 36.7337C10.2978 36.8894 10.3807 37.0767 10.3807 37.2955C10.3807 37.5142 10.2978 37.7015 10.1321 37.8572C9.9697 38.013 9.77415 38.0909 9.54545 38.0909ZM13.4444 42.4062V47H12.2711V39.3636H13.4047V40.5568H13.5041C13.6831 40.169 13.9548 39.8575 14.3194 39.6222C14.684 39.3835 15.1547 39.2642 15.7314 39.2642C16.2484 39.2642 16.7008 39.3703 17.0886 39.5824C17.4764 39.7912 17.778 40.1094 17.9934 40.5369C18.2089 40.9612 18.3166 41.4981 18.3166 42.1477V47H17.1433V42.2273C17.1433 41.6274 16.9875 41.16 16.676 40.8253C16.3644 40.4872 15.9368 40.3182 15.3933 40.3182C15.0188 40.3182 14.684 40.3994 14.389 40.5618C14.0974 40.7242 13.867 40.9612 13.698 41.2727C13.5289 41.5843 13.4444 41.9621 13.4444 42.4062ZM23.6623 47.1591C22.9265 47.1591 22.2918 46.9967 21.7582 46.6719C21.2279 46.3438 20.8185 45.8864 20.5302 45.2997C20.2451 44.7098 20.1026 44.0237 20.1026 43.2415C20.1026 42.4593 20.2451 41.7699 20.5302 41.1733C20.8185 40.5734 21.2196 40.1061 21.7333 39.7713C22.2504 39.4332 22.8536 39.2642 23.543 39.2642C23.9407 39.2642 24.3335 39.3305 24.7212 39.4631C25.109 39.5956 25.462 39.8111 25.7802 40.1094C26.0984 40.4044 26.3519 40.7955 26.5408 41.2827C26.7298 41.7699 26.8242 42.3698 26.8242 43.0824V43.5795H20.9379V42.5653H25.631C25.631 42.1345 25.5449 41.75 25.3725 41.4119C25.2035 41.0739 24.9615 40.8071 24.6467 40.6115C24.3351 40.416 23.9672 40.3182 23.543 40.3182C23.0756 40.3182 22.6713 40.4342 22.3299 40.6662C21.9918 40.8949 21.7317 41.1932 21.5494 41.5611C21.3671 41.929 21.2759 42.3234 21.2759 42.7443V43.4205C21.2759 43.9972 21.3754 44.486 21.5742 44.8871C21.7764 45.2848 22.0565 45.5881 22.4144 45.7969C22.7724 46.0024 23.1883 46.1051 23.6623 46.1051C23.9705 46.1051 24.2489 46.062 24.4975 45.9759C24.7494 45.8864 24.9665 45.7538 25.1488 45.5781C25.3311 45.3991 25.4719 45.1771 25.5714 44.9119L26.7049 45.2301C26.5856 45.6146 26.3851 45.9527 26.1033 46.2443C25.8216 46.5327 25.4736 46.758 25.0593 46.9205C24.645 47.0795 24.1793 47.1591 23.6623 47.1591ZM35.967 47.1392C35.3107 47.1392 34.7257 47.0265 34.212 46.8011C33.7016 46.5758 33.2956 46.2625 32.994 45.8615C32.6957 45.4571 32.5333 44.9882 32.5067 44.4545H33.7596C33.7861 44.7827 33.8988 45.0661 34.0977 45.3047C34.2965 45.54 34.5567 45.7223 34.8782 45.8516C35.1997 45.9808 35.556 46.0455 35.9471 46.0455C36.3846 46.0455 36.7724 45.9692 37.1104 45.8168C37.4485 45.6643 37.7137 45.4522 37.9059 45.1804C38.0981 44.9086 38.1942 44.5938 38.1942 44.2358C38.1942 43.8613 38.1014 43.5315 37.9158 43.2464C37.7302 42.9581 37.4585 42.7327 37.1005 42.5703C36.7425 42.4079 36.305 42.3267 35.788 42.3267H34.9727V41.233H35.788C36.1924 41.233 36.547 41.16 36.8519 41.0142C37.1602 40.8684 37.4004 40.6629 37.5728 40.3977C37.7485 40.1326 37.8363 39.821 37.8363 39.4631C37.8363 39.1184 37.7601 38.8184 37.6076 38.5632C37.4551 38.308 37.2397 38.1091 36.9613 37.9666C36.6862 37.8241 36.3614 37.7528 35.9869 37.7528C35.6355 37.7528 35.3041 37.8175 34.9925 37.9467C34.6843 38.0727 34.4324 38.2566 34.2369 38.4986C34.0413 38.7372 33.9353 39.0256 33.9187 39.3636H32.7255C32.7454 38.83 32.9061 38.3627 33.2077 37.9616C33.5094 37.5573 33.9038 37.2424 34.391 37.017C34.8815 36.7917 35.4201 36.679 36.0067 36.679C36.6365 36.679 37.1767 36.8066 37.6275 37.0618C38.0782 37.3137 38.4246 37.6468 38.6665 38.0611C38.9085 38.4754 39.0295 38.9228 39.0295 39.4034C39.0295 39.9768 38.8787 40.4657 38.5771 40.87C38.2788 41.2744 37.8728 41.5545 37.359 41.7102V41.7898C38.002 41.8958 38.5041 42.1693 38.8654 42.6101C39.2267 43.0476 39.4073 43.5895 39.4073 44.2358C39.4073 44.7893 39.2565 45.2865 38.9549 45.7273C38.6566 46.1648 38.2489 46.5095 37.7319 46.7614C37.2148 47.0133 36.6265 47.1392 35.967 47.1392ZM1.23295 64V53.8182H2.46591V62.9062H7.19886V64H1.23295ZM8.94886 64V56.3636H10.1222V64H8.94886ZM9.54545 55.0909C9.31676 55.0909 9.11955 55.013 8.95384 54.8572C8.79143 54.7015 8.71023 54.5142 8.71023 54.2955C8.71023 54.0767 8.79143 53.8894 8.95384 53.7337C9.11955 53.5779 9.31676 53.5 9.54545 53.5C9.77415 53.5 9.9697 53.5779 10.1321 53.7337C10.2978 53.8894 10.3807 54.0767 10.3807 54.2955C10.3807 54.5142 10.2978 54.7015 10.1321 54.8572C9.9697 55.013 9.77415 55.0909 9.54545 55.0909ZM13.4444 59.4062V64H12.2711V56.3636H13.4047V57.5568H13.5041C13.6831 57.169 13.9548 56.8575 14.3194 56.6222C14.684 56.3835 15.1547 56.2642 15.7314 56.2642C16.2484 56.2642 16.7008 56.3703 17.0886 56.5824C17.4764 56.7912 17.778 57.1094 17.9934 57.5369C18.2089 57.9612 18.3166 58.4981 18.3166 59.1477V64H17.1433V59.2273C17.1433 58.6274 16.9875 58.16 16.676 57.8253C16.3644 57.4872 15.9368 57.3182 15.3933 57.3182C15.0188 57.3182 14.684 57.3994 14.389 57.5618C14.0974 57.7242 13.867 57.9612 13.698 58.2727C13.5289 58.5843 13.4444 58.9621 13.4444 59.4062ZM23.6623 64.1591C22.9265 64.1591 22.2918 63.9967 21.7582 63.6719C21.2279 63.3438 20.8185 62.8864 20.5302 62.2997C20.2451 61.7098 20.1026 61.0237 20.1026 60.2415C20.1026 59.4593 20.2451 58.7699 20.5302 58.1733C20.8185 57.5734 21.2196 57.1061 21.7333 56.7713C22.2504 56.4332 22.8536 56.2642 23.543 56.2642C23.9407 56.2642 24.3335 56.3305 24.7212 56.4631C25.109 56.5956 25.462 56.8111 25.7802 57.1094C26.0984 57.4044 26.3519 57.7955 26.5408 58.2827C26.7298 58.7699 26.8242 59.3698 26.8242 60.0824V60.5795H20.9379V59.5653H25.631C25.631 59.1345 25.5449 58.75 25.3725 58.4119C25.2035 58.0739 24.9615 57.8071 24.6467 57.6115C24.3351 57.416 23.9672 57.3182 23.543 57.3182C23.0756 57.3182 22.6713 57.4342 22.3299 57.6662C21.9918 57.8949 21.7317 58.1932 21.5494 58.5611C21.3671 58.929 21.2759 59.3234 21.2759 59.7443V60.4205C21.2759 60.9972 21.3754 61.486 21.5742 61.8871C21.7764 62.2848 22.0565 62.5881 22.4144 62.7969C22.7724 63.0024 23.1883 63.1051 23.6623 63.1051C23.9705 63.1051 24.2489 63.062 24.4975 62.9759C24.7494 62.8864 24.9665 62.7538 25.1488 62.5781C25.3311 62.3991 25.4719 62.1771 25.5714 61.9119L26.7049 62.2301C26.5856 62.6146 26.3851 62.9527 26.1033 63.2443C25.8216 63.5327 25.4736 63.758 25.0593 63.9205C24.645 64.0795 24.1793 64.1591 23.6623 64.1591ZM32.288 61.9119V60.8977L36.7624 53.8182H37.4982V55.3892H37.0011L33.6204 60.7386V60.8182H39.646V61.9119H32.288ZM37.0806 64V61.6037V61.1314V53.8182H38.2539V64H37.0806ZM1.23295 81V70.8182H2.46591V79.9062H7.19886V81H1.23295ZM8.94886 81V73.3636H10.1222V81H8.94886ZM9.54545 72.0909C9.31676 72.0909 9.11955 72.013 8.95384 71.8572C8.79143 71.7015 8.71023 71.5142 8.71023 71.2955C8.71023 71.0767 8.79143 70.8894 8.95384 70.7337C9.11955 70.5779 9.31676 70.5 9.54545 70.5C9.77415 70.5 9.9697 70.5779 10.1321 70.7337C10.2978 70.8894 10.3807 71.0767 10.3807 71.2955C10.3807 71.5142 10.2978 71.7015 10.1321 71.8572C9.9697 72.013 9.77415 72.0909 9.54545 72.0909ZM13.4444 76.4062V81H12.2711V73.3636H13.4047V74.5568H13.5041C13.6831 74.169 13.9548 73.8575 14.3194 73.6222C14.684 73.3835 15.1547 73.2642 15.7314 73.2642C16.2484 73.2642 16.7008 73.3703 17.0886 73.5824C17.4764 73.7912 17.778 74.1094 17.9934 74.5369C18.2089 74.9612 18.3166 75.4981 18.3166 76.1477V81H17.1433V76.2273C17.1433 75.6274 16.9875 75.16 16.676 74.8253C16.3644 74.4872 15.9368 74.3182 15.3933 74.3182C15.0188 74.3182 14.684 74.3994 14.389 74.5618C14.0974 74.7242 13.867 74.9612 13.698 75.2727C13.5289 75.5843 13.4444 75.9621 13.4444 76.4062ZM23.6623 81.1591C22.9265 81.1591 22.2918 80.9967 21.7582 80.6719C21.2279 80.3438 20.8185 79.8864 20.5302 79.2997C20.2451 78.7098 20.1026 78.0237 20.1026 77.2415C20.1026 76.4593 20.2451 75.7699 20.5302 75.1733C20.8185 74.5734 21.2196 74.1061 21.7333 73.7713C22.2504 73.4332 22.8536 73.2642 23.543 73.2642C23.9407 73.2642 24.3335 73.3305 24.7212 73.4631C25.109 73.5956 25.462 73.8111 25.7802 74.1094C26.0984 74.4044 26.3519 74.7955 26.5408 75.2827C26.7298 75.7699 26.8242 76.3698 26.8242 77.0824V77.5795H20.9379V76.5653H25.631C25.631 76.1345 25.5449 75.75 25.3725 75.4119C25.2035 75.0739 24.9615 74.8071 24.6467 74.6115C24.3351 74.416 23.9672 74.3182 23.543 74.3182C23.0756 74.3182 22.6713 74.4342 22.3299 74.6662C21.9918 74.8949 21.7317 75.1932 21.5494 75.5611C21.3671 75.929 21.2759 76.3234 21.2759 76.7443V77.4205C21.2759 77.9972 21.3754 78.486 21.5742 78.8871C21.7764 79.2848 22.0565 79.5881 22.4144 79.7969C22.7724 80.0024 23.1883 80.1051 23.6623 80.1051C23.9705 80.1051 24.2489 80.062 24.4975 79.9759C24.7494 79.8864 24.9665 79.7538 25.1488 79.5781C25.3311 79.3991 25.4719 79.1771 25.5714 78.9119L26.7049 79.2301C26.5856 79.6146 26.3851 79.9527 26.1033 80.2443C25.8216 80.5327 25.4736 80.758 25.0593 80.9205C24.645 81.0795 24.1793 81.1591 23.6623 81.1591ZM35.7085 81.1392C35.1251 81.1392 34.5998 81.0232 34.1325 80.7912C33.6651 80.5592 33.2906 80.241 33.0089 79.8366C32.7272 79.4323 32.573 78.9716 32.5465 78.4545H33.7397C33.7861 78.9152 33.9949 79.2964 34.3661 79.598C34.7406 79.8963 35.1881 80.0455 35.7085 80.0455C36.1261 80.0455 36.4973 79.9477 36.8221 79.7521C37.1502 79.5566 37.4071 79.2881 37.5927 78.9467C37.7816 78.602 37.8761 78.2126 37.8761 77.7784C37.8761 77.3343 37.7783 76.9382 37.5827 76.5902C37.3905 76.2389 37.1254 75.9621 36.7873 75.7599C36.4492 75.5578 36.0631 75.455 35.6289 75.4517C35.3174 75.4484 34.9975 75.4964 34.6694 75.5959C34.3413 75.692 34.0711 75.8163 33.859 75.9688L32.7056 75.8295L33.3221 70.8182H38.6119V71.9119H34.3562L33.9982 74.9148H34.0579C34.2667 74.7491 34.5285 74.6115 34.8434 74.5021C35.1583 74.3928 35.4864 74.3381 35.8278 74.3381C36.4509 74.3381 37.006 74.4872 37.4933 74.7855C37.9838 75.0805 38.3683 75.4848 38.6467 75.9986C38.9284 76.5123 39.0692 77.099 39.0692 77.7585C39.0692 78.4081 38.9234 78.9882 38.6317 79.4986C38.3434 80.0057 37.9457 80.4067 37.4386 80.7017C36.9315 80.9934 36.3548 81.1392 35.7085 81.1392Z" fill="black"/>
</g>
<defs>
<clipPath id="clip0_0_1161">
<rect width="180" height="120" fill="white"/>
</clipPath>
</defs>
</svg>
