<svg width="220" height="50" viewBox="0 0 220 50" fill="none" xmlns="http://www.w3.org/2000/svg">
<rect width="220" height="50" fill="white"/>
<path d="M0.676136 4.91193V3.81818H8.3125V4.91193H5.1108V14H3.87784V4.91193H0.676136ZM10.2154 14V3.81818H11.4483V8.35227H16.8773V3.81818H18.1103V14H16.8773V9.44602H11.4483V14H10.2154ZM20.5787 14V3.81818H26.7235V4.91193H21.8116V8.35227H26.4054V9.44602H21.8116V12.9062H26.8031V14H20.5787ZM36.5822 10.8182H37.9345L39.068 12.3097L39.3663 12.7074L41.0566 14.9545H39.7044L38.5907 13.4631L38.3123 13.0852L36.5822 10.8182ZM41.4743 8.90909C41.4743 9.98295 41.2804 10.911 40.8926 11.6932C40.5048 12.4754 39.9728 13.0786 39.2967 13.5028C38.6206 13.9271 37.8483 14.1392 36.9799 14.1392C36.1116 14.1392 35.3393 13.9271 34.6632 13.5028C33.987 13.0786 33.4551 12.4754 33.0673 11.6932C32.6795 10.911 32.4856 9.98295 32.4856 8.90909C32.4856 7.83523 32.6795 6.9072 33.0673 6.125C33.4551 5.3428 33.987 4.73958 34.6632 4.31534C35.3393 3.8911 36.1116 3.67898 36.9799 3.67898C37.8483 3.67898 38.6206 3.8911 39.2967 4.31534C39.9728 4.73958 40.5048 5.3428 40.8926 6.125C41.2804 6.9072 41.4743 7.83523 41.4743 8.90909ZM40.2811 8.90909C40.2811 8.02746 40.1336 7.28338 39.8386 6.67685C39.5469 6.07031 39.1509 5.61127 38.6504 5.29972C38.1532 4.98816 37.5964 4.83239 36.9799 4.83239C36.3635 4.83239 35.805 4.98816 35.3045 5.29972C34.8074 5.61127 34.4113 6.07031 34.1163 6.67685C33.8246 7.28338 33.6788 8.02746 33.6788 8.90909C33.6788 9.79072 33.8246 10.5348 34.1163 11.1413C34.4113 11.7479 34.8074 12.2069 35.3045 12.5185C35.805 12.83 36.3635 12.9858 36.9799 12.9858C37.5964 12.9858 38.1532 12.83 38.6504 12.5185C39.1509 12.2069 39.5469 11.7479 39.8386 11.1413C40.1336 10.5348 40.2811 9.79072 40.2811 8.90909ZM50.2292 3.81818H51.4622V10.5597C51.4622 11.2557 51.2981 11.8771 50.97 12.424C50.6452 12.9676 50.1861 13.3968 49.5929 13.7116C48.9996 14.0232 48.3036 14.179 47.5048 14.179C46.706 14.179 46.01 14.0232 45.4167 13.7116C44.8234 13.3968 44.3627 12.9676 44.0346 12.424C43.7098 11.8771 43.5474 11.2557 43.5474 10.5597V3.81818H44.7804V10.4602C44.7804 10.9574 44.8897 11.3999 45.1085 11.7876C45.3272 12.1721 45.6388 12.4754 46.0431 12.6974C46.4508 12.9162 46.938 13.0256 47.5048 13.0256C48.0716 13.0256 48.5588 12.9162 48.9664 12.6974C49.3741 12.4754 49.6857 12.1721 49.9011 11.7876C50.1199 11.3999 50.2292 10.9574 50.2292 10.4602V3.81818ZM55.1573 3.81818V14H53.9244V3.81818H55.1573ZM65.8226 7H64.5897C64.5168 6.64536 64.3891 6.33381 64.2069 6.06534C64.0279 5.79688 63.8091 5.5715 63.5506 5.3892C63.2954 5.2036 63.012 5.06439 62.7005 4.97159C62.3889 4.87879 62.0641 4.83239 61.726 4.83239C61.1096 4.83239 60.5511 4.98816 60.0506 5.29972C59.5534 5.61127 59.1574 6.07031 58.8624 6.67685C58.5707 7.28338 58.4249 8.02746 58.4249 8.90909C58.4249 9.79072 58.5707 10.5348 58.8624 11.1413C59.1574 11.7479 59.5534 12.2069 60.0506 12.5185C60.5511 12.83 61.1096 12.9858 61.726 12.9858C62.0641 12.9858 62.3889 12.9394 62.7005 12.8466C63.012 12.7538 63.2954 12.6162 63.5506 12.4339C63.8091 12.2483 64.0279 12.0213 64.2069 11.7528C64.3891 11.4811 64.5168 11.1695 64.5897 10.8182H65.8226C65.7298 11.3385 65.5608 11.8042 65.3155 12.2152C65.0703 12.6262 64.7653 12.9759 64.4007 13.2642C64.0362 13.5492 63.6268 13.7663 63.1728 13.9155C62.722 14.0646 62.2398 14.1392 61.726 14.1392C60.8577 14.1392 60.0854 13.9271 59.4093 13.5028C58.7331 13.0786 58.2012 12.4754 57.8134 11.6932C57.4256 10.911 57.2317 9.98295 57.2317 8.90909C57.2317 7.83523 57.4256 6.9072 57.8134 6.125C58.2012 5.3428 58.7331 4.73958 59.4093 4.31534C60.0854 3.8911 60.8577 3.67898 61.726 3.67898C62.2398 3.67898 62.722 3.75355 63.1728 3.9027C63.6268 4.05185 64.0362 4.2706 64.4007 4.55895C64.7653 4.84399 65.0703 5.192 65.3155 5.60298C65.5608 6.01065 65.7298 6.47633 65.8226 7ZM67.815 14V3.81818H69.0479V8.86932H69.1673L73.7411 3.81818H75.3519L71.0763 8.41193L75.3519 14H73.8604L70.3207 9.26705L69.0479 10.6989V14H67.815ZM80.8853 14V3.81818H84.445C85.1542 3.81818 85.7392 3.94081 86.1999 4.18608C86.6606 4.42803 87.0037 4.7545 87.229 5.16548C87.4544 5.57315 87.5671 6.02557 87.5671 6.52273C87.5671 6.96023 87.4892 7.3215 87.3335 7.60653C87.181 7.89157 86.9788 8.11695 86.7269 8.28267C86.4783 8.44839 86.2082 8.57102 85.9165 8.65057V8.75C86.2281 8.76989 86.5413 8.87926 86.8562 9.07812C87.171 9.27699 87.4345 9.56203 87.6467 9.93324C87.8588 10.3045 87.9648 10.7585 87.9648 11.2955C87.9648 11.8059 87.8488 12.2649 87.6168 12.6726C87.3848 13.0803 87.0186 13.4034 86.5181 13.642C86.0176 13.8807 85.3664 14 84.5643 14H80.8853ZM82.1183 12.9062H84.5643C85.3697 12.9062 85.9414 12.7505 86.2795 12.4389C86.6209 12.1241 86.7915 11.7429 86.7915 11.2955C86.7915 10.9508 86.7037 10.6326 86.5281 10.3409C86.3524 10.0459 86.1022 9.81061 85.7773 9.63494C85.4525 9.45597 85.0681 9.36648 84.6239 9.36648H82.1183V12.9062ZM82.1183 8.29261H84.4052C84.7764 8.29261 85.1112 8.2197 85.4094 8.07386C85.7111 7.92803 85.9497 7.72254 86.1254 7.45739C86.3043 7.19223 86.3938 6.88068 86.3938 6.52273C86.3938 6.07528 86.238 5.69579 85.9265 5.38423C85.6149 5.06937 85.1211 4.91193 84.445 4.91193H82.1183V8.29261ZM89.9908 14V3.81818H93.4311C94.2266 3.81818 94.8795 3.95407 95.3899 4.22585C95.9003 4.49432 96.2782 4.86387 96.5234 5.33452C96.7687 5.80516 96.8913 6.34044 96.8913 6.94034C96.8913 7.54025 96.7687 8.07221 96.5234 8.53622C96.2782 9.00024 95.902 9.36482 95.3949 9.62997C94.8878 9.89181 94.2398 10.0227 93.451 10.0227H90.6669V8.90909H93.4112C93.9548 8.90909 94.3923 8.82955 94.7237 8.67045C95.0585 8.51136 95.3004 8.28598 95.4496 7.99432C95.602 7.69934 95.6783 7.34801 95.6783 6.94034C95.6783 6.53267 95.602 6.17637 95.4496 5.87145C95.2971 5.56652 95.0535 5.3312 94.7188 5.16548C94.384 4.99645 93.9415 4.91193 93.3913 4.91193H91.2237V14H89.9908ZM94.7834 9.42614L97.2891 14H95.8572L93.3913 9.42614H94.7834ZM107.537 8.90909C107.537 9.98295 107.343 10.911 106.955 11.6932C106.567 12.4754 106.035 13.0786 105.359 13.5028C104.683 13.9271 103.911 14.1392 103.042 14.1392C102.174 14.1392 101.402 13.9271 100.726 13.5028C100.05 13.0786 99.5176 12.4754 99.1298 11.6932C98.742 10.911 98.5481 9.98295 98.5481 8.90909C98.5481 7.83523 98.742 6.9072 99.1298 6.125C99.5176 5.3428 100.05 4.73958 100.726 4.31534C101.402 3.8911 102.174 3.67898 103.042 3.67898C103.911 3.67898 104.683 3.8911 105.359 4.31534C106.035 4.73958 106.567 5.3428 106.955 6.125C107.343 6.9072 107.537 7.83523 107.537 8.90909ZM106.344 8.90909C106.344 8.02746 106.196 7.28338 105.901 6.67685C105.609 6.07031 105.213 5.61127 104.713 5.29972C104.216 4.98816 103.659 4.83239 103.042 4.83239C102.426 4.83239 101.867 4.98816 101.367 5.29972C100.87 5.61127 100.474 6.07031 100.179 6.67685C99.8871 7.28338 99.7413 8.02746 99.7413 8.90909C99.7413 9.79072 99.8871 10.5348 100.179 11.1413C100.474 11.7479 100.87 12.2069 101.367 12.5185C101.867 12.83 102.426 12.9858 103.042 12.9858C103.659 12.9858 104.216 12.83 104.713 12.5185C105.213 12.2069 105.609 11.7479 105.901 11.1413C106.196 10.5348 106.344 9.79072 106.344 8.90909ZM111.459 14L108.675 3.81818H109.928L112.056 12.1108H112.155L114.323 3.81818H115.715L117.883 12.1108H117.982L120.11 3.81818H121.363L118.579 14H117.306L115.059 5.88636H114.979L112.732 14H111.459ZM130.973 3.81818V14H129.78L124.231 6.00568H124.132V14H122.899V3.81818H124.092L129.66 11.8324H129.76V3.81818H130.973ZM137.377 14V3.81818H143.483V4.91193H138.61V8.35227H143.025V9.44602H138.61V14H137.377ZM154.185 8.90909C154.185 9.98295 153.991 10.911 153.604 11.6932C153.216 12.4754 152.684 13.0786 152.008 13.5028C151.331 13.9271 150.559 14.1392 149.691 14.1392C148.823 14.1392 148.05 13.9271 147.374 13.5028C146.698 13.0786 146.166 12.4754 145.778 11.6932C145.39 10.911 145.197 9.98295 145.197 8.90909C145.197 7.83523 145.39 6.9072 145.778 6.125C146.166 5.3428 146.698 4.73958 147.374 4.31534C148.05 3.8911 148.823 3.67898 149.691 3.67898C150.559 3.67898 151.331 3.8911 152.008 4.31534C152.684 4.73958 153.216 5.3428 153.604 6.125C153.991 6.9072 154.185 7.83523 154.185 8.90909ZM152.992 8.90909C152.992 8.02746 152.845 7.28338 152.55 6.67685C152.258 6.07031 151.862 5.61127 151.361 5.29972C150.864 4.98816 150.307 4.83239 149.691 4.83239C149.074 4.83239 148.516 4.98816 148.015 5.29972C147.518 5.61127 147.122 6.07031 146.827 6.67685C146.536 7.28338 146.39 8.02746 146.39 8.90909C146.39 9.79072 146.536 10.5348 146.827 11.1413C147.122 11.7479 147.518 12.2069 148.015 12.5185C148.516 12.83 149.074 12.9858 149.691 12.9858C150.307 12.9858 150.864 12.83 151.361 12.5185C151.862 12.2069 152.258 11.7479 152.55 11.1413C152.845 10.5348 152.992 9.79072 152.992 8.90909ZM156.691 3.81818L159.316 8.05398H159.395L162.02 3.81818H163.472L160.27 8.90909L163.472 14H162.02L159.395 9.84375H159.316L156.691 14H155.239L158.52 8.90909L155.239 3.81818H156.691Z" fill="black"/>
</svg>
