<svg width="220" height="50" viewBox="0 0 220 50" fill="none" xmlns="http://www.w3.org/2000/svg">
<rect width="220" height="50" fill="white"/>
<path d="M4.39489 6.36364V7.35795H0.4375V6.36364H4.39489ZM1.59091 4.53409H2.7642V11.8125C2.7642 12.1439 2.81226 12.3925 2.90838 12.5582C3.00781 12.7206 3.13376 12.83 3.28622 12.8864C3.442 12.9394 3.60606 12.9659 3.77841 12.9659C3.90767 12.9659 4.01373 12.9593 4.09659 12.946C4.17945 12.9295 4.24574 12.9162 4.29545 12.9062L4.53409 13.9602C4.45455 13.9901 4.34351 14.0199 4.20099 14.0497C4.05848 14.0829 3.87784 14.0994 3.65909 14.0994C3.32765 14.0994 3.00284 14.0282 2.68466 13.8857C2.36979 13.7431 2.10795 13.526 1.89915 13.2344C1.69366 12.9427 1.59091 12.5748 1.59091 12.1307V4.53409ZM7.49716 9.40625V14H6.32386V3.81818H7.49716V7.55682H7.59659C7.77557 7.16241 8.04403 6.84919 8.40199 6.61719C8.76326 6.38187 9.24384 6.2642 9.84375 6.2642C10.3641 6.2642 10.8198 6.36861 11.2109 6.57741C11.602 6.78291 11.9053 7.09943 12.1207 7.52699C12.3395 7.95123 12.4489 8.49148 12.4489 9.14773V14H11.2756V9.22727C11.2756 8.62074 11.1181 8.15175 10.8033 7.82031C10.4917 7.48556 10.0592 7.31818 9.50568 7.31818C9.12121 7.31818 8.77652 7.39938 8.47159 7.56179C8.16998 7.72419 7.93134 7.96117 7.75568 8.27273C7.58333 8.58428 7.49716 8.96212 7.49716 9.40625ZM17.7971 14.1591C17.0613 14.1591 16.4266 13.9967 15.8929 13.6719C15.3626 13.3438 14.9533 12.8864 14.665 12.2997C14.3799 11.7098 14.2374 11.0237 14.2374 10.2415C14.2374 9.45928 14.3799 8.76989 14.665 8.1733C14.9533 7.57339 15.3543 7.10606 15.8681 6.77131C16.3851 6.43324 16.9883 6.2642 17.6777 6.2642C18.0755 6.2642 18.4682 6.33049 18.856 6.46307C19.2438 6.59564 19.5968 6.81108 19.915 7.10938C20.2331 7.40436 20.4867 7.79545 20.6756 8.28267C20.8645 8.76989 20.959 9.36979 20.959 10.0824V10.5795H15.0726V9.56534H19.7658C19.7658 9.13447 19.6796 8.75 19.5073 8.41193C19.3382 8.07386 19.0963 7.80705 18.7814 7.61151C18.4699 7.41596 18.102 7.31818 17.6777 7.31818C17.2104 7.31818 16.806 7.43419 16.4647 7.66619C16.1266 7.89489 15.8664 8.19318 15.6841 8.56108C15.5018 8.92898 15.4107 9.32339 15.4107 9.74432V10.4205C15.4107 10.9972 15.5101 11.486 15.709 11.8871C15.9112 12.2848 16.1912 12.5881 16.5492 12.7969C16.9071 13.0024 17.3231 13.1051 17.7971 13.1051C18.1053 13.1051 18.3837 13.062 18.6323 12.9759C18.8842 12.8864 19.1013 12.7538 19.2836 12.5781C19.4659 12.3991 19.6067 12.1771 19.7061 11.9119L20.8397 12.2301C20.7203 12.6146 20.5198 12.9527 20.2381 13.2443C19.9564 13.5327 19.6084 13.758 19.1941 13.9205C18.7798 14.0795 18.3141 14.1591 17.7971 14.1591ZM31.8915 16.8636V12.8267H31.7921C31.7059 12.9659 31.5833 13.1416 31.4242 13.3537C31.2651 13.5625 31.0381 13.7498 30.7431 13.9155C30.4481 14.0779 30.0553 14.1591 29.5648 14.1591C28.9284 14.1591 28.3667 13.9983 27.8794 13.6768C27.3922 13.352 27.0111 12.8946 26.736 12.3047C26.4609 11.7114 26.3233 11.0104 26.3233 10.2017C26.3233 9.39962 26.4609 8.7036 26.736 8.11364C27.0111 7.52367 27.3939 7.06794 27.8844 6.74645C28.3749 6.42495 28.9417 6.2642 29.5847 6.2642C30.0819 6.2642 30.4746 6.34706 30.763 6.51278C31.0546 6.67519 31.2767 6.8608 31.4292 7.0696C31.5849 7.27509 31.7059 7.44413 31.7921 7.5767H31.9313V6.36364H33.0648V16.8636H31.8915ZM29.7239 13.1051C30.1945 13.1051 30.5923 12.9825 30.9171 12.7372C31.2419 12.4886 31.4888 12.1456 31.6578 11.7081C31.8269 11.2673 31.9114 10.7585 31.9114 10.1818C31.9114 9.61174 31.8285 9.11293 31.6628 8.68537C31.4971 8.2545 31.2518 7.91974 30.927 7.68111C30.6022 7.43916 30.2012 7.31818 29.7239 7.31818C29.2267 7.31818 28.8124 7.44579 28.481 7.70099C28.1529 7.95289 27.906 8.29593 27.7402 8.73011C27.5778 9.16098 27.4966 9.64489 27.4966 10.1818C27.4966 10.7254 27.5795 11.2192 27.7452 11.6634C27.9142 12.1042 28.1628 12.4555 28.4909 12.7173C28.8224 12.9759 29.2334 13.1051 29.7239 13.1051ZM40.025 10.8778V6.36364H41.1983V14H40.025V12.7074H39.9455C39.7665 13.0952 39.4881 13.425 39.1103 13.6967C38.7324 13.9652 38.2551 14.0994 37.6784 14.0994C37.2012 14.0994 36.7769 13.995 36.4057 13.7862C36.0345 13.5741 35.7428 13.2559 35.5307 12.8317C35.3186 12.4041 35.2125 11.8655 35.2125 11.2159V6.36364H36.3858V11.1364C36.3858 11.6932 36.5416 12.1373 36.8532 12.4688C37.168 12.8002 37.5691 12.9659 38.0563 12.9659C38.348 12.9659 38.6446 12.8913 38.9462 12.7422C39.2511 12.593 39.5063 12.3643 39.7118 12.0561C39.9206 11.7479 40.025 11.3551 40.025 10.8778ZM43.3473 14V6.36364H44.5206V14H43.3473ZM43.9439 5.09091C43.7152 5.09091 43.518 5.01302 43.3523 4.85724C43.1899 4.70147 43.1087 4.5142 43.1087 4.29545C43.1087 4.0767 43.1899 3.88944 43.3523 3.73366C43.518 3.57789 43.7152 3.5 43.9439 3.5C44.1726 3.5 44.3681 3.57789 44.5305 3.73366C44.6963 3.88944 44.7791 4.0767 44.7791 4.29545C44.7791 4.5142 44.6963 4.70147 44.5305 4.85724C44.3681 5.01302 44.1726 5.09091 43.9439 5.09091ZM49.7718 14.1591C49.0559 14.1591 48.4395 13.9901 47.9224 13.652C47.4054 13.3139 47.0076 12.8482 46.7292 12.255C46.4508 11.6617 46.3116 10.9839 46.3116 10.2216C46.3116 9.44602 46.4541 8.7616 46.7392 8.16832C47.0275 7.57173 47.4286 7.10606 47.9423 6.77131C48.4593 6.43324 49.0626 6.2642 49.752 6.2642C50.2889 6.2642 50.7728 6.36364 51.2037 6.5625C51.6345 6.76136 51.9875 7.03977 52.2626 7.39773C52.5377 7.75568 52.7084 8.1733 52.7747 8.65057H51.6014C51.5119 8.30256 51.313 7.99432 51.0048 7.72585C50.6999 7.45407 50.2889 7.31818 49.7718 7.31818C49.3145 7.31818 48.9134 7.4375 48.5687 7.67614C48.2273 7.91146 47.9605 8.24455 47.7683 8.67543C47.5794 9.10298 47.4849 9.60511 47.4849 10.1818C47.4849 10.7718 47.5777 11.2855 47.7633 11.723C47.9522 12.1605 48.2174 12.5002 48.5588 12.7422C48.9035 12.9841 49.3078 13.1051 49.7718 13.1051C50.0768 13.1051 50.3535 13.0521 50.6021 12.946C50.8507 12.84 51.0611 12.6875 51.2335 12.4886C51.4058 12.2898 51.5285 12.0511 51.6014 11.7727H52.7747C52.7084 12.2235 52.5443 12.6295 52.2825 12.9908C52.024 13.3487 51.6809 13.6338 51.2534 13.8459C50.8291 14.0547 50.3353 14.1591 49.7718 14.1591ZM55.5836 11.2159L55.5637 9.7642H55.8024L59.1433 6.36364H60.595L57.0353 9.96307H56.9359L55.5836 11.2159ZM54.4899 14V3.81818H55.6632V14H54.4899ZM59.3422 14L56.3592 10.2216L57.1944 9.40625L60.8336 14H59.3422ZM66.2017 14V3.81818H67.375V7.5767H67.4744C67.5606 7.44413 67.6799 7.27509 67.8324 7.0696C67.9882 6.8608 68.2102 6.67519 68.4986 6.51278C68.7902 6.34706 69.1847 6.2642 69.6818 6.2642C70.3248 6.2642 70.8916 6.42495 71.3821 6.74645C71.8726 7.06794 72.2554 7.52367 72.5305 8.11364C72.8056 8.7036 72.9432 9.39962 72.9432 10.2017C72.9432 11.0104 72.8056 11.7114 72.5305 12.3047C72.2554 12.8946 71.8743 13.352 71.3871 13.6768C70.8999 13.9983 70.3381 14.1591 69.7017 14.1591C69.2112 14.1591 68.8184 14.0779 68.5234 13.9155C68.2285 13.7498 68.0014 13.5625 67.8423 13.3537C67.6832 13.1416 67.5606 12.9659 67.4744 12.8267H67.3352V14H66.2017ZM67.3551 10.1818C67.3551 10.7585 67.4396 11.2673 67.6087 11.7081C67.7777 12.1456 68.0246 12.4886 68.3494 12.7372C68.6742 12.9825 69.072 13.1051 69.5426 13.1051C70.0331 13.1051 70.4425 12.9759 70.7706 12.7173C71.102 12.4555 71.3506 12.1042 71.5163 11.6634C71.6854 11.2192 71.7699 10.7254 71.7699 10.1818C71.7699 9.64489 71.687 9.16098 71.5213 8.73011C71.3589 8.29593 71.112 7.95289 70.7805 7.70099C70.4524 7.44579 70.0398 7.31818 69.5426 7.31818C69.0653 7.31818 68.6643 7.43916 68.3395 7.68111C68.0147 7.91974 67.7694 8.2545 67.6037 8.68537C67.438 9.11293 67.3551 9.61174 67.3551 10.1818ZM74.7379 14V6.36364H75.8714V7.51705H75.951C76.0902 7.1392 76.3421 6.83262 76.7067 6.5973C77.0713 6.36198 77.4822 6.24432 77.9396 6.24432C78.0258 6.24432 78.1335 6.24597 78.2628 6.24929C78.392 6.2526 78.4898 6.25758 78.5561 6.2642V7.45739C78.5163 7.44744 78.4252 7.43253 78.2827 7.41264C78.1435 7.38944 77.996 7.37784 77.8402 7.37784C77.469 7.37784 77.1375 7.45573 76.8459 7.61151C76.5575 7.76397 76.3288 7.97609 76.1598 8.24787C75.9941 8.51634 75.9112 8.82292 75.9112 9.16761V14H74.7379ZM82.8168 14.1591C82.1274 14.1591 81.5225 13.995 81.0021 13.6669C80.4851 13.3388 80.0807 12.8797 79.7891 12.2898C79.5007 11.6998 79.3565 11.0104 79.3565 10.2216C79.3565 9.42614 79.5007 8.73177 79.7891 8.13849C80.0807 7.54522 80.4851 7.08452 81.0021 6.75639C81.5225 6.42827 82.1274 6.2642 82.8168 6.2642C83.5062 6.2642 84.1094 6.42827 84.6264 6.75639C85.1468 7.08452 85.5511 7.54522 85.8395 8.13849C86.1312 8.73177 86.277 9.42614 86.277 10.2216C86.277 11.0104 86.1312 11.6998 85.8395 12.2898C85.5511 12.8797 85.1468 13.3388 84.6264 13.6669C84.1094 13.995 83.5062 14.1591 82.8168 14.1591ZM82.8168 13.1051C83.3404 13.1051 83.7713 12.9709 84.1094 12.7024C84.4474 12.4339 84.6977 12.081 84.8601 11.6435C85.0225 11.206 85.1037 10.732 85.1037 10.2216C85.1037 9.71117 85.0225 9.23556 84.8601 8.79474C84.6977 8.35393 84.4474 7.99763 84.1094 7.72585C83.7713 7.45407 83.3404 7.31818 82.8168 7.31818C82.2931 7.31818 81.8622 7.45407 81.5241 7.72585C81.1861 7.99763 80.9358 8.35393 80.7734 8.79474C80.611 9.23556 80.5298 9.71117 80.5298 10.2216C80.5298 10.732 80.611 11.206 80.7734 11.6435C80.9358 12.081 81.1861 12.4339 81.5241 12.7024C81.8622 12.9709 82.2931 13.1051 82.8168 13.1051ZM89.5384 14L87.2116 6.36364H88.4446L90.0952 12.2102H90.1747L91.8054 6.36364H93.0582L94.669 12.1903H94.7486L96.3991 6.36364H97.6321L95.3054 14H94.152L92.4815 8.13352H92.3622L90.6918 14H89.5384ZM100.357 9.40625V14H99.1832V6.36364H100.317V7.55682H100.416C100.595 7.16903 100.867 6.85748 101.232 6.62216C101.596 6.38352 102.067 6.2642 102.643 6.2642C103.161 6.2642 103.613 6.37027 104.001 6.58239C104.388 6.79119 104.69 7.10938 104.906 7.53693C105.121 7.96117 105.229 8.49811 105.229 9.14773V14H104.055V9.22727C104.055 8.62737 103.9 8.16004 103.588 7.82528C103.277 7.48722 102.849 7.31818 102.305 7.31818C101.931 7.31818 101.596 7.39938 101.301 7.56179C101.009 7.72419 100.779 7.96117 100.61 8.27273C100.441 8.58428 100.357 8.96212 100.357 9.40625ZM114.711 6.36364V7.35795H110.594V6.36364H114.711ZM111.827 14V5.30966C111.827 4.87216 111.93 4.50758 112.135 4.21591C112.341 3.92424 112.608 3.70549 112.936 3.55966C113.264 3.41383 113.61 3.34091 113.975 3.34091C114.263 3.34091 114.499 3.36411 114.681 3.41051C114.863 3.45691 114.999 3.5 115.089 3.53977L114.751 4.55398C114.691 4.53409 114.608 4.50923 114.502 4.4794C114.399 4.44957 114.263 4.43466 114.094 4.43466C113.706 4.43466 113.426 4.53243 113.254 4.72798C113.085 4.92353 113.001 5.21023 113.001 5.58807V14H111.827ZM119.143 14.1591C118.454 14.1591 117.849 13.995 117.328 13.6669C116.811 13.3388 116.407 12.8797 116.115 12.2898C115.827 11.6998 115.683 11.0104 115.683 10.2216C115.683 9.42614 115.827 8.73177 116.115 8.13849C116.407 7.54522 116.811 7.08452 117.328 6.75639C117.849 6.42827 118.454 6.2642 119.143 6.2642C119.832 6.2642 120.436 6.42827 120.953 6.75639C121.473 7.08452 121.877 7.54522 122.166 8.13849C122.457 8.73177 122.603 9.42614 122.603 10.2216C122.603 11.0104 122.457 11.6998 122.166 12.2898C121.877 12.8797 121.473 13.3388 120.953 13.6669C120.436 13.995 119.832 14.1591 119.143 14.1591ZM119.143 13.1051C119.667 13.1051 120.097 12.9709 120.436 12.7024C120.774 12.4339 121.024 12.081 121.186 11.6435C121.349 11.206 121.43 10.732 121.43 10.2216C121.43 9.71117 121.349 9.23556 121.186 8.79474C121.024 8.35393 120.774 7.99763 120.436 7.72585C120.097 7.45407 119.667 7.31818 119.143 7.31818C118.619 7.31818 118.188 7.45407 117.85 7.72585C117.512 7.99763 117.262 8.35393 117.1 8.79474C116.937 9.23556 116.856 9.71117 116.856 10.2216C116.856 10.732 116.937 11.206 117.1 11.6435C117.262 12.081 117.512 12.4339 117.85 12.7024C118.188 12.9709 118.619 13.1051 119.143 13.1051ZM124.955 6.36364L126.784 9.4858L128.614 6.36364H129.966L127.5 10.1818L129.966 14H128.614L126.784 11.0369L124.955 14H123.602L126.029 10.1818L123.602 6.36364H124.955Z" fill="black"/>
</svg>
