<svg width="220" height="50" viewBox="0 0 220 50" fill="none" xmlns="http://www.w3.org/2000/svg">
<rect width="220" height="50" fill="white"/>
<path d="M0.676136 4.91193V3.81818H8.3125V4.91193H5.1108V14H3.87784V4.91193H0.676136ZM11.2296 9.40625V14H10.0563V3.81818H11.2296V7.55682H11.329C11.508 7.16241 11.7765 6.84919 12.1344 6.61719C12.4957 6.38187 12.9763 6.2642 13.5762 6.2642C14.0965 6.2642 14.5523 6.36861 14.9434 6.57741C15.3345 6.78291 15.6377 7.09943 15.8532 7.52699C16.0719 7.95123 16.1813 8.49148 16.1813 9.14773V14H15.008V9.22727C15.008 8.62074 14.8506 8.15175 14.5357 7.82031C14.2241 7.48556 13.7916 7.31818 13.2381 7.31818C12.8536 7.31818 12.5089 7.39938 12.204 7.56179C11.9024 7.72419 11.6638 7.96117 11.4881 8.27273C11.3158 8.58428 11.2296 8.96212 11.2296 9.40625ZM21.5295 14.1591C20.7937 14.1591 20.159 13.9967 19.6254 13.6719C19.0951 13.3438 18.6857 12.8864 18.3974 12.2997C18.1123 11.7098 17.9698 11.0237 17.9698 10.2415C17.9698 9.45928 18.1123 8.76989 18.3974 8.1733C18.6857 7.57339 19.0868 7.10606 19.6005 6.77131C20.1175 6.43324 20.7208 6.2642 21.4102 6.2642C21.8079 6.2642 22.2006 6.33049 22.5884 6.46307C22.9762 6.59564 23.3292 6.81108 23.6474 7.10938C23.9656 7.40436 24.2191 7.79545 24.408 8.28267C24.5969 8.76989 24.6914 9.36979 24.6914 10.0824V10.5795H18.805V9.56534H23.4982C23.4982 9.13447 23.4121 8.75 23.2397 8.41193C23.0707 8.07386 22.8287 7.80705 22.5138 7.61151C22.2023 7.41596 21.8344 7.31818 21.4102 7.31818C20.9428 7.31818 20.5385 7.43419 20.1971 7.66619C19.859 7.89489 19.5988 8.19318 19.4165 8.56108C19.2343 8.92898 19.1431 9.32339 19.1431 9.74432V10.4205C19.1431 10.9972 19.2425 11.486 19.4414 11.8871C19.6436 12.2848 19.9237 12.5881 20.2816 12.7969C20.6396 13.0024 21.0555 13.1051 21.5295 13.1051C21.8377 13.1051 22.1161 13.062 22.3647 12.9759C22.6166 12.8864 22.8337 12.7538 23.016 12.5781C23.1983 12.3991 23.3391 12.1771 23.4386 11.9119L24.5721 12.2301C24.4528 12.6146 24.2522 12.9527 23.9705 13.2443C23.6888 13.5327 23.3408 13.758 22.9265 13.9205C22.5122 14.0795 22.0465 14.1591 21.5295 14.1591ZM34.2717 10.8182H35.6239L36.7575 12.3097L37.0558 12.7074L38.7461 14.9545H37.3938L36.2802 13.4631L36.0018 13.0852L34.2717 10.8182ZM39.1637 8.90909C39.1637 9.98295 38.9698 10.911 38.582 11.6932C38.1942 12.4754 37.6623 13.0786 36.9862 13.5028C36.31 13.9271 35.5378 14.1392 34.6694 14.1392C33.801 14.1392 33.0288 13.9271 32.3526 13.5028C31.6765 13.0786 31.1445 12.4754 30.7567 11.6932C30.369 10.911 30.1751 9.98295 30.1751 8.90909C30.1751 7.83523 30.369 6.9072 30.7567 6.125C31.1445 5.3428 31.6765 4.73958 32.3526 4.31534C33.0288 3.8911 33.801 3.67898 34.6694 3.67898C35.5378 3.67898 36.31 3.8911 36.9862 4.31534C37.6623 4.73958 38.1942 5.3428 38.582 6.125C38.9698 6.9072 39.1637 7.83523 39.1637 8.90909ZM37.9705 8.90909C37.9705 8.02746 37.823 7.28338 37.5281 6.67685C37.2364 6.07031 36.8403 5.61127 36.3398 5.29972C35.8427 4.98816 35.2859 4.83239 34.6694 4.83239C34.0529 4.83239 33.4944 4.98816 32.994 5.29972C32.4968 5.61127 32.1007 6.07031 31.8058 6.67685C31.5141 7.28338 31.3683 8.02746 31.3683 8.90909C31.3683 9.79072 31.5141 10.5348 31.8058 11.1413C32.1007 11.7479 32.4968 12.2069 32.994 12.5185C33.4944 12.83 34.0529 12.9858 34.6694 12.9858C35.2859 12.9858 35.8427 12.83 36.3398 12.5185C36.8403 12.2069 37.2364 11.7479 37.5281 11.1413C37.823 10.5348 37.9705 9.79072 37.9705 8.90909ZM45.8903 10.8778V6.36364H47.0636V14H45.8903V12.7074H45.8107C45.6317 13.0952 45.3533 13.425 44.9755 13.6967C44.5977 13.9652 44.1204 14.0994 43.5437 14.0994C43.0664 14.0994 42.6422 13.995 42.271 13.7862C41.8997 13.5741 41.6081 13.2559 41.396 12.8317C41.1838 12.4041 41.0778 11.8655 41.0778 11.2159V6.36364H42.2511V11.1364C42.2511 11.6932 42.4068 12.1373 42.7184 12.4688C43.0333 12.8002 43.4343 12.9659 43.9215 12.9659C44.2132 12.9659 44.5098 12.8913 44.8114 12.7422C45.1164 12.593 45.3716 12.3643 45.5771 12.0561C45.7859 11.7479 45.8903 11.3551 45.8903 10.8778ZM49.2125 14V6.36364H50.3858V14H49.2125ZM49.8091 5.09091C49.5804 5.09091 49.3832 5.01302 49.2175 4.85724C49.0551 4.70147 48.9739 4.5142 48.9739 4.29545C48.9739 4.0767 49.0551 3.88944 49.2175 3.73366C49.3832 3.57789 49.5804 3.5 49.8091 3.5C50.0378 3.5 50.2334 3.57789 50.3958 3.73366C50.5615 3.88944 50.6444 4.0767 50.6444 4.29545C50.6444 4.5142 50.5615 4.70147 50.3958 4.85724C50.2334 5.01302 50.0378 5.09091 49.8091 5.09091ZM55.6371 14.1591C54.9212 14.1591 54.3047 13.9901 53.7876 13.652C53.2706 13.3139 52.8729 12.8482 52.5945 12.255C52.3161 11.6617 52.1768 10.9839 52.1768 10.2216C52.1768 9.44602 52.3194 8.7616 52.6044 8.16832C52.8928 7.57173 53.2938 7.10606 53.8075 6.77131C54.3246 6.43324 54.9278 6.2642 55.6172 6.2642C56.1541 6.2642 56.638 6.36364 57.0689 6.5625C57.4998 6.76136 57.8527 7.03977 58.1278 7.39773C58.4029 7.75568 58.5736 8.1733 58.6399 8.65057H57.4666C57.3771 8.30256 57.1783 7.99432 56.87 7.72585C56.5651 7.45407 56.1541 7.31818 55.6371 7.31818C55.1797 7.31818 54.7786 7.4375 54.4339 7.67614C54.0926 7.91146 53.8258 8.24455 53.6335 8.67543C53.4446 9.10298 53.3501 9.60511 53.3501 10.1818C53.3501 10.7718 53.4429 11.2855 53.6286 11.723C53.8175 12.1605 54.0826 12.5002 54.424 12.7422C54.7687 12.9841 55.1731 13.1051 55.6371 13.1051C55.942 13.1051 56.2188 13.0521 56.4673 12.946C56.7159 12.84 56.9264 12.6875 57.0987 12.4886C57.2711 12.2898 57.3937 12.0511 57.4666 11.7727H58.6399C58.5736 12.2235 58.4096 12.6295 58.1477 12.9908C57.8892 13.3487 57.5462 13.6338 57.1186 13.8459C56.6944 14.0547 56.2005 14.1591 55.6371 14.1591ZM61.4489 11.2159L61.429 9.7642H61.6676L65.0085 6.36364H66.4602L62.9006 9.96307H62.8011L61.4489 11.2159ZM60.3551 14V3.81818H61.5284V14H60.3551ZM65.2074 14L62.2244 10.2216L63.0597 9.40625L66.6989 14H65.2074ZM72.0669 14V3.81818H75.6266C76.3359 3.81818 76.9209 3.94081 77.3816 4.18608C77.8423 4.42803 78.1853 4.7545 78.4107 5.16548C78.6361 5.57315 78.7488 6.02557 78.7488 6.52273C78.7488 6.96023 78.6709 7.3215 78.5151 7.60653C78.3626 7.89157 78.1605 8.11695 77.9086 8.28267C77.66 8.44839 77.3899 8.57102 77.0982 8.65057V8.75C77.4097 8.76989 77.723 8.87926 78.0378 9.07812C78.3527 9.27699 78.6162 9.56203 78.8283 9.93324C79.0404 10.3045 79.1465 10.7585 79.1465 11.2955C79.1465 11.8059 79.0305 12.2649 78.7985 12.6726C78.5665 13.0803 78.2002 13.4034 77.6998 13.642C77.1993 13.8807 76.548 14 75.7459 14H72.0669ZM73.2999 12.9062H75.7459C76.5513 12.9062 77.123 12.7505 77.4611 12.4389C77.8025 12.1241 77.9732 11.7429 77.9732 11.2955C77.9732 10.9508 77.8854 10.6326 77.7097 10.3409C77.534 10.0459 77.2838 9.81061 76.959 9.63494C76.6342 9.45597 76.2497 9.36648 75.8056 9.36648H73.2999V12.9062ZM73.2999 8.29261H75.5868C75.958 8.29261 76.2928 8.2197 76.5911 8.07386C76.8927 7.92803 77.1313 7.72254 77.307 7.45739C77.486 7.19223 77.5755 6.88068 77.5755 6.52273C77.5755 6.07528 77.4197 5.69579 77.1081 5.38423C76.7966 5.06937 76.3027 4.91193 75.6266 4.91193H73.2999V8.29261ZM81.0133 14V6.36364H82.1468V7.51705H82.2264C82.3656 7.1392 82.6175 6.83262 82.9821 6.5973C83.3467 6.36198 83.7576 6.24432 84.215 6.24432C84.3012 6.24432 84.4089 6.24597 84.5382 6.24929C84.6674 6.2526 84.7652 6.25758 84.8315 6.2642V7.45739C84.7917 7.44744 84.7006 7.43253 84.5581 7.41264C84.4189 7.38944 84.2714 7.37784 84.1156 7.37784C83.7444 7.37784 83.4129 7.45573 83.1213 7.61151C82.8329 7.76397 82.6042 7.97609 82.4352 8.24787C82.2695 8.51634 82.1866 8.82292 82.1866 9.16761V14H81.0133ZM89.0922 14.1591C88.4028 14.1591 87.7979 13.995 87.2775 13.6669C86.7605 13.3388 86.3561 12.8797 86.0645 12.2898C85.7761 11.6998 85.6319 11.0104 85.6319 10.2216C85.6319 9.42614 85.7761 8.73177 86.0645 8.13849C86.3561 7.54522 86.7605 7.08452 87.2775 6.75639C87.7979 6.42827 88.4028 6.2642 89.0922 6.2642C89.7815 6.2642 90.3848 6.42827 90.9018 6.75639C91.4222 7.08452 91.8265 7.54522 92.1149 8.13849C92.4065 8.73177 92.5524 9.42614 92.5524 10.2216C92.5524 11.0104 92.4065 11.6998 92.1149 12.2898C91.8265 12.8797 91.4222 13.3388 90.9018 13.6669C90.3848 13.995 89.7815 14.1591 89.0922 14.1591ZM89.0922 13.1051C89.6158 13.1051 90.0467 12.9709 90.3848 12.7024C90.7228 12.4339 90.9731 12.081 91.1355 11.6435C91.2979 11.206 91.3791 10.732 91.3791 10.2216C91.3791 9.71117 91.2979 9.23556 91.1355 8.79474C90.9731 8.35393 90.7228 7.99763 90.3848 7.72585C90.0467 7.45407 89.6158 7.31818 89.0922 7.31818C88.5685 7.31818 88.1376 7.45407 87.7995 7.72585C87.4615 7.99763 87.2112 8.35393 87.0488 8.79474C86.8864 9.23556 86.8052 9.71117 86.8052 10.2216C86.8052 10.732 86.8864 11.206 87.0488 11.6435C87.2112 12.081 87.4615 12.4339 87.7995 12.7024C88.1376 12.9709 88.5685 13.1051 89.0922 13.1051ZM95.8137 14L93.487 6.36364H94.72L96.3706 12.2102H96.4501L98.0808 6.36364H99.3336L100.944 12.1903H101.024L102.675 6.36364H103.907L101.581 14H100.427L98.7569 8.13352H98.6376L96.9672 14H95.8137ZM106.632 9.40625V14H105.459V6.36364H106.592V7.55682H106.692C106.871 7.16903 107.142 6.85748 107.507 6.62216C107.872 6.38352 108.342 6.2642 108.919 6.2642C109.436 6.2642 109.888 6.37027 110.276 6.58239C110.664 6.79119 110.965 7.10938 111.181 7.53693C111.396 7.96117 111.504 8.49811 111.504 9.14773V14H110.331V9.22727C110.331 8.62737 110.175 8.16004 109.863 7.82528C109.552 7.48722 109.124 7.31818 108.581 7.31818C108.206 7.31818 107.872 7.39938 107.577 7.56179C107.285 7.72419 107.055 7.96117 106.885 8.27273C106.716 8.58428 106.632 8.96212 106.632 9.40625ZM117.745 14V3.81818H123.85V4.91193H118.978V8.35227H123.392V9.44602H118.978V14H117.745ZM128.344 14.1591C127.655 14.1591 127.05 13.995 126.529 13.6669C126.012 13.3388 125.608 12.8797 125.316 12.2898C125.028 11.6998 124.884 11.0104 124.884 10.2216C124.884 9.42614 125.028 8.73177 125.316 8.13849C125.608 7.54522 126.012 7.08452 126.529 6.75639C127.05 6.42827 127.655 6.2642 128.344 6.2642C129.033 6.2642 129.637 6.42827 130.154 6.75639C130.674 7.08452 131.078 7.54522 131.367 8.13849C131.658 8.73177 131.804 9.42614 131.804 10.2216C131.804 11.0104 131.658 11.6998 131.367 12.2898C131.078 12.8797 130.674 13.3388 130.154 13.6669C129.637 13.995 129.033 14.1591 128.344 14.1591ZM128.344 13.1051C128.868 13.1051 129.299 12.9709 129.637 12.7024C129.975 12.4339 130.225 12.081 130.387 11.6435C130.55 11.206 130.631 10.732 130.631 10.2216C130.631 9.71117 130.55 9.23556 130.387 8.79474C130.225 8.35393 129.975 7.99763 129.637 7.72585C129.299 7.45407 128.868 7.31818 128.344 7.31818C127.82 7.31818 127.39 7.45407 127.051 7.72585C126.713 7.99763 126.463 8.35393 126.301 8.79474C126.138 9.23556 126.057 9.71117 126.057 10.2216C126.057 10.732 126.138 11.206 126.301 11.6435C126.463 12.081 126.713 12.4339 127.051 12.7024C127.39 12.9709 127.82 13.1051 128.344 13.1051ZM134.156 6.36364L135.985 9.4858L137.815 6.36364H139.167L136.701 10.1818L139.167 14H137.815L135.985 11.0369L134.156 14H132.804L135.23 10.1818L132.804 6.36364H134.156Z" fill="black"/>
</svg>
