<svg width="150" height="80" viewBox="0 0 150 80" fill="none" xmlns="http://www.w3.org/2000/svg">
<g clip-path="url(#clip0_0_1009)">
<rect width="150" height="80" fill="white"/>
<path d="M60.2375 37H58.9449L62.6835 26.8182H63.9562L67.6949 37H66.4023L63.3596 28.429H63.2801L60.2375 37ZM60.7148 33.0227H65.925V34.1165H60.7148V33.0227ZM70.295 26.8182V37H69.1217V26.8182H70.295ZM72.444 37V29.3636H73.6173V37H72.444ZM73.0406 28.0909C72.8119 28.0909 72.6147 28.013 72.449 27.8572C72.2865 27.7015 72.2053 27.5142 72.2053 27.2955C72.2053 27.0767 72.2865 26.8894 72.449 26.7337C72.6147 26.5779 72.8119 26.5 73.0406 26.5C73.2693 26.5 73.4648 26.5779 73.6272 26.7337C73.7929 26.8894 73.8758 27.0767 73.8758 27.2955C73.8758 27.5142 73.7929 27.7015 73.6272 27.8572C73.4648 28.013 73.2693 28.0909 73.0406 28.0909ZM78.8486 40.0227C78.2819 40.0227 77.7947 39.9498 77.387 39.804C76.9793 39.6615 76.6396 39.4725 76.3678 39.2372C76.0993 39.0052 75.8856 38.7566 75.7265 38.4915L76.6611 37.8352C76.7672 37.9744 76.9014 38.1335 77.0638 38.3125C77.2262 38.4948 77.4483 38.6522 77.73 38.7848C78.0151 38.9207 78.3879 38.9886 78.8486 38.9886C79.4651 38.9886 79.9739 38.8395 80.3749 38.5412C80.776 38.2429 80.9765 37.7756 80.9765 37.1392V35.5881H80.877C80.7909 35.7273 80.6682 35.8996 80.5091 36.1051C80.3534 36.3073 80.128 36.4879 79.833 36.647C79.5413 36.8028 79.1469 36.8807 78.6498 36.8807C78.0333 36.8807 77.4798 36.7348 76.9893 36.4432C76.502 36.1515 76.1159 35.7273 75.8309 35.1705C75.5492 34.6136 75.4083 33.9375 75.4083 33.142C75.4083 32.3598 75.5458 31.6787 75.8209 31.0987C76.096 30.5154 76.4788 30.0646 76.9694 29.7464C77.4599 29.425 78.0267 29.2642 78.6697 29.2642C79.1668 29.2642 79.5612 29.3471 79.8529 29.5128C80.1479 29.6752 80.3733 29.8608 80.529 30.0696C80.6881 30.2751 80.8108 30.4441 80.8969 30.5767H81.0162V29.3636H82.1498V37.2188C82.1498 37.875 82.0006 38.4086 81.7023 38.8196C81.4073 39.2339 81.0096 39.5372 80.5091 39.7294C80.012 39.925 79.4585 40.0227 78.8486 40.0227ZM78.8089 35.8267C79.2795 35.8267 79.6772 35.719 80.002 35.5036C80.3269 35.2881 80.5738 34.9782 80.7428 34.5739C80.9118 34.1695 80.9964 33.6856 80.9964 33.1222C80.9964 32.572 80.9135 32.0864 80.7478 31.6655C80.5821 31.2446 80.3368 30.9148 80.012 30.6761C79.6872 30.4375 79.2861 30.3182 78.8089 30.3182C78.3117 30.3182 77.8974 30.4441 77.566 30.696C77.2378 30.9479 76.9909 31.286 76.8252 31.7102C76.6628 32.1345 76.5816 32.6051 76.5816 33.1222C76.5816 33.6525 76.6644 34.1214 76.8302 34.5291C76.9992 34.9335 77.2478 35.2517 77.5759 35.4837C77.9073 35.7124 78.3183 35.8267 78.8089 35.8267ZM85.4708 32.4062V37H84.2975V29.3636H85.431V30.5568H85.5305C85.7094 30.169 85.9812 29.8575 86.3458 29.6222C86.7104 29.3835 87.181 29.2642 87.7577 29.2642C88.2748 29.2642 88.7272 29.3703 89.115 29.5824C89.5028 29.7912 89.8044 30.1094 90.0198 30.5369C90.2352 30.9612 90.343 31.4981 90.343 32.1477V37H89.1697V32.2273C89.1697 31.6274 89.0139 31.16 88.7023 30.8253C88.3908 30.4872 87.9632 30.3182 87.4197 30.3182C87.0451 30.3182 86.7104 30.3994 86.4154 30.5618C86.1237 30.7242 85.8934 30.9612 85.7243 31.2727C85.5553 31.5843 85.4708 31.9621 85.4708 32.4062ZM61.4642 44.9119V43.8182H69.1006V44.9119H65.8989V54H64.6659V44.9119H61.4642ZM72.9387 54.1591C72.2029 54.1591 71.5682 53.9967 71.0345 53.6719C70.5042 53.3438 70.0949 52.8864 69.8066 52.2997C69.5215 51.7098 69.379 51.0237 69.379 50.2415C69.379 49.4593 69.5215 48.7699 69.8066 48.1733C70.0949 47.5734 70.4959 47.1061 71.0097 46.7713C71.5267 46.4332 72.1299 46.2642 72.8193 46.2642C73.2171 46.2642 73.6098 46.3305 73.9976 46.4631C74.3854 46.5956 74.7384 46.8111 75.0566 47.1094C75.3747 47.4044 75.6283 47.7955 75.8172 48.2827C76.0061 48.7699 76.1006 49.3698 76.1006 50.0824V50.5795H70.2142V49.5653H74.9074C74.9074 49.1345 74.8212 48.75 74.6489 48.4119C74.4798 48.0739 74.2379 47.8071 73.923 47.6115C73.6115 47.416 73.2436 47.3182 72.8193 47.3182C72.352 47.3182 71.9477 47.4342 71.6063 47.6662C71.2682 47.8949 71.008 48.1932 70.8257 48.5611C70.6434 48.929 70.5523 49.3234 70.5523 49.7443V50.4205C70.5523 50.9972 70.6517 51.486 70.8506 51.8871C71.0528 52.2848 71.3328 52.5881 71.6908 52.7969C72.0487 53.0024 72.4647 53.1051 72.9387 53.1051C73.2469 53.1051 73.5253 53.062 73.7739 52.9759C74.0258 52.8864 74.2429 52.7538 74.4252 52.5781C74.6075 52.3991 74.7483 52.1771 74.8477 51.9119L75.9813 52.2301C75.8619 52.6146 75.6614 52.9527 75.3797 53.2443C75.098 53.5327 74.75 53.758 74.3357 53.9205C73.9214 54.0795 73.4557 54.1591 72.9387 54.1591ZM83.2945 48.0739L82.2405 48.3722C82.1742 48.1965 82.0764 48.0258 81.9472 47.8601C81.8212 47.6911 81.6489 47.5518 81.4301 47.4425C81.2114 47.3331 80.9313 47.2784 80.5899 47.2784C80.1226 47.2784 79.7332 47.3861 79.4216 47.6016C79.1134 47.8137 78.9593 48.0838 78.9593 48.4119C78.9593 48.7036 79.0653 48.9339 79.2774 49.103C79.4896 49.272 79.821 49.4129 80.2718 49.5256L81.4053 49.804C82.088 49.9697 82.5968 50.2232 82.9316 50.5646C83.2663 50.9027 83.4337 51.3385 83.4337 51.8722C83.4337 52.3097 83.3077 52.7008 83.0558 53.0455C82.8073 53.3902 82.4593 53.6619 82.0118 53.8608C81.5644 54.0597 81.044 54.1591 80.4507 54.1591C79.6718 54.1591 79.0272 53.9901 78.5168 53.652C78.0064 53.3139 77.6832 52.8201 77.5473 52.1705L78.661 51.892C78.767 52.303 78.9675 52.6113 79.2625 52.8168C79.5608 53.0223 79.9503 53.125 80.4308 53.125C80.9777 53.125 81.4119 53.009 81.7334 52.777C82.0582 52.5417 82.2206 52.2599 82.2206 51.9318C82.2206 51.6667 82.1278 51.4446 81.9422 51.2656C81.7566 51.0833 81.4716 50.9474 81.0871 50.858L79.8144 50.5597C79.115 50.3939 78.6013 50.1371 78.2732 49.7891C77.9484 49.4377 77.786 48.9986 77.786 48.4716C77.786 48.0407 77.9069 47.6596 78.1489 47.3281C78.3941 46.9967 78.7272 46.7365 79.1482 46.5476C79.5724 46.3587 80.053 46.2642 80.5899 46.2642C81.3456 46.2642 81.9389 46.4299 82.3698 46.7614C82.8039 47.0928 83.1122 47.5303 83.2945 48.0739ZM88.5209 46.3636V47.358H84.5635V46.3636H88.5209ZM85.7169 44.5341H86.8902V51.8125C86.8902 52.1439 86.9382 52.3925 87.0344 52.5582C87.1338 52.7206 87.2597 52.83 87.4122 52.8864C87.568 52.9394 87.732 52.9659 87.9044 52.9659C88.0336 52.9659 88.1397 52.9593 88.2226 52.946C88.3054 52.9295 88.3717 52.9162 88.4214 52.9062L88.6601 53.9602C88.5805 53.9901 88.4695 54.0199 88.327 54.0497C88.1845 54.0829 88.0038 54.0994 87.7851 54.0994C87.4536 54.0994 87.1288 54.0282 86.8106 53.8857C86.4958 53.7431 86.2339 53.526 86.0251 53.2344C85.8196 52.9427 85.7169 52.5748 85.7169 52.1307V44.5341Z" fill="black"/>
</g>
<defs>
<clipPath id="clip0_0_1009">
<rect width="150" height="80" fill="white"/>
</clipPath>
</defs>
</svg>
