<svg width="150" height="80" viewBox="0 0 150 80" fill="none" xmlns="http://www.w3.org/2000/svg">
<g clip-path="url(#clip0_0_1007)">
<rect width="150" height="80" fill="white"/>
<path d="M60.2375 14H58.9449L62.6835 3.81818H63.9562L67.6949 14H66.4023L63.3596 5.42898H63.2801L60.2375 14ZM60.7148 10.0227H65.925V11.1165H60.7148V10.0227ZM70.295 3.81818V14H69.1217V3.81818H70.295ZM72.444 14V6.36364H73.6173V14H72.444ZM73.0406 5.09091C72.8119 5.09091 72.6147 5.01302 72.449 4.85724C72.2865 4.70147 72.2053 4.5142 72.2053 4.29545C72.2053 4.0767 72.2865 3.88944 72.449 3.73366C72.6147 3.57789 72.8119 3.5 73.0406 3.5C73.2693 3.5 73.4648 3.57789 73.6272 3.73366C73.7929 3.88944 73.8758 4.0767 73.8758 4.29545C73.8758 4.5142 73.7929 4.70147 73.6272 4.85724C73.4648 5.01302 73.2693 5.09091 73.0406 5.09091ZM78.8486 17.0227C78.2819 17.0227 77.7947 16.9498 77.387 16.804C76.9793 16.6615 76.6396 16.4725 76.3678 16.2372C76.0993 16.0052 75.8856 15.7566 75.7265 15.4915L76.6611 14.8352C76.7672 14.9744 76.9014 15.1335 77.0638 15.3125C77.2262 15.4948 77.4483 15.6522 77.73 15.7848C78.0151 15.9207 78.3879 15.9886 78.8486 15.9886C79.4651 15.9886 79.9739 15.8395 80.3749 15.5412C80.776 15.2429 80.9765 14.7756 80.9765 14.1392V12.5881H80.877C80.7909 12.7273 80.6682 12.8996 80.5091 13.1051C80.3534 13.3073 80.128 13.4879 79.833 13.647C79.5413 13.8028 79.1469 13.8807 78.6498 13.8807C78.0333 13.8807 77.4798 13.7348 76.9893 13.4432C76.502 13.1515 76.1159 12.7273 75.8309 12.1705C75.5492 11.6136 75.4083 10.9375 75.4083 10.142C75.4083 9.35985 75.5458 8.67874 75.8209 8.09872C76.096 7.51539 76.4788 7.06463 76.9694 6.74645C77.4599 6.42495 78.0267 6.2642 78.6697 6.2642C79.1668 6.2642 79.5612 6.34706 79.8529 6.51278C80.1479 6.67519 80.3733 6.8608 80.529 7.0696C80.6881 7.27509 80.8108 7.44413 80.8969 7.5767H81.0162V6.36364H82.1498V14.2188C82.1498 14.875 82.0006 15.4086 81.7023 15.8196C81.4073 16.2339 81.0096 16.5372 80.5091 16.7294C80.012 16.925 79.4585 17.0227 78.8486 17.0227ZM78.8089 12.8267C79.2795 12.8267 79.6772 12.719 80.002 12.5036C80.3269 12.2881 80.5738 11.9782 80.7428 11.5739C80.9118 11.1695 80.9964 10.6856 80.9964 10.1222C80.9964 9.57197 80.9135 9.08641 80.7478 8.66548C80.5821 8.24455 80.3368 7.91477 80.012 7.67614C79.6872 7.4375 79.2861 7.31818 78.8089 7.31818C78.3117 7.31818 77.8974 7.44413 77.566 7.69602C77.2378 7.94792 76.9909 8.28598 76.8252 8.71023C76.6628 9.13447 76.5816 9.60511 76.5816 10.1222C76.5816 10.6525 76.6644 11.1214 76.8302 11.5291C76.9992 11.9335 77.2478 12.2517 77.5759 12.4837C77.9073 12.7124 78.3183 12.8267 78.8089 12.8267ZM85.4708 9.40625V14H84.2975V6.36364H85.431V7.55682H85.5305C85.7094 7.16903 85.9812 6.85748 86.3458 6.62216C86.7104 6.38352 87.181 6.2642 87.7577 6.2642C88.2748 6.2642 88.7272 6.37027 89.115 6.58239C89.5028 6.79119 89.8044 7.10938 90.0198 7.53693C90.2352 7.96117 90.343 8.49811 90.343 9.14773V14H89.1697V9.22727C89.1697 8.62737 89.0139 8.16004 88.7023 7.82528C88.3908 7.48722 87.9632 7.31818 87.4197 7.31818C87.0451 7.31818 86.7104 7.39938 86.4154 7.56179C86.1237 7.72419 85.8934 7.96117 85.7243 8.27273C85.5553 8.58428 85.4708 8.96212 85.4708 9.40625ZM61.4642 21.9119V20.8182H69.1006V21.9119H65.8989V31H64.6659V21.9119H61.4642ZM72.9387 31.1591C72.2029 31.1591 71.5682 30.9967 71.0345 30.6719C70.5042 30.3438 70.0949 29.8864 69.8066 29.2997C69.5215 28.7098 69.379 28.0237 69.379 27.2415C69.379 26.4593 69.5215 25.7699 69.8066 25.1733C70.0949 24.5734 70.4959 24.1061 71.0097 23.7713C71.5267 23.4332 72.1299 23.2642 72.8193 23.2642C73.2171 23.2642 73.6098 23.3305 73.9976 23.4631C74.3854 23.5956 74.7384 23.8111 75.0566 24.1094C75.3747 24.4044 75.6283 24.7955 75.8172 25.2827C76.0061 25.7699 76.1006 26.3698 76.1006 27.0824V27.5795H70.2142V26.5653H74.9074C74.9074 26.1345 74.8212 25.75 74.6489 25.4119C74.4798 25.0739 74.2379 24.8071 73.923 24.6115C73.6115 24.416 73.2436 24.3182 72.8193 24.3182C72.352 24.3182 71.9477 24.4342 71.6063 24.6662C71.2682 24.8949 71.008 25.1932 70.8257 25.5611C70.6434 25.929 70.5523 26.3234 70.5523 26.7443V27.4205C70.5523 27.9972 70.6517 28.486 70.8506 28.8871C71.0528 29.2848 71.3328 29.5881 71.6908 29.7969C72.0487 30.0024 72.4647 30.1051 72.9387 30.1051C73.2469 30.1051 73.5253 30.062 73.7739 29.9759C74.0258 29.8864 74.2429 29.7538 74.4252 29.5781C74.6075 29.3991 74.7483 29.1771 74.8477 28.9119L75.9813 29.2301C75.8619 29.6146 75.6614 29.9527 75.3797 30.2443C75.098 30.5327 74.75 30.758 74.3357 30.9205C73.9214 31.0795 73.4557 31.1591 72.9387 31.1591ZM83.2945 25.0739L82.2405 25.3722C82.1742 25.1965 82.0764 25.0258 81.9472 24.8601C81.8212 24.6911 81.6489 24.5518 81.4301 24.4425C81.2114 24.3331 80.9313 24.2784 80.5899 24.2784C80.1226 24.2784 79.7332 24.3861 79.4216 24.6016C79.1134 24.8137 78.9593 25.0838 78.9593 25.4119C78.9593 25.7036 79.0653 25.9339 79.2774 26.103C79.4896 26.272 79.821 26.4129 80.2718 26.5256L81.4053 26.804C82.088 26.9697 82.5968 27.2232 82.9316 27.5646C83.2663 27.9027 83.4337 28.3385 83.4337 28.8722C83.4337 29.3097 83.3077 29.7008 83.0558 30.0455C82.8073 30.3902 82.4593 30.6619 82.0118 30.8608C81.5644 31.0597 81.044 31.1591 80.4507 31.1591C79.6718 31.1591 79.0272 30.9901 78.5168 30.652C78.0064 30.3139 77.6832 29.8201 77.5473 29.1705L78.661 28.892C78.767 29.303 78.9675 29.6113 79.2625 29.8168C79.5608 30.0223 79.9503 30.125 80.4308 30.125C80.9777 30.125 81.4119 30.009 81.7334 29.777C82.0582 29.5417 82.2206 29.2599 82.2206 28.9318C82.2206 28.6667 82.1278 28.4446 81.9422 28.2656C81.7566 28.0833 81.4716 27.9474 81.0871 27.858L79.8144 27.5597C79.115 27.3939 78.6013 27.1371 78.2732 26.7891C77.9484 26.4377 77.786 25.9986 77.786 25.4716C77.786 25.0407 77.9069 24.6596 78.1489 24.3281C78.3941 23.9967 78.7272 23.7365 79.1482 23.5476C79.5724 23.3587 80.053 23.2642 80.5899 23.2642C81.3456 23.2642 81.9389 23.4299 82.3698 23.7614C82.8039 24.0928 83.1122 24.5303 83.2945 25.0739ZM88.5209 23.3636V24.358H84.5635V23.3636H88.5209ZM85.7169 21.5341H86.8902V28.8125C86.8902 29.1439 86.9382 29.3925 87.0344 29.5582C87.1338 29.7206 87.2597 29.83 87.4122 29.8864C87.568 29.9394 87.732 29.9659 87.9044 29.9659C88.0336 29.9659 88.1397 29.9593 88.2226 29.946C88.3054 29.9295 88.3717 29.9162 88.4214 29.9062L88.6601 30.9602C88.5805 30.9901 88.4695 31.0199 88.327 31.0497C88.1845 31.0829 88.0038 31.0994 87.7851 31.0994C87.4536 31.0994 87.1288 31.0282 86.8106 30.8857C86.4958 30.7431 86.2339 30.526 86.0251 30.2344C85.8196 29.9427 85.7169 29.5748 85.7169 29.1307V21.5341Z" fill="black"/>
</g>
<defs>
<clipPath id="clip0_0_1007">
<rect width="150" height="80" fill="white"/>
</clipPath>
</defs>
</svg>
