<svg width="150" height="80" viewBox="0 0 150 80" fill="none" xmlns="http://www.w3.org/2000/svg">
<g clip-path="url(#clip0_0_1011)">
<rect width="150" height="80" fill="white"/>
<path d="M60.2375 60H58.9449L62.6835 49.8182H63.9562L67.6949 60H66.4023L63.3596 51.429H63.2801L60.2375 60ZM60.7148 56.0227H65.925V57.1165H60.7148V56.0227ZM70.295 49.8182V60H69.1217V49.8182H70.295ZM72.444 60V52.3636H73.6173V60H72.444ZM73.0406 51.0909C72.8119 51.0909 72.6147 51.013 72.449 50.8572C72.2865 50.7015 72.2053 50.5142 72.2053 50.2955C72.2053 50.0767 72.2865 49.8894 72.449 49.7337C72.6147 49.5779 72.8119 49.5 73.0406 49.5C73.2693 49.5 73.4648 49.5779 73.6272 49.7337C73.7929 49.8894 73.8758 50.0767 73.8758 50.2955C73.8758 50.5142 73.7929 50.7015 73.6272 50.8572C73.4648 51.013 73.2693 51.0909 73.0406 51.0909ZM78.8486 63.0227C78.2819 63.0227 77.7947 62.9498 77.387 62.804C76.9793 62.6615 76.6396 62.4725 76.3678 62.2372C76.0993 62.0052 75.8856 61.7566 75.7265 61.4915L76.6611 60.8352C76.7672 60.9744 76.9014 61.1335 77.0638 61.3125C77.2262 61.4948 77.4483 61.6522 77.73 61.7848C78.0151 61.9207 78.3879 61.9886 78.8486 61.9886C79.4651 61.9886 79.9739 61.8395 80.3749 61.5412C80.776 61.2429 80.9765 60.7756 80.9765 60.1392V58.5881H80.877C80.7909 58.7273 80.6682 58.8996 80.5091 59.1051C80.3534 59.3073 80.128 59.4879 79.833 59.647C79.5413 59.8028 79.1469 59.8807 78.6498 59.8807C78.0333 59.8807 77.4798 59.7348 76.9893 59.4432C76.502 59.1515 76.1159 58.7273 75.8309 58.1705C75.5492 57.6136 75.4083 56.9375 75.4083 56.142C75.4083 55.3598 75.5458 54.6787 75.8209 54.0987C76.096 53.5154 76.4788 53.0646 76.9694 52.7464C77.4599 52.425 78.0267 52.2642 78.6697 52.2642C79.1668 52.2642 79.5612 52.3471 79.8529 52.5128C80.1479 52.6752 80.3733 52.8608 80.529 53.0696C80.6881 53.2751 80.8108 53.4441 80.8969 53.5767H81.0162V52.3636H82.1498V60.2188C82.1498 60.875 82.0006 61.4086 81.7023 61.8196C81.4073 62.2339 81.0096 62.5372 80.5091 62.7294C80.012 62.925 79.4585 63.0227 78.8486 63.0227ZM78.8089 58.8267C79.2795 58.8267 79.6772 58.719 80.002 58.5036C80.3269 58.2881 80.5738 57.9782 80.7428 57.5739C80.9118 57.1695 80.9964 56.6856 80.9964 56.1222C80.9964 55.572 80.9135 55.0864 80.7478 54.6655C80.5821 54.2446 80.3368 53.9148 80.012 53.6761C79.6872 53.4375 79.2861 53.3182 78.8089 53.3182C78.3117 53.3182 77.8974 53.4441 77.566 53.696C77.2378 53.9479 76.9909 54.286 76.8252 54.7102C76.6628 55.1345 76.5816 55.6051 76.5816 56.1222C76.5816 56.6525 76.6644 57.1214 76.8302 57.5291C76.9992 57.9335 77.2478 58.2517 77.5759 58.4837C77.9073 58.7124 78.3183 58.8267 78.8089 58.8267ZM85.4708 55.4062V60H84.2975V52.3636H85.431V53.5568H85.5305C85.7094 53.169 85.9812 52.8575 86.3458 52.6222C86.7104 52.3835 87.181 52.2642 87.7577 52.2642C88.2748 52.2642 88.7272 52.3703 89.115 52.5824C89.5028 52.7912 89.8044 53.1094 90.0198 53.5369C90.2352 53.9612 90.343 54.4981 90.343 55.1477V60H89.1697V55.2273C89.1697 54.6274 89.0139 54.16 88.7023 53.8253C88.3908 53.4872 87.9632 53.3182 87.4197 53.3182C87.0451 53.3182 86.7104 53.3994 86.4154 53.5618C86.1237 53.7242 85.8934 53.9612 85.7243 54.2727C85.5553 54.5843 85.4708 54.9621 85.4708 55.4062ZM61.4642 67.9119V66.8182H69.1006V67.9119H65.8989V77H64.6659V67.9119H61.4642ZM72.9387 77.1591C72.2029 77.1591 71.5682 76.9967 71.0345 76.6719C70.5042 76.3438 70.0949 75.8864 69.8066 75.2997C69.5215 74.7098 69.379 74.0237 69.379 73.2415C69.379 72.4593 69.5215 71.7699 69.8066 71.1733C70.0949 70.5734 70.4959 70.1061 71.0097 69.7713C71.5267 69.4332 72.1299 69.2642 72.8193 69.2642C73.2171 69.2642 73.6098 69.3305 73.9976 69.4631C74.3854 69.5956 74.7384 69.8111 75.0566 70.1094C75.3747 70.4044 75.6283 70.7955 75.8172 71.2827C76.0061 71.7699 76.1006 72.3698 76.1006 73.0824V73.5795H70.2142V72.5653H74.9074C74.9074 72.1345 74.8212 71.75 74.6489 71.4119C74.4798 71.0739 74.2379 70.8071 73.923 70.6115C73.6115 70.416 73.2436 70.3182 72.8193 70.3182C72.352 70.3182 71.9477 70.4342 71.6063 70.6662C71.2682 70.8949 71.008 71.1932 70.8257 71.5611C70.6434 71.929 70.5523 72.3234 70.5523 72.7443V73.4205C70.5523 73.9972 70.6517 74.486 70.8506 74.8871C71.0528 75.2848 71.3328 75.5881 71.6908 75.7969C72.0487 76.0024 72.4647 76.1051 72.9387 76.1051C73.2469 76.1051 73.5253 76.062 73.7739 75.9759C74.0258 75.8864 74.2429 75.7538 74.4252 75.5781C74.6075 75.3991 74.7483 75.1771 74.8477 74.9119L75.9813 75.2301C75.8619 75.6146 75.6614 75.9527 75.3797 76.2443C75.098 76.5327 74.75 76.758 74.3357 76.9205C73.9214 77.0795 73.4557 77.1591 72.9387 77.1591ZM83.2945 71.0739L82.2405 71.3722C82.1742 71.1965 82.0764 71.0258 81.9472 70.8601C81.8212 70.6911 81.6489 70.5518 81.4301 70.4425C81.2114 70.3331 80.9313 70.2784 80.5899 70.2784C80.1226 70.2784 79.7332 70.3861 79.4216 70.6016C79.1134 70.8137 78.9593 71.0838 78.9593 71.4119C78.9593 71.7036 79.0653 71.9339 79.2774 72.103C79.4896 72.272 79.821 72.4129 80.2718 72.5256L81.4053 72.804C82.088 72.9697 82.5968 73.2232 82.9316 73.5646C83.2663 73.9027 83.4337 74.3385 83.4337 74.8722C83.4337 75.3097 83.3077 75.7008 83.0558 76.0455C82.8073 76.3902 82.4593 76.6619 82.0118 76.8608C81.5644 77.0597 81.044 77.1591 80.4507 77.1591C79.6718 77.1591 79.0272 76.9901 78.5168 76.652C78.0064 76.3139 77.6832 75.8201 77.5473 75.1705L78.661 74.892C78.767 75.303 78.9675 75.6113 79.2625 75.8168C79.5608 76.0223 79.9503 76.125 80.4308 76.125C80.9777 76.125 81.4119 76.009 81.7334 75.777C82.0582 75.5417 82.2206 75.2599 82.2206 74.9318C82.2206 74.6667 82.1278 74.4446 81.9422 74.2656C81.7566 74.0833 81.4716 73.9474 81.0871 73.858L79.8144 73.5597C79.115 73.3939 78.6013 73.1371 78.2732 72.7891C77.9484 72.4377 77.786 71.9986 77.786 71.4716C77.786 71.0407 77.9069 70.6596 78.1489 70.3281C78.3941 69.9967 78.7272 69.7365 79.1482 69.5476C79.5724 69.3587 80.053 69.2642 80.5899 69.2642C81.3456 69.2642 81.9389 69.4299 82.3698 69.7614C82.8039 70.0928 83.1122 70.5303 83.2945 71.0739ZM88.5209 69.3636V70.358H84.5635V69.3636H88.5209ZM85.7169 67.5341H86.8902V74.8125C86.8902 75.1439 86.9382 75.3925 87.0344 75.5582C87.1338 75.7206 87.2597 75.83 87.4122 75.8864C87.568 75.9394 87.732 75.9659 87.9044 75.9659C88.0336 75.9659 88.1397 75.9593 88.2226 75.946C88.3054 75.9295 88.3717 75.9162 88.4214 75.9062L88.6601 76.9602C88.5805 76.9901 88.4695 77.0199 88.327 77.0497C88.1845 77.0829 88.0038 77.0994 87.7851 77.0994C87.4536 77.0994 87.1288 77.0282 86.8106 76.8857C86.4958 76.7431 86.2339 76.526 86.0251 76.2344C85.8196 75.9427 85.7169 75.5748 85.7169 75.1307V67.5341Z" fill="black"/>
</g>
<defs>
<clipPath id="clip0_0_1011">
<rect width="150" height="80" fill="white"/>
</clipPath>
</defs>
</svg>
