<svg width="150" height="50" viewBox="0 0 150 50" fill="none" xmlns="http://www.w3.org/2000/svg">
<rect width="150" height="50" fill="white"/>
<path d="M1.38068 17V7.18182H2.83807V8.66477H2.94034C3.11932 8.17898 3.44318 7.7848 3.91193 7.48224C4.38068 7.17969 4.90909 7.02841 5.49716 7.02841C5.60795 7.02841 5.74645 7.03054 5.91264 7.0348C6.07884 7.03906 6.20455 7.04545 6.28977 7.05398V8.58807C6.23864 8.57528 6.12145 8.55611 5.93821 8.53054C5.75923 8.50071 5.5696 8.4858 5.36932 8.4858C4.89205 8.4858 4.46591 8.58594 4.09091 8.78622C3.72017 8.98224 3.42614 9.25497 3.20881 9.6044C2.99574 9.94957 2.8892 10.3437 2.8892 10.7869V17H1.38068ZM11.8956 17.2045C10.9496 17.2045 10.1335 16.9957 9.44744 16.5781C8.76562 16.1562 8.23935 15.5682 7.86861 14.8139C7.50213 14.0554 7.31889 13.1733 7.31889 12.1676C7.31889 11.1619 7.50213 10.2756 7.86861 9.50852C8.23935 8.73722 8.75497 8.13636 9.41548 7.70597C10.0803 7.27131 10.8558 7.05398 11.7422 7.05398C12.2536 7.05398 12.7585 7.1392 13.2571 7.30966C13.7557 7.48011 14.2095 7.7571 14.6186 8.14062C15.0277 8.51989 15.3537 9.02273 15.5966 9.64915C15.8395 10.2756 15.9609 11.0469 15.9609 11.9631V12.6023H8.39276V11.2983H14.4268C14.4268 10.7443 14.3161 10.25 14.0945 9.81534C13.8771 9.38068 13.5661 9.03764 13.1612 8.78622C12.7607 8.5348 12.2876 8.40909 11.7422 8.40909C11.1413 8.40909 10.6214 8.55824 10.1825 8.85653C9.74787 9.15057 9.41335 9.53409 9.17898 10.0071C8.9446 10.4801 8.82741 10.9872 8.82741 11.5284V12.3977C8.82741 13.1392 8.95526 13.7678 9.21094 14.2834C9.47088 14.7947 9.83097 15.1847 10.2912 15.4531C10.7514 15.7173 11.2862 15.8494 11.8956 15.8494C12.2919 15.8494 12.6499 15.794 12.9695 15.6832C13.2933 15.5682 13.5724 15.3977 13.8068 15.1719C14.0412 14.9418 14.2223 14.6562 14.3501 14.3153L15.8075 14.7244C15.6541 15.2188 15.3963 15.6534 15.0341 16.0284C14.6719 16.3991 14.2244 16.6889 13.6918 16.8977C13.1591 17.1023 12.5604 17.2045 11.8956 17.2045ZM21.9631 17.2045C21.1449 17.2045 20.4226 16.9979 19.7962 16.5845C19.1697 16.1669 18.6797 15.5788 18.326 14.8203C17.9723 14.0575 17.7955 13.1562 17.7955 12.1165C17.7955 11.0852 17.9723 10.1903 18.326 9.43182C18.6797 8.6733 19.1719 8.08736 19.8026 7.67401C20.4332 7.26065 21.1619 7.05398 21.9886 7.05398C22.6278 7.05398 23.1328 7.16051 23.5036 7.37358C23.8786 7.58239 24.1641 7.82102 24.3601 8.08949C24.5604 8.35369 24.7159 8.57102 24.8267 8.74148H24.9545V3.90909H26.4631V17H25.0057V15.4915H24.8267C24.7159 15.6705 24.5582 15.8963 24.3537 16.169C24.1491 16.4375 23.8572 16.6783 23.478 16.8913C23.0987 17.1001 22.5938 17.2045 21.9631 17.2045ZM22.1676 15.8494C22.7727 15.8494 23.2841 15.6918 23.7017 15.3764C24.1193 15.0568 24.4368 14.6158 24.6541 14.0533C24.8714 13.4865 24.9801 12.8324 24.9801 12.0909C24.9801 11.358 24.8736 10.7166 24.6605 10.1669C24.4474 9.61293 24.1321 9.18253 23.7145 8.87571C23.2969 8.56463 22.7813 8.40909 22.1676 8.40909C21.5284 8.40909 20.9957 8.57315 20.5696 8.90128C20.1477 9.22514 19.8303 9.66619 19.6172 10.2244C19.4084 10.7784 19.304 11.4006 19.304 12.0909C19.304 12.7898 19.4105 13.4247 19.6236 13.9957C19.8409 14.5625 20.1605 15.0142 20.5824 15.3509C21.0085 15.6832 21.5369 15.8494 22.1676 15.8494ZM38.7678 7.18182V8.46023H33.6797V7.18182H38.7678ZM35.1626 4.82955H36.6712V14.1875C36.6712 14.6136 36.733 14.9332 36.8565 15.1463C36.9844 15.3551 37.1463 15.4957 37.3423 15.5682C37.5426 15.6364 37.7536 15.6705 37.9751 15.6705C38.1413 15.6705 38.2777 15.6619 38.3842 15.6449C38.4908 15.6236 38.576 15.6065 38.6399 15.5938L38.9467 16.9489C38.8445 16.9872 38.7017 17.0256 38.5185 17.0639C38.3352 17.1065 38.103 17.1278 37.8217 17.1278C37.3956 17.1278 36.978 17.0362 36.5689 16.853C36.1641 16.6697 35.8274 16.3906 35.5589 16.0156C35.2947 15.6406 35.1626 15.1676 35.1626 14.5966V4.82955ZM45.0479 17.2045C44.1019 17.2045 43.2859 16.9957 42.5998 16.5781C41.918 16.1562 41.3917 15.5682 41.021 14.8139C40.6545 14.0554 40.4712 13.1733 40.4712 12.1676C40.4712 11.1619 40.6545 10.2756 41.021 9.50852C41.3917 8.73722 41.9073 8.13636 42.5678 7.70597C43.2326 7.27131 44.0082 7.05398 44.8945 7.05398C45.4059 7.05398 45.9109 7.1392 46.4094 7.30966C46.908 7.48011 47.3619 7.7571 47.771 8.14062C48.18 8.51989 48.506 9.02273 48.7489 9.64915C48.9918 10.2756 49.1133 11.0469 49.1133 11.9631V12.6023H41.5451V11.2983H47.5792C47.5792 10.7443 47.4684 10.25 47.2468 9.81534C47.0295 9.38068 46.7184 9.03764 46.3136 8.78622C45.913 8.5348 45.44 8.40909 44.8945 8.40909C44.2937 8.40909 43.7738 8.55824 43.3349 8.85653C42.9002 9.15057 42.5657 9.53409 42.3313 10.0071C42.0969 10.4801 41.9798 10.9872 41.9798 11.5284V12.3977C41.9798 13.1392 42.1076 13.7678 42.3633 14.2834C42.6232 14.7947 42.9833 15.1847 43.4435 15.4531C43.9038 15.7173 44.4386 15.8494 45.0479 15.8494C45.4442 15.8494 45.8022 15.794 46.1218 15.6832C46.4457 15.5682 46.7248 15.3977 46.9592 15.1719C47.1935 14.9418 47.3746 14.6562 47.5025 14.3153L48.9599 14.7244C48.8065 15.2188 48.5487 15.6534 48.1864 16.0284C47.8242 16.3991 47.3768 16.6889 46.8441 16.8977C46.3114 17.1023 45.7127 17.2045 45.0479 17.2045ZM52.2694 7.18182L54.6216 11.196L56.9739 7.18182H58.7125L55.5421 12.0909L58.7125 17H56.9739L54.6216 13.1903L52.2694 17H50.5307L53.65 12.0909L50.5307 7.18182H52.2694ZM65.1349 7.18182V8.46023H60.0469V7.18182H65.1349ZM61.5298 4.82955H63.0384V14.1875C63.0384 14.6136 63.1001 14.9332 63.2237 15.1463C63.3516 15.3551 63.5135 15.4957 63.7095 15.5682C63.9098 15.6364 64.1207 15.6705 64.3423 15.6705C64.5085 15.6705 64.6449 15.6619 64.7514 15.6449C64.858 15.6236 64.9432 15.6065 65.0071 15.5938L65.3139 16.9489C65.2116 16.9872 65.0689 17.0256 64.8857 17.0639C64.7024 17.1065 64.4702 17.1278 64.1889 17.1278C63.7628 17.1278 63.3452 17.0362 62.9361 16.853C62.5313 16.6697 62.1946 16.3906 61.9261 16.0156C61.6619 15.6406 61.5298 15.1676 61.5298 14.5966V4.82955Z" fill="#FF0000"/>
</svg>
