<svg width="150" height="50" viewBox="0 0 150 50" fill="none" xmlns="http://www.w3.org/2000/svg">
<rect width="150" height="50" fill="white"/>
<path d="M1.58523 17V3.90909H3.09375V8.74148H3.22159C3.33239 8.57102 3.4858 8.35369 3.68182 8.08949C3.8821 7.82102 4.16761 7.58239 4.53835 7.37358C4.91335 7.16051 5.42045 7.05398 6.05966 7.05398C6.88636 7.05398 7.61506 7.26065 8.24574 7.67401C8.87642 8.08736 9.36861 8.6733 9.7223 9.43182C10.076 10.1903 10.2528 11.0852 10.2528 12.1165C10.2528 13.1562 10.076 14.0575 9.7223 14.8203C9.36861 15.5788 8.87855 16.1669 8.25213 16.5845C7.62571 16.9979 6.90341 17.2045 6.08523 17.2045C5.45455 17.2045 4.94957 17.1001 4.57031 16.8913C4.19105 16.6783 3.89915 16.4375 3.6946 16.169C3.49006 15.8963 3.33239 15.6705 3.22159 15.4915H3.04261V17H1.58523ZM3.06818 12.0909C3.06818 12.8324 3.17685 13.4865 3.39418 14.0533C3.61151 14.6158 3.92898 15.0568 4.34659 15.3764C4.7642 15.6918 5.27557 15.8494 5.88068 15.8494C6.51136 15.8494 7.03764 15.6832 7.45952 15.3509C7.88565 15.0142 8.20526 14.5625 8.41832 13.9957C8.63565 13.4247 8.74432 12.7898 8.74432 12.0909C8.74432 11.4006 8.63778 10.7784 8.42472 10.2244C8.21591 9.66619 7.89844 9.22514 7.4723 8.90128C7.05043 8.57315 6.51989 8.40909 5.88068 8.40909C5.26705 8.40909 4.75142 8.56463 4.33381 8.87571C3.91619 9.18253 3.60085 9.61293 3.38778 10.1669C3.17472 10.7166 3.06818 11.358 3.06818 12.0909ZM14.0689 3.90909V17H12.5604V3.90909H14.0689ZM23.0194 12.9858V7.18182H24.5279V17H23.0194V15.3381H22.9171C22.687 15.8366 22.329 16.2607 21.8432 16.6101C21.3574 16.9553 20.7438 17.1278 20.0023 17.1278C19.3887 17.1278 18.8432 16.9936 18.3659 16.7251C17.8887 16.4524 17.5137 16.0433 17.2409 15.4979C16.9682 14.9482 16.8319 14.2557 16.8319 13.4205V7.18182H18.3404V13.3182C18.3404 14.0341 18.5407 14.6051 18.9412 15.0312C19.3461 15.4574 19.8617 15.6705 20.4881 15.6705C20.8631 15.6705 21.2445 15.5746 21.6323 15.3828C22.0243 15.1911 22.3525 14.897 22.6167 14.5007C22.8851 14.1044 23.0194 13.5994 23.0194 12.9858ZM31.4073 17.2045C30.4613 17.2045 29.6452 16.9957 28.9592 16.5781C28.2773 16.1562 27.7511 15.5682 27.3803 14.8139C27.0138 14.0554 26.8306 13.1733 26.8306 12.1676C26.8306 11.1619 27.0138 10.2756 27.3803 9.50852C27.7511 8.73722 28.2667 8.13636 28.9272 7.70597C29.592 7.27131 30.3675 7.05398 31.2539 7.05398C31.7653 7.05398 32.2702 7.1392 32.7688 7.30966C33.2674 7.48011 33.7212 7.7571 34.1303 8.14062C34.5394 8.51989 34.8654 9.02273 35.1083 9.64915C35.3512 10.2756 35.4727 11.0469 35.4727 11.9631V12.6023H27.9045V11.2983H33.9386C33.9386 10.7443 33.8278 10.25 33.6062 9.81534C33.3888 9.38068 33.0778 9.03764 32.6729 8.78622C32.2724 8.5348 31.7994 8.40909 31.2539 8.40909C30.6531 8.40909 30.1332 8.55824 29.6942 8.85653C29.2596 9.15057 28.9251 9.53409 28.6907 10.0071C28.4563 10.4801 28.3391 10.9872 28.3391 11.5284V12.3977C28.3391 13.1392 28.467 13.7678 28.7227 14.2834C28.9826 14.7947 29.3427 15.1847 29.8029 15.4531C30.2631 15.7173 30.7979 15.8494 31.4073 15.8494C31.8036 15.8494 32.1616 15.794 32.4812 15.6832C32.805 15.5682 33.0842 15.3977 33.3185 15.1719C33.5529 14.9418 33.734 14.6562 33.8619 14.3153L35.3192 14.7244C35.1658 15.2188 34.908 15.6534 34.5458 16.0284C34.1836 16.3991 33.7362 16.6889 33.2035 16.8977C32.6708 17.1023 32.0721 17.2045 31.4073 17.2045ZM47.0998 7.18182V8.46023H42.0117V7.18182H47.0998ZM43.4947 4.82955H45.0032V14.1875C45.0032 14.6136 45.065 14.9332 45.1886 15.1463C45.3164 15.3551 45.4783 15.4957 45.6744 15.5682C45.8746 15.6364 46.0856 15.6705 46.3072 15.6705C46.4734 15.6705 46.6097 15.6619 46.7163 15.6449C46.8228 15.6236 46.908 15.6065 46.9719 15.5938L47.2788 16.9489C47.1765 16.9872 47.0337 17.0256 46.8505 17.0639C46.6673 17.1065 46.435 17.1278 46.1538 17.1278C45.7276 17.1278 45.31 17.0362 44.9009 16.853C44.4961 16.6697 44.1594 16.3906 43.891 16.0156C43.6268 15.6406 43.4947 15.1676 43.4947 14.5966V4.82955ZM53.38 17.2045C52.4339 17.2045 51.6179 16.9957 50.9318 16.5781C50.25 16.1562 49.7237 15.5682 49.353 14.8139C48.9865 14.0554 48.8033 13.1733 48.8033 12.1676C48.8033 11.1619 48.9865 10.2756 49.353 9.50852C49.7237 8.73722 50.2393 8.13636 50.8999 7.70597C51.5646 7.27131 52.3402 7.05398 53.2266 7.05398C53.7379 7.05398 54.2429 7.1392 54.7415 7.30966C55.2401 7.48011 55.6939 7.7571 56.103 8.14062C56.5121 8.51989 56.8381 9.02273 57.081 9.64915C57.3239 10.2756 57.4453 11.0469 57.4453 11.9631V12.6023H49.8771V11.2983H55.9112C55.9112 10.7443 55.8004 10.25 55.5788 9.81534C55.3615 9.38068 55.0504 9.03764 54.6456 8.78622C54.245 8.5348 53.772 8.40909 53.2266 8.40909C52.6257 8.40909 52.1058 8.55824 51.6669 8.85653C51.2322 9.15057 50.8977 9.53409 50.6634 10.0071C50.429 10.4801 50.3118 10.9872 50.3118 11.5284V12.3977C50.3118 13.1392 50.4396 13.7678 50.6953 14.2834C50.9553 14.7947 51.3153 15.1847 51.7756 15.4531C52.2358 15.7173 52.7706 15.8494 53.38 15.8494C53.7763 15.8494 54.1342 15.794 54.4538 15.6832C54.7777 15.5682 55.0568 15.3977 55.2912 15.1719C55.5256 14.9418 55.7067 14.6562 55.8345 14.3153L57.2919 14.7244C57.1385 15.2188 56.8807 15.6534 56.5185 16.0284C56.1563 16.3991 55.7088 16.6889 55.1761 16.8977C54.6435 17.1023 54.0447 17.2045 53.38 17.2045ZM60.6014 7.18182L62.9537 11.196L65.3059 7.18182H67.0446L63.8741 12.0909L67.0446 17H65.3059L62.9537 13.1903L60.6014 17H58.8627L61.9821 12.0909L58.8627 7.18182H60.6014ZM73.467 7.18182V8.46023H68.3789V7.18182H73.467ZM69.8619 4.82955H71.3704V14.1875C71.3704 14.6136 71.4322 14.9332 71.5558 15.1463C71.6836 15.3551 71.8455 15.4957 72.0415 15.5682C72.2418 15.6364 72.4528 15.6705 72.6744 15.6705C72.8406 15.6705 72.9769 15.6619 73.0835 15.6449C73.19 15.6236 73.2752 15.6065 73.3391 15.5938L73.646 16.9489C73.5437 16.9872 73.4009 17.0256 73.2177 17.0639C73.0344 17.1065 72.8022 17.1278 72.521 17.1278C72.0948 17.1278 71.6772 17.0362 71.2681 16.853C70.8633 16.6697 70.5266 16.3906 70.2582 16.0156C69.994 15.6406 69.8619 15.1676 69.8619 14.5966V4.82955Z" fill="#0000FF"/>
</svg>
