<svg width="150" height="50" viewBox="0 0 150 50" fill="none" xmlns="http://www.w3.org/2000/svg">
<rect width="150" height="50" fill="white"/>
<path d="M5.34375 20.8864C4.61506 20.8864 3.98864 20.7926 3.46449 20.6051C2.94034 20.4219 2.50355 20.179 2.15412 19.8764C1.80895 19.5781 1.53409 19.2585 1.32955 18.9176L2.53125 18.0739C2.66761 18.2528 2.8402 18.4574 3.04901 18.6875C3.25781 18.9219 3.54332 19.1243 3.90554 19.2947C4.27202 19.4695 4.75142 19.5568 5.34375 19.5568C6.13636 19.5568 6.79048 19.3651 7.30611 18.9815C7.82173 18.598 8.07955 17.9972 8.07955 17.179V15.1847H7.9517C7.84091 15.3636 7.68324 15.5852 7.47869 15.8494C7.27841 16.1094 6.98864 16.3416 6.60938 16.5462C6.23438 16.7464 5.72727 16.8466 5.08807 16.8466C4.29545 16.8466 3.58381 16.6591 2.95312 16.2841C2.3267 15.9091 1.83026 15.3636 1.46378 14.6477C1.10156 13.9318 0.920455 13.0625 0.920455 12.0398C0.920455 11.0341 1.0973 10.1584 1.45099 9.41264C1.80469 8.66264 2.29688 8.0831 2.92756 7.67401C3.55824 7.26065 4.28693 7.05398 5.11364 7.05398C5.75284 7.05398 6.25994 7.16051 6.63494 7.37358C7.0142 7.58239 7.30398 7.82102 7.50426 8.08949C7.70881 8.35369 7.86648 8.57102 7.97727 8.74148H8.13068V7.18182H9.58807V17.2812C9.58807 18.125 9.39631 18.8111 9.01278 19.3395C8.63352 19.8722 8.12216 20.2621 7.47869 20.5092C6.83949 20.7607 6.12784 20.8864 5.34375 20.8864ZM5.29261 15.4915C5.89773 15.4915 6.40909 15.353 6.8267 15.076C7.24432 14.799 7.56179 14.4006 7.77912 13.8807C7.99645 13.3608 8.10511 12.7386 8.10511 12.0142C8.10511 11.3068 7.99858 10.6825 7.78551 10.1413C7.57244 9.60014 7.2571 9.17614 6.83949 8.86932C6.42188 8.5625 5.90625 8.40909 5.29261 8.40909C4.65341 8.40909 4.12074 8.57102 3.6946 8.89489C3.27273 9.21875 2.95526 9.65341 2.74219 10.1989C2.53338 10.7443 2.42898 11.3494 2.42898 12.0142C2.42898 12.696 2.53551 13.299 2.74858 13.8232C2.96591 14.343 3.28551 14.7521 3.70739 15.0504C4.13352 15.3445 4.66193 15.4915 5.29261 15.4915ZM12.3494 17V7.18182H13.8068V8.66477H13.9091C14.0881 8.17898 14.4119 7.7848 14.8807 7.48224C15.3494 7.17969 15.8778 7.02841 16.4659 7.02841C16.5767 7.02841 16.7152 7.03054 16.8814 7.0348C17.0476 7.03906 17.1733 7.04545 17.2585 7.05398V8.58807C17.2074 8.57528 17.0902 8.55611 16.907 8.53054C16.728 8.50071 16.5384 8.4858 16.3381 8.4858C15.8608 8.4858 15.4347 8.58594 15.0597 8.78622C14.6889 8.98224 14.3949 9.25497 14.1776 9.6044C13.9645 9.94957 13.858 10.3437 13.858 10.7869V17H12.3494ZM21.9359 17.2301C21.3137 17.2301 20.7491 17.1129 20.242 16.8786C19.7349 16.6399 19.3322 16.2969 19.0339 15.8494C18.7356 15.3977 18.5865 14.8523 18.5865 14.2131C18.5865 13.6506 18.6973 13.1946 18.9189 12.8452C19.1404 12.4915 19.4366 12.2145 19.8074 12.0142C20.1781 11.8139 20.5872 11.6648 21.0346 11.5668C21.4863 11.4645 21.9402 11.3835 22.3961 11.3239C22.9927 11.2472 23.4764 11.1896 23.8471 11.1513C24.2221 11.1087 24.4949 11.0384 24.6653 10.9403C24.84 10.8423 24.9274 10.6719 24.9274 10.429V10.3778C24.9274 9.74716 24.7548 9.2571 24.4096 8.90767C24.0687 8.55824 23.551 8.38352 22.8564 8.38352C22.1362 8.38352 21.5716 8.54119 21.1625 8.85653C20.7534 9.17187 20.4657 9.50852 20.2995 9.86648L18.8677 9.35511C19.1234 8.75852 19.4643 8.29403 19.8904 7.96165C20.3208 7.625 20.7896 7.39062 21.2967 7.25852C21.8081 7.12216 22.3109 7.05398 22.8052 7.05398C23.1206 7.05398 23.4828 7.09233 23.8919 7.16903C24.3052 7.24148 24.7037 7.39276 25.0872 7.62287C25.475 7.85298 25.7967 8.20028 26.0524 8.66477C26.3081 9.12926 26.4359 9.75142 26.4359 10.5312V17H24.9274V15.6705H24.8507C24.7484 15.8835 24.5779 16.1115 24.3393 16.3544C24.1007 16.5973 23.7832 16.804 23.3869 16.9744C22.9906 17.1449 22.5069 17.2301 21.9359 17.2301ZM22.166 15.875C22.7626 15.875 23.2654 15.7578 23.6745 15.5234C24.0879 15.2891 24.399 14.9865 24.6078 14.6158C24.8208 14.245 24.9274 13.8551 24.9274 13.446V12.0653C24.8635 12.142 24.7228 12.2124 24.5055 12.2763C24.2924 12.3359 24.0453 12.3892 23.764 12.4361C23.487 12.4787 23.2164 12.517 22.9522 12.5511C22.6923 12.581 22.4814 12.6065 22.3194 12.6278C21.9274 12.679 21.5609 12.7621 21.22 12.8771C20.8833 12.9879 20.6106 13.1562 20.4018 13.3821C20.1973 13.6037 20.095 13.9062 20.095 14.2898C20.095 14.8139 20.2889 15.2102 20.6767 15.4787C21.0687 15.7429 21.5652 15.875 22.166 15.875ZM29.8093 20.6818C29.5536 20.6818 29.3256 20.6605 29.1254 20.6179C28.9251 20.5795 28.7866 20.5412 28.7099 20.5028L29.0934 19.1733C29.4599 19.267 29.7837 19.3011 30.065 19.2756C30.3462 19.25 30.5955 19.1243 30.8129 18.8984C31.0344 18.6768 31.2369 18.3168 31.4201 17.8182L31.7013 17.0511L28.0707 7.18182H29.707L32.4173 15.0057H32.5195L35.2298 7.18182H36.8661L32.6985 18.4318C32.511 18.9389 32.2788 19.3587 32.0018 19.6911C31.7248 20.0277 31.4031 20.277 31.0366 20.4389C30.6744 20.6009 30.2653 20.6818 29.8093 20.6818ZM42.9226 17.179C42.1726 17.179 41.4972 17.0298 40.8963 16.7315C40.2955 16.4332 39.8139 16.0241 39.4517 15.5043C39.0895 14.9844 38.8913 14.392 38.8572 13.7273H40.3913C40.451 14.3196 40.7195 14.8097 41.1967 15.1974C41.6783 15.581 42.2536 15.7727 42.9226 15.7727C43.4595 15.7727 43.9368 15.647 44.3544 15.3956C44.7763 15.1442 45.1065 14.799 45.3452 14.3601C45.5881 13.9169 45.7095 13.4162 45.7095 12.858C45.7095 12.2869 45.5838 11.7777 45.3324 11.3303C45.0852 10.8786 44.7443 10.5227 44.3097 10.2628C43.875 10.0028 43.3786 9.87074 42.8203 9.86648C42.4197 9.86222 42.0085 9.92401 41.5866 10.0518C41.1648 10.1754 40.8175 10.3352 40.5447 10.5312L39.0618 10.3523L39.8544 3.90909H46.6555V5.31534H41.1839L40.7237 9.17614H40.8004C41.0689 8.96307 41.4055 8.78622 41.8104 8.6456C42.2152 8.50497 42.6371 8.43466 43.076 8.43466C43.8771 8.43466 44.5909 8.62642 45.2173 9.00994C45.848 9.3892 46.3423 9.90909 46.7003 10.5696C47.0625 11.2301 47.2436 11.9844 47.2436 12.8324C47.2436 13.6676 47.0561 14.4134 46.6811 15.0696C46.3104 15.7216 45.799 16.2372 45.147 16.6165C44.495 16.9915 43.7536 17.179 42.9226 17.179ZM54.0527 17.179C53.0897 17.179 52.2694 16.9169 51.5918 16.3928C50.9142 15.8643 50.3965 15.0994 50.0385 14.098C49.6806 13.0923 49.5016 11.8778 49.5016 10.4545C49.5016 9.03977 49.6806 7.83168 50.0385 6.83026C50.4007 5.82457 50.9206 5.05753 51.5982 4.52912C52.28 3.99645 53.0982 3.73011 54.0527 3.73011C55.0073 3.73011 55.8233 3.99645 56.5009 4.52912C57.1827 5.05753 57.7026 5.82457 58.0605 6.83026C58.4228 7.83168 58.6039 9.03977 58.6039 10.4545C58.6039 11.8778 58.4249 13.0923 58.0669 14.098C57.709 15.0994 57.1912 15.8643 56.5137 16.3928C55.8361 16.9169 55.0158 17.179 54.0527 17.179ZM54.0527 15.7727C55.0073 15.7727 55.7488 15.3125 56.2772 14.392C56.8056 13.4716 57.0698 12.1591 57.0698 10.4545C57.0698 9.32102 56.9483 8.35582 56.7054 7.55895C56.4668 6.76207 56.1216 6.15483 55.6699 5.73722C55.2225 5.3196 54.6834 5.1108 54.0527 5.1108C53.1067 5.1108 52.3674 5.57741 51.8347 6.51065C51.302 7.43963 51.0357 8.75426 51.0357 10.4545C51.0357 11.5881 51.155 12.5511 51.3936 13.3438C51.6323 14.1364 51.9753 14.7393 52.4228 15.1527C52.8745 15.5661 53.4178 15.7727 54.0527 15.7727ZM70.3908 7.18182V8.46023H65.3027V7.18182H70.3908ZM66.7857 4.82955H68.2942V14.1875C68.2942 14.6136 68.356 14.9332 68.4796 15.1463C68.6074 15.3551 68.7694 15.4957 68.9654 15.5682C69.1657 15.6364 69.3766 15.6705 69.5982 15.6705C69.7644 15.6705 69.9007 15.6619 70.0073 15.6449C70.1138 15.6236 70.199 15.6065 70.263 15.5938L70.5698 16.9489C70.4675 16.9872 70.3248 17.0256 70.1415 17.0639C69.9583 17.1065 69.726 17.1278 69.4448 17.1278C69.0186 17.1278 68.601 17.0362 68.1919 16.853C67.7871 16.6697 67.4505 16.3906 67.182 16.0156C66.9178 15.6406 66.7857 15.1676 66.7857 14.5966V4.82955ZM76.671 17.2045C75.725 17.2045 74.9089 16.9957 74.2228 16.5781C73.541 16.1562 73.0147 15.5682 72.644 14.8139C72.2775 14.0554 72.0943 13.1733 72.0943 12.1676C72.0943 11.1619 72.2775 10.2756 72.644 9.50852C73.0147 8.73722 73.5304 8.13636 74.1909 7.70597C74.8556 7.27131 75.6312 7.05398 76.5176 7.05398C77.0289 7.05398 77.5339 7.1392 78.0325 7.30966C78.5311 7.48011 78.9849 7.7571 79.394 8.14062C79.8031 8.51989 80.1291 9.02273 80.372 9.64915C80.6149 10.2756 80.7363 11.0469 80.7363 11.9631V12.6023H73.1681V11.2983H79.2022C79.2022 10.7443 79.0914 10.25 78.8699 9.81534C78.6525 9.38068 78.3414 9.03764 77.9366 8.78622C77.536 8.5348 77.063 8.40909 76.5176 8.40909C75.9167 8.40909 75.3968 8.55824 74.9579 8.85653C74.5233 9.15057 74.1887 9.53409 73.9544 10.0071C73.72 10.4801 73.6028 10.9872 73.6028 11.5284V12.3977C73.6028 13.1392 73.7306 13.7678 73.9863 14.2834C74.2463 14.7947 74.6064 15.1847 75.0666 15.4531C75.5268 15.7173 76.0616 15.8494 76.671 15.8494C77.0673 15.8494 77.4252 15.794 77.7449 15.6832C78.0687 15.5682 78.3478 15.3977 78.5822 15.1719C78.8166 14.9418 78.9977 14.6562 79.1255 14.3153L80.5829 14.7244C80.4295 15.2188 80.1717 15.6534 79.8095 16.0284C79.4473 16.3991 78.9998 16.6889 78.4672 16.8977C77.9345 17.1023 77.3358 17.2045 76.671 17.2045ZM83.8924 7.18182L86.2447 11.196L88.5969 7.18182H90.3356L87.1651 12.0909L90.3356 17H88.5969L86.2447 13.1903L83.8924 17H82.1538L85.2731 12.0909L82.1538 7.18182H83.8924ZM96.758 7.18182V8.46023H91.6699V7.18182H96.758ZM93.1529 4.82955H94.6614V14.1875C94.6614 14.6136 94.7232 14.9332 94.8468 15.1463C94.9746 15.3551 95.1365 15.4957 95.3326 15.5682C95.5328 15.6364 95.7438 15.6705 95.9654 15.6705C96.1316 15.6705 96.2679 15.6619 96.3745 15.6449C96.481 15.6236 96.5662 15.6065 96.6301 15.5938L96.937 16.9489C96.8347 16.9872 96.6919 17.0256 96.5087 17.0639C96.3255 17.1065 96.0932 17.1278 95.812 17.1278C95.3858 17.1278 94.9682 17.0362 94.5591 16.853C94.1543 16.6697 93.8176 16.3906 93.5492 16.0156C93.285 15.6406 93.1529 15.1676 93.1529 14.5966V4.82955Z" fill="#808080"/>
</svg>
