<svg width="150" height="50" viewBox="0 0 150 50" fill="none" xmlns="http://www.w3.org/2000/svg">
<rect width="150" height="50" fill="white"/>
<path d="M1.58523 17V3.90909H3.09375V8.74148H3.22159C3.33239 8.57102 3.4858 8.35369 3.68182 8.08949C3.8821 7.82102 4.16761 7.58239 4.53835 7.37358C4.91335 7.16051 5.42045 7.05398 6.05966 7.05398C6.88636 7.05398 7.61506 7.26065 8.24574 7.67401C8.87642 8.08736 9.36861 8.6733 9.7223 9.43182C10.076 10.1903 10.2528 11.0852 10.2528 12.1165C10.2528 13.1562 10.076 14.0575 9.7223 14.8203C9.36861 15.5788 8.87855 16.1669 8.25213 16.5845C7.62571 16.9979 6.90341 17.2045 6.08523 17.2045C5.45455 17.2045 4.94957 17.1001 4.57031 16.8913C4.19105 16.6783 3.89915 16.4375 3.6946 16.169C3.49006 15.8963 3.33239 15.6705 3.22159 15.4915H3.04261V17H1.58523ZM3.06818 12.0909C3.06818 12.8324 3.17685 13.4865 3.39418 14.0533C3.61151 14.6158 3.92898 15.0568 4.34659 15.3764C4.7642 15.6918 5.27557 15.8494 5.88068 15.8494C6.51136 15.8494 7.03764 15.6832 7.45952 15.3509C7.88565 15.0142 8.20526 14.5625 8.41832 13.9957C8.63565 13.4247 8.74432 12.7898 8.74432 12.0909C8.74432 11.4006 8.63778 10.7784 8.42472 10.2244C8.21591 9.66619 7.89844 9.22514 7.4723 8.90128C7.05043 8.57315 6.51989 8.40909 5.88068 8.40909C5.26705 8.40909 4.75142 8.56463 4.33381 8.87571C3.91619 9.18253 3.60085 9.61293 3.38778 10.1669C3.17472 10.7166 3.06818 11.358 3.06818 12.0909ZM14.0689 3.90909V17H12.5604V3.90909H14.0689ZM19.7211 17.2301C19.0989 17.2301 18.5343 17.1129 18.0272 16.8786C17.5201 16.6399 17.1174 16.2969 16.8191 15.8494C16.5208 15.3977 16.3716 14.8523 16.3716 14.2131C16.3716 13.6506 16.4824 13.1946 16.704 12.8452C16.9256 12.4915 17.2218 12.2145 17.5925 12.0142C17.9632 11.8139 18.3723 11.6648 18.8198 11.5668C19.2715 11.4645 19.7253 11.3835 20.1813 11.3239C20.7779 11.2472 21.2615 11.1896 21.6323 11.1513C22.0073 11.1087 22.28 11.0384 22.4505 10.9403C22.6252 10.8423 22.7125 10.6719 22.7125 10.429V10.3778C22.7125 9.74716 22.54 9.2571 22.1948 8.90767C21.8539 8.55824 21.3361 8.38352 20.6415 8.38352C19.9213 8.38352 19.3567 8.54119 18.9476 8.85653C18.5385 9.17187 18.2509 9.50852 18.0847 9.86648L16.6529 9.35511C16.9086 8.75852 17.2495 8.29403 17.6756 7.96165C18.106 7.625 18.5748 7.39062 19.0819 7.25852C19.5932 7.12216 20.0961 7.05398 20.5904 7.05398C20.9057 7.05398 21.2679 7.09233 21.677 7.16903C22.0904 7.24148 22.4888 7.39276 22.8723 7.62287C23.2601 7.85298 23.5819 8.20028 23.8375 8.66477C24.0932 9.12926 24.2211 9.75142 24.2211 10.5312V17H22.7125V15.6705H22.6358C22.5336 15.8835 22.3631 16.1115 22.1245 16.3544C21.8858 16.5973 21.5684 16.804 21.1721 16.9744C20.7757 17.1449 20.2921 17.2301 19.7211 17.2301ZM19.9512 15.875C20.5478 15.875 21.0506 15.7578 21.4597 15.5234C21.873 15.2891 22.1841 14.9865 22.3929 14.6158C22.606 14.245 22.7125 13.8551 22.7125 13.446V12.0653C22.6486 12.142 22.508 12.2124 22.2907 12.2763C22.0776 12.3359 21.8304 12.3892 21.5492 12.4361C21.2722 12.4787 21.0016 12.517 20.7374 12.5511C20.4775 12.581 20.2665 12.6065 20.1046 12.6278C19.7125 12.679 19.3461 12.7621 19.0051 12.8771C18.6685 12.9879 18.3958 13.1562 18.187 13.3821C17.9824 13.6037 17.8801 13.9062 17.8801 14.2898C17.8801 14.8139 18.074 15.2102 18.4618 15.4787C18.8539 15.7429 19.3503 15.875 19.9512 15.875ZM30.9631 17.2045C30.0426 17.2045 29.25 16.9872 28.5852 16.5526C27.9205 16.1179 27.4091 15.5192 27.0511 14.7564C26.6932 13.9936 26.5142 13.1222 26.5142 12.142C26.5142 11.1449 26.6974 10.2649 27.0639 9.50213C27.4347 8.73509 27.9503 8.13636 28.6108 7.70597C29.2756 7.27131 30.0511 7.05398 30.9375 7.05398C31.6278 7.05398 32.25 7.18182 32.804 7.4375C33.358 7.69318 33.8118 8.05114 34.1655 8.51136C34.5192 8.97159 34.7386 9.50852 34.8239 10.1222H33.3153C33.2003 9.67472 32.9446 9.27841 32.5483 8.93324C32.1563 8.58381 31.6278 8.40909 30.9631 8.40909C30.375 8.40909 29.8594 8.5625 29.4162 8.86932C28.9773 9.17187 28.6342 9.60014 28.3871 10.1541C28.1442 10.7038 28.0227 11.3494 28.0227 12.0909C28.0227 12.8494 28.142 13.5099 28.3807 14.0724C28.6236 14.6349 28.9645 15.0717 29.4034 15.3828C29.8466 15.6939 30.3665 15.8494 30.9631 15.8494C31.3551 15.8494 31.7109 15.7812 32.0305 15.6449C32.3501 15.5085 32.6207 15.3125 32.8423 15.0568C33.0639 14.8011 33.2216 14.4943 33.3153 14.1364H34.8239C34.7386 14.7159 34.5277 15.2379 34.1911 15.7024C33.8587 16.1626 33.4176 16.5291 32.8679 16.8018C32.3224 17.0703 31.6875 17.2045 30.9631 17.2045ZM38.4354 13.4205L38.4098 11.554H38.7166L43.0121 7.18182H44.8786L40.3018 11.8097H40.174L38.4354 13.4205ZM37.0291 17V3.90909H38.5376V17H37.0291ZM43.2678 17L39.4325 12.142L40.5064 11.0938L45.1854 17H43.2678ZM56.1525 7.18182V8.46023H51.0645V7.18182H56.1525ZM52.5474 4.82955H54.0559V14.1875C54.0559 14.6136 54.1177 14.9332 54.2413 15.1463C54.3691 15.3551 54.5311 15.4957 54.7271 15.5682C54.9274 15.6364 55.1383 15.6705 55.3599 15.6705C55.5261 15.6705 55.6625 15.6619 55.769 15.6449C55.8755 15.6236 55.9608 15.6065 56.0247 15.5938L56.3315 16.9489C56.2292 16.9872 56.0865 17.0256 55.9032 17.0639C55.72 17.1065 55.4877 17.1278 55.2065 17.1278C54.7804 17.1278 54.3627 17.0362 53.9537 16.853C53.5488 16.6697 53.2122 16.3906 52.9437 16.0156C52.6795 15.6406 52.5474 15.1676 52.5474 14.5966V4.82955ZM62.4327 17.2045C61.4867 17.2045 60.6706 16.9957 59.9846 16.5781C59.3027 16.1562 58.7765 15.5682 58.4057 14.8139C58.0392 14.0554 57.856 13.1733 57.856 12.1676C57.856 11.1619 58.0392 10.2756 58.4057 9.50852C58.7765 8.73722 59.2921 8.13636 59.9526 7.70597C60.6174 7.27131 61.3929 7.05398 62.2793 7.05398C62.7907 7.05398 63.2956 7.1392 63.7942 7.30966C64.2928 7.48011 64.7466 7.7571 65.1557 8.14062C65.5648 8.51989 65.8908 9.02273 66.1337 9.64915C66.3766 10.2756 66.498 11.0469 66.498 11.9631V12.6023H58.9299V11.2983H64.964C64.964 10.7443 64.8532 10.25 64.6316 9.81534C64.4142 9.38068 64.1032 9.03764 63.6983 8.78622C63.2978 8.5348 62.8248 8.40909 62.2793 8.40909C61.6784 8.40909 61.1586 8.55824 60.7196 8.85653C60.285 9.15057 59.9505 9.53409 59.7161 10.0071C59.4817 10.4801 59.3645 10.9872 59.3645 11.5284V12.3977C59.3645 13.1392 59.4924 13.7678 59.748 14.2834C60.008 14.7947 60.3681 15.1847 60.8283 15.4531C61.2885 15.7173 61.8233 15.8494 62.4327 15.8494C62.829 15.8494 63.187 15.794 63.5066 15.6832C63.8304 15.5682 64.1096 15.3977 64.3439 15.1719C64.5783 14.9418 64.7594 14.6562 64.8873 14.3153L66.3446 14.7244C66.1912 15.2188 65.9334 15.6534 65.5712 16.0284C65.209 16.3991 64.7615 16.6889 64.2289 16.8977C63.6962 17.1023 63.0975 17.2045 62.4327 17.2045ZM69.6541 7.18182L72.0064 11.196L74.3587 7.18182H76.0973L72.9268 12.0909L76.0973 17H74.3587L72.0064 13.1903L69.6541 17H67.9155L71.0348 12.0909L67.9155 7.18182H69.6541ZM82.5197 7.18182V8.46023H77.4316V7.18182H82.5197ZM78.9146 4.82955H80.4231V14.1875C80.4231 14.6136 80.4849 14.9332 80.6085 15.1463C80.7363 15.3551 80.8983 15.4957 81.0943 15.5682C81.2946 15.6364 81.5055 15.6705 81.7271 15.6705C81.8933 15.6705 82.0297 15.6619 82.1362 15.6449C82.2427 15.6236 82.3279 15.6065 82.3919 15.5938L82.6987 16.9489C82.5964 16.9872 82.4537 17.0256 82.2704 17.0639C82.0872 17.1065 81.8549 17.1278 81.5737 17.1278C81.1475 17.1278 80.7299 17.0362 80.3208 16.853C79.916 16.6697 79.5794 16.3906 79.3109 16.0156C79.0467 15.6406 78.9146 15.1676 78.9146 14.5966V4.82955Z" fill="black"/>
</svg>
