<svg width="150" height="50" viewBox="0 0 150 50" fill="none" xmlns="http://www.w3.org/2000/svg">
<rect width="150" height="50" fill="white"/>
<path d="M5.36932 17.2045C4.44886 17.2045 3.65625 16.9872 2.99148 16.5526C2.3267 16.1179 1.81534 15.5192 1.45739 14.7564C1.09943 13.9936 0.920455 13.1222 0.920455 12.142C0.920455 11.1449 1.10369 10.2649 1.47017 9.50213C1.84091 8.73509 2.35653 8.13636 3.01705 7.70597C3.68182 7.27131 4.45739 7.05398 5.34375 7.05398C6.03409 7.05398 6.65625 7.18182 7.21023 7.4375C7.7642 7.69318 8.21804 8.05114 8.57173 8.51136C8.92543 8.97159 9.14489 9.50852 9.23011 10.1222H7.72159C7.60653 9.67472 7.35085 9.27841 6.95455 8.93324C6.5625 8.58381 6.03409 8.40909 5.36932 8.40909C4.78125 8.40909 4.26563 8.5625 3.82244 8.86932C3.38352 9.17187 3.04048 9.60014 2.79332 10.1541C2.55043 10.7038 2.42898 11.3494 2.42898 12.0909C2.42898 12.8494 2.5483 13.5099 2.78693 14.0724C3.02983 14.6349 3.37074 15.0717 3.80966 15.3828C4.25284 15.6939 4.77273 15.8494 5.36932 15.8494C5.76136 15.8494 6.11719 15.7812 6.43679 15.6449C6.75639 15.5085 7.02699 15.3125 7.24858 15.0568C7.47017 14.8011 7.62784 14.4943 7.72159 14.1364H9.23011C9.14489 14.7159 8.93395 15.2379 8.5973 15.7024C8.26492 16.1626 7.82386 16.5291 7.27415 16.8018C6.72869 17.0703 6.09375 17.2045 5.36932 17.2045ZM12.407 20.6818C12.1513 20.6818 11.9233 20.6605 11.723 20.6179C11.5227 20.5795 11.3842 20.5412 11.3075 20.5028L11.6911 19.1733C12.0575 19.267 12.3814 19.3011 12.6626 19.2756C12.9439 19.25 13.1932 19.1243 13.4105 18.8984C13.6321 18.6768 13.8345 18.3168 14.0178 17.8182L14.299 17.0511L10.6683 7.18182H12.3047L15.0149 15.0057H15.1172L17.8274 7.18182H19.4638L15.2962 18.4318C15.1087 18.9389 14.8764 19.3587 14.5994 19.6911C14.3224 20.0277 14.0007 20.277 13.6342 20.4389C13.272 20.6009 12.8629 20.6818 12.407 20.6818ZM24.0453 17.2301C23.4231 17.2301 22.8585 17.1129 22.3514 16.8786C21.8443 16.6399 21.4416 16.2969 21.1433 15.8494C20.845 15.3977 20.6958 14.8523 20.6958 14.2131C20.6958 13.6506 20.8066 13.1946 21.0282 12.8452C21.2498 12.4915 21.546 12.2145 21.9167 12.0142C22.2875 11.8139 22.6966 11.6648 23.144 11.5668C23.5957 11.4645 24.0495 11.3835 24.5055 11.3239C25.1021 11.2472 25.5858 11.1896 25.9565 11.1513C26.3315 11.1087 26.6042 11.0384 26.7747 10.9403C26.9494 10.8423 27.0368 10.6719 27.0368 10.429V10.3778C27.0368 9.74716 26.8642 9.2571 26.519 8.90767C26.1781 8.55824 25.6603 8.38352 24.9657 8.38352C24.2456 8.38352 23.6809 8.54119 23.2718 8.85653C22.8627 9.17187 22.5751 9.50852 22.4089 9.86648L20.9771 9.35511C21.2328 8.75852 21.5737 8.29403 21.9998 7.96165C22.4302 7.625 22.899 7.39062 23.4061 7.25852C23.9174 7.12216 24.4203 7.05398 24.9146 7.05398C25.2299 7.05398 25.5922 7.09233 26.0012 7.16903C26.4146 7.24148 26.813 7.39276 27.1966 7.62287C27.5843 7.85298 27.9061 8.20028 28.1618 8.66477C28.4174 9.12926 28.5453 9.75142 28.5453 10.5312V17H27.0368V15.6705H26.9601C26.8578 15.8835 26.6873 16.1115 26.4487 16.3544C26.21 16.5973 25.8926 16.804 25.4963 16.9744C25.1 17.1449 24.6163 17.2301 24.0453 17.2301ZM24.2754 15.875C24.872 15.875 25.3748 15.7578 25.7839 15.5234C26.1973 15.2891 26.5083 14.9865 26.7172 14.6158C26.9302 14.245 27.0368 13.8551 27.0368 13.446V12.0653C26.9728 12.142 26.8322 12.2124 26.6149 12.2763C26.4018 12.3359 26.1547 12.3892 25.8734 12.4361C25.5964 12.4787 25.3258 12.517 25.0616 12.5511C24.8017 12.581 24.5907 12.6065 24.4288 12.6278C24.0368 12.679 23.6703 12.7621 23.3294 12.8771C22.9927 12.9879 22.72 13.1562 22.5112 13.3821C22.3066 13.6037 22.2044 13.9062 22.2044 14.2898C22.2044 14.8139 22.3983 15.2102 22.786 15.4787C23.1781 15.7429 23.6745 15.875 24.2754 15.875ZM32.8072 11.0938V17H31.2987V7.18182H32.756V8.71591H32.8839C33.114 8.21733 33.4634 7.81676 33.9322 7.5142C34.4009 7.20739 35.006 7.05398 35.7475 7.05398C36.4123 7.05398 36.994 7.19034 37.4925 7.46307C37.9911 7.73153 38.3789 8.14062 38.6559 8.69034C38.9329 9.2358 39.0714 9.92614 39.0714 10.7614V17H37.5629V10.8636C37.5629 10.0923 37.3626 9.49148 36.962 9.06108C36.5614 8.62642 36.0117 8.40909 35.3129 8.40909C34.8313 8.40909 34.4009 8.51349 34.0217 8.7223C33.6467 8.93111 33.3505 9.2358 33.1332 9.63636C32.9158 10.0369 32.8072 10.5227 32.8072 11.0938ZM51.1603 7.18182V8.46023H46.0723V7.18182H51.1603ZM47.5552 4.82955H49.0637V14.1875C49.0637 14.6136 49.1255 14.9332 49.2491 15.1463C49.377 15.3551 49.5389 15.4957 49.7349 15.5682C49.9352 15.6364 50.1461 15.6705 50.3677 15.6705C50.5339 15.6705 50.6703 15.6619 50.7768 15.6449C50.8833 15.6236 50.9686 15.6065 51.0325 15.5938L51.3393 16.9489C51.237 16.9872 51.0943 17.0256 50.911 17.0639C50.7278 17.1065 50.4956 17.1278 50.2143 17.1278C49.7882 17.1278 49.3706 17.0362 48.9615 16.853C48.5566 16.6697 48.22 16.3906 47.9515 16.0156C47.6873 15.6406 47.5552 15.1676 47.5552 14.5966V4.82955ZM57.4405 17.2045C56.4945 17.2045 55.6784 16.9957 54.9924 16.5781C54.3105 16.1562 53.7843 15.5682 53.4135 14.8139C53.0471 14.0554 52.8638 13.1733 52.8638 12.1676C52.8638 11.1619 53.0471 10.2756 53.4135 9.50852C53.7843 8.73722 54.2999 8.13636 54.9604 7.70597C55.6252 7.27131 56.4007 7.05398 57.2871 7.05398C57.7985 7.05398 58.3034 7.1392 58.802 7.30966C59.3006 7.48011 59.7544 7.7571 60.1635 8.14062C60.5726 8.51989 60.8986 9.02273 61.1415 9.64915C61.3844 10.2756 61.5059 11.0469 61.5059 11.9631V12.6023H53.9377V11.2983H59.9718C59.9718 10.7443 59.861 10.25 59.6394 9.81534C59.4221 9.38068 59.111 9.03764 58.7061 8.78622C58.3056 8.5348 57.8326 8.40909 57.2871 8.40909C56.6863 8.40909 56.1664 8.55824 55.7275 8.85653C55.2928 9.15057 54.9583 9.53409 54.7239 10.0071C54.4895 10.4801 54.3723 10.9872 54.3723 11.5284V12.3977C54.3723 13.1392 54.5002 13.7678 54.7559 14.2834C55.0158 14.7947 55.3759 15.1847 55.8361 15.4531C56.2963 15.7173 56.8311 15.8494 57.4405 15.8494C57.8368 15.8494 58.1948 15.794 58.5144 15.6832C58.8382 15.5682 59.1174 15.3977 59.3517 15.1719C59.5861 14.9418 59.7672 14.6562 59.8951 14.3153L61.3525 14.7244C61.199 15.2188 60.9412 15.6534 60.579 16.0284C60.2168 16.3991 59.7694 16.6889 59.2367 16.8977C58.704 17.1023 58.1053 17.2045 57.4405 17.2045ZM64.6619 7.18182L67.0142 11.196L69.3665 7.18182H71.1051L67.9347 12.0909L71.1051 17H69.3665L67.0142 13.1903L64.6619 17H62.9233L66.0426 12.0909L62.9233 7.18182H64.6619ZM77.5275 7.18182V8.46023H72.4395V7.18182H77.5275ZM73.9224 4.82955H75.4309V14.1875C75.4309 14.6136 75.4927 14.9332 75.6163 15.1463C75.7441 15.3551 75.9061 15.4957 76.1021 15.5682C76.3024 15.6364 76.5133 15.6705 76.7349 15.6705C76.9011 15.6705 77.0375 15.6619 77.144 15.6449C77.2505 15.6236 77.3358 15.6065 77.3997 15.5938L77.7065 16.9489C77.6042 16.9872 77.4615 17.0256 77.2782 17.0639C77.095 17.1065 76.8627 17.1278 76.5815 17.1278C76.1554 17.1278 75.7377 17.0362 75.3287 16.853C74.9238 16.6697 74.5872 16.3906 74.3187 16.0156C74.0545 15.6406 73.9224 15.1676 73.9224 14.5966V4.82955Z" fill="#00FFFF"/>
</svg>
