<svg width="150" height="50" viewBox="0 0 150 50" fill="none" xmlns="http://www.w3.org/2000/svg">
<rect width="150" height="50" fill="white"/>
<path d="M2.35227 20.6818C2.09659 20.6818 1.86861 20.6605 1.66832 20.6179C1.46804 20.5795 1.32955 20.5412 1.25284 20.5028L1.63636 19.1733C2.00284 19.267 2.3267 19.3011 2.60795 19.2756C2.8892 19.25 3.13849 19.1243 3.35582 18.8984C3.57741 18.6768 3.77983 18.3168 3.96307 17.8182L4.24432 17.0511L0.613636 7.18182H2.25L4.96023 15.0057H5.0625L7.77273 7.18182H9.40909L5.24148 18.4318C5.05398 18.9389 4.82173 19.3587 4.54474 19.6911C4.26776 20.0277 3.94602 20.277 3.57955 20.4389C3.21733 20.6009 2.80824 20.6818 2.35227 20.6818ZM15.1651 17.2045C14.2191 17.2045 13.4031 16.9957 12.717 16.5781C12.0352 16.1562 11.5089 15.5682 11.1381 14.8139C10.7717 14.0554 10.5884 13.1733 10.5884 12.1676C10.5884 11.1619 10.7717 10.2756 11.1381 9.50852C11.5089 8.73722 12.0245 8.13636 12.685 7.70597C13.3498 7.27131 14.1254 7.05398 15.0117 7.05398C15.5231 7.05398 16.0281 7.1392 16.5266 7.30966C17.0252 7.48011 17.479 7.7571 17.8881 8.14062C18.2972 8.51989 18.6232 9.02273 18.8661 9.64915C19.109 10.2756 19.2305 11.0469 19.2305 11.9631V12.6023H11.6623V11.2983H17.6964C17.6964 10.7443 17.5856 10.25 17.364 9.81534C17.1467 9.38068 16.8356 9.03764 16.4308 8.78622C16.0302 8.5348 15.5572 8.40909 15.0117 8.40909C14.4109 8.40909 13.891 8.55824 13.4521 8.85653C13.0174 9.15057 12.6829 9.53409 12.4485 10.0071C12.2141 10.4801 12.0969 10.9872 12.0969 11.5284V12.3977C12.0969 13.1392 12.2248 13.7678 12.4805 14.2834C12.7404 14.7947 13.1005 15.1847 13.5607 15.4531C14.021 15.7173 14.5558 15.8494 15.1651 15.8494C15.5614 15.8494 15.9194 15.794 16.239 15.6832C16.5629 15.5682 16.842 15.3977 17.0763 15.1719C17.3107 14.9418 17.4918 14.6562 17.6197 14.3153L19.0771 14.7244C18.9237 15.2188 18.6658 15.6534 18.3036 16.0284C17.9414 16.3991 17.494 16.6889 16.9613 16.8977C16.4286 17.1023 15.8299 17.2045 15.1651 17.2045ZM23.0337 3.90909V17H21.5252V3.90909H23.0337ZM27.3052 3.90909V17H25.7967V3.90909H27.3052ZM34.0568 17.2045C33.1705 17.2045 32.3928 16.9936 31.7237 16.5717C31.0589 16.1499 30.5391 15.5597 30.1641 14.8011C29.7933 14.0426 29.608 13.1562 29.608 12.142C29.608 11.1193 29.7933 10.2266 30.1641 9.46378C30.5391 8.70099 31.0589 8.10866 31.7237 7.68679C32.3928 7.26491 33.1705 7.05398 34.0568 7.05398C34.9432 7.05398 35.7188 7.26491 36.3835 7.68679C37.0526 8.10866 37.5724 8.70099 37.9432 9.46378C38.3182 10.2266 38.5057 11.1193 38.5057 12.142C38.5057 13.1562 38.3182 14.0426 37.9432 14.8011C37.5724 15.5597 37.0526 16.1499 36.3835 16.5717C35.7188 16.9936 34.9432 17.2045 34.0568 17.2045ZM34.0568 15.8494C34.7301 15.8494 35.2841 15.6768 35.7188 15.3317C36.1534 14.9865 36.4751 14.5327 36.6839 13.9702C36.8928 13.4077 36.9972 12.7983 36.9972 12.142C36.9972 11.4858 36.8928 10.8743 36.6839 10.3075C36.4751 9.74077 36.1534 9.28267 35.7188 8.93324C35.2841 8.58381 34.7301 8.40909 34.0568 8.40909C33.3835 8.40909 32.8295 8.58381 32.3949 8.93324C31.9602 9.28267 31.6385 9.74077 31.4297 10.3075C31.2209 10.8743 31.1165 11.4858 31.1165 12.142C31.1165 12.7983 31.2209 13.4077 31.4297 13.9702C31.6385 14.5327 31.9602 14.9865 32.3949 15.3317C32.8295 15.6768 33.3835 15.8494 34.0568 15.8494ZM42.6989 17L39.7074 7.18182H41.2926L43.4148 14.6989H43.517L45.6136 7.18182H47.2244L49.2955 14.6733H49.3977L51.5199 7.18182H53.1051L50.1136 17H48.6307L46.483 9.45739H46.3295L44.1818 17H42.6989ZM64.4318 7.18182V8.46023H59.3438V7.18182H64.4318ZM60.8267 4.82955H62.3352V14.1875C62.3352 14.6136 62.397 14.9332 62.5206 15.1463C62.6484 15.3551 62.8104 15.4957 63.0064 15.5682C63.2067 15.6364 63.4176 15.6705 63.6392 15.6705C63.8054 15.6705 63.9418 15.6619 64.0483 15.6449C64.1548 15.6236 64.2401 15.6065 64.304 15.5938L64.6108 16.9489C64.5085 16.9872 64.3658 17.0256 64.1825 17.0639C63.9993 17.1065 63.767 17.1278 63.4858 17.1278C63.0597 17.1278 62.642 17.0362 62.233 16.853C61.8281 16.6697 61.4915 16.3906 61.223 16.0156C60.9588 15.6406 60.8267 15.1676 60.8267 14.5966V4.82955ZM70.712 17.2045C69.766 17.2045 68.9499 16.9957 68.2638 16.5781C67.582 16.1562 67.0558 15.5682 66.685 14.8139C66.3185 14.0554 66.1353 13.1733 66.1353 12.1676C66.1353 11.1619 66.3185 10.2756 66.685 9.50852C67.0558 8.73722 67.5714 8.13636 68.2319 7.70597C68.8967 7.27131 69.6722 7.05398 70.5586 7.05398C71.07 7.05398 71.5749 7.1392 72.0735 7.30966C72.5721 7.48011 73.0259 7.7571 73.435 8.14062C73.8441 8.51989 74.1701 9.02273 74.413 9.64915C74.6559 10.2756 74.7773 11.0469 74.7773 11.9631V12.6023H67.2092V11.2983H73.2433C73.2433 10.7443 73.1325 10.25 72.9109 9.81534C72.6935 9.38068 72.3825 9.03764 71.9776 8.78622C71.5771 8.5348 71.104 8.40909 70.5586 8.40909C69.9577 8.40909 69.4379 8.55824 68.9989 8.85653C68.5643 9.15057 68.2298 9.53409 67.9954 10.0071C67.761 10.4801 67.6438 10.9872 67.6438 11.5284V12.3977C67.6438 13.1392 67.7717 13.7678 68.0273 14.2834C68.2873 14.7947 68.6474 15.1847 69.1076 15.4531C69.5678 15.7173 70.1026 15.8494 70.712 15.8494C71.1083 15.8494 71.4663 15.794 71.7859 15.6832C72.1097 15.5682 72.3888 15.3977 72.6232 15.1719C72.8576 14.9418 73.0387 14.6562 73.1665 14.3153L74.6239 14.7244C74.4705 15.2188 74.2127 15.6534 73.8505 16.0284C73.4883 16.3991 73.0408 16.6889 72.5082 16.8977C71.9755 17.1023 71.3768 17.2045 70.712 17.2045ZM77.9334 7.18182L80.2857 11.196L82.638 7.18182H84.3766L81.2061 12.0909L84.3766 17H82.638L80.2857 13.1903L77.9334 17H76.1948L79.3141 12.0909L76.1948 7.18182H77.9334ZM90.799 7.18182V8.46023H85.7109V7.18182H90.799ZM87.1939 4.82955H88.7024V14.1875C88.7024 14.6136 88.7642 14.9332 88.8878 15.1463C89.0156 15.3551 89.1776 15.4957 89.3736 15.5682C89.5739 15.6364 89.7848 15.6705 90.0064 15.6705C90.1726 15.6705 90.3089 15.6619 90.4155 15.6449C90.522 15.6236 90.6072 15.6065 90.6712 15.5938L90.978 16.9489C90.8757 16.9872 90.733 17.0256 90.5497 17.0639C90.3665 17.1065 90.1342 17.1278 89.853 17.1278C89.4268 17.1278 89.0092 17.0362 88.6001 16.853C88.1953 16.6697 87.8587 16.3906 87.5902 16.0156C87.326 15.6406 87.1939 15.1676 87.1939 14.5966V4.82955Z" fill="#FFCC00"/>
</svg>
