<svg width="150" height="50" viewBox="0 0 150 50" fill="none" xmlns="http://www.w3.org/2000/svg">
<rect width="150" height="50" fill="white"/>
<path d="M5.34375 20.8864C4.61506 20.8864 3.98864 20.7926 3.46449 20.6051C2.94034 20.4219 2.50355 20.179 2.15412 19.8764C1.80895 19.5781 1.53409 19.2585 1.32955 18.9176L2.53125 18.0739C2.66761 18.2528 2.8402 18.4574 3.04901 18.6875C3.25781 18.9219 3.54332 19.1243 3.90554 19.2947C4.27202 19.4695 4.75142 19.5568 5.34375 19.5568C6.13636 19.5568 6.79048 19.3651 7.30611 18.9815C7.82173 18.598 8.07955 17.9972 8.07955 17.179V15.1847H7.9517C7.84091 15.3636 7.68324 15.5852 7.47869 15.8494C7.27841 16.1094 6.98864 16.3416 6.60938 16.5462C6.23438 16.7464 5.72727 16.8466 5.08807 16.8466C4.29545 16.8466 3.58381 16.6591 2.95312 16.2841C2.3267 15.9091 1.83026 15.3636 1.46378 14.6477C1.10156 13.9318 0.920455 13.0625 0.920455 12.0398C0.920455 11.0341 1.0973 10.1584 1.45099 9.41264C1.80469 8.66264 2.29688 8.0831 2.92756 7.67401C3.55824 7.26065 4.28693 7.05398 5.11364 7.05398C5.75284 7.05398 6.25994 7.16051 6.63494 7.37358C7.0142 7.58239 7.30398 7.82102 7.50426 8.08949C7.70881 8.35369 7.86648 8.57102 7.97727 8.74148H8.13068V7.18182H9.58807V17.2812C9.58807 18.125 9.39631 18.8111 9.01278 19.3395C8.63352 19.8722 8.12216 20.2621 7.47869 20.5092C6.83949 20.7607 6.12784 20.8864 5.34375 20.8864ZM5.29261 15.4915C5.89773 15.4915 6.40909 15.353 6.8267 15.076C7.24432 14.799 7.56179 14.4006 7.77912 13.8807C7.99645 13.3608 8.10511 12.7386 8.10511 12.0142C8.10511 11.3068 7.99858 10.6825 7.78551 10.1413C7.57244 9.60014 7.2571 9.17614 6.83949 8.86932C6.42188 8.5625 5.90625 8.40909 5.29261 8.40909C4.65341 8.40909 4.12074 8.57102 3.6946 8.89489C3.27273 9.21875 2.95526 9.65341 2.74219 10.1989C2.53338 10.7443 2.42898 11.3494 2.42898 12.0142C2.42898 12.696 2.53551 13.299 2.74858 13.8232C2.96591 14.343 3.28551 14.7521 3.70739 15.0504C4.13352 15.3445 4.66193 15.4915 5.29261 15.4915ZM12.3494 17V7.18182H13.8068V8.66477H13.9091C14.0881 8.17898 14.4119 7.7848 14.8807 7.48224C15.3494 7.17969 15.8778 7.02841 16.4659 7.02841C16.5767 7.02841 16.7152 7.03054 16.8814 7.0348C17.0476 7.03906 17.1733 7.04545 17.2585 7.05398V8.58807C17.2074 8.57528 17.0902 8.55611 16.907 8.53054C16.728 8.50071 16.5384 8.4858 16.3381 8.4858C15.8608 8.4858 15.4347 8.58594 15.0597 8.78622C14.6889 8.98224 14.3949 9.25497 14.1776 9.6044C13.9645 9.94957 13.858 10.3437 13.858 10.7869V17H12.3494ZM22.8643 17.2045C21.9183 17.2045 21.1023 16.9957 20.4162 16.5781C19.7344 16.1562 19.2081 15.5682 18.8374 14.8139C18.4709 14.0554 18.2876 13.1733 18.2876 12.1676C18.2876 11.1619 18.4709 10.2756 18.8374 9.50852C19.2081 8.73722 19.7237 8.13636 20.3842 7.70597C21.049 7.27131 21.8246 7.05398 22.7109 7.05398C23.2223 7.05398 23.7273 7.1392 24.2259 7.30966C24.7244 7.48011 25.1783 7.7571 25.5874 8.14062C25.9964 8.51989 26.3224 9.02273 26.5653 9.64915C26.8082 10.2756 26.9297 11.0469 26.9297 11.9631V12.6023H19.3615V11.2983H25.3956C25.3956 10.7443 25.2848 10.25 25.0632 9.81534C24.8459 9.38068 24.5348 9.03764 24.13 8.78622C23.7294 8.5348 23.2564 8.40909 22.7109 8.40909C22.1101 8.40909 21.5902 8.55824 21.1513 8.85653C20.7166 9.15057 20.3821 9.53409 20.1477 10.0071C19.9134 10.4801 19.7962 10.9872 19.7962 11.5284V12.3977C19.7962 13.1392 19.924 13.7678 20.1797 14.2834C20.4396 14.7947 20.7997 15.1847 21.2599 15.4531C21.7202 15.7173 22.255 15.8494 22.8643 15.8494C23.2607 15.8494 23.6186 15.794 23.9382 15.6832C24.2621 15.5682 24.5412 15.3977 24.7756 15.1719C25.0099 14.9418 25.1911 14.6562 25.3189 14.3153L26.7763 14.7244C26.6229 15.2188 26.3651 15.6534 26.0028 16.0284C25.6406 16.3991 25.1932 16.6889 24.6605 16.8977C24.1278 17.1023 23.5291 17.2045 22.8643 17.2045ZM33.3409 17.2045C32.3949 17.2045 31.5788 16.9957 30.8928 16.5781C30.2109 16.1562 29.6847 15.5682 29.3139 14.8139C28.9474 14.0554 28.7642 13.1733 28.7642 12.1676C28.7642 11.1619 28.9474 10.2756 29.3139 9.50852C29.6847 8.73722 30.2003 8.13636 30.8608 7.70597C31.5256 7.27131 32.3011 7.05398 33.1875 7.05398C33.6989 7.05398 34.2038 7.1392 34.7024 7.30966C35.201 7.48011 35.6548 7.7571 36.0639 8.14062C36.473 8.51989 36.799 9.02273 37.0419 9.64915C37.2848 10.2756 37.4062 11.0469 37.4062 11.9631V12.6023H29.8381V11.2983H35.8722C35.8722 10.7443 35.7614 10.25 35.5398 9.81534C35.3224 9.38068 35.0114 9.03764 34.6065 8.78622C34.206 8.5348 33.733 8.40909 33.1875 8.40909C32.5866 8.40909 32.0668 8.55824 31.6278 8.85653C31.1932 9.15057 30.8587 9.53409 30.6243 10.0071C30.3899 10.4801 30.2727 10.9872 30.2727 11.5284V12.3977C30.2727 13.1392 30.4006 13.7678 30.6562 14.2834C30.9162 14.7947 31.2763 15.1847 31.7365 15.4531C32.1967 15.7173 32.7315 15.8494 33.3409 15.8494C33.7372 15.8494 34.0952 15.794 34.4148 15.6832C34.7386 15.5682 35.0178 15.3977 35.2521 15.1719C35.4865 14.9418 35.6676 14.6562 35.7955 14.3153L37.2528 14.7244C37.0994 15.2188 36.8416 15.6534 36.4794 16.0284C36.1172 16.3991 35.6697 16.6889 35.1371 16.8977C34.6044 17.1023 34.0057 17.2045 33.3409 17.2045ZM41.2095 11.0938V17H39.701V7.18182H41.1584V8.71591H41.2862C41.5163 8.21733 41.8658 7.81676 42.3345 7.5142C42.8033 7.20739 43.4084 7.05398 44.1499 7.05398C44.8146 7.05398 45.3963 7.19034 45.8949 7.46307C46.3935 7.73153 46.7813 8.14062 47.0582 8.69034C47.3352 9.2358 47.4737 9.92614 47.4737 10.7614V17H45.9652V10.8636C45.9652 10.0923 45.7649 9.49148 45.3643 9.06108C44.9638 8.62642 44.4141 8.40909 43.7152 8.40909C43.2337 8.40909 42.8033 8.51349 42.424 8.7223C42.049 8.93111 41.7528 9.2358 41.5355 9.63636C41.3182 10.0369 41.2095 10.5227 41.2095 11.0938ZM59.5627 7.18182V8.46023H54.4746V7.18182H59.5627ZM55.9576 4.82955H57.4661V14.1875C57.4661 14.6136 57.5279 14.9332 57.6515 15.1463C57.7793 15.3551 57.9412 15.4957 58.1373 15.5682C58.3375 15.6364 58.5485 15.6705 58.7701 15.6705C58.9363 15.6705 59.0726 15.6619 59.1792 15.6449C59.2857 15.6236 59.3709 15.6065 59.4348 15.5938L59.7417 16.9489C59.6394 16.9872 59.4966 17.0256 59.3134 17.0639C59.1301 17.1065 58.8979 17.1278 58.6167 17.1278C58.1905 17.1278 57.7729 17.0362 57.3638 16.853C56.959 16.6697 56.6223 16.3906 56.3539 16.0156C56.0897 15.6406 55.9576 15.1676 55.9576 14.5966V4.82955ZM65.8429 17.2045C64.8968 17.2045 64.0808 16.9957 63.3947 16.5781C62.7129 16.1562 62.1866 15.5682 61.8159 14.8139C61.4494 14.0554 61.2662 13.1733 61.2662 12.1676C61.2662 11.1619 61.4494 10.2756 61.8159 9.50852C62.1866 8.73722 62.7022 8.13636 63.3627 7.70597C64.0275 7.27131 64.8031 7.05398 65.6895 7.05398C66.2008 7.05398 66.7058 7.1392 67.2044 7.30966C67.7029 7.48011 68.1568 7.7571 68.5659 8.14062C68.975 8.51989 69.301 9.02273 69.5439 9.64915C69.7868 10.2756 69.9082 11.0469 69.9082 11.9631V12.6023H62.34V11.2983H68.3741C68.3741 10.7443 68.2633 10.25 68.0417 9.81534C67.8244 9.38068 67.5133 9.03764 67.1085 8.78622C66.7079 8.5348 66.2349 8.40909 65.6895 8.40909C65.0886 8.40909 64.5687 8.55824 64.1298 8.85653C63.6951 9.15057 63.3606 9.53409 63.1262 10.0071C62.8919 10.4801 62.7747 10.9872 62.7747 11.5284V12.3977C62.7747 13.1392 62.9025 13.7678 63.1582 14.2834C63.4181 14.7947 63.7782 15.1847 64.2385 15.4531C64.6987 15.7173 65.2335 15.8494 65.8429 15.8494C66.2392 15.8494 66.5971 15.794 66.9167 15.6832C67.2406 15.5682 67.5197 15.3977 67.7541 15.1719C67.9885 14.9418 68.1696 14.6562 68.2974 14.3153L69.7548 14.7244C69.6014 15.2188 69.3436 15.6534 68.9814 16.0284C68.6191 16.3991 68.1717 16.6889 67.639 16.8977C67.1064 17.1023 66.5076 17.2045 65.8429 17.2045ZM73.0643 7.18182L75.4165 11.196L77.7688 7.18182H79.5075L76.337 12.0909L79.5075 17H77.7688L75.4165 13.1903L73.0643 17H71.3256L74.445 12.0909L71.3256 7.18182H73.0643ZM85.9299 7.18182V8.46023H80.8418V7.18182H85.9299ZM82.3248 4.82955H83.8333V14.1875C83.8333 14.6136 83.8951 14.9332 84.0186 15.1463C84.1465 15.3551 84.3084 15.4957 84.5044 15.5682C84.7047 15.6364 84.9157 15.6705 85.1373 15.6705C85.3034 15.6705 85.4398 15.6619 85.5463 15.6449C85.6529 15.6236 85.7381 15.6065 85.802 15.5938L86.1088 16.9489C86.0066 16.9872 85.8638 17.0256 85.6806 17.0639C85.4973 17.1065 85.2651 17.1278 84.9838 17.1278C84.5577 17.1278 84.1401 17.0362 83.731 16.853C83.3262 16.6697 82.9895 16.3906 82.7211 16.0156C82.4569 15.6406 82.3248 15.1676 82.3248 14.5966V4.82955Z" fill="#00CC00"/>
</svg>
