<svg width="180" height="120" viewBox="0 0 180 120" fill="none" xmlns="http://www.w3.org/2000/svg">
<g clip-path="url(#clip0_0_1163)">
<rect width="180" height="120" fill="white"/>
<path d="M1.23295 14V3.81818H4.79261C5.50189 3.81818 6.08688 3.94081 6.54759 4.18608C7.00829 4.42803 7.35133 4.7545 7.5767 5.16548C7.80208 5.57315 7.91477 6.02557 7.91477 6.52273C7.91477 6.96023 7.83688 7.3215 7.68111 7.60653C7.52865 7.89157 7.32647 8.11695 7.07457 8.28267C6.82599 8.44839 6.55587 8.57102 6.2642 8.65057V8.75C6.57576 8.76989 6.88897 8.87926 7.20384 9.07812C7.5187 9.27699 7.7822 9.56203 7.99432 9.93324C8.20644 10.3045 8.3125 10.7585 8.3125 11.2955C8.3125 11.8059 8.1965 12.2649 7.96449 12.6726C7.73248 13.0803 7.36624 13.4034 6.86577 13.642C6.36529 13.8807 5.71402 14 4.91193 14H1.23295ZM2.46591 12.9062H4.91193C5.71733 12.9062 6.28906 12.7505 6.62713 12.4389C6.96851 12.1241 7.1392 11.7429 7.1392 11.2955C7.1392 10.9508 7.05137 10.6326 6.87571 10.3409C6.70005 10.0459 6.44981 9.81061 6.125 9.63494C5.80019 9.45597 5.41572 9.36648 4.97159 9.36648H2.46591V12.9062ZM2.46591 8.29261H4.75284C5.12405 8.29261 5.45881 8.2197 5.7571 8.07386C6.05871 7.92803 6.29735 7.72254 6.47301 7.45739C6.65199 7.19223 6.74148 6.88068 6.74148 6.52273C6.74148 6.07528 6.5857 5.69579 6.27415 5.38423C5.9626 5.06937 5.46875 4.91193 4.79261 4.91193H2.46591V8.29261ZM13.381 14.1591C12.6452 14.1591 12.0105 13.9967 11.4769 13.6719C10.9466 13.3438 10.5373 12.8864 10.2489 12.2997C9.9639 11.7098 9.82138 11.0237 9.82138 10.2415C9.82138 9.45928 9.9639 8.76989 10.2489 8.1733C10.5373 7.57339 10.9383 7.10606 11.4521 6.77131C11.9691 6.43324 12.5723 6.2642 13.2617 6.2642C13.6594 6.2642 14.0522 6.33049 14.44 6.46307C14.8278 6.59564 15.1808 6.81108 15.4989 7.10938C15.8171 7.40436 16.0707 7.79545 16.2596 8.28267C16.4485 8.76989 16.543 9.36979 16.543 10.0824V10.5795H10.6566V9.56534H15.3498C15.3498 9.13447 15.2636 8.75 15.0913 8.41193C14.9222 8.07386 14.6803 7.80705 14.3654 7.61151C14.0539 7.41596 13.686 7.31818 13.2617 7.31818C12.7944 7.31818 12.39 7.43419 12.0487 7.66619C11.7106 7.89489 11.4504 8.19318 11.2681 8.56108C11.0858 8.92898 10.9947 9.32339 10.9947 9.74432V10.4205C10.9947 10.9972 11.0941 11.486 11.293 11.8871C11.4951 12.2848 11.7752 12.5881 12.1332 12.7969C12.4911 13.0024 12.9071 13.1051 13.381 13.1051C13.6893 13.1051 13.9677 13.062 14.2163 12.9759C14.4682 12.8864 14.6853 12.7538 14.8675 12.5781C15.0498 12.3991 15.1907 12.1771 15.2901 11.9119L16.4237 12.2301C16.3043 12.6146 16.1038 12.9527 15.8221 13.2443C15.5404 13.5327 15.1924 13.758 14.7781 13.9205C14.3638 14.0795 13.8981 14.1591 13.381 14.1591ZM21.7283 6.36364V7.35795H17.6119V6.36364H21.7283ZM18.8448 14V5.30966C18.8448 4.87216 18.9476 4.50758 19.1531 4.21591C19.3585 3.92424 19.6254 3.70549 19.9535 3.55966C20.2816 3.41383 20.628 3.34091 20.9925 3.34091C21.2809 3.34091 21.5162 3.36411 21.6985 3.41051C21.8808 3.45691 22.0167 3.5 22.1062 3.53977L21.7681 4.55398C21.7085 4.53409 21.6256 4.50923 21.5195 4.4794C21.4168 4.44957 21.2809 4.43466 21.1119 4.43466C20.7241 4.43466 20.444 4.53243 20.2717 4.72798C20.1026 4.92353 20.0181 5.21023 20.0181 5.58807V14H18.8448ZM26.1605 14.1591C25.4711 14.1591 24.8662 13.995 24.3459 13.6669C23.8288 13.3388 23.4245 12.8797 23.1328 12.2898C22.8445 11.6998 22.7003 11.0104 22.7003 10.2216C22.7003 9.42614 22.8445 8.73177 23.1328 8.13849C23.4245 7.54522 23.8288 7.08452 24.3459 6.75639C24.8662 6.42827 25.4711 6.2642 26.1605 6.2642C26.8499 6.2642 27.4531 6.42827 27.9702 6.75639C28.4905 7.08452 28.8949 7.54522 29.1832 8.13849C29.4749 8.73177 29.6207 9.42614 29.6207 10.2216C29.6207 11.0104 29.4749 11.6998 29.1832 12.2898C28.8949 12.8797 28.4905 13.3388 27.9702 13.6669C27.4531 13.995 26.8499 14.1591 26.1605 14.1591ZM26.1605 13.1051C26.6842 13.1051 27.1151 12.9709 27.4531 12.7024C27.7912 12.4339 28.0414 12.081 28.2038 11.6435C28.3662 11.206 28.4474 10.732 28.4474 10.2216C28.4474 9.71117 28.3662 9.23556 28.2038 8.79474C28.0414 8.35393 27.7912 7.99763 27.4531 7.72585C27.1151 7.45407 26.6842 7.31818 26.1605 7.31818C25.6368 7.31818 25.206 7.45407 24.8679 7.72585C24.5298 7.99763 24.2796 8.35393 24.1172 8.79474C23.9548 9.23556 23.8736 9.71117 23.8736 10.2216C23.8736 10.732 23.9548 11.206 24.1172 11.6435C24.2796 12.081 24.5298 12.4339 24.8679 12.7024C25.206 12.9709 25.6368 13.1051 26.1605 13.1051ZM31.4118 14V6.36364H32.5453V7.51705H32.6248C32.764 7.1392 33.0159 6.83262 33.3805 6.5973C33.7451 6.36198 34.1561 6.24432 34.6135 6.24432C34.6996 6.24432 34.8074 6.24597 34.9366 6.24929C35.0659 6.2526 35.1636 6.25758 35.2299 6.2642V7.45739C35.1902 7.44744 35.099 7.43253 34.9565 7.41264C34.8173 7.38944 34.6698 7.37784 34.514 7.37784C34.1428 7.37784 33.8114 7.45573 33.5197 7.61151C33.2314 7.76397 33.0027 7.97609 32.8336 8.24787C32.6679 8.51634 32.585 8.82292 32.585 9.16761V14H31.4118ZM39.59 14.1591C38.8542 14.1591 38.2195 13.9967 37.6859 13.6719C37.1556 13.3438 36.7463 12.8864 36.4579 12.2997C36.1729 11.7098 36.0304 11.0237 36.0304 10.2415C36.0304 9.45928 36.1729 8.76989 36.4579 8.1733C36.7463 7.57339 37.1473 7.10606 37.661 6.77131C38.1781 6.43324 38.7813 6.2642 39.4707 6.2642C39.8684 6.2642 40.2612 6.33049 40.649 6.46307C41.0368 6.59564 41.3897 6.81108 41.7079 7.10938C42.0261 7.40436 42.2797 7.79545 42.4686 8.28267C42.6575 8.76989 42.752 9.36979 42.752 10.0824V10.5795H36.8656V9.56534H41.5588C41.5588 9.13447 41.4726 8.75 41.3002 8.41193C41.1312 8.07386 40.8893 7.80705 40.5744 7.61151C40.2628 7.41596 39.8949 7.31818 39.4707 7.31818C39.0034 7.31818 38.599 7.43419 38.2576 7.66619C37.9196 7.89489 37.6594 8.19318 37.4771 8.56108C37.2948 8.92898 37.2037 9.32339 37.2037 9.74432V10.4205C37.2037 10.9972 37.3031 11.486 37.502 11.8871C37.7041 12.2848 37.9842 12.5881 38.3422 12.7969C38.7001 13.0024 39.1161 13.1051 39.59 13.1051C39.8983 13.1051 40.1767 13.062 40.4252 12.9759C40.6771 12.8864 40.8942 12.7538 41.0765 12.5781C41.2588 12.3991 41.3997 12.1771 41.4991 11.9119L42.6326 12.2301C42.5133 12.6146 42.3128 12.9527 42.0311 13.2443C41.7493 13.5327 41.4013 13.758 40.987 13.9205C40.5727 14.0795 40.1071 14.1591 39.59 14.1591ZM1.65057 64H0.357955L4.09659 53.8182H5.36932L9.10795 64H7.81534L4.77273 55.429H4.69318L1.65057 64ZM2.12784 60.0227H7.33807V61.1165H2.12784V60.0227ZM13.9354 56.3636V57.358H9.81889V56.3636H13.9354ZM11.0518 64V55.3097C11.0518 54.8722 11.1546 54.5076 11.3601 54.2159C11.5656 53.9242 11.8324 53.7055 12.1605 53.5597C12.4886 53.4138 12.835 53.3409 13.1996 53.3409C13.4879 53.3409 13.7232 53.3641 13.9055 53.4105C14.0878 53.4569 14.2237 53.5 14.3132 53.5398L13.9751 54.554C13.9155 54.5341 13.8326 54.5092 13.7266 54.4794C13.6238 54.4496 13.4879 54.4347 13.3189 54.4347C12.9311 54.4347 12.651 54.5324 12.4787 54.728C12.3097 54.9235 12.2251 55.2102 12.2251 55.5881V64H11.0518ZM18.9007 56.3636V57.358H14.9434V56.3636H18.9007ZM16.0968 54.5341H17.2701V61.8125C17.2701 62.1439 17.3181 62.3925 17.4142 62.5582C17.5137 62.7206 17.6396 62.83 17.7921 62.8864C17.9479 62.9394 18.1119 62.9659 18.2843 62.9659C18.4135 62.9659 18.5196 62.9593 18.6025 62.946C18.6853 62.9295 18.7516 62.9162 18.8013 62.9062L19.04 63.9602C18.9604 63.9901 18.8494 64.0199 18.7069 64.0497C18.5643 64.0829 18.3837 64.0994 18.165 64.0994C17.8335 64.0994 17.5087 64.0282 17.1905 63.8857C16.8757 63.7431 16.6138 63.526 16.405 63.2344C16.1995 62.9427 16.0968 62.5748 16.0968 62.1307V54.5341ZM23.7853 64.1591C23.0495 64.1591 22.4148 63.9967 21.8812 63.6719C21.3509 63.3438 20.9416 62.8864 20.6532 62.2997C20.3682 61.7098 20.2257 61.0237 20.2257 60.2415C20.2257 59.4593 20.3682 58.7699 20.6532 58.1733C20.9416 57.5734 21.3426 57.1061 21.8564 56.7713C22.3734 56.4332 22.9766 56.2642 23.666 56.2642C24.0637 56.2642 24.4565 56.3305 24.8443 56.4631C25.2321 56.5956 25.5851 56.8111 25.9032 57.1094C26.2214 57.4044 26.475 57.7955 26.6639 58.2827C26.8528 58.7699 26.9473 59.3698 26.9473 60.0824V60.5795H21.0609V59.5653H25.7541C25.7541 59.1345 25.6679 58.75 25.4956 58.4119C25.3265 58.0739 25.0846 57.8071 24.7697 57.6115C24.4582 57.416 24.0903 57.3182 23.666 57.3182C23.1987 57.3182 22.7943 57.4342 22.4529 57.6662C22.1149 57.8949 21.8547 58.1932 21.6724 58.5611C21.4901 58.929 21.399 59.3234 21.399 59.7443V60.4205C21.399 60.9972 21.4984 61.486 21.6973 61.8871C21.8994 62.2848 22.1795 62.5881 22.5375 62.7969C22.8954 63.0024 23.3114 63.1051 23.7853 63.1051C24.0936 63.1051 24.372 63.062 24.6206 62.9759C24.8725 62.8864 25.0895 62.7538 25.2718 62.5781C25.4541 62.3991 25.595 62.1771 25.6944 61.9119L26.8279 62.2301C26.7086 62.6146 26.5081 62.9527 26.2264 63.2443C25.9447 63.5327 25.5967 63.758 25.1824 63.9205C24.7681 64.0795 24.3024 64.1591 23.7853 64.1591ZM28.7321 64V56.3636H29.8656V57.517H29.9451C30.0843 57.1392 30.3362 56.8326 30.7008 56.5973C31.0654 56.362 31.4764 56.2443 31.9338 56.2443C32.0199 56.2443 32.1277 56.246 32.2569 56.2493C32.3862 56.2526 32.484 56.2576 32.5502 56.2642V57.4574C32.5105 57.4474 32.4193 57.4325 32.2768 57.4126C32.1376 57.3894 31.9901 57.3778 31.8343 57.3778C31.4631 57.3778 31.1317 57.4557 30.84 57.6115C30.5517 57.764 30.323 57.9761 30.1539 58.2479C29.9882 58.5163 29.9054 58.8229 29.9054 59.1676V64H28.7321Z" fill="black"/>
</g>
<defs>
<clipPath id="clip0_0_1163">
<rect width="180" height="120" fill="white"/>
</clipPath>
</defs>
</svg>
