<svg width="150" height="80" viewBox="0 0 150 80" fill="none" xmlns="http://www.w3.org/2000/svg">
<g clip-path="url(#clip0_0_1021)">
<rect width="150" height="80" fill="white"/>
<path d="M1.65057 37H0.357955L4.09659 26.8182H5.36932L9.10795 37H7.81534L4.77273 28.429H4.69318L1.65057 37ZM2.12784 33.0227H7.33807V34.1165H2.12784V33.0227ZM11.7081 26.8182V37H10.5348V26.8182H11.7081ZM13.8571 37V29.3636H15.0304V37H13.8571ZM14.4537 28.0909C14.225 28.0909 14.0278 28.013 13.862 27.8572C13.6996 27.7015 13.6184 27.5142 13.6184 27.2955C13.6184 27.0767 13.6996 26.8894 13.862 26.7337C14.0278 26.5779 14.225 26.5 14.4537 26.5C14.6824 26.5 14.8779 26.5779 15.0403 26.7337C15.206 26.8894 15.2889 27.0767 15.2889 27.2955C15.2889 27.5142 15.206 27.7015 15.0403 27.8572C14.8779 28.013 14.6824 28.0909 14.4537 28.0909ZM20.2617 40.0227C19.695 40.0227 19.2077 39.9498 18.8001 39.804C18.3924 39.6615 18.0527 39.4725 17.7809 39.2372C17.5124 39.0052 17.2987 38.7566 17.1396 38.4915L18.0742 37.8352C18.1803 37.9744 18.3145 38.1335 18.4769 38.3125C18.6393 38.4948 18.8614 38.6522 19.1431 38.7848C19.4281 38.9207 19.801 38.9886 20.2617 38.9886C20.8782 38.9886 21.387 38.8395 21.788 38.5412C22.189 38.2429 22.3896 37.7756 22.3896 37.1392V35.5881H22.2901C22.204 35.7273 22.0813 35.8996 21.9222 36.1051C21.7665 36.3073 21.5411 36.4879 21.2461 36.647C20.9544 36.8028 20.56 36.8807 20.0629 36.8807C19.4464 36.8807 18.8929 36.7348 18.4023 36.4432C17.9151 36.1515 17.529 35.7273 17.244 35.1705C16.9622 34.6136 16.8214 33.9375 16.8214 33.142C16.8214 32.3598 16.9589 31.6787 17.234 31.0987C17.5091 30.5154 17.8919 30.0646 18.3825 29.7464C18.873 29.425 19.4397 29.2642 20.0827 29.2642C20.5799 29.2642 20.9743 29.3471 21.266 29.5128C21.561 29.6752 21.7863 29.8608 21.9421 30.0696C22.1012 30.2751 22.2238 30.4441 22.31 30.5767H22.4293V29.3636H23.5629V37.2188C23.5629 37.875 23.4137 38.4086 23.1154 38.8196C22.8204 39.2339 22.4227 39.5372 21.9222 39.7294C21.4251 39.925 20.8716 40.0227 20.2617 40.0227ZM20.2219 35.8267C20.6926 35.8267 21.0903 35.719 21.4151 35.5036C21.7399 35.2881 21.9869 34.9782 22.1559 34.5739C22.3249 34.1695 22.4094 33.6856 22.4094 33.1222C22.4094 32.572 22.3266 32.0864 22.1609 31.6655C21.9951 31.2446 21.7499 30.9148 21.4251 30.6761C21.1003 30.4375 20.6992 30.3182 20.2219 30.3182C19.7248 30.3182 19.3105 30.4441 18.979 30.696C18.6509 30.9479 18.404 31.286 18.2383 31.7102C18.0759 32.1345 17.9947 32.6051 17.9947 33.1222C17.9947 33.6525 18.0775 34.1214 18.2433 34.5291C18.4123 34.9335 18.6609 35.2517 18.989 35.4837C19.3204 35.7124 19.7314 35.8267 20.2219 35.8267ZM26.8839 32.4062V37H25.7106V29.3636H26.8441V30.5568H26.9435C27.1225 30.169 27.3943 29.8575 27.7589 29.6222C28.1235 29.3835 28.5941 29.2642 29.1708 29.2642C29.6879 29.2642 30.1403 29.3703 30.5281 29.5824C30.9158 29.7912 31.2174 30.1094 31.4329 30.5369C31.6483 30.9612 31.756 31.4981 31.756 32.1477V37H30.5827V32.2273C30.5827 31.6274 30.427 31.16 30.1154 30.8253C29.8039 30.4872 29.3763 30.3182 28.8327 30.3182C28.4582 30.3182 28.1235 30.3994 27.8285 30.5618C27.5368 30.7242 27.3065 30.9612 27.1374 31.2727C26.9684 31.5843 26.8839 31.9621 26.8839 32.4062ZM0.676136 44.9119V43.8182H8.3125V44.9119H5.1108V54H3.87784V44.9119H0.676136ZM12.1506 54.1591C11.4148 54.1591 10.7801 53.9967 10.2464 53.6719C9.71615 53.3438 9.30682 52.8864 9.01847 52.2997C8.73343 51.7098 8.59091 51.0237 8.59091 50.2415C8.59091 49.4593 8.73343 48.7699 9.01847 48.1733C9.30682 47.5734 9.70786 47.1061 10.2216 46.7713C10.7386 46.4332 11.3419 46.2642 12.0312 46.2642C12.429 46.2642 12.8217 46.3305 13.2095 46.4631C13.5973 46.5956 13.9503 46.8111 14.2685 47.1094C14.5866 47.4044 14.8402 47.7955 15.0291 48.2827C15.218 48.7699 15.3125 49.3698 15.3125 50.0824V50.5795H9.42614V49.5653H14.1193C14.1193 49.1345 14.0331 48.75 13.8608 48.4119C13.6918 48.0739 13.4498 47.8071 13.1349 47.6115C12.8234 47.416 12.4555 47.3182 12.0312 47.3182C11.5639 47.3182 11.1596 47.4342 10.8182 47.6662C10.4801 47.8949 10.2199 48.1932 10.0376 48.5611C9.85535 48.929 9.7642 49.3234 9.7642 49.7443V50.4205C9.7642 50.9972 9.86364 51.486 10.0625 51.8871C10.2647 52.2848 10.5447 52.5881 10.9027 52.7969C11.2607 53.0024 11.6766 53.1051 12.1506 53.1051C12.4588 53.1051 12.7372 53.062 12.9858 52.9759C13.2377 52.8864 13.4548 52.7538 13.6371 52.5781C13.8194 52.3991 13.9602 52.1771 14.0597 51.9119L15.1932 52.2301C15.0739 52.6146 14.8733 52.9527 14.5916 53.2443C14.3099 53.5327 13.9619 53.758 13.5476 53.9205C13.1333 54.0795 12.6676 54.1591 12.1506 54.1591ZM22.5064 48.0739L21.4524 48.3722C21.3861 48.1965 21.2884 48.0258 21.1591 47.8601C21.0331 47.6911 20.8608 47.5518 20.642 47.4425C20.4233 47.3331 20.1432 47.2784 19.8018 47.2784C19.3345 47.2784 18.9451 47.3861 18.6335 47.6016C18.3253 47.8137 18.1712 48.0838 18.1712 48.4119C18.1712 48.7036 18.2772 48.9339 18.4893 49.103C18.7015 49.272 19.0329 49.4129 19.4837 49.5256L20.6172 49.804C21.3 49.9697 21.8087 50.2232 22.1435 50.5646C22.4782 50.9027 22.6456 51.3385 22.6456 51.8722C22.6456 52.3097 22.5196 52.7008 22.2678 53.0455C22.0192 53.3902 21.6712 53.6619 21.2237 53.8608C20.7763 54.0597 20.2559 54.1591 19.6626 54.1591C18.8838 54.1591 18.2391 53.9901 17.7287 53.652C17.2183 53.3139 16.8951 52.8201 16.7592 52.1705L17.8729 51.892C17.9789 52.303 18.1795 52.6113 18.4744 52.8168C18.7727 53.0223 19.1622 53.125 19.6428 53.125C20.1896 53.125 20.6238 53.009 20.9453 52.777C21.2701 52.5417 21.4325 52.2599 21.4325 51.9318C21.4325 51.6667 21.3397 51.4446 21.1541 51.2656C20.9685 51.0833 20.6835 50.9474 20.299 50.858L19.0263 50.5597C18.3269 50.3939 17.8132 50.1371 17.4851 49.7891C17.1603 49.4377 16.9979 48.9986 16.9979 48.4716C16.9979 48.0407 17.1188 47.6596 17.3608 47.3281C17.6061 46.9967 17.9392 46.7365 18.3601 46.5476C18.7843 46.3587 19.2649 46.2642 19.8018 46.2642C20.5575 46.2642 21.1508 46.4299 21.5817 46.7614C22.0159 47.0928 22.3241 47.5303 22.5064 48.0739ZM27.7328 46.3636V47.358H23.7754V46.3636H27.7328ZM24.9288 44.5341H26.1021V51.8125C26.1021 52.1439 26.1502 52.3925 26.2463 52.5582C26.3457 52.7206 26.4717 52.83 26.6241 52.8864C26.7799 52.9394 26.944 52.9659 27.1163 52.9659C27.2456 52.9659 27.3516 52.9593 27.4345 52.946C27.5173 52.9295 27.5836 52.9162 27.6333 52.9062L27.872 53.9602C27.7924 53.9901 27.6814 54.0199 27.5389 54.0497C27.3964 54.0829 27.2157 54.0994 26.997 54.0994C26.6655 54.0994 26.3407 54.0282 26.0225 53.8857C25.7077 53.7431 25.4458 53.526 25.237 53.2344C25.0315 52.9427 24.9288 52.5748 24.9288 52.1307V44.5341Z" fill="black"/>
</g>
<defs>
<clipPath id="clip0_0_1021">
<rect width="150" height="80" fill="white"/>
</clipPath>
</defs>
</svg>
