<svg width="150" height="80" viewBox="0 0 150 80" fill="none" xmlns="http://www.w3.org/2000/svg">
<g clip-path="url(#clip0_0_1023)">
<rect width="150" height="80" fill="white"/>
<path d="M1.65057 60H0.357955L4.09659 49.8182H5.36932L9.10795 60H7.81534L4.77273 51.429H4.69318L1.65057 60ZM2.12784 56.0227H7.33807V57.1165H2.12784V56.0227ZM11.7081 49.8182V60H10.5348V49.8182H11.7081ZM13.8571 60V52.3636H15.0304V60H13.8571ZM14.4537 51.0909C14.225 51.0909 14.0278 51.013 13.862 50.8572C13.6996 50.7015 13.6184 50.5142 13.6184 50.2955C13.6184 50.0767 13.6996 49.8894 13.862 49.7337C14.0278 49.5779 14.225 49.5 14.4537 49.5C14.6824 49.5 14.8779 49.5779 15.0403 49.7337C15.206 49.8894 15.2889 50.0767 15.2889 50.2955C15.2889 50.5142 15.206 50.7015 15.0403 50.8572C14.8779 51.013 14.6824 51.0909 14.4537 51.0909ZM20.2617 63.0227C19.695 63.0227 19.2077 62.9498 18.8001 62.804C18.3924 62.6615 18.0527 62.4725 17.7809 62.2372C17.5124 62.0052 17.2987 61.7566 17.1396 61.4915L18.0742 60.8352C18.1803 60.9744 18.3145 61.1335 18.4769 61.3125C18.6393 61.4948 18.8614 61.6522 19.1431 61.7848C19.4281 61.9207 19.801 61.9886 20.2617 61.9886C20.8782 61.9886 21.387 61.8395 21.788 61.5412C22.189 61.2429 22.3896 60.7756 22.3896 60.1392V58.5881H22.2901C22.204 58.7273 22.0813 58.8996 21.9222 59.1051C21.7665 59.3073 21.5411 59.4879 21.2461 59.647C20.9544 59.8028 20.56 59.8807 20.0629 59.8807C19.4464 59.8807 18.8929 59.7348 18.4023 59.4432C17.9151 59.1515 17.529 58.7273 17.244 58.1705C16.9622 57.6136 16.8214 56.9375 16.8214 56.142C16.8214 55.3598 16.9589 54.6787 17.234 54.0987C17.5091 53.5154 17.8919 53.0646 18.3825 52.7464C18.873 52.425 19.4397 52.2642 20.0827 52.2642C20.5799 52.2642 20.9743 52.3471 21.266 52.5128C21.561 52.6752 21.7863 52.8608 21.9421 53.0696C22.1012 53.2751 22.2238 53.4441 22.31 53.5767H22.4293V52.3636H23.5629V60.2188C23.5629 60.875 23.4137 61.4086 23.1154 61.8196C22.8204 62.2339 22.4227 62.5372 21.9222 62.7294C21.4251 62.925 20.8716 63.0227 20.2617 63.0227ZM20.2219 58.8267C20.6926 58.8267 21.0903 58.719 21.4151 58.5036C21.7399 58.2881 21.9869 57.9782 22.1559 57.5739C22.3249 57.1695 22.4094 56.6856 22.4094 56.1222C22.4094 55.572 22.3266 55.0864 22.1609 54.6655C21.9951 54.2446 21.7499 53.9148 21.4251 53.6761C21.1003 53.4375 20.6992 53.3182 20.2219 53.3182C19.7248 53.3182 19.3105 53.4441 18.979 53.696C18.6509 53.9479 18.404 54.286 18.2383 54.7102C18.0759 55.1345 17.9947 55.6051 17.9947 56.1222C17.9947 56.6525 18.0775 57.1214 18.2433 57.5291C18.4123 57.9335 18.6609 58.2517 18.989 58.4837C19.3204 58.7124 19.7314 58.8267 20.2219 58.8267ZM26.8839 55.4062V60H25.7106V52.3636H26.8441V53.5568H26.9435C27.1225 53.169 27.3943 52.8575 27.7589 52.6222C28.1235 52.3835 28.5941 52.2642 29.1708 52.2642C29.6879 52.2642 30.1403 52.3703 30.5281 52.5824C30.9158 52.7912 31.2174 53.1094 31.4329 53.5369C31.6483 53.9612 31.756 54.4981 31.756 55.1477V60H30.5827V55.2273C30.5827 54.6274 30.427 54.16 30.1154 53.8253C29.8039 53.4872 29.3763 53.3182 28.8327 53.3182C28.4582 53.3182 28.1235 53.3994 27.8285 53.5618C27.5368 53.7242 27.3065 53.9612 27.1374 54.2727C26.9684 54.5843 26.8839 54.9621 26.8839 55.4062ZM0.676136 67.9119V66.8182H8.3125V67.9119H5.1108V77H3.87784V67.9119H0.676136ZM12.1506 77.1591C11.4148 77.1591 10.7801 76.9967 10.2464 76.6719C9.71615 76.3438 9.30682 75.8864 9.01847 75.2997C8.73343 74.7098 8.59091 74.0237 8.59091 73.2415C8.59091 72.4593 8.73343 71.7699 9.01847 71.1733C9.30682 70.5734 9.70786 70.1061 10.2216 69.7713C10.7386 69.4332 11.3419 69.2642 12.0312 69.2642C12.429 69.2642 12.8217 69.3305 13.2095 69.4631C13.5973 69.5956 13.9503 69.8111 14.2685 70.1094C14.5866 70.4044 14.8402 70.7955 15.0291 71.2827C15.218 71.7699 15.3125 72.3698 15.3125 73.0824V73.5795H9.42614V72.5653H14.1193C14.1193 72.1345 14.0331 71.75 13.8608 71.4119C13.6918 71.0739 13.4498 70.8071 13.1349 70.6115C12.8234 70.416 12.4555 70.3182 12.0312 70.3182C11.5639 70.3182 11.1596 70.4342 10.8182 70.6662C10.4801 70.8949 10.2199 71.1932 10.0376 71.5611C9.85535 71.929 9.7642 72.3234 9.7642 72.7443V73.4205C9.7642 73.9972 9.86364 74.486 10.0625 74.8871C10.2647 75.2848 10.5447 75.5881 10.9027 75.7969C11.2607 76.0024 11.6766 76.1051 12.1506 76.1051C12.4588 76.1051 12.7372 76.062 12.9858 75.9759C13.2377 75.8864 13.4548 75.7538 13.6371 75.5781C13.8194 75.3991 13.9602 75.1771 14.0597 74.9119L15.1932 75.2301C15.0739 75.6146 14.8733 75.9527 14.5916 76.2443C14.3099 76.5327 13.9619 76.758 13.5476 76.9205C13.1333 77.0795 12.6676 77.1591 12.1506 77.1591ZM22.5064 71.0739L21.4524 71.3722C21.3861 71.1965 21.2884 71.0258 21.1591 70.8601C21.0331 70.6911 20.8608 70.5518 20.642 70.4425C20.4233 70.3331 20.1432 70.2784 19.8018 70.2784C19.3345 70.2784 18.9451 70.3861 18.6335 70.6016C18.3253 70.8137 18.1712 71.0838 18.1712 71.4119C18.1712 71.7036 18.2772 71.9339 18.4893 72.103C18.7015 72.272 19.0329 72.4129 19.4837 72.5256L20.6172 72.804C21.3 72.9697 21.8087 73.2232 22.1435 73.5646C22.4782 73.9027 22.6456 74.3385 22.6456 74.8722C22.6456 75.3097 22.5196 75.7008 22.2678 76.0455C22.0192 76.3902 21.6712 76.6619 21.2237 76.8608C20.7763 77.0597 20.2559 77.1591 19.6626 77.1591C18.8838 77.1591 18.2391 76.9901 17.7287 76.652C17.2183 76.3139 16.8951 75.8201 16.7592 75.1705L17.8729 74.892C17.9789 75.303 18.1795 75.6113 18.4744 75.8168C18.7727 76.0223 19.1622 76.125 19.6428 76.125C20.1896 76.125 20.6238 76.009 20.9453 75.777C21.2701 75.5417 21.4325 75.2599 21.4325 74.9318C21.4325 74.6667 21.3397 74.4446 21.1541 74.2656C20.9685 74.0833 20.6835 73.9474 20.299 73.858L19.0263 73.5597C18.3269 73.3939 17.8132 73.1371 17.4851 72.7891C17.1603 72.4377 16.9979 71.9986 16.9979 71.4716C16.9979 71.0407 17.1188 70.6596 17.3608 70.3281C17.6061 69.9967 17.9392 69.7365 18.3601 69.5476C18.7843 69.3587 19.2649 69.2642 19.8018 69.2642C20.5575 69.2642 21.1508 69.4299 21.5817 69.7614C22.0159 70.0928 22.3241 70.5303 22.5064 71.0739ZM27.7328 69.3636V70.358H23.7754V69.3636H27.7328ZM24.9288 67.5341H26.1021V74.8125C26.1021 75.1439 26.1502 75.3925 26.2463 75.5582C26.3457 75.7206 26.4717 75.83 26.6241 75.8864C26.7799 75.9394 26.944 75.9659 27.1163 75.9659C27.2456 75.9659 27.3516 75.9593 27.4345 75.946C27.5173 75.9295 27.5836 75.9162 27.6333 75.9062L27.872 76.9602C27.7924 76.9901 27.6814 77.0199 27.5389 77.0497C27.3964 77.0829 27.2157 77.0994 26.997 77.0994C26.6655 77.0994 26.3407 77.0282 26.0225 76.8857C25.7077 76.7431 25.4458 76.526 25.237 76.2344C25.0315 75.9427 24.9288 75.5748 24.9288 75.1307V67.5341Z" fill="black"/>
</g>
<defs>
<clipPath id="clip0_0_1023">
<rect width="150" height="80" fill="white"/>
</clipPath>
</defs>
</svg>
