<svg width="150" height="80" viewBox="0 0 150 80" fill="none" xmlns="http://www.w3.org/2000/svg">
<g clip-path="url(#clip0_0_1019)">
<rect width="150" height="80" fill="white"/>
<path d="M1.65057 14H0.357955L4.09659 3.81818H5.36932L9.10795 14H7.81534L4.77273 5.42898H4.69318L1.65057 14ZM2.12784 10.0227H7.33807V11.1165H2.12784V10.0227ZM11.7081 3.81818V14H10.5348V3.81818H11.7081ZM13.8571 14V6.36364H15.0304V14H13.8571ZM14.4537 5.09091C14.225 5.09091 14.0278 5.01302 13.862 4.85724C13.6996 4.70147 13.6184 4.5142 13.6184 4.29545C13.6184 4.0767 13.6996 3.88944 13.862 3.73366C14.0278 3.57789 14.225 3.5 14.4537 3.5C14.6824 3.5 14.8779 3.57789 15.0403 3.73366C15.206 3.88944 15.2889 4.0767 15.2889 4.29545C15.2889 4.5142 15.206 4.70147 15.0403 4.85724C14.8779 5.01302 14.6824 5.09091 14.4537 5.09091ZM20.2617 17.0227C19.695 17.0227 19.2077 16.9498 18.8001 16.804C18.3924 16.6615 18.0527 16.4725 17.7809 16.2372C17.5124 16.0052 17.2987 15.7566 17.1396 15.4915L18.0742 14.8352C18.1803 14.9744 18.3145 15.1335 18.4769 15.3125C18.6393 15.4948 18.8614 15.6522 19.1431 15.7848C19.4281 15.9207 19.801 15.9886 20.2617 15.9886C20.8782 15.9886 21.387 15.8395 21.788 15.5412C22.189 15.2429 22.3896 14.7756 22.3896 14.1392V12.5881H22.2901C22.204 12.7273 22.0813 12.8996 21.9222 13.1051C21.7665 13.3073 21.5411 13.4879 21.2461 13.647C20.9544 13.8028 20.56 13.8807 20.0629 13.8807C19.4464 13.8807 18.8929 13.7348 18.4023 13.4432C17.9151 13.1515 17.529 12.7273 17.244 12.1705C16.9622 11.6136 16.8214 10.9375 16.8214 10.142C16.8214 9.35985 16.9589 8.67874 17.234 8.09872C17.5091 7.51539 17.8919 7.06463 18.3825 6.74645C18.873 6.42495 19.4397 6.2642 20.0827 6.2642C20.5799 6.2642 20.9743 6.34706 21.266 6.51278C21.561 6.67519 21.7863 6.8608 21.9421 7.0696C22.1012 7.27509 22.2238 7.44413 22.31 7.5767H22.4293V6.36364H23.5629V14.2188C23.5629 14.875 23.4137 15.4086 23.1154 15.8196C22.8204 16.2339 22.4227 16.5372 21.9222 16.7294C21.4251 16.925 20.8716 17.0227 20.2617 17.0227ZM20.2219 12.8267C20.6926 12.8267 21.0903 12.719 21.4151 12.5036C21.7399 12.2881 21.9869 11.9782 22.1559 11.5739C22.3249 11.1695 22.4094 10.6856 22.4094 10.1222C22.4094 9.57197 22.3266 9.08641 22.1609 8.66548C21.9951 8.24455 21.7499 7.91477 21.4251 7.67614C21.1003 7.4375 20.6992 7.31818 20.2219 7.31818C19.7248 7.31818 19.3105 7.44413 18.979 7.69602C18.6509 7.94792 18.404 8.28598 18.2383 8.71023C18.0759 9.13447 17.9947 9.60511 17.9947 10.1222C17.9947 10.6525 18.0775 11.1214 18.2433 11.5291C18.4123 11.9335 18.6609 12.2517 18.989 12.4837C19.3204 12.7124 19.7314 12.8267 20.2219 12.8267ZM26.8839 9.40625V14H25.7106V6.36364H26.8441V7.55682H26.9435C27.1225 7.16903 27.3943 6.85748 27.7589 6.62216C28.1235 6.38352 28.5941 6.2642 29.1708 6.2642C29.6879 6.2642 30.1403 6.37027 30.5281 6.58239C30.9158 6.79119 31.2174 7.10938 31.4329 7.53693C31.6483 7.96117 31.756 8.49811 31.756 9.14773V14H30.5827V9.22727C30.5827 8.62737 30.427 8.16004 30.1154 7.82528C29.8039 7.48722 29.3763 7.31818 28.8327 7.31818C28.4582 7.31818 28.1235 7.39938 27.8285 7.56179C27.5368 7.72419 27.3065 7.96117 27.1374 8.27273C26.9684 8.58428 26.8839 8.96212 26.8839 9.40625ZM0.676136 21.9119V20.8182H8.3125V21.9119H5.1108V31H3.87784V21.9119H0.676136ZM12.1506 31.1591C11.4148 31.1591 10.7801 30.9967 10.2464 30.6719C9.71615 30.3438 9.30682 29.8864 9.01847 29.2997C8.73343 28.7098 8.59091 28.0237 8.59091 27.2415C8.59091 26.4593 8.73343 25.7699 9.01847 25.1733C9.30682 24.5734 9.70786 24.1061 10.2216 23.7713C10.7386 23.4332 11.3419 23.2642 12.0312 23.2642C12.429 23.2642 12.8217 23.3305 13.2095 23.4631C13.5973 23.5956 13.9503 23.8111 14.2685 24.1094C14.5866 24.4044 14.8402 24.7955 15.0291 25.2827C15.218 25.7699 15.3125 26.3698 15.3125 27.0824V27.5795H9.42614V26.5653H14.1193C14.1193 26.1345 14.0331 25.75 13.8608 25.4119C13.6918 25.0739 13.4498 24.8071 13.1349 24.6115C12.8234 24.416 12.4555 24.3182 12.0312 24.3182C11.5639 24.3182 11.1596 24.4342 10.8182 24.6662C10.4801 24.8949 10.2199 25.1932 10.0376 25.5611C9.85535 25.929 9.7642 26.3234 9.7642 26.7443V27.4205C9.7642 27.9972 9.86364 28.486 10.0625 28.8871C10.2647 29.2848 10.5447 29.5881 10.9027 29.7969C11.2607 30.0024 11.6766 30.1051 12.1506 30.1051C12.4588 30.1051 12.7372 30.062 12.9858 29.9759C13.2377 29.8864 13.4548 29.7538 13.6371 29.5781C13.8194 29.3991 13.9602 29.1771 14.0597 28.9119L15.1932 29.2301C15.0739 29.6146 14.8733 29.9527 14.5916 30.2443C14.3099 30.5327 13.9619 30.758 13.5476 30.9205C13.1333 31.0795 12.6676 31.1591 12.1506 31.1591ZM22.5064 25.0739L21.4524 25.3722C21.3861 25.1965 21.2884 25.0258 21.1591 24.8601C21.0331 24.6911 20.8608 24.5518 20.642 24.4425C20.4233 24.3331 20.1432 24.2784 19.8018 24.2784C19.3345 24.2784 18.9451 24.3861 18.6335 24.6016C18.3253 24.8137 18.1712 25.0838 18.1712 25.4119C18.1712 25.7036 18.2772 25.9339 18.4893 26.103C18.7015 26.272 19.0329 26.4129 19.4837 26.5256L20.6172 26.804C21.3 26.9697 21.8087 27.2232 22.1435 27.5646C22.4782 27.9027 22.6456 28.3385 22.6456 28.8722C22.6456 29.3097 22.5196 29.7008 22.2678 30.0455C22.0192 30.3902 21.6712 30.6619 21.2237 30.8608C20.7763 31.0597 20.2559 31.1591 19.6626 31.1591C18.8838 31.1591 18.2391 30.9901 17.7287 30.652C17.2183 30.3139 16.8951 29.8201 16.7592 29.1705L17.8729 28.892C17.9789 29.303 18.1795 29.6113 18.4744 29.8168C18.7727 30.0223 19.1622 30.125 19.6428 30.125C20.1896 30.125 20.6238 30.009 20.9453 29.777C21.2701 29.5417 21.4325 29.2599 21.4325 28.9318C21.4325 28.6667 21.3397 28.4446 21.1541 28.2656C20.9685 28.0833 20.6835 27.9474 20.299 27.858L19.0263 27.5597C18.3269 27.3939 17.8132 27.1371 17.4851 26.7891C17.1603 26.4377 16.9979 25.9986 16.9979 25.4716C16.9979 25.0407 17.1188 24.6596 17.3608 24.3281C17.6061 23.9967 17.9392 23.7365 18.3601 23.5476C18.7843 23.3587 19.2649 23.2642 19.8018 23.2642C20.5575 23.2642 21.1508 23.4299 21.5817 23.7614C22.0159 24.0928 22.3241 24.5303 22.5064 25.0739ZM27.7328 23.3636V24.358H23.7754V23.3636H27.7328ZM24.9288 21.5341H26.1021V28.8125C26.1021 29.1439 26.1502 29.3925 26.2463 29.5582C26.3457 29.7206 26.4717 29.83 26.6241 29.8864C26.7799 29.9394 26.944 29.9659 27.1163 29.9659C27.2456 29.9659 27.3516 29.9593 27.4345 29.946C27.5173 29.9295 27.5836 29.9162 27.6333 29.9062L27.872 30.9602C27.7924 30.9901 27.6814 31.0199 27.5389 31.0497C27.3964 31.0829 27.2157 31.0994 26.997 31.0994C26.6655 31.0994 26.3407 31.0282 26.0225 30.8857C25.7077 30.7431 25.4458 30.526 25.237 30.2344C25.0315 29.9427 24.9288 29.5748 24.9288 29.1307V21.5341Z" fill="black"/>
</g>
<defs>
<clipPath id="clip0_0_1019">
<rect width="150" height="80" fill="white"/>
</clipPath>
</defs>
</svg>
