<svg width="150" height="120" viewBox="0 0 150 120" fill="none" xmlns="http://www.w3.org/2000/svg">
<g clip-path="url(#clip0_0_1059)">
<rect width="150" height="120" fill="white"/>
<path d="M1.23295 14V3.81818H2.46591V12.9062H7.19886V14H1.23295ZM8.94886 14V6.36364H10.1222V14H8.94886ZM9.54545 5.09091C9.31676 5.09091 9.11955 5.01302 8.95384 4.85724C8.79143 4.70147 8.71023 4.5142 8.71023 4.29545C8.71023 4.0767 8.79143 3.88944 8.95384 3.73366C9.11955 3.57789 9.31676 3.5 9.54545 3.5C9.77415 3.5 9.9697 3.57789 10.1321 3.73366C10.2978 3.88944 10.3807 4.0767 10.3807 4.29545C10.3807 4.5142 10.2978 4.70147 10.1321 4.85724C9.9697 5.01302 9.77415 5.09091 9.54545 5.09091ZM13.4444 9.40625V14H12.2711V6.36364H13.4047V7.55682H13.5041C13.6831 7.16903 13.9548 6.85748 14.3194 6.62216C14.684 6.38352 15.1547 6.2642 15.7314 6.2642C16.2484 6.2642 16.7008 6.37027 17.0886 6.58239C17.4764 6.79119 17.778 7.10938 17.9934 7.53693C18.2089 7.96117 18.3166 8.49811 18.3166 9.14773V14H17.1433V9.22727C17.1433 8.62737 16.9875 8.16004 16.676 7.82528C16.3644 7.48722 15.9368 7.31818 15.3933 7.31818C15.0188 7.31818 14.684 7.39938 14.389 7.56179C14.0974 7.72419 13.867 7.96117 13.698 8.27273C13.5289 8.58428 13.4444 8.96212 13.4444 9.40625ZM23.6623 14.1591C22.9265 14.1591 22.2918 13.9967 21.7582 13.6719C21.2279 13.3438 20.8185 12.8864 20.5302 12.2997C20.2451 11.7098 20.1026 11.0237 20.1026 10.2415C20.1026 9.45928 20.2451 8.76989 20.5302 8.1733C20.8185 7.57339 21.2196 7.10606 21.7333 6.77131C22.2504 6.43324 22.8536 6.2642 23.543 6.2642C23.9407 6.2642 24.3335 6.33049 24.7212 6.46307C25.109 6.59564 25.462 6.81108 25.7802 7.10938C26.0984 7.40436 26.3519 7.79545 26.5408 8.28267C26.7298 8.76989 26.8242 9.36979 26.8242 10.0824V10.5795H20.9379V9.56534H25.631C25.631 9.13447 25.5449 8.75 25.3725 8.41193C25.2035 8.07386 24.9615 7.80705 24.6467 7.61151C24.3351 7.41596 23.9672 7.31818 23.543 7.31818C23.0756 7.31818 22.6713 7.43419 22.3299 7.66619C21.9918 7.89489 21.7317 8.19318 21.5494 8.56108C21.3671 8.92898 21.2759 9.32339 21.2759 9.74432V10.4205C21.2759 10.9972 21.3754 11.486 21.5742 11.8871C21.7764 12.2848 22.0565 12.5881 22.4144 12.7969C22.7724 13.0024 23.1883 13.1051 23.6623 13.1051C23.9705 13.1051 24.2489 13.062 24.4975 12.9759C24.7494 12.8864 24.9665 12.7538 25.1488 12.5781C25.3311 12.3991 25.4719 12.1771 25.5714 11.9119L26.7049 12.2301C26.5856 12.6146 26.3851 12.9527 26.1033 13.2443C25.8216 13.5327 25.4736 13.758 25.0593 13.9205C24.645 14.0795 24.1793 14.1591 23.6623 14.1591ZM36.1062 3.81818V14H34.8732V5.1108H34.8136L32.3278 6.76136V5.50852L34.8732 3.81818H36.1062ZM1.23295 39V28.8182H2.46591V37.9062H7.19886V39H1.23295ZM8.94886 39V31.3636H10.1222V39H8.94886ZM9.54545 30.0909C9.31676 30.0909 9.11955 30.013 8.95384 29.8572C8.79143 29.7015 8.71023 29.5142 8.71023 29.2955C8.71023 29.0767 8.79143 28.8894 8.95384 28.7337C9.11955 28.5779 9.31676 28.5 9.54545 28.5C9.77415 28.5 9.9697 28.5779 10.1321 28.7337C10.2978 28.8894 10.3807 29.0767 10.3807 29.2955C10.3807 29.5142 10.2978 29.7015 10.1321 29.8572C9.9697 30.013 9.77415 30.0909 9.54545 30.0909ZM13.4444 34.4062V39H12.2711V31.3636H13.4047V32.5568H13.5041C13.6831 32.169 13.9548 31.8575 14.3194 31.6222C14.684 31.3835 15.1547 31.2642 15.7314 31.2642C16.2484 31.2642 16.7008 31.3703 17.0886 31.5824C17.4764 31.7912 17.778 32.1094 17.9934 32.5369C18.2089 32.9612 18.3166 33.4981 18.3166 34.1477V39H17.1433V34.2273C17.1433 33.6274 16.9875 33.16 16.676 32.8253C16.3644 32.4872 15.9368 32.3182 15.3933 32.3182C15.0188 32.3182 14.684 32.3994 14.389 32.5618C14.0974 32.7242 13.867 32.9612 13.698 33.2727C13.5289 33.5843 13.4444 33.9621 13.4444 34.4062ZM23.6623 39.1591C22.9265 39.1591 22.2918 38.9967 21.7582 38.6719C21.2279 38.3438 20.8185 37.8864 20.5302 37.2997C20.2451 36.7098 20.1026 36.0237 20.1026 35.2415C20.1026 34.4593 20.2451 33.7699 20.5302 33.1733C20.8185 32.5734 21.2196 32.1061 21.7333 31.7713C22.2504 31.4332 22.8536 31.2642 23.543 31.2642C23.9407 31.2642 24.3335 31.3305 24.7212 31.4631C25.109 31.5956 25.462 31.8111 25.7802 32.1094C26.0984 32.4044 26.3519 32.7955 26.5408 33.2827C26.7298 33.7699 26.8242 34.3698 26.8242 35.0824V35.5795H20.9379V34.5653H25.631C25.631 34.1345 25.5449 33.75 25.3725 33.4119C25.2035 33.0739 24.9615 32.8071 24.6467 32.6115C24.3351 32.416 23.9672 32.3182 23.543 32.3182C23.0756 32.3182 22.6713 32.4342 22.3299 32.6662C21.9918 32.8949 21.7317 33.1932 21.5494 33.5611C21.3671 33.929 21.2759 34.3234 21.2759 34.7443V35.4205C21.2759 35.9972 21.3754 36.486 21.5742 36.8871C21.7764 37.2848 22.0565 37.5881 22.4144 37.7969C22.7724 38.0024 23.1883 38.1051 23.6623 38.1051C23.9705 38.1051 24.2489 38.062 24.4975 37.9759C24.7494 37.8864 24.9665 37.7538 25.1488 37.5781C25.3311 37.3991 25.4719 37.1771 25.5714 36.9119L26.7049 37.2301C26.5856 37.6146 26.3851 37.9527 26.1033 38.2443C25.8216 38.5327 25.4736 38.758 25.0593 38.9205C24.645 39.0795 24.1793 39.1591 23.6623 39.1591ZM32.5266 39V38.1051L35.8874 34.4261C36.2818 33.9953 36.6067 33.6207 36.8619 33.3026C37.1171 32.9811 37.306 32.6795 37.4286 32.3977C37.5546 32.1127 37.6175 31.8144 37.6175 31.5028C37.6175 31.1449 37.5314 30.835 37.359 30.5732C37.19 30.3113 36.958 30.1091 36.663 29.9666C36.368 29.8241 36.0366 29.7528 35.6687 29.7528C35.2776 29.7528 34.9362 29.834 34.6445 29.9964C34.3562 30.1555 34.1325 30.3793 33.9734 30.6676C33.8176 30.956 33.7397 31.294 33.7397 31.6818H32.5664C32.5664 31.0852 32.704 30.5616 32.979 30.1108C33.2541 29.66 33.6287 29.3087 34.1026 29.0568C34.5799 28.8049 35.1152 28.679 35.7085 28.679C36.305 28.679 36.8337 28.8049 37.2944 29.0568C37.7551 29.3087 38.1164 29.6484 38.3782 30.076C38.64 30.5036 38.771 30.9792 38.771 31.5028C38.771 31.8774 38.703 32.2436 38.5671 32.6016C38.4345 32.9562 38.2025 33.3523 37.8711 33.7898C37.543 34.224 37.0872 34.7543 36.5039 35.3807L34.217 37.8267V37.9062H38.9499V39H32.5266ZM1.23295 64V53.8182H2.46591V62.9062H7.19886V64H1.23295ZM8.94886 64V56.3636H10.1222V64H8.94886ZM9.54545 55.0909C9.31676 55.0909 9.11955 55.013 8.95384 54.8572C8.79143 54.7015 8.71023 54.5142 8.71023 54.2955C8.71023 54.0767 8.79143 53.8894 8.95384 53.7337C9.11955 53.5779 9.31676 53.5 9.54545 53.5C9.77415 53.5 9.9697 53.5779 10.1321 53.7337C10.2978 53.8894 10.3807 54.0767 10.3807 54.2955C10.3807 54.5142 10.2978 54.7015 10.1321 54.8572C9.9697 55.013 9.77415 55.0909 9.54545 55.0909ZM13.4444 59.4062V64H12.2711V56.3636H13.4047V57.5568H13.5041C13.6831 57.169 13.9548 56.8575 14.3194 56.6222C14.684 56.3835 15.1547 56.2642 15.7314 56.2642C16.2484 56.2642 16.7008 56.3703 17.0886 56.5824C17.4764 56.7912 17.778 57.1094 17.9934 57.5369C18.2089 57.9612 18.3166 58.4981 18.3166 59.1477V64H17.1433V59.2273C17.1433 58.6274 16.9875 58.16 16.676 57.8253C16.3644 57.4872 15.9368 57.3182 15.3933 57.3182C15.0188 57.3182 14.684 57.3994 14.389 57.5618C14.0974 57.7242 13.867 57.9612 13.698 58.2727C13.5289 58.5843 13.4444 58.9621 13.4444 59.4062ZM23.6623 64.1591C22.9265 64.1591 22.2918 63.9967 21.7582 63.6719C21.2279 63.3438 20.8185 62.8864 20.5302 62.2997C20.2451 61.7098 20.1026 61.0237 20.1026 60.2415C20.1026 59.4593 20.2451 58.7699 20.5302 58.1733C20.8185 57.5734 21.2196 57.1061 21.7333 56.7713C22.2504 56.4332 22.8536 56.2642 23.543 56.2642C23.9407 56.2642 24.3335 56.3305 24.7212 56.4631C25.109 56.5956 25.462 56.8111 25.7802 57.1094C26.0984 57.4044 26.3519 57.7955 26.5408 58.2827C26.7298 58.7699 26.8242 59.3698 26.8242 60.0824V60.5795H20.9379V59.5653H25.631C25.631 59.1345 25.5449 58.75 25.3725 58.4119C25.2035 58.0739 24.9615 57.8071 24.6467 57.6115C24.3351 57.416 23.9672 57.3182 23.543 57.3182C23.0756 57.3182 22.6713 57.4342 22.3299 57.6662C21.9918 57.8949 21.7317 58.1932 21.5494 58.5611C21.3671 58.929 21.2759 59.3234 21.2759 59.7443V60.4205C21.2759 60.9972 21.3754 61.486 21.5742 61.8871C21.7764 62.2848 22.0565 62.5881 22.4144 62.7969C22.7724 63.0024 23.1883 63.1051 23.6623 63.1051C23.9705 63.1051 24.2489 63.062 24.4975 62.9759C24.7494 62.8864 24.9665 62.7538 25.1488 62.5781C25.3311 62.3991 25.4719 62.1771 25.5714 61.9119L26.7049 62.2301C26.5856 62.6146 26.3851 62.9527 26.1033 63.2443C25.8216 63.5327 25.4736 63.758 25.0593 63.9205C24.645 64.0795 24.1793 64.1591 23.6623 64.1591ZM35.967 64.1392C35.3107 64.1392 34.7257 64.0265 34.212 63.8011C33.7016 63.5758 33.2956 63.2625 32.994 62.8615C32.6957 62.4571 32.5333 61.9882 32.5067 61.4545H33.7596C33.7861 61.7827 33.8988 62.0661 34.0977 62.3047C34.2965 62.54 34.5567 62.7223 34.8782 62.8516C35.1997 62.9808 35.556 63.0455 35.9471 63.0455C36.3846 63.0455 36.7724 62.9692 37.1104 62.8168C37.4485 62.6643 37.7137 62.4522 37.9059 62.1804C38.0981 61.9086 38.1942 61.5938 38.1942 61.2358C38.1942 60.8613 38.1014 60.5315 37.9158 60.2464C37.7302 59.9581 37.4585 59.7327 37.1005 59.5703C36.7425 59.4079 36.305 59.3267 35.788 59.3267H34.9727V58.233H35.788C36.1924 58.233 36.547 58.16 36.8519 58.0142C37.1602 57.8684 37.4004 57.6629 37.5728 57.3977C37.7485 57.1326 37.8363 56.821 37.8363 56.4631C37.8363 56.1184 37.7601 55.8184 37.6076 55.5632C37.4551 55.308 37.2397 55.1091 36.9613 54.9666C36.6862 54.8241 36.3614 54.7528 35.9869 54.7528C35.6355 54.7528 35.3041 54.8175 34.9925 54.9467C34.6843 55.0727 34.4324 55.2566 34.2369 55.4986C34.0413 55.7372 33.9353 56.0256 33.9187 56.3636H32.7255C32.7454 55.83 32.9061 55.3627 33.2077 54.9616C33.5094 54.5573 33.9038 54.2424 34.391 54.017C34.8815 53.7917 35.4201 53.679 36.0067 53.679C36.6365 53.679 37.1767 53.8066 37.6275 54.0618C38.0782 54.3137 38.4246 54.6468 38.6665 55.0611C38.9085 55.4754 39.0295 55.9228 39.0295 56.4034C39.0295 56.9768 38.8787 57.4657 38.5771 57.87C38.2788 58.2744 37.8728 58.5545 37.359 58.7102V58.7898C38.002 58.8958 38.5041 59.1693 38.8654 59.6101C39.2267 60.0476 39.4073 60.5895 39.4073 61.2358C39.4073 61.7893 39.2565 62.2865 38.9549 62.7273C38.6566 63.1648 38.2489 63.5095 37.7319 63.7614C37.2148 64.0133 36.6265 64.1392 35.967 64.1392Z" fill="black"/>
</g>
<defs>
<clipPath id="clip0_0_1059">
<rect width="150" height="120" fill="white"/>
</clipPath>
</defs>
</svg>
