<svg width="150" height="120" viewBox="0 0 150 120" fill="none" xmlns="http://www.w3.org/2000/svg">
<g clip-path="url(#clip0_0_1055)">
<rect width="150" height="120" fill="white"/>
<path d="M1.23295 14V3.81818H2.46591V12.9062H7.19886V14H1.23295ZM8.94886 14V6.36364H10.1222V14H8.94886ZM9.54545 5.09091C9.31676 5.09091 9.11955 5.01302 8.95384 4.85724C8.79143 4.70147 8.71023 4.5142 8.71023 4.29545C8.71023 4.0767 8.79143 3.88944 8.95384 3.73366C9.11955 3.57789 9.31676 3.5 9.54545 3.5C9.77415 3.5 9.9697 3.57789 10.1321 3.73366C10.2978 3.88944 10.3807 4.0767 10.3807 4.29545C10.3807 4.5142 10.2978 4.70147 10.1321 4.85724C9.9697 5.01302 9.77415 5.09091 9.54545 5.09091ZM13.4444 9.40625V14H12.2711V6.36364H13.4047V7.55682H13.5041C13.6831 7.16903 13.9548 6.85748 14.3194 6.62216C14.684 6.38352 15.1547 6.2642 15.7314 6.2642C16.2484 6.2642 16.7008 6.37027 17.0886 6.58239C17.4764 6.79119 17.778 7.10938 17.9934 7.53693C18.2089 7.96117 18.3166 8.49811 18.3166 9.14773V14H17.1433V9.22727C17.1433 8.62737 16.9875 8.16004 16.676 7.82528C16.3644 7.48722 15.9368 7.31818 15.3933 7.31818C15.0188 7.31818 14.684 7.39938 14.389 7.56179C14.0974 7.72419 13.867 7.96117 13.698 8.27273C13.5289 8.58428 13.4444 8.96212 13.4444 9.40625ZM23.6623 14.1591C22.9265 14.1591 22.2918 13.9967 21.7582 13.6719C21.2279 13.3438 20.8185 12.8864 20.5302 12.2997C20.2451 11.7098 20.1026 11.0237 20.1026 10.2415C20.1026 9.45928 20.2451 8.76989 20.5302 8.1733C20.8185 7.57339 21.2196 7.10606 21.7333 6.77131C22.2504 6.43324 22.8536 6.2642 23.543 6.2642C23.9407 6.2642 24.3335 6.33049 24.7212 6.46307C25.109 6.59564 25.462 6.81108 25.7802 7.10938C26.0984 7.40436 26.3519 7.79545 26.5408 8.28267C26.7298 8.76989 26.8242 9.36979 26.8242 10.0824V10.5795H20.9379V9.56534H25.631C25.631 9.13447 25.5449 8.75 25.3725 8.41193C25.2035 8.07386 24.9615 7.80705 24.6467 7.61151C24.3351 7.41596 23.9672 7.31818 23.543 7.31818C23.0756 7.31818 22.6713 7.43419 22.3299 7.66619C21.9918 7.89489 21.7317 8.19318 21.5494 8.56108C21.3671 8.92898 21.2759 9.32339 21.2759 9.74432V10.4205C21.2759 10.9972 21.3754 11.486 21.5742 11.8871C21.7764 12.2848 22.0565 12.5881 22.4144 12.7969C22.7724 13.0024 23.1883 13.1051 23.6623 13.1051C23.9705 13.1051 24.2489 13.062 24.4975 12.9759C24.7494 12.8864 24.9665 12.7538 25.1488 12.5781C25.3311 12.3991 25.4719 12.1771 25.5714 11.9119L26.7049 12.2301C26.5856 12.6146 26.3851 12.9527 26.1033 13.2443C25.8216 13.5327 25.4736 13.758 25.0593 13.9205C24.645 14.0795 24.1793 14.1591 23.6623 14.1591ZM36.1062 3.81818V14H34.8732V5.1108H34.8136L32.3278 6.76136V5.50852L34.8732 3.81818H36.1062ZM1.23295 31V20.8182H2.46591V29.9062H7.19886V31H1.23295ZM8.94886 31V23.3636H10.1222V31H8.94886ZM9.54545 22.0909C9.31676 22.0909 9.11955 22.013 8.95384 21.8572C8.79143 21.7015 8.71023 21.5142 8.71023 21.2955C8.71023 21.0767 8.79143 20.8894 8.95384 20.7337C9.11955 20.5779 9.31676 20.5 9.54545 20.5C9.77415 20.5 9.9697 20.5779 10.1321 20.7337C10.2978 20.8894 10.3807 21.0767 10.3807 21.2955C10.3807 21.5142 10.2978 21.7015 10.1321 21.8572C9.9697 22.013 9.77415 22.0909 9.54545 22.0909ZM13.4444 26.4062V31H12.2711V23.3636H13.4047V24.5568H13.5041C13.6831 24.169 13.9548 23.8575 14.3194 23.6222C14.684 23.3835 15.1547 23.2642 15.7314 23.2642C16.2484 23.2642 16.7008 23.3703 17.0886 23.5824C17.4764 23.7912 17.778 24.1094 17.9934 24.5369C18.2089 24.9612 18.3166 25.4981 18.3166 26.1477V31H17.1433V26.2273C17.1433 25.6274 16.9875 25.16 16.676 24.8253C16.3644 24.4872 15.9368 24.3182 15.3933 24.3182C15.0188 24.3182 14.684 24.3994 14.389 24.5618C14.0974 24.7242 13.867 24.9612 13.698 25.2727C13.5289 25.5843 13.4444 25.9621 13.4444 26.4062ZM23.6623 31.1591C22.9265 31.1591 22.2918 30.9967 21.7582 30.6719C21.2279 30.3438 20.8185 29.8864 20.5302 29.2997C20.2451 28.7098 20.1026 28.0237 20.1026 27.2415C20.1026 26.4593 20.2451 25.7699 20.5302 25.1733C20.8185 24.5734 21.2196 24.1061 21.7333 23.7713C22.2504 23.4332 22.8536 23.2642 23.543 23.2642C23.9407 23.2642 24.3335 23.3305 24.7212 23.4631C25.109 23.5956 25.462 23.8111 25.7802 24.1094C26.0984 24.4044 26.3519 24.7955 26.5408 25.2827C26.7298 25.7699 26.8242 26.3698 26.8242 27.0824V27.5795H20.9379V26.5653H25.631C25.631 26.1345 25.5449 25.75 25.3725 25.4119C25.2035 25.0739 24.9615 24.8071 24.6467 24.6115C24.3351 24.416 23.9672 24.3182 23.543 24.3182C23.0756 24.3182 22.6713 24.4342 22.3299 24.6662C21.9918 24.8949 21.7317 25.1932 21.5494 25.5611C21.3671 25.929 21.2759 26.3234 21.2759 26.7443V27.4205C21.2759 27.9972 21.3754 28.486 21.5742 28.8871C21.7764 29.2848 22.0565 29.5881 22.4144 29.7969C22.7724 30.0024 23.1883 30.1051 23.6623 30.1051C23.9705 30.1051 24.2489 30.062 24.4975 29.9759C24.7494 29.8864 24.9665 29.7538 25.1488 29.5781C25.3311 29.3991 25.4719 29.1771 25.5714 28.9119L26.7049 29.2301C26.5856 29.6146 26.3851 29.9527 26.1033 30.2443C25.8216 30.5327 25.4736 30.758 25.0593 30.9205C24.645 31.0795 24.1793 31.1591 23.6623 31.1591ZM32.5266 31V30.1051L35.8874 26.4261C36.2818 25.9953 36.6067 25.6207 36.8619 25.3026C37.1171 24.9811 37.306 24.6795 37.4286 24.3977C37.5546 24.1127 37.6175 23.8144 37.6175 23.5028C37.6175 23.1449 37.5314 22.835 37.359 22.5732C37.19 22.3113 36.958 22.1091 36.663 21.9666C36.368 21.8241 36.0366 21.7528 35.6687 21.7528C35.2776 21.7528 34.9362 21.834 34.6445 21.9964C34.3562 22.1555 34.1325 22.3793 33.9734 22.6676C33.8176 22.956 33.7397 23.294 33.7397 23.6818H32.5664C32.5664 23.0852 32.704 22.5616 32.979 22.1108C33.2541 21.66 33.6287 21.3087 34.1026 21.0568C34.5799 20.8049 35.1152 20.679 35.7085 20.679C36.305 20.679 36.8337 20.8049 37.2944 21.0568C37.7551 21.3087 38.1164 21.6484 38.3782 22.076C38.64 22.5036 38.771 22.9792 38.771 23.5028C38.771 23.8774 38.703 24.2436 38.5671 24.6016C38.4345 24.9562 38.2025 25.3523 37.8711 25.7898C37.543 26.224 37.0872 26.7543 36.5039 27.3807L34.217 29.8267V29.9062H38.9499V31H32.5266ZM1.23295 47V36.8182H2.46591V45.9062H7.19886V47H1.23295ZM8.94886 47V39.3636H10.1222V47H8.94886ZM9.54545 38.0909C9.31676 38.0909 9.11955 38.013 8.95384 37.8572C8.79143 37.7015 8.71023 37.5142 8.71023 37.2955C8.71023 37.0767 8.79143 36.8894 8.95384 36.7337C9.11955 36.5779 9.31676 36.5 9.54545 36.5C9.77415 36.5 9.9697 36.5779 10.1321 36.7337C10.2978 36.8894 10.3807 37.0767 10.3807 37.2955C10.3807 37.5142 10.2978 37.7015 10.1321 37.8572C9.9697 38.013 9.77415 38.0909 9.54545 38.0909ZM13.4444 42.4062V47H12.2711V39.3636H13.4047V40.5568H13.5041C13.6831 40.169 13.9548 39.8575 14.3194 39.6222C14.684 39.3835 15.1547 39.2642 15.7314 39.2642C16.2484 39.2642 16.7008 39.3703 17.0886 39.5824C17.4764 39.7912 17.778 40.1094 17.9934 40.5369C18.2089 40.9612 18.3166 41.4981 18.3166 42.1477V47H17.1433V42.2273C17.1433 41.6274 16.9875 41.16 16.676 40.8253C16.3644 40.4872 15.9368 40.3182 15.3933 40.3182C15.0188 40.3182 14.684 40.3994 14.389 40.5618C14.0974 40.7242 13.867 40.9612 13.698 41.2727C13.5289 41.5843 13.4444 41.9621 13.4444 42.4062ZM23.6623 47.1591C22.9265 47.1591 22.2918 46.9967 21.7582 46.6719C21.2279 46.3438 20.8185 45.8864 20.5302 45.2997C20.2451 44.7098 20.1026 44.0237 20.1026 43.2415C20.1026 42.4593 20.2451 41.7699 20.5302 41.1733C20.8185 40.5734 21.2196 40.1061 21.7333 39.7713C22.2504 39.4332 22.8536 39.2642 23.543 39.2642C23.9407 39.2642 24.3335 39.3305 24.7212 39.4631C25.109 39.5956 25.462 39.8111 25.7802 40.1094C26.0984 40.4044 26.3519 40.7955 26.5408 41.2827C26.7298 41.7699 26.8242 42.3698 26.8242 43.0824V43.5795H20.9379V42.5653H25.631C25.631 42.1345 25.5449 41.75 25.3725 41.4119C25.2035 41.0739 24.9615 40.8071 24.6467 40.6115C24.3351 40.416 23.9672 40.3182 23.543 40.3182C23.0756 40.3182 22.6713 40.4342 22.3299 40.6662C21.9918 40.8949 21.7317 41.1932 21.5494 41.5611C21.3671 41.929 21.2759 42.3234 21.2759 42.7443V43.4205C21.2759 43.9972 21.3754 44.486 21.5742 44.8871C21.7764 45.2848 22.0565 45.5881 22.4144 45.7969C22.7724 46.0024 23.1883 46.1051 23.6623 46.1051C23.9705 46.1051 24.2489 46.062 24.4975 45.9759C24.7494 45.8864 24.9665 45.7538 25.1488 45.5781C25.3311 45.3991 25.4719 45.1771 25.5714 44.9119L26.7049 45.2301C26.5856 45.6146 26.3851 45.9527 26.1033 46.2443C25.8216 46.5327 25.4736 46.758 25.0593 46.9205C24.645 47.0795 24.1793 47.1591 23.6623 47.1591ZM35.967 47.1392C35.3107 47.1392 34.7257 47.0265 34.212 46.8011C33.7016 46.5758 33.2956 46.2625 32.994 45.8615C32.6957 45.4571 32.5333 44.9882 32.5067 44.4545H33.7596C33.7861 44.7827 33.8988 45.0661 34.0977 45.3047C34.2965 45.54 34.5567 45.7223 34.8782 45.8516C35.1997 45.9808 35.556 46.0455 35.9471 46.0455C36.3846 46.0455 36.7724 45.9692 37.1104 45.8168C37.4485 45.6643 37.7137 45.4522 37.9059 45.1804C38.0981 44.9086 38.1942 44.5938 38.1942 44.2358C38.1942 43.8613 38.1014 43.5315 37.9158 43.2464C37.7302 42.9581 37.4585 42.7327 37.1005 42.5703C36.7425 42.4079 36.305 42.3267 35.788 42.3267H34.9727V41.233H35.788C36.1924 41.233 36.547 41.16 36.8519 41.0142C37.1602 40.8684 37.4004 40.6629 37.5728 40.3977C37.7485 40.1326 37.8363 39.821 37.8363 39.4631C37.8363 39.1184 37.7601 38.8184 37.6076 38.5632C37.4551 38.308 37.2397 38.1091 36.9613 37.9666C36.6862 37.8241 36.3614 37.7528 35.9869 37.7528C35.6355 37.7528 35.3041 37.8175 34.9925 37.9467C34.6843 38.0727 34.4324 38.2566 34.2369 38.4986C34.0413 38.7372 33.9353 39.0256 33.9187 39.3636H32.7255C32.7454 38.83 32.9061 38.3627 33.2077 37.9616C33.5094 37.5573 33.9038 37.2424 34.391 37.017C34.8815 36.7917 35.4201 36.679 36.0067 36.679C36.6365 36.679 37.1767 36.8066 37.6275 37.0618C38.0782 37.3137 38.4246 37.6468 38.6665 38.0611C38.9085 38.4754 39.0295 38.9228 39.0295 39.4034C39.0295 39.9768 38.8787 40.4657 38.5771 40.87C38.2788 41.2744 37.8728 41.5545 37.359 41.7102V41.7898C38.002 41.8958 38.5041 42.1693 38.8654 42.6101C39.2267 43.0476 39.4073 43.5895 39.4073 44.2358C39.4073 44.7893 39.2565 45.2865 38.9549 45.7273C38.6566 46.1648 38.2489 46.5095 37.7319 46.7614C37.2148 47.0133 36.6265 47.1392 35.967 47.1392Z" fill="black"/>
</g>
<defs>
<clipPath id="clip0_0_1055">
<rect width="150" height="120" fill="white"/>
</clipPath>
</defs>
</svg>
