<svg width="150" height="120" viewBox="0 0 150 120" fill="none" xmlns="http://www.w3.org/2000/svg">
<g clip-path="url(#clip0_0_1063)">
<rect width="150" height="120" fill="white"/>
<path d="M1.23295 14V3.81818H2.46591V12.9062H7.19886V14H1.23295ZM8.94886 14V6.36364H10.1222V14H8.94886ZM9.54545 5.09091C9.31676 5.09091 9.11955 5.01302 8.95384 4.85724C8.79143 4.70147 8.71023 4.5142 8.71023 4.29545C8.71023 4.0767 8.79143 3.88944 8.95384 3.73366C9.11955 3.57789 9.31676 3.5 9.54545 3.5C9.77415 3.5 9.9697 3.57789 10.1321 3.73366C10.2978 3.88944 10.3807 4.0767 10.3807 4.29545C10.3807 4.5142 10.2978 4.70147 10.1321 4.85724C9.9697 5.01302 9.77415 5.09091 9.54545 5.09091ZM13.4444 9.40625V14H12.2711V6.36364H13.4047V7.55682H13.5041C13.6831 7.16903 13.9548 6.85748 14.3194 6.62216C14.684 6.38352 15.1547 6.2642 15.7314 6.2642C16.2484 6.2642 16.7008 6.37027 17.0886 6.58239C17.4764 6.79119 17.778 7.10938 17.9934 7.53693C18.2089 7.96117 18.3166 8.49811 18.3166 9.14773V14H17.1433V9.22727C17.1433 8.62737 16.9875 8.16004 16.676 7.82528C16.3644 7.48722 15.9368 7.31818 15.3933 7.31818C15.0188 7.31818 14.684 7.39938 14.389 7.56179C14.0974 7.72419 13.867 7.96117 13.698 8.27273C13.5289 8.58428 13.4444 8.96212 13.4444 9.40625ZM23.6623 14.1591C22.9265 14.1591 22.2918 13.9967 21.7582 13.6719C21.2279 13.3438 20.8185 12.8864 20.5302 12.2997C20.2451 11.7098 20.1026 11.0237 20.1026 10.2415C20.1026 9.45928 20.2451 8.76989 20.5302 8.1733C20.8185 7.57339 21.2196 7.10606 21.7333 6.77131C22.2504 6.43324 22.8536 6.2642 23.543 6.2642C23.9407 6.2642 24.3335 6.33049 24.7212 6.46307C25.109 6.59564 25.462 6.81108 25.7802 7.10938C26.0984 7.40436 26.3519 7.79545 26.5408 8.28267C26.7298 8.76989 26.8242 9.36979 26.8242 10.0824V10.5795H20.9379V9.56534H25.631C25.631 9.13447 25.5449 8.75 25.3725 8.41193C25.2035 8.07386 24.9615 7.80705 24.6467 7.61151C24.3351 7.41596 23.9672 7.31818 23.543 7.31818C23.0756 7.31818 22.6713 7.43419 22.3299 7.66619C21.9918 7.89489 21.7317 8.19318 21.5494 8.56108C21.3671 8.92898 21.2759 9.32339 21.2759 9.74432V10.4205C21.2759 10.9972 21.3754 11.486 21.5742 11.8871C21.7764 12.2848 22.0565 12.5881 22.4144 12.7969C22.7724 13.0024 23.1883 13.1051 23.6623 13.1051C23.9705 13.1051 24.2489 13.062 24.4975 12.9759C24.7494 12.8864 24.9665 12.7538 25.1488 12.5781C25.3311 12.3991 25.4719 12.1771 25.5714 11.9119L26.7049 12.2301C26.5856 12.6146 26.3851 12.9527 26.1033 13.2443C25.8216 13.5327 25.4736 13.758 25.0593 13.9205C24.645 14.0795 24.1793 14.1591 23.6623 14.1591ZM36.1062 3.81818V14H34.8732V5.1108H34.8136L32.3278 6.76136V5.50852L34.8732 3.81818H36.1062ZM1.23295 26V15.8182H2.46591V24.9062H7.19886V26H1.23295ZM8.94886 26V18.3636H10.1222V26H8.94886ZM9.54545 17.0909C9.31676 17.0909 9.11955 17.013 8.95384 16.8572C8.79143 16.7015 8.71023 16.5142 8.71023 16.2955C8.71023 16.0767 8.79143 15.8894 8.95384 15.7337C9.11955 15.5779 9.31676 15.5 9.54545 15.5C9.77415 15.5 9.9697 15.5779 10.1321 15.7337C10.2978 15.8894 10.3807 16.0767 10.3807 16.2955C10.3807 16.5142 10.2978 16.7015 10.1321 16.8572C9.9697 17.013 9.77415 17.0909 9.54545 17.0909ZM13.4444 21.4062V26H12.2711V18.3636H13.4047V19.5568H13.5041C13.6831 19.169 13.9548 18.8575 14.3194 18.6222C14.684 18.3835 15.1547 18.2642 15.7314 18.2642C16.2484 18.2642 16.7008 18.3703 17.0886 18.5824C17.4764 18.7912 17.778 19.1094 17.9934 19.5369C18.2089 19.9612 18.3166 20.4981 18.3166 21.1477V26H17.1433V21.2273C17.1433 20.6274 16.9875 20.16 16.676 19.8253C16.3644 19.4872 15.9368 19.3182 15.3933 19.3182C15.0188 19.3182 14.684 19.3994 14.389 19.5618C14.0974 19.7242 13.867 19.9612 13.698 20.2727C13.5289 20.5843 13.4444 20.9621 13.4444 21.4062ZM23.6623 26.1591C22.9265 26.1591 22.2918 25.9967 21.7582 25.6719C21.2279 25.3438 20.8185 24.8864 20.5302 24.2997C20.2451 23.7098 20.1026 23.0237 20.1026 22.2415C20.1026 21.4593 20.2451 20.7699 20.5302 20.1733C20.8185 19.5734 21.2196 19.1061 21.7333 18.7713C22.2504 18.4332 22.8536 18.2642 23.543 18.2642C23.9407 18.2642 24.3335 18.3305 24.7212 18.4631C25.109 18.5956 25.462 18.8111 25.7802 19.1094C26.0984 19.4044 26.3519 19.7955 26.5408 20.2827C26.7298 20.7699 26.8242 21.3698 26.8242 22.0824V22.5795H20.9379V21.5653H25.631C25.631 21.1345 25.5449 20.75 25.3725 20.4119C25.2035 20.0739 24.9615 19.8071 24.6467 19.6115C24.3351 19.416 23.9672 19.3182 23.543 19.3182C23.0756 19.3182 22.6713 19.4342 22.3299 19.6662C21.9918 19.8949 21.7317 20.1932 21.5494 20.5611C21.3671 20.929 21.2759 21.3234 21.2759 21.7443V22.4205C21.2759 22.9972 21.3754 23.486 21.5742 23.8871C21.7764 24.2848 22.0565 24.5881 22.4144 24.7969C22.7724 25.0024 23.1883 25.1051 23.6623 25.1051C23.9705 25.1051 24.2489 25.062 24.4975 24.9759C24.7494 24.8864 24.9665 24.7538 25.1488 24.5781C25.3311 24.3991 25.4719 24.1771 25.5714 23.9119L26.7049 24.2301C26.5856 24.6146 26.3851 24.9527 26.1033 25.2443C25.8216 25.5327 25.4736 25.758 25.0593 25.9205C24.645 26.0795 24.1793 26.1591 23.6623 26.1591ZM32.5266 26V25.1051L35.8874 21.4261C36.2818 20.9953 36.6067 20.6207 36.8619 20.3026C37.1171 19.9811 37.306 19.6795 37.4286 19.3977C37.5546 19.1127 37.6175 18.8144 37.6175 18.5028C37.6175 18.1449 37.5314 17.835 37.359 17.5732C37.19 17.3113 36.958 17.1091 36.663 16.9666C36.368 16.8241 36.0366 16.7528 35.6687 16.7528C35.2776 16.7528 34.9362 16.834 34.6445 16.9964C34.3562 17.1555 34.1325 17.3793 33.9734 17.6676C33.8176 17.956 33.7397 18.294 33.7397 18.6818H32.5664C32.5664 18.0852 32.704 17.5616 32.979 17.1108C33.2541 16.66 33.6287 16.3087 34.1026 16.0568C34.5799 15.8049 35.1152 15.679 35.7085 15.679C36.305 15.679 36.8337 15.8049 37.2944 16.0568C37.7551 16.3087 38.1164 16.6484 38.3782 17.076C38.64 17.5036 38.771 17.9792 38.771 18.5028C38.771 18.8774 38.703 19.2436 38.5671 19.6016C38.4345 19.9562 38.2025 20.3523 37.8711 20.7898C37.543 21.224 37.0872 21.7543 36.5039 22.3807L34.217 24.8267V24.9062H38.9499V26H32.5266ZM1.23295 38V27.8182H2.46591V36.9062H7.19886V38H1.23295ZM8.94886 38V30.3636H10.1222V38H8.94886ZM9.54545 29.0909C9.31676 29.0909 9.11955 29.013 8.95384 28.8572C8.79143 28.7015 8.71023 28.5142 8.71023 28.2955C8.71023 28.0767 8.79143 27.8894 8.95384 27.7337C9.11955 27.5779 9.31676 27.5 9.54545 27.5C9.77415 27.5 9.9697 27.5779 10.1321 27.7337C10.2978 27.8894 10.3807 28.0767 10.3807 28.2955C10.3807 28.5142 10.2978 28.7015 10.1321 28.8572C9.9697 29.013 9.77415 29.0909 9.54545 29.0909ZM13.4444 33.4062V38H12.2711V30.3636H13.4047V31.5568H13.5041C13.6831 31.169 13.9548 30.8575 14.3194 30.6222C14.684 30.3835 15.1547 30.2642 15.7314 30.2642C16.2484 30.2642 16.7008 30.3703 17.0886 30.5824C17.4764 30.7912 17.778 31.1094 17.9934 31.5369C18.2089 31.9612 18.3166 32.4981 18.3166 33.1477V38H17.1433V33.2273C17.1433 32.6274 16.9875 32.16 16.676 31.8253C16.3644 31.4872 15.9368 31.3182 15.3933 31.3182C15.0188 31.3182 14.684 31.3994 14.389 31.5618C14.0974 31.7242 13.867 31.9612 13.698 32.2727C13.5289 32.5843 13.4444 32.9621 13.4444 33.4062ZM23.6623 38.1591C22.9265 38.1591 22.2918 37.9967 21.7582 37.6719C21.2279 37.3438 20.8185 36.8864 20.5302 36.2997C20.2451 35.7098 20.1026 35.0237 20.1026 34.2415C20.1026 33.4593 20.2451 32.7699 20.5302 32.1733C20.8185 31.5734 21.2196 31.1061 21.7333 30.7713C22.2504 30.4332 22.8536 30.2642 23.543 30.2642C23.9407 30.2642 24.3335 30.3305 24.7212 30.4631C25.109 30.5956 25.462 30.8111 25.7802 31.1094C26.0984 31.4044 26.3519 31.7955 26.5408 32.2827C26.7298 32.7699 26.8242 33.3698 26.8242 34.0824V34.5795H20.9379V33.5653H25.631C25.631 33.1345 25.5449 32.75 25.3725 32.4119C25.2035 32.0739 24.9615 31.8071 24.6467 31.6115C24.3351 31.416 23.9672 31.3182 23.543 31.3182C23.0756 31.3182 22.6713 31.4342 22.3299 31.6662C21.9918 31.8949 21.7317 32.1932 21.5494 32.5611C21.3671 32.929 21.2759 33.3234 21.2759 33.7443V34.4205C21.2759 34.9972 21.3754 35.486 21.5742 35.8871C21.7764 36.2848 22.0565 36.5881 22.4144 36.7969C22.7724 37.0024 23.1883 37.1051 23.6623 37.1051C23.9705 37.1051 24.2489 37.062 24.4975 36.9759C24.7494 36.8864 24.9665 36.7538 25.1488 36.5781C25.3311 36.3991 25.4719 36.1771 25.5714 35.9119L26.7049 36.2301C26.5856 36.6146 26.3851 36.9527 26.1033 37.2443C25.8216 37.5327 25.4736 37.758 25.0593 37.9205C24.645 38.0795 24.1793 38.1591 23.6623 38.1591ZM35.967 38.1392C35.3107 38.1392 34.7257 38.0265 34.212 37.8011C33.7016 37.5758 33.2956 37.2625 32.994 36.8615C32.6957 36.4571 32.5333 35.9882 32.5067 35.4545H33.7596C33.7861 35.7827 33.8988 36.0661 34.0977 36.3047C34.2965 36.54 34.5567 36.7223 34.8782 36.8516C35.1997 36.9808 35.556 37.0455 35.9471 37.0455C36.3846 37.0455 36.7724 36.9692 37.1104 36.8168C37.4485 36.6643 37.7137 36.4522 37.9059 36.1804C38.0981 35.9086 38.1942 35.5938 38.1942 35.2358C38.1942 34.8613 38.1014 34.5315 37.9158 34.2464C37.7302 33.9581 37.4585 33.7327 37.1005 33.5703C36.7425 33.4079 36.305 33.3267 35.788 33.3267H34.9727V32.233H35.788C36.1924 32.233 36.547 32.16 36.8519 32.0142C37.1602 31.8684 37.4004 31.6629 37.5728 31.3977C37.7485 31.1326 37.8363 30.821 37.8363 30.4631C37.8363 30.1184 37.7601 29.8184 37.6076 29.5632C37.4551 29.308 37.2397 29.1091 36.9613 28.9666C36.6862 28.8241 36.3614 28.7528 35.9869 28.7528C35.6355 28.7528 35.3041 28.8175 34.9925 28.9467C34.6843 29.0727 34.4324 29.2566 34.2369 29.4986C34.0413 29.7372 33.9353 30.0256 33.9187 30.3636H32.7255C32.7454 29.83 32.9061 29.3627 33.2077 28.9616C33.5094 28.5573 33.9038 28.2424 34.391 28.017C34.8815 27.7917 35.4201 27.679 36.0067 27.679C36.6365 27.679 37.1767 27.8066 37.6275 28.0618C38.0782 28.3137 38.4246 28.6468 38.6665 29.0611C38.9085 29.4754 39.0295 29.9228 39.0295 30.4034C39.0295 30.9768 38.8787 31.4657 38.5771 31.87C38.2788 32.2744 37.8728 32.5545 37.359 32.7102V32.7898C38.002 32.8958 38.5041 33.1693 38.8654 33.6101C39.2267 34.0476 39.4073 34.5895 39.4073 35.2358C39.4073 35.7893 39.2565 36.2865 38.9549 36.7273C38.6566 37.1648 38.2489 37.5095 37.7319 37.7614C37.2148 38.0133 36.6265 38.1392 35.967 38.1392Z" fill="black"/>
</g>
<defs>
<clipPath id="clip0_0_1063">
<rect width="150" height="120" fill="white"/>
</clipPath>
</defs>
</svg>
