<svg width="150" height="120" viewBox="0 0 150 120" fill="none" xmlns="http://www.w3.org/2000/svg">
<g clip-path="url(#clip0_0_1057)">
<rect width="150" height="120" fill="white"/>
<path d="M1.23295 14V3.81818H2.46591V12.9062H7.19886V14H1.23295ZM8.94886 14V6.36364H10.1222V14H8.94886ZM9.54545 5.09091C9.31676 5.09091 9.11955 5.01302 8.95384 4.85724C8.79143 4.70147 8.71023 4.5142 8.71023 4.29545C8.71023 4.0767 8.79143 3.88944 8.95384 3.73366C9.11955 3.57789 9.31676 3.5 9.54545 3.5C9.77415 3.5 9.9697 3.57789 10.1321 3.73366C10.2978 3.88944 10.3807 4.0767 10.3807 4.29545C10.3807 4.5142 10.2978 4.70147 10.1321 4.85724C9.9697 5.01302 9.77415 5.09091 9.54545 5.09091ZM13.4444 9.40625V14H12.2711V6.36364H13.4047V7.55682H13.5041C13.6831 7.16903 13.9548 6.85748 14.3194 6.62216C14.684 6.38352 15.1547 6.2642 15.7314 6.2642C16.2484 6.2642 16.7008 6.37027 17.0886 6.58239C17.4764 6.79119 17.778 7.10938 17.9934 7.53693C18.2089 7.96117 18.3166 8.49811 18.3166 9.14773V14H17.1433V9.22727C17.1433 8.62737 16.9875 8.16004 16.676 7.82528C16.3644 7.48722 15.9368 7.31818 15.3933 7.31818C15.0188 7.31818 14.684 7.39938 14.389 7.56179C14.0974 7.72419 13.867 7.96117 13.698 8.27273C13.5289 8.58428 13.4444 8.96212 13.4444 9.40625ZM23.6623 14.1591C22.9265 14.1591 22.2918 13.9967 21.7582 13.6719C21.2279 13.3438 20.8185 12.8864 20.5302 12.2997C20.2451 11.7098 20.1026 11.0237 20.1026 10.2415C20.1026 9.45928 20.2451 8.76989 20.5302 8.1733C20.8185 7.57339 21.2196 7.10606 21.7333 6.77131C22.2504 6.43324 22.8536 6.2642 23.543 6.2642C23.9407 6.2642 24.3335 6.33049 24.7212 6.46307C25.109 6.59564 25.462 6.81108 25.7802 7.10938C26.0984 7.40436 26.3519 7.79545 26.5408 8.28267C26.7298 8.76989 26.8242 9.36979 26.8242 10.0824V10.5795H20.9379V9.56534H25.631C25.631 9.13447 25.5449 8.75 25.3725 8.41193C25.2035 8.07386 24.9615 7.80705 24.6467 7.61151C24.3351 7.41596 23.9672 7.31818 23.543 7.31818C23.0756 7.31818 22.6713 7.43419 22.3299 7.66619C21.9918 7.89489 21.7317 8.19318 21.5494 8.56108C21.3671 8.92898 21.2759 9.32339 21.2759 9.74432V10.4205C21.2759 10.9972 21.3754 11.486 21.5742 11.8871C21.7764 12.2848 22.0565 12.5881 22.4144 12.7969C22.7724 13.0024 23.1883 13.1051 23.6623 13.1051C23.9705 13.1051 24.2489 13.062 24.4975 12.9759C24.7494 12.8864 24.9665 12.7538 25.1488 12.5781C25.3311 12.3991 25.4719 12.1771 25.5714 11.9119L26.7049 12.2301C26.5856 12.6146 26.3851 12.9527 26.1033 13.2443C25.8216 13.5327 25.4736 13.758 25.0593 13.9205C24.645 14.0795 24.1793 14.1591 23.6623 14.1591ZM36.1062 3.81818V14H34.8732V5.1108H34.8136L32.3278 6.76136V5.50852L34.8732 3.81818H36.1062ZM1.23295 34V23.8182H2.46591V32.9062H7.19886V34H1.23295ZM8.94886 34V26.3636H10.1222V34H8.94886ZM9.54545 25.0909C9.31676 25.0909 9.11955 25.013 8.95384 24.8572C8.79143 24.7015 8.71023 24.5142 8.71023 24.2955C8.71023 24.0767 8.79143 23.8894 8.95384 23.7337C9.11955 23.5779 9.31676 23.5 9.54545 23.5C9.77415 23.5 9.9697 23.5779 10.1321 23.7337C10.2978 23.8894 10.3807 24.0767 10.3807 24.2955C10.3807 24.5142 10.2978 24.7015 10.1321 24.8572C9.9697 25.013 9.77415 25.0909 9.54545 25.0909ZM13.4444 29.4062V34H12.2711V26.3636H13.4047V27.5568H13.5041C13.6831 27.169 13.9548 26.8575 14.3194 26.6222C14.684 26.3835 15.1547 26.2642 15.7314 26.2642C16.2484 26.2642 16.7008 26.3703 17.0886 26.5824C17.4764 26.7912 17.778 27.1094 17.9934 27.5369C18.2089 27.9612 18.3166 28.4981 18.3166 29.1477V34H17.1433V29.2273C17.1433 28.6274 16.9875 28.16 16.676 27.8253C16.3644 27.4872 15.9368 27.3182 15.3933 27.3182C15.0188 27.3182 14.684 27.3994 14.389 27.5618C14.0974 27.7242 13.867 27.9612 13.698 28.2727C13.5289 28.5843 13.4444 28.9621 13.4444 29.4062ZM23.6623 34.1591C22.9265 34.1591 22.2918 33.9967 21.7582 33.6719C21.2279 33.3438 20.8185 32.8864 20.5302 32.2997C20.2451 31.7098 20.1026 31.0237 20.1026 30.2415C20.1026 29.4593 20.2451 28.7699 20.5302 28.1733C20.8185 27.5734 21.2196 27.1061 21.7333 26.7713C22.2504 26.4332 22.8536 26.2642 23.543 26.2642C23.9407 26.2642 24.3335 26.3305 24.7212 26.4631C25.109 26.5956 25.462 26.8111 25.7802 27.1094C26.0984 27.4044 26.3519 27.7955 26.5408 28.2827C26.7298 28.7699 26.8242 29.3698 26.8242 30.0824V30.5795H20.9379V29.5653H25.631C25.631 29.1345 25.5449 28.75 25.3725 28.4119C25.2035 28.0739 24.9615 27.8071 24.6467 27.6115C24.3351 27.416 23.9672 27.3182 23.543 27.3182C23.0756 27.3182 22.6713 27.4342 22.3299 27.6662C21.9918 27.8949 21.7317 28.1932 21.5494 28.5611C21.3671 28.929 21.2759 29.3234 21.2759 29.7443V30.4205C21.2759 30.9972 21.3754 31.486 21.5742 31.8871C21.7764 32.2848 22.0565 32.5881 22.4144 32.7969C22.7724 33.0024 23.1883 33.1051 23.6623 33.1051C23.9705 33.1051 24.2489 33.062 24.4975 32.9759C24.7494 32.8864 24.9665 32.7538 25.1488 32.5781C25.3311 32.3991 25.4719 32.1771 25.5714 31.9119L26.7049 32.2301C26.5856 32.6146 26.3851 32.9527 26.1033 33.2443C25.8216 33.5327 25.4736 33.758 25.0593 33.9205C24.645 34.0795 24.1793 34.1591 23.6623 34.1591ZM32.5266 34V33.1051L35.8874 29.4261C36.2818 28.9953 36.6067 28.6207 36.8619 28.3026C37.1171 27.9811 37.306 27.6795 37.4286 27.3977C37.5546 27.1127 37.6175 26.8144 37.6175 26.5028C37.6175 26.1449 37.5314 25.835 37.359 25.5732C37.19 25.3113 36.958 25.1091 36.663 24.9666C36.368 24.8241 36.0366 24.7528 35.6687 24.7528C35.2776 24.7528 34.9362 24.834 34.6445 24.9964C34.3562 25.1555 34.1325 25.3793 33.9734 25.6676C33.8176 25.956 33.7397 26.294 33.7397 26.6818H32.5664C32.5664 26.0852 32.704 25.5616 32.979 25.1108C33.2541 24.66 33.6287 24.3087 34.1026 24.0568C34.5799 23.8049 35.1152 23.679 35.7085 23.679C36.305 23.679 36.8337 23.8049 37.2944 24.0568C37.7551 24.3087 38.1164 24.6484 38.3782 25.076C38.64 25.5036 38.771 25.9792 38.771 26.5028C38.771 26.8774 38.703 27.2436 38.5671 27.6016C38.4345 27.9562 38.2025 28.3523 37.8711 28.7898C37.543 29.224 37.0872 29.7543 36.5039 30.3807L34.217 32.8267V32.9062H38.9499V34H32.5266ZM1.23295 54V43.8182H2.46591V52.9062H7.19886V54H1.23295ZM8.94886 54V46.3636H10.1222V54H8.94886ZM9.54545 45.0909C9.31676 45.0909 9.11955 45.013 8.95384 44.8572C8.79143 44.7015 8.71023 44.5142 8.71023 44.2955C8.71023 44.0767 8.79143 43.8894 8.95384 43.7337C9.11955 43.5779 9.31676 43.5 9.54545 43.5C9.77415 43.5 9.9697 43.5779 10.1321 43.7337C10.2978 43.8894 10.3807 44.0767 10.3807 44.2955C10.3807 44.5142 10.2978 44.7015 10.1321 44.8572C9.9697 45.013 9.77415 45.0909 9.54545 45.0909ZM13.4444 49.4062V54H12.2711V46.3636H13.4047V47.5568H13.5041C13.6831 47.169 13.9548 46.8575 14.3194 46.6222C14.684 46.3835 15.1547 46.2642 15.7314 46.2642C16.2484 46.2642 16.7008 46.3703 17.0886 46.5824C17.4764 46.7912 17.778 47.1094 17.9934 47.5369C18.2089 47.9612 18.3166 48.4981 18.3166 49.1477V54H17.1433V49.2273C17.1433 48.6274 16.9875 48.16 16.676 47.8253C16.3644 47.4872 15.9368 47.3182 15.3933 47.3182C15.0188 47.3182 14.684 47.3994 14.389 47.5618C14.0974 47.7242 13.867 47.9612 13.698 48.2727C13.5289 48.5843 13.4444 48.9621 13.4444 49.4062ZM23.6623 54.1591C22.9265 54.1591 22.2918 53.9967 21.7582 53.6719C21.2279 53.3438 20.8185 52.8864 20.5302 52.2997C20.2451 51.7098 20.1026 51.0237 20.1026 50.2415C20.1026 49.4593 20.2451 48.7699 20.5302 48.1733C20.8185 47.5734 21.2196 47.1061 21.7333 46.7713C22.2504 46.4332 22.8536 46.2642 23.543 46.2642C23.9407 46.2642 24.3335 46.3305 24.7212 46.4631C25.109 46.5956 25.462 46.8111 25.7802 47.1094C26.0984 47.4044 26.3519 47.7955 26.5408 48.2827C26.7298 48.7699 26.8242 49.3698 26.8242 50.0824V50.5795H20.9379V49.5653H25.631C25.631 49.1345 25.5449 48.75 25.3725 48.4119C25.2035 48.0739 24.9615 47.8071 24.6467 47.6115C24.3351 47.416 23.9672 47.3182 23.543 47.3182C23.0756 47.3182 22.6713 47.4342 22.3299 47.6662C21.9918 47.8949 21.7317 48.1932 21.5494 48.5611C21.3671 48.929 21.2759 49.3234 21.2759 49.7443V50.4205C21.2759 50.9972 21.3754 51.486 21.5742 51.8871C21.7764 52.2848 22.0565 52.5881 22.4144 52.7969C22.7724 53.0024 23.1883 53.1051 23.6623 53.1051C23.9705 53.1051 24.2489 53.062 24.4975 52.9759C24.7494 52.8864 24.9665 52.7538 25.1488 52.5781C25.3311 52.3991 25.4719 52.1771 25.5714 51.9119L26.7049 52.2301C26.5856 52.6146 26.3851 52.9527 26.1033 53.2443C25.8216 53.5327 25.4736 53.758 25.0593 53.9205C24.645 54.0795 24.1793 54.1591 23.6623 54.1591ZM35.967 54.1392C35.3107 54.1392 34.7257 54.0265 34.212 53.8011C33.7016 53.5758 33.2956 53.2625 32.994 52.8615C32.6957 52.4571 32.5333 51.9882 32.5067 51.4545H33.7596C33.7861 51.7827 33.8988 52.0661 34.0977 52.3047C34.2965 52.54 34.5567 52.7223 34.8782 52.8516C35.1997 52.9808 35.556 53.0455 35.9471 53.0455C36.3846 53.0455 36.7724 52.9692 37.1104 52.8168C37.4485 52.6643 37.7137 52.4522 37.9059 52.1804C38.0981 51.9086 38.1942 51.5938 38.1942 51.2358C38.1942 50.8613 38.1014 50.5315 37.9158 50.2464C37.7302 49.9581 37.4585 49.7327 37.1005 49.5703C36.7425 49.4079 36.305 49.3267 35.788 49.3267H34.9727V48.233H35.788C36.1924 48.233 36.547 48.16 36.8519 48.0142C37.1602 47.8684 37.4004 47.6629 37.5728 47.3977C37.7485 47.1326 37.8363 46.821 37.8363 46.4631C37.8363 46.1184 37.7601 45.8184 37.6076 45.5632C37.4551 45.308 37.2397 45.1091 36.9613 44.9666C36.6862 44.8241 36.3614 44.7528 35.9869 44.7528C35.6355 44.7528 35.3041 44.8175 34.9925 44.9467C34.6843 45.0727 34.4324 45.2566 34.2369 45.4986C34.0413 45.7372 33.9353 46.0256 33.9187 46.3636H32.7255C32.7454 45.83 32.9061 45.3627 33.2077 44.9616C33.5094 44.5573 33.9038 44.2424 34.391 44.017C34.8815 43.7917 35.4201 43.679 36.0067 43.679C36.6365 43.679 37.1767 43.8066 37.6275 44.0618C38.0782 44.3137 38.4246 44.6468 38.6665 45.0611C38.9085 45.4754 39.0295 45.9228 39.0295 46.4034C39.0295 46.9768 38.8787 47.4657 38.5771 47.87C38.2788 48.2744 37.8728 48.5545 37.359 48.7102V48.7898C38.002 48.8958 38.5041 49.1693 38.8654 49.6101C39.2267 50.0476 39.4073 50.5895 39.4073 51.2358C39.4073 51.7893 39.2565 52.2865 38.9549 52.7273C38.6566 53.1648 38.2489 53.5095 37.7319 53.7614C37.2148 54.0133 36.6265 54.1392 35.967 54.1392Z" fill="black"/>
</g>
<defs>
<clipPath id="clip0_0_1057">
<rect width="150" height="120" fill="white"/>
</clipPath>
</defs>
</svg>
