<svg width="150" height="120" viewBox="0 0 150 120" fill="none" xmlns="http://www.w3.org/2000/svg">
<g clip-path="url(#clip0_0_1069)">
<rect width="150" height="120" fill="white"/>
<path d="M1.23295 14V3.81818H2.46591V12.9062H7.19886V14H1.23295ZM8.94886 14V6.36364H10.1222V14H8.94886ZM9.54545 5.09091C9.31676 5.09091 9.11955 5.01302 8.95384 4.85724C8.79143 4.70147 8.71023 4.5142 8.71023 4.29545C8.71023 4.0767 8.79143 3.88944 8.95384 3.73366C9.11955 3.57789 9.31676 3.5 9.54545 3.5C9.77415 3.5 9.9697 3.57789 10.1321 3.73366C10.2978 3.88944 10.3807 4.0767 10.3807 4.29545C10.3807 4.5142 10.2978 4.70147 10.1321 4.85724C9.9697 5.01302 9.77415 5.09091 9.54545 5.09091ZM13.4444 9.40625V14H12.2711V6.36364H13.4047V7.55682H13.5041C13.6831 7.16903 13.9548 6.85748 14.3194 6.62216C14.684 6.38352 15.1547 6.2642 15.7314 6.2642C16.2484 6.2642 16.7008 6.37027 17.0886 6.58239C17.4764 6.79119 17.778 7.10938 17.9934 7.53693C18.2089 7.96117 18.3166 8.49811 18.3166 9.14773V14H17.1433V9.22727C17.1433 8.62737 16.9875 8.16004 16.676 7.82528C16.3644 7.48722 15.9368 7.31818 15.3933 7.31818C15.0188 7.31818 14.684 7.39938 14.389 7.56179C14.0974 7.72419 13.867 7.96117 13.698 8.27273C13.5289 8.58428 13.4444 8.96212 13.4444 9.40625ZM23.6623 14.1591C22.9265 14.1591 22.2918 13.9967 21.7582 13.6719C21.2279 13.3438 20.8185 12.8864 20.5302 12.2997C20.2451 11.7098 20.1026 11.0237 20.1026 10.2415C20.1026 9.45928 20.2451 8.76989 20.5302 8.1733C20.8185 7.57339 21.2196 7.10606 21.7333 6.77131C22.2504 6.43324 22.8536 6.2642 23.543 6.2642C23.9407 6.2642 24.3335 6.33049 24.7212 6.46307C25.109 6.59564 25.462 6.81108 25.7802 7.10938C26.0984 7.40436 26.3519 7.79545 26.5408 8.28267C26.7298 8.76989 26.8242 9.36979 26.8242 10.0824V10.5795H20.9379V9.56534H25.631C25.631 9.13447 25.5449 8.75 25.3725 8.41193C25.2035 8.07386 24.9615 7.80705 24.6467 7.61151C24.3351 7.41596 23.9672 7.31818 23.543 7.31818C23.0756 7.31818 22.6713 7.43419 22.3299 7.66619C21.9918 7.89489 21.7317 8.19318 21.5494 8.56108C21.3671 8.92898 21.2759 9.32339 21.2759 9.74432V10.4205C21.2759 10.9972 21.3754 11.486 21.5742 11.8871C21.7764 12.2848 22.0565 12.5881 22.4144 12.7969C22.7724 13.0024 23.1883 13.1051 23.6623 13.1051C23.9705 13.1051 24.2489 13.062 24.4975 12.9759C24.7494 12.8864 24.9665 12.7538 25.1488 12.5781C25.3311 12.3991 25.4719 12.1771 25.5714 11.9119L26.7049 12.2301C26.5856 12.6146 26.3851 12.9527 26.1033 13.2443C25.8216 13.5327 25.4736 13.758 25.0593 13.9205C24.645 14.0795 24.1793 14.1591 23.6623 14.1591ZM36.1062 3.81818V14H34.8732V5.1108H34.8136L32.3278 6.76136V5.50852L34.8732 3.81818H36.1062ZM1.23295 38V27.8182H2.46591V36.9062H7.19886V38H1.23295ZM8.94886 38V30.3636H10.1222V38H8.94886ZM9.54545 29.0909C9.31676 29.0909 9.11955 29.013 8.95384 28.8572C8.79143 28.7015 8.71023 28.5142 8.71023 28.2955C8.71023 28.0767 8.79143 27.8894 8.95384 27.7337C9.11955 27.5779 9.31676 27.5 9.54545 27.5C9.77415 27.5 9.9697 27.5779 10.1321 27.7337C10.2978 27.8894 10.3807 28.0767 10.3807 28.2955C10.3807 28.5142 10.2978 28.7015 10.1321 28.8572C9.9697 29.013 9.77415 29.0909 9.54545 29.0909ZM13.4444 33.4062V38H12.2711V30.3636H13.4047V31.5568H13.5041C13.6831 31.169 13.9548 30.8575 14.3194 30.6222C14.684 30.3835 15.1547 30.2642 15.7314 30.2642C16.2484 30.2642 16.7008 30.3703 17.0886 30.5824C17.4764 30.7912 17.778 31.1094 17.9934 31.5369C18.2089 31.9612 18.3166 32.4981 18.3166 33.1477V38H17.1433V33.2273C17.1433 32.6274 16.9875 32.16 16.676 31.8253C16.3644 31.4872 15.9368 31.3182 15.3933 31.3182C15.0188 31.3182 14.684 31.3994 14.389 31.5618C14.0974 31.7242 13.867 31.9612 13.698 32.2727C13.5289 32.5843 13.4444 32.9621 13.4444 33.4062ZM23.6623 38.1591C22.9265 38.1591 22.2918 37.9967 21.7582 37.6719C21.2279 37.3438 20.8185 36.8864 20.5302 36.2997C20.2451 35.7098 20.1026 35.0237 20.1026 34.2415C20.1026 33.4593 20.2451 32.7699 20.5302 32.1733C20.8185 31.5734 21.2196 31.1061 21.7333 30.7713C22.2504 30.4332 22.8536 30.2642 23.543 30.2642C23.9407 30.2642 24.3335 30.3305 24.7212 30.4631C25.109 30.5956 25.462 30.8111 25.7802 31.1094C26.0984 31.4044 26.3519 31.7955 26.5408 32.2827C26.7298 32.7699 26.8242 33.3698 26.8242 34.0824V34.5795H20.9379V33.5653H25.631C25.631 33.1345 25.5449 32.75 25.3725 32.4119C25.2035 32.0739 24.9615 31.8071 24.6467 31.6115C24.3351 31.416 23.9672 31.3182 23.543 31.3182C23.0756 31.3182 22.6713 31.4342 22.3299 31.6662C21.9918 31.8949 21.7317 32.1932 21.5494 32.5611C21.3671 32.929 21.2759 33.3234 21.2759 33.7443V34.4205C21.2759 34.9972 21.3754 35.486 21.5742 35.8871C21.7764 36.2848 22.0565 36.5881 22.4144 36.7969C22.7724 37.0024 23.1883 37.1051 23.6623 37.1051C23.9705 37.1051 24.2489 37.062 24.4975 36.9759C24.7494 36.8864 24.9665 36.7538 25.1488 36.5781C25.3311 36.3991 25.4719 36.1771 25.5714 35.9119L26.7049 36.2301C26.5856 36.6146 26.3851 36.9527 26.1033 37.2443C25.8216 37.5327 25.4736 37.758 25.0593 37.9205C24.645 38.0795 24.1793 38.1591 23.6623 38.1591ZM32.5266 38V37.1051L35.8874 33.4261C36.2818 32.9953 36.6067 32.6207 36.8619 32.3026C37.1171 31.9811 37.306 31.6795 37.4286 31.3977C37.5546 31.1127 37.6175 30.8144 37.6175 30.5028C37.6175 30.1449 37.5314 29.835 37.359 29.5732C37.19 29.3113 36.958 29.1091 36.663 28.9666C36.368 28.8241 36.0366 28.7528 35.6687 28.7528C35.2776 28.7528 34.9362 28.834 34.6445 28.9964C34.3562 29.1555 34.1325 29.3793 33.9734 29.6676C33.8176 29.956 33.7397 30.294 33.7397 30.6818H32.5664C32.5664 30.0852 32.704 29.5616 32.979 29.1108C33.2541 28.66 33.6287 28.3087 34.1026 28.0568C34.5799 27.8049 35.1152 27.679 35.7085 27.679C36.305 27.679 36.8337 27.8049 37.2944 28.0568C37.7551 28.3087 38.1164 28.6484 38.3782 29.076C38.64 29.5036 38.771 29.9792 38.771 30.5028C38.771 30.8774 38.703 31.2436 38.5671 31.6016C38.4345 31.9562 38.2025 32.3523 37.8711 32.7898C37.543 33.224 37.0872 33.7543 36.5039 34.3807L34.217 36.8267V36.9062H38.9499V38H32.5266ZM1.23295 62V51.8182H2.46591V60.9062H7.19886V62H1.23295ZM8.94886 62V54.3636H10.1222V62H8.94886ZM9.54545 53.0909C9.31676 53.0909 9.11955 53.013 8.95384 52.8572C8.79143 52.7015 8.71023 52.5142 8.71023 52.2955C8.71023 52.0767 8.79143 51.8894 8.95384 51.7337C9.11955 51.5779 9.31676 51.5 9.54545 51.5C9.77415 51.5 9.9697 51.5779 10.1321 51.7337C10.2978 51.8894 10.3807 52.0767 10.3807 52.2955C10.3807 52.5142 10.2978 52.7015 10.1321 52.8572C9.9697 53.013 9.77415 53.0909 9.54545 53.0909ZM13.4444 57.4062V62H12.2711V54.3636H13.4047V55.5568H13.5041C13.6831 55.169 13.9548 54.8575 14.3194 54.6222C14.684 54.3835 15.1547 54.2642 15.7314 54.2642C16.2484 54.2642 16.7008 54.3703 17.0886 54.5824C17.4764 54.7912 17.778 55.1094 17.9934 55.5369C18.2089 55.9612 18.3166 56.4981 18.3166 57.1477V62H17.1433V57.2273C17.1433 56.6274 16.9875 56.16 16.676 55.8253C16.3644 55.4872 15.9368 55.3182 15.3933 55.3182C15.0188 55.3182 14.684 55.3994 14.389 55.5618C14.0974 55.7242 13.867 55.9612 13.698 56.2727C13.5289 56.5843 13.4444 56.9621 13.4444 57.4062ZM23.6623 62.1591C22.9265 62.1591 22.2918 61.9967 21.7582 61.6719C21.2279 61.3438 20.8185 60.8864 20.5302 60.2997C20.2451 59.7098 20.1026 59.0237 20.1026 58.2415C20.1026 57.4593 20.2451 56.7699 20.5302 56.1733C20.8185 55.5734 21.2196 55.1061 21.7333 54.7713C22.2504 54.4332 22.8536 54.2642 23.543 54.2642C23.9407 54.2642 24.3335 54.3305 24.7212 54.4631C25.109 54.5956 25.462 54.8111 25.7802 55.1094C26.0984 55.4044 26.3519 55.7955 26.5408 56.2827C26.7298 56.7699 26.8242 57.3698 26.8242 58.0824V58.5795H20.9379V57.5653H25.631C25.631 57.1345 25.5449 56.75 25.3725 56.4119C25.2035 56.0739 24.9615 55.8071 24.6467 55.6115C24.3351 55.416 23.9672 55.3182 23.543 55.3182C23.0756 55.3182 22.6713 55.4342 22.3299 55.6662C21.9918 55.8949 21.7317 56.1932 21.5494 56.5611C21.3671 56.929 21.2759 57.3234 21.2759 57.7443V58.4205C21.2759 58.9972 21.3754 59.486 21.5742 59.8871C21.7764 60.2848 22.0565 60.5881 22.4144 60.7969C22.7724 61.0024 23.1883 61.1051 23.6623 61.1051C23.9705 61.1051 24.2489 61.062 24.4975 60.9759C24.7494 60.8864 24.9665 60.7538 25.1488 60.5781C25.3311 60.3991 25.4719 60.1771 25.5714 59.9119L26.7049 60.2301C26.5856 60.6146 26.3851 60.9527 26.1033 61.2443C25.8216 61.5327 25.4736 61.758 25.0593 61.9205C24.645 62.0795 24.1793 62.1591 23.6623 62.1591ZM35.967 62.1392C35.3107 62.1392 34.7257 62.0265 34.212 61.8011C33.7016 61.5758 33.2956 61.2625 32.994 60.8615C32.6957 60.4571 32.5333 59.9882 32.5067 59.4545H33.7596C33.7861 59.7827 33.8988 60.0661 34.0977 60.3047C34.2965 60.54 34.5567 60.7223 34.8782 60.8516C35.1997 60.9808 35.556 61.0455 35.9471 61.0455C36.3846 61.0455 36.7724 60.9692 37.1104 60.8168C37.4485 60.6643 37.7137 60.4522 37.9059 60.1804C38.0981 59.9086 38.1942 59.5938 38.1942 59.2358C38.1942 58.8613 38.1014 58.5315 37.9158 58.2464C37.7302 57.9581 37.4585 57.7327 37.1005 57.5703C36.7425 57.4079 36.305 57.3267 35.788 57.3267H34.9727V56.233H35.788C36.1924 56.233 36.547 56.16 36.8519 56.0142C37.1602 55.8684 37.4004 55.6629 37.5728 55.3977C37.7485 55.1326 37.8363 54.821 37.8363 54.4631C37.8363 54.1184 37.7601 53.8184 37.6076 53.5632C37.4551 53.308 37.2397 53.1091 36.9613 52.9666C36.6862 52.8241 36.3614 52.7528 35.9869 52.7528C35.6355 52.7528 35.3041 52.8175 34.9925 52.9467C34.6843 53.0727 34.4324 53.2566 34.2369 53.4986C34.0413 53.7372 33.9353 54.0256 33.9187 54.3636H32.7255C32.7454 53.83 32.9061 53.3627 33.2077 52.9616C33.5094 52.5573 33.9038 52.2424 34.391 52.017C34.8815 51.7917 35.4201 51.679 36.0067 51.679C36.6365 51.679 37.1767 51.8066 37.6275 52.0618C38.0782 52.3137 38.4246 52.6468 38.6665 53.0611C38.9085 53.4754 39.0295 53.9228 39.0295 54.4034C39.0295 54.9768 38.8787 55.4657 38.5771 55.87C38.2788 56.2744 37.8728 56.5545 37.359 56.7102V56.7898C38.002 56.8958 38.5041 57.1693 38.8654 57.6101C39.2267 58.0476 39.4073 58.5895 39.4073 59.2358C39.4073 59.7893 39.2565 60.2865 38.9549 60.7273C38.6566 61.1648 38.2489 61.5095 37.7319 61.7614C37.2148 62.0133 36.6265 62.1392 35.967 62.1392Z" fill="black"/>
</g>
<defs>
<clipPath id="clip0_0_1069">
<rect width="150" height="120" fill="white"/>
</clipPath>
</defs>
</svg>
