<svg width="150" height="120" viewBox="0 0 150 120" fill="none" xmlns="http://www.w3.org/2000/svg">
<g clip-path="url(#clip0_0_1061)">
<rect width="150" height="120" fill="white"/>
<path d="M1.23295 14V3.81818H2.46591V12.9062H7.19886V14H1.23295ZM8.94886 14V6.36364H10.1222V14H8.94886ZM9.54545 5.09091C9.31676 5.09091 9.11955 5.01302 8.95384 4.85724C8.79143 4.70147 8.71023 4.5142 8.71023 4.29545C8.71023 4.0767 8.79143 3.88944 8.95384 3.73366C9.11955 3.57789 9.31676 3.5 9.54545 3.5C9.77415 3.5 9.9697 3.57789 10.1321 3.73366C10.2978 3.88944 10.3807 4.0767 10.3807 4.29545C10.3807 4.5142 10.2978 4.70147 10.1321 4.85724C9.9697 5.01302 9.77415 5.09091 9.54545 5.09091ZM13.4444 9.40625V14H12.2711V6.36364H13.4047V7.55682H13.5041C13.6831 7.16903 13.9548 6.85748 14.3194 6.62216C14.684 6.38352 15.1547 6.2642 15.7314 6.2642C16.2484 6.2642 16.7008 6.37027 17.0886 6.58239C17.4764 6.79119 17.778 7.10938 17.9934 7.53693C18.2089 7.96117 18.3166 8.49811 18.3166 9.14773V14H17.1433V9.22727C17.1433 8.62737 16.9875 8.16004 16.676 7.82528C16.3644 7.48722 15.9368 7.31818 15.3933 7.31818C15.0188 7.31818 14.684 7.39938 14.389 7.56179C14.0974 7.72419 13.867 7.96117 13.698 8.27273C13.5289 8.58428 13.4444 8.96212 13.4444 9.40625ZM23.6623 14.1591C22.9265 14.1591 22.2918 13.9967 21.7582 13.6719C21.2279 13.3438 20.8185 12.8864 20.5302 12.2997C20.2451 11.7098 20.1026 11.0237 20.1026 10.2415C20.1026 9.45928 20.2451 8.76989 20.5302 8.1733C20.8185 7.57339 21.2196 7.10606 21.7333 6.77131C22.2504 6.43324 22.8536 6.2642 23.543 6.2642C23.9407 6.2642 24.3335 6.33049 24.7212 6.46307C25.109 6.59564 25.462 6.81108 25.7802 7.10938C26.0984 7.40436 26.3519 7.79545 26.5408 8.28267C26.7298 8.76989 26.8242 9.36979 26.8242 10.0824V10.5795H20.9379V9.56534H25.631C25.631 9.13447 25.5449 8.75 25.3725 8.41193C25.2035 8.07386 24.9615 7.80705 24.6467 7.61151C24.3351 7.41596 23.9672 7.31818 23.543 7.31818C23.0756 7.31818 22.6713 7.43419 22.3299 7.66619C21.9918 7.89489 21.7317 8.19318 21.5494 8.56108C21.3671 8.92898 21.2759 9.32339 21.2759 9.74432V10.4205C21.2759 10.9972 21.3754 11.486 21.5742 11.8871C21.7764 12.2848 22.0565 12.5881 22.4144 12.7969C22.7724 13.0024 23.1883 13.1051 23.6623 13.1051C23.9705 13.1051 24.2489 13.062 24.4975 12.9759C24.7494 12.8864 24.9665 12.7538 25.1488 12.5781C25.3311 12.3991 25.4719 12.1771 25.5714 11.9119L26.7049 12.2301C26.5856 12.6146 26.3851 12.9527 26.1033 13.2443C25.8216 13.5327 25.4736 13.758 25.0593 13.9205C24.645 14.0795 24.1793 14.1591 23.6623 14.1591ZM36.1062 3.81818V14H34.8732V5.1108H34.8136L32.3278 6.76136V5.50852L34.8732 3.81818H36.1062ZM1.23295 47V36.8182H2.46591V45.9062H7.19886V47H1.23295ZM8.94886 47V39.3636H10.1222V47H8.94886ZM9.54545 38.0909C9.31676 38.0909 9.11955 38.013 8.95384 37.8572C8.79143 37.7015 8.71023 37.5142 8.71023 37.2955C8.71023 37.0767 8.79143 36.8894 8.95384 36.7337C9.11955 36.5779 9.31676 36.5 9.54545 36.5C9.77415 36.5 9.9697 36.5779 10.1321 36.7337C10.2978 36.8894 10.3807 37.0767 10.3807 37.2955C10.3807 37.5142 10.2978 37.7015 10.1321 37.8572C9.9697 38.013 9.77415 38.0909 9.54545 38.0909ZM13.4444 42.4062V47H12.2711V39.3636H13.4047V40.5568H13.5041C13.6831 40.169 13.9548 39.8575 14.3194 39.6222C14.684 39.3835 15.1547 39.2642 15.7314 39.2642C16.2484 39.2642 16.7008 39.3703 17.0886 39.5824C17.4764 39.7912 17.778 40.1094 17.9934 40.5369C18.2089 40.9612 18.3166 41.4981 18.3166 42.1477V47H17.1433V42.2273C17.1433 41.6274 16.9875 41.16 16.676 40.8253C16.3644 40.4872 15.9368 40.3182 15.3933 40.3182C15.0188 40.3182 14.684 40.3994 14.389 40.5618C14.0974 40.7242 13.867 40.9612 13.698 41.2727C13.5289 41.5843 13.4444 41.9621 13.4444 42.4062ZM23.6623 47.1591C22.9265 47.1591 22.2918 46.9967 21.7582 46.6719C21.2279 46.3438 20.8185 45.8864 20.5302 45.2997C20.2451 44.7098 20.1026 44.0237 20.1026 43.2415C20.1026 42.4593 20.2451 41.7699 20.5302 41.1733C20.8185 40.5734 21.2196 40.1061 21.7333 39.7713C22.2504 39.4332 22.8536 39.2642 23.543 39.2642C23.9407 39.2642 24.3335 39.3305 24.7212 39.4631C25.109 39.5956 25.462 39.8111 25.7802 40.1094C26.0984 40.4044 26.3519 40.7955 26.5408 41.2827C26.7298 41.7699 26.8242 42.3698 26.8242 43.0824V43.5795H20.9379V42.5653H25.631C25.631 42.1345 25.5449 41.75 25.3725 41.4119C25.2035 41.0739 24.9615 40.8071 24.6467 40.6115C24.3351 40.416 23.9672 40.3182 23.543 40.3182C23.0756 40.3182 22.6713 40.4342 22.3299 40.6662C21.9918 40.8949 21.7317 41.1932 21.5494 41.5611C21.3671 41.929 21.2759 42.3234 21.2759 42.7443V43.4205C21.2759 43.9972 21.3754 44.486 21.5742 44.8871C21.7764 45.2848 22.0565 45.5881 22.4144 45.7969C22.7724 46.0024 23.1883 46.1051 23.6623 46.1051C23.9705 46.1051 24.2489 46.062 24.4975 45.9759C24.7494 45.8864 24.9665 45.7538 25.1488 45.5781C25.3311 45.3991 25.4719 45.1771 25.5714 44.9119L26.7049 45.2301C26.5856 45.6146 26.3851 45.9527 26.1033 46.2443C25.8216 46.5327 25.4736 46.758 25.0593 46.9205C24.645 47.0795 24.1793 47.1591 23.6623 47.1591ZM32.5266 47V46.1051L35.8874 42.4261C36.2818 41.9953 36.6067 41.6207 36.8619 41.3026C37.1171 40.9811 37.306 40.6795 37.4286 40.3977C37.5546 40.1127 37.6175 39.8144 37.6175 39.5028C37.6175 39.1449 37.5314 38.835 37.359 38.5732C37.19 38.3113 36.958 38.1091 36.663 37.9666C36.368 37.8241 36.0366 37.7528 35.6687 37.7528C35.2776 37.7528 34.9362 37.834 34.6445 37.9964C34.3562 38.1555 34.1325 38.3793 33.9734 38.6676C33.8176 38.956 33.7397 39.294 33.7397 39.6818H32.5664C32.5664 39.0852 32.704 38.5616 32.979 38.1108C33.2541 37.66 33.6287 37.3087 34.1026 37.0568C34.5799 36.8049 35.1152 36.679 35.7085 36.679C36.305 36.679 36.8337 36.8049 37.2944 37.0568C37.7551 37.3087 38.1164 37.6484 38.3782 38.076C38.64 38.5036 38.771 38.9792 38.771 39.5028C38.771 39.8774 38.703 40.2436 38.5671 40.6016C38.4345 40.9562 38.2025 41.3523 37.8711 41.7898C37.543 42.224 37.0872 42.7543 36.5039 43.3807L34.217 45.8267V45.9062H38.9499V47H32.5266ZM1.23295 81V70.8182H2.46591V79.9062H7.19886V81H1.23295ZM8.94886 81V73.3636H10.1222V81H8.94886ZM9.54545 72.0909C9.31676 72.0909 9.11955 72.013 8.95384 71.8572C8.79143 71.7015 8.71023 71.5142 8.71023 71.2955C8.71023 71.0767 8.79143 70.8894 8.95384 70.7337C9.11955 70.5779 9.31676 70.5 9.54545 70.5C9.77415 70.5 9.9697 70.5779 10.1321 70.7337C10.2978 70.8894 10.3807 71.0767 10.3807 71.2955C10.3807 71.5142 10.2978 71.7015 10.1321 71.8572C9.9697 72.013 9.77415 72.0909 9.54545 72.0909ZM13.4444 76.4062V81H12.2711V73.3636H13.4047V74.5568H13.5041C13.6831 74.169 13.9548 73.8575 14.3194 73.6222C14.684 73.3835 15.1547 73.2642 15.7314 73.2642C16.2484 73.2642 16.7008 73.3703 17.0886 73.5824C17.4764 73.7912 17.778 74.1094 17.9934 74.5369C18.2089 74.9612 18.3166 75.4981 18.3166 76.1477V81H17.1433V76.2273C17.1433 75.6274 16.9875 75.16 16.676 74.8253C16.3644 74.4872 15.9368 74.3182 15.3933 74.3182C15.0188 74.3182 14.684 74.3994 14.389 74.5618C14.0974 74.7242 13.867 74.9612 13.698 75.2727C13.5289 75.5843 13.4444 75.9621 13.4444 76.4062ZM23.6623 81.1591C22.9265 81.1591 22.2918 80.9967 21.7582 80.6719C21.2279 80.3438 20.8185 79.8864 20.5302 79.2997C20.2451 78.7098 20.1026 78.0237 20.1026 77.2415C20.1026 76.4593 20.2451 75.7699 20.5302 75.1733C20.8185 74.5734 21.2196 74.1061 21.7333 73.7713C22.2504 73.4332 22.8536 73.2642 23.543 73.2642C23.9407 73.2642 24.3335 73.3305 24.7212 73.4631C25.109 73.5956 25.462 73.8111 25.7802 74.1094C26.0984 74.4044 26.3519 74.7955 26.5408 75.2827C26.7298 75.7699 26.8242 76.3698 26.8242 77.0824V77.5795H20.9379V76.5653H25.631C25.631 76.1345 25.5449 75.75 25.3725 75.4119C25.2035 75.0739 24.9615 74.8071 24.6467 74.6115C24.3351 74.416 23.9672 74.3182 23.543 74.3182C23.0756 74.3182 22.6713 74.4342 22.3299 74.6662C21.9918 74.8949 21.7317 75.1932 21.5494 75.5611C21.3671 75.929 21.2759 76.3234 21.2759 76.7443V77.4205C21.2759 77.9972 21.3754 78.486 21.5742 78.8871C21.7764 79.2848 22.0565 79.5881 22.4144 79.7969C22.7724 80.0024 23.1883 80.1051 23.6623 80.1051C23.9705 80.1051 24.2489 80.062 24.4975 79.9759C24.7494 79.8864 24.9665 79.7538 25.1488 79.5781C25.3311 79.3991 25.4719 79.1771 25.5714 78.9119L26.7049 79.2301C26.5856 79.6146 26.3851 79.9527 26.1033 80.2443C25.8216 80.5327 25.4736 80.758 25.0593 80.9205C24.645 81.0795 24.1793 81.1591 23.6623 81.1591ZM35.967 81.1392C35.3107 81.1392 34.7257 81.0265 34.212 80.8011C33.7016 80.5758 33.2956 80.2625 32.994 79.8615C32.6957 79.4571 32.5333 78.9882 32.5067 78.4545H33.7596C33.7861 78.7827 33.8988 79.0661 34.0977 79.3047C34.2965 79.54 34.5567 79.7223 34.8782 79.8516C35.1997 79.9808 35.556 80.0455 35.9471 80.0455C36.3846 80.0455 36.7724 79.9692 37.1104 79.8168C37.4485 79.6643 37.7137 79.4522 37.9059 79.1804C38.0981 78.9086 38.1942 78.5938 38.1942 78.2358C38.1942 77.8613 38.1014 77.5315 37.9158 77.2464C37.7302 76.9581 37.4585 76.7327 37.1005 76.5703C36.7425 76.4079 36.305 76.3267 35.788 76.3267H34.9727V75.233H35.788C36.1924 75.233 36.547 75.16 36.8519 75.0142C37.1602 74.8684 37.4004 74.6629 37.5728 74.3977C37.7485 74.1326 37.8363 73.821 37.8363 73.4631C37.8363 73.1184 37.7601 72.8184 37.6076 72.5632C37.4551 72.308 37.2397 72.1091 36.9613 71.9666C36.6862 71.8241 36.3614 71.7528 35.9869 71.7528C35.6355 71.7528 35.3041 71.8175 34.9925 71.9467C34.6843 72.0727 34.4324 72.2566 34.2369 72.4986C34.0413 72.7372 33.9353 73.0256 33.9187 73.3636H32.7255C32.7454 72.83 32.9061 72.3627 33.2077 71.9616C33.5094 71.5573 33.9038 71.2424 34.391 71.017C34.8815 70.7917 35.4201 70.679 36.0067 70.679C36.6365 70.679 37.1767 70.8066 37.6275 71.0618C38.0782 71.3137 38.4246 71.6468 38.6665 72.0611C38.9085 72.4754 39.0295 72.9228 39.0295 73.4034C39.0295 73.9768 38.8787 74.4657 38.5771 74.87C38.2788 75.2744 37.8728 75.5545 37.359 75.7102V75.7898C38.002 75.8958 38.5041 76.1693 38.8654 76.6101C39.2267 77.0476 39.4073 77.5895 39.4073 78.2358C39.4073 78.7893 39.2565 79.2865 38.9549 79.7273C38.6566 80.1648 38.2489 80.5095 37.7319 80.7614C37.2148 81.0133 36.6265 81.1392 35.967 81.1392Z" fill="black"/>
</g>
<defs>
<clipPath id="clip0_0_1061">
<rect width="150" height="120" fill="white"/>
</clipPath>
</defs>
</svg>
