<svg width="150" height="120" viewBox="0 0 150 120" fill="none" xmlns="http://www.w3.org/2000/svg">
<g clip-path="url(#clip0_0_1071)">
<rect width="150" height="120" fill="white"/>
<path d="M1.23295 14V3.81818H2.46591V12.9062H7.19886V14H1.23295ZM8.94886 14V6.36364H10.1222V14H8.94886ZM9.54545 5.09091C9.31676 5.09091 9.11955 5.01302 8.95384 4.85724C8.79143 4.70147 8.71023 4.5142 8.71023 4.29545C8.71023 4.0767 8.79143 3.88944 8.95384 3.73366C9.11955 3.57789 9.31676 3.5 9.54545 3.5C9.77415 3.5 9.9697 3.57789 10.1321 3.73366C10.2978 3.88944 10.3807 4.0767 10.3807 4.29545C10.3807 4.5142 10.2978 4.70147 10.1321 4.85724C9.9697 5.01302 9.77415 5.09091 9.54545 5.09091ZM13.4444 9.40625V14H12.2711V6.36364H13.4047V7.55682H13.5041C13.6831 7.16903 13.9548 6.85748 14.3194 6.62216C14.684 6.38352 15.1547 6.2642 15.7314 6.2642C16.2484 6.2642 16.7008 6.37027 17.0886 6.58239C17.4764 6.79119 17.778 7.10938 17.9934 7.53693C18.2089 7.96117 18.3166 8.49811 18.3166 9.14773V14H17.1433V9.22727C17.1433 8.62737 16.9875 8.16004 16.676 7.82528C16.3644 7.48722 15.9368 7.31818 15.3933 7.31818C15.0188 7.31818 14.684 7.39938 14.389 7.56179C14.0974 7.72419 13.867 7.96117 13.698 8.27273C13.5289 8.58428 13.4444 8.96212 13.4444 9.40625ZM23.6623 14.1591C22.9265 14.1591 22.2918 13.9967 21.7582 13.6719C21.2279 13.3438 20.8185 12.8864 20.5302 12.2997C20.2451 11.7098 20.1026 11.0237 20.1026 10.2415C20.1026 9.45928 20.2451 8.76989 20.5302 8.1733C20.8185 7.57339 21.2196 7.10606 21.7333 6.77131C22.2504 6.43324 22.8536 6.2642 23.543 6.2642C23.9407 6.2642 24.3335 6.33049 24.7212 6.46307C25.109 6.59564 25.462 6.81108 25.7802 7.10938C26.0984 7.40436 26.3519 7.79545 26.5408 8.28267C26.7298 8.76989 26.8242 9.36979 26.8242 10.0824V10.5795H20.9379V9.56534H25.631C25.631 9.13447 25.5449 8.75 25.3725 8.41193C25.2035 8.07386 24.9615 7.80705 24.6467 7.61151C24.3351 7.41596 23.9672 7.31818 23.543 7.31818C23.0756 7.31818 22.6713 7.43419 22.3299 7.66619C21.9918 7.89489 21.7317 8.19318 21.5494 8.56108C21.3671 8.92898 21.2759 9.32339 21.2759 9.74432V10.4205C21.2759 10.9972 21.3754 11.486 21.5742 11.8871C21.7764 12.2848 22.0565 12.5881 22.4144 12.7969C22.7724 13.0024 23.1883 13.1051 23.6623 13.1051C23.9705 13.1051 24.2489 13.062 24.4975 12.9759C24.7494 12.8864 24.9665 12.7538 25.1488 12.5781C25.3311 12.3991 25.4719 12.1771 25.5714 11.9119L26.7049 12.2301C26.5856 12.6146 26.3851 12.9527 26.1033 13.2443C25.8216 13.5327 25.4736 13.758 25.0593 13.9205C24.645 14.0795 24.1793 14.1591 23.6623 14.1591ZM36.1062 3.81818V14H34.8732V5.1108H34.8136L32.3278 6.76136V5.50852L34.8732 3.81818H36.1062ZM1.23295 46V35.8182H2.46591V44.9062H7.19886V46H1.23295ZM8.94886 46V38.3636H10.1222V46H8.94886ZM9.54545 37.0909C9.31676 37.0909 9.11955 37.013 8.95384 36.8572C8.79143 36.7015 8.71023 36.5142 8.71023 36.2955C8.71023 36.0767 8.79143 35.8894 8.95384 35.7337C9.11955 35.5779 9.31676 35.5 9.54545 35.5C9.77415 35.5 9.9697 35.5779 10.1321 35.7337C10.2978 35.8894 10.3807 36.0767 10.3807 36.2955C10.3807 36.5142 10.2978 36.7015 10.1321 36.8572C9.9697 37.013 9.77415 37.0909 9.54545 37.0909ZM13.4444 41.4062V46H12.2711V38.3636H13.4047V39.5568H13.5041C13.6831 39.169 13.9548 38.8575 14.3194 38.6222C14.684 38.3835 15.1547 38.2642 15.7314 38.2642C16.2484 38.2642 16.7008 38.3703 17.0886 38.5824C17.4764 38.7912 17.778 39.1094 17.9934 39.5369C18.2089 39.9612 18.3166 40.4981 18.3166 41.1477V46H17.1433V41.2273C17.1433 40.6274 16.9875 40.16 16.676 39.8253C16.3644 39.4872 15.9368 39.3182 15.3933 39.3182C15.0188 39.3182 14.684 39.3994 14.389 39.5618C14.0974 39.7242 13.867 39.9612 13.698 40.2727C13.5289 40.5843 13.4444 40.9621 13.4444 41.4062ZM23.6623 46.1591C22.9265 46.1591 22.2918 45.9967 21.7582 45.6719C21.2279 45.3438 20.8185 44.8864 20.5302 44.2997C20.2451 43.7098 20.1026 43.0237 20.1026 42.2415C20.1026 41.4593 20.2451 40.7699 20.5302 40.1733C20.8185 39.5734 21.2196 39.1061 21.7333 38.7713C22.2504 38.4332 22.8536 38.2642 23.543 38.2642C23.9407 38.2642 24.3335 38.3305 24.7212 38.4631C25.109 38.5956 25.462 38.8111 25.7802 39.1094C26.0984 39.4044 26.3519 39.7955 26.5408 40.2827C26.7298 40.7699 26.8242 41.3698 26.8242 42.0824V42.5795H20.9379V41.5653H25.631C25.631 41.1345 25.5449 40.75 25.3725 40.4119C25.2035 40.0739 24.9615 39.8071 24.6467 39.6115C24.3351 39.416 23.9672 39.3182 23.543 39.3182C23.0756 39.3182 22.6713 39.4342 22.3299 39.6662C21.9918 39.8949 21.7317 40.1932 21.5494 40.5611C21.3671 40.929 21.2759 41.3234 21.2759 41.7443V42.4205C21.2759 42.9972 21.3754 43.486 21.5742 43.8871C21.7764 44.2848 22.0565 44.5881 22.4144 44.7969C22.7724 45.0024 23.1883 45.1051 23.6623 45.1051C23.9705 45.1051 24.2489 45.062 24.4975 44.9759C24.7494 44.8864 24.9665 44.7538 25.1488 44.5781C25.3311 44.3991 25.4719 44.1771 25.5714 43.9119L26.7049 44.2301C26.5856 44.6146 26.3851 44.9527 26.1033 45.2443C25.8216 45.5327 25.4736 45.758 25.0593 45.9205C24.645 46.0795 24.1793 46.1591 23.6623 46.1591ZM32.5266 46V45.1051L35.8874 41.4261C36.2818 40.9953 36.6067 40.6207 36.8619 40.3026C37.1171 39.9811 37.306 39.6795 37.4286 39.3977C37.5546 39.1127 37.6175 38.8144 37.6175 38.5028C37.6175 38.1449 37.5314 37.835 37.359 37.5732C37.19 37.3113 36.958 37.1091 36.663 36.9666C36.368 36.8241 36.0366 36.7528 35.6687 36.7528C35.2776 36.7528 34.9362 36.834 34.6445 36.9964C34.3562 37.1555 34.1325 37.3793 33.9734 37.6676C33.8176 37.956 33.7397 38.294 33.7397 38.6818H32.5664C32.5664 38.0852 32.704 37.5616 32.979 37.1108C33.2541 36.66 33.6287 36.3087 34.1026 36.0568C34.5799 35.8049 35.1152 35.679 35.7085 35.679C36.305 35.679 36.8337 35.8049 37.2944 36.0568C37.7551 36.3087 38.1164 36.6484 38.3782 37.076C38.64 37.5036 38.771 37.9792 38.771 38.5028C38.771 38.8774 38.703 39.2436 38.5671 39.6016C38.4345 39.9562 38.2025 40.3523 37.8711 40.7898C37.543 41.224 37.0872 41.7543 36.5039 42.3807L34.217 44.8267V44.9062H38.9499V46H32.5266ZM1.23295 78V67.8182H2.46591V76.9062H7.19886V78H1.23295ZM8.94886 78V70.3636H10.1222V78H8.94886ZM9.54545 69.0909C9.31676 69.0909 9.11955 69.013 8.95384 68.8572C8.79143 68.7015 8.71023 68.5142 8.71023 68.2955C8.71023 68.0767 8.79143 67.8894 8.95384 67.7337C9.11955 67.5779 9.31676 67.5 9.54545 67.5C9.77415 67.5 9.9697 67.5779 10.1321 67.7337C10.2978 67.8894 10.3807 68.0767 10.3807 68.2955C10.3807 68.5142 10.2978 68.7015 10.1321 68.8572C9.9697 69.013 9.77415 69.0909 9.54545 69.0909ZM13.4444 73.4062V78H12.2711V70.3636H13.4047V71.5568H13.5041C13.6831 71.169 13.9548 70.8575 14.3194 70.6222C14.684 70.3835 15.1547 70.2642 15.7314 70.2642C16.2484 70.2642 16.7008 70.3703 17.0886 70.5824C17.4764 70.7912 17.778 71.1094 17.9934 71.5369C18.2089 71.9612 18.3166 72.4981 18.3166 73.1477V78H17.1433V73.2273C17.1433 72.6274 16.9875 72.16 16.676 71.8253C16.3644 71.4872 15.9368 71.3182 15.3933 71.3182C15.0188 71.3182 14.684 71.3994 14.389 71.5618C14.0974 71.7242 13.867 71.9612 13.698 72.2727C13.5289 72.5843 13.4444 72.9621 13.4444 73.4062ZM23.6623 78.1591C22.9265 78.1591 22.2918 77.9967 21.7582 77.6719C21.2279 77.3438 20.8185 76.8864 20.5302 76.2997C20.2451 75.7098 20.1026 75.0237 20.1026 74.2415C20.1026 73.4593 20.2451 72.7699 20.5302 72.1733C20.8185 71.5734 21.2196 71.1061 21.7333 70.7713C22.2504 70.4332 22.8536 70.2642 23.543 70.2642C23.9407 70.2642 24.3335 70.3305 24.7212 70.4631C25.109 70.5956 25.462 70.8111 25.7802 71.1094C26.0984 71.4044 26.3519 71.7955 26.5408 72.2827C26.7298 72.7699 26.8242 73.3698 26.8242 74.0824V74.5795H20.9379V73.5653H25.631C25.631 73.1345 25.5449 72.75 25.3725 72.4119C25.2035 72.0739 24.9615 71.8071 24.6467 71.6115C24.3351 71.416 23.9672 71.3182 23.543 71.3182C23.0756 71.3182 22.6713 71.4342 22.3299 71.6662C21.9918 71.8949 21.7317 72.1932 21.5494 72.5611C21.3671 72.929 21.2759 73.3234 21.2759 73.7443V74.4205C21.2759 74.9972 21.3754 75.486 21.5742 75.8871C21.7764 76.2848 22.0565 76.5881 22.4144 76.7969C22.7724 77.0024 23.1883 77.1051 23.6623 77.1051C23.9705 77.1051 24.2489 77.062 24.4975 76.9759C24.7494 76.8864 24.9665 76.7538 25.1488 76.5781C25.3311 76.3991 25.4719 76.1771 25.5714 75.9119L26.7049 76.2301C26.5856 76.6146 26.3851 76.9527 26.1033 77.2443C25.8216 77.5327 25.4736 77.758 25.0593 77.9205C24.645 78.0795 24.1793 78.1591 23.6623 78.1591ZM35.967 78.1392C35.3107 78.1392 34.7257 78.0265 34.212 77.8011C33.7016 77.5758 33.2956 77.2625 32.994 76.8615C32.6957 76.4571 32.5333 75.9882 32.5067 75.4545H33.7596C33.7861 75.7827 33.8988 76.0661 34.0977 76.3047C34.2965 76.54 34.5567 76.7223 34.8782 76.8516C35.1997 76.9808 35.556 77.0455 35.9471 77.0455C36.3846 77.0455 36.7724 76.9692 37.1104 76.8168C37.4485 76.6643 37.7137 76.4522 37.9059 76.1804C38.0981 75.9086 38.1942 75.5938 38.1942 75.2358C38.1942 74.8613 38.1014 74.5315 37.9158 74.2464C37.7302 73.9581 37.4585 73.7327 37.1005 73.5703C36.7425 73.4079 36.305 73.3267 35.788 73.3267H34.9727V72.233H35.788C36.1924 72.233 36.547 72.16 36.8519 72.0142C37.1602 71.8684 37.4004 71.6629 37.5728 71.3977C37.7485 71.1326 37.8363 70.821 37.8363 70.4631C37.8363 70.1184 37.7601 69.8184 37.6076 69.5632C37.4551 69.308 37.2397 69.1091 36.9613 68.9666C36.6862 68.8241 36.3614 68.7528 35.9869 68.7528C35.6355 68.7528 35.3041 68.8175 34.9925 68.9467C34.6843 69.0727 34.4324 69.2566 34.2369 69.4986C34.0413 69.7372 33.9353 70.0256 33.9187 70.3636H32.7255C32.7454 69.83 32.9061 69.3627 33.2077 68.9616C33.5094 68.5573 33.9038 68.2424 34.391 68.017C34.8815 67.7917 35.4201 67.679 36.0067 67.679C36.6365 67.679 37.1767 67.8066 37.6275 68.0618C38.0782 68.3137 38.4246 68.6468 38.6665 69.0611C38.9085 69.4754 39.0295 69.9228 39.0295 70.4034C39.0295 70.9768 38.8787 71.4657 38.5771 71.87C38.2788 72.2744 37.8728 72.5545 37.359 72.7102V72.7898C38.002 72.8958 38.5041 73.1693 38.8654 73.6101C39.2267 74.0476 39.4073 74.5895 39.4073 75.2358C39.4073 75.7893 39.2565 76.2865 38.9549 76.7273C38.6566 77.1648 38.2489 77.5095 37.7319 77.7614C37.2148 78.0133 36.6265 78.1392 35.967 78.1392Z" fill="black"/>
</g>
<defs>
<clipPath id="clip0_0_1071">
<rect width="150" height="120" fill="white"/>
</clipPath>
</defs>
</svg>
