<svg width="150" height="120" viewBox="0 0 150 120" fill="none" xmlns="http://www.w3.org/2000/svg">
<g clip-path="url(#clip0_0_1053)">
<rect width="150" height="120" fill="white"/>
<path d="M1.23295 14V3.81818H2.46591V12.9062H7.19886V14H1.23295ZM8.94886 14V6.36364H10.1222V14H8.94886ZM9.54545 5.09091C9.31676 5.09091 9.11955 5.01302 8.95384 4.85724C8.79143 4.70147 8.71023 4.5142 8.71023 4.29545C8.71023 4.0767 8.79143 3.88944 8.95384 3.73366C9.11955 3.57789 9.31676 3.5 9.54545 3.5C9.77415 3.5 9.9697 3.57789 10.1321 3.73366C10.2978 3.88944 10.3807 4.0767 10.3807 4.29545C10.3807 4.5142 10.2978 4.70147 10.1321 4.85724C9.9697 5.01302 9.77415 5.09091 9.54545 5.09091ZM13.4444 9.40625V14H12.2711V6.36364H13.4047V7.55682H13.5041C13.6831 7.16903 13.9548 6.85748 14.3194 6.62216C14.684 6.38352 15.1547 6.2642 15.7314 6.2642C16.2484 6.2642 16.7008 6.37027 17.0886 6.58239C17.4764 6.79119 17.778 7.10938 17.9934 7.53693C18.2089 7.96117 18.3166 8.49811 18.3166 9.14773V14H17.1433V9.22727C17.1433 8.62737 16.9875 8.16004 16.676 7.82528C16.3644 7.48722 15.9368 7.31818 15.3933 7.31818C15.0188 7.31818 14.684 7.39938 14.389 7.56179C14.0974 7.72419 13.867 7.96117 13.698 8.27273C13.5289 8.58428 13.4444 8.96212 13.4444 9.40625ZM23.6623 14.1591C22.9265 14.1591 22.2918 13.9967 21.7582 13.6719C21.2279 13.3438 20.8185 12.8864 20.5302 12.2997C20.2451 11.7098 20.1026 11.0237 20.1026 10.2415C20.1026 9.45928 20.2451 8.76989 20.5302 8.1733C20.8185 7.57339 21.2196 7.10606 21.7333 6.77131C22.2504 6.43324 22.8536 6.2642 23.543 6.2642C23.9407 6.2642 24.3335 6.33049 24.7212 6.46307C25.109 6.59564 25.462 6.81108 25.7802 7.10938C26.0984 7.40436 26.3519 7.79545 26.5408 8.28267C26.7298 8.76989 26.8242 9.36979 26.8242 10.0824V10.5795H20.9379V9.56534H25.631C25.631 9.13447 25.5449 8.75 25.3725 8.41193C25.2035 8.07386 24.9615 7.80705 24.6467 7.61151C24.3351 7.41596 23.9672 7.31818 23.543 7.31818C23.0756 7.31818 22.6713 7.43419 22.3299 7.66619C21.9918 7.89489 21.7317 8.19318 21.5494 8.56108C21.3671 8.92898 21.2759 9.32339 21.2759 9.74432V10.4205C21.2759 10.9972 21.3754 11.486 21.5742 11.8871C21.7764 12.2848 22.0565 12.5881 22.4144 12.7969C22.7724 13.0024 23.1883 13.1051 23.6623 13.1051C23.9705 13.1051 24.2489 13.062 24.4975 12.9759C24.7494 12.8864 24.9665 12.7538 25.1488 12.5781C25.3311 12.3991 25.4719 12.1771 25.5714 11.9119L26.7049 12.2301C26.5856 12.6146 26.3851 12.9527 26.1033 13.2443C25.8216 13.5327 25.4736 13.758 25.0593 13.9205C24.645 14.0795 24.1793 14.1591 23.6623 14.1591ZM36.1062 3.81818V14H34.8732V5.1108H34.8136L32.3278 6.76136V5.50852L34.8732 3.81818H36.1062ZM1.23295 27V16.8182H2.46591V25.9062H7.19886V27H1.23295ZM8.94886 27V19.3636H10.1222V27H8.94886ZM9.54545 18.0909C9.31676 18.0909 9.11955 18.013 8.95384 17.8572C8.79143 17.7015 8.71023 17.5142 8.71023 17.2955C8.71023 17.0767 8.79143 16.8894 8.95384 16.7337C9.11955 16.5779 9.31676 16.5 9.54545 16.5C9.77415 16.5 9.9697 16.5779 10.1321 16.7337C10.2978 16.8894 10.3807 17.0767 10.3807 17.2955C10.3807 17.5142 10.2978 17.7015 10.1321 17.8572C9.9697 18.013 9.77415 18.0909 9.54545 18.0909ZM13.4444 22.4062V27H12.2711V19.3636H13.4047V20.5568H13.5041C13.6831 20.169 13.9548 19.8575 14.3194 19.6222C14.684 19.3835 15.1547 19.2642 15.7314 19.2642C16.2484 19.2642 16.7008 19.3703 17.0886 19.5824C17.4764 19.7912 17.778 20.1094 17.9934 20.5369C18.2089 20.9612 18.3166 21.4981 18.3166 22.1477V27H17.1433V22.2273C17.1433 21.6274 16.9875 21.16 16.676 20.8253C16.3644 20.4872 15.9368 20.3182 15.3933 20.3182C15.0188 20.3182 14.684 20.3994 14.389 20.5618C14.0974 20.7242 13.867 20.9612 13.698 21.2727C13.5289 21.5843 13.4444 21.9621 13.4444 22.4062ZM23.6623 27.1591C22.9265 27.1591 22.2918 26.9967 21.7582 26.6719C21.2279 26.3438 20.8185 25.8864 20.5302 25.2997C20.2451 24.7098 20.1026 24.0237 20.1026 23.2415C20.1026 22.4593 20.2451 21.7699 20.5302 21.1733C20.8185 20.5734 21.2196 20.1061 21.7333 19.7713C22.2504 19.4332 22.8536 19.2642 23.543 19.2642C23.9407 19.2642 24.3335 19.3305 24.7212 19.4631C25.109 19.5956 25.462 19.8111 25.7802 20.1094C26.0984 20.4044 26.3519 20.7955 26.5408 21.2827C26.7298 21.7699 26.8242 22.3698 26.8242 23.0824V23.5795H20.9379V22.5653H25.631C25.631 22.1345 25.5449 21.75 25.3725 21.4119C25.2035 21.0739 24.9615 20.8071 24.6467 20.6115C24.3351 20.416 23.9672 20.3182 23.543 20.3182C23.0756 20.3182 22.6713 20.4342 22.3299 20.6662C21.9918 20.8949 21.7317 21.1932 21.5494 21.5611C21.3671 21.929 21.2759 22.3234 21.2759 22.7443V23.4205C21.2759 23.9972 21.3754 24.486 21.5742 24.8871C21.7764 25.2848 22.0565 25.5881 22.4144 25.7969C22.7724 26.0024 23.1883 26.1051 23.6623 26.1051C23.9705 26.1051 24.2489 26.062 24.4975 25.9759C24.7494 25.8864 24.9665 25.7538 25.1488 25.5781C25.3311 25.3991 25.4719 25.1771 25.5714 24.9119L26.7049 25.2301C26.5856 25.6146 26.3851 25.9527 26.1033 26.2443C25.8216 26.5327 25.4736 26.758 25.0593 26.9205C24.645 27.0795 24.1793 27.1591 23.6623 27.1591ZM32.5266 27V26.1051L35.8874 22.4261C36.2818 21.9953 36.6067 21.6207 36.8619 21.3026C37.1171 20.9811 37.306 20.6795 37.4286 20.3977C37.5546 20.1127 37.6175 19.8144 37.6175 19.5028C37.6175 19.1449 37.5314 18.835 37.359 18.5732C37.19 18.3113 36.958 18.1091 36.663 17.9666C36.368 17.8241 36.0366 17.7528 35.6687 17.7528C35.2776 17.7528 34.9362 17.834 34.6445 17.9964C34.3562 18.1555 34.1325 18.3793 33.9734 18.6676C33.8176 18.956 33.7397 19.294 33.7397 19.6818H32.5664C32.5664 19.0852 32.704 18.5616 32.979 18.1108C33.2541 17.66 33.6287 17.3087 34.1026 17.0568C34.5799 16.8049 35.1152 16.679 35.7085 16.679C36.305 16.679 36.8337 16.8049 37.2944 17.0568C37.7551 17.3087 38.1164 17.6484 38.3782 18.076C38.64 18.5036 38.771 18.9792 38.771 19.5028C38.771 19.8774 38.703 20.2436 38.5671 20.6016C38.4345 20.9562 38.2025 21.3523 37.8711 21.7898C37.543 22.224 37.0872 22.7543 36.5039 23.3807L34.217 25.8267V25.9062H38.9499V27H32.5266ZM1.23295 41V30.8182H2.46591V39.9062H7.19886V41H1.23295ZM8.94886 41V33.3636H10.1222V41H8.94886ZM9.54545 32.0909C9.31676 32.0909 9.11955 32.013 8.95384 31.8572C8.79143 31.7015 8.71023 31.5142 8.71023 31.2955C8.71023 31.0767 8.79143 30.8894 8.95384 30.7337C9.11955 30.5779 9.31676 30.5 9.54545 30.5C9.77415 30.5 9.9697 30.5779 10.1321 30.7337C10.2978 30.8894 10.3807 31.0767 10.3807 31.2955C10.3807 31.5142 10.2978 31.7015 10.1321 31.8572C9.9697 32.013 9.77415 32.0909 9.54545 32.0909ZM13.4444 36.4062V41H12.2711V33.3636H13.4047V34.5568H13.5041C13.6831 34.169 13.9548 33.8575 14.3194 33.6222C14.684 33.3835 15.1547 33.2642 15.7314 33.2642C16.2484 33.2642 16.7008 33.3703 17.0886 33.5824C17.4764 33.7912 17.778 34.1094 17.9934 34.5369C18.2089 34.9612 18.3166 35.4981 18.3166 36.1477V41H17.1433V36.2273C17.1433 35.6274 16.9875 35.16 16.676 34.8253C16.3644 34.4872 15.9368 34.3182 15.3933 34.3182C15.0188 34.3182 14.684 34.3994 14.389 34.5618C14.0974 34.7242 13.867 34.9612 13.698 35.2727C13.5289 35.5843 13.4444 35.9621 13.4444 36.4062ZM23.6623 41.1591C22.9265 41.1591 22.2918 40.9967 21.7582 40.6719C21.2279 40.3438 20.8185 39.8864 20.5302 39.2997C20.2451 38.7098 20.1026 38.0237 20.1026 37.2415C20.1026 36.4593 20.2451 35.7699 20.5302 35.1733C20.8185 34.5734 21.2196 34.1061 21.7333 33.7713C22.2504 33.4332 22.8536 33.2642 23.543 33.2642C23.9407 33.2642 24.3335 33.3305 24.7212 33.4631C25.109 33.5956 25.462 33.8111 25.7802 34.1094C26.0984 34.4044 26.3519 34.7955 26.5408 35.2827C26.7298 35.7699 26.8242 36.3698 26.8242 37.0824V37.5795H20.9379V36.5653H25.631C25.631 36.1345 25.5449 35.75 25.3725 35.4119C25.2035 35.0739 24.9615 34.8071 24.6467 34.6115C24.3351 34.416 23.9672 34.3182 23.543 34.3182C23.0756 34.3182 22.6713 34.4342 22.3299 34.6662C21.9918 34.8949 21.7317 35.1932 21.5494 35.5611C21.3671 35.929 21.2759 36.3234 21.2759 36.7443V37.4205C21.2759 37.9972 21.3754 38.486 21.5742 38.8871C21.7764 39.2848 22.0565 39.5881 22.4144 39.7969C22.7724 40.0024 23.1883 40.1051 23.6623 40.1051C23.9705 40.1051 24.2489 40.062 24.4975 39.9759C24.7494 39.8864 24.9665 39.7538 25.1488 39.5781C25.3311 39.3991 25.4719 39.1771 25.5714 38.9119L26.7049 39.2301C26.5856 39.6146 26.3851 39.9527 26.1033 40.2443C25.8216 40.5327 25.4736 40.758 25.0593 40.9205C24.645 41.0795 24.1793 41.1591 23.6623 41.1591ZM35.967 41.1392C35.3107 41.1392 34.7257 41.0265 34.212 40.8011C33.7016 40.5758 33.2956 40.2625 32.994 39.8615C32.6957 39.4571 32.5333 38.9882 32.5067 38.4545H33.7596C33.7861 38.7827 33.8988 39.0661 34.0977 39.3047C34.2965 39.54 34.5567 39.7223 34.8782 39.8516C35.1997 39.9808 35.556 40.0455 35.9471 40.0455C36.3846 40.0455 36.7724 39.9692 37.1104 39.8168C37.4485 39.6643 37.7137 39.4522 37.9059 39.1804C38.0981 38.9086 38.1942 38.5938 38.1942 38.2358C38.1942 37.8613 38.1014 37.5315 37.9158 37.2464C37.7302 36.9581 37.4585 36.7327 37.1005 36.5703C36.7425 36.4079 36.305 36.3267 35.788 36.3267H34.9727V35.233H35.788C36.1924 35.233 36.547 35.16 36.8519 35.0142C37.1602 34.8684 37.4004 34.6629 37.5728 34.3977C37.7485 34.1326 37.8363 33.821 37.8363 33.4631C37.8363 33.1184 37.7601 32.8184 37.6076 32.5632C37.4551 32.308 37.2397 32.1091 36.9613 31.9666C36.6862 31.8241 36.3614 31.7528 35.9869 31.7528C35.6355 31.7528 35.3041 31.8175 34.9925 31.9467C34.6843 32.0727 34.4324 32.2566 34.2369 32.4986C34.0413 32.7372 33.9353 33.0256 33.9187 33.3636H32.7255C32.7454 32.83 32.9061 32.3627 33.2077 31.9616C33.5094 31.5573 33.9038 31.2424 34.391 31.017C34.8815 30.7917 35.4201 30.679 36.0067 30.679C36.6365 30.679 37.1767 30.8066 37.6275 31.0618C38.0782 31.3137 38.4246 31.6468 38.6665 32.0611C38.9085 32.4754 39.0295 32.9228 39.0295 33.4034C39.0295 33.9768 38.8787 34.4657 38.5771 34.87C38.2788 35.2744 37.8728 35.5545 37.359 35.7102V35.7898C38.002 35.8958 38.5041 36.1693 38.8654 36.6101C39.2267 37.0476 39.4073 37.5895 39.4073 38.2358C39.4073 38.7893 39.2565 39.2865 38.9549 39.7273C38.6566 40.1648 38.2489 40.5095 37.7319 40.7614C37.2148 41.0133 36.6265 41.1392 35.967 41.1392Z" fill="black"/>
</g>
<defs>
<clipPath id="clip0_0_1053">
<rect width="150" height="120" fill="white"/>
</clipPath>
</defs>
</svg>
