<svg width="150" height="80" viewBox="0 0 150 80" fill="none" xmlns="http://www.w3.org/2000/svg">
<g clip-path="url(#clip0_0_1182)">
<rect width="150" height="80" fill="white"/>
<path d="M6.80114 6.36364C6.74148 5.85985 6.49953 5.46875 6.07528 5.19034C5.65104 4.91193 5.13068 4.77273 4.5142 4.77273C4.06345 4.77273 3.66903 4.84564 3.33097 4.99148C2.99621 5.13731 2.73438 5.33783 2.54545 5.59304C2.35985 5.84825 2.26705 6.13826 2.26705 6.46307C2.26705 6.73485 2.33168 6.96851 2.46094 7.16406C2.59351 7.3563 2.76255 7.51705 2.96804 7.64631C3.17353 7.77225 3.38897 7.87666 3.61435 7.95952C3.83973 8.03906 4.04688 8.10369 4.2358 8.15341L5.26989 8.43182C5.53504 8.50142 5.83002 8.59754 6.15483 8.72017C6.48295 8.8428 6.79616 9.01018 7.09446 9.2223C7.39607 9.43111 7.64465 9.69957 7.8402 10.0277C8.03575 10.3558 8.13352 10.7585 8.13352 11.2358C8.13352 11.786 7.98935 12.2831 7.70099 12.7273C7.41596 13.1714 6.99834 13.5244 6.44815 13.7862C5.90128 14.0481 5.23674 14.179 4.45455 14.179C3.72538 14.179 3.09399 14.0613 2.56037 13.826C2.03007 13.5907 1.61245 13.2625 1.30753 12.8416C1.00592 12.4207 0.835227 11.9318 0.795455 11.375H2.06818C2.10133 11.7595 2.23059 12.0777 2.45597 12.3295C2.68466 12.5781 2.97301 12.7637 3.32102 12.8864C3.67235 13.0057 4.05019 13.0653 4.45455 13.0653C4.92519 13.0653 5.34777 12.9891 5.7223 12.8366C6.09683 12.6809 6.39347 12.4654 6.61222 12.1903C6.83097 11.9119 6.94034 11.5871 6.94034 11.2159C6.94034 10.8778 6.84588 10.6027 6.65696 10.3906C6.46804 10.1785 6.21946 10.0062 5.91122 9.87358C5.60298 9.741 5.26989 9.625 4.91193 9.52557L3.65909 9.16761C2.86364 8.93892 2.2339 8.61245 1.76989 8.18821C1.30587 7.76397 1.07386 7.20881 1.07386 6.52273C1.07386 5.95265 1.22798 5.45549 1.53622 5.03125C1.84777 4.60369 2.26539 4.27225 2.78906 4.03693C3.31605 3.7983 3.90436 3.67898 4.55398 3.67898C5.21023 3.67898 5.79356 3.79664 6.30398 4.03196C6.81439 4.26397 7.21875 4.58215 7.51705 4.98651C7.81866 5.39086 7.97775 5.8499 7.99432 6.36364H6.80114ZM14.8141 10.8778V6.36364H15.9874V14H14.8141V12.7074H14.7346C14.5556 13.0952 14.2772 13.425 13.8993 13.6967C13.5215 13.9652 13.0442 14.0994 12.4675 14.0994C11.9902 14.0994 11.566 13.995 11.1948 13.7862C10.8236 13.5741 10.5319 13.2559 10.3198 12.8317C10.1077 12.4041 10.0016 11.8655 10.0016 11.2159V6.36364H11.1749V11.1364C11.1749 11.6932 11.3307 12.1373 11.6422 12.4688C11.9571 12.8002 12.3581 12.9659 12.8453 12.9659C13.137 12.9659 13.4337 12.8913 13.7353 12.7422C14.0402 12.593 14.2954 12.3643 14.5009 12.0561C14.7097 11.7479 14.8141 11.3551 14.8141 10.8778ZM18.1364 16.8636V6.36364H19.2699V7.5767H19.4091C19.4953 7.44413 19.6146 7.27509 19.767 7.0696C19.9228 6.8608 20.1449 6.67519 20.4332 6.51278C20.7249 6.34706 21.1193 6.2642 21.6165 6.2642C22.2595 6.2642 22.8262 6.42495 23.3168 6.74645C23.8073 7.06794 24.1901 7.52367 24.4652 8.11364C24.7403 8.7036 24.8778 9.39962 24.8778 10.2017C24.8778 11.0104 24.7403 11.7114 24.4652 12.3047C24.1901 12.8946 23.8089 13.352 23.3217 13.6768C22.8345 13.9983 22.2727 14.1591 21.6364 14.1591C21.1458 14.1591 20.7531 14.0779 20.4581 13.9155C20.1631 13.7498 19.9361 13.5625 19.777 13.3537C19.6179 13.1416 19.4953 12.9659 19.4091 12.8267H19.3097V16.8636H18.1364ZM19.2898 10.1818C19.2898 10.7585 19.3743 11.2673 19.5433 11.7081C19.7124 12.1456 19.9593 12.4886 20.2841 12.7372C20.6089 12.9825 21.0066 13.1051 21.4773 13.1051C21.9678 13.1051 22.3771 12.9759 22.7053 12.7173C23.0367 12.4555 23.2853 12.1042 23.451 11.6634C23.62 11.2192 23.7045 10.7254 23.7045 10.1818C23.7045 9.64489 23.6217 9.16098 23.456 8.73011C23.2936 8.29593 23.0466 7.95289 22.7152 7.70099C22.3871 7.44579 21.9744 7.31818 21.4773 7.31818C21 7.31818 20.599 7.43916 20.2741 7.68111C19.9493 7.91974 19.7041 8.2545 19.5384 8.68537C19.3726 9.11293 19.2898 9.61174 19.2898 10.1818ZM29.8693 14.1591C29.1335 14.1591 28.4988 13.9967 27.9652 13.6719C27.4349 13.3438 27.0256 12.8864 26.7372 12.2997C26.4522 11.7098 26.3097 11.0237 26.3097 10.2415C26.3097 9.45928 26.4522 8.76989 26.7372 8.1733C27.0256 7.57339 27.4266 7.10606 27.9403 6.77131C28.4574 6.43324 29.0606 6.2642 29.75 6.2642C30.1477 6.2642 30.5405 6.33049 30.9283 6.46307C31.3161 6.59564 31.669 6.81108 31.9872 7.10938C32.3054 7.40436 32.5589 7.79545 32.7479 8.28267C32.9368 8.76989 33.0312 9.36979 33.0312 10.0824V10.5795H27.1449V9.56534H31.8381C31.8381 9.13447 31.7519 8.75 31.5795 8.41193C31.4105 8.07386 31.1686 7.80705 30.8537 7.61151C30.5421 7.41596 30.1742 7.31818 29.75 7.31818C29.2827 7.31818 28.8783 7.43419 28.5369 7.66619C28.1989 7.89489 27.9387 8.19318 27.7564 8.56108C27.5741 8.92898 27.483 9.32339 27.483 9.74432V10.4205C27.483 10.9972 27.5824 11.486 27.7812 11.8871C27.9834 12.2848 28.2635 12.5881 28.6214 12.7969C28.9794 13.0024 29.3954 13.1051 29.8693 13.1051C30.1776 13.1051 30.456 13.062 30.7045 12.9759C30.9564 12.8864 31.1735 12.7538 31.3558 12.5781C31.5381 12.3991 31.679 12.1771 31.7784 11.9119L32.9119 12.2301C32.7926 12.6146 32.5921 12.9527 32.3104 13.2443C32.0286 13.5327 31.6806 13.758 31.2663 13.9205C30.852 14.0795 30.3864 14.1591 29.8693 14.1591ZM34.8161 14V6.36364H35.9496V7.51705H36.0291C36.1683 7.1392 36.4202 6.83262 36.7848 6.5973C37.1494 6.36198 37.5604 6.24432 38.0178 6.24432C38.1039 6.24432 38.2116 6.24597 38.3409 6.24929C38.4702 6.2526 38.5679 6.25758 38.6342 6.2642V7.45739C38.5945 7.44744 38.5033 7.43253 38.3608 7.41264C38.2216 7.38944 38.0741 7.37784 37.9183 7.37784C37.5471 7.37784 37.2157 7.45573 36.924 7.61151C36.6357 7.76397 36.407 7.97609 36.2379 8.24787C36.0722 8.51634 35.9893 8.82292 35.9893 9.16761V14H34.8161ZM42.8949 14.1591C42.179 14.1591 41.5625 13.9901 41.0455 13.652C40.5284 13.3139 40.1307 12.8482 39.8523 12.255C39.5739 11.6617 39.4347 10.9839 39.4347 10.2216C39.4347 9.44602 39.5772 8.7616 39.8622 8.16832C40.1506 7.57173 40.5516 7.10606 41.0653 6.77131C41.5824 6.43324 42.1856 6.2642 42.875 6.2642C43.4119 6.2642 43.8958 6.36364 44.3267 6.5625C44.7576 6.76136 45.1106 7.03977 45.3857 7.39773C45.6607 7.75568 45.8314 8.1733 45.8977 8.65057H44.7244C44.6349 8.30256 44.4361 7.99432 44.1278 7.72585C43.8229 7.45407 43.4119 7.31818 42.8949 7.31818C42.4375 7.31818 42.0365 7.4375 41.6918 7.67614C41.3504 7.91146 41.0836 8.24455 40.8913 8.67543C40.7024 9.10298 40.608 9.60511 40.608 10.1818C40.608 10.7718 40.7008 11.2855 40.8864 11.723C41.0753 12.1605 41.3404 12.5002 41.6818 12.7422C42.0265 12.9841 42.4309 13.1051 42.8949 13.1051C43.1998 13.1051 43.4766 13.0521 43.7251 12.946C43.9737 12.84 44.1842 12.6875 44.3565 12.4886C44.5289 12.2898 44.6515 12.0511 44.7244 11.7727H45.8977C45.8314 12.2235 45.6674 12.6295 45.4055 12.9908C45.147 13.3487 44.804 13.6338 44.3764 13.8459C43.9522 14.0547 43.4583 14.1591 42.8949 14.1591ZM49.8601 14.179C49.3762 14.179 48.937 14.0878 48.5426 13.9055C48.1482 13.7199 47.835 13.4531 47.603 13.1051C47.371 12.7538 47.255 12.3295 47.255 11.8324C47.255 11.3949 47.3411 11.0402 47.5135 10.7685C47.6858 10.4934 47.9162 10.2779 48.2045 10.1222C48.4929 9.96638 48.8111 9.85038 49.1591 9.77415C49.5104 9.6946 49.8634 9.63163 50.218 9.58523C50.6821 9.52557 51.0582 9.48082 51.3466 9.45099C51.6383 9.41785 51.8504 9.36316 51.983 9.28693C52.1188 9.2107 52.1868 9.07812 52.1868 8.8892V8.84943C52.1868 8.3589 52.0526 7.97775 51.7841 7.70597C51.5189 7.43419 51.1162 7.2983 50.576 7.2983C50.0159 7.2983 49.5767 7.42093 49.2585 7.66619C48.9403 7.91146 48.7166 8.1733 48.5874 8.4517L47.4737 8.05398C47.6726 7.58996 47.9377 7.22869 48.2692 6.97017C48.6039 6.70833 48.9685 6.52604 49.3629 6.4233C49.7607 6.31723 50.1518 6.2642 50.5362 6.2642C50.7815 6.2642 51.0632 6.29403 51.3814 6.35369C51.7029 6.41004 52.0128 6.5277 52.3111 6.70668C52.6127 6.88565 52.8629 7.15578 53.0618 7.51705C53.2607 7.87831 53.3601 8.36222 53.3601 8.96875V14H52.1868V12.9659H52.1271C52.0476 13.1316 51.915 13.3089 51.7294 13.4979C51.5438 13.6868 51.2969 13.8475 50.9886 13.9801C50.6804 14.1127 50.3042 14.179 49.8601 14.179ZM50.0391 13.125C50.5031 13.125 50.8942 13.0339 51.2124 12.8516C51.5339 12.6693 51.7758 12.4339 51.9382 12.1456C52.1039 11.8572 52.1868 11.554 52.1868 11.2358V10.1619C52.1371 10.2216 52.0277 10.2763 51.8587 10.326C51.6929 10.3724 51.5007 10.4138 51.282 10.4503C51.0665 10.4834 50.8561 10.5133 50.6506 10.5398C50.4484 10.563 50.2843 10.5829 50.1584 10.5994C49.8535 10.6392 49.5684 10.7038 49.3033 10.7933C49.0414 10.8795 48.8293 11.0104 48.6669 11.1861C48.5078 11.3584 48.4283 11.5937 48.4283 11.892C48.4283 12.2997 48.5791 12.608 48.8807 12.8168C49.1856 13.0223 49.5717 13.125 50.0391 13.125ZM56.6749 3.81818V14H55.5016V3.81818H56.6749ZM58.8239 14V6.36364H59.9972V14H58.8239ZM59.4205 5.09091C59.1918 5.09091 58.9946 5.01302 58.8288 4.85724C58.6664 4.70147 58.5852 4.5142 58.5852 4.29545C58.5852 4.0767 58.6664 3.88944 58.8288 3.73366C58.9946 3.57789 59.1918 3.5 59.4205 3.5C59.6491 3.5 59.8447 3.57789 60.0071 3.73366C60.1728 3.88944 60.2557 4.0767 60.2557 4.29545C60.2557 4.5142 60.1728 4.70147 60.0071 4.85724C59.8447 5.01302 59.6491 5.09091 59.4205 5.09091ZM65.5467 6.36364V7.35795H61.4302V6.36364H65.5467ZM62.6632 14V5.30966C62.6632 4.87216 62.7659 4.50758 62.9714 4.21591C63.1769 3.92424 63.4437 3.70549 63.7718 3.55966C64.1 3.41383 64.4463 3.34091 64.8109 3.34091C65.0993 3.34091 65.3346 3.36411 65.5169 3.41051C65.6992 3.45691 65.835 3.5 65.9245 3.53977L65.5865 4.55398C65.5268 4.53409 65.444 4.50923 65.3379 4.4794C65.2351 4.44957 65.0993 4.43466 64.9302 4.43466C64.5424 4.43466 64.2624 4.53243 64.09 4.72798C63.921 4.92353 63.8365 5.21023 63.8365 5.58807V14H62.6632ZM67.1911 14V6.36364H68.3246V7.51705H68.4041C68.5433 7.1392 68.7952 6.83262 69.1598 6.5973C69.5244 6.36198 69.9354 6.24432 70.3928 6.24432C70.4789 6.24432 70.5866 6.24597 70.7159 6.24929C70.8452 6.2526 70.9429 6.25758 71.0092 6.2642V7.45739C70.9695 7.44744 70.8783 7.43253 70.7358 7.41264C70.5966 7.38944 70.4491 7.37784 70.2933 7.37784C69.9221 7.37784 69.5907 7.45573 69.299 7.61151C69.0107 7.76397 68.782 7.97609 68.6129 8.24787C68.4472 8.51634 68.3643 8.82292 68.3643 9.16761V14H67.1911ZM74.6472 14.179C74.1633 14.179 73.7241 14.0878 73.3297 13.9055C72.9353 13.7199 72.6221 13.4531 72.3901 13.1051C72.1581 12.7538 72.0421 12.3295 72.0421 11.8324C72.0421 11.3949 72.1283 11.0402 72.3006 10.7685C72.473 10.4934 72.7033 10.2779 72.9917 10.1222C73.28 9.96638 73.5982 9.85038 73.9462 9.77415C74.2975 9.6946 74.6505 9.63163 75.0051 9.58523C75.4692 9.52557 75.8453 9.48082 76.1337 9.45099C76.4254 9.41785 76.6375 9.36316 76.7701 9.28693C76.906 9.2107 76.9739 9.07812 76.9739 8.8892V8.84943C76.9739 8.3589 76.8397 7.97775 76.5712 7.70597C76.306 7.43419 75.9034 7.2983 75.3631 7.2983C74.803 7.2983 74.3638 7.42093 74.0456 7.66619C73.7275 7.91146 73.5037 8.1733 73.3745 8.4517L72.2608 8.05398C72.4597 7.58996 72.7248 7.22869 73.0563 6.97017C73.391 6.70833 73.7556 6.52604 74.15 6.4233C74.5478 6.31723 74.9389 6.2642 75.3233 6.2642C75.5686 6.2642 75.8503 6.29403 76.1685 6.35369C76.49 6.41004 76.7999 6.5277 77.0982 6.70668C77.3998 6.88565 77.65 7.15578 77.8489 7.51705C78.0478 7.87831 78.1472 8.36222 78.1472 8.96875V14H76.9739V12.9659H76.9142C76.8347 13.1316 76.7021 13.3089 76.5165 13.4979C76.3309 13.6868 76.084 13.8475 75.7757 13.9801C75.4675 14.1127 75.0913 14.179 74.6472 14.179ZM74.8262 13.125C75.2902 13.125 75.6813 13.0339 75.9995 12.8516C76.321 12.6693 76.5629 12.4339 76.7253 12.1456C76.891 11.8572 76.9739 11.554 76.9739 11.2358V10.1619C76.9242 10.2216 76.8148 10.2763 76.6458 10.326C76.4801 10.3724 76.2878 10.4138 76.0691 10.4503C75.8536 10.4834 75.6432 10.5133 75.4377 10.5398C75.2355 10.563 75.0714 10.5829 74.9455 10.5994C74.6406 10.6392 74.3555 10.7038 74.0904 10.7933C73.8285 10.8795 73.6164 11.0104 73.454 11.1861C73.2949 11.3584 73.2154 11.5937 73.2154 11.892C73.2154 12.2997 73.3662 12.608 73.6678 12.8168C73.9727 13.0223 74.3588 13.125 74.8262 13.125ZM83.3711 17.0227C82.8043 17.0227 82.3171 16.9498 81.9094 16.804C81.5018 16.6615 81.1621 16.4725 80.8903 16.2372C80.6218 16.0052 80.408 15.7566 80.2489 15.4915L81.1836 14.8352C81.2897 14.9744 81.4239 15.1335 81.5863 15.3125C81.7487 15.4948 81.9708 15.6522 82.2525 15.7848C82.5375 15.9207 82.9104 15.9886 83.3711 15.9886C83.9876 15.9886 84.4963 15.8395 84.8974 15.5412C85.2984 15.2429 85.4989 14.7756 85.4989 14.1392V12.5881H85.3995C85.3133 12.7273 85.1907 12.8996 85.0316 13.1051C84.8758 13.3073 84.6504 13.4879 84.3555 13.647C84.0638 13.8028 83.6694 13.8807 83.1722 13.8807C82.5558 13.8807 82.0022 13.7348 81.5117 13.4432C81.0245 13.1515 80.6384 12.7273 80.3533 12.1705C80.0716 11.6136 79.9308 10.9375 79.9308 10.142C79.9308 9.35985 80.0683 8.67874 80.3434 8.09872C80.6185 7.51539 81.0013 7.06463 81.4918 6.74645C81.9824 6.42495 82.5491 6.2642 83.1921 6.2642C83.6893 6.2642 84.0837 6.34706 84.3754 6.51278C84.6703 6.67519 84.8957 6.8608 85.0515 7.0696C85.2106 7.27509 85.3332 7.44413 85.4194 7.5767H85.5387V6.36364H86.6722V14.2188C86.6722 14.875 86.5231 15.4086 86.2248 15.8196C85.9298 16.2339 85.5321 16.5372 85.0316 16.7294C84.5344 16.925 83.9809 17.0227 83.3711 17.0227ZM83.3313 12.8267C83.802 12.8267 84.1997 12.719 84.5245 12.5036C84.8493 12.2881 85.0962 11.9782 85.2653 11.5739C85.4343 11.1695 85.5188 10.6856 85.5188 10.1222C85.5188 9.57197 85.436 9.08641 85.2702 8.66548C85.1045 8.24455 84.8593 7.91477 84.5344 7.67614C84.2096 7.4375 83.8086 7.31818 83.3313 7.31818C82.8342 7.31818 82.4199 7.44413 82.0884 7.69602C81.7603 7.94792 81.5134 8.28598 81.3477 8.71023C81.1853 9.13447 81.104 9.60511 81.104 10.1222C81.104 10.6525 81.1869 11.1214 81.3526 11.5291C81.5217 11.9335 81.7702 12.2517 82.0984 12.4837C82.4298 12.7124 82.8408 12.8267 83.3313 12.8267ZM88.82 14V6.36364H89.9933V14H88.82ZM89.4165 5.09091C89.1879 5.09091 88.9906 5.01302 88.8249 4.85724C88.6625 4.70147 88.5813 4.5142 88.5813 4.29545C88.5813 4.0767 88.6625 3.88944 88.8249 3.73366C88.9906 3.57789 89.1879 3.5 89.4165 3.5C89.6452 3.5 89.8408 3.57789 90.0032 3.73366C90.1689 3.88944 90.2518 4.0767 90.2518 4.29545C90.2518 4.5142 90.1689 4.70147 90.0032 4.85724C89.8408 5.01302 89.6452 5.09091 89.4165 5.09091ZM93.3155 3.81818V14H92.1422V3.81818H93.3155ZM95.4645 14V6.36364H96.6378V14H95.4645ZM96.0611 5.09091C95.8324 5.09091 95.6352 5.01302 95.4695 4.85724C95.3071 4.70147 95.2259 4.5142 95.2259 4.29545C95.2259 4.0767 95.3071 3.88944 95.4695 3.73366C95.6352 3.57789 95.8324 3.5 96.0611 3.5C96.2898 3.5 96.4853 3.57789 96.6477 3.73366C96.8134 3.88944 96.8963 4.0767 96.8963 4.29545C96.8963 4.5142 96.8134 4.70147 96.6477 4.85724C96.4853 5.01302 96.2898 5.09091 96.0611 5.09091ZM104.196 8.07386L103.142 8.37216C103.076 8.1965 102.978 8.0258 102.849 7.86009C102.723 7.69105 102.55 7.55185 102.331 7.44247C102.113 7.3331 101.833 7.27841 101.491 7.27841C101.024 7.27841 100.635 7.38613 100.323 7.60156C100.015 7.81368 99.8606 8.08381 99.8606 8.41193C99.8606 8.7036 99.9667 8.93395 100.179 9.10298C100.391 9.27202 100.722 9.41288 101.173 9.52557L102.307 9.80398C102.989 9.9697 103.498 10.2232 103.833 10.5646C104.168 10.9027 104.335 11.3385 104.335 11.8722C104.335 12.3097 104.209 12.7008 103.957 13.0455C103.709 13.3902 103.361 13.6619 102.913 13.8608C102.466 14.0597 101.945 14.1591 101.352 14.1591C100.573 14.1591 99.9286 13.9901 99.4181 13.652C98.9077 13.3139 98.5846 12.8201 98.4487 12.1705L99.5623 11.892C99.6684 12.303 99.8689 12.6113 100.164 12.8168C100.462 13.0223 100.852 13.125 101.332 13.125C101.879 13.125 102.313 13.009 102.635 12.777C102.96 12.5417 103.122 12.2599 103.122 11.9318C103.122 11.6667 103.029 11.4446 102.844 11.2656C102.658 11.0833 102.373 10.9474 101.988 10.858L100.716 10.5597C100.016 10.3939 99.5027 10.1371 99.1745 9.78906C98.8497 9.43774 98.6873 8.99858 98.6873 8.47159C98.6873 8.04072 98.8083 7.65956 99.0502 7.32812C99.2955 6.99669 99.6286 6.73651 100.05 6.54758C100.474 6.35866 100.954 6.2642 101.491 6.2642C102.247 6.2642 102.84 6.42992 103.271 6.76136C103.705 7.0928 104.014 7.5303 104.196 8.07386ZM109.422 6.36364V7.35795H105.465V6.36364H109.422ZM106.618 4.53409H107.792V11.8125C107.792 12.1439 107.84 12.3925 107.936 12.5582C108.035 12.7206 108.161 12.83 108.314 12.8864C108.469 12.9394 108.633 12.9659 108.806 12.9659C108.935 12.9659 109.041 12.9593 109.124 12.946C109.207 12.9295 109.273 12.9162 109.323 12.9062L109.561 13.9602C109.482 13.9901 109.371 14.0199 109.228 14.0497C109.086 14.0829 108.905 14.0994 108.686 14.0994C108.355 14.0994 108.03 14.0282 107.712 13.8857C107.397 13.7431 107.135 13.526 106.926 13.2344C106.721 12.9427 106.618 12.5748 106.618 12.1307V4.53409ZM111.187 14V6.36364H112.36V14H111.187ZM111.784 5.09091C111.555 5.09091 111.358 5.01302 111.192 4.85724C111.03 4.70147 110.949 4.5142 110.949 4.29545C110.949 4.0767 111.03 3.88944 111.192 3.73366C111.358 3.57789 111.555 3.5 111.784 3.5C112.012 3.5 112.208 3.57789 112.37 3.73366C112.536 3.88944 112.619 4.0767 112.619 4.29545C112.619 4.5142 112.536 4.70147 112.37 4.85724C112.208 5.01302 112.012 5.09091 111.784 5.09091ZM117.612 14.1591C116.896 14.1591 116.279 13.9901 115.762 13.652C115.245 13.3139 114.847 12.8482 114.569 12.255C114.291 11.6617 114.151 10.9839 114.151 10.2216C114.151 9.44602 114.294 8.7616 114.579 8.16832C114.867 7.57173 115.268 7.10606 115.782 6.77131C116.299 6.43324 116.902 6.2642 117.592 6.2642C118.129 6.2642 118.613 6.36364 119.044 6.5625C119.474 6.76136 119.827 7.03977 120.102 7.39773C120.378 7.75568 120.548 8.1733 120.615 8.65057H119.441C119.352 8.30256 119.153 7.99432 118.845 7.72585C118.54 7.45407 118.129 7.31818 117.612 7.31818C117.154 7.31818 116.753 7.4375 116.409 7.67614C116.067 7.91146 115.8 8.24455 115.608 8.67543C115.419 9.10298 115.325 9.60511 115.325 10.1818C115.325 10.7718 115.418 11.2855 115.603 11.723C115.792 12.1605 116.057 12.5002 116.399 12.7422C116.743 12.9841 117.148 13.1051 117.612 13.1051C117.917 13.1051 118.193 13.0521 118.442 12.946C118.691 12.84 118.901 12.6875 119.073 12.4886C119.246 12.2898 119.368 12.0511 119.441 11.7727H120.615C120.548 12.2235 120.384 12.6295 120.122 12.9908C119.864 13.3487 119.521 13.6338 119.093 13.8459C118.669 14.0547 118.175 14.1591 117.612 14.1591ZM125.531 14.1591C124.796 14.1591 124.161 13.9967 123.627 13.6719C123.097 13.3438 122.688 12.8864 122.399 12.2997C122.114 11.7098 121.972 11.0237 121.972 10.2415C121.972 9.45928 122.114 8.76989 122.399 8.1733C122.688 7.57339 123.089 7.10606 123.602 6.77131C124.119 6.43324 124.723 6.2642 125.412 6.2642C125.81 6.2642 126.203 6.33049 126.59 6.46307C126.978 6.59564 127.331 6.81108 127.649 7.10938C127.968 7.40436 128.221 7.79545 128.41 8.28267C128.599 8.76989 128.693 9.36979 128.693 10.0824V10.5795H122.807V9.56534H127.5C127.5 9.13447 127.414 8.75 127.242 8.41193C127.073 8.07386 126.831 7.80705 126.516 7.61151C126.204 7.41596 125.836 7.31818 125.412 7.31818C124.945 7.31818 124.54 7.43419 124.199 7.66619C123.861 7.89489 123.601 8.19318 123.419 8.56108C123.236 8.92898 123.145 9.32339 123.145 9.74432V10.4205C123.145 10.9972 123.244 11.486 123.443 11.8871C123.646 12.2848 123.926 12.5881 124.284 12.7969C124.642 13.0024 125.057 13.1051 125.531 13.1051C125.84 13.1051 126.118 13.062 126.367 12.9759C126.619 12.8864 126.836 12.7538 127.018 12.5781C127.2 12.3991 127.341 12.1771 127.441 11.9119L128.574 12.2301C128.455 12.6146 128.254 12.9527 127.972 13.2443C127.691 13.5327 127.343 13.758 126.928 13.9205C126.514 14.0795 126.048 14.1591 125.531 14.1591ZM131.148 6.36364L132.978 9.4858L134.807 6.36364H136.159L133.694 10.1818L136.159 14H134.807L132.978 11.0369L131.148 14H129.796L132.222 10.1818L129.796 6.36364H131.148ZM137.834 16.8636V6.36364H138.967V7.5767H139.106C139.193 7.44413 139.312 7.27509 139.464 7.0696C139.62 6.8608 139.842 6.67519 140.131 6.51278C140.422 6.34706 140.817 6.2642 141.314 6.2642C141.957 6.2642 142.523 6.42495 143.014 6.74645C143.505 7.06794 143.887 7.52367 144.162 8.11364C144.438 8.7036 144.575 9.39962 144.575 10.2017C144.575 11.0104 144.438 11.7114 144.162 12.3047C143.887 12.8946 143.506 13.352 143.019 13.6768C142.532 13.9983 141.97 14.1591 141.334 14.1591C140.843 14.1591 140.45 14.0779 140.155 13.9155C139.86 13.7498 139.633 13.5625 139.474 13.3537C139.315 13.1416 139.193 12.9659 139.106 12.8267H139.007V16.8636H137.834ZM138.987 10.1818C138.987 10.7585 139.072 11.2673 139.241 11.7081C139.41 12.1456 139.657 12.4886 139.981 12.7372C140.306 12.9825 140.704 13.1051 141.175 13.1051C141.665 13.1051 142.074 12.9759 142.403 12.7173C142.734 12.4555 142.983 12.1042 143.148 11.6634C143.317 11.2192 143.402 10.7254 143.402 10.1818C143.402 9.64489 143.319 9.16098 143.153 8.73011C142.991 8.29593 142.744 7.95289 142.412 7.70099C142.084 7.44579 141.672 7.31818 141.175 7.31818C140.697 7.31818 140.296 7.43916 139.971 7.68111C139.647 7.91974 139.401 8.2545 139.236 8.68537C139.07 9.11293 138.987 9.61174 138.987 10.1818ZM146.365 14V6.36364H147.538V14H146.365ZM146.961 5.09091C146.733 5.09091 146.536 5.01302 146.37 4.85724C146.207 4.70147 146.126 4.5142 146.126 4.29545C146.126 4.0767 146.207 3.88944 146.37 3.73366C146.536 3.57789 146.733 3.5 146.961 3.5C147.19 3.5 147.386 3.57789 147.548 3.73366C147.714 3.88944 147.797 4.0767 147.797 4.29545C147.797 4.5142 147.714 4.70147 147.548 4.85724C147.386 5.01302 147.19 5.09091 146.961 5.09091ZM3.32102 31.179C2.83712 31.179 2.39796 31.0878 2.00355 30.9055C1.60914 30.7199 1.29593 30.4531 1.06392 30.1051C0.831913 29.7538 0.715909 29.3295 0.715909 28.8324C0.715909 28.3949 0.802083 28.0402 0.974432 27.7685C1.14678 27.4934 1.37713 27.2779 1.66548 27.1222C1.95384 26.9664 2.27202 26.8504 2.62003 26.7741C2.97135 26.6946 3.32434 26.6316 3.67898 26.5852C4.14299 26.5256 4.51918 26.4808 4.80753 26.451C5.0992 26.4179 5.31132 26.3632 5.44389 26.2869C5.57978 26.2107 5.64773 26.0781 5.64773 25.8892V25.8494C5.64773 25.3589 5.51349 24.9777 5.24503 24.706C4.97988 24.4342 4.57718 24.2983 4.03693 24.2983C3.4768 24.2983 3.03764 24.4209 2.71946 24.6662C2.40128 24.9115 2.17756 25.1733 2.0483 25.4517L0.934659 25.054C1.13352 24.59 1.39867 24.2287 1.73011 23.9702C2.06487 23.7083 2.42945 23.526 2.82386 23.4233C3.22159 23.3172 3.61269 23.2642 3.99716 23.2642C4.24242 23.2642 4.52415 23.294 4.84233 23.3537C5.16383 23.41 5.47372 23.5277 5.77202 23.7067C6.07363 23.8857 6.32386 24.1558 6.52273 24.517C6.72159 24.8783 6.82102 25.3622 6.82102 25.9688V31H5.64773V29.9659H5.58807C5.50852 30.1316 5.37595 30.3089 5.19034 30.4979C5.00474 30.6868 4.75781 30.8475 4.44957 30.9801C4.14134 31.1127 3.76515 31.179 3.32102 31.179ZM3.5 30.125C3.96402 30.125 4.35511 30.0339 4.6733 29.8516C4.99479 29.6693 5.23674 29.4339 5.39915 29.1456C5.56487 28.8572 5.64773 28.554 5.64773 28.2358V27.1619C5.59801 27.2216 5.48864 27.2763 5.3196 27.326C5.15388 27.3724 4.96165 27.4138 4.7429 27.4503C4.52746 27.4834 4.317 27.5133 4.11151 27.5398C3.90933 27.563 3.74527 27.5829 3.61932 27.5994C3.31439 27.6392 3.02936 27.7038 2.7642 27.7933C2.50237 27.8795 2.29025 28.0104 2.12784 28.1861C1.96875 28.3584 1.8892 28.5937 1.8892 28.892C1.8892 29.2997 2.04001 29.608 2.34162 29.8168C2.64654 30.0223 3.03267 30.125 3.5 30.125ZM10.1358 20.8182V31H8.96254V20.8182H10.1358ZM12.2848 31V23.3636H13.4581V31H12.2848ZM12.8814 22.0909C12.6527 22.0909 12.4555 22.013 12.2898 21.8572C12.1274 21.7015 12.0462 21.5142 12.0462 21.2955C12.0462 21.0767 12.1274 20.8894 12.2898 20.7337C12.4555 20.5779 12.6527 20.5 12.8814 20.5C13.1101 20.5 13.3056 20.5779 13.468 20.7337C13.6338 20.8894 13.7166 21.0767 13.7166 21.2955C13.7166 21.5142 13.6338 21.7015 13.468 21.8572C13.3056 22.013 13.1101 22.0909 12.8814 22.0909ZM18.4906 31.1591C17.8542 31.1591 17.2924 30.9983 16.8052 30.6768C16.318 30.352 15.9368 29.8946 15.6618 29.3047C15.3867 28.7114 15.2491 28.0104 15.2491 27.2017C15.2491 26.3996 15.3867 25.7036 15.6618 25.1136C15.9368 24.5237 16.3197 24.0679 16.8102 23.7464C17.3007 23.425 17.8675 23.2642 18.5105 23.2642C19.0076 23.2642 19.4004 23.3471 19.6887 23.5128C19.9804 23.6752 20.2025 23.8608 20.3549 24.0696C20.5107 24.2751 20.6317 24.4441 20.7179 24.5767H20.8173V20.8182H21.9906V31H20.8571V29.8267H20.7179C20.6317 29.9659 20.5091 30.1416 20.35 30.3537C20.1909 30.5625 19.9638 30.7498 19.6689 30.9155C19.3739 31.0779 18.9811 31.1591 18.4906 31.1591ZM18.6497 30.1051C19.1203 30.1051 19.5181 29.9825 19.8429 29.7372C20.1677 29.4886 20.4146 29.1456 20.5836 28.7081C20.7527 28.2673 20.8372 27.7585 20.8372 27.1818C20.8372 26.6117 20.7543 26.1129 20.5886 25.6854C20.4229 25.2545 20.1776 24.9197 19.8528 24.6811C19.528 24.4392 19.127 24.3182 18.6497 24.3182C18.1525 24.3182 17.7382 24.4458 17.4068 24.701C17.0787 24.9529 16.8317 25.2959 16.666 25.7301C16.5036 26.161 16.4224 26.6449 16.4224 27.1818C16.4224 27.7254 16.5053 28.2192 16.671 28.6634C16.84 29.1042 17.0886 29.4555 17.4167 29.7173C17.7482 29.9759 18.1592 30.1051 18.6497 30.1051ZM27.4047 31.1591C26.7153 31.1591 26.1104 30.995 25.59 30.6669C25.073 30.3388 24.6686 29.8797 24.377 29.2898C24.0886 28.6998 23.9444 28.0104 23.9444 27.2216C23.9444 26.4261 24.0886 25.7318 24.377 25.1385C24.6686 24.5452 25.073 24.0845 25.59 23.7564C26.1104 23.4283 26.7153 23.2642 27.4047 23.2642C28.094 23.2642 28.6973 23.4283 29.2143 23.7564C29.7347 24.0845 30.139 24.5452 30.4274 25.1385C30.719 25.7318 30.8649 26.4261 30.8649 27.2216C30.8649 28.0104 30.719 28.6998 30.4274 29.2898C30.139 29.8797 29.7347 30.3388 29.2143 30.6669C28.6973 30.995 28.094 31.1591 27.4047 31.1591ZM27.4047 30.1051C27.9283 30.1051 28.3592 29.9709 28.6973 29.7024C29.0353 29.4339 29.2856 29.081 29.448 28.6435C29.6104 28.206 29.6916 27.732 29.6916 27.2216C29.6916 26.7112 29.6104 26.2356 29.448 25.7947C29.2856 25.3539 29.0353 24.9976 28.6973 24.7259C28.3592 24.4541 27.9283 24.3182 27.4047 24.3182C26.881 24.3182 26.4501 24.4541 26.112 24.7259C25.774 24.9976 25.5237 25.3539 25.3613 25.7947C25.1989 26.2356 25.1177 26.7112 25.1177 27.2216C25.1177 27.732 25.1989 28.206 25.3613 28.6435C25.5237 29.081 25.774 29.4339 26.112 29.7024C26.4501 29.9709 26.881 30.1051 27.4047 30.1051ZM35.7582 31.1591C35.0423 31.1591 34.4258 30.9901 33.9087 30.652C33.3917 30.3139 32.994 29.8482 32.7156 29.255C32.4371 28.6617 32.2979 27.9839 32.2979 27.2216C32.2979 26.446 32.4405 25.7616 32.7255 25.1683C33.0138 24.5717 33.4149 24.1061 33.9286 23.7713C34.4457 23.4332 35.0489 23.2642 35.7383 23.2642C36.2752 23.2642 36.7591 23.3636 37.19 23.5625C37.6209 23.7614 37.9738 24.0398 38.2489 24.3977C38.524 24.7557 38.6947 25.1733 38.761 25.6506H37.5877C37.4982 25.3026 37.2994 24.9943 36.9911 24.7259C36.6862 24.4541 36.2752 24.3182 35.7582 24.3182C35.3008 24.3182 34.8997 24.4375 34.555 24.6761C34.2137 24.9115 33.9469 25.2446 33.7546 25.6754C33.5657 26.103 33.4712 26.6051 33.4712 27.1818C33.4712 27.7718 33.564 28.2855 33.7496 28.723C33.9386 29.1605 34.2037 29.5002 34.5451 29.7422C34.8898 29.9841 35.2942 30.1051 35.7582 30.1051C36.0631 30.1051 36.3398 30.0521 36.5884 29.946C36.837 29.84 37.0475 29.6875 37.2198 29.4886C37.3922 29.2898 37.5148 29.0511 37.5877 28.7727H38.761C38.6947 29.2235 38.5307 29.6295 38.2688 29.9908C38.0103 30.3487 37.6673 30.6338 37.2397 30.8459C36.8155 31.0547 36.3216 31.1591 35.7582 31.1591ZM40.4762 31V23.3636H41.6495V31H40.4762ZM41.0728 22.0909C40.8441 22.0909 40.6469 22.013 40.4812 21.8572C40.3188 21.7015 40.2376 21.5142 40.2376 21.2955C40.2376 21.0767 40.3188 20.8894 40.4812 20.7337C40.6469 20.5779 40.8441 20.5 41.0728 20.5C41.3015 20.5 41.497 20.5779 41.6594 20.7337C41.8252 20.8894 41.908 21.0767 41.908 21.2955C41.908 21.5142 41.8252 21.7015 41.6594 21.8572C41.497 22.013 41.3015 22.0909 41.0728 22.0909ZM46.9007 31.1591C46.2114 31.1591 45.6065 30.995 45.0861 30.6669C44.5691 30.3388 44.1647 29.8797 43.873 29.2898C43.5847 28.6998 43.4405 28.0104 43.4405 27.2216C43.4405 26.4261 43.5847 25.7318 43.873 25.1385C44.1647 24.5452 44.5691 24.0845 45.0861 23.7564C45.6065 23.4283 46.2114 23.2642 46.9007 23.2642C47.5901 23.2642 48.1934 23.4283 48.7104 23.7564C49.2308 24.0845 49.6351 24.5452 49.9235 25.1385C50.2151 25.7318 50.361 26.4261 50.361 27.2216C50.361 28.0104 50.2151 28.6998 49.9235 29.2898C49.6351 29.8797 49.2308 30.3388 48.7104 30.6669C48.1934 30.995 47.5901 31.1591 46.9007 31.1591ZM46.9007 30.1051C47.4244 30.1051 47.8553 29.9709 48.1934 29.7024C48.5314 29.4339 48.7817 29.081 48.9441 28.6435C49.1065 28.206 49.1877 27.732 49.1877 27.2216C49.1877 26.7112 49.1065 26.2356 48.9441 25.7947C48.7817 25.3539 48.5314 24.9976 48.1934 24.7259C47.8553 24.4541 47.4244 24.3182 46.9007 24.3182C46.3771 24.3182 45.9462 24.4541 45.6081 24.7259C45.2701 24.9976 45.0198 25.3539 44.8574 25.7947C44.695 26.2356 44.6138 26.7112 44.6138 27.2216C44.6138 27.732 44.695 28.206 44.8574 28.6435C45.0198 29.081 45.2701 29.4339 45.6081 29.7024C45.9462 29.9709 46.3771 30.1051 46.9007 30.1051ZM56.9645 27.8778V23.3636H58.1378V31H56.9645V29.7074H56.8849C56.706 30.0952 56.4276 30.425 56.0497 30.6967C55.6719 30.9652 55.1946 31.0994 54.6179 31.0994C54.1406 31.0994 53.7164 30.995 53.3452 30.7862C52.974 30.5741 52.6823 30.2559 52.4702 29.8317C52.258 29.4041 52.152 28.8655 52.152 28.2159V23.3636H53.3253V28.1364C53.3253 28.6932 53.4811 29.1373 53.7926 29.4688C54.1075 29.8002 54.5085 29.9659 54.9957 29.9659C55.2874 29.9659 55.584 29.8913 55.8857 29.7422C56.1906 29.593 56.4458 29.3643 56.6513 29.0561C56.8601 28.7479 56.9645 28.3551 56.9645 27.8778ZM65.6958 25.0739L64.6419 25.3722C64.5756 25.1965 64.4778 25.0258 64.3485 24.8601C64.2226 24.6911 64.0502 24.5518 63.8315 24.4425C63.6127 24.3331 63.3327 24.2784 62.9913 24.2784C62.524 24.2784 62.1345 24.3861 61.823 24.6016C61.5147 24.8137 61.3606 25.0838 61.3606 25.4119C61.3606 25.7036 61.4667 25.9339 61.6788 26.103C61.8909 26.272 62.2224 26.4129 62.6731 26.5256L63.8066 26.804C64.4894 26.9697 64.9982 27.2232 65.3329 27.5646C65.6677 27.9027 65.835 28.3385 65.835 28.8722C65.835 29.3097 65.7091 29.7008 65.4572 30.0455C65.2086 30.3902 64.8606 30.6619 64.4132 30.8608C63.9657 31.0597 63.4454 31.1591 62.8521 31.1591C62.0732 31.1591 61.4286 30.9901 60.9181 30.652C60.4077 30.3139 60.0846 29.8201 59.9487 29.1705L61.0623 28.892C61.1684 29.303 61.3689 29.6113 61.6639 29.8168C61.9622 30.0223 62.3516 30.125 62.8322 30.125C63.3791 30.125 63.8133 30.009 64.1348 29.777C64.4596 29.5417 64.622 29.2599 64.622 28.9318C64.622 28.6667 64.5292 28.4446 64.3436 28.2656C64.158 28.0833 63.8729 27.9474 63.4885 27.858L62.2157 27.5597C61.5164 27.3939 61.0027 27.1371 60.6745 26.7891C60.3497 26.4377 60.1873 25.9986 60.1873 25.4716C60.1873 25.0407 60.3083 24.6596 60.5502 24.3281C60.7955 23.9967 61.1286 23.7365 61.5495 23.5476C61.9738 23.3587 62.4544 23.2642 62.9913 23.2642C63.747 23.2642 64.3403 23.4299 64.7711 23.7614C65.2053 24.0928 65.5136 24.5303 65.6958 25.0739Z" fill="black"/>
</g>
<defs>
<clipPath id="clip0_0_1182">
<rect width="150" height="80" fill="white"/>
</clipPath>
</defs>
</svg>
