<svg width="300" height="50" viewBox="0 0 300 50" fill="none" xmlns="http://www.w3.org/2000/svg">
<rect width="300" height="50" fill="white"/>
<path d="M1.23295 14V3.81818H2.46591V12.9062H7.19886V14H1.23295ZM9.10795 14V3.81818H15.2528V4.91193H10.3409V8.35227H14.9347V9.44602H10.3409V12.9062H15.3324V14H9.10795ZM16.9183 4.91193V3.81818H24.5547V4.91193H21.353V14H20.12V4.91193H16.9183ZM25.9007 4.91193V3.81818H33.5371V4.91193H30.3354V14H29.1025V4.91193H25.9007ZM35.44 14V3.81818H41.5849V4.91193H36.6729V8.35227H41.2667V9.44602H36.6729V12.9062H41.6644V14H35.44ZM43.8072 14V3.81818H47.2475C48.043 3.81818 48.6959 3.95407 49.2063 4.22585C49.7167 4.49432 50.0946 4.86387 50.3398 5.33452C50.5851 5.80516 50.7077 6.34044 50.7077 6.94034C50.7077 7.54025 50.5851 8.07221 50.3398 8.53622C50.0946 9.00024 49.7184 9.36482 49.2113 9.62997C48.7042 9.89181 48.0562 10.0227 47.2674 10.0227H44.4833V8.90909H47.2276C47.7712 8.90909 48.2087 8.82955 48.5401 8.67045C48.8749 8.51136 49.1168 8.28598 49.266 7.99432C49.4184 7.69934 49.4947 7.34801 49.4947 6.94034C49.4947 6.53267 49.4184 6.17637 49.266 5.87145C49.1135 5.56652 48.8699 5.3312 48.5352 5.16548C48.2004 4.99645 47.7579 4.91193 47.2077 4.91193H45.0401V14H43.8072ZM48.5998 9.42614L51.1055 14H49.6737L47.2077 9.42614H48.5998ZM62.2679 6.36364C62.2083 5.85985 61.9663 5.46875 61.5421 5.19034C61.1178 4.91193 60.5975 4.77273 59.981 4.77273C59.5302 4.77273 59.1358 4.84564 58.7978 4.99148C58.463 5.13731 58.2012 5.33783 58.0123 5.59304C57.8266 5.84825 57.7338 6.13826 57.7338 6.46307C57.7338 6.73485 57.7985 6.96851 57.9277 7.16406C58.0603 7.3563 58.2293 7.51705 58.4348 7.64631C58.6403 7.77225 58.8558 7.87666 59.0811 7.95952C59.3065 8.03906 59.5137 8.10369 59.7026 8.15341L60.7367 8.43182C61.0018 8.50142 61.2968 8.59754 61.6216 8.72017C61.9498 8.8428 62.263 9.01018 62.5613 9.2223C62.8629 9.43111 63.1114 9.69957 63.307 10.0277C63.5025 10.3558 63.6003 10.7585 63.6003 11.2358C63.6003 11.786 63.4561 12.2831 63.1678 12.7273C62.8828 13.1714 62.4651 13.5244 61.915 13.7862C61.3681 14.0481 60.7035 14.179 59.9213 14.179C59.1922 14.179 58.5608 14.0613 58.0272 13.826C57.4969 13.5907 57.0792 13.2625 56.7743 12.8416C56.4727 12.4207 56.302 11.9318 56.2623 11.375H57.535C57.5681 11.7595 57.6974 12.0777 57.9228 12.3295C58.1515 12.5781 58.4398 12.7637 58.7878 12.8864C59.1391 13.0057 59.517 13.0653 59.9213 13.0653C60.392 13.0653 60.8146 12.9891 61.1891 12.8366C61.5636 12.6809 61.8603 12.4654 62.079 12.1903C62.2978 11.9119 62.4071 11.5871 62.4071 11.2159C62.4071 10.8778 62.3127 10.6027 62.1238 10.3906C61.9348 10.1785 61.6863 10.0062 61.378 9.87358C61.0698 9.741 60.7367 9.625 60.3787 9.52557L59.1259 9.16761C58.3304 8.93892 57.7007 8.61245 57.2367 8.18821C56.7727 7.76397 56.5407 7.20881 56.5407 6.52273C56.5407 5.95265 56.6948 5.45549 57.003 5.03125C57.3146 4.60369 57.7322 4.27225 58.2559 4.03693C58.7828 3.7983 59.3712 3.67898 60.0208 3.67898C60.677 3.67898 61.2604 3.79664 61.7708 4.03196C62.2812 4.26397 62.6855 4.58215 62.9838 4.98651C63.2855 5.39086 63.4445 5.8499 63.4611 6.36364H62.2679ZM65.6275 14V3.81818H69.0678C69.8666 3.81818 70.5195 3.96236 71.0266 4.25071C71.5371 4.53575 71.9149 4.92188 72.1602 5.40909C72.4054 5.89631 72.5281 6.43987 72.5281 7.03977C72.5281 7.63968 72.4054 8.1849 72.1602 8.67543C71.9182 9.16596 71.5437 9.55705 71.0366 9.84872C70.5295 10.1371 69.8799 10.2812 69.0877 10.2812H66.6218V9.1875H69.0479C69.5948 9.1875 70.034 9.09304 70.3654 8.90412C70.6969 8.7152 70.9371 8.45999 71.0863 8.13849C71.2388 7.81368 71.315 7.44744 71.315 7.03977C71.315 6.6321 71.2388 6.26752 71.0863 5.94602C70.9371 5.62453 70.6952 5.37263 70.3604 5.19034C70.0257 5.00473 69.5816 4.91193 69.0281 4.91193H66.8604V14H65.6275ZM73.8928 14H72.6001L76.3388 3.81818H77.6115L81.3501 14H80.0575L77.0149 5.42898H76.9354L73.8928 14ZM74.37 10.0227H79.5803V11.1165H74.37V10.0227ZM90.6507 7H89.4178C89.3449 6.64536 89.2173 6.33381 89.035 6.06534C88.856 5.79688 88.6373 5.5715 88.3787 5.3892C88.1235 5.2036 87.8401 5.06439 87.5286 4.97159C87.217 4.87879 86.8922 4.83239 86.5542 4.83239C85.9377 4.83239 85.3792 4.98816 84.8787 5.29972C84.3816 5.61127 83.9855 6.07031 83.6905 6.67685C83.3989 7.28338 83.253 8.02746 83.253 8.90909C83.253 9.79072 83.3989 10.5348 83.6905 11.1413C83.9855 11.7479 84.3816 12.2069 84.8787 12.5185C85.3792 12.83 85.9377 12.9858 86.5542 12.9858C86.8922 12.9858 87.217 12.9394 87.5286 12.8466C87.8401 12.7538 88.1235 12.6162 88.3787 12.4339C88.6373 12.2483 88.856 12.0213 89.035 11.7528C89.2173 11.4811 89.3449 11.1695 89.4178 10.8182H90.6507C90.5579 11.3385 90.3889 11.8042 90.1436 12.2152C89.8984 12.6262 89.5935 12.9759 89.2289 13.2642C88.8643 13.5492 88.455 13.7663 88.0009 13.9155C87.5501 14.0646 87.0679 14.1392 86.5542 14.1392C85.6858 14.1392 84.9135 13.9271 84.2374 13.5028C83.5613 13.0786 83.0293 12.4754 82.6415 11.6932C82.2537 10.911 82.0598 9.98295 82.0598 8.90909C82.0598 7.83523 82.2537 6.9072 82.6415 6.125C83.0293 5.3428 83.5613 4.73958 84.2374 4.31534C84.9135 3.8911 85.6858 3.67898 86.5542 3.67898C87.0679 3.67898 87.5501 3.75355 88.0009 3.9027C88.455 4.05185 88.8643 4.2706 89.2289 4.55895C89.5935 4.84399 89.8984 5.192 90.1436 5.60298C90.3889 6.01065 90.5579 6.47633 90.6507 7ZM93.8761 3.81818V14H92.6431V3.81818H93.8761ZM104.422 3.81818V14H103.229L97.6806 6.00568H97.5811V14H96.3482V3.81818H97.5414L103.11 11.8324H103.209V3.81818H104.422ZM113.849 7C113.74 6.66525 113.596 6.36529 113.417 6.10014C113.241 5.83168 113.031 5.60298 112.786 5.41406C112.544 5.22514 112.268 5.08097 111.96 4.98153C111.652 4.8821 111.314 4.83239 110.946 4.83239C110.343 4.83239 109.794 4.98816 109.3 5.29972C108.807 5.61127 108.414 6.07031 108.122 6.67685C107.83 7.28338 107.685 8.02746 107.685 8.90909C107.685 9.79072 107.832 10.5348 108.127 11.1413C108.422 11.7479 108.821 12.2069 109.325 12.5185C109.829 12.83 110.396 12.9858 111.026 12.9858C111.609 12.9858 112.123 12.8615 112.567 12.6129C113.014 12.361 113.362 12.0064 113.611 11.549C113.863 11.0883 113.989 10.5464 113.989 9.9233L114.366 10.0028H111.304V8.90909H115.182V10.0028C115.182 10.8414 115.003 11.5705 114.645 12.1903C114.29 12.8101 113.8 13.2907 113.173 13.6321C112.55 13.9702 111.834 14.1392 111.026 14.1392C110.124 14.1392 109.332 13.9271 108.649 13.5028C107.97 13.0786 107.439 12.4754 107.058 11.6932C106.68 10.911 106.491 9.98295 106.491 8.90909C106.491 8.10369 106.599 7.3795 106.815 6.73651C107.033 6.0902 107.342 5.54001 107.739 5.08594C108.137 4.63187 108.608 4.28385 109.151 4.0419C109.695 3.79995 110.293 3.67898 110.946 3.67898C111.483 3.67898 111.983 3.76018 112.447 3.92258C112.915 4.08168 113.331 4.30871 113.695 4.60369C114.063 4.89536 114.37 5.24503 114.615 5.6527C114.86 6.05705 115.029 6.50616 115.122 7H113.849Z" fill="black"/>
</svg>
