<svg width="300" height="50" viewBox="0 0 300 50" fill="none" xmlns="http://www.w3.org/2000/svg">
<rect width="300" height="50" fill="white"/>
<path d="M1.23295 14V3.81818H2.46591V12.9062H7.19886V14H1.23295ZM23.108 14V3.81818H29.2528V4.91193H24.3409V8.35227H28.9347V9.44602H24.3409V12.9062H29.3324V14H23.108ZM44.9183 4.91193V3.81818H52.5547V4.91193H49.353V14H48.12V4.91193H44.9183ZM67.9007 4.91193V3.81818H75.5371V4.91193H72.3354V14H71.1025V4.91193H67.9007ZM91.44 14V3.81818H97.5849V4.91193H92.6729V8.35227H97.2667V9.44602H92.6729V12.9062H97.6644V14H91.44ZM113.807 14V3.81818H117.248C118.043 3.81818 118.696 3.95407 119.206 4.22585C119.717 4.49432 120.095 4.86387 120.34 5.33452C120.585 5.80516 120.708 6.34044 120.708 6.94034C120.708 7.54025 120.585 8.07221 120.34 8.53622C120.095 9.00024 119.718 9.36482 119.211 9.62997C118.704 9.89181 118.056 10.0227 117.267 10.0227H114.483V8.90909H117.228C117.771 8.90909 118.209 8.82955 118.54 8.67045C118.875 8.51136 119.117 8.28598 119.266 7.99432C119.418 7.69934 119.495 7.34801 119.495 6.94034C119.495 6.53267 119.418 6.17637 119.266 5.87145C119.114 5.56652 118.87 5.3312 118.535 5.16548C118.2 4.99645 117.758 4.91193 117.208 4.91193H115.04V14H113.807ZM118.6 9.42614L121.105 14H119.674L117.208 9.42614H118.6ZM6.80114 23.3636C6.74148 22.8598 6.49953 22.4688 6.07528 22.1903C5.65104 21.9119 5.13068 21.7727 4.5142 21.7727C4.06345 21.7727 3.66903 21.8456 3.33097 21.9915C2.99621 22.1373 2.73438 22.3378 2.54545 22.593C2.35985 22.8482 2.26705 23.1383 2.26705 23.4631C2.26705 23.7348 2.33168 23.9685 2.46094 24.1641C2.59351 24.3563 2.76255 24.517 2.96804 24.6463C3.17353 24.7723 3.38897 24.8767 3.61435 24.9595C3.83973 25.0391 4.04688 25.1037 4.2358 25.1534L5.26989 25.4318C5.53504 25.5014 5.83002 25.5975 6.15483 25.7202C6.48295 25.8428 6.79616 26.0102 7.09446 26.2223C7.39607 26.4311 7.64465 26.6996 7.8402 27.0277C8.03575 27.3558 8.13352 27.7585 8.13352 28.2358C8.13352 28.786 7.98935 29.2831 7.70099 29.7273C7.41596 30.1714 6.99834 30.5244 6.44815 30.7862C5.90128 31.0481 5.23674 31.179 4.45455 31.179C3.72538 31.179 3.09399 31.0613 2.56037 30.826C2.03007 30.5907 1.61245 30.2625 1.30753 29.8416C1.00592 29.4207 0.835227 28.9318 0.795455 28.375H2.06818C2.10133 28.7595 2.23059 29.0777 2.45597 29.3295C2.68466 29.5781 2.97301 29.7637 3.32102 29.8864C3.67235 30.0057 4.05019 30.0653 4.45455 30.0653C4.92519 30.0653 5.34777 29.9891 5.7223 29.8366C6.09683 29.6809 6.39347 29.4654 6.61222 29.1903C6.83097 28.9119 6.94034 28.5871 6.94034 28.2159C6.94034 27.8778 6.84588 27.6027 6.65696 27.3906C6.46804 27.1785 6.21946 27.0062 5.91122 26.8736C5.60298 26.741 5.26989 26.625 4.91193 26.5256L3.65909 26.1676C2.86364 25.9389 2.2339 25.6125 1.76989 25.1882C1.30587 24.764 1.07386 24.2088 1.07386 23.5227C1.07386 22.9527 1.22798 22.4555 1.53622 22.0312C1.84777 21.6037 2.26539 21.2723 2.78906 21.0369C3.31605 20.7983 3.90436 20.679 4.55398 20.679C5.21023 20.679 5.79356 20.7966 6.30398 21.032C6.81439 21.264 7.21875 21.5821 7.51705 21.9865C7.81866 22.3909 7.97775 22.8499 7.99432 23.3636H6.80114ZM24.1607 31V20.8182H27.601C28.3998 20.8182 29.0527 20.9624 29.5598 21.2507C30.0703 21.5357 30.4481 21.9219 30.6934 22.4091C30.9386 22.8963 31.0613 23.4399 31.0613 24.0398C31.0613 24.6397 30.9386 25.1849 30.6934 25.6754C30.4514 26.166 30.0769 26.5571 29.5698 26.8487C29.0627 27.1371 28.4131 27.2812 27.6209 27.2812H25.155V26.1875H27.5811C28.128 26.1875 28.5672 26.093 28.8986 25.9041C29.2301 25.7152 29.4703 25.46 29.6195 25.1385C29.772 24.8137 29.8482 24.4474 29.8482 24.0398C29.8482 23.6321 29.772 23.2675 29.6195 22.946C29.4703 22.6245 29.2284 22.3726 28.8936 22.1903C28.5589 22.0047 28.1148 21.9119 27.5613 21.9119H25.3936V31H24.1607ZM46.426 31H45.1333L48.872 20.8182H50.1447L53.8833 31H52.5907L49.5481 22.429H49.4686L46.426 31ZM46.9032 27.0227H52.1135V28.1165H46.9032V27.0227ZM77.1839 24H75.951C75.8781 23.6454 75.7505 23.3338 75.5682 23.0653C75.3892 22.7969 75.1705 22.5715 74.9119 22.3892C74.6567 22.2036 74.3733 22.0644 74.0618 21.9716C73.7502 21.8788 73.4254 21.8324 73.0874 21.8324C72.4709 21.8324 71.9124 21.9882 71.4119 22.2997C70.9148 22.6113 70.5187 23.0703 70.2237 23.6768C69.9321 24.2834 69.7862 25.0275 69.7862 25.9091C69.7862 26.7907 69.9321 27.5348 70.2237 28.1413C70.5187 28.7479 70.9148 29.2069 71.4119 29.5185C71.9124 29.83 72.4709 29.9858 73.0874 29.9858C73.4254 29.9858 73.7502 29.9394 74.0618 29.8466C74.3733 29.7538 74.6567 29.6162 74.9119 29.4339C75.1705 29.2483 75.3892 29.0213 75.5682 28.7528C75.7505 28.4811 75.8781 28.1695 75.951 27.8182H77.1839C77.0911 28.3385 76.9221 28.8042 76.6768 29.2152C76.4316 29.6262 76.1267 29.9759 75.7621 30.2642C75.3975 30.5492 74.9882 30.7663 74.5341 30.9155C74.0833 31.0646 73.6011 31.1392 73.0874 31.1392C72.219 31.1392 71.4467 30.9271 70.7706 30.5028C70.0945 30.0786 69.5625 29.4754 69.1747 28.6932C68.7869 27.911 68.593 26.983 68.593 25.9091C68.593 24.8352 68.7869 23.9072 69.1747 23.125C69.5625 22.3428 70.0945 21.7396 70.7706 21.3153C71.4467 20.8911 72.219 20.679 73.0874 20.679C73.6011 20.679 74.0833 20.7536 74.5341 20.9027C74.9882 21.0518 75.3975 21.2706 75.7621 21.5589C76.1267 21.844 76.4316 22.192 76.6768 22.603C76.9221 23.0107 77.0911 23.4763 77.1839 24ZM94.4093 20.8182V31H93.1763V20.8182H94.4093ZM118.955 20.8182V31H117.762L112.214 23.0057H112.114V31H110.881V20.8182H112.075L117.643 28.8324H117.742V20.8182H118.955ZM142.383 24C142.273 23.6652 142.129 23.3653 141.95 23.1001C141.774 22.8317 141.564 22.603 141.319 22.4141C141.077 22.2251 140.802 22.081 140.493 21.9815C140.185 21.8821 139.847 21.8324 139.479 21.8324C138.876 21.8324 138.327 21.9882 137.834 22.2997C137.34 22.6113 136.947 23.0703 136.655 23.6768C136.364 24.2834 136.218 25.0275 136.218 25.9091C136.218 26.7907 136.365 27.5348 136.66 28.1413C136.955 28.7479 137.355 29.2069 137.858 29.5185C138.362 29.83 138.929 29.9858 139.559 29.9858C140.142 29.9858 140.656 29.8615 141.1 29.6129C141.547 29.361 141.895 29.0064 142.144 28.549C142.396 28.0883 142.522 27.5464 142.522 26.9233L142.9 27.0028H139.837V25.9091H143.715V27.0028C143.715 27.8414 143.536 28.5705 143.178 29.1903C142.823 29.8101 142.333 30.2907 141.706 30.6321C141.083 30.9702 140.367 31.1392 139.559 31.1392C138.657 31.1392 137.865 30.9271 137.182 30.5028C136.503 30.0786 135.973 29.4754 135.591 28.6932C135.214 27.911 135.025 26.983 135.025 25.9091C135.025 25.1037 135.132 24.3795 135.348 23.7365C135.567 23.0902 135.875 22.54 136.273 22.0859C136.67 21.6319 137.141 21.2839 137.684 21.0419C138.228 20.8 138.826 20.679 139.479 20.679C140.016 20.679 140.517 20.7602 140.981 20.9226C141.448 21.0817 141.864 21.3087 142.229 21.6037C142.596 21.8954 142.903 22.245 143.148 22.6527C143.394 23.0571 143.563 23.5062 143.655 24H142.383Z" fill="black"/>
</svg>
