<svg width="300" height="50" viewBox="0 0 300 50" fill="none" xmlns="http://www.w3.org/2000/svg">
<rect width="300" height="50" fill="white"/>
<path d="M1.23295 14V3.81818H2.46591V12.9062H7.19886V14H1.23295ZM10.508 14V3.81818H16.6528V4.91193H11.7409V8.35227H16.3347V9.44602H11.7409V12.9062H16.7324V14H10.508ZM19.7183 4.91193V3.81818H27.3547V4.91193H24.153V14H22.92V4.91193H19.7183ZM30.1007 4.91193V3.81818H37.7371V4.91193H34.5354V14H33.3025V4.91193H30.1007ZM41.04 14V3.81818H47.1849V4.91193H42.2729V8.35227H46.8667V9.44602H42.2729V12.9062H47.2644V14H41.04ZM50.8072 14V3.81818H54.2475C55.043 3.81818 55.6959 3.95407 56.2063 4.22585C56.7167 4.49432 57.0946 4.86387 57.3398 5.33452C57.5851 5.80516 57.7077 6.34044 57.7077 6.94034C57.7077 7.54025 57.5851 8.07221 57.3398 8.53622C57.0946 9.00024 56.7184 9.36482 56.2113 9.62997C55.7042 9.89181 55.0562 10.0227 54.2674 10.0227H51.4833V8.90909H54.2276C54.7712 8.90909 55.2087 8.82955 55.5401 8.67045C55.8749 8.51136 56.1168 8.28598 56.266 7.99432C56.4184 7.69934 56.4947 7.34801 56.4947 6.94034C56.4947 6.53267 56.4184 6.17637 56.266 5.87145C56.1135 5.56652 55.8699 5.3312 55.5352 5.16548C55.2004 4.99645 54.7579 4.91193 54.2077 4.91193H52.0401V14H50.8072ZM55.5998 9.42614L58.1055 14H56.6737L54.2077 9.42614H55.5998ZM72.0679 6.36364C72.0083 5.85985 71.7663 5.46875 71.3421 5.19034C70.9178 4.91193 70.3975 4.77273 69.781 4.77273C69.3302 4.77273 68.9358 4.84564 68.5978 4.99148C68.263 5.13731 68.0012 5.33783 67.8123 5.59304C67.6266 5.84825 67.5338 6.13826 67.5338 6.46307C67.5338 6.73485 67.5985 6.96851 67.7277 7.16406C67.8603 7.3563 68.0293 7.51705 68.2348 7.64631C68.4403 7.77225 68.6558 7.87666 68.8811 7.95952C69.1065 8.03906 69.3137 8.10369 69.5026 8.15341L70.5367 8.43182C70.8018 8.50142 71.0968 8.59754 71.4216 8.72017C71.7498 8.8428 72.063 9.01018 72.3613 9.2223C72.6629 9.43111 72.9114 9.69957 73.107 10.0277C73.3025 10.3558 73.4003 10.7585 73.4003 11.2358C73.4003 11.786 73.2561 12.2831 72.9678 12.7273C72.6828 13.1714 72.2651 13.5244 71.715 13.7862C71.1681 14.0481 70.5035 14.179 69.7213 14.179C68.9922 14.179 68.3608 14.0613 67.8272 13.826C67.2969 13.5907 66.8793 13.2625 66.5743 12.8416C66.2727 12.4207 66.102 11.9318 66.0623 11.375H67.335C67.3681 11.7595 67.4974 12.0777 67.7228 12.3295C67.9515 12.5781 68.2398 12.7637 68.5878 12.8864C68.9391 13.0057 69.317 13.0653 69.7213 13.0653C70.192 13.0653 70.6146 12.9891 70.9891 12.8366C71.3636 12.6809 71.6603 12.4654 71.879 12.1903C72.0978 11.9119 72.2071 11.5871 72.2071 11.2159C72.2071 10.8778 72.1127 10.6027 71.9238 10.3906C71.7348 10.1785 71.4863 10.0062 71.178 9.87358C70.8698 9.741 70.5367 9.625 70.1787 9.52557L68.9259 9.16761C68.1304 8.93892 67.5007 8.61245 67.0367 8.18821C66.5727 7.76397 66.3407 7.20881 66.3407 6.52273C66.3407 5.95265 66.4948 5.45549 66.803 5.03125C67.1146 4.60369 67.5322 4.27225 68.0559 4.03693C68.5829 3.7983 69.1712 3.67898 69.8208 3.67898C70.477 3.67898 71.0604 3.79664 71.5708 4.03196C72.0812 4.26397 72.4856 4.58215 72.7838 4.98651C73.0855 5.39086 73.2445 5.8499 73.2611 6.36364H72.0679ZM76.8275 14V3.81818H80.2678C81.0666 3.81818 81.7195 3.96236 82.2266 4.25071C82.737 4.53575 83.1149 4.92188 83.3602 5.40909C83.6054 5.89631 83.7281 6.43987 83.7281 7.03977C83.7281 7.63968 83.6054 8.1849 83.3602 8.67543C83.1182 9.16596 82.7437 9.55705 82.2366 9.84872C81.7295 10.1371 81.0799 10.2812 80.2877 10.2812H77.8218V9.1875H80.2479C80.7948 9.1875 81.234 9.09304 81.5654 8.90412C81.8968 8.7152 82.1371 8.45999 82.2863 8.13849C82.4388 7.81368 82.515 7.44744 82.515 7.03977C82.515 6.6321 82.4388 6.26752 82.2863 5.94602C82.1371 5.62453 81.8952 5.37263 81.5604 5.19034C81.2257 5.00473 80.7816 4.91193 80.2281 4.91193H78.0604V14H76.8275ZM86.4928 14H85.2001L88.9388 3.81818H90.2115L93.9501 14H92.6575L89.6149 5.42898H89.5354L86.4928 14ZM86.97 10.0227H92.1803V11.1165H86.97V10.0227ZM104.651 7H103.418C103.345 6.64536 103.217 6.33381 103.035 6.06534C102.856 5.79688 102.637 5.5715 102.379 5.3892C102.124 5.2036 101.84 5.06439 101.529 4.97159C101.217 4.87879 100.892 4.83239 100.554 4.83239C99.9377 4.83239 99.3792 4.98816 98.8787 5.29972C98.3816 5.61127 97.9855 6.07031 97.6905 6.67685C97.3989 7.28338 97.253 8.02746 97.253 8.90909C97.253 9.79072 97.3989 10.5348 97.6905 11.1413C97.9855 11.7479 98.3816 12.2069 98.8787 12.5185C99.3792 12.83 99.9377 12.9858 100.554 12.9858C100.892 12.9858 101.217 12.9394 101.529 12.8466C101.84 12.7538 102.124 12.6162 102.379 12.4339C102.637 12.2483 102.856 12.0213 103.035 11.7528C103.217 11.4811 103.345 11.1695 103.418 10.8182H104.651C104.558 11.3385 104.389 11.8042 104.144 12.2152C103.898 12.6262 103.593 12.9759 103.229 13.2642C102.864 13.5492 102.455 13.7663 102.001 13.9155C101.55 14.0646 101.068 14.1392 100.554 14.1392C99.6858 14.1392 98.9135 13.9271 98.2374 13.5028C97.5613 13.0786 97.0293 12.4754 96.6415 11.6932C96.2537 10.911 96.0598 9.98295 96.0598 8.90909C96.0598 7.83523 96.2537 6.9072 96.6415 6.125C97.0293 5.3428 97.5613 4.73958 98.2374 4.31534C98.9135 3.8911 99.6858 3.67898 100.554 3.67898C101.068 3.67898 101.55 3.75355 102.001 3.9027C102.455 4.05185 102.864 4.2706 103.229 4.55895C103.593 4.84399 103.898 5.192 104.144 5.60298C104.389 6.01065 104.558 6.47633 104.651 7ZM109.276 3.81818V14H108.043V3.81818H109.276ZM121.222 3.81818V14H120.029L114.481 6.00568H114.381V14H113.148V3.81818H114.341L119.91 11.8324H120.009V3.81818H121.222ZM132.049 7C131.94 6.66525 131.796 6.36529 131.617 6.10014C131.441 5.83168 131.231 5.60298 130.986 5.41406C130.744 5.22514 130.468 5.08097 130.16 4.98153C129.852 4.8821 129.514 4.83239 129.146 4.83239C128.543 4.83239 127.994 4.98816 127.5 5.29972C127.007 5.61127 126.614 6.07031 126.322 6.67685C126.03 7.28338 125.885 8.02746 125.885 8.90909C125.885 9.79072 126.032 10.5348 126.327 11.1413C126.622 11.7479 127.021 12.2069 127.525 12.5185C128.029 12.83 128.596 12.9858 129.226 12.9858C129.809 12.9858 130.323 12.8615 130.767 12.6129C131.214 12.361 131.562 12.0064 131.811 11.549C132.063 11.0883 132.189 10.5464 132.189 9.9233L132.566 10.0028H129.504V8.90909H133.382V10.0028C133.382 10.8414 133.203 11.5705 132.845 12.1903C132.49 12.8101 132 13.2907 131.373 13.6321C130.75 13.9702 130.034 14.1392 129.226 14.1392C128.324 14.1392 127.532 13.9271 126.849 13.5028C126.17 13.0786 125.639 12.4754 125.258 11.6932C124.88 10.911 124.691 9.98295 124.691 8.90909C124.691 8.10369 124.799 7.3795 125.015 6.73651C125.233 6.0902 125.542 5.54001 125.939 5.08594C126.337 4.63187 126.808 4.28385 127.351 4.0419C127.895 3.79995 128.493 3.67898 129.146 3.67898C129.683 3.67898 130.183 3.76018 130.647 3.92258C131.115 4.08168 131.531 4.30871 131.895 4.60369C132.263 4.89536 132.57 5.24503 132.815 5.6527C133.06 6.05705 133.229 6.50616 133.322 7H132.049Z" fill="black"/>
</svg>
