<svg width="300" height="50" viewBox="0 0 300 50" fill="none" xmlns="http://www.w3.org/2000/svg">
<rect width="300" height="50" fill="white"/>
<path d="M1.23295 14V3.81818H2.46591V12.9062H7.19886V14H1.23295ZM11.908 14V3.81818H18.0528V4.91193H13.1409V8.35227H17.7347V9.44602H13.1409V12.9062H18.1324V14H11.908ZM22.5183 4.91193V3.81818H30.1547V4.91193H26.953V14H25.72V4.91193H22.5183ZM34.3007 4.91193V3.81818H41.9371V4.91193H38.7354V14H37.5025V4.91193H34.3007ZM46.64 14V3.81818H52.7849V4.91193H47.8729V8.35227H52.4667V9.44602H47.8729V12.9062H52.8644V14H46.64ZM57.8072 14V3.81818H61.2475C62.043 3.81818 62.6959 3.95407 63.2063 4.22585C63.7167 4.49432 64.0946 4.86387 64.3398 5.33452C64.5851 5.80516 64.7077 6.34044 64.7077 6.94034C64.7077 7.54025 64.5851 8.07221 64.3398 8.53622C64.0946 9.00024 63.7184 9.36482 63.2113 9.62997C62.7042 9.89181 62.0562 10.0227 61.2674 10.0227H58.4833V8.90909H61.2276C61.7712 8.90909 62.2087 8.82955 62.5401 8.67045C62.8749 8.51136 63.1168 8.28598 63.266 7.99432C63.4184 7.69934 63.4947 7.34801 63.4947 6.94034C63.4947 6.53267 63.4184 6.17637 63.266 5.87145C63.1135 5.56652 62.8699 5.3312 62.5352 5.16548C62.2004 4.99645 61.7579 4.91193 61.2077 4.91193H59.0401V14H57.8072ZM62.5998 9.42614L65.1055 14H63.6737L61.2077 9.42614H62.5998ZM81.8679 6.36364C81.8083 5.85985 81.5663 5.46875 81.1421 5.19034C80.7178 4.91193 80.1975 4.77273 79.581 4.77273C79.1302 4.77273 78.7358 4.84564 78.3978 4.99148C78.063 5.13731 77.8012 5.33783 77.6122 5.59304C77.4266 5.84825 77.3338 6.13826 77.3338 6.46307C77.3338 6.73485 77.3985 6.96851 77.5277 7.16406C77.6603 7.3563 77.8293 7.51705 78.0348 7.64631C78.2403 7.77225 78.4558 7.87666 78.6811 7.95952C78.9065 8.03906 79.1137 8.10369 79.3026 8.15341L80.3367 8.43182C80.6018 8.50142 80.8968 8.59754 81.2216 8.72017C81.5497 8.8428 81.863 9.01018 82.1613 9.2223C82.4629 9.43111 82.7114 9.69957 82.907 10.0277C83.1025 10.3558 83.2003 10.7585 83.2003 11.2358C83.2003 11.786 83.0561 12.2831 82.7678 12.7273C82.4828 13.1714 82.0651 13.5244 81.5149 13.7862C80.9681 14.0481 80.3035 14.179 79.5213 14.179C78.7922 14.179 78.1608 14.0613 77.6272 13.826C77.0969 13.5907 76.6792 13.2625 76.3743 12.8416C76.0727 12.4207 75.902 11.9318 75.8622 11.375H77.135C77.1681 11.7595 77.2974 12.0777 77.5228 12.3295C77.7515 12.5781 78.0398 12.7637 78.3878 12.8864C78.7391 13.0057 79.117 13.0653 79.5213 13.0653C79.992 13.0653 80.4146 12.9891 80.7891 12.8366C81.1636 12.6809 81.4603 12.4654 81.679 12.1903C81.8978 11.9119 82.0071 11.5871 82.0071 11.2159C82.0071 10.8778 81.9127 10.6027 81.7238 10.3906C81.5348 10.1785 81.2863 10.0062 80.978 9.87358C80.6698 9.741 80.3367 9.625 79.9787 9.52557L78.7259 9.16761C77.9304 8.93892 77.3007 8.61245 76.8367 8.18821C76.3727 7.76397 76.1407 7.20881 76.1407 6.52273C76.1407 5.95265 76.2948 5.45549 76.603 5.03125C76.9146 4.60369 77.3322 4.27225 77.8559 4.03693C78.3828 3.7983 78.9712 3.67898 79.6208 3.67898C80.277 3.67898 80.8604 3.79664 81.3708 4.03196C81.8812 4.26397 82.2855 4.58215 82.5838 4.98651C82.8855 5.39086 83.0445 5.8499 83.0611 6.36364H81.8679ZM88.0275 14V3.81818H91.4678C92.2666 3.81818 92.9195 3.96236 93.4266 4.25071C93.9371 4.53575 94.3149 4.92188 94.5602 5.40909C94.8054 5.89631 94.9281 6.43987 94.9281 7.03977C94.9281 7.63968 94.8054 8.1849 94.5602 8.67543C94.3182 9.16596 93.9437 9.55705 93.4366 9.84872C92.9295 10.1371 92.2799 10.2812 91.4877 10.2812H89.0218V9.1875H91.4479C91.9948 9.1875 92.434 9.09304 92.7654 8.90412C93.0969 8.7152 93.3371 8.45999 93.4863 8.13849C93.6388 7.81368 93.715 7.44744 93.715 7.03977C93.715 6.6321 93.6388 6.26752 93.4863 5.94602C93.3371 5.62453 93.0952 5.37263 92.7604 5.19034C92.4257 5.00473 91.9816 4.91193 91.4281 4.91193H89.2604V14H88.0275ZM99.0928 14H97.8001L101.539 3.81818H102.812L106.55 14H105.258L102.215 5.42898H102.135L99.0928 14ZM99.57 10.0227H104.78V11.1165H99.57V10.0227ZM118.651 7H117.418C117.345 6.64536 117.217 6.33381 117.035 6.06534C116.856 5.79688 116.637 5.5715 116.379 5.3892C116.124 5.2036 115.84 5.06439 115.529 4.97159C115.217 4.87879 114.892 4.83239 114.554 4.83239C113.938 4.83239 113.379 4.98816 112.879 5.29972C112.382 5.61127 111.985 6.07031 111.691 6.67685C111.399 7.28338 111.253 8.02746 111.253 8.90909C111.253 9.79072 111.399 10.5348 111.691 11.1413C111.985 11.7479 112.382 12.2069 112.879 12.5185C113.379 12.83 113.938 12.9858 114.554 12.9858C114.892 12.9858 115.217 12.9394 115.529 12.8466C115.84 12.7538 116.124 12.6162 116.379 12.4339C116.637 12.2483 116.856 12.0213 117.035 11.7528C117.217 11.4811 117.345 11.1695 117.418 10.8182H118.651C118.558 11.3385 118.389 11.8042 118.144 12.2152C117.898 12.6262 117.593 12.9759 117.229 13.2642C116.864 13.5492 116.455 13.7663 116.001 13.9155C115.55 14.0646 115.068 14.1392 114.554 14.1392C113.686 14.1392 112.914 13.9271 112.237 13.5028C111.561 13.0786 111.029 12.4754 110.642 11.6932C110.254 10.911 110.06 9.98295 110.06 8.90909C110.06 7.83523 110.254 6.9072 110.642 6.125C111.029 5.3428 111.561 4.73958 112.237 4.31534C112.914 3.8911 113.686 3.67898 114.554 3.67898C115.068 3.67898 115.55 3.75355 116.001 3.9027C116.455 4.05185 116.864 4.2706 117.229 4.55895C117.593 4.84399 117.898 5.192 118.144 5.60298C118.389 6.01065 118.558 6.47633 118.651 7ZM124.676 3.81818V14H123.443V3.81818H124.676ZM138.022 3.81818V14H136.829L131.281 6.00568H131.181V14H129.948V3.81818H131.141L136.71 11.8324H136.809V3.81818H138.022ZM150.249 7C150.14 6.66525 149.996 6.36529 149.817 6.10014C149.641 5.83168 149.431 5.60298 149.186 5.41406C148.944 5.22514 148.668 5.08097 148.36 4.98153C148.052 4.8821 147.714 4.83239 147.346 4.83239C146.743 4.83239 146.194 4.98816 145.7 5.29972C145.207 5.61127 144.814 6.07031 144.522 6.67685C144.23 7.28338 144.085 8.02746 144.085 8.90909C144.085 9.79072 144.232 10.5348 144.527 11.1413C144.822 11.7479 145.221 12.2069 145.725 12.5185C146.229 12.83 146.796 12.9858 147.426 12.9858C148.009 12.9858 148.523 12.8615 148.967 12.6129C149.414 12.361 149.762 12.0064 150.011 11.549C150.263 11.0883 150.389 10.5464 150.389 9.9233L150.766 10.0028H147.704V8.90909H151.582V10.0028C151.582 10.8414 151.403 11.5705 151.045 12.1903C150.69 12.8101 150.2 13.2907 149.573 13.6321C148.95 13.9702 148.234 14.1392 147.426 14.1392C146.524 14.1392 145.732 13.9271 145.049 13.5028C144.37 13.0786 143.839 12.4754 143.458 11.6932C143.08 10.911 142.891 9.98295 142.891 8.90909C142.891 8.10369 142.999 7.3795 143.215 6.73651C143.433 6.0902 143.742 5.54001 144.139 5.08594C144.537 4.63187 145.008 4.28385 145.551 4.0419C146.095 3.79995 146.693 3.67898 147.346 3.67898C147.883 3.67898 148.383 3.76018 148.847 3.92258C149.315 4.08168 149.731 4.30871 150.095 4.60369C150.463 4.89536 150.77 5.24503 151.015 5.6527C151.26 6.05705 151.429 6.50616 151.522 7H150.249Z" fill="black"/>
</svg>
