<svg width="300" height="50" viewBox="0 0 300 50" fill="none" xmlns="http://www.w3.org/2000/svg">
<rect width="300" height="50" fill="white"/>
<path d="M1.23295 14V3.81818H2.46591V12.9062H7.19886V14H1.23295ZM16.108 14V3.81818H22.2528V4.91193H17.3409V8.35227H21.9347V9.44602H17.3409V12.9062H22.3324V14H16.108ZM30.9183 4.91193V3.81818H38.5547V4.91193H35.353V14H34.12V4.91193H30.9183ZM46.9007 4.91193V3.81818H54.5371V4.91193H51.3354V14H50.1025V4.91193H46.9007ZM63.44 14V3.81818H69.5849V4.91193H64.6729V8.35227H69.2667V9.44602H64.6729V12.9062H69.6644V14H63.44ZM78.8072 14V3.81818H82.2475C83.043 3.81818 83.6959 3.95407 84.2063 4.22585C84.7167 4.49432 85.0946 4.86387 85.3398 5.33452C85.5851 5.80516 85.7077 6.34044 85.7077 6.94034C85.7077 7.54025 85.5851 8.07221 85.3398 8.53622C85.0946 9.00024 84.7184 9.36482 84.2113 9.62997C83.7042 9.89181 83.0562 10.0227 82.2674 10.0227H79.4833V8.90909H82.2276C82.7712 8.90909 83.2087 8.82955 83.5401 8.67045C83.8749 8.51136 84.1168 8.28598 84.266 7.99432C84.4184 7.69934 84.4947 7.34801 84.4947 6.94034C84.4947 6.53267 84.4184 6.17637 84.266 5.87145C84.1135 5.56652 83.8699 5.3312 83.5352 5.16548C83.2004 4.99645 82.7579 4.91193 82.2077 4.91193H80.0401V14H78.8072ZM83.5998 9.42614L86.1055 14H84.6737L82.2077 9.42614H83.5998ZM111.268 6.36364C111.208 5.85985 110.966 5.46875 110.542 5.19034C110.118 4.91193 109.597 4.77273 108.981 4.77273C108.53 4.77273 108.136 4.84564 107.798 4.99148C107.463 5.13731 107.201 5.33783 107.012 5.59304C106.827 5.84825 106.734 6.13826 106.734 6.46307C106.734 6.73485 106.798 6.96851 106.928 7.16406C107.06 7.3563 107.229 7.51705 107.435 7.64631C107.64 7.77225 107.856 7.87666 108.081 7.95952C108.307 8.03906 108.514 8.10369 108.703 8.15341L109.737 8.43182C110.002 8.50142 110.297 8.59754 110.622 8.72017C110.95 8.8428 111.263 9.01018 111.561 9.2223C111.863 9.43111 112.111 9.69957 112.307 10.0277C112.503 10.3558 112.6 10.7585 112.6 11.2358C112.6 11.786 112.456 12.2831 112.168 12.7273C111.883 13.1714 111.465 13.5244 110.915 13.7862C110.368 14.0481 109.704 14.179 108.921 14.179C108.192 14.179 107.561 14.0613 107.027 13.826C106.497 13.5907 106.079 13.2625 105.774 12.8416C105.473 12.4207 105.302 11.9318 105.262 11.375H106.535C106.568 11.7595 106.697 12.0777 106.923 12.3295C107.151 12.5781 107.44 12.7637 107.788 12.8864C108.139 13.0057 108.517 13.0653 108.921 13.0653C109.392 13.0653 109.815 12.9891 110.189 12.8366C110.564 12.6809 110.86 12.4654 111.079 12.1903C111.298 11.9119 111.407 11.5871 111.407 11.2159C111.407 10.8778 111.313 10.6027 111.124 10.3906C110.935 10.1785 110.686 10.0062 110.378 9.87358C110.07 9.741 109.737 9.625 109.379 9.52557L108.126 9.16761C107.33 8.93892 106.701 8.61245 106.237 8.18821C105.773 7.76397 105.541 7.20881 105.541 6.52273C105.541 5.95265 105.695 5.45549 106.003 5.03125C106.315 4.60369 106.732 4.27225 107.256 4.03693C107.783 3.7983 108.371 3.67898 109.021 3.67898C109.677 3.67898 110.26 3.79664 110.771 4.03196C111.281 4.26397 111.686 4.58215 111.984 4.98651C112.285 5.39086 112.445 5.8499 112.461 6.36364H111.268ZM121.627 14V3.81818H125.068C125.867 3.81818 126.52 3.96236 127.027 4.25071C127.537 4.53575 127.915 4.92188 128.16 5.40909C128.405 5.89631 128.528 6.43987 128.528 7.03977C128.528 7.63968 128.405 8.1849 128.16 8.67543C127.918 9.16596 127.544 9.55705 127.037 9.84872C126.529 10.1371 125.88 10.2812 125.088 10.2812H122.622V9.1875H125.048C125.595 9.1875 126.034 9.09304 126.365 8.90412C126.697 8.7152 126.937 8.45999 127.086 8.13849C127.239 7.81368 127.315 7.44744 127.315 7.03977C127.315 6.6321 127.239 6.26752 127.086 5.94602C126.937 5.62453 126.695 5.37263 126.36 5.19034C126.026 5.00473 125.582 4.91193 125.028 4.91193H122.86V14H121.627ZM136.893 14H135.6L139.339 3.81818H140.612L144.35 14H143.058L140.015 5.42898H139.935L136.893 14ZM137.37 10.0227H142.58V11.1165H137.37V10.0227ZM160.651 7H159.418C159.345 6.64536 159.217 6.33381 159.035 6.06534C158.856 5.79688 158.637 5.5715 158.379 5.3892C158.124 5.2036 157.84 5.06439 157.529 4.97159C157.217 4.87879 156.892 4.83239 156.554 4.83239C155.938 4.83239 155.379 4.98816 154.879 5.29972C154.382 5.61127 153.985 6.07031 153.691 6.67685C153.399 7.28338 153.253 8.02746 153.253 8.90909C153.253 9.79072 153.399 10.5348 153.691 11.1413C153.985 11.7479 154.382 12.2069 154.879 12.5185C155.379 12.83 155.938 12.9858 156.554 12.9858C156.892 12.9858 157.217 12.9394 157.529 12.8466C157.84 12.7538 158.124 12.6162 158.379 12.4339C158.637 12.2483 158.856 12.0213 159.035 11.7528C159.217 11.4811 159.345 11.1695 159.418 10.8182H160.651C160.558 11.3385 160.389 11.8042 160.144 12.2152C159.898 12.6262 159.593 12.9759 159.229 13.2642C158.864 13.5492 158.455 13.7663 158.001 13.9155C157.55 14.0646 157.068 14.1392 156.554 14.1392C155.686 14.1392 154.914 13.9271 154.237 13.5028C153.561 13.0786 153.029 12.4754 152.642 11.6932C152.254 10.911 152.06 9.98295 152.06 8.90909C152.06 7.83523 152.254 6.9072 152.642 6.125C153.029 5.3428 153.561 4.73958 154.237 4.31534C154.914 3.8911 155.686 3.67898 156.554 3.67898C157.068 3.67898 157.55 3.75355 158.001 3.9027C158.455 4.05185 158.864 4.2706 159.229 4.55895C159.593 4.84399 159.898 5.192 160.144 5.60298C160.389 6.01065 160.558 6.47633 160.651 7ZM170.876 3.81818V14H169.643V3.81818H170.876ZM188.422 3.81818V14H187.229L181.681 6.00568H181.581V14H180.348V3.81818H181.541L187.11 11.8324H187.209V3.81818H188.422ZM204.849 7C204.74 6.66525 204.596 6.36529 204.417 6.10014C204.241 5.83168 204.031 5.60298 203.786 5.41406C203.544 5.22514 203.268 5.08097 202.96 4.98153C202.652 4.8821 202.314 4.83239 201.946 4.83239C201.343 4.83239 200.794 4.98816 200.3 5.29972C199.807 5.61127 199.414 6.07031 199.122 6.67685C198.83 7.28338 198.685 8.02746 198.685 8.90909C198.685 9.79072 198.832 10.5348 199.127 11.1413C199.422 11.7479 199.821 12.2069 200.325 12.5185C200.829 12.83 201.396 12.9858 202.026 12.9858C202.609 12.9858 203.123 12.8615 203.567 12.6129C204.014 12.361 204.362 12.0064 204.611 11.549C204.863 11.0883 204.989 10.5464 204.989 9.9233L205.366 10.0028H202.304V8.90909H206.182V10.0028C206.182 10.8414 206.003 11.5705 205.645 12.1903C205.29 12.8101 204.8 13.2907 204.173 13.6321C203.55 13.9702 202.834 14.1392 202.026 14.1392C201.124 14.1392 200.332 13.9271 199.649 13.5028C198.97 13.0786 198.439 12.4754 198.058 11.6932C197.68 10.911 197.491 9.98295 197.491 8.90909C197.491 8.10369 197.599 7.3795 197.815 6.73651C198.033 6.0902 198.342 5.54001 198.739 5.08594C199.137 4.63187 199.608 4.28385 200.151 4.0419C200.695 3.79995 201.293 3.67898 201.946 3.67898C202.483 3.67898 202.983 3.76018 203.447 3.92258C203.915 4.08168 204.331 4.30871 204.695 4.60369C205.063 4.89536 205.37 5.24503 205.615 5.6527C205.86 6.05705 206.029 6.50616 206.122 7H204.849Z" fill="black"/>
</svg>
