<svg width="300" height="50" viewBox="0 0 300 50" fill="none" xmlns="http://www.w3.org/2000/svg">
<rect width="300" height="50" fill="white"/>
<path d="M1.23295 14V3.81818H2.46591V12.9062H7.19886V14H1.23295ZM9.80795 14V3.81818H15.9528V4.91193H11.0409V8.35227H15.6347V9.44602H11.0409V12.9062H16.0324V14H9.80795ZM18.3183 4.91193V3.81818H25.9547V4.91193H22.753V14H21.52V4.91193H18.3183ZM28.0007 4.91193V3.81818H35.6371V4.91193H32.4354V14H31.2025V4.91193H28.0007ZM38.24 14V3.81818H44.3849V4.91193H39.4729V8.35227H44.0667V9.44602H39.4729V12.9062H44.4644V14H38.24ZM47.3072 14V3.81818H50.7475C51.543 3.81818 52.1959 3.95407 52.7063 4.22585C53.2167 4.49432 53.5946 4.86387 53.8398 5.33452C54.0851 5.80516 54.2077 6.34044 54.2077 6.94034C54.2077 7.54025 54.0851 8.07221 53.8398 8.53622C53.5946 9.00024 53.2184 9.36482 52.7113 9.62997C52.2042 9.89181 51.5562 10.0227 50.7674 10.0227H47.9833V8.90909H50.7276C51.2712 8.90909 51.7087 8.82955 52.0401 8.67045C52.3749 8.51136 52.6168 8.28598 52.766 7.99432C52.9184 7.69934 52.9947 7.34801 52.9947 6.94034C52.9947 6.53267 52.9184 6.17637 52.766 5.87145C52.6135 5.56652 52.3699 5.3312 52.0352 5.16548C51.7004 4.99645 51.2579 4.91193 50.7077 4.91193H48.5401V14H47.3072ZM52.0998 9.42614L54.6055 14H53.1737L50.7077 9.42614H52.0998ZM67.1679 6.36364C67.1083 5.85985 66.8663 5.46875 66.4421 5.19034C66.0178 4.91193 65.4975 4.77273 64.881 4.77273C64.4302 4.77273 64.0358 4.84564 63.6978 4.99148C63.363 5.13731 63.1012 5.33783 62.9123 5.59304C62.7266 5.84825 62.6338 6.13826 62.6338 6.46307C62.6338 6.73485 62.6985 6.96851 62.8277 7.16406C62.9603 7.3563 63.1293 7.51705 63.3348 7.64631C63.5403 7.77225 63.7558 7.87666 63.9811 7.95952C64.2065 8.03906 64.4137 8.10369 64.6026 8.15341L65.6367 8.43182C65.9018 8.50142 66.1968 8.59754 66.5216 8.72017C66.8498 8.8428 67.163 9.01018 67.4613 9.2223C67.7629 9.43111 68.0114 9.69957 68.207 10.0277C68.4025 10.3558 68.5003 10.7585 68.5003 11.2358C68.5003 11.786 68.3561 12.2831 68.0678 12.7273C67.7828 13.1714 67.3651 13.5244 66.815 13.7862C66.2681 14.0481 65.6035 14.179 64.8213 14.179C64.0922 14.179 63.4608 14.0613 62.9272 13.826C62.3969 13.5907 61.9793 13.2625 61.6743 12.8416C61.3727 12.4207 61.202 11.9318 61.1623 11.375H62.435C62.4681 11.7595 62.5974 12.0777 62.8228 12.3295C63.0515 12.5781 63.3398 12.7637 63.6878 12.8864C64.0391 13.0057 64.417 13.0653 64.8213 13.0653C65.292 13.0653 65.7146 12.9891 66.0891 12.8366C66.4636 12.6809 66.7603 12.4654 66.979 12.1903C67.1978 11.9119 67.3071 11.5871 67.3071 11.2159C67.3071 10.8778 67.2127 10.6027 67.0238 10.3906C66.8348 10.1785 66.5863 10.0062 66.278 9.87358C65.9698 9.741 65.6367 9.625 65.2787 9.52557L64.0259 9.16761C63.2304 8.93892 62.6007 8.61245 62.1367 8.18821C61.6727 7.76397 61.4407 7.20881 61.4407 6.52273C61.4407 5.95265 61.5948 5.45549 61.903 5.03125C62.2146 4.60369 62.6322 4.27225 63.1559 4.03693C63.6828 3.7983 64.2712 3.67898 64.9208 3.67898C65.577 3.67898 66.1604 3.79664 66.6708 4.03196C67.1812 4.26397 67.5855 4.58215 67.8838 4.98651C68.1855 5.39086 68.3445 5.8499 68.3611 6.36364H67.1679ZM71.2275 14V3.81818H74.6678C75.4666 3.81818 76.1195 3.96236 76.6266 4.25071C77.137 4.53575 77.5149 4.92188 77.7602 5.40909C78.0054 5.89631 78.1281 6.43987 78.1281 7.03977C78.1281 7.63968 78.0054 8.1849 77.7602 8.67543C77.5182 9.16596 77.1437 9.55705 76.6366 9.84872C76.1295 10.1371 75.4799 10.2812 74.6877 10.2812H72.2218V9.1875H74.6479C75.1948 9.1875 75.634 9.09304 75.9654 8.90412C76.2968 8.7152 76.5371 8.45999 76.6863 8.13849C76.8388 7.81368 76.915 7.44744 76.915 7.03977C76.915 6.6321 76.8388 6.26752 76.6863 5.94602C76.5371 5.62453 76.2952 5.37263 75.9604 5.19034C75.6257 5.00473 75.1816 4.91193 74.6281 4.91193H72.4604V14H71.2275ZM80.1928 14H78.9001L82.6388 3.81818H83.9115L87.6501 14H86.3575L83.3149 5.42898H83.2354L80.1928 14ZM80.67 10.0227H85.8803V11.1165H80.67V10.0227ZM97.6507 7H96.4178C96.3449 6.64536 96.2173 6.33381 96.035 6.06534C95.856 5.79688 95.6373 5.5715 95.3787 5.3892C95.1235 5.2036 94.8401 5.06439 94.5286 4.97159C94.217 4.87879 93.8922 4.83239 93.5542 4.83239C92.9377 4.83239 92.3792 4.98816 91.8787 5.29972C91.3816 5.61127 90.9855 6.07031 90.6905 6.67685C90.3989 7.28338 90.253 8.02746 90.253 8.90909C90.253 9.79072 90.3989 10.5348 90.6905 11.1413C90.9855 11.7479 91.3816 12.2069 91.8787 12.5185C92.3792 12.83 92.9377 12.9858 93.5542 12.9858C93.8922 12.9858 94.217 12.9394 94.5286 12.8466C94.8401 12.7538 95.1235 12.6162 95.3787 12.4339C95.6373 12.2483 95.856 12.0213 96.035 11.7528C96.2173 11.4811 96.3449 11.1695 96.4178 10.8182H97.6507C97.5579 11.3385 97.3889 11.8042 97.1436 12.2152C96.8984 12.6262 96.5935 12.9759 96.2289 13.2642C95.8643 13.5492 95.455 13.7663 95.0009 13.9155C94.5501 14.0646 94.0679 14.1392 93.5542 14.1392C92.6858 14.1392 91.9135 13.9271 91.2374 13.5028C90.5613 13.0786 90.0293 12.4754 89.6415 11.6932C89.2537 10.911 89.0598 9.98295 89.0598 8.90909C89.0598 7.83523 89.2537 6.9072 89.6415 6.125C90.0293 5.3428 90.5613 4.73958 91.2374 4.31534C91.9135 3.8911 92.6858 3.67898 93.5542 3.67898C94.0679 3.67898 94.5501 3.75355 95.0009 3.9027C95.455 4.05185 95.8643 4.2706 96.2289 4.55895C96.5935 4.84399 96.8984 5.192 97.1436 5.60298C97.3889 6.01065 97.5579 6.47633 97.6507 7ZM101.576 3.81818V14H100.343V3.81818H101.576ZM112.822 3.81818V14H111.629L106.081 6.00568H105.981V14H104.748V3.81818H105.941L111.51 11.8324H111.609V3.81818H112.822ZM122.949 7C122.84 6.66525 122.696 6.36529 122.517 6.10014C122.341 5.83168 122.131 5.60298 121.886 5.41406C121.644 5.22514 121.368 5.08097 121.06 4.98153C120.752 4.8821 120.414 4.83239 120.046 4.83239C119.443 4.83239 118.894 4.98816 118.4 5.29972C117.907 5.61127 117.514 6.07031 117.222 6.67685C116.93 7.28338 116.785 8.02746 116.785 8.90909C116.785 9.79072 116.932 10.5348 117.227 11.1413C117.522 11.7479 117.921 12.2069 118.425 12.5185C118.929 12.83 119.496 12.9858 120.126 12.9858C120.709 12.9858 121.223 12.8615 121.667 12.6129C122.114 12.361 122.462 12.0064 122.711 11.549C122.963 11.0883 123.089 10.5464 123.089 9.9233L123.466 10.0028H120.404V8.90909H124.282V10.0028C124.282 10.8414 124.103 11.5705 123.745 12.1903C123.39 12.8101 122.9 13.2907 122.273 13.6321C121.65 13.9702 120.934 14.1392 120.126 14.1392C119.224 14.1392 118.432 13.9271 117.749 13.5028C117.07 13.0786 116.539 12.4754 116.158 11.6932C115.78 10.911 115.591 9.98295 115.591 8.90909C115.591 8.10369 115.699 7.3795 115.915 6.73651C116.133 6.0902 116.442 5.54001 116.839 5.08594C117.237 4.63187 117.708 4.28385 118.251 4.0419C118.795 3.79995 119.393 3.67898 120.046 3.67898C120.583 3.67898 121.083 3.76018 121.547 3.92258C122.015 4.08168 122.431 4.30871 122.795 4.60369C123.163 4.89536 123.47 5.24503 123.715 5.6527C123.96 6.05705 124.129 6.50616 124.222 7H122.949Z" fill="black"/>
</svg>
