<svg width="300" height="50" viewBox="0 0 300 50" fill="none" xmlns="http://www.w3.org/2000/svg">
<rect width="300" height="50" fill="white"/>
<path d="M1.23295 14V3.81818H2.46591V12.9062H7.19886V14H1.23295ZM8.40795 14V3.81818H14.5528V4.91193H9.64091V8.35227H14.2347V9.44602H9.64091V12.9062H14.6324V14H8.40795ZM15.5183 4.91193V3.81818H23.1547V4.91193H19.953V14H18.72V4.91193H15.5183ZM23.8007 4.91193V3.81818H31.4371V4.91193H28.2354V14H27.0025V4.91193H23.8007ZM32.64 14V3.81818H38.7849V4.91193H33.8729V8.35227H38.4667V9.44602H33.8729V12.9062H38.8644V14H32.64ZM40.3072 14V3.81818H43.7475C44.543 3.81818 45.1959 3.95407 45.7063 4.22585C46.2167 4.49432 46.5946 4.86387 46.8398 5.33452C47.0851 5.80516 47.2077 6.34044 47.2077 6.94034C47.2077 7.54025 47.0851 8.07221 46.8398 8.53622C46.5946 9.00024 46.2184 9.36482 45.7113 9.62997C45.2042 9.89181 44.5562 10.0227 43.7674 10.0227H40.9833V8.90909H43.7276C44.2712 8.90909 44.7087 8.82955 45.0401 8.67045C45.3749 8.51136 45.6168 8.28598 45.766 7.99432C45.9184 7.69934 45.9947 7.34801 45.9947 6.94034C45.9947 6.53267 45.9184 6.17637 45.766 5.87145C45.6135 5.56652 45.3699 5.3312 45.0352 5.16548C44.7004 4.99645 44.2579 4.91193 43.7077 4.91193H41.5401V14H40.3072ZM45.0998 9.42614L47.6055 14H46.1737L43.7077 9.42614H45.0998ZM57.3679 6.36364C57.3083 5.85985 57.0663 5.46875 56.6421 5.19034C56.2178 4.91193 55.6975 4.77273 55.081 4.77273C54.6302 4.77273 54.2358 4.84564 53.8978 4.99148C53.563 5.13731 53.3012 5.33783 53.1122 5.59304C52.9266 5.84825 52.8338 6.13826 52.8338 6.46307C52.8338 6.73485 52.8985 6.96851 53.0277 7.16406C53.1603 7.3563 53.3293 7.51705 53.5348 7.64631C53.7403 7.77225 53.9558 7.87666 54.1811 7.95952C54.4065 8.03906 54.6137 8.10369 54.8026 8.15341L55.8367 8.43182C56.1018 8.50142 56.3968 8.59754 56.7216 8.72017C57.0497 8.8428 57.363 9.01018 57.6613 9.2223C57.9629 9.43111 58.2114 9.69957 58.407 10.0277C58.6025 10.3558 58.7003 10.7585 58.7003 11.2358C58.7003 11.786 58.5561 12.2831 58.2678 12.7273C57.9828 13.1714 57.5651 13.5244 57.0149 13.7862C56.4681 14.0481 55.8035 14.179 55.0213 14.179C54.2922 14.179 53.6608 14.0613 53.1272 13.826C52.5969 13.5907 52.1792 13.2625 51.8743 12.8416C51.5727 12.4207 51.402 11.9318 51.3622 11.375H52.635C52.6681 11.7595 52.7974 12.0777 53.0228 12.3295C53.2515 12.5781 53.5398 12.7637 53.8878 12.8864C54.2391 13.0057 54.617 13.0653 55.0213 13.0653C55.492 13.0653 55.9146 12.9891 56.2891 12.8366C56.6636 12.6809 56.9603 12.4654 57.179 12.1903C57.3978 11.9119 57.5071 11.5871 57.5071 11.2159C57.5071 10.8778 57.4127 10.6027 57.2238 10.3906C57.0348 10.1785 56.7863 10.0062 56.478 9.87358C56.1698 9.741 55.8367 9.625 55.4787 9.52557L54.2259 9.16761C53.4304 8.93892 52.8007 8.61245 52.3367 8.18821C51.8727 7.76397 51.6407 7.20881 51.6407 6.52273C51.6407 5.95265 51.7948 5.45549 52.103 5.03125C52.4146 4.60369 52.8322 4.27225 53.3559 4.03693C53.8828 3.7983 54.4712 3.67898 55.1208 3.67898C55.777 3.67898 56.3604 3.79664 56.8708 4.03196C57.3812 4.26397 57.7855 4.58215 58.0838 4.98651C58.3855 5.39086 58.5445 5.8499 58.5611 6.36364H57.3679ZM60.0275 14V3.81818H63.4678C64.2666 3.81818 64.9195 3.96236 65.4266 4.25071C65.9371 4.53575 66.3149 4.92188 66.5602 5.40909C66.8054 5.89631 66.9281 6.43987 66.9281 7.03977C66.9281 7.63968 66.8054 8.1849 66.5602 8.67543C66.3182 9.16596 65.9437 9.55705 65.4366 9.84872C64.9295 10.1371 64.2799 10.2812 63.4877 10.2812H61.0218V9.1875H63.4479C63.9948 9.1875 64.434 9.09304 64.7654 8.90412C65.0969 8.7152 65.3371 8.45999 65.4863 8.13849C65.6388 7.81368 65.715 7.44744 65.715 7.03977C65.715 6.6321 65.6388 6.26752 65.4863 5.94602C65.3371 5.62453 65.0952 5.37263 64.7604 5.19034C64.4257 5.00473 63.9816 4.91193 63.4281 4.91193H61.2604V14H60.0275ZM67.5928 14H66.3001L70.0388 3.81818H71.3115L75.0501 14H73.7575L70.7149 5.42898H70.6354L67.5928 14ZM68.07 10.0227H73.2803V11.1165H68.07V10.0227ZM83.6507 7H82.4178C82.3449 6.64536 82.2173 6.33381 82.035 6.06534C81.856 5.79688 81.6373 5.5715 81.3787 5.3892C81.1235 5.2036 80.8401 5.06439 80.5286 4.97159C80.217 4.87879 79.8922 4.83239 79.5542 4.83239C78.9377 4.83239 78.3792 4.98816 77.8787 5.29972C77.3816 5.61127 76.9855 6.07031 76.6905 6.67685C76.3989 7.28338 76.253 8.02746 76.253 8.90909C76.253 9.79072 76.3989 10.5348 76.6905 11.1413C76.9855 11.7479 77.3816 12.2069 77.8787 12.5185C78.3792 12.83 78.9377 12.9858 79.5542 12.9858C79.8922 12.9858 80.217 12.9394 80.5286 12.8466C80.8401 12.7538 81.1235 12.6162 81.3787 12.4339C81.6373 12.2483 81.856 12.0213 82.035 11.7528C82.2173 11.4811 82.3449 11.1695 82.4178 10.8182H83.6507C83.5579 11.3385 83.3889 11.8042 83.1436 12.2152C82.8984 12.6262 82.5935 12.9759 82.2289 13.2642C81.8643 13.5492 81.455 13.7663 81.0009 13.9155C80.5501 14.0646 80.0679 14.1392 79.5542 14.1392C78.6858 14.1392 77.9135 13.9271 77.2374 13.5028C76.5613 13.0786 76.0293 12.4754 75.6415 11.6932C75.2537 10.911 75.0598 9.98295 75.0598 8.90909C75.0598 7.83523 75.2537 6.9072 75.6415 6.125C76.0293 5.3428 76.5613 4.73958 77.2374 4.31534C77.9135 3.8911 78.6858 3.67898 79.5542 3.67898C80.0679 3.67898 80.5501 3.75355 81.0009 3.9027C81.455 4.05185 81.8643 4.2706 82.2289 4.55895C82.5935 4.84399 82.8984 5.192 83.1436 5.60298C83.3889 6.01065 83.5579 6.47633 83.6507 7ZM86.1761 3.81818V14H84.9431V3.81818H86.1761ZM96.0221 3.81818V14H94.8289L89.2806 6.00568H89.1811V14H87.9482V3.81818H89.1414L94.7096 11.8324H94.809V3.81818H96.0221ZM104.749 7C104.64 6.66525 104.496 6.36529 104.317 6.10014C104.141 5.83168 103.931 5.60298 103.686 5.41406C103.444 5.22514 103.168 5.08097 102.86 4.98153C102.552 4.8821 102.214 4.83239 101.846 4.83239C101.243 4.83239 100.694 4.98816 100.2 5.29972C99.7066 5.61127 99.3138 6.07031 99.0222 6.67685C98.7305 7.28338 98.5847 8.02746 98.5847 8.90909C98.5847 9.79072 98.7322 10.5348 99.0271 11.1413C99.3221 11.7479 99.7215 12.2069 100.225 12.5185C100.729 12.83 101.296 12.9858 101.926 12.9858C102.509 12.9858 103.023 12.8615 103.467 12.6129C103.914 12.361 104.262 12.0064 104.511 11.549C104.763 11.0883 104.889 10.5464 104.889 9.9233L105.266 10.0028H102.204V8.90909H106.082V10.0028C106.082 10.8414 105.903 11.5705 105.545 12.1903C105.19 12.8101 104.7 13.2907 104.073 13.6321C103.45 13.9702 102.734 14.1392 101.926 14.1392C101.024 14.1392 100.232 13.9271 99.5491 13.5028C98.8697 13.0786 98.3394 12.4754 97.9582 11.6932C97.5804 10.911 97.3915 9.98295 97.3915 8.90909C97.3915 8.10369 97.4992 7.3795 97.7146 6.73651C97.9334 6.0902 98.2416 5.54001 98.6393 5.08594C99.0371 4.63187 99.5077 4.28385 100.051 4.0419C100.595 3.79995 101.193 3.67898 101.846 3.67898C102.383 3.67898 102.883 3.76018 103.347 3.92258C103.815 4.08168 104.231 4.30871 104.595 4.60369C104.963 4.89536 105.27 5.24503 105.515 5.6527C105.76 6.05705 105.929 6.50616 106.022 7H104.749Z" fill="black"/>
</svg>
