<svg width="300" height="50" viewBox="0 0 300 50" fill="none" xmlns="http://www.w3.org/2000/svg">
<rect width="300" height="50" fill="white"/>
<path d="M1.23295 14V3.81818H2.46591V12.9062H7.19886V14H1.23295ZM7.70795 14V3.81818H13.8528V4.91193H8.94091V8.35227H13.5347V9.44602H8.94091V12.9062H13.9324V14H7.70795ZM14.1183 4.91193V3.81818H21.7547V4.91193H18.553V14H17.32V4.91193H14.1183ZM21.7007 4.91193V3.81818H29.3371V4.91193H26.1354V14H24.9024V4.91193H21.7007ZM29.84 14V3.81818H35.9849V4.91193H31.0729V8.35227H35.6667V9.44602H31.0729V12.9062H36.0644V14H29.84ZM36.8072 14V3.81818H40.2475C41.043 3.81818 41.6959 3.95407 42.2063 4.22585C42.7167 4.49432 43.0946 4.86387 43.3398 5.33452C43.5851 5.80516 43.7077 6.34044 43.7077 6.94034C43.7077 7.54025 43.5851 8.07221 43.3398 8.53622C43.0946 9.00024 42.7184 9.36482 42.2113 9.62997C41.7042 9.89181 41.0562 10.0227 40.2674 10.0227H37.4833V8.90909H40.2276C40.7712 8.90909 41.2087 8.82955 41.5401 8.67045C41.8749 8.51136 42.1168 8.28598 42.266 7.99432C42.4184 7.69934 42.4947 7.34801 42.4947 6.94034C42.4947 6.53267 42.4184 6.17637 42.266 5.87145C42.1135 5.56652 41.8699 5.3312 41.5352 5.16548C41.2004 4.99645 40.7579 4.91193 40.2077 4.91193H38.0401V14H36.8072ZM41.5998 9.42614L44.1055 14H42.6737L40.2077 9.42614H41.5998ZM52.4679 6.36364C52.4083 5.85985 52.1663 5.46875 51.7421 5.19034C51.3178 4.91193 50.7975 4.77273 50.181 4.77273C49.7302 4.77273 49.3358 4.84564 48.9978 4.99148C48.663 5.13731 48.4012 5.33783 48.2123 5.59304C48.0266 5.84825 47.9338 6.13826 47.9338 6.46307C47.9338 6.73485 47.9985 6.96851 48.1277 7.16406C48.2603 7.3563 48.4293 7.51705 48.6348 7.64631C48.8403 7.77225 49.0558 7.87666 49.2811 7.95952C49.5065 8.03906 49.7137 8.10369 49.9026 8.15341L50.9367 8.43182C51.2018 8.50142 51.4968 8.59754 51.8216 8.72017C52.1498 8.8428 52.463 9.01018 52.7613 9.2223C53.0629 9.43111 53.3114 9.69957 53.507 10.0277C53.7025 10.3558 53.8003 10.7585 53.8003 11.2358C53.8003 11.786 53.6561 12.2831 53.3678 12.7273C53.0828 13.1714 52.6651 13.5244 52.115 13.7862C51.5681 14.0481 50.9035 14.179 50.1213 14.179C49.3922 14.179 48.7608 14.0613 48.2272 13.826C47.6969 13.5907 47.2793 13.2625 46.9743 12.8416C46.6727 12.4207 46.502 11.9318 46.4623 11.375H47.735C47.7681 11.7595 47.8974 12.0777 48.1228 12.3295C48.3515 12.5781 48.6398 12.7637 48.9878 12.8864C49.3391 13.0057 49.717 13.0653 50.1213 13.0653C50.592 13.0653 51.0146 12.9891 51.3891 12.8366C51.7636 12.6809 52.0603 12.4654 52.279 12.1903C52.4978 11.9119 52.6071 11.5871 52.6071 11.2159C52.6071 10.8778 52.5127 10.6027 52.3238 10.3906C52.1348 10.1785 51.8863 10.0062 51.578 9.87358C51.2698 9.741 50.9367 9.625 50.5787 9.52557L49.3259 9.16761C48.5304 8.93892 47.9007 8.61245 47.4367 8.18821C46.9727 7.76397 46.7407 7.20881 46.7407 6.52273C46.7407 5.95265 46.8948 5.45549 47.203 5.03125C47.5146 4.60369 47.9322 4.27225 48.4559 4.03693C48.9828 3.7983 49.5712 3.67898 50.2208 3.67898C50.877 3.67898 51.4604 3.79664 51.9708 4.03196C52.4812 4.26397 52.8855 4.58215 53.1838 4.98651C53.4855 5.39086 53.6445 5.8499 53.6611 6.36364H52.4679ZM54.4275 14V3.81818H57.8678C58.6666 3.81818 59.3195 3.96236 59.8266 4.25071C60.337 4.53575 60.7149 4.92188 60.9602 5.40909C61.2054 5.89631 61.3281 6.43987 61.3281 7.03977C61.3281 7.63968 61.2054 8.1849 60.9602 8.67543C60.7182 9.16596 60.3437 9.55705 59.8366 9.84872C59.3295 10.1371 58.6799 10.2812 57.8877 10.2812H55.4218V9.1875H57.8479C58.3948 9.1875 58.834 9.09304 59.1654 8.90412C59.4969 8.7152 59.7371 8.45999 59.8863 8.13849C60.0388 7.81368 60.115 7.44744 60.115 7.03977C60.115 6.6321 60.0388 6.26752 59.8863 5.94602C59.7371 5.62453 59.4952 5.37263 59.1604 5.19034C58.8257 5.00473 58.3816 4.91193 57.8281 4.91193H55.6604V14H54.4275ZM61.2928 14H60.0001L63.7388 3.81818H65.0115L68.7501 14H67.4575L64.4149 5.42898H64.3354L61.2928 14ZM61.77 10.0227H66.9803V11.1165H61.77V10.0227ZM76.6507 7H75.4178C75.3449 6.64536 75.2173 6.33381 75.035 6.06534C74.856 5.79688 74.6373 5.5715 74.3787 5.3892C74.1235 5.2036 73.8401 5.06439 73.5286 4.97159C73.217 4.87879 72.8922 4.83239 72.5542 4.83239C71.9377 4.83239 71.3792 4.98816 70.8787 5.29972C70.3816 5.61127 69.9855 6.07031 69.6905 6.67685C69.3989 7.28338 69.253 8.02746 69.253 8.90909C69.253 9.79072 69.3989 10.5348 69.6905 11.1413C69.9855 11.7479 70.3816 12.2069 70.8787 12.5185C71.3792 12.83 71.9377 12.9858 72.5542 12.9858C72.8922 12.9858 73.217 12.9394 73.5286 12.8466C73.8401 12.7538 74.1235 12.6162 74.3787 12.4339C74.6373 12.2483 74.856 12.0213 75.035 11.7528C75.2173 11.4811 75.3449 11.1695 75.4178 10.8182H76.6507C76.5579 11.3385 76.3889 11.8042 76.1436 12.2152C75.8984 12.6262 75.5935 12.9759 75.2289 13.2642C74.8643 13.5492 74.455 13.7663 74.0009 13.9155C73.5501 14.0646 73.0679 14.1392 72.5542 14.1392C71.6858 14.1392 70.9135 13.9271 70.2374 13.5028C69.5613 13.0786 69.0293 12.4754 68.6415 11.6932C68.2537 10.911 68.0598 9.98295 68.0598 8.90909C68.0598 7.83523 68.2537 6.9072 68.6415 6.125C69.0293 5.3428 69.5613 4.73958 70.2374 4.31534C70.9135 3.8911 71.6858 3.67898 72.5542 3.67898C73.0679 3.67898 73.5501 3.75355 74.0009 3.9027C74.455 4.05185 74.8643 4.2706 75.2289 4.55895C75.5935 4.84399 75.8984 5.192 76.1436 5.60298C76.3889 6.01065 76.5579 6.47633 76.6507 7ZM78.4761 3.81818V14H77.2431V3.81818H78.4761ZM87.622 3.81818V14H86.4289L80.8806 6.00568H80.7811V14H79.5482V3.81818H80.7414L86.3095 11.8324H86.409V3.81818H87.622ZM95.6494 7C95.5401 6.66525 95.3959 6.36529 95.2169 6.10014C95.0412 5.83168 94.8308 5.60298 94.5855 5.41406C94.3436 5.22514 94.0685 5.08097 93.7602 4.98153C93.452 4.8821 93.1139 4.83239 92.746 4.83239C92.1428 4.83239 91.5943 4.98816 91.1004 5.29972C90.6066 5.61127 90.2138 6.07031 89.9222 6.67685C89.6305 7.28338 89.4847 8.02746 89.4847 8.90909C89.4847 9.79072 89.6322 10.5348 89.9271 11.1413C90.2221 11.7479 90.6215 12.2069 91.1253 12.5185C91.6291 12.83 92.1958 12.9858 92.8256 12.9858C93.4089 12.9858 93.9226 12.8615 94.3668 12.6129C94.8142 12.361 95.1622 12.0064 95.4108 11.549C95.6627 11.0883 95.7886 10.5464 95.7886 9.9233L96.1665 10.0028H93.104V8.90909H96.9818V10.0028C96.9818 10.8414 96.8028 11.5705 96.4449 12.1903C96.0902 12.8101 95.5997 13.2907 94.9733 13.6321C94.3502 13.9702 93.6343 14.1392 92.8256 14.1392C91.9241 14.1392 91.1319 13.9271 90.4492 13.5028C89.7697 13.0786 89.2394 12.4754 88.8582 11.6932C88.4804 10.911 88.2915 9.98295 88.2915 8.90909C88.2915 8.10369 88.3992 7.3795 88.6146 6.73651C88.8334 6.0902 89.1416 5.54001 89.5393 5.08594C89.9371 4.63187 90.4077 4.28385 90.9513 4.0419C91.4948 3.79995 92.0931 3.67898 92.746 3.67898C93.283 3.67898 93.7834 3.76018 94.2474 3.92258C94.7148 4.08168 95.1307 4.30871 95.4953 4.60369C95.8632 4.89536 96.1698 5.24503 96.4151 5.6527C96.6603 6.05705 96.8294 6.50616 96.9222 7H95.6494Z" fill="black"/>
</svg>
