<svg width="180" height="120" viewBox="0 0 180 120" fill="none" xmlns="http://www.w3.org/2000/svg">
<g clip-path="url(#clip0_0_1167)">
<rect width="180" height="120" fill="white"/>
<path d="M1.23295 14V3.81818H7.37784V4.91193H2.46591V8.35227H7.05966V9.44602H2.46591V12.9062H7.45739V14H1.23295ZM10.3161 6.36364L12.1456 9.4858L13.9751 6.36364H15.3274L12.8615 10.1818L15.3274 14H13.9751L12.1456 11.0369L10.3161 14H8.96378L11.3899 10.1818L8.96378 6.36364H10.3161ZM17.0016 16.8636V6.36364H18.1351V7.5767H18.2743C18.3605 7.44413 18.4798 7.27509 18.6323 7.0696C18.7881 6.8608 19.0101 6.67519 19.2985 6.51278C19.5901 6.34706 19.9846 6.2642 20.4817 6.2642C21.1247 6.2642 21.6915 6.42495 22.182 6.74645C22.6725 7.06794 23.0553 7.52367 23.3304 8.11364C23.6055 8.7036 23.7431 9.39962 23.7431 10.2017C23.7431 11.0104 23.6055 11.7114 23.3304 12.3047C23.0553 12.8946 22.6742 13.352 22.187 13.6768C21.6998 13.9983 21.138 14.1591 20.5016 14.1591C20.0111 14.1591 19.6183 14.0779 19.3233 13.9155C19.0283 13.7498 18.8013 13.5625 18.6422 13.3537C18.4831 13.1416 18.3605 12.9659 18.2743 12.8267H18.1749V16.8636H17.0016ZM18.155 10.1818C18.155 10.7585 18.2395 11.2673 18.4086 11.7081C18.5776 12.1456 18.8245 12.4886 19.1493 12.7372C19.4741 12.9825 19.8719 13.1051 20.3425 13.1051C20.833 13.1051 21.2424 12.9759 21.5705 12.7173C21.9019 12.4555 22.1505 12.1042 22.3162 11.6634C22.4853 11.2192 22.5698 10.7254 22.5698 10.1818C22.5698 9.64489 22.4869 9.16098 22.3212 8.73011C22.1588 8.29593 21.9119 7.95289 21.5804 7.70099C21.2523 7.44579 20.8397 7.31818 20.3425 7.31818C19.8652 7.31818 19.4642 7.43916 19.1394 7.68111C18.8146 7.91974 18.5693 8.2545 18.4036 8.68537C18.2379 9.11293 18.155 9.61174 18.155 10.1818ZM26.7061 3.81818V14H25.5328V3.81818H26.7061ZM28.8551 14V6.36364H30.0284V14H28.8551ZM29.4517 5.09091C29.223 5.09091 29.0258 5.01302 28.8601 4.85724C28.6977 4.70147 28.6165 4.5142 28.6165 4.29545C28.6165 4.0767 28.6977 3.88944 28.8601 3.73366C29.0258 3.57789 29.223 3.5 29.4517 3.5C29.6804 3.5 29.8759 3.57789 30.0384 3.73366C30.2041 3.88944 30.2869 4.0767 30.2869 4.29545C30.2869 4.5142 30.2041 4.70147 30.0384 4.85724C29.8759 5.01302 29.6804 5.09091 29.4517 5.09091ZM35.2797 14.1591C34.5637 14.1591 33.9473 13.9901 33.4302 13.652C32.9132 13.3139 32.5154 12.8482 32.237 12.255C31.9586 11.6617 31.8194 10.9839 31.8194 10.2216C31.8194 9.44602 31.9619 8.7616 32.247 8.16832C32.5353 7.57173 32.9364 7.10606 33.4501 6.77131C33.9672 6.43324 34.5704 6.2642 35.2598 6.2642C35.7967 6.2642 36.2806 6.36364 36.7115 6.5625C37.1423 6.76136 37.4953 7.03977 37.7704 7.39773C38.0455 7.75568 38.2162 8.1733 38.2825 8.65057H37.1092C37.0197 8.30256 36.8208 7.99432 36.5126 7.72585C36.2077 7.45407 35.7967 7.31818 35.2797 7.31818C34.8223 7.31818 34.4212 7.4375 34.0765 7.67614C33.7351 7.91146 33.4683 8.24455 33.2761 8.67543C33.0872 9.10298 32.9927 9.60511 32.9927 10.1818C32.9927 10.7718 33.0855 11.2855 33.2711 11.723C33.46 12.1605 33.7252 12.5002 34.0666 12.7422C34.4113 12.9841 34.8156 13.1051 35.2797 13.1051C35.5846 13.1051 35.8613 13.0521 36.1099 12.946C36.3585 12.84 36.569 12.6875 36.7413 12.4886C36.9136 12.2898 37.0363 12.0511 37.1092 11.7727H38.2825C38.2162 12.2235 38.0521 12.6295 37.7903 12.9908C37.5318 13.3487 37.1887 13.6338 36.7612 13.8459C36.3369 14.0547 35.8431 14.1591 35.2797 14.1591ZM39.9977 14V6.36364H41.171V14H39.9977ZM40.5943 5.09091C40.3656 5.09091 40.1684 5.01302 40.0027 4.85724C39.8403 4.70147 39.7591 4.5142 39.7591 4.29545C39.7591 4.0767 39.8403 3.88944 40.0027 3.73366C40.1684 3.57789 40.3656 3.5 40.5943 3.5C40.823 3.5 41.0185 3.57789 41.1809 3.73366C41.3467 3.88944 41.4295 4.0767 41.4295 4.29545C41.4295 4.5142 41.3467 4.70147 41.1809 4.85724C41.0185 5.01302 40.823 5.09091 40.5943 5.09091ZM46.641 6.36364V7.35795H42.6836V6.36364H46.641ZM43.837 4.53409H45.0103V11.8125C45.0103 12.1439 45.0584 12.3925 45.1545 12.5582C45.2539 12.7206 45.3799 12.83 45.5323 12.8864C45.6881 12.9394 45.8522 12.9659 46.0245 12.9659C46.1538 12.9659 46.2598 12.9593 46.3427 12.946C46.4255 12.9295 46.4918 12.9162 46.5415 12.9062L46.7802 13.9602C46.7006 13.9901 46.5896 14.0199 46.4471 14.0497C46.3046 14.0829 46.1239 14.0994 45.9052 14.0994C45.5737 14.0994 45.2489 14.0282 44.9308 13.8857C44.6159 13.7431 44.354 13.526 44.1452 13.2344C43.9397 12.9427 43.837 12.5748 43.837 12.1307V4.53409ZM1.23295 31V20.8182H2.40625V24.5767H2.50568C2.59186 24.4441 2.71117 24.2751 2.86364 24.0696C3.01941 23.8608 3.24148 23.6752 3.52983 23.5128C3.8215 23.3471 4.21591 23.2642 4.71307 23.2642C5.35606 23.2642 5.92282 23.425 6.41335 23.7464C6.90388 24.0679 7.2867 24.5237 7.56179 25.1136C7.83688 25.7036 7.97443 26.3996 7.97443 27.2017C7.97443 28.0104 7.83688 28.7114 7.56179 29.3047C7.2867 29.8946 6.90554 30.352 6.41832 30.6768C5.93111 30.9983 5.36932 31.1591 4.73295 31.1591C4.24242 31.1591 3.84967 31.0779 3.55469 30.9155C3.25971 30.7498 3.03267 30.5625 2.87358 30.3537C2.71449 30.1416 2.59186 29.9659 2.50568 29.8267H2.36648V31H1.23295ZM2.38636 27.1818C2.38636 27.7585 2.47088 28.2673 2.63991 28.7081C2.80895 29.1456 3.05587 29.4886 3.38068 29.7372C3.70549 29.9825 4.10322 30.1051 4.57386 30.1051C5.06439 30.1051 5.47372 29.9759 5.80185 29.7173C6.13329 29.4555 6.38187 29.1042 6.54759 28.6634C6.71662 28.2192 6.80114 27.7254 6.80114 27.1818C6.80114 26.6449 6.71828 26.161 6.55256 25.7301C6.39015 25.2959 6.14323 24.9529 5.81179 24.701C5.48366 24.4458 5.07102 24.3182 4.57386 24.3182C4.09659 24.3182 3.69555 24.4392 3.37074 24.6811C3.04593 24.9197 2.80066 25.2545 2.63494 25.6854C2.46922 26.1129 2.38636 26.6117 2.38636 27.1818ZM9.76918 31V23.3636H10.9027V24.517H10.9822C11.1214 24.1392 11.3733 23.8326 11.7379 23.5973C12.1025 23.362 12.5135 23.2443 12.9709 23.2443C13.0571 23.2443 13.1648 23.246 13.294 23.2493C13.4233 23.2526 13.5211 23.2576 13.5874 23.2642V24.4574C13.5476 24.4474 13.4564 24.4325 13.3139 24.4126C13.1747 24.3894 13.0272 24.3778 12.8714 24.3778C12.5002 24.3778 12.1688 24.4557 11.8771 24.6115C11.5888 24.764 11.3601 24.9761 11.1911 25.2479C11.0253 25.5163 10.9425 25.8229 10.9425 26.1676V31H9.76918ZM17.9474 31.1591C17.2116 31.1591 16.5769 30.9967 16.0433 30.6719C15.513 30.3438 15.1037 29.8864 14.8153 29.2997C14.5303 28.7098 14.3878 28.0237 14.3878 27.2415C14.3878 26.4593 14.5303 25.7699 14.8153 25.1733C15.1037 24.5734 15.5047 24.1061 16.0185 23.7713C16.5355 23.4332 17.1387 23.2642 17.8281 23.2642C18.2259 23.2642 18.6186 23.3305 19.0064 23.4631C19.3942 23.5956 19.7472 23.8111 20.0653 24.1094C20.3835 24.4044 20.6371 24.7955 20.826 25.2827C21.0149 25.7699 21.1094 26.3698 21.1094 27.0824V27.5795H15.223V26.5653H19.9162C19.9162 26.1345 19.83 25.75 19.6577 25.4119C19.4886 25.0739 19.2467 24.8071 18.9318 24.6115C18.6203 24.416 18.2524 24.3182 17.8281 24.3182C17.3608 24.3182 16.9564 24.4342 16.6151 24.6662C16.277 24.8949 16.0168 25.1932 15.8345 25.5611C15.6522 25.929 15.5611 26.3234 15.5611 26.7443V27.4205C15.5611 27.9972 15.6605 28.486 15.8594 28.8871C16.0616 29.2848 16.3416 29.5881 16.6996 29.7969C17.0575 30.0024 17.4735 30.1051 17.9474 30.1051C18.2557 30.1051 18.5341 30.062 18.7827 29.9759C19.0346 29.8864 19.2517 29.7538 19.4339 29.5781C19.6162 29.3991 19.7571 29.1771 19.8565 28.9119L20.9901 29.2301C20.8707 29.6146 20.6702 29.9527 20.3885 30.2443C20.1068 30.5327 19.7588 30.758 19.3445 30.9205C18.9302 31.0795 18.4645 31.1591 17.9474 31.1591ZM25.1413 31.179C24.6574 31.179 24.2183 31.0878 23.8239 30.9055C23.4295 30.7199 23.1162 30.4531 22.8842 30.1051C22.6522 29.7538 22.5362 29.3295 22.5362 28.8324C22.5362 28.3949 22.6224 28.0402 22.7947 27.7685C22.9671 27.4934 23.1974 27.2779 23.4858 27.1222C23.7741 26.9664 24.0923 26.8504 24.4403 26.7741C24.7917 26.6946 25.1446 26.6316 25.4993 26.5852C25.9633 26.5256 26.3395 26.4808 26.6278 26.451C26.9195 26.4179 27.1316 26.3632 27.2642 26.2869C27.4001 26.2107 27.468 26.0781 27.468 25.8892V25.8494C27.468 25.3589 27.3338 24.9777 27.0653 24.706C26.8002 24.4342 26.3975 24.2983 25.8572 24.2983C25.2971 24.2983 24.858 24.4209 24.5398 24.6662C24.2216 24.9115 23.9979 25.1733 23.8686 25.4517L22.755 25.054C22.9538 24.59 23.219 24.2287 23.5504 23.9702C23.8852 23.7083 24.2498 23.526 24.6442 23.4233C25.0419 23.3172 25.433 23.2642 25.8175 23.2642C26.0627 23.2642 26.3445 23.294 26.6626 23.3537C26.9841 23.41 27.294 23.5277 27.5923 23.7067C27.8939 23.8857 28.1442 24.1558 28.343 24.517C28.5419 24.8783 28.6413 25.3622 28.6413 25.9688V31H27.468V29.9659H27.4084C27.3288 30.1316 27.1963 30.3089 27.0107 30.4979C26.825 30.6868 26.5781 30.8475 26.2699 30.9801C25.9616 31.1127 25.5855 31.179 25.1413 31.179ZM25.3203 30.125C25.7843 30.125 26.1754 30.0339 26.4936 29.8516C26.8151 29.6693 27.0571 29.4339 27.2195 29.1456C27.3852 28.8572 27.468 28.554 27.468 28.2358V27.1619C27.4183 27.2216 27.3089 27.2763 27.1399 27.326C26.9742 27.3724 26.782 27.4138 26.5632 27.4503C26.3478 27.4834 26.1373 27.5133 25.9318 27.5398C25.7296 27.563 25.5656 27.5829 25.4396 27.5994C25.1347 27.6392 24.8497 27.7038 24.5845 27.7933C24.3227 27.8795 24.1106 28.0104 23.9482 28.1861C23.7891 28.3584 23.7095 28.5937 23.7095 28.892C23.7095 29.2997 23.8603 29.608 24.1619 29.8168C24.4669 30.0223 24.853 30.125 25.3203 30.125ZM31.8766 28.2159L31.8567 26.7642H32.0953L35.4363 23.3636H36.888L33.3283 26.9631H33.2289L31.8766 28.2159ZM30.7828 31V20.8182H31.9561V31H30.7828ZM35.6351 31L32.6522 27.2216L33.4874 26.4062L37.1266 31H35.6351ZM44.5827 31.179C44.0988 31.179 43.6597 31.0878 43.2653 30.9055C42.8709 30.7199 42.5576 30.4531 42.3256 30.1051C42.0936 29.7538 41.9776 29.3295 41.9776 28.8324C41.9776 28.3949 42.0638 28.0402 42.2362 27.7685C42.4085 27.4934 42.6388 27.2779 42.9272 27.1222C43.2156 26.9664 43.5337 26.8504 43.8817 26.7741C44.2331 26.6946 44.5861 26.6316 44.9407 26.5852C45.4047 26.5256 45.7809 26.4808 46.0692 26.451C46.3609 26.4179 46.573 26.3632 46.7056 26.2869C46.8415 26.2107 46.9094 26.0781 46.9094 25.8892V25.8494C46.9094 25.3589 46.7752 24.9777 46.5067 24.706C46.2416 24.4342 45.8389 24.2983 45.2987 24.2983C44.7385 24.2983 44.2994 24.4209 43.9812 24.6662C43.663 24.9115 43.4393 25.1733 43.31 25.4517L42.1964 25.054C42.3952 24.59 42.6604 24.2287 42.9918 23.9702C43.3266 23.7083 43.6912 23.526 44.0856 23.4233C44.4833 23.3172 44.8744 23.2642 45.2589 23.2642C45.5041 23.2642 45.7859 23.294 46.104 23.3537C46.4255 23.41 46.7354 23.5277 47.0337 23.7067C47.3353 23.8857 47.5856 24.1558 47.7844 24.517C47.9833 24.8783 48.0827 25.3622 48.0827 25.9688V31H46.9094V29.9659H46.8498C46.7702 30.1316 46.6377 30.3089 46.4521 30.4979C46.2665 30.6868 46.0195 30.8475 45.7113 30.9801C45.4031 31.1127 45.0269 31.179 44.5827 31.179ZM44.7617 30.125C45.2257 30.125 45.6168 30.0339 45.935 29.8516C46.2565 29.6693 46.4985 29.4339 46.6609 29.1456C46.8266 28.8572 46.9094 28.554 46.9094 28.2358V27.1619C46.8597 27.2216 46.7504 27.2763 46.5813 27.326C46.4156 27.3724 46.2234 27.4138 46.0046 27.4503C45.7892 27.4834 45.5787 27.5133 45.3732 27.5398C45.171 27.563 45.007 27.5829 44.881 27.5994C44.5761 27.6392 44.2911 27.7038 44.0259 27.7933C43.7641 27.8795 43.552 28.0104 43.3896 28.1861C43.2305 28.3584 43.1509 28.5937 43.1509 28.892C43.1509 29.2997 43.3017 29.608 43.6033 29.8168C43.9083 30.0223 44.2944 30.125 44.7617 30.125ZM51.3975 26.4062V31H50.2243V23.3636H51.3578V24.5568H51.4572C51.6362 24.169 51.908 23.8575 52.2725 23.6222C52.6371 23.3835 53.1078 23.2642 53.6845 23.2642C54.2015 23.2642 54.6539 23.3703 55.0417 23.5824C55.4295 23.7912 55.7311 24.1094 55.9466 24.5369C56.162 24.9612 56.2697 25.4981 56.2697 26.1477V31H55.0964V26.2273C55.0964 25.6274 54.9406 25.16 54.6291 24.8253C54.3175 24.4872 53.89 24.3182 53.3464 24.3182C52.9719 24.3182 52.6371 24.3994 52.3422 24.5618C52.0505 24.7242 51.8201 24.9612 51.6511 25.2727C51.4821 25.5843 51.3975 25.9621 51.3975 26.4062ZM61.2972 31.1591C60.6609 31.1591 60.0991 30.9983 59.6119 30.6768C59.1246 30.352 58.7435 29.8946 58.4684 29.3047C58.1933 28.7114 58.0558 28.0104 58.0558 27.2017C58.0558 26.3996 58.1933 25.7036 58.4684 25.1136C58.7435 24.5237 59.1263 24.0679 59.6168 23.7464C60.1074 23.425 60.6741 23.2642 61.3171 23.2642C61.8143 23.2642 62.207 23.3471 62.4954 23.5128C62.7871 23.6752 63.0091 23.8608 63.1616 24.0696C63.3174 24.2751 63.4383 24.4441 63.5245 24.5767H63.6239V20.8182H64.7972V31H63.6637V29.8267H63.5245C63.4383 29.9659 63.3157 30.1416 63.1566 30.3537C62.9975 30.5625 62.7705 30.7498 62.4755 30.9155C62.1805 31.0779 61.7878 31.1591 61.2972 31.1591ZM61.4563 30.1051C61.927 30.1051 62.3247 29.9825 62.6495 29.7372C62.9743 29.4886 63.2212 29.1456 63.3903 28.7081C63.5593 28.2673 63.6438 27.7585 63.6438 27.1818C63.6438 26.6117 63.561 26.1129 63.3952 25.6854C63.2295 25.2545 62.9843 24.9197 62.6594 24.6811C62.3346 24.4392 61.9336 24.3182 61.4563 24.3182C60.9592 24.3182 60.5449 24.4458 60.2134 24.701C59.8853 24.9529 59.6384 25.2959 59.4727 25.7301C59.3103 26.161 59.229 26.6449 59.229 27.1818C59.229 27.7254 59.3119 28.2192 59.4776 28.6634C59.6467 29.1042 59.8952 29.4555 60.2234 29.7173C60.5548 29.9759 60.9658 30.1051 61.4563 30.1051ZM72.7766 31L70.4499 23.3636H71.6829L73.3335 29.2102H73.413L75.0437 23.3636H76.2965L77.9073 29.1903H77.9869L79.6374 23.3636H80.8704L78.5437 31H77.3903L75.7198 25.1335H75.6005L73.93 31H72.7766ZM82.4215 31V23.3636H83.555V24.517H83.6346C83.7738 24.1392 84.0257 23.8326 84.3903 23.5973C84.7549 23.362 85.1658 23.2443 85.6232 23.2443C85.7094 23.2443 85.8171 23.246 85.9464 23.2493C86.0756 23.2526 86.1734 23.2576 86.2397 23.2642V24.4574C86.1999 24.4474 86.1088 24.4325 85.9663 24.4126C85.8271 24.3894 85.6796 24.3778 85.5238 24.3778C85.1526 24.3778 84.8211 24.4557 84.5295 24.6115C84.2411 24.764 84.0124 24.9761 83.8434 25.2479C83.6777 25.5163 83.5948 25.8229 83.5948 26.1676V31H82.4215ZM89.8777 31.179C89.3938 31.179 88.9546 31.0878 88.5602 30.9055C88.1658 30.7199 87.8526 30.4531 87.6206 30.1051C87.3886 29.7538 87.2725 29.3295 87.2725 28.8324C87.2725 28.3949 87.3587 28.0402 87.5311 27.7685C87.7034 27.4934 87.9338 27.2779 88.2221 27.1222C88.5105 26.9664 88.8287 26.8504 89.1767 26.7741C89.528 26.6946 89.881 26.6316 90.2356 26.5852C90.6996 26.5256 91.0758 26.4808 91.3642 26.451C91.6558 26.4179 91.868 26.3632 92.0005 26.2869C92.1364 26.2107 92.2044 26.0781 92.2044 25.8892V25.8494C92.2044 25.3589 92.0701 24.9777 91.8017 24.706C91.5365 24.4342 91.1338 24.2983 90.5936 24.2983C90.0334 24.2983 89.5943 24.4209 89.2761 24.6662C88.9579 24.9115 88.7342 25.1733 88.6049 25.4517L87.4913 25.054C87.6902 24.59 87.9553 24.2287 88.2868 23.9702C88.6215 23.7083 88.9861 23.526 89.3805 23.4233C89.7782 23.3172 90.1693 23.2642 90.5538 23.2642C90.7991 23.2642 91.0808 23.294 91.399 23.3537C91.7205 23.41 92.0304 23.5277 92.3287 23.7067C92.6303 23.8857 92.8805 24.1558 93.0794 24.517C93.2782 24.8783 93.3777 25.3622 93.3777 25.9688V31H92.2044V29.9659H92.1447C92.0652 30.1316 91.9326 30.3089 91.747 30.4979C91.5614 30.6868 91.3145 30.8475 91.0062 30.9801C90.698 31.1127 90.3218 31.179 89.8777 31.179ZM90.0566 30.125C90.5207 30.125 90.9118 30.0339 91.2299 29.8516C91.5514 29.6693 91.7934 29.4339 91.9558 29.1456C92.1215 28.8572 92.2044 28.554 92.2044 28.2358V27.1619C92.1547 27.2216 92.0453 27.2763 91.8762 27.326C91.7105 27.3724 91.5183 27.4138 91.2995 27.4503C91.0841 27.4834 90.8736 27.5133 90.6681 27.5398C90.466 27.563 90.3019 27.5829 90.176 27.5994C89.871 27.6392 89.586 27.7038 89.3208 27.7933C89.059 27.8795 88.8469 28.0104 88.6845 28.1861C88.5254 28.3584 88.4458 28.5937 88.4458 28.892C88.4458 29.2997 88.5967 29.608 88.8983 29.8168C89.2032 30.0223 89.5893 30.125 90.0566 30.125ZM95.5192 33.8636V23.3636H96.6527V24.5767H96.7919C96.8781 24.4441 96.9974 24.2751 97.1499 24.0696C97.3056 23.8608 97.5277 23.6752 97.8161 23.5128C98.1077 23.3471 98.5021 23.2642 98.9993 23.2642C99.6423 23.2642 100.209 23.425 100.7 23.7464C101.19 24.0679 101.573 24.5237 101.848 25.1136C102.123 25.7036 102.261 26.3996 102.261 27.2017C102.261 28.0104 102.123 28.7114 101.848 29.3047C101.573 29.8946 101.192 30.352 100.705 30.6768C100.217 30.9983 99.6555 31.1591 99.0192 31.1591C98.5286 31.1591 98.1359 31.0779 97.8409 30.9155C97.5459 30.7498 97.3189 30.5625 97.1598 30.3537C97.0007 30.1416 96.8781 29.9659 96.7919 29.8267H96.6925V33.8636H95.5192ZM96.6726 27.1818C96.6726 27.7585 96.7571 28.2673 96.9261 28.7081C97.0952 29.1456 97.3421 29.4886 97.6669 29.7372C97.9917 29.9825 98.3894 30.1051 98.8601 30.1051C99.3506 30.1051 99.7599 29.9759 100.088 29.7173C100.42 29.4555 100.668 29.1042 100.834 28.6634C101.003 28.2192 101.087 27.7254 101.087 27.1818C101.087 26.6449 101.004 26.161 100.839 25.7301C100.676 25.2959 100.429 24.9529 100.098 24.701C99.7699 24.4458 99.3572 24.3182 98.8601 24.3182C98.3828 24.3182 97.9818 24.4392 97.657 24.6811C97.3321 24.9197 97.0869 25.2545 96.9212 25.6854C96.7554 26.1129 96.6726 26.6117 96.6726 27.1818ZM104.05 33.8636V23.3636H105.184V24.5767H105.323C105.409 24.4441 105.529 24.2751 105.681 24.0696C105.837 23.8608 106.059 23.6752 106.347 23.5128C106.639 23.3471 107.033 23.2642 107.531 23.2642C108.174 23.2642 108.74 23.425 109.231 23.7464C109.721 24.0679 110.104 24.5237 110.379 25.1136C110.654 25.7036 110.792 26.3996 110.792 27.2017C110.792 28.0104 110.654 28.7114 110.379 29.3047C110.104 29.8946 109.723 30.352 109.236 30.6768C108.749 30.9983 108.187 31.1591 107.55 31.1591C107.06 31.1591 106.667 31.0779 106.372 30.9155C106.077 30.7498 105.85 30.5625 105.691 30.3537C105.532 30.1416 105.409 29.9659 105.323 29.8267H105.224V33.8636H104.05ZM105.204 27.1818C105.204 27.7585 105.288 28.2673 105.457 28.7081C105.626 29.1456 105.873 29.4886 106.198 29.7372C106.523 29.9825 106.921 30.1051 107.391 30.1051C107.882 30.1051 108.291 29.9759 108.619 29.7173C108.951 29.4555 109.199 29.1042 109.365 28.6634C109.534 28.2192 109.619 27.7254 109.619 27.1818C109.619 26.6449 109.536 26.161 109.37 25.7301C109.208 25.2959 108.961 24.9529 108.629 24.701C108.301 24.4458 107.888 24.3182 107.391 24.3182C106.914 24.3182 106.513 24.4392 106.188 24.6811C105.863 24.9197 105.618 25.2545 105.452 25.6854C105.287 26.1129 105.204 26.6117 105.204 27.1818ZM112.582 31V23.3636H113.755V31H112.582ZM113.178 22.0909C112.95 22.0909 112.752 22.013 112.587 21.8572C112.424 21.7015 112.343 21.5142 112.343 21.2955C112.343 21.0767 112.424 20.8894 112.587 20.7337C112.752 20.5779 112.95 20.5 113.178 20.5C113.407 20.5 113.603 20.5779 113.765 20.7337C113.931 20.8894 114.013 21.0767 114.013 21.2955C114.013 21.5142 113.931 21.7015 113.765 21.8572C113.603 22.013 113.407 22.0909 113.178 22.0909ZM117.077 26.4062V31H115.904V23.3636H117.037V24.5568H117.137C117.316 24.169 117.588 23.8575 117.952 23.6222C118.317 23.3835 118.787 23.2642 119.364 23.2642C119.881 23.2642 120.334 23.3703 120.721 23.5824C121.109 23.7912 121.411 24.1094 121.626 24.5369C121.842 24.9612 121.949 25.4981 121.949 26.1477V31H120.776V26.2273C120.776 25.6274 120.62 25.16 120.309 24.8253C119.997 24.4872 119.57 24.3182 119.026 24.3182C118.652 24.3182 118.317 24.3994 118.022 24.5618C117.73 24.7242 117.5 24.9612 117.331 25.2727C117.162 25.5843 117.077 25.9621 117.077 26.4062ZM127.176 34.0227C126.609 34.0227 126.122 33.9498 125.714 33.804C125.306 33.6615 124.967 33.4725 124.695 33.2372C124.426 33.0052 124.213 32.7566 124.054 32.4915L124.988 31.8352C125.094 31.9744 125.229 32.1335 125.391 32.3125C125.553 32.4948 125.775 32.6522 126.057 32.7848C126.342 32.9207 126.715 32.9886 127.176 32.9886C127.792 32.9886 128.301 32.8395 128.702 32.5412C129.103 32.2429 129.304 31.7756 129.304 31.1392V29.5881H129.204C129.118 29.7273 128.995 29.8996 128.836 30.1051C128.681 30.3073 128.455 30.4879 128.16 30.647C127.868 30.8028 127.474 30.8807 126.977 30.8807C126.36 30.8807 125.807 30.7348 125.316 30.4432C124.829 30.1515 124.443 29.7273 124.158 29.1705C123.876 28.6136 123.735 27.9375 123.735 27.142C123.735 26.3598 123.873 25.6787 124.148 25.0987C124.423 24.5154 124.806 24.0646 125.297 23.7464C125.787 23.425 126.354 23.2642 126.997 23.2642C127.494 23.2642 127.888 23.3471 128.18 23.5128C128.475 23.6752 128.7 23.8608 128.856 24.0696C129.015 24.2751 129.138 24.4441 129.224 24.5767H129.343V23.3636H130.477V31.2188C130.477 31.875 130.328 32.4086 130.029 32.8196C129.734 33.2339 129.337 33.5372 128.836 33.7294C128.339 33.925 127.786 34.0227 127.176 34.0227ZM127.136 29.8267C127.607 29.8267 128.004 29.719 128.329 29.5036C128.654 29.2881 128.901 28.9782 129.07 28.5739C129.239 28.1695 129.324 27.6856 129.324 27.1222C129.324 26.572 129.241 26.0864 129.075 25.6655C128.909 25.2446 128.664 24.9148 128.339 24.6761C128.014 24.4375 127.613 24.3182 127.136 24.3182C126.639 24.3182 126.225 24.4441 125.893 24.696C125.565 24.9479 125.318 25.286 125.152 25.7102C124.99 26.1345 124.909 26.6051 124.909 27.1222C124.909 27.6525 124.992 28.1214 125.157 28.5291C125.326 28.9335 125.575 29.2517 125.903 29.4837C126.234 29.7124 126.645 29.8267 127.136 29.8267ZM139.883 23.3636V24.358H135.926V23.3636H139.883ZM137.079 21.5341H138.252V28.8125C138.252 29.1439 138.301 29.3925 138.397 29.5582C138.496 29.7206 138.622 29.83 138.775 29.8864C138.93 29.9394 139.094 29.9659 139.267 29.9659C139.396 29.9659 139.502 29.9593 139.585 29.946C139.668 29.9295 139.734 29.9162 139.784 29.9062L140.022 30.9602C139.943 30.9901 139.832 31.0199 139.689 31.0497C139.547 31.0829 139.366 31.0994 139.147 31.0994C138.816 31.0994 138.491 31.0282 138.173 30.8857C137.858 30.7431 137.596 30.526 137.387 30.2344C137.182 29.9427 137.079 29.5748 137.079 29.1307V21.5341ZM144.768 31.1591C144.032 31.1591 143.397 30.9967 142.864 30.6719C142.333 30.3438 141.924 29.8864 141.636 29.2997C141.351 28.7098 141.208 28.0237 141.208 27.2415C141.208 26.4593 141.351 25.7699 141.636 25.1733C141.924 24.5734 142.325 24.1061 142.839 23.7713C143.356 23.4332 143.959 23.2642 144.648 23.2642C145.046 23.2642 145.439 23.3305 145.827 23.4631C146.214 23.5956 146.567 23.8111 146.886 24.1094C147.204 24.4044 147.457 24.7955 147.646 25.2827C147.835 25.7699 147.93 26.3698 147.93 27.0824V27.5795H142.043V26.5653H146.737C146.737 26.1345 146.65 25.75 146.478 25.4119C146.309 25.0739 146.067 24.8071 145.752 24.6115C145.441 24.416 145.073 24.3182 144.648 24.3182C144.181 24.3182 143.777 24.4342 143.435 24.6662C143.097 24.8949 142.837 25.1932 142.655 25.5611C142.473 25.929 142.381 26.3234 142.381 26.7443V27.4205C142.381 27.9972 142.481 28.486 142.68 28.8871C142.882 29.2848 143.162 29.5881 143.52 29.7969C143.878 30.0024 144.294 30.1051 144.768 30.1051C145.076 30.1051 145.354 30.062 145.603 29.9759C145.855 29.8864 146.072 29.7538 146.254 29.5781C146.437 29.3991 146.577 29.1771 146.677 28.9119L147.81 29.2301C147.691 29.6146 147.491 29.9527 147.209 30.2443C146.927 30.5327 146.579 30.758 146.165 30.9205C145.75 31.0795 145.285 31.1591 144.768 31.1591ZM150.384 23.3636L152.214 26.4858L154.044 23.3636H155.396L152.93 27.1818L155.396 31H154.044L152.214 28.0369L150.384 31H149.032L151.458 27.1818L149.032 23.3636H150.384ZM160.391 23.3636V24.358H156.434V23.3636H160.391ZM157.587 21.5341H158.76V28.8125C158.76 29.1439 158.808 29.3925 158.904 29.5582C159.004 29.7206 159.13 29.83 159.282 29.8864C159.438 29.9394 159.602 29.9659 159.775 29.9659C159.904 29.9659 160.01 29.9593 160.093 29.946C160.176 29.9295 160.242 29.9162 160.292 29.9062L160.53 30.9602C160.451 30.9901 160.34 31.0199 160.197 31.0497C160.055 31.0829 159.874 31.0994 159.655 31.0994C159.324 31.0994 158.999 31.0282 158.681 30.8857C158.366 30.7431 158.104 30.526 157.895 30.2344C157.69 29.9427 157.587 29.5748 157.587 29.1307V21.5341Z" fill="black"/>
</g>
<defs>
<clipPath id="clip0_0_1167">
<rect width="180" height="120" fill="white"/>
</clipPath>
</defs>
</svg>
