<svg width="200" height="50" viewBox="0 0 200 50" fill="none" xmlns="http://www.w3.org/2000/svg">
<rect width="200" height="50" fill="white"/>
<path d="M7.97727 3.27273V12H6.95455L2.19886 5.14773H2.11364V12H1.05682V3.27273H2.07955L6.85227 10.142H6.9375V3.27273H7.97727ZM17.4556 7.63636C17.4556 8.55682 17.2894 9.35227 16.957 10.0227C16.6246 10.6932 16.1687 11.2102 15.5891 11.5739C15.0096 11.9375 14.3477 12.1193 13.6033 12.1193C12.859 12.1193 12.1971 11.9375 11.6175 11.5739C11.038 11.2102 10.582 10.6932 10.2496 10.0227C9.91726 9.35227 9.75107 8.55682 9.75107 7.63636C9.75107 6.71591 9.91726 5.92045 10.2496 5.25C10.582 4.57955 11.038 4.0625 11.6175 3.69886C12.1971 3.33523 12.859 3.15341 13.6033 3.15341C14.3477 3.15341 15.0096 3.33523 15.5891 3.69886C16.1687 4.0625 16.6246 4.57955 16.957 5.25C17.2894 5.92045 17.4556 6.71591 17.4556 7.63636ZM16.4329 7.63636C16.4329 6.88068 16.3065 6.2429 16.0536 5.72301C15.8036 5.20312 15.4641 4.80966 15.0352 4.54261C14.609 4.27557 14.1317 4.14205 13.6033 4.14205C13.0749 4.14205 12.5962 4.27557 12.1673 4.54261C11.7411 4.80966 11.4016 5.20312 11.1488 5.72301C10.8988 6.2429 10.7738 6.88068 10.7738 7.63636C10.7738 8.39205 10.8988 9.02983 11.1488 9.54972C11.4016 10.0696 11.7411 10.4631 12.1673 10.7301C12.5962 10.9972 13.0749 11.1307 13.6033 11.1307C14.1317 11.1307 14.609 10.9972 15.0352 10.7301C15.4641 10.4631 15.8036 10.0696 16.0536 9.54972C16.3065 9.02983 16.4329 8.39205 16.4329 7.63636ZM26.1531 3.27273V12H25.1303L20.3746 5.14773H20.2894V12H19.2326V3.27273H20.2553L25.0281 10.142H25.1133V3.27273H26.1531ZM28.2678 12V3.27273H33.5348V4.21023H29.3246V7.15909H33.2621V8.09659H29.3246V11.0625H33.603V12H28.2678ZM41.5249 5.45455V6.30682H38.1328V5.45455H41.5249ZM39.1214 3.88636H40.1271V10.125C40.1271 10.4091 40.1683 10.6222 40.2507 10.7642C40.3359 10.9034 40.4439 10.9972 40.5746 11.0455C40.7081 11.0909 40.8487 11.1136 40.9964 11.1136C41.1072 11.1136 41.1982 11.108 41.2692 11.0966C41.3402 11.0824 41.397 11.071 41.4396 11.0625L41.6442 11.9659C41.576 11.9915 41.4808 12.017 41.3587 12.0426C41.2365 12.071 41.0817 12.0852 40.8942 12.0852C40.6101 12.0852 40.3317 12.0241 40.0589 11.902C39.7891 11.7798 39.5646 11.5938 39.3857 11.3438C39.2095 11.0938 39.1214 10.7784 39.1214 10.3977V3.88636ZM45.7116 12.1364C45.081 12.1364 44.5369 11.9972 44.0795 11.7188C43.625 11.4375 43.2741 11.0455 43.027 10.5426C42.7827 10.0369 42.6605 9.44886 42.6605 8.77841C42.6605 8.10795 42.7827 7.51705 43.027 7.00568C43.2741 6.49148 43.6179 6.09091 44.0582 5.80398C44.5014 5.5142 45.0185 5.36932 45.6094 5.36932C45.9503 5.36932 46.2869 5.42614 46.6193 5.53977C46.9517 5.65341 47.2543 5.83807 47.527 6.09375C47.7997 6.34659 48.017 6.68182 48.179 7.09943C48.3409 7.51705 48.4219 8.03125 48.4219 8.64205V9.06818H43.3764V8.19886H47.3991C47.3991 7.82955 47.3253 7.5 47.1776 7.21023C47.0327 6.92045 46.8253 6.69176 46.5554 6.52415C46.2884 6.35653 45.973 6.27273 45.6094 6.27273C45.2088 6.27273 44.8622 6.37216 44.5696 6.57102C44.2798 6.76705 44.0568 7.02273 43.9006 7.33807C43.7443 7.65341 43.6662 7.99148 43.6662 8.35227V8.93182C43.6662 9.42614 43.7514 9.84517 43.9219 10.1889C44.0952 10.5298 44.3352 10.7898 44.642 10.9688C44.9489 11.1449 45.3054 11.233 45.7116 11.233C45.9759 11.233 46.2145 11.196 46.4276 11.1222C46.6435 11.0455 46.8295 10.9318 46.9858 10.7812C47.142 10.6278 47.2628 10.4375 47.348 10.2102L48.3196 10.483C48.2173 10.8125 48.0455 11.1023 47.804 11.3523C47.5625 11.5994 47.2642 11.7926 46.9091 11.9318C46.554 12.0682 46.1548 12.1364 45.7116 12.1364ZM50.5259 5.45455L52.0941 8.13068L53.6623 5.45455H54.8214L52.7077 8.72727L54.8214 12H53.6623L52.0941 9.46023L50.5259 12H49.3668L51.4464 8.72727L49.3668 5.45455H50.5259ZM59.103 5.45455V6.30682H55.7109V5.45455H59.103ZM56.6996 3.88636H57.7053V10.125C57.7053 10.4091 57.7464 10.6222 57.8288 10.7642C57.9141 10.9034 58.022 10.9972 58.1527 11.0455C58.2862 11.0909 58.4268 11.1136 58.5746 11.1136C58.6854 11.1136 58.7763 11.108 58.8473 11.0966C58.9183 11.0824 58.9751 11.071 59.0178 11.0625L59.2223 11.9659C59.1541 11.9915 59.0589 12.017 58.9368 12.0426C58.8146 12.071 58.6598 12.0852 58.4723 12.0852C58.1882 12.0852 57.9098 12.0241 57.6371 11.902C57.3672 11.7798 57.1428 11.5938 56.9638 11.3438C56.7876 11.0938 56.6996 10.7784 56.6996 10.3977V3.88636Z" fill="black"/>
</svg>
