<svg width="150" height="80" viewBox="0 0 150 80" fill="none" xmlns="http://www.w3.org/2000/svg">
<g clip-path="url(#clip0_0_1127)">
<rect width="150" height="80" fill="white"/>
<path d="M6.80114 6.36364C6.74148 5.85985 6.49953 5.46875 6.07528 5.19034C5.65104 4.91193 5.13068 4.77273 4.5142 4.77273C4.06345 4.77273 3.66903 4.84564 3.33097 4.99148C2.99621 5.13731 2.73438 5.33783 2.54545 5.59304C2.35985 5.84825 2.26705 6.13826 2.26705 6.46307C2.26705 6.73485 2.33168 6.96851 2.46094 7.16406C2.59351 7.3563 2.76255 7.51705 2.96804 7.64631C3.17353 7.77225 3.38897 7.87666 3.61435 7.95952C3.83973 8.03906 4.04688 8.10369 4.2358 8.15341L5.26989 8.43182C5.53504 8.50142 5.83002 8.59754 6.15483 8.72017C6.48295 8.8428 6.79616 9.01018 7.09446 9.2223C7.39607 9.43111 7.64465 9.69957 7.8402 10.0277C8.03575 10.3558 8.13352 10.7585 8.13352 11.2358C8.13352 11.786 7.98935 12.2831 7.70099 12.7273C7.41596 13.1714 6.99834 13.5244 6.44815 13.7862C5.90128 14.0481 5.23674 14.179 4.45455 14.179C3.72538 14.179 3.09399 14.0613 2.56037 13.826C2.03007 13.5907 1.61245 13.2625 1.30753 12.8416C1.00592 12.4207 0.835227 11.9318 0.795455 11.375H2.06818C2.10133 11.7595 2.23059 12.0777 2.45597 12.3295C2.68466 12.5781 2.97301 12.7637 3.32102 12.8864C3.67235 13.0057 4.05019 13.0653 4.45455 13.0653C4.92519 13.0653 5.34777 12.9891 5.7223 12.8366C6.09683 12.6809 6.39347 12.4654 6.61222 12.1903C6.83097 11.9119 6.94034 11.5871 6.94034 11.2159C6.94034 10.8778 6.84588 10.6027 6.65696 10.3906C6.46804 10.1785 6.21946 10.0062 5.91122 9.87358C5.60298 9.741 5.26989 9.625 4.91193 9.52557L3.65909 9.16761C2.86364 8.93892 2.2339 8.61245 1.76989 8.18821C1.30587 7.76397 1.07386 7.20881 1.07386 6.52273C1.07386 5.95265 1.22798 5.45549 1.53622 5.03125C1.84777 4.60369 2.26539 4.27225 2.78906 4.03693C3.31605 3.7983 3.90436 3.67898 4.55398 3.67898C5.21023 3.67898 5.79356 3.79664 6.30398 4.03196C6.81439 4.26397 7.21875 4.58215 7.51705 4.98651C7.81866 5.39086 7.97775 5.8499 7.99432 6.36364H6.80114ZM11.1749 9.40625V14H10.0016V3.81818H11.1749V7.55682H11.2743C11.4533 7.16241 11.7218 6.84919 12.0797 6.61719C12.441 6.38187 12.9216 6.2642 13.5215 6.2642C14.0418 6.2642 14.4976 6.36861 14.8887 6.57741C15.2798 6.78291 15.583 7.09943 15.7985 7.52699C16.0172 7.95123 16.1266 8.49148 16.1266 9.14773V14H14.9533V9.22727C14.9533 8.62074 14.7959 8.15175 14.481 7.82031C14.1694 7.48556 13.7369 7.31818 13.1834 7.31818C12.7989 7.31818 12.4542 7.39938 12.1493 7.56179C11.8477 7.72419 11.6091 7.96117 11.4334 8.27273C11.2611 8.58428 11.1749 8.96212 11.1749 9.40625ZM21.3754 14.1591C20.686 14.1591 20.0811 13.995 19.5607 13.6669C19.0437 13.3388 18.6393 12.8797 18.3477 12.2898C18.0593 11.6998 17.9151 11.0104 17.9151 10.2216C17.9151 9.42614 18.0593 8.73177 18.3477 8.13849C18.6393 7.54522 19.0437 7.08452 19.5607 6.75639C20.0811 6.42827 20.686 6.2642 21.3754 6.2642C22.0647 6.2642 22.668 6.42827 23.185 6.75639C23.7054 7.08452 24.1097 7.54522 24.3981 8.13849C24.6897 8.73177 24.8356 9.42614 24.8356 10.2216C24.8356 11.0104 24.6897 11.6998 24.3981 12.2898C24.1097 12.8797 23.7054 13.3388 23.185 13.6669C22.668 13.995 22.0647 14.1591 21.3754 14.1591ZM21.3754 13.1051C21.899 13.1051 22.3299 12.9709 22.668 12.7024C23.006 12.4339 23.2563 12.081 23.4187 11.6435C23.5811 11.206 23.6623 10.732 23.6623 10.2216C23.6623 9.71117 23.5811 9.23556 23.4187 8.79474C23.2563 8.35393 23.006 7.99763 22.668 7.72585C22.3299 7.45407 21.899 7.31818 21.3754 7.31818C20.8517 7.31818 20.4208 7.45407 20.0827 7.72585C19.7447 7.99763 19.4944 8.35393 19.332 8.79474C19.1696 9.23556 19.0884 9.71117 19.0884 10.2216C19.0884 10.732 19.1696 11.206 19.332 11.6435C19.4944 12.081 19.7447 12.4339 20.0827 12.7024C20.4208 12.9709 20.8517 13.1051 21.3754 13.1051ZM26.6266 14V6.36364H27.7601V7.51705H27.8397C27.9789 7.1392 28.2308 6.83262 28.5953 6.5973C28.9599 6.36198 29.3709 6.24432 29.8283 6.24432C29.9145 6.24432 30.0222 6.24597 30.1515 6.24929C30.2807 6.2526 30.3785 6.25758 30.4448 6.2642V7.45739C30.405 7.44744 30.3139 7.43253 30.1713 7.41264C30.0321 7.38944 29.8846 7.37784 29.7289 7.37784C29.3577 7.37784 29.0262 7.45573 28.7346 7.61151C28.4462 7.76397 28.2175 7.97609 28.0485 8.24787C27.8828 8.51634 27.7999 8.82292 27.7999 9.16761V14H26.6266ZM35.6351 6.36364V7.35795H31.6777V6.36364H35.6351ZM32.8311 4.53409H34.0044V11.8125C34.0044 12.1439 34.0525 12.3925 34.1486 12.5582C34.248 12.7206 34.374 12.83 34.5265 12.8864C34.6822 12.9394 34.8463 12.9659 35.0186 12.9659C35.1479 12.9659 35.254 12.9593 35.3368 12.946C35.4197 12.9295 35.486 12.9162 35.5357 12.9062L35.7743 13.9602C35.6948 13.9901 35.5837 14.0199 35.4412 14.0497C35.2987 14.0829 35.1181 14.0994 34.8993 14.0994C34.5679 14.0994 34.2431 14.0282 33.9249 13.8857C33.61 13.7431 33.3482 13.526 33.1394 13.2344C32.9339 12.9427 32.8311 12.5748 32.8311 12.1307V4.53409Z" fill="black"/>
</g>
<defs>
<clipPath id="clip0_0_1127">
<rect width="150" height="80" fill="white"/>
</clipPath>
</defs>
</svg>
