<svg width="200" height="50" viewBox="0 0 200 50" fill="none" xmlns="http://www.w3.org/2000/svg">
<rect width="200" height="50" fill="white"/>
<path d="M15.9545 5.54545V23H13.9091L4.39773 9.29545H4.22727V23H2.11364V5.54545H4.15909L13.7045 19.2841H13.875V5.54545H15.9545ZM34.9112 14.2727C34.9112 16.1136 34.5788 17.7045 33.9141 19.0455C33.2493 20.3864 32.3374 21.4205 31.1783 22.1477C30.0192 22.875 28.6953 23.2386 27.2067 23.2386C25.718 23.2386 24.3942 22.875 23.2351 22.1477C22.076 21.4205 21.1641 20.3864 20.4993 19.0455C19.8345 17.7045 19.5021 16.1136 19.5021 14.2727C19.5021 12.4318 19.8345 10.8409 20.4993 9.5C21.1641 8.15909 22.076 7.125 23.2351 6.39773C24.3942 5.67045 25.718 5.30682 27.2067 5.30682C28.6953 5.30682 30.0192 5.67045 31.1783 6.39773C32.3374 7.125 33.2493 8.15909 33.9141 9.5C34.5788 10.8409 34.9112 12.4318 34.9112 14.2727ZM32.8658 14.2727C32.8658 12.7614 32.6129 11.4858 32.1072 10.446C31.6072 9.40625 30.9283 8.61932 30.0703 8.08523C29.218 7.55114 28.2635 7.28409 27.2067 7.28409C26.1499 7.28409 25.1925 7.55114 24.3345 8.08523C23.4822 8.61932 22.8033 9.40625 22.2976 10.446C21.7976 11.4858 21.5476 12.7614 21.5476 14.2727C21.5476 15.7841 21.7976 17.0597 22.2976 18.0994C22.8033 19.1392 23.4822 19.9261 24.3345 20.4602C25.1925 20.9943 26.1499 21.2614 27.2067 21.2614C28.2635 21.2614 29.218 20.9943 30.0703 20.4602C30.9283 19.9261 31.6072 19.1392 32.1072 18.0994C32.6129 17.0597 32.8658 15.7841 32.8658 14.2727ZM52.3061 5.54545V23H50.2607L40.7493 9.29545H40.5788V23H38.4652V5.54545H40.5107L50.0561 19.2841H50.2266V5.54545H52.3061ZM56.5355 23V5.54545H67.0696V7.42045H58.6491V13.3182H66.5241V15.1932H58.6491V21.125H67.206V23H56.5355ZM83.0497 9.90909V11.6136H76.2656V9.90909H83.0497ZM78.2429 6.77273H80.2543V19.25C80.2543 19.8182 80.3366 20.2443 80.5014 20.5284C80.6719 20.8068 80.8878 20.9943 81.1491 21.0909C81.4162 21.1818 81.6974 21.2273 81.9929 21.2273C82.2145 21.2273 82.3963 21.2159 82.5384 21.1932C82.6804 21.1648 82.794 21.142 82.8793 21.125L83.2884 22.9318C83.152 22.983 82.9616 23.0341 82.7173 23.0852C82.473 23.142 82.1634 23.1705 81.7884 23.1705C81.2202 23.1705 80.6634 23.0483 80.1179 22.804C79.5781 22.5597 79.1293 22.1875 78.7713 21.6875C78.419 21.1875 78.2429 20.5568 78.2429 19.7955V6.77273ZM91.4233 23.2727C90.1619 23.2727 89.0739 22.9943 88.1591 22.4375C87.25 21.875 86.5483 21.0909 86.054 20.0852C85.5653 19.0739 85.321 17.8977 85.321 16.5568C85.321 15.2159 85.5653 14.0341 86.054 13.0114C86.5483 11.983 87.2358 11.1818 88.1165 10.608C89.0028 10.0284 90.0369 9.73864 91.2188 9.73864C91.9006 9.73864 92.5739 9.85227 93.2386 10.0795C93.9034 10.3068 94.5085 10.6761 95.054 11.1875C95.5994 11.6932 96.0341 12.3636 96.358 13.1989C96.6818 14.0341 96.8438 15.0625 96.8438 16.2841V17.1364H86.7528V15.3977H94.7983C94.7983 14.6591 94.6506 14 94.3551 13.4205C94.0653 12.8409 93.6506 12.3835 93.1108 12.0483C92.5767 11.7131 91.946 11.5455 91.2188 11.5455C90.4176 11.5455 89.7244 11.7443 89.1392 12.142C88.5597 12.5341 88.1136 13.0455 87.8011 13.6761C87.4886 14.3068 87.3324 14.983 87.3324 15.7045V16.8636C87.3324 17.8523 87.5028 18.6903 87.8438 19.3778C88.1903 20.0597 88.6705 20.5795 89.2841 20.9375C89.8977 21.2898 90.6108 21.4659 91.4233 21.4659C91.9517 21.4659 92.429 21.392 92.8551 21.2443C93.2869 21.0909 93.6591 20.8636 93.9716 20.5625C94.2841 20.2557 94.5256 19.875 94.696 19.4205L96.6392 19.9659C96.4347 20.625 96.0909 21.2045 95.608 21.7045C95.125 22.1989 94.5284 22.5852 93.8182 22.8636C93.108 23.1364 92.3097 23.2727 91.4233 23.2727ZM101.052 9.90909L104.188 15.2614L107.325 9.90909H109.643L105.415 16.4545L109.643 23H107.325L104.188 17.9205L101.052 23H98.7337L102.893 16.4545L98.7337 9.90909H101.052ZM118.206 9.90909V11.6136H111.422V9.90909H118.206ZM113.399 6.77273H115.411V19.25C115.411 19.8182 115.493 20.2443 115.658 20.5284C115.828 20.8068 116.044 20.9943 116.305 21.0909C116.572 21.1818 116.854 21.2273 117.149 21.2273C117.371 21.2273 117.553 21.2159 117.695 21.1932C117.837 21.1648 117.95 21.142 118.036 21.125L118.445 22.9318C118.308 22.983 118.118 23.0341 117.874 23.0852C117.629 23.142 117.32 23.1705 116.945 23.1705C116.376 23.1705 115.82 23.0483 115.274 22.804C114.734 22.5597 114.286 22.1875 113.928 21.6875C113.575 21.1875 113.399 20.5568 113.399 19.7955V6.77273Z" fill="black"/>
</svg>
