<svg width="200" height="50" viewBox="0 0 200 50" fill="none" xmlns="http://www.w3.org/2000/svg">
<rect width="200" height="50" fill="white"/>
<path d="M10.6364 4.36364V16H9.27273L2.93182 6.86364H2.81818V16H1.40909V4.36364H2.77273L9.13636 13.5227H9.25V4.36364H10.6364ZM23.2741 10.1818C23.2741 11.4091 23.0526 12.4697 22.6094 13.3636C22.1662 14.2576 21.5582 14.947 20.7855 15.4318C20.0128 15.9167 19.1302 16.1591 18.1378 16.1591C17.1454 16.1591 16.2628 15.9167 15.4901 15.4318C14.7173 14.947 14.1094 14.2576 13.6662 13.3636C13.223 12.4697 13.0014 11.4091 13.0014 10.1818C13.0014 8.95455 13.223 7.89394 13.6662 7C14.1094 6.10606 14.7173 5.41667 15.4901 4.93182C16.2628 4.44697 17.1454 4.20455 18.1378 4.20455C19.1302 4.20455 20.0128 4.44697 20.7855 4.93182C21.5582 5.41667 22.1662 6.10606 22.6094 7C23.0526 7.89394 23.2741 8.95455 23.2741 10.1818ZM21.9105 10.1818C21.9105 9.17424 21.742 8.32386 21.4048 7.63068C21.0715 6.9375 20.6188 6.41288 20.0469 6.05682C19.4787 5.70076 18.8423 5.52273 18.1378 5.52273C17.4332 5.52273 16.795 5.70076 16.223 6.05682C15.6548 6.41288 15.2022 6.9375 14.8651 7.63068C14.5317 8.32386 14.3651 9.17424 14.3651 10.1818C14.3651 11.1894 14.5317 12.0398 14.8651 12.733C15.2022 13.4261 15.6548 13.9508 16.223 14.3068C16.795 14.6629 17.4332 14.8409 18.1378 14.8409C18.8423 14.8409 19.4787 14.6629 20.0469 14.3068C20.6188 13.9508 21.0715 13.4261 21.4048 12.733C21.742 12.0398 21.9105 11.1894 21.9105 10.1818ZM34.8707 4.36364V16H33.5071L27.1662 6.86364H27.0526V16H25.6435V4.36364H27.0071L33.3707 13.5227H33.4844V4.36364H34.8707ZM37.6903 16V4.36364H44.7131V5.61364H39.0994V9.54545H44.3494V10.7955H39.0994V14.75H44.804V16H37.6903ZM55.3665 7.27273V8.40909H50.8438V7.27273H55.3665ZM52.1619 5.18182H53.5028V13.5C53.5028 13.8788 53.5578 14.1629 53.6676 14.3523C53.7813 14.5379 53.9252 14.6629 54.0994 14.7273C54.2775 14.7879 54.465 14.8182 54.6619 14.8182C54.8097 14.8182 54.9309 14.8106 55.0256 14.7955C55.1203 14.7765 55.196 14.7614 55.2528 14.75L55.5256 15.9545C55.4347 15.9886 55.3078 16.0227 55.1449 16.0568C54.982 16.0947 54.7756 16.1136 54.5256 16.1136C54.1468 16.1136 53.7756 16.0322 53.4119 15.8693C53.0521 15.7064 52.7528 15.4583 52.5142 15.125C52.2794 14.7917 52.1619 14.3712 52.1619 13.8636V5.18182ZM60.9489 16.1818C60.108 16.1818 59.3826 15.9962 58.7727 15.625C58.1667 15.25 57.6989 14.7273 57.3693 14.0568C57.0436 13.3826 56.8807 12.5985 56.8807 11.7045C56.8807 10.8106 57.0436 10.0227 57.3693 9.34091C57.6989 8.6553 58.1572 8.12121 58.7443 7.73864C59.3352 7.35227 60.0246 7.15909 60.8125 7.15909C61.267 7.15909 61.7159 7.23485 62.1591 7.38636C62.6023 7.53788 63.0057 7.78409 63.3693 8.125C63.733 8.46212 64.0227 8.90909 64.2386 9.46591C64.4545 10.0227 64.5625 10.7083 64.5625 11.5227V12.0909H57.8352V10.9318H63.1989C63.1989 10.4394 63.1004 10 62.9034 9.61364C62.7102 9.22727 62.4337 8.92235 62.0739 8.69886C61.7178 8.47538 61.2973 8.36364 60.8125 8.36364C60.2784 8.36364 59.8163 8.49621 59.4261 8.76136C59.0398 9.02273 58.7424 9.36364 58.5341 9.78409C58.3258 10.2045 58.2216 10.6553 58.2216 11.1364V11.9091C58.2216 12.5682 58.3352 13.1269 58.5625 13.5852C58.7936 14.0398 59.1136 14.3864 59.5227 14.625C59.9318 14.8598 60.4072 14.9773 60.9489 14.9773C61.3011 14.9773 61.6193 14.928 61.9034 14.8295C62.1913 14.7273 62.4394 14.5758 62.6477 14.375C62.8561 14.1705 63.017 13.9167 63.1307 13.6136L64.4261 13.9773C64.2898 14.4167 64.0606 14.803 63.7386 15.1364C63.4167 15.4659 63.0189 15.7235 62.5455 15.9091C62.072 16.0909 61.5398 16.1818 60.9489 16.1818ZM67.3679 7.27273L69.4588 10.8409L71.5497 7.27273H73.0952L70.277 11.6364L73.0952 16H71.5497L69.4588 12.6136L67.3679 16H65.8224L68.5952 11.6364L65.8224 7.27273H67.3679ZM78.804 7.27273V8.40909H74.2812V7.27273H78.804ZM75.5994 5.18182H76.9403V13.5C76.9403 13.8788 76.9953 14.1629 77.1051 14.3523C77.2188 14.5379 77.3627 14.6629 77.5369 14.7273C77.715 14.7879 77.9025 14.8182 78.0994 14.8182C78.2472 14.8182 78.3684 14.8106 78.4631 14.7955C78.5578 14.7765 78.6335 14.7614 78.6903 14.75L78.9631 15.9545C78.8722 15.9886 78.7453 16.0227 78.5824 16.0568C78.4195 16.0947 78.2131 16.1136 77.9631 16.1136C77.5843 16.1136 77.2131 16.0322 76.8494 15.8693C76.4896 15.7064 76.1903 15.4583 75.9517 15.125C75.7169 14.7917 75.5994 14.3712 75.5994 13.8636V5.18182Z" fill="black"/>
</svg>
