<svg width="200" height="50" viewBox="0 0 200 50" fill="none" xmlns="http://www.w3.org/2000/svg">
<rect width="200" height="50" fill="white"/>
<path d="M21.2727 7.72727V31H18.5455L5.86364 12.7273H5.63636V31H2.81818V7.72727H5.54545L18.2727 26.0455H18.5V7.72727H21.2727ZM46.5483 19.3636C46.5483 21.8182 46.1051 23.9394 45.2188 25.7273C44.3324 27.5152 43.1165 28.8939 41.571 29.8636C40.0256 30.8333 38.2604 31.3182 36.2756 31.3182C34.2907 31.3182 32.5256 30.8333 30.9801 29.8636C29.4347 28.8939 28.2188 27.5152 27.3324 25.7273C26.446 23.9394 26.0028 21.8182 26.0028 19.3636C26.0028 16.9091 26.446 14.7879 27.3324 13C28.2188 11.2121 29.4347 9.83333 30.9801 8.86364C32.5256 7.89394 34.2907 7.40909 36.2756 7.40909C38.2604 7.40909 40.0256 7.89394 41.571 8.86364C43.1165 9.83333 44.3324 11.2121 45.2188 13C46.1051 14.7879 46.5483 16.9091 46.5483 19.3636ZM43.821 19.3636C43.821 17.3485 43.4839 15.6477 42.8097 14.2614C42.143 12.875 41.2377 11.8258 40.0938 11.1136C38.9574 10.4015 37.6847 10.0455 36.2756 10.0455C34.8665 10.0455 33.59 10.4015 32.446 11.1136C31.3097 11.8258 30.4044 12.875 29.7301 14.2614C29.0634 15.6477 28.7301 17.3485 28.7301 19.3636C28.7301 21.3788 29.0634 23.0795 29.7301 24.4659C30.4044 25.8523 31.3097 26.9015 32.446 27.6136C33.59 28.3258 34.8665 28.6818 36.2756 28.6818C37.6847 28.6818 38.9574 28.3258 40.0938 27.6136C41.2377 26.9015 42.143 25.8523 42.8097 24.4659C43.4839 23.0795 43.821 21.3788 43.821 19.3636ZM69.7415 7.72727V31H67.0142L54.3324 12.7273H54.1051V31H51.2869V7.72727H54.0142L66.7415 26.0455H66.9688V7.72727H69.7415ZM75.3807 31V7.72727H89.4261V10.2273H78.1989V18.0909H88.6989V20.5909H78.1989V28.5H89.608V31H75.3807ZM110.733 13.5455V15.8182H101.688V13.5455H110.733ZM104.324 9.36364H107.006V26C107.006 26.7576 107.116 27.3258 107.335 27.7045C107.563 28.0758 107.85 28.3258 108.199 28.4545C108.555 28.5758 108.93 28.6364 109.324 28.6364C109.619 28.6364 109.862 28.6212 110.051 28.5909C110.241 28.553 110.392 28.5227 110.506 28.5L111.051 30.9091C110.869 30.9773 110.616 31.0455 110.29 31.1136C109.964 31.1894 109.551 31.2273 109.051 31.2273C108.294 31.2273 107.551 31.0644 106.824 30.7386C106.104 30.4129 105.506 29.9167 105.028 29.25C104.559 28.5833 104.324 27.7424 104.324 26.7273V9.36364ZM121.898 31.3636C120.216 31.3636 118.765 30.9924 117.545 30.25C116.333 29.5 115.398 28.4545 114.739 27.1136C114.087 25.7652 113.761 24.197 113.761 22.4091C113.761 20.6212 114.087 19.0455 114.739 17.6818C115.398 16.3106 116.314 15.2424 117.489 14.4773C118.67 13.7045 120.049 13.3182 121.625 13.3182C122.534 13.3182 123.432 13.4697 124.318 13.7727C125.205 14.0758 126.011 14.5682 126.739 15.25C127.466 15.9242 128.045 16.8182 128.477 17.9318C128.909 19.0455 129.125 20.4167 129.125 22.0455V23.1818H115.67V20.8636H126.398C126.398 19.8788 126.201 19 125.807 18.2273C125.42 17.4545 124.867 16.8447 124.148 16.3977C123.436 15.9508 122.595 15.7273 121.625 15.7273C120.557 15.7273 119.633 15.9924 118.852 16.5227C118.08 17.0455 117.485 17.7273 117.068 18.5682C116.652 19.4091 116.443 20.3106 116.443 21.2727V22.8182C116.443 24.1364 116.67 25.2538 117.125 26.1705C117.587 27.0795 118.227 27.7727 119.045 28.25C119.864 28.7197 120.814 28.9545 121.898 28.9545C122.602 28.9545 123.239 28.8561 123.807 28.6591C124.383 28.4545 124.879 28.1515 125.295 27.75C125.712 27.3409 126.034 26.8333 126.261 26.2273L128.852 26.9545C128.58 27.8333 128.121 28.6061 127.477 29.2727C126.833 29.9318 126.038 30.447 125.091 30.8182C124.144 31.1818 123.08 31.3636 121.898 31.3636ZM134.736 13.5455L138.918 20.6818L143.099 13.5455H146.19L140.554 22.2727L146.19 31H143.099L138.918 24.2273L134.736 31H131.645L137.19 22.2727L131.645 13.5455H134.736ZM157.608 13.5455V15.8182H148.562V13.5455H157.608ZM151.199 9.36364H153.881V26C153.881 26.7576 153.991 27.3258 154.21 27.7045C154.438 28.0758 154.725 28.3258 155.074 28.4545C155.43 28.5758 155.805 28.6364 156.199 28.6364C156.494 28.6364 156.737 28.6212 156.926 28.5909C157.116 28.553 157.267 28.5227 157.381 28.5L157.926 30.9091C157.744 30.9773 157.491 31.0455 157.165 31.1136C156.839 31.1894 156.426 31.2273 155.926 31.2273C155.169 31.2273 154.426 31.0644 153.699 30.7386C152.979 30.4129 152.381 29.9167 151.903 29.25C151.434 28.5833 151.199 27.7424 151.199 26.7273V9.36364Z" fill="black"/>
</svg>
