<svg width="150" height="80" viewBox="0 0 150 80" fill="none" xmlns="http://www.w3.org/2000/svg">
<g clip-path="url(#clip0_0_1129)">
<rect width="150" height="80" fill="white"/>
<path d="M0.676136 4.91193V3.81818H8.3125V4.91193H5.1108V14H3.87784V4.91193H0.676136ZM11.2296 9.40625V14H10.0563V3.81818H11.2296V7.55682H11.329C11.508 7.16241 11.7765 6.84919 12.1344 6.61719C12.4957 6.38187 12.9763 6.2642 13.5762 6.2642C14.0965 6.2642 14.5523 6.36861 14.9434 6.57741C15.3345 6.78291 15.6377 7.09943 15.8532 7.52699C16.0719 7.95123 16.1813 8.49148 16.1813 9.14773V14H15.008V9.22727C15.008 8.62074 14.8506 8.15175 14.5357 7.82031C14.2241 7.48556 13.7916 7.31818 13.2381 7.31818C12.8536 7.31818 12.5089 7.39938 12.204 7.56179C11.9024 7.72419 11.6638 7.96117 11.4881 8.27273C11.3158 8.58428 11.2296 8.96212 11.2296 9.40625ZM18.3278 14V6.36364H19.5011V14H18.3278ZM18.9244 5.09091C18.6957 5.09091 18.4985 5.01302 18.3327 4.85724C18.1703 4.70147 18.0891 4.5142 18.0891 4.29545C18.0891 4.0767 18.1703 3.88944 18.3327 3.73366C18.4985 3.57789 18.6957 3.5 18.9244 3.5C19.1531 3.5 19.3486 3.57789 19.511 3.73366C19.6767 3.88944 19.7596 4.0767 19.7596 4.29545C19.7596 4.5142 19.6767 4.70147 19.511 4.85724C19.3486 5.01302 19.1531 5.09091 18.9244 5.09091ZM27.0591 8.07386L26.0051 8.37216C25.9389 8.1965 25.8411 8.0258 25.7118 7.86009C25.5859 7.69105 25.4135 7.55185 25.1948 7.44247C24.976 7.3331 24.696 7.27841 24.3546 7.27841C23.8873 7.27841 23.4978 7.38613 23.1863 7.60156C22.878 7.81368 22.7239 8.08381 22.7239 8.41193C22.7239 8.7036 22.83 8.93395 23.0421 9.10298C23.2542 9.27202 23.5856 9.41288 24.0364 9.52557L25.1699 9.80398C25.8527 9.9697 26.3614 10.2232 26.6962 10.5646C27.031 10.9027 27.1983 11.3385 27.1983 11.8722C27.1983 12.3097 27.0724 12.7008 26.8205 13.0455C26.5719 13.3902 26.2239 13.6619 25.7765 13.8608C25.329 14.0597 24.8087 14.1591 24.2154 14.1591C23.4365 14.1591 22.7918 13.9901 22.2814 13.652C21.771 13.3139 21.4479 12.8201 21.312 12.1705L22.4256 11.892C22.5317 12.303 22.7322 12.6113 23.0272 12.8168C23.3255 13.0223 23.7149 13.125 24.1955 13.125C24.7424 13.125 25.1766 13.009 25.498 12.777C25.8229 12.5417 25.9853 12.2599 25.9853 11.9318C25.9853 11.6667 25.8925 11.4446 25.7069 11.2656C25.5212 11.0833 25.2362 10.9474 24.8517 10.858L23.579 10.5597C22.8797 10.3939 22.3659 10.1371 22.0378 9.78906C21.713 9.43774 21.5506 8.99858 21.5506 8.47159C21.5506 8.04072 21.6716 7.65956 21.9135 7.32812C22.1588 6.99669 22.4919 6.73651 22.9128 6.54758C23.3371 6.35866 23.8176 6.2642 24.3546 6.2642C25.1103 6.2642 25.7035 6.42992 26.1344 6.76136C26.5686 7.0928 26.8768 7.5303 27.0591 8.07386ZM32.902 14V6.36364H34.0753V14H32.902ZM33.4986 5.09091C33.2699 5.09091 33.0727 5.01302 32.907 4.85724C32.7446 4.70147 32.6634 4.5142 32.6634 4.29545C32.6634 4.0767 32.7446 3.88944 32.907 3.73366C33.0727 3.57789 33.2699 3.5 33.4986 3.5C33.7273 3.5 33.9228 3.57789 34.0852 3.73366C34.2509 3.88944 34.3338 4.0767 34.3338 4.29545C34.3338 4.5142 34.2509 4.70147 34.0852 4.85724C33.9228 5.01302 33.7273 5.09091 33.4986 5.09091ZM41.6333 8.07386L40.5794 8.37216C40.5131 8.1965 40.4153 8.0258 40.286 7.86009C40.1601 7.69105 39.9877 7.55185 39.769 7.44247C39.5502 7.3331 39.2702 7.27841 38.9288 7.27841C38.4615 7.27841 38.072 7.38613 37.7605 7.60156C37.4522 7.81368 37.2981 8.08381 37.2981 8.41193C37.2981 8.7036 37.4042 8.93395 37.6163 9.10298C37.8284 9.27202 38.1599 9.41288 38.6106 9.52557L39.7441 9.80398C40.4269 9.9697 40.9357 10.2232 41.2704 10.5646C41.6052 10.9027 41.7725 11.3385 41.7725 11.8722C41.7725 12.3097 41.6466 12.7008 41.3947 13.0455C41.1461 13.3902 40.7981 13.6619 40.3507 13.8608C39.9032 14.0597 39.3829 14.1591 38.7896 14.1591C38.0107 14.1591 37.3661 13.9901 36.8556 13.652C36.3452 13.3139 36.0221 12.8201 35.8862 12.1705L36.9998 11.892C37.1059 12.303 37.3064 12.6113 37.6014 12.8168C37.8997 13.0223 38.2891 13.125 38.7697 13.125C39.3166 13.125 39.7508 13.009 40.0723 12.777C40.3971 12.5417 40.5595 12.2599 40.5595 11.9318C40.5595 11.6667 40.4667 11.4446 40.2811 11.2656C40.0955 11.0833 39.8104 10.9474 39.426 10.858L38.1532 10.5597C37.4539 10.3939 36.9402 10.1371 36.612 9.78906C36.2872 9.43774 36.1248 8.99858 36.1248 8.47159C36.1248 8.04072 36.2458 7.65956 36.4877 7.32812C36.733 6.99669 37.0661 6.73651 37.487 6.54758C37.9113 6.35866 38.3919 6.2642 38.9288 6.2642C39.6845 6.2642 40.2778 6.42992 40.7086 6.76136C41.1428 7.0928 41.4511 7.5303 41.6333 8.07386ZM49.7234 14.179C49.2395 14.179 48.8003 14.0878 48.4059 13.9055C48.0115 13.7199 47.6983 13.4531 47.4663 13.1051C47.2343 12.7538 47.1183 12.3295 47.1183 11.8324C47.1183 11.3949 47.2044 11.0402 47.3768 10.7685C47.5491 10.4934 47.7795 10.2779 48.0678 10.1222C48.3562 9.96638 48.6744 9.85038 49.0224 9.77415C49.3737 9.6946 49.7267 9.63163 50.0813 9.58523C50.5453 9.52557 50.9215 9.48082 51.2099 9.45099C51.5015 9.41785 51.7137 9.36316 51.8462 9.28693C51.9821 9.2107 52.0501 9.07812 52.0501 8.8892V8.84943C52.0501 8.3589 51.9158 7.97775 51.6474 7.70597C51.3822 7.43419 50.9795 7.2983 50.4393 7.2983C49.8791 7.2983 49.44 7.42093 49.1218 7.66619C48.8036 7.91146 48.5799 8.1733 48.4506 8.4517L47.337 8.05398C47.5359 7.58996 47.801 7.22869 48.1325 6.97017C48.4672 6.70833 48.8318 6.52604 49.2262 6.4233C49.6239 6.31723 50.015 6.2642 50.3995 6.2642C50.6448 6.2642 50.9265 6.29403 51.2447 6.35369C51.5662 6.41004 51.8761 6.5277 52.1744 6.70668C52.476 6.88565 52.7262 7.15578 52.9251 7.51705C53.1239 7.87831 53.2234 8.36222 53.2234 8.96875V14H52.0501V12.9659H51.9904C51.9109 13.1316 51.7783 13.3089 51.5927 13.4979C51.4071 13.6868 51.1602 13.8475 50.8519 13.9801C50.5437 14.1127 50.1675 14.179 49.7234 14.179ZM49.9023 13.125C50.3664 13.125 50.7575 13.0339 51.0756 12.8516C51.3971 12.6693 51.6391 12.4339 51.8015 12.1456C51.9672 11.8572 52.0501 11.554 52.0501 11.2358V10.1619C52.0004 10.2216 51.891 10.2763 51.7219 10.326C51.5562 10.3724 51.364 10.4138 51.1452 10.4503C50.9298 10.4834 50.7193 10.5133 50.5138 10.5398C50.3117 10.563 50.1476 10.5829 50.0217 10.5994C49.7167 10.6392 49.4317 10.7038 49.1665 10.7933C48.9047 10.8795 48.6926 11.0104 48.5302 11.1861C48.3711 11.3584 48.2915 11.5937 48.2915 11.892C48.2915 12.2997 48.4424 12.608 48.744 12.8168C49.0489 13.0223 49.435 13.125 49.9023 13.125ZM60.4757 3.81818V14H59.3024V3.81818H60.4757ZM65.7269 14.1591C65.0375 14.1591 64.4326 13.995 63.9123 13.6669C63.3952 13.3388 62.9909 12.8797 62.6992 12.2898C62.4109 11.6998 62.2667 11.0104 62.2667 10.2216C62.2667 9.42614 62.4109 8.73177 62.6992 8.13849C62.9909 7.54522 63.3952 7.08452 63.9123 6.75639C64.4326 6.42827 65.0375 6.2642 65.7269 6.2642C66.4163 6.2642 67.0195 6.42827 67.5366 6.75639C68.0569 7.08452 68.4613 7.54522 68.7496 8.13849C69.0413 8.73177 69.1871 9.42614 69.1871 10.2216C69.1871 11.0104 69.0413 11.6998 68.7496 12.2898C68.4613 12.8797 68.0569 13.3388 67.5366 13.6669C67.0195 13.995 66.4163 14.1591 65.7269 14.1591ZM65.7269 13.1051C66.2506 13.1051 66.6815 12.9709 67.0195 12.7024C67.3576 12.4339 67.6078 12.081 67.7702 11.6435C67.9326 11.206 68.0138 10.732 68.0138 10.2216C68.0138 9.71117 67.9326 9.23556 67.7702 8.79474C67.6078 8.35393 67.3576 7.99763 67.0195 7.72585C66.6815 7.45407 66.2506 7.31818 65.7269 7.31818C65.2032 7.31818 64.7724 7.45407 64.4343 7.72585C64.0962 7.99763 63.846 8.35393 63.6836 8.79474C63.5212 9.23556 63.44 9.71117 63.44 10.2216C63.44 10.732 63.5212 11.206 63.6836 11.6435C63.846 12.081 64.0962 12.4339 64.4343 12.7024C64.7724 12.9709 65.2032 13.1051 65.7269 13.1051ZM72.1515 9.40625V14H70.9782V6.36364H72.1117V7.55682H72.2111C72.3901 7.16903 72.6619 6.85748 73.0265 6.62216C73.391 6.38352 73.8617 6.2642 74.4384 6.2642C74.9554 6.2642 75.4078 6.37027 75.7956 6.58239C76.1834 6.79119 76.485 7.10938 76.7005 7.53693C76.9159 7.96117 77.0236 8.49811 77.0236 9.14773V14H75.8503V9.22727C75.8503 8.62737 75.6945 8.16004 75.383 7.82528C75.0714 7.48722 74.6439 7.31818 74.1003 7.31818C73.7258 7.31818 73.391 7.39938 73.0961 7.56179C72.8044 7.72419 72.574 7.96117 72.405 8.27273C72.236 8.58428 72.1515 8.96212 72.1515 9.40625ZM82.25 17.0227C81.6832 17.0227 81.196 16.9498 80.7884 16.804C80.3807 16.6615 80.041 16.4725 79.7692 16.2372C79.5007 16.0052 79.2869 15.7566 79.1278 15.4915L80.0625 14.8352C80.1686 14.9744 80.3028 15.1335 80.4652 15.3125C80.6276 15.4948 80.8497 15.6522 81.1314 15.7848C81.4164 15.9207 81.7893 15.9886 82.25 15.9886C82.8665 15.9886 83.3752 15.8395 83.7763 15.5412C84.1773 15.2429 84.3778 14.7756 84.3778 14.1392V12.5881H84.2784C84.1922 12.7273 84.0696 12.8996 83.9105 13.1051C83.7547 13.3073 83.5294 13.4879 83.2344 13.647C82.9427 13.8028 82.5483 13.8807 82.0511 13.8807C81.4347 13.8807 80.8812 13.7348 80.3906 13.4432C79.9034 13.1515 79.5173 12.7273 79.2322 12.1705C78.9505 11.6136 78.8097 10.9375 78.8097 10.142C78.8097 9.35985 78.9472 8.67874 79.2223 8.09872C79.4974 7.51539 79.8802 7.06463 80.3707 6.74645C80.8613 6.42495 81.428 6.2642 82.071 6.2642C82.5682 6.2642 82.9626 6.34706 83.2543 6.51278C83.5492 6.67519 83.7746 6.8608 83.9304 7.0696C84.0895 7.27509 84.2121 7.44413 84.2983 7.5767H84.4176V6.36364H85.5511V14.2188C85.5511 14.875 85.402 15.4086 85.1037 15.8196C84.8087 16.2339 84.411 16.5372 83.9105 16.7294C83.4134 16.925 82.8598 17.0227 82.25 17.0227ZM82.2102 12.8267C82.6809 12.8267 83.0786 12.719 83.4034 12.5036C83.7282 12.2881 83.9751 11.9782 84.1442 11.5739C84.3132 11.1695 84.3977 10.6856 84.3977 10.1222C84.3977 9.57197 84.3149 9.08641 84.1491 8.66548C83.9834 8.24455 83.7382 7.91477 83.4134 7.67614C83.0885 7.4375 82.6875 7.31818 82.2102 7.31818C81.7131 7.31818 81.2988 7.44413 80.9673 7.69602C80.6392 7.94792 80.3923 8.28598 80.2266 8.71023C80.0642 9.13447 79.983 9.60511 79.983 10.1222C79.983 10.6525 80.0658 11.1214 80.2315 11.5291C80.4006 11.9335 80.6491 12.2517 80.9773 12.4837C81.3087 12.7124 81.7197 12.8267 82.2102 12.8267ZM90.9006 14.1591C90.1648 14.1591 89.5301 13.9967 88.9964 13.6719C88.4661 13.3438 88.0568 12.8864 87.7685 12.2997C87.4834 11.7098 87.3409 11.0237 87.3409 10.2415C87.3409 9.45928 87.4834 8.76989 87.7685 8.1733C88.0568 7.57339 88.4579 7.10606 88.9716 6.77131C89.4886 6.43324 90.0919 6.2642 90.7812 6.2642C91.179 6.2642 91.5717 6.33049 91.9595 6.46307C92.3473 6.59564 92.7003 6.81108 93.0185 7.10938C93.3366 7.40436 93.5902 7.79545 93.7791 8.28267C93.968 8.76989 94.0625 9.36979 94.0625 10.0824V10.5795H88.1761V9.56534H92.8693C92.8693 9.13447 92.7831 8.75 92.6108 8.41193C92.4418 8.07386 92.1998 7.80705 91.8849 7.61151C91.5734 7.41596 91.2055 7.31818 90.7812 7.31818C90.3139 7.31818 89.9096 7.43419 89.5682 7.66619C89.2301 7.89489 88.9699 8.19318 88.7876 8.56108C88.6054 8.92898 88.5142 9.32339 88.5142 9.74432V10.4205C88.5142 10.9972 88.6136 11.486 88.8125 11.8871C89.0147 12.2848 89.2947 12.5881 89.6527 12.7969C90.0107 13.0024 90.4266 13.1051 90.9006 13.1051C91.2088 13.1051 91.4872 13.062 91.7358 12.9759C91.9877 12.8864 92.2048 12.7538 92.3871 12.5781C92.5694 12.3991 92.7102 12.1771 92.8097 11.9119L93.9432 12.2301C93.8239 12.6146 93.6233 12.9527 93.3416 13.2443C93.0599 13.5327 92.7119 13.758 92.2976 13.9205C91.8833 14.0795 91.4176 14.1591 90.9006 14.1591ZM95.8473 14V6.36364H96.9808V7.51705H97.0604C97.1996 7.1392 97.4515 6.83262 97.8161 6.5973C98.1806 6.36198 98.5916 6.24432 99.049 6.24432C99.1352 6.24432 99.2429 6.24597 99.3722 6.24929C99.5014 6.2526 99.5992 6.25758 99.6655 6.2642V7.45739C99.6257 7.44744 99.5346 7.43253 99.392 7.41264C99.2528 7.38944 99.1054 7.37784 98.9496 7.37784C98.5784 7.37784 98.2469 7.45573 97.9553 7.61151C97.6669 7.76397 97.4382 7.97609 97.2692 8.24787C97.1035 8.51634 97.0206 8.82292 97.0206 9.16761V14H95.8473ZM108.315 6.36364V7.35795H104.357V6.36364H108.315ZM105.511 4.53409H106.684V11.8125C106.684 12.1439 106.732 12.3925 106.828 12.5582C106.928 12.7206 107.054 12.83 107.206 12.8864C107.362 12.9394 107.526 12.9659 107.698 12.9659C107.828 12.9659 107.934 12.9593 108.017 12.946C108.099 12.9295 108.166 12.9162 108.215 12.9062L108.454 13.9602C108.374 13.9901 108.263 14.0199 108.121 14.0497C107.978 14.0829 107.798 14.0994 107.579 14.0994C107.248 14.0994 106.923 14.0282 106.605 13.8857C106.29 13.7431 106.028 13.526 105.819 13.2344C105.614 12.9427 105.511 12.5748 105.511 12.1307V4.53409ZM113.199 14.1591C112.464 14.1591 111.829 13.9967 111.295 13.6719C110.765 13.3438 110.356 12.8864 110.067 12.2997C109.782 11.7098 109.64 11.0237 109.64 10.2415C109.64 9.45928 109.782 8.76989 110.067 8.1733C110.356 7.57339 110.757 7.10606 111.27 6.77131C111.787 6.43324 112.391 6.2642 113.08 6.2642C113.478 6.2642 113.871 6.33049 114.258 6.46307C114.646 6.59564 114.999 6.81108 115.317 7.10938C115.635 7.40436 115.889 7.79545 116.078 8.28267C116.267 8.76989 116.361 9.36979 116.361 10.0824V10.5795H110.475V9.56534H115.168C115.168 9.13447 115.082 8.75 114.91 8.41193C114.741 8.07386 114.499 7.80705 114.184 7.61151C113.872 7.41596 113.504 7.31818 113.08 7.31818C112.613 7.31818 112.208 7.43419 111.867 7.66619C111.529 7.89489 111.269 8.19318 111.086 8.56108C110.904 8.92898 110.813 9.32339 110.813 9.74432V10.4205C110.813 10.9972 110.912 11.486 111.111 11.8871C111.314 12.2848 111.594 12.5881 111.952 12.7969C112.309 13.0024 112.725 13.1051 113.199 13.1051C113.508 13.1051 113.786 13.062 114.035 12.9759C114.287 12.8864 114.504 12.7538 114.686 12.5781C114.868 12.3991 115.009 12.1771 115.108 11.9119L116.242 12.2301C116.123 12.6146 115.922 12.9527 115.64 13.2443C115.359 13.5327 115.011 13.758 114.596 13.9205C114.182 14.0795 113.716 14.1591 113.199 14.1591ZM118.816 6.36364L120.646 9.4858L122.475 6.36364H123.827L121.362 10.1818L123.827 14H122.475L120.646 11.0369L118.816 14H117.464L119.89 10.1818L117.464 6.36364H118.816ZM128.823 6.36364V7.35795H124.865V6.36364H128.823ZM126.019 4.53409H127.192V11.8125C127.192 12.1439 127.24 12.3925 127.336 12.5582C127.436 12.7206 127.561 12.83 127.714 12.8864C127.87 12.9394 128.034 12.9659 128.206 12.9659C128.335 12.9659 128.441 12.9593 128.524 12.946C128.607 12.9295 128.673 12.9162 128.723 12.9062L128.962 13.9602C128.882 13.9901 128.771 14.0199 128.629 14.0497C128.486 14.0829 128.306 14.0994 128.087 14.0994C127.755 14.0994 127.431 14.0282 127.112 13.8857C126.798 13.7431 126.536 13.526 126.327 13.2344C126.121 12.9427 126.019 12.5748 126.019 12.1307V4.53409ZM4.39489 23.3636V24.358H0.4375V23.3636H4.39489ZM1.59091 21.5341H2.7642V28.8125C2.7642 29.1439 2.81226 29.3925 2.90838 29.5582C3.00781 29.7206 3.13376 29.83 3.28622 29.8864C3.442 29.9394 3.60606 29.9659 3.77841 29.9659C3.90767 29.9659 4.01373 29.9593 4.09659 29.946C4.17945 29.9295 4.24574 29.9162 4.29545 29.9062L4.53409 30.9602C4.45455 30.9901 4.34351 31.0199 4.20099 31.0497C4.05848 31.0829 3.87784 31.0994 3.65909 31.0994C3.32765 31.0994 3.00284 31.0282 2.68466 30.8857C2.36979 30.7431 2.10795 30.526 1.89915 30.2344C1.69366 29.9427 1.59091 29.5748 1.59091 29.1307V21.5341ZM7.49716 26.4062V31H6.32386V20.8182H7.49716V24.5568H7.59659C7.77557 24.1624 8.04403 23.8492 8.40199 23.6172C8.76326 23.3819 9.24384 23.2642 9.84375 23.2642C10.3641 23.2642 10.8198 23.3686 11.2109 23.5774C11.602 23.7829 11.9053 24.0994 12.1207 24.527C12.3395 24.9512 12.4489 25.4915 12.4489 26.1477V31H11.2756V26.2273C11.2756 25.6207 11.1181 25.1518 10.8033 24.8203C10.4917 24.4856 10.0592 24.3182 9.50568 24.3182C9.12121 24.3182 8.77652 24.3994 8.47159 24.5618C8.16998 24.7242 7.93134 24.9612 7.75568 25.2727C7.58333 25.5843 7.49716 25.9621 7.49716 26.4062ZM16.8425 31.179C16.3586 31.179 15.9194 31.0878 15.525 30.9055C15.1306 30.7199 14.8174 30.4531 14.5854 30.1051C14.3534 29.7538 14.2374 29.3295 14.2374 28.8324C14.2374 28.3949 14.3236 28.0402 14.4959 27.7685C14.6683 27.4934 14.8986 27.2779 15.187 27.1222C15.4753 26.9664 15.7935 26.8504 16.1415 26.7741C16.4928 26.6946 16.8458 26.6316 17.2005 26.5852C17.6645 26.5256 18.0407 26.4808 18.329 26.451C18.6207 26.4179 18.8328 26.3632 18.9654 26.2869C19.1013 26.2107 19.1692 26.0781 19.1692 25.8892V25.8494C19.1692 25.3589 19.035 24.9777 18.7665 24.706C18.5014 24.4342 18.0987 24.2983 17.5584 24.2983C16.9983 24.2983 16.5591 24.4209 16.2409 24.6662C15.9228 24.9115 15.699 25.1733 15.5698 25.4517L14.4561 25.054C14.655 24.59 14.9202 24.2287 15.2516 23.9702C15.5864 23.7083 15.9509 23.526 16.3453 23.4233C16.7431 23.3172 17.1342 23.2642 17.5186 23.2642C17.7639 23.2642 18.0456 23.294 18.3638 23.3537C18.6853 23.41 18.9952 23.5277 19.2935 23.7067C19.5951 23.8857 19.8453 24.1558 20.0442 24.517C20.2431 24.8783 20.3425 25.3622 20.3425 25.9688V31H19.1692V29.9659H19.1096C19.03 30.1316 18.8974 30.3089 18.7118 30.4979C18.5262 30.6868 18.2793 30.8475 17.9711 30.9801C17.6628 31.1127 17.2866 31.179 16.8425 31.179ZM17.0215 30.125C17.4855 30.125 17.8766 30.0339 18.1948 29.8516C18.5163 29.6693 18.7582 29.4339 18.9206 29.1456C19.0864 28.8572 19.1692 28.554 19.1692 28.2358V27.1619C19.1195 27.2216 19.0101 27.2763 18.8411 27.326C18.6754 27.3724 18.4831 27.4138 18.2644 27.4503C18.0489 27.4834 17.8385 27.5133 17.633 27.5398C17.4308 27.563 17.2667 27.5829 17.1408 27.5994C16.8359 27.6392 16.5508 27.7038 16.2857 27.7933C16.0239 27.8795 15.8117 28.0104 15.6493 28.1861C15.4902 28.3584 15.4107 28.5937 15.4107 28.892C15.4107 29.2997 15.5615 29.608 15.8631 29.8168C16.168 30.0223 16.5542 30.125 17.0215 30.125ZM25.805 23.3636V24.358H21.8477V23.3636H25.805ZM23.0011 21.5341H24.1744V28.8125C24.1744 29.1439 24.2224 29.3925 24.3185 29.5582C24.418 29.7206 24.5439 29.83 24.6964 29.8864C24.8522 29.9394 25.0162 29.9659 25.1886 29.9659C25.3178 29.9659 25.4239 29.9593 25.5067 29.946C25.5896 29.9295 25.6559 29.9162 25.7056 29.9062L25.9442 30.9602C25.8647 30.9901 25.7537 31.0199 25.6112 31.0497C25.4686 31.0829 25.288 31.0994 25.0692 31.0994C24.7378 31.0994 24.413 31.0282 24.0948 30.8857C23.7799 30.7431 23.5181 30.526 23.3093 30.2344C23.1038 29.9427 23.0011 29.5748 23.0011 29.1307V21.5341ZM31.5075 31V23.3636H32.641V24.5568H32.7404C32.8995 24.1491 33.1564 23.8326 33.511 23.6072C33.8656 23.3786 34.2915 23.2642 34.7887 23.2642C35.2925 23.2642 35.7118 23.3786 36.0465 23.6072C36.3846 23.8326 36.6481 24.1491 36.837 24.5568H36.9165C37.1121 24.1624 37.4054 23.8492 37.7965 23.6172C38.1876 23.3819 38.6566 23.2642 39.2035 23.2642C39.8862 23.2642 40.4447 23.478 40.8789 23.9055C41.3131 24.3298 41.5302 24.991 41.5302 25.8892V31H40.3569V25.8892C40.3569 25.3258 40.2028 24.9231 39.8945 24.6811C39.5863 24.4392 39.2234 24.3182 38.8058 24.3182C38.2688 24.3182 37.8529 24.4806 37.5579 24.8054C37.2629 25.1269 37.1154 25.5346 37.1154 26.0284V31H35.9222V25.7699C35.9222 25.3357 35.7814 24.986 35.4996 24.7209C35.2179 24.4524 34.855 24.3182 34.4109 24.3182C34.1059 24.3182 33.8209 24.3994 33.5558 24.5618C33.2939 24.7242 33.0818 24.9496 32.9194 25.2379C32.7603 25.523 32.6808 25.8527 32.6808 26.2273V31H31.5075ZM43.6754 31V23.3636H44.8487V31H43.6754ZM44.272 22.0909C44.0433 22.0909 43.8461 22.013 43.6804 21.8572C43.518 21.7015 43.4368 21.5142 43.4368 21.2955C43.4368 21.0767 43.518 20.8894 43.6804 20.7337C43.8461 20.5779 44.0433 20.5 44.272 20.5C44.5007 20.5 44.6963 20.5779 44.8587 20.7337C45.0244 20.8894 45.1072 21.0767 45.1072 21.2955C45.1072 21.5142 45.0244 21.7015 44.8587 21.8572C44.6963 22.013 44.5007 22.0909 44.272 22.0909ZM50.0801 34.0227C49.5133 34.0227 49.0261 33.9498 48.6184 33.804C48.2108 33.6615 47.871 33.4725 47.5993 33.2372C47.3308 33.0052 47.117 32.7566 46.9579 32.4915L47.8926 31.8352C47.9986 31.9744 48.1329 32.1335 48.2953 32.3125C48.4577 32.4948 48.6797 32.6522 48.9615 32.7848C49.2465 32.9207 49.6194 32.9886 50.0801 32.9886C50.6966 32.9886 51.2053 32.8395 51.6064 32.5412C52.0074 32.2429 52.2079 31.7756 52.2079 31.1392V29.5881H52.1085C52.0223 29.7273 51.8997 29.8996 51.7406 30.1051C51.5848 30.3073 51.3594 30.4879 51.0645 30.647C50.7728 30.8028 50.3784 30.8807 49.8812 30.8807C49.2647 30.8807 48.7112 30.7348 48.2207 30.4432C47.7335 30.1515 47.3474 29.7273 47.0623 29.1705C46.7806 28.6136 46.6397 27.9375 46.6397 27.142C46.6397 26.3598 46.7773 25.6787 47.0524 25.0987C47.3275 24.5154 47.7103 24.0646 48.2008 23.7464C48.6913 23.425 49.2581 23.2642 49.9011 23.2642C50.3983 23.2642 50.7927 23.3471 51.0843 23.5128C51.3793 23.6752 51.6047 23.8608 51.7605 24.0696C51.9196 24.2751 52.0422 24.4441 52.1284 24.5767H52.2477V23.3636H53.3812V31.2188C53.3812 31.875 53.2321 32.4086 52.9338 32.8196C52.6388 33.2339 52.2411 33.5372 51.7406 33.7294C51.2434 33.925 50.6899 34.0227 50.0801 34.0227ZM50.0403 29.8267C50.5109 29.8267 50.9087 29.719 51.2335 29.5036C51.5583 29.2881 51.8052 28.9782 51.9743 28.5739C52.1433 28.1695 52.2278 27.6856 52.2278 27.1222C52.2278 26.572 52.1449 26.0864 51.9792 25.6655C51.8135 25.2446 51.5682 24.9148 51.2434 24.6761C50.9186 24.4375 50.5176 24.3182 50.0403 24.3182C49.5431 24.3182 49.1288 24.4441 48.7974 24.696C48.4693 24.9479 48.2224 25.286 48.0566 25.7102C47.8942 26.1345 47.813 26.6051 47.813 27.1222C47.813 27.6525 47.8959 28.1214 48.0616 28.5291C48.2306 28.9335 48.4792 29.2517 48.8074 29.4837C49.1388 29.7124 49.5498 29.8267 50.0403 29.8267ZM56.7022 26.4062V31H55.5289V20.8182H56.7022V24.5568H56.8017C56.9806 24.1624 57.2491 23.8492 57.6071 23.6172C57.9683 23.3819 58.4489 23.2642 59.0488 23.2642C59.5692 23.2642 60.0249 23.3686 60.416 23.5774C60.8071 23.7829 61.1104 24.0994 61.3258 24.527C61.5446 24.9512 61.6539 25.4915 61.6539 26.1477V31H60.4806V26.2273C60.4806 25.6207 60.3232 25.1518 60.0083 24.8203C59.6968 24.4856 59.2643 24.3182 58.7108 24.3182C58.3263 24.3182 57.9816 24.3994 57.6767 24.5618C57.3751 24.7242 57.1364 24.9612 56.9608 25.2727C56.7884 25.5843 56.7022 25.9621 56.7022 26.4062ZM67.1214 23.3636V24.358H63.1641V23.3636H67.1214ZM64.3175 21.5341H65.4908V28.8125C65.4908 29.1439 65.5388 29.3925 65.6349 29.5582C65.7344 29.7206 65.8603 29.83 66.0128 29.8864C66.1686 29.9394 66.3326 29.9659 66.505 29.9659C66.6342 29.9659 66.7403 29.9593 66.8232 29.946C66.906 29.9295 66.9723 29.9162 67.022 29.9062L67.2607 30.9602C67.1811 30.9901 67.0701 31.0199 66.9276 31.0497C66.785 31.0829 66.6044 31.0994 66.3857 31.0994C66.0542 31.0994 65.7294 31.0282 65.4112 30.8857C65.0964 30.7431 64.8345 30.526 64.6257 30.2344C64.4202 29.9427 64.3175 29.5748 64.3175 29.1307V21.5341ZM74.554 31L72.2273 23.3636H73.4602L75.1108 29.2102H75.1903L76.821 23.3636H78.0739L79.6847 29.1903H79.7642L81.4148 23.3636H82.6477L80.321 31H79.1676L77.4972 25.1335H77.3778L75.7074 31H74.554ZM84.1989 31V23.3636H85.3324V24.517H85.4119C85.5511 24.1392 85.803 23.8326 86.1676 23.5973C86.5322 23.362 86.9432 23.2443 87.4006 23.2443C87.4867 23.2443 87.5945 23.246 87.7237 23.2493C87.853 23.2526 87.9508 23.2576 88.017 23.2642V24.4574C87.9773 24.4474 87.8861 24.4325 87.7436 24.4126C87.6044 24.3894 87.4569 24.3778 87.3011 24.3778C86.9299 24.3778 86.5985 24.4557 86.3068 24.6115C86.0185 24.764 85.7898 24.9761 85.6207 25.2479C85.455 25.5163 85.3722 25.8229 85.3722 26.1676V31H84.1989ZM91.655 31.179C91.1711 31.179 90.7319 31.0878 90.3375 30.9055C89.9431 30.7199 89.6299 30.4531 89.3979 30.1051C89.1659 29.7538 89.0499 29.3295 89.0499 28.8324C89.0499 28.3949 89.1361 28.0402 89.3084 27.7685C89.4808 27.4934 89.7111 27.2779 89.9995 27.1222C90.2878 26.9664 90.606 26.8504 90.954 26.7741C91.3053 26.6946 91.6583 26.6316 92.013 26.5852C92.477 26.5256 92.8532 26.4808 93.1415 26.451C93.4332 26.4179 93.6453 26.3632 93.7779 26.2869C93.9138 26.2107 93.9817 26.0781 93.9817 25.8892V25.8494C93.9817 25.3589 93.8475 24.9777 93.579 24.706C93.3139 24.4342 92.9112 24.2983 92.3709 24.2983C91.8108 24.2983 91.3716 24.4209 91.0534 24.6662C90.7353 24.9115 90.5115 25.1733 90.3823 25.4517L89.2686 25.054C89.4675 24.59 89.7327 24.2287 90.0641 23.9702C90.3989 23.7083 90.7634 23.526 91.1578 23.4233C91.5556 23.3172 91.9467 23.2642 92.3311 23.2642C92.5764 23.2642 92.8581 23.294 93.1763 23.3537C93.4978 23.41 93.8077 23.5277 94.106 23.7067C94.4076 23.8857 94.6578 24.1558 94.8567 24.517C95.0556 24.8783 95.155 25.3622 95.155 25.9688V31H93.9817V29.9659H93.9221C93.8425 30.1316 93.7099 30.3089 93.5243 30.4979C93.3387 30.6868 93.0918 30.8475 92.7836 30.9801C92.4753 31.1127 92.0991 31.179 91.655 31.179ZM91.834 30.125C92.298 30.125 92.6891 30.0339 93.0073 29.8516C93.3288 29.6693 93.5707 29.4339 93.7331 29.1456C93.8989 28.8572 93.9817 28.554 93.9817 28.2358V27.1619C93.932 27.2216 93.8226 27.2763 93.6536 27.326C93.4879 27.3724 93.2956 27.4138 93.0769 27.4503C92.8614 27.4834 92.651 27.5133 92.4455 27.5398C92.2433 27.563 92.0792 27.5829 91.9533 27.5994C91.6484 27.6392 91.3633 27.7038 91.0982 27.7933C90.8364 27.8795 90.6242 28.0104 90.4618 28.1861C90.3027 28.3584 90.2232 28.5937 90.2232 28.892C90.2232 29.2997 90.374 29.608 90.6756 29.8168C90.9805 30.0223 91.3667 30.125 91.834 30.125ZM97.2965 33.8636V23.3636H98.43V24.5767H98.5692C98.6554 24.4441 98.7747 24.2751 98.9272 24.0696C99.083 23.8608 99.305 23.6752 99.5934 23.5128C99.8851 23.3471 100.279 23.2642 100.777 23.2642C101.42 23.2642 101.986 23.425 102.477 23.7464C102.967 24.0679 103.35 24.5237 103.625 25.1136C103.9 25.7036 104.038 26.3996 104.038 27.2017C104.038 28.0104 103.9 28.7114 103.625 29.3047C103.35 29.8946 102.969 30.352 102.482 30.6768C101.995 30.9983 101.433 31.1591 100.797 31.1591C100.306 31.1591 99.9132 31.0779 99.6183 30.9155C99.3233 30.7498 99.0962 30.5625 98.9371 30.3537C98.7781 30.1416 98.6554 29.9659 98.5692 29.8267H98.4698V33.8636H97.2965ZM98.4499 27.1818C98.4499 27.7585 98.5344 28.2673 98.7035 28.7081C98.8725 29.1456 99.1194 29.4886 99.4442 29.7372C99.7691 29.9825 100.167 30.1051 100.637 30.1051C101.128 30.1051 101.537 29.9759 101.865 29.7173C102.197 29.4555 102.445 29.1042 102.611 28.6634C102.78 28.2192 102.865 27.7254 102.865 27.1818C102.865 26.6449 102.782 26.161 102.616 25.7301C102.454 25.2959 102.207 24.9529 101.875 24.701C101.547 24.4458 101.135 24.3182 100.637 24.3182C100.16 24.3182 99.7591 24.4392 99.4343 24.6811C99.1095 24.9197 98.8642 25.2545 98.6985 25.6854C98.5328 26.1129 98.4499 26.6117 98.4499 27.1818ZM106.683 31.0795C106.438 31.0795 106.227 30.9917 106.051 30.8161C105.876 30.6404 105.788 30.4299 105.788 30.1847C105.788 29.9394 105.876 29.7289 106.051 29.5533C106.227 29.3776 106.438 29.2898 106.683 29.2898C106.928 29.2898 107.139 29.3776 107.314 29.5533C107.49 29.7289 107.578 29.9394 107.578 30.1847C107.578 30.3471 107.536 30.4962 107.453 30.6321C107.374 30.768 107.266 30.8774 107.13 30.9602C106.998 31.0398 106.849 31.0795 106.683 31.0795Z" fill="black"/>
</g>
<defs>
<clipPath id="clip0_0_1129">
<rect width="150" height="80" fill="white"/>
</clipPath>
</defs>
</svg>
