<svg width="150" height="50" viewBox="0 0 150 50" fill="none" xmlns="http://www.w3.org/2000/svg">
<g clip-path="url(#clip0_0_1184)">
<rect width="150" height="50" fill="white"/>
<path d="M4.375 14.1392C3.62595 14.1392 2.98793 13.9354 2.46094 13.5277C1.93395 13.1167 1.53125 12.5218 1.25284 11.7429C0.974432 10.9607 0.835227 10.0161 0.835227 8.90909C0.835227 7.80871 0.974432 6.86908 1.25284 6.0902C1.53456 5.308 1.93892 4.71141 2.46591 4.30043C2.99621 3.88613 3.63258 3.67898 4.375 3.67898C5.11742 3.67898 5.75213 3.88613 6.27912 4.30043C6.80942 4.71141 7.21378 5.308 7.49219 6.0902C7.77391 6.86908 7.91477 7.80871 7.91477 8.90909C7.91477 10.0161 7.77557 10.9607 7.49716 11.7429C7.21875 12.5218 6.81605 13.1167 6.28906 13.5277C5.76207 13.9354 5.12405 14.1392 4.375 14.1392ZM4.375 13.0455C5.11742 13.0455 5.69413 12.6875 6.10511 11.9716C6.5161 11.2557 6.72159 10.2348 6.72159 8.90909C6.72159 8.02746 6.62713 7.27675 6.43821 6.65696C6.2526 6.03717 5.98414 5.56487 5.63281 5.24006C5.2848 4.91525 4.86553 4.75284 4.375 4.75284C3.6392 4.75284 3.06416 5.11577 2.64986 5.84162C2.23556 6.56416 2.02841 7.58665 2.02841 8.90909C2.02841 9.79072 2.12121 10.5398 2.30682 11.1562C2.49242 11.7727 2.75923 12.2417 3.10724 12.5632C3.45857 12.8847 3.88116 13.0455 4.375 13.0455ZM13.3835 3.81818V14H12.1506V5.1108H12.0909L9.60511 6.76136V5.50852L12.1506 3.81818H13.3835ZM16.3118 14V13.1051L19.6726 9.42614C20.067 8.99526 20.3918 8.62074 20.647 8.30256C20.9022 7.98106 21.0911 7.67945 21.2138 7.39773C21.3397 7.11269 21.4027 6.81439 21.4027 6.50284C21.4027 6.14489 21.3165 5.83499 21.1442 5.57315C20.9751 5.31132 20.7431 5.10914 20.4482 4.96662C20.1532 4.8241 19.8217 4.75284 19.4538 4.75284C19.0627 4.75284 18.7214 4.83404 18.4297 4.99645C18.1413 5.15554 17.9176 5.37926 17.7585 5.66761C17.6027 5.95597 17.5249 6.29403 17.5249 6.68182H16.3516C16.3516 6.08523 16.4891 5.56155 16.7642 5.1108C17.0393 4.66004 17.4138 4.30871 17.8878 4.05682C18.3651 3.80492 18.9003 3.67898 19.4936 3.67898C20.0902 3.67898 20.6188 3.80492 21.0795 4.05682C21.5402 4.30871 21.9015 4.64844 22.1634 5.07599C22.4252 5.50355 22.5561 5.97917 22.5561 6.50284C22.5561 6.87737 22.4882 7.24361 22.3523 7.60156C22.2197 7.9562 21.9877 8.35227 21.6562 8.78977C21.3281 9.22396 20.8724 9.75426 20.2891 10.3807L18.0021 12.8267V12.9062H22.7351V14H16.3118ZM28.2287 14.1392C27.5724 14.1392 26.9875 14.0265 26.4737 13.8011C25.9633 13.5758 25.5573 13.2625 25.2557 12.8615C24.9574 12.4571 24.795 11.9882 24.7685 11.4545H26.0213C26.0478 11.7827 26.1605 12.0661 26.3594 12.3047C26.5582 12.54 26.8184 12.7223 27.1399 12.8516C27.4614 12.9808 27.8177 13.0455 28.2088 13.0455C28.6463 13.0455 29.0341 12.9692 29.3722 12.8168C29.7102 12.6643 29.9754 12.4522 30.1676 12.1804C30.3598 11.9086 30.456 11.5938 30.456 11.2358C30.456 10.8613 30.3632 10.5315 30.1776 10.2464C29.992 9.9581 29.7202 9.73272 29.3622 9.57031C29.0043 9.40791 28.5668 9.3267 28.0497 9.3267H27.2344V8.23295H28.0497C28.4541 8.23295 28.8087 8.16004 29.1136 8.0142C29.4219 7.86837 29.6622 7.66288 29.8345 7.39773C30.0102 7.13258 30.098 6.82102 30.098 6.46307C30.098 6.11837 30.0218 5.81842 29.8693 5.56321C29.7169 5.308 29.5014 5.10914 29.223 4.96662C28.9479 4.8241 28.6231 4.75284 28.2486 4.75284C27.8973 4.75284 27.5658 4.81747 27.2543 4.94673C26.946 5.07268 26.6941 5.25663 26.4986 5.49858C26.303 5.73722 26.197 6.02557 26.1804 6.36364H24.9872C25.0071 5.83002 25.1679 5.36269 25.4695 4.96165C25.7711 4.55729 26.1655 4.24242 26.6527 4.01705C27.1432 3.79167 27.6818 3.67898 28.2685 3.67898C28.8982 3.67898 29.4384 3.80658 29.8892 4.06179C30.34 4.31368 30.6863 4.64678 30.9283 5.06108C31.1702 5.47538 31.2912 5.92282 31.2912 6.40341C31.2912 6.9768 31.1404 7.46567 30.8388 7.87003C30.5405 8.27438 30.1345 8.55445 29.6207 8.71023V8.78977C30.2637 8.89583 30.7659 9.16927 31.1271 9.61009C31.4884 10.0476 31.669 10.5895 31.669 11.2358C31.669 11.7893 31.5182 12.2865 31.2166 12.7273C30.9183 13.1648 30.5107 13.5095 29.9936 13.7614C29.4766 14.0133 28.8883 14.1392 28.2287 14.1392ZM33.4638 11.9119V10.8977L37.9382 3.81818H38.674V5.3892H38.1768L34.7962 10.7386V10.8182H40.8217V11.9119H33.4638ZM38.2564 14V11.6037V11.1314V3.81818H39.4297V14H38.2564ZM45.8667 14.1392C45.2833 14.1392 44.758 14.0232 44.2907 13.7912C43.8233 13.5592 43.4488 13.241 43.1671 12.8366C42.8854 12.4323 42.7312 11.9716 42.7047 11.4545H43.8979C43.9443 11.9152 44.1531 12.2964 44.5243 12.598C44.8989 12.8963 45.3463 13.0455 45.8667 13.0455C46.2843 13.0455 46.6555 12.9477 46.9803 12.7521C47.3084 12.5566 47.5653 12.2881 47.7509 11.9467C47.9398 11.602 48.0343 11.2126 48.0343 10.7784C48.0343 10.3343 47.9365 9.93821 47.7409 9.5902C47.5487 9.23887 47.2836 8.96212 46.9455 8.75994C46.6074 8.55776 46.2213 8.45502 45.7871 8.4517C45.4756 8.44839 45.1557 8.49645 44.8276 8.59588C44.4995 8.692 44.2293 8.81629 44.0172 8.96875L42.8638 8.82955L43.4803 3.81818H48.7701V4.91193H44.5144L44.1564 7.91477H44.2161C44.4249 7.74905 44.6867 7.61151 45.0016 7.50213C45.3165 7.39276 45.6446 7.33807 45.986 7.33807C46.6091 7.33807 47.1642 7.48722 47.6515 7.78551C48.142 8.08049 48.5265 8.48485 48.8049 8.99858C49.0866 9.51231 49.2275 10.099 49.2275 10.7585C49.2275 11.4081 49.0816 11.9882 48.79 12.4986C48.5016 13.0057 48.1039 13.4067 47.5968 13.7017C47.0897 13.9934 46.513 14.1392 45.8667 14.1392ZM54.5831 14.1392C54.1655 14.1326 53.7479 14.053 53.3303 13.9006C52.9126 13.7481 52.5315 13.4912 52.1868 13.13C51.8421 12.7654 51.5653 12.2732 51.3565 11.6534C51.1477 11.0303 51.0433 10.2481 51.0433 9.30682C51.0433 8.4053 51.1278 7.60653 51.2969 6.91051C51.4659 6.21117 51.7112 5.62287 52.0327 5.1456C52.3542 4.66501 52.742 4.30043 53.196 4.05185C53.6534 3.80327 54.1688 3.67898 54.7422 3.67898C55.3123 3.67898 55.8194 3.79332 56.2635 4.02202C56.7109 4.2474 57.0755 4.56226 57.3572 4.96662C57.639 5.37098 57.8213 5.83665 57.9041 6.36364H56.6911C56.5784 5.90625 56.3596 5.52675 56.0348 5.22514C55.71 4.92353 55.2791 4.77273 54.7422 4.77273C53.9534 4.77273 53.3319 5.11577 52.8778 5.80185C52.4271 6.48793 52.2 7.45076 52.1967 8.69034H52.2763C52.4619 8.40862 52.6823 8.16832 52.9375 7.96946C53.196 7.76728 53.4811 7.61151 53.7926 7.50213C54.1042 7.39276 54.4339 7.33807 54.782 7.33807C55.3653 7.33807 55.8989 7.4839 56.3828 7.77557C56.8667 8.06392 57.2545 8.4633 57.5462 8.97372C57.8378 9.48082 57.9837 10.0625 57.9837 10.7188C57.9837 11.3485 57.8428 11.9252 57.5611 12.4489C57.2794 12.9692 56.8833 13.3835 56.3729 13.6918C55.8658 13.9967 55.2692 14.1458 54.5831 14.1392ZM54.5831 13.0455C55.0007 13.0455 55.3752 12.9411 55.7067 12.7322C56.0414 12.5234 56.3049 12.2434 56.4972 11.892C56.6927 11.5407 56.7905 11.1496 56.7905 10.7188C56.7905 10.2978 56.696 9.91501 56.5071 9.57031C56.3215 9.2223 56.0646 8.94555 55.7365 8.74006C55.4117 8.53456 55.0405 8.43182 54.6229 8.43182C54.308 8.43182 54.0147 8.49479 53.7429 8.62074C53.4711 8.74337 53.2325 8.91241 53.027 9.12784C52.8248 9.34328 52.6657 9.5902 52.5497 9.86861C52.4337 10.1437 52.3757 10.4337 52.3757 10.7386C52.3757 11.143 52.4702 11.5208 52.6591 11.8722C52.8513 12.2235 53.1132 12.5069 53.4446 12.7223C53.7794 12.9377 54.1589 13.0455 54.5831 13.0455ZM60.2569 14L64.8109 4.99148V4.91193H59.5609V3.81818H66.0836V4.97159L61.5495 14H60.2569ZM70.9931 14.1392C70.3103 14.1392 69.7071 14.0182 69.1834 13.7763C68.6631 13.531 68.257 13.1946 67.9654 12.767C67.6737 12.3362 67.5295 11.8456 67.5328 11.2955C67.5295 10.8646 67.6141 10.4669 67.7864 10.1023C67.9587 9.73437 68.1941 9.42779 68.4924 9.18253C68.794 8.93395 69.1304 8.77651 69.5016 8.71023V8.65057C69.0144 8.52462 68.6266 8.25118 68.3382 7.83026C68.0499 7.40601 67.9074 6.92377 67.9107 6.38352C67.9074 5.86648 68.0383 5.40412 68.3034 4.99645C68.5686 4.58878 68.9332 4.26728 69.3972 4.03196C69.8645 3.79664 70.3965 3.67898 70.9931 3.67898C71.583 3.67898 72.11 3.79664 72.574 4.03196C73.0381 4.26728 73.4026 4.58878 73.6678 4.99645C73.9363 5.40412 74.0721 5.86648 74.0755 6.38352C74.0721 6.92377 73.9247 7.40601 73.633 7.83026C73.3446 8.25118 72.9618 8.52462 72.4846 8.65057V8.71023C72.8525 8.77651 73.1839 8.93395 73.4789 9.18253C73.7739 9.42779 74.0092 9.73437 74.1848 10.1023C74.3605 10.4669 74.45 10.8646 74.4533 11.2955C74.45 11.8456 74.3008 12.3362 74.0059 12.767C73.7142 13.1946 73.3082 13.531 72.7878 13.7763C72.2708 14.0182 71.6725 14.1392 70.9931 14.1392ZM70.9931 13.0455C71.4538 13.0455 71.8515 12.9709 72.1863 12.8217C72.521 12.6726 72.7795 12.4621 72.9618 12.1903C73.1441 11.9186 73.2369 11.6004 73.2402 11.2358C73.2369 10.8513 73.1375 10.5116 72.9419 10.2166C72.7464 9.92164 72.4796 9.68963 72.1415 9.5206C71.8068 9.35156 71.4239 9.26705 70.9931 9.26705C70.5589 9.26705 70.1711 9.35156 69.8297 9.5206C69.4917 9.68963 69.2248 9.92164 69.0293 10.2166C68.8371 10.5116 68.7426 10.8513 68.7459 11.2358C68.7426 11.6004 68.8304 11.9186 69.0094 12.1903C69.1917 12.4621 69.4519 12.6726 69.79 12.8217C70.128 12.9709 70.5291 13.0455 70.9931 13.0455ZM70.9931 8.21307C71.3577 8.21307 71.6808 8.14015 71.9625 7.99432C72.2476 7.84848 72.4713 7.64465 72.6337 7.38281C72.7961 7.12098 72.879 6.81439 72.8823 6.46307C72.879 6.11837 72.7978 5.81842 72.6387 5.56321C72.4796 5.30469 72.2592 5.10582 71.9775 4.96662C71.6957 4.8241 71.3676 4.75284 70.9931 4.75284C70.6119 4.75284 70.2788 4.8241 69.9938 4.96662C69.7087 5.10582 69.4883 5.30469 69.3326 5.56321C69.1768 5.81842 69.1006 6.11837 69.1039 6.46307C69.1006 6.81439 69.1784 7.12098 69.3375 7.38281C69.4999 7.64465 69.7237 7.84848 70.0087 7.99432C70.2937 8.14015 70.6219 8.21307 70.9931 8.21307ZM79.6001 3.67898C80.0178 3.68229 80.4354 3.76184 80.853 3.91761C81.2706 4.07339 81.6518 4.33191 81.9964 4.69318C82.3411 5.05114 82.6179 5.54001 82.8267 6.1598C83.0355 6.77959 83.1399 7.55682 83.1399 8.49148C83.1399 9.39631 83.0537 10.2 82.8814 10.9027C82.7124 11.602 82.4671 12.192 82.1456 12.6726C81.8274 13.1532 81.4396 13.5178 80.9822 13.7663C80.5282 14.0149 80.0144 14.1392 79.4411 14.1392C78.871 14.1392 78.3622 14.0265 77.9148 13.8011C77.4706 13.5724 77.1061 13.2559 76.821 12.8516C76.5393 12.4439 76.3587 11.9716 76.2791 11.4347H77.4922C77.6016 11.902 77.8187 12.2881 78.1435 12.593C78.4716 12.8946 78.9041 13.0455 79.4411 13.0455C80.2266 13.0455 80.8464 12.7024 81.3004 12.0163C81.7578 11.3303 81.9865 10.3608 81.9865 9.10795H81.907C81.7214 9.38636 81.5009 9.62666 81.2457 9.82884C80.9905 10.031 80.7071 10.1868 80.3956 10.2962C80.084 10.4055 79.7526 10.4602 79.4013 10.4602C78.8179 10.4602 78.2827 10.3161 77.7955 10.0277C77.3116 9.73603 76.9238 9.33665 76.6321 8.82955C76.3438 8.31913 76.1996 7.7358 76.1996 7.07955C76.1996 6.45644 76.3388 5.88636 76.6172 5.36932C76.8989 4.84896 77.2933 4.43466 77.8004 4.12642C78.3108 3.81818 78.9107 3.66903 79.6001 3.67898ZM79.6001 4.77273C79.1825 4.77273 78.8063 4.87713 78.4716 5.08594C78.1402 5.29143 77.8767 5.56984 77.6811 5.92116C77.4889 6.26918 77.3928 6.6553 77.3928 7.07955C77.3928 7.50379 77.4856 7.88991 77.6712 8.23793C77.8601 8.58262 78.117 8.85772 78.4418 9.06321C78.7699 9.26539 79.1428 9.36648 79.5604 9.36648C79.8752 9.36648 80.1686 9.30516 80.4403 9.18253C80.7121 9.05658 80.9491 8.88589 81.1513 8.67045C81.3568 8.4517 81.5175 8.20478 81.6335 7.92969C81.7495 7.65128 81.8075 7.36127 81.8075 7.05966C81.8075 6.66193 81.7114 6.28906 81.5192 5.94105C81.3303 5.59304 81.0684 5.31132 80.7337 5.09588C80.4022 4.88044 80.0244 4.77273 79.6001 4.77273Z" fill="black"/>
</g>
<defs>
<clipPath id="clip0_0_1184">
<rect width="150" height="50" fill="white"/>
</clipPath>
</defs>
</svg>
