<svg width="150" height="80" viewBox="0 0 150 80" fill="none" xmlns="http://www.w3.org/2000/svg">
<g clip-path="url(#clip0_0_1015)">
<rect width="150" height="80" fill="white"/>
<path d="M118.824 37H117.532L121.27 26.8182H122.543L126.282 37H124.989L121.947 28.429H121.867L118.824 37ZM119.302 33.0227H124.512V34.1165H119.302V33.0227ZM128.882 26.8182V37H127.709V26.8182H128.882ZM131.031 37V29.3636H132.204V37H131.031ZM131.627 28.0909C131.399 28.0909 131.202 28.013 131.036 27.8572C130.873 27.7015 130.792 27.5142 130.792 27.2955C130.792 27.0767 130.873 26.8894 131.036 26.7337C131.202 26.5779 131.399 26.5 131.627 26.5C131.856 26.5 132.052 26.5779 132.214 26.7337C132.38 26.8894 132.463 27.0767 132.463 27.2955C132.463 27.5142 132.38 27.7015 132.214 27.8572C132.052 28.013 131.856 28.0909 131.627 28.0909ZM137.436 40.0227C136.869 40.0227 136.382 39.9498 135.974 39.804C135.566 39.6615 135.227 39.4725 134.955 39.2372C134.686 39.0052 134.472 38.7566 134.313 38.4915L135.248 37.8352C135.354 37.9744 135.488 38.1335 135.651 38.3125C135.813 38.4948 136.035 38.6522 136.317 38.7848C136.602 38.9207 136.975 38.9886 137.436 38.9886C138.052 38.9886 138.561 38.8395 138.962 38.5412C139.363 38.2429 139.563 37.7756 139.563 37.1392V35.5881H139.464C139.378 35.7273 139.255 35.8996 139.096 36.1051C138.94 36.3073 138.715 36.4879 138.42 36.647C138.128 36.8028 137.734 36.8807 137.237 36.8807C136.62 36.8807 136.067 36.7348 135.576 36.4432C135.089 36.1515 134.703 35.7273 134.418 35.1705C134.136 34.6136 133.995 33.9375 133.995 33.142C133.995 32.3598 134.133 31.6787 134.408 31.0987C134.683 30.5154 135.066 30.0646 135.556 29.7464C136.047 29.425 136.614 29.2642 137.257 29.2642C137.754 29.2642 138.148 29.3471 138.44 29.5128C138.735 29.6752 138.96 29.8608 139.116 30.0696C139.275 30.2751 139.398 30.4441 139.484 30.5767H139.603V29.3636H140.737V37.2188C140.737 37.875 140.588 38.4086 140.289 38.8196C139.994 39.2339 139.597 39.5372 139.096 39.7294C138.599 39.925 138.045 40.0227 137.436 40.0227ZM137.396 35.8267C137.866 35.8267 138.264 35.719 138.589 35.5036C138.914 35.2881 139.161 34.9782 139.33 34.5739C139.499 34.1695 139.583 33.6856 139.583 33.1222C139.583 32.572 139.5 32.0864 139.335 31.6655C139.169 31.2446 138.924 30.9148 138.599 30.6761C138.274 30.4375 137.873 30.3182 137.396 30.3182C136.899 30.3182 136.484 30.4441 136.153 30.696C135.825 30.9479 135.578 31.286 135.412 31.7102C135.25 32.1345 135.169 32.6051 135.169 33.1222C135.169 33.6525 135.251 34.1214 135.417 34.5291C135.586 34.9335 135.835 35.2517 136.163 35.4837C136.494 35.7124 136.905 35.8267 137.396 35.8267ZM144.058 32.4062V37H142.884V29.3636H144.018V30.5568H144.117C144.296 30.169 144.568 29.8575 144.933 29.6222C145.297 29.3835 145.768 29.2642 146.345 29.2642C146.862 29.2642 147.314 29.3703 147.702 29.5824C148.09 29.7912 148.391 30.1094 148.607 30.5369C148.822 30.9612 148.93 31.4981 148.93 32.1477V37H147.757V32.2273C147.757 31.6274 147.601 31.16 147.289 30.8253C146.978 30.4872 146.55 30.3182 146.007 30.3182C145.632 30.3182 145.297 30.3994 145.002 30.5618C144.711 30.7242 144.48 30.9612 144.311 31.2727C144.142 31.5843 144.058 31.9621 144.058 32.4062ZM122.252 44.9119V43.8182H129.889V44.9119H126.687V54H125.454V44.9119H122.252ZM133.727 54.1591C132.991 54.1591 132.356 53.9967 131.823 53.6719C131.292 53.3438 130.883 52.8864 130.595 52.2997C130.31 51.7098 130.167 51.0237 130.167 50.2415C130.167 49.4593 130.31 48.7699 130.595 48.1733C130.883 47.5734 131.284 47.1061 131.798 46.7713C132.315 46.4332 132.918 46.2642 133.607 46.2642C134.005 46.2642 134.398 46.3305 134.786 46.4631C135.173 46.5956 135.526 46.8111 135.845 47.1094C136.163 47.4044 136.416 47.7955 136.605 48.2827C136.794 48.7699 136.889 49.3698 136.889 50.0824V50.5795H131.002V49.5653H135.695C135.695 49.1345 135.609 48.75 135.437 48.4119C135.268 48.0739 135.026 47.8071 134.711 47.6115C134.4 47.416 134.032 47.3182 133.607 47.3182C133.14 47.3182 132.736 47.4342 132.394 47.6662C132.056 47.8949 131.796 48.1932 131.614 48.5611C131.432 48.929 131.34 49.3234 131.34 49.7443V50.4205C131.34 50.9972 131.44 51.486 131.639 51.8871C131.841 52.2848 132.121 52.5881 132.479 52.7969C132.837 53.0024 133.253 53.1051 133.727 53.1051C134.035 53.1051 134.313 53.062 134.562 52.9759C134.814 52.8864 135.031 52.7538 135.213 52.5781C135.396 52.3991 135.536 52.1771 135.636 51.9119L136.769 52.2301C136.65 52.6146 136.45 52.9527 136.168 53.2443C135.886 53.5327 135.538 53.758 135.124 53.9205C134.709 54.0795 134.244 54.1591 133.727 54.1591ZM144.083 48.0739L143.029 48.3722C142.962 48.1965 142.865 48.0258 142.735 47.8601C142.609 47.6911 142.437 47.5518 142.218 47.4425C141.999 47.3331 141.719 47.2784 141.378 47.2784C140.911 47.2784 140.521 47.3861 140.21 47.6016C139.901 47.8137 139.747 48.0838 139.747 48.4119C139.747 48.7036 139.853 48.9339 140.066 49.103C140.278 49.272 140.609 49.4129 141.06 49.5256L142.193 49.804C142.876 49.9697 143.385 50.2232 143.72 50.5646C144.054 50.9027 144.222 51.3385 144.222 51.8722C144.222 52.3097 144.096 52.7008 143.844 53.0455C143.595 53.3902 143.247 53.6619 142.8 53.8608C142.352 54.0597 141.832 54.1591 141.239 54.1591C140.46 54.1591 139.815 53.9901 139.305 53.652C138.794 53.3139 138.471 52.8201 138.335 52.1705L139.449 51.892C139.555 52.303 139.756 52.6113 140.051 52.8168C140.349 53.0223 140.738 53.125 141.219 53.125C141.766 53.125 142.2 53.009 142.521 52.777C142.846 52.5417 143.009 52.2599 143.009 51.9318C143.009 51.6667 142.916 51.4446 142.73 51.2656C142.545 51.0833 142.26 50.9474 141.875 50.858L140.602 50.5597C139.903 50.3939 139.389 50.1371 139.061 49.7891C138.736 49.4377 138.574 48.9986 138.574 48.4716C138.574 48.0407 138.695 47.6596 138.937 47.3281C139.182 46.9967 139.515 46.7365 139.936 46.5476C140.36 46.3587 140.841 46.2642 141.378 46.2642C142.134 46.2642 142.727 46.4299 143.158 46.7614C143.592 47.0928 143.9 47.5303 144.083 48.0739ZM149.309 46.3636V47.358H145.352V46.3636H149.309ZM146.505 44.5341H147.678V51.8125C147.678 52.1439 147.726 52.3925 147.822 52.5582C147.922 52.7206 148.048 52.83 148.2 52.8864C148.356 52.9394 148.52 52.9659 148.692 52.9659C148.822 52.9659 148.928 52.9593 149.011 52.946C149.094 52.9295 149.16 52.9162 149.21 52.9062L149.448 53.9602C149.369 53.9901 149.258 54.0199 149.115 54.0497C148.973 54.0829 148.792 54.0994 148.573 54.0994C148.242 54.0994 147.917 54.0282 147.599 53.8857C147.284 53.7431 147.022 53.526 146.813 53.2344C146.608 52.9427 146.505 52.5748 146.505 52.1307V44.5341Z" fill="black"/>
</g>
<defs>
<clipPath id="clip0_0_1015">
<rect width="150" height="80" fill="white"/>
</clipPath>
</defs>
</svg>
