<svg width="150" height="80" viewBox="0 0 150 80" fill="none" xmlns="http://www.w3.org/2000/svg">
<g clip-path="url(#clip0_0_1013)">
<rect width="150" height="80" fill="white"/>
<path d="M118.824 14H117.532L121.27 3.81818H122.543L126.282 14H124.989L121.947 5.42898H121.867L118.824 14ZM119.302 10.0227H124.512V11.1165H119.302V10.0227ZM128.882 3.81818V14H127.709V3.81818H128.882ZM131.031 14V6.36364H132.204V14H131.031ZM131.627 5.09091C131.399 5.09091 131.202 5.01302 131.036 4.85724C130.873 4.70147 130.792 4.5142 130.792 4.29545C130.792 4.0767 130.873 3.88944 131.036 3.73366C131.202 3.57789 131.399 3.5 131.627 3.5C131.856 3.5 132.052 3.57789 132.214 3.73366C132.38 3.88944 132.463 4.0767 132.463 4.29545C132.463 4.5142 132.38 4.70147 132.214 4.85724C132.052 5.01302 131.856 5.09091 131.627 5.09091ZM137.436 17.0227C136.869 17.0227 136.382 16.9498 135.974 16.804C135.566 16.6615 135.227 16.4725 134.955 16.2372C134.686 16.0052 134.472 15.7566 134.313 15.4915L135.248 14.8352C135.354 14.9744 135.488 15.1335 135.651 15.3125C135.813 15.4948 136.035 15.6522 136.317 15.7848C136.602 15.9207 136.975 15.9886 137.436 15.9886C138.052 15.9886 138.561 15.8395 138.962 15.5412C139.363 15.2429 139.563 14.7756 139.563 14.1392V12.5881H139.464C139.378 12.7273 139.255 12.8996 139.096 13.1051C138.94 13.3073 138.715 13.4879 138.42 13.647C138.128 13.8028 137.734 13.8807 137.237 13.8807C136.62 13.8807 136.067 13.7348 135.576 13.4432C135.089 13.1515 134.703 12.7273 134.418 12.1705C134.136 11.6136 133.995 10.9375 133.995 10.142C133.995 9.35985 134.133 8.67874 134.408 8.09872C134.683 7.51539 135.066 7.06463 135.556 6.74645C136.047 6.42495 136.614 6.2642 137.257 6.2642C137.754 6.2642 138.148 6.34706 138.44 6.51278C138.735 6.67519 138.96 6.8608 139.116 7.0696C139.275 7.27509 139.398 7.44413 139.484 7.5767H139.603V6.36364H140.737V14.2188C140.737 14.875 140.588 15.4086 140.289 15.8196C139.994 16.2339 139.597 16.5372 139.096 16.7294C138.599 16.925 138.045 17.0227 137.436 17.0227ZM137.396 12.8267C137.866 12.8267 138.264 12.719 138.589 12.5036C138.914 12.2881 139.161 11.9782 139.33 11.5739C139.499 11.1695 139.583 10.6856 139.583 10.1222C139.583 9.57197 139.5 9.08641 139.335 8.66548C139.169 8.24455 138.924 7.91477 138.599 7.67614C138.274 7.4375 137.873 7.31818 137.396 7.31818C136.899 7.31818 136.484 7.44413 136.153 7.69602C135.825 7.94792 135.578 8.28598 135.412 8.71023C135.25 9.13447 135.169 9.60511 135.169 10.1222C135.169 10.6525 135.251 11.1214 135.417 11.5291C135.586 11.9335 135.835 12.2517 136.163 12.4837C136.494 12.7124 136.905 12.8267 137.396 12.8267ZM144.058 9.40625V14H142.884V6.36364H144.018V7.55682H144.117C144.296 7.16903 144.568 6.85748 144.933 6.62216C145.297 6.38352 145.768 6.2642 146.345 6.2642C146.862 6.2642 147.314 6.37027 147.702 6.58239C148.09 6.79119 148.391 7.10938 148.607 7.53693C148.822 7.96117 148.93 8.49811 148.93 9.14773V14H147.757V9.22727C147.757 8.62737 147.601 8.16004 147.289 7.82528C146.978 7.48722 146.55 7.31818 146.007 7.31818C145.632 7.31818 145.297 7.39938 145.002 7.56179C144.711 7.72419 144.48 7.96117 144.311 8.27273C144.142 8.58428 144.058 8.96212 144.058 9.40625ZM122.252 21.9119V20.8182H129.889V21.9119H126.687V31H125.454V21.9119H122.252ZM133.727 31.1591C132.991 31.1591 132.356 30.9967 131.823 30.6719C131.292 30.3438 130.883 29.8864 130.595 29.2997C130.31 28.7098 130.167 28.0237 130.167 27.2415C130.167 26.4593 130.31 25.7699 130.595 25.1733C130.883 24.5734 131.284 24.1061 131.798 23.7713C132.315 23.4332 132.918 23.2642 133.607 23.2642C134.005 23.2642 134.398 23.3305 134.786 23.4631C135.173 23.5956 135.526 23.8111 135.845 24.1094C136.163 24.4044 136.416 24.7955 136.605 25.2827C136.794 25.7699 136.889 26.3698 136.889 27.0824V27.5795H131.002V26.5653H135.695C135.695 26.1345 135.609 25.75 135.437 25.4119C135.268 25.0739 135.026 24.8071 134.711 24.6115C134.4 24.416 134.032 24.3182 133.607 24.3182C133.14 24.3182 132.736 24.4342 132.394 24.6662C132.056 24.8949 131.796 25.1932 131.614 25.5611C131.432 25.929 131.34 26.3234 131.34 26.7443V27.4205C131.34 27.9972 131.44 28.486 131.639 28.8871C131.841 29.2848 132.121 29.5881 132.479 29.7969C132.837 30.0024 133.253 30.1051 133.727 30.1051C134.035 30.1051 134.313 30.062 134.562 29.9759C134.814 29.8864 135.031 29.7538 135.213 29.5781C135.396 29.3991 135.536 29.1771 135.636 28.9119L136.769 29.2301C136.65 29.6146 136.45 29.9527 136.168 30.2443C135.886 30.5327 135.538 30.758 135.124 30.9205C134.709 31.0795 134.244 31.1591 133.727 31.1591ZM144.083 25.0739L143.029 25.3722C142.962 25.1965 142.865 25.0258 142.735 24.8601C142.609 24.6911 142.437 24.5518 142.218 24.4425C141.999 24.3331 141.719 24.2784 141.378 24.2784C140.911 24.2784 140.521 24.3861 140.21 24.6016C139.901 24.8137 139.747 25.0838 139.747 25.4119C139.747 25.7036 139.853 25.9339 140.066 26.103C140.278 26.272 140.609 26.4129 141.06 26.5256L142.193 26.804C142.876 26.9697 143.385 27.2232 143.72 27.5646C144.054 27.9027 144.222 28.3385 144.222 28.8722C144.222 29.3097 144.096 29.7008 143.844 30.0455C143.595 30.3902 143.247 30.6619 142.8 30.8608C142.352 31.0597 141.832 31.1591 141.239 31.1591C140.46 31.1591 139.815 30.9901 139.305 30.652C138.794 30.3139 138.471 29.8201 138.335 29.1705L139.449 28.892C139.555 29.303 139.756 29.6113 140.051 29.8168C140.349 30.0223 140.738 30.125 141.219 30.125C141.766 30.125 142.2 30.009 142.521 29.777C142.846 29.5417 143.009 29.2599 143.009 28.9318C143.009 28.6667 142.916 28.4446 142.73 28.2656C142.545 28.0833 142.26 27.9474 141.875 27.858L140.602 27.5597C139.903 27.3939 139.389 27.1371 139.061 26.7891C138.736 26.4377 138.574 25.9986 138.574 25.4716C138.574 25.0407 138.695 24.6596 138.937 24.3281C139.182 23.9967 139.515 23.7365 139.936 23.5476C140.36 23.3587 140.841 23.2642 141.378 23.2642C142.134 23.2642 142.727 23.4299 143.158 23.7614C143.592 24.0928 143.9 24.5303 144.083 25.0739ZM149.309 23.3636V24.358H145.352V23.3636H149.309ZM146.505 21.5341H147.678V28.8125C147.678 29.1439 147.726 29.3925 147.822 29.5582C147.922 29.7206 148.048 29.83 148.2 29.8864C148.356 29.9394 148.52 29.9659 148.692 29.9659C148.822 29.9659 148.928 29.9593 149.011 29.946C149.094 29.9295 149.16 29.9162 149.21 29.9062L149.448 30.9602C149.369 30.9901 149.258 31.0199 149.115 31.0497C148.973 31.0829 148.792 31.0994 148.573 31.0994C148.242 31.0994 147.917 31.0282 147.599 30.8857C147.284 30.7431 147.022 30.526 146.813 30.2344C146.608 29.9427 146.505 29.5748 146.505 29.1307V21.5341Z" fill="black"/>
</g>
<defs>
<clipPath id="clip0_0_1013">
<rect width="150" height="80" fill="white"/>
</clipPath>
</defs>
</svg>
