<svg width="150" height="80" viewBox="0 0 150 80" fill="none" xmlns="http://www.w3.org/2000/svg">
<g clip-path="url(#clip0_0_1017)">
<rect width="150" height="80" fill="white"/>
<path d="M118.824 60H117.532L121.27 49.8182H122.543L126.282 60H124.989L121.947 51.429H121.867L118.824 60ZM119.302 56.0227H124.512V57.1165H119.302V56.0227ZM128.882 49.8182V60H127.709V49.8182H128.882ZM131.031 60V52.3636H132.204V60H131.031ZM131.627 51.0909C131.399 51.0909 131.202 51.013 131.036 50.8572C130.873 50.7015 130.792 50.5142 130.792 50.2955C130.792 50.0767 130.873 49.8894 131.036 49.7337C131.202 49.5779 131.399 49.5 131.627 49.5C131.856 49.5 132.052 49.5779 132.214 49.7337C132.38 49.8894 132.463 50.0767 132.463 50.2955C132.463 50.5142 132.38 50.7015 132.214 50.8572C132.052 51.013 131.856 51.0909 131.627 51.0909ZM137.436 63.0227C136.869 63.0227 136.382 62.9498 135.974 62.804C135.566 62.6615 135.227 62.4725 134.955 62.2372C134.686 62.0052 134.472 61.7566 134.313 61.4915L135.248 60.8352C135.354 60.9744 135.488 61.1335 135.651 61.3125C135.813 61.4948 136.035 61.6522 136.317 61.7848C136.602 61.9207 136.975 61.9886 137.436 61.9886C138.052 61.9886 138.561 61.8395 138.962 61.5412C139.363 61.2429 139.563 60.7756 139.563 60.1392V58.5881H139.464C139.378 58.7273 139.255 58.8996 139.096 59.1051C138.94 59.3073 138.715 59.4879 138.42 59.647C138.128 59.8028 137.734 59.8807 137.237 59.8807C136.62 59.8807 136.067 59.7348 135.576 59.4432C135.089 59.1515 134.703 58.7273 134.418 58.1705C134.136 57.6136 133.995 56.9375 133.995 56.142C133.995 55.3598 134.133 54.6787 134.408 54.0987C134.683 53.5154 135.066 53.0646 135.556 52.7464C136.047 52.425 136.614 52.2642 137.257 52.2642C137.754 52.2642 138.148 52.3471 138.44 52.5128C138.735 52.6752 138.96 52.8608 139.116 53.0696C139.275 53.2751 139.398 53.4441 139.484 53.5767H139.603V52.3636H140.737V60.2188C140.737 60.875 140.588 61.4086 140.289 61.8196C139.994 62.2339 139.597 62.5372 139.096 62.7294C138.599 62.925 138.045 63.0227 137.436 63.0227ZM137.396 58.8267C137.866 58.8267 138.264 58.719 138.589 58.5036C138.914 58.2881 139.161 57.9782 139.33 57.5739C139.499 57.1695 139.583 56.6856 139.583 56.1222C139.583 55.572 139.5 55.0864 139.335 54.6655C139.169 54.2446 138.924 53.9148 138.599 53.6761C138.274 53.4375 137.873 53.3182 137.396 53.3182C136.899 53.3182 136.484 53.4441 136.153 53.696C135.825 53.9479 135.578 54.286 135.412 54.7102C135.25 55.1345 135.169 55.6051 135.169 56.1222C135.169 56.6525 135.251 57.1214 135.417 57.5291C135.586 57.9335 135.835 58.2517 136.163 58.4837C136.494 58.7124 136.905 58.8267 137.396 58.8267ZM144.058 55.4062V60H142.884V52.3636H144.018V53.5568H144.117C144.296 53.169 144.568 52.8575 144.933 52.6222C145.297 52.3835 145.768 52.2642 146.345 52.2642C146.862 52.2642 147.314 52.3703 147.702 52.5824C148.09 52.7912 148.391 53.1094 148.607 53.5369C148.822 53.9612 148.93 54.4981 148.93 55.1477V60H147.757V55.2273C147.757 54.6274 147.601 54.16 147.289 53.8253C146.978 53.4872 146.55 53.3182 146.007 53.3182C145.632 53.3182 145.297 53.3994 145.002 53.5618C144.711 53.7242 144.48 53.9612 144.311 54.2727C144.142 54.5843 144.058 54.9621 144.058 55.4062ZM122.252 67.9119V66.8182H129.889V67.9119H126.687V77H125.454V67.9119H122.252ZM133.727 77.1591C132.991 77.1591 132.356 76.9967 131.823 76.6719C131.292 76.3438 130.883 75.8864 130.595 75.2997C130.31 74.7098 130.167 74.0237 130.167 73.2415C130.167 72.4593 130.31 71.7699 130.595 71.1733C130.883 70.5734 131.284 70.1061 131.798 69.7713C132.315 69.4332 132.918 69.2642 133.607 69.2642C134.005 69.2642 134.398 69.3305 134.786 69.4631C135.173 69.5956 135.526 69.8111 135.845 70.1094C136.163 70.4044 136.416 70.7955 136.605 71.2827C136.794 71.7699 136.889 72.3698 136.889 73.0824V73.5795H131.002V72.5653H135.695C135.695 72.1345 135.609 71.75 135.437 71.4119C135.268 71.0739 135.026 70.8071 134.711 70.6115C134.4 70.416 134.032 70.3182 133.607 70.3182C133.14 70.3182 132.736 70.4342 132.394 70.6662C132.056 70.8949 131.796 71.1932 131.614 71.5611C131.432 71.929 131.34 72.3234 131.34 72.7443V73.4205C131.34 73.9972 131.44 74.486 131.639 74.8871C131.841 75.2848 132.121 75.5881 132.479 75.7969C132.837 76.0024 133.253 76.1051 133.727 76.1051C134.035 76.1051 134.313 76.062 134.562 75.9759C134.814 75.8864 135.031 75.7538 135.213 75.5781C135.396 75.3991 135.536 75.1771 135.636 74.9119L136.769 75.2301C136.65 75.6146 136.45 75.9527 136.168 76.2443C135.886 76.5327 135.538 76.758 135.124 76.9205C134.709 77.0795 134.244 77.1591 133.727 77.1591ZM144.083 71.0739L143.029 71.3722C142.962 71.1965 142.865 71.0258 142.735 70.8601C142.609 70.6911 142.437 70.5518 142.218 70.4425C141.999 70.3331 141.719 70.2784 141.378 70.2784C140.911 70.2784 140.521 70.3861 140.21 70.6016C139.901 70.8137 139.747 71.0838 139.747 71.4119C139.747 71.7036 139.853 71.9339 140.066 72.103C140.278 72.272 140.609 72.4129 141.06 72.5256L142.193 72.804C142.876 72.9697 143.385 73.2232 143.72 73.5646C144.054 73.9027 144.222 74.3385 144.222 74.8722C144.222 75.3097 144.096 75.7008 143.844 76.0455C143.595 76.3902 143.247 76.6619 142.8 76.8608C142.352 77.0597 141.832 77.1591 141.239 77.1591C140.46 77.1591 139.815 76.9901 139.305 76.652C138.794 76.3139 138.471 75.8201 138.335 75.1705L139.449 74.892C139.555 75.303 139.756 75.6113 140.051 75.8168C140.349 76.0223 140.738 76.125 141.219 76.125C141.766 76.125 142.2 76.009 142.521 75.777C142.846 75.5417 143.009 75.2599 143.009 74.9318C143.009 74.6667 142.916 74.4446 142.73 74.2656C142.545 74.0833 142.26 73.9474 141.875 73.858L140.602 73.5597C139.903 73.3939 139.389 73.1371 139.061 72.7891C138.736 72.4377 138.574 71.9986 138.574 71.4716C138.574 71.0407 138.695 70.6596 138.937 70.3281C139.182 69.9967 139.515 69.7365 139.936 69.5476C140.36 69.3587 140.841 69.2642 141.378 69.2642C142.134 69.2642 142.727 69.4299 143.158 69.7614C143.592 70.0928 143.9 70.5303 144.083 71.0739ZM149.309 69.3636V70.358H145.352V69.3636H149.309ZM146.505 67.5341H147.678V74.8125C147.678 75.1439 147.726 75.3925 147.822 75.5582C147.922 75.7206 148.048 75.83 148.2 75.8864C148.356 75.9394 148.52 75.9659 148.692 75.9659C148.822 75.9659 148.928 75.9593 149.011 75.946C149.094 75.9295 149.16 75.9162 149.21 75.9062L149.448 76.9602C149.369 76.9901 149.258 77.0199 149.115 77.0497C148.973 77.0829 148.792 77.0994 148.573 77.0994C148.242 77.0994 147.917 77.0282 147.599 76.8857C147.284 76.7431 147.022 76.526 146.813 76.2344C146.608 75.9427 146.505 75.5748 146.505 75.1307V67.5341Z" fill="black"/>
</g>
<defs>
<clipPath id="clip0_0_1017">
<rect width="150" height="80" fill="white"/>
</clipPath>
</defs>
</svg>
