<svg width="200" height="42" viewBox="0 0 200 42" fill="none" xmlns="http://www.w3.org/2000/svg">
<rect width="200" height="42" fill="white"/>
<path d="M2.46591 27V6.63636H14.6761V8.82386H4.93182V15.7045H13.7614V17.892H4.93182V27H2.46591ZM23.6648 27.3182C22.286 27.3182 21.0762 26.9901 20.0355 26.3338C19.0014 25.6776 18.1927 24.7595 17.6094 23.5795C17.0327 22.3996 16.7443 21.0208 16.7443 19.4432C16.7443 17.8523 17.0327 16.4635 17.6094 15.277C18.1927 14.0904 19.0014 13.169 20.0355 12.5128C21.0762 11.8565 22.286 11.5284 23.6648 11.5284C25.0436 11.5284 26.25 11.8565 27.2841 12.5128C28.3248 13.169 29.1335 14.0904 29.7102 15.277C30.2936 16.4635 30.5852 17.8523 30.5852 19.4432C30.5852 21.0208 30.2936 22.3996 29.7102 23.5795C29.1335 24.7595 28.3248 25.6776 27.2841 26.3338C26.25 26.9901 25.0436 27.3182 23.6648 27.3182ZM23.6648 25.2102C24.7121 25.2102 25.5739 24.9418 26.25 24.4048C26.9261 23.8679 27.4266 23.1619 27.7514 22.2869C28.0762 21.4119 28.2386 20.464 28.2386 19.4432C28.2386 18.4223 28.0762 17.4711 27.7514 16.5895C27.4266 15.7079 26.9261 14.9953 26.25 14.4517C25.5739 13.9081 24.7121 13.6364 23.6648 13.6364C22.6174 13.6364 21.7557 13.9081 21.0795 14.4517C20.4034 14.9953 19.9029 15.7079 19.5781 16.5895C19.2533 17.4711 19.0909 18.4223 19.0909 19.4432C19.0909 20.464 19.2533 21.4119 19.5781 22.2869C19.9029 23.1619 20.4034 23.8679 21.0795 24.4048C21.7557 24.9418 22.6174 25.2102 23.6648 25.2102ZM36.5138 17.8125V27H34.1673V11.7273H36.4343V14.1136H36.6332C36.9911 13.3381 37.5347 12.715 38.2638 12.2443C38.993 11.767 39.9343 11.5284 41.0877 11.5284C42.1218 11.5284 43.0266 11.7405 43.8022 12.1648C44.5778 12.5824 45.181 13.2188 45.6119 14.0739C46.0427 14.9223 46.2582 15.9962 46.2582 17.2955V27H43.9116V17.4545C43.9116 16.2547 43.6 15.3201 42.9769 14.6506C42.3538 13.9744 41.4987 13.6364 40.4116 13.6364C39.6625 13.6364 38.993 13.7988 38.4031 14.1236C37.8197 14.4484 37.359 14.9223 37.021 15.5455C36.6829 16.1686 36.5138 16.9242 36.5138 17.8125ZM57.1882 11.7273V13.7159H49.2734V11.7273H57.1882ZM51.5803 8.06818H53.9268V22.625C53.9268 23.2879 54.023 23.785 54.2152 24.1165C54.4141 24.4413 54.666 24.66 54.9709 24.7727C55.2824 24.8788 55.6106 24.9318 55.9553 24.9318C56.2138 24.9318 56.4259 24.9186 56.5916 24.892C56.7573 24.8589 56.8899 24.8324 56.9893 24.8125L57.4666 26.9205C57.3075 26.9801 57.0855 27.0398 56.8004 27.0994C56.5154 27.1657 56.1541 27.1989 55.7166 27.1989C55.0537 27.1989 54.4041 27.0563 53.7678 26.7713C53.138 26.4863 52.6143 26.0521 52.1967 25.4688C51.7857 24.8854 51.5803 24.1496 51.5803 23.2614V8.06818ZM68.5533 27V25.2102L75.2749 17.8523C76.0637 16.9905 76.7133 16.2415 77.2237 15.6051C77.7341 14.9621 78.112 14.3589 78.3572 13.7955C78.6091 13.2254 78.7351 12.6288 78.7351 12.0057C78.7351 11.2898 78.5627 10.67 78.218 10.1463C77.88 9.62263 77.416 9.21828 76.826 8.93324C76.236 8.6482 75.5732 8.50568 74.8374 8.50568C74.0552 8.50568 73.3724 8.66809 72.7891 8.9929C72.2124 9.31108 71.7649 9.75852 71.4467 10.3352C71.1352 10.9119 70.9794 11.5881 70.9794 12.3636H68.6328C68.6328 11.1705 68.9079 10.1231 69.4581 9.22159C70.0083 8.32007 70.7573 7.61742 71.7053 7.11364C72.6598 6.60985 73.7304 6.35795 74.9169 6.35795C76.1101 6.35795 77.1674 6.60985 78.0888 7.11364C79.0102 7.61742 79.7327 8.29687 80.2564 9.15199C80.7801 10.0071 81.0419 10.9583 81.0419 12.0057C81.0419 12.7547 80.906 13.4872 80.6342 14.2031C80.3691 14.9124 79.9051 15.7045 79.2422 16.5795C78.5859 17.4479 77.6745 18.5085 76.5078 19.7614L71.9339 24.6534V24.8125H81.3999V27H68.5533ZM92.0291 27.2784C90.6636 27.2784 89.4571 27.0365 88.4098 26.5526C87.3691 26.062 86.5571 25.3892 85.9737 24.5341C85.3904 23.6723 85.102 22.6913 85.1087 21.5909C85.102 20.7292 85.2711 19.9337 85.6158 19.2045C85.9605 18.4687 86.4311 17.8556 87.0277 17.3651C87.6309 16.8679 88.3037 16.553 89.0462 16.4205V16.3011C88.0717 16.0492 87.2962 15.5024 86.7195 14.6605C86.1428 13.812 85.8577 12.8475 85.8643 11.767C85.8577 10.733 86.1196 9.80824 86.6499 8.9929C87.1802 8.17756 87.9093 7.53456 88.8374 7.06392C89.772 6.59328 90.8359 6.35795 92.0291 6.35795C93.209 6.35795 94.263 6.59328 95.1911 7.06392C96.1191 7.53456 96.8482 8.17756 97.3786 8.9929C97.9155 9.80824 98.1873 10.733 98.1939 11.767C98.1873 12.8475 97.8923 13.812 97.3089 14.6605C96.7322 15.5024 95.9666 16.0492 95.0121 16.3011V16.4205C95.7479 16.553 96.4107 16.8679 97.0007 17.3651C97.5907 17.8556 98.0613 18.4687 98.4126 19.2045C98.764 19.9337 98.9429 20.7292 98.9496 21.5909C98.9429 22.6913 98.6446 23.6723 98.0547 24.5341C97.4714 25.3892 96.6593 26.062 95.6186 26.5526C94.5845 27.0365 93.388 27.2784 92.0291 27.2784ZM92.0291 25.0909C92.9505 25.0909 93.746 24.9418 94.4155 24.6435C95.085 24.3452 95.602 23.9242 95.9666 23.3807C96.3312 22.8371 96.5168 22.2008 96.5234 21.4716C96.5168 20.7027 96.3179 20.0232 95.9268 19.4332C95.5357 18.8433 95.0021 18.3793 94.326 18.0412C93.6565 17.7031 92.8909 17.5341 92.0291 17.5341C91.1607 17.5341 90.3852 17.7031 89.7024 18.0412C89.0263 18.3793 88.4927 18.8433 88.1016 19.4332C87.7171 20.0232 87.5282 20.7027 87.5348 21.4716C87.5282 22.2008 87.7038 22.8371 88.0618 23.3807C88.4264 23.9242 88.9467 24.3452 89.6229 24.6435C90.299 24.9418 91.1011 25.0909 92.0291 25.0909ZM92.0291 15.4261C92.7583 15.4261 93.4046 15.2803 93.968 14.9886C94.5381 14.697 94.9856 14.2893 95.3104 13.7656C95.6352 13.242 95.8009 12.6288 95.8075 11.9261C95.8009 11.2367 95.6385 10.6368 95.3203 10.1264C95.0021 9.60937 94.5613 9.21165 93.9979 8.93324C93.4344 8.6482 92.7782 8.50568 92.0291 8.50568C91.2668 8.50568 90.6006 8.6482 90.0305 8.93324C89.4605 9.21165 89.0196 9.60937 88.7081 10.1264C88.3965 10.6368 88.2441 11.2367 88.2507 11.9261C88.2441 12.6288 88.3999 13.242 88.718 13.7656C89.0429 14.2893 89.4903 14.697 90.0604 14.9886C90.6304 15.2803 91.2867 15.4261 92.0291 15.4261ZM102.8 32.7273V11.7273H105.067V14.1534H105.346C105.518 13.8883 105.757 13.5502 106.061 13.1392C106.373 12.7216 106.817 12.3504 107.394 12.0256C107.977 11.6941 108.766 11.5284 109.76 11.5284C111.046 11.5284 112.18 11.8499 113.161 12.4929C114.142 13.1359 114.908 14.0473 115.458 15.2273C116.008 16.4072 116.283 17.7992 116.283 19.4034C116.283 21.0208 116.008 22.4228 115.458 23.6094C114.908 24.7893 114.145 25.7041 113.171 26.3537C112.196 26.9967 111.073 27.3182 109.8 27.3182C108.819 27.3182 108.033 27.1558 107.444 26.831C106.854 26.4995 106.4 26.125 106.081 25.7074C105.763 25.2831 105.518 24.9318 105.346 24.6534H105.147V32.7273H102.8ZM105.107 19.3636C105.107 20.517 105.276 21.5346 105.614 22.4162C105.952 23.2912 106.446 23.9773 107.096 24.4744C107.745 24.965 108.541 25.2102 109.482 25.2102C110.463 25.2102 111.282 24.9517 111.938 24.4347C112.601 23.911 113.098 23.2083 113.429 22.3267C113.767 21.4384 113.936 20.4508 113.936 19.3636C113.936 18.2898 113.771 17.322 113.439 16.4602C113.114 15.5919 112.621 14.9058 111.958 14.402C111.301 13.8916 110.476 13.6364 109.482 13.6364C108.527 13.6364 107.725 13.8783 107.076 14.3622C106.426 14.8395 105.935 15.509 105.604 16.3707C105.273 17.2259 105.107 18.2235 105.107 19.3636ZM120.984 11.7273L124.643 17.9716L128.302 11.7273H131.006L126.075 19.3636L131.006 27H128.302L124.643 21.0739L120.984 27H118.279L123.131 19.3636L118.279 11.7273H120.984Z" fill="black"/>
</svg>
