<svg width="200" height="72" viewBox="0 0 200 72" fill="none" xmlns="http://www.w3.org/2000/svg">
<g clip-path="url(#clip0_0_1048)">
<rect width="200" height="72" fill="white"/>
<path d="M4.22727 47V12.0909H25.1591V15.8409H8.45455V27.6364H23.5909V31.3864H8.45455V47H4.22727ZM40.5682 47.5455C38.2045 47.5455 36.1307 46.983 34.3466 45.858C32.5739 44.733 31.1875 43.1591 30.1875 41.1364C29.1989 39.1136 28.7045 36.75 28.7045 34.0455C28.7045 31.3182 29.1989 28.9375 30.1875 26.9034C31.1875 24.8693 32.5739 23.2898 34.3466 22.1648C36.1307 21.0398 38.2045 20.4773 40.5682 20.4773C42.9318 20.4773 45 21.0398 46.7727 22.1648C48.5568 23.2898 49.9432 24.8693 50.9318 26.9034C51.9318 28.9375 52.4318 31.3182 52.4318 34.0455C52.4318 36.75 51.9318 39.1136 50.9318 41.1364C49.9432 43.1591 48.5568 44.733 46.7727 45.858C45 46.983 42.9318 47.5455 40.5682 47.5455ZM40.5682 43.9318C42.3636 43.9318 43.8409 43.4716 45 42.5511C46.1591 41.6307 47.017 40.4205 47.5739 38.9205C48.1307 37.4205 48.4091 35.7955 48.4091 34.0455C48.4091 32.2955 48.1307 30.6648 47.5739 29.1534C47.017 27.642 46.1591 26.4205 45 25.4886C43.8409 24.5568 42.3636 24.0909 40.5682 24.0909C38.7727 24.0909 37.2955 24.5568 36.1364 25.4886C34.9773 26.4205 34.1193 27.642 33.5625 29.1534C33.0057 30.6648 32.7273 32.2955 32.7273 34.0455C32.7273 35.7955 33.0057 37.4205 33.5625 38.9205C34.1193 40.4205 34.9773 41.6307 36.1364 42.5511C37.2955 43.4716 38.7727 43.9318 40.5682 43.9318ZM62.5952 31.25V47H58.5724V20.8182H62.4588V24.9091H62.7997C63.4134 23.5795 64.3452 22.5114 65.5952 21.7045C66.8452 20.8864 68.4588 20.4773 70.4361 20.4773C72.2088 20.4773 73.7599 20.8409 75.0895 21.5682C76.419 22.2841 77.4531 23.375 78.1918 24.8409C78.9304 26.2955 79.2997 28.1364 79.2997 30.3636V47H75.277V30.6364C75.277 28.5795 74.7429 26.9773 73.6747 25.8295C72.6065 24.6705 71.1406 24.0909 69.277 24.0909C67.9929 24.0909 66.8452 24.3693 65.8338 24.9261C64.8338 25.483 64.044 26.2955 63.4645 27.3636C62.8849 28.4318 62.5952 29.7273 62.5952 31.25ZM98.0369 20.8182V24.2273H84.4688V20.8182H98.0369ZM88.4233 14.5455H92.446V39.5C92.446 40.6364 92.6108 41.4886 92.9403 42.0568C93.2813 42.6136 93.7131 42.9886 94.2358 43.1818C94.7699 43.3636 95.3324 43.4545 95.9233 43.4545C96.3665 43.4545 96.7301 43.4318 97.0142 43.3864C97.2983 43.3295 97.5256 43.2841 97.696 43.25L98.5142 46.8636C98.2415 46.9659 97.8608 47.0682 97.3722 47.1705C96.8835 47.2841 96.2642 47.3409 95.5142 47.3409C94.3778 47.3409 93.2642 47.0966 92.1733 46.608C91.0938 46.1193 90.196 45.375 89.4801 44.375C88.7756 43.375 88.4233 42.1136 88.4233 40.5909V14.5455ZM2.79545 97.8409V94.3636L18.1364 70.0909H20.6591V75.4773H18.9545L7.36364 93.8182V94.0909H28.0227V97.8409H2.79545ZM19.2273 105V96.7841V95.1648V70.0909H23.25V105H19.2273ZM45.5923 105.477C43.2514 105.477 41.1832 105.062 39.3878 104.233C37.6037 103.392 36.2116 102.239 35.2116 100.773C34.2116 99.2955 33.7173 97.6136 33.7287 95.7273C33.7173 94.25 34.0071 92.8864 34.598 91.6364C35.1889 90.375 35.9957 89.3239 37.0185 88.483C38.0526 87.6307 39.206 87.0909 40.4787 86.8636V86.6591C38.8082 86.2273 37.4787 85.2898 36.4901 83.8466C35.5014 82.392 35.0128 80.7386 35.0241 78.8864C35.0128 77.1136 35.4616 75.5284 36.3707 74.1307C37.2798 72.733 38.5298 71.6307 40.1207 70.8239C41.723 70.017 43.5469 69.6136 45.5923 69.6136C47.6151 69.6136 49.4219 70.017 51.0128 70.8239C52.6037 71.6307 53.8537 72.733 54.7628 74.1307C55.6832 75.5284 56.1491 77.1136 56.1605 78.8864C56.1491 80.7386 55.6435 82.392 54.6435 83.8466C53.6548 85.2898 52.3423 86.2273 50.706 86.6591V86.8636C51.9673 87.0909 53.1037 87.6307 54.1151 88.483C55.1264 89.3239 55.9332 90.375 56.5355 91.6364C57.1378 92.8864 57.4446 94.25 57.456 95.7273C57.4446 97.6136 56.9332 99.2955 55.9219 100.773C54.9219 102.239 53.5298 103.392 51.7457 104.233C49.973 105.062 47.9219 105.477 45.5923 105.477ZM45.5923 101.727C47.1719 101.727 48.5355 101.472 49.6832 100.96C50.831 100.449 51.7173 99.7273 52.3423 98.7955C52.9673 97.8636 53.2855 96.7727 53.2969 95.5227C53.2855 94.2045 52.9446 93.0398 52.2741 92.0284C51.6037 91.017 50.6889 90.2216 49.5298 89.642C48.3821 89.0625 47.0696 88.7727 45.5923 88.7727C44.1037 88.7727 42.7741 89.0625 41.6037 89.642C40.4446 90.2216 39.5298 91.017 38.8594 92.0284C38.2003 93.0398 37.8764 94.2045 37.8878 95.5227C37.8764 96.7727 38.1776 97.8636 38.7912 98.7955C39.4162 99.7273 40.3082 100.449 41.4673 100.96C42.6264 101.472 44.0014 101.727 45.5923 101.727ZM45.5923 85.1591C46.8423 85.1591 47.9503 84.9091 48.9162 84.4091C49.8935 83.9091 50.6605 83.2102 51.2173 82.3125C51.7741 81.4148 52.0582 80.3636 52.0696 79.1591C52.0582 77.9773 51.7798 76.9489 51.2344 76.0739C50.6889 75.1875 49.9332 74.5057 48.9673 74.0284C48.0014 73.5398 46.8764 73.2955 45.5923 73.2955C44.2855 73.2955 43.1435 73.5398 42.1662 74.0284C41.1889 74.5057 40.4332 75.1875 39.8991 76.0739C39.3651 76.9489 39.1037 77.9773 39.1151 79.1591C39.1037 80.3636 39.3707 81.4148 39.9162 82.3125C40.473 83.2102 41.2401 83.9091 42.2173 84.4091C43.1946 84.9091 44.3196 85.1591 45.5923 85.1591ZM64.0568 114.818V78.8182H67.9432V82.9773H68.4205C68.7159 82.5227 69.125 81.9432 69.6477 81.2386C70.1818 80.5227 70.9432 79.8864 71.9318 79.3295C72.9318 78.7614 74.2841 78.4773 75.9886 78.4773C78.1932 78.4773 80.1364 79.0284 81.8182 80.1307C83.5 81.233 84.8125 82.7955 85.7557 84.8182C86.6989 86.8409 87.1705 89.2273 87.1705 91.9773C87.1705 94.75 86.6989 97.1534 85.7557 99.1875C84.8125 101.21 83.5057 102.778 81.8352 103.892C80.1648 104.994 78.2386 105.545 76.0568 105.545C74.375 105.545 73.0284 105.267 72.017 104.71C71.0057 104.142 70.2273 103.5 69.6818 102.784C69.1364 102.057 68.7159 101.455 68.4205 100.977H68.0795V114.818H64.0568ZM68.0114 91.9091C68.0114 93.8864 68.3011 95.6307 68.8807 97.142C69.4602 98.642 70.3068 99.8182 71.4205 100.67C72.5341 101.511 73.8977 101.932 75.5114 101.932C77.1932 101.932 78.5966 101.489 79.7216 100.602C80.858 99.7045 81.7102 98.5 82.2784 96.9886C82.858 95.4659 83.1477 93.7727 83.1477 91.9091C83.1477 90.0682 82.8636 88.4091 82.2955 86.9318C81.7386 85.4432 80.892 84.267 79.7557 83.4034C78.6307 82.5284 77.2159 82.0909 75.5114 82.0909C73.875 82.0909 72.5 82.5057 71.3864 83.3352C70.2727 84.1534 69.4318 85.3011 68.8636 86.7784C68.2955 88.2443 68.0114 89.9545 68.0114 91.9091ZM95.2287 78.8182L101.501 89.5227L107.774 78.8182H112.411L103.956 91.9091L112.411 105H107.774L101.501 94.8409L95.2287 105H90.5923L98.9105 91.9091L90.5923 78.8182H95.2287Z" fill="black"/>
</g>
<defs>
<clipPath id="clip0_0_1048">
<rect width="200" height="72" fill="white"/>
</clipPath>
</defs>
</svg>
