<svg width="200" height="96" viewBox="0 0 200 96" fill="none" xmlns="http://www.w3.org/2000/svg">
<g clip-path="url(#clip0_0_1050)">
<rect width="200" height="96" fill="white"/>
<path d="M5.63636 62V15.4545H33.5455V20.4545H11.2727V36.1818H31.4545V41.1818H11.2727V62H5.63636ZM54.0909 62.7273C50.9394 62.7273 48.1742 61.9773 45.7955 60.4773C43.4318 58.9773 41.5833 56.8788 40.25 54.1818C38.9318 51.4848 38.2727 48.3333 38.2727 44.7273C38.2727 41.0909 38.9318 37.9167 40.25 35.2045C41.5833 32.4924 43.4318 30.3864 45.7955 28.8864C48.1742 27.3864 50.9394 26.6364 54.0909 26.6364C57.2424 26.6364 60 27.3864 62.3636 28.8864C64.7424 30.3864 66.5909 32.4924 67.9091 35.2045C69.2424 37.9167 69.9091 41.0909 69.9091 44.7273C69.9091 48.3333 69.2424 51.4848 67.9091 54.1818C66.5909 56.8788 64.7424 58.9773 62.3636 60.4773C60 61.9773 57.2424 62.7273 54.0909 62.7273ZM54.0909 57.9091C56.4848 57.9091 58.4545 57.2955 60 56.0682C61.5455 54.8409 62.6894 53.2273 63.4318 51.2273C64.1742 49.2273 64.5455 47.0606 64.5455 44.7273C64.5455 42.3939 64.1742 40.2197 63.4318 38.2045C62.6894 36.1894 61.5455 34.5606 60 33.3182C58.4545 32.0758 56.4848 31.4545 54.0909 31.4545C51.697 31.4545 49.7273 32.0758 48.1818 33.3182C46.6364 34.5606 45.4924 36.1894 44.75 38.2045C44.0076 40.2197 43.6364 42.3939 43.6364 44.7273C43.6364 47.0606 44.0076 49.2273 44.75 51.2273C45.4924 53.2273 46.6364 54.8409 48.1818 56.0682C49.7273 57.2955 51.697 57.9091 54.0909 57.9091ZM83.4602 41V62H78.0966V27.0909H83.2784V32.5455H83.733C84.5511 30.7727 85.7936 29.3485 87.4602 28.2727C89.1269 27.1818 91.2784 26.6364 93.9148 26.6364C96.2784 26.6364 98.3466 27.1212 100.119 28.0909C101.892 29.0455 103.271 30.5 104.256 32.4545C105.241 34.3939 105.733 36.8485 105.733 39.8182V62H100.369V40.1818C100.369 37.4394 99.6572 35.303 98.233 33.7727C96.8087 32.2273 94.8542 31.4545 92.3693 31.4545C90.6572 31.4545 89.1269 31.8258 87.7784 32.5682C86.4451 33.3106 85.392 34.3939 84.6193 35.8182C83.8466 37.2424 83.4602 38.9697 83.4602 41ZM130.716 27.0909V31.6364H112.625V27.0909H130.716ZM117.898 18.7273H123.261V52C123.261 53.5152 123.481 54.6515 123.92 55.4091C124.375 56.1515 124.951 56.6515 125.648 56.9091C126.36 57.1515 127.11 57.2727 127.898 57.2727C128.489 57.2727 128.973 57.2424 129.352 57.1818C129.731 57.1061 130.034 57.0455 130.261 57L131.352 61.8182C130.989 61.9545 130.481 62.0909 129.83 62.2273C129.178 62.3788 128.352 62.4545 127.352 62.4545C125.837 62.4545 124.352 62.1288 122.898 61.4773C121.458 60.8258 120.261 59.8333 119.307 58.5C118.367 57.1667 117.898 55.4848 117.898 53.4545V18.7273ZM20.2727 139.636C18.3636 139.606 16.4545 139.242 14.5455 138.545C12.6364 137.848 10.8939 136.674 9.31818 135.023C7.74242 133.356 6.47727 131.106 5.52273 128.273C4.56818 125.424 4.09091 121.848 4.09091 117.545C4.09091 113.424 4.47727 109.773 5.25 106.591C6.02273 103.394 7.14394 100.705 8.61364 98.5227C10.0833 96.3258 11.8561 94.6591 13.9318 93.5227C16.0227 92.3864 18.3788 91.8182 21 91.8182C23.6061 91.8182 25.9242 92.3409 27.9545 93.3864C30 94.4167 31.6667 95.8561 32.9545 97.7045C34.2424 99.553 35.0758 101.682 35.4545 104.091H29.9091C29.3939 102 28.3939 100.265 26.9091 98.8864C25.4242 97.5076 23.4545 96.8182 21 96.8182C17.3939 96.8182 14.553 98.3864 12.4773 101.523C10.4167 104.659 9.37879 109.061 9.36364 114.727H9.72727C10.5758 113.439 11.5833 112.341 12.75 111.432C13.9318 110.508 15.2348 109.795 16.6591 109.295C18.0833 108.795 19.5909 108.545 21.1818 108.545C23.8485 108.545 26.2879 109.212 28.5 110.545C30.7121 111.864 32.4848 113.689 33.8182 116.023C35.1515 118.341 35.8182 121 35.8182 124C35.8182 126.879 35.1742 129.515 33.8864 131.909C32.5985 134.288 30.7879 136.182 28.4545 137.591C26.1364 138.985 23.4091 139.667 20.2727 139.636ZM20.2727 134.636C22.1818 134.636 23.8939 134.159 25.4091 133.205C26.9394 132.25 28.1439 130.97 29.0227 129.364C29.9167 127.758 30.3636 125.97 30.3636 124C30.3636 122.076 29.9318 120.326 29.0682 118.75C28.2197 117.159 27.0455 115.894 25.5455 114.955C24.0606 114.015 22.3636 113.545 20.4545 113.545C19.0152 113.545 17.6742 113.833 16.4318 114.409C15.1894 114.97 14.0985 115.742 13.1591 116.727C12.2348 117.712 11.5076 118.841 10.9773 120.114C10.447 121.371 10.1818 122.697 10.1818 124.091C10.1818 125.939 10.6136 127.667 11.4773 129.273C12.3561 130.879 13.553 132.174 15.0682 133.159C16.5985 134.144 18.3333 134.636 20.2727 134.636ZM43.6648 129.455V124.818L64.1193 92.4545H67.483V99.6364H65.2102L49.7557 124.091V124.455H77.3011V129.455H43.6648ZM65.5739 139V128.045V125.886V92.4545H70.9375V139H65.5739ZM85.9091 152.091V104.091H91.0909V109.636H91.7273C92.1212 109.03 92.6667 108.258 93.3636 107.318C94.0758 106.364 95.0909 105.515 96.4091 104.773C97.7424 104.015 99.5455 103.636 101.818 103.636C104.758 103.636 107.348 104.371 109.591 105.841C111.833 107.311 113.583 109.394 114.841 112.091C116.098 114.788 116.727 117.97 116.727 121.636C116.727 125.333 116.098 128.538 114.841 131.25C113.583 133.947 111.841 136.038 109.614 137.523C107.386 138.992 104.818 139.727 101.909 139.727C99.6667 139.727 97.8712 139.356 96.5227 138.614C95.1742 137.856 94.1364 137 93.4091 136.045C92.6818 135.076 92.1212 134.273 91.7273 133.636H91.2727V152.091H85.9091ZM91.1818 121.545C91.1818 124.182 91.5682 126.508 92.3409 128.523C93.1136 130.523 94.2424 132.091 95.7273 133.227C97.2121 134.348 99.0303 134.909 101.182 134.909C103.424 134.909 105.295 134.318 106.795 133.136C108.311 131.939 109.447 130.333 110.205 128.318C110.977 126.288 111.364 124.03 111.364 121.545C111.364 119.091 110.985 116.879 110.227 114.909C109.485 112.924 108.356 111.356 106.841 110.205C105.341 109.038 103.455 108.455 101.182 108.455C99 108.455 97.1667 109.008 95.6818 110.114C94.197 111.205 93.0758 112.735 92.3182 114.705C91.5606 116.659 91.1818 118.939 91.1818 121.545ZM127.472 104.091L135.835 118.364L144.199 104.091H150.381L139.108 121.545L150.381 139H144.199L135.835 125.455L127.472 139H121.29L132.381 121.545L121.29 104.091H127.472Z" fill="black"/>
</g>
<defs>
<clipPath id="clip0_0_1050">
<rect width="200" height="96" fill="white"/>
</clipPath>
</defs>
</svg>
