<svg width="200" height="36" viewBox="0 0 200 36" fill="none" xmlns="http://www.w3.org/2000/svg">
<rect width="200" height="36" fill="white"/>
<path d="M2.11364 23V5.54545H12.5795V7.42045H4.22727V13.3182H11.7955V15.1932H4.22727V23H2.11364ZM20.2841 23.2727C19.1023 23.2727 18.0653 22.9915 17.1733 22.429C16.2869 21.8665 15.5938 21.0795 15.0938 20.0682C14.5994 19.0568 14.3523 17.875 14.3523 16.5227C14.3523 15.1591 14.5994 13.9687 15.0938 12.9517C15.5938 11.9347 16.2869 11.1449 17.1733 10.5824C18.0653 10.0199 19.1023 9.73864 20.2841 9.73864C21.4659 9.73864 22.5 10.0199 23.3864 10.5824C24.2784 11.1449 24.9716 11.9347 25.4659 12.9517C25.9659 13.9687 26.2159 15.1591 26.2159 16.5227C26.2159 17.875 25.9659 19.0568 25.4659 20.0682C24.9716 21.0795 24.2784 21.8665 23.3864 22.429C22.5 22.9915 21.4659 23.2727 20.2841 23.2727ZM20.2841 21.4659C21.1818 21.4659 21.9205 21.2358 22.5 20.7756C23.0795 20.3153 23.5085 19.7102 23.7869 18.9602C24.0653 18.2102 24.2045 17.3977 24.2045 16.5227C24.2045 15.6477 24.0653 14.8324 23.7869 14.0767C23.5085 13.321 23.0795 12.7102 22.5 12.2443C21.9205 11.7784 21.1818 11.5455 20.2841 11.5455C19.3864 11.5455 18.6477 11.7784 18.0682 12.2443C17.4886 12.7102 17.0597 13.321 16.7812 14.0767C16.5028 14.8324 16.3636 15.6477 16.3636 16.5227C16.3636 17.3977 16.5028 18.2102 16.7812 18.9602C17.0597 19.7102 17.4886 20.3153 18.0682 20.7756C18.6477 21.2358 19.3864 21.4659 20.2841 21.4659ZM31.2976 15.125V23H29.2862V9.90909H31.2294V11.9545H31.3999C31.7067 11.2898 32.1726 10.7557 32.7976 10.3523C33.4226 9.94318 34.2294 9.73864 35.218 9.73864C36.1044 9.73864 36.88 9.92045 37.5447 10.2841C38.2095 10.642 38.7266 11.1875 39.0959 11.9205C39.4652 12.6477 39.6499 13.5682 39.6499 14.6818V23H37.6385V14.8182C37.6385 13.7898 37.3714 12.9886 36.8374 12.4148C36.3033 11.8352 35.5703 11.5455 34.6385 11.5455C33.9964 11.5455 33.4226 11.6847 32.9169 11.9631C32.4169 12.2415 32.022 12.6477 31.7322 13.1818C31.4425 13.7159 31.2976 14.3636 31.2976 15.125ZM49.0185 9.90909V11.6136H42.2344V9.90909H49.0185ZM44.2116 6.77273H46.223V19.25C46.223 19.8182 46.3054 20.2443 46.4702 20.5284C46.6406 20.8068 46.8565 20.9943 47.1179 21.0909C47.3849 21.1818 47.6662 21.2273 47.9616 21.2273C48.1832 21.2273 48.3651 21.2159 48.5071 21.1932C48.6491 21.1648 48.7628 21.142 48.848 21.125L49.2571 22.9318C49.1207 22.983 48.9304 23.0341 48.6861 23.0852C48.4418 23.142 48.1321 23.1705 47.7571 23.1705C47.1889 23.1705 46.6321 23.0483 46.0866 22.804C45.5469 22.5597 45.098 22.1875 44.7401 21.6875C44.3878 21.1875 44.2116 20.5568 44.2116 19.7955V6.77273ZM58.7599 23V21.4659L64.5213 15.1591C65.1974 14.4205 65.7543 13.7784 66.1918 13.233C66.6293 12.6818 66.9531 12.1648 67.1634 11.6818C67.3793 11.1932 67.4872 10.6818 67.4872 10.1477C67.4872 9.53409 67.3395 9.00284 67.044 8.55398C66.7543 8.10511 66.3565 7.75852 65.8509 7.5142C65.3452 7.26989 64.777 7.14773 64.1463 7.14773C63.4759 7.14773 62.8906 7.28693 62.3906 7.56534C61.8963 7.83807 61.5128 8.22159 61.2401 8.71591C60.973 9.21023 60.8395 9.78977 60.8395 10.4545H58.8281C58.8281 9.43182 59.0639 8.53409 59.5355 7.76136C60.0071 6.98864 60.6491 6.38636 61.4616 5.95454C62.2798 5.52273 63.1974 5.30682 64.2145 5.30682C65.2372 5.30682 66.1435 5.52273 66.9332 5.95454C67.723 6.38636 68.3423 6.96875 68.7912 7.7017C69.2401 8.43466 69.4645 9.25 69.4645 10.1477C69.4645 10.7898 69.348 11.4176 69.1151 12.0312C68.8878 12.6392 68.4901 13.3182 67.9219 14.0682C67.3594 14.8125 66.5781 15.7216 65.5781 16.7955L61.6577 20.9886V21.125H69.7713V23H58.7599ZM72.5071 19.4205V17.6818L80.1776 5.54545H81.4389V8.23864H80.5866L74.7912 17.4091V17.5455H85.1207V19.4205H72.5071ZM80.723 23V18.892V18.0824V5.54545H82.7344V23H80.723ZM88.3487 27.9091V9.90909H90.2919V11.9886H90.5305C90.6783 11.7614 90.8828 11.4716 91.1442 11.1193C91.4112 10.7614 91.7919 10.4432 92.2862 10.1648C92.7862 9.88068 93.4624 9.73864 94.3146 9.73864C95.4169 9.73864 96.3885 10.0142 97.2294 10.5653C98.0703 11.1165 98.7266 11.8977 99.1982 12.9091C99.6697 13.9205 99.9055 15.1136 99.9055 16.4886C99.9055 17.875 99.6697 19.0767 99.1982 20.0938C98.7266 21.1051 98.0732 21.8892 97.2379 22.446C96.4027 22.9972 95.4396 23.2727 94.3487 23.2727C93.5078 23.2727 92.8345 23.1335 92.3288 22.8551C91.8232 22.571 91.4339 22.25 91.1612 21.892C90.8885 21.5284 90.6783 21.2273 90.5305 20.9886H90.3601V27.9091H88.3487ZM90.326 16.4545C90.326 17.4432 90.4709 18.3153 90.7607 19.071C91.0504 19.821 91.4737 20.4091 92.0305 20.8352C92.5874 21.2557 93.2692 21.4659 94.076 21.4659C94.9169 21.4659 95.6186 21.2443 96.1811 20.8011C96.7493 20.3523 97.1754 19.75 97.4595 18.9943C97.7493 18.233 97.8942 17.3864 97.8942 16.4545C97.8942 15.5341 97.7521 14.7045 97.468 13.9659C97.1896 13.2216 96.7663 12.6335 96.1982 12.2017C95.6357 11.7642 94.9283 11.5455 94.076 11.5455C93.2578 11.5455 92.5703 11.7528 92.0135 12.1676C91.4567 12.5767 91.0362 13.1506 90.7521 13.8892C90.468 14.6222 90.326 15.4773 90.326 16.4545ZM103.935 9.90909L107.071 15.2614L110.207 9.90909H112.526L108.298 16.4545L112.526 23H110.207L107.071 17.9205L103.935 23H101.616L105.776 16.4545L101.616 9.90909H103.935Z" fill="black"/>
</svg>
