<svg width="200" height="30" viewBox="0 0 200 30" fill="none" xmlns="http://www.w3.org/2000/svg">
<rect width="200" height="30" fill="white"/>
<path d="M1.23295 14V3.81818H7.33807V4.91193H2.46591V8.35227H6.88068V9.44602H2.46591V14H1.23295ZM11.8324 14.1591C11.143 14.1591 10.5381 13.995 10.0178 13.6669C9.50071 13.3388 9.09635 12.8797 8.80469 12.2898C8.51634 11.6998 8.37216 11.0104 8.37216 10.2216C8.37216 9.42614 8.51634 8.73177 8.80469 8.13849C9.09635 7.54522 9.50071 7.08452 10.0178 6.75639C10.5381 6.42827 11.143 6.2642 11.8324 6.2642C12.5218 6.2642 13.125 6.42827 13.642 6.75639C14.1624 7.08452 14.5668 7.54522 14.8551 8.13849C15.1468 8.73177 15.2926 9.42614 15.2926 10.2216C15.2926 11.0104 15.1468 11.6998 14.8551 12.2898C14.5668 12.8797 14.1624 13.3388 13.642 13.6669C13.125 13.995 12.5218 14.1591 11.8324 14.1591ZM11.8324 13.1051C12.3561 13.1051 12.7869 12.9709 13.125 12.7024C13.4631 12.4339 13.7133 12.081 13.8757 11.6435C14.0381 11.206 14.1193 10.732 14.1193 10.2216C14.1193 9.71117 14.0381 9.23556 13.8757 8.79474C13.7133 8.35393 13.4631 7.99763 13.125 7.72585C12.7869 7.45407 12.3561 7.31818 11.8324 7.31818C11.3087 7.31818 10.8778 7.45407 10.5398 7.72585C10.2017 7.99763 9.95147 8.35393 9.78906 8.79474C9.62666 9.23556 9.54545 9.71117 9.54545 10.2216C9.54545 10.732 9.62666 11.206 9.78906 11.6435C9.95147 12.081 10.2017 12.4339 10.5398 12.7024C10.8778 12.9709 11.3087 13.1051 11.8324 13.1051ZM18.2569 9.40625V14H17.0836V6.36364H18.2172V7.55682H18.3166C18.4956 7.16903 18.7673 6.85748 19.1319 6.62216C19.4965 6.38352 19.9672 6.2642 20.5439 6.2642C21.0609 6.2642 21.5133 6.37027 21.9011 6.58239C22.2889 6.79119 22.5905 7.10938 22.8059 7.53693C23.0214 7.96117 23.1291 8.49811 23.1291 9.14773V14H21.9558V9.22727C21.9558 8.62737 21.8 8.16004 21.4885 7.82528C21.1769 7.48722 20.7493 7.31818 20.2058 7.31818C19.8313 7.31818 19.4965 7.39938 19.2015 7.56179C18.9099 7.72419 18.6795 7.96117 18.5105 8.27273C18.3414 8.58428 18.2569 8.96212 18.2569 9.40625ZM28.5941 6.36364V7.35795H24.6367V6.36364H28.5941ZM25.7901 4.53409H26.9634V11.8125C26.9634 12.1439 27.0115 12.3925 27.1076 12.5582C27.207 12.7206 27.333 12.83 27.4854 12.8864C27.6412 12.9394 27.8053 12.9659 27.9776 12.9659C28.1069 12.9659 28.213 12.9593 28.2958 12.946C28.3787 12.9295 28.445 12.9162 28.4947 12.9062L28.7333 13.9602C28.6538 13.9901 28.5427 14.0199 28.4002 14.0497C28.2577 14.0829 28.0771 14.0994 27.8583 14.0994C27.5269 14.0994 27.2021 14.0282 26.8839 13.8857C26.569 13.7431 26.3072 13.526 26.0984 13.2344C25.8929 12.9427 25.7901 12.5748 25.7901 12.1307V4.53409ZM37.8562 3.81818V14H36.6232V5.1108H36.5636L34.0778 6.76136V5.50852L36.6232 3.81818H37.8562ZM40.5458 11.9119V10.8977L45.0202 3.81818H45.756V5.3892H45.2589L41.8782 10.7386V10.8182H47.9038V11.9119H40.5458ZM45.3384 14V11.6037V11.1314V3.81818H46.5117V14H45.3384ZM49.7868 16.8636V6.36364H50.9203V7.5767H51.0595C51.1457 7.44413 51.265 7.27509 51.4174 7.0696C51.5732 6.8608 51.7953 6.67519 52.0836 6.51278C52.3753 6.34706 52.7697 6.2642 53.2669 6.2642C53.9099 6.2642 54.4766 6.42495 54.9672 6.74645C55.4577 7.06794 55.8405 7.52367 56.1156 8.11364C56.3907 8.7036 56.5282 9.39962 56.5282 10.2017C56.5282 11.0104 56.3907 11.7114 56.1156 12.3047C55.8405 12.8946 55.4593 13.352 54.9721 13.6768C54.4849 13.9983 53.9231 14.1591 53.2868 14.1591C52.7962 14.1591 52.4035 14.0779 52.1085 13.9155C51.8135 13.7498 51.5865 13.5625 51.4274 13.3537C51.2683 13.1416 51.1457 12.9659 51.0595 12.8267H50.96V16.8636H49.7868ZM50.9402 10.1818C50.9402 10.7585 51.0247 11.2673 51.1937 11.7081C51.3627 12.1456 51.6097 12.4886 51.9345 12.7372C52.2593 12.9825 52.657 13.1051 53.1277 13.1051C53.6182 13.1051 54.0275 12.9759 54.3556 12.7173C54.6871 12.4555 54.9357 12.1042 55.1014 11.6634C55.2704 11.2192 55.3549 10.7254 55.3549 10.1818C55.3549 9.64489 55.2721 9.16098 55.1064 8.73011C54.944 8.29593 54.697 7.95289 54.3656 7.70099C54.0375 7.44579 53.6248 7.31818 53.1277 7.31818C52.6504 7.31818 52.2493 7.43916 51.9245 7.68111C51.5997 7.91974 51.3545 8.2545 51.1887 8.68537C51.023 9.11293 50.9402 9.61174 50.9402 10.1818ZM58.8786 6.36364L60.7081 9.4858L62.5376 6.36364H63.8899L61.424 10.1818L63.8899 14H62.5376L60.7081 11.0369L58.8786 14H57.5263L59.9524 10.1818L57.5263 6.36364H58.8786Z" fill="black"/>
</svg>
