<svg width="200" height="60" viewBox="0 0 200 60" fill="none" xmlns="http://www.w3.org/2000/svg">
<rect width="200" height="60" fill="white"/>
<path d="M3.52273 39V9.90909H20.9659V13.0341H7.04545V22.8636H19.6591V25.9886H7.04545V39H3.52273ZM33.8068 39.4545C31.8371 39.4545 30.1089 38.9858 28.6222 38.0483C27.1449 37.1108 25.9896 35.7992 25.1562 34.1136C24.3324 32.428 23.9205 30.4583 23.9205 28.2045C23.9205 25.9318 24.3324 23.9479 25.1562 22.2528C25.9896 20.5578 27.1449 19.2415 28.6222 18.304C30.1089 17.3665 31.8371 16.8977 33.8068 16.8977C35.7765 16.8977 37.5 17.3665 38.9773 18.304C40.464 19.2415 41.6193 20.5578 42.4432 22.2528C43.2765 23.9479 43.6932 25.9318 43.6932 28.2045C43.6932 30.4583 43.2765 32.428 42.4432 34.1136C41.6193 35.7992 40.464 37.1108 38.9773 38.0483C37.5 38.9858 35.7765 39.4545 33.8068 39.4545ZM33.8068 36.4432C35.303 36.4432 36.5341 36.0597 37.5 35.2926C38.4659 34.5256 39.1809 33.517 39.6449 32.267C40.1089 31.017 40.3409 29.6629 40.3409 28.2045C40.3409 26.7462 40.1089 25.3873 39.6449 24.1278C39.1809 22.8684 38.4659 21.8504 37.5 21.0739C36.5341 20.2973 35.303 19.9091 33.8068 19.9091C32.3106 19.9091 31.0795 20.2973 30.1136 21.0739C29.1477 21.8504 28.4328 22.8684 27.9688 24.1278C27.5047 25.3873 27.2727 26.7462 27.2727 28.2045C27.2727 29.6629 27.5047 31.017 27.9688 32.267C28.4328 33.517 29.1477 34.5256 30.1136 35.2926C31.0795 36.0597 32.3106 36.4432 33.8068 36.4432ZM52.1626 25.875V39H48.8104V17.1818H52.049V20.5909H52.3331C52.8445 19.483 53.621 18.5928 54.6626 17.9205C55.7043 17.2386 57.049 16.8977 58.6967 16.8977C60.174 16.8977 61.4666 17.2008 62.5746 17.8068C63.6825 18.4034 64.5443 19.3125 65.1598 20.5341C65.7753 21.7462 66.0831 23.2803 66.0831 25.1364V39H62.7308V25.3636C62.7308 23.6496 62.2857 22.3144 61.3956 21.358C60.5054 20.392 59.2839 19.9091 57.7308 19.9091C56.6607 19.9091 55.7043 20.1411 54.8615 20.6051C54.0282 21.0691 53.37 21.7462 52.8871 22.6364C52.4041 23.5265 52.1626 24.6061 52.1626 25.875ZM81.6974 17.1818V20.0227H70.3906V17.1818H81.6974ZM73.6861 11.9545H77.0384V32.75C77.0384 33.697 77.1757 34.4072 77.4503 34.8807C77.7344 35.3447 78.0942 35.6572 78.5298 35.8182C78.9749 35.9697 79.4437 36.0455 79.9361 36.0455C80.3054 36.0455 80.6084 36.0265 80.8452 35.9886C81.0819 35.9413 81.2713 35.9034 81.4134 35.875L82.0952 38.8864C81.8679 38.9716 81.5507 39.0568 81.1435 39.142C80.7363 39.2367 80.2202 39.2841 79.5952 39.2841C78.6482 39.2841 77.7202 39.0805 76.8111 38.6733C75.9115 38.2661 75.1634 37.6458 74.5668 36.8125C73.9796 35.9792 73.6861 34.928 73.6861 33.6591V11.9545ZM97.2514 33.0341V30.1364L110.036 9.90909H112.138V14.3977H110.717L101.058 29.6818V29.9091H118.274V33.0341H97.2514ZM110.945 39V32.1534V30.804V9.90909H114.297V39H110.945ZM133.086 39.3977C130.946 39.3977 129.123 38.8153 127.617 37.6506C126.112 36.4763 124.961 34.7765 124.165 32.5511C123.37 30.3163 122.972 27.6174 122.972 24.4545C122.972 21.3106 123.37 18.6259 124.165 16.4006C124.97 14.1657 126.126 12.4612 127.631 11.2869C129.147 10.1032 130.965 9.51136 133.086 9.51136C135.207 9.51136 137.021 10.1032 138.526 11.2869C140.041 12.4612 141.197 14.1657 141.992 16.4006C142.797 18.6259 143.2 21.3106 143.2 24.4545C143.2 27.6174 142.802 30.3163 142.006 32.5511C141.211 34.7765 140.06 36.4763 138.555 37.6506C137.049 38.8153 135.226 39.3977 133.086 39.3977ZM133.086 36.2727C135.207 36.2727 136.855 35.25 138.029 33.2045C139.203 31.1591 139.79 28.2424 139.79 24.4545C139.79 21.9356 139.521 19.7907 138.981 18.0199C138.451 16.2491 137.683 14.8996 136.68 13.9716C135.685 13.0436 134.487 12.5795 133.086 12.5795C130.984 12.5795 129.341 13.6165 128.157 15.6903C126.973 17.7547 126.381 20.6761 126.381 24.4545C126.381 26.9735 126.647 29.1136 127.177 30.875C127.707 32.6364 128.469 33.9763 129.464 34.8949C130.468 35.8134 131.675 36.2727 133.086 36.2727ZM148.654 47.1818V17.1818H151.893V20.6477H152.29C152.537 20.2689 152.878 19.786 153.313 19.1989C153.758 18.6023 154.393 18.072 155.217 17.608C156.05 17.1345 157.177 16.8977 158.597 16.8977C160.434 16.8977 162.054 17.357 163.455 18.2756C164.857 19.1941 165.951 20.4962 166.737 22.1818C167.522 23.8674 167.915 25.8561 167.915 28.1477C167.915 30.4583 167.522 32.4612 166.737 34.1562C165.951 35.8419 164.862 37.1487 163.469 38.0767C162.077 38.9953 160.472 39.4545 158.654 39.4545C157.253 39.4545 156.13 39.2225 155.288 38.7585C154.445 38.285 153.796 37.75 153.342 37.1534C152.887 36.5473 152.537 36.0455 152.29 35.6477H152.006V47.1818H148.654ZM151.95 28.0909C151.95 29.7386 152.191 31.1922 152.674 32.4517C153.157 33.7017 153.862 34.6818 154.79 35.392C155.719 36.0928 156.855 36.4432 158.2 36.4432C159.601 36.4432 160.771 36.0739 161.708 35.3352C162.655 34.5871 163.365 33.5833 163.839 32.3239C164.322 31.0549 164.563 29.6439 164.563 28.0909C164.563 26.5568 164.326 25.1742 163.853 23.9432C163.389 22.7027 162.683 21.7225 161.737 21.0028C160.799 20.2737 159.62 19.9091 158.2 19.9091C156.836 19.9091 155.69 20.2547 154.762 20.946C153.834 21.6278 153.133 22.5843 152.66 23.8153C152.186 25.0369 151.95 26.4621 151.95 28.0909ZM174.631 17.1818L179.858 26.1023L185.085 17.1818H188.949L181.903 28.0909L188.949 39H185.085L179.858 30.5341L174.631 39H170.767L177.699 28.0909L170.767 17.1818H174.631Z" fill="black"/>
</svg>
