<svg width="200" height="30" viewBox="0 0 200 30" fill="none" xmlns="http://www.w3.org/2000/svg">
<rect width="200" height="30" fill="white"/>
<path d="M1.58523 17V3.90909H9.43466V5.31534H3.17045V9.73864H8.84659V11.1449H3.17045V17H1.58523ZM15.2131 17.2045C14.3267 17.2045 13.549 16.9936 12.88 16.5717C12.2152 16.1499 11.6953 15.5597 11.3203 14.8011C10.9496 14.0426 10.7642 13.1562 10.7642 12.142C10.7642 11.1193 10.9496 10.2266 11.3203 9.46378C11.6953 8.70099 12.2152 8.10866 12.88 7.68679C13.549 7.26491 14.3267 7.05398 15.2131 7.05398C16.0994 7.05398 16.875 7.26491 17.5398 7.68679C18.2088 8.10866 18.7287 8.70099 19.0994 9.46378C19.4744 10.2266 19.6619 11.1193 19.6619 12.142C19.6619 13.1562 19.4744 14.0426 19.0994 14.8011C18.7287 15.5597 18.2088 16.1499 17.5398 16.5717C16.875 16.9936 16.0994 17.2045 15.2131 17.2045ZM15.2131 15.8494C15.8864 15.8494 16.4403 15.6768 16.875 15.3317C17.3097 14.9865 17.6314 14.5327 17.8402 13.9702C18.049 13.4077 18.1534 12.7983 18.1534 12.142C18.1534 11.4858 18.049 10.8743 17.8402 10.3075C17.6314 9.74077 17.3097 9.28267 16.875 8.93324C16.4403 8.58381 15.8864 8.40909 15.2131 8.40909C14.5398 8.40909 13.9858 8.58381 13.5511 8.93324C13.1165 9.28267 12.7947 9.74077 12.5859 10.3075C12.3771 10.8743 12.2727 11.4858 12.2727 12.142C12.2727 12.7983 12.3771 13.4077 12.5859 13.9702C12.7947 14.5327 13.1165 14.9865 13.5511 15.3317C13.9858 15.6768 14.5398 15.8494 15.2131 15.8494ZM23.4732 11.0938V17H21.9647V7.18182H23.4221V8.71591H23.5499C23.78 8.21733 24.1294 7.81676 24.5982 7.5142C25.0669 7.20739 25.6721 7.05398 26.4135 7.05398C27.0783 7.05398 27.66 7.19034 28.1586 7.46307C28.6571 7.73153 29.0449 8.14062 29.3219 8.69034C29.5989 9.2358 29.7374 9.92614 29.7374 10.7614V17H28.2289V10.8636C28.2289 10.0923 28.0286 9.49148 27.628 9.06108C27.2275 8.62642 26.6777 8.40909 25.9789 8.40909C25.4973 8.40909 25.0669 8.51349 24.6877 8.7223C24.3127 8.93111 24.0165 9.2358 23.7992 9.63636C23.5819 10.0369 23.4732 10.5227 23.4732 11.0938ZM36.7638 7.18182V8.46023H31.6758V7.18182H36.7638ZM33.1587 4.82955H34.6673V14.1875C34.6673 14.6136 34.729 14.9332 34.8526 15.1463C34.9805 15.3551 35.1424 15.4957 35.3384 15.5682C35.5387 15.6364 35.7496 15.6705 35.9712 15.6705C36.1374 15.6705 36.2738 15.6619 36.3803 15.6449C36.4869 15.6236 36.5721 15.6065 36.636 15.5938L36.9428 16.9489C36.8406 16.9872 36.6978 17.0256 36.5146 17.0639C36.3313 17.1065 36.0991 17.1278 35.8178 17.1278C35.3917 17.1278 34.9741 17.0362 34.565 16.853C34.1602 16.6697 33.8235 16.3906 33.555 16.0156C33.2908 15.6406 33.1587 15.1676 33.1587 14.5966V4.82955ZM48.6722 3.90909V17H47.087V5.57102H47.0103L43.8143 7.69318V6.08239L47.087 3.90909H48.6722ZM56.6303 17.179C55.7525 17.179 54.9769 17.0234 54.3036 16.7124C53.6346 16.397 53.1126 15.9645 52.7376 15.4148C52.3626 14.8608 52.1772 14.2301 52.1815 13.5227C52.1772 12.9687 52.2859 12.4574 52.5075 11.9886C52.729 11.5156 53.0316 11.1214 53.4151 10.8061C53.8029 10.4865 54.2354 10.2841 54.7127 10.1989V10.1222C54.0863 9.96023 53.5877 9.60866 53.217 9.06747C52.8462 8.52202 52.663 7.90199 52.6673 7.20739C52.663 6.54261 52.8313 5.94815 53.1722 5.42401C53.5131 4.89986 53.9819 4.48651 54.5785 4.18395C55.1793 3.88139 55.8633 3.73011 56.6303 3.73011C57.3888 3.73011 58.0664 3.88139 58.663 4.18395C59.2596 4.48651 59.7283 4.89986 60.0692 5.42401C60.4144 5.94815 60.5891 6.54261 60.5934 7.20739C60.5891 7.90199 60.3995 8.52202 60.0245 9.06747C59.6538 9.60866 59.1616 9.96023 58.5479 10.1222V10.1989C59.021 10.2841 59.4471 10.4865 59.8263 10.8061C60.2056 11.1214 60.5082 11.5156 60.734 11.9886C60.9599 12.4574 61.0749 12.9687 61.0792 13.5227C61.0749 14.2301 60.8832 14.8608 60.5039 15.4148C60.1289 15.9645 59.6069 16.397 58.9379 16.7124C58.2731 17.0234 57.5039 17.179 56.6303 17.179ZM56.6303 15.7727C57.2227 15.7727 57.734 15.6768 58.1644 15.4851C58.5948 15.2933 58.9272 15.0227 59.1616 14.6733C59.396 14.3239 59.5153 13.9148 59.5195 13.446C59.5153 12.9517 59.3874 12.5149 59.136 12.1357C58.8846 11.7564 58.5415 11.4581 58.1069 11.2408C57.6765 11.0234 57.1843 10.9148 56.6303 10.9148C56.0721 10.9148 55.5735 11.0234 55.1346 11.2408C54.6999 11.4581 54.3569 11.7564 54.1055 12.1357C53.8583 12.5149 53.7369 12.9517 53.7411 13.446C53.7369 13.9148 53.8498 14.3239 54.0799 14.6733C54.3143 15.0227 54.6488 15.2933 55.0835 15.4851C55.5181 15.6768 56.0337 15.7727 56.6303 15.7727ZM56.6303 9.55966C57.0991 9.55966 57.5146 9.46591 57.8768 9.27841C58.2433 9.09091 58.5309 8.82884 58.7397 8.49219C58.9485 8.15554 59.055 7.76136 59.0593 7.30966C59.055 6.86648 58.9506 6.48082 58.7461 6.1527C58.5415 5.82031 58.2582 5.56463 57.896 5.38565C57.5337 5.20241 57.1119 5.1108 56.6303 5.1108C56.1403 5.1108 55.712 5.20241 55.3455 5.38565C54.979 5.56463 54.6957 5.82031 54.4954 6.1527C54.2951 6.48082 54.1971 6.86648 54.2013 7.30966C54.1971 7.76136 54.2972 8.15554 54.5018 8.49219C54.7106 8.82884 54.9982 9.09091 55.3647 9.27841C55.7312 9.46591 56.1531 9.55966 56.6303 9.55966ZM63.5545 20.6818V7.18182H65.0119V8.74148H65.1909C65.3017 8.57102 65.4551 8.35369 65.6511 8.08949C65.8514 7.82102 66.1369 7.58239 66.5076 7.37358C66.8826 7.16051 67.3897 7.05398 68.0289 7.05398C68.8556 7.05398 69.5843 7.26065 70.215 7.67401C70.8457 8.08736 71.3379 8.6733 71.6916 9.43182C72.0453 10.1903 72.2221 11.0852 72.2221 12.1165C72.2221 13.1562 72.0453 14.0575 71.6916 14.8203C71.3379 15.5788 70.8478 16.1669 70.2214 16.5845C69.595 16.9979 68.8727 17.2045 68.0545 17.2045C67.4238 17.2045 66.9189 17.1001 66.5396 16.8913C66.1603 16.6783 65.8684 16.4375 65.6639 16.169C65.4593 15.8963 65.3017 15.6705 65.1909 15.4915H65.063V20.6818H63.5545ZM65.0375 12.0909C65.0375 12.8324 65.1461 13.4865 65.3635 14.0533C65.5808 14.6158 65.8983 15.0568 66.3159 15.3764C66.7335 15.6918 67.2449 15.8494 67.85 15.8494C68.4806 15.8494 69.0069 15.6832 69.4288 15.3509C69.8549 15.0142 70.1745 14.5625 70.3876 13.9957C70.6049 13.4247 70.7136 12.7898 70.7136 12.0909C70.7136 11.4006 70.6071 10.7784 70.394 10.2244C70.1852 9.66619 69.8677 9.22514 69.4416 8.90128C69.0197 8.57315 68.4892 8.40909 67.85 8.40909C67.2363 8.40909 66.7207 8.56463 66.3031 8.87571C65.8855 9.18253 65.5701 9.61293 65.3571 10.1669C65.144 10.7166 65.0375 11.358 65.0375 12.0909ZM75.244 7.18182L77.5962 11.196L79.9485 7.18182H81.6871L78.5167 12.0909L81.6871 17H79.9485L77.5962 13.1903L75.244 17H73.5053L76.6246 12.0909L73.5053 7.18182H75.244Z" fill="black"/>
</svg>
