<svg width="200" height="30" viewBox="0 0 200 30" fill="none" xmlns="http://www.w3.org/2000/svg">
<rect width="200" height="30" fill="white"/>
<path d="M1.76136 19V4.45455H10.483V6.01705H3.52273V10.9318H9.82955V12.4943H3.52273V19H1.76136ZM16.9034 19.2273C15.9186 19.2273 15.0545 18.9929 14.3111 18.5241C13.5724 18.0554 12.9948 17.3996 12.5781 16.5568C12.1662 15.714 11.9602 14.7292 11.9602 13.6023C11.9602 12.4659 12.1662 11.474 12.5781 10.6264C12.9948 9.77888 13.5724 9.12074 14.3111 8.65199C15.0545 8.18324 15.9186 7.94886 16.9034 7.94886C17.8883 7.94886 18.75 8.18324 19.4886 8.65199C20.232 9.12074 20.8097 9.77888 21.2216 10.6264C21.6383 11.474 21.8466 12.4659 21.8466 13.6023C21.8466 14.7292 21.6383 15.714 21.2216 16.5568C20.8097 17.3996 20.232 18.0554 19.4886 18.5241C18.75 18.9929 17.8883 19.2273 16.9034 19.2273ZM16.9034 17.7216C17.6515 17.7216 18.267 17.5298 18.75 17.1463C19.233 16.7628 19.5904 16.2585 19.8224 15.6335C20.0545 15.0085 20.1705 14.3314 20.1705 13.6023C20.1705 12.8731 20.0545 12.1937 19.8224 11.5639C19.5904 10.9342 19.233 10.4252 18.75 10.0369C18.267 9.64867 17.6515 9.45455 16.9034 9.45455C16.1553 9.45455 15.5398 9.64867 15.0568 10.0369C14.5739 10.4252 14.2164 10.9342 13.9844 11.5639C13.7524 12.1937 13.6364 12.8731 13.6364 13.6023C13.6364 14.3314 13.7524 15.0085 13.9844 15.6335C14.2164 16.2585 14.5739 16.7628 15.0568 17.1463C15.5398 17.5298 16.1553 17.7216 16.9034 17.7216ZM26.0813 12.4375V19H24.4052V8.09091H26.0245V9.79545H26.1665C26.4222 9.24148 26.8105 8.7964 27.3313 8.46023C27.8522 8.11932 28.5245 7.94886 29.3484 7.94886C30.087 7.94886 30.7333 8.10038 31.2873 8.40341C31.8413 8.7017 32.2721 9.15625 32.5799 9.76705C32.8877 10.3731 33.0415 11.1402 33.0415 12.0682V19H31.3654V12.1818C31.3654 11.3248 31.1429 10.6572 30.6978 10.179C30.2527 9.69602 29.6419 9.45455 28.8654 9.45455C28.3304 9.45455 27.8522 9.57055 27.4308 9.80256C27.0141 10.0346 26.685 10.3731 26.4435 10.8182C26.2021 11.2633 26.0813 11.803 26.0813 12.4375ZM40.8487 8.09091V9.51136H35.1953V8.09091H40.8487ZM36.843 5.47727H38.5192V15.875C38.5192 16.3485 38.5878 16.7036 38.7251 16.9403C38.8672 17.1723 39.0471 17.3286 39.2649 17.4091C39.4875 17.4848 39.7218 17.5227 39.968 17.5227C40.1527 17.5227 40.3042 17.5133 40.4226 17.4943C40.541 17.4706 40.6357 17.4517 40.7067 17.4375L41.0476 18.9432C40.9339 18.9858 40.7753 19.0284 40.5717 19.071C40.3681 19.1184 40.1101 19.142 39.7976 19.142C39.3241 19.142 38.8601 19.0402 38.4055 18.8366C37.9557 18.633 37.5817 18.3229 37.2834 17.9062C36.9898 17.4896 36.843 16.964 36.843 16.3295V5.47727ZM48.9666 19V17.7216L53.7678 12.4659C54.3312 11.8504 54.7952 11.3153 55.1598 10.8608C55.5244 10.4015 55.7943 9.97064 55.9695 9.56818C56.1494 9.16098 56.2393 8.73485 56.2393 8.28977C56.2393 7.77841 56.1162 7.3357 55.87 6.96165C55.6286 6.58759 55.2971 6.29877 54.8757 6.09517C54.4543 5.89157 53.9808 5.78977 53.4553 5.78977C52.8965 5.78977 52.4089 5.90578 51.9922 6.13778C51.5803 6.36506 51.2607 6.68466 51.0334 7.09659C50.8108 7.50852 50.6996 7.99148 50.6996 8.54545H49.0234C49.0234 7.69318 49.2199 6.94508 49.6129 6.30114C50.0059 5.6572 50.541 5.1553 51.218 4.79545C51.8999 4.43561 52.6645 4.25568 53.5121 4.25568C54.3643 4.25568 55.1196 4.43561 55.7777 4.79545C56.4358 5.1553 56.9519 5.64062 57.326 6.25142C57.7 6.86222 57.8871 7.54167 57.8871 8.28977C57.8871 8.82481 57.79 9.34801 57.5959 9.85938C57.4065 10.366 57.075 10.9318 56.6016 11.5568C56.1328 12.1771 55.4818 12.9347 54.6484 13.8295L51.3814 17.3239V17.4375H58.1428V19H48.9666ZM65.8203 19.1989C64.7502 19.1989 63.8388 18.9077 63.0859 18.3253C62.3331 17.7382 61.7578 16.8883 61.3601 15.7756C60.9624 14.6581 60.7635 13.3087 60.7635 11.7273C60.7635 10.1553 60.9624 8.81297 61.3601 7.70028C61.7625 6.58286 62.3402 5.73059 63.093 5.14347C63.8506 4.55161 64.7597 4.25568 65.8203 4.25568C66.8809 4.25568 67.7876 4.55161 68.5405 5.14347C69.2981 5.73059 69.8757 6.58286 70.2734 7.70028C70.6759 8.81297 70.8771 10.1553 70.8771 11.7273C70.8771 13.3087 70.6783 14.6581 70.2805 15.7756C69.8828 16.8883 69.3075 17.7382 68.5547 18.3253C67.8018 18.9077 66.8904 19.1989 65.8203 19.1989ZM65.8203 17.6364C66.8809 17.6364 67.7048 17.125 68.2919 16.1023C68.879 15.0795 69.1726 13.6212 69.1726 11.7273C69.1726 10.4678 69.0376 9.39536 68.7678 8.50994C68.5026 7.62453 68.1191 6.94981 67.6172 6.4858C67.12 6.02178 66.5211 5.78977 65.8203 5.78977C64.7692 5.78977 63.9477 6.30824 63.3558 7.34517C62.764 8.37737 62.468 9.83807 62.468 11.7273C62.468 12.9867 62.6006 14.0568 62.8658 14.9375C63.1309 15.8182 63.5121 16.4882 64.0092 16.9474C64.5111 17.4067 65.1148 17.6364 65.8203 17.6364ZM73.6044 23.0909V8.09091H75.2237V9.82386H75.4226C75.5457 9.63447 75.7161 9.39299 75.9339 9.09943C76.1565 8.80114 76.4737 8.53598 76.8857 8.30398C77.3023 8.06723 77.8658 7.94886 78.576 7.94886C79.4946 7.94886 80.3042 8.1785 81.005 8.63778C81.7057 9.09706 82.2526 9.74811 82.6456 10.5909C83.0386 11.4337 83.2351 12.428 83.2351 13.5739C83.2351 14.7292 83.0386 15.7306 82.6456 16.5781C82.2526 17.4209 81.7081 18.0743 81.0121 18.5384C80.3161 18.9976 79.5135 19.2273 78.6044 19.2273C77.9036 19.2273 77.3426 19.1113 76.9212 18.8793C76.4998 18.6425 76.1754 18.375 75.9482 18.0767C75.7209 17.7737 75.5457 17.5227 75.4226 17.3239H75.2805V23.0909H73.6044ZM75.2521 13.5455C75.2521 14.3693 75.3729 15.0961 75.6143 15.7259C75.8558 16.3509 76.2086 16.8409 76.6726 17.196C77.1366 17.5464 77.7048 17.7216 78.3771 17.7216C79.0779 17.7216 79.6626 17.5369 80.1314 17.1676C80.6049 16.7936 80.96 16.2917 81.1967 15.6619C81.4382 15.0275 81.5589 14.322 81.5589 13.5455C81.5589 12.7784 81.4406 12.0871 81.2038 11.4716C80.9718 10.8513 80.6191 10.3613 80.1456 10.0014C79.6768 9.63684 79.0874 9.45455 78.3771 9.45455C77.6953 9.45455 77.1224 9.62737 76.6584 9.97301C76.1944 10.3139 75.844 10.7921 75.6072 11.4077C75.3705 12.0185 75.2521 12.7311 75.2521 13.5455ZM86.5927 8.09091L89.2063 12.5511L91.82 8.09091H93.7518L90.229 13.5455L93.7518 19H91.82L89.2063 14.767L86.5927 19H84.6609L88.1268 13.5455L84.6609 8.09091H86.5927Z" fill="black"/>
</svg>
