<svg width="200" height="30" viewBox="0 0 200 30" fill="none" xmlns="http://www.w3.org/2000/svg">
<rect width="200" height="30" fill="white"/>
<path d="M0.880682 10V2.72727H5.24148V3.50852H1.76136V5.96591H4.91477V6.74716H1.76136V10H0.880682ZM8.4517 10.1136C7.95928 10.1136 7.52723 9.99645 7.15554 9.76207C6.78622 9.5277 6.4974 9.19981 6.28906 8.77841C6.0831 8.35701 5.98011 7.86458 5.98011 7.30114C5.98011 6.73295 6.0831 6.23698 6.28906 5.81321C6.4974 5.38944 6.78622 5.06037 7.15554 4.82599C7.52723 4.59162 7.95928 4.47443 8.4517 4.47443C8.94413 4.47443 9.375 4.59162 9.74432 4.82599C10.116 5.06037 10.4048 5.38944 10.6108 5.81321C10.8191 6.23698 10.9233 6.73295 10.9233 7.30114C10.9233 7.86458 10.8191 8.35701 10.6108 8.77841C10.4048 9.19981 10.116 9.5277 9.74432 9.76207C9.375 9.99645 8.94413 10.1136 8.4517 10.1136ZM8.4517 9.3608C8.82576 9.3608 9.13352 9.26491 9.375 9.07315C9.61648 8.88139 9.79522 8.62926 9.91122 8.31676C10.0272 8.00426 10.0852 7.66572 10.0852 7.30114C10.0852 6.93655 10.0272 6.59683 9.91122 6.28196C9.79522 5.96709 9.61648 5.71259 9.375 5.51847C9.13352 5.32434 8.82576 5.22727 8.4517 5.22727C8.07765 5.22727 7.76989 5.32434 7.52841 5.51847C7.28693 5.71259 7.10819 5.96709 6.99219 6.28196C6.87618 6.59683 6.81818 6.93655 6.81818 7.30114C6.81818 7.66572 6.87618 8.00426 6.99219 8.31676C7.10819 8.62926 7.28693 8.88139 7.52841 9.07315C7.76989 9.26491 8.07765 9.3608 8.4517 9.3608ZM13.0407 6.71875V10H12.2026V4.54545H13.0123V5.39773H13.0833C13.2111 5.12074 13.4052 4.8982 13.6657 4.73011C13.9261 4.55966 14.2623 4.47443 14.6742 4.47443C15.0435 4.47443 15.3667 4.55019 15.6436 4.7017C15.9206 4.85085 16.1361 5.07812 16.29 5.38352C16.4438 5.68655 16.5208 6.07008 16.5208 6.53409V10H15.6827V6.59091C15.6827 6.16241 15.5714 5.8286 15.3489 5.58949C15.1264 5.34801 14.821 5.22727 14.4327 5.22727C14.1652 5.22727 13.9261 5.28527 13.7154 5.40128C13.507 5.51728 13.3425 5.68655 13.2218 5.90909C13.101 6.13163 13.0407 6.40152 13.0407 6.71875ZM20.4244 4.54545V5.25568H17.5977V4.54545H20.4244ZM18.4215 3.23864H19.2596V8.4375C19.2596 8.67424 19.2939 8.8518 19.3626 8.97017C19.4336 9.08617 19.5236 9.1643 19.6325 9.20455C19.7437 9.24242 19.8609 9.26136 19.984 9.26136C20.0763 9.26136 20.1521 9.25663 20.2113 9.24716C20.2705 9.23532 20.3178 9.22585 20.3533 9.21875L20.5238 9.97159C20.467 9.9929 20.3877 10.0142 20.2859 10.0355C20.1841 10.0592 20.055 10.071 19.8988 10.071C19.6621 10.071 19.43 10.0201 19.2028 9.91832C18.9779 9.81652 18.7908 9.66146 18.6417 9.45312C18.4949 9.24479 18.4215 8.98201 18.4215 8.66477V3.23864ZM27.0401 2.72727V10H26.1594V3.65057H26.1168L24.3413 4.82955V3.93466L26.1594 2.72727H27.0401ZM31.5039 10.0994C30.9689 10.0994 30.5131 9.95384 30.1367 9.66264C29.7603 9.36908 29.4727 8.94413 29.2738 8.38778C29.0749 7.82907 28.9755 7.15436 28.9755 6.36364C28.9755 5.57765 29.0749 4.90649 29.2738 4.35014C29.475 3.79143 29.7638 3.36529 30.1403 3.07173C30.5191 2.7758 30.9736 2.62784 31.5039 2.62784C32.0342 2.62784 32.4876 2.7758 32.864 3.07173C33.2428 3.36529 33.5316 3.79143 33.7305 4.35014C33.9317 4.90649 34.0323 5.57765 34.0323 6.36364C34.0323 7.15436 33.9329 7.82907 33.734 8.38778C33.5352 8.94413 33.2475 9.36908 32.8711 9.66264C32.4947 9.95384 32.0389 10.0994 31.5039 10.0994ZM31.5039 9.31818C32.0342 9.31818 32.4461 9.0625 32.7397 8.55114C33.0333 8.03977 33.18 7.31061 33.18 6.36364C33.18 5.7339 33.1126 5.19768 32.9776 4.75497C32.8451 4.31226 32.6533 3.97491 32.4023 3.7429C32.1538 3.51089 31.8543 3.39489 31.5039 3.39489C30.9783 3.39489 30.5676 3.65412 30.2717 4.17259C29.9757 4.68868 29.8278 5.41903 29.8278 6.36364C29.8278 6.99337 29.8941 7.52841 30.0266 7.96875C30.1592 8.40909 30.3498 8.74408 30.5984 8.97372C30.8493 9.20336 31.1512 9.31818 31.5039 9.31818ZM35.396 12.0455V4.54545H36.2056V5.41193H36.305C36.3666 5.31723 36.4518 5.1965 36.5607 5.04972C36.672 4.90057 36.8306 4.76799 37.0366 4.65199C37.2449 4.53362 37.5266 4.47443 37.8817 4.47443C38.341 4.47443 38.7459 4.58925 39.0962 4.81889C39.4466 5.04853 39.7201 5.37405 39.9165 5.79545C40.113 6.21686 40.2113 6.71402 40.2113 7.28693C40.2113 7.86458 40.113 8.36529 39.9165 8.78906C39.7201 9.21046 39.4478 9.53717 39.0998 9.76918C38.7518 9.99882 38.3505 10.1136 37.896 10.1136C37.5456 10.1136 37.265 10.0556 37.0543 9.93963C36.8436 9.82126 36.6815 9.6875 36.5678 9.53835C36.4542 9.38684 36.3666 9.26136 36.305 9.16193H36.234V12.0455H35.396ZM36.2198 7.27273C36.2198 7.68466 36.2802 8.04806 36.4009 8.36293C36.5217 8.67543 36.698 8.92045 36.93 9.09801C37.1621 9.2732 37.4461 9.3608 37.7823 9.3608C38.1327 9.3608 38.4251 9.26847 38.6594 9.08381C38.8962 8.89678 39.0737 8.64583 39.1921 8.33097C39.3129 8.01373 39.3732 7.66098 39.3732 7.27273C39.3732 6.8892 39.314 6.54356 39.1957 6.2358C39.0797 5.92566 38.9033 5.68063 38.6665 5.50071C38.4322 5.31842 38.1374 5.22727 37.7823 5.22727C37.4414 5.22727 37.1549 5.31368 36.9229 5.48651C36.6909 5.65696 36.5157 5.89607 36.3974 6.20384C36.279 6.50923 36.2198 6.86553 36.2198 7.27273ZM41.8901 4.54545L43.1969 6.77557L44.5037 4.54545H45.4696L43.7083 7.27273L45.4696 10H44.5037L43.1969 7.88352L41.8901 10H40.9242L42.6571 7.27273L40.9242 4.54545H41.8901Z" fill="black"/>
</svg>
