<svg width="200" height="30" viewBox="0 0 200 30" fill="none" xmlns="http://www.w3.org/2000/svg">
<rect width="200" height="30" fill="white"/>
<path d="M0.704545 8V2.18182H4.19318V2.80682H1.40909V4.77273H3.93182V5.39773H1.40909V8H0.704545ZM6.76136 8.09091C6.36742 8.09091 6.02178 7.99716 5.72443 7.80966C5.42898 7.62216 5.19792 7.35985 5.03125 7.02273C4.86648 6.68561 4.78409 6.29167 4.78409 5.84091C4.78409 5.38636 4.86648 4.98958 5.03125 4.65057C5.19792 4.31155 5.42898 4.0483 5.72443 3.8608C6.02178 3.6733 6.36742 3.57955 6.76136 3.57955C7.1553 3.57955 7.5 3.6733 7.79545 3.8608C8.0928 4.0483 8.32386 4.31155 8.48864 4.65057C8.6553 4.98958 8.73864 5.38636 8.73864 5.84091C8.73864 6.29167 8.6553 6.68561 8.48864 7.02273C8.32386 7.35985 8.0928 7.62216 7.79545 7.80966C7.5 7.99716 7.1553 8.09091 6.76136 8.09091ZM6.76136 7.48864C7.06061 7.48864 7.30682 7.41193 7.5 7.25852C7.69318 7.10511 7.83617 6.90341 7.92898 6.65341C8.02178 6.40341 8.06818 6.13258 8.06818 5.84091C8.06818 5.54924 8.02178 5.27746 7.92898 5.02557C7.83617 4.77367 7.69318 4.57008 7.5 4.41477C7.30682 4.25947 7.06061 4.18182 6.76136 4.18182C6.46212 4.18182 6.21591 4.25947 6.02273 4.41477C5.82955 4.57008 5.68655 4.77367 5.59375 5.02557C5.50095 5.27746 5.45455 5.54924 5.45455 5.84091C5.45455 6.13258 5.50095 6.40341 5.59375 6.65341C5.68655 6.90341 5.82955 7.10511 6.02273 7.25852C6.21591 7.41193 6.46212 7.48864 6.76136 7.48864ZM10.4325 5.375V8H9.76207V3.63636H10.4098V4.31818H10.4666C10.5689 4.09659 10.7242 3.91856 10.9325 3.78409C11.1409 3.64773 11.4098 3.57955 11.7393 3.57955C12.0348 3.57955 12.2933 3.64015 12.5149 3.76136C12.7365 3.88068 12.9089 4.0625 13.032 4.30682C13.1551 4.54924 13.2166 4.85606 13.2166 5.22727V8H12.5462V5.27273C12.5462 4.92992 12.4571 4.66288 12.2791 4.47159C12.1011 4.27841 11.8568 4.18182 11.5462 4.18182C11.3321 4.18182 11.1409 4.22822 10.9723 4.32102C10.8056 4.41383 10.674 4.54924 10.5774 4.72727C10.4808 4.9053 10.4325 5.12121 10.4325 5.375ZM16.3395 3.63636V4.20455H14.0781V3.63636H16.3395ZM14.7372 2.59091H15.4077V6.75C15.4077 6.93939 15.4351 7.08144 15.4901 7.17614C15.5469 7.26894 15.6188 7.33144 15.706 7.36364C15.795 7.39394 15.8887 7.40909 15.9872 7.40909C16.0611 7.40909 16.1217 7.4053 16.169 7.39773C16.2164 7.38826 16.2543 7.38068 16.2827 7.375L16.419 7.97727C16.3736 7.99432 16.3101 8.01136 16.2287 8.02841C16.1473 8.04735 16.044 8.05682 15.919 8.05682C15.7296 8.05682 15.544 8.0161 15.3622 7.93466C15.1823 7.85322 15.0327 7.72917 14.9134 7.5625C14.7959 7.39583 14.7372 7.18561 14.7372 6.93182V2.59091ZM21.4503 8.07955C21.0601 8.07955 20.7154 8.01042 20.4162 7.87216C20.1188 7.73201 19.8868 7.53977 19.7202 7.29545C19.5535 7.04924 19.4711 6.76894 19.473 6.45455C19.4711 6.20833 19.5194 5.98106 19.6179 5.77273C19.7164 5.5625 19.8509 5.38731 20.0213 5.24716C20.1937 5.10511 20.3859 5.01515 20.598 4.97727V4.94318C20.3196 4.87121 20.098 4.71496 19.9332 4.47443C19.7685 4.23201 19.687 3.95644 19.6889 3.64773C19.687 3.35227 19.7618 3.08807 19.9134 2.85511C20.0649 2.62216 20.2732 2.43845 20.5384 2.30398C20.8054 2.16951 21.1094 2.10227 21.4503 2.10227C21.7874 2.10227 22.0885 2.16951 22.3537 2.30398C22.6188 2.43845 22.8272 2.62216 22.9787 2.85511C23.1321 3.08807 23.2098 3.35227 23.2116 3.64773C23.2098 3.95644 23.1255 4.23201 22.9588 4.47443C22.794 4.71496 22.5753 4.87121 22.3026 4.94318V4.97727C22.5128 5.01515 22.7022 5.10511 22.8707 5.24716C23.0393 5.38731 23.1738 5.5625 23.2741 5.77273C23.3745 5.98106 23.4257 6.20833 23.4276 6.45455C23.4257 6.76894 23.3404 7.04924 23.1719 7.29545C23.0052 7.53977 22.7732 7.73201 22.4759 7.87216C22.1804 8.01042 21.8385 8.07955 21.4503 8.07955ZM21.4503 7.45455C21.7135 7.45455 21.9408 7.41193 22.1321 7.3267C22.3234 7.24148 22.4711 7.12121 22.5753 6.96591C22.6795 6.81061 22.7325 6.62879 22.7344 6.42045C22.7325 6.20076 22.6757 6.00663 22.5639 5.83807C22.4522 5.66951 22.2997 5.53693 22.1065 5.44034C21.9152 5.34375 21.6965 5.29545 21.4503 5.29545C21.2022 5.29545 20.9806 5.34375 20.7855 5.44034C20.5923 5.53693 20.4399 5.66951 20.3281 5.83807C20.2183 6.00663 20.1643 6.20076 20.1662 6.42045C20.1643 6.62879 20.2145 6.81061 20.3168 6.96591C20.4209 7.12121 20.5696 7.24148 20.7628 7.3267C20.956 7.41193 21.1851 7.45455 21.4503 7.45455ZM21.4503 4.69318C21.6586 4.69318 21.8433 4.65152 22.0043 4.56818C22.1671 4.48485 22.295 4.36837 22.3878 4.21875C22.4806 4.06913 22.5279 3.89394 22.5298 3.69318C22.5279 3.49621 22.4815 3.32481 22.3906 3.17898C22.2997 3.03125 22.1738 2.91761 22.0128 2.83807C21.8518 2.75663 21.6643 2.71591 21.4503 2.71591C21.2325 2.71591 21.0421 2.75663 20.8793 2.83807C20.7164 2.91761 20.5904 3.03125 20.5014 3.17898C20.4124 3.32481 20.3688 3.49621 20.3707 3.69318C20.3688 3.89394 20.4134 4.06913 20.5043 4.21875C20.5971 4.36837 20.7249 4.48485 20.8878 4.56818C21.0507 4.65152 21.2382 4.69318 21.4503 4.69318ZM24.5277 9.63636V3.63636H25.1754V4.32955H25.255C25.3042 4.25379 25.3724 4.1572 25.4595 4.03977C25.5485 3.92045 25.6754 3.81439 25.8402 3.72159C26.0069 3.62689 26.2322 3.57955 26.5163 3.57955C26.8838 3.57955 27.2076 3.6714 27.4879 3.85511C27.7682 4.03883 27.987 4.29924 28.1442 4.63636C28.3014 4.97348 28.38 5.37121 28.38 5.82955C28.38 6.29167 28.3014 6.69223 28.1442 7.03125C27.987 7.36837 27.7692 7.62973 27.4908 7.81534C27.2124 7.99905 26.8913 8.09091 26.5277 8.09091C26.2474 8.09091 26.023 8.04451 25.8544 7.9517C25.6858 7.85701 25.5561 7.75 25.4652 7.63068C25.3743 7.50947 25.3042 7.40909 25.255 7.32955H25.1982V9.63636H24.5277ZM25.1868 5.81818C25.1868 6.14773 25.2351 6.43845 25.3317 6.69034C25.4283 6.94034 25.5694 7.13636 25.755 7.27841C25.9406 7.41856 26.1679 7.48864 26.4368 7.48864C26.7171 7.48864 26.951 7.41477 27.1385 7.26705C27.3279 7.11742 27.4699 6.91667 27.5646 6.66477C27.6612 6.41098 27.7095 6.12879 27.7095 5.81818C27.7095 5.51136 27.6622 5.23485 27.5675 4.98864C27.4747 4.74053 27.3336 4.54451 27.1442 4.40057C26.9567 4.25473 26.7209 4.18182 26.4368 4.18182C26.1641 4.18182 25.9349 4.25095 25.7493 4.3892C25.5637 4.52557 25.4235 4.71686 25.3288 4.96307C25.2341 5.20739 25.1868 5.49242 25.1868 5.81818ZM29.723 3.63636L30.7685 5.42045L31.8139 3.63636H32.5866L31.1776 5.81818L32.5866 8H31.8139L30.7685 6.30682L29.723 8H28.9503L30.3366 5.81818L28.9503 3.63636H29.723Z" fill="black"/>
</svg>
