<svg width="200" height="30" viewBox="0 0 200 30" fill="none" xmlns="http://www.w3.org/2000/svg">
<rect width="200" height="30" fill="white"/>
<path d="M1.05682 12V3.27273H6.28977V4.21023H2.11364V7.15909H5.89773V8.09659H2.11364V12H1.05682ZM10.142 12.1364C9.55114 12.1364 9.03267 11.9957 8.58665 11.7145C8.14347 11.4332 7.79688 11.0398 7.54688 10.5341C7.29972 10.0284 7.17614 9.4375 7.17614 8.76136C7.17614 8.07955 7.29972 7.48437 7.54688 6.97585C7.79688 6.46733 8.14347 6.07244 8.58665 5.79119C9.03267 5.50994 9.55114 5.36932 10.142 5.36932C10.733 5.36932 11.25 5.50994 11.6932 5.79119C12.1392 6.07244 12.4858 6.46733 12.733 6.97585C12.983 7.48437 13.108 8.07955 13.108 8.76136C13.108 9.4375 12.983 10.0284 12.733 10.5341C12.4858 11.0398 12.1392 11.4332 11.6932 11.7145C11.25 11.9957 10.733 12.1364 10.142 12.1364ZM10.142 11.233C10.5909 11.233 10.9602 11.1179 11.25 10.8878C11.5398 10.6577 11.7543 10.3551 11.8935 9.98011C12.0327 9.60511 12.1023 9.19886 12.1023 8.76136C12.1023 8.32386 12.0327 7.91619 11.8935 7.53835C11.7543 7.16051 11.5398 6.85511 11.25 6.62216C10.9602 6.3892 10.5909 6.27273 10.142 6.27273C9.69318 6.27273 9.32386 6.3892 9.03409 6.62216C8.74432 6.85511 8.52983 7.16051 8.39062 7.53835C8.25142 7.91619 8.18182 8.32386 8.18182 8.76136C8.18182 9.19886 8.25142 9.60511 8.39062 9.98011C8.52983 10.3551 8.74432 10.6577 9.03409 10.8878C9.32386 11.1179 9.69318 11.233 10.142 11.233ZM15.6488 8.0625V12H14.6431V5.45455H15.6147V6.47727H15.6999C15.8533 6.14489 16.0863 5.87784 16.3988 5.67614C16.7113 5.47159 17.1147 5.36932 17.609 5.36932C18.0522 5.36932 18.44 5.46023 18.7724 5.64205C19.1048 5.82102 19.3633 6.09375 19.5479 6.46023C19.7326 6.82386 19.8249 7.28409 19.8249 7.84091V12H18.8192V7.90909C18.8192 7.39489 18.6857 6.99432 18.4187 6.70739C18.1516 6.41761 17.7852 6.27273 17.3192 6.27273C16.9982 6.27273 16.7113 6.34233 16.4585 6.48153C16.2085 6.62074 16.011 6.82386 15.8661 7.09091C15.7212 7.35795 15.6488 7.68182 15.6488 8.0625ZM24.5092 5.45455V6.30682H21.1172V5.45455H24.5092ZM22.1058 3.88636H23.1115V10.125C23.1115 10.4091 23.1527 10.6222 23.2351 10.7642C23.3203 10.9034 23.4283 10.9972 23.5589 11.0455C23.6925 11.0909 23.8331 11.1136 23.9808 11.1136C24.0916 11.1136 24.1825 11.108 24.2536 11.0966C24.3246 11.0824 24.3814 11.071 24.424 11.0625L24.6286 11.9659C24.5604 11.9915 24.4652 12.017 24.343 12.0426C24.2209 12.071 24.0661 12.0852 23.8786 12.0852C23.5945 12.0852 23.3161 12.0241 23.0433 11.902C22.7734 11.7798 22.549 11.5938 22.37 11.3438C22.1939 11.0938 22.1058 10.7784 22.1058 10.3977V3.88636ZM32.4482 3.27273V12H31.3913V4.38068H31.3402L29.2095 5.79545V4.72159L31.3913 3.27273H32.4482ZM34.9581 12V11.233L37.8388 8.07955C38.1768 7.71023 38.4553 7.3892 38.674 7.11648C38.8928 6.84091 39.0547 6.58239 39.1598 6.34091C39.2678 6.09659 39.3217 5.84091 39.3217 5.57386C39.3217 5.26705 39.2479 5.00142 39.1001 4.77699C38.9553 4.55256 38.7564 4.37926 38.5036 4.2571C38.2507 4.13494 37.9666 4.07386 37.6513 4.07386C37.3161 4.07386 37.0234 4.14347 36.7734 4.28267C36.5263 4.41903 36.3345 4.6108 36.1982 4.85795C36.0646 5.10511 35.9979 5.39489 35.9979 5.72727H34.9922C34.9922 5.21591 35.1101 4.76705 35.3459 4.38068C35.5817 3.99432 35.9027 3.69318 36.3089 3.47727C36.718 3.26136 37.1768 3.15341 37.6854 3.15341C38.1967 3.15341 38.6499 3.26136 39.0447 3.47727C39.4396 3.69318 39.7493 3.98437 39.9737 4.35085C40.1982 4.71733 40.3104 5.125 40.3104 5.57386C40.3104 5.89489 40.2521 6.20881 40.1357 6.51562C40.022 6.8196 39.8232 7.15909 39.5391 7.53409C39.2578 7.90625 38.8672 8.3608 38.3672 8.89773L36.407 10.9943V11.0625H40.4638V12H34.9581ZM42.2408 14.4545V5.45455H43.2124V6.49432H43.3317C43.4055 6.38068 43.5078 6.2358 43.6385 6.05966C43.772 5.88068 43.9624 5.72159 44.2095 5.58239C44.4595 5.44034 44.7976 5.36932 45.2237 5.36932C45.7749 5.36932 46.2607 5.5071 46.6811 5.78267C47.1016 6.05824 47.4297 6.44886 47.6655 6.95455C47.9013 7.46023 48.0192 8.05682 48.0192 8.74432C48.0192 9.4375 47.9013 10.0384 47.6655 10.5469C47.4297 11.0526 47.103 11.4446 46.6854 11.723C46.2678 11.9986 45.7862 12.1364 45.2408 12.1364C44.8203 12.1364 44.4837 12.0668 44.2308 11.9276C43.978 11.7855 43.7834 11.625 43.647 11.446C43.5107 11.2642 43.4055 11.1136 43.3317 10.9943H43.2464V14.4545H42.2408ZM43.2294 8.72727C43.2294 9.22159 43.3018 9.65767 43.4467 10.0355C43.5916 10.4105 43.8033 10.7045 44.0817 10.9176C44.3601 11.1278 44.701 11.233 45.1044 11.233C45.5249 11.233 45.8757 11.1222 46.157 10.9006C46.4411 10.6761 46.6541 10.375 46.7962 9.99716C46.9411 9.61648 47.0135 9.19318 47.0135 8.72727C47.0135 8.26705 46.9425 7.85227 46.8004 7.48295C46.6612 7.1108 46.4496 6.81676 46.1655 6.60085C45.8842 6.3821 45.5305 6.27273 45.1044 6.27273C44.6953 6.27273 44.3516 6.37642 44.0732 6.58381C43.7947 6.78835 43.5845 7.07528 43.4425 7.4446C43.3004 7.81108 43.2294 8.23864 43.2294 8.72727ZM50.0337 5.45455L51.6019 8.13068L53.1701 5.45455H54.3292L52.2156 8.72727L54.3292 12H53.1701L51.6019 9.46023L50.0337 12H48.8746L50.9542 8.72727L48.8746 5.45455H50.0337Z" fill="black"/>
</svg>
