<svg width="200" height="48" viewBox="0 0 200 48" fill="none" xmlns="http://www.w3.org/2000/svg">
<rect width="200" height="48" fill="white"/>
<path d="M2.81818 31V7.72727H16.7727V10.2273H5.63636V18.0909H15.7273V20.5909H5.63636V31H2.81818ZM27.0455 31.3636C25.4697 31.3636 24.0871 30.9886 22.8977 30.2386C21.7159 29.4886 20.7917 28.4394 20.125 27.0909C19.4659 25.7424 19.1364 24.1667 19.1364 22.3636C19.1364 20.5455 19.4659 18.9583 20.125 17.6023C20.7917 16.2462 21.7159 15.1932 22.8977 14.4432C24.0871 13.6932 25.4697 13.3182 27.0455 13.3182C28.6212 13.3182 30 13.6932 31.1818 14.4432C32.3712 15.1932 33.2955 16.2462 33.9545 17.6023C34.6212 18.9583 34.9545 20.5455 34.9545 22.3636C34.9545 24.1667 34.6212 25.7424 33.9545 27.0909C33.2955 28.4394 32.3712 29.4886 31.1818 30.2386C30 30.9886 28.6212 31.3636 27.0455 31.3636ZM27.0455 28.9545C28.2424 28.9545 29.2273 28.6477 30 28.0341C30.7727 27.4205 31.3447 26.6136 31.7159 25.6136C32.0871 24.6136 32.2727 23.5303 32.2727 22.3636C32.2727 21.197 32.0871 20.1098 31.7159 19.1023C31.3447 18.0947 30.7727 17.2803 30 16.6591C29.2273 16.0379 28.2424 15.7273 27.0455 15.7273C25.8485 15.7273 24.8636 16.0379 24.0909 16.6591C23.3182 17.2803 22.7462 18.0947 22.375 19.1023C22.0038 20.1098 21.8182 21.197 21.8182 22.3636C21.8182 23.5303 22.0038 24.6136 22.375 25.6136C22.7462 26.6136 23.3182 27.4205 24.0909 28.0341C24.8636 28.6477 25.8485 28.9545 27.0455 28.9545ZM41.7301 20.5V31H39.0483V13.5455H41.6392V16.2727H41.8665C42.2756 15.3864 42.8968 14.6742 43.7301 14.1364C44.5634 13.5909 45.6392 13.3182 46.9574 13.3182C48.1392 13.3182 49.1733 13.5606 50.0597 14.0455C50.946 14.5227 51.6354 15.25 52.1278 16.2273C52.6203 17.197 52.8665 18.4242 52.8665 19.9091V31H50.1847V20.0909C50.1847 18.7197 49.8286 17.6515 49.1165 16.8864C48.4044 16.1136 47.4271 15.7273 46.1847 15.7273C45.3286 15.7273 44.5634 15.9129 43.8892 16.2841C43.2225 16.6553 42.696 17.197 42.3097 17.9091C41.9233 18.6212 41.7301 19.4848 41.7301 20.5ZM65.358 13.5455V15.8182H56.3125V13.5455H65.358ZM58.9489 9.36364H61.6307V26C61.6307 26.7576 61.7405 27.3258 61.9602 27.7045C62.1875 28.0758 62.4754 28.3258 62.8239 28.4545C63.1799 28.5758 63.5549 28.6364 63.9489 28.6364C64.2443 28.6364 64.4867 28.6212 64.6761 28.5909C64.8655 28.553 65.017 28.5227 65.1307 28.5L65.6761 30.9091C65.4943 30.9773 65.2405 31.0455 64.9148 31.1136C64.589 31.1894 64.1761 31.2273 63.6761 31.2273C62.9186 31.2273 62.1761 31.0644 61.4489 30.7386C60.7292 30.4129 60.1307 29.9167 59.6534 29.25C59.1837 28.5833 58.9489 27.7424 58.9489 26.7273V9.36364ZM86.2102 31.3182C84.7102 31.3182 83.3731 31.0606 82.1989 30.5455C81.0322 30.0303 80.1042 29.3144 79.4148 28.3977C78.733 27.4735 78.3617 26.4015 78.3011 25.1818H81.1648C81.2254 25.9318 81.483 26.5795 81.9375 27.125C82.392 27.6629 82.9867 28.0795 83.7216 28.375C84.4564 28.6705 85.2708 28.8182 86.1648 28.8182C87.1648 28.8182 88.0511 28.6439 88.8239 28.2955C89.5966 27.947 90.2027 27.4621 90.642 26.8409C91.0814 26.2197 91.3011 25.5 91.3011 24.6818C91.3011 23.8258 91.089 23.072 90.6648 22.4205C90.2405 21.7614 89.6193 21.2462 88.8011 20.875C87.983 20.5038 86.983 20.3182 85.8011 20.3182H83.9375V17.8182H85.8011C86.7254 17.8182 87.536 17.6515 88.233 17.3182C88.9375 16.9848 89.4867 16.5152 89.8807 15.9091C90.2822 15.303 90.483 14.5909 90.483 13.7727C90.483 12.9848 90.3087 12.2992 89.9602 11.7159C89.6117 11.1326 89.1193 10.678 88.483 10.3523C87.8542 10.0265 87.1117 9.86364 86.2557 9.86364C85.4527 9.86364 84.6951 10.0114 83.983 10.3068C83.2784 10.5947 82.7027 11.0152 82.2557 11.5682C81.8087 12.1136 81.5663 12.7727 81.5284 13.5455H78.8011C78.8466 12.3258 79.214 11.2576 79.9034 10.3409C80.5928 9.41667 81.4943 8.69697 82.608 8.18182C83.7292 7.66667 84.9602 7.40909 86.3011 7.40909C87.7405 7.40909 88.9754 7.70076 90.0057 8.28409C91.036 8.85985 91.8277 9.62121 92.3807 10.5682C92.9337 11.5152 93.2102 12.5379 93.2102 13.6364C93.2102 14.947 92.8655 16.0644 92.1761 16.9886C91.4943 17.9129 90.5663 18.553 89.392 18.9091V19.0909C90.8617 19.3333 92.0095 19.9583 92.8352 20.9659C93.661 21.9659 94.0739 23.2045 94.0739 24.6818C94.0739 25.947 93.7292 27.0833 93.0398 28.0909C92.358 29.0909 91.4261 29.8788 90.2443 30.4545C89.0625 31.0303 87.7178 31.3182 86.2102 31.3182ZM98.7216 31V28.9545L106.403 20.5455C107.305 19.5606 108.047 18.7045 108.631 17.9773C109.214 17.2424 109.646 16.553 109.926 15.9091C110.214 15.2576 110.358 14.5758 110.358 13.8636C110.358 13.0455 110.161 12.3371 109.767 11.7386C109.381 11.1402 108.85 10.678 108.176 10.3523C107.502 10.0265 106.744 9.86364 105.903 9.86364C105.009 9.86364 104.229 10.0492 103.562 10.4205C102.903 10.7841 102.392 11.2955 102.028 11.9545C101.672 12.6136 101.494 13.3864 101.494 14.2727H98.8125C98.8125 12.9091 99.1269 11.7121 99.7557 10.6818C100.384 9.65151 101.241 8.84848 102.324 8.27273C103.415 7.69697 104.638 7.40909 105.994 7.40909C107.358 7.40909 108.566 7.69697 109.619 8.27273C110.672 8.84848 111.498 9.625 112.097 10.6023C112.695 11.5795 112.994 12.6667 112.994 13.8636C112.994 14.7197 112.839 15.5568 112.528 16.375C112.225 17.1856 111.695 18.0909 110.938 19.0909C110.188 20.0833 109.146 21.2955 107.812 22.7273L102.585 28.3182V28.5H113.403V31H98.7216ZM118.142 37.5455V13.5455H120.733V16.3182H121.051C121.248 16.0152 121.521 15.6288 121.869 15.1591C122.225 14.6818 122.733 14.2576 123.392 13.8864C124.059 13.5076 124.96 13.3182 126.097 13.3182C127.566 13.3182 128.862 13.6856 129.983 14.4205C131.104 15.1553 131.979 16.197 132.608 17.5455C133.237 18.8939 133.551 20.4848 133.551 22.3182C133.551 24.1667 133.237 25.7689 132.608 27.125C131.979 28.4735 131.108 29.5189 129.994 30.2614C128.881 30.9962 127.597 31.3636 126.142 31.3636C125.021 31.3636 124.123 31.178 123.449 30.8068C122.775 30.428 122.256 30 121.892 29.5227C121.528 29.0379 121.248 28.6364 121.051 28.3182H120.824V37.5455H118.142ZM120.778 22.2727C120.778 23.5909 120.972 24.7538 121.358 25.7614C121.744 26.7614 122.309 27.5455 123.051 28.1136C123.794 28.6742 124.703 28.9545 125.778 28.9545C126.9 28.9545 127.835 28.6591 128.585 28.0682C129.343 27.4697 129.911 26.6667 130.29 25.6591C130.676 24.6439 130.869 23.5152 130.869 22.2727C130.869 21.0455 130.68 19.9394 130.301 18.9545C129.93 17.9621 129.366 17.178 128.608 16.6023C127.858 16.0189 126.915 15.7273 125.778 15.7273C124.688 15.7273 123.771 16.0038 123.028 16.5568C122.286 17.1023 121.725 17.8674 121.347 18.8523C120.968 19.8295 120.778 20.9697 120.778 22.2727ZM138.923 13.5455L143.105 20.6818L147.287 13.5455H150.378L144.741 22.2727L150.378 31H147.287L143.105 24.2273L138.923 31H135.832L141.378 22.2727L135.832 13.5455H138.923Z" fill="black"/>
</svg>
