<svg width="200" height="30" viewBox="0 0 200 30" fill="none" xmlns="http://www.w3.org/2000/svg">
<rect width="200" height="30" fill="white"/>
<path d="M1.40909 16V4.36364H8.38636V5.61364H2.81818V9.54545H7.86364V10.7955H2.81818V16H1.40909ZM13.5227 16.1818C12.7348 16.1818 12.0436 15.9943 11.4489 15.6193C10.858 15.2443 10.3958 14.7197 10.0625 14.0455C9.73295 13.3712 9.56818 12.5833 9.56818 11.6818C9.56818 10.7727 9.73295 9.97917 10.0625 9.30114C10.3958 8.62311 10.858 8.09659 11.4489 7.72159C12.0436 7.34659 12.7348 7.15909 13.5227 7.15909C14.3106 7.15909 15 7.34659 15.5909 7.72159C16.1856 8.09659 16.6477 8.62311 16.9773 9.30114C17.3106 9.97917 17.4773 10.7727 17.4773 11.6818C17.4773 12.5833 17.3106 13.3712 16.9773 14.0455C16.6477 14.7197 16.1856 15.2443 15.5909 15.6193C15 15.9943 14.3106 16.1818 13.5227 16.1818ZM13.5227 14.9773C14.1212 14.9773 14.6136 14.8239 15 14.517C15.3864 14.2102 15.6723 13.8068 15.858 13.3068C16.0436 12.8068 16.1364 12.2652 16.1364 11.6818C16.1364 11.0985 16.0436 10.5549 15.858 10.0511C15.6723 9.54735 15.3864 9.14015 15 8.82955C14.6136 8.51894 14.1212 8.36364 13.5227 8.36364C12.9242 8.36364 12.4318 8.51894 12.0455 8.82955C11.6591 9.14015 11.3731 9.54735 11.1875 10.0511C11.0019 10.5549 10.9091 11.0985 10.9091 11.6818C10.9091 12.2652 11.0019 12.8068 11.1875 13.3068C11.3731 13.8068 11.6591 14.2102 12.0455 14.517C12.4318 14.8239 12.9242 14.9773 13.5227 14.9773ZM20.8651 10.75V16H19.5241V7.27273H20.8196V8.63636H20.9332C21.1378 8.19318 21.4484 7.83712 21.8651 7.56818C22.2817 7.29545 22.8196 7.15909 23.4787 7.15909C24.0696 7.15909 24.5866 7.2803 25.0298 7.52273C25.473 7.76136 25.8177 8.125 26.0639 8.61364C26.3101 9.09848 26.4332 9.71212 26.4332 10.4545V16H25.0923V10.5455C25.0923 9.85985 24.9143 9.32576 24.5582 8.94318C24.2022 8.55682 23.7135 8.36364 23.0923 8.36364C22.6643 8.36364 22.2817 8.45644 21.9446 8.64205C21.6113 8.82765 21.348 9.09848 21.1548 9.45455C20.9616 9.81061 20.8651 10.2424 20.8651 10.75ZM32.679 7.27273V8.40909H28.1562V7.27273H32.679ZM29.4744 5.18182H30.8153V13.5C30.8153 13.8788 30.8703 14.1629 30.9801 14.3523C31.0938 14.5379 31.2377 14.6629 31.4119 14.7273C31.59 14.7879 31.7775 14.8182 31.9744 14.8182C32.1222 14.8182 32.2434 14.8106 32.3381 14.7955C32.4328 14.7765 32.5085 14.7614 32.5653 14.75L32.8381 15.9545C32.7472 15.9886 32.6203 16.0227 32.4574 16.0568C32.2945 16.0947 32.0881 16.1136 31.8381 16.1136C31.4593 16.1136 31.0881 16.0322 30.7244 15.8693C30.3646 15.7064 30.0653 15.4583 29.8267 15.125C29.5919 14.7917 29.4744 14.3712 29.4744 13.8636V5.18182ZM43.2642 4.36364V16H41.8551V5.84091H41.7869L38.946 7.72727V6.29545L41.8551 4.36364H43.2642ZM50.4744 16.1591C49.9972 16.1515 49.5199 16.0606 49.0426 15.8864C48.5653 15.7121 48.1297 15.4186 47.7358 15.0057C47.3419 14.589 47.0256 14.0265 46.7869 13.3182C46.5483 12.6061 46.429 11.7121 46.429 10.6364C46.429 9.60606 46.5256 8.69318 46.7188 7.89773C46.9119 7.09848 47.1922 6.42614 47.5597 5.88068C47.9271 5.33144 48.3703 4.91477 48.8892 4.63068C49.4119 4.34659 50.0009 4.20455 50.6562 4.20455C51.3078 4.20455 51.8873 4.33523 52.3949 4.59659C52.9063 4.85417 53.3229 5.21401 53.6449 5.67614C53.9669 6.13826 54.1752 6.67045 54.2699 7.27273H52.8835C52.7547 6.75 52.5047 6.31629 52.1335 5.97159C51.7623 5.62689 51.2699 5.45455 50.6562 5.45455C49.7547 5.45455 49.0445 5.84659 48.5256 6.63068C48.0104 7.41477 47.7509 8.51515 47.7472 9.93182H47.8381C48.0502 9.60985 48.3021 9.33523 48.5938 9.10795C48.8892 8.87689 49.215 8.69886 49.571 8.57386C49.9271 8.44886 50.304 8.38636 50.7017 8.38636C51.3684 8.38636 51.9782 8.55303 52.5312 8.88636C53.0843 9.21591 53.5275 9.67235 53.8608 10.2557C54.1941 10.8352 54.3608 11.5 54.3608 12.25C54.3608 12.9697 54.1998 13.6288 53.8778 14.2273C53.5559 14.822 53.1032 15.2955 52.5199 15.6477C51.9403 15.9962 51.2585 16.1667 50.4744 16.1591ZM50.4744 14.9091C50.9517 14.9091 51.3797 14.7898 51.7585 14.5511C52.1411 14.3125 52.4422 13.9924 52.6619 13.5909C52.8854 13.1894 52.9972 12.7424 52.9972 12.25C52.9972 11.7689 52.8892 11.3314 52.6733 10.9375C52.4612 10.5398 52.1676 10.2235 51.7926 9.98864C51.4214 9.75379 50.9972 9.63636 50.5199 9.63636C50.16 9.63636 49.8248 9.70833 49.5142 9.85227C49.2036 9.99242 48.9309 10.1856 48.696 10.4318C48.465 10.678 48.2831 10.9602 48.1506 11.2784C48.018 11.5928 47.9517 11.9242 47.9517 12.2727C47.9517 12.7348 48.0597 13.1667 48.2756 13.5682C48.4953 13.9697 48.7945 14.2936 49.1733 14.5398C49.5559 14.786 49.9896 14.9091 50.4744 14.9091ZM56.6179 19.2727V7.27273H57.9134V8.65909H58.0724C58.1709 8.50758 58.3073 8.31439 58.4815 8.07955C58.6596 7.84091 58.9134 7.62879 59.2429 7.44318C59.5762 7.25379 60.027 7.15909 60.5952 7.15909C61.33 7.15909 61.9777 7.3428 62.5384 7.71023C63.099 8.07765 63.5365 8.59848 63.8509 9.27273C64.1652 9.94697 64.3224 10.7424 64.3224 11.6591C64.3224 12.5833 64.1652 13.3845 63.8509 14.0625C63.5365 14.7367 63.1009 15.2595 62.544 15.6307C61.9872 15.9981 61.3452 16.1818 60.6179 16.1818C60.0573 16.1818 59.6084 16.089 59.2713 15.9034C58.9342 15.714 58.6747 15.5 58.4929 15.2614C58.3111 15.0189 58.1709 14.8182 58.0724 14.6591H57.9588V19.2727H56.6179ZM57.9361 11.6364C57.9361 12.2955 58.0327 12.8769 58.2259 13.3807C58.419 13.8807 58.7012 14.2727 59.0724 14.5568C59.4437 14.8371 59.8982 14.9773 60.4361 14.9773C60.9967 14.9773 61.4645 14.8295 61.8395 14.5341C62.2183 14.2348 62.5024 13.8333 62.6918 13.3295C62.8849 12.822 62.9815 12.2576 62.9815 11.6364C62.9815 11.0227 62.8868 10.4697 62.6974 9.97727C62.5118 9.48106 62.2296 9.08902 61.8509 8.80114C61.4759 8.50947 61.0043 8.36364 60.4361 8.36364C59.8906 8.36364 59.4323 8.50189 59.0611 8.77841C58.6899 9.05114 58.4096 9.43371 58.2202 9.92614C58.0308 10.4148 57.9361 10.9848 57.9361 11.6364ZM67.0085 7.27273L69.0994 10.8409L71.1903 7.27273H72.7358L69.9176 11.6364L72.7358 16H71.1903L69.0994 12.6136L67.0085 16H65.4631L68.2358 11.6364L65.4631 7.27273H67.0085Z" fill="black"/>
</svg>
