<svg width="200" height="50" viewBox="0 0 200 50" fill="none" xmlns="http://www.w3.org/2000/svg">
<g clip-path="url(#clip0_0_1186)">
<rect width="200" height="50" fill="white"/>
<path d="M2.625 3.81818L2.52557 11.1364H1.37216L1.27273 3.81818H2.625ZM1.94886 14.0795C1.7036 14.0795 1.49313 13.9917 1.31747 13.8161C1.14181 13.6404 1.05398 13.4299 1.05398 13.1847C1.05398 12.9394 1.14181 12.7289 1.31747 12.5533C1.49313 12.3776 1.7036 12.2898 1.94886 12.2898C2.19413 12.2898 2.40459 12.3776 2.58026 12.5533C2.75592 12.7289 2.84375 12.9394 2.84375 13.1847C2.84375 13.3471 2.80232 13.4962 2.71946 13.6321C2.63991 13.768 2.5322 13.8774 2.39631 13.9602C2.26373 14.0398 2.11458 14.0795 1.94886 14.0795ZM10.8368 15.1932C9.82262 15.1932 8.92608 15.054 8.14719 14.7756C7.36831 14.5005 6.71372 14.0945 6.18342 13.5575C5.65311 13.0206 5.25207 12.3627 4.98029 11.5838C4.70851 10.8049 4.57262 9.91335 4.57262 8.90909C4.57262 7.93797 4.71017 7.0696 4.98526 6.30398C5.26367 5.53835 5.66637 4.88873 6.19336 4.35511C6.72366 3.81818 7.36665 3.40885 8.12234 3.12713C8.88133 2.84541 9.73976 2.70455 10.6976 2.70455C11.629 2.70455 12.4443 2.85701 13.1436 3.16193C13.8463 3.46354 14.4329 3.87287 14.9036 4.38991C15.3775 4.90365 15.7322 5.48201 15.9675 6.125C16.2061 6.76799 16.3255 7.43087 16.3255 8.11364C16.3255 8.59422 16.3023 9.08144 16.2559 9.57528C16.2095 10.0691 16.1117 10.5232 15.9625 10.9375C15.8134 11.3485 15.583 11.6799 15.2715 11.9318C14.9632 12.1837 14.5456 12.3097 14.0186 12.3097C13.7866 12.3097 13.5314 12.2732 13.253 12.2003C12.9746 12.1274 12.7277 12.0064 12.5123 11.8374C12.2968 11.6683 12.1692 11.4413 12.1294 11.1562H12.0698C11.9902 11.3485 11.8676 11.5308 11.7019 11.7031C11.5395 11.8755 11.3257 12.013 11.0605 12.1158C10.7987 12.2185 10.4789 12.2633 10.101 12.25C9.67016 12.2334 9.29066 12.1373 8.96254 11.9616C8.63441 11.7827 8.35932 11.5407 8.13725 11.2358C7.9185 10.9276 7.75278 10.5713 7.64009 10.1669C7.53072 9.75923 7.47603 9.32008 7.47603 8.84943C7.47603 8.40199 7.54232 7.99266 7.67489 7.62145C7.80747 7.25024 7.99142 6.92543 8.22674 6.64702C8.46538 6.36861 8.74379 6.14654 9.06197 5.98082C9.38346 5.81179 9.72982 5.70739 10.101 5.66761C10.4325 5.63447 10.7341 5.64938 11.0059 5.71236C11.2776 5.77202 11.5014 5.86316 11.677 5.9858C11.8527 6.10511 11.9637 6.23769 12.0101 6.38352H12.0698V5.8267H13.1238V10.321C13.1238 10.5994 13.2016 10.8447 13.3574 11.0568C13.5132 11.2689 13.7402 11.375 14.0385 11.375C14.3766 11.375 14.6351 11.259 14.8141 11.027C14.9964 10.795 15.1207 10.437 15.187 9.95312C15.2566 9.46922 15.2914 8.84943 15.2914 8.09375C15.2914 7.64962 15.2301 7.21212 15.1074 6.78125C14.9881 6.34706 14.8058 5.94105 14.5605 5.56321C14.3186 5.18537 14.012 4.85227 13.6408 4.56392C13.2696 4.27557 12.8337 4.05019 12.3333 3.88778C11.8361 3.72206 11.271 3.6392 10.638 3.6392C9.85908 3.6392 9.1614 3.76018 8.54492 4.00213C7.93176 4.24077 7.40974 4.59044 6.97887 5.05114C6.55131 5.50852 6.22485 6.06534 5.99947 6.72159C5.7774 7.37453 5.66637 8.11695 5.66637 8.94886C5.66637 9.79403 5.7774 10.5447 5.99947 11.201C6.22485 11.8572 6.55629 12.4107 6.99379 12.8615C7.4346 13.3123 7.97982 13.6553 8.62944 13.8906C9.27906 14.1226 10.0281 14.2386 10.8766 14.2386C11.2412 14.2386 11.6008 14.2038 11.9554 14.1342C12.3101 14.0646 12.6233 13.9884 12.8951 13.9055C13.1668 13.8227 13.3624 13.7614 13.4817 13.7216L13.7601 14.6364C13.5546 14.7225 13.2862 14.8087 12.9547 14.8949C12.6266 14.9811 12.2753 15.0523 11.9007 15.1087C11.5295 15.165 11.1749 15.1932 10.8368 15.1932ZM10.2601 11.2358C10.7042 11.2358 11.0639 11.1463 11.339 10.9673C11.6141 10.7884 11.8146 10.5182 11.9405 10.157C12.0665 9.79569 12.1294 9.33996 12.1294 8.78977C12.1294 8.23295 12.0598 7.79877 11.9206 7.48722C11.7814 7.17566 11.5759 6.95691 11.3042 6.83097C11.0324 6.70502 10.6976 6.64205 10.2999 6.64205C9.92205 6.64205 9.5989 6.74148 9.33043 6.94034C9.06528 7.13589 8.86145 7.39773 8.71893 7.72585C8.57972 8.05066 8.51012 8.4053 8.51012 8.78977C8.51012 9.21401 8.56647 9.6134 8.67916 9.98793C8.79184 10.3591 8.97579 10.6607 9.231 10.8928C9.48621 11.1214 9.82925 11.2358 10.2601 11.2358ZM21.88 14L23.5504 3.81818H24.5447L22.8743 14H21.88ZM17.2464 11.1761L17.4055 10.1818H25.0021L24.843 11.1761H17.2464ZM18.3004 14L19.9709 3.81818H20.9652L19.2947 14H18.3004ZM17.843 7.63636L18.0021 6.64205H25.5987L25.4396 7.63636H17.843ZM29.8967 15.2727V2.54545H30.712V15.2727H29.8967ZM32.641 6.36364C32.5813 5.85985 32.3394 5.46875 31.9151 5.19034C31.4909 4.91193 30.9705 4.77273 30.354 4.77273C29.9033 4.77273 29.5089 4.84564 29.1708 4.99148C28.8361 5.13731 28.5742 5.33783 28.3853 5.59304C28.1997 5.84825 28.1069 6.13826 28.1069 6.46307C28.1069 6.73485 28.1715 6.96851 28.3008 7.16406C28.4334 7.3563 28.6024 7.51705 28.8079 7.64631C29.0134 7.77225 29.2288 7.87666 29.4542 7.95952C29.6796 8.03906 29.8867 8.10369 30.0756 8.15341L31.1097 8.43182C31.3749 8.50142 31.6699 8.59754 31.9947 8.72017C32.3228 8.8428 32.636 9.01018 32.9343 9.2223C33.2359 9.43111 33.4845 9.69957 33.68 10.0277C33.8756 10.3558 33.9734 10.7585 33.9734 11.2358C33.9734 11.786 33.8292 12.2831 33.5408 12.7273C33.2558 13.1714 32.8382 13.5244 32.288 13.7862C31.7411 14.0481 31.0766 14.179 30.2944 14.179C29.5652 14.179 28.9338 14.0613 28.4002 13.826C27.8699 13.5907 27.4523 13.2625 27.1474 12.8416C26.8458 12.4207 26.6751 11.9318 26.6353 11.375H27.908C27.9412 11.7595 28.0704 12.0777 28.2958 12.3295C28.5245 12.5781 28.8129 12.7637 29.1609 12.8864C29.5122 13.0057 29.89 13.0653 30.2944 13.0653C30.765 13.0653 31.1876 12.9891 31.5621 12.8366C31.9367 12.6809 32.2333 12.4654 32.4521 12.1903C32.6708 11.9119 32.7802 11.5871 32.7802 11.2159C32.7802 10.8778 32.6857 10.6027 32.4968 10.3906C32.3079 10.1785 32.0593 10.0062 31.7511 9.87358C31.4428 9.741 31.1097 9.625 30.7518 9.52557L29.4989 9.16761C28.7035 8.93892 28.0737 8.61245 27.6097 8.18821C27.1457 7.76397 26.9137 7.20881 26.9137 6.52273C26.9137 5.95265 27.0678 5.45549 27.3761 5.03125C27.6876 4.60369 28.1052 4.27225 28.6289 4.03693C29.1559 3.7983 29.7442 3.67898 30.3938 3.67898C31.0501 3.67898 31.6334 3.79664 32.1438 4.03196C32.6542 4.26397 33.0586 4.58215 33.3569 4.98651C33.6585 5.39086 33.8176 5.8499 33.8342 6.36364H32.641ZM41.0119 12.0909V11.554C41.0119 11.1828 41.0881 10.843 41.2406 10.5348C41.3964 10.2232 41.6217 9.97467 41.9167 9.78906C42.215 9.60014 42.5763 9.50568 43.0005 9.50568C43.4314 9.50568 43.7927 9.60014 44.0843 9.78906C44.376 9.97467 44.5964 10.2232 44.7456 10.5348C44.8947 10.843 44.9693 11.1828 44.9693 11.554V12.0909C44.9693 12.4621 44.8931 12.8035 44.7406 13.1151C44.5914 13.4233 44.3694 13.6719 44.0744 13.8608C43.7827 14.0464 43.4248 14.1392 43.0005 14.1392C42.5697 14.1392 42.2067 14.0464 41.9118 13.8608C41.6168 13.6719 41.3931 13.4233 41.2406 13.1151C41.0881 12.8035 41.0119 12.4621 41.0119 12.0909ZM42.0261 11.554V12.0909C42.0261 12.3991 42.099 12.6759 42.2449 12.9212C42.3907 13.1631 42.6426 13.2841 43.0005 13.2841C43.3485 13.2841 43.5938 13.1631 43.7363 12.9212C43.8822 12.6759 43.9551 12.3991 43.9551 12.0909V11.554C43.9551 11.2457 43.8855 10.9706 43.7463 10.7287C43.6071 10.4834 43.3585 10.3608 43.0005 10.3608C42.6525 10.3608 42.4023 10.4834 42.2498 10.7287C42.1007 10.9706 42.0261 11.2457 42.0261 11.554ZM35.9409 6.2642V5.72727C35.9409 5.35606 36.0171 5.01634 36.1696 4.7081C36.3253 4.39654 36.5507 4.14796 36.8457 3.96236C37.144 3.77344 37.5053 3.67898 37.9295 3.67898C38.3604 3.67898 38.7217 3.77344 39.0133 3.96236C39.305 4.14796 39.5254 4.39654 39.6745 4.7081C39.8237 5.01634 39.8983 5.35606 39.8983 5.72727V6.2642C39.8983 6.63542 39.822 6.9768 39.6696 7.28835C39.5204 7.59659 39.2984 7.84517 39.0034 8.03409C38.7117 8.2197 38.3538 8.3125 37.9295 8.3125C37.4986 8.3125 37.1357 8.2197 36.8407 8.03409C36.5458 7.84517 36.322 7.59659 36.1696 7.28835C36.0171 6.9768 35.9409 6.63542 35.9409 6.2642ZM36.9551 5.72727V6.2642C36.9551 6.57244 37.028 6.8492 37.1738 7.09446C37.3197 7.33641 37.5716 7.45739 37.9295 7.45739C38.2775 7.45739 38.5228 7.33641 38.6653 7.09446C38.8111 6.8492 38.8841 6.57244 38.8841 6.2642V5.72727C38.8841 5.41903 38.8145 5.14394 38.6752 4.90199C38.536 4.65672 38.2875 4.53409 37.9295 4.53409C37.5815 4.53409 37.3313 4.65672 37.1788 4.90199C37.0297 5.14394 36.9551 5.41903 36.9551 5.72727ZM36.3187 14L43.3187 3.81818H44.4522L37.4522 14H36.3187ZM49.2449 4.69318H49.6028V5.19034H49.2449V4.69318ZM46.6994 8.43182L48.7477 4.13636H50.1L52.1483 8.43182H50.975L49.3642 4.99148H49.4835L47.8926 8.43182H46.6994ZM56.1839 14.1392C55.5144 14.1392 54.9377 14.0166 54.4538 13.7713C53.9699 13.526 53.5971 13.1896 53.3352 12.7621C53.0734 12.3345 52.9425 11.8456 52.9425 11.2955C52.9425 10.8712 53.032 10.495 53.2109 10.1669C53.3932 9.83546 53.6435 9.52888 53.9616 9.24716C54.2831 8.96212 54.6527 8.67708 55.0703 8.39205L56.5419 7.2983C56.8303 7.10937 57.0606 6.9072 57.233 6.69176C57.4086 6.47633 57.4964 6.1946 57.4964 5.84659C57.4964 5.58807 57.3821 5.33783 57.1534 5.09588C56.928 4.85393 56.6314 4.73295 56.2635 4.73295C56.005 4.73295 55.7763 4.79924 55.5774 4.93182C55.3819 5.06108 55.2277 5.2268 55.1151 5.42898C55.0057 5.62784 54.951 5.83333 54.951 6.04545C54.951 6.28409 55.0156 6.52604 55.1449 6.77131C55.2775 7.01326 55.4448 7.26184 55.647 7.51705C55.8525 7.76894 56.0646 8.02746 56.2834 8.29261L60.9567 14H59.5447L55.6868 9.34659C55.3288 8.91572 55.004 8.52462 54.7124 8.1733C54.4207 7.82197 54.1887 7.47562 54.0163 7.13423C53.844 6.79285 53.7578 6.4233 53.7578 6.02557C53.7578 5.56818 53.8589 5.16714 54.0611 4.82244C54.2666 4.47443 54.5533 4.20431 54.9212 4.01207C55.2924 3.81652 55.7266 3.71875 56.2237 3.71875C56.7341 3.71875 57.1733 3.81818 57.5412 4.01705C57.9091 4.21259 58.1925 4.47277 58.3913 4.79758C58.5902 5.11908 58.6896 5.46875 58.6896 5.84659C58.6896 6.33381 58.5687 6.75639 58.3267 7.11435C58.0848 7.4723 57.755 7.8054 57.3374 8.11364L55.3089 9.625C54.8516 9.96307 54.5417 10.2912 54.3793 10.6094C54.2169 10.9276 54.1357 11.1562 54.1357 11.2955C54.1357 11.6136 54.2185 11.9103 54.3842 12.1854C54.55 12.4605 54.7836 12.6825 55.0852 12.8516C55.3868 13.0206 55.7398 13.1051 56.1442 13.1051C56.5286 13.1051 56.9032 13.0239 57.2678 12.8615C57.6323 12.6958 57.9621 12.4571 58.2571 12.1456C58.5554 11.834 58.7907 11.4595 58.9631 11.022C59.1387 10.5845 59.2266 10.0923 59.2266 9.54545H60.3601C60.3601 10.2216 60.2822 10.7734 60.1264 11.201C59.9706 11.6286 59.795 11.9633 59.5994 12.2053C59.4039 12.4472 59.2464 12.6278 59.1271 12.7472C59.0874 12.7969 59.0509 12.8466 59.0178 12.8963C58.9846 12.946 58.9482 12.9957 58.9084 13.0455C58.5803 13.4134 58.166 13.6884 57.6655 13.8707C57.165 14.0497 56.6712 14.1392 56.1839 14.1392ZM64.2044 9.54545L64.2839 7.35795L62.4345 8.53125L61.9572 7.69602L63.9061 6.68182L61.9572 5.66761L62.4345 4.83239L64.2839 6.00568L64.2044 3.81818H65.1589L65.0794 6.00568L66.9288 4.83239L67.4061 5.66761L65.4572 6.68182L67.4061 7.69602L66.9288 8.53125L65.0794 7.35795L65.1589 9.54545H64.2044ZM69.6731 9.70455C69.6731 8.4517 69.8355 7.29995 70.1603 6.24929C70.4885 5.19531 70.9558 4.22585 71.5623 3.34091H72.5964C72.3578 3.66903 72.1341 4.07339 71.9252 4.55398C71.7198 5.03125 71.5391 5.55658 71.3833 6.12997C71.2276 6.70005 71.1049 7.29001 71.0154 7.89986C70.9293 8.50971 70.8862 9.11127 70.8862 9.70455C70.8862 10.4934 70.9624 11.2938 71.1149 12.1058C71.2673 12.9179 71.4728 13.6719 71.7314 14.3679C71.9899 15.0639 72.2782 15.6307 72.5964 16.0682H71.5623C70.9558 15.1832 70.4885 14.2154 70.1603 13.1648C69.8355 12.1108 69.6731 10.9574 69.6731 9.70455ZM76.8335 8.90909C76.8335 10.1619 76.6694 11.3153 76.3413 12.3693C76.0165 13.42 75.5508 14.3878 74.9442 15.2727H73.9102C74.1488 14.9446 74.3709 14.5402 74.5763 14.0597C74.7852 13.5824 74.9674 13.0587 75.1232 12.4886C75.279 11.9152 75.4 11.3236 75.4862 10.7138C75.5756 10.1006 75.6204 9.49905 75.6204 8.90909C75.6204 8.12026 75.5442 7.31984 75.3917 6.50781C75.2392 5.69579 75.0337 4.94176 74.7752 4.24574C74.5167 3.54972 74.2283 2.98295 73.9102 2.54545H74.9442C75.5508 3.4304 76.0165 4.39986 76.3413 5.45383C76.6694 6.5045 76.8335 7.65625 76.8335 8.90909ZM79.9767 15.2727V2.54545H82.9199V3.51989H81.0904V14.2983H82.9199V15.2727H79.9767ZM86.8189 2.54545V15.2727H83.8757V14.2983H85.7053V3.51989H83.8757V2.54545H86.8189ZM88.9877 8.92898V8.3125C89.5413 8.3125 89.9274 8.1965 90.1461 7.96449C90.3682 7.73248 90.4792 7.3447 90.4792 6.80114V5.21023C90.4792 4.75284 90.5223 4.35677 90.6085 4.02202C90.698 3.68726 90.8422 3.41051 91.041 3.19176C91.2399 2.97301 91.505 2.81061 91.8365 2.70455C92.1679 2.59848 92.5772 2.54545 93.0645 2.54545V3.51989C92.68 3.51989 92.3767 3.57955 92.1547 3.69886C91.9359 3.81818 91.7801 4.00379 91.6873 4.25568C91.5978 4.50426 91.5531 4.82244 91.5531 5.21023V7.19886C91.5531 7.45739 91.5183 7.69271 91.4487 7.90483C91.3824 8.11695 91.2581 8.29924 91.0758 8.4517C90.8935 8.60417 90.6333 8.72183 90.2953 8.80469C89.9605 8.88755 89.5247 8.92898 88.9877 8.92898ZM93.0645 15.2727C92.5772 15.2727 92.1679 15.2197 91.8365 15.1136C91.505 15.0076 91.2399 14.8452 91.041 14.6264C90.8422 14.4077 90.698 14.1309 90.6085 13.7962C90.5223 13.4614 90.4792 13.0653 90.4792 12.608V11.017C90.4792 10.4735 90.3682 10.0857 90.1461 9.85369C89.9274 9.62169 89.5413 9.50568 88.9877 9.50568V8.8892C89.5247 8.8892 89.9605 8.93063 90.2953 9.01349C90.6333 9.09635 90.8935 9.21401 91.0758 9.36648C91.2581 9.51894 91.3824 9.70123 91.4487 9.91335C91.5183 10.1255 91.5531 10.3608 91.5531 10.6193V12.608C91.5531 12.9957 91.5978 13.3139 91.6873 13.5625C91.7801 13.8111 91.9359 13.995 92.1547 14.1143C92.3767 14.237 92.68 14.2983 93.0645 14.2983V15.2727ZM88.9877 9.50568V8.3125H90.161V9.50568H88.9877ZM98.0969 8.8892V9.50568C97.5434 9.50568 97.1557 9.62169 96.9336 9.85369C96.7148 10.0857 96.6055 10.4735 96.6055 11.017V12.608C96.6055 13.0653 96.5607 13.4614 96.4712 13.7962C96.3851 14.1309 96.2425 14.4077 96.0437 14.6264C95.8448 14.8452 95.5797 15.0076 95.2482 15.1136C94.9168 15.2197 94.5075 15.2727 94.0202 15.2727V14.2983C94.4047 14.2983 94.7063 14.237 94.9251 14.1143C95.1471 13.995 95.3029 13.8111 95.3924 13.5625C95.4852 13.3139 95.5316 12.9957 95.5316 12.608V10.6193C95.5316 10.3608 95.5647 10.1255 95.631 9.91335C95.7006 9.70123 95.8266 9.51894 96.0089 9.36648C96.1912 9.21401 96.4497 9.09635 96.7844 9.01349C97.1225 8.93063 97.56 8.8892 98.0969 8.8892ZM94.0202 2.54545C94.5075 2.54545 94.9168 2.59848 95.2482 2.70455C95.5797 2.81061 95.8448 2.97301 96.0437 3.19176C96.2425 3.41051 96.3851 3.68726 96.4712 4.02202C96.5607 4.35677 96.6055 4.75284 96.6055 5.21023V6.80114C96.6055 7.3447 96.7148 7.73248 96.9336 7.96449C97.1557 8.1965 97.5434 8.3125 98.0969 8.3125V8.92898C97.56 8.92898 97.1225 8.88755 96.7844 8.80469C96.4497 8.72183 96.1912 8.60417 96.0089 8.4517C95.8266 8.29924 95.7006 8.11695 95.631 7.90483C95.5647 7.69271 95.5316 7.45739 95.5316 7.19886V5.21023C95.5316 4.82244 95.4852 4.50426 95.3924 4.25568C95.3029 4.00379 95.1471 3.81818 94.9251 3.69886C94.7063 3.57955 94.4047 3.51989 94.0202 3.51989V2.54545ZM98.0969 8.3125V9.50568H96.9237V8.3125H98.0969ZM101.399 0.536932V17.2812H100.405V0.536932H101.399ZM106.795 15.5312L103.513 3.34091H104.587L107.869 15.5312H106.795Z" fill="black"/>
</g>
<defs>
<clipPath id="clip0_0_1186">
<rect width="200" height="50" fill="white"/>
</clipPath>
</defs>
</svg>
