<svg width="200" height="50" viewBox="0 0 200 50" fill="none" xmlns="http://www.w3.org/2000/svg">
<g clip-path="url(#clip0_0_1111)">
<rect width="200" height="50" fill="white"/>
<path d="M11.6591 9.90909C11.5568 9.04545 11.142 8.375 10.4148 7.89773C9.6875 7.42045 8.79545 7.18182 7.73864 7.18182C6.96591 7.18182 6.28977 7.30682 5.71023 7.55682C5.13636 7.80682 4.6875 8.15057 4.36364 8.58807C4.04545 9.02557 3.88636 9.52273 3.88636 10.0795C3.88636 10.5455 3.99716 10.946 4.21875 11.2812C4.44602 11.6108 4.7358 11.8864 5.08807 12.108C5.44034 12.3239 5.80966 12.5028 6.19602 12.6449C6.58239 12.7812 6.9375 12.892 7.26136 12.9773L9.03409 13.4545C9.48864 13.5739 9.99432 13.7386 10.5511 13.9489C11.1136 14.1591 11.6506 14.446 12.1619 14.8097C12.679 15.1676 13.1051 15.6278 13.4403 16.1903C13.7756 16.7528 13.9432 17.4432 13.9432 18.2614C13.9432 19.2045 13.696 20.0568 13.2017 20.8182C12.7131 21.5795 11.9972 22.1847 11.054 22.6335C10.1165 23.0824 8.97727 23.3068 7.63636 23.3068C6.38636 23.3068 5.30398 23.1051 4.3892 22.7017C3.48011 22.2983 2.7642 21.7358 2.24148 21.0142C1.72443 20.2926 1.43182 19.4545 1.36364 18.5H3.54545C3.60227 19.1591 3.82386 19.7045 4.21023 20.1364C4.60227 20.5625 5.09659 20.8807 5.69318 21.0909C6.29545 21.2955 6.94318 21.3977 7.63636 21.3977C8.44318 21.3977 9.16761 21.267 9.80966 21.0057C10.4517 20.7386 10.9602 20.3693 11.3352 19.8977C11.7102 19.4205 11.8977 18.8636 11.8977 18.2273C11.8977 17.6477 11.7358 17.1761 11.4119 16.8125C11.0881 16.4489 10.6619 16.1534 10.1335 15.9261C9.60511 15.6989 9.03409 15.5 8.42045 15.3295L6.27273 14.7159C4.90909 14.3239 3.82955 13.7642 3.03409 13.0369C2.23864 12.3097 1.84091 11.358 1.84091 10.1818C1.84091 9.20454 2.10511 8.35227 2.63352 7.625C3.16761 6.89205 3.88352 6.32386 4.78125 5.92045C5.68466 5.51136 6.69318 5.30682 7.80682 5.30682C8.93182 5.30682 9.93182 5.50852 10.8068 5.91193C11.6818 6.30966 12.375 6.85511 12.8864 7.54829C13.4034 8.24148 13.6761 9.02841 13.7045 9.90909H11.6591ZM16.4638 7.42045V5.54545H29.5547V7.42045H24.0661V23H21.9524V7.42045H16.4638ZM32.8168 23V5.54545H38.7145C40.0781 5.54545 41.1974 5.77841 42.0724 6.24432C42.9474 6.70454 43.5952 7.33807 44.0156 8.14489C44.4361 8.9517 44.6463 9.86932 44.6463 10.8977C44.6463 11.9261 44.4361 12.8381 44.0156 13.6335C43.5952 14.429 42.9503 15.054 42.081 15.5085C41.2116 15.9574 40.1009 16.1818 38.7486 16.1818H33.9759V14.2727H38.6804C39.6122 14.2727 40.3622 14.1364 40.9304 13.8636C41.5043 13.5909 41.919 13.2045 42.1747 12.7045C42.4361 12.1989 42.5668 11.5966 42.5668 10.8977C42.5668 10.1989 42.4361 9.58807 42.1747 9.06534C41.9134 8.54261 41.4957 8.1392 40.9219 7.85511C40.348 7.56534 39.5895 7.42045 38.6463 7.42045H34.9304V23H32.8168ZM41.0327 15.1591L45.3281 23H42.8736L38.6463 15.1591H41.0327ZM50.282 5.54545V23H48.1683V5.54545H50.282ZM54.5199 23V5.54545H56.6335V14.2045H56.8381L64.679 5.54545H67.4403L60.1108 13.4205L67.4403 23H64.8835L58.8153 14.8864L56.6335 17.3409V23H54.5199ZM70.1761 23V5.54545H80.7102V7.42045H72.2898V13.3182H80.1648V15.1932H72.2898V21.125H80.8466V23H70.1761ZM83.5653 7.42045V5.54545H96.6562V7.42045H91.1676V23H89.054V7.42045H83.5653ZM99.9183 23V5.54545H102.032V13.3182H111.339V5.54545H113.452V23H111.339V15.1932H102.032V23H99.9183ZM117.684 23V5.54545H123.582C124.945 5.54545 126.065 5.77841 126.94 6.24432C127.815 6.70454 128.462 7.33807 128.883 8.14489C129.303 8.9517 129.513 9.86932 129.513 10.8977C129.513 11.9261 129.303 12.8381 128.883 13.6335C128.462 14.429 127.817 15.054 126.948 15.5085C126.079 15.9574 124.968 16.1818 123.616 16.1818H118.843V14.2727H123.548C124.479 14.2727 125.229 14.1364 125.798 13.8636C126.371 13.5909 126.786 13.2045 127.042 12.7045C127.303 12.1989 127.434 11.5966 127.434 10.8977C127.434 10.1989 127.303 9.58807 127.042 9.06534C126.781 8.54261 126.363 8.1392 125.789 7.85511C125.215 7.56534 124.457 7.42045 123.513 7.42045H119.798V23H117.684ZM125.9 15.1591L130.195 23H127.741L123.513 15.1591H125.9ZM147.763 14.2727C147.763 16.1136 147.43 17.7045 146.766 19.0455C146.101 20.3864 145.189 21.4205 144.03 22.1477C142.871 22.875 141.547 23.2386 140.058 23.2386C138.57 23.2386 137.246 22.875 136.087 22.1477C134.928 21.4205 134.016 20.3864 133.351 19.0455C132.686 17.7045 132.354 16.1136 132.354 14.2727C132.354 12.4318 132.686 10.8409 133.351 9.5C134.016 8.15909 134.928 7.125 136.087 6.39773C137.246 5.67045 138.57 5.30682 140.058 5.30682C141.547 5.30682 142.871 5.67045 144.03 6.39773C145.189 7.125 146.101 8.15909 146.766 9.5C147.43 10.8409 147.763 12.4318 147.763 14.2727ZM145.717 14.2727C145.717 12.7614 145.464 11.4858 144.959 10.446C144.459 9.40625 143.78 8.61932 142.922 8.08523C142.07 7.55114 141.115 7.28409 140.058 7.28409C139.001 7.28409 138.044 7.55114 137.186 8.08523C136.334 8.61932 135.655 9.40625 135.149 10.446C134.649 11.4858 134.399 12.7614 134.399 14.2727C134.399 15.7841 134.649 17.0597 135.149 18.0994C135.655 19.1392 136.334 19.9261 137.186 20.4602C138.044 20.9943 139.001 21.2614 140.058 21.2614C141.115 21.2614 142.07 20.9943 142.922 20.4602C143.78 19.9261 144.459 19.1392 144.959 18.0994C145.464 17.0597 145.717 15.7841 145.717 14.2727ZM162.771 5.54545H164.885V17.1023C164.885 18.2955 164.604 19.3608 164.041 20.2983C163.484 21.2301 162.697 21.9659 161.68 22.5057C160.663 23.0398 159.47 23.3068 158.101 23.3068C156.732 23.3068 155.538 23.0398 154.521 22.5057C153.504 21.9659 152.714 21.2301 152.152 20.2983C151.595 19.3608 151.317 18.2955 151.317 17.1023V5.54545H153.43V16.9318C153.43 17.7841 153.618 18.5426 153.993 19.2074C154.368 19.8665 154.902 20.3864 155.595 20.767C156.294 21.142 157.129 21.3295 158.101 21.3295C159.072 21.3295 159.908 21.142 160.607 20.767C161.305 20.3864 161.839 19.8665 162.209 19.2074C162.584 18.5426 162.771 17.7841 162.771 16.9318V5.54545ZM181.038 11C180.85 10.4261 180.603 9.91193 180.296 9.45739C179.995 8.99716 179.634 8.60511 179.214 8.28125C178.799 7.95739 178.327 7.71023 177.799 7.53977C177.271 7.36932 176.691 7.28409 176.06 7.28409C175.026 7.28409 174.086 7.55114 173.239 8.08523C172.393 8.61932 171.719 9.40625 171.219 10.446C170.719 11.4858 170.469 12.7614 170.469 14.2727C170.469 15.7841 170.722 17.0597 171.228 18.0994C171.734 19.1392 172.418 19.9261 173.282 20.4602C174.146 20.9943 175.117 21.2614 176.197 21.2614C177.197 21.2614 178.077 21.0483 178.839 20.6222C179.606 20.1903 180.202 19.5824 180.629 18.7983C181.06 18.0085 181.276 17.0795 181.276 16.0114L181.924 16.1477H176.674V14.2727H183.322V16.1477C183.322 17.5852 183.015 18.8352 182.401 19.8977C181.793 20.9602 180.952 21.7841 179.879 22.3693C178.81 22.9489 177.583 23.2386 176.197 23.2386C174.651 23.2386 173.293 22.875 172.123 22.1477C170.958 21.4205 170.049 20.3864 169.396 19.0455C168.748 17.7045 168.424 16.1136 168.424 14.2727C168.424 12.892 168.609 11.6506 168.978 10.5483C169.353 9.44034 169.881 8.49716 170.563 7.71875C171.245 6.94034 172.052 6.34375 172.984 5.92898C173.915 5.5142 174.941 5.30682 176.06 5.30682C176.981 5.30682 177.839 5.44602 178.634 5.72443C179.435 5.99716 180.148 6.38636 180.773 6.89204C181.404 7.39204 181.93 7.99148 182.35 8.69034C182.771 9.38352 183.06 10.1534 183.219 11H181.038ZM2.11364 52V34.5455H4.22727V42.3182H13.5341V34.5455H15.6477V52H13.5341V44.1932H4.22727V52H2.11364ZM32.0497 38.9091V40.6136H25.2656V38.9091H32.0497ZM27.2429 35.7727H29.2543V48.25C29.2543 48.8182 29.3366 49.2443 29.5014 49.5284C29.6719 49.8068 29.8878 49.9943 30.1491 50.0909C30.4162 50.1818 30.6974 50.2273 30.9929 50.2273C31.2145 50.2273 31.3963 50.2159 31.5384 50.1932C31.6804 50.1648 31.794 50.142 31.8793 50.125L32.2884 51.9318C32.152 51.983 31.9616 52.0341 31.7173 52.0852C31.473 52.142 31.1634 52.1705 30.7884 52.1705C30.2202 52.1705 29.6634 52.0483 29.1179 51.804C28.5781 51.5597 28.1293 51.1875 27.7713 50.6875C27.419 50.1875 27.2429 49.5568 27.2429 48.7955V35.7727ZM40.4233 52.2727C39.1619 52.2727 38.0739 51.9943 37.1591 51.4375C36.25 50.875 35.5483 50.0909 35.054 49.0852C34.5653 48.0739 34.321 46.8977 34.321 45.5568C34.321 44.2159 34.5653 43.0341 35.054 42.0114C35.5483 40.983 36.2358 40.1818 37.1165 39.608C38.0028 39.0284 39.0369 38.7386 40.2188 38.7386C40.9006 38.7386 41.5739 38.8523 42.2386 39.0795C42.9034 39.3068 43.5085 39.6761 44.054 40.1875C44.5994 40.6932 45.0341 41.3636 45.358 42.1989C45.6818 43.0341 45.8438 44.0625 45.8438 45.2841V46.1364H35.7528V44.3977H43.7983C43.7983 43.6591 43.6506 43 43.3551 42.4205C43.0653 41.8409 42.6506 41.3835 42.1108 41.0483C41.5767 40.7131 40.946 40.5455 40.2188 40.5455C39.4176 40.5455 38.7244 40.7443 38.1392 41.142C37.5597 41.5341 37.1136 42.0455 36.8011 42.6761C36.4886 43.3068 36.3324 43.983 36.3324 44.7045V45.8636C36.3324 46.8523 36.5028 47.6903 36.8438 48.3778C37.1903 49.0597 37.6705 49.5795 38.2841 49.9375C38.8977 50.2898 39.6108 50.4659 40.4233 50.4659C40.9517 50.4659 41.429 50.392 41.8551 50.2443C42.2869 50.0909 42.6591 49.8636 42.9716 49.5625C43.2841 49.2557 43.5256 48.875 43.696 48.4205L45.6392 48.9659C45.4347 49.625 45.0909 50.2045 44.608 50.7045C44.125 51.1989 43.5284 51.5852 42.8182 51.8636C42.108 52.1364 41.3097 52.2727 40.4233 52.2727ZM50.0518 38.9091L53.1882 44.2614L56.3246 38.9091H58.6428L54.4155 45.4545L58.6428 52H56.3246L53.1882 46.9205L50.0518 52H47.7337L51.8928 45.4545L47.7337 38.9091H50.0518ZM67.206 38.9091V40.6136H60.4219V38.9091H67.206ZM62.3991 35.7727H64.4105V48.25C64.4105 48.8182 64.4929 49.2443 64.6577 49.5284C64.8281 49.8068 65.044 49.9943 65.3054 50.0909C65.5724 50.1818 65.8537 50.2273 66.1491 50.2273C66.3707 50.2273 66.5526 50.2159 66.6946 50.1932C66.8366 50.1648 66.9503 50.142 67.0355 50.125L67.4446 51.9318C67.3082 51.983 67.1179 52.0341 66.8736 52.0852C66.6293 52.142 66.3196 52.1705 65.9446 52.1705C65.3764 52.1705 64.8196 52.0483 64.2741 51.804C63.7344 51.5597 63.2855 51.1875 62.9276 50.6875C62.5753 50.1875 62.3991 49.5568 62.3991 48.7955V35.7727Z" fill="black"/>
<path d="M0 15.142H184.822V16.7784H0V15.142ZM0 44.142H68.3991V45.7784H0V44.142Z" fill="black"/>
</g>
<defs>
<clipPath id="clip0_0_1111">
<rect width="200" height="50" fill="white"/>
</clipPath>
</defs>
</svg>
