<svg width="200" height="50" viewBox="0 0 200 50" fill="none" xmlns="http://www.w3.org/2000/svg">
<rect width="200" height="50" fill="white"/>
<path d="M7.77273 7.27273C7.70455 6.69697 7.42803 6.25 6.94318 5.93182C6.45833 5.61364 5.86364 5.45455 5.15909 5.45455C4.64394 5.45455 4.19318 5.53788 3.80682 5.70455C3.42424 5.87121 3.125 6.10038 2.90909 6.39205C2.69697 6.68371 2.59091 7.01515 2.59091 7.38636C2.59091 7.69697 2.66477 7.96401 2.8125 8.1875C2.96402 8.4072 3.1572 8.59091 3.39205 8.73864C3.62689 8.88258 3.87311 9.00189 4.13068 9.09659C4.38826 9.1875 4.625 9.26136 4.84091 9.31818L6.02273 9.63636C6.32576 9.71591 6.66288 9.82576 7.03409 9.96591C7.40909 10.1061 7.76705 10.2973 8.10795 10.5398C8.45265 10.7784 8.73674 11.0852 8.96023 11.4602C9.18371 11.8352 9.29545 12.2955 9.29545 12.8409C9.29545 13.4697 9.13068 14.0379 8.80114 14.5455C8.47538 15.053 7.99811 15.4564 7.36932 15.7557C6.74432 16.0549 5.98485 16.2045 5.09091 16.2045C4.25758 16.2045 3.53598 16.0701 2.92614 15.8011C2.32008 15.5322 1.8428 15.1572 1.49432 14.6761C1.14962 14.1951 0.954545 13.6364 0.909091 13H2.36364C2.40152 13.4394 2.54924 13.803 2.80682 14.0909C3.06818 14.375 3.39773 14.5871 3.79545 14.7273C4.19697 14.8636 4.62879 14.9318 5.09091 14.9318C5.62879 14.9318 6.11174 14.8447 6.53977 14.6705C6.9678 14.4924 7.30682 14.2462 7.55682 13.9318C7.80682 13.6136 7.93182 13.2424 7.93182 12.8182C7.93182 12.4318 7.82386 12.1174 7.60795 11.875C7.39205 11.6326 7.10795 11.4356 6.75568 11.2841C6.40341 11.1326 6.02273 11 5.61364 10.8864L4.18182 10.4773C3.27273 10.2159 2.55303 9.8428 2.02273 9.35795C1.49242 8.87311 1.22727 8.23864 1.22727 7.45455C1.22727 6.80303 1.40341 6.23485 1.75568 5.75C2.11174 5.26136 2.58902 4.88258 3.1875 4.61364C3.78977 4.34091 4.46212 4.20455 5.20455 4.20455C5.95455 4.20455 6.62121 4.33901 7.20455 4.60795C7.78788 4.87311 8.25 5.23674 8.59091 5.69886C8.93561 6.16098 9.11742 6.68561 9.13636 7.27273H7.77273ZM10.9759 5.61364V4.36364H19.7031V5.61364H16.044V16H14.6349V5.61364H10.9759ZM21.8778 16V4.36364H25.8097C26.7188 4.36364 27.465 4.51894 28.0483 4.82955C28.6316 5.13636 29.0634 5.55871 29.3438 6.09659C29.6241 6.63447 29.7642 7.24621 29.7642 7.93182C29.7642 8.61742 29.6241 9.22538 29.3438 9.75568C29.0634 10.286 28.6335 10.7027 28.054 11.0057C27.4744 11.3049 26.7339 11.4545 25.8324 11.4545H22.6506V10.1818H25.7869C26.4081 10.1818 26.9081 10.0909 27.2869 9.90909C27.6695 9.72727 27.946 9.4697 28.1165 9.13636C28.2907 8.79924 28.3778 8.39773 28.3778 7.93182C28.3778 7.46591 28.2907 7.05871 28.1165 6.71023C27.9422 6.36174 27.6638 6.0928 27.2812 5.90341C26.8987 5.71023 26.393 5.61364 25.7642 5.61364H23.2869V16H21.8778ZM27.3551 10.7727L30.2188 16H28.5824L25.7642 10.7727H27.3551ZM33.5213 4.36364V16H32.1122V4.36364H33.5213ZM36.3466 16V4.36364H37.7557V10.1364H37.892L43.1193 4.36364H44.9602L40.0739 9.61364L44.9602 16H43.2557L39.2102 10.5909L37.7557 12.2273V16H36.3466ZM46.7841 16V4.36364H53.8068V5.61364H48.1932V9.54545H53.4432V10.7955H48.1932V14.75H53.8977V16H46.7841ZM55.7102 5.61364V4.36364H64.4375V5.61364H60.7784V16H59.3693V5.61364H55.7102ZM66.6122 16V4.36364H68.0213V9.54545H74.2259V4.36364H75.6349V16H74.2259V10.7955H68.0213V16H66.6122ZM78.456 16V4.36364H82.3878C83.2969 4.36364 84.0431 4.51894 84.6264 4.82955C85.2098 5.13636 85.6416 5.55871 85.9219 6.09659C86.2022 6.63447 86.3423 7.24621 86.3423 7.93182C86.3423 8.61742 86.2022 9.22538 85.9219 9.75568C85.6416 10.286 85.2116 10.7027 84.6321 11.0057C84.0526 11.3049 83.312 11.4545 82.4105 11.4545H79.2287V10.1818H82.3651C82.9863 10.1818 83.4863 10.0909 83.8651 9.90909C84.2476 9.72727 84.5241 9.4697 84.6946 9.13636C84.8688 8.79924 84.956 8.39773 84.956 7.93182C84.956 7.46591 84.8688 7.05871 84.6946 6.71023C84.5204 6.36174 84.242 6.0928 83.8594 5.90341C83.4768 5.71023 82.9711 5.61364 82.3423 5.61364H79.8651V16H78.456ZM83.9332 10.7727L86.7969 16H85.1605L82.3423 10.7727H83.9332ZM98.5085 10.1818C98.5085 11.4091 98.2869 12.4697 97.8438 13.3636C97.4006 14.2576 96.7926 14.947 96.0199 15.4318C95.2472 15.9167 94.3646 16.1591 93.3722 16.1591C92.3797 16.1591 91.4972 15.9167 90.7244 15.4318C89.9517 14.947 89.3438 14.2576 88.9006 13.3636C88.4574 12.4697 88.2358 11.4091 88.2358 10.1818C88.2358 8.95455 88.4574 7.89394 88.9006 7C89.3438 6.10606 89.9517 5.41667 90.7244 4.93182C91.4972 4.44697 92.3797 4.20455 93.3722 4.20455C94.3646 4.20455 95.2472 4.44697 96.0199 4.93182C96.7926 5.41667 97.4006 6.10606 97.8438 7C98.2869 7.89394 98.5085 8.95455 98.5085 10.1818ZM97.1449 10.1818C97.1449 9.17424 96.9763 8.32386 96.6392 7.63068C96.3059 6.9375 95.8532 6.41288 95.2812 6.05682C94.7131 5.70076 94.0767 5.52273 93.3722 5.52273C92.6676 5.52273 92.0294 5.70076 91.4574 6.05682C90.8892 6.41288 90.4366 6.9375 90.0994 7.63068C89.7661 8.32386 89.5994 9.17424 89.5994 10.1818C89.5994 11.1894 89.7661 12.0398 90.0994 12.733C90.4366 13.4261 90.8892 13.9508 91.4574 14.3068C92.0294 14.6629 92.6676 14.8409 93.3722 14.8409C94.0767 14.8409 94.7131 14.6629 95.2812 14.3068C95.8532 13.9508 96.3059 13.4261 96.6392 12.733C96.9763 12.0398 97.1449 11.1894 97.1449 10.1818ZM108.514 4.36364H109.923V12.0682C109.923 12.8636 109.736 13.5739 109.361 14.1989C108.99 14.8201 108.465 15.3106 107.787 15.6705C107.109 16.0265 106.313 16.2045 105.401 16.2045C104.488 16.2045 103.692 16.0265 103.014 15.6705C102.336 15.3106 101.81 14.8201 101.435 14.1989C101.063 13.5739 100.878 12.8636 100.878 12.0682V4.36364H102.287V11.9545C102.287 12.5227 102.412 13.0284 102.662 13.4716C102.912 13.911 103.268 14.2576 103.73 14.5114C104.196 14.7614 104.753 14.8864 105.401 14.8864C106.048 14.8864 106.605 14.7614 107.071 14.5114C107.537 14.2576 107.893 13.911 108.139 13.4716C108.389 13.0284 108.514 12.5227 108.514 11.9545V4.36364ZM120.692 8C120.567 7.61742 120.402 7.27462 120.197 6.97159C119.997 6.66477 119.756 6.40341 119.476 6.1875C119.199 5.97159 118.885 5.80682 118.533 5.69318C118.18 5.57955 117.794 5.52273 117.374 5.52273C116.684 5.52273 116.057 5.70076 115.493 6.05682C114.929 6.41288 114.48 6.9375 114.146 7.63068C113.813 8.32386 113.646 9.17424 113.646 10.1818C113.646 11.1894 113.815 12.0398 114.152 12.733C114.489 13.4261 114.946 13.9508 115.521 14.3068C116.097 14.6629 116.745 14.8409 117.464 14.8409C118.131 14.8409 118.718 14.6989 119.226 14.4148C119.737 14.1269 120.135 13.7216 120.419 13.1989C120.707 12.6723 120.851 12.053 120.851 11.3409L121.283 11.4318H117.783V10.1818H122.214V11.4318C122.214 12.3902 122.01 13.2235 121.601 13.9318C121.196 14.6402 120.635 15.1894 119.919 15.5795C119.207 15.9659 118.389 16.1591 117.464 16.1591C116.434 16.1591 115.529 15.9167 114.749 15.4318C113.972 14.947 113.366 14.2576 112.93 13.3636C112.499 12.4697 112.283 11.4091 112.283 10.1818C112.283 9.26136 112.406 8.43371 112.652 7.69886C112.902 6.96023 113.254 6.33144 113.709 5.8125C114.163 5.29356 114.701 4.89583 115.322 4.61932C115.944 4.3428 116.627 4.20455 117.374 4.20455C117.987 4.20455 118.559 4.29735 119.089 4.48295C119.624 4.66477 120.099 4.92424 120.516 5.26136C120.936 5.5947 121.286 5.99432 121.567 6.46023C121.847 6.92235 122.04 7.43561 122.146 8H120.692ZM124.628 16V4.36364H126.037V9.54545H132.241V4.36364H133.651V16H132.241V10.7955H126.037V16H124.628ZM144.585 7.27273V8.40909H140.062V7.27273H144.585ZM141.381 5.18182H142.722V13.5C142.722 13.8788 142.777 14.1629 142.886 14.3523C143 14.5379 143.144 14.6629 143.318 14.7273C143.496 14.7879 143.684 14.8182 143.881 14.8182C144.028 14.8182 144.15 14.8106 144.244 14.7955C144.339 14.7765 144.415 14.7614 144.472 14.75L144.744 15.9545C144.653 15.9886 144.527 16.0227 144.364 16.0568C144.201 16.0947 143.994 16.1136 143.744 16.1136C143.366 16.1136 142.994 16.0322 142.631 15.8693C142.271 15.7064 141.972 15.4583 141.733 15.125C141.498 14.7917 141.381 14.3712 141.381 13.8636V5.18182ZM150.168 16.1818C149.327 16.1818 148.601 15.9962 147.991 15.625C147.385 15.25 146.918 14.7273 146.588 14.0568C146.262 13.3826 146.099 12.5985 146.099 11.7045C146.099 10.8106 146.262 10.0227 146.588 9.34091C146.918 8.6553 147.376 8.12121 147.963 7.73864C148.554 7.35227 149.243 7.15909 150.031 7.15909C150.486 7.15909 150.935 7.23485 151.378 7.38636C151.821 7.53788 152.224 7.78409 152.588 8.125C152.952 8.46212 153.241 8.90909 153.457 9.46591C153.673 10.0227 153.781 10.7083 153.781 11.5227V12.0909H147.054V10.9318H152.418C152.418 10.4394 152.319 10 152.122 9.61364C151.929 9.22727 151.652 8.92235 151.293 8.69886C150.937 8.47538 150.516 8.36364 150.031 8.36364C149.497 8.36364 149.035 8.49621 148.645 8.76136C148.259 9.02273 147.961 9.36364 147.753 9.78409C147.545 10.2045 147.44 10.6553 147.44 11.1364V11.9091C147.44 12.5682 147.554 13.1269 147.781 13.5852C148.012 14.0398 148.332 14.3864 148.741 14.625C149.151 14.8598 149.626 14.9773 150.168 14.9773C150.52 14.9773 150.838 14.928 151.122 14.8295C151.41 14.7273 151.658 14.5758 151.866 14.375C152.075 14.1705 152.236 13.9167 152.349 13.6136L153.645 13.9773C153.509 14.4167 153.279 14.803 152.957 15.1364C152.635 15.4659 152.238 15.7235 151.764 15.9091C151.291 16.0909 150.759 16.1818 150.168 16.1818ZM156.587 7.27273L158.678 10.8409L160.768 7.27273H162.314L159.496 11.6364L162.314 16H160.768L158.678 12.6136L156.587 16H155.041L157.814 11.6364L155.041 7.27273H156.587ZM168.023 7.27273V8.40909H163.5V7.27273H168.023ZM164.818 5.18182H166.159V13.5C166.159 13.8788 166.214 14.1629 166.324 14.3523C166.438 14.5379 166.581 14.6629 166.756 14.7273C166.934 14.7879 167.121 14.8182 167.318 14.8182C167.466 14.8182 167.587 14.8106 167.682 14.7955C167.777 14.7765 167.852 14.7614 167.909 14.75L168.182 15.9545C168.091 15.9886 167.964 16.0227 167.801 16.0568C167.638 16.0947 167.432 16.1136 167.182 16.1136C166.803 16.1136 166.432 16.0322 166.068 15.8693C165.708 15.7064 165.409 15.4583 165.17 15.125C164.936 14.7917 164.818 14.3712 164.818 13.8636V5.18182Z" fill="black"/>
<path d="M0 10.7614H168.818V11.8523H0V10.7614Z" fill="black"/>
</svg>
