<svg width="200" height="50" viewBox="0 0 200 50" fill="none" xmlns="http://www.w3.org/2000/svg">
<rect width="200" height="50" fill="white"/>
<path d="M5.82955 5.45455C5.77841 5.02273 5.57102 4.6875 5.20739 4.44886C4.84375 4.21023 4.39773 4.09091 3.86932 4.09091C3.48295 4.09091 3.14489 4.15341 2.85511 4.27841C2.56818 4.40341 2.34375 4.57528 2.18182 4.79403C2.02273 5.01278 1.94318 5.26136 1.94318 5.53977C1.94318 5.77273 1.99858 5.97301 2.10938 6.14062C2.22301 6.3054 2.3679 6.44318 2.54403 6.55398C2.72017 6.66193 2.90483 6.75142 3.09801 6.82244C3.29119 6.89062 3.46875 6.94602 3.63068 6.98864L4.51705 7.22727C4.74432 7.28693 4.99716 7.36932 5.27557 7.47443C5.55682 7.57955 5.82528 7.72301 6.08097 7.90483C6.33949 8.08381 6.55256 8.31392 6.72017 8.59517C6.88778 8.87642 6.97159 9.22159 6.97159 9.63068C6.97159 10.1023 6.84801 10.5284 6.60085 10.9091C6.35653 11.2898 5.99858 11.5923 5.52699 11.8168C5.05824 12.0412 4.48864 12.1534 3.81818 12.1534C3.19318 12.1534 2.65199 12.0526 2.1946 11.8509C1.74006 11.6491 1.3821 11.3679 1.12074 11.0071C0.862216 10.6463 0.715909 10.2273 0.681818 9.75H1.77273C1.80114 10.0795 1.91193 10.3523 2.10511 10.5682C2.30114 10.7812 2.5483 10.9403 2.84659 11.0455C3.14773 11.1477 3.47159 11.1989 3.81818 11.1989C4.22159 11.1989 4.58381 11.1335 4.90483 11.0028C5.22585 10.8693 5.48011 10.6847 5.66761 10.4489C5.85511 10.2102 5.94886 9.93182 5.94886 9.61364C5.94886 9.32386 5.8679 9.08807 5.70597 8.90625C5.54403 8.72443 5.33097 8.5767 5.06676 8.46307C4.80256 8.34943 4.51705 8.25 4.21023 8.16477L3.13636 7.85795C2.45455 7.66193 1.91477 7.3821 1.51705 7.01847C1.11932 6.65483 0.920455 6.17898 0.920455 5.59091C0.920455 5.10227 1.05256 4.67614 1.31676 4.3125C1.58381 3.94602 1.94176 3.66193 2.39062 3.46023C2.84233 3.25568 3.34659 3.15341 3.90341 3.15341C4.46591 3.15341 4.96591 3.25426 5.40341 3.45597C5.84091 3.65483 6.1875 3.92756 6.44318 4.27415C6.7017 4.62074 6.83807 5.0142 6.85227 5.45455H5.82955ZM8.23189 4.21023V3.27273H14.7773V4.21023H12.033V12H10.9762V4.21023H8.23189ZM16.4084 12V3.27273H19.3572C20.0391 3.27273 20.5987 3.3892 21.0362 3.62216C21.4737 3.85227 21.7976 4.16903 22.0078 4.57244C22.218 4.97585 22.3232 5.43466 22.3232 5.94886C22.3232 6.46307 22.218 6.91903 22.0078 7.31676C21.7976 7.71449 21.4751 8.02699 21.0405 8.25426C20.6058 8.47869 20.0504 8.59091 19.3743 8.59091H16.9879V7.63636H19.3402C19.8061 7.63636 20.1811 7.56818 20.4652 7.43182C20.7521 7.29545 20.9595 7.10227 21.0874 6.85227C21.218 6.59943 21.2834 6.2983 21.2834 5.94886C21.2834 5.59943 21.218 5.29403 21.0874 5.03267C20.9567 4.77131 20.7479 4.5696 20.4609 4.42756C20.174 4.28267 19.7947 4.21023 19.3232 4.21023H17.4652V12H16.4084ZM20.5163 8.07955L22.6641 12H21.4368L19.3232 8.07955H20.5163ZM25.141 3.27273V12H24.0842V3.27273H25.141ZM27.2599 12V3.27273H28.3168V7.60227H28.419L32.3395 3.27273H33.7202L30.0554 7.21023L33.7202 12H32.4418L29.4077 7.94318L28.3168 9.17045V12H27.2599ZM35.0881 12V3.27273H40.3551V4.21023H36.1449V7.15909H40.0824V8.09659H36.1449V11.0625H40.4233V12H35.0881ZM41.7827 4.21023V3.27273H48.3281V4.21023H45.5838V12H44.527V4.21023H41.7827ZM49.9592 12V3.27273H51.016V7.15909H55.6694V3.27273H56.7262V12H55.6694V8.09659H51.016V12H49.9592ZM58.842 12V3.27273H61.7908C62.4727 3.27273 63.0323 3.3892 63.4698 3.62216C63.9073 3.85227 64.2312 4.16903 64.4414 4.57244C64.6516 4.97585 64.7567 5.43466 64.7567 5.94886C64.7567 6.46307 64.6516 6.91903 64.4414 7.31676C64.2312 7.71449 63.9087 8.02699 63.4741 8.25426C63.0394 8.47869 62.484 8.59091 61.8079 8.59091H59.4215V7.63636H61.7738C62.2397 7.63636 62.6147 7.56818 62.8988 7.43182C63.1857 7.29545 63.3931 7.10227 63.521 6.85227C63.6516 6.59943 63.717 6.2983 63.717 5.94886C63.717 5.59943 63.6516 5.29403 63.521 5.03267C63.3903 4.77131 63.1815 4.5696 62.8945 4.42756C62.6076 4.28267 62.2283 4.21023 61.7567 4.21023H59.8988V12H58.842ZM62.9499 8.07955L65.0977 12H63.8704L61.7567 8.07955H62.9499ZM73.8814 7.63636C73.8814 8.55682 73.7152 9.35227 73.3828 10.0227C73.0504 10.6932 72.5945 11.2102 72.0149 11.5739C71.4354 11.9375 70.7734 12.1193 70.0291 12.1193C69.2848 12.1193 68.6229 11.9375 68.0433 11.5739C67.4638 11.2102 67.0078 10.6932 66.6754 10.0227C66.343 9.35227 66.1768 8.55682 66.1768 7.63636C66.1768 6.71591 66.343 5.92045 66.6754 5.25C67.0078 4.57955 67.4638 4.0625 68.0433 3.69886C68.6229 3.33523 69.2848 3.15341 70.0291 3.15341C70.7734 3.15341 71.4354 3.33523 72.0149 3.69886C72.5945 4.0625 73.0504 4.57955 73.3828 5.25C73.7152 5.92045 73.8814 6.71591 73.8814 7.63636ZM72.8587 7.63636C72.8587 6.88068 72.7322 6.2429 72.4794 5.72301C72.2294 5.20312 71.8899 4.80966 71.4609 4.54261C71.0348 4.27557 70.5575 4.14205 70.0291 4.14205C69.5007 4.14205 69.022 4.27557 68.593 4.54261C68.1669 4.80966 67.8274 5.20312 67.5746 5.72301C67.3246 6.2429 67.1996 6.88068 67.1996 7.63636C67.1996 8.39205 67.3246 9.02983 67.5746 9.54972C67.8274 10.0696 68.1669 10.4631 68.593 10.7301C69.022 10.9972 69.5007 11.1307 70.0291 11.1307C70.5575 11.1307 71.0348 10.9972 71.4609 10.7301C71.8899 10.4631 72.2294 10.0696 72.4794 9.54972C72.7322 9.02983 72.8587 8.39205 72.8587 7.63636ZM81.3857 3.27273H82.4425V9.05114C82.4425 9.64773 82.3018 10.1804 82.0206 10.6491C81.7422 11.1151 81.3487 11.483 80.8402 11.7528C80.3317 12.0199 79.7351 12.1534 79.0504 12.1534C78.3658 12.1534 77.7692 12.0199 77.2607 11.7528C76.7521 11.483 76.3572 11.1151 76.076 10.6491C75.7976 10.1804 75.6584 9.64773 75.6584 9.05114V3.27273H76.7152V8.96591C76.7152 9.39205 76.8089 9.77131 76.9964 10.1037C77.1839 10.4332 77.451 10.6932 77.7976 10.8835C78.147 11.071 78.5646 11.1648 79.0504 11.1648C79.5362 11.1648 79.9538 11.071 80.3033 10.8835C80.6527 10.6932 80.9197 10.4332 81.1044 10.1037C81.2919 9.77131 81.3857 9.39205 81.3857 8.96591V3.27273ZM90.5188 6C90.4251 5.71307 90.3015 5.45597 90.1481 5.22869C89.9975 4.99858 89.8171 4.80256 89.6069 4.64062C89.3995 4.47869 89.1637 4.35511 88.8995 4.26989C88.6353 4.18466 88.3455 4.14205 88.0302 4.14205C87.5131 4.14205 87.043 4.27557 86.6197 4.54261C86.1964 4.80966 85.8597 5.20312 85.6097 5.72301C85.3597 6.2429 85.2347 6.88068 85.2347 7.63636C85.2347 8.39205 85.3612 9.02983 85.614 9.54972C85.8668 10.0696 86.2092 10.4631 86.641 10.7301C87.0728 10.9972 87.5586 11.1307 88.0984 11.1307C88.5984 11.1307 89.0387 11.0241 89.4194 10.8111C89.8029 10.5952 90.1012 10.2912 90.3143 9.89915C90.5302 9.50426 90.6381 9.03977 90.6381 8.50568L90.962 8.57386H88.337V7.63636H91.6609V8.57386C91.6609 9.29261 91.5075 9.91761 91.2006 10.4489C90.8967 10.9801 90.4762 11.392 89.9393 11.6847C89.4052 11.9744 88.7915 12.1193 88.0984 12.1193C87.3256 12.1193 86.6467 11.9375 86.0614 11.5739C85.479 11.2102 85.0245 10.6932 84.6978 10.0227C84.3739 9.35227 84.212 8.55682 84.212 7.63636C84.212 6.94602 84.3043 6.32528 84.489 5.77415C84.6765 5.22017 84.9407 4.74858 85.2816 4.35938C85.6225 3.97017 86.0259 3.67188 86.4918 3.46449C86.9577 3.2571 87.4705 3.15341 88.0302 3.15341C88.4904 3.15341 88.9194 3.22301 89.3171 3.36222C89.7177 3.49858 90.0742 3.69318 90.3867 3.94602C90.7021 4.19602 90.9648 4.49574 91.1751 4.84517C91.3853 5.19176 91.5302 5.5767 91.6097 6H90.5188ZM93.4709 12V3.27273H94.5277V7.15909H99.1811V3.27273H100.238V12H99.1811V8.09659H94.5277V12H93.4709ZM108.439 5.45455V6.30682H105.047V5.45455H108.439ZM106.036 3.88636H107.041V10.125C107.041 10.4091 107.082 10.6222 107.165 10.7642C107.25 10.9034 107.358 10.9972 107.489 11.0455C107.622 11.0909 107.763 11.1136 107.911 11.1136C108.021 11.1136 108.112 11.108 108.183 11.0966C108.254 11.0824 108.311 11.071 108.354 11.0625L108.558 11.9659C108.49 11.9915 108.395 12.017 108.273 12.0426C108.151 12.071 107.996 12.0852 107.808 12.0852C107.524 12.0852 107.246 12.0241 106.973 11.902C106.703 11.7798 106.479 11.5938 106.3 11.3438C106.124 11.0938 106.036 10.7784 106.036 10.3977V3.88636ZM112.626 12.1364C111.995 12.1364 111.451 11.9972 110.994 11.7188C110.539 11.4375 110.188 11.0455 109.941 10.5426C109.697 10.0369 109.575 9.44886 109.575 8.77841C109.575 8.10795 109.697 7.51705 109.941 7.00568C110.188 6.49148 110.532 6.09091 110.972 5.80398C111.415 5.5142 111.933 5.36932 112.523 5.36932C112.864 5.36932 113.201 5.42614 113.533 5.53977C113.866 5.65341 114.168 5.83807 114.441 6.09375C114.714 6.34659 114.931 6.68182 115.093 7.09943C115.255 7.51705 115.336 8.03125 115.336 8.64205V9.06818H110.29V8.19886H114.313C114.313 7.82955 114.239 7.5 114.092 7.21023C113.947 6.92045 113.739 6.69176 113.469 6.52415C113.202 6.35653 112.887 6.27273 112.523 6.27273C112.123 6.27273 111.776 6.37216 111.484 6.57102C111.194 6.76705 110.971 7.02273 110.815 7.33807C110.658 7.65341 110.58 7.99148 110.58 8.35227V8.93182C110.58 9.42614 110.665 9.84517 110.836 10.1889C111.009 10.5298 111.249 10.7898 111.556 10.9688C111.863 11.1449 112.219 11.233 112.626 11.233C112.89 11.233 113.129 11.196 113.342 11.1222C113.558 11.0455 113.744 10.9318 113.9 10.7812C114.056 10.6278 114.177 10.4375 114.262 10.2102L115.234 10.483C115.131 10.8125 114.96 11.1023 114.718 11.3523C114.477 11.5994 114.178 11.7926 113.823 11.9318C113.468 12.0682 113.069 12.1364 112.626 12.1364ZM117.44 5.45455L119.008 8.13068L120.576 5.45455H121.735L119.622 8.72727L121.735 12H120.576L119.008 9.46023L117.44 12H116.281L118.36 8.72727L116.281 5.45455H117.44ZM126.017 5.45455V6.30682H122.625V5.45455H126.017ZM123.614 3.88636H124.619V10.125C124.619 10.4091 124.661 10.6222 124.743 10.7642C124.828 10.9034 124.936 10.9972 125.067 11.0455C125.2 11.0909 125.341 11.1136 125.489 11.1136C125.599 11.1136 125.69 11.108 125.761 11.0966C125.832 11.0824 125.889 11.071 125.932 11.0625L126.136 11.9659C126.068 11.9915 125.973 12.017 125.851 12.0426C125.729 12.071 125.574 12.0852 125.386 12.0852C125.102 12.0852 124.824 12.0241 124.551 11.902C124.281 11.7798 124.057 11.5938 123.878 11.3438C123.702 11.0938 123.614 10.7784 123.614 10.3977V3.88636Z" fill="black"/>
<path d="M0 8.07102H126.614V8.8892H0V8.07102Z" fill="black"/>
</svg>
