<svg width="200" height="50" viewBox="0 0 200 50" fill="none" xmlns="http://www.w3.org/2000/svg">
<g clip-path="url(#clip0_0_1113)">
<rect width="200" height="50" fill="white"/>
<path d="M15.5455 13.5455C15.4091 12.3939 14.8561 11.5 13.8864 10.8636C12.9167 10.2273 11.7273 9.90909 10.3182 9.90909C9.28788 9.90909 8.38636 10.0758 7.61364 10.4091C6.84849 10.7424 6.25 11.2008 5.81818 11.7841C5.39394 12.3674 5.18182 13.0303 5.18182 13.7727C5.18182 14.3939 5.32955 14.928 5.625 15.375C5.92803 15.8144 6.31439 16.1818 6.78409 16.4773C7.25379 16.7652 7.74621 17.0038 8.26136 17.1932C8.77652 17.375 9.25 17.5227 9.68182 17.6364L12.0455 18.2727C12.6515 18.4318 13.3258 18.6515 14.0682 18.9318C14.8182 19.2121 15.5341 19.5947 16.2159 20.0795C16.9053 20.5568 17.4735 21.1705 17.9205 21.9205C18.3674 22.6705 18.5909 23.5909 18.5909 24.6818C18.5909 25.9394 18.2614 27.0758 17.6023 28.0909C16.9508 29.1061 15.9962 29.9129 14.7386 30.5114C13.4886 31.1098 11.9697 31.4091 10.1818 31.4091C8.51515 31.4091 7.07197 31.1402 5.85227 30.6023C4.64015 30.0644 3.68561 29.3144 2.98864 28.3523C2.29924 27.3902 1.90909 26.2727 1.81818 25H4.72727C4.80303 25.8788 5.09848 26.6061 5.61364 27.1818C6.13636 27.75 6.79545 28.1742 7.59091 28.4545C8.39394 28.7273 9.25758 28.8636 10.1818 28.8636C11.2576 28.8636 12.2235 28.6894 13.0795 28.3409C13.9356 27.9848 14.6136 27.4924 15.1136 26.8636C15.6136 26.2273 15.8636 25.4848 15.8636 24.6364C15.8636 23.8636 15.6477 23.2348 15.2159 22.75C14.7841 22.2652 14.2159 21.8712 13.5114 21.5682C12.8068 21.2652 12.0455 21 11.2273 20.7727L8.36364 19.9545C6.54545 19.4318 5.10606 18.6856 4.04545 17.7159C2.98485 16.7462 2.45455 15.4773 2.45455 13.9091C2.45455 12.6061 2.80682 11.4697 3.51136 10.5C4.22348 9.52273 5.17803 8.76515 6.375 8.22727C7.57955 7.68182 8.92424 7.40909 10.4091 7.40909C11.9091 7.40909 13.2424 7.67803 14.4091 8.21591C15.5758 8.74621 16.5 9.47348 17.1818 10.3977C17.8712 11.322 18.2348 12.3712 18.2727 13.5455H15.5455ZM21.9517 10.2273V7.72727H39.4062V10.2273H32.0881V31H29.2699V10.2273H21.9517ZM43.7557 31V7.72727H51.6193C53.4375 7.72727 54.9299 8.03788 56.0966 8.65909C57.2633 9.27273 58.1269 10.1174 58.6875 11.1932C59.2481 12.2689 59.5284 13.4924 59.5284 14.8636C59.5284 16.2348 59.2481 17.4508 58.6875 18.5114C58.1269 19.572 57.267 20.4053 56.108 21.0114C54.9489 21.6098 53.4678 21.9091 51.6648 21.9091H45.3011V19.3636H51.5739C52.8163 19.3636 53.8163 19.1818 54.5739 18.8182C55.339 18.4545 55.892 17.9394 56.233 17.2727C56.5814 16.5985 56.7557 15.7955 56.7557 14.8636C56.7557 13.9318 56.5814 13.1174 56.233 12.4205C55.8845 11.7235 55.3277 11.1856 54.5625 10.8068C53.7973 10.4205 52.786 10.2273 51.5284 10.2273H46.5739V31H43.7557ZM54.7102 20.5455L60.4375 31H57.1648L51.5284 20.5455H54.7102ZM67.0426 7.72727V31H64.2244V7.72727H67.0426ZM72.6932 31V7.72727H75.5114V19.2727H75.7841L86.2386 7.72727H89.9205L80.1477 18.2273L89.9205 31H86.5114L78.4205 20.1818L75.5114 23.4545V31H72.6932ZM93.5682 31V7.72727H107.614V10.2273H96.3864V18.0909H106.886V20.5909H96.3864V28.5H107.795V31H93.5682ZM111.42 10.2273V7.72727H128.875V10.2273H121.557V31H118.739V10.2273H111.42ZM133.224 31V7.72727H136.043V18.0909H148.452V7.72727H151.27V31H148.452V20.5909H136.043V31H133.224ZM156.912 31V7.72727H164.776C166.594 7.72727 168.086 8.03788 169.253 8.65909C170.42 9.27273 171.283 10.1174 171.844 11.1932C172.404 12.2689 172.685 13.4924 172.685 14.8636C172.685 16.2348 172.404 17.4508 171.844 18.5114C171.283 19.572 170.423 20.4053 169.264 21.0114C168.105 21.6098 166.624 21.9091 164.821 21.9091H158.457V19.3636H164.73C165.973 19.3636 166.973 19.1818 167.73 18.8182C168.495 18.4545 169.048 17.9394 169.389 17.2727C169.738 16.5985 169.912 15.7955 169.912 14.8636C169.912 13.9318 169.738 13.1174 169.389 12.4205C169.041 11.7235 168.484 11.1856 167.719 10.8068C166.954 10.4205 165.942 10.2273 164.685 10.2273H159.73V31H156.912ZM167.866 20.5455L173.594 31H170.321L164.685 20.5455H167.866ZM197.017 19.3636C197.017 21.8182 196.574 23.9394 195.688 25.7273C194.801 27.5152 193.585 28.8939 192.04 29.8636C190.494 30.8333 188.729 31.3182 186.744 31.3182C184.759 31.3182 182.994 30.8333 181.449 29.8636C179.903 28.8939 178.688 27.5152 177.801 25.7273C176.915 23.9394 176.472 21.8182 176.472 19.3636C176.472 16.9091 176.915 14.7879 177.801 13C178.688 11.2121 179.903 9.83333 181.449 8.86364C182.994 7.89394 184.759 7.40909 186.744 7.40909C188.729 7.40909 190.494 7.89394 192.04 8.86364C193.585 9.83333 194.801 11.2121 195.688 13C196.574 14.7879 197.017 16.9091 197.017 19.3636ZM194.29 19.3636C194.29 17.3485 193.953 15.6477 193.278 14.2614C192.612 12.875 191.706 11.8258 190.562 11.1136C189.426 10.4015 188.153 10.0455 186.744 10.0455C185.335 10.0455 184.059 10.4015 182.915 11.1136C181.778 11.8258 180.873 12.875 180.199 14.2614C179.532 15.6477 179.199 17.3485 179.199 19.3636C179.199 21.3788 179.532 23.0795 180.199 24.4659C180.873 25.8523 181.778 26.9015 182.915 27.6136C184.059 28.3258 185.335 28.6818 186.744 28.6818C188.153 28.6818 189.426 28.3258 190.562 27.6136C191.706 26.9015 192.612 25.8523 193.278 24.4659C193.953 23.0795 194.29 21.3788 194.29 19.3636ZM18.0909 46.7273H20.9091V62.1364C20.9091 63.7273 20.5341 65.1477 19.7841 66.3977C19.0417 67.6402 17.9924 68.6212 16.6364 69.3409C15.2803 70.053 13.6894 70.4091 11.8636 70.4091C10.0379 70.4091 8.44697 70.053 7.09091 69.3409C5.73485 68.6212 4.68182 67.6402 3.93182 66.3977C3.18939 65.1477 2.81818 63.7273 2.81818 62.1364V46.7273H5.63636V61.9091C5.63636 63.0455 5.88636 64.0568 6.38636 64.9432C6.88636 65.822 7.59849 66.5152 8.52273 67.0227C9.45455 67.5227 10.5682 67.7727 11.8636 67.7727C13.1591 67.7727 14.2727 67.5227 15.2045 67.0227C16.1364 66.5152 16.8485 65.822 17.3409 64.9432C17.8409 64.0568 18.0909 63.0455 18.0909 61.9091V46.7273ZM42.446 54C42.196 53.2348 41.8665 52.5492 41.4574 51.9432C41.0559 51.3295 40.5748 50.8068 40.0142 50.375C39.4612 49.9432 38.8324 49.6136 38.1278 49.3864C37.4233 49.1591 36.6506 49.0455 35.8097 49.0455C34.4309 49.0455 33.1771 49.4015 32.0483 50.1136C30.9195 50.8258 30.0218 51.875 29.3551 53.2614C28.6884 54.6477 28.3551 56.3485 28.3551 58.3636C28.3551 60.3788 28.6922 62.0795 29.3665 63.4659C30.0407 64.8523 30.9536 65.9015 32.1051 66.6136C33.2566 67.3258 34.5521 67.6818 35.9915 67.6818C37.3248 67.6818 38.4991 67.3977 39.5142 66.8295C40.5369 66.2538 41.3324 65.4432 41.9006 64.3977C42.4763 63.3447 42.7642 62.1061 42.7642 60.6818L43.6278 60.8636H36.6278V58.3636H45.4915V60.8636C45.4915 62.7803 45.0824 64.447 44.2642 65.8636C43.4536 67.2803 42.3324 68.3788 40.9006 69.1591C39.4763 69.9318 37.84 70.3182 35.9915 70.3182C33.9309 70.3182 32.1203 69.8333 30.5597 68.8636C29.0066 67.8939 27.7945 66.5152 26.9233 64.7273C26.0597 62.9394 25.6278 60.8182 25.6278 58.3636C25.6278 56.5227 25.8741 54.8674 26.3665 53.3977C26.8665 51.9205 27.571 50.6629 28.4801 49.625C29.3892 48.5871 30.465 47.7917 31.7074 47.2386C32.9498 46.6856 34.3172 46.4091 35.8097 46.4091C37.0369 46.4091 38.1809 46.5947 39.2415 46.9659C40.3097 47.3295 41.2604 47.8485 42.0938 48.5227C42.9347 49.1894 43.6354 49.9886 44.196 50.9205C44.7566 51.8447 45.143 52.8712 45.3551 54H42.446ZM50.3182 70V46.7273H53.1364V57.0909H65.5455V46.7273H68.3636V70H65.5455V59.5909H53.1364V70H50.3182ZM90.233 52.5455V54.8182H81.1875V52.5455H90.233ZM83.8239 48.3636H86.5057V65C86.5057 65.7576 86.6155 66.3258 86.8352 66.7045C87.0625 67.0758 87.3504 67.3258 87.6989 67.4545C88.0549 67.5758 88.4299 67.6364 88.8239 67.6364C89.1193 67.6364 89.3617 67.6212 89.5511 67.5909C89.7405 67.553 89.892 67.5227 90.0057 67.5L90.5511 69.9091C90.3693 69.9773 90.1155 70.0455 89.7898 70.1136C89.464 70.1894 89.0511 70.2273 88.5511 70.2273C87.7936 70.2273 87.0511 70.0644 86.3239 69.7386C85.6042 69.4129 85.0057 68.9167 84.5284 68.25C84.0587 67.5833 83.8239 66.7424 83.8239 65.7273V48.3636ZM101.398 70.3636C99.7159 70.3636 98.2652 69.9924 97.0455 69.25C95.8333 68.5 94.8977 67.4545 94.2386 66.1136C93.5871 64.7652 93.2614 63.197 93.2614 61.4091C93.2614 59.6212 93.5871 58.0455 94.2386 56.6818C94.8977 55.3106 95.8144 54.2424 96.9886 53.4773C98.1705 52.7045 99.5492 52.3182 101.125 52.3182C102.034 52.3182 102.932 52.4697 103.818 52.7727C104.705 53.0758 105.511 53.5682 106.239 54.25C106.966 54.9242 107.545 55.8182 107.977 56.9318C108.409 58.0455 108.625 59.4167 108.625 61.0455V62.1818H95.1705V59.8636H105.898C105.898 58.8788 105.701 58 105.307 57.2273C104.92 56.4545 104.367 55.8447 103.648 55.3977C102.936 54.9508 102.095 54.7273 101.125 54.7273C100.057 54.7273 99.1326 54.9924 98.3523 55.5227C97.5795 56.0455 96.9848 56.7273 96.5682 57.5682C96.1515 58.4091 95.9432 59.3106 95.9432 60.2727V61.8182C95.9432 63.1364 96.1705 64.2538 96.625 65.1705C97.0871 66.0795 97.7273 66.7727 98.5455 67.25C99.3636 67.7197 100.314 67.9545 101.398 67.9545C102.102 67.9545 102.739 67.8561 103.307 67.6591C103.883 67.4545 104.379 67.1515 104.795 66.75C105.212 66.3409 105.534 65.8333 105.761 65.2273L108.352 65.9545C108.08 66.8333 107.621 67.6061 106.977 68.2727C106.333 68.9318 105.538 69.447 104.591 69.8182C103.644 70.1818 102.58 70.3636 101.398 70.3636ZM114.236 52.5455L118.418 59.6818L122.599 52.5455H125.69L120.054 61.2727L125.69 70H122.599L118.418 63.2273L114.236 70H111.145L116.69 61.2727L111.145 52.5455H114.236ZM137.108 52.5455V54.8182H128.062V52.5455H137.108ZM130.699 48.3636H133.381V65C133.381 65.7576 133.491 66.3258 133.71 66.7045C133.938 67.0758 134.225 67.3258 134.574 67.4545C134.93 67.5758 135.305 67.6364 135.699 67.6364C135.994 67.6364 136.237 67.6212 136.426 67.5909C136.616 67.553 136.767 67.5227 136.881 67.5L137.426 69.9091C137.244 69.9773 136.991 70.0455 136.665 70.1136C136.339 70.1894 135.926 70.2273 135.426 70.2273C134.669 70.2273 133.926 70.0644 133.199 69.7386C132.479 69.4129 131.881 68.9167 131.403 68.25C130.934 67.5833 130.699 66.7424 130.699 65.7273V48.3636Z" fill="black"/>
<path d="M0 20.5227H198.926V22.7045H0V20.5227ZM0 59.5227H138.699V61.7045H0V59.5227Z" fill="black"/>
</g>
<defs>
<clipPath id="clip0_0_1113">
<rect width="200" height="50" fill="white"/>
</clipPath>
</defs>
</svg>
