<svg width="200" height="50" viewBox="0 0 200 50" fill="none" xmlns="http://www.w3.org/2000/svg">
<rect width="200" height="50" fill="white"/>
<path d="M9.04545 4.36364H10.4545V12.0682C10.4545 12.8636 10.267 13.5739 9.89205 14.1989C9.52083 14.8201 8.99621 15.3106 8.31818 15.6705C7.64015 16.0265 6.8447 16.2045 5.93182 16.2045C5.01894 16.2045 4.22348 16.0265 3.54545 15.6705C2.86742 15.3106 2.34091 14.8201 1.96591 14.1989C1.5947 13.5739 1.40909 12.8636 1.40909 12.0682V4.36364H2.81818V11.9545C2.81818 12.5227 2.94318 13.0284 3.19318 13.4716C3.44318 13.911 3.79924 14.2576 4.26136 14.5114C4.72727 14.7614 5.28409 14.8864 5.93182 14.8864C6.57955 14.8864 7.13636 14.7614 7.60227 14.5114C8.06818 14.2576 8.42424 13.911 8.67045 13.4716C8.92045 13.0284 9.04545 12.5227 9.04545 11.9545V4.36364ZM22.4957 4.36364V16H21.1321L14.7912 6.86364H14.6776V16H13.2685V4.36364H14.6321L20.9957 13.5227H21.1094V4.36364H22.4957ZM28.9062 16H25.3153V4.36364H29.0653C30.1941 4.36364 31.16 4.59659 31.9631 5.0625C32.7661 5.52462 33.3816 6.18939 33.8097 7.05682C34.2377 7.92045 34.4517 8.95455 34.4517 10.1591C34.4517 11.3712 34.2358 12.4148 33.804 13.2898C33.3722 14.161 32.7434 14.8314 31.9176 15.3011C31.0919 15.767 30.0881 16 28.9062 16ZM26.7244 14.75H28.8153C29.7775 14.75 30.5748 14.5644 31.2074 14.1932C31.84 13.822 32.3116 13.2936 32.6222 12.608C32.9328 11.9223 33.0881 11.1061 33.0881 10.1591C33.0881 9.2197 32.9347 8.41098 32.6278 7.73295C32.321 7.05114 31.8627 6.52841 31.2528 6.16477C30.643 5.79735 29.8835 5.61364 28.9744 5.61364H26.7244V14.75ZM36.8153 16V4.36364H43.8381V5.61364H38.2244V9.54545H43.4744V10.7955H38.2244V14.75H43.929V16H36.8153ZM46.3778 16V4.36364H50.3097C51.2188 4.36364 51.965 4.51894 52.5483 4.82955C53.1316 5.13636 53.5634 5.55871 53.8438 6.09659C54.1241 6.63447 54.2642 7.24621 54.2642 7.93182C54.2642 8.61742 54.1241 9.22538 53.8438 9.75568C53.5634 10.286 53.1335 10.7027 52.554 11.0057C51.9744 11.3049 51.2339 11.4545 50.3324 11.4545H47.1506V10.1818H50.2869C50.9081 10.1818 51.4081 10.0909 51.7869 9.90909C52.1695 9.72727 52.446 9.4697 52.6165 9.13636C52.7907 8.79924 52.8778 8.39773 52.8778 7.93182C52.8778 7.46591 52.7907 7.05871 52.6165 6.71023C52.4422 6.36174 52.1638 6.0928 51.7812 5.90341C51.3987 5.71023 50.893 5.61364 50.2642 5.61364H47.7869V16H46.3778ZM51.8551 10.7727L54.7188 16H53.0824L50.2642 10.7727H51.8551ZM56.6122 16V4.36364H58.0213V14.75H63.4304V16H56.6122ZM67.0213 4.36364V16H65.6122V4.36364H67.0213ZM79.0739 4.36364V16H77.7102L71.3693 6.86364H71.2557V16H69.8466V4.36364H71.2102L77.5739 13.5227H77.6875V4.36364H79.0739ZM81.8935 16V4.36364H88.9162V5.61364H83.3026V9.54545H88.5526V10.7955H83.3026V14.75H89.0071V16H81.8935ZM99.5696 7.27273V8.40909H95.0469V7.27273H99.5696ZM96.3651 5.18182H97.706V13.5C97.706 13.8788 97.7609 14.1629 97.8707 14.3523C97.9844 14.5379 98.1283 14.6629 98.3026 14.7273C98.4806 14.7879 98.6681 14.8182 98.8651 14.8182C99.0128 14.8182 99.134 14.8106 99.2287 14.7955C99.3234 14.7765 99.3991 14.7614 99.456 14.75L99.7287 15.9545C99.6378 15.9886 99.5109 16.0227 99.348 16.0568C99.1851 16.0947 98.9787 16.1136 98.7287 16.1136C98.3499 16.1136 97.9787 16.0322 97.6151 15.8693C97.2552 15.7064 96.956 15.4583 96.7173 15.125C96.4825 14.7917 96.3651 14.3712 96.3651 13.8636V5.18182ZM105.152 16.1818C104.311 16.1818 103.586 15.9962 102.976 15.625C102.37 15.25 101.902 14.7273 101.572 14.0568C101.247 13.3826 101.084 12.5985 101.084 11.7045C101.084 10.8106 101.247 10.0227 101.572 9.34091C101.902 8.6553 102.36 8.12121 102.947 7.73864C103.538 7.35227 104.228 7.15909 105.016 7.15909C105.47 7.15909 105.919 7.23485 106.362 7.38636C106.805 7.53788 107.209 7.78409 107.572 8.125C107.936 8.46212 108.226 8.90909 108.442 9.46591C108.658 10.0227 108.766 10.7083 108.766 11.5227V12.0909H102.038V10.9318H107.402C107.402 10.4394 107.304 10 107.107 9.61364C106.913 9.22727 106.637 8.92235 106.277 8.69886C105.921 8.47538 105.5 8.36364 105.016 8.36364C104.482 8.36364 104.019 8.49621 103.629 8.76136C103.243 9.02273 102.946 9.36364 102.737 9.78409C102.529 10.2045 102.425 10.6553 102.425 11.1364V11.9091C102.425 12.5682 102.538 13.1269 102.766 13.5852C102.997 14.0398 103.317 14.3864 103.726 14.625C104.135 14.8598 104.61 14.9773 105.152 14.9773C105.504 14.9773 105.822 14.928 106.107 14.8295C106.394 14.7273 106.643 14.5758 106.851 14.375C107.059 14.1705 107.22 13.9167 107.334 13.6136L108.629 13.9773C108.493 14.4167 108.264 14.803 107.942 15.1364C107.62 15.4659 107.222 15.7235 106.749 15.9091C106.275 16.0909 105.743 16.1818 105.152 16.1818ZM111.571 7.27273L113.662 10.8409L115.753 7.27273H117.298L114.48 11.6364L117.298 16H115.753L113.662 12.6136L111.571 16H110.026L112.798 11.6364L110.026 7.27273H111.571ZM123.007 7.27273V8.40909H118.484V7.27273H123.007ZM119.803 5.18182H121.143V13.5C121.143 13.8788 121.198 14.1629 121.308 14.3523C121.422 14.5379 121.566 14.6629 121.74 14.7273C121.918 14.7879 122.106 14.8182 122.303 14.8182C122.45 14.8182 122.571 14.8106 122.666 14.7955C122.761 14.7765 122.837 14.7614 122.893 14.75L123.166 15.9545C123.075 15.9886 122.948 16.0227 122.786 16.0568C122.623 16.0947 122.416 16.1136 122.166 16.1136C121.787 16.1136 121.416 16.0322 121.053 15.8693C120.693 15.7064 120.393 15.4583 120.155 15.125C119.92 14.7917 119.803 14.3712 119.803 13.8636V5.18182Z" fill="black"/>
<path d="M0 19.1818H123.803V20.2727H0V19.1818Z" fill="black"/>
</svg>
