<svg width="200" height="50" viewBox="0 0 200 50" fill="none" xmlns="http://www.w3.org/2000/svg">
<rect width="200" height="50" fill="white"/>
<path d="M6.78409 3.27273H7.84091V9.05114C7.84091 9.64773 7.70028 10.1804 7.41903 10.6491C7.14063 11.1151 6.74716 11.483 6.23864 11.7528C5.73011 12.0199 5.13352 12.1534 4.44886 12.1534C3.7642 12.1534 3.16761 12.0199 2.65909 11.7528C2.15057 11.483 1.75568 11.1151 1.47443 10.6491C1.19602 10.1804 1.05682 9.64773 1.05682 9.05114V3.27273H2.11364V8.96591C2.11364 9.39205 2.20739 9.77131 2.39489 10.1037C2.58239 10.4332 2.84943 10.6932 3.19602 10.8835C3.54545 11.071 3.96307 11.1648 4.44886 11.1648C4.93466 11.1648 5.35227 11.071 5.7017 10.8835C6.05114 10.6932 6.31818 10.4332 6.50284 10.1037C6.69034 9.77131 6.78409 9.39205 6.78409 8.96591V3.27273ZM16.8718 3.27273V12H15.8491L11.0934 5.14773H11.0082V12H9.95135V3.27273H10.9741L15.7468 10.142H15.832V3.27273H16.8718ZM21.6797 12H18.9865V3.27273H21.799C22.6456 3.27273 23.37 3.44744 23.9723 3.79688C24.5746 4.14347 25.0362 4.64205 25.3572 5.29261C25.6783 5.94034 25.8388 6.71591 25.8388 7.61932C25.8388 8.52841 25.6768 9.31108 25.353 9.96733C25.0291 10.6207 24.5575 11.1236 23.9382 11.4759C23.3189 11.8253 22.5661 12 21.6797 12ZM20.0433 11.0625H21.6115C22.3331 11.0625 22.9311 10.9233 23.4055 10.6449C23.88 10.3665 24.2337 9.97017 24.4666 9.45597C24.6996 8.94176 24.8161 8.32955 24.8161 7.61932C24.8161 6.91477 24.701 6.30824 24.4709 5.79972C24.2408 5.28835 23.897 4.89631 23.4396 4.62358C22.9822 4.34801 22.4126 4.21023 21.7308 4.21023H20.0433V11.0625ZM27.6115 12V3.27273H32.8786V4.21023H28.6683V7.15909H32.6058V8.09659H28.6683V11.0625H32.9467V12H27.6115ZM34.7834 12V3.27273H37.7322C38.4141 3.27273 38.9737 3.3892 39.4112 3.62216C39.8487 3.85227 40.1726 4.16903 40.3828 4.57244C40.593 4.97585 40.6982 5.43466 40.6982 5.94886C40.6982 6.46307 40.593 6.91903 40.3828 7.31676C40.1726 7.71449 39.8501 8.02699 39.4155 8.25426C38.9808 8.47869 38.4254 8.59091 37.7493 8.59091H35.3629V7.63636H37.7152C38.1811 7.63636 38.5561 7.56818 38.8402 7.43182C39.1271 7.29545 39.3345 7.10227 39.4624 6.85227C39.593 6.59943 39.6584 6.2983 39.6584 5.94886C39.6584 5.59943 39.593 5.29403 39.4624 5.03267C39.3317 4.77131 39.1229 4.5696 38.8359 4.42756C38.549 4.28267 38.1697 4.21023 37.6982 4.21023H35.8402V12H34.7834ZM38.8913 8.07955L41.0391 12H39.8118L37.6982 8.07955H38.8913ZM42.4592 12V3.27273H43.516V11.0625H47.5728V12H42.4592ZM50.266 3.27273V12H49.2092V3.27273H50.266ZM59.3054 3.27273V12H58.2827L53.527 5.14773H53.4418V12H52.3849V3.27273H53.4077L58.1804 10.142H58.2656V3.27273H59.3054ZM61.4201 12V3.27273H66.6871V4.21023H62.4769V7.15909H66.4144V8.09659H62.4769V11.0625H66.7553V12H61.4201ZM74.6772 5.45455V6.30682H71.2852V5.45455H74.6772ZM72.2738 3.88636H73.2795V10.125C73.2795 10.4091 73.3207 10.6222 73.4031 10.7642C73.4883 10.9034 73.5962 10.9972 73.7269 11.0455C73.8604 11.0909 74.0011 11.1136 74.1488 11.1136C74.2596 11.1136 74.3505 11.108 74.4215 11.0966C74.4925 11.0824 74.5494 11.071 74.592 11.0625L74.7965 11.9659C74.7283 11.9915 74.6332 12.017 74.511 12.0426C74.3888 12.071 74.234 12.0852 74.0465 12.0852C73.7624 12.0852 73.484 12.0241 73.2113 11.902C72.9414 11.7798 72.717 11.5938 72.538 11.3438C72.3619 11.0938 72.2738 10.7784 72.2738 10.3977V3.88636ZM78.864 12.1364C78.2333 12.1364 77.6893 11.9972 77.2319 11.7188C76.7773 11.4375 76.4265 11.0455 76.1793 10.5426C75.935 10.0369 75.8129 9.44886 75.8129 8.77841C75.8129 8.10795 75.935 7.51705 76.1793 7.00568C76.4265 6.49148 76.7702 6.09091 77.2106 5.80398C77.6538 5.5142 78.1708 5.36932 78.7617 5.36932C79.1026 5.36932 79.4393 5.42614 79.7717 5.53977C80.104 5.65341 80.4066 5.83807 80.6793 6.09375C80.9521 6.34659 81.1694 6.68182 81.3313 7.09943C81.4933 7.51705 81.5742 8.03125 81.5742 8.64205V9.06818H76.5288V8.19886H80.5515C80.5515 7.82955 80.4776 7.5 80.3299 7.21023C80.185 6.92045 79.9776 6.69176 79.7077 6.52415C79.4407 6.35653 79.1254 6.27273 78.7617 6.27273C78.3612 6.27273 78.0146 6.37216 77.7219 6.57102C77.4322 6.76705 77.2092 7.02273 77.0529 7.33807C76.8967 7.65341 76.8185 7.99148 76.8185 8.35227V8.93182C76.8185 9.42614 76.9038 9.84517 77.0742 10.1889C77.2475 10.5298 77.4876 10.7898 77.7944 10.9688C78.1012 11.1449 78.4577 11.233 78.864 11.233C79.1282 11.233 79.3668 11.196 79.5799 11.1222C79.7958 11.0455 79.9819 10.9318 80.1381 10.7812C80.2944 10.6278 80.4151 10.4375 80.5004 10.2102L81.4719 10.483C81.3697 10.8125 81.1978 11.1023 80.9563 11.3523C80.7148 11.5994 80.4165 11.7926 80.0614 11.9318C79.7063 12.0682 79.3072 12.1364 78.864 12.1364ZM83.6783 5.45455L85.2464 8.13068L86.8146 5.45455H87.9737L85.8601 8.72727L87.9737 12H86.8146L85.2464 9.46023L83.6783 12H82.5192L84.5987 8.72727L82.5192 5.45455H83.6783ZM92.2553 5.45455V6.30682H88.8633V5.45455H92.2553ZM89.8519 3.88636H90.8576V10.125C90.8576 10.4091 90.8988 10.6222 90.9812 10.7642C91.0664 10.9034 91.1744 10.9972 91.305 11.0455C91.4386 11.0909 91.5792 11.1136 91.7269 11.1136C91.8377 11.1136 91.9286 11.108 91.9996 11.0966C92.0707 11.0824 92.1275 11.071 92.1701 11.0625L92.3746 11.9659C92.3065 11.9915 92.2113 12.017 92.0891 12.0426C91.967 12.071 91.8121 12.0852 91.6246 12.0852C91.3406 12.0852 91.0621 12.0241 90.7894 11.902C90.5195 11.7798 90.2951 11.5938 90.1161 11.3438C89.94 11.0938 89.8519 10.7784 89.8519 10.3977V3.88636Z" fill="black"/>
<path d="M0 14.3864H92.8519V15.2045H0V14.3864Z" fill="black"/>
</svg>
