<svg width="200" height="50" viewBox="0 0 200 50" fill="none" xmlns="http://www.w3.org/2000/svg">
<rect width="200" height="50" fill="white"/>
<path d="M13.5682 5.54545H15.6818V17.1023C15.6818 18.2955 15.4006 19.3608 14.8381 20.2983C14.2813 21.2301 13.4943 21.9659 12.4773 22.5057C11.4602 23.0398 10.267 23.3068 8.89773 23.3068C7.52841 23.3068 6.33523 23.0398 5.31818 22.5057C4.30114 21.9659 3.51136 21.2301 2.94886 20.2983C2.39205 19.3608 2.11364 18.2955 2.11364 17.1023V5.54545H4.22727V16.9318C4.22727 17.7841 4.41477 18.5426 4.78977 19.2074C5.16477 19.8665 5.69886 20.3864 6.39205 20.767C7.09091 21.142 7.92614 21.3295 8.89773 21.3295C9.86932 21.3295 10.7045 21.142 11.4034 20.767C12.1023 20.3864 12.6364 19.8665 13.0057 19.2074C13.3807 18.5426 13.5682 17.7841 13.5682 16.9318V5.54545ZM33.7436 5.54545V23H31.6982L22.1868 9.29545H22.0163V23H19.9027V5.54545H21.9482L31.4936 19.2841H31.6641V5.54545H33.7436ZM43.3594 23H37.973V5.54545H43.598C45.2912 5.54545 46.7401 5.89489 47.9446 6.59375C49.1491 7.28693 50.0724 8.28409 50.7145 9.58523C51.3565 10.8807 51.6776 12.4318 51.6776 14.2386C51.6776 16.0568 51.3537 17.6222 50.706 18.9347C50.0582 20.2415 49.1151 21.2472 47.8764 21.9517C46.6378 22.6506 45.1321 23 43.3594 23ZM40.0866 21.125H43.223C44.6662 21.125 45.8622 20.8466 46.8111 20.2898C47.7599 19.733 48.4673 18.9403 48.9332 17.9119C49.3991 16.8835 49.6321 15.6591 49.6321 14.2386C49.6321 12.8295 49.402 11.6165 48.9418 10.5994C48.4815 9.5767 47.794 8.79261 46.8793 8.24716C45.9645 7.69602 44.8253 7.42045 43.4616 7.42045H40.0866V21.125ZM55.223 23V5.54545H65.7571V7.42045H57.3366V13.3182H65.2116V15.1932H57.3366V21.125H65.8935V23H55.223ZM69.5668 23V5.54545H75.4645C76.8281 5.54545 77.9474 5.77841 78.8224 6.24432C79.6974 6.70454 80.3452 7.33807 80.7656 8.14489C81.1861 8.9517 81.3963 9.86932 81.3963 10.8977C81.3963 11.9261 81.1861 12.8381 80.7656 13.6335C80.3452 14.429 79.7003 15.054 78.831 15.5085C77.9616 15.9574 76.8509 16.1818 75.4986 16.1818H70.7259V14.2727H75.4304C76.3622 14.2727 77.1122 14.1364 77.6804 13.8636C78.2543 13.5909 78.669 13.2045 78.9247 12.7045C79.1861 12.1989 79.3168 11.5966 79.3168 10.8977C79.3168 10.1989 79.1861 9.58807 78.9247 9.06534C78.6634 8.54261 78.2457 8.1392 77.6719 7.85511C77.098 7.56534 76.3395 7.42045 75.3963 7.42045H71.6804V23H69.5668ZM77.7827 15.1591L82.0781 23H79.6236L75.3963 15.1591H77.7827ZM84.9183 23V5.54545H87.032V21.125H95.1456V23H84.9183ZM100.532 5.54545V23H98.4183V5.54545H100.532ZM118.611 5.54545V23H116.565L107.054 9.29545H106.884V23H104.77V5.54545H106.815L116.361 19.2841H116.531V5.54545H118.611ZM122.84 23V5.54545H133.374V7.42045H124.954V13.3182H132.829V15.1932H124.954V21.125H133.511V23H122.84ZM149.354 9.90909V11.6136H142.57V9.90909H149.354ZM144.548 6.77273H146.559V19.25C146.559 19.8182 146.641 20.2443 146.806 20.5284C146.977 20.8068 147.192 20.9943 147.454 21.0909C147.721 21.1818 148.002 21.2273 148.298 21.2273C148.519 21.2273 148.701 21.2159 148.843 21.1932C148.985 21.1648 149.099 21.142 149.184 21.125L149.593 22.9318C149.457 22.983 149.266 23.0341 149.022 23.0852C148.778 23.142 148.468 23.1705 148.093 23.1705C147.525 23.1705 146.968 23.0483 146.423 22.804C145.883 22.5597 145.434 22.1875 145.076 21.6875C144.724 21.1875 144.548 20.5568 144.548 19.7955V6.77273ZM157.728 23.2727C156.467 23.2727 155.379 22.9943 154.464 22.4375C153.555 21.875 152.853 21.0909 152.359 20.0852C151.87 19.0739 151.626 17.8977 151.626 16.5568C151.626 15.2159 151.87 14.0341 152.359 13.0114C152.853 11.983 153.54 11.1818 154.421 10.608C155.308 10.0284 156.342 9.73864 157.523 9.73864C158.205 9.73864 158.879 9.85227 159.543 10.0795C160.208 10.3068 160.813 10.6761 161.359 11.1875C161.904 11.6932 162.339 12.3636 162.663 13.1989C162.987 14.0341 163.148 15.0625 163.148 16.2841V17.1364H153.058V15.3977H161.103C161.103 14.6591 160.955 14 160.66 13.4205C160.37 12.8409 159.955 12.3835 159.415 12.0483C158.881 11.7131 158.251 11.5455 157.523 11.5455C156.722 11.5455 156.029 11.7443 155.444 12.142C154.864 12.5341 154.418 13.0455 154.106 13.6761C153.793 14.3068 153.637 14.983 153.637 15.7045V16.8636C153.637 17.8523 153.808 18.6903 154.148 19.3778C154.495 20.0597 154.975 20.5795 155.589 20.9375C156.202 21.2898 156.915 21.4659 157.728 21.4659C158.256 21.4659 158.734 21.392 159.16 21.2443C159.592 21.0909 159.964 20.8636 160.276 20.5625C160.589 20.2557 160.83 19.875 161.001 19.4205L162.944 19.9659C162.739 20.625 162.396 21.2045 161.913 21.7045C161.43 22.1989 160.833 22.5852 160.123 22.8636C159.413 23.1364 158.614 23.2727 157.728 23.2727ZM167.357 9.90909L170.493 15.2614L173.629 9.90909H175.947L171.72 16.4545L175.947 23H173.629L170.493 17.9205L167.357 23H165.038L169.197 16.4545L165.038 9.90909H167.357ZM184.511 9.90909V11.6136H177.727V9.90909H184.511ZM179.704 6.77273H181.715V19.25C181.715 19.8182 181.798 20.2443 181.962 20.5284C182.133 20.8068 182.349 20.9943 182.61 21.0909C182.877 21.1818 183.158 21.2273 183.454 21.2273C183.675 21.2273 183.857 21.2159 183.999 21.1932C184.141 21.1648 184.255 21.142 184.34 21.125L184.749 22.9318C184.613 22.983 184.423 23.0341 184.178 23.0852C183.934 23.142 183.624 23.1705 183.249 23.1705C182.681 23.1705 182.124 23.0483 181.579 22.804C181.039 22.5597 180.59 22.1875 180.232 21.6875C179.88 21.1875 179.704 20.5568 179.704 19.7955V6.77273Z" fill="black"/>
<path d="M0 27.7727H185.704V29.4091H0V27.7727Z" fill="black"/>
</svg>
