<svg width="200" height="50" viewBox="0 0 200 50" fill="none" xmlns="http://www.w3.org/2000/svg">
<g clip-path="url(#clip0_0_1105)">
<rect width="200" height="50" fill="white"/>
<path d="M18.0909 7.72727H20.9091V23.1364C20.9091 24.7273 20.5341 26.1477 19.7841 27.3977C19.0417 28.6402 17.9924 29.6212 16.6364 30.3409C15.2803 31.053 13.6894 31.4091 11.8636 31.4091C10.0379 31.4091 8.44697 31.053 7.09091 30.3409C5.73485 29.6212 4.68182 28.6402 3.93182 27.3977C3.18939 26.1477 2.81818 24.7273 2.81818 23.1364V7.72727H5.63636V22.9091C5.63636 24.0455 5.88636 25.0568 6.38636 25.9432C6.88636 26.822 7.59849 27.5152 8.52273 28.0227C9.45455 28.5227 10.5682 28.7727 11.8636 28.7727C13.1591 28.7727 14.2727 28.5227 15.2045 28.0227C16.1364 27.5152 16.8485 26.822 17.3409 25.9432C17.8409 25.0568 18.0909 24.0455 18.0909 22.9091V7.72727ZM44.9915 7.72727V31H42.2642L29.5824 12.7273H29.3551V31H26.5369V7.72727H29.2642L41.9915 26.0455H42.2188V7.72727H44.9915ZM57.8125 31H50.6307V7.72727H58.1307C60.3883 7.72727 62.3201 8.19318 63.9261 9.125C65.5322 10.0492 66.7633 11.3788 67.6193 13.1136C68.4754 14.8409 68.9034 16.9091 68.9034 19.3182C68.9034 21.7424 68.4716 23.8295 67.608 25.5795C66.7443 27.322 65.4867 28.6629 63.8352 29.6023C62.1837 30.5341 60.1761 31 57.8125 31ZM53.4489 28.5H57.6307C59.5549 28.5 61.1496 28.1288 62.4148 27.3864C63.6799 26.6439 64.6231 25.5871 65.2443 24.2159C65.8655 22.8447 66.1761 21.2121 66.1761 19.3182C66.1761 17.4394 65.8693 15.822 65.2557 14.4659C64.642 13.1023 63.7254 12.0568 62.5057 11.3295C61.286 10.5947 59.767 10.2273 57.9489 10.2273H53.4489V28.5ZM73.6307 31V7.72727H87.6761V10.2273H76.4489V18.0909H86.9489V20.5909H76.4489V28.5H87.858V31H73.6307ZM92.7557 31V7.72727H100.619C102.438 7.72727 103.93 8.03788 105.097 8.65909C106.263 9.27273 107.127 10.1174 107.688 11.1932C108.248 12.2689 108.528 13.4924 108.528 14.8636C108.528 16.2348 108.248 17.4508 107.688 18.5114C107.127 19.572 106.267 20.4053 105.108 21.0114C103.949 21.6098 102.468 21.9091 100.665 21.9091H94.3011V19.3636H100.574C101.816 19.3636 102.816 19.1818 103.574 18.8182C104.339 18.4545 104.892 17.9394 105.233 17.2727C105.581 16.5985 105.756 15.7955 105.756 14.8636C105.756 13.9318 105.581 13.1174 105.233 12.4205C104.884 11.7235 104.328 11.1856 103.562 10.8068C102.797 10.4205 101.786 10.2273 100.528 10.2273H95.5739V31H92.7557ZM103.71 20.5455L109.438 31H106.165L100.528 20.5455H103.71ZM113.224 31V7.72727H116.043V28.5H126.861V31H113.224ZM134.043 7.72727V31H131.224V7.72727H134.043ZM158.148 7.72727V31H155.42L142.739 12.7273H142.511V31H139.693V7.72727H142.42L155.148 26.0455H155.375V7.72727H158.148ZM163.787 31V7.72727H177.832V10.2273H166.605V18.0909H177.105V20.5909H166.605V28.5H178.014V31H163.787ZM10.0455 52.5455V54.8182H1V52.5455H10.0455ZM3.63636 48.3636H6.31818V65C6.31818 65.7576 6.42803 66.3258 6.64773 66.7045C6.875 67.0758 7.16288 67.3258 7.51136 67.4545C7.86742 67.5758 8.24242 67.6364 8.63636 67.6364C8.93182 67.6364 9.17424 67.6212 9.36364 67.5909C9.55303 67.553 9.70455 67.5227 9.81818 67.5L10.3636 69.9091C10.1818 69.9773 9.92803 70.0455 9.60227 70.1136C9.27652 70.1894 8.86364 70.2273 8.36364 70.2273C7.60606 70.2273 6.86364 70.0644 6.13636 69.7386C5.41667 69.4129 4.81818 68.9167 4.34091 68.25C3.87121 67.5833 3.63636 66.7424 3.63636 65.7273V48.3636ZM21.2102 70.3636C19.5284 70.3636 18.0777 69.9924 16.858 69.25C15.6458 68.5 14.7102 67.4545 14.0511 66.1136C13.3996 64.7652 13.0739 63.197 13.0739 61.4091C13.0739 59.6212 13.3996 58.0455 14.0511 56.6818C14.7102 55.3106 15.6269 54.2424 16.8011 53.4773C17.983 52.7045 19.3617 52.3182 20.9375 52.3182C21.8466 52.3182 22.7443 52.4697 23.6307 52.7727C24.517 53.0758 25.3239 53.5682 26.0511 54.25C26.7784 54.9242 27.358 55.8182 27.7898 56.9318C28.2216 58.0455 28.4375 59.4167 28.4375 61.0455V62.1818H14.983V59.8636H25.7102C25.7102 58.8788 25.5133 58 25.1193 57.2273C24.733 56.4545 24.1799 55.8447 23.4602 55.3977C22.7481 54.9508 21.9072 54.7273 20.9375 54.7273C19.8693 54.7273 18.9451 54.9924 18.1648 55.5227C17.392 56.0455 16.7973 56.7273 16.3807 57.5682C15.964 58.4091 15.7557 59.3106 15.7557 60.2727V61.8182C15.7557 63.1364 15.983 64.2538 16.4375 65.1705C16.8996 66.0795 17.5398 66.7727 18.358 67.25C19.1761 67.7197 20.1269 67.9545 21.2102 67.9545C21.9148 67.9545 22.5511 67.8561 23.1193 67.6591C23.6951 67.4545 24.1913 67.1515 24.608 66.75C25.0246 66.3409 25.3466 65.8333 25.5739 65.2273L28.1648 65.9545C27.892 66.8333 27.4337 67.6061 26.7898 68.2727C26.1458 68.9318 25.3504 69.447 24.4034 69.8182C23.4564 70.1818 22.392 70.3636 21.2102 70.3636ZM34.0483 52.5455L38.2301 59.6818L42.4119 52.5455H45.5028L39.8665 61.2727L45.5028 70H42.4119L38.2301 63.2273L34.0483 70H30.9574L36.5028 61.2727L30.9574 52.5455H34.0483ZM56.9205 52.5455V54.8182H47.875V52.5455H56.9205ZM50.5114 48.3636H53.1932V65C53.1932 65.7576 53.303 66.3258 53.5227 66.7045C53.75 67.0758 54.0379 67.3258 54.3864 67.4545C54.7424 67.5758 55.1174 67.6364 55.5114 67.6364C55.8068 67.6364 56.0492 67.6212 56.2386 67.5909C56.428 67.553 56.5795 67.5227 56.6932 67.5L57.2386 69.9091C57.0568 69.9773 56.803 70.0455 56.4773 70.1136C56.1515 70.1894 55.7386 70.2273 55.2386 70.2273C54.4811 70.2273 53.7386 70.0644 53.0114 69.7386C52.2917 69.4129 51.6932 68.9167 51.2159 68.25C50.7462 67.5833 50.5114 66.7424 50.5114 65.7273V48.3636Z" fill="black"/>
<path d="M0 37.3636H180.094V39.5455H0V37.3636ZM0 76.3636H58.5114V78.5455H0V76.3636Z" fill="black"/>
</g>
<defs>
<clipPath id="clip0_0_1105">
<rect width="200" height="50" fill="white"/>
</clipPath>
</defs>
</svg>
