<svg width="200" height="50" viewBox="0 0 200 50" fill="none" xmlns="http://www.w3.org/2000/svg">
<g clip-path="url(#clip0_0_1176)">
<rect width="200" height="50" fill="white"/>
<path d="M1.23295 14V3.81818H2.46591V8.35227H7.89489V3.81818H9.12784V14H7.89489V9.44602H2.46591V14H1.23295ZM14.6388 14.1591C13.9031 14.1591 13.2683 13.9967 12.7347 13.6719C12.2044 13.3438 11.7951 12.8864 11.5067 12.2997C11.2217 11.7098 11.0792 11.0237 11.0792 10.2415C11.0792 9.45928 11.2217 8.76989 11.5067 8.1733C11.7951 7.57339 12.1961 7.10606 12.7099 6.77131C13.2269 6.43324 13.8301 6.2642 14.5195 6.2642C14.9173 6.2642 15.31 6.33049 15.6978 6.46307C16.0856 6.59564 16.4386 6.81108 16.7567 7.10938C17.0749 7.40436 17.3285 7.79545 17.5174 8.28267C17.7063 8.76989 17.8008 9.36979 17.8008 10.0824V10.5795H11.9144V9.56534H16.6076C16.6076 9.13447 16.5214 8.75 16.3491 8.41193C16.18 8.07386 15.9381 7.80705 15.6232 7.61151C15.3117 7.41596 14.9438 7.31818 14.5195 7.31818C14.0522 7.31818 13.6478 7.43419 13.3065 7.66619C12.9684 7.89489 12.7082 8.19318 12.5259 8.56108C12.3436 8.92898 12.2525 9.32339 12.2525 9.74432V10.4205C12.2525 10.9972 12.3519 11.486 12.5508 11.8871C12.753 12.2848 13.033 12.5881 13.391 12.7969C13.7489 13.0024 14.1649 13.1051 14.6388 13.1051C14.9471 13.1051 15.2255 13.062 15.4741 12.9759C15.726 12.8864 15.9431 12.7538 16.1254 12.5781C16.3076 12.3991 16.4485 12.1771 16.5479 11.9119L17.6815 12.2301C17.5621 12.6146 17.3616 12.9527 17.0799 13.2443C16.7982 13.5327 16.4502 13.758 16.0359 13.9205C15.6216 14.0795 15.1559 14.1591 14.6388 14.1591ZM20.7589 3.81818V14H19.5856V3.81818H20.7589ZM24.0811 3.81818V14H22.9078V3.81818H24.0811ZM29.3324 14.1591C28.643 14.1591 28.0381 13.995 27.5178 13.6669C27.0007 13.3388 26.5964 12.8797 26.3047 12.2898C26.0163 11.6998 25.8722 11.0104 25.8722 10.2216C25.8722 9.42614 26.0163 8.73177 26.3047 8.13849C26.5964 7.54522 27.0007 7.08452 27.5178 6.75639C28.0381 6.42827 28.643 6.2642 29.3324 6.2642C30.0218 6.2642 30.625 6.42827 31.142 6.75639C31.6624 7.08452 32.0668 7.54522 32.3551 8.13849C32.6468 8.73177 32.7926 9.42614 32.7926 10.2216C32.7926 11.0104 32.6468 11.6998 32.3551 12.2898C32.0668 12.8797 31.6624 13.3388 31.142 13.6669C30.625 13.995 30.0218 14.1591 29.3324 14.1591ZM29.3324 13.1051C29.8561 13.1051 30.2869 12.9709 30.625 12.7024C30.9631 12.4339 31.2133 12.081 31.3757 11.6435C31.5381 11.206 31.6193 10.732 31.6193 10.2216C31.6193 9.71117 31.5381 9.23556 31.3757 8.79474C31.2133 8.35393 30.9631 7.99763 30.625 7.72585C30.2869 7.45407 29.8561 7.31818 29.3324 7.31818C28.8087 7.31818 28.3778 7.45407 28.0398 7.72585C27.7017 7.99763 27.4515 8.35393 27.2891 8.79474C27.1267 9.23556 27.0455 9.71117 27.0455 10.2216C27.0455 10.732 27.1267 11.206 27.2891 11.6435C27.4515 12.081 27.7017 12.4339 28.0398 12.7024C28.3778 12.9709 28.8087 13.1051 29.3324 13.1051ZM37.4473 14.63H51.4473V0.63H37.4473V14.63ZM58.4672 14L55.6831 3.81818H56.9359L59.0637 12.1108H59.1632L61.3308 3.81818H62.7228L64.8904 12.1108H64.9899L67.1177 3.81818H68.3706L65.5865 14H64.3137L62.0666 5.88636H61.987L59.7399 14H58.4672ZM72.139 14.1591C71.4496 14.1591 70.8448 13.995 70.3244 13.6669C69.8074 13.3388 69.403 12.8797 69.1113 12.2898C68.823 11.6998 68.6788 11.0104 68.6788 10.2216C68.6788 9.42614 68.823 8.73177 69.1113 8.13849C69.403 7.54522 69.8074 7.08452 70.3244 6.75639C70.8448 6.42827 71.4496 6.2642 72.139 6.2642C72.8284 6.2642 73.4316 6.42827 73.9487 6.75639C74.469 7.08452 74.8734 7.54522 75.1618 8.13849C75.4534 8.73177 75.5993 9.42614 75.5993 10.2216C75.5993 11.0104 75.4534 11.6998 75.1618 12.2898C74.8734 12.8797 74.469 13.3388 73.9487 13.6669C73.4316 13.995 72.8284 14.1591 72.139 14.1591ZM72.139 13.1051C72.6627 13.1051 73.0936 12.9709 73.4316 12.7024C73.7697 12.4339 74.0199 12.081 74.1824 11.6435C74.3448 11.206 74.426 10.732 74.426 10.2216C74.426 9.71117 74.3448 9.23556 74.1824 8.79474C74.0199 8.35393 73.7697 7.99763 73.4316 7.72585C73.0936 7.45407 72.6627 7.31818 72.139 7.31818C71.6154 7.31818 71.1845 7.45407 70.8464 7.72585C70.5083 7.99763 70.2581 8.35393 70.0957 8.79474C69.9333 9.23556 69.8521 9.71117 69.8521 10.2216C69.8521 10.732 69.9333 11.206 70.0957 11.6435C70.2581 12.081 70.5083 12.4339 70.8464 12.7024C71.1845 12.9709 71.6154 13.1051 72.139 13.1051ZM77.3903 14V6.36364H78.5238V7.51705H78.6033C78.7425 7.1392 78.9944 6.83262 79.359 6.5973C79.7236 6.36198 80.1346 6.24432 80.592 6.24432C80.6781 6.24432 80.7859 6.24597 80.9151 6.24929C81.0444 6.2526 81.1422 6.25758 81.2085 6.2642V7.45739C81.1687 7.44744 81.0775 7.43253 80.935 7.41264C80.7958 7.38944 80.6483 7.37784 80.4925 7.37784C80.1213 7.37784 79.7899 7.45573 79.4982 7.61151C79.2099 7.76397 78.9812 7.97609 78.8121 8.24787C78.6464 8.51634 78.5636 8.82292 78.5636 9.16761V14H77.3903ZM83.7725 3.81818V14H82.5993V3.81818H83.7725ZM88.805 14.1591C88.1687 14.1591 87.6069 13.9983 87.1197 13.6768C86.6325 13.352 86.2513 12.8946 85.9762 12.3047C85.7011 11.7114 85.5636 11.0104 85.5636 10.2017C85.5636 9.39962 85.7011 8.7036 85.9762 8.11364C86.2513 7.52367 86.6341 7.06794 87.1246 6.74645C87.6152 6.42495 88.1819 6.2642 88.8249 6.2642C89.3221 6.2642 89.7148 6.34706 90.0032 6.51278C90.2949 6.67519 90.5169 6.8608 90.6694 7.0696C90.8252 7.27509 90.9461 7.44413 91.0323 7.5767H91.1317V3.81818H92.305V14H91.1715V12.8267H91.0323C90.9461 12.9659 90.8235 13.1416 90.6644 13.3537C90.5053 13.5625 90.2783 13.7498 89.9833 13.9155C89.6883 14.0779 89.2956 14.1591 88.805 14.1591ZM88.9641 13.1051C89.4348 13.1051 89.8325 12.9825 90.1573 12.7372C90.4821 12.4886 90.729 12.1456 90.8981 11.7081C91.0671 11.2673 91.1516 10.7585 91.1516 10.1818C91.1516 9.61174 91.0688 9.11293 90.9031 8.68537C90.7373 8.2545 90.4921 7.91974 90.1673 7.68111C89.8424 7.43916 89.4414 7.31818 88.9641 7.31818C88.467 7.31818 88.0527 7.44579 87.7212 7.70099C87.3931 7.95289 87.1462 8.29593 86.9805 8.73011C86.8181 9.16098 86.7369 9.64489 86.7369 10.1818C86.7369 10.7254 86.8197 11.2192 86.9854 11.6634C87.1545 12.1042 87.4031 12.4555 87.7312 12.7173C88.0626 12.9759 88.4736 13.1051 88.9641 13.1051ZM97.4805 14.63H111.48V0.63H97.4805V14.63Z" fill="black"/>
</g>
<defs>
<clipPath id="clip0_0_1176">
<rect width="200" height="50" fill="white"/>
</clipPath>
</defs>
</svg>
