<svg width="200" height="50" viewBox="0 0 200 50" fill="none" xmlns="http://www.w3.org/2000/svg">
<g clip-path="url(#clip0_0_1180)">
<rect width="200" height="50" fill="white"/>
<path d="M1.036 19.502C0.877333 18.886 0.737333 18.284 0.616 17.696C0.504 17.108 0.42 16.5667 0.364 16.072C0.308 15.5773 0.28 15.1713 0.28 14.854C0.28 14.2847 0.382667 13.8133 0.588 13.44C0.793333 13.0573 1.06867 12.7633 1.414 12.558C1.75933 12.3433 2.142 12.1987 2.562 12.124C2.99133 12.0493 3.43 12.026 3.878 12.054C4.33533 12.0727 4.76467 12.1287 5.166 12.222C5.194 11.9047 5.17533 11.6013 5.11 11.312C5.054 11.0133 4.956 10.752 4.816 10.528C4.68533 10.2947 4.51733 10.1127 4.312 9.982C4.10667 9.85133 3.87333 9.786 3.612 9.786C3.37867 9.786 3.15933 9.83733 2.954 9.94C2.74867 10.0427 2.55267 10.2013 2.366 10.416C2.18867 10.6213 2.016 10.878 1.848 11.186L0.98 10.71C1.22267 10.206 1.48867 9.80467 1.778 9.506C2.07667 9.20733 2.38933 8.99267 2.716 8.862C3.04267 8.722 3.36467 8.652 3.682 8.652C4.158 8.652 4.55933 8.75467 4.886 8.96C5.21267 9.156 5.46933 9.41733 5.656 9.744C5.852 10.0613 5.992 10.4067 6.076 10.78C6.16933 11.144 6.216 11.494 6.216 11.83C6.216 12.0633 6.188 12.2967 6.132 12.53C6.076 12.7633 6.006 12.9733 5.922 13.16C5.84733 13.3467 5.77267 13.4913 5.698 13.594C5.194 13.4447 4.72267 13.3373 4.284 13.272C3.84533 13.2067 3.44867 13.188 3.094 13.216C2.74867 13.2347 2.45 13.3093 2.198 13.44C1.946 13.5707 1.75467 13.7573 1.624 14C1.49333 14.2427 1.428 14.5507 1.428 14.924C1.428 15.2693 1.456 15.68 1.512 16.156C1.568 16.632 1.64733 17.1313 1.75 17.654C1.85267 18.186 1.974 18.7087 2.114 19.222L1.036 19.502ZM6.2767 17.248L5.8707 16.184C6.55204 15.96 7.1167 15.7033 7.5647 15.414C8.02204 15.1247 8.38137 14.8167 8.6427 14.49C8.91337 14.1633 9.1047 13.832 9.2167 13.496C9.3287 13.1507 9.3847 12.8193 9.3847 12.502C9.3847 12.0447 9.28204 11.5827 9.0767 11.116C8.8807 10.64 8.66137 10.192 8.4187 9.772L9.4407 9.254C9.61804 9.58067 9.77204 9.90267 9.9027 10.22C10.0427 10.5373 10.164 10.836 10.2667 11.116C10.3787 11.396 10.4674 11.6527 10.5327 11.886C10.6634 12.2873 10.8314 12.5627 11.0367 12.712C11.2514 12.852 11.5407 12.922 11.9047 12.922C12.1007 12.922 12.2407 12.978 12.3247 13.09C12.418 13.1927 12.4647 13.3187 12.4647 13.468C12.4647 13.6173 12.3994 13.7573 12.2687 13.888C12.138 14.0093 11.97 14.07 11.7647 14.07C11.354 14.07 11.018 14 10.7567 13.86C10.5047 13.7107 10.3134 13.5193 10.1827 13.286C10.052 13.0433 9.96337 12.7913 9.9167 12.53L10.3647 12.782C10.3647 13.398 10.2247 13.958 9.9447 14.462C9.67404 14.9753 9.32404 15.4187 8.8947 15.792C8.46537 16.1747 8.01737 16.4873 7.5507 16.73C7.08404 16.9727 6.65937 17.1453 6.2767 17.248ZM20.6895 14.07C20.2975 14.07 19.9382 14.0467 19.6115 14C19.2848 13.944 18.9908 13.846 18.7295 13.706C18.4682 13.566 18.2488 13.3653 18.0715 13.104C17.8942 12.8333 17.7588 12.4787 17.6655 12.04L18.4915 11.55C18.6128 11.9233 18.7622 12.208 18.9395 12.404C19.1168 12.6 19.3548 12.7353 19.6535 12.81C19.9615 12.8847 20.3535 12.922 20.8295 12.922C21.0255 12.922 21.1655 12.978 21.2495 13.09C21.3428 13.1927 21.3895 13.3187 21.3895 13.468C21.3895 13.6173 21.3242 13.7573 21.1935 13.888C21.0628 14.0093 20.8948 14.07 20.6895 14.07ZM11.7715 14.07L11.8975 12.922C12.3828 12.922 12.8588 12.8847 13.3255 12.81C13.7922 12.7353 14.2495 12.628 14.6975 12.488C15.1455 12.348 15.5748 12.18 15.9855 11.984C16.4055 11.7787 16.8022 11.5453 17.1755 11.284C16.9328 11.0693 16.6528 10.8827 16.3355 10.724C16.0182 10.5653 15.6682 10.444 15.2855 10.36C14.9122 10.2667 14.5155 10.22 14.0955 10.22C13.9462 10.22 13.8062 10.2247 13.6755 10.234C13.5448 10.2433 13.4142 10.262 13.2835 10.29C13.1528 10.3087 13.0035 10.3367 12.8355 10.374L12.6115 9.31C12.8635 9.23533 13.1155 9.17933 13.3675 9.142C13.6195 9.09533 13.8622 9.072 14.0955 9.072C14.5808 9.072 15.0195 9.13267 15.4115 9.254C15.8035 9.366 16.1582 9.506 16.4755 9.674C16.8022 9.842 17.1055 10.01 17.3855 10.178C17.6748 10.346 17.9548 10.4907 18.2255 10.612C18.4962 10.724 18.7762 10.78 19.0655 10.78H19.3595L19.4575 11.788C19.0562 11.788 18.6875 11.844 18.3515 11.956C18.0155 12.068 17.6842 12.2127 17.3575 12.39C17.0402 12.558 16.7042 12.74 16.3495 12.936C15.9948 13.1227 15.6028 13.3047 15.1735 13.482C14.7442 13.65 14.2495 13.79 13.6895 13.902C13.1388 14.014 12.4995 14.07 11.7715 14.07ZM20.6855 14.07L20.8255 12.922C21.2829 12.922 21.6469 12.894 21.9175 12.838C22.1882 12.782 22.3842 12.67 22.5055 12.502C22.6269 12.3247 22.6875 12.0633 22.6875 11.718C22.6875 11.4847 22.6502 11.2093 22.5755 10.892C22.5009 10.5653 22.4029 10.22 22.2815 9.856C22.1602 9.492 22.0295 9.13267 21.8895 8.778L23.0235 8.358C23.1449 8.65667 23.2569 8.99733 23.3595 9.38C23.4715 9.76267 23.5649 10.1407 23.6395 10.514C23.7142 10.8873 23.7515 11.214 23.7515 11.494C23.7515 11.8673 23.7095 12.1987 23.6255 12.488C23.5509 12.768 23.4342 13.0107 23.2755 13.216C23.1169 13.412 22.9115 13.5753 22.6595 13.706C22.4169 13.8273 22.1322 13.9207 21.8055 13.986C21.4789 14.042 21.1055 14.07 20.6855 14.07ZM22.1835 16.674C21.9875 16.674 21.8195 16.604 21.6795 16.464C21.5489 16.3333 21.4835 16.1747 21.4835 15.988C21.4835 15.8013 21.5489 15.638 21.6795 15.498C21.8195 15.358 21.9875 15.288 22.1835 15.288C22.3702 15.288 22.5289 15.358 22.6595 15.498C22.7995 15.638 22.8695 15.8013 22.8695 15.988C22.8695 16.1747 22.7995 16.3333 22.6595 16.464C22.5289 16.604 22.3702 16.674 22.1835 16.674ZM25.7333 14L25.4533 4.004H26.5873L26.8673 14H25.7333ZM37.1788 14.294L37.5428 13.146C38.6348 13.146 39.5728 13.118 40.3568 13.062C41.1501 13.006 41.7988 12.9173 42.3028 12.796C42.8161 12.6653 43.1941 12.4927 43.4368 12.278C43.6888 12.054 43.8148 11.7833 43.8148 11.466C43.8148 11.1113 43.7494 10.7007 43.6188 10.234C43.4881 9.76733 43.3201 9.268 43.1148 8.736L44.1928 8.358C44.3141 8.65667 44.4261 8.97867 44.5288 9.324C44.6408 9.66 44.7341 9.996 44.8088 10.332C44.8834 10.6587 44.9208 10.962 44.9208 11.242C44.9208 11.7927 44.7948 12.264 44.5428 12.656C44.2908 13.0387 43.8708 13.3513 43.2828 13.594C42.6948 13.8367 41.9014 14.014 40.9028 14.126C39.9134 14.238 38.6721 14.294 37.1788 14.294ZM37.1788 14.294C36.3481 14.294 35.6154 14.238 34.9808 14.126C34.3554 14.0233 33.8328 13.86 33.4128 13.636C32.9928 13.412 32.6754 13.1227 32.4608 12.768C32.2461 12.404 32.1388 11.9653 32.1388 11.452C32.1388 11.2187 32.1574 10.9807 32.1948 10.738C32.2321 10.486 32.2788 10.234 32.3348 9.982C32.4001 9.73 32.4654 9.48733 32.5308 9.254L33.5808 9.52C33.5434 9.66 33.5014 9.828 33.4548 10.024C33.4081 10.2107 33.3661 10.402 33.3288 10.598C33.3008 10.794 33.2868 10.9713 33.2868 11.13C33.2868 11.6153 33.4081 12.0073 33.6508 12.306C33.9028 12.5953 34.3368 12.81 34.9528 12.95C35.5688 13.0807 36.4321 13.146 37.5428 13.146L37.8228 13.846L37.1788 14.294ZM38.5228 16.954C38.3268 16.954 38.1588 16.884 38.0188 16.744C37.8881 16.6133 37.8228 16.4547 37.8228 16.268C37.8228 16.0813 37.8881 15.918 38.0188 15.778C38.1588 15.638 38.3268 15.568 38.5228 15.568C38.7094 15.568 38.8681 15.638 38.9988 15.778C39.1388 15.918 39.2088 16.0813 39.2088 16.268C39.2088 16.4547 39.1388 16.6133 38.9988 16.744C38.8681 16.884 38.7094 16.954 38.5228 16.954ZM54.009 14.07C53.449 14.07 52.987 14.0233 52.623 13.93C52.2684 13.8367 51.9884 13.692 51.783 13.496C51.587 13.3 51.447 13.0527 51.363 12.754C51.2884 12.446 51.2417 12.082 51.223 11.662L50.943 4.004H52.091L52.371 11.214C52.3897 11.6713 52.4317 12.026 52.497 12.278C52.5717 12.5207 52.7304 12.6887 52.973 12.782C53.225 12.8753 53.617 12.922 54.149 12.922C54.345 12.922 54.485 12.978 54.569 13.09C54.6624 13.1927 54.709 13.3187 54.709 13.468C54.709 13.6173 54.6437 13.7573 54.513 13.888C54.3824 14.0093 54.2144 14.07 54.009 14.07ZM47.611 14.07C47.359 14.07 47.1024 14.0467 46.841 14C46.589 13.9627 46.4117 13.9347 46.309 13.916L46.463 12.81C47.107 12.894 47.7137 12.908 48.283 12.852C48.8524 12.796 49.347 12.6373 49.767 12.376C50.1964 12.1053 50.5324 11.6993 50.775 11.158C51.0177 10.6167 51.139 9.912 51.139 9.044L51.811 10.724C51.699 11.312 51.531 11.8067 51.307 12.208C51.083 12.6 50.8217 12.922 50.523 13.174C50.2337 13.4167 49.921 13.6033 49.585 13.734C49.249 13.8647 48.913 13.9533 48.577 14C48.241 14.0467 47.919 14.07 47.611 14.07ZM50.649 12.152C50.4997 11.8627 50.2897 11.5267 50.019 11.144C49.7484 10.752 49.4217 10.3273 49.039 9.87C48.6564 9.41267 48.2224 8.93667 47.737 8.442C47.261 7.94733 46.743 7.448 46.183 6.944L46.939 6.146C47.555 6.734 48.101 7.28467 48.577 7.798C49.0624 8.302 49.487 8.778 49.851 9.226C50.215 9.66467 50.5277 10.066 50.789 10.43C51.0504 10.794 51.2697 11.1253 51.447 11.424L50.649 12.152ZM54.0039 14.07L54.1439 12.922C54.7319 12.922 55.1846 12.9173 55.5019 12.908C55.8286 12.8987 56.0666 12.8893 56.2159 12.88C56.3652 12.8613 56.4679 12.852 56.5239 12.852C56.3559 12.7587 56.1599 12.614 55.9359 12.418C55.7119 12.2127 55.5159 11.956 55.3479 11.648C55.1799 11.3307 55.0959 10.9573 55.0959 10.528C55.0959 9.996 55.2172 9.52933 55.4599 9.128C55.7119 8.72667 56.0526 8.414 56.4819 8.19C56.9206 7.966 57.4199 7.854 57.9799 7.854C58.1946 7.854 58.4232 7.87267 58.6659 7.91C58.9086 7.94733 59.1419 8.00333 59.3659 8.078L59.1279 9.156C58.9412 9.10933 58.7452 9.072 58.5399 9.044C58.3346 9.016 58.1479 9.002 57.9799 9.002C57.6439 9.002 57.3452 9.06733 57.0839 9.198C56.8226 9.31933 56.6172 9.492 56.4679 9.716C56.3186 9.94 56.2439 10.2107 56.2439 10.528C56.2439 10.7707 56.2952 10.9947 56.3979 11.2C56.5006 11.396 56.6359 11.5733 56.8039 11.732C56.9719 11.8907 57.1586 12.0213 57.3639 12.124C57.5692 12.2267 57.7699 12.306 57.9659 12.362C58.1712 12.418 58.3532 12.4413 58.5119 12.432C58.6239 12.3947 58.7266 12.362 58.8199 12.334C58.9132 12.306 59.0159 12.2733 59.1279 12.236C59.2492 12.1893 59.3939 12.1287 59.5619 12.054C59.7392 11.9793 59.9632 11.8813 60.2339 11.76L60.6259 12.782C60.0006 13.034 59.3612 13.258 58.7079 13.454C58.0639 13.65 57.3592 13.804 56.5939 13.916C55.8379 14.0187 54.9746 14.07 54.0039 14.07ZM69.4309 14.07C68.8709 14.07 68.4089 14.0233 68.0449 13.93C67.6903 13.8367 67.4103 13.692 67.2049 13.496C67.0089 13.3 66.8689 13.0527 66.7849 12.754C66.7103 12.446 66.6636 12.082 66.6449 11.662L66.3649 4.004H67.5129L67.7929 11.214C67.8116 11.6713 67.8536 12.026 67.9189 12.278C67.9936 12.5207 68.1523 12.6887 68.3949 12.782C68.6469 12.8753 69.0389 12.922 69.5709 12.922C69.7669 12.922 69.9069 12.978 69.9909 13.09C70.0843 13.1927 70.1309 13.3187 70.1309 13.468C70.1309 13.6173 70.0656 13.7573 69.9349 13.888C69.8043 14.0093 69.6363 14.07 69.4309 14.07ZM63.0329 14.07C62.7809 14.07 62.5243 14.0467 62.2629 14C62.0109 13.9627 61.8336 13.9347 61.7309 13.916L61.8849 12.81C62.5289 12.894 63.1356 12.908 63.7049 12.852C64.2743 12.796 64.7689 12.6373 65.1889 12.376C65.6183 12.1053 65.9543 11.6993 66.1969 11.158C66.4396 10.6167 66.5609 9.912 66.5609 9.044L67.2329 10.724C67.1209 11.312 66.9529 11.8067 66.7289 12.208C66.5049 12.6 66.2436 12.922 65.9449 13.174C65.6556 13.4167 65.3429 13.6033 65.0069 13.734C64.6709 13.8647 64.3349 13.9533 63.9989 14C63.6629 14.0467 63.3409 14.07 63.0329 14.07ZM66.0709 12.152C65.9216 11.8627 65.7116 11.5267 65.4409 11.144C65.1703 10.752 64.8436 10.3273 64.4609 9.87C64.0783 9.41267 63.6443 8.93667 63.1589 8.442C62.6829 7.94733 62.1649 7.448 61.6049 6.944L62.3609 6.146C62.9769 6.734 63.5229 7.28467 63.9989 7.798C64.4843 8.302 64.9089 8.778 65.2729 9.226C65.6369 9.66467 65.9496 10.066 66.2109 10.43C66.4723 10.794 66.6916 11.1253 66.8689 11.424L66.0709 12.152ZM69.4258 14.07L69.5658 12.922C69.8271 12.922 70.0464 12.866 70.2238 12.754C70.4011 12.642 70.5738 12.4553 70.7418 12.194C70.9098 11.9327 71.0918 11.5827 71.2878 11.144C71.5584 10.5467 71.8244 10.094 72.0858 9.786C72.3564 9.478 72.6224 9.268 72.8838 9.156C73.1544 9.044 73.4204 8.988 73.6818 8.988C73.9991 8.988 74.2931 9.072 74.5638 9.24C74.8344 9.39867 75.0724 9.61333 75.2778 9.884C75.4831 10.1547 75.6418 10.4533 75.7538 10.78C75.8751 11.0973 75.9358 11.4147 75.9358 11.732C75.9358 12.292 75.8378 12.74 75.6418 13.076C75.4458 13.4027 75.1938 13.6407 74.8858 13.79C74.5871 13.93 74.2744 14 73.9478 14C73.6584 14 73.2851 13.944 72.8278 13.832C72.3798 13.72 71.8104 13.4353 71.1198 12.978L71.6658 12.096C72.1231 12.3853 72.5338 12.586 72.8978 12.698C73.2711 12.8007 73.5791 12.852 73.8218 12.852C74.0924 12.852 74.3071 12.8147 74.4658 12.74C74.6244 12.656 74.7411 12.5393 74.8158 12.39C74.8904 12.2407 74.9278 12.0727 74.9278 11.886C74.9278 11.6153 74.8624 11.3447 74.7318 11.074C74.6011 10.8033 74.4331 10.5793 74.2278 10.402C74.0318 10.2247 73.8218 10.136 73.5978 10.136C73.4298 10.136 73.2664 10.1827 73.1078 10.276C72.9491 10.3693 72.7858 10.542 72.6178 10.794C72.4498 11.046 72.2584 11.41 72.0438 11.886C71.8198 12.39 71.6051 12.7913 71.3998 13.09C71.2038 13.3793 71.0031 13.594 70.7978 13.734C70.5924 13.874 70.3778 13.9627 70.1538 14C69.9391 14.0467 69.6964 14.07 69.4258 14.07Z" fill="black"/>
</g>
<defs>
<clipPath id="clip0_0_1180">
<rect width="200" height="50" fill="white"/>
</clipPath>
</defs>
</svg>
