<svg width="200" height="50" viewBox="0 0 200 50" fill="none" xmlns="http://www.w3.org/2000/svg">
<g clip-path="url(#clip0_0_1178)">
<rect width="200" height="50" fill="white"/>
<path d="M6.524 2.296L7.56 2.534C7.37333 3.27133 7.154 3.99933 6.902 4.718C6.65 5.42733 6.37 6.09467 6.062 6.72C5.754 7.336 5.418 7.87733 5.054 8.344C4.998 8.288 4.914 8.218 4.802 8.134C4.69933 8.04067 4.592 7.95667 4.48 7.882C4.37733 7.798 4.284 7.728 4.2 7.672C4.55467 7.24267 4.87667 6.74333 5.166 6.174C5.45533 5.59533 5.712 4.97933 5.936 4.326C6.16933 3.66333 6.36533 2.98667 6.524 2.296ZM6.286 8.232L7.308 8.442C7.168 9.058 6.99067 9.66 6.776 10.248C6.56133 10.8267 6.32333 11.3727 6.062 11.886C5.81 12.39 5.53933 12.838 5.25 13.23C5.18467 13.174 5.096 13.1087 4.984 13.034C4.872 12.9593 4.76 12.8893 4.648 12.824C4.536 12.7587 4.438 12.7027 4.354 12.656C4.78333 12.124 5.16133 11.466 5.488 10.682C5.824 9.88867 6.09 9.072 6.286 8.232ZM6.384 4.942H12.684V5.922H5.992L6.384 4.942ZM8.568 5.334H9.604V13.846C9.604 14.1353 9.56667 14.364 9.492 14.532C9.41733 14.7 9.28667 14.8307 9.1 14.924C8.904 15.008 8.652 15.064 8.344 15.092C8.04533 15.12 7.67667 15.134 7.238 15.134C7.21 14.9847 7.15867 14.8027 7.084 14.588C7.01867 14.3827 6.944 14.21 6.86 14.07C7.196 14.0793 7.49933 14.084 7.77 14.084C8.05 14.084 8.23667 14.0793 8.33 14.07C8.414 14.07 8.47467 14.056 8.512 14.028C8.54933 14 8.568 13.9393 8.568 13.846V5.334ZM10.612 8.442L11.564 8.134C11.8347 8.62867 12.0867 9.156 12.32 9.716C12.5533 10.276 12.7587 10.8313 12.936 11.382C13.1133 11.9233 13.2393 12.4087 13.314 12.838L12.306 13.188C12.2407 12.7587 12.1193 12.2687 11.942 11.718C11.774 11.1673 11.5733 10.6073 11.34 10.038C11.116 9.46867 10.8733 8.93667 10.612 8.442ZM12.376 4.942H12.53L12.712 4.9L13.426 5.054C13.3327 5.56733 13.23 6.104 13.118 6.664C13.006 7.21467 12.9033 7.68133 12.81 8.064L11.914 7.896C11.9607 7.65333 12.012 7.37333 12.068 7.056C12.124 6.73867 12.18 6.412 12.236 6.076C12.292 5.73067 12.3387 5.404 12.376 5.096V4.942ZM3.696 2.296L4.69 2.59C4.39133 3.38333 4.03667 4.16733 3.626 4.942C3.21533 5.70733 2.772 6.43067 2.296 7.112C1.82 7.79333 1.32533 8.39533 0.812 8.918C0.784 8.834 0.732667 8.72667 0.658 8.596C0.592667 8.46533 0.518 8.33467 0.434 8.204C0.359333 8.064 0.289333 7.95667 0.224 7.882C0.690667 7.42467 1.13867 6.89733 1.568 6.3C1.99733 5.70267 2.394 5.06333 2.758 4.382C3.122 3.69133 3.43467 2.996 3.696 2.296ZM2.24 5.894L3.234 4.9L3.248 4.914V15.092H2.24V5.894ZM20.258 2.954H26.418V3.934H20.258V2.954ZM19.782 7.882H27.482V8.876H19.782V7.882ZM23.086 6.02H24.136V13.79C24.136 14.1073 24.094 14.35 24.01 14.518C23.926 14.686 23.772 14.8167 23.548 14.91C23.324 14.9847 23.0253 15.0313 22.652 15.05C22.2787 15.078 21.812 15.092 21.252 15.092C21.224 14.952 21.168 14.7793 21.084 14.574C21.0093 14.378 20.9347 14.2053 20.86 14.056C21.308 14.0653 21.7093 14.07 22.064 14.07C22.4187 14.0793 22.6567 14.0793 22.778 14.07C22.8993 14.0607 22.9787 14.0373 23.016 14C23.0627 13.9627 23.086 13.8927 23.086 13.79V6.02ZM26.04 2.954H26.292L26.502 2.898L27.202 3.402C26.922 3.80333 26.6 4.214 26.236 4.634C25.872 5.04467 25.4893 5.43667 25.088 5.81C24.696 6.18333 24.3087 6.51467 23.926 6.804C23.8513 6.70133 23.7487 6.58933 23.618 6.468C23.4967 6.33733 23.394 6.23933 23.31 6.174C23.646 5.922 23.9867 5.62333 24.332 5.278C24.6773 4.92333 24.9993 4.564 25.298 4.2C25.606 3.836 25.8533 3.5 26.04 3.192V2.954ZM14.602 5.124H19.222V6.118H14.602V5.124ZM16.716 2.24L17.724 2.352C17.584 3.052 17.43 3.79867 17.262 4.592C17.094 5.38533 16.9167 6.18333 16.73 6.986C16.5433 7.78867 16.3613 8.55867 16.184 9.296C16.0067 10.0333 15.834 10.6913 15.666 11.27L14.798 10.794C14.9473 10.262 15.106 9.646 15.274 8.946C15.4513 8.23667 15.6287 7.49467 15.806 6.72C15.9833 5.936 16.1513 5.16133 16.31 4.396C16.4687 3.62133 16.604 2.90267 16.716 2.24ZM15.302 10.36L15.89 9.618C16.4127 9.90733 16.9493 10.2433 17.5 10.626C18.0507 10.9993 18.5593 11.382 19.026 11.774C19.502 12.166 19.88 12.5347 20.16 12.88L19.516 13.734C19.2453 13.3887 18.8767 13.0107 18.41 12.6C17.9527 12.1893 17.4533 11.788 16.912 11.396C16.3707 11.004 15.834 10.6587 15.302 10.36ZM18.872 5.124H19.04L19.222 5.096L19.852 5.222C19.7307 7.02333 19.4787 8.57267 19.096 9.87C18.7227 11.158 18.2233 12.2313 17.598 13.09C16.9727 13.9487 16.2307 14.6347 15.372 15.148C15.3067 15.0173 15.2087 14.868 15.078 14.7C14.9567 14.5413 14.84 14.4107 14.728 14.308C15.5027 13.888 16.1793 13.2813 16.758 12.488C17.3367 11.6853 17.8033 10.6913 18.158 9.506C18.5127 8.31133 18.7507 6.92533 18.872 5.348V5.124ZM28.658 5.74H41.384V6.762H28.658V5.74ZM31.304 13.076H40.908V14.084H31.304V13.076ZM34.916 9.702H38.598V10.682H34.916V9.702ZM30.772 2.618H31.836V15.12H30.772V2.618ZM34.454 2.31H35.504V11.368H34.454V2.31ZM38.15 2.478H39.2V11.298H38.15V2.478ZM45.234 5.908V7.434H52.752V5.908H45.234ZM45.234 3.584V5.082H52.752V3.584H45.234ZM44.198 2.688H53.83V8.316H44.198V2.688ZM50.54 7.728C50.876 8.18533 51.3007 8.61 51.814 9.002C52.3367 9.394 52.9107 9.73933 53.536 10.038C54.1707 10.3367 54.8147 10.57 55.468 10.738C55.3933 10.8033 55.3093 10.892 55.216 11.004C55.1227 11.116 55.034 11.228 54.95 11.34C54.8753 11.4427 54.81 11.5407 54.754 11.634C54.0913 11.4193 53.438 11.1393 52.794 10.794C52.15 10.4393 51.5573 10.0333 51.016 9.576C50.4747 9.10933 50.022 8.61 49.658 8.078L50.54 7.728ZM47.516 7.728L48.44 8.106C48.0667 8.62867 47.6047 9.11867 47.054 9.576C46.5033 10.0333 45.906 10.444 45.262 10.808C44.6273 11.172 43.9833 11.4707 43.33 11.704C43.2833 11.6013 43.218 11.4987 43.134 11.396C43.0593 11.2933 42.9753 11.1907 42.882 11.088C42.798 10.9853 42.714 10.8967 42.63 10.822C43.2647 10.6447 43.89 10.3973 44.506 10.08C45.1313 9.76267 45.7053 9.40333 46.228 9.002C46.7507 8.60067 47.18 8.176 47.516 7.728ZM46.354 10.206H47.432V11.06C47.432 11.396 47.3947 11.7507 47.32 12.124C47.2547 12.488 47.1193 12.8567 46.914 13.23C46.7087 13.594 46.4007 13.944 45.99 14.28C45.5887 14.616 45.0473 14.924 44.366 15.204C44.3193 15.1107 44.254 15.0127 44.17 14.91C44.086 14.8073 43.9973 14.7047 43.904 14.602C43.8107 14.5087 43.7267 14.4293 43.652 14.364C44.268 14.1307 44.7533 13.8787 45.108 13.608C45.472 13.328 45.7427 13.0433 45.92 12.754C46.1067 12.4553 46.2233 12.1613 46.27 11.872C46.326 11.5733 46.354 11.2933 46.354 11.032V10.206ZM48.454 3.164H49.504V7.91H48.454V3.164ZM50.806 10.206H51.884V15.092H50.806V10.206ZM63.2275 4.172C63.7315 4.23733 64.2962 4.284 64.9215 4.312C65.5562 4.34 66.2235 4.354 66.9235 4.354C67.3715 4.354 67.8195 4.34467 68.2675 4.326C68.7248 4.30733 69.1588 4.284 69.5695 4.256C69.9895 4.21867 70.3675 4.186 70.7035 4.158V5.306C70.3862 5.32467 70.0175 5.348 69.5975 5.376C69.1775 5.404 68.7342 5.42733 68.2675 5.446C67.8102 5.46467 67.3622 5.474 66.9235 5.474C66.2235 5.474 65.5702 5.46 64.9635 5.432C64.3568 5.39467 63.7782 5.35733 63.2275 5.32V4.172ZM63.7875 9.814C63.6942 10.094 63.6195 10.3647 63.5635 10.626C63.5168 10.8873 63.4935 11.1487 63.4935 11.41C63.4935 11.942 63.7688 12.376 64.3195 12.712C64.8702 13.048 65.7055 13.216 66.8255 13.216C67.4695 13.216 68.0902 13.1927 68.6875 13.146C69.2848 13.0993 69.8308 13.034 70.3255 12.95C70.8295 12.866 71.2588 12.768 71.6135 12.656L71.6275 13.86C71.2915 13.9533 70.8762 14.0373 70.3815 14.112C69.8962 14.1867 69.3548 14.2427 68.7575 14.28C68.1602 14.3267 67.5255 14.35 66.8535 14.35C65.9108 14.35 65.1035 14.2473 64.4315 14.042C63.7595 13.8367 63.2462 13.5333 62.8915 13.132C62.5368 12.7307 62.3595 12.236 62.3595 11.648C62.3595 11.284 62.3922 10.9387 62.4575 10.612C62.5228 10.2853 62.5882 9.982 62.6535 9.702L63.7875 9.814ZM81.5955 3.612C81.5395 3.68667 81.4695 3.78933 81.3855 3.92C81.3108 4.04133 81.2315 4.16733 81.1475 4.298C80.9888 4.53133 80.7975 4.844 80.5735 5.236C80.3588 5.61867 80.1255 6.034 79.8735 6.482C79.6215 6.92067 79.3742 7.35467 79.1315 7.784C78.8982 8.21333 78.6928 8.60067 78.5155 8.946C78.8515 8.638 79.1968 8.41867 79.5515 8.288C79.9155 8.148 80.2655 8.078 80.6015 8.078C81.0682 8.078 81.4508 8.22267 81.7495 8.512C82.0575 8.80133 82.2208 9.22133 82.2395 9.772C82.2488 10.052 82.2535 10.3507 82.2535 10.668C82.2628 10.976 82.2675 11.2793 82.2675 11.578C82.2675 11.8673 82.2768 12.1287 82.2955 12.362C82.3235 12.7167 82.4448 12.9733 82.6595 13.132C82.8742 13.2813 83.1308 13.356 83.4295 13.356C83.8122 13.356 84.1575 13.2533 84.4655 13.048C84.7828 12.8333 85.0582 12.5533 85.2915 12.208C85.5342 11.8627 85.7348 11.4893 85.8935 11.088C86.0522 10.6867 86.1782 10.304 86.2715 9.94L87.1955 10.696C86.9528 11.4427 86.6542 12.1053 86.2995 12.684C85.9448 13.2533 85.5155 13.7013 85.0115 14.028C84.5168 14.3547 83.9288 14.518 83.2475 14.518C82.7528 14.518 82.3562 14.4247 82.0575 14.238C81.7682 14.0607 81.5582 13.8367 81.4275 13.566C81.3062 13.2953 81.2362 13.02 81.2175 12.74C81.2082 12.4693 81.1988 12.1753 81.1895 11.858C81.1895 11.5407 81.1895 11.228 81.1895 10.92C81.1895 10.612 81.1802 10.332 81.1615 10.08C81.1428 9.772 81.0448 9.534 80.8675 9.366C80.6995 9.18867 80.4568 9.1 80.1395 9.1C79.7662 9.1 79.4022 9.212 79.0475 9.436C78.7022 9.65067 78.3848 9.93067 78.0955 10.276C77.8155 10.6213 77.5868 10.9807 77.4095 11.354C77.3068 11.5593 77.1902 11.8067 77.0595 12.096C76.9382 12.3853 76.8215 12.684 76.7095 12.992C76.5975 13.3 76.4948 13.5893 76.4015 13.86C76.3175 14.1307 76.2522 14.3547 76.2055 14.532L75.0015 14.112C75.1695 13.636 75.3888 13.0947 75.6595 12.488C75.9302 11.8813 76.2242 11.2467 76.5415 10.584C76.8588 9.912 77.1855 9.24933 77.5215 8.596C77.8575 7.93333 78.1748 7.31267 78.4735 6.734C78.7815 6.146 79.0568 5.63267 79.2995 5.194C79.5422 4.746 79.7242 4.41 79.8455 4.186C79.9295 4.018 80.0135 3.85 80.0975 3.682C80.1908 3.50467 80.2795 3.31333 80.3635 3.108L81.5955 3.612ZM94.3215 4.55C94.7042 4.606 95.1475 4.65267 95.6515 4.69C96.1648 4.718 96.6922 4.732 97.2335 4.732C97.7842 4.72267 98.3068 4.704 98.8015 4.676C99.3055 4.63867 99.7302 4.592 100.076 4.536V5.67C99.7022 5.70733 99.2635 5.74 98.7595 5.768C98.2648 5.78667 97.7468 5.796 97.2055 5.796C96.6735 5.796 96.1555 5.78667 95.6515 5.768C95.1475 5.74 94.7042 5.70733 94.3215 5.67V4.55ZM94.8675 10.248C94.8022 10.5 94.7508 10.7287 94.7135 10.934C94.6762 11.1393 94.6575 11.34 94.6575 11.536C94.6575 11.6947 94.6902 11.8533 94.7555 12.012C94.8302 12.1613 94.9515 12.2967 95.1195 12.418C95.2968 12.53 95.5395 12.6233 95.8475 12.698C96.1555 12.7633 96.5475 12.796 97.0235 12.796C97.6582 12.796 98.2555 12.768 98.8155 12.712C99.3755 12.6467 99.9355 12.5533 100.496 12.432L100.524 13.608C100.085 13.7013 99.5715 13.776 98.9835 13.832C98.4048 13.8787 97.7515 13.902 97.0235 13.902C95.8475 13.902 94.9842 13.7153 94.4335 13.342C93.8922 12.9687 93.6215 12.4553 93.6215 11.802C93.6215 11.5687 93.6402 11.3213 93.6775 11.06C93.7242 10.7893 93.7848 10.486 93.8595 10.15L94.8675 10.248ZM91.6475 3.472C91.6288 3.54667 91.6008 3.64467 91.5635 3.766C91.5355 3.878 91.5028 3.99467 91.4655 4.116C91.4375 4.228 91.4142 4.326 91.3955 4.41C91.3488 4.67133 91.2928 4.97467 91.2275 5.32C91.1622 5.656 91.0968 6.02 91.0315 6.412C90.9755 6.79467 90.9195 7.18667 90.8635 7.588C90.8168 7.98 90.7748 8.36267 90.7375 8.736C90.7095 9.10933 90.6955 9.45467 90.6955 9.772C90.6955 10.1173 90.7048 10.444 90.7235 10.752C90.7515 11.06 90.7842 11.3867 90.8215 11.732C90.9055 11.5173 90.9942 11.2887 91.0875 11.046C91.1808 10.8033 91.2742 10.5653 91.3675 10.332C91.4702 10.0893 91.5588 9.87467 91.6335 9.688L92.2215 10.136C92.1002 10.472 91.9695 10.8407 91.8295 11.242C91.6895 11.6433 91.5635 12.0307 91.4515 12.404C91.3488 12.768 91.2742 13.0573 91.2275 13.272C91.2088 13.3747 91.1902 13.4867 91.1715 13.608C91.1528 13.7293 91.1482 13.8273 91.1575 13.902C91.1668 13.9767 91.1715 14.056 91.1715 14.14C91.1808 14.2333 91.1902 14.3173 91.1995 14.392L90.1915 14.462C90.0515 13.9673 89.9302 13.3327 89.8275 12.558C89.7248 11.774 89.6735 10.9107 89.6735 9.968C89.6735 9.45467 89.6968 8.932 89.7435 8.4C89.7902 7.85867 89.8508 7.336 89.9255 6.832C90.0002 6.31867 90.0702 5.852 90.1355 5.432C90.2102 5.00267 90.2662 4.64333 90.3035 4.354C90.3315 4.186 90.3548 4.018 90.3735 3.85C90.3922 3.67267 90.4015 3.50933 90.4015 3.36L91.6475 3.472ZM107.86 3.038C107.804 3.22467 107.757 3.42067 107.72 3.626C107.682 3.83133 107.645 4.02733 107.608 4.214C107.561 4.438 107.505 4.718 107.44 5.054C107.384 5.38067 107.309 5.74 107.216 6.132C107.132 6.51467 107.043 6.902 106.95 7.294C106.856 7.686 106.758 8.05933 106.656 8.414C106.562 8.75933 106.464 9.06267 106.362 9.324C106.978 8.89467 107.603 8.59133 108.238 8.414C108.882 8.22733 109.572 8.134 110.31 8.134C111.056 8.134 111.691 8.25067 112.214 8.484C112.736 8.71733 113.138 9.044 113.418 9.464C113.698 9.87467 113.838 10.3553 113.838 10.906C113.838 11.634 113.66 12.25 113.306 12.754C112.951 13.258 112.452 13.6547 111.808 13.944C111.164 14.2333 110.398 14.4153 109.512 14.49C108.634 14.574 107.659 14.56 106.586 14.448L106.306 13.342C107.118 13.454 107.902 13.5007 108.658 13.482C109.423 13.454 110.104 13.3513 110.702 13.174C111.308 12.9873 111.789 12.712 112.144 12.348C112.508 11.984 112.69 11.5127 112.69 10.934C112.69 10.4113 112.475 9.97267 112.046 9.618C111.626 9.254 111.005 9.072 110.184 9.072C109.353 9.072 108.574 9.21667 107.846 9.506C107.118 9.786 106.52 10.206 106.053 10.766C105.97 10.8687 105.89 10.9713 105.816 11.074C105.75 11.1673 105.685 11.2793 105.62 11.41L104.57 11.032C104.84 10.5093 105.088 9.926 105.312 9.282C105.536 8.62867 105.732 7.97067 105.9 7.308C106.068 6.64533 106.208 6.03867 106.32 5.488C106.432 4.928 106.511 4.47533 106.558 4.13C106.586 3.906 106.604 3.70533 106.614 3.528C106.623 3.35067 106.623 3.164 106.614 2.968L107.86 3.038ZM103.506 4.816C103.879 4.88133 104.308 4.93733 104.794 4.984C105.288 5.03067 105.746 5.054 106.166 5.054C106.614 5.054 107.113 5.04 107.664 5.012C108.214 4.984 108.788 4.942 109.386 4.886C109.983 4.83 110.58 4.76 111.178 4.676C111.784 4.58267 112.363 4.47533 112.914 4.354L112.928 5.432C112.433 5.516 111.892 5.59533 111.304 5.67C110.725 5.74467 110.132 5.81 109.526 5.866C108.919 5.922 108.326 5.96867 107.748 6.006C107.178 6.034 106.656 6.048 106.18 6.048C105.704 6.048 105.242 6.034 104.794 6.006C104.355 5.978 103.93 5.94533 103.52 5.908L103.506 4.816ZM121.524 5.726C121.925 5.76333 122.317 5.79133 122.7 5.81C123.082 5.82867 123.484 5.838 123.904 5.838C124.744 5.838 125.579 5.80533 126.41 5.74C127.24 5.67467 128.01 5.572 128.72 5.432V6.51C127.973 6.63133 127.184 6.72 126.354 6.776C125.532 6.832 124.706 6.86467 123.876 6.874C123.474 6.874 123.082 6.86467 122.7 6.846C122.326 6.82733 121.934 6.804 121.524 6.776V5.726ZM126.424 3.22C126.405 3.36 126.386 3.5 126.368 3.64C126.358 3.78 126.349 3.92 126.34 4.06C126.33 4.228 126.321 4.44267 126.312 4.704C126.302 4.96533 126.298 5.24533 126.298 5.544C126.298 5.83333 126.298 6.118 126.298 6.398C126.298 6.93 126.307 7.462 126.326 7.994C126.344 8.526 126.368 9.044 126.396 9.548C126.424 10.052 126.447 10.528 126.466 10.976C126.494 11.4147 126.508 11.816 126.508 12.18C126.508 12.46 126.466 12.7353 126.382 13.006C126.307 13.2767 126.176 13.5193 125.99 13.734C125.812 13.9487 125.565 14.1167 125.248 14.238C124.94 14.3687 124.552 14.434 124.086 14.434C123.143 14.434 122.42 14.2567 121.916 13.902C121.421 13.5473 121.174 13.0573 121.174 12.432C121.174 12.04 121.286 11.6853 121.51 11.368C121.743 11.0413 122.07 10.7847 122.49 10.598C122.919 10.4113 123.442 10.318 124.058 10.318C124.655 10.318 125.201 10.388 125.696 10.528C126.2 10.6587 126.662 10.836 127.082 11.06C127.511 11.2747 127.903 11.5173 128.258 11.788C128.612 12.0493 128.939 12.3107 129.238 12.572L128.622 13.51C128.136 13.0433 127.646 12.6373 127.152 12.292C126.666 11.9467 126.162 11.676 125.64 11.48C125.117 11.284 124.562 11.186 123.974 11.186C123.442 11.186 123.008 11.2933 122.672 11.508C122.345 11.7133 122.182 11.984 122.182 12.32C122.182 12.6747 122.34 12.95 122.658 13.146C122.975 13.3327 123.386 13.426 123.89 13.426C124.291 13.426 124.599 13.3607 124.814 13.23C125.038 13.0993 125.192 12.922 125.276 12.698C125.369 12.474 125.416 12.208 125.416 11.9C125.416 11.648 125.406 11.3073 125.388 10.878C125.369 10.4487 125.346 9.982 125.318 9.478C125.29 8.96467 125.266 8.442 125.248 7.91C125.229 7.378 125.22 6.87867 125.22 6.412C125.22 5.936 125.22 5.488 125.22 5.068C125.22 4.648 125.22 4.31667 125.22 4.074C125.22 3.95267 125.215 3.81267 125.206 3.654C125.196 3.486 125.182 3.34133 125.164 3.22H126.424ZM119.508 3.304C119.48 3.37867 119.447 3.47667 119.41 3.598C119.382 3.71 119.354 3.82667 119.326 3.948C119.307 4.06933 119.288 4.172 119.27 4.256C119.214 4.51733 119.153 4.83 119.088 5.194C119.032 5.54867 118.971 5.936 118.906 6.356C118.84 6.76667 118.78 7.18667 118.724 7.616C118.677 8.036 118.64 8.442 118.612 8.834C118.584 9.226 118.57 9.58067 118.57 9.898C118.57 10.234 118.579 10.556 118.598 10.864C118.626 11.172 118.663 11.4987 118.71 11.844C118.784 11.6293 118.868 11.4007 118.962 11.158C119.055 10.9153 119.148 10.6727 119.242 10.43C119.344 10.1873 119.433 9.97267 119.508 9.786L120.082 10.234C119.97 10.5513 119.844 10.9107 119.704 11.312C119.573 11.704 119.447 12.082 119.326 12.446C119.214 12.8007 119.134 13.0947 119.088 13.328C119.069 13.4213 119.05 13.5287 119.032 13.65C119.022 13.7713 119.022 13.874 119.032 13.958C119.032 14.0233 119.032 14.1027 119.032 14.196C119.041 14.2893 119.05 14.3733 119.06 14.448L118.08 14.518C117.94 14.014 117.814 13.3887 117.702 12.642C117.599 11.886 117.548 11.0367 117.548 10.094C117.548 9.57133 117.571 9.03 117.618 8.47C117.674 7.90067 117.734 7.34533 117.8 6.804C117.874 6.26267 117.944 5.768 118.01 5.32C118.084 4.86267 118.145 4.48933 118.192 4.2C118.21 4.04133 118.229 3.87333 118.248 3.696C118.266 3.51867 118.276 3.35533 118.276 3.206L119.508 3.304Z" fill="black"/>
</g>
<defs>
<clipPath id="clip0_0_1178">
<rect width="200" height="50" fill="white"/>
</clipPath>
</defs>
</svg>
