<svg width="150" height="80" viewBox="0 0 150 80" fill="none" xmlns="http://www.w3.org/2000/svg">
<g clip-path="url(#clip0_0_1137)">
<rect width="150" height="80" fill="white"/>
<path d="M0.676136 4.91193V3.81818H8.3125V4.91193H5.1108V14H3.87784V4.91193H0.676136ZM11.2296 9.40625V14H10.0563V3.81818H11.2296V7.55682H11.329C11.508 7.16241 11.7765 6.84919 12.1344 6.61719C12.4957 6.38187 12.9763 6.2642 13.5762 6.2642C14.0965 6.2642 14.5523 6.36861 14.9434 6.57741C15.3345 6.78291 15.6377 7.09943 15.8532 7.52699C16.0719 7.95123 16.1813 8.49148 16.1813 9.14773V14H15.008V9.22727C15.008 8.62074 14.8506 8.15175 14.5357 7.82031C14.2241 7.48556 13.7916 7.31818 13.2381 7.31818C12.8536 7.31818 12.5089 7.39938 12.204 7.56179C11.9024 7.72419 11.6638 7.96117 11.4881 8.27273C11.3158 8.58428 11.2296 8.96212 11.2296 9.40625ZM18.3278 14V6.36364H19.5011V14H18.3278ZM18.9244 5.09091C18.6957 5.09091 18.4985 5.01302 18.3327 4.85724C18.1703 4.70147 18.0891 4.5142 18.0891 4.29545C18.0891 4.0767 18.1703 3.88944 18.3327 3.73366C18.4985 3.57789 18.6957 3.5 18.9244 3.5C19.1531 3.5 19.3486 3.57789 19.511 3.73366C19.6767 3.88944 19.7596 4.0767 19.7596 4.29545C19.7596 4.5142 19.6767 4.70147 19.511 4.85724C19.3486 5.01302 19.1531 5.09091 18.9244 5.09091ZM27.0591 8.07386L26.0051 8.37216C25.9389 8.1965 25.8411 8.0258 25.7118 7.86009C25.5859 7.69105 25.4135 7.55185 25.1948 7.44247C24.976 7.3331 24.696 7.27841 24.3546 7.27841C23.8873 7.27841 23.4978 7.38613 23.1863 7.60156C22.878 7.81368 22.7239 8.08381 22.7239 8.41193C22.7239 8.7036 22.83 8.93395 23.0421 9.10298C23.2542 9.27202 23.5856 9.41288 24.0364 9.52557L25.1699 9.80398C25.8527 9.9697 26.3614 10.2232 26.6962 10.5646C27.031 10.9027 27.1983 11.3385 27.1983 11.8722C27.1983 12.3097 27.0724 12.7008 26.8205 13.0455C26.5719 13.3902 26.2239 13.6619 25.7765 13.8608C25.329 14.0597 24.8087 14.1591 24.2154 14.1591C23.4365 14.1591 22.7918 13.9901 22.2814 13.652C21.771 13.3139 21.4479 12.8201 21.312 12.1705L22.4256 11.892C22.5317 12.303 22.7322 12.6113 23.0272 12.8168C23.3255 13.0223 23.7149 13.125 24.1955 13.125C24.7424 13.125 25.1766 13.009 25.498 12.777C25.8229 12.5417 25.9853 12.2599 25.9853 11.9318C25.9853 11.6667 25.8925 11.4446 25.7069 11.2656C25.5212 11.0833 25.2362 10.9474 24.8517 10.858L23.579 10.5597C22.8797 10.3939 22.3659 10.1371 22.0378 9.78906C21.713 9.43774 21.5506 8.99858 21.5506 8.47159C21.5506 8.04072 21.6716 7.65956 21.9135 7.32812C22.1588 6.99669 22.4919 6.73651 22.9128 6.54758C23.3371 6.35866 23.8176 6.2642 24.3546 6.2642C25.1103 6.2642 25.7035 6.42992 26.1344 6.76136C26.5686 7.0928 26.8768 7.5303 27.0591 8.07386ZM32.902 14V6.36364H34.0753V14H32.902ZM33.4986 5.09091C33.2699 5.09091 33.0727 5.01302 32.907 4.85724C32.7446 4.70147 32.6634 4.5142 32.6634 4.29545C32.6634 4.0767 32.7446 3.88944 32.907 3.73366C33.0727 3.57789 33.2699 3.5 33.4986 3.5C33.7273 3.5 33.9228 3.57789 34.0852 3.73366C34.2509 3.88944 34.3338 4.0767 34.3338 4.29545C34.3338 4.5142 34.2509 4.70147 34.0852 4.85724C33.9228 5.01302 33.7273 5.09091 33.4986 5.09091ZM41.6333 8.07386L40.5794 8.37216C40.5131 8.1965 40.4153 8.0258 40.286 7.86009C40.1601 7.69105 39.9877 7.55185 39.769 7.44247C39.5502 7.3331 39.2702 7.27841 38.9288 7.27841C38.4615 7.27841 38.072 7.38613 37.7605 7.60156C37.4522 7.81368 37.2981 8.08381 37.2981 8.41193C37.2981 8.7036 37.4042 8.93395 37.6163 9.10298C37.8284 9.27202 38.1599 9.41288 38.6106 9.52557L39.7441 9.80398C40.4269 9.9697 40.9357 10.2232 41.2704 10.5646C41.6052 10.9027 41.7725 11.3385 41.7725 11.8722C41.7725 12.3097 41.6466 12.7008 41.3947 13.0455C41.1461 13.3902 40.7981 13.6619 40.3507 13.8608C39.9032 14.0597 39.3829 14.1591 38.7896 14.1591C38.0107 14.1591 37.3661 13.9901 36.8556 13.652C36.3452 13.3139 36.0221 12.8201 35.8862 12.1705L36.9998 11.892C37.1059 12.303 37.3064 12.6113 37.6014 12.8168C37.8997 13.0223 38.2891 13.125 38.7697 13.125C39.3166 13.125 39.7508 13.009 40.0723 12.777C40.3971 12.5417 40.5595 12.2599 40.5595 11.9318C40.5595 11.6667 40.4667 11.4446 40.2811 11.2656C40.0955 11.0833 39.8104 10.9474 39.426 10.858L38.1532 10.5597C37.4539 10.3939 36.9402 10.1371 36.612 9.78906C36.2872 9.43774 36.1248 8.99858 36.1248 8.47159C36.1248 8.04072 36.2458 7.65956 36.4877 7.32812C36.733 6.99669 37.0661 6.73651 37.487 6.54758C37.9113 6.35866 38.3919 6.2642 38.9288 6.2642C39.6845 6.2642 40.2778 6.42992 40.7086 6.76136C41.1428 7.0928 41.4511 7.5303 41.6333 8.07386ZM49.7234 14.179C49.2395 14.179 48.8003 14.0878 48.4059 13.9055C48.0115 13.7199 47.6983 13.4531 47.4663 13.1051C47.2343 12.7538 47.1183 12.3295 47.1183 11.8324C47.1183 11.3949 47.2044 11.0402 47.3768 10.7685C47.5491 10.4934 47.7795 10.2779 48.0678 10.1222C48.3562 9.96638 48.6744 9.85038 49.0224 9.77415C49.3737 9.6946 49.7267 9.63163 50.0813 9.58523C50.5453 9.52557 50.9215 9.48082 51.2099 9.45099C51.5015 9.41785 51.7137 9.36316 51.8462 9.28693C51.9821 9.2107 52.0501 9.07812 52.0501 8.8892V8.84943C52.0501 8.3589 51.9158 7.97775 51.6474 7.70597C51.3822 7.43419 50.9795 7.2983 50.4393 7.2983C49.8791 7.2983 49.44 7.42093 49.1218 7.66619C48.8036 7.91146 48.5799 8.1733 48.4506 8.4517L47.337 8.05398C47.5359 7.58996 47.801 7.22869 48.1325 6.97017C48.4672 6.70833 48.8318 6.52604 49.2262 6.4233C49.6239 6.31723 50.015 6.2642 50.3995 6.2642C50.6448 6.2642 50.9265 6.29403 51.2447 6.35369C51.5662 6.41004 51.8761 6.5277 52.1744 6.70668C52.476 6.88565 52.7262 7.15578 52.9251 7.51705C53.1239 7.87831 53.2234 8.36222 53.2234 8.96875V14H52.0501V12.9659H51.9904C51.9109 13.1316 51.7783 13.3089 51.5927 13.4979C51.4071 13.6868 51.1602 13.8475 50.8519 13.9801C50.5437 14.1127 50.1675 14.179 49.7234 14.179ZM49.9023 13.125C50.3664 13.125 50.7575 13.0339 51.0756 12.8516C51.3971 12.6693 51.6391 12.4339 51.8015 12.1456C51.9672 11.8572 52.0501 11.554 52.0501 11.2358V10.1619C52.0004 10.2216 51.891 10.2763 51.7219 10.326C51.5562 10.3724 51.364 10.4138 51.1452 10.4503C50.9298 10.4834 50.7193 10.5133 50.5138 10.5398C50.3117 10.563 50.1476 10.5829 50.0217 10.5994C49.7167 10.6392 49.4317 10.7038 49.1665 10.7933C48.9047 10.8795 48.6926 11.0104 48.5302 11.1861C48.3711 11.3584 48.2915 11.5937 48.2915 11.892C48.2915 12.2997 48.4424 12.608 48.744 12.8168C49.0489 13.0223 49.435 13.125 49.9023 13.125ZM60.4757 3.81818V14H59.3024V3.81818H60.4757ZM65.7269 14.1591C65.0375 14.1591 64.4326 13.995 63.9123 13.6669C63.3952 13.3388 62.9909 12.8797 62.6992 12.2898C62.4109 11.6998 62.2667 11.0104 62.2667 10.2216C62.2667 9.42614 62.4109 8.73177 62.6992 8.13849C62.9909 7.54522 63.3952 7.08452 63.9123 6.75639C64.4326 6.42827 65.0375 6.2642 65.7269 6.2642C66.4163 6.2642 67.0195 6.42827 67.5366 6.75639C68.0569 7.08452 68.4613 7.54522 68.7496 8.13849C69.0413 8.73177 69.1871 9.42614 69.1871 10.2216C69.1871 11.0104 69.0413 11.6998 68.7496 12.2898C68.4613 12.8797 68.0569 13.3388 67.5366 13.6669C67.0195 13.995 66.4163 14.1591 65.7269 14.1591ZM65.7269 13.1051C66.2506 13.1051 66.6815 12.9709 67.0195 12.7024C67.3576 12.4339 67.6078 12.081 67.7702 11.6435C67.9326 11.206 68.0138 10.732 68.0138 10.2216C68.0138 9.71117 67.9326 9.23556 67.7702 8.79474C67.6078 8.35393 67.3576 7.99763 67.0195 7.72585C66.6815 7.45407 66.2506 7.31818 65.7269 7.31818C65.2032 7.31818 64.7724 7.45407 64.4343 7.72585C64.0962 7.99763 63.846 8.35393 63.6836 8.79474C63.5212 9.23556 63.44 9.71117 63.44 10.2216C63.44 10.732 63.5212 11.206 63.6836 11.6435C63.846 12.081 64.0962 12.4339 64.4343 12.7024C64.7724 12.9709 65.2032 13.1051 65.7269 13.1051ZM72.1515 9.40625V14H70.9782V6.36364H72.1117V7.55682H72.2111C72.3901 7.16903 72.6619 6.85748 73.0265 6.62216C73.391 6.38352 73.8617 6.2642 74.4384 6.2642C74.9554 6.2642 75.4078 6.37027 75.7956 6.58239C76.1834 6.79119 76.485 7.10938 76.7005 7.53693C76.9159 7.96117 77.0236 8.49811 77.0236 9.14773V14H75.8503V9.22727C75.8503 8.62737 75.6945 8.16004 75.383 7.82528C75.0714 7.48722 74.6439 7.31818 74.1003 7.31818C73.7258 7.31818 73.391 7.39938 73.0961 7.56179C72.8044 7.72419 72.574 7.96117 72.405 8.27273C72.236 8.58428 72.1515 8.96212 72.1515 9.40625ZM82.25 17.0227C81.6832 17.0227 81.196 16.9498 80.7884 16.804C80.3807 16.6615 80.041 16.4725 79.7692 16.2372C79.5007 16.0052 79.2869 15.7566 79.1278 15.4915L80.0625 14.8352C80.1686 14.9744 80.3028 15.1335 80.4652 15.3125C80.6276 15.4948 80.8497 15.6522 81.1314 15.7848C81.4164 15.9207 81.7893 15.9886 82.25 15.9886C82.8665 15.9886 83.3752 15.8395 83.7763 15.5412C84.1773 15.2429 84.3778 14.7756 84.3778 14.1392V12.5881H84.2784C84.1922 12.7273 84.0696 12.8996 83.9105 13.1051C83.7547 13.3073 83.5294 13.4879 83.2344 13.647C82.9427 13.8028 82.5483 13.8807 82.0511 13.8807C81.4347 13.8807 80.8812 13.7348 80.3906 13.4432C79.9034 13.1515 79.5173 12.7273 79.2322 12.1705C78.9505 11.6136 78.8097 10.9375 78.8097 10.142C78.8097 9.35985 78.9472 8.67874 79.2223 8.09872C79.4974 7.51539 79.8802 7.06463 80.3707 6.74645C80.8613 6.42495 81.428 6.2642 82.071 6.2642C82.5682 6.2642 82.9626 6.34706 83.2543 6.51278C83.5492 6.67519 83.7746 6.8608 83.9304 7.0696C84.0895 7.27509 84.2121 7.44413 84.2983 7.5767H84.4176V6.36364H85.5511V14.2188C85.5511 14.875 85.402 15.4086 85.1037 15.8196C84.8087 16.2339 84.411 16.5372 83.9105 16.7294C83.4134 16.925 82.8598 17.0227 82.25 17.0227ZM82.2102 12.8267C82.6809 12.8267 83.0786 12.719 83.4034 12.5036C83.7282 12.2881 83.9751 11.9782 84.1442 11.5739C84.3132 11.1695 84.3977 10.6856 84.3977 10.1222C84.3977 9.57197 84.3149 9.08641 84.1491 8.66548C83.9834 8.24455 83.7382 7.91477 83.4134 7.67614C83.0885 7.4375 82.6875 7.31818 82.2102 7.31818C81.7131 7.31818 81.2988 7.44413 80.9673 7.69602C80.6392 7.94792 80.3923 8.28598 80.2266 8.71023C80.0642 9.13447 79.983 9.60511 79.983 10.1222C79.983 10.6525 80.0658 11.1214 80.2315 11.5291C80.4006 11.9335 80.6491 12.2517 80.9773 12.4837C81.3087 12.7124 81.7197 12.8267 82.2102 12.8267ZM90.9006 14.1591C90.1648 14.1591 89.5301 13.9967 88.9964 13.6719C88.4661 13.3438 88.0568 12.8864 87.7685 12.2997C87.4834 11.7098 87.3409 11.0237 87.3409 10.2415C87.3409 9.45928 87.4834 8.76989 87.7685 8.1733C88.0568 7.57339 88.4579 7.10606 88.9716 6.77131C89.4886 6.43324 90.0919 6.2642 90.7812 6.2642C91.179 6.2642 91.5717 6.33049 91.9595 6.46307C92.3473 6.59564 92.7003 6.81108 93.0185 7.10938C93.3366 7.40436 93.5902 7.79545 93.7791 8.28267C93.968 8.76989 94.0625 9.36979 94.0625 10.0824V10.5795H88.1761V9.56534H92.8693C92.8693 9.13447 92.7831 8.75 92.6108 8.41193C92.4418 8.07386 92.1998 7.80705 91.8849 7.61151C91.5734 7.41596 91.2055 7.31818 90.7812 7.31818C90.3139 7.31818 89.9096 7.43419 89.5682 7.66619C89.2301 7.89489 88.9699 8.19318 88.7876 8.56108C88.6054 8.92898 88.5142 9.32339 88.5142 9.74432V10.4205C88.5142 10.9972 88.6136 11.486 88.8125 11.8871C89.0147 12.2848 89.2947 12.5881 89.6527 12.7969C90.0107 13.0024 90.4266 13.1051 90.9006 13.1051C91.2088 13.1051 91.4872 13.062 91.7358 12.9759C91.9877 12.8864 92.2048 12.7538 92.3871 12.5781C92.5694 12.3991 92.7102 12.1771 92.8097 11.9119L93.9432 12.2301C93.8239 12.6146 93.6233 12.9527 93.3416 13.2443C93.0599 13.5327 92.7119 13.758 92.2976 13.9205C91.8833 14.0795 91.4176 14.1591 90.9006 14.1591ZM95.8473 14V6.36364H96.9808V7.51705H97.0604C97.1996 7.1392 97.4515 6.83262 97.8161 6.5973C98.1806 6.36198 98.5916 6.24432 99.049 6.24432C99.1352 6.24432 99.2429 6.24597 99.3722 6.24929C99.5014 6.2526 99.5992 6.25758 99.6655 6.2642V7.45739C99.6257 7.44744 99.5346 7.43253 99.392 7.41264C99.2528 7.38944 99.1054 7.37784 98.9496 7.37784C98.5784 7.37784 98.2469 7.45573 97.9553 7.61151C97.6669 7.76397 97.4382 7.97609 97.2692 8.24787C97.1035 8.51634 97.0206 8.82292 97.0206 9.16761V14H95.8473ZM108.315 6.36364V7.35795H104.357V6.36364H108.315ZM105.511 4.53409H106.684V11.8125C106.684 12.1439 106.732 12.3925 106.828 12.5582C106.928 12.7206 107.054 12.83 107.206 12.8864C107.362 12.9394 107.526 12.9659 107.698 12.9659C107.828 12.9659 107.934 12.9593 108.017 12.946C108.099 12.9295 108.166 12.9162 108.215 12.9062L108.454 13.9602C108.374 13.9901 108.263 14.0199 108.121 14.0497C107.978 14.0829 107.798 14.0994 107.579 14.0994C107.248 14.0994 106.923 14.0282 106.605 13.8857C106.29 13.7431 106.028 13.526 105.819 13.2344C105.614 12.9427 105.511 12.5748 105.511 12.1307V4.53409ZM113.199 14.1591C112.464 14.1591 111.829 13.9967 111.295 13.6719C110.765 13.3438 110.356 12.8864 110.067 12.2997C109.782 11.7098 109.64 11.0237 109.64 10.2415C109.64 9.45928 109.782 8.76989 110.067 8.1733C110.356 7.57339 110.757 7.10606 111.27 6.77131C111.787 6.43324 112.391 6.2642 113.08 6.2642C113.478 6.2642 113.871 6.33049 114.258 6.46307C114.646 6.59564 114.999 6.81108 115.317 7.10938C115.635 7.40436 115.889 7.79545 116.078 8.28267C116.267 8.76989 116.361 9.36979 116.361 10.0824V10.5795H110.475V9.56534H115.168C115.168 9.13447 115.082 8.75 114.91 8.41193C114.741 8.07386 114.499 7.80705 114.184 7.61151C113.872 7.41596 113.504 7.31818 113.08 7.31818C112.613 7.31818 112.208 7.43419 111.867 7.66619C111.529 7.89489 111.269 8.19318 111.086 8.56108C110.904 8.92898 110.813 9.32339 110.813 9.74432V10.4205C110.813 10.9972 110.912 11.486 111.111 11.8871C111.314 12.2848 111.594 12.5881 111.952 12.7969C112.309 13.0024 112.725 13.1051 113.199 13.1051C113.508 13.1051 113.786 13.062 114.035 12.9759C114.287 12.8864 114.504 12.7538 114.686 12.5781C114.868 12.3991 115.009 12.1771 115.108 11.9119L116.242 12.2301C116.123 12.6146 115.922 12.9527 115.64 13.2443C115.359 13.5327 115.011 13.758 114.596 13.9205C114.182 14.0795 113.716 14.1591 113.199 14.1591ZM118.816 6.36364L120.646 9.4858L122.475 6.36364H123.827L121.362 10.1818L123.827 14H122.475L120.646 11.0369L118.816 14H117.464L119.89 10.1818L117.464 6.36364H118.816ZM128.823 6.36364V7.35795H124.865V6.36364H128.823ZM126.019 4.53409H127.192V11.8125C127.192 12.1439 127.24 12.3925 127.336 12.5582C127.436 12.7206 127.561 12.83 127.714 12.8864C127.87 12.9394 128.034 12.9659 128.206 12.9659C128.335 12.9659 128.441 12.9593 128.524 12.946C128.607 12.9295 128.673 12.9162 128.723 12.9062L128.962 13.9602C128.882 13.9901 128.771 14.0199 128.629 14.0497C128.486 14.0829 128.306 14.0994 128.087 14.0994C127.755 14.0994 127.431 14.0282 127.112 13.8857C126.798 13.7431 126.536 13.526 126.327 13.2344C126.121 12.9427 126.019 12.5748 126.019 12.1307V4.53409ZM137.846 6.36364V7.35795H133.889V6.36364H137.846ZM135.042 4.53409H136.215V11.8125C136.215 12.1439 136.263 12.3925 136.36 12.5582C136.459 12.7206 136.585 12.83 136.737 12.8864C136.893 12.9394 137.057 12.9659 137.23 12.9659C137.359 12.9659 137.465 12.9593 137.548 12.946C137.631 12.9295 137.697 12.9162 137.747 12.9062L137.985 13.9602C137.906 13.9901 137.795 14.0199 137.652 14.0497C137.51 14.0829 137.329 14.0994 137.11 14.0994C136.779 14.0994 136.454 14.0282 136.136 13.8857C135.821 13.7431 135.559 13.526 135.35 13.2344C135.145 12.9427 135.042 12.5748 135.042 12.1307V4.53409ZM140.948 9.40625V14H139.775V3.81818H140.948V7.55682H141.048C141.227 7.16241 141.495 6.84919 141.853 6.61719C142.214 6.38187 142.695 6.2642 143.295 6.2642C143.815 6.2642 144.271 6.36861 144.662 6.57741C145.053 6.78291 145.356 7.09943 145.572 7.52699C145.791 7.95123 145.9 8.49148 145.9 9.14773V14H144.727V9.22727C144.727 8.62074 144.569 8.15175 144.254 7.82031C143.943 7.48556 143.51 7.31818 142.957 7.31818C142.572 7.31818 142.228 7.39938 141.923 7.56179C141.621 7.72419 141.383 7.96117 141.207 8.27273C141.035 8.58428 140.948 8.96212 140.948 9.40625ZM150.294 14.179C149.81 14.179 149.371 14.0878 148.976 13.9055C148.582 13.7199 148.269 13.4531 148.037 13.1051C147.805 12.7538 147.689 12.3295 147.689 11.8324C147.689 11.3949 147.775 11.0402 147.947 10.7685C148.119 10.4934 148.35 10.2779 148.638 10.1222C148.926 9.96638 149.245 9.85038 149.593 9.77415C149.944 9.6946 150.297 9.63163 150.652 9.58523C151.116 9.52557 151.492 9.48082 151.78 9.45099C152.072 9.41785 152.284 9.36316 152.417 9.28693C152.552 9.2107 152.62 9.07812 152.62 8.8892V8.84943C152.62 8.3589 152.486 7.97775 152.218 7.70597C151.953 7.43419 151.55 7.2983 151.01 7.2983C150.449 7.2983 150.01 7.42093 149.692 7.66619C149.374 7.91146 149.15 8.1733 149.021 8.4517L147.907 8.05398C148.106 7.58996 148.371 7.22869 148.703 6.97017C149.038 6.70833 149.402 6.52604 149.797 6.4233C150.194 6.31723 150.585 6.2642 150.97 6.2642C151.215 6.2642 151.497 6.29403 151.815 6.35369C152.136 6.41004 152.446 6.5277 152.745 6.70668C153.046 6.88565 153.297 7.15578 153.495 7.51705C153.694 7.87831 153.794 8.36222 153.794 8.96875V14H152.62V12.9659H152.561C152.481 13.1316 152.349 13.3089 152.163 13.4979C151.977 13.6868 151.73 13.8475 151.422 13.9801C151.114 14.1127 150.738 14.179 150.294 14.179ZM150.473 13.125C150.937 13.125 151.328 13.0339 151.646 12.8516C151.967 12.6693 152.209 12.4339 152.372 12.1456C152.538 11.8572 152.62 11.554 152.62 11.2358V10.1619C152.571 10.2216 152.461 10.2763 152.292 10.326C152.127 10.3724 151.934 10.4138 151.716 10.4503C151.5 10.4834 151.29 10.5133 151.084 10.5398C150.882 10.563 150.718 10.5829 150.592 10.5994C150.287 10.6392 150.002 10.7038 149.737 10.7933C149.475 10.8795 149.263 11.0104 149.1 11.1861C148.941 11.3584 148.862 11.5937 148.862 11.892C148.862 12.2997 149.013 12.608 149.314 12.8168C149.619 13.0223 150.005 13.125 150.473 13.125ZM159.256 6.36364V7.35795H155.299V6.36364H159.256ZM156.452 4.53409H157.626V11.8125C157.626 12.1439 157.674 12.3925 157.77 12.5582C157.869 12.7206 157.995 12.83 158.148 12.8864C158.303 12.9394 158.467 12.9659 158.64 12.9659C158.769 12.9659 158.875 12.9593 158.958 12.946C159.041 12.9295 159.107 12.9162 159.157 12.9062L159.395 13.9602C159.316 13.9901 159.205 14.0199 159.062 14.0497C158.92 14.0829 158.739 14.0994 158.52 14.0994C158.189 14.0994 157.864 14.0282 157.546 13.8857C157.231 13.7431 156.969 13.526 156.76 13.2344C156.555 12.9427 156.452 12.5748 156.452 12.1307V4.53409ZM164.959 14V6.36364H166.092V7.55682H166.192C166.351 7.14915 166.608 6.83262 166.962 6.60724C167.317 6.37855 167.743 6.2642 168.24 6.2642C168.744 6.2642 169.163 6.37855 169.498 6.60724C169.836 6.83262 170.099 7.14915 170.288 7.55682H170.368C170.563 7.16241 170.857 6.84919 171.248 6.61719C171.639 6.38187 172.108 6.2642 172.655 6.2642C173.337 6.2642 173.896 6.47798 174.33 6.90554C174.764 7.32978 174.981 7.991 174.981 8.8892V14H173.808V8.8892C173.808 8.32576 173.654 7.92306 173.346 7.68111C173.037 7.43916 172.675 7.31818 172.257 7.31818C171.72 7.31818 171.304 7.48059 171.009 7.8054C170.714 8.12689 170.567 8.53456 170.567 9.02841V14H169.373V8.76989C169.373 8.3357 169.233 7.98603 168.951 7.72088C168.669 7.45241 168.306 7.31818 167.862 7.31818C167.557 7.31818 167.272 7.39938 167.007 7.56179C166.745 7.72419 166.533 7.94957 166.371 8.23793C166.211 8.52296 166.132 8.85275 166.132 9.22727V14H164.959ZM177.127 14V6.36364H178.3V14H177.127ZM177.723 5.09091C177.494 5.09091 177.297 5.01302 177.132 4.85724C176.969 4.70147 176.888 4.5142 176.888 4.29545C176.888 4.0767 176.969 3.88944 177.132 3.73366C177.297 3.57789 177.494 3.5 177.723 3.5C177.952 3.5 178.147 3.57789 178.31 3.73366C178.476 3.88944 178.558 4.0767 178.558 4.29545C178.558 4.5142 178.476 4.70147 178.31 4.85724C178.147 5.01302 177.952 5.09091 177.723 5.09091ZM183.531 17.0227C182.964 17.0227 182.477 16.9498 182.07 16.804C181.662 16.6615 181.322 16.4725 181.05 16.2372C180.782 16.0052 180.568 15.7566 180.409 15.4915L181.344 14.8352C181.45 14.9744 181.584 15.1335 181.746 15.3125C181.909 15.4948 182.131 15.6522 182.413 15.7848C182.698 15.9207 183.071 15.9886 183.531 15.9886C184.148 15.9886 184.656 15.8395 185.058 15.5412C185.459 15.2429 185.659 14.7756 185.659 14.1392V12.5881H185.56C185.473 12.7273 185.351 12.8996 185.192 13.1051C185.036 13.3073 184.811 13.4879 184.516 13.647C184.224 13.8028 183.83 13.8807 183.332 13.8807C182.716 13.8807 182.162 13.7348 181.672 13.4432C181.185 13.1515 180.799 12.7273 180.513 12.1705C180.232 11.6136 180.091 10.9375 180.091 10.142C180.091 9.35985 180.228 8.67874 180.504 8.09872C180.779 7.51539 181.161 7.06463 181.652 6.74645C182.143 6.42495 182.709 6.2642 183.352 6.2642C183.849 6.2642 184.244 6.34706 184.536 6.51278C184.83 6.67519 185.056 6.8608 185.212 7.0696C185.371 7.27509 185.493 7.44413 185.58 7.5767H185.699V6.36364H186.832V14.2188C186.832 14.875 186.683 15.4086 186.385 15.8196C186.09 16.2339 185.692 16.5372 185.192 16.7294C184.695 16.925 184.141 17.0227 183.531 17.0227ZM183.491 12.8267C183.962 12.8267 184.36 12.719 184.685 12.5036C185.009 12.2881 185.256 11.9782 185.425 11.5739C185.594 11.1695 185.679 10.6856 185.679 10.1222C185.679 9.57197 185.596 9.08641 185.43 8.66548C185.265 8.24455 185.019 7.91477 184.695 7.67614C184.37 7.4375 183.969 7.31818 183.491 7.31818C182.994 7.31818 182.58 7.44413 182.249 7.69602C181.92 7.94792 181.674 8.28598 181.508 8.71023C181.345 9.13447 181.264 9.60511 181.264 10.1222C181.264 10.6525 181.347 11.1214 181.513 11.5291C181.682 11.9335 181.93 12.2517 182.259 12.4837C182.59 12.7124 183.001 12.8267 183.491 12.8267ZM190.153 9.40625V14H188.98V3.81818H190.153V7.55682H190.253C190.432 7.16241 190.7 6.84919 191.058 6.61719C191.42 6.38187 191.9 6.2642 192.5 6.2642C193.02 6.2642 193.476 6.36861 193.867 6.57741C194.258 6.78291 194.562 7.09943 194.777 7.52699C194.996 7.95123 195.105 8.49148 195.105 9.14773V14H193.932V9.22727C193.932 8.62074 193.774 8.15175 193.46 7.82031C193.148 7.48556 192.715 7.31818 192.162 7.31818C191.777 7.31818 191.433 7.39938 191.128 7.56179C190.826 7.72419 190.588 7.96117 190.412 8.27273C190.24 8.58428 190.153 8.96212 190.153 9.40625ZM200.573 6.36364V7.35795H196.615V6.36364H200.573ZM197.769 4.53409H198.942V11.8125C198.942 12.1439 198.99 12.3925 199.086 12.5582C199.186 12.7206 199.311 12.83 199.464 12.8864C199.62 12.9394 199.784 12.9659 199.956 12.9659C200.085 12.9659 200.191 12.9593 200.274 12.946C200.357 12.9295 200.423 12.9162 200.473 12.9062L200.712 13.9602C200.632 13.9901 200.521 14.0199 200.379 14.0497C200.236 14.0829 200.056 14.0994 199.837 14.0994C199.505 14.0994 199.181 14.0282 198.862 13.8857C198.548 13.7431 198.286 13.526 198.077 13.2344C197.871 12.9427 197.769 12.5748 197.769 12.1307V4.53409ZM208.005 14L205.678 6.36364H206.911L208.562 12.2102H208.642L210.272 6.36364H211.525L213.136 12.1903H213.215L214.866 6.36364H216.099L213.772 14H212.619L210.948 8.13352H210.829L209.159 14H208.005ZM217.65 14V6.36364H218.784V7.51705H218.863C219.002 7.1392 219.254 6.83262 219.619 6.5973C219.983 6.36198 220.394 6.24432 220.852 6.24432C220.938 6.24432 221.046 6.24597 221.175 6.24929C221.304 6.2526 221.402 6.25758 221.468 6.2642V7.45739C221.428 7.44744 221.337 7.43253 221.195 7.41264C221.056 7.38944 220.908 7.37784 220.752 7.37784C220.381 7.37784 220.05 7.45573 219.758 7.61151C219.47 7.76397 219.241 7.97609 219.072 8.24787C218.906 8.51634 218.823 8.82292 218.823 9.16761V14H217.65ZM225.106 14.179C224.622 14.179 224.183 14.0878 223.789 13.9055C223.394 13.7199 223.081 13.4531 222.849 13.1051C222.617 12.7538 222.501 12.3295 222.501 11.8324C222.501 11.3949 222.587 11.0402 222.76 10.7685C222.932 10.4934 223.162 10.2779 223.451 10.1222C223.739 9.96638 224.057 9.85038 224.405 9.77415C224.757 9.6946 225.109 9.63163 225.464 9.58523C225.928 9.52557 226.304 9.48082 226.593 9.45099C226.884 9.41785 227.096 9.36316 227.229 9.28693C227.365 9.2107 227.433 9.07812 227.433 8.8892V8.84943C227.433 8.3589 227.299 7.97775 227.03 7.70597C226.765 7.43419 226.362 7.2983 225.822 7.2983C225.262 7.2983 224.823 7.42093 224.505 7.66619C224.186 7.91146 223.963 8.1733 223.833 8.4517L222.72 8.05398C222.919 7.58996 223.184 7.22869 223.515 6.97017C223.85 6.70833 224.215 6.52604 224.609 6.4233C225.007 6.31723 225.398 6.2642 225.782 6.2642C226.028 6.2642 226.309 6.29403 226.627 6.35369C226.949 6.41004 227.259 6.5277 227.557 6.70668C227.859 6.88565 228.109 7.15578 228.308 7.51705C228.507 7.87831 228.606 8.36222 228.606 8.96875V14H227.433V12.9659H227.373C227.294 13.1316 227.161 13.3089 226.975 13.4979C226.79 13.6868 226.543 13.8475 226.235 13.9801C225.926 14.1127 225.55 14.179 225.106 14.179ZM225.285 13.125C225.749 13.125 226.14 13.0339 226.458 12.8516C226.78 12.6693 227.022 12.4339 227.184 12.1456C227.35 11.8572 227.433 11.554 227.433 11.2358V10.1619C227.383 10.2216 227.274 10.2763 227.105 10.326C226.939 10.3724 226.747 10.4138 226.528 10.4503C226.313 10.4834 226.102 10.5133 225.897 10.5398C225.694 10.563 225.53 10.5829 225.404 10.5994C225.1 10.6392 224.815 10.7038 224.549 10.7933C224.288 10.8795 224.075 11.0104 223.913 11.1861C223.754 11.3584 223.674 11.5937 223.674 11.892C223.674 12.2997 223.825 12.608 224.127 12.8168C224.432 13.0223 224.818 13.125 225.285 13.125ZM230.748 16.8636V6.36364H231.881V7.5767H232.02C232.107 7.44413 232.226 7.27509 232.378 7.0696C232.534 6.8608 232.756 6.67519 233.045 6.51278C233.336 6.34706 233.731 6.2642 234.228 6.2642C234.871 6.2642 235.438 6.42495 235.928 6.74645C236.419 7.06794 236.801 7.52367 237.077 8.11364C237.352 8.7036 237.489 9.39962 237.489 10.2017C237.489 11.0104 237.352 11.7114 237.077 12.3047C236.801 12.8946 236.42 13.352 235.933 13.6768C235.446 13.9983 234.884 14.1591 234.248 14.1591C233.757 14.1591 233.364 14.0779 233.069 13.9155C232.774 13.7498 232.547 13.5625 232.388 13.3537C232.229 13.1416 232.107 12.9659 232.02 12.8267H231.921V16.8636H230.748ZM231.901 10.1818C231.901 10.7585 231.986 11.2673 232.155 11.7081C232.324 12.1456 232.571 12.4886 232.895 12.7372C233.22 12.9825 233.618 13.1051 234.089 13.1051C234.579 13.1051 234.988 12.9759 235.317 12.7173C235.648 12.4555 235.897 12.1042 236.062 11.6634C236.231 11.2192 236.316 10.7254 236.316 10.1818C236.316 9.64489 236.233 9.16098 236.067 8.73011C235.905 8.29593 235.658 7.95289 235.327 7.70099C234.998 7.44579 234.586 7.31818 234.089 7.31818C233.611 7.31818 233.21 7.43916 232.885 7.68111C232.561 7.91974 232.315 8.2545 232.15 8.68537C231.984 9.11293 231.901 9.61174 231.901 10.1818ZM240.134 14.0795C239.889 14.0795 239.678 13.9917 239.503 13.8161C239.327 13.6404 239.239 13.4299 239.239 13.1847C239.239 12.9394 239.327 12.7289 239.503 12.5533C239.678 12.3776 239.889 12.2898 240.134 12.2898C240.379 12.2898 240.59 12.3776 240.765 12.5533C240.941 12.7289 241.029 12.9394 241.029 13.1847C241.029 13.3471 240.988 13.4962 240.905 13.6321C240.825 13.768 240.717 13.8774 240.581 13.9602C240.449 14.0398 240.3 14.0795 240.134 14.0795Z" fill="black"/>
</g>
<defs>
<clipPath id="clip0_0_1137">
<rect width="150" height="80" fill="white"/>
</clipPath>
</defs>
</svg>
