<svg width="180" height="120" viewBox="0 0 180 120" fill="none" xmlns="http://www.w3.org/2000/svg">
<g clip-path="url(#clip0_0_1165)">
<rect width="180" height="120" fill="white"/>
<path d="M0.676136 4.91193V3.81818H8.3125V4.91193H5.1108V14H3.87784V4.91193H0.676136ZM11.2296 9.40625V14H10.0563V3.81818H11.2296V7.55682H11.329C11.508 7.16241 11.7765 6.84919 12.1344 6.61719C12.4957 6.38187 12.9763 6.2642 13.5762 6.2642C14.0965 6.2642 14.5523 6.36861 14.9434 6.57741C15.3345 6.78291 15.6377 7.09943 15.8532 7.52699C16.0719 7.95123 16.1813 8.49148 16.1813 9.14773V14H15.008V9.22727C15.008 8.62074 14.8506 8.15175 14.5357 7.82031C14.2241 7.48556 13.7916 7.31818 13.2381 7.31818C12.8536 7.31818 12.5089 7.39938 12.204 7.56179C11.9024 7.72419 11.6638 7.96117 11.4881 8.27273C11.3158 8.58428 11.2296 8.96212 11.2296 9.40625ZM18.3278 14V6.36364H19.5011V14H18.3278ZM18.9244 5.09091C18.6957 5.09091 18.4985 5.01302 18.3327 4.85724C18.1703 4.70147 18.0891 4.5142 18.0891 4.29545C18.0891 4.0767 18.1703 3.88944 18.3327 3.73366C18.4985 3.57789 18.6957 3.5 18.9244 3.5C19.1531 3.5 19.3486 3.57789 19.511 3.73366C19.6767 3.88944 19.7596 4.0767 19.7596 4.29545C19.7596 4.5142 19.6767 4.70147 19.511 4.85724C19.3486 5.01302 19.1531 5.09091 18.9244 5.09091ZM27.0591 8.07386L26.0051 8.37216C25.9389 8.1965 25.8411 8.0258 25.7118 7.86009C25.5859 7.69105 25.4135 7.55185 25.1948 7.44247C24.976 7.3331 24.696 7.27841 24.3546 7.27841C23.8873 7.27841 23.4978 7.38613 23.1863 7.60156C22.878 7.81368 22.7239 8.08381 22.7239 8.41193C22.7239 8.7036 22.83 8.93395 23.0421 9.10298C23.2542 9.27202 23.5856 9.41288 24.0364 9.52557L25.1699 9.80398C25.8527 9.9697 26.3614 10.2232 26.6962 10.5646C27.031 10.9027 27.1983 11.3385 27.1983 11.8722C27.1983 12.3097 27.0724 12.7008 26.8205 13.0455C26.5719 13.3902 26.2239 13.6619 25.7765 13.8608C25.329 14.0597 24.8087 14.1591 24.2154 14.1591C23.4365 14.1591 22.7918 13.9901 22.2814 13.652C21.771 13.3139 21.4479 12.8201 21.312 12.1705L22.4256 11.892C22.5317 12.303 22.7322 12.6113 23.0272 12.8168C23.3255 13.0223 23.7149 13.125 24.1955 13.125C24.7424 13.125 25.1766 13.009 25.498 12.777C25.8229 12.5417 25.9853 12.2599 25.9853 11.9318C25.9853 11.6667 25.8925 11.4446 25.7069 11.2656C25.5212 11.0833 25.2362 10.9474 24.8517 10.858L23.579 10.5597C22.8797 10.3939 22.3659 10.1371 22.0378 9.78906C21.713 9.43774 21.5506 8.99858 21.5506 8.47159C21.5506 8.04072 21.6716 7.65956 21.9135 7.32812C22.1588 6.99669 22.4919 6.73651 22.9128 6.54758C23.3371 6.35866 23.8176 6.2642 24.3546 6.2642C25.1103 6.2642 25.7035 6.42992 26.1344 6.76136C26.5686 7.0928 26.8768 7.5303 27.0591 8.07386ZM36.223 6.36364V7.35795H32.2656V6.36364H36.223ZM33.419 4.53409H34.5923V11.8125C34.5923 12.1439 34.6404 12.3925 34.7365 12.5582C34.8359 12.7206 34.9619 12.83 35.1143 12.8864C35.2701 12.9394 35.4342 12.9659 35.6065 12.9659C35.7358 12.9659 35.8419 12.9593 35.9247 12.946C36.0076 12.9295 36.0739 12.9162 36.1236 12.9062L36.3622 13.9602C36.2827 13.9901 36.1716 14.0199 36.0291 14.0497C35.8866 14.0829 35.706 14.0994 35.4872 14.0994C35.1558 14.0994 34.831 14.0282 34.5128 13.8857C34.1979 13.7431 33.9361 13.526 33.7273 13.2344C33.5218 12.9427 33.419 12.5748 33.419 12.1307V4.53409ZM41.1076 14.1591C40.3718 14.1591 39.7371 13.9967 39.2035 13.6719C38.6732 13.3438 38.2638 12.8864 37.9755 12.2997C37.6905 11.7098 37.5479 11.0237 37.5479 10.2415C37.5479 9.45928 37.6905 8.76989 37.9755 8.1733C38.2638 7.57339 38.6649 7.10606 39.1786 6.77131C39.6957 6.43324 40.2989 6.2642 40.9883 6.2642C41.386 6.2642 41.7788 6.33049 42.1665 6.46307C42.5543 6.59564 42.9073 6.81108 43.2255 7.10938C43.5437 7.40436 43.7972 7.79545 43.9862 8.28267C44.1751 8.76989 44.2695 9.36979 44.2695 10.0824V10.5795H38.3832V9.56534H43.0763C43.0763 9.13447 42.9902 8.75 42.8178 8.41193C42.6488 8.07386 42.4068 7.80705 42.092 7.61151C41.7804 7.41596 41.4125 7.31818 40.9883 7.31818C40.521 7.31818 40.1166 7.43419 39.7752 7.66619C39.4371 7.89489 39.177 8.19318 38.9947 8.56108C38.8124 8.92898 38.7212 9.32339 38.7212 9.74432V10.4205C38.7212 10.9972 38.8207 11.486 39.0195 11.8871C39.2217 12.2848 39.5018 12.5881 39.8597 12.7969C40.2177 13.0024 40.6336 13.1051 41.1076 13.1051C41.4158 13.1051 41.6942 13.062 41.9428 12.9759C42.1947 12.8864 42.4118 12.7538 42.5941 12.5781C42.7764 12.3991 42.9173 12.1771 43.0167 11.9119L44.1502 12.2301C44.0309 12.6146 43.8304 12.9527 43.5487 13.2443C43.2669 13.5327 42.9189 13.758 42.5046 13.9205C42.0903 14.0795 41.6246 14.1591 41.1076 14.1591ZM46.7243 6.36364L48.5538 9.4858L50.3833 6.36364H51.7356L49.2697 10.1818L51.7356 14H50.3833L48.5538 11.0369L46.7243 14H45.372L47.7981 10.1818L45.372 6.36364H46.7243ZM56.7308 6.36364V7.35795H52.7734V6.36364H56.7308ZM53.9268 4.53409H55.1001V11.8125C55.1001 12.1439 55.1482 12.3925 55.2443 12.5582C55.3438 12.7206 55.4697 12.83 55.6222 12.8864C55.7779 12.9394 55.942 12.9659 56.1143 12.9659C56.2436 12.9659 56.3497 12.9593 56.4325 12.946C56.5154 12.9295 56.5817 12.9162 56.6314 12.9062L56.87 13.9602C56.7905 13.9901 56.6795 14.0199 56.5369 14.0497C56.3944 14.0829 56.2138 14.0994 55.995 14.0994C55.6636 14.0994 55.3388 14.0282 55.0206 13.8857C54.7057 13.7431 54.4439 13.526 54.2351 13.2344C54.0296 12.9427 53.9268 12.5748 53.9268 12.1307V4.53409ZM67.8423 8.07386L66.7884 8.37216C66.7221 8.1965 66.6243 8.0258 66.495 7.86009C66.3691 7.69105 66.1967 7.55185 65.978 7.44247C65.7592 7.3331 65.4792 7.27841 65.1378 7.27841C64.6705 7.27841 64.281 7.38613 63.9695 7.60156C63.6612 7.81368 63.5071 8.08381 63.5071 8.41193C63.5071 8.7036 63.6132 8.93395 63.8253 9.10298C64.0374 9.27202 64.3688 9.41288 64.8196 9.52557L65.9531 9.80398C66.6359 9.9697 67.1446 10.2232 67.4794 10.5646C67.8142 10.9027 67.9815 11.3385 67.9815 11.8722C67.9815 12.3097 67.8556 12.7008 67.6037 13.0455C67.3551 13.3902 67.0071 13.6619 66.5597 13.8608C66.1122 14.0597 65.5919 14.1591 64.9986 14.1591C64.2197 14.1591 63.575 13.9901 63.0646 13.652C62.5542 13.3139 62.2311 12.8201 62.0952 12.1705L63.2088 11.892C63.3149 12.303 63.5154 12.6113 63.8104 12.8168C64.1087 13.0223 64.4981 13.125 64.9787 13.125C65.5256 13.125 65.9598 13.009 66.2812 12.777C66.6061 12.5417 66.7685 12.2599 66.7685 11.9318C66.7685 11.6667 66.6757 11.4446 66.4901 11.2656C66.3045 11.0833 66.0194 10.9474 65.6349 10.858L64.3622 10.5597C63.6629 10.3939 63.1491 10.1371 62.821 9.78906C62.4962 9.43774 62.3338 8.99858 62.3338 8.47159C62.3338 8.04072 62.4548 7.65956 62.6967 7.32812C62.942 6.99669 63.2751 6.73651 63.696 6.54758C64.1203 6.35866 64.6009 6.2642 65.1378 6.2642C65.8935 6.2642 66.4867 6.42992 66.9176 6.76136C67.3518 7.0928 67.66 7.5303 67.8423 8.07386ZM70.921 9.40625V14H69.7477V3.81818H70.921V7.55682H71.0204C71.1994 7.16241 71.4679 6.84919 71.8258 6.61719C72.1871 6.38187 72.6677 6.2642 73.2676 6.2642C73.7879 6.2642 74.2437 6.36861 74.6348 6.57741C75.0259 6.78291 75.3291 7.09943 75.5446 7.52699C75.7633 7.95123 75.8727 8.49148 75.8727 9.14773V14H74.6994V9.22727C74.6994 8.62074 74.542 8.15175 74.2271 7.82031C73.9155 7.48556 73.483 7.31818 72.9295 7.31818C72.545 7.31818 72.2003 7.39938 71.8954 7.56179C71.5938 7.72419 71.3552 7.96117 71.1795 8.27273C71.0072 8.58428 70.921 8.96212 70.921 9.40625ZM81.1214 14.1591C80.4321 14.1591 79.8272 13.995 79.3068 13.6669C78.7898 13.3388 78.3854 12.8797 78.0938 12.2898C77.8054 11.6998 77.6612 11.0104 77.6612 10.2216C77.6612 9.42614 77.8054 8.73177 78.0938 8.13849C78.3854 7.54522 78.7898 7.08452 79.3068 6.75639C79.8272 6.42827 80.4321 6.2642 81.1214 6.2642C81.8108 6.2642 82.4141 6.42827 82.9311 6.75639C83.4515 7.08452 83.8558 7.54522 84.1442 8.13849C84.4358 8.73177 84.5817 9.42614 84.5817 10.2216C84.5817 11.0104 84.4358 11.6998 84.1442 12.2898C83.8558 12.8797 83.4515 13.3388 82.9311 13.6669C82.4141 13.995 81.8108 14.1591 81.1214 14.1591ZM81.1214 13.1051C81.6451 13.1051 82.076 12.9709 82.4141 12.7024C82.7521 12.4339 83.0024 12.081 83.1648 11.6435C83.3272 11.206 83.4084 10.732 83.4084 10.2216C83.4084 9.71117 83.3272 9.23556 83.1648 8.79474C83.0024 8.35393 82.7521 7.99763 82.4141 7.72585C82.076 7.45407 81.6451 7.31818 81.1214 7.31818C80.5978 7.31818 80.1669 7.45407 79.8288 7.72585C79.4908 7.99763 79.2405 8.35393 79.0781 8.79474C78.9157 9.23556 78.8345 9.71117 78.8345 10.2216C78.8345 10.732 78.9157 11.206 79.0781 11.6435C79.2405 12.081 79.4908 12.4339 79.8288 12.7024C80.1669 12.9709 80.5978 13.1051 81.1214 13.1051ZM91.1852 10.8778V6.36364H92.3585V14H91.1852V12.7074H91.1056C90.9267 13.0952 90.6483 13.425 90.2704 13.6967C89.8926 13.9652 89.4153 14.0994 88.8386 14.0994C88.3613 14.0994 87.9371 13.995 87.5659 13.7862C87.1947 13.5741 86.903 13.2559 86.6909 12.8317C86.4788 12.4041 86.3727 11.8655 86.3727 11.2159V6.36364H87.546V11.1364C87.546 11.6932 87.7018 12.1373 88.0133 12.4688C88.3282 12.8002 88.7292 12.9659 89.2164 12.9659C89.5081 12.9659 89.8047 12.8913 90.1064 12.7422C90.4113 12.593 90.6665 12.3643 90.872 12.0561C91.0808 11.7479 91.1852 11.3551 91.1852 10.8778ZM95.6808 3.81818V14H94.5075V3.81818H95.6808ZM100.713 14.1591C100.077 14.1591 99.5151 13.9983 99.0279 13.6768C98.5407 13.352 98.1595 12.8946 97.8844 12.3047C97.6093 11.7114 97.4718 11.0104 97.4718 10.2017C97.4718 9.39962 97.6093 8.7036 97.8844 8.11364C98.1595 7.52367 98.5423 7.06794 99.0328 6.74645C99.5234 6.42495 100.09 6.2642 100.733 6.2642C101.23 6.2642 101.623 6.34706 101.911 6.51278C102.203 6.67519 102.425 6.8608 102.578 7.0696C102.733 7.27509 102.854 7.44413 102.941 7.5767H103.04V3.81818H104.213V14H103.08V12.8267H102.941C102.854 12.9659 102.732 13.1416 102.573 13.3537C102.414 13.5625 102.186 13.7498 101.892 13.9155C101.597 14.0779 101.204 14.1591 100.713 14.1591ZM100.872 13.1051C101.343 13.1051 101.741 12.9825 102.066 12.7372C102.39 12.4886 102.637 12.1456 102.806 11.7081C102.975 11.2673 103.06 10.7585 103.06 10.1818C103.06 9.61174 102.977 9.11293 102.811 8.68537C102.646 8.2545 102.4 7.91974 102.075 7.68111C101.751 7.43916 101.35 7.31818 100.872 7.31818C100.375 7.31818 99.9609 7.44579 99.6294 7.70099C99.3013 7.95289 99.0544 8.29593 98.8887 8.73011C98.7263 9.16098 98.6451 9.64489 98.6451 10.1818C98.6451 10.7254 98.7279 11.2192 98.8936 11.6634C99.0627 12.1042 99.3113 12.4555 99.6394 12.7173C99.9708 12.9759 100.382 13.1051 100.872 13.1051ZM112.193 14L109.866 6.36364H111.099L112.749 12.2102H112.829L114.46 6.36364H115.713L117.323 12.1903H117.403L119.053 6.36364H120.286L117.96 14H116.806L115.136 8.13352H115.017L113.346 14H112.193ZM121.838 14V6.36364H122.971V7.51705H123.051C123.19 7.1392 123.442 6.83262 123.806 6.5973C124.171 6.36198 124.582 6.24432 125.039 6.24432C125.125 6.24432 125.233 6.24597 125.362 6.24929C125.492 6.2526 125.589 6.25758 125.656 6.2642V7.45739C125.616 7.44744 125.525 7.43253 125.382 7.41264C125.243 7.38944 125.096 7.37784 124.94 7.37784C124.569 7.37784 124.237 7.45573 123.945 7.61151C123.657 7.76397 123.428 7.97609 123.259 8.24787C123.094 8.51634 123.011 8.82292 123.011 9.16761V14H121.838ZM129.294 14.179C128.81 14.179 128.371 14.0878 127.976 13.9055C127.582 13.7199 127.269 13.4531 127.037 13.1051C126.805 12.7538 126.689 12.3295 126.689 11.8324C126.689 11.3949 126.775 11.0402 126.947 10.7685C127.119 10.4934 127.35 10.2779 127.638 10.1222C127.926 9.96638 128.245 9.85038 128.593 9.77415C128.944 9.6946 129.297 9.63163 129.652 9.58523C130.116 9.52557 130.492 9.48082 130.78 9.45099C131.072 9.41785 131.284 9.36316 131.417 9.28693C131.552 9.2107 131.62 9.07812 131.62 8.8892V8.84943C131.62 8.3589 131.486 7.97775 131.218 7.70597C130.953 7.43419 130.55 7.2983 130.01 7.2983C129.449 7.2983 129.01 7.42093 128.692 7.66619C128.374 7.91146 128.15 8.1733 128.021 8.4517L126.907 8.05398C127.106 7.58996 127.371 7.22869 127.703 6.97017C128.038 6.70833 128.402 6.52604 128.797 6.4233C129.194 6.31723 129.585 6.2642 129.97 6.2642C130.215 6.2642 130.497 6.29403 130.815 6.35369C131.136 6.41004 131.446 6.5277 131.745 6.70668C132.046 6.88565 132.297 7.15578 132.495 7.51705C132.694 7.87831 132.794 8.36222 132.794 8.96875V14H131.62V12.9659H131.561C131.481 13.1316 131.349 13.3089 131.163 13.4979C130.977 13.6868 130.73 13.8475 130.422 13.9801C130.114 14.1127 129.738 14.179 129.294 14.179ZM129.473 13.125C129.937 13.125 130.328 13.0339 130.646 12.8516C130.967 12.6693 131.209 12.4339 131.372 12.1456C131.538 11.8572 131.62 11.554 131.62 11.2358V10.1619C131.571 10.2216 131.461 10.2763 131.292 10.326C131.127 10.3724 130.934 10.4138 130.716 10.4503C130.5 10.4834 130.29 10.5133 130.084 10.5398C129.882 10.563 129.718 10.5829 129.592 10.5994C129.287 10.6392 129.002 10.7038 128.737 10.7933C128.475 10.8795 128.263 11.0104 128.1 11.1861C127.941 11.3584 127.862 11.5937 127.862 11.892C127.862 12.2997 128.013 12.608 128.314 12.8168C128.619 13.0223 129.005 13.125 129.473 13.125ZM134.935 16.8636V6.36364H136.069V7.5767H136.208C136.294 7.44413 136.413 7.27509 136.566 7.0696C136.722 6.8608 136.944 6.67519 137.232 6.51278C137.524 6.34706 137.918 6.2642 138.415 6.2642C139.058 6.2642 139.625 6.42495 140.116 6.74645C140.606 7.06794 140.989 7.52367 141.264 8.11364C141.539 8.7036 141.677 9.39962 141.677 10.2017C141.677 11.0104 141.539 11.7114 141.264 12.3047C140.989 12.8946 140.608 13.352 140.121 13.6768C139.633 13.9983 139.072 14.1591 138.435 14.1591C137.945 14.1591 137.552 14.0779 137.257 13.9155C136.962 13.7498 136.735 13.5625 136.576 13.3537C136.417 13.1416 136.294 12.9659 136.208 12.8267H136.108V16.8636H134.935ZM136.089 10.1818C136.089 10.7585 136.173 11.2673 136.342 11.7081C136.511 12.1456 136.758 12.4886 137.083 12.7372C137.408 12.9825 137.805 13.1051 138.276 13.1051C138.767 13.1051 139.176 12.9759 139.504 12.7173C139.836 12.4555 140.084 12.1042 140.25 11.6634C140.419 11.2192 140.503 10.7254 140.503 10.1818C140.503 9.64489 140.421 9.16098 140.255 8.73011C140.092 8.29593 139.845 7.95289 139.514 7.70099C139.186 7.44579 138.773 7.31818 138.276 7.31818C137.799 7.31818 137.398 7.43916 137.073 7.68111C136.748 7.91974 136.503 8.2545 136.337 8.68537C136.171 9.11293 136.089 9.61174 136.089 10.1818ZM147.404 14V6.36364H148.577V14H147.404ZM148.001 5.09091C147.772 5.09091 147.575 5.01302 147.409 4.85724C147.247 4.70147 147.165 4.5142 147.165 4.29545C147.165 4.0767 147.247 3.88944 147.409 3.73366C147.575 3.57789 147.772 3.5 148.001 3.5C148.229 3.5 148.425 3.57789 148.587 3.73366C148.753 3.88944 148.836 4.0767 148.836 4.29545C148.836 4.5142 148.753 4.70147 148.587 4.85724C148.425 5.01302 148.229 5.09091 148.001 5.09091ZM151.9 9.40625V14H150.726V6.36364H151.86V7.55682H151.959C152.138 7.16903 152.41 6.85748 152.775 6.62216C153.139 6.38352 153.61 6.2642 154.186 6.2642C154.703 6.2642 155.156 6.37027 155.544 6.58239C155.931 6.79119 156.233 7.10938 156.449 7.53693C156.664 7.96117 156.772 8.49811 156.772 9.14773V14H155.598V9.22727C155.598 8.62737 155.443 8.16004 155.131 7.82528C154.819 7.48722 154.392 7.31818 153.848 7.31818C153.474 7.31818 153.139 7.39938 152.844 7.56179C152.552 7.72419 152.322 7.96117 152.153 8.27273C151.984 8.58428 151.9 8.96212 151.9 9.40625ZM165.1 14.179C164.616 14.179 164.177 14.0878 163.783 13.9055C163.388 13.7199 163.075 13.4531 162.843 13.1051C162.611 12.7538 162.495 12.3295 162.495 11.8324C162.495 11.3949 162.581 11.0402 162.754 10.7685C162.926 10.4934 163.156 10.2779 163.445 10.1222C163.733 9.96638 164.051 9.85038 164.399 9.77415C164.751 9.6946 165.104 9.63163 165.458 9.58523C165.922 9.52557 166.298 9.48082 166.587 9.45099C166.878 9.41785 167.091 9.36316 167.223 9.28693C167.359 9.2107 167.427 9.07812 167.427 8.8892V8.84943C167.427 8.3589 167.293 7.97775 167.024 7.70597C166.759 7.43419 166.356 7.2983 165.816 7.2983C165.256 7.2983 164.817 7.42093 164.499 7.66619C164.181 7.91146 163.957 8.1733 163.828 8.4517L162.714 8.05398C162.913 7.58996 163.178 7.22869 163.509 6.97017C163.844 6.70833 164.209 6.52604 164.603 6.4233C165.001 6.31723 165.392 6.2642 165.776 6.2642C166.022 6.2642 166.303 6.29403 166.622 6.35369C166.943 6.41004 167.253 6.5277 167.551 6.70668C167.853 6.88565 168.103 7.15578 168.302 7.51705C168.501 7.87831 168.6 8.36222 168.6 8.96875V14H167.427V12.9659H167.367C167.288 13.1316 167.155 13.3089 166.97 13.4979C166.784 13.6868 166.537 13.8475 166.229 13.9801C165.921 14.1127 165.544 14.179 165.1 14.179ZM165.279 13.125C165.743 13.125 166.134 13.0339 166.453 12.8516C166.774 12.6693 167.016 12.4339 167.178 12.1456C167.344 11.8572 167.427 11.554 167.427 11.2358V10.1619C167.377 10.2216 167.268 10.2763 167.099 10.326C166.933 10.3724 166.741 10.4138 166.522 10.4503C166.307 10.4834 166.096 10.5133 165.891 10.5398C165.689 10.563 165.525 10.5829 165.399 10.5994C165.094 10.6392 164.809 10.7038 164.544 10.7933C164.282 10.8795 164.07 11.0104 163.907 11.1861C163.748 11.3584 163.669 11.5937 163.669 11.892C163.669 12.2997 163.819 12.608 164.121 12.8168C164.426 13.0223 164.812 13.125 165.279 13.125ZM2.24716 26.4062V31H1.07386V23.3636H2.20739V24.5568H2.30682C2.4858 24.169 2.75758 23.8575 3.12216 23.6222C3.48674 23.3835 3.95739 23.2642 4.53409 23.2642C5.05114 23.2642 5.50355 23.3703 5.89134 23.5824C6.27912 23.7912 6.58073 24.1094 6.79616 24.5369C7.0116 24.9612 7.11932 25.4981 7.11932 26.1477V31H5.94602V26.2273C5.94602 25.6274 5.79025 25.16 5.47869 24.8253C5.16714 24.4872 4.73958 24.3182 4.19602 24.3182C3.8215 24.3182 3.48674 24.3994 3.19176 24.5618C2.90009 24.7242 2.66974 24.9612 2.50071 25.2727C2.33168 25.5843 2.24716 25.9621 2.24716 26.4062ZM11.5105 31.179C11.0266 31.179 10.5874 31.0878 10.193 30.9055C9.79859 30.7199 9.48538 30.4531 9.25337 30.1051C9.02137 29.7538 8.90536 29.3295 8.90536 28.8324C8.90536 28.3949 8.99154 28.0402 9.16388 27.7685C9.33623 27.4934 9.56658 27.2779 9.85494 27.1222C10.1433 26.9664 10.4615 26.8504 10.8095 26.7741C11.1608 26.6946 11.5138 26.6316 11.8684 26.5852C12.3324 26.5256 12.7086 26.4808 12.997 26.451C13.2886 26.4179 13.5008 26.3632 13.6333 26.2869C13.7692 26.2107 13.8372 26.0781 13.8372 25.8892V25.8494C13.8372 25.3589 13.7029 24.9777 13.4345 24.706C13.1693 24.4342 12.7666 24.2983 12.2264 24.2983C11.6663 24.2983 11.2271 24.4209 10.9089 24.6662C10.5907 24.9115 10.367 25.1733 10.2377 25.4517L9.12411 25.054C9.32298 24.59 9.58813 24.2287 9.91957 23.9702C10.2543 23.7083 10.6189 23.526 11.0133 23.4233C11.411 23.3172 11.8021 23.2642 12.1866 23.2642C12.4319 23.2642 12.7136 23.294 13.0318 23.3537C13.3533 23.41 13.6632 23.5277 13.9615 23.7067C14.2631 23.8857 14.5133 24.1558 14.7122 24.517C14.911 24.8783 15.0105 25.3622 15.0105 25.9688V31H13.8372V29.9659H13.7775C13.698 30.1316 13.5654 30.3089 13.3798 30.4979C13.1942 30.6868 12.9473 30.8475 12.639 30.9801C12.3308 31.1127 11.9546 31.179 11.5105 31.179ZM11.6895 30.125C12.1535 30.125 12.5446 30.0339 12.8627 29.8516C13.1842 29.6693 13.4262 29.4339 13.5886 29.1456C13.7543 28.8572 13.8372 28.554 13.8372 28.2358V27.1619C13.7875 27.2216 13.6781 27.2763 13.5091 27.326C13.3433 27.3724 13.1511 27.4138 12.9324 27.4503C12.7169 27.4834 12.5065 27.5133 12.301 27.5398C12.0988 27.563 11.9347 27.5829 11.8088 27.5994C11.5038 27.6392 11.2188 27.7038 10.9537 27.7933C10.6918 27.8795 10.4797 28.0104 10.3173 28.1861C10.1582 28.3584 10.0787 28.5937 10.0787 28.892C10.0787 29.2997 10.2295 29.608 10.5311 29.8168C10.836 30.0223 11.2221 30.125 11.6895 30.125ZM17.152 31V23.3636H18.2855V24.517H18.3651C18.5043 24.1392 18.7562 23.8326 19.1207 23.5973C19.4853 23.362 19.8963 23.2443 20.3537 23.2443C20.4399 23.2443 20.5476 23.246 20.6768 23.2493C20.8061 23.2526 20.9039 23.2576 20.9702 23.2642V24.4574C20.9304 24.4474 20.8393 24.4325 20.6967 24.4126C20.5575 24.3894 20.41 24.3778 20.2543 24.3778C19.883 24.3778 19.5516 24.4557 19.2599 24.6115C18.9716 24.764 18.7429 24.9761 18.5739 25.2479C18.4081 25.5163 18.3253 25.8229 18.3253 26.1676V31H17.152ZM22.361 31V23.3636H23.4945V24.517H23.574C23.7132 24.1392 23.9651 23.8326 24.3297 23.5973C24.6943 23.362 25.1053 23.2443 25.5627 23.2443C25.6489 23.2443 25.7566 23.246 25.8858 23.2493C26.0151 23.2526 26.1129 23.2576 26.1792 23.2642V24.4574C26.1394 24.4474 26.0482 24.4325 25.9057 24.4126C25.7665 24.3894 25.619 24.3778 25.4632 24.3778C25.092 24.3778 24.7606 24.4557 24.4689 24.6115C24.1806 24.764 23.9519 24.9761 23.7828 25.2479C23.6171 25.5163 23.5343 25.8229 23.5343 26.1676V31H22.361ZM30.4398 31.1591C29.7504 31.1591 29.1455 30.995 28.6252 30.6669C28.1081 30.3388 27.7038 29.8797 27.4121 29.2898C27.1238 28.6998 26.9796 28.0104 26.9796 27.2216C26.9796 26.4261 27.1238 25.7318 27.4121 25.1385C27.7038 24.5452 28.1081 24.0845 28.6252 23.7564C29.1455 23.4283 29.7504 23.2642 30.4398 23.2642C31.1292 23.2642 31.7324 23.4283 32.2495 23.7564C32.7698 24.0845 33.1742 24.5452 33.4625 25.1385C33.7542 25.7318 33.9 26.4261 33.9 27.2216C33.9 28.0104 33.7542 28.6998 33.4625 29.2898C33.1742 29.8797 32.7698 30.3388 32.2495 30.6669C31.7324 30.995 31.1292 31.1591 30.4398 31.1591ZM30.4398 30.1051C30.9635 30.1051 31.3944 29.9709 31.7324 29.7024C32.0705 29.4339 32.3207 29.081 32.4831 28.6435C32.6455 28.206 32.7267 27.732 32.7267 27.2216C32.7267 26.7112 32.6455 26.2356 32.4831 25.7947C32.3207 25.3539 32.0705 24.9976 31.7324 24.7259C31.3944 24.4541 30.9635 24.3182 30.4398 24.3182C29.9161 24.3182 29.4853 24.4541 29.1472 24.7259C28.8091 24.9976 28.5589 25.3539 28.3965 25.7947C28.2341 26.2356 28.1529 26.7112 28.1529 27.2216C28.1529 27.732 28.2341 28.206 28.3965 28.6435C28.5589 29.081 28.8091 29.4339 29.1472 29.7024C29.4853 29.9709 29.9161 30.1051 30.4398 30.1051ZM37.1614 31L34.8347 23.3636H36.0676L37.7182 29.2102H37.7978L39.4284 23.3636H40.6813L42.2921 29.1903H42.3716L44.0222 23.3636H45.2551L42.9284 31H41.775L40.1046 25.1335H39.9853L38.3148 31H37.1614ZM53.8461 31.1591C53.1301 31.1591 52.5137 30.9901 51.9966 30.652C51.4796 30.3139 51.0819 29.8482 50.8034 29.255C50.525 28.6617 50.3858 27.9839 50.3858 27.2216C50.3858 26.446 50.5283 25.7616 50.8134 25.1683C51.1017 24.5717 51.5028 24.1061 52.0165 23.7713C52.5336 23.4332 53.1368 23.2642 53.8262 23.2642C54.3631 23.2642 54.847 23.3636 55.2779 23.5625C55.7087 23.7614 56.0617 24.0398 56.3368 24.3977C56.6119 24.7557 56.7826 25.1733 56.8489 25.6506H55.6756C55.5861 25.3026 55.3873 24.9943 55.079 24.7259C54.7741 24.4541 54.3631 24.3182 53.8461 24.3182C53.3887 24.3182 52.9876 24.4375 52.6429 24.6761C52.3016 24.9115 52.0347 25.2446 51.8425 25.6754C51.6536 26.103 51.5591 26.6051 51.5591 27.1818C51.5591 27.7718 51.6519 28.2855 51.8375 28.723C52.0265 29.1605 52.2916 29.5002 52.633 29.7422C52.9777 29.9841 53.382 30.1051 53.8461 30.1051C54.151 30.1051 54.4277 30.0521 54.6763 29.946C54.9249 29.84 55.1354 29.6875 55.3077 29.4886C55.4801 29.2898 55.6027 29.0511 55.6756 28.7727H56.8489C56.7826 29.2235 56.6185 29.6295 56.3567 29.9908C56.0982 30.3487 55.7551 30.6338 55.3276 30.8459C54.9034 31.0547 54.4095 31.1591 53.8461 31.1591ZM61.6664 31.1591C60.977 31.1591 60.3721 30.995 59.8517 30.6669C59.3347 30.3388 58.9303 29.8797 58.6387 29.2898C58.3503 28.6998 58.2061 28.0104 58.2061 27.2216C58.2061 26.4261 58.3503 25.7318 58.6387 25.1385C58.9303 24.5452 59.3347 24.0845 59.8517 23.7564C60.3721 23.4283 60.977 23.2642 61.6664 23.2642C62.3558 23.2642 62.959 23.4283 63.476 23.7564C63.9964 24.0845 64.4007 24.5452 64.6891 25.1385C64.9808 25.7318 65.1266 26.4261 65.1266 27.2216C65.1266 28.0104 64.9808 28.6998 64.6891 29.2898C64.4007 29.8797 63.9964 30.3388 63.476 30.6669C62.959 30.995 62.3558 31.1591 61.6664 31.1591ZM61.6664 30.1051C62.19 30.1051 62.6209 29.9709 62.959 29.7024C63.2971 29.4339 63.5473 29.081 63.7097 28.6435C63.8721 28.206 63.9533 27.732 63.9533 27.2216C63.9533 26.7112 63.8721 26.2356 63.7097 25.7947C63.5473 25.3539 63.2971 24.9976 62.959 24.7259C62.6209 24.4541 62.19 24.3182 61.6664 24.3182C61.1427 24.3182 60.7118 24.4541 60.3738 24.7259C60.0357 24.9976 59.7855 25.3539 59.623 25.7947C59.4606 26.2356 59.3794 26.7112 59.3794 27.2216C59.3794 27.732 59.4606 28.206 59.623 28.6435C59.7855 29.081 60.0357 29.4339 60.3738 29.7024C60.7118 29.9709 61.1427 30.1051 61.6664 30.1051ZM68.0909 26.4062V31H66.9176V23.3636H68.0511V24.5568H68.1506C68.3295 24.169 68.6013 23.8575 68.9659 23.6222C69.3305 23.3835 69.8011 23.2642 70.3778 23.2642C70.8949 23.2642 71.3473 23.3703 71.7351 23.5824C72.1229 23.7912 72.4245 24.1094 72.6399 24.5369C72.8554 24.9612 72.9631 25.4981 72.9631 26.1477V31H71.7898V26.2273C71.7898 25.6274 71.634 25.16 71.3224 24.8253C71.0109 24.4872 70.5833 24.3182 70.0398 24.3182C69.6652 24.3182 69.3305 24.3994 69.0355 24.5618C68.7438 24.7242 68.5135 24.9612 68.3445 25.2727C68.1754 25.5843 68.0909 25.9621 68.0909 26.4062ZM78.4281 23.3636V24.358H74.4707V23.3636H78.4281ZM75.6241 21.5341H76.7974V28.8125C76.7974 29.1439 76.8455 29.3925 76.9416 29.5582C77.041 29.7206 77.167 29.83 77.3194 29.8864C77.4752 29.9394 77.6393 29.9659 77.8116 29.9659C77.9409 29.9659 78.0469 29.9593 78.1298 29.946C78.2127 29.9295 78.2789 29.9162 78.3287 29.9062L78.5673 30.9602C78.4877 30.9901 78.3767 31.0199 78.2342 31.0497C78.0917 31.0829 77.911 31.0994 77.6923 31.0994C77.3609 31.0994 77.036 31.0282 76.7179 30.8857C76.403 30.7431 76.1412 30.526 75.9324 30.2344C75.7269 29.9427 75.6241 29.5748 75.6241 29.1307V21.5341ZM82.4402 31.179C81.9563 31.179 81.5171 31.0878 81.1227 30.9055C80.7283 30.7199 80.4151 30.4531 80.1831 30.1051C79.9511 29.7538 79.835 29.3295 79.835 28.8324C79.835 28.3949 79.9212 28.0402 80.0936 27.7685C80.2659 27.4934 80.4963 27.2779 80.7846 27.1222C81.073 26.9664 81.3912 26.8504 81.7392 26.7741C82.0905 26.6946 82.4435 26.6316 82.7981 26.5852C83.2621 26.5256 83.6383 26.4808 83.9267 26.451C84.2183 26.4179 84.4305 26.3632 84.563 26.2869C84.6989 26.2107 84.7669 26.0781 84.7669 25.8892V25.8494C84.7669 25.3589 84.6326 24.9777 84.3642 24.706C84.099 24.4342 83.6963 24.2983 83.1561 24.2983C82.5959 24.2983 82.1568 24.4209 81.8386 24.6662C81.5204 24.9115 81.2967 25.1733 81.1674 25.4517L80.0538 25.054C80.2527 24.59 80.5178 24.2287 80.8493 23.9702C81.184 23.7083 81.5486 23.526 81.943 23.4233C82.3407 23.3172 82.7318 23.2642 83.1163 23.2642C83.3616 23.2642 83.6433 23.294 83.9615 23.3537C84.283 23.41 84.5929 23.5277 84.8912 23.7067C85.1928 23.8857 85.443 24.1558 85.6419 24.517C85.8407 24.8783 85.9402 25.3622 85.9402 25.9688V31H84.7669V29.9659H84.7072C84.6277 30.1316 84.4951 30.3089 84.3095 30.4979C84.1239 30.6868 83.877 30.8475 83.5687 30.9801C83.2605 31.1127 82.8843 31.179 82.4402 31.179ZM82.6191 30.125C83.0832 30.125 83.4743 30.0339 83.7924 29.8516C84.1139 29.6693 84.3559 29.4339 84.5183 29.1456C84.684 28.8572 84.7669 28.554 84.7669 28.2358V27.1619C84.7172 27.2216 84.6078 27.2763 84.4387 27.326C84.273 27.3724 84.0808 27.4138 83.862 27.4503C83.6466 27.4834 83.4361 27.5133 83.2306 27.5398C83.0285 27.563 82.8644 27.5829 82.7385 27.5994C82.4335 27.6392 82.1485 27.7038 81.8833 27.7933C81.6215 27.8795 81.4094 28.0104 81.247 28.1861C81.0879 28.3584 81.0083 28.5937 81.0083 28.892C81.0083 29.2997 81.1592 29.608 81.4608 29.8168C81.7657 30.0223 82.1518 30.125 82.6191 30.125ZM88.0817 31V23.3636H89.255V31H88.0817ZM88.6783 22.0909C88.4496 22.0909 88.2524 22.013 88.0866 21.8572C87.9242 21.7015 87.843 21.5142 87.843 21.2955C87.843 21.0767 87.9242 20.8894 88.0866 20.7337C88.2524 20.5779 88.4496 20.5 88.6783 20.5C88.907 20.5 89.1025 20.5779 89.2649 20.7337C89.4306 20.8894 89.5135 21.0767 89.5135 21.2955C89.5135 21.5142 89.4306 21.7015 89.2649 21.8572C89.1025 22.013 88.907 22.0909 88.6783 22.0909ZM92.5772 26.4062V31H91.4039V23.3636H92.5375V24.5568H92.6369C92.8159 24.169 93.0877 23.8575 93.4522 23.6222C93.8168 23.3835 94.2875 23.2642 94.8642 23.2642C95.3812 23.2642 95.8336 23.3703 96.2214 23.5824C96.6092 23.7912 96.9108 24.1094 97.1262 24.5369C97.3417 24.9612 97.4494 25.4981 97.4494 26.1477V31H96.2761V26.2273C96.2761 25.6274 96.1203 25.16 95.8088 24.8253C95.4972 24.4872 95.0697 24.3182 94.5261 24.3182C94.1516 24.3182 93.8168 24.3994 93.5218 24.5618C93.2302 24.7242 92.9998 24.9612 92.8308 25.2727C92.6618 25.5843 92.5772 25.9621 92.5772 26.4062ZM102.795 31.1591C102.059 31.1591 101.425 30.9967 100.891 30.6719C100.361 30.3438 99.9513 29.8864 99.663 29.2997C99.378 28.7098 99.2354 28.0237 99.2354 27.2415C99.2354 26.4593 99.378 25.7699 99.663 25.1733C99.9513 24.5734 100.352 24.1061 100.866 23.7713C101.383 23.4332 101.986 23.2642 102.676 23.2642C103.074 23.2642 103.466 23.3305 103.854 23.4631C104.242 23.5956 104.595 23.8111 104.913 24.1094C105.231 24.4044 105.485 24.7955 105.674 25.2827C105.863 25.7699 105.957 26.3698 105.957 27.0824V27.5795H100.071V26.5653H104.764C104.764 26.1345 104.678 25.75 104.505 25.4119C104.336 25.0739 104.094 24.8071 103.779 24.6115C103.468 24.416 103.1 24.3182 102.676 24.3182C102.208 24.3182 101.804 24.4342 101.463 24.6662C101.125 24.8949 100.864 25.1932 100.682 25.5611C100.5 25.929 100.409 26.3234 100.409 26.7443V27.4205C100.409 27.9972 100.508 28.486 100.707 28.8871C100.909 29.2848 101.189 29.5881 101.547 29.7969C101.905 30.0024 102.321 30.1051 102.795 30.1051C103.103 30.1051 103.382 30.062 103.63 29.9759C103.882 29.8864 104.099 29.7538 104.282 29.5781C104.464 29.3991 104.605 29.1771 104.704 28.9119L105.838 29.2301C105.718 29.6146 105.518 29.9527 105.236 30.2443C104.954 30.5327 104.606 30.758 104.192 30.9205C103.778 31.0795 103.312 31.1591 102.795 31.1591ZM107.742 31V23.3636H108.875V24.517H108.955C109.094 24.1392 109.346 23.8326 109.711 23.5973C110.075 23.362 110.486 23.2443 110.944 23.2443C111.03 23.2443 111.137 23.246 111.267 23.2493C111.396 23.2526 111.494 23.2576 111.56 23.2642V24.4574C111.52 24.4474 111.429 24.4325 111.287 24.4126C111.147 24.3894 111 24.3778 110.844 24.3778C110.473 24.3778 110.141 24.4557 109.85 24.6115C109.561 24.764 109.333 24.9761 109.164 25.2479C108.998 25.5163 108.915 25.8229 108.915 26.1676V31H107.742Z" fill="black"/>
</g>
<defs>
<clipPath id="clip0_0_1165">
<rect width="180" height="120" fill="white"/>
</clipPath>
</defs>
</svg>
