<svg xmlns="http://www.w3.org/2000/svg" width="200" height="150" viewBox="0 0 200 150"><g><defs><clipPath id="clip-g9-1"><rect x="0" y="0" width="200" height="150"/></clipPath></defs><g clip-path="url(#clip-g9-1)"><rect x="0" y="0" width="200" height="150" fill="#ffffff"/><g transform="matrix(1,0,0,1,30,25)"><defs><linearGradient id="lg-g9-0" x1="65.0000027395452" y1="-60.1040792207351" x2="156.92388586700665" y2="-0.000001791241092368782" gradientUnits="userSpaceOnUse"><stop offset="0%" stop-color="#ff664d"/><stop offset="50%" stop-color="#e63380"/><stop offset="100%" stop-color="#8033cc"/></linearGradient></defs><path d="M66.273446228398 15L10 15C4.477152347565 15 0 19.477152347565 0 25L0 75C0 80.522850036621 4.477152347565 85 10 85L90 85C95.522850036621 85 100 80.522850036621 100 75L100 69.645555773247C116.961471613963 67.219407762839 130 52.632360785705 130 35C130 15.670033454895 114.329967498779 0 95 0C83.106274197784 0 72.598176824487 5.932579449414 66.273446228371 14.99999999998" fill-rule="evenodd" fill="url(#lg-g9-0)"/></g></g></g></svg>