<svg xmlns="http://www.w3.org/2000/svg" width="120" height="120" viewBox="0 0 120 120"><g><defs><clipPath id="clip-g4-0"><rect x="0" y="0" width="120" height="120"/></clipPath></defs><g clip-path="url(#clip-g4-0)"><rect x="0" y="0" width="120" height="120" fill="#ffffff"/><g transform="matrix(1,0,0,1,20,20)"><path d="M40 0L31.018641344971 27.638220325951L1.957739348194 27.639320225002L25.46785643101 44.721779674049L16.488589908301 72.360679774998L40 55.28L63.511410091699 72.360679774998L54.53214356899 44.721779674049L78.042260651806 27.639320225002L48.981358655029 27.638220325951L40 0M40 25C48.284271240234 25 55 31.715728759766 55 40C55 48.284271240234 48.284271240234 55 40 55C31.715728759766 55 25 48.284271240234 25 40C25 31.715728759766 31.715728759766 25 40 25" fill-rule="evenodd" fill="#333333"/></g></g></g></svg>