<svg xmlns="http://www.w3.org/2000/svg" width="260" height="180" viewBox="0 0 260 180"><g><defs><clipPath id="clip-g171-3"><rect x="0" y="0" width="260" height="180"/></clipPath></defs><rect x="0" y="0" width="260" height="180" fill="#f2f2f7"/><g transform="matrix(1,0,0,1,10,10)"><defs><clipPath id="clip-g171-2"><path d="M 16 0 L 264 0 C 272.8365559972927 0 280 7.1634440027073065 280 16 L 280 184 C 280 192.8365559972927 272.8365559972927 200 264 200 L 16 200 C 7.1634440027073065 200 0 192.8365559972927 0 184 L 0 16 C 0 7.1634440027073065 7.1634440027073065 0 16 0 Z"/></clipPath></defs><g clip-path="url(#clip-g171-2)"><path d="M 16 0 L 264 0 C 272.8365559972927 0 280 7.1634440027073065 280 16 L 280 184 C 280 192.8365559972927 272.8365559972927 200 264 200 L 16 200 C 7.1634440027073065 200 0 192.8365559972927 0 184 L 0 16 C 0 7.1634440027073065 7.1634440027073065 0 16 0 Z" fill="#ffffff"/><g><defs><clipPath id="clip-g171-0"><rect x="0" y="0" width="280" height="48"/></clipPath></defs><g clip-path="url(#clip-g171-0)"><rect x="0" y="0" width="280" height="48" fill="#007aff"/><g transform="matrix(1,0,0,1,0,44)" opacity="0.10000000149011612"><rect x="0" y="0" width="280" height="4" fill="#000000"/></g></g></g><g transform="matrix(1,0,0,1,0,48)"><defs><clipPath id="clip-g171-1"><rect x="0" y="0" width="280" height="120"/></clipPath></defs><g clip-path="url(#clip-g171-1)"><rect x="0" y="0" width="280" height="120" fill="#ffffff"/><g transform="matrix(1,0,0,1,16,16)"><path d="M 8 0 L 112 0 C 116.41827799864635 0 120 3.5817220013536533 120 8 L 120 72 C 120 76.41827799864635 116.41827799864635 80 112 80 L 8 80 C 3.5817220013536533 80 0 76.41827799864635 0 72 L 0 8 C 0 3.5817220013536533 3.5817220013536533 0 8 0 Z" fill="#f2f2f7"/></g><g transform="matrix(1,0,0,1,144,16)"><path d="M 8 0 L 112 0 C 116.41827799864635 0 120 3.5817220013536533 120 8 L 120 72 C 120 76.41827799864635 116.41827799864635 80 112 80 L 8 80 C 3.5817220013536533 80 0 76.41827799864635 0 72 L 0 8 C 0 3.5817220013536533 3.5817220013536533 0 8 0 Z" fill="#f2f2f7"/></g></g></g><g transform="matrix(1,0,0,1,0,168)"><rect x="0" y="0" width="280" height="32" fill="#f2f2f7"/></g></g></g></g></svg>