<svg xmlns="http://www.w3.org/2000/svg" width="1200" height="800" viewBox="0 0 1200 800"><defs><clipPath id="clip-0"><rect x="0" y="0" width="64" height="64" rx="32" fill="black"/></clipPath><clipPath id="clip-1"><rect x="0" y="0" width="200" height="120" rx="16" fill="black"/></clipPath><clipPath id="clip-2"><rect x="0" y="0" width="200" height="120" rx="16" fill="black"/></clipPath><clipPath id="clip-3"><rect x="0" y="0" width="240" height="160" rx="20" fill="black"/></clipPath><clipPath id="clip-4"><rect x="0" y="0" width="200" height="120" rx="16" fill="black"/></clipPath><clipPath id="clip-5"><rect x="0" y="0" width="240" height="160" rx="20" fill="black"/></clipPath><clipPath id="clip-6"><rect x="0" y="0" width="280" height="180" rx="12" fill="black"/></clipPath><clipPath id="clip-7"><rect x="0" y="0" width="200" height="140" rx="24" fill="black"/></clipPath><clipPath id="clip-8"><rect x="0" y="0" width="64" height="64" rx="32" fill="black"/></clipPath><clipPath id="clip-9"><path d="M 0.00 0.00 L 84.00 0.00 L 84.00 84.00 L 0.00 84.00 L 0.00 0.00" fill-rule="nonzero" fill="black"/></clipPath><clipPath id="clip-10"><rect x="0" y="0" width="64" height="64" rx="32" fill="black"/></clipPath><clipPath id="clip-11"><path d="M 0.00 0.00 L 60.00 0.00 L 60.00 60.00 L 0.00 60.00 L 0.00 0.00" fill-rule="nonzero" fill="black"/></clipPath><clipPath id="clip-12"><rect x="0" y="0" width="200" height="120" rx="16" fill="black"/></clipPath><clipPath id="clip-13"><path d="M 0.00 0.00 L 220.00 0.00 L 220.00 140.00 L 0.00 140.00 L 0.00 0.00" fill-rule="nonzero" fill="black"/></clipPath><clipPath id="clip-14"><rect x="0" y="0" width="200" height="140" rx="24" fill="black"/></clipPath><clipPath id="clip-15"><path d="M 0.00 0.00 L 220.00 0.00 L 220.00 160.00 L 0.00 160.00 L 0.00 0.00" fill-rule="nonzero" fill="black"/></clipPath><clipPath id="clip-16"><rect x="0" y="0" width="200" height="120" rx="16" fill="black"/></clipPath><clipPath id="clip-17"><rect x="0" y="0" width="240" height="160" rx="20" fill="black"/></clipPath><clipPath id="clip-18"><path d="M 0.00 0.00 L 260.00 0.00 L 260.00 180.00 L 0.00 180.00 L 0.00 0.00" fill-rule="nonzero" fill="black"/></clipPath><clipPath id="clip-19"><rect x="0" y="0" width="200" height="120" rx="16" fill="black"/></clipPath><clipPath id="clip-20"><rect x="0" y="0" width="240" height="160" rx="20" fill="black"/></clipPath><clipPath id="clip-21"><rect x="0" y="0" width="280" height="180" rx="12" fill="black"/></clipPath><clipPath id="clip-22"><path d="M 0.00 0.00 L 300.00 0.00 L 300.00 200.00 L 0.00 200.00 L 0.00 0.00" fill-rule="nonzero" fill="black"/></clipPath><clipPath id="clip-23"><rect x="0" y="0" width="200" height="120" rx="16" fill="black"/></clipPath><clipPath id="clip-24"><rect x="0" y="0" width="240" height="160" rx="20" fill="black"/></clipPath><clipPath id="clip-25"><rect x="0" y="0" width="280" height="180" rx="12" fill="black"/></clipPath><clipPath id="clip-26"><path d="M 0.00 0.00 L 240.00 0.00 L 240.00 160.00 L 0.00 160.00 L 0.00 0.00" fill-rule="nonzero" fill="black"/></clipPath><clipPath id="clip-27"><rect x="0" y="0" width="64" height="64" rx="32" fill="black"/></clipPath><clipPath id="clip-28"><rect x="0" y="0" width="64" height="64" rx="32" fill="black"/></clipPath><clipPath id="clip-29"><rect x="0" y="0" width="64" height="64" rx="32" fill="black"/></clipPath><clipPath id="clip-30"><path d="M 0.00 0.00 L 260.00 0.00 L 260.00 84.00 L 0.00 84.00 L 0.00 0.00" fill-rule="nonzero" fill="black"/></clipPath></defs><g><rect x="0" y="0" width="64" height="64" rx="32" fill="#c7c7cc"/><g clip-path="url(#clip-0)"><path d="M 0.00 0.00 L 80.00 0.00 L 80.00 80.00 L 0.00 80.00 L 0.00 0.00" fill-rule="nonzero" transform="matrix(1, 0, 0, 1, -8, -8)" fill="#af52de"/><ellipse cx="10" cy="10" rx="10" ry="10" transform="matrix(1, 0, 0, 1, 22, 22)" fill="#ff9500"/></g></g><g transform="matrix(1, 0, 0, 1, 200, 0)"><rect x="0" y="0" width="200" height="120" rx="16" fill="#f2f2f7"/><g clip-path="url(#clip-1)"><path d="M 8.00 0.00 L 152.00 0.00 C 156.42 0.00 160.00 3.58 160.00 8.00 L 160.00 92.00 C 160.00 96.42 156.42 100.00 152.00 100.00 L 8.00 100.00 C 3.58 100.00 0.00 96.42 0.00 92.00 L 0.00 8.00 C 0.00 3.58 3.58 0.00 8.00 0.00" fill-rule="nonzero" transform="matrix(1, 0, 0, 1, 60, 40)" fill="#ff3b30"/><path d="M 8.00 0.00 L 72.00 0.00 C 76.42 0.00 80.00 3.58 80.00 8.00 L 80.00 52.00 C 80.00 56.42 76.42 60.00 72.00 60.00 L 8.00 60.00 C 3.58 60.00 0.00 56.42 0.00 52.00 L 0.00 8.00 C 0.00 3.58 3.58 0.00 8.00 0.00" fill-rule="nonzero" transform="matrix(1, 0, 0, 1, 12, 12)" fill="#007aff"/></g></g><g transform="matrix(1, 0, 0, 1, 500, 0)"><rect x="0" y="0" width="240" height="160" rx="20" fill="#ffffff"/><g clip-path="url(#clip-3)"><g transform="matrix(1, 0, 0, 1, 20, 20)"><rect x="0" y="0" width="200" height="120" rx="16" fill="#f2f2f7"/><g clip-path="url(#clip-2)"><path d="M 8.00 0.00 L 152.00 0.00 C 156.42 0.00 160.00 3.58 160.00 8.00 L 160.00 92.00 C 160.00 96.42 156.42 100.00 152.00 100.00 L 8.00 100.00 C 3.58 100.00 0.00 96.42 0.00 92.00 L 0.00 8.00 C 0.00 3.58 3.58 0.00 8.00 0.00" fill-rule="nonzero" transform="matrix(1, 0, 0, 1, 60, 40)" fill="#ff3b30"/><path d="M 8.00 0.00 L 72.00 0.00 C 76.42 0.00 80.00 3.58 80.00 8.00 L 80.00 52.00 C 80.00 56.42 76.42 60.00 72.00 60.00 L 8.00 60.00 C 3.58 60.00 0.00 56.42 0.00 52.00 L 0.00 8.00 C 0.00 3.58 3.58 0.00 8.00 0.00" fill-rule="nonzero" transform="matrix(1, 0, 0, 1, 12, 12)" fill="#007aff"/></g></g></g></g><g transform="matrix(1, 0, 0, 1, 800, 0)"><rect x="0" y="0" width="280" height="180" rx="12" fill="#1c1c1e"/><g clip-path="url(#clip-6)"><g transform="matrix(1, 0, 0, 1, 20, 10)"><rect x="0" y="0" width="240" height="160" rx="20" fill="#ffffff"/><g clip-path="url(#clip-5)"><g transform="matrix(1, 0, 0, 1, 20, 20)"><rect x="0" y="0" width="200" height="120" rx="16" fill="#f2f2f7"/><g clip-path="url(#clip-4)"><path d="M 8.00 0.00 L 152.00 0.00 C 156.42 0.00 160.00 3.58 160.00 8.00 L 160.00 92.00 C 160.00 96.42 156.42 100.00 152.00 100.00 L 8.00 100.00 C 3.58 100.00 0.00 96.42 0.00 92.00 L 0.00 8.00 C 0.00 3.58 3.58 0.00 8.00 0.00" fill-rule="nonzero" transform="matrix(1, 0, 0, 1, 60, 40)" fill="#ff3b30"/><path d="M 8.00 0.00 L 72.00 0.00 C 76.42 0.00 80.00 3.58 80.00 8.00 L 80.00 52.00 C 80.00 56.42 76.42 60.00 72.00 60.00 L 8.00 60.00 C 3.58 60.00 0.00 56.42 0.00 52.00 L 0.00 8.00 C 0.00 3.58 3.58 0.00 8.00 0.00" fill-rule="nonzero" transform="matrix(1, 0, 0, 1, 12, 12)" fill="#007aff"/></g></g></g></g></g></g><g transform="matrix(1, 0, 0, 1, 1150, 0)"><rect x="0" y="0" width="200" height="140" rx="24" fill="#ffffff"/><g clip-path="url(#clip-7)"><path d="M 0.00 0.00 L 60.00 0.00 L 60.00 40.00 L 0.00 40.00 L 0.00 0.00" fill-rule="nonzero" fill="#ff3b30"/><path d="M 0.00 0.00 L 60.00 0.00 L 60.00 40.00 L 0.00 40.00 L 0.00 0.00" fill-rule="nonzero" transform="matrix(1, 0, 0, 1, 140, 0)" fill="#34c759"/><path d="M 0.00 0.00 L 60.00 0.00 L 60.00 40.00 L 0.00 40.00 L 0.00 0.00" fill-rule="nonzero" transform="matrix(1, 0, 0, 1, 0, 100)" fill="#007aff"/><path d="M 0.00 0.00 L 60.00 0.00 L 60.00 40.00 L 0.00 40.00 L 0.00 0.00" fill-rule="nonzero" transform="matrix(1, 0, 0, 1, 140, 100)" fill="#ff9500"/><ellipse cx="40" cy="30" rx="40" ry="30" transform="matrix(1, 0, 0, 1, 60, 40)" fill="#af52de"/></g></g><g transform="matrix(1, 0, 0, 1, 50, 650)"><path d="M 0.00 0.00 L 84.00 0.00 L 84.00 84.00 L 0.00 84.00 L 0.00 0.00" fill-rule="nonzero" fill="#ffffff"/><g clip-path="url(#clip-9)"><g transform="matrix(1, 0, 0, 1, 10, 10)"><rect x="0" y="0" width="64" height="64" rx="32" fill="#c7c7cc"/><g clip-path="url(#clip-8)"><path d="M 0.00 0.00 L 80.00 0.00 L 80.00 80.00 L 0.00 80.00 L 0.00 0.00" fill-rule="nonzero" transform="matrix(1, 0, 0, 1, -8, -8)" fill="#af52de"/><ellipse cx="10" cy="10" rx="10" ry="10" transform="matrix(1, 0, 0, 1, 22, 22)" fill="#ff9500"/></g></g></g></g><g transform="matrix(1, 0, 0, 1, 170, 650)"><path d="M 0.00 0.00 L 60.00 0.00 L 60.00 60.00 L 0.00 60.00 L 0.00 0.00" fill-rule="nonzero" fill="#ffffff"/><g clip-path="url(#clip-11)"><g transform="matrix(1, 0, 0, 1, 10, 10)"><rect x="0" y="0" width="64" height="64" rx="32" fill="#c7c7cc"/><g clip-path="url(#clip-10)"><path d="M 0.00 0.00 L 80.00 0.00 L 80.00 80.00 L 0.00 80.00 L 0.00 0.00" fill-rule="nonzero" transform="matrix(1, 0, 0, 1, -8, -8)" fill="#af52de"/><ellipse cx="10" cy="10" rx="10" ry="10" transform="matrix(1, 0, 0, 1, 22, 22)" fill="#ff9500"/></g></g></g></g><g transform="matrix(1, 0, 0, 1, 260, 650)"><path d="M 0.00 0.00 L 220.00 0.00 L 220.00 140.00 L 0.00 140.00 L 0.00 0.00" fill-rule="nonzero" fill="#ffffff"/><g clip-path="url(#clip-13)"><g transform="matrix(1, 0, 0, 1, 10, 10)"><rect x="0" y="0" width="200" height="120" rx="16" fill="#f2f2f7"/><g clip-path="url(#clip-12)"><path d="M 8.00 0.00 L 152.00 0.00 C 156.42 0.00 160.00 3.58 160.00 8.00 L 160.00 92.00 C 160.00 96.42 156.42 100.00 152.00 100.00 L 8.00 100.00 C 3.58 100.00 0.00 96.42 0.00 92.00 L 0.00 8.00 C 0.00 3.58 3.58 0.00 8.00 0.00" fill-rule="nonzero" transform="matrix(1, 0, 0, 1, 60, 40)" fill="#ff3b30"/><path d="M 8.00 0.00 L 72.00 0.00 C 76.42 0.00 80.00 3.58 80.00 8.00 L 80.00 52.00 C 80.00 56.42 76.42 60.00 72.00 60.00 L 8.00 60.00 C 3.58 60.00 0.00 56.42 0.00 52.00 L 0.00 8.00 C 0.00 3.58 3.58 0.00 8.00 0.00" fill-rule="nonzero" transform="matrix(1, 0, 0, 1, 12, 12)" fill="#007aff"/></g></g></g></g><g transform="matrix(1, 0, 0, 1, 510, 650)"><path d="M 0.00 0.00 L 220.00 0.00 L 220.00 160.00 L 0.00 160.00 L 0.00 0.00" fill-rule="nonzero" fill="#f2f2f7"/><g clip-path="url(#clip-15)"><g transform="matrix(1, 0, 0, 1, 10, 10)"><rect x="0" y="0" width="200" height="140" rx="24" fill="#ffffff"/><g clip-path="url(#clip-14)"><path d="M 0.00 0.00 L 60.00 0.00 L 60.00 40.00 L 0.00 40.00 L 0.00 0.00" fill-rule="nonzero" fill="#ff3b30"/><path d="M 0.00 0.00 L 60.00 0.00 L 60.00 40.00 L 0.00 40.00 L 0.00 0.00" fill-rule="nonzero" transform="matrix(1, 0, 0, 1, 140, 0)" fill="#34c759"/><path d="M 0.00 0.00 L 60.00 0.00 L 60.00 40.00 L 0.00 40.00 L 0.00 0.00" fill-rule="nonzero" transform="matrix(1, 0, 0, 1, 0, 100)" fill="#007aff"/><path d="M 0.00 0.00 L 60.00 0.00 L 60.00 40.00 L 0.00 40.00 L 0.00 0.00" fill-rule="nonzero" transform="matrix(1, 0, 0, 1, 140, 100)" fill="#ff9500"/><ellipse cx="40" cy="30" rx="40" ry="30" transform="matrix(1, 0, 0, 1, 60, 40)" fill="#af52de"/></g></g></g></g><g transform="matrix(1, 0, 0, 1, 50, 850)"><path d="M 0.00 0.00 L 260.00 0.00 L 260.00 180.00 L 0.00 180.00 L 0.00 0.00" fill-rule="nonzero" fill="#ffffff"/><g clip-path="url(#clip-18)"><g transform="matrix(1, 0, 0, 1, 10, 10)"><rect x="0" y="0" width="240" height="160" rx="20" fill="#ffffff"/><g clip-path="url(#clip-17)"><g transform="matrix(1, 0, 0, 1, 20, 20)"><rect x="0" y="0" width="200" height="120" rx="16" fill="#f2f2f7"/><g clip-path="url(#clip-16)"><path d="M 8.00 0.00 L 152.00 0.00 C 156.42 0.00 160.00 3.58 160.00 8.00 L 160.00 92.00 C 160.00 96.42 156.42 100.00 152.00 100.00 L 8.00 100.00 C 3.58 100.00 0.00 96.42 0.00 92.00 L 0.00 8.00 C 0.00 3.58 3.58 0.00 8.00 0.00" fill-rule="nonzero" transform="matrix(1, 0, 0, 1, 60, 40)" fill="#ff3b30"/><path d="M 8.00 0.00 L 72.00 0.00 C 76.42 0.00 80.00 3.58 80.00 8.00 L 80.00 52.00 C 80.00 56.42 76.42 60.00 72.00 60.00 L 8.00 60.00 C 3.58 60.00 0.00 56.42 0.00 52.00 L 0.00 8.00 C 0.00 3.58 3.58 0.00 8.00 0.00" fill-rule="nonzero" transform="matrix(1, 0, 0, 1, 12, 12)" fill="#007aff"/></g></g></g></g></g></g><g transform="matrix(1, 0, 0, 1, 340, 850)"><path d="M 0.00 0.00 L 300.00 0.00 L 300.00 200.00 L 0.00 200.00 L 0.00 0.00" fill-rule="nonzero" fill="#ffffff"/><g clip-path="url(#clip-22)"><g transform="matrix(1, 0, 0, 1, 10, 10)"><rect x="0" y="0" width="280" height="180" rx="12" fill="#1c1c1e"/><g clip-path="url(#clip-21)"><g transform="matrix(1, 0, 0, 1, 20, 10)"><rect x="0" y="0" width="240" height="160" rx="20" fill="#ffffff"/><g clip-path="url(#clip-20)"><g transform="matrix(1, 0, 0, 1, 20, 20)"><rect x="0" y="0" width="200" height="120" rx="16" fill="#f2f2f7"/><g clip-path="url(#clip-19)"><path d="M 8.00 0.00 L 152.00 0.00 C 156.42 0.00 160.00 3.58 160.00 8.00 L 160.00 92.00 C 160.00 96.42 156.42 100.00 152.00 100.00 L 8.00 100.00 C 3.58 100.00 0.00 96.42 0.00 92.00 L 0.00 8.00 C 0.00 3.58 3.58 0.00 8.00 0.00" fill-rule="nonzero" transform="matrix(1, 0, 0, 1, 60, 40)" fill="#ff3b30"/><path d="M 8.00 0.00 L 72.00 0.00 C 76.42 0.00 80.00 3.58 80.00 8.00 L 80.00 52.00 C 80.00 56.42 76.42 60.00 72.00 60.00 L 8.00 60.00 C 3.58 60.00 0.00 56.42 0.00 52.00 L 0.00 8.00 C 0.00 3.58 3.58 0.00 8.00 0.00" fill-rule="nonzero" transform="matrix(1, 0, 0, 1, 12, 12)" fill="#007aff"/></g></g></g></g></g></g></g></g><g transform="matrix(1, 0, 0, 1, 670, 850)"><path d="M 0.00 0.00 L 240.00 0.00 L 240.00 160.00 L 0.00 160.00 L 0.00 0.00" fill-rule="nonzero" fill="#ffffff"/><g clip-path="url(#clip-26)"><g transform="matrix(1, 0, 0, 1, 10, 10)"><rect x="0" y="0" width="280" height="180" rx="12" fill="#1c1c1e"/><g clip-path="url(#clip-25)"><g transform="matrix(1, 0, 0, 1, 20, 10)"><rect x="0" y="0" width="240" height="160" rx="20" fill="#ffffff"/><g clip-path="url(#clip-24)"><g transform="matrix(1, 0, 0, 1, 20, 20)"><rect x="0" y="0" width="200" height="120" rx="16" fill="#f2f2f7"/><g clip-path="url(#clip-23)"><path d="M 8.00 0.00 L 152.00 0.00 C 156.42 0.00 160.00 3.58 160.00 8.00 L 160.00 92.00 C 160.00 96.42 156.42 100.00 152.00 100.00 L 8.00 100.00 C 3.58 100.00 0.00 96.42 0.00 92.00 L 0.00 8.00 C 0.00 3.58 3.58 0.00 8.00 0.00" fill-rule="nonzero" transform="matrix(1, 0, 0, 1, 60, 40)" fill="#ff3b30"/><path d="M 8.00 0.00 L 72.00 0.00 C 76.42 0.00 80.00 3.58 80.00 8.00 L 80.00 52.00 C 80.00 56.42 76.42 60.00 72.00 60.00 L 8.00 60.00 C 3.58 60.00 0.00 56.42 0.00 52.00 L 0.00 8.00 C 0.00 3.58 3.58 0.00 8.00 0.00" fill-rule="nonzero" transform="matrix(1, 0, 0, 1, 12, 12)" fill="#007aff"/></g></g></g></g></g></g></g></g><g transform="matrix(1, 0, 0, 1, 50, 1080)"><path d="M 0.00 0.00 L 260.00 0.00 L 260.00 84.00 L 0.00 84.00 L 0.00 0.00" fill-rule="nonzero" fill="#ffffff"/><g clip-path="url(#clip-30)"><g transform="matrix(1, 0, 0, 1, 10, 10)"><rect x="0" y="0" width="64" height="64" rx="32" fill="#c7c7cc"/><g clip-path="url(#clip-27)"><path d="M 0.00 0.00 L 80.00 0.00 L 80.00 80.00 L 0.00 80.00 L 0.00 0.00" fill-rule="nonzero" transform="matrix(1, 0, 0, 1, -8, -8)" fill="#af52de"/><ellipse cx="10" cy="10" rx="10" ry="10" transform="matrix(1, 0, 0, 1, 22, 22)" fill="#ff9500"/></g></g><g transform="matrix(1, 0, 0, 1, 94, 10)"><rect x="0" y="0" width="64" height="64" rx="32" fill="#c7c7cc"/><g clip-path="url(#clip-28)"><path d="M 0.00 0.00 L 80.00 0.00 L 80.00 80.00 L 0.00 80.00 L 0.00 0.00" fill-rule="nonzero" transform="matrix(1, 0, 0, 1, -8, -8)" fill="#af52de"/><ellipse cx="10" cy="10" rx="10" ry="10" transform="matrix(1, 0, 0, 1, 22, 22)" fill="#ff9500"/></g></g><g transform="matrix(1, 0, 0, 1, 178, 10)"><rect x="0" y="0" width="64" height="64" rx="32" fill="#c7c7cc"/><g clip-path="url(#clip-29)"><path d="M 0.00 0.00 L 80.00 0.00 L 80.00 80.00 L 0.00 80.00 L 0.00 0.00" fill-rule="nonzero" transform="matrix(1, 0, 0, 1, -8, -8)" fill="#af52de"/><ellipse cx="10" cy="10" rx="10" ry="10" transform="matrix(1, 0, 0, 1, 22, 22)" fill="#ff9500"/></g></g></g></g></svg>