<svg xmlns="http://www.w3.org/2000/svg" width="300" height="200" viewBox="0 0 300 200"><g><defs><clipPath id="clip-g181-3"><rect x="0" y="0" width="300" height="200"/></clipPath></defs><rect x="0" y="0" width="300" height="200" fill="#ffffff"/><g transform="matrix(1,0,0,1,10,10)"><defs><clipPath id="clip-g181-2"><path d="M 12 0 L 268 0 C 274.62741699796953 0 280 5.3725830020304794 280 12 L 280 168 C 280 174.62741699796953 274.62741699796953 180 268 180 L 12 180 C 5.3725830020304794 180 0 174.62741699796953 0 168 L 0 12 C 0 5.3725830020304794 5.3725830020304794 0 12 0 Z"/></clipPath></defs><g clip-path="url(#clip-g181-2)"><path d="M 12 0 L 268 0 C 274.62741699796953 0 280 5.3725830020304794 280 12 L 280 168 C 280 174.62741699796953 274.62741699796953 180 268 180 L 12 180 C 5.3725830020304794 180 0 174.62741699796953 0 168 L 0 12 C 0 5.3725830020304794 5.3725830020304794 0 12 0 Z" fill="#1c1c1e"/><g transform="matrix(1,0,0,1,20,10)"><defs><clipPath id="clip-g181-1"><path d="M 20 0 L 220 0 C 231.04569499661588 0 240 8.954305003384134 240 20 L 240 140 C 240 151.04569499661588 231.04569499661588 160 220 160 L 20 160 C 8.954305003384134 160 0 151.04569499661588 0 140 L 0 20 C 0 8.954305003384134 8.954305003384134 0 20 0 Z"/></clipPath></defs><g clip-path="url(#clip-g181-1)"><path d="M 20 0 L 220 0 C 231.04569499661588 0 240 8.954305003384134 240 20 L 240 140 C 240 151.04569499661588 231.04569499661588 160 220 160 L 20 160 C 8.954305003384134 160 0 151.04569499661588 0 140 L 0 20 C 0 8.954305003384134 8.954305003384134 0 20 0 Z" fill="#ffffff"/><g transform="matrix(1,0,0,1,20,20)"><defs><clipPath id="clip-g181-0"><path d="M 16 0 L 184 0 C 192.8365559972927 0 200 7.1634440027073065 200 16 L 200 104 C 200 112.83655599729269 192.8365559972927 120 184 120 L 16 120 C 7.1634440027073065 120 0 112.83655599729269 0 104 L 0 16 C 0 7.1634440027073065 7.1634440027073065 0 16 0 Z"/></clipPath></defs><g clip-path="url(#clip-g181-0)"><path d="M 16 0 L 184 0 C 192.8365559972927 0 200 7.1634440027073065 200 16 L 200 104 C 200 112.83655599729269 192.8365559972927 120 184 120 L 16 120 C 7.1634440027073065 120 0 112.83655599729269 0 104 L 0 16 C 0 7.1634440027073065 7.1634440027073065 0 16 0 Z" fill="#f2f2f7"/><g transform="matrix(1,0,0,1,60,40)"><path d="M 8 0 L 152 0 C 156.41827799864635 0 160 3.5817220013536533 160 8 L 160 92 C 160 96.41827799864635 156.41827799864635 100 152 100 L 8 100 C 3.5817220013536533 100 0 96.41827799864635 0 92 L 0 8 C 0 3.5817220013536533 3.5817220013536533 0 8 0 Z" fill="#ff3b30"/></g><g transform="matrix(1,0,0,1,12,12)"><path d="M 8 0 L 72 0 C 76.41827799864635 0 80 3.5817220013536533 80 8 L 80 52 C 80 56.418277998646346 76.41827799864635 60 72 60 L 8 60 C 3.5817220013536533 60 0 56.418277998646346 0 52 L 0 8 C 0 3.5817220013536533 3.5817220013536533 0 8 0 Z" fill="#007aff"/></g></g></g></g></g></g></g></g></svg>