<svg xmlns="http://www.w3.org/2000/svg" width="180" height="100" viewBox="0 0 180 100"><g><defs><clipPath id="clip-g197-1"><rect x="0" y="0" width="180" height="100"/></clipPath></defs><rect x="0" y="0" width="180" height="100" fill="#ffffff"/><g transform="matrix(1,0,0,1,10,10)"><defs><clipPath id="clip-g197-0"><path d="M 12 0 L 148 0 C 154.62741699796953 0 160 5.3725830020304794 160 12 L 160 68 C 160 74.62741699796952 154.62741699796953 80 148 80 L 12 80 C 5.3725830020304794 80 0 74.62741699796952 0 68 L 0 12 C 0 5.3725830020304794 5.3725830020304794 0 12 0 Z"/></clipPath></defs><g clip-path="url(#clip-g197-0)"><path d="M 12 0 L 148 0 C 154.62741699796953 0 160 5.3725830020304794 160 12 L 160 68 C 160 74.62741699796952 154.62741699796953 80 148 80 L 12 80 C 5.3725830020304794 80 0 74.62741699796952 0 68 L 0 12 C 0 5.3725830020304794 5.3725830020304794 0 12 0 Z" fill="#f2f2f7"/><g transform="matrix(1,0,0,1,10,10)"><path d="M 6 0 L 34 0 C 37.31370849898476 0 40 2.6862915010152397 40 6 L 40 34 C 40 37.31370849898476 37.31370849898476 40 34 40 L 6 40 C 2.6862915010152397 40 0 37.31370849898476 0 34 L 0 6 C 0 2.6862915010152397 2.6862915010152397 0 6 0 Z" fill="#ff3b30"/></g><g transform="matrix(1,0,0,1,110,10)"><path d="M 6 0 L 34 0 C 37.31370849898476 0 40 2.6862915010152397 40 6 L 40 34 C 40 37.31370849898476 37.31370849898476 40 34 40 L 6 40 C 2.6862915010152397 40 0 37.31370849898476 0 34 L 0 6 C 0 2.6862915010152397 2.6862915010152397 0 6 0 Z" fill="#34c759"/></g><g transform="matrix(1,0,0,1,65,25)"><circle cx="15" cy="15" r="15" fill="#af52de"/></g><g transform="matrix(1,0,0,1,10,50)"><path d="M 4 0 L 136 0 C 138.2091389993232 0 140 1.7908610006768266 140 4 L 140 16 C 140 18.209138999323173 138.2091389993232 20 136 20 L 4 20 C 1.7908610006768266 20 0 18.209138999323173 0 16 L 0 4 C 0 1.7908610006768266 1.7908610006768266 0 4 0 Z" fill="#ff9500"/></g></g></g></g></svg>