<svg xmlns="http://www.w3.org/2000/svg" width="220" height="140" viewBox="0 0 220 140"><g><defs><clipPath id="clip-g32-1"><rect x="0" y="0" width="220" height="140"/></clipPath></defs><g clip-path="url(#clip-g32-1)"><rect x="0" y="0" width="220" height="140" fill="#f2f2f7"/><g transform="matrix(1,0,0,1,10,10)"><defs><clipPath id="clip-g32-0"><path d="M 12 0 L 188 0 C 194.62741699796953 0 200 5.3725830020304794 200 12 L 200 108 C 200 114.62741699796952 194.62741699796953 120 188 120 L 12 120 C 5.3725830020304794 120 0 114.62741699796952 0 108 L 0 12 C 0 5.3725830020304794 5.3725830020304794 0 12 0 Z"/></clipPath></defs><g clip-path="url(#clip-g32-0)"><path d="M 12 0 L 188 0 C 194.62741699796953 0 200 5.3725830020304794 200 12 L 200 108 C 200 114.62741699796952 194.62741699796953 120 188 120 L 12 120 C 5.3725830020304794 120 0 114.62741699796952 0 108 L 0 12 C 0 5.3725830020304794 5.3725830020304794 0 12 0 Z" fill="#ffffff"/><g transform="matrix(1,0,0,1,20,20)"><path d="M 8 0 L 152 0 C 156.41827799864635 0 160 3.5817220013536533 160 8 L 160 72 C 160 76.41827799864635 156.41827799864635 80 152 80 L 8 80 C 3.5817220013536533 80 0 76.41827799864635 0 72 L 0 8 C 0 3.5817220013536533 3.5817220013536533 0 8 0 Z" fill="#007aff"/></g></g></g></g></g></svg>