<svg xmlns="http://www.w3.org/2000/svg" width="340" height="200" viewBox="0 0 340 200"><g><defs><clipPath id="clip-g196-1"><rect x="0" y="0" width="340" height="200"/></clipPath></defs><rect x="0" y="0" width="340" height="200" fill="#ffffff"/><g transform="matrix(1,0,0,1,10,10)"><defs><clipPath id="clip-g196-0"><path d="M 12 0 L 308 0 C 314.62741699796953 0 320 5.3725830020304794 320 12 L 320 168 C 320 174.62741699796953 314.62741699796953 180 308 180 L 12 180 C 5.3725830020304794 180 0 174.62741699796953 0 168 L 0 12 C 0 5.3725830020304794 5.3725830020304794 0 12 0 Z"/></clipPath></defs><g clip-path="url(#clip-g196-0)"><path d="M 12 0 L 308 0 C 314.62741699796953 0 320 5.3725830020304794 320 12 L 320 168 C 320 174.62741699796953 314.62741699796953 180 308 180 L 12 180 C 5.3725830020304794 180 0 174.62741699796953 0 168 L 0 12 C 0 5.3725830020304794 5.3725830020304794 0 12 0 Z" fill="#f2f2f7"/><g transform="matrix(1,0,0,1,10,10)"><path d="M 6 0 L 34 0 C 37.31370849898476 0 40 2.6862915010152397 40 6 L 40 34 C 40 37.31370849898476 37.31370849898476 40 34 40 L 6 40 C 2.6862915010152397 40 0 37.31370849898476 0 34 L 0 6 C 0 2.6862915010152397 2.6862915010152397 0 6 0 Z" fill="#ff3b30"/></g><g transform="matrix(1,0,0,1,270,10)"><path d="M 6 0 L 34 0 C 37.31370849898476 0 40 2.6862915010152397 40 6 L 40 34 C 40 37.31370849898476 37.31370849898476 40 34 40 L 6 40 C 2.6862915010152397 40 0 37.31370849898476 0 34 L 0 6 C 0 2.6862915010152397 2.6862915010152397 0 6 0 Z" fill="#34c759"/></g><g transform="matrix(1,0,0,1,145,75)"><circle cx="15" cy="15" r="15" fill="#af52de"/></g><g transform="matrix(1,0,0,1,10,150)"><path d="M 4 0 L 296 0 C 298.20913899932316 0 300 1.7908610006768266 300 4 L 300 16 C 300 18.209138999323173 298.20913899932316 20 296 20 L 4 20 C 1.7908610006768266 20 0 18.209138999323173 0 16 L 0 4 C 0 1.7908610006768266 1.7908610006768266 0 4 0 Z" fill="#ff9500"/></g></g></g></g></svg>