<svg xmlns="http://www.w3.org/2000/svg" width="280" height="160" viewBox="0 0 280 160"><g><defs><clipPath id="clip-g190-6"><rect x="0" y="0" width="280" height="160"/></clipPath></defs><rect x="0" y="0" width="280" height="160" fill="#ffffff"/><g transform="matrix(1,0,0,1,10,10)"><defs><clipPath id="clip-g190-5"><path d="M 20 0 L 240 0 C 251.04569499661588 0 260 8.954305003384134 260 20 L 260 120 C 260 131.04569499661588 251.04569499661588 140 240 140 L 20 140 C 8.954305003384134 140 0 131.04569499661588 0 120 L 0 20 C 0 8.954305003384134 8.954305003384134 0 20 0 Z"/></clipPath></defs><g clip-path="url(#clip-g190-5)"><path d="M 20 0 L 240 0 C 251.04569499661588 0 260 8.954305003384134 260 20 L 260 120 C 260 131.04569499661588 251.04569499661588 140 240 140 L 20 140 C 8.954305003384134 140 0 131.04569499661588 0 120 L 0 20 C 0 8.954305003384134 8.954305003384134 0 20 0 Z" fill="#f2f2f7"/><g transform="matrix(1,0,0,1,20,16)"><defs><clipPath id="clip-g190-3"><path d="M 16 0 L 204 0 C 212.8365559972927 0 220 7.1634440027073065 220 16 L 220 92 C 220 100.83655599729269 212.8365559972927 108 204 108 L 16 108 C 7.1634440027073065 108 0 100.83655599729269 0 92 L 0 16 C 0 7.1634440027073065 7.1634440027073065 0 16 0 Z"/></clipPath></defs><g clip-path="url(#clip-g190-3)"><path d="M 16 0 L 204 0 C 212.8365559972927 0 220 7.1634440027073065 220 16 L 220 92 C 220 100.83655599729269 212.8365559972927 108 204 108 L 16 108 C 7.1634440027073065 108 0 100.83655599729269 0 92 L 0 16 C 0 7.1634440027073065 7.1634440027073065 0 16 0 Z" fill="#ffffff"/><g transform="matrix(1,0,0,1,20,10)"><defs><clipPath id="clip-g190-2"><path d="M 12 0 L 168 0 C 174.62741699796953 0 180 5.3725830020304794 180 12 L 180 56 C 180 62.62741699796952 174.62741699796953 68 168 68 L 12 68 C 5.3725830020304794 68 0 62.62741699796952 0 56 L 0 12 C 0 5.3725830020304794 5.3725830020304794 0 12 0 Z"/></clipPath></defs><g clip-path="url(#clip-g190-2)"><path d="M 12 0 L 168 0 C 174.62741699796953 0 180 5.3725830020304794 180 12 L 180 56 C 180 62.62741699796952 174.62741699796953 68 168 68 L 12 68 C 5.3725830020304794 68 0 62.62741699796952 0 56 L 0 12 C 0 5.3725830020304794 5.3725830020304794 0 12 0 Z" fill="#f2f2f7"/><g transform="matrix(1,0,0,1,10,10)"><defs><clipPath id="clip-g190-0"><path d="M 8 0 L 72 0 C 76.41827799864635 0 80 3.5817220013536533 80 8 L 80 40 C 80 44.418277998646346 76.41827799864635 48 72 48 L 8 48 C 3.5817220013536533 48 0 44.418277998646346 0 40 L 0 8 C 0 3.5817220013536533 3.5817220013536533 0 8 0 Z"/></clipPath></defs><g clip-path="url(#clip-g190-0)"><path d="M 8 0 L 72 0 C 76.41827799864635 0 80 3.5817220013536533 80 8 L 80 40 C 80 44.418277998646346 76.41827799864635 48 72 48 L 8 48 C 3.5817220013536533 48 0 44.418277998646346 0 40 L 0 8 C 0 3.5817220013536533 3.5817220013536533 0 8 0 Z" fill="#007aff"/><g transform="matrix(1,0,0,1,10,10)" opacity="0.30000001192092896"><path d="M 4 0 L 56 0 C 58.20913899932317 0 60 1.7908610006768266 60 4 L 60 24 C 60 26.209138999323173 58.20913899932317 28 56 28 L 4 28 C 1.7908610006768266 28 0 26.209138999323173 0 24 L 0 4 C 0 1.7908610006768266 1.7908610006768266 0 4 0 Z" fill="#ffffff"/></g></g></g><g transform="matrix(1,0,0,1,90,10)"><defs><clipPath id="clip-g190-1"><path d="M 8 0 L 72 0 C 76.41827799864635 0 80 3.5817220013536533 80 8 L 80 40 C 80 44.418277998646346 76.41827799864635 48 72 48 L 8 48 C 3.5817220013536533 48 0 44.418277998646346 0 40 L 0 8 C 0 3.5817220013536533 3.5817220013536533 0 8 0 Z"/></clipPath></defs><g clip-path="url(#clip-g190-1)"><path d="M 8 0 L 72 0 C 76.41827799864635 0 80 3.5817220013536533 80 8 L 80 40 C 80 44.418277998646346 76.41827799864635 48 72 48 L 8 48 C 3.5817220013536533 48 0 44.418277998646346 0 40 L 0 8 C 0 3.5817220013536533 3.5817220013536533 0 8 0 Z" fill="#007aff"/><g transform="matrix(1,0,0,1,10,10)" opacity="0.30000001192092896"><path d="M 4 0 L 56 0 C 58.20913899932317 0 60 1.7908610006768266 60 4 L 60 24 C 60 26.209138999323173 58.20913899932317 28 56 28 L 4 28 C 1.7908610006768266 28 0 26.209138999323173 0 24 L 0 4 C 0 1.7908610006768266 1.7908610006768266 0 4 0 Z" fill="#ffffff"/></g></g></g></g></g><g transform="matrix(1,0,0,1,20,86)"><path d="M 4 0 L 176 0 C 178.2091389993232 0 180 1.7908610006768266 180 4 L 180 4 C 180 6.209138999323173 178.2091389993232 8 176 8 L 4 8 C 1.7908610006768266 8 0 6.209138999323173 0 4 L 0 4 C 0 1.7908610006768266 1.7908610006768266 0 4 0 Z" fill="#ff9500"/></g></g></g><g transform="matrix(1,0,0,1,234,8)"><defs><clipPath id="clip-g190-4"><path d="M 9 0 L 9 0 C 13.970562748477139 0 18 4.02943725152286 18 9 L 18 9 C 18 13.970562748477139 13.970562748477139 18 9 18 L 9 18 C 4.02943725152286 18 0 13.970562748477139 0 9 L 0 9 C 0 4.02943725152286 4.02943725152286 0 9 0 Z"/></clipPath></defs><g clip-path="url(#clip-g190-4)"><path d="M 9 0 L 9 0 C 13.970562748477139 0 18 4.02943725152286 18 9 L 18 9 C 18 13.970562748477139 13.970562748477139 18 9 18 L 9 18 C 4.02943725152286 18 0 13.970562748477139 0 9 L 0 9 C 0 4.02943725152286 4.02943725152286 0 9 0 Z" fill="#ff3b30"/><g transform="matrix(1,0,0,1,6,6)"><circle cx="3" cy="3" r="3" fill="#ffffff"/></g></g></g></g></g></g></svg>