<svg xmlns="http://www.w3.org/2000/svg" width="140" height="100" viewBox="0 0 140 100"><g><defs><clipPath id="clip-g8-4"><rect x="0" y="0" width="140" height="100"/></clipPath></defs><g clip-path="url(#clip-g8-4)"><rect x="0" y="0" width="140" height="100" fill="#ffffff"/><g transform="matrix(1,0,0,1,10,10)"><defs><clipPath id="clip-g8-3"><path d="M 12 0 L 108 0 C 114.62741699796952 0 120 5.3725830020304794 120 12 L 120 68 C 120 74.62741699796952 114.62741699796952 80 108 80 L 12 80 C 5.3725830020304794 80 0 74.62741699796952 0 68 L 0 12 C 0 5.3725830020304794 5.3725830020304794 0 12 0 Z"/></clipPath></defs><g clip-path="url(#clip-g8-3)"><path d="M 12 0 L 108 0 C 114.62741699796952 0 120 5.3725830020304794 120 12 L 120 68 C 120 74.62741699796952 114.62741699796952 80 108 80 L 12 80 C 5.3725830020304794 80 0 74.62741699796952 0 68 L 0 12 C 0 5.3725830020304794 5.3725830020304794 0 12 0 Z" fill="#ffffff"/><g transform="matrix(1,0,0,1,10,10)" filter="url(#filter-g8-2)" style="isolation:isolate"><defs><filter id="filter-g8-2" x="-8" y="-4" width="116" height="76" filterUnits="userSpaceOnUse" color-interpolation-filters="sRGB"><feColorMatrix in="SourceAlpha" type="matrix" values="0 0 0 0 0 0 0 0 0 0 0 0 0 0 0 0 0 0 127 0" result="hardAlpha-g8-0"/><feOffset in="hardAlpha-g8-0" dx="0" dy="4"/><feGaussianBlur stdDeviation="4"/><feColorMatrix type="matrix" values="0 0 0 0 0 0 0 0 0 0 0 0 0 0 0 0 0 0 0.15000000596046448 0" result="drop-tinted-g8-1"/><feMerge><feMergeNode in="drop-tinted-g8-1"/><feMergeNode in="SourceGraphic"/></feMerge></filter></defs><path d="M 8 0 L 92 0 C 96.41827799864635 0 100 3.5817220013536533 100 8 L 100 52 C 100 56.418277998646346 96.41827799864635 60 92 60 L 8 60 C 3.5817220013536533 60 0 56.418277998646346 0 52 L 0 8 C 0 3.5817220013536533 3.5817220013536533 0 8 0 Z" fill="#007aff"/></g></g></g></g></g></svg>