<svg xmlns="http://www.w3.org/2000/svg" width="420" height="84" viewBox="0 0 420 84"><g><defs><clipPath id="clip-g11-9"><rect x="0" y="0" width="420" height="84"/></clipPath></defs><rect x="0" y="0" width="420" height="84" fill="#f2f2f7"/><g transform="matrix(1,0,0,1,10,10)"><defs><clipPath id="clip-g11-8"><rect x="0" y="0" width="320" height="64"/></clipPath></defs><g clip-path="url(#clip-g11-8)"><rect x="0" y="0" width="320" height="64" fill="#1c1c1e"/><g transform="matrix(1,0,0,1,24,4)"><rect x="0" y="0" width="48" height="56" fill="#ffffff"/><g transform="matrix(1,0,0,1,8,4)"><rect x="0" y="0" width="32" height="32" fill="#ffffff"/><g transform="matrix(1,0,0,1,4,8)"><defs><clipPath id="clip-g11-0"><rect x="0" y="0" width="24" height="24"/></clipPath></defs><g clip-path="url(#clip-g11-0)"><rect x="0" y="0" width="24" height="24" fill="#ffffff"/><circle cx="12" cy="12" r="12" fill="#007aff"/></g></g><g transform="matrix(1,0,0,1,18,-4)"><defs><clipPath id="clip-g11-1"><path d="M 9 0 L 9 0 C 13.970562748477139 0 18 4.02943725152286 18 9 L 18 9 C 18 13.970562748477139 13.970562748477139 18 9 18 L 9 18 C 4.02943725152286 18 0 13.970562748477139 0 9 L 0 9 C 0 4.02943725152286 4.02943725152286 0 9 0 Z"/></clipPath></defs><g clip-path="url(#clip-g11-1)"><path d="M 9 0 L 9 0 C 13.970562748477139 0 18 4.02943725152286 18 9 L 18 9 C 18 13.970562748477139 13.970562748477139 18 9 18 L 9 18 C 4.02943725152286 18 0 13.970562748477139 0 9 L 0 9 C 0 4.02943725152286 4.02943725152286 0 9 0 Z" fill="#ff3b30"/><g transform="matrix(1,0,0,1,6,6)"><circle cx="3" cy="3" r="3" fill="#ffffff"/></g></g></g></g><g transform="matrix(1,0,0,1,4,42)"><path d="M 2 0 L 38 0 C 39.10456949966159 0 40 0.8954305003384133 40 2 L 40 8 C 40 9.104569499661586 39.10456949966159 10 38 10 L 2 10 C 0.8954305003384133 10 0 9.104569499661586 0 8 L 0 2 C 0 0.8954305003384133 0.8954305003384133 0 2 0 Z" fill="#aeaeb2"/></g></g><g transform="matrix(1,0,0,1,96,4)"><rect x="0" y="0" width="48" height="56" fill="#ffffff"/><g transform="matrix(1,0,0,1,8,4)"><rect x="0" y="0" width="32" height="32" fill="#ffffff"/><g transform="matrix(1,0,0,1,4,8)"><defs><clipPath id="clip-g11-2"><rect x="0" y="0" width="24" height="24"/></clipPath></defs><g clip-path="url(#clip-g11-2)"><rect x="0" y="0" width="24" height="24" fill="#ffffff"/><circle cx="12" cy="12" r="12" fill="#007aff"/></g></g><g transform="matrix(1,0,0,1,18,-4)"><defs><clipPath id="clip-g11-3"><path d="M 9 0 L 9 0 C 13.970562748477139 0 18 4.02943725152286 18 9 L 18 9 C 18 13.970562748477139 13.970562748477139 18 9 18 L 9 18 C 4.02943725152286 18 0 13.970562748477139 0 9 L 0 9 C 0 4.02943725152286 4.02943725152286 0 9 0 Z"/></clipPath></defs><g clip-path="url(#clip-g11-3)"><path d="M 9 0 L 9 0 C 13.970562748477139 0 18 4.02943725152286 18 9 L 18 9 C 18 13.970562748477139 13.970562748477139 18 9 18 L 9 18 C 4.02943725152286 18 0 13.970562748477139 0 9 L 0 9 C 0 4.02943725152286 4.02943725152286 0 9 0 Z" fill="#ff3b30"/><g transform="matrix(1,0,0,1,6,6)"><circle cx="3" cy="3" r="3" fill="#ffffff"/></g></g></g></g><g transform="matrix(1,0,0,1,4,42)"><path d="M 2 0 L 38 0 C 39.10456949966159 0 40 0.8954305003384133 40 2 L 40 8 C 40 9.104569499661586 39.10456949966159 10 38 10 L 2 10 C 0.8954305003384133 10 0 9.104569499661586 0 8 L 0 2 C 0 0.8954305003384133 0.8954305003384133 0 2 0 Z" fill="#aeaeb2"/></g></g><g transform="matrix(1,0,0,1,168,4)"><rect x="0" y="0" width="48" height="56" fill="#ffffff"/><g transform="matrix(1,0,0,1,8,4)"><rect x="0" y="0" width="32" height="32" fill="#ffffff"/><g transform="matrix(1,0,0,1,4,8)"><defs><clipPath id="clip-g11-4"><rect x="0" y="0" width="24" height="24"/></clipPath></defs><g clip-path="url(#clip-g11-4)"><rect x="0" y="0" width="24" height="24" fill="#ffffff"/><circle cx="12" cy="12" r="12" fill="#007aff"/></g></g><g transform="matrix(1,0,0,1,18,-4)"><defs><clipPath id="clip-g11-5"><path d="M 9 0 L 9 0 C 13.970562748477139 0 18 4.02943725152286 18 9 L 18 9 C 18 13.970562748477139 13.970562748477139 18 9 18 L 9 18 C 4.02943725152286 18 0 13.970562748477139 0 9 L 0 9 C 0 4.02943725152286 4.02943725152286 0 9 0 Z"/></clipPath></defs><g clip-path="url(#clip-g11-5)"><path d="M 9 0 L 9 0 C 13.970562748477139 0 18 4.02943725152286 18 9 L 18 9 C 18 13.970562748477139 13.970562748477139 18 9 18 L 9 18 C 4.02943725152286 18 0 13.970562748477139 0 9 L 0 9 C 0 4.02943725152286 4.02943725152286 0 9 0 Z" fill="#ff3b30"/><g transform="matrix(1,0,0,1,6,6)"><circle cx="3" cy="3" r="3" fill="#ffffff"/></g></g></g></g><g transform="matrix(1,0,0,1,4,42)"><path d="M 2 0 L 38 0 C 39.10456949966159 0 40 0.8954305003384133 40 2 L 40 8 C 40 9.104569499661586 39.10456949966159 10 38 10 L 2 10 C 0.8954305003384133 10 0 9.104569499661586 0 8 L 0 2 C 0 0.8954305003384133 0.8954305003384133 0 2 0 Z" fill="#aeaeb2"/></g></g><g transform="matrix(1,0,0,1,240,4)"><rect x="0" y="0" width="48" height="56" fill="#ffffff"/><g transform="matrix(1,0,0,1,8,4)"><rect x="0" y="0" width="32" height="32" fill="#ffffff"/><g transform="matrix(1,0,0,1,4,8)"><defs><clipPath id="clip-g11-6"><rect x="0" y="0" width="24" height="24"/></clipPath></defs><g clip-path="url(#clip-g11-6)"><rect x="0" y="0" width="24" height="24" fill="#ffffff"/><circle cx="12" cy="12" r="12" fill="#007aff"/></g></g><g transform="matrix(1,0,0,1,18,-4)"><defs><clipPath id="clip-g11-7"><path d="M 9 0 L 9 0 C 13.970562748477139 0 18 4.02943725152286 18 9 L 18 9 C 18 13.970562748477139 13.970562748477139 18 9 18 L 9 18 C 4.02943725152286 18 0 13.970562748477139 0 9 L 0 9 C 0 4.02943725152286 4.02943725152286 0 9 0 Z"/></clipPath></defs><g clip-path="url(#clip-g11-7)"><path d="M 9 0 L 9 0 C 13.970562748477139 0 18 4.02943725152286 18 9 L 18 9 C 18 13.970562748477139 13.970562748477139 18 9 18 L 9 18 C 4.02943725152286 18 0 13.970562748477139 0 9 L 0 9 C 0 4.02943725152286 4.02943725152286 0 9 0 Z" fill="#ff3b30"/><g transform="matrix(1,0,0,1,6,6)"><circle cx="3" cy="3" r="3" fill="#ffffff"/></g></g></g></g><g transform="matrix(1,0,0,1,4,42)"><path d="M 2 0 L 38 0 C 39.10456949966159 0 40 0.8954305003384133 40 2 L 40 8 C 40 9.104569499661586 39.10456949966159 10 38 10 L 2 10 C 0.8954305003384133 10 0 9.104569499661586 0 8 L 0 2 C 0 0.8954305003384133 0.8954305003384133 0 2 0 Z" fill="#aeaeb2"/></g></g><g opacity="0.5"><rect x="0" y="0" width="320" height="1" fill="#c7c7cc"/></g></g></g></g></svg>