<svg xmlns="http://www.w3.org/2000/svg" width="280" height="100" viewBox="0 0 280 100"><g><defs><clipPath id="clip-g193-6"><rect x="0" y="0" width="280" height="100"/></clipPath></defs><rect x="0" y="0" width="280" height="100" fill="#ffffff"/><g transform="matrix(1,0,0,1,10,22)"><defs><clipPath id="clip-g193-2"><path d="M 12 0 L 168 0 C 174.62741699796953 0 180 5.3725830020304794 180 12 L 180 56 C 180 62.62741699796952 174.62741699796953 68 168 68 L 12 68 C 5.3725830020304794 68 0 62.62741699796952 0 56 L 0 12 C 0 5.3725830020304794 5.3725830020304794 0 12 0 Z"/></clipPath></defs><g clip-path="url(#clip-g193-2)"><path d="M 12 0 L 168 0 C 174.62741699796953 0 180 5.3725830020304794 180 12 L 180 56 C 180 62.62741699796952 174.62741699796953 68 168 68 L 12 68 C 5.3725830020304794 68 0 62.62741699796952 0 56 L 0 12 C 0 5.3725830020304794 5.3725830020304794 0 12 0 Z" fill="#f2f2f7"/><g transform="matrix(1,0,0,1,10,10)"><defs><clipPath id="clip-g193-0"><path d="M 8 0 L 72 0 C 76.41827799864635 0 80 3.5817220013536533 80 8 L 80 40 C 80 44.418277998646346 76.41827799864635 48 72 48 L 8 48 C 3.5817220013536533 48 0 44.418277998646346 0 40 L 0 8 C 0 3.5817220013536533 3.5817220013536533 0 8 0 Z"/></clipPath></defs><g clip-path="url(#clip-g193-0)"><path d="M 8 0 L 72 0 C 76.41827799864635 0 80 3.5817220013536533 80 8 L 80 40 C 80 44.418277998646346 76.41827799864635 48 72 48 L 8 48 C 3.5817220013536533 48 0 44.418277998646346 0 40 L 0 8 C 0 3.5817220013536533 3.5817220013536533 0 8 0 Z" fill="#007aff"/><g transform="matrix(1,0,0,1,10,10)" opacity="0.30000001192092896"><path d="M 4 0 L 56 0 C 58.20913899932317 0 60 1.7908610006768266 60 4 L 60 24 C 60 26.209138999323173 58.20913899932317 28 56 28 L 4 28 C 1.7908610006768266 28 0 26.209138999323173 0 24 L 0 4 C 0 1.7908610006768266 1.7908610006768266 0 4 0 Z" fill="#ffffff"/></g></g></g><g transform="matrix(1,0,0,1,90,10)"><defs><clipPath id="clip-g193-1"><path d="M 8 0 L 72 0 C 76.41827799864635 0 80 3.5817220013536533 80 8 L 80 40 C 80 44.418277998646346 76.41827799864635 48 72 48 L 8 48 C 3.5817220013536533 48 0 44.418277998646346 0 40 L 0 8 C 0 3.5817220013536533 3.5817220013536533 0 8 0 Z"/></clipPath></defs><g clip-path="url(#clip-g193-1)"><path d="M 8 0 L 72 0 C 76.41827799864635 0 80 3.5817220013536533 80 8 L 80 40 C 80 44.418277998646346 76.41827799864635 48 72 48 L 8 48 C 3.5817220013536533 48 0 44.418277998646346 0 40 L 0 8 C 0 3.5817220013536533 3.5817220013536533 0 8 0 Z" fill="#007aff"/><g transform="matrix(1,0,0,1,10,10)" opacity="0.30000001192092896"><path d="M 4 0 L 56 0 C 58.20913899932317 0 60 1.7908610006768266 60 4 L 60 24 C 60 26.209138999323173 58.20913899932317 28 56 28 L 4 28 C 1.7908610006768266 28 0 26.209138999323173 0 24 L 0 4 C 0 1.7908610006768266 1.7908610006768266 0 4 0 Z" fill="#ffffff"/></g></g></g></g></g><g transform="matrix(1,0,0,1,150,22)"><defs><clipPath id="clip-g193-5"><path d="M 12 0 L 168 0 C 174.62741699796953 0 180 5.3725830020304794 180 12 L 180 56 C 180 62.62741699796952 174.62741699796953 68 168 68 L 12 68 C 5.3725830020304794 68 0 62.62741699796952 0 56 L 0 12 C 0 5.3725830020304794 5.3725830020304794 0 12 0 Z"/></clipPath></defs><g clip-path="url(#clip-g193-5)"><path d="M 12 0 L 168 0 C 174.62741699796953 0 180 5.3725830020304794 180 12 L 180 56 C 180 62.62741699796952 174.62741699796953 68 168 68 L 12 68 C 5.3725830020304794 68 0 62.62741699796952 0 56 L 0 12 C 0 5.3725830020304794 5.3725830020304794 0 12 0 Z" fill="#f2f2f7"/><g transform="matrix(1,0,0,1,10,10)"><defs><clipPath id="clip-g193-3"><path d="M 8 0 L 72 0 C 76.41827799864635 0 80 3.5817220013536533 80 8 L 80 40 C 80 44.418277998646346 76.41827799864635 48 72 48 L 8 48 C 3.5817220013536533 48 0 44.418277998646346 0 40 L 0 8 C 0 3.5817220013536533 3.5817220013536533 0 8 0 Z"/></clipPath></defs><g clip-path="url(#clip-g193-3)"><path d="M 8 0 L 72 0 C 76.41827799864635 0 80 3.5817220013536533 80 8 L 80 40 C 80 44.418277998646346 76.41827799864635 48 72 48 L 8 48 C 3.5817220013536533 48 0 44.418277998646346 0 40 L 0 8 C 0 3.5817220013536533 3.5817220013536533 0 8 0 Z" fill="#007aff"/><g transform="matrix(1,0,0,1,10,10)" opacity="0.30000001192092896"><path d="M 4 0 L 56 0 C 58.20913899932317 0 60 1.7908610006768266 60 4 L 60 24 C 60 26.209138999323173 58.20913899932317 28 56 28 L 4 28 C 1.7908610006768266 28 0 26.209138999323173 0 24 L 0 4 C 0 1.7908610006768266 1.7908610006768266 0 4 0 Z" fill="#ffffff"/></g></g></g><g transform="matrix(1,0,0,1,90,10)"><defs><clipPath id="clip-g193-4"><path d="M 8 0 L 72 0 C 76.41827799864635 0 80 3.5817220013536533 80 8 L 80 40 C 80 44.418277998646346 76.41827799864635 48 72 48 L 8 48 C 3.5817220013536533 48 0 44.418277998646346 0 40 L 0 8 C 0 3.5817220013536533 3.5817220013536533 0 8 0 Z"/></clipPath></defs><g clip-path="url(#clip-g193-4)"><path d="M 8 0 L 72 0 C 76.41827799864635 0 80 3.5817220013536533 80 8 L 80 40 C 80 44.418277998646346 76.41827799864635 48 72 48 L 8 48 C 3.5817220013536533 48 0 44.418277998646346 0 40 L 0 8 C 0 3.5817220013536533 3.5817220013536533 0 8 0 Z" fill="#007aff"/><g transform="matrix(1,0,0,1,10,10)" opacity="0.30000001192092896"><path d="M 4 0 L 56 0 C 58.20913899932317 0 60 1.7908610006768266 60 4 L 60 24 C 60 26.209138999323173 58.20913899932317 28 56 28 L 4 28 C 1.7908610006768266 28 0 26.209138999323173 0 24 L 0 4 C 0 1.7908610006768266 1.7908610006768266 0 4 0 Z" fill="#ffffff"/></g></g></g></g></g></g></svg>