<svg xmlns="http://www.w3.org/2000/svg" width="140" height="64" viewBox="0 0 140 64"><g><defs><clipPath id="clip-g36-1"><rect x="0" y="0" width="140" height="64"/></clipPath></defs><rect x="0" y="0" width="140" height="64" fill="#ffffff"/><g transform="matrix(1,0,0,1,10,10)"><defs><clipPath id="clip-g36-0"><path d="M 12 0 L 108 0 C 114.62741699796952 0 120 5.3725830020304794 120 12 L 120 32 C 120 38.62741699796952 114.62741699796952 44 108 44 L 12 44 C 5.3725830020304794 44 0 38.62741699796952 0 32 L 0 12 C 0 5.3725830020304794 5.3725830020304794 0 12 0 Z"/></clipPath></defs><g clip-path="url(#clip-g36-0)"><path d="M 12 0 L 108 0 C 114.62741699796952 0 120 5.3725830020304794 120 12 L 120 32 C 120 38.62741699796952 114.62741699796952 44 108 44 L 12 44 C 5.3725830020304794 44 0 38.62741699796952 0 32 L 0 12 C 0 5.3725830020304794 5.3725830020304794 0 12 0 Z" fill="#007aff"/><g transform="matrix(1,0,0,1,20,10)" opacity="0.20000000298023224"><path d="M 4 0 L 76 0 C 78.20913899932317 0 80 1.7908610006768266 80 4 L 80 20 C 80 22.209138999323173 78.20913899932317 24 76 24 L 4 24 C 1.7908610006768266 24 0 22.209138999323173 0 20 L 0 4 C 0 1.7908610006768266 1.7908610006768266 0 4 0 Z" fill="#ffffff"/></g></g></g></g></svg>