<svg xmlns="http://www.w3.org/2000/svg" width="380" height="200" viewBox="0 0 380 200"><g><defs><clipPath id="clip-g18-1"><rect x="0" y="0" width="380" height="200"/></clipPath></defs><g clip-path="url(#clip-g18-1)"><rect x="0" y="0" width="380" height="200" fill="#f2f2f7"/><g transform="matrix(1,0,0,1,10,10)"><defs><clipPath id="clip-g18-0"><path d="M 10 0 L 350 0 C 355.52284749830795 0 360 4.477152501692067 360 10 L 360 170 C 360 175.52284749830793 355.52284749830795 180 350 180 L 10 180 C 4.477152501692067 180 0 175.52284749830793 0 170 L 0 10 C 0 4.477152501692067 4.477152501692067 0 10 0 Z"/></clipPath></defs><g clip-path="url(#clip-g18-0)"><path d="M 10 0 L 350 0 C 355.52284749830795 0 360 4.477152501692067 360 10 L 360 170 C 360 175.52284749830793 355.52284749830795 180 350 180 L 10 180 C 4.477152501692067 180 0 175.52284749830793 0 170 L 0 10 C 0 4.477152501692067 4.477152501692067 0 10 0 Z" fill="#ffffff"/><g transform="matrix(1,0,0,1,10,10)"><path d="M 4 0 L 216 0 C 218.2091389993232 0 220 1.7908610006768266 220 4 L 220 36 C 220 38.20913899932317 218.2091389993232 40 216 40 L 4 40 C 1.7908610006768266 40 0 38.20913899932317 0 36 L 0 4 C 0 1.7908610006768266 1.7908610006768266 0 4 0 Z" fill="#007aff"/></g><g transform="matrix(1,0,0,1,130,130)"><path d="M 4 0 L 216 0 C 218.2091389993232 0 220 1.7908610006768266 220 4 L 220 36 C 220 38.20913899932317 218.2091389993232 40 216 40 L 4 40 C 1.7908610006768266 40 0 38.20913899932317 0 36 L 0 4 C 0 1.7908610006768266 1.7908610006768266 0 4 0 Z" fill="#ff9500"/></g></g></g></g></g></svg>