<svg xmlns="http://www.w3.org/2000/svg" width="300" height="120" viewBox="0 0 300 120"><g><defs><clipPath id="clip-g12-0"><rect x="0" y="0" width="300" height="120"/></clipPath></defs><g clip-path="url(#clip-g12-0)"><rect x="0" y="0" width="300" height="120" fill="#ffffff"/><g transform="matrix(1,0,0,1,10,20)"><path d="M32.080218537237 15L0 15L0 65L50 65L50 49.499909351252C51.615549708231 49.827848676657 53.287670813508 50 55 50C68.807117462158 50 80 38.807117462158 80 25C80 11.192881584167 68.807117462158 0 55 0C44.748405112901 0 35.938001757466 6.170476201169 32.080218537213 14.999999999987" fill-rule="evenodd" fill="#3366e6"/></g><g transform="matrix(1,0,0,1,110,20)"><path d="M10 10L10 70L70 70L70 10L10 10M40 20C51.045694351196 20 60 28.954304695129 60 40C60 51.045694351196 51.045694351196 60 40 60C28.954304695129 60 20 51.045694351196 20 40C20 28.954304695129 28.954304695129 20 40 20" fill-rule="evenodd" fill="#e63333"/></g><g transform="matrix(1,0,0,1,210,20)"><path d="M50 15.500090610202L50 10L0 10L0 70L50 70L50 64.499909351252C38.588798599735 62.183557418469 30 52.094788393939 30 40C30 27.905210770659 38.588798599735 17.816442374322 49.999999999997 15.500090610194L50 64.499909351252C51.615549708231 64.827848676657 53.287670813508 65 55 65C68.807117462158 65 80 53.807117462158 80 40C80 26.192881584167 68.807117462158 15 55 15C53.287670813508 15 51.615549708231 15.172151308675 49.999999999997 15.500090610194" fill-rule="evenodd" fill="#33b34d"/></g></g></g></svg>