<svg xmlns="http://www.w3.org/2000/svg" width="48" height="48" viewBox="0 0 48 48"><g><defs><clipPath id="clip-g50-0"><path d="M 24 0 L 24 0 C 37.25483399593904 0 48 10.745166004060959 48 24 L 48 24 C 48 37.25483399593904 37.25483399593904 48 24 48 L 24 48 C 10.745166004060959 48 0 37.25483399593904 0 24 L 0 24 C 0 10.745166004060959 10.745166004060959 0 24 0 Z"/></clipPath></defs><g clip-path="url(#clip-g50-0)"><path d="M 24 0 L 24 0 C 37.25483399593904 0 48 10.745166004060959 48 24 L 48 24 C 48 37.25483399593904 37.25483399593904 48 24 48 L 24 48 C 10.745166004060959 48 0 37.25483399593904 0 24 L 0 24 C 0 10.745166004060959 10.745166004060959 0 24 0 Z" fill="#007aff"/><path d="M 24 0 L 24 0 C 37.25483399593904 0 48 10.745166004060959 48 24 L 48 24 C 48 37.25483399593904 37.25483399593904 48 24 48 L 24 48 C 10.745166004060959 48 0 37.25483399593904 0 24 L 0 24 C 0 10.745166004060959 10.745166004060959 0 24 0 Z" fill="#007aff"/></g></g></svg>