<svg xmlns="http://www.w3.org/2000/svg" width="200" height="88" viewBox="0 0 200 88"><g><defs><clipPath id="clip-g10-0"><rect x="0" y="0" width="200" height="88"/></clipPath></defs><g clip-path="url(#clip-g10-0)"><rect x="0" y="0" width="200" height="88" fill="#f2f2f2"/><path d="M 4 0 L 76 0 C 78.20913899932317 0 80 1.7908610006768266 80 4 L 80 36 C 80 38.20913899932317 78.20913899932317 40 76 40 L 4 40 C 1.7908610006768266 40 0 38.20913899932317 0 36 L 0 4 C 0 1.7908610006768266 1.7908610006768266 0 4 0 Z" fill="#9966cc"/><g transform="matrix(1,0,0,1,0,48)"><path d="M 4 0 L 76 0 C 78.20913899932317 0 80 1.7908610006768266 80 4 L 80 36 C 80 38.20913899932317 78.20913899932317 40 76 40 L 4 40 C 1.7908610006768266 40 0 38.20913899932317 0 36 L 0 4 C 0 1.7908610006768266 1.7908610006768266 0 4 0 Z" fill="#6699cc"/></g></g></g></svg>