<svg xmlns="http://www.w3.org/2000/svg" width="150" height="200" viewBox="0 0 150 200"><g><defs><clipPath id="clip-g8-0"><rect x="0" y="0" width="150" height="200"/></clipPath></defs><g clip-path="url(#clip-g8-0)"><rect x="0" y="0" width="150" height="200" fill="#f2f2f2"/><path d="M 4 0 L 46 0 C 48.20913899932317 0 50 1.7908610006768266 50 4 L 50 46 C 50 48.20913899932317 48.20913899932317 50 46 50 L 4 50 C 1.7908610006768266 50 0 48.20913899932317 0 46 L 0 4 C 0 1.7908610006768266 1.7908610006768266 0 4 0 Z" fill="#b34d4d"/><g transform="matrix(1,0,0,1,50,0)"><path d="M 4 0 L 46 0 C 48.20913899932317 0 50 1.7908610006768266 50 4 L 50 46 C 50 48.20913899932317 48.20913899932317 50 46 50 L 4 50 C 1.7908610006768266 50 0 48.20913899932317 0 46 L 0 4 C 0 1.7908610006768266 1.7908610006768266 0 4 0 Z" fill="#4db34d"/></g><g transform="matrix(1,0,0,1,100,0)"><path d="M 4 0 L 46 0 C 48.20913899932317 0 50 1.7908610006768266 50 4 L 50 46 C 50 48.20913899932317 48.20913899932317 50 46 50 L 4 50 C 1.7908610006768266 50 0 48.20913899932317 0 46 L 0 4 C 0 1.7908610006768266 1.7908610006768266 0 4 0 Z" fill="#4d4db3"/></g></g></g></svg>