<svg xmlns="http://www.w3.org/2000/svg" width="160" height="200" viewBox="0 0 160 200"><g><defs><clipPath id="clip-g9-0"><rect x="0" y="0" width="160" height="200"/></clipPath></defs><g clip-path="url(#clip-g9-0)"><rect x="0" y="0" width="160" height="200" fill="#f2f2f2"/><path d="M 4 0 L 36 0 C 38.20913899932317 0 40 1.7908610006768266 40 4 L 40 36 C 40 38.20913899932317 38.20913899932317 40 36 40 L 4 40 C 1.7908610006768266 40 0 38.20913899932317 0 36 L 0 4 C 0 1.7908610006768266 1.7908610006768266 0 4 0 Z" fill="#b34d4d"/><g transform="matrix(1,0,0,1,60,0)"><path d="M 4 0 L 36 0 C 38.20913899932317 0 40 1.7908610006768266 40 4 L 40 36 C 40 38.20913899932317 38.20913899932317 40 36 40 L 4 40 C 1.7908610006768266 40 0 38.20913899932317 0 36 L 0 4 C 0 1.7908610006768266 1.7908610006768266 0 4 0 Z" fill="#4db34d"/></g><g transform="matrix(1,0,0,1,120,0)"><path d="M 4 0 L 36 0 C 38.20913899932317 0 40 1.7908610006768266 40 4 L 40 36 C 40 38.20913899932317 38.20913899932317 40 36 40 L 4 40 C 1.7908610006768266 40 0 38.20913899932317 0 36 L 0 4 C 0 1.7908610006768266 1.7908610006768266 0 4 0 Z" fill="#4d4db3"/></g></g></g></svg>