<svg width="320" height="200" viewBox="0 0 320 200" fill="none" xmlns="http://www.w3.org/2000/svg">
<rect width="320" height="200" fill="#F2F2F7"/>
<rect x="10" y="10" width="300" height="180" rx="24" fill="white"/>
<rect x="30" y="30" width="260" height="140" rx="20" fill="#F2F2F7"/>
<rect x="50" y="46" width="220" height="108" rx="16" fill="white"/>
<rect x="70" y="56" width="180" height="68" rx="12" fill="#F2F2F7"/>
<rect x="80" y="66" width="80" height="48" rx="8" fill="#007AFF"/>
<rect opacity="0.3" x="90" y="76" width="60" height="28" rx="4" fill="white"/>
<rect x="160" y="66" width="80" height="48" rx="8" fill="#007AFF"/>
<rect opacity="0.3" x="170" y="76" width="60" height="28" rx="4" fill="white"/>
<rect x="70" y="132" width="180" height="8" rx="4" fill="#FF9500"/>
<rect x="264" y="38" width="18" height="18" rx="9" fill="#FF3B30"/>
<circle cx="273" cy="47" r="3" fill="white"/>
<rect x="20" y="24" width="280" height="160" rx="22" stroke="#C7C7CC"/>
</svg>
