<svg width="260" height="160" viewBox="0 0 260 160" fill="none" xmlns="http://www.w3.org/2000/svg">
<rect width="260" height="160" fill="#F2F2F7"/>
<rect x="10" y="10" width="240" height="140" rx="24" fill="white"/>
<rect x="30" y="30" width="200" height="100" rx="20" fill="#F2F2F7"/>
<g clip-path="url(#clip0_1_205)">
<rect x="50" y="46" width="160" height="68" rx="16" fill="white"/>
<rect x="70" y="56" width="120" height="68" rx="12" fill="#F2F2F7"/>
<rect x="80" y="66" width="80" height="48" rx="8" fill="#007AFF"/>
<rect opacity="0.3" x="90" y="76" width="60" height="28" rx="4" fill="white"/>
<rect x="100" y="66" width="80" height="48" rx="8" fill="#007AFF"/>
<rect opacity="0.3" x="110" y="76" width="60" height="28" rx="4" fill="white"/>
<rect x="70" y="92" width="120" height="8" rx="4" fill="#FF9500"/>
</g>
<rect x="204" y="38" width="18" height="18" rx="9" fill="#FF3B30"/>
<circle cx="213" cy="47" r="3" fill="white"/>
<rect x="20" y="24" width="220" height="120" rx="22" stroke="#C7C7CC"/>
<defs>
<clipPath id="clip0_1_205">
<rect x="50" y="46" width="160" height="68" rx="16" fill="white"/>
</clipPath>
</defs>
</svg>
