<svg width="380" height="200" viewBox="0 0 380 200" fill="none" xmlns="http://www.w3.org/2000/svg">
<rect width="380" height="200" fill="#F2F2F7"/>
<rect x="10" y="76" width="80" height="48" rx="8" fill="#007AFF"/>
<rect opacity="0.3" x="20" y="86" width="60" height="28" rx="4" fill="white"/>
<rect x="100" y="74" width="140" height="52" rx="12" fill="#F2F2F7"/>
<rect x="110" y="84" width="80" height="32" rx="8" fill="#007AFF"/>
<rect opacity="0.3" x="120" y="94" width="60" height="12" rx="4" fill="white"/>
<rect x="150" y="84" width="80" height="32" rx="8" fill="#007AFF"/>
<rect opacity="0.3" x="160" y="94" width="60" height="12" rx="4" fill="white"/>
<g clip-path="url(#clip0_1_211)">
<rect x="250" y="71" width="120" height="58" rx="16" fill="white"/>
<g clip-path="url(#clip1_1_211)">
<rect x="270" y="81" width="80" height="68" rx="12" fill="#F2F2F7"/>
<rect x="280" y="91" width="80" height="48" rx="8" fill="#007AFF"/>
<rect opacity="0.3" x="290" y="101" width="60" height="28" rx="4" fill="white"/>
<rect x="260" y="91" width="80" height="48" rx="8" fill="#007AFF"/>
<rect opacity="0.3" x="270" y="101" width="60" height="28" rx="4" fill="white"/>
</g>
<rect x="270" y="107" width="80" height="8" rx="4" fill="#FF9500"/>
</g>
<rect x="10" y="136" width="360" height="60" rx="20" fill="#F2F2F7"/>
<g clip-path="url(#clip2_1_211)">
<rect x="30" y="152" width="320" height="28" rx="14" fill="white"/>
<rect x="50" y="162" width="280" height="68" rx="12" fill="#F2F2F7"/>
<rect x="60" y="172" width="80" height="48" rx="8" fill="#007AFF"/>
<rect x="240" y="172" width="80" height="48" rx="8" fill="#007AFF"/>
<rect x="50" y="158" width="280" height="8" rx="4" fill="#FF9500"/>
</g>
<rect x="344" y="144" width="18" height="18" rx="9" fill="#FF3B30"/>
<circle cx="353" cy="153" r="3" fill="white"/>
<defs>
<clipPath id="clip0_1_211">
<rect x="250" y="71" width="120" height="58" rx="16" fill="white"/>
</clipPath>
<clipPath id="clip1_1_211">
<rect x="270" y="81" width="80" height="68" rx="12" fill="white"/>
</clipPath>
<clipPath id="clip2_1_211">
<rect x="30" y="152" width="320" height="28" rx="14" fill="white"/>
</clipPath>
</defs>
</svg>
