<svg width="340" height="84" viewBox="0 0 340 84" fill="none" xmlns="http://www.w3.org/2000/svg">
<rect width="340" height="84" fill="#F2F2F7"/>
<rect width="320" height="64" transform="translate(10 10)" fill="#1C1C1E"/>
<rect width="48" height="56" transform="translate(34 14)" fill="white"/>
<rect width="32" height="32" transform="translate(42 18)" fill="white"/>
<g clip-path="url(#clip0_1_138)">
<rect width="24" height="24" transform="translate(46 26)" fill="white"/>
<circle cx="58" cy="38" r="12" fill="#007AFF"/>
</g>
<rect x="60" y="14" width="18" height="18" rx="9" fill="#FF3B30"/>
<circle cx="69" cy="23" r="3" fill="white"/>
<rect x="38" y="56" width="40" height="10" rx="2" fill="#AEAEB2"/>
<rect width="48" height="56" transform="translate(106 14)" fill="white"/>
<rect width="32" height="32" transform="translate(114 18)" fill="white"/>
<g clip-path="url(#clip1_1_138)">
<rect width="24" height="24" transform="translate(118 26)" fill="white"/>
<circle cx="130" cy="38" r="12" fill="#007AFF"/>
</g>
<rect x="132" y="14" width="18" height="18" rx="9" fill="#FF3B30"/>
<circle cx="141" cy="23" r="3" fill="white"/>
<rect x="110" y="56" width="40" height="10" rx="2" fill="#AEAEB2"/>
<rect width="48" height="56" transform="translate(178 14)" fill="white"/>
<rect width="32" height="32" transform="translate(186 18)" fill="white"/>
<g clip-path="url(#clip2_1_138)">
<rect width="24" height="24" transform="translate(190 26)" fill="white"/>
<circle cx="202" cy="38" r="12" fill="#007AFF"/>
</g>
<rect x="204" y="14" width="18" height="18" rx="9" fill="#FF3B30"/>
<circle cx="213" cy="23" r="3" fill="white"/>
<rect x="182" y="56" width="40" height="10" rx="2" fill="#AEAEB2"/>
<rect width="48" height="56" transform="translate(250 14)" fill="white"/>
<rect width="32" height="32" transform="translate(258 18)" fill="white"/>
<g clip-path="url(#clip3_1_138)">
<rect width="24" height="24" transform="translate(262 26)" fill="white"/>
<circle cx="274" cy="38" r="12" fill="#007AFF"/>
</g>
<rect x="276" y="14" width="18" height="18" rx="9" fill="#FF3B30"/>
<circle cx="285" cy="23" r="3" fill="white"/>
<rect x="254" y="56" width="40" height="10" rx="2" fill="#AEAEB2"/>
<rect opacity="0.5" x="10" y="10" width="320" height="1" fill="#C7C7CC"/>
<defs>
<clipPath id="clip0_1_138">
<rect width="24" height="24" fill="white" transform="translate(46 26)"/>
</clipPath>
<clipPath id="clip1_1_138">
<rect width="24" height="24" fill="white" transform="translate(118 26)"/>
</clipPath>
<clipPath id="clip2_1_138">
<rect width="24" height="24" fill="white" transform="translate(190 26)"/>
</clipPath>
<clipPath id="clip3_1_138">
<rect width="24" height="24" fill="white" transform="translate(262 26)"/>
</clipPath>
</defs>
</svg>
