<svg width="320" height="64" viewBox="0 0 320 64" fill="none" xmlns="http://www.w3.org/2000/svg">
<rect width="320" height="64" fill="#1C1C1E"/>
<rect width="48" height="56" transform="translate(24 4)" fill="white"/>
<rect width="32" height="32" transform="translate(32 8)" fill="white"/>
<g clip-path="url(#clip0_1_121)">
<rect width="24" height="24" transform="translate(36 16)" fill="white"/>
<circle cx="48" cy="28" r="12" fill="#007AFF"/>
</g>
<rect x="50" y="4" width="18" height="18" rx="9" fill="#FF3B30"/>
<circle cx="59" cy="13" r="3" fill="white"/>
<rect x="28" y="46" width="40" height="10" rx="2" fill="#AEAEB2"/>
<rect width="48" height="56" transform="translate(96 4)" fill="white"/>
<rect width="32" height="32" transform="translate(104 8)" fill="white"/>
<g clip-path="url(#clip1_1_121)">
<rect width="24" height="24" transform="translate(108 16)" fill="white"/>
<circle cx="120" cy="28" r="12" fill="#007AFF"/>
</g>
<rect x="122" y="4" width="18" height="18" rx="9" fill="#FF3B30"/>
<circle cx="131" cy="13" r="3" fill="white"/>
<rect x="100" y="46" width="40" height="10" rx="2" fill="#AEAEB2"/>
<rect width="48" height="56" transform="translate(168 4)" fill="white"/>
<rect width="32" height="32" transform="translate(176 8)" fill="white"/>
<g clip-path="url(#clip2_1_121)">
<rect width="24" height="24" transform="translate(180 16)" fill="white"/>
<circle cx="192" cy="28" r="12" fill="#007AFF"/>
</g>
<rect x="194" y="4" width="18" height="18" rx="9" fill="#FF3B30"/>
<circle cx="203" cy="13" r="3" fill="white"/>
<rect x="172" y="46" width="40" height="10" rx="2" fill="#AEAEB2"/>
<rect width="48" height="56" transform="translate(240 4)" fill="white"/>
<rect width="32" height="32" transform="translate(248 8)" fill="white"/>
<g clip-path="url(#clip3_1_121)">
<rect width="24" height="24" transform="translate(252 16)" fill="white"/>
<circle cx="264" cy="28" r="12" fill="#007AFF"/>
</g>
<rect x="266" y="4" width="18" height="18" rx="9" fill="#FF3B30"/>
<circle cx="275" cy="13" r="3" fill="white"/>
<rect x="244" y="46" width="40" height="10" rx="2" fill="#AEAEB2"/>
<rect opacity="0.5" width="320" height="1" fill="#C7C7CC"/>
<defs>
<clipPath id="clip0_1_121">
<rect width="24" height="24" fill="white" transform="translate(36 16)"/>
</clipPath>
<clipPath id="clip1_1_121">
<rect width="24" height="24" fill="white" transform="translate(108 16)"/>
</clipPath>
<clipPath id="clip2_1_121">
<rect width="24" height="24" fill="white" transform="translate(180 16)"/>
</clipPath>
<clipPath id="clip3_1_121">
<rect width="24" height="24" fill="white" transform="translate(252 16)"/>
</clipPath>
</defs>
</svg>
