<svg width="420" height="84" viewBox="0 0 420 84" fill="none" xmlns="http://www.w3.org/2000/svg">
<rect width="420" height="84" fill="#F2F2F7"/>
<rect width="400" height="64" transform="translate(10 10)" fill="#1C1C1E"/>
<rect width="48" height="56" transform="translate(34 14)" fill="white"/>
<rect width="32" height="32" transform="translate(42 18)" fill="white"/>
<g clip-path="url(#clip0_1_140)">
<rect width="24" height="24" transform="translate(46 26)" fill="white"/>
<circle cx="58" cy="38" r="12" fill="#007AFF"/>
</g>
<rect x="60" y="14" width="18" height="18" rx="9" fill="#FF3B30"/>
<circle cx="69" cy="23" r="3" fill="white"/>
<rect x="38" y="56" width="40" height="10" rx="2" fill="#AEAEB2"/>
<rect width="60" height="56" transform="translate(130 14)" fill="white"/>
<rect width="32" height="32" transform="translate(144 18)" fill="white"/>
<g clip-path="url(#clip1_1_140)">
<rect width="24" height="24" transform="translate(148 26)" fill="white"/>
<circle cx="160" cy="38" r="12" fill="#007AFF"/>
</g>
<rect x="162" y="14" width="18" height="18" rx="9" fill="#FF3B30"/>
<circle cx="171" cy="23" r="3" fill="white"/>
<rect x="134" y="56" width="52" height="10" rx="2" fill="#AEAEB2"/>
<rect width="60" height="56" transform="translate(220 14)" fill="white"/>
<rect width="32" height="32" transform="translate(234 18)" fill="white"/>
<g clip-path="url(#clip2_1_140)">
<rect width="24" height="24" transform="translate(238 26)" fill="white"/>
<circle cx="250" cy="38" r="12" fill="#007AFF"/>
</g>
<rect x="252" y="14" width="18" height="18" rx="9" fill="#FF3B30"/>
<circle cx="261" cy="23" r="3" fill="white"/>
<rect x="224" y="56" width="52" height="10" rx="2" fill="#AEAEB2"/>
<rect width="48" height="56" transform="translate(330 14)" fill="white"/>
<rect width="32" height="32" transform="translate(338 18)" fill="white"/>
<g clip-path="url(#clip3_1_140)">
<rect width="24" height="24" transform="translate(342 26)" fill="white"/>
<circle cx="354" cy="38" r="12" fill="#007AFF"/>
</g>
<rect x="356" y="14" width="18" height="18" rx="9" fill="#FF3B30"/>
<circle cx="365" cy="23" r="3" fill="white"/>
<rect x="334" y="56" width="40" height="10" rx="2" fill="#AEAEB2"/>
<rect opacity="0.5" x="10" y="10" width="400" height="1" fill="#C7C7CC"/>
<defs>
<clipPath id="clip0_1_140">
<rect width="24" height="24" fill="white" transform="translate(46 26)"/>
</clipPath>
<clipPath id="clip1_1_140">
<rect width="24" height="24" fill="white" transform="translate(148 26)"/>
</clipPath>
<clipPath id="clip2_1_140">
<rect width="24" height="24" fill="white" transform="translate(238 26)"/>
</clipPath>
<clipPath id="clip3_1_140">
<rect width="24" height="24" fill="white" transform="translate(342 26)"/>
</clipPath>
</defs>
</svg>
