<svg xmlns="http://www.w3.org/2000/svg" width="200" height="60" viewBox="0 0 200 60"><g><defs><clipPath id="clip-0"><rect x="0" y="0" width="200" height="60"/></clipPath></defs><g clip-path="url(#clip-0)"><g transform="matrix(1,0,0,1,10,15)"><path d="M5.96875 16L1.0546875 16L1.0546875 4.359375L5.671875 4.359375C6.526041507720947 4.359375 7.23828125 4.48828125 7.80859375 4.74609375C8.37890625 5.00390625 8.805989265441895 5.3567705154418945 9.08984375 5.8046875C9.373698234558105 6.2526044845581055 9.515625 6.7682294845581055 9.515625 7.3515625L9.515625 7.3515625C9.515625 7.8098955154418945 9.424479484558105 8.209635257720947 9.2421875 8.55078125C9.059895515441895 8.891927242279053 8.811198234558105 9.170572757720947 8.49609375 9.38671875C8.180989265441895 9.602864742279053 7.822916507720947 9.7578125 7.421875 9.8515625L7.421875 9.8515625L7.421875 9.96875C7.859375 9.984375 8.272135734558105 10.108072757720947 8.66015625 10.33984375C9.048176765441895 10.571614742279053 9.36328125 10.89453125 9.60546875 11.30859375C9.84765625 11.72265625 9.96875 12.216145753860474 9.96875 12.7890625L9.96875 12.7890625C9.96875 13.403645753860474 9.817708015441895 13.953125 9.515625 14.4375C9.213541984558105 14.921875 8.766926765441895 15.303385436534882 8.17578125 15.58203125C7.584635257720947 15.86067707836628 6.848958492279053 16 5.96875 16L5.96875 16M3.4375 10.8828125L3.4375 14.0390625L5.5 14.0390625C6.197916507720947 14.0390625 6.708333492279053 13.903645753860474 7.03125 13.6328125C7.354166507720947 13.361979246139526 7.515625 13.005208253860474 7.515625 12.5625L7.515625 12.5625C7.515625 12.234375 7.436197757720947 11.944010257720947 7.27734375 11.69140625C7.118489742279053 11.438802242279053 6.893229007720947 11.240885257720947 6.6015625 11.09765625C6.309895992279053 10.954427242279053 5.963541507720947 10.8828125 5.5625 10.8828125L5.5625 10.8828125L3.4375 10.8828125M3.4375 6.3046875L3.4375 9.25L5.3203125 9.25C5.658854007720947 9.25 5.963541507720947 9.188802242279053 6.234375 9.06640625C6.505208492279053 8.944010257720947 6.717447757720947 8.76953125 6.87109375 8.54296875C7.024739742279053 8.31640625 7.1015625 8.046875 7.1015625 7.734375L7.1015625 7.734375C7.1015625 7.3125 6.951822757720947 6.96875 6.65234375 6.703125C6.352864742279053 6.4375 5.924479007720947 6.3046875 5.3671875 6.3046875L5.3671875 6.3046875L3.4375 6.3046875M15.4921875 16.171875L15.4921875 16.171875C14.6171875 16.171875 13.859375 15.983072916045785 13.21875 15.60546875C12.578125 15.227864563465118 12.084635376930237 14.701822876930237 11.73828125 14.02734375C11.391927063465118 13.352864503860474 11.21875 12.567708253860474 11.21875 11.671875L11.21875 11.671875C11.21875 10.765625 11.391927063465118 9.975260257720947 11.73828125 9.30078125C12.084635376930237 8.626302242279053 12.578125 8.100260257720947 13.21875 7.72265625C13.859375 7.3450517654418945 14.6171875 7.15625 15.4921875 7.15625L15.4921875 7.15625C16.372395992279053 7.15625 17.131510257720947 7.3450517654418945 17.76953125 7.72265625C18.407552242279053 8.100260257720947 18.899739265441895 8.626302242279053 19.24609375 9.30078125C19.592448234558105 9.975260257720947 19.765625 10.765625 19.765625 11.671875L19.765625 11.671875C19.765625 12.567708253860474 19.592448234558105 13.352864503860474 19.24609375 14.02734375C18.899739265441895 14.701822876930237 18.407552242279053 15.227864563465118 17.76953125 15.60546875C17.131510257720947 15.983072916045785 16.372395992279053 16.171875 15.4921875 16.171875M15.4921875 14.328125L15.4921875 14.328125C15.908854007720947 14.328125 16.2578125 14.212239623069763 16.5390625 13.98046875C16.8203125 13.748697996139526 17.03125 13.430989503860474 17.171875 13.02734375C17.3125 12.623697996139526 17.3828125 12.169270753860474 17.3828125 11.6640625L17.3828125 11.6640625C17.3828125 11.1484375 17.3125 10.690104007720947 17.171875 10.2890625C17.03125 9.888020992279053 16.8203125 9.572916507720947 16.5390625 9.34375C16.2578125 9.114583492279053 15.908854007720947 9 15.4921875 9L15.4921875 9C15.075520992279053 9 14.727864742279053 9.114583492279053 14.44921875 9.34375C14.170572996139526 9.572916507720947 13.9609375 9.888020992279053 13.8203125 10.2890625C13.6796875 10.690104007720947 13.609375 11.1484375 13.609375 11.6640625L13.609375 11.6640625C13.609375 12.169270753860474 13.6796875 12.623697996139526 13.8203125 13.02734375C13.9609375 13.430989503860474 14.170572996139526 13.748697996139526 14.44921875 13.98046875C14.727864742279053 14.212239623069763 15.075520992279053 14.328125 15.4921875 14.328125M21.3984375 4.359375L23.7421875 4.359375L23.7421875 16L21.3984375 16L21.3984375 4.359375M28.921875 16.1484375L28.921875 16.1484375C28.255208253860474 16.1484375 27.65234375 15.975260416045785 27.11328125 15.62890625C26.57421875 15.282552063465118 26.1484375 14.774739623069763 25.8359375 14.10546875C25.5234375 13.436197996139526 25.3671875 12.6171875 25.3671875 11.6484375L25.3671875 11.6484375C25.3671875 10.653645992279053 25.52864581346512 9.822916507720947 25.8515625 9.15625C26.174479126930237 8.489583492279053 26.604166626930237 7.9895830154418945 27.140625 7.65625C27.677083253860474 7.3229169845581055 28.268229246139526 7.15625 28.9140625 7.15625L28.9140625 7.15625C29.408854007720947 7.15625 29.8203125 7.2395830154418945 30.1484375 7.40625C30.4765625 7.5729169845581055 30.7421875 7.7786455154418945 30.9453125 8.0234375C31.1484375 8.268229007720947 31.299479007720947 8.505208492279053 31.3984375 8.734375L31.3984375 8.734375L31.4765625 8.734375L31.4765625 4.359375L33.8203125 4.359375L33.8203125 16L31.515625 16L31.515625 14.6015625L31.3984375 14.6015625C31.294270992279053 14.8359375 31.139322757720947 15.071614563465118 30.93359375 15.30859375C30.727864742279053 15.54557290673256 30.4609375 15.74479165673256 30.1328125 15.90625C29.8046875 16.06770833581686 29.401041507720947 16.1484375 28.921875 16.1484375M29.6484375 14.265625L29.6484375 14.265625C30.044270992279053 14.265625 30.3828125 14.15625 30.6640625 13.9375C30.9453125 13.71875 31.158854007720947 13.412760496139526 31.3046875 13.01953125C31.450520992279053 12.626302003860474 31.5234375 12.166666746139526 31.5234375 11.640625L31.5234375 11.640625C31.5234375 11.109375 31.451822757720947 10.649739742279053 31.30859375 10.26171875C31.165364742279053 9.873697757720947 30.953125 9.571614742279053 30.671875 9.35546875C30.390625 9.139322757720947 30.049479007720947 9.03125 29.6484375 9.03125L29.6484375 9.03125C29.236979007720947 9.03125 28.891927242279053 9.143229007720947 28.61328125 9.3671875C28.334635496139526 9.591145992279053 28.125 9.8984375 27.984375 10.2890625C27.84375 10.6796875 27.7734375 11.130208492279053 27.7734375 11.640625L27.7734375 11.640625C27.7734375 12.151041746139526 27.845052003860474 12.604166746139526 27.98828125 13C28.131510496139526 13.395833253860474 28.342447996139526 13.705729246139526 28.62109375 13.9296875C28.899739742279053 14.153645873069763 29.2421875 14.265625 29.6484375 14.265625M42.7578125 6.3359375L39.1953125 6.3359375L39.1953125 4.359375L48.703125 4.359375L48.703125 6.3359375L45.1484375 6.3359375L45.1484375 16L42.7578125 16L42.7578125 6.3359375M54.234375 16.171875L54.234375 16.171875C53.34375 16.171875 52.575520753860474 15.989583333022892 51.9296875 15.625C51.28385412693024 15.260416686534882 50.78776037693024 14.7421875 50.44140625 14.0703125C50.09505206346512 13.3984375 49.921875 12.6015625 49.921875 11.6796875L49.921875 11.6796875C49.921875 10.778645992279053 50.09375 9.989583492279053 50.4375 9.3125C50.78125 8.635416507720947 51.26822912693024 8.106770992279053 51.8984375 7.7265625C52.528645753860474 7.3463544845581055 53.268229246139526 7.15625 54.1171875 7.15625L54.1171875 7.15625C54.69010400772095 7.15625 55.22395849227905 7.2473955154418945 55.71875 7.4296875C56.21354150772095 7.6119794845581055 56.6484375 7.88671875 57.0234375 8.25390625C57.3984375 8.62109375 57.69140625 9.080729007720947 57.90234375 9.6328125C58.11328125 10.184895992279053 58.21875 10.8359375 58.21875 11.5859375L58.21875 11.5859375L58.21875 12.2421875L52.2421875 12.2421875C52.2578125 12.684895753860474 52.34375 13.0625 52.5 13.375L52.5 13.375C52.666666746139526 13.71875 52.90234375 13.9765625 53.20703125 14.1484375C53.51171875 14.3203125 53.8671875 14.40625 54.2734375 14.40625L54.2734375 14.40625C54.54947900772095 14.40625 54.79947900772095 14.3671875 55.0234375 14.2890625C55.24739599227905 14.2109375 55.43880224227905 14.095052123069763 55.59765625 13.94140625C55.75651025772095 13.787760496139526 55.87760400772095 13.598958253860474 55.9609375 13.375L55.9609375 13.375L58.0859375 13.7734375C57.9453125 14.252604126930237 57.700520515441895 14.673177123069763 57.3515625 15.03515625C57.00260400772095 15.397135436534882 56.56640625 15.67708334326744 56.04296875 15.875C55.51953125 16.07291666418314 54.91666650772095 16.171875 54.234375 16.171875M52.2578125 10.7734375L52.2578125 10.7734375L55.9609375 10.7734375C55.9296875 10.481770992279053 55.8671875 10.216145992279053 55.7734375 9.9765625L55.7734375 9.9765625C55.6328125 9.643229007720947 55.42578125 9.384114742279053 55.15234375 9.19921875C54.87890625 9.014322757720947 54.54166650772095 8.921875 54.140625 8.921875L54.140625 8.921875C53.734375 8.921875 53.38932275772095 9.015625 53.10546875 9.203125C52.821614503860474 9.390625 52.606770753860474 9.643229007720947 52.4609375 9.9609375L52.4609375 9.9609375C52.3515625 10.205729007720947 52.283854246139526 10.4765625 52.2578125 10.7734375M61.6328125 16L59.1484375 16L61.9609375 11.515625L59.3203125 7.265625L61.8515625 7.265625L62.640625 8.640625C62.890625 9.09375 63.1171875 9.5390625 63.3203125 9.9765625L63.3203125 9.9765625C63.37239599227905 10.1015625 63.42708349227905 10.2265625 63.484375 10.3515625L63.484375 10.3515625C63.54166650772095 10.231770992279053 63.59895849227905 10.109375 63.65625 9.984375L63.65625 9.984375C63.85416650772095 9.541666507720947 64.08333349227905 9.09375 64.34375 8.640625L64.34375 8.640625L65.1640625 7.265625L67.6484375 7.265625L64.953125 11.546875L67.7734375 16L65.2578125 16L64.2890625 14.359375C64.03385400772095 13.911458253860474 63.8046875 13.466145753860474 63.6015625 13.0234375L63.6015625 13.0234375C63.54427099227905 12.903645753860474 63.48697900772095 12.783854246139526 63.4296875 12.6640625L63.4296875 12.6640625C63.37760400772095 12.783854246139526 63.32552099227905 12.903645753860474 63.2734375 13.0234375L63.2734375 13.0234375C63.07552099227905 13.466145753860474 62.8515625 13.911458253860474 62.6015625 14.359375L62.6015625 14.359375L61.6328125 16M71.8046875 7.265625L73.4375 7.265625L73.4375 9.0546875L71.8046875 9.0546875L71.8046875 13.4453125C71.8046875 13.721354246139526 71.86588549613953 13.92578125 71.98828125 14.05859375C72.11067724227905 14.19140625 72.31510400772095 14.2578125 72.6015625 14.2578125L72.6015625 14.2578125C72.69010400772095 14.2578125 72.81510400772095 14.24609375 72.9765625 14.22265625C73.13802099227905 14.19921875 73.26041650772095 14.177083373069763 73.34375 14.15625L73.34375 14.15625L73.6796875 15.9140625C73.41927099227905 15.9921875 73.16015625 16.046875 72.90234375 16.078125C72.64453125 16.109375 72.3984375 16.125 72.1640625 16.125L72.1640625 16.125C71.2890625 16.125 70.61979174613953 15.91145833581686 70.15625 15.484375C69.69270837306976 15.057291686534882 69.4609375 14.4453125 69.4609375 13.6484375L69.4609375 13.6484375L69.4609375 9.0546875L68.2578125 9.0546875L68.2578125 7.265625L69.4609375 7.265625L69.4609375 5.1875L71.8046875 5.1875L71.8046875 7.265625" fill="#000000"/></g></g></g></svg>