<svg xmlns="http://www.w3.org/2000/svg" width="200" height="60" viewBox="0 0 200 60"><g><defs><clipPath id="clip-0"><rect x="0" y="0" width="200" height="60"/></clipPath></defs><g clip-path="url(#clip-0)"><g transform="matrix(1,0,0,1,10,15)"><path d="M5.3525390625 14.13671875L5.3525390625 14.13671875C4.482096493244171 14.13671875 3.706217586994171 13.925944012589753 3.02490234375 13.50439453125C2.3435873091220856 13.082845017313957 1.80810546875 12.481282517313957 1.41845703125 11.69970703125C1.02880859375 10.918131440877914 0.833984375 9.989583194255829 0.833984375 8.9140625L0.833984375 8.9140625C0.833984375 7.833984375 1.02880859375 6.903157830238342 1.41845703125 6.12158203125C1.80810546875 5.340006232261658 2.3435873091220856 4.7373046875 3.02490234375 4.3134765625C3.706217586994171 3.8896484375 4.482096493244171 3.677734375 5.3525390625 3.677734375L5.3525390625 3.677734375C5.867512881755829 3.677734375 6.35400390625 3.7529296875 6.81201171875 3.9033203125C7.27001953125 4.0537109375 7.681314826011658 4.273599982261658 8.0458984375 4.56298828125C8.410482048988342 4.852376580238342 8.714681267738342 5.203287482261658 8.95849609375 5.61572265625C9.202310919761658 6.028157830238342 9.369791388511658 6.496419548988342 9.4609375 7.0205078125L9.4609375 7.0205078125L8.162109375 7.0205078125C8.089192986488342 6.669596076011658 7.965006232261658 6.361978888511658 7.78955078125 6.09765625C7.614095330238342 5.833333611488342 7.39990234375 5.610025763511658 7.14697265625 5.427734375C6.89404296875 5.245442986488342 6.614908993244171 5.108724236488342 6.3095703125 5.017578125C6.004231631755829 4.926432013511658 5.685221493244171 4.880859375 5.3525390625 4.880859375L5.3525390625 4.880859375C4.741862118244171 4.880859375 4.1904296875 5.035807013511658 3.6982421875 5.345703125C3.2060546875 5.655599236488342 2.81640625 6.110189080238342 2.529296875 6.70947265625C2.2421875 7.308756649494171 2.0986328125 8.043619930744171 2.0986328125 8.9140625L2.0986328125 8.9140625C2.0986328125 9.779948055744171 2.2433267533779144 10.512532621622086 2.53271484375 11.11181640625C2.8221029341220856 11.711100190877914 3.212890625 12.16455078125 3.705078125 12.47216796875C4.197265625 12.77978515625 4.746419131755829 12.93359375 5.3525390625 12.93359375L5.3525390625 12.93359375C5.685221493244171 12.93359375 6.004231631755829 12.886881545186043 6.3095703125 12.79345703125C6.614908993244171 12.700032517313957 6.89404296875 12.563313767313957 7.14697265625 12.38330078125C7.39990234375 12.203287690877914 7.614095330238342 11.97998046875 7.78955078125 11.71337890625C7.965006232261658 11.44677734375 8.089192986488342 11.140299409627914 8.162109375 10.7939453125L8.162109375 10.7939453125L9.4609375 10.7939453125C9.374349236488342 11.3134765625 9.209146857261658 11.7783203125 8.96533203125 12.1884765625C8.721517205238342 12.5986328125 8.417317986488342 12.949544236063957 8.052734375 13.2412109375C7.688150763511658 13.532877586781979 7.27685546875 13.75504558160901 6.81884765625 13.90771484375C6.36083984375 14.060384112410247 5.8720703125 14.13671875 5.3525390625 14.13671875M14.51953125 14.1640625L14.51953125 14.1640625C13.78125 14.1640625 13.144368559122086 14 12.60888671875 13.671875C12.073404878377914 13.34375 11.660970017313957 12.8857421875 11.37158203125 12.2978515625C11.082193993031979 11.7099609375 10.9375 11.024088472127914 10.9375 10.240234375C10.9375 9.456380069255829 11.078776024281979 8.765950381755829 11.361328125 8.1689453125C11.643880173563957 7.571940243244171 12.043782621622086 7.104817569255829 12.56103515625 6.767578125C13.078287690877914 6.430338263511658 13.683268159627914 6.26171875 14.3759765625 6.26171875L14.3759765625 6.26171875C14.781575381755829 6.26171875 15.181477725505829 6.328939080238342 15.57568359375 6.46337890625C15.969889461994171 6.597818732261658 16.32763671875 6.814290642738342 16.64892578125 7.11279296875C16.97021484375 7.411295711994171 17.2265625 7.804362118244171 17.41796875 8.2919921875C17.609375 8.779622256755829 17.705078125 9.376627743244171 17.705078125 10.0830078125L17.705078125 10.0830078125L17.705078125 10.595703125L12.181640625 10.595703125C12.199869722127914 11.087890625 12.2978515625 11.51171875 12.4755859375 11.8671875L12.4755859375 11.8671875C12.671549409627914 12.263671875 12.946126371622086 12.563313767313957 13.29931640625 12.76611328125C13.652506440877914 12.968912795186043 14.0615234375 13.0703125 14.5263671875 13.0703125L14.5263671875 13.0703125C14.8271484375 13.0703125 15.1005859375 13.027018263936043 15.3466796875 12.9404296875C15.5927734375 12.853841111063957 15.8046875 12.722819045186043 15.982421875 12.54736328125C16.16015625 12.371907517313957 16.296875 12.154296875 16.392578125 11.89453125L16.392578125 11.89453125L17.58203125 12.22265625C17.463541388511658 12.60546875 17.263021111488342 12.942708298563957 16.98046875 13.234375C16.69791680574417 13.526041649281979 16.34814453125 13.75390625 15.93115234375 13.91796875C15.51416015625 14.08203125 15.043619930744171 14.1640625 14.51953125 14.1640625M12.1884765625 9.556640625L12.1884765625 9.556640625L16.4541015625 9.556640625C16.42220038175583 9.210286319255829 16.34928399324417 8.891276180744171 16.2353515625 8.599609375L16.2353515625 8.599609375C16.07584649324417 8.212239444255829 15.841145694255829 7.908040225505829 15.53125 7.68701171875C15.221354305744171 7.465983211994171 14.836262881755829 7.35546875 14.3759765625 7.35546875C13.915690243244171 7.35546875 13.521484375 7.46826171875 13.193359375 7.69384765625C12.865234375 7.91943359375 12.614583402872086 8.212239444255829 12.44140625 8.572265625L12.44140625 8.572265625C12.295572847127914 8.882161319255829 12.211263090372086 9.210286319255829 12.1884765625 9.556640625M20.69921875 9.419921875L20.69921875 9.419921875L20.69921875 14L19.46875 14L19.46875 6.357421875L20.6513671875 6.357421875L20.658203125 7.7724609375C20.872395902872086 7.2939453125 21.148111909627914 6.9384765625 21.4853515625 6.7060546875L21.4853515625 6.7060546875C21.91373711824417 6.409830451011658 22.41731756925583 6.26171875 22.99609375 6.26171875L22.99609375 6.26171875C23.51106756925583 6.26171875 23.96223944425583 6.36767578125 24.349609375 6.57958984375C24.73697930574417 6.79150390625 25.03889960050583 7.110514461994171 25.25537109375 7.53662109375C25.471842169761658 7.962727725505829 25.580078125 8.499348819255829 25.580078125 9.146484375L25.580078125 9.146484375L25.580078125 14L24.349609375 14L24.349609375 9.2490234375C24.349609375 8.6611328125 24.19580078125 8.200846493244171 23.88818359375 7.8681640625C23.58056640625 7.535481631755829 23.16015625 7.369140625 22.626953125 7.369140625L22.626953125 7.369140625C22.26236993074417 7.369140625 21.93424493074417 7.448893368244171 21.642578125 7.6083984375C21.350911527872086 7.767903506755829 21.120768159627914 8.000325381755829 20.9521484375 8.3056640625C20.783528715372086 8.611002743244171 20.69921875 8.982421875 20.69921875 9.419921875M29.17578125 6.357421875L30.748046875 6.357421875L30.748046875 7.41015625L29.17578125 7.41015625L29.17578125 12.017578125C29.17578125 12.359375 29.245279878377914 12.60888671875 29.38427734375 12.76611328125C29.523274809122086 12.92333984375 29.754557222127914 13.001953125 30.078125 13.001953125L30.078125 13.001953125C30.155599027872086 13.001953125 30.25471991300583 12.992838576436043 30.37548828125 12.974609375C30.49625664949417 12.956380173563957 30.60677069425583 12.938151076436043 30.70703125 12.919921875L30.70703125 12.919921875L30.9599609375 13.958984375C30.83235663175583 14.004557291802485 30.68766289949417 14.038736978080124 30.52587890625 14.0615234375C30.36409491300583 14.084309893660247 30.20345038175583 14.095703125 30.0439453125 14.095703125L30.0439453125 14.095703125C29.383138090372086 14.095703125 28.8681640625 13.92138671875 28.4990234375 13.57275390625C28.1298828125 13.22412109375 27.9453125 12.737630173563957 27.9453125 12.11328125L27.9453125 12.11328125L27.9453125 7.41015625L26.796875 7.41015625L26.796875 6.357421875L27.9453125 6.357421875L27.9453125 4.5390625L29.17578125 4.5390625L29.17578125 6.357421875M35.533203125 14.1640625L35.533203125 14.1640625C34.794921875 14.1640625 34.158040434122086 14 33.62255859375 13.671875C33.087076753377914 13.34375 32.67464189231396 12.8857421875 32.38525390625 12.2978515625C32.09586586803198 11.7099609375 31.951171875 11.024088472127914 31.951171875 10.240234375C31.951171875 9.456380069255829 32.09244789928198 8.765950381755829 32.375 8.1689453125C32.65755204856396 7.571940243244171 33.057454496622086 7.104817569255829 33.57470703125 6.767578125C34.091959565877914 6.430338263511658 34.696940034627914 6.26171875 35.3896484375 6.26171875L35.3896484375 6.26171875C35.79524725675583 6.26171875 36.19514960050583 6.328939080238342 36.58935546875 6.46337890625C36.98356133699417 6.597818732261658 37.34130859375 6.814290642738342 37.66259765625 7.11279296875C37.98388671875 7.411295711994171 38.240234375 7.804362118244171 38.431640625 8.2919921875C38.623046875 8.779622256755829 38.71875 9.376627743244171 38.71875 10.0830078125L38.71875 10.0830078125L38.71875 10.595703125L33.1953125 10.595703125C33.213541597127914 11.087890625 33.3115234375 11.51171875 33.4892578125 11.8671875L33.4892578125 11.8671875C33.685221284627914 12.263671875 33.959798246622086 12.563313767313957 34.31298828125 12.76611328125C34.666178315877914 12.968912795186043 35.0751953125 13.0703125 35.5400390625 13.0703125L35.5400390625 13.0703125C35.8408203125 13.0703125 36.1142578125 13.027018263936043 36.3603515625 12.9404296875C36.6064453125 12.853841111063957 36.818359375 12.722819045186043 36.99609375 12.54736328125C37.173828125 12.371907517313957 37.310546875 12.154296875 37.40625 11.89453125L37.40625 11.89453125L38.595703125 12.22265625C38.47721326351166 12.60546875 38.27669298648834 12.942708298563957 37.994140625 13.234375C37.71158868074417 13.526041649281979 37.36181640625 13.75390625 36.94482421875 13.91796875C36.52783203125 14.08203125 36.05729180574417 14.1640625 35.533203125 14.1640625M33.2021484375 9.556640625L33.2021484375 9.556640625L37.4677734375 9.556640625C37.43587225675583 9.210286319255829 37.36295586824417 8.891276180744171 37.2490234375 8.599609375L37.2490234375 8.599609375C37.08951836824417 8.212239444255829 36.85481756925583 7.908040225505829 36.544921875 7.68701171875C36.23502618074417 7.465983211994171 35.84993475675583 7.35546875 35.3896484375 7.35546875C34.92936211824417 7.35546875 34.53515625 7.46826171875 34.20703125 7.69384765625C33.87890625 7.91943359375 33.628255277872086 8.212239444255829 33.455078125 8.572265625L33.455078125 8.572265625C33.309244722127914 8.882161319255829 33.224934965372086 9.210286319255829 33.2021484375 9.556640625M41.712890625 14L40.482421875 14L40.482421875 6.357421875L41.671875 6.357421875L41.671875 7.533203125L41.75390625 7.533203125C41.895182222127914 7.145833194255829 42.14697265625 6.834798455238342 42.50927734375 6.60009765625C42.87158203125 6.365396857261658 43.28059881925583 6.248046875 43.736328125 6.248046875L43.736328125 6.248046875C43.82747381925583 6.248046875 43.93570977449417 6.250325798988342 44.06103515625 6.2548828125C44.18636053800583 6.259439826011658 44.28548163175583 6.263997673988342 44.3583984375 6.2685546875L44.3583984375 6.2685546875L44.3583984375 7.505859375C44.32194024324417 7.496744930744171 44.23079413175583 7.483073055744171 44.0849609375 7.46484375C43.93912774324417 7.446614444255829 43.7841796875 7.4375 43.6201171875 7.4375L43.6201171875 7.4375C43.25553399324417 7.4375 42.92854803800583 7.513834774494171 42.63916015625 7.66650390625C42.349772065877914 7.819173038005829 42.123046875 8.02880859375 41.958984375 8.29541015625C41.794921875 8.56201171875 41.712890625 8.868489444255829 41.712890625 9.21484375L41.712890625 9.21484375L41.712890625 14M51.830078125 14.177734375L51.830078125 14.177734375C51.347005277872086 14.177734375 50.908365815877914 14.086588543839753 50.51416015625 13.904296875C50.11995439231396 13.72200519964099 49.806640625 13.455403663218021 49.57421875 13.1044921875C49.341796875 12.753580763936043 49.2255859375 12.327473923563957 49.2255859375 11.826171875L49.2255859375 11.826171875C49.2255859375 11.388671875 49.31217446178198 11.033203125 49.4853515625 10.759765625C49.65852861106396 10.486328125 49.88981123268604 10.27099609375 50.17919921875 10.11376953125C50.468587309122086 9.95654296875 50.788736909627914 9.839192569255829 51.1396484375 9.76171875C51.490559965372086 9.684244930744171 51.84375 9.622721493244171 52.19921875 9.5771484375L52.19921875 9.5771484375C52.65494805574417 9.517903506755829 53.0263671875 9.472330868244171 53.3134765625 9.4404296875C53.6005859375 9.408528506755829 53.81363946199417 9.353841006755829 53.95263671875 9.2763671875C54.09163397550583 9.198893368244171 54.1611328125 9.066731631755829 54.1611328125 8.8798828125L54.1611328125 8.8798828125L54.1611328125 8.8388671875C54.1611328125 8.519856631755829 54.10188788175583 8.249837100505829 53.9833984375 8.02880859375C53.86490899324417 7.807780086994171 53.68717461824417 7.638020694255829 53.4501953125 7.51953125C53.21321600675583 7.401041805744171 52.9169921875 7.341796875 52.5615234375 7.341796875L52.5615234375 7.341796875C52.19694024324417 7.341796875 51.884765625 7.398762881755829 51.625 7.5126953125C51.365234375 7.626627743244171 51.154459565877914 7.76904296875 50.99267578125 7.93994140625C50.830891996622086 8.11083984375 50.708984375 8.28515625 50.626953125 8.462890625L50.626953125 8.462890625L49.4443359375 8.0732421875C49.64029951393604 7.6083984375 49.90462236106396 7.244954288005829 50.2373046875 6.98291015625C50.569986909627914 6.720865607261658 50.936849027872086 6.53515625 51.337890625 6.42578125C51.738932222127914 6.31640625 52.13541680574417 6.26171875 52.52734375 6.26171875L52.52734375 6.26171875C52.78255194425583 6.26171875 53.07307928800583 6.29248046875 53.39892578125 6.35400390625C53.72477227449417 6.41552734375 54.03922539949417 6.537435173988342 54.34228515625 6.7197265625C54.64534491300583 6.902017951011658 54.89599609375 7.172037899494171 55.09423828125 7.52978515625C55.29248046875 7.887532413005829 55.3916015625 8.364908993244171 55.3916015625 8.9619140625L55.3916015625 8.9619140625L55.3916015625 14L54.181640625 14L54.181640625 12.9609375L54.099609375 12.9609375C54.01302069425583 13.138671875 53.8740234375 13.322102881968021 53.6826171875 13.51123046875C53.4912109375 13.70035808160901 53.24283868074417 13.858723962679505 52.9375 13.986328125C52.63216131925583 14.113932287320495 52.26302069425583 14.177734375 51.830078125 14.177734375M52.0419921875 13.0908203125L52.0419921875 13.0908203125C52.49772149324417 13.0908203125 52.8828125 13.001953125 53.197265625 12.82421875C53.51171875 12.646484375 53.7509765625 12.415201857686043 53.9150390625 12.13037109375C54.0791015625 11.845540434122086 54.1611328125 11.548177152872086 54.1611328125 11.23828125L54.1611328125 11.23828125L54.1611328125 10.1787109375C54.11100274324417 10.237955868244171 54.00162774324417 10.29150390625 53.8330078125 10.33935546875C53.66438788175583 10.38720703125 53.47184258699417 10.429362118244171 53.25537109375 10.4658203125C53.03889960050583 10.502278715372086 52.82926446199417 10.533040434122086 52.62646484375 10.55810546875C52.42366522550583 10.583170503377914 52.26302069425583 10.6025390625 52.14453125 10.6162109375L52.14453125 10.6162109375C51.848307222127914 10.652669340372086 51.571451753377914 10.71533203125 51.31396484375 10.80419921875C51.056477934122086 10.89306640625 50.850260347127914 11.02294921875 50.6953125 11.19384765625C50.540364652872086 11.36474609375 50.462890625 11.596028715372086 50.462890625 11.8876953125L50.462890625 11.8876953125C50.462890625 12.152018159627914 50.53125 12.373046875 50.66796875 12.55078125C50.8046875 12.728515625 50.991536527872086 12.862955763936043 51.228515625 12.9541015625C51.465494722127914 13.045247361063957 51.736653715372086 13.0908203125 52.0419921875 13.0908203125M57.5517578125 3.814453125L58.7822265625 3.814453125L58.7822265625 14L57.5517578125 14L57.5517578125 3.814453125M62.1728515625 14L60.9423828125 14L60.9423828125 6.357421875L62.1728515625 6.357421875L62.1728515625 14M61.564453125 5.1064453125L61.564453125 5.1064453125C61.33203125 5.1064453125 61.13151045143604 5.026692986488342 60.962890625 4.8671875C60.79427079856396 4.707682013511658 60.7099609375 4.516275763511658 60.7099609375 4.29296875L60.7099609375 4.29296875C60.7099609375 4.065103888511658 60.79427079856396 3.87255859375 60.962890625 3.71533203125C61.13151045143604 3.55810546875 61.33203125 3.4794921875 61.564453125 3.4794921875L61.564453125 3.4794921875C61.801432222127914 3.4794921875 62.004231840372086 3.55810546875 62.1728515625 3.71533203125C62.341471284627914 3.87255859375 62.42578125 4.065103888511658 62.42578125 4.29296875L62.42578125 4.29296875C62.42578125 4.516275763511658 62.341471284627914 4.707682013511658 62.1728515625 4.8671875C62.004231840372086 5.026692986488342 61.801432222127914 5.1064453125 61.564453125 5.1064453125M67.4296875 17.021484375L67.4296875 17.021484375C66.86458319425583 17.021484375 66.37581387162209 16.94970703125 65.96337890625 16.80615234375C65.55094394087791 16.66259765625 65.2080078125 16.472330659627914 64.9345703125 16.2353515625C64.6611328125 15.998372465372086 64.44466142356396 15.740885451436043 64.28515625 15.462890625L64.28515625 15.462890625L65.283203125 14.8203125C65.392578125 14.966145798563957 65.52815762162209 15.1279296875 65.68994140625 15.3056640625C65.85172519087791 15.4833984375 66.07047519087791 15.634928420186043 66.34619140625 15.76025390625C66.62190762162209 15.885579496622086 66.98307305574417 15.9482421875 67.4296875 15.9482421875L67.4296875 15.9482421875C68.04036444425583 15.9482421875 68.54280585050583 15.802408784627914 68.93701171875 15.5107421875C69.33121758699417 15.219075486063957 69.5283203125 14.7587890625 69.5283203125 14.1298828125L69.5283203125 14.1298828125L69.5283203125 12.5986328125L69.412109375 12.5986328125C69.32552069425583 12.744466111063957 69.20361328125 12.917643263936043 69.04638671875 13.1181640625C68.88916015625 13.318684913218021 68.66357421875 13.495279930531979 68.36962890625 13.64794921875C68.07568359375 13.800618493929505 67.6826171875 13.876953125 67.1904296875 13.876953125L67.1904296875 13.876953125C66.57975253462791 13.876953125 66.03059902787209 13.73225910589099 65.54296875 13.44287109375C65.05533847212791 13.153483055531979 64.67024736106396 12.730794236063957 64.3876953125 12.1748046875C64.10514321178198 11.618815034627914 63.9638671875 10.942057222127914 63.9638671875 10.14453125L63.9638671875 10.14453125C63.9638671875 9.356119930744171 64.10286460071802 8.67138671875 64.380859375 8.09033203125C64.65885420143604 7.50927734375 65.04280605912209 7.059244930744171 65.53271484375 6.740234375C66.02262362837791 6.421224236488342 66.58430996537209 6.26171875 67.2177734375 6.26171875L67.2177734375 6.26171875C67.7099609375 6.26171875 68.10302734375 6.342610955238342 68.39697265625 6.50439453125C68.69091796875 6.666178107261658 68.91764336824417 6.851888298988342 69.0771484375 7.0615234375C69.23665350675583 7.271158993244171 69.35970038175583 7.4443359375 69.4462890625 7.5810546875L69.4462890625 7.5810546875L69.5625 7.5810546875L69.5625 6.357421875L70.7587890625 6.357421875L70.7587890625 14.1982421875C70.7587890625 14.8544921875 70.61067736148834 15.39111328125 70.314453125 15.80810546875C70.01822930574417 16.22509765625 69.61832696199417 16.531575590372086 69.11474609375 16.7275390625C68.61116522550583 16.923502534627914 68.04947930574417 17.021484375 67.4296875 17.021484375M67.3955078125 12.783203125L67.3955078125 12.783203125C67.8603515625 12.783203125 68.25227850675583 12.67724609375 68.5712890625 12.46533203125C68.89029961824417 12.25341796875 69.1318359375 11.948079496622086 69.2958984375 11.54931640625C69.4599609375 11.150553315877914 69.5419921875 10.673177152872086 69.5419921875 10.1171875L69.5419921875 10.1171875C69.5419921875 9.574869930744171 69.46110039949417 9.097493350505829 69.29931640625 8.68505859375C69.13753241300583 8.272623836994171 68.89713555574417 7.949055850505829 68.578125 7.71435546875C68.25911444425583 7.479655086994171 67.86490899324417 7.3623046875 67.3955078125 7.3623046875L67.3955078125 7.3623046875C66.91243475675583 7.3623046875 66.50911465287209 7.486491024494171 66.185546875 7.73486328125C65.86197909712791 7.983235538005829 65.61930331587791 8.314778506755829 65.45751953125 8.7294921875C65.29573574662209 9.144205868244171 65.21484375 9.606770694255829 65.21484375 10.1171875L65.21484375 10.1171875C65.21484375 10.641275972127914 65.296875 11.103841215372086 65.4609375 11.5048828125C65.625 11.905924409627914 65.86881503462791 12.21923828125 66.1923828125 12.44482421875C66.51595059037209 12.67041015625 66.9169921875 12.783203125 67.3955078125 12.783203125M74.1494140625 9.419921875L74.1494140625 9.419921875L74.1494140625 14L72.9189453125 14L72.9189453125 6.357421875L74.1015625 6.357421875L74.1083984375 7.7724609375C74.32259121537209 7.2939453125 74.59830722212791 6.9384765625 74.935546875 6.7060546875L74.935546875 6.7060546875C75.36393243074417 6.409830451011658 75.86751288175583 6.26171875 76.4462890625 6.26171875L76.4462890625 6.26171875C76.96126288175583 6.26171875 77.41243475675583 6.36767578125 77.7998046875 6.57958984375C78.18717461824417 6.79150390625 78.48909491300583 7.110514461994171 78.70556640625 7.53662109375C78.92203748226166 7.962727725505829 79.0302734375 8.499348819255829 79.0302734375 9.146484375L79.0302734375 9.146484375L79.0302734375 14L77.7998046875 14L77.7998046875 9.2490234375C77.7998046875 8.6611328125 77.64599609375 8.200846493244171 77.33837890625 7.8681640625C77.03076171875 7.535481631755829 76.6103515625 7.369140625 76.0771484375 7.369140625L76.0771484375 7.369140625C75.71256524324417 7.369140625 75.38444024324417 7.448893368244171 75.0927734375 7.6083984375C74.80110684037209 7.767903506755829 74.57096347212791 8.000325381755829 74.40234375 8.3056640625C74.23372402787209 8.611002743244171 74.1494140625 8.982421875 74.1494140625 9.419921875M84.4033203125 14.1640625L84.4033203125 14.1640625C83.6650390625 14.1640625 83.02815762162209 14 82.49267578125 13.671875C81.95719394087791 13.34375 81.54475907981396 12.8857421875 81.25537109375 12.2978515625C80.96598305553198 11.7099609375 80.8212890625 11.024088472127914 80.8212890625 10.240234375C80.8212890625 9.456380069255829 80.96256508678198 8.765950381755829 81.2451171875 8.1689453125C81.52766923606396 7.571940243244171 81.92757168412209 7.104817569255829 82.44482421875 6.767578125C82.96207675337791 6.430338263511658 83.56705722212791 6.26171875 84.259765625 6.26171875L84.259765625 6.26171875C84.66536444425583 6.26171875 85.06526678800583 6.328939080238342 85.45947265625 6.46337890625C85.85367852449417 6.597818732261658 86.21142578125 6.814290642738342 86.53271484375 7.11279296875C86.85400390625 7.411295711994171 87.1103515625 7.804362118244171 87.3017578125 8.2919921875C87.4931640625 8.779622256755829 87.5888671875 9.376627743244171 87.5888671875 10.0830078125L87.5888671875 10.0830078125L87.5888671875 10.595703125L82.0654296875 10.595703125C82.08365878462791 11.087890625 82.181640625 11.51171875 82.359375 11.8671875L82.359375 11.8671875C82.55533847212791 12.263671875 82.82991543412209 12.563313767313957 83.18310546875 12.76611328125C83.53629550337791 12.968912795186043 83.9453125 13.0703125 84.41015625 13.0703125L84.41015625 13.0703125C84.7109375 13.0703125 84.984375 13.027018263936043 85.23046875 12.9404296875C85.4765625 12.853841111063957 85.6884765625 12.722819045186043 85.8662109375 12.54736328125C86.0439453125 12.371907517313957 86.1806640625 12.154296875 86.2763671875 11.89453125L86.2763671875 11.89453125L87.4658203125 12.22265625C87.34733045101166 12.60546875 87.14681017398834 12.942708298563957 86.8642578125 13.234375C86.58170586824417 13.526041649281979 86.23193359375 13.75390625 85.81494140625 13.91796875C85.39794921875 14.08203125 84.92740899324417 14.1640625 84.4033203125 14.1640625M82.072265625 9.556640625L82.072265625 9.556640625L86.337890625 9.556640625C86.30598944425583 9.210286319255829 86.23307305574417 8.891276180744171 86.119140625 8.599609375L86.119140625 8.599609375C85.95963555574417 8.212239444255829 85.72493475675583 7.908040225505829 85.4150390625 7.68701171875C85.10514336824417 7.465983211994171 84.72005194425583 7.35546875 84.259765625 7.35546875C83.79947930574417 7.35546875 83.4052734375 7.46826171875 83.0771484375 7.69384765625C82.7490234375 7.91943359375 82.49837246537209 8.212239444255829 82.3251953125 8.572265625L82.3251953125 8.572265625C82.17936190962791 8.882161319255829 82.09505215287209 9.210286319255829 82.072265625 9.556640625M92.216796875 14.1640625L92.216796875 14.1640625C91.58333340287209 14.1640625 91.02278652787209 14.002278645901242 90.53515625 13.6787109375C90.04752597212791 13.355143211781979 89.6669921875 12.897135451436043 89.3935546875 12.3046875C89.1201171875 11.712239652872086 88.9833984375 11.010416597127914 88.9833984375 10.19921875L88.9833984375 10.19921875C88.9833984375 9.392578125 89.12125649303198 8.694173038005829 89.39697265625 8.10400390625C89.67268876731396 7.513834774494171 90.05436190962791 7.059244930744171 90.5419921875 6.740234375C91.02962246537209 6.421224236488342 91.59016934037209 6.26171875 92.2236328125 6.26171875L92.2236328125 6.26171875C92.72037774324417 6.26171875 93.11458319425583 6.34375 93.40625 6.5078125C93.69791680574417 6.671875 93.92236328125 6.857584357261658 94.07958984375 7.06494140625C94.23681640625 7.272298038005829 94.3564453125 7.4443359375 94.4384765625 7.5810546875L94.4384765625 7.5810546875L94.5341796875 7.5810546875L94.5341796875 3.814453125L95.7646484375 3.814453125L95.7646484375 14L94.5751953125 14L94.5751953125 12.8173828125L94.4384765625 12.8173828125C94.3564453125 12.958658888936043 94.23453789949417 13.13525390625 94.07275390625 13.34716796875C93.91096991300583 13.55908203125 93.68310546875 13.74820964410901 93.38916015625 13.91455078125C93.09521484375 14.080891924910247 92.70442694425583 14.1640625 92.216796875 14.1640625M92.4013671875 13.0634765625L92.4013671875 13.0634765625C92.8662109375 13.0634765625 93.25813788175583 12.941569045186043 93.5771484375 12.69775390625C93.89615899324417 12.453938767313957 94.1376953125 12.115559965372086 94.3017578125 11.6826171875C94.4658203125 11.249674409627914 94.5478515625 10.750650972127914 94.5478515625 10.185546875L94.5478515625 10.185546875C94.5478515625 9.620442569255829 94.46695977449417 9.127116024494171 94.30517578125 8.70556640625C94.14339178800583 8.284016788005829 93.90299493074417 7.954752743244171 93.583984375 7.7177734375C93.26497381925583 7.480794131755829 92.87076836824417 7.3623046875 92.4013671875 7.3623046875L92.4013671875 7.3623046875C91.91829413175583 7.3623046875 91.51611328125 7.487630069255829 91.19482421875 7.73828125C90.87353515625 7.988932430744171 90.63313809037209 8.327311336994171 90.4736328125 8.75341796875C90.31412753462791 9.179524600505829 90.234375 9.656901180744171 90.234375 10.185546875L90.234375 10.185546875C90.234375 10.71875 90.31526699662209 11.202962309122086 90.47705078125 11.63818359375C90.63883456587791 12.073404878377914 90.88151034712791 12.419759079813957 91.205078125 12.67724609375C91.52864590287209 12.934733107686043 91.92740899324417 13.0634765625 92.4013671875 13.0634765625" fill="#000000"/></g></g></g></svg>