<svg xmlns="http://www.w3.org/2000/svg" width="200" height="100" viewBox="0 0 200 100"><defs><clipPath id="clip-0"><path d="M 0.00 0.00 L 200.00 0.00 L 200.00 60.00 L 0.00 60.00 L 0.00 0.00" fill-rule="nonzero" fill="black"/></clipPath></defs><g><path d="M 0.00 0.00 L 200.00 0.00 L 200.00 60.00 L 0.00 60.00 L 0.00 0.00" fill-rule="nonzero" fill="#ffffff"/><g clip-path="url(#clip-0)"><g transform="matrix(1, 0, 0, 1, 10, 15)"><path d="M2.5293 14L1.23047 14L1.23047 3.81445L4.7168 3.81445C5.50977 3.81445 6.1626 3.95003 6.67529 4.22119C7.18799 4.49235 7.56852 4.86491 7.81689 5.33887C8.06527 5.81283 8.18945 6.35286 8.18945 6.95898C8.18945 7.5651 8.06527 8.10059 7.81689 8.56543C7.56852 9.03027 7.18913 9.39258 6.67871 9.65234L6.67871 9.65234C6.56022 9.71615 6.4349 9.77083 6.30273 9.81641L6.30273 9.81641L8.58594 14L7.08203 14L4.96289 10.04199C4.88542 10.04655 4.80566 10.04883 4.72363 10.04883L4.72363 10.04883L2.5293 10.04883L2.5293 14M2.5293 4.95605L2.5293 8.89355L4.66211 8.89355C5.19987 8.89355 5.63167 8.81494 5.95752 8.65771C6.28337 8.50049 6.52148 8.27718 6.67188 7.98779C6.82227 7.69841 6.89746 7.35547 6.89746 6.95898L6.89746 6.95898C6.89746 6.55339 6.82227 6.20133 6.67188 5.90283C6.52148 5.60433 6.28223 5.37191 5.9541 5.20557C5.62598 5.03922 5.19076 4.95605 4.64844 4.95605L4.64844 4.95605L2.5293 4.95605M11.32031 14L10.08984 14L10.08984 6.35742L11.32031 6.35742L11.32031 14M10.71191 5.10645L10.71191 5.10645C10.47949 5.10645 10.27897 5.02669 10.11035 4.86719C9.94173 4.70768 9.85742 4.51628 9.85742 4.29297L9.85742 4.29297C9.85742 4.0651 9.94173 3.87256 10.11035 3.71533C10.27897 3.55811 10.47949 3.47949 10.71191 3.47949L10.71191 3.47949C10.94889 3.47949 11.15169 3.55811 11.32031 3.71533C11.48893 3.87256 11.57324 4.0651 11.57324 4.29297L11.57324 4.29297C11.57324 4.51628 11.48893 4.70768 11.32031 4.86719C11.15169 5.02669 10.94889 5.10645 10.71191 5.10645M16.57715 17.02148L16.57715 17.02148C16.01204 17.02148 15.52327 16.94971 15.11084 16.80615C14.6984 16.6626 14.35547 16.47233 14.08203 16.23535C13.80859 15.99837 13.59212 15.74089 13.43262 15.46289L13.43262 15.46289L14.43066 14.82031C14.54004 14.96615 14.67562 15.12793 14.8374 15.30566C14.99919 15.4834 15.21794 15.63493 15.49365 15.76025C15.76937 15.88558 16.13053 15.94824 16.57715 15.94824L16.57715 15.94824C17.18783 15.94824 17.69027 15.80241 18.08447 15.51074C18.47868 15.21908 18.67578 14.75879 18.67578 14.12988L18.67578 14.12988L18.67578 12.59863L18.55957 12.59863C18.47298 12.74447 18.35107 12.91764 18.19385 13.11816C18.03662 13.31868 17.81104 13.49528 17.51709 13.64795C17.22314 13.80062 16.83008 13.87695 16.33789 13.87695L16.33789 13.87695C15.72721 13.87695 15.17806 13.73226 14.69043 13.44287C14.2028 13.15348 13.81771 12.73079 13.53516 12.1748C13.2526 11.61882 13.11133 10.94206 13.11133 10.14453L13.11133 10.14453C13.11133 9.35612 13.25033 8.67139 13.52832 8.09033C13.80632 7.50928 14.19027 7.05924 14.68018 6.74023C15.17008 6.42122 15.73177 6.26172 16.36523 6.26172L16.36523 6.26172C16.85742 6.26172 17.25049 6.34261 17.54443 6.50439C17.83838 6.66618 18.0651 6.85189 18.22461 7.06152C18.38411 7.27116 18.50716 7.44434 18.59375 7.58105L18.59375 7.58105L18.70996 7.58105L18.70996 6.35742L19.90625 6.35742L19.90625 14.19824C19.90625 14.85449 19.75814 15.39111 19.46191 15.80811C19.16569 16.2251 18.76579 16.53158 18.26221 16.72754C17.75863 16.9235 17.19694 17.02148 16.57715 17.02148M16.54297 12.7832L16.54297 12.7832C17.00781 12.7832 17.39974 12.67725 17.71875 12.46533C18.03776 12.25342 18.2793 11.94808 18.44336 11.54932C18.60742 11.15055 18.68945 10.67318 18.68945 10.11719L18.68945 10.11719C18.68945 9.57487 18.60856 9.09749 18.44678 8.68506C18.28499 8.27262 18.0446 7.94906 17.72559 7.71436C17.40658 7.47966 17.01237 7.3623 16.54297 7.3623L16.54297 7.3623C16.0599 7.3623 15.65658 7.48649 15.33301 7.73486C15.00944 7.98324 14.76676 8.31478 14.60498 8.72949C14.4432 9.14421 14.3623 9.60677 14.3623 10.11719L14.3623 10.11719C14.3623 10.64128 14.44434 11.10384 14.6084 11.50488C14.77246 11.90592 15.01628 12.21924 15.33984 12.44482C15.66341 12.67041 16.06445 12.7832 16.54297 12.7832M23.29688 9.41992L23.29688 9.41992L23.29688 14L22.06641 14L22.06641 3.81445L23.29688 3.81445L23.29688 7.67676C23.50651 7.24382 23.76855 6.92025 24.08301 6.70605L24.08301 6.70605C24.51139 6.40983 25.01497 6.26172 25.59375 6.26172L25.59375 6.26172C26.10872 6.26172 26.56104 6.36768 26.95068 6.57959C27.34033 6.7915 27.64339 7.11051 27.85986 7.53662C28.07633 7.96273 28.18457 8.49935 28.18457 9.14648L28.18457 9.14648L28.18457 14L26.94727 14L26.94727 9.24902C26.94727 8.66113 26.79346 8.20085 26.48584 7.86816C26.17822 7.53548 25.75781 7.36914 25.22461 7.36914L25.22461 7.36914C24.86003 7.36914 24.5319 7.44889 24.24023 7.6084C23.94857 7.7679 23.71842 8.00033 23.5498 8.30566C23.38118 8.611 23.29688 8.98242 23.29688 9.41992M31.78027 6.35742L33.35254 6.35742L33.35254 7.41016L31.78027 7.41016L31.78027 12.01758C31.78027 12.35938 31.84977 12.60889 31.98877 12.76611C32.12777 12.92334 32.35905 13.00195 32.68262 13.00195L32.68262 13.00195C32.76009 13.00195 32.85921 12.99284 32.97998 12.97461C33.10075 12.95638 33.21126 12.93815 33.31152 12.91992L33.31152 12.91992L33.56445 13.95898C33.43685 14.00456 33.29216 14.03874 33.13037 14.06152C32.96859 14.08431 32.80794 14.0957 32.64844 14.0957L32.64844 14.0957C31.98763 14.0957 31.47266 13.92139 31.10352 13.57275C30.73438 13.22412 30.5498 12.73763 30.5498 12.11328L30.5498 12.11328L30.5498 7.41016L29.40137 7.41016L29.40137 6.35742L30.5498 6.35742L30.5498 4.53906L31.78027 4.53906L31.78027 6.35742M41.00195 14.17773L41.00195 14.17773C40.51888 14.17773 40.08024 14.08659 39.68604 13.9043C39.29183 13.72201 38.97852 13.4554 38.74609 13.10449C38.51367 12.75358 38.39746 12.32747 38.39746 11.82617L38.39746 11.82617C38.39746 11.38867 38.48405 11.0332 38.65723 10.75977C38.8304 10.48633 39.06169 10.271 39.35107 10.11377C39.64046 9.95654 39.96061 9.83919 40.31152 9.76172C40.66243 9.68424 41.01563 9.62272 41.37109 9.57715L41.37109 9.57715C41.82682 9.5179 42.19824 9.47233 42.48535 9.44043C42.77246 9.40853 42.98551 9.35384 43.12451 9.27637C43.26351 9.19889 43.33301 9.06673 43.33301 8.87988L43.33301 8.87988L43.33301 8.83887C43.33301 8.51986 43.27376 8.24984 43.15527 8.02881C43.03678 7.80778 42.85905 7.63802 42.62207 7.51953C42.38509 7.40104 42.08887 7.3418 41.7334 7.3418L41.7334 7.3418C41.36882 7.3418 41.05664 7.39876 40.79688 7.5127C40.53711 7.62663 40.32633 7.76904 40.16455 7.93994C40.00277 8.11084 39.88086 8.28516 39.79883 8.46289L39.79883 8.46289L38.61621 8.07324C38.81217 7.6084 39.0765 7.24495 39.40918 6.98291C39.74186 6.72087 40.10872 6.53516 40.50977 6.42578C40.91081 6.31641 41.30729 6.26172 41.69922 6.26172L41.69922 6.26172C41.95443 6.26172 42.24495 6.29248 42.5708 6.354C42.89665 6.41553 43.2111 6.53744 43.51416 6.71973C43.81722 6.90202 44.06787 7.17204 44.26611 7.52979C44.46436 7.88753 44.56348 8.36491 44.56348 8.96191L44.56348 8.96191L44.56348 14L43.35352 14L43.35352 12.96094L43.27148 12.96094C43.1849 13.13867 43.0459 13.3221 42.85449 13.51123C42.66309 13.70036 42.41471 13.85872 42.10938 13.98633C41.80404 14.11393 41.4349 14.17773 41.00195 14.17773M41.21387 13.09082L41.21387 13.09082C41.6696 13.09082 42.05469 13.00195 42.36914 12.82422C42.68359 12.64648 42.92285 12.4152 43.08691 12.13037C43.25098 11.84554 43.33301 11.54818 43.33301 11.23828L43.33301 11.23828L43.33301 10.17871C43.28288 10.23796 43.1735 10.2915 43.00488 10.33936C42.83626 10.38721 42.64372 10.42936 42.42725 10.46582C42.21077 10.50228 42.00114 10.53304 41.79834 10.55811C41.59554 10.58317 41.4349 10.60254 41.31641 10.61621L41.31641 10.61621C41.02018 10.65267 40.74333 10.71533 40.48584 10.8042C40.22835 10.89307 40.02214 11.02295 39.86719 11.19385C39.71224 11.36475 39.63477 11.59603 39.63477 11.8877L39.63477 11.8877C39.63477 12.15202 39.70313 12.37305 39.83984 12.55078C39.97656 12.72852 40.16341 12.86296 40.40039 12.9541C40.63737 13.04525 40.90853 13.09082 41.21387 13.09082M46.72363 3.81445L47.9541 3.81445L47.9541 14L46.72363 14L46.72363 3.81445M51.34473 14L50.11426 14L50.11426 6.35742L51.34473 6.35742L51.34473 14M50.73633 5.10645L50.73633 5.10645C50.50391 5.10645 50.30339 5.02669 50.13477 4.86719C49.96615 4.70768 49.88184 4.51628 49.88184 4.29297L49.88184 4.29297C49.88184 4.0651 49.96615 3.87256 50.13477 3.71533C50.30339 3.55811 50.50391 3.47949 50.73633 3.47949L50.73633 3.47949C50.97331 3.47949 51.17611 3.55811 51.34473 3.71533C51.51335 3.87256 51.59766 4.0651 51.59766 4.29297L51.59766 4.29297C51.59766 4.51628 51.51335 4.70768 51.34473 4.86719C51.17611 5.02669 50.97331 5.10645 50.73633 5.10645M56.60156 17.02148L56.60156 17.02148C56.03646 17.02148 55.54769 16.94971 55.13525 16.80615C54.72282 16.6626 54.37988 16.47233 54.10645 16.23535C53.83301 15.99837 53.61654 15.74089 53.45703 15.46289L53.45703 15.46289L54.45508 14.82031C54.56445 14.96615 54.70003 15.12793 54.86182 15.30566C55.0236 15.4834 55.24235 15.63493 55.51807 15.76025C55.79378 15.88558 56.15495 15.94824 56.60156 15.94824L56.60156 15.94824C57.21224 15.94824 57.71468 15.80241 58.10889 15.51074C58.50309 15.21908 58.7002 14.75879 58.7002 14.12988L58.7002 14.12988L58.7002 12.59863L58.58398 12.59863C58.4974 12.74447 58.37549 12.91764 58.21826 13.11816C58.06104 13.31868 57.83545 13.49528 57.5415 13.64795C57.24756 13.80062 56.85449 13.87695 56.3623 13.87695L56.3623 13.87695C55.75163 13.87695 55.20247 13.73226 54.71484 13.44287C54.22721 13.15348 53.84212 12.73079 53.55957 12.1748C53.27702 11.61882 53.13574 10.94206 53.13574 10.14453L53.13574 10.14453C53.13574 9.35612 53.27474 8.67139 53.55273 8.09033C53.83073 7.50928 54.21468 7.05924 54.70459 6.74023C55.1945 6.42122 55.75618 6.26172 56.38965 6.26172L56.38965 6.26172C56.88184 6.26172 57.2749 6.34261 57.56885 6.50439C57.86279 6.66618 58.08952 6.85189 58.24902 7.06152C58.40853 7.27116 58.53158 7.44434 58.61816 7.58105L58.61816 7.58105L58.73438 7.58105L58.73438 6.35742L59.93066 6.35742L59.93066 14.19824C59.93066 14.85449 59.78255 15.39111 59.48633 15.80811C59.1901 16.2251 58.7902 16.53158 58.28662 16.72754C57.78304 16.9235 57.22135 17.02148 56.60156 17.02148M56.56738 12.7832L56.56738 12.7832C57.03223 12.7832 57.42415 12.67725 57.74316 12.46533C58.06217 12.25342 58.30371 11.94808 58.46777 11.54932C58.63184 11.15055 58.71387 10.67318 58.71387 10.11719L58.71387 10.11719C58.71387 9.57487 58.63298 9.09749 58.47119 8.68506C58.30941 8.27262 58.06901 7.94906 57.75 7.71436C57.43099 7.47966 57.03678 7.3623 56.56738 7.3623L56.56738 7.3623C56.08431 7.3623 55.68099 7.48649 55.35742 7.73486C55.03385 7.98324 54.79118 8.31478 54.62939 8.72949C54.46761 9.14421 54.38672 9.60677 54.38672 10.11719L54.38672 10.11719C54.38672 10.64128 54.46875 11.10384 54.63281 11.50488C54.79688 11.90592 55.04069 12.21924 55.36426 12.44482C55.68783 12.67041 56.08887 12.7832 56.56738 12.7832M63.32129 9.41992L63.32129 9.41992L63.32129 14L62.09082 14L62.09082 6.35742L63.27344 6.35742L63.28027 7.77246C63.49447 7.29395 63.77018 6.93848 64.10742 6.70605L64.10742 6.70605C64.53581 6.40983 65.03939 6.26172 65.61816 6.26172L65.61816 6.26172C66.13314 6.26172 66.58431 6.36768 66.97168 6.57959C67.35905 6.7915 67.66097 7.11051 67.87744 7.53662C68.09391 7.96273 68.20215 8.49935 68.20215 9.14648L68.20215 9.14648L68.20215 14L66.97168 14L66.97168 9.24902C66.97168 8.66113 66.81787 8.20085 66.51025 7.86816C66.20264 7.53548 65.78223 7.36914 65.24902 7.36914L65.24902 7.36914C64.88444 7.36914 64.55632 7.44889 64.26465 7.6084C63.97298 7.7679 63.74284 8.00033 63.57422 8.30566C63.4056 8.611 63.32129 8.98242 63.32129 9.41992M73.5752 14.16406L73.5752 14.16406C72.83691 14.16406 72.20003 14 71.66455 13.67188C71.12907 13.34375 70.71663 12.88574 70.42725 12.29785C70.13786 11.70996 69.99316 11.02409 69.99316 10.24023C69.99316 9.45638 70.13444 8.76595 70.41699 8.16895C70.69954 7.57194 71.09945 7.10482 71.6167 6.76758C72.13395 6.43034 72.73893 6.26172 73.43164 6.26172L73.43164 6.26172C73.83724 6.26172 74.23714 6.32894 74.63135 6.46338C75.02555 6.59782 75.3833 6.81429 75.70459 7.11279C76.02588 7.4113 76.28223 7.80436 76.47363 8.29199C76.66504 8.77962 76.76074 9.37663 76.76074 10.08301L76.76074 10.08301L76.76074 10.5957L71.2373 10.5957C71.25553 11.08789 71.35352 11.51172 71.53125 11.86719L71.53125 11.86719C71.72721 12.26367 72.00179 12.56331 72.35498 12.76611C72.70817 12.96891 73.11719 13.07031 73.58203 13.07031L73.58203 13.07031C73.88281 13.07031 74.15625 13.02702 74.40234 12.94043C74.64844 12.85384 74.86035 12.72282 75.03809 12.54736C75.21582 12.37191 75.35254 12.1543 75.44824 11.89453L75.44824 11.89453L76.6377 12.22266C76.51921 12.60547 76.31869 12.94271 76.03613 13.23438C75.75358 13.52604 75.40381 13.75391 74.98682 13.91797C74.56982 14.08203 74.09928 14.16406 73.5752 14.16406M71.24414 9.55664L71.24414 9.55664L75.50977 9.55664C75.47786 9.21029 75.40495 8.89128 75.29102 8.59961L75.29102 8.59961C75.13151 8.21224 74.89681 7.90804 74.58691 7.68701C74.27702 7.46598 73.89193 7.35547 73.43164 7.35547C72.97135 7.35547 72.57715 7.46826 72.24902 7.69385C71.9209 7.91943 71.67025 8.21224 71.49707 8.57227L71.49707 8.57227C71.35124 8.88216 71.26693 9.21029 71.24414 9.55664M81.38867 14.16406L81.38867 14.16406C80.75521 14.16406 80.19466 14.00228 79.70703 13.67871C79.2194 13.35514 78.83887 12.89714 78.56543 12.30469C78.29199 11.71224 78.15527 11.01042 78.15527 10.19922L78.15527 10.19922C78.15527 9.39258 78.29313 8.69417 78.56885 8.104C78.84456 7.51383 79.22624 7.05924 79.71387 6.74023C80.2015 6.42122 80.76204 6.26172 81.39551 6.26172L81.39551 6.26172C81.89225 6.26172 82.28646 6.34375 82.57813 6.50781C82.86979 6.67188 83.09424 6.85758 83.25146 7.06494C83.40869 7.2723 83.52832 7.44434 83.61035 7.58105L83.61035 7.58105L83.70605 7.58105L83.70605 3.81445L84.93652 3.81445L84.93652 14L83.74707 14L83.74707 12.81738L83.61035 12.81738C83.52832 12.95866 83.40641 13.13525 83.24463 13.34717C83.08284 13.55908 82.85498 13.74821 82.56104 13.91455C82.26709 14.08089 81.8763 14.16406 81.38867 14.16406M81.57324 13.06348L81.57324 13.06348C82.03809 13.06348 82.43001 12.94157 82.74902 12.69775C83.06803 12.45394 83.30957 12.11556 83.47363 11.68262C83.6377 11.24967 83.71973 10.75065 83.71973 10.18555L83.71973 10.18555C83.71973 9.62044 83.63883 9.12712 83.47705 8.70557C83.31527 8.28402 83.07487 7.95475 82.75586 7.71777C82.43685 7.48079 82.04264 7.3623 81.57324 7.3623L81.57324 7.3623C81.09017 7.3623 80.68799 7.48763 80.3667 7.73828C80.04541 7.98893 79.80501 8.32731 79.64551 8.75342C79.486 9.17952 79.40625 9.6569 79.40625 10.18555L79.40625 10.18555C79.40625 10.71875 79.48714 11.20296 79.64893 11.63818C79.81071 12.0734 80.05339 12.41976 80.37695 12.67725C80.70052 12.93473 81.09928 13.06348 81.57324 13.06348" fill="#000000"/></g></g></g></svg>