<svg xmlns="http://www.w3.org/2000/svg" width="200" height="100" viewBox="0 0 200 100"><defs><clipPath id="clip-0"><path d="M 0.00 0.00 L 200.00 0.00 L 200.00 60.00 L 0.00 60.00 L 0.00 0.00" fill-rule="nonzero" fill="black"/></clipPath></defs><g><path d="M 0.00 0.00 L 200.00 0.00 L 200.00 60.00 L 0.00 60.00 L 0.00 0.00" fill-rule="nonzero" fill="#ffffff"/><g clip-path="url(#clip-0)"><g transform="matrix(1, 0, 0, 1, 10, 15)"><path d="M5.96875 16L1.05469 16L1.05469 4.35938L5.67188 4.35938C6.52604 4.35938 7.23828 4.48828 7.80859 4.74609C8.37891 5.00391 8.80599 5.35677 9.08984 5.80469C9.3737 6.2526 9.51563 6.76823 9.51563 7.35156L9.51563 7.35156C9.51563 7.8099 9.42448 8.20964 9.24219 8.55078C9.0599 8.89193 8.8112 9.17057 8.49609 9.38672C8.18099 9.60286 7.82292 9.75781 7.42188 9.85156L7.42188 9.85156L7.42188 9.96875C7.85938 9.98438 8.27214 10.10807 8.66016 10.33984C9.04818 10.57161 9.36328 10.89453 9.60547 11.30859C9.84766 11.72266 9.96875 12.21615 9.96875 12.78906L9.96875 12.78906C9.96875 13.40365 9.81771 13.95313 9.51563 14.4375C9.21354 14.92188 8.76693 15.30339 8.17578 15.58203C7.58464 15.86068 6.84896 16 5.96875 16L5.96875 16M3.4375 10.88281L3.4375 14.03906L5.5 14.03906C6.19792 14.03906 6.70833 13.90365 7.03125 13.63281C7.35417 13.36198 7.51563 13.00521 7.51563 12.5625L7.51563 12.5625C7.51563 12.23438 7.4362 11.94401 7.27734 11.69141C7.11849 11.4388 6.89323 11.24089 6.60156 11.09766C6.3099 10.95443 5.96354 10.88281 5.5625 10.88281L5.5625 10.88281L3.4375 10.88281M3.4375 6.30469L3.4375 9.25L5.32031 9.25C5.65885 9.25 5.96354 9.1888 6.23438 9.06641C6.50521 8.94401 6.71745 8.76953 6.87109 8.54297C7.02474 8.31641 7.10156 8.04688 7.10156 7.73438L7.10156 7.73438C7.10156 7.3125 6.95182 6.96875 6.65234 6.70313C6.35286 6.4375 5.92448 6.30469 5.36719 6.30469L5.36719 6.30469L3.4375 6.30469M15.49219 16.17188L15.49219 16.17188C14.61719 16.17188 13.85938 15.98307 13.21875 15.60547C12.57813 15.22786 12.08464 14.70182 11.73828 14.02734C11.39193 13.35286 11.21875 12.56771 11.21875 11.67188L11.21875 11.67188C11.21875 10.76563 11.39193 9.97526 11.73828 9.30078C12.08464 8.6263 12.57813 8.10026 13.21875 7.72266C13.85938 7.34505 14.61719 7.15625 15.49219 7.15625L15.49219 7.15625C16.3724 7.15625 17.13151 7.34505 17.76953 7.72266C18.40755 8.10026 18.89974 8.6263 19.24609 9.30078C19.59245 9.97526 19.76563 10.76563 19.76563 11.67188L19.76563 11.67188C19.76563 12.56771 19.59245 13.35286 19.24609 14.02734C18.89974 14.70182 18.40755 15.22786 17.76953 15.60547C17.13151 15.98307 16.3724 16.17188 15.49219 16.17188M15.49219 14.32813L15.49219 14.32813C15.90885 14.32813 16.25781 14.21224 16.53906 13.98047C16.82031 13.7487 17.03125 13.43099 17.17188 13.02734C17.3125 12.6237 17.38281 12.16927 17.38281 11.66406L17.38281 11.66406C17.38281 11.14844 17.3125 10.6901 17.17188 10.28906C17.03125 9.88802 16.82031 9.57292 16.53906 9.34375C16.25781 9.11458 15.90885 9 15.49219 9L15.49219 9C15.07552 9 14.72786 9.11458 14.44922 9.34375C14.17057 9.57292 13.96094 9.88802 13.82031 10.28906C13.67969 10.6901 13.60938 11.14844 13.60938 11.66406L13.60938 11.66406C13.60938 12.16927 13.67969 12.6237 13.82031 13.02734C13.96094 13.43099 14.17057 13.7487 14.44922 13.98047C14.72786 14.21224 15.07552 14.32813 15.49219 14.32813M21.39844 4.35938L23.74219 4.35938L23.74219 16L21.39844 16L21.39844 4.35938M28.92188 16.14844L28.92188 16.14844C28.25521 16.14844 27.65234 15.97526 27.11328 15.62891C26.57422 15.28255 26.14844 14.77474 25.83594 14.10547C25.52344 13.4362 25.36719 12.61719 25.36719 11.64844L25.36719 11.64844C25.36719 10.65365 25.52865 9.82292 25.85156 9.15625C26.17448 8.48958 26.60417 7.98958 27.14063 7.65625C27.67708 7.32292 28.26823 7.15625 28.91406 7.15625L28.91406 7.15625C29.40885 7.15625 29.82031 7.23958 30.14844 7.40625C30.47656 7.57292 30.74219 7.77865 30.94531 8.02344C31.14844 8.26823 31.29948 8.50521 31.39844 8.73438L31.39844 8.73438L31.47656 8.73438L31.47656 4.35938L33.82031 4.35938L33.82031 16L31.51563 16L31.51563 14.60156L31.39844 14.60156C31.29427 14.83594 31.13932 15.07161 30.93359 15.30859C30.72786 15.54557 30.46094 15.74479 30.13281 15.90625C29.80469 16.06771 29.40104 16.14844 28.92188 16.14844M29.64844 14.26563L29.64844 14.26563C30.04427 14.26563 30.38281 14.15625 30.66406 13.9375C30.94531 13.71875 31.15885 13.41276 31.30469 13.01953C31.45052 12.6263 31.52344 12.16667 31.52344 11.64063L31.52344 11.64063C31.52344 11.10938 31.45182 10.64974 31.30859 10.26172C31.16536 9.8737 30.95313 9.57161 30.67188 9.35547C30.39063 9.13932 30.04948 9.03125 29.64844 9.03125L29.64844 9.03125C29.23698 9.03125 28.89193 9.14323 28.61328 9.36719C28.33464 9.59115 28.125 9.89844 27.98438 10.28906C27.84375 10.67969 27.77344 11.13021 27.77344 11.64063L27.77344 11.64063C27.77344 12.15104 27.84505 12.60417 27.98828 13C28.13151 13.39583 28.34245 13.70573 28.62109 13.92969C28.89974 14.15365 29.24219 14.26563 29.64844 14.26563M42.75781 6.33594L39.19531 6.33594L39.19531 4.35938L48.70313 4.35938L48.70313 6.33594L45.14844 6.33594L45.14844 16L42.75781 16L42.75781 6.33594M54.23438 16.17188L54.23438 16.17188C53.34375 16.17188 52.57552 15.98958 51.92969 15.625C51.28385 15.26042 50.78776 14.74219 50.44141 14.07031C50.09505 13.39844 49.92188 12.60156 49.92188 11.67969L49.92188 11.67969C49.92188 10.77865 50.09375 9.98958 50.4375 9.3125C50.78125 8.63542 51.26823 8.10677 51.89844 7.72656C52.52865 7.34635 53.26823 7.15625 54.11719 7.15625L54.11719 7.15625C54.6901 7.15625 55.22396 7.2474 55.71875 7.42969C56.21354 7.61198 56.64844 7.88672 57.02344 8.25391C57.39844 8.62109 57.69141 9.08073 57.90234 9.63281C58.11328 10.1849 58.21875 10.83594 58.21875 11.58594L58.21875 11.58594L58.21875 12.24219L52.24219 12.24219C52.25781 12.6849 52.34375 13.0625 52.5 13.375L52.5 13.375C52.66667 13.71875 52.90234 13.97656 53.20703 14.14844C53.51172 14.32031 53.86719 14.40625 54.27344 14.40625L54.27344 14.40625C54.54948 14.40625 54.79948 14.36719 55.02344 14.28906C55.2474 14.21094 55.4388 14.09505 55.59766 13.94141C55.75651 13.78776 55.8776 13.59896 55.96094 13.375L55.96094 13.375L58.08594 13.77344C57.94531 14.2526 57.70052 14.67318 57.35156 15.03516C57.0026 15.39714 56.56641 15.67708 56.04297 15.875C55.51953 16.07292 54.91667 16.17188 54.23438 16.17188M52.25781 10.77344L52.25781 10.77344L55.96094 10.77344C55.92969 10.48177 55.86719 10.21615 55.77344 9.97656L55.77344 9.97656C55.63281 9.64323 55.42578 9.38411 55.15234 9.19922C54.87891 9.01432 54.54167 8.92188 54.14063 8.92188L54.14063 8.92188C53.73438 8.92188 53.38932 9.01563 53.10547 9.20313C52.82161 9.39063 52.60677 9.64323 52.46094 9.96094L52.46094 9.96094C52.35156 10.20573 52.28385 10.47656 52.25781 10.77344M61.63281 16L59.14844 16L61.96094 11.51563L59.32031 7.26563L61.85156 7.26563L62.64063 8.64063C62.89063 9.09375 63.11719 9.53906 63.32031 9.97656L63.32031 9.97656C63.3724 10.10156 63.42708 10.22656 63.48438 10.35156L63.48438 10.35156C63.54167 10.23177 63.59896 10.10938 63.65625 9.98438L63.65625 9.98438C63.85417 9.54167 64.08333 9.09375 64.34375 8.64063L64.34375 8.64063L65.16406 7.26563L67.64844 7.26563L64.95313 11.54688L67.77344 16L65.25781 16L64.28906 14.35938C64.03385 13.91146 63.80469 13.46615 63.60156 13.02344L63.60156 13.02344C63.54427 12.90365 63.48698 12.78385 63.42969 12.66406L63.42969 12.66406C63.3776 12.78385 63.32552 12.90365 63.27344 13.02344L63.27344 13.02344C63.07552 13.46615 62.85156 13.91146 62.60156 14.35938L62.60156 14.35938L61.63281 16M71.80469 7.26563L73.4375 7.26563L73.4375 9.05469L71.80469 9.05469L71.80469 13.44531C71.80469 13.72135 71.86589 13.92578 71.98828 14.05859C72.11068 14.19141 72.3151 14.25781 72.60156 14.25781L72.60156 14.25781C72.6901 14.25781 72.8151 14.24609 72.97656 14.22266C73.13802 14.19922 73.26042 14.17708 73.34375 14.15625L73.34375 14.15625L73.67969 15.91406C73.41927 15.99219 73.16016 16.04688 72.90234 16.07813C72.64453 16.10938 72.39844 16.125 72.16406 16.125L72.16406 16.125C71.28906 16.125 70.61979 15.91146 70.15625 15.48438C69.69271 15.05729 69.46094 14.44531 69.46094 13.64844L69.46094 13.64844L69.46094 9.05469L68.25781 9.05469L68.25781 7.26563L69.46094 7.26563L69.46094 5.1875L71.80469 5.1875L71.80469 7.26563" fill="#000000"/></g></g></g></svg>