<svg xmlns="http://www.w3.org/2000/svg" width="200" height="150" viewBox="0 0 200 150"><g><defs><clipPath id="clip-g493-0"><rect x="0" y="0" width="200" height="150"/></clipPath></defs><rect x="0" y="0" width="200" height="150" fill="#ffffff"/><g transform="matrix(1,0,0,1,40,35)"><path d="M80 17.638934936808L80 0L0 0L0 60L37.638934936808 60C32.888535689977 54.692435074463 30 47.683544363415 30 40C30 23.431457519531 43.431457519531 10 60 10C67.683544363415 10 74.692435074463 12.888535689977 80.000000000011 17.638934936796L80 60L37.638934936808 60C43.132140463689 66.137493601815 51.115001882946 70 60 70C76.568542480469 70 90 56.568542480469 90 40C90 31.115001882946 86.137493601815 23.132140463689 80.000000000011 17.638934936796" fill-rule="evenodd" fill="#cc8033"/></g></g></svg>