<svg xmlns="http://www.w3.org/2000/svg" width="250" height="180" viewBox="0 0 250 180"><g><defs><clipPath id="clip-g6-0"><rect x="0" y="0" width="250" height="180"/></clipPath></defs><rect x="0" y="0" width="250" height="180" fill="#ffffff"/><g transform="matrix(1,0,0,1,50,30)"><path d="M50 0C22.385763168335 0 0 22.385763168335 0 50C0 77.614234924316 22.385763168335 100 50 100C77.614234924316 100 100 77.614234924316 100 50C100 22.385763168335 77.614234924316 0 50 0M50 25C63.807117462158 25 75 36.192881584167 75 50C75 63.807117462158 63.807117462158 75 50 75C36.192881584167 75 25 63.807117462158 25 50C25 36.192881584167 36.192881584167 25 50 25" fill-rule="evenodd" fill="#e6661a"/></g></g></svg>