<svg xmlns="http://www.w3.org/2000/svg" width="120" height="200" viewBox="0 0 120 200"><g><defs><clipPath id="clip-g7-0"><rect x="0" y="0" width="120" height="200"/></clipPath></defs><g clip-path="url(#clip-g7-0)"><rect x="0" y="0" width="120" height="200" fill="#f2f2f2"/><g transform="matrix(1,0,0,1,0,80)"><path d="M 4 0 L 36 0 C 38.20913899932317 0 40 1.7908610006768266 40 4 L 40 36 C 40 38.20913899932317 38.20913899932317 40 36 40 L 4 40 C 1.7908610006768266 40 0 38.20913899932317 0 36 L 0 4 C 0 1.7908610006768266 1.7908610006768266 0 4 0 Z" fill="#e6994d"/></g><g transform="matrix(1,0,0,1,40,80)"><path d="M 4 0 L 36 0 C 38.20913899932317 0 40 1.7908610006768266 40 4 L 40 36 C 40 38.20913899932317 38.20913899932317 40 36 40 L 4 40 C 1.7908610006768266 40 0 38.20913899932317 0 36 L 0 4 C 0 1.7908610006768266 1.7908610006768266 0 4 0 Z" fill="#99e64d"/></g><g transform="matrix(1,0,0,1,80,80)"><path d="M 4 0 L 36 0 C 38.20913899932317 0 40 1.7908610006768266 40 4 L 40 36 C 40 38.20913899932317 38.20913899932317 40 36 40 L 4 40 C 1.7908610006768266 40 0 38.20913899932317 0 36 L 0 4 C 0 1.7908610006768266 1.7908610006768266 0 4 0 Z" fill="#4d99e6"/></g></g></g></svg>