<svg xmlns="http://www.w3.org/2000/svg" width="200" height="110" viewBox="0 0 200 110"><g><defs><clipPath id="clip-g5-0"><rect x="0" y="0" width="200" height="110"/></clipPath></defs><rect x="0" y="0" width="200" height="110" fill="#f2f2f2"/><g transform="matrix(1,0,0,1,80,0)"><path d="M 4 0 L 36 0 C 38.20913899932317 0 40 1.7908610006768266 40 4 L 40 26 C 40 28.209138999323173 38.20913899932317 30 36 30 L 4 30 C 1.7908610006768266 30 0 28.209138999323173 0 26 L 0 4 C 0 1.7908610006768266 1.7908610006768266 0 4 0 Z" fill="#e64d4d"/></g><g transform="matrix(1,0,0,1,70,40)"><path d="M 4 0 L 56 0 C 58.20913899932317 0 60 1.7908610006768266 60 4 L 60 26 C 60 28.209138999323173 58.20913899932317 30 56 30 L 4 30 C 1.7908610006768266 30 0 28.209138999323173 0 26 L 0 4 C 0 1.7908610006768266 1.7908610006768266 0 4 0 Z" fill="#4de64d"/></g><g transform="matrix(1,0,0,1,75,80)"><path d="M 4 0 L 46 0 C 48.20913899932317 0 50 1.7908610006768266 50 4 L 50 26 C 50 28.209138999323173 48.20913899932317 30 46 30 L 4 30 C 1.7908610006768266 30 0 28.209138999323173 0 26 L 0 4 C 0 1.7908610006768266 1.7908610006768266 0 4 0 Z" fill="#4d4de6"/></g></g></svg>