<svg xmlns="http://www.w3.org/2000/svg" width="200" height="200" viewBox="0 0 200 200"><g><defs><clipPath id="clip-g11-0"><rect x="0" y="0" width="200" height="200"/></clipPath></defs><rect x="0" y="0" width="200" height="200" fill="#f2f2f2"/><g transform="matrix(1,0,0,1,10,10)"><rect x="0" y="0" width="30" height="30" fill="#e64d4d"/></g><g transform="matrix(1,0,0,1,160,10)"><rect x="0" y="0" width="30" height="30" fill="#4de64d"/></g><g transform="matrix(1,0,0,1,85,85)"><rect x="0" y="0" width="30" height="30" fill="#e6e64d"/></g><g transform="matrix(1,0,0,1,10,160)"><rect x="0" y="0" width="30" height="30" fill="#4d4de6"/></g><g transform="matrix(1,0,0,1,160,160)"><rect x="0" y="0" width="30" height="30" fill="#e64de6"/></g></g></svg>