<svg xmlns="http://www.w3.org/2000/svg" width="80" height="50" viewBox="0 0 80 50"><g><defs><clipPath id="clip-g52-2"><rect x="0" y="0" width="80" height="50"/></clipPath></defs><rect x="0" y="0" width="80" height="50" fill="#ffffff"/><g transform="matrix(1,0,0,1,18,14)"><defs><clipPath id="clip-g52-1"><rect x="0" y="0" width="44" height="22"/></clipPath></defs><g clip-path="url(#clip-g52-1)"><rect x="0" y="0" width="44" height="22" fill="#ffffff"/><g><defs><clipPath id="clip-g52-0"><path d="M 11 0 L 33 0 C 39.07513224813873 0 44 4.924867751861274 44 11 L 44 11 C 44 17.075132248138726 39.07513224813873 22 33 22 L 11 22 C 4.924867751861274 22 0 17.075132248138726 0 11 L 0 11 C 0 4.924867751861274 4.924867751861274 0 11 0 Z"/></clipPath></defs><g clip-path="url(#clip-g52-0)"><path d="M 11 0 L 33 0 C 39.07513224813873 0 44 4.924867751861274 44 11 L 44 11 C 44 17.075132248138726 39.07513224813873 22 33 22 L 11 22 C 4.924867751861274 22 0 17.075132248138726 0 11 L 0 11 C 0 4.924867751861274 4.924867751861274 0 11 0 Z" fill="#007aff"/><path d="M 11 0 L 33 0 C 39.07513224813873 0 44 4.924867751861274 44 11 L 44 11 C 44 17.075132248138726 39.07513224813873 22 33 22 L 11 22 C 4.924867751861274 22 0 17.075132248138726 0 11 L 0 11 C 0 4.924867751861274 4.924867751861274 0 11 0 Z" fill="#007aff"/></g></g><g transform="matrix(1,0,0,1,10,8)"><circle cx="3" cy="3" r="3" fill="#ff3b30"/></g><g transform="matrix(1,0,0,1,19,8)"><circle cx="3" cy="3" r="3" fill="#ff9500"/></g><g transform="matrix(1,0,0,1,28,8)"><circle cx="3" cy="3" r="3" fill="#34c759"/></g></g></g></g></svg>