<svg xmlns="http://www.w3.org/2000/svg" width="180" height="120" viewBox="0 0 180 120"><g><defs><clipPath id="clip-g23-1"><rect x="0" y="0" width="180" height="120"/></clipPath></defs><rect x="0" y="0" width="180" height="120" fill="#ffffff"/><g transform="matrix(1,0,0,1,10,10)"><defs><clipPath id="clip-g23-0"><rect x="0" y="0" width="160" height="100"/></clipPath></defs><g clip-path="url(#clip-g23-0)"><rect x="0" y="0" width="160" height="100" fill="#ffffff"/><g transform="matrix(1,0,0,1,70,30)"><path d="M 4 0 L 56 0 C 58.20913899932317 0 60 1.7908610006768266 60 4 L 60 26 C 60 28.209138999323173 58.20913899932317 30 56 30 L 4 30 C 1.7908610006768266 30 0 28.209138999323173 0 26 L 0 4 C 0 1.7908610006768266 1.7908610006768266 0 4 0 Z" fill="#007aff"/></g></g></g></g></svg>