<svg xmlns="http://www.w3.org/2000/svg" width="40" height="40" viewBox="0 0 40 40"><g><defs><clipPath id="clip-g54-0"><path d="M 10 0 L 30 0 C 35.52284749830793 0 40 4.477152501692067 40 10 L 40 30 C 40 35.52284749830793 35.52284749830793 40 30 40 L 10 40 C 4.477152501692067 40 0 35.52284749830793 0 30 L 0 10 C 0 4.477152501692067 4.477152501692067 0 10 0 Z"/></clipPath></defs><path d="M 10 0 L 30 0 C 35.52284749830793 0 40 4.477152501692067 40 10 L 40 30 C 40 35.52284749830793 35.52284749830793 40 30 40 L 10 40 C 4.477152501692067 40 0 35.52284749830793 0 30 L 0 10 C 0 4.477152501692067 4.477152501692067 0 10 0 Z" fill="#34c759"/><path d="M 10 0 L 30 0 C 35.52284749830793 0 40 4.477152501692067 40 10 L 40 30 C 40 35.52284749830793 35.52284749830793 40 30 40 L 10 40 C 4.477152501692067 40 0 35.52284749830793 0 30 L 0 10 C 0 4.477152501692067 4.477152501692067 0 10 0 Z" fill="#34c759"/></g></svg>