<svg xmlns="http://www.w3.org/2000/svg" width="140" height="100" viewBox="0 0 140 100"><g><defs><clipPath id="clip-g56-1"><rect x="0" y="0" width="140" height="100"/></clipPath></defs><g clip-path="url(#clip-g56-1)"><rect x="0" y="0" width="140" height="100" fill="#ffffff"/><g transform="matrix(1,0,0,1,20,20)"><defs><clipPath id="clip-g56-0"><path d="M 10 0 L 90 0 C 95.52284749830794 0 100 4.477152501692067 100 10 L 100 50 C 100 55.52284749830793 95.52284749830794 60 90 60 L 10 60 C 4.477152501692067 60 0 55.52284749830793 0 50 L 0 10 C 0 4.477152501692067 4.477152501692067 0 10 0 Z"/></clipPath></defs><g clip-path="url(#clip-g56-0)"><path d="M 10 0 L 90 0 C 95.52284749830794 0 100 4.477152501692067 100 10 L 100 50 C 100 55.52284749830793 95.52284749830794 60 90 60 L 10 60 C 4.477152501692067 60 0 55.52284749830793 0 50 L 0 10 C 0 4.477152501692067 4.477152501692067 0 10 0 Z" fill="#34c759"/><path d="M 10 0 L 90 0 C 95.52284749830794 0 100 4.477152501692067 100 10 L 100 50 C 100 55.52284749830793 95.52284749830794 60 90 60 L 10 60 C 4.477152501692067 60 0 55.52284749830793 0 50 L 0 10 C 0 4.477152501692067 4.477152501692067 0 10 0 Z" fill="#34c759"/></g></g></g></g></svg>