<svg xmlns="http://www.w3.org/2000/svg" width="180" height="120" viewBox="0 0 180 120"><g><defs><clipPath id="clip-g49-1"><rect x="0" y="0" width="180" height="120"/></clipPath></defs><rect x="0" y="0" width="180" height="120" fill="#ffffff"/><g transform="matrix(1,0,0,1,10,10)"><defs><clipPath id="clip-g49-0"><rect x="0" y="0" width="160" height="100"/></clipPath></defs><g clip-path="url(#clip-g49-0)"><rect x="0" y="0" width="160" height="100" fill="#ffffff"/><g transform="matrix(1,0,0,1,16,16.66666603088379)"><path d="M 4 0 L 92 0 C 94.20913899932317 0 96 1.7908610006768266 96 4 L 96 46 C 96 48.20913899932317 94.20913899932317 50 92 50 L 4 50 C 1.7908610006768266 50 0 48.20913899932317 0 46 L 0 4 C 0 1.7908610006768266 1.7908610006768266 0 4 0 Z" fill="#007aff"/></g></g></g></g></svg>