<svg xmlns="http://www.w3.org/2000/svg" width="120" height="140" viewBox="0 0 120 140"><g><defs><clipPath id="clip-g14-0"><rect x="0" y="0" width="120" height="140"/></clipPath></defs><rect x="0" y="0" width="120" height="140" fill="#ffffff"/><g transform="matrix(1,0,0,1,20,15)"><path d="M40 80C34.477152347565 80 30 84.477152347565 30 90C30 95.522847175598 34.477152347565 100 40 100C45.522847175598 100 50 95.522847175598 50 90C50 84.477152347565 45.522847175598 80 40 80M63.229122975988 65.000000000053C67.381226141081 61.335277933892 70 55.973463082959 70 50L70 20C70 8.954304695129 61.045696258545 0 50 0L30 0C18.954304695129 0 10 8.954304695129 10 20L10 50C10 55.973463082959 12.61877413783 61.335277933892 16.770877408244 65.000000000053L0 65L0 75L80 75L80 65L63.22912297594 65" fill-rule="evenodd" fill="#e6801a"/></g></g></svg>