<svg xmlns="http://www.w3.org/2000/svg" width="160" height="160" viewBox="0 0 160 160"><g><defs><clipPath id="clip-g7-0"><rect x="0" y="0" width="160" height="160"/></clipPath></defs><rect x="0" y="0" width="160" height="160" fill="#ffffff"/><g transform="matrix(1,0,0,1,30,30)"><path d="M78.714646966533 21.285353033483C74.981023196537 8.966912931693 63.537678953827 0 50 0C36.462321046173 0 25.018976803463 8.966912931693 21.285353033467 21.285353033483C8.966912931693 25.018976803463 0 36.462321046173 0 50C0 63.537678953827 8.966912931693 74.981023196537 21.285353033483 78.714646966533C25.018976803463 91.033087068307 36.462321046173 100 50 100C63.537678953827 100 74.981023196537 91.033087068307 78.714646966533 78.714646966517C91.033087068307 74.981023196537 100 63.537678953827 100 50C100 36.462321046173 91.033087068307 25.018976803463 78.714646966517 21.285353033467" fill-rule="evenodd" fill="#33b34d"/></g></g></svg>