<svg xmlns="http://www.w3.org/2000/svg" width="200" height="150" viewBox="0 0 200 150"><g><defs><clipPath id="clip-g105-0"><rect x="0" y="0" width="200" height="150"/></clipPath></defs><rect x="0" y="0" width="200" height="150" fill="#ffffff"/><g transform="matrix(1,0,0,1,30,25)"><path d="M76.273446228398 15L0 15L0 85L100 85L100 69.645555743342C101.633014921094 69.879140204634 103.302393298234 70 105 70C124.329967498779 70 140 54.329967498779 140 35C140 15.670033454895 124.329967498779 0 105 0C93.106274197784 0 82.598176824487 5.932579449414 76.273446228371 14.99999999998M70 30C81.045694351196 30 90 38.954304695129 90 50C90 61.045694351196 81.045694351196 70 70 70C58.954304695129 70 50 61.045694351196 50 50C50 38.954304695129 58.954304695129 30 70 30" fill-rule="evenodd" fill="#8033cc"/></g></g></svg>