<svg xmlns="http://www.w3.org/2000/svg" width="120" height="140" viewBox="0 0 120 140"><g><defs><clipPath id="clip-g6-0"><rect x="0" y="0" width="120" height="140"/></clipPath></defs><g clip-path="url(#clip-g6-0)"><rect x="0" y="0" width="120" height="140" fill="#ffffff"/><g transform="matrix(1,0,0,1,20,20)"><path d="M10 0C4.477152347565 0 0 4.477152347565 0 10L0 90C0 95.522850036621 4.477152347565 100 10 100L70 100C75.522850036621 100 80 95.522850036621 80 90L80 10C80 4.477152347565 75.522850036621 0 70 0L10 0M16 10L64 10C67.313709259033 10 70 12.686291456223 70 16L70 84C70 87.313705444336 67.313709259033 90 64 90L16 90C12.686291456223 90 10 87.313705444336 10 84L10 16C10 12.686291456223 12.686291456223 10 16 10" fill-rule="evenodd" fill="#3366e6"/></g></g></g></svg>