<svg xmlns="http://www.w3.org/2000/svg" width="200" height="120" viewBox="0 0 200 120"><defs><clipPath id="clip-0"><rect x="0" y="0" width="180" height="100" rx="10" fill="black"/></clipPath><clipPath id="clip-1"><path d="M 0.00 0.00 L 200.00 0.00 L 200.00 120.00 L 0.00 120.00 L 0.00 0.00" fill-rule="nonzero" fill="black"/></clipPath></defs><g><path d="M 0.00 0.00 L 200.00 0.00 L 200.00 120.00 L 0.00 120.00 L 0.00 0.00" fill-rule="nonzero" fill="#f2f2f7"/><g clip-path="url(#clip-1)"><g transform="matrix(1, 0, 0, 1, 10, 10)"><rect x="0" y="0" width="180" height="100" rx="10" fill="#ffffff"/><g clip-path="url(#clip-0)"><rect x="0" y="0" width="40" height="40" rx="4" ry="4" transform="matrix(1, 0, 0, 1, 10, 10)" fill="#007aff"/><rect x="0" y="0" width="40" height="40" rx="4" ry="4" transform="matrix(1, 0, 0, 1, 130, 50)" fill="#ff9500"/></g></g></g></g></svg>