<svg xmlns="http://www.w3.org/2000/svg" width="420" height="160" viewBox="0 0 420 160"><g><defs><clipPath id="clip-g16-1"><rect x="0" y="0" width="420" height="160"/></clipPath></defs><g clip-path="url(#clip-g16-1)"><rect x="0" y="0" width="420" height="160" fill="#ffffff"/><g transform="matrix(1,0,0,1,10,10)"><defs><clipPath id="clip-g16-0"><path d="M 8 0 L 392 0 C 396.4182779986464 0 400 3.5817220013536533 400 8 L 400 132 C 400 136.41827799864635 396.4182779986464 140 392 140 L 8 140 C 3.5817220013536533 140 0 136.41827799864635 0 132 L 0 8 C 0 3.5817220013536533 3.5817220013536533 0 8 0 Z"/></clipPath></defs><g clip-path="url(#clip-g16-0)"><path d="M 8 0 L 392 0 C 396.4182779986464 0 400 3.5817220013536533 400 8 L 400 132 C 400 136.41827799864635 396.4182779986464 140 392 140 L 8 140 C 3.5817220013536533 140 0 136.41827799864635 0 132 L 0 8 C 0 3.5817220013536533 3.5817220013536533 0 8 0 Z" fill="#f2f2f7"/><g transform="matrix(1,0,0,1,30,10)"><path d="M 4 0 L 296 0 C 298.20913899932316 0 300 1.7908610006768266 300 4 L 300 86 C 300 88.20913899932317 298.20913899932316 90 296 90 L 4 90 C 1.7908610006768266 90 0 88.20913899932317 0 86 L 0 4 C 0 1.7908610006768266 1.7908610006768266 0 4 0 Z" fill="#34c759"/></g></g></g></g></g></svg>