<svg xmlns="http://www.w3.org/2000/svg" width="380" height="200" viewBox="0 0 380 200"><defs><clipPath id="clip-0"><rect x="0" y="0" width="360" height="180" rx="10" fill="black"/></clipPath><clipPath id="clip-1"><path d="M 0.00 0.00 L 380.00 0.00 L 380.00 200.00 L 0.00 200.00 L 0.00 0.00" fill-rule="nonzero" fill="black"/></clipPath></defs><g><path d="M 0.00 0.00 L 380.00 0.00 L 380.00 200.00 L 0.00 200.00 L 0.00 0.00" fill-rule="nonzero" fill="#f2f2f7"/><g clip-path="url(#clip-1)"><g transform="matrix(1, 0, 0, 1, 10, 10)"><rect x="0" y="0" width="360" height="180" rx="10" fill="#ffffff"/><g clip-path="url(#clip-0)"><rect x="0" y="0" width="220" height="40" rx="4" ry="4" transform="matrix(1, 0, 0, 1, 10, 10)" fill="#007aff"/><rect x="0" y="0" width="220" height="40" rx="4" ry="4" transform="matrix(1, 0, 0, 1, 130, 130)" fill="#ff9500"/></g></g></g></g></svg>