<svg xmlns="http://www.w3.org/2000/svg" width="1200" height="800" viewBox="0 0 1200 800"><defs><clipPath id="clip-0"><rect x="0" y="0" width="160" height="80" rx="8" fill="black"/></clipPath><clipPath id="clip-1"><rect x="0" y="0" width="160" height="80" rx="8" fill="black"/></clipPath><clipPath id="clip-2"><rect x="0" y="0" width="300" height="200" rx="12" fill="black"/></clipPath><clipPath id="clip-3"><rect x="0" y="0" width="260" height="160" rx="8" fill="black"/></clipPath><clipPath id="clip-4"><rect x="0" y="0" width="400" height="280" rx="12" fill="black"/></clipPath><clipPath id="clip-5"><path d="M 0.00 0.00 L 420.00 0.00 L 420.00 300.00 L 0.00 300.00 L 0.00 0.00" fill-rule="nonzero" fill="black"/></clipPath><clipPath id="clip-6"><rect x="0" y="0" width="60" height="20" rx="8" fill="black"/></clipPath><clipPath id="clip-7"><rect x="0" y="0" width="200" height="140" rx="12" fill="black"/></clipPath><clipPath id="clip-8"><path d="M 0.00 0.00 L 220.00 0.00 L 220.00 160.00 L 0.00 160.00 L 0.00 0.00" fill-rule="nonzero" fill="black"/></clipPath><clipPath id="clip-9"><rect x="0" y="0" width="160" height="80" rx="8" fill="black"/></clipPath><clipPath id="clip-10"><rect x="0" y="0" width="300" height="200" rx="12" fill="black"/></clipPath><clipPath id="clip-11"><path d="M 0.00 0.00 L 320.00 0.00 L 320.00 220.00 L 0.00 220.00 L 0.00 0.00" fill-rule="nonzero" fill="black"/></clipPath></defs><g><rect x="0" y="0" width="160" height="80" rx="8" fill="#ffffff"/><g clip-path="url(#clip-0)"><path d="M 6.00 0.00 L 114.00 0.00 C 117.31 0.00 120.00 2.69 120.00 6.00 L 120.00 34.00 C 120.00 37.31 117.31 40.00 114.00 40.00 L 6.00 40.00 C 2.69 40.00 0.00 37.31 0.00 34.00 L 0.00 6.00 C 0.00 2.69 2.69 0.00 6.00 0.00" fill-rule="nonzero" transform="matrix(1, 0, 0, 1, 20, 20)" fill="#007aff"/></g></g><g transform="matrix(1, 0, 0, 1, 300, 0)"><rect x="0" y="0" width="300" height="200" rx="12" fill="#f2f2f7"/><g clip-path="url(#clip-2)"><g transform="matrix(1, 0, 0, 1, 70, 60)"><rect x="0" y="0" width="160" height="80" rx="8" fill="#ffffff"/><g clip-path="url(#clip-1)"><path d="M 6.00 0.00 L 114.00 0.00 C 117.31 0.00 120.00 2.69 120.00 6.00 L 120.00 34.00 C 120.00 37.31 117.31 40.00 114.00 40.00 L 6.00 40.00 C 2.69 40.00 0.00 37.31 0.00 34.00 L 0.00 6.00 C 0.00 2.69 2.69 0.00 6.00 0.00" fill-rule="nonzero" transform="matrix(1, 0, 0, 1, 20, 20)" fill="#007aff"/></g></g></g></g><g transform="matrix(1, 0, 0, 1, 50, 650)"><path d="M 0.00 0.00 L 420.00 0.00 L 420.00 300.00 L 0.00 300.00 L 0.00 0.00" fill-rule="nonzero" fill="#ffffff"/><g clip-path="url(#clip-5)"><g transform="matrix(1, 0, 0, 1, 10, 10)"><rect x="0" y="0" width="400" height="280" rx="12" fill="#f2f2f7"/><g clip-path="url(#clip-4)"><g transform="matrix(1, 0, 0, 1, 70, 60)"><rect x="0" y="0" width="260" height="160" rx="8" fill="#ffffff"/><g clip-path="url(#clip-3)"><rect x="0" y="0" width="220" height="120" rx="6" ry="6" transform="matrix(1, 0, 0, 1, 20, 20)" fill="#007aff"/></g></g></g></g></g></g><g transform="matrix(1, 0, 0, 1, 500, 650)"><path d="M 0.00 0.00 L 220.00 0.00 L 220.00 160.00 L 0.00 160.00 L 0.00 0.00" fill-rule="nonzero" fill="#ffffff"/><g clip-path="url(#clip-8)"><g transform="matrix(1, 0, 0, 1, 10, 10)"><rect x="0" y="0" width="200" height="140" rx="12" fill="#f2f2f7"/><g clip-path="url(#clip-7)"><g transform="matrix(1, 0, 0, 1, 70, 60)"><rect x="0" y="0" width="60" height="20" rx="8" fill="#ffffff"/><g clip-path="url(#clip-6)"><rect x="0" y="0" width="20" height="0" transform="matrix(1, 0, 0, 1, 20, 20)" fill="#007aff"/></g></g></g></g></g></g><g transform="matrix(1, 0, 0, 1, 50, 980)"><path d="M 0.00 0.00 L 320.00 0.00 L 320.00 220.00 L 0.00 220.00 L 0.00 0.00" fill-rule="nonzero" fill="#ffffff"/><g clip-path="url(#clip-11)"><g transform="matrix(1, 0, 0, 1, 10, 10)"><rect x="0" y="0" width="300" height="200" rx="12" fill="#f2f2f7"/><g clip-path="url(#clip-10)"><g transform="matrix(1, 0, 0, 1, 70, 60)"><rect x="0" y="0" width="160" height="80" rx="8" fill="#ffffff"/><g clip-path="url(#clip-9)"><path d="M 6.00 0.00 L 114.00 0.00 C 117.31 0.00 120.00 2.69 120.00 6.00 L 120.00 34.00 C 120.00 37.31 117.31 40.00 114.00 40.00 L 6.00 40.00 C 2.69 40.00 0.00 37.31 0.00 34.00 L 0.00 6.00 C 0.00 2.69 2.69 0.00 6.00 0.00" fill-rule="nonzero" transform="matrix(1, 0, 0, 1, 20, 20)" fill="#007aff"/></g></g></g></g></g></g></svg>