<svg xmlns="http://www.w3.org/2000/svg" width="420" height="300" viewBox="0 0 420 300"><defs><clipPath id="clip-0"><rect x="0" y="0" width="260" height="160" rx="8" fill="black"/></clipPath><clipPath id="clip-1"><rect x="0" y="0" width="400" height="280" rx="12" fill="black"/></clipPath><clipPath id="clip-2"><path d="M 0.00 0.00 L 420.00 0.00 L 420.00 300.00 L 0.00 300.00 L 0.00 0.00" fill-rule="nonzero" fill="black"/></clipPath></defs><g><path d="M 0.00 0.00 L 420.00 0.00 L 420.00 300.00 L 0.00 300.00 L 0.00 0.00" fill-rule="nonzero" fill="#ffffff"/><g clip-path="url(#clip-2)"><g transform="matrix(1, 0, 0, 1, 10, 10)"><rect x="0" y="0" width="400" height="280" rx="12" fill="#f2f2f7"/><g clip-path="url(#clip-1)"><g transform="matrix(1, 0, 0, 1, 70, 60)"><rect x="0" y="0" width="260" height="160" rx="8" fill="#ffffff"/><g clip-path="url(#clip-0)"><rect x="0" y="0" width="220" height="120" rx="6" ry="6" transform="matrix(1, 0, 0, 1, 20, 20)" fill="#007aff"/></g></g></g></g></g></g></svg>