<svg xmlns="http://www.w3.org/2000/svg" width="300" height="200" viewBox="0 0 300 200"><defs><clipPath id="clip-0"><rect x="0" y="0" width="160" height="80" rx="8" fill="black"/></clipPath><clipPath id="clip-1"><rect x="0" y="0" width="300" height="200" rx="12" fill="black"/></clipPath></defs><g><rect x="0" y="0" width="300" height="200" rx="12" fill="#f2f2f7"/><g clip-path="url(#clip-1)"><g transform="matrix(1, 0, 0, 1, 70, 60)"><rect x="0" y="0" width="160" height="80" rx="8" fill="#ffffff"/><g clip-path="url(#clip-0)"><path d="M 6.00 0.00 L 114.00 0.00 C 117.31 0.00 120.00 2.69 120.00 6.00 L 120.00 34.00 C 120.00 37.31 117.31 40.00 114.00 40.00 L 6.00 40.00 C 2.69 40.00 0.00 37.31 0.00 34.00 L 0.00 6.00 C 0.00 2.69 2.69 0.00 6.00 0.00" fill-rule="nonzero" transform="matrix(1, 0, 0, 1, 20, 20)" fill="#007aff"/></g></g></g></g></svg>