<svg xmlns="http://www.w3.org/2000/svg" width="1200" height="800" viewBox="0 0 1200 800"><defs><clipPath id="clip-0"><rect x="0" y="0" width="120" height="48" rx="12" fill="black"/></clipPath><clipPath id="clip-1"><rect x="0" y="0" width="120" height="48" rx="12" fill="black"/></clipPath><clipPath id="clip-2"><rect x="0" y="0" width="200" height="60" rx="12" fill="black"/></clipPath><clipPath id="clip-3"><path d="M 0.00 0.00 L 220.00 0.00 L 220.00 80.00 L 0.00 80.00 L 0.00 0.00" fill-rule="nonzero" fill="black"/></clipPath><clipPath id="clip-4"><rect x="0" y="0" width="200" height="60" rx="12" fill="black"/></clipPath><clipPath id="clip-5"><path d="M 0.00 0.00 L 220.00 0.00 L 220.00 80.00 L 0.00 80.00 L 0.00 0.00" fill-rule="nonzero" fill="black"/></clipPath><clipPath id="clip-6"><rect x="0" y="0" width="200" height="60" rx="12" fill="black"/></clipPath><clipPath id="clip-7"><rect x="0" y="0" width="200" height="60" rx="12" fill="black"/></clipPath><clipPath id="clip-8"><path d="M 0.00 0.00 L 440.00 0.00 L 440.00 80.00 L 0.00 80.00 L 0.00 0.00" fill-rule="nonzero" fill="black"/></clipPath></defs><g><rect x="0" y="0" width="120" height="48" rx="12" fill="#007aff"/><g clip-path="url(#clip-0)"><path d="M 4.00 0.00 L 76.00 0.00 C 78.21 0.00 80.00 1.79 80.00 4.00 L 80.00 20.00 C 80.00 22.21 78.21 24.00 76.00 24.00 L 4.00 24.00 C 1.79 24.00 0.00 22.21 0.00 20.00 L 0.00 4.00 C 0.00 1.79 1.79 0.00 4.00 0.00" fill-rule="nonzero" transform="matrix(1, 0, 0, 1, 20, 12)" opacity="0.20000000298023224" fill="#ffffff"/></g></g><g transform="matrix(1, 0, 0, 1, 200, 0)"><rect x="0" y="0" width="120" height="48" rx="12" fill="#34c759"/><g clip-path="url(#clip-1)"><path d="M 4.00 0.00 L 76.00 0.00 C 78.21 0.00 80.00 1.79 80.00 4.00 L 80.00 20.00 C 80.00 22.21 78.21 24.00 76.00 24.00 L 4.00 24.00 C 1.79 24.00 0.00 22.21 0.00 20.00 L 0.00 4.00 C 0.00 1.79 1.79 0.00 4.00 0.00" fill-rule="nonzero" transform="matrix(1, 0, 0, 1, 20, 12)" opacity="0.30000001192092896" fill="#ffffff"/></g></g><g transform="matrix(1, 0, 0, 1, 50, 650)"><path d="M 0.00 0.00 L 220.00 0.00 L 220.00 80.00 L 0.00 80.00 L 0.00 0.00" fill-rule="nonzero" fill="#ffffff"/><g clip-path="url(#clip-3)"><g transform="matrix(1, 0, 0, 1, 10, 10)"><rect x="0" y="0" width="200" height="60" rx="12" fill="#007aff"/><g clip-path="url(#clip-2)"><rect x="0" y="0" width="160" height="36" rx="4" ry="4" transform="matrix(1, 0, 0, 1, 20, 12)" opacity="0.20000000298023224" fill="#ffffff"/></g></g></g></g><g transform="matrix(1, 0, 0, 1, 300, 650)"><path d="M 0.00 0.00 L 220.00 0.00 L 220.00 80.00 L 0.00 80.00 L 0.00 0.00" fill-rule="nonzero" fill="#ffffff"/><g clip-path="url(#clip-5)"><g transform="matrix(1, 0, 0, 1, 10, 10)"><rect x="0" y="0" width="200" height="60" rx="12" fill="#007aff"/><g clip-path="url(#clip-4)"><rect x="0" y="0" width="160" height="36" rx="4" ry="4" transform="matrix(1, 0, 0, 1, 20, 12)" opacity="0.20000000298023224" fill="#ffffff"/></g></g></g></g><g transform="matrix(1, 0, 0, 1, 50, 760)"><path d="M 0.00 0.00 L 440.00 0.00 L 440.00 80.00 L 0.00 80.00 L 0.00 0.00" fill-rule="nonzero" fill="#f2f2f7"/><g clip-path="url(#clip-8)"><g transform="matrix(1, 0, 0, 1, 10, 10)"><rect x="0" y="0" width="200" height="60" rx="12" fill="#007aff"/><g clip-path="url(#clip-6)"><rect x="0" y="0" width="160" height="36" rx="4" ry="4" transform="matrix(1, 0, 0, 1, 20, 12)" opacity="0.20000000298023224" fill="#ffffff"/></g></g><g transform="matrix(1, 0, 0, 1, 230, 10)"><rect x="0" y="0" width="200" height="60" rx="12" fill="#007aff"/><g clip-path="url(#clip-7)"><rect x="0" y="0" width="160" height="36" rx="4" ry="4" transform="matrix(1, 0, 0, 1, 20, 12)" opacity="0.20000000298023224" fill="#ffffff"/></g></g></g></g></svg>