<svg xmlns="http://www.w3.org/2000/svg" width="280" height="64" viewBox="0 0 280 64"><g><defs><clipPath id="clip-g1-2"><rect x="0" y="0" width="280" height="64"/></clipPath></defs><g clip-path="url(#clip-g1-2)"><rect x="0" y="0" width="280" height="64" fill="#ffffff"/><g transform="matrix(1,0,0,1,10,10)"><defs><clipPath id="clip-g1-0"><path d="M 12 0 L 108 0 C 114.62741699796952 0 120 5.3725830020304794 120 12 L 120 32 C 120 38.62741699796952 114.62741699796952 44 108 44 L 12 44 C 5.3725830020304794 44 0 38.62741699796952 0 32 L 0 12 C 0 5.3725830020304794 5.3725830020304794 0 12 0 Z"/></clipPath></defs><g clip-path="url(#clip-g1-0)"><path d="M 12 0 L 108 0 C 114.62741699796952 0 120 5.3725830020304794 120 12 L 120 32 C 120 38.62741699796952 114.62741699796952 44 108 44 L 12 44 C 5.3725830020304794 44 0 38.62741699796952 0 32 L 0 12 C 0 5.3725830020304794 5.3725830020304794 0 12 0 Z" fill="#007aff"/><g transform="matrix(1,0,0,1,10,8)" opacity="0.15000000596046448"><path d="M 6 0 L 94 0 C 97.31370849898477 0 100 2.6862915010152397 100 6 L 100 22 C 100 25.31370849898476 97.31370849898477 28 94 28 L 6 28 C 2.6862915010152397 28 0 25.31370849898476 0 22 L 0 6 C 0 2.6862915010152397 2.6862915010152397 0 6 0 Z" fill="#ffffff"/></g></g></g><g transform="matrix(1,0,0,1,150,10)"><defs><clipPath id="clip-g1-1"><path d="M 12 0 L 108 0 C 114.62741699796952 0 120 5.3725830020304794 120 12 L 120 32 C 120 38.62741699796952 114.62741699796952 44 108 44 L 12 44 C 5.3725830020304794 44 0 38.62741699796952 0 32 L 0 12 C 0 5.3725830020304794 5.3725830020304794 0 12 0 Z"/></clipPath></defs><g clip-path="url(#clip-g1-1)"><path d="M 12 0 L 108 0 C 114.62741699796952 0 120 5.3725830020304794 120 12 L 120 32 C 120 38.62741699796952 114.62741699796952 44 108 44 L 12 44 C 5.3725830020304794 44 0 38.62741699796952 0 32 L 0 12 C 0 5.3725830020304794 5.3725830020304794 0 12 0 Z" fill="#007aff"/><g transform="matrix(1,0,0,1,10,8)" opacity="0.15000000596046448"><path d="M 6 0 L 94 0 C 97.31370849898477 0 100 2.6862915010152397 100 6 L 100 22 C 100 25.31370849898476 97.31370849898477 28 94 28 L 6 28 C 2.6862915010152397 28 0 25.31370849898476 0 22 L 0 6 C 0 2.6862915010152397 2.6862915010152397 0 6 0 Z" fill="#ffffff"/></g></g></g></g></g></svg>