<svg xmlns="http://www.w3.org/2000/svg" width="280" height="180" viewBox="0 0 280 180"><defs><clipPath id="clip-0"><rect x="0" y="0" width="200" height="120" rx="16" fill="black"/></clipPath><clipPath id="clip-1"><rect x="0" y="0" width="240" height="160" rx="20" fill="black"/></clipPath><clipPath id="clip-2"><rect x="0" y="0" width="280" height="180" rx="12" fill="black"/></clipPath></defs><g><rect x="0" y="0" width="280" height="180" rx="12" fill="#1c1c1e"/><g clip-path="url(#clip-2)"><g transform="matrix(1, 0, 0, 1, 20, 10)"><rect x="0" y="0" width="240" height="160" rx="20" fill="#ffffff"/><g clip-path="url(#clip-1)"><g transform="matrix(1, 0, 0, 1, 20, 20)"><rect x="0" y="0" width="200" height="120" rx="16" fill="#f2f2f7"/><g clip-path="url(#clip-0)"><path d="M 8.00 0.00 L 152.00 0.00 C 156.42 0.00 160.00 3.58 160.00 8.00 L 160.00 92.00 C 160.00 96.42 156.42 100.00 152.00 100.00 L 8.00 100.00 C 3.58 100.00 0.00 96.42 0.00 92.00 L 0.00 8.00 C 0.00 3.58 3.58 0.00 8.00 0.00" fill-rule="nonzero" transform="matrix(1, 0, 0, 1, 60, 40)" fill="#ff3b30"/><path d="M 8.00 0.00 L 72.00 0.00 C 76.42 0.00 80.00 3.58 80.00 8.00 L 80.00 52.00 C 80.00 56.42 76.42 60.00 72.00 60.00 L 8.00 60.00 C 3.58 60.00 0.00 56.42 0.00 52.00 L 0.00 8.00 C 0.00 3.58 3.58 0.00 8.00 0.00" fill-rule="nonzero" transform="matrix(1, 0, 0, 1, 12, 12)" fill="#007aff"/></g></g></g></g></g></g></svg>