<svg xmlns="http://www.w3.org/2000/svg" width="260" height="100" viewBox="0 0 260 100"><defs><clipPath id="clip-0"><rect x="0" y="0" width="64" height="64" rx="32" fill="black"/></clipPath><clipPath id="clip-1"><rect x="0" y="0" width="64" height="64" rx="32" fill="black"/></clipPath><clipPath id="clip-2"><rect x="0" y="0" width="64" height="64" rx="32" fill="black"/></clipPath><clipPath id="clip-3"><path d="M 0.00 0.00 L 260.00 0.00 L 260.00 84.00 L 0.00 84.00 L 0.00 0.00" fill-rule="nonzero" fill="black"/></clipPath></defs><g><path d="M 0.00 0.00 L 260.00 0.00 L 260.00 84.00 L 0.00 84.00 L 0.00 0.00" fill-rule="nonzero" fill="#ffffff"/><g clip-path="url(#clip-3)"><g transform="matrix(1, 0, 0, 1, 10, 10)"><rect x="0" y="0" width="64" height="64" rx="32" fill="#c7c7cc"/><g clip-path="url(#clip-0)"><path d="M 0.00 0.00 L 80.00 0.00 L 80.00 80.00 L 0.00 80.00 L 0.00 0.00" fill-rule="nonzero" transform="matrix(1, 0, 0, 1, -8, -8)" fill="#af52de"/><ellipse cx="10" cy="10" rx="10" ry="10" transform="matrix(1, 0, 0, 1, 22, 22)" fill="#ff9500"/></g></g><g transform="matrix(1, 0, 0, 1, 94, 10)"><rect x="0" y="0" width="64" height="64" rx="32" fill="#c7c7cc"/><g clip-path="url(#clip-1)"><path d="M 0.00 0.00 L 80.00 0.00 L 80.00 80.00 L 0.00 80.00 L 0.00 0.00" fill-rule="nonzero" transform="matrix(1, 0, 0, 1, -8, -8)" fill="#af52de"/><ellipse cx="10" cy="10" rx="10" ry="10" transform="matrix(1, 0, 0, 1, 22, 22)" fill="#ff9500"/></g></g><g transform="matrix(1, 0, 0, 1, 178, 10)"><rect x="0" y="0" width="64" height="64" rx="32" fill="#c7c7cc"/><g clip-path="url(#clip-2)"><path d="M 0.00 0.00 L 80.00 0.00 L 80.00 80.00 L 0.00 80.00 L 0.00 0.00" fill-rule="nonzero" transform="matrix(1, 0, 0, 1, -8, -8)" fill="#af52de"/><ellipse cx="10" cy="10" rx="10" ry="10" transform="matrix(1, 0, 0, 1, 22, 22)" fill="#ff9500"/></g></g></g></g></svg>