<svg xmlns="http://www.w3.org/2000/svg" width="280" height="120" viewBox="0 0 280 120"><defs><clipPath id="clip-0"><rect x="0" y="0" width="280" height="120" fill="black"/></clipPath></defs><g><rect x="0" y="0" width="280" height="120" fill="#ffffff"/><g clip-path="url(#clip-0)"><path d="M 8.00 0.00 L 112.00 0.00 C 116.42 0.00 120.00 3.58 120.00 8.00 L 120.00 72.00 C 120.00 76.42 116.42 80.00 112.00 80.00 L 8.00 80.00 C 3.58 80.00 0.00 76.42 0.00 72.00 L 0.00 8.00 C 0.00 3.58 3.58 0.00 8.00 0.00" fill-rule="nonzero" transform="matrix(1, 0, 0, 1, 16, 16)" fill="#f2f2f7"/><path d="M 8.00 0.00 L 112.00 0.00 C 116.42 0.00 120.00 3.58 120.00 8.00 L 120.00 72.00 C 120.00 76.42 116.42 80.00 112.00 80.00 L 8.00 80.00 C 3.58 80.00 0.00 76.42 0.00 72.00 L 0.00 8.00 C 0.00 3.58 3.58 0.00 8.00 0.00" fill-rule="nonzero" transform="matrix(1, 0, 0, 1, 144, 16)" fill="#f2f2f7"/></g></g></svg>