<svg xmlns="http://www.w3.org/2000/svg" width="1200" height="800" viewBox="0 0 1200 800"><defs><clipPath id="clip-0"><rect x="0" y="0" width="24" height="24" fill="black"/></clipPath><clipPath id="clip-1"><rect x="0" y="0" width="18" height="18" rx="9" fill="black"/></clipPath><clipPath id="clip-2"><rect x="0" y="0" width="24" height="24" fill="black"/></clipPath><clipPath id="clip-3"><rect x="0" y="0" width="18" height="18" rx="9" fill="black"/></clipPath><clipPath id="clip-4"><rect x="0" y="0" width="120" height="44" rx="12" fill="black"/></clipPath><clipPath id="clip-5"><rect x="0" y="0" width="280" height="48" fill="black"/></clipPath><clipPath id="clip-6"><rect x="0" y="0" width="280" height="120" fill="black"/></clipPath><clipPath id="clip-7"><rect x="0" y="0" width="280" height="48" fill="black"/></clipPath><clipPath id="clip-8"><rect x="0" y="0" width="280" height="120" fill="black"/></clipPath><clipPath id="clip-9"><rect x="0" y="0" width="280" height="200" rx="16" fill="black"/></clipPath><clipPath id="clip-10"><rect x="0" y="0" width="24" height="24" fill="black"/></clipPath><clipPath id="clip-11"><rect x="0" y="0" width="18" height="18" rx="9" fill="black"/></clipPath><clipPath id="clip-12"><rect x="0" y="0" width="24" height="24" fill="black"/></clipPath><clipPath id="clip-13"><rect x="0" y="0" width="18" height="18" rx="9" fill="black"/></clipPath><clipPath id="clip-14"><rect x="0" y="0" width="24" height="24" fill="black"/></clipPath><clipPath id="clip-15"><rect x="0" y="0" width="18" height="18" rx="9" fill="black"/></clipPath><clipPath id="clip-16"><rect x="0" y="0" width="24" height="24" fill="black"/></clipPath><clipPath id="clip-17"><rect x="0" y="0" width="18" height="18" rx="9" fill="black"/></clipPath><clipPath id="clip-18"><rect x="0" y="0" width="24" height="24" fill="black"/></clipPath><clipPath id="clip-19"><rect x="0" y="0" width="18" height="18" rx="9" fill="black"/></clipPath><clipPath id="clip-20"><rect x="0" y="0" width="320" height="64" fill="black"/></clipPath><clipPath id="clip-21"><rect x="0" y="0" width="120" height="44" rx="12" fill="black"/></clipPath><clipPath id="clip-22"><path d="M 0.00 0.00 L 140.00 0.00 L 140.00 64.00 L 0.00 64.00 L 0.00 0.00" fill-rule="nonzero" fill="black"/></clipPath><clipPath id="clip-23"><rect x="0" y="0" width="120" height="44" rx="12" fill="black"/></clipPath><clipPath id="clip-24"><rect x="0" y="0" width="120" height="44" rx="12" fill="black"/></clipPath><clipPath id="clip-25"><path d="M 0.00 0.00 L 280.00 0.00 L 280.00 64.00 L 0.00 64.00 L 0.00 0.00" fill-rule="nonzero" fill="black"/></clipPath><clipPath id="clip-26"><rect x="0" y="0" width="280" height="48" fill="black"/></clipPath><clipPath id="clip-27"><rect x="0" y="0" width="280" height="120" fill="black"/></clipPath><clipPath id="clip-28"><rect x="0" y="0" width="280" height="200" rx="16" fill="black"/></clipPath><clipPath id="clip-29"><path d="M 0.00 0.00 L 300.00 0.00 L 300.00 220.00 L 0.00 220.00 L 0.00 0.00" fill-rule="nonzero" fill="black"/></clipPath><clipPath id="clip-30"><rect x="0" y="0" width="280" height="48" fill="black"/></clipPath><clipPath id="clip-31"><rect x="0" y="0" width="280" height="120" fill="black"/></clipPath><clipPath id="clip-32"><rect x="0" y="0" width="280" height="200" rx="16" fill="black"/></clipPath><clipPath id="clip-33"><path d="M 0.00 0.00 L 260.00 0.00 L 260.00 180.00 L 0.00 180.00 L 0.00 0.00" fill-rule="nonzero" fill="black"/></clipPath><clipPath id="clip-34"><rect x="0" y="0" width="24" height="24" fill="black"/></clipPath><clipPath id="clip-35"><rect x="0" y="0" width="18" height="18" rx="9" fill="black"/></clipPath><clipPath id="clip-36"><path d="M 0.00 0.00 L 52.00 0.00 L 52.00 52.00 L 0.00 52.00 L 0.00 0.00" fill-rule="nonzero" fill="black"/></clipPath><clipPath id="clip-37"><rect x="0" y="0" width="24" height="24" fill="black"/></clipPath><clipPath id="clip-38"><rect x="0" y="0" width="18" height="18" rx="9" fill="black"/></clipPath><clipPath id="clip-39"><rect x="0" y="0" width="24" height="24" fill="black"/></clipPath><clipPath id="clip-40"><rect x="0" y="0" width="18" height="18" rx="9" fill="black"/></clipPath><clipPath id="clip-41"><rect x="0" y="0" width="24" height="24" fill="black"/></clipPath><clipPath id="clip-42"><rect x="0" y="0" width="18" height="18" rx="9" fill="black"/></clipPath><clipPath id="clip-43"><rect x="0" y="0" width="24" height="24" fill="black"/></clipPath><clipPath id="clip-44"><rect x="0" y="0" width="18" height="18" rx="9" fill="black"/></clipPath><clipPath id="clip-45"><rect x="0" y="0" width="320" height="64" fill="black"/></clipPath><clipPath id="clip-46"><path d="M 0.00 0.00 L 340.00 0.00 L 340.00 84.00 L 0.00 84.00 L 0.00 0.00" fill-rule="nonzero" fill="black"/></clipPath><clipPath id="clip-47"><rect x="0" y="0" width="24" height="24" fill="black"/></clipPath><clipPath id="clip-48"><rect x="0" y="0" width="18" height="18" rx="9" fill="black"/></clipPath><clipPath id="clip-49"><rect x="0" y="0" width="24" height="24" fill="black"/></clipPath><clipPath id="clip-50"><rect x="0" y="0" width="18" height="18" rx="9" fill="black"/></clipPath><clipPath id="clip-51"><rect x="0" y="0" width="24" height="24" fill="black"/></clipPath><clipPath id="clip-52"><rect x="0" y="0" width="18" height="18" rx="9" fill="black"/></clipPath><clipPath id="clip-53"><rect x="0" y="0" width="24" height="24" fill="black"/></clipPath><clipPath id="clip-54"><rect x="0" y="0" width="18" height="18" rx="9" fill="black"/></clipPath><clipPath id="clip-55"><rect x="0" y="0" width="320" height="64" fill="black"/></clipPath><clipPath id="clip-56"><path d="M 0.00 0.00 L 420.00 0.00 L 420.00 84.00 L 0.00 84.00 L 0.00 0.00" fill-rule="nonzero" fill="black"/></clipPath><clipPath id="clip-57"><rect x="0" y="0" width="120" height="44" rx="12" fill="black"/></clipPath><clipPath id="clip-58"><rect x="0" y="0" width="120" height="44" rx="12" fill="black"/></clipPath><clipPath id="clip-59"><rect x="0" y="0" width="120" height="44" rx="12" fill="black"/></clipPath><clipPath id="clip-60"><path d="M 0.00 0.00 L 400.00 0.00 L 400.00 80.00 L 0.00 80.00 L 0.00 0.00" fill-rule="nonzero" fill="black"/></clipPath></defs><g><rect x="0" y="0" width="24" height="24" fill="#ffffff"/><g clip-path="url(#clip-0)"><ellipse cx="12" cy="12" rx="12" ry="12" fill="#007aff"/></g></g><g transform="matrix(1, 0, 0, 1, 100, 0)"><rect x="0" y="0" width="18" height="18" rx="9" fill="#ff3b30"/><g clip-path="url(#clip-1)"><ellipse cx="3" cy="3" rx="3" ry="3" transform="matrix(1, 0, 0, 1, 6, 6)" fill="#ffffff"/></g></g><g transform="matrix(1, 0, 0, 1, 200, 0)"><rect x="0" y="0" width="32" height="32" fill="#ffffff"/><g transform="matrix(1, 0, 0, 1, 4, 8)"><rect x="0" y="0" width="24" height="24" fill="#ffffff"/><g clip-path="url(#clip-2)"><ellipse cx="12" cy="12" rx="12" ry="12" fill="#007aff"/></g></g><g transform="matrix(1, 0, 0, 1, 18, -4)"><rect x="0" y="0" width="18" height="18" rx="9" fill="#ff3b30"/><g clip-path="url(#clip-3)"><ellipse cx="3" cy="3" rx="3" ry="3" transform="matrix(1, 0, 0, 1, 6, 6)" fill="#ffffff"/></g></g></g><g transform="matrix(1, 0, 0, 1, 350, 0)"><rect x="0" y="0" width="120" height="44" rx="12" fill="#007aff"/><g clip-path="url(#clip-4)"><path d="M 6.00 0.00 L 94.00 0.00 C 97.31 0.00 100.00 2.69 100.00 6.00 L 100.00 22.00 C 100.00 25.31 97.31 28.00 94.00 28.00 L 6.00 28.00 C 2.69 28.00 0.00 25.31 0.00 22.00 L 0.00 6.00 C 0.00 2.69 2.69 0.00 6.00 0.00" fill-rule="nonzero" transform="matrix(1, 0, 0, 1, 10, 8)" opacity="0.15000000596046448" fill="#ffffff"/></g></g><g transform="matrix(1, 0, 0, 1, 550, 0)"><rect x="0" y="0" width="280" height="48" fill="#007aff"/><g clip-path="url(#clip-5)"><path d="M 0.00 0.00 L 280.00 0.00 L 280.00 4.00 L 0.00 4.00 L 0.00 0.00" fill-rule="nonzero" transform="matrix(1, 0, 0, 1, 0, 44)" opacity="0.10000000149011612" fill="#000000"/></g></g><g transform="matrix(1, 0, 0, 1, 900, 0)"><rect x="0" y="0" width="280" height="120" fill="#ffffff"/><g clip-path="url(#clip-6)"><path d="M 8.00 0.00 L 112.00 0.00 C 116.42 0.00 120.00 3.58 120.00 8.00 L 120.00 72.00 C 120.00 76.42 116.42 80.00 112.00 80.00 L 8.00 80.00 C 3.58 80.00 0.00 76.42 0.00 72.00 L 0.00 8.00 C 0.00 3.58 3.58 0.00 8.00 0.00" fill-rule="nonzero" transform="matrix(1, 0, 0, 1, 16, 16)" fill="#f2f2f7"/><path d="M 8.00 0.00 L 112.00 0.00 C 116.42 0.00 120.00 3.58 120.00 8.00 L 120.00 72.00 C 120.00 76.42 116.42 80.00 112.00 80.00 L 8.00 80.00 C 3.58 80.00 0.00 76.42 0.00 72.00 L 0.00 8.00 C 0.00 3.58 3.58 0.00 8.00 0.00" fill-rule="nonzero" transform="matrix(1, 0, 0, 1, 144, 16)" fill="#f2f2f7"/></g></g><g transform="matrix(1, 0, 0, 1, 1250, 0)"><rect x="0" y="0" width="280" height="200" rx="16" fill="#ffffff"/><g clip-path="url(#clip-9)"><g><rect x="0" y="0" width="280" height="48" fill="#007aff"/><g clip-path="url(#clip-7)"><path d="M 0.00 0.00 L 280.00 0.00 L 280.00 4.00 L 0.00 4.00 L 0.00 0.00" fill-rule="nonzero" transform="matrix(1, 0, 0, 1, 0, 44)" opacity="0.10000000149011612" fill="#000000"/></g></g><g transform="matrix(1, 0, 0, 1, 0, 48)"><rect x="0" y="0" width="280" height="120" fill="#ffffff"/><g clip-path="url(#clip-8)"><path d="M 8.00 0.00 L 112.00 0.00 C 116.42 0.00 120.00 3.58 120.00 8.00 L 120.00 72.00 C 120.00 76.42 116.42 80.00 112.00 80.00 L 8.00 80.00 C 3.58 80.00 0.00 76.42 0.00 72.00 L 0.00 8.00 C 0.00 3.58 3.58 0.00 8.00 0.00" fill-rule="nonzero" transform="matrix(1, 0, 0, 1, 16, 16)" fill="#f2f2f7"/><path d="M 8.00 0.00 L 112.00 0.00 C 116.42 0.00 120.00 3.58 120.00 8.00 L 120.00 72.00 C 120.00 76.42 116.42 80.00 112.00 80.00 L 8.00 80.00 C 3.58 80.00 0.00 76.42 0.00 72.00 L 0.00 8.00 C 0.00 3.58 3.58 0.00 8.00 0.00" fill-rule="nonzero" transform="matrix(1, 0, 0, 1, 144, 16)" fill="#f2f2f7"/></g></g><path d="M 0.00 0.00 L 280.00 0.00 L 280.00 32.00 L 0.00 32.00 L 0.00 0.00" fill-rule="nonzero" transform="matrix(1, 0, 0, 1, 0, 168)" fill="#f2f2f7"/></g></g><g transform="matrix(1, 0, 0, 1, 1600, 0)"><rect x="0" y="0" width="48" height="56" fill="#ffffff"/><g transform="matrix(1, 0, 0, 1, 8, 4)"><rect x="0" y="0" width="32" height="32" fill="#ffffff"/><g transform="matrix(1, 0, 0, 1, 4, 8)"><rect x="0" y="0" width="24" height="24" fill="#ffffff"/><g clip-path="url(#clip-10)"><ellipse cx="12" cy="12" rx="12" ry="12" fill="#007aff"/></g></g><g transform="matrix(1, 0, 0, 1, 18, -4)"><rect x="0" y="0" width="18" height="18" rx="9" fill="#ff3b30"/><g clip-path="url(#clip-11)"><ellipse cx="3" cy="3" rx="3" ry="3" transform="matrix(1, 0, 0, 1, 6, 6)" fill="#ffffff"/></g></g></g><path d="M 2.00 0.00 L 38.00 0.00 C 39.10 0.00 40.00 0.90 40.00 2.00 L 40.00 8.00 C 40.00 9.10 39.10 10.00 38.00 10.00 L 2.00 10.00 C 0.90 10.00 0.00 9.10 0.00 8.00 L 0.00 2.00 C 0.00 0.90 0.90 0.00 2.00 0.00" fill-rule="nonzero" transform="matrix(1, 0, 0, 1, 4, 42)" fill="#aeaeb2"/></g><g transform="matrix(1, 0, 0, 1, 1800, 0)"><rect x="0" y="0" width="320" height="64" fill="#1c1c1e"/><g clip-path="url(#clip-20)"><g transform="matrix(1, 0, 0, 1, 24, 4)"><rect x="0" y="0" width="48" height="56" fill="#ffffff"/><g transform="matrix(1, 0, 0, 1, 8, 4)"><rect x="0" y="0" width="32" height="32" fill="#ffffff"/><g transform="matrix(1, 0, 0, 1, 4, 8)"><rect x="0" y="0" width="24" height="24" fill="#ffffff"/><g clip-path="url(#clip-12)"><ellipse cx="12" cy="12" rx="12" ry="12" fill="#007aff"/></g></g><g transform="matrix(1, 0, 0, 1, 18, -4)"><rect x="0" y="0" width="18" height="18" rx="9" fill="#ff3b30"/><g clip-path="url(#clip-13)"><ellipse cx="3" cy="3" rx="3" ry="3" transform="matrix(1, 0, 0, 1, 6, 6)" fill="#ffffff"/></g></g></g><path d="M 2.00 0.00 L 38.00 0.00 C 39.10 0.00 40.00 0.90 40.00 2.00 L 40.00 8.00 C 40.00 9.10 39.10 10.00 38.00 10.00 L 2.00 10.00 C 0.90 10.00 0.00 9.10 0.00 8.00 L 0.00 2.00 C 0.00 0.90 0.90 0.00 2.00 0.00" fill-rule="nonzero" transform="matrix(1, 0, 0, 1, 4, 42)" fill="#aeaeb2"/></g><g transform="matrix(1, 0, 0, 1, 96, 4)"><rect x="0" y="0" width="48" height="56" fill="#ffffff"/><g transform="matrix(1, 0, 0, 1, 8, 4)"><rect x="0" y="0" width="32" height="32" fill="#ffffff"/><g transform="matrix(1, 0, 0, 1, 4, 8)"><rect x="0" y="0" width="24" height="24" fill="#ffffff"/><g clip-path="url(#clip-14)"><ellipse cx="12" cy="12" rx="12" ry="12" fill="#007aff"/></g></g><g transform="matrix(1, 0, 0, 1, 18, -4)"><rect x="0" y="0" width="18" height="18" rx="9" fill="#ff3b30"/><g clip-path="url(#clip-15)"><ellipse cx="3" cy="3" rx="3" ry="3" transform="matrix(1, 0, 0, 1, 6, 6)" fill="#ffffff"/></g></g></g><path d="M 2.00 0.00 L 38.00 0.00 C 39.10 0.00 40.00 0.90 40.00 2.00 L 40.00 8.00 C 40.00 9.10 39.10 10.00 38.00 10.00 L 2.00 10.00 C 0.90 10.00 0.00 9.10 0.00 8.00 L 0.00 2.00 C 0.00 0.90 0.90 0.00 2.00 0.00" fill-rule="nonzero" transform="matrix(1, 0, 0, 1, 4, 42)" fill="#aeaeb2"/></g><g transform="matrix(1, 0, 0, 1, 168, 4)"><rect x="0" y="0" width="48" height="56" fill="#ffffff"/><g transform="matrix(1, 0, 0, 1, 8, 4)"><rect x="0" y="0" width="32" height="32" fill="#ffffff"/><g transform="matrix(1, 0, 0, 1, 4, 8)"><rect x="0" y="0" width="24" height="24" fill="#ffffff"/><g clip-path="url(#clip-16)"><ellipse cx="12" cy="12" rx="12" ry="12" fill="#007aff"/></g></g><g transform="matrix(1, 0, 0, 1, 18, -4)"><rect x="0" y="0" width="18" height="18" rx="9" fill="#ff3b30"/><g clip-path="url(#clip-17)"><ellipse cx="3" cy="3" rx="3" ry="3" transform="matrix(1, 0, 0, 1, 6, 6)" fill="#ffffff"/></g></g></g><path d="M 2.00 0.00 L 38.00 0.00 C 39.10 0.00 40.00 0.90 40.00 2.00 L 40.00 8.00 C 40.00 9.10 39.10 10.00 38.00 10.00 L 2.00 10.00 C 0.90 10.00 0.00 9.10 0.00 8.00 L 0.00 2.00 C 0.00 0.90 0.90 0.00 2.00 0.00" fill-rule="nonzero" transform="matrix(1, 0, 0, 1, 4, 42)" fill="#aeaeb2"/></g><g transform="matrix(1, 0, 0, 1, 240, 4)"><rect x="0" y="0" width="48" height="56" fill="#ffffff"/><g transform="matrix(1, 0, 0, 1, 8, 4)"><rect x="0" y="0" width="32" height="32" fill="#ffffff"/><g transform="matrix(1, 0, 0, 1, 4, 8)"><rect x="0" y="0" width="24" height="24" fill="#ffffff"/><g clip-path="url(#clip-18)"><ellipse cx="12" cy="12" rx="12" ry="12" fill="#007aff"/></g></g><g transform="matrix(1, 0, 0, 1, 18, -4)"><rect x="0" y="0" width="18" height="18" rx="9" fill="#ff3b30"/><g clip-path="url(#clip-19)"><ellipse cx="3" cy="3" rx="3" ry="3" transform="matrix(1, 0, 0, 1, 6, 6)" fill="#ffffff"/></g></g></g><path d="M 2.00 0.00 L 38.00 0.00 C 39.10 0.00 40.00 0.90 40.00 2.00 L 40.00 8.00 C 40.00 9.10 39.10 10.00 38.00 10.00 L 2.00 10.00 C 0.90 10.00 0.00 9.10 0.00 8.00 L 0.00 2.00 C 0.00 0.90 0.90 0.00 2.00 0.00" fill-rule="nonzero" transform="matrix(1, 0, 0, 1, 4, 42)" fill="#aeaeb2"/></g><path d="M 0.00 0.00 L 320.00 0.00 L 320.00 1.00 L 0.00 1.00 L 0.00 0.00" fill-rule="nonzero" opacity="0.5" fill="#c7c7cc"/></g></g><g transform="matrix(1, 0, 0, 1, 50, 650)"><path d="M 0.00 0.00 L 140.00 0.00 L 140.00 64.00 L 0.00 64.00 L 0.00 0.00" fill-rule="nonzero" fill="#ffffff"/><g clip-path="url(#clip-22)"><g transform="matrix(1, 0, 0, 1, 10, 10)"><rect x="0" y="0" width="120" height="44" rx="12" fill="#007aff"/><g clip-path="url(#clip-21)"><path d="M 6.00 0.00 L 94.00 0.00 C 97.31 0.00 100.00 2.69 100.00 6.00 L 100.00 22.00 C 100.00 25.31 97.31 28.00 94.00 28.00 L 6.00 28.00 C 2.69 28.00 0.00 25.31 0.00 22.00 L 0.00 6.00 C 0.00 2.69 2.69 0.00 6.00 0.00" fill-rule="nonzero" transform="matrix(1, 0, 0, 1, 10, 8)" opacity="0.15000000596046448" fill="#ffffff"/></g></g></g></g><g transform="matrix(1, 0, 0, 1, 220, 650)"><path d="M 0.00 0.00 L 280.00 0.00 L 280.00 64.00 L 0.00 64.00 L 0.00 0.00" fill-rule="nonzero" fill="#ffffff"/><g clip-path="url(#clip-25)"><g transform="matrix(1, 0, 0, 1, 10, 10)"><rect x="0" y="0" width="120" height="44" rx="12" fill="#007aff"/><g clip-path="url(#clip-23)"><path d="M 6.00 0.00 L 94.00 0.00 C 97.31 0.00 100.00 2.69 100.00 6.00 L 100.00 22.00 C 100.00 25.31 97.31 28.00 94.00 28.00 L 6.00 28.00 C 2.69 28.00 0.00 25.31 0.00 22.00 L 0.00 6.00 C 0.00 2.69 2.69 0.00 6.00 0.00" fill-rule="nonzero" transform="matrix(1, 0, 0, 1, 10, 8)" opacity="0.15000000596046448" fill="#ffffff"/></g></g><g transform="matrix(1, 0, 0, 1, 150, 10)"><rect x="0" y="0" width="120" height="44" rx="12" fill="#007aff"/><g clip-path="url(#clip-24)"><path d="M 6.00 0.00 L 94.00 0.00 C 97.31 0.00 100.00 2.69 100.00 6.00 L 100.00 22.00 C 100.00 25.31 97.31 28.00 94.00 28.00 L 6.00 28.00 C 2.69 28.00 0.00 25.31 0.00 22.00 L 0.00 6.00 C 0.00 2.69 2.69 0.00 6.00 0.00" fill-rule="nonzero" transform="matrix(1, 0, 0, 1, 10, 8)" opacity="0.15000000596046448" fill="#ffffff"/></g></g></g></g><g transform="matrix(1, 0, 0, 1, 530, 650)"><path d="M 0.00 0.00 L 300.00 0.00 L 300.00 220.00 L 0.00 220.00 L 0.00 0.00" fill-rule="nonzero" fill="#f2f2f7"/><g clip-path="url(#clip-29)"><g transform="matrix(1, 0, 0, 1, 10, 10)"><rect x="0" y="0" width="280" height="200" rx="16" fill="#ffffff"/><g clip-path="url(#clip-28)"><g><rect x="0" y="0" width="280" height="48" fill="#007aff"/><g clip-path="url(#clip-26)"><path d="M 0.00 0.00 L 280.00 0.00 L 280.00 4.00 L 0.00 4.00 L 0.00 0.00" fill-rule="nonzero" transform="matrix(1, 0, 0, 1, 0, 44)" opacity="0.10000000149011612" fill="#000000"/></g></g><g transform="matrix(1, 0, 0, 1, 0, 48)"><rect x="0" y="0" width="280" height="120" fill="#ffffff"/><g clip-path="url(#clip-27)"><path d="M 8.00 0.00 L 112.00 0.00 C 116.42 0.00 120.00 3.58 120.00 8.00 L 120.00 72.00 C 120.00 76.42 116.42 80.00 112.00 80.00 L 8.00 80.00 C 3.58 80.00 0.00 76.42 0.00 72.00 L 0.00 8.00 C 0.00 3.58 3.58 0.00 8.00 0.00" fill-rule="nonzero" transform="matrix(1, 0, 0, 1, 16, 16)" fill="#f2f2f7"/><path d="M 8.00 0.00 L 112.00 0.00 C 116.42 0.00 120.00 3.58 120.00 8.00 L 120.00 72.00 C 120.00 76.42 116.42 80.00 112.00 80.00 L 8.00 80.00 C 3.58 80.00 0.00 76.42 0.00 72.00 L 0.00 8.00 C 0.00 3.58 3.58 0.00 8.00 0.00" fill-rule="nonzero" transform="matrix(1, 0, 0, 1, 144, 16)" fill="#f2f2f7"/></g></g><path d="M 0.00 0.00 L 280.00 0.00 L 280.00 32.00 L 0.00 32.00 L 0.00 0.00" fill-rule="nonzero" transform="matrix(1, 0, 0, 1, 0, 168)" fill="#f2f2f7"/></g></g></g></g><g transform="matrix(1, 0, 0, 1, 50, 900)"><path d="M 0.00 0.00 L 260.00 0.00 L 260.00 180.00 L 0.00 180.00 L 0.00 0.00" fill-rule="nonzero" fill="#f2f2f7"/><g clip-path="url(#clip-33)"><g transform="matrix(1, 0, 0, 1, 10, 10)"><rect x="0" y="0" width="280" height="200" rx="16" fill="#ffffff"/><g clip-path="url(#clip-32)"><g><rect x="0" y="0" width="280" height="48" fill="#007aff"/><g clip-path="url(#clip-30)"><path d="M 0.00 0.00 L 280.00 0.00 L 280.00 4.00 L 0.00 4.00 L 0.00 0.00" fill-rule="nonzero" transform="matrix(1, 0, 0, 1, 0, 44)" opacity="0.10000000149011612" fill="#000000"/></g></g><g transform="matrix(1, 0, 0, 1, 0, 48)"><rect x="0" y="0" width="280" height="120" fill="#ffffff"/><g clip-path="url(#clip-31)"><path d="M 8.00 0.00 L 112.00 0.00 C 116.42 0.00 120.00 3.58 120.00 8.00 L 120.00 72.00 C 120.00 76.42 116.42 80.00 112.00 80.00 L 8.00 80.00 C 3.58 80.00 0.00 76.42 0.00 72.00 L 0.00 8.00 C 0.00 3.58 3.58 0.00 8.00 0.00" fill-rule="nonzero" transform="matrix(1, 0, 0, 1, 16, 16)" fill="#f2f2f7"/><path d="M 8.00 0.00 L 112.00 0.00 C 116.42 0.00 120.00 3.58 120.00 8.00 L 120.00 72.00 C 120.00 76.42 116.42 80.00 112.00 80.00 L 8.00 80.00 C 3.58 80.00 0.00 76.42 0.00 72.00 L 0.00 8.00 C 0.00 3.58 3.58 0.00 8.00 0.00" fill-rule="nonzero" transform="matrix(1, 0, 0, 1, 144, 16)" fill="#f2f2f7"/></g></g><path d="M 0.00 0.00 L 280.00 0.00 L 280.00 32.00 L 0.00 32.00 L 0.00 0.00" fill-rule="nonzero" transform="matrix(1, 0, 0, 1, 0, 168)" fill="#f2f2f7"/></g></g></g></g><g transform="matrix(1, 0, 0, 1, 340, 900)"><path d="M 0.00 0.00 L 52.00 0.00 L 52.00 52.00 L 0.00 52.00 L 0.00 0.00" fill-rule="nonzero" fill="#ffffff"/><g clip-path="url(#clip-36)"><g transform="matrix(1, 0, 0, 1, 10, 10)"><rect x="0" y="0" width="32" height="32" fill="#ffffff"/><g transform="matrix(1, 0, 0, 1, 4, 8)"><rect x="0" y="0" width="24" height="24" fill="#ffffff"/><g clip-path="url(#clip-34)"><ellipse cx="12" cy="12" rx="12" ry="12" fill="#007aff"/></g></g><g transform="matrix(1, 0, 0, 1, 18, -4)"><rect x="0" y="0" width="18" height="18" rx="9" fill="#ff3b30"/><g clip-path="url(#clip-35)"><ellipse cx="3" cy="3" rx="3" ry="3" transform="matrix(1, 0, 0, 1, 6, 6)" fill="#ffffff"/></g></g></g></g></g><g transform="matrix(1, 0, 0, 1, 420, 900)"><path d="M 0.00 0.00 L 340.00 0.00 L 340.00 84.00 L 0.00 84.00 L 0.00 0.00" fill-rule="nonzero" fill="#f2f2f7"/><g clip-path="url(#clip-46)"><g transform="matrix(1, 0, 0, 1, 10, 10)"><rect x="0" y="0" width="320" height="64" fill="#1c1c1e"/><g clip-path="url(#clip-45)"><g transform="matrix(1, 0, 0, 1, 24, 4)"><rect x="0" y="0" width="48" height="56" fill="#ffffff"/><g transform="matrix(1, 0, 0, 1, 8, 4)"><rect x="0" y="0" width="32" height="32" fill="#ffffff"/><g transform="matrix(1, 0, 0, 1, 4, 8)"><rect x="0" y="0" width="24" height="24" fill="#ffffff"/><g clip-path="url(#clip-37)"><ellipse cx="12" cy="12" rx="12" ry="12" fill="#007aff"/></g></g><g transform="matrix(1, 0, 0, 1, 18, -4)"><rect x="0" y="0" width="18" height="18" rx="9" fill="#ff3b30"/><g clip-path="url(#clip-38)"><ellipse cx="3" cy="3" rx="3" ry="3" transform="matrix(1, 0, 0, 1, 6, 6)" fill="#ffffff"/></g></g></g><path d="M 2.00 0.00 L 38.00 0.00 C 39.10 0.00 40.00 0.90 40.00 2.00 L 40.00 8.00 C 40.00 9.10 39.10 10.00 38.00 10.00 L 2.00 10.00 C 0.90 10.00 0.00 9.10 0.00 8.00 L 0.00 2.00 C 0.00 0.90 0.90 0.00 2.00 0.00" fill-rule="nonzero" transform="matrix(1, 0, 0, 1, 4, 42)" fill="#aeaeb2"/></g><g transform="matrix(1, 0, 0, 1, 96, 4)"><rect x="0" y="0" width="48" height="56" fill="#ffffff"/><g transform="matrix(1, 0, 0, 1, 8, 4)"><rect x="0" y="0" width="32" height="32" fill="#ffffff"/><g transform="matrix(1, 0, 0, 1, 4, 8)"><rect x="0" y="0" width="24" height="24" fill="#ffffff"/><g clip-path="url(#clip-39)"><ellipse cx="12" cy="12" rx="12" ry="12" fill="#007aff"/></g></g><g transform="matrix(1, 0, 0, 1, 18, -4)"><rect x="0" y="0" width="18" height="18" rx="9" fill="#ff3b30"/><g clip-path="url(#clip-40)"><ellipse cx="3" cy="3" rx="3" ry="3" transform="matrix(1, 0, 0, 1, 6, 6)" fill="#ffffff"/></g></g></g><path d="M 2.00 0.00 L 38.00 0.00 C 39.10 0.00 40.00 0.90 40.00 2.00 L 40.00 8.00 C 40.00 9.10 39.10 10.00 38.00 10.00 L 2.00 10.00 C 0.90 10.00 0.00 9.10 0.00 8.00 L 0.00 2.00 C 0.00 0.90 0.90 0.00 2.00 0.00" fill-rule="nonzero" transform="matrix(1, 0, 0, 1, 4, 42)" fill="#aeaeb2"/></g><g transform="matrix(1, 0, 0, 1, 168, 4)"><rect x="0" y="0" width="48" height="56" fill="#ffffff"/><g transform="matrix(1, 0, 0, 1, 8, 4)"><rect x="0" y="0" width="32" height="32" fill="#ffffff"/><g transform="matrix(1, 0, 0, 1, 4, 8)"><rect x="0" y="0" width="24" height="24" fill="#ffffff"/><g clip-path="url(#clip-41)"><ellipse cx="12" cy="12" rx="12" ry="12" fill="#007aff"/></g></g><g transform="matrix(1, 0, 0, 1, 18, -4)"><rect x="0" y="0" width="18" height="18" rx="9" fill="#ff3b30"/><g clip-path="url(#clip-42)"><ellipse cx="3" cy="3" rx="3" ry="3" transform="matrix(1, 0, 0, 1, 6, 6)" fill="#ffffff"/></g></g></g><path d="M 2.00 0.00 L 38.00 0.00 C 39.10 0.00 40.00 0.90 40.00 2.00 L 40.00 8.00 C 40.00 9.10 39.10 10.00 38.00 10.00 L 2.00 10.00 C 0.90 10.00 0.00 9.10 0.00 8.00 L 0.00 2.00 C 0.00 0.90 0.90 0.00 2.00 0.00" fill-rule="nonzero" transform="matrix(1, 0, 0, 1, 4, 42)" fill="#aeaeb2"/></g><g transform="matrix(1, 0, 0, 1, 240, 4)"><rect x="0" y="0" width="48" height="56" fill="#ffffff"/><g transform="matrix(1, 0, 0, 1, 8, 4)"><rect x="0" y="0" width="32" height="32" fill="#ffffff"/><g transform="matrix(1, 0, 0, 1, 4, 8)"><rect x="0" y="0" width="24" height="24" fill="#ffffff"/><g clip-path="url(#clip-43)"><ellipse cx="12" cy="12" rx="12" ry="12" fill="#007aff"/></g></g><g transform="matrix(1, 0, 0, 1, 18, -4)"><rect x="0" y="0" width="18" height="18" rx="9" fill="#ff3b30"/><g clip-path="url(#clip-44)"><ellipse cx="3" cy="3" rx="3" ry="3" transform="matrix(1, 0, 0, 1, 6, 6)" fill="#ffffff"/></g></g></g><path d="M 2.00 0.00 L 38.00 0.00 C 39.10 0.00 40.00 0.90 40.00 2.00 L 40.00 8.00 C 40.00 9.10 39.10 10.00 38.00 10.00 L 2.00 10.00 C 0.90 10.00 0.00 9.10 0.00 8.00 L 0.00 2.00 C 0.00 0.90 0.90 0.00 2.00 0.00" fill-rule="nonzero" transform="matrix(1, 0, 0, 1, 4, 42)" fill="#aeaeb2"/></g><path d="M 0.00 0.00 L 320.00 0.00 L 320.00 1.00 L 0.00 1.00 L 0.00 0.00" fill-rule="nonzero" opacity="0.5" fill="#c7c7cc"/></g></g></g></g><g transform="matrix(1, 0, 0, 1, 790, 900)"><path d="M 0.00 0.00 L 420.00 0.00 L 420.00 84.00 L 0.00 84.00 L 0.00 0.00" fill-rule="nonzero" fill="#f2f2f7"/><g clip-path="url(#clip-56)"><g transform="matrix(1, 0, 0, 1, 10, 10)"><rect x="0" y="0" width="320" height="64" fill="#1c1c1e"/><g clip-path="url(#clip-55)"><g transform="matrix(1, 0, 0, 1, 24, 4)"><rect x="0" y="0" width="48" height="56" fill="#ffffff"/><g transform="matrix(1, 0, 0, 1, 8, 4)"><rect x="0" y="0" width="32" height="32" fill="#ffffff"/><g transform="matrix(1, 0, 0, 1, 4, 8)"><rect x="0" y="0" width="24" height="24" fill="#ffffff"/><g clip-path="url(#clip-47)"><ellipse cx="12" cy="12" rx="12" ry="12" fill="#007aff"/></g></g><g transform="matrix(1, 0, 0, 1, 18, -4)"><rect x="0" y="0" width="18" height="18" rx="9" fill="#ff3b30"/><g clip-path="url(#clip-48)"><ellipse cx="3" cy="3" rx="3" ry="3" transform="matrix(1, 0, 0, 1, 6, 6)" fill="#ffffff"/></g></g></g><path d="M 2.00 0.00 L 38.00 0.00 C 39.10 0.00 40.00 0.90 40.00 2.00 L 40.00 8.00 C 40.00 9.10 39.10 10.00 38.00 10.00 L 2.00 10.00 C 0.90 10.00 0.00 9.10 0.00 8.00 L 0.00 2.00 C 0.00 0.90 0.90 0.00 2.00 0.00" fill-rule="nonzero" transform="matrix(1, 0, 0, 1, 4, 42)" fill="#aeaeb2"/></g><g transform="matrix(1, 0, 0, 1, 96, 4)"><rect x="0" y="0" width="48" height="56" fill="#ffffff"/><g transform="matrix(1, 0, 0, 1, 8, 4)"><rect x="0" y="0" width="32" height="32" fill="#ffffff"/><g transform="matrix(1, 0, 0, 1, 4, 8)"><rect x="0" y="0" width="24" height="24" fill="#ffffff"/><g clip-path="url(#clip-49)"><ellipse cx="12" cy="12" rx="12" ry="12" fill="#007aff"/></g></g><g transform="matrix(1, 0, 0, 1, 18, -4)"><rect x="0" y="0" width="18" height="18" rx="9" fill="#ff3b30"/><g clip-path="url(#clip-50)"><ellipse cx="3" cy="3" rx="3" ry="3" transform="matrix(1, 0, 0, 1, 6, 6)" fill="#ffffff"/></g></g></g><path d="M 2.00 0.00 L 38.00 0.00 C 39.10 0.00 40.00 0.90 40.00 2.00 L 40.00 8.00 C 40.00 9.10 39.10 10.00 38.00 10.00 L 2.00 10.00 C 0.90 10.00 0.00 9.10 0.00 8.00 L 0.00 2.00 C 0.00 0.90 0.90 0.00 2.00 0.00" fill-rule="nonzero" transform="matrix(1, 0, 0, 1, 4, 42)" fill="#aeaeb2"/></g><g transform="matrix(1, 0, 0, 1, 168, 4)"><rect x="0" y="0" width="48" height="56" fill="#ffffff"/><g transform="matrix(1, 0, 0, 1, 8, 4)"><rect x="0" y="0" width="32" height="32" fill="#ffffff"/><g transform="matrix(1, 0, 0, 1, 4, 8)"><rect x="0" y="0" width="24" height="24" fill="#ffffff"/><g clip-path="url(#clip-51)"><ellipse cx="12" cy="12" rx="12" ry="12" fill="#007aff"/></g></g><g transform="matrix(1, 0, 0, 1, 18, -4)"><rect x="0" y="0" width="18" height="18" rx="9" fill="#ff3b30"/><g clip-path="url(#clip-52)"><ellipse cx="3" cy="3" rx="3" ry="3" transform="matrix(1, 0, 0, 1, 6, 6)" fill="#ffffff"/></g></g></g><path d="M 2.00 0.00 L 38.00 0.00 C 39.10 0.00 40.00 0.90 40.00 2.00 L 40.00 8.00 C 40.00 9.10 39.10 10.00 38.00 10.00 L 2.00 10.00 C 0.90 10.00 0.00 9.10 0.00 8.00 L 0.00 2.00 C 0.00 0.90 0.90 0.00 2.00 0.00" fill-rule="nonzero" transform="matrix(1, 0, 0, 1, 4, 42)" fill="#aeaeb2"/></g><g transform="matrix(1, 0, 0, 1, 240, 4)"><rect x="0" y="0" width="48" height="56" fill="#ffffff"/><g transform="matrix(1, 0, 0, 1, 8, 4)"><rect x="0" y="0" width="32" height="32" fill="#ffffff"/><g transform="matrix(1, 0, 0, 1, 4, 8)"><rect x="0" y="0" width="24" height="24" fill="#ffffff"/><g clip-path="url(#clip-53)"><ellipse cx="12" cy="12" rx="12" ry="12" fill="#007aff"/></g></g><g transform="matrix(1, 0, 0, 1, 18, -4)"><rect x="0" y="0" width="18" height="18" rx="9" fill="#ff3b30"/><g clip-path="url(#clip-54)"><ellipse cx="3" cy="3" rx="3" ry="3" transform="matrix(1, 0, 0, 1, 6, 6)" fill="#ffffff"/></g></g></g><path d="M 2.00 0.00 L 38.00 0.00 C 39.10 0.00 40.00 0.90 40.00 2.00 L 40.00 8.00 C 40.00 9.10 39.10 10.00 38.00 10.00 L 2.00 10.00 C 0.90 10.00 0.00 9.10 0.00 8.00 L 0.00 2.00 C 0.00 0.90 0.90 0.00 2.00 0.00" fill-rule="nonzero" transform="matrix(1, 0, 0, 1, 4, 42)" fill="#aeaeb2"/></g><path d="M 0.00 0.00 L 320.00 0.00 L 320.00 1.00 L 0.00 1.00 L 0.00 0.00" fill-rule="nonzero" opacity="0.5" fill="#c7c7cc"/></g></g></g></g><g transform="matrix(1, 0, 0, 1, 50, 1020)"><path d="M 0.00 0.00 L 400.00 0.00 L 400.00 80.00 L 0.00 80.00 L 0.00 0.00" fill-rule="nonzero" fill="#ffffff"/><g clip-path="url(#clip-60)"><g transform="matrix(1, 0, 0, 1, 10, 24)"><rect x="0" y="0" width="120" height="44" rx="12" fill="#007aff"/><g clip-path="url(#clip-57)"><path d="M 6.00 0.00 L 94.00 0.00 C 97.31 0.00 100.00 2.69 100.00 6.00 L 100.00 22.00 C 100.00 25.31 97.31 28.00 94.00 28.00 L 6.00 28.00 C 2.69 28.00 0.00 25.31 0.00 22.00 L 0.00 6.00 C 0.00 2.69 2.69 0.00 6.00 0.00" fill-rule="nonzero" transform="matrix(1, 0, 0, 1, 10, 8)" opacity="0.15000000596046448" fill="#ffffff"/></g></g><g transform="matrix(1, 0, 0, 1, 100, 18)"><rect x="0" y="0" width="120" height="44" rx="12" fill="#007aff"/><g clip-path="url(#clip-58)"><path d="M 6.00 0.00 L 94.00 0.00 C 97.31 0.00 100.00 2.69 100.00 6.00 L 100.00 22.00 C 100.00 25.31 97.31 28.00 94.00 28.00 L 6.00 28.00 C 2.69 28.00 0.00 25.31 0.00 22.00 L 0.00 6.00 C 0.00 2.69 2.69 0.00 6.00 0.00" fill-rule="nonzero" transform="matrix(1, 0, 0, 1, 10, 8)" opacity="0.15000000596046448" fill="#ffffff"/></g></g><g transform="matrix(1, 0, 0, 1, 230, 12)"><rect x="0" y="0" width="120" height="44" rx="12" fill="#007aff"/><g clip-path="url(#clip-59)"><path d="M 6.00 0.00 L 94.00 0.00 C 97.31 0.00 100.00 2.69 100.00 6.00 L 100.00 22.00 C 100.00 25.31 97.31 28.00 94.00 28.00 L 6.00 28.00 C 2.69 28.00 0.00 25.31 0.00 22.00 L 0.00 6.00 C 0.00 2.69 2.69 0.00 6.00 0.00" fill-rule="nonzero" transform="matrix(1, 0, 0, 1, 10, 8)" opacity="0.15000000596046448" fill="#ffffff"/></g></g></g></g></svg>