<svg xmlns="http://www.w3.org/2000/svg" width="340" height="100" viewBox="0 0 340 100"><defs><clipPath id="clip-0"><rect x="0" y="0" width="24" height="24" fill="black"/></clipPath><clipPath id="clip-1"><rect x="0" y="0" width="18" height="18" rx="9" fill="black"/></clipPath><clipPath id="clip-2"><rect x="0" y="0" width="24" height="24" fill="black"/></clipPath><clipPath id="clip-3"><rect x="0" y="0" width="18" height="18" rx="9" fill="black"/></clipPath><clipPath id="clip-4"><rect x="0" y="0" width="24" height="24" fill="black"/></clipPath><clipPath id="clip-5"><rect x="0" y="0" width="18" height="18" rx="9" fill="black"/></clipPath><clipPath id="clip-6"><rect x="0" y="0" width="24" height="24" fill="black"/></clipPath><clipPath id="clip-7"><rect x="0" y="0" width="18" height="18" rx="9" fill="black"/></clipPath><clipPath id="clip-8"><rect x="0" y="0" width="320" height="64" fill="black"/></clipPath><clipPath id="clip-9"><path d="M 0.00 0.00 L 340.00 0.00 L 340.00 84.00 L 0.00 84.00 L 0.00 0.00" fill-rule="nonzero" fill="black"/></clipPath></defs><g><path d="M 0.00 0.00 L 340.00 0.00 L 340.00 84.00 L 0.00 84.00 L 0.00 0.00" fill-rule="nonzero" fill="#f2f2f7"/><g clip-path="url(#clip-9)"><g transform="matrix(1, 0, 0, 1, 10, 10)"><rect x="0" y="0" width="320" height="64" fill="#1c1c1e"/><g clip-path="url(#clip-8)"><g transform="matrix(1, 0, 0, 1, 24, 4)"><rect x="0" y="0" width="48" height="56" fill="#ffffff"/><g transform="matrix(1, 0, 0, 1, 8, 4)"><rect x="0" y="0" width="32" height="32" fill="#ffffff"/><g transform="matrix(1, 0, 0, 1, 4, 8)"><rect x="0" y="0" width="24" height="24" fill="#ffffff"/><g clip-path="url(#clip-0)"><ellipse cx="12" cy="12" rx="12" ry="12" fill="#007aff"/></g></g><g transform="matrix(1, 0, 0, 1, 18, -4)"><rect x="0" y="0" width="18" height="18" rx="9" fill="#ff3b30"/><g clip-path="url(#clip-1)"><ellipse cx="3" cy="3" rx="3" ry="3" transform="matrix(1, 0, 0, 1, 6, 6)" fill="#ffffff"/></g></g></g><path d="M 2.00 0.00 L 38.00 0.00 C 39.10 0.00 40.00 0.90 40.00 2.00 L 40.00 8.00 C 40.00 9.10 39.10 10.00 38.00 10.00 L 2.00 10.00 C 0.90 10.00 0.00 9.10 0.00 8.00 L 0.00 2.00 C 0.00 0.90 0.90 0.00 2.00 0.00" fill-rule="nonzero" transform="matrix(1, 0, 0, 1, 4, 42)" fill="#aeaeb2"/></g><g transform="matrix(1, 0, 0, 1, 96, 4)"><rect x="0" y="0" width="48" height="56" fill="#ffffff"/><g transform="matrix(1, 0, 0, 1, 8, 4)"><rect x="0" y="0" width="32" height="32" fill="#ffffff"/><g transform="matrix(1, 0, 0, 1, 4, 8)"><rect x="0" y="0" width="24" height="24" fill="#ffffff"/><g clip-path="url(#clip-2)"><ellipse cx="12" cy="12" rx="12" ry="12" fill="#007aff"/></g></g><g transform="matrix(1, 0, 0, 1, 18, -4)"><rect x="0" y="0" width="18" height="18" rx="9" fill="#ff3b30"/><g clip-path="url(#clip-3)"><ellipse cx="3" cy="3" rx="3" ry="3" transform="matrix(1, 0, 0, 1, 6, 6)" fill="#ffffff"/></g></g></g><path d="M 2.00 0.00 L 38.00 0.00 C 39.10 0.00 40.00 0.90 40.00 2.00 L 40.00 8.00 C 40.00 9.10 39.10 10.00 38.00 10.00 L 2.00 10.00 C 0.90 10.00 0.00 9.10 0.00 8.00 L 0.00 2.00 C 0.00 0.90 0.90 0.00 2.00 0.00" fill-rule="nonzero" transform="matrix(1, 0, 0, 1, 4, 42)" fill="#aeaeb2"/></g><g transform="matrix(1, 0, 0, 1, 168, 4)"><rect x="0" y="0" width="48" height="56" fill="#ffffff"/><g transform="matrix(1, 0, 0, 1, 8, 4)"><rect x="0" y="0" width="32" height="32" fill="#ffffff"/><g transform="matrix(1, 0, 0, 1, 4, 8)"><rect x="0" y="0" width="24" height="24" fill="#ffffff"/><g clip-path="url(#clip-4)"><ellipse cx="12" cy="12" rx="12" ry="12" fill="#007aff"/></g></g><g transform="matrix(1, 0, 0, 1, 18, -4)"><rect x="0" y="0" width="18" height="18" rx="9" fill="#ff3b30"/><g clip-path="url(#clip-5)"><ellipse cx="3" cy="3" rx="3" ry="3" transform="matrix(1, 0, 0, 1, 6, 6)" fill="#ffffff"/></g></g></g><path d="M 2.00 0.00 L 38.00 0.00 C 39.10 0.00 40.00 0.90 40.00 2.00 L 40.00 8.00 C 40.00 9.10 39.10 10.00 38.00 10.00 L 2.00 10.00 C 0.90 10.00 0.00 9.10 0.00 8.00 L 0.00 2.00 C 0.00 0.90 0.90 0.00 2.00 0.00" fill-rule="nonzero" transform="matrix(1, 0, 0, 1, 4, 42)" fill="#aeaeb2"/></g><g transform="matrix(1, 0, 0, 1, 240, 4)"><rect x="0" y="0" width="48" height="56" fill="#ffffff"/><g transform="matrix(1, 0, 0, 1, 8, 4)"><rect x="0" y="0" width="32" height="32" fill="#ffffff"/><g transform="matrix(1, 0, 0, 1, 4, 8)"><rect x="0" y="0" width="24" height="24" fill="#ffffff"/><g clip-path="url(#clip-6)"><ellipse cx="12" cy="12" rx="12" ry="12" fill="#007aff"/></g></g><g transform="matrix(1, 0, 0, 1, 18, -4)"><rect x="0" y="0" width="18" height="18" rx="9" fill="#ff3b30"/><g clip-path="url(#clip-7)"><ellipse cx="3" cy="3" rx="3" ry="3" transform="matrix(1, 0, 0, 1, 6, 6)" fill="#ffffff"/></g></g></g><path d="M 2.00 0.00 L 38.00 0.00 C 39.10 0.00 40.00 0.90 40.00 2.00 L 40.00 8.00 C 40.00 9.10 39.10 10.00 38.00 10.00 L 2.00 10.00 C 0.90 10.00 0.00 9.10 0.00 8.00 L 0.00 2.00 C 0.00 0.90 0.90 0.00 2.00 0.00" fill-rule="nonzero" transform="matrix(1, 0, 0, 1, 4, 42)" fill="#aeaeb2"/></g><path d="M 0.00 0.00 L 320.00 0.00 L 320.00 1.00 L 0.00 1.00 L 0.00 0.00" fill-rule="nonzero" opacity="0.5" fill="#c7c7cc"/></g></g></g></g></svg>