<svg xmlns="http://www.w3.org/2000/svg" width="1200" height="800" viewBox="0 0 1200 800"><defs><clipPath id="clip-0"><rect x="0" y="0" width="200" height="120" rx="12" fill="black"/></clipPath><clipPath id="clip-1"><rect x="0" y="0" width="200" height="120" rx="12" fill="black"/></clipPath><clipPath id="clip-2"><rect x="0" y="0" width="200" height="120" rx="12" fill="black"/></clipPath><clipPath id="clip-3"><rect x="0" y="0" width="300" height="180" rx="12" fill="black"/></clipPath><clipPath id="clip-4"><path d="M 0.00 0.00 L 320.00 0.00 L 320.00 200.00 L 0.00 200.00 L 0.00 0.00" fill-rule="nonzero" fill="black"/></clipPath><clipPath id="clip-5"><rect x="0" y="0" width="200" height="120" rx="12" fill="black"/></clipPath><clipPath id="clip-6"><path d="M 0.00 0.00 L 220.00 0.00 L 220.00 140.00 L 0.00 140.00 L 0.00 0.00" fill-rule="nonzero" fill="black"/></clipPath><clipPath id="clip-7"><rect x="0" y="0" width="320" height="180" rx="12" fill="black"/></clipPath><clipPath id="clip-8"><path d="M 0.00 0.00 L 340.00 0.00 L 340.00 200.00 L 0.00 200.00 L 0.00 0.00" fill-rule="nonzero" fill="black"/></clipPath><clipPath id="clip-9"><rect x="0" y="0" width="160" height="80" rx="12" fill="black"/></clipPath><clipPath id="clip-10"><path d="M 0.00 0.00 L 180.00 0.00 L 180.00 100.00 L 0.00 100.00 L 0.00 0.00" fill-rule="nonzero" fill="black"/></clipPath><clipPath id="clip-11"><rect x="0" y="0" width="300" height="180" rx="12" fill="black"/></clipPath><clipPath id="clip-12"><path d="M 0.00 0.00 L 320.00 0.00 L 320.00 200.00 L 0.00 200.00 L 0.00 0.00" fill-rule="nonzero" fill="black"/></clipPath></defs><g><rect x="0" y="0" width="200" height="120" rx="12" fill="#ffffff"/><g clip-path="url(#clip-0)"><path d="M 8.00 0.00 L 152.00 0.00 C 156.42 0.00 160.00 3.58 160.00 8.00 L 160.00 72.00 C 160.00 76.42 156.42 80.00 152.00 80.00 L 8.00 80.00 C 3.58 80.00 0.00 76.42 0.00 72.00 L 0.00 8.00 C 0.00 3.58 3.58 0.00 8.00 0.00" fill-rule="nonzero" transform="matrix(1, 0, 0, 1, 20, 20)" fill="#007aff"/></g></g><g transform="matrix(1, 0, 0, 1, 300, 0)"><rect x="0" y="0" width="200" height="120" rx="12" fill="#f2f2f7"/><g clip-path="url(#clip-1)"><path d="M 6.00 0.00 L 34.00 0.00 C 37.31 0.00 40.00 2.69 40.00 6.00 L 40.00 34.00 C 40.00 37.31 37.31 40.00 34.00 40.00 L 6.00 40.00 C 2.69 40.00 0.00 37.31 0.00 34.00 L 0.00 6.00 C 0.00 2.69 2.69 0.00 6.00 0.00" fill-rule="nonzero" transform="matrix(1, 0, 0, 1, 10, 10)" fill="#ff3b30"/><path d="M 6.00 0.00 L 34.00 0.00 C 37.31 0.00 40.00 2.69 40.00 6.00 L 40.00 34.00 C 40.00 37.31 37.31 40.00 34.00 40.00 L 6.00 40.00 C 2.69 40.00 0.00 37.31 0.00 34.00 L 0.00 6.00 C 0.00 2.69 2.69 0.00 6.00 0.00" fill-rule="nonzero" transform="matrix(1, 0, 0, 1, 150, 10)" fill="#34c759"/><ellipse cx="15" cy="15" rx="15" ry="15" transform="matrix(1, 0, 0, 1, 85, 45)" fill="#af52de"/><path d="M 4.00 0.00 L 176.00 0.00 C 178.21 0.00 180.00 1.79 180.00 4.00 L 180.00 16.00 C 180.00 18.21 178.21 20.00 176.00 20.00 L 4.00 20.00 C 1.79 20.00 0.00 18.21 0.00 16.00 L 0.00 4.00 C 0.00 1.79 1.79 0.00 4.00 0.00" fill-rule="nonzero" transform="matrix(1, 0, 0, 1, 10, 90)" fill="#ff9500"/></g></g><g transform="matrix(1, 0, 0, 1, 600, 0)"><rect x="0" y="0" width="200" height="120" rx="12" fill="#ffffff"/><g clip-path="url(#clip-2)"><path d="M 8.00 0.00 L 92.00 0.00 C 96.42 0.00 100.00 3.58 100.00 8.00 L 100.00 52.00 C 100.00 56.42 96.42 60.00 92.00 60.00 L 8.00 60.00 C 3.58 60.00 0.00 56.42 0.00 52.00 L 0.00 8.00 C 0.00 3.58 3.58 0.00 8.00 0.00" fill-rule="nonzero" transform="matrix(1, 0, 0, 1, 50, 30)" fill="#007aff"/></g></g><g transform="matrix(1, 0, 0, 1, 50, 650)"><path d="M 0.00 0.00 L 320.00 0.00 L 320.00 200.00 L 0.00 200.00 L 0.00 0.00" fill-rule="nonzero" fill="#f2f2f7"/><g clip-path="url(#clip-4)"><g transform="matrix(1, 0, 0, 1, 10, 10)"><rect x="0" y="0" width="300" height="180" rx="12" fill="#ffffff"/><g clip-path="url(#clip-3)"><rect x="0" y="0" width="260" height="140" rx="8" ry="8" transform="matrix(1, 0, 0, 1, 20, 20)" fill="#007aff"/></g></g></g></g><g transform="matrix(1, 0, 0, 1, 400, 650)"><path d="M 0.00 0.00 L 220.00 0.00 L 220.00 140.00 L 0.00 140.00 L 0.00 0.00" fill-rule="nonzero" fill="#f2f2f7"/><g clip-path="url(#clip-6)"><g transform="matrix(1, 0, 0, 1, 10, 10)"><rect x="0" y="0" width="200" height="120" rx="12" fill="#ffffff"/><g clip-path="url(#clip-5)"><path d="M 8.00 0.00 L 152.00 0.00 C 156.42 0.00 160.00 3.58 160.00 8.00 L 160.00 72.00 C 160.00 76.42 156.42 80.00 152.00 80.00 L 8.00 80.00 C 3.58 80.00 0.00 76.42 0.00 72.00 L 0.00 8.00 C 0.00 3.58 3.58 0.00 8.00 0.00" fill-rule="nonzero" transform="matrix(1, 0, 0, 1, 20, 20)" fill="#007aff"/></g></g></g></g><g transform="matrix(1, 0, 0, 1, 50, 880)"><path d="M 0.00 0.00 L 340.00 0.00 L 340.00 200.00 L 0.00 200.00 L 0.00 0.00" fill-rule="nonzero" fill="#ffffff"/><g clip-path="url(#clip-8)"><g transform="matrix(1, 0, 0, 1, 10, 10)"><rect x="0" y="0" width="320" height="180" rx="12" fill="#f2f2f7"/><g clip-path="url(#clip-7)"><path d="M 6.00 0.00 L 34.00 0.00 C 37.31 0.00 40.00 2.69 40.00 6.00 L 40.00 34.00 C 40.00 37.31 37.31 40.00 34.00 40.00 L 6.00 40.00 C 2.69 40.00 0.00 37.31 0.00 34.00 L 0.00 6.00 C 0.00 2.69 2.69 0.00 6.00 0.00" fill-rule="nonzero" transform="matrix(1, 0, 0, 1, 10, 10)" fill="#ff3b30"/><rect x="0" y="0" width="40" height="40" rx="6" ry="6" transform="matrix(1, 0, 0, 1, 270, 10)" fill="#34c759"/><ellipse cx="15" cy="15" rx="15" ry="15" transform="matrix(1, 0, 0, 1, 145, 75)" fill="#af52de"/><rect x="0" y="0" width="300" height="20" rx="4" ry="4" transform="matrix(1, 0, 0, 1, 10, 150)" fill="#ff9500"/></g></g></g></g><g transform="matrix(1, 0, 0, 1, 420, 880)"><path d="M 0.00 0.00 L 180.00 0.00 L 180.00 100.00 L 0.00 100.00 L 0.00 0.00" fill-rule="nonzero" fill="#ffffff"/><g clip-path="url(#clip-10)"><g transform="matrix(1, 0, 0, 1, 10, 10)"><rect x="0" y="0" width="160" height="80" rx="12" fill="#f2f2f7"/><g clip-path="url(#clip-9)"><path d="M 6.00 0.00 L 34.00 0.00 C 37.31 0.00 40.00 2.69 40.00 6.00 L 40.00 34.00 C 40.00 37.31 37.31 40.00 34.00 40.00 L 6.00 40.00 C 2.69 40.00 0.00 37.31 0.00 34.00 L 0.00 6.00 C 0.00 2.69 2.69 0.00 6.00 0.00" fill-rule="nonzero" transform="matrix(1, 0, 0, 1, 10, 10)" fill="#ff3b30"/><rect x="0" y="0" width="40" height="40" rx="6" ry="6" transform="matrix(1, 0, 0, 1, 110, 10)" fill="#34c759"/><ellipse cx="15" cy="15" rx="15" ry="15" transform="matrix(1, 0, 0, 1, 65, 25)" fill="#af52de"/><rect x="0" y="0" width="140" height="20" rx="4" ry="4" transform="matrix(1, 0, 0, 1, 10, 50)" fill="#ff9500"/></g></g></g></g><g transform="matrix(1, 0, 0, 1, 50, 1110)"><path d="M 0.00 0.00 L 320.00 0.00 L 320.00 200.00 L 0.00 200.00 L 0.00 0.00" fill-rule="nonzero" fill="#f2f2f7"/><g clip-path="url(#clip-12)"><g transform="matrix(1, 0, 0, 1, 10, 10)"><rect x="0" y="0" width="300" height="180" rx="12" fill="#ffffff"/><g clip-path="url(#clip-11)"><rect x="0" y="0" width="150" height="90" rx="8" ry="8" transform="matrix(1, 0, 0, 1, 75, 45)" fill="#007aff"/></g></g></g></g></svg>