<svg xmlns="http://www.w3.org/2000/svg" width="200" height="120" viewBox="0 0 200 120"><defs><clipPath id="clip-0"><rect x="0" y="0" width="200" height="120" rx="12" fill="black"/></clipPath></defs><g><rect x="0" y="0" width="200" height="120" rx="12" fill="#f2f2f7"/><g clip-path="url(#clip-0)"><path d="M 6.00 0.00 L 34.00 0.00 C 37.31 0.00 40.00 2.69 40.00 6.00 L 40.00 34.00 C 40.00 37.31 37.31 40.00 34.00 40.00 L 6.00 40.00 C 2.69 40.00 0.00 37.31 0.00 34.00 L 0.00 6.00 C 0.00 2.69 2.69 0.00 6.00 0.00" fill-rule="nonzero" transform="matrix(1, 0, 0, 1, 10, 10)" fill="#ff3b30"/><path d="M 6.00 0.00 L 34.00 0.00 C 37.31 0.00 40.00 2.69 40.00 6.00 L 40.00 34.00 C 40.00 37.31 37.31 40.00 34.00 40.00 L 6.00 40.00 C 2.69 40.00 0.00 37.31 0.00 34.00 L 0.00 6.00 C 0.00 2.69 2.69 0.00 6.00 0.00" fill-rule="nonzero" transform="matrix(1, 0, 0, 1, 150, 10)" fill="#34c759"/><ellipse cx="15" cy="15" rx="15" ry="15" transform="matrix(1, 0, 0, 1, 85, 45)" fill="#af52de"/><path d="M 4.00 0.00 L 176.00 0.00 C 178.21 0.00 180.00 1.79 180.00 4.00 L 180.00 16.00 C 180.00 18.21 178.21 20.00 176.00 20.00 L 4.00 20.00 C 1.79 20.00 0.00 18.21 0.00 16.00 L 0.00 4.00 C 0.00 1.79 1.79 0.00 4.00 0.00" fill-rule="nonzero" transform="matrix(1, 0, 0, 1, 10, 90)" fill="#ff9500"/></g></g></svg>