<svg xmlns="http://www.w3.org/2000/svg" width="340" height="200" viewBox="0 0 340 200"><defs><clipPath id="clip-0"><rect x="0" y="0" width="320" height="180" rx="12" fill="black"/></clipPath><clipPath id="clip-1"><path d="M 0.00 0.00 L 340.00 0.00 L 340.00 200.00 L 0.00 200.00 L 0.00 0.00" fill-rule="nonzero" fill="black"/></clipPath></defs><g><path d="M 0.00 0.00 L 340.00 0.00 L 340.00 200.00 L 0.00 200.00 L 0.00 0.00" fill-rule="nonzero" fill="#ffffff"/><g clip-path="url(#clip-1)"><g transform="matrix(1, 0, 0, 1, 10, 10)"><rect x="0" y="0" width="320" height="180" rx="12" fill="#f2f2f7"/><g clip-path="url(#clip-0)"><path d="M 6.00 0.00 L 34.00 0.00 C 37.31 0.00 40.00 2.69 40.00 6.00 L 40.00 34.00 C 40.00 37.31 37.31 40.00 34.00 40.00 L 6.00 40.00 C 2.69 40.00 0.00 37.31 0.00 34.00 L 0.00 6.00 C 0.00 2.69 2.69 0.00 6.00 0.00" fill-rule="nonzero" transform="matrix(1, 0, 0, 1, 10, 10)" fill="#ff3b30"/><rect x="0" y="0" width="40" height="40" rx="6" ry="6" transform="matrix(1, 0, 0, 1, 270, 10)" fill="#34c759"/><ellipse cx="15" cy="15" rx="15" ry="15" transform="matrix(1, 0, 0, 1, 145, 75)" fill="#af52de"/><rect x="0" y="0" width="300" height="20" rx="4" ry="4" transform="matrix(1, 0, 0, 1, 10, 150)" fill="#ff9500"/></g></g></g></g></svg>