<svg xmlns="http://www.w3.org/2000/svg" width="180" height="120" viewBox="0 0 180 120"><g><defs><clipPath id="clip-g26-3"><rect x="0" y="0" width="180" height="120"/></clipPath></defs><g clip-path="url(#clip-g26-3)"><rect x="0" y="0" width="180" height="120" fill="#ffffff"/><g transform="matrix(1,0,0,1,10,10)"><defs><clipPath id="clip-g26-2"><path d="M 12 0 L 148 0 C 154.62741699796953 0 160 5.3725830020304794 160 12 L 160 88 C 160 94.62741699796952 154.62741699796953 100 148 100 L 12 100 C 5.3725830020304794 100 0 94.62741699796952 0 88 L 0 12 C 0 5.3725830020304794 5.3725830020304794 0 12 0 Z"/></clipPath></defs><g clip-path="url(#clip-g26-2)"><path d="M 12 0 L 148 0 C 154.62741699796953 0 160 5.3725830020304794 160 12 L 160 88 C 160 94.62741699796952 154.62741699796953 100 148 100 L 12 100 C 5.3725830020304794 100 0 94.62741699796952 0 88 L 0 12 C 0 5.3725830020304794 5.3725830020304794 0 12 0 Z" fill="#ffffff"/><g transform="matrix(1,0,0,1,10,26)"><defs><clipPath id="clip-g26-0"><path d="M 8 0 L 72 0 C 76.41827799864635 0 80 3.5817220013536533 80 8 L 80 40 C 80 44.418277998646346 76.41827799864635 48 72 48 L 8 48 C 3.5817220013536533 48 0 44.418277998646346 0 40 L 0 8 C 0 3.5817220013536533 3.5817220013536533 0 8 0 Z"/></clipPath></defs><g clip-path="url(#clip-g26-0)"><path d="M 8 0 L 72 0 C 76.41827799864635 0 80 3.5817220013536533 80 8 L 80 40 C 80 44.418277998646346 76.41827799864635 48 72 48 L 8 48 C 3.5817220013536533 48 0 44.418277998646346 0 40 L 0 8 C 0 3.5817220013536533 3.5817220013536533 0 8 0 Z" fill="#007aff"/><g transform="matrix(1,0,0,1,10,10)" opacity="0.30000001192092896"><path d="M 4 0 L 56 0 C 58.20913899932317 0 60 1.7908610006768266 60 4 L 60 24 C 60 26.209138999323173 58.20913899932317 28 56 28 L 4 28 C 1.7908610006768266 28 0 26.209138999323173 0 24 L 0 4 C 0 1.7908610006768266 1.7908610006768266 0 4 0 Z" fill="#ffffff"/></g></g></g><g transform="matrix(1,0,0,1,92,34)"><defs><clipPath id="clip-g26-1"><path d="M 12 0 L 108 0 C 114.62741699796952 0 120 5.3725830020304794 120 12 L 120 32 C 120 38.62741699796952 114.62741699796952 44 108 44 L 12 44 C 5.3725830020304794 44 0 38.62741699796952 0 32 L 0 12 C 0 5.3725830020304794 5.3725830020304794 0 12 0 Z"/></clipPath></defs><g clip-path="url(#clip-g26-1)"><path d="M 12 0 L 108 0 C 114.62741699796952 0 120 5.3725830020304794 120 12 L 120 32 C 120 38.62741699796952 114.62741699796952 44 108 44 L 12 44 C 5.3725830020304794 44 0 38.62741699796952 0 32 L 0 12 C 0 5.3725830020304794 5.3725830020304794 0 12 0 Z" fill="#007aff"/><g transform="matrix(1,0,0,1,10,8)" opacity="0.15000000596046448"><path d="M 6 0 L 94 0 C 97.31370849898477 0 100 2.6862915010152397 100 6 L 100 22 C 100 25.31370849898476 97.31370849898477 28 94 28 L 6 28 C 2.6862915010152397 28 0 25.31370849898476 0 22 L 0 6 C 0 2.6862915010152397 2.6862915010152397 0 6 0 Z" fill="#ffffff"/></g></g></g></g></g></g></g></svg>