<svg xmlns="http://www.w3.org/2000/svg" width="220" height="108" viewBox="0 0 220 108"><defs><clipPath id="clip-0"><rect x="0" y="0" width="80" height="48" rx="8" fill="black"/></clipPath><clipPath id="clip-1"><rect x="0" y="0" width="80" height="48" rx="8" fill="black"/></clipPath><clipPath id="clip-2"><rect x="0" y="0" width="180" height="68" rx="12" fill="black"/></clipPath><clipPath id="clip-3"><rect x="0" y="0" width="220" height="108" rx="16" fill="black"/></clipPath></defs><g><rect x="0" y="0" width="220" height="108" rx="16" fill="#ffffff"/><g clip-path="url(#clip-3)"><g transform="matrix(1, 0, 0, 1, 20, 10)"><rect x="0" y="0" width="180" height="68" rx="12" fill="#f2f2f7"/><g clip-path="url(#clip-2)"><g transform="matrix(1, 0, 0, 1, 10, 10)"><rect x="0" y="0" width="80" height="48" rx="8" fill="#007aff"/><g clip-path="url(#clip-0)"><path d="M 4.00 0.00 L 56.00 0.00 C 58.21 0.00 60.00 1.79 60.00 4.00 L 60.00 24.00 C 60.00 26.21 58.21 28.00 56.00 28.00 L 4.00 28.00 C 1.79 28.00 0.00 26.21 0.00 24.00 L 0.00 4.00 C 0.00 1.79 1.79 0.00 4.00 0.00" fill-rule="nonzero" transform="matrix(1, 0, 0, 1, 10, 10)" opacity="0.30000001192092896" fill="#ffffff"/></g></g><g transform="matrix(1, 0, 0, 1, 90, 10)"><rect x="0" y="0" width="80" height="48" rx="8" fill="#007aff"/><g clip-path="url(#clip-1)"><path d="M 4.00 0.00 L 56.00 0.00 C 58.21 0.00 60.00 1.79 60.00 4.00 L 60.00 24.00 C 60.00 26.21 58.21 28.00 56.00 28.00 L 4.00 28.00 C 1.79 28.00 0.00 26.21 0.00 24.00 L 0.00 4.00 C 0.00 1.79 1.79 0.00 4.00 0.00" fill-rule="nonzero" transform="matrix(1, 0, 0, 1, 10, 10)" opacity="0.30000001192092896" fill="#ffffff"/></g></g></g></g><path d="M 4.00 0.00 L 176.00 0.00 C 178.21 0.00 180.00 1.79 180.00 4.00 L 180.00 4.00 C 180.00 6.21 178.21 8.00 176.00 8.00 L 4.00 8.00 C 1.79 8.00 0.00 6.21 0.00 4.00 L 0.00 4.00 C 0.00 1.79 1.79 0.00 4.00 0.00" fill-rule="nonzero" transform="matrix(1, 0, 0, 1, 20, 86)" fill="#ff9500"/></g></g></svg>