<svg xmlns="http://www.w3.org/2000/svg" width="180" height="120" viewBox="0 0 180 120"><defs><clipPath id="clip-0"><rect x="0" y="0" width="80" height="48" rx="8" fill="black"/></clipPath><clipPath id="clip-1"><rect x="0" y="0" width="120" height="44" rx="12" fill="black"/></clipPath><clipPath id="clip-2"><rect x="0" y="0" width="160" height="100" rx="12" fill="black"/></clipPath><clipPath id="clip-3"><path d="M 0.00 0.00 L 180.00 0.00 L 180.00 120.00 L 0.00 120.00 L 0.00 0.00" fill-rule="nonzero" fill="black"/></clipPath></defs><g><path d="M 0.00 0.00 L 180.00 0.00 L 180.00 120.00 L 0.00 120.00 L 0.00 0.00" fill-rule="nonzero" fill="#ffffff"/><g clip-path="url(#clip-3)"><g transform="matrix(1, 0, 0, 1, 10, 10)"><rect x="0" y="0" width="160" height="100" rx="12" fill="#ffffff"/><g clip-path="url(#clip-2)"><g transform="matrix(1, 0, 0, 1, 10, 26)"><rect x="0" y="0" width="80" height="48" rx="8" fill="#007aff"/><g clip-path="url(#clip-0)"><path d="M 4.00 0.00 L 56.00 0.00 C 58.21 0.00 60.00 1.79 60.00 4.00 L 60.00 24.00 C 60.00 26.21 58.21 28.00 56.00 28.00 L 4.00 28.00 C 1.79 28.00 0.00 26.21 0.00 24.00 L 0.00 4.00 C 0.00 1.79 1.79 0.00 4.00 0.00" fill-rule="nonzero" transform="matrix(1, 0, 0, 1, 10, 10)" opacity="0.30000001192092896" fill="#ffffff"/></g></g><g transform="matrix(1, 0, 0, 1, 92, 34)"><rect x="0" y="0" width="120" height="44" rx="12" fill="#007aff"/><g clip-path="url(#clip-1)"><path d="M 6.00 0.00 L 94.00 0.00 C 97.31 0.00 100.00 2.69 100.00 6.00 L 100.00 22.00 C 100.00 25.31 97.31 28.00 94.00 28.00 L 6.00 28.00 C 2.69 28.00 0.00 25.31 0.00 22.00 L 0.00 6.00 C 0.00 2.69 2.69 0.00 6.00 0.00" fill-rule="nonzero" transform="matrix(1, 0, 0, 1, 10, 8)" opacity="0.15000000596046448" fill="#ffffff"/></g></g></g></g></g></g></svg>