<svg xmlns="http://www.w3.org/2000/svg" width="1200" height="800" viewBox="0 0 1200 800"><defs><clipPath id="clip-0"><rect x="0" y="0" width="80" height="48" rx="8" fill="black"/></clipPath><clipPath id="clip-1"><rect x="0" y="0" width="80" height="48" rx="8" fill="black"/></clipPath><clipPath id="clip-2"><rect x="0" y="0" width="80" height="48" rx="8" fill="black"/></clipPath><clipPath id="clip-3"><rect x="0" y="0" width="180" height="68" rx="12" fill="black"/></clipPath><clipPath id="clip-4"><rect x="0" y="0" width="80" height="48" rx="8" fill="black"/></clipPath><clipPath id="clip-5"><rect x="0" y="0" width="80" height="48" rx="8" fill="black"/></clipPath><clipPath id="clip-6"><rect x="0" y="0" width="180" height="68" rx="12" fill="black"/></clipPath><clipPath id="clip-7"><rect x="0" y="0" width="220" height="108" rx="16" fill="black"/></clipPath><clipPath id="clip-8"><rect x="0" y="0" width="80" height="48" rx="8" fill="black"/></clipPath><clipPath id="clip-9"><rect x="0" y="0" width="80" height="48" rx="8" fill="black"/></clipPath><clipPath id="clip-10"><rect x="0" y="0" width="180" height="68" rx="12" fill="black"/></clipPath><clipPath id="clip-11"><rect x="0" y="0" width="220" height="108" rx="16" fill="black"/></clipPath><clipPath id="clip-12"><rect x="0" y="0" width="18" height="18" rx="9" fill="black"/></clipPath><clipPath id="clip-13"><rect x="0" y="0" width="260" height="140" rx="20" fill="black"/></clipPath><clipPath id="clip-14"><rect x="0" y="0" width="80" height="48" rx="8" fill="black"/></clipPath><clipPath id="clip-15"><rect x="0" y="0" width="80" height="48" rx="8" fill="black"/></clipPath><clipPath id="clip-16"><rect x="0" y="0" width="180" height="68" rx="12" fill="black"/></clipPath><clipPath id="clip-17"><rect x="0" y="0" width="220" height="108" rx="16" fill="black"/></clipPath><clipPath id="clip-18"><rect x="0" y="0" width="18" height="18" rx="9" fill="black"/></clipPath><clipPath id="clip-19"><rect x="0" y="0" width="260" height="140" rx="20" fill="black"/></clipPath><clipPath id="clip-20"><rect x="0" y="0" width="300" height="180" rx="24" fill="black"/></clipPath><clipPath id="clip-21"><rect x="0" y="0" width="80" height="48" rx="8" fill="black"/></clipPath><clipPath id="clip-22"><rect x="0" y="0" width="120" height="44" rx="12" fill="black"/></clipPath><clipPath id="clip-23"><rect x="0" y="0" width="160" height="100" rx="12" fill="black"/></clipPath><clipPath id="clip-24"><rect x="0" y="0" width="80" height="48" rx="8" fill="black"/></clipPath><clipPath id="clip-25"><rect x="0" y="0" width="80" height="48" rx="8" fill="black"/></clipPath><clipPath id="clip-26"><rect x="0" y="0" width="180" height="68" rx="12" fill="black"/></clipPath><clipPath id="clip-27"><path d="M 0.00 0.00 L 200.00 0.00 L 200.00 88.00 L 0.00 88.00 L 0.00 0.00" fill-rule="nonzero" fill="black"/></clipPath><clipPath id="clip-28"><rect x="0" y="0" width="80" height="48" rx="8" fill="black"/></clipPath><clipPath id="clip-29"><rect x="0" y="0" width="80" height="48" rx="8" fill="black"/></clipPath><clipPath id="clip-30"><rect x="0" y="0" width="180" height="68" rx="12" fill="black"/></clipPath><clipPath id="clip-31"><rect x="0" y="0" width="220" height="108" rx="16" fill="black"/></clipPath><clipPath id="clip-32"><path d="M 0.00 0.00 L 240.00 0.00 L 240.00 128.00 L 0.00 128.00 L 0.00 0.00" fill-rule="nonzero" fill="black"/></clipPath><clipPath id="clip-33"><rect x="0" y="0" width="80" height="48" rx="8" fill="black"/></clipPath><clipPath id="clip-34"><rect x="0" y="0" width="80" height="48" rx="8" fill="black"/></clipPath><clipPath id="clip-35"><rect x="0" y="0" width="180" height="68" rx="12" fill="black"/></clipPath><clipPath id="clip-36"><rect x="0" y="0" width="220" height="108" rx="16" fill="black"/></clipPath><clipPath id="clip-37"><rect x="0" y="0" width="18" height="18" rx="9" fill="black"/></clipPath><clipPath id="clip-38"><rect x="0" y="0" width="260" height="140" rx="20" fill="black"/></clipPath><clipPath id="clip-39"><path d="M 0.00 0.00 L 280.00 0.00 L 280.00 160.00 L 0.00 160.00 L 0.00 0.00" fill-rule="nonzero" fill="black"/></clipPath><clipPath id="clip-40"><rect x="0" y="0" width="80" height="48" rx="8" fill="black"/></clipPath><clipPath id="clip-41"><rect x="0" y="0" width="80" height="48" rx="8" fill="black"/></clipPath><clipPath id="clip-42"><rect x="0" y="0" width="180" height="68" rx="12" fill="black"/></clipPath><clipPath id="clip-43"><rect x="0" y="0" width="220" height="108" rx="16" fill="black"/></clipPath><clipPath id="clip-44"><rect x="0" y="0" width="18" height="18" rx="9" fill="black"/></clipPath><clipPath id="clip-45"><rect x="0" y="0" width="260" height="140" rx="20" fill="black"/></clipPath><clipPath id="clip-46"><rect x="0" y="0" width="300" height="180" rx="24" fill="black"/></clipPath><clipPath id="clip-47"><path d="M 0.00 0.00 L 320.00 0.00 L 320.00 200.00 L 0.00 200.00 L 0.00 0.00" fill-rule="nonzero" fill="black"/></clipPath><clipPath id="clip-48"><rect x="0" y="0" width="80" height="48" rx="8" fill="black"/></clipPath><clipPath id="clip-49"><rect x="0" y="0" width="80" height="48" rx="8" fill="black"/></clipPath><clipPath id="clip-50"><rect x="0" y="0" width="180" height="68" rx="12" fill="black"/></clipPath><clipPath id="clip-51"><rect x="0" y="0" width="220" height="108" rx="16" fill="black"/></clipPath><clipPath id="clip-52"><rect x="0" y="0" width="18" height="18" rx="9" fill="black"/></clipPath><clipPath id="clip-53"><rect x="0" y="0" width="260" height="140" rx="20" fill="black"/></clipPath><clipPath id="clip-54"><rect x="0" y="0" width="300" height="180" rx="24" fill="black"/></clipPath><clipPath id="clip-55"><path d="M 0.00 0.00 L 260.00 0.00 L 260.00 160.00 L 0.00 160.00 L 0.00 0.00" fill-rule="nonzero" fill="black"/></clipPath><clipPath id="clip-56"><rect x="0" y="0" width="80" height="48" rx="8" fill="black"/></clipPath><clipPath id="clip-57"><rect x="0" y="0" width="120" height="44" rx="12" fill="black"/></clipPath><clipPath id="clip-58"><rect x="0" y="0" width="160" height="100" rx="12" fill="black"/></clipPath><clipPath id="clip-59"><path d="M 0.00 0.00 L 180.00 0.00 L 180.00 120.00 L 0.00 120.00 L 0.00 0.00" fill-rule="nonzero" fill="black"/></clipPath><clipPath id="clip-60"><rect x="0" y="0" width="80" height="48" rx="8" fill="black"/></clipPath><clipPath id="clip-61"><rect x="0" y="0" width="80" height="48" rx="8" fill="black"/></clipPath><clipPath id="clip-62"><rect x="0" y="0" width="180" height="68" rx="12" fill="black"/></clipPath><clipPath id="clip-63"><rect x="0" y="0" width="220" height="108" rx="16" fill="black"/></clipPath><clipPath id="clip-64"><rect x="0" y="0" width="18" height="18" rx="9" fill="black"/></clipPath><clipPath id="clip-65"><rect x="0" y="0" width="260" height="140" rx="20" fill="black"/></clipPath><clipPath id="clip-66"><path d="M 0.00 0.00 L 280.00 0.00 L 280.00 160.00 L 0.00 160.00 L 0.00 0.00" fill-rule="nonzero" fill="black"/></clipPath><clipPath id="clip-67"><rect x="0" y="0" width="80" height="48" rx="8" fill="black"/></clipPath><clipPath id="clip-68"><rect x="0" y="0" width="80" height="48" rx="8" fill="black"/></clipPath><clipPath id="clip-69"><rect x="0" y="0" width="80" height="48" rx="8" fill="black"/></clipPath><clipPath id="clip-70"><rect x="0" y="0" width="180" height="68" rx="12" fill="black"/></clipPath><clipPath id="clip-71"><rect x="0" y="0" width="80" height="48" rx="8" fill="black"/></clipPath><clipPath id="clip-72"><rect x="0" y="0" width="80" height="48" rx="8" fill="black"/></clipPath><clipPath id="clip-73"><rect x="0" y="0" width="180" height="68" rx="12" fill="black"/></clipPath><clipPath id="clip-74"><rect x="0" y="0" width="220" height="108" rx="16" fill="black"/></clipPath><clipPath id="clip-75"><rect x="0" y="0" width="80" height="48" rx="8" fill="black"/></clipPath><clipPath id="clip-76"><rect x="0" y="0" width="80" height="48" rx="8" fill="black"/></clipPath><clipPath id="clip-77"><rect x="0" y="0" width="180" height="68" rx="12" fill="black"/></clipPath><clipPath id="clip-78"><rect x="0" y="0" width="220" height="108" rx="16" fill="black"/></clipPath><clipPath id="clip-79"><rect x="0" y="0" width="18" height="18" rx="9" fill="black"/></clipPath><clipPath id="clip-80"><rect x="0" y="0" width="260" height="140" rx="20" fill="black"/></clipPath><clipPath id="clip-81"><path d="M 0.00 0.00 L 380.00 0.00 L 380.00 200.00 L 0.00 200.00 L 0.00 0.00" fill-rule="nonzero" fill="black"/></clipPath><filter id="shadow-82" x="2" y="6" width="116" height="76" filterUnits="userSpaceOnUse" color-interpolation-filters="sRGB"><feFlood flood-opacity="0" result="BackgroundImageFix"/><feColorMatrix in="SourceAlpha" type="matrix" values="0 0 0 0 0 0 0 0 0 0 0 0 0 0 0 0 0 0 127 0" result="hardAlpha"/><feOffset dy="4"/><feGaussianBlur stdDeviation="4"/><feColorMatrix type="matrix" values="0 0 0 0 0 0 0 0 0 0 0 0 0 0 0 0 0 0 0.15000000596046448 0"/><feBlend mode="normal" in2="BackgroundImageFix" result="effect1_dropShadow_shadow-82"/><feBlend mode="normal" in="SourceGraphic" in2="effect1_dropShadow_shadow-82" result="shape"/></filter><clipPath id="clip-83"><rect x="0" y="0" width="120" height="80" rx="12" fill="black"/></clipPath><filter id="shadow-84" x="2" y="6" width="116" height="76" filterUnits="userSpaceOnUse" color-interpolation-filters="sRGB"><feFlood flood-opacity="0" result="BackgroundImageFix"/><feColorMatrix in="SourceAlpha" type="matrix" values="0 0 0 0 0 0 0 0 0 0 0 0 0 0 0 0 0 0 127 0" result="hardAlpha"/><feOffset dy="4"/><feGaussianBlur stdDeviation="4"/><feColorMatrix type="matrix" values="0 0 0 0 0 0 0 0 0 0 0 0 0 0 0 0 0 0 0.15000000596046448 0"/><feBlend mode="normal" in2="BackgroundImageFix" result="effect1_dropShadow_shadow-84"/><feBlend mode="normal" in="SourceGraphic" in2="effect1_dropShadow_shadow-84" result="shape"/></filter><clipPath id="clip-85"><rect x="0" y="0" width="120" height="80" rx="12" fill="black"/></clipPath><clipPath id="clip-86"><path d="M 0.00 0.00 L 140.00 0.00 L 140.00 100.00 L 0.00 100.00 L 0.00 0.00" fill-rule="nonzero" fill="black"/></clipPath><clipPath id="clip-87"><rect x="0" y="0" width="80" height="48" rx="8" fill="black"/></clipPath><clipPath id="clip-88"><rect x="0" y="0" width="80" height="48" rx="8" fill="black"/></clipPath><clipPath id="clip-89"><rect x="0" y="0" width="180" height="68" rx="12" fill="black"/></clipPath><clipPath id="clip-90"><rect x="0" y="0" width="80" height="48" rx="8" fill="black"/></clipPath><clipPath id="clip-91"><rect x="0" y="0" width="80" height="48" rx="8" fill="black"/></clipPath><clipPath id="clip-92"><rect x="0" y="0" width="180" height="68" rx="12" fill="black"/></clipPath><clipPath id="clip-93"><path d="M 0.00 0.00 L 280.00 0.00 L 280.00 100.00 L 0.00 100.00 L 0.00 0.00" fill-rule="nonzero" fill="black"/></clipPath></defs><g><rect x="0" y="0" width="80" height="48" rx="8" fill="#007aff"/><g clip-path="url(#clip-0)"><path d="M 4.00 0.00 L 56.00 0.00 C 58.21 0.00 60.00 1.79 60.00 4.00 L 60.00 24.00 C 60.00 26.21 58.21 28.00 56.00 28.00 L 4.00 28.00 C 1.79 28.00 0.00 26.21 0.00 24.00 L 0.00 4.00 C 0.00 1.79 1.79 0.00 4.00 0.00" fill-rule="nonzero" transform="matrix(1, 0, 0, 1, 10, 10)" opacity="0.30000001192092896" fill="#ffffff"/></g></g><g transform="matrix(1, 0, 0, 1, 200, 0)"><rect x="0" y="0" width="180" height="68" rx="12" fill="#f2f2f7"/><g clip-path="url(#clip-3)"><g transform="matrix(1, 0, 0, 1, 10, 10)"><rect x="0" y="0" width="80" height="48" rx="8" fill="#007aff"/><g clip-path="url(#clip-1)"><path d="M 4.00 0.00 L 56.00 0.00 C 58.21 0.00 60.00 1.79 60.00 4.00 L 60.00 24.00 C 60.00 26.21 58.21 28.00 56.00 28.00 L 4.00 28.00 C 1.79 28.00 0.00 26.21 0.00 24.00 L 0.00 4.00 C 0.00 1.79 1.79 0.00 4.00 0.00" fill-rule="nonzero" transform="matrix(1, 0, 0, 1, 10, 10)" opacity="0.30000001192092896" fill="#ffffff"/></g></g><g transform="matrix(1, 0, 0, 1, 90, 10)"><rect x="0" y="0" width="80" height="48" rx="8" fill="#007aff"/><g clip-path="url(#clip-2)"><path d="M 4.00 0.00 L 56.00 0.00 C 58.21 0.00 60.00 1.79 60.00 4.00 L 60.00 24.00 C 60.00 26.21 58.21 28.00 56.00 28.00 L 4.00 28.00 C 1.79 28.00 0.00 26.21 0.00 24.00 L 0.00 4.00 C 0.00 1.79 1.79 0.00 4.00 0.00" fill-rule="nonzero" transform="matrix(1, 0, 0, 1, 10, 10)" opacity="0.30000001192092896" fill="#ffffff"/></g></g></g></g><g transform="matrix(1, 0, 0, 1, 500, 0)"><rect x="0" y="0" width="220" height="108" rx="16" fill="#ffffff"/><g clip-path="url(#clip-7)"><g transform="matrix(1, 0, 0, 1, 20, 10)"><rect x="0" y="0" width="180" height="68" rx="12" fill="#f2f2f7"/><g clip-path="url(#clip-6)"><g transform="matrix(1, 0, 0, 1, 10, 10)"><rect x="0" y="0" width="80" height="48" rx="8" fill="#007aff"/><g clip-path="url(#clip-4)"><path d="M 4.00 0.00 L 56.00 0.00 C 58.21 0.00 60.00 1.79 60.00 4.00 L 60.00 24.00 C 60.00 26.21 58.21 28.00 56.00 28.00 L 4.00 28.00 C 1.79 28.00 0.00 26.21 0.00 24.00 L 0.00 4.00 C 0.00 1.79 1.79 0.00 4.00 0.00" fill-rule="nonzero" transform="matrix(1, 0, 0, 1, 10, 10)" opacity="0.30000001192092896" fill="#ffffff"/></g></g><g transform="matrix(1, 0, 0, 1, 90, 10)"><rect x="0" y="0" width="80" height="48" rx="8" fill="#007aff"/><g clip-path="url(#clip-5)"><path d="M 4.00 0.00 L 56.00 0.00 C 58.21 0.00 60.00 1.79 60.00 4.00 L 60.00 24.00 C 60.00 26.21 58.21 28.00 56.00 28.00 L 4.00 28.00 C 1.79 28.00 0.00 26.21 0.00 24.00 L 0.00 4.00 C 0.00 1.79 1.79 0.00 4.00 0.00" fill-rule="nonzero" transform="matrix(1, 0, 0, 1, 10, 10)" opacity="0.30000001192092896" fill="#ffffff"/></g></g></g></g><path d="M 4.00 0.00 L 176.00 0.00 C 178.21 0.00 180.00 1.79 180.00 4.00 L 180.00 4.00 C 180.00 6.21 178.21 8.00 176.00 8.00 L 4.00 8.00 C 1.79 8.00 0.00 6.21 0.00 4.00 L 0.00 4.00 C 0.00 1.79 1.79 0.00 4.00 0.00" fill-rule="nonzero" transform="matrix(1, 0, 0, 1, 20, 86)" fill="#ff9500"/></g></g><g transform="matrix(1, 0, 0, 1, 800, 0)"><rect x="0" y="0" width="260" height="140" rx="20" fill="#f2f2f7"/><g clip-path="url(#clip-13)"><g transform="matrix(1, 0, 0, 1, 20, 16)"><rect x="0" y="0" width="220" height="108" rx="16" fill="#ffffff"/><g clip-path="url(#clip-11)"><g transform="matrix(1, 0, 0, 1, 20, 10)"><rect x="0" y="0" width="180" height="68" rx="12" fill="#f2f2f7"/><g clip-path="url(#clip-10)"><g transform="matrix(1, 0, 0, 1, 10, 10)"><rect x="0" y="0" width="80" height="48" rx="8" fill="#007aff"/><g clip-path="url(#clip-8)"><path d="M 4.00 0.00 L 56.00 0.00 C 58.21 0.00 60.00 1.79 60.00 4.00 L 60.00 24.00 C 60.00 26.21 58.21 28.00 56.00 28.00 L 4.00 28.00 C 1.79 28.00 0.00 26.21 0.00 24.00 L 0.00 4.00 C 0.00 1.79 1.79 0.00 4.00 0.00" fill-rule="nonzero" transform="matrix(1, 0, 0, 1, 10, 10)" opacity="0.30000001192092896" fill="#ffffff"/></g></g><g transform="matrix(1, 0, 0, 1, 90, 10)"><rect x="0" y="0" width="80" height="48" rx="8" fill="#007aff"/><g clip-path="url(#clip-9)"><path d="M 4.00 0.00 L 56.00 0.00 C 58.21 0.00 60.00 1.79 60.00 4.00 L 60.00 24.00 C 60.00 26.21 58.21 28.00 56.00 28.00 L 4.00 28.00 C 1.79 28.00 0.00 26.21 0.00 24.00 L 0.00 4.00 C 0.00 1.79 1.79 0.00 4.00 0.00" fill-rule="nonzero" transform="matrix(1, 0, 0, 1, 10, 10)" opacity="0.30000001192092896" fill="#ffffff"/></g></g></g></g><path d="M 4.00 0.00 L 176.00 0.00 C 178.21 0.00 180.00 1.79 180.00 4.00 L 180.00 4.00 C 180.00 6.21 178.21 8.00 176.00 8.00 L 4.00 8.00 C 1.79 8.00 0.00 6.21 0.00 4.00 L 0.00 4.00 C 0.00 1.79 1.79 0.00 4.00 0.00" fill-rule="nonzero" transform="matrix(1, 0, 0, 1, 20, 86)" fill="#ff9500"/></g></g><g transform="matrix(1, 0, 0, 1, 234, 8)"><rect x="0" y="0" width="18" height="18" rx="9" fill="#ff3b30"/><g clip-path="url(#clip-12)"><ellipse cx="3" cy="3" rx="3" ry="3" transform="matrix(1, 0, 0, 1, 6, 6)" fill="#ffffff"/></g></g></g></g><g transform="matrix(1, 0, 0, 1, 1150, 0)"><rect x="0" y="0" width="300" height="180" rx="24" fill="#ffffff"/><g clip-path="url(#clip-20)"><g transform="matrix(1, 0, 0, 1, 20, 20)"><rect x="0" y="0" width="260" height="140" rx="20" fill="#f2f2f7"/><g clip-path="url(#clip-19)"><g transform="matrix(1, 0, 0, 1, 20, 16)"><rect x="0" y="0" width="220" height="108" rx="16" fill="#ffffff"/><g clip-path="url(#clip-17)"><g transform="matrix(1, 0, 0, 1, 20, 10)"><rect x="0" y="0" width="180" height="68" rx="12" fill="#f2f2f7"/><g clip-path="url(#clip-16)"><g transform="matrix(1, 0, 0, 1, 10, 10)"><rect x="0" y="0" width="80" height="48" rx="8" fill="#007aff"/><g clip-path="url(#clip-14)"><path d="M 4.00 0.00 L 56.00 0.00 C 58.21 0.00 60.00 1.79 60.00 4.00 L 60.00 24.00 C 60.00 26.21 58.21 28.00 56.00 28.00 L 4.00 28.00 C 1.79 28.00 0.00 26.21 0.00 24.00 L 0.00 4.00 C 0.00 1.79 1.79 0.00 4.00 0.00" fill-rule="nonzero" transform="matrix(1, 0, 0, 1, 10, 10)" opacity="0.30000001192092896" fill="#ffffff"/></g></g><g transform="matrix(1, 0, 0, 1, 90, 10)"><rect x="0" y="0" width="80" height="48" rx="8" fill="#007aff"/><g clip-path="url(#clip-15)"><path d="M 4.00 0.00 L 56.00 0.00 C 58.21 0.00 60.00 1.79 60.00 4.00 L 60.00 24.00 C 60.00 26.21 58.21 28.00 56.00 28.00 L 4.00 28.00 C 1.79 28.00 0.00 26.21 0.00 24.00 L 0.00 4.00 C 0.00 1.79 1.79 0.00 4.00 0.00" fill-rule="nonzero" transform="matrix(1, 0, 0, 1, 10, 10)" opacity="0.30000001192092896" fill="#ffffff"/></g></g></g></g><path d="M 4.00 0.00 L 176.00 0.00 C 178.21 0.00 180.00 1.79 180.00 4.00 L 180.00 4.00 C 180.00 6.21 178.21 8.00 176.00 8.00 L 4.00 8.00 C 1.79 8.00 0.00 6.21 0.00 4.00 L 0.00 4.00 C 0.00 1.79 1.79 0.00 4.00 0.00" fill-rule="nonzero" transform="matrix(1, 0, 0, 1, 20, 86)" fill="#ff9500"/></g></g><g transform="matrix(1, 0, 0, 1, 234, 8)"><rect x="0" y="0" width="18" height="18" rx="9" fill="#ff3b30"/><g clip-path="url(#clip-18)"><ellipse cx="3" cy="3" rx="3" ry="3" transform="matrix(1, 0, 0, 1, 6, 6)" fill="#ffffff"/></g></g></g></g><path d="M 22.00 0.00 L 258.00 0.00 C 270.15 0.00 280.00 9.85 280.00 22.00 L 280.00 138.00 C 280.00 150.15 270.15 160.00 258.00 160.00 L 22.00 160.00 C 9.85 160.00 0.00 150.15 0.00 138.00 L 0.00 22.00 C 0.00 9.85 9.85 0.00 22.00 0.00" fill-rule="nonzero" transform="matrix(1, 0, 0, 1, 10, 14)" fill="none" stroke="#c7c7cc" stroke-width="1"/></g></g><g transform="matrix(1, 0, 0, 1, 1500, 0)"><rect x="0" y="0" width="160" height="100" rx="12" fill="#ffffff"/><g clip-path="url(#clip-23)"><g transform="matrix(1, 0, 0, 1, 10, 26)"><rect x="0" y="0" width="80" height="48" rx="8" fill="#007aff"/><g clip-path="url(#clip-21)"><path d="M 4.00 0.00 L 56.00 0.00 C 58.21 0.00 60.00 1.79 60.00 4.00 L 60.00 24.00 C 60.00 26.21 58.21 28.00 56.00 28.00 L 4.00 28.00 C 1.79 28.00 0.00 26.21 0.00 24.00 L 0.00 4.00 C 0.00 1.79 1.79 0.00 4.00 0.00" fill-rule="nonzero" transform="matrix(1, 0, 0, 1, 10, 10)" opacity="0.30000001192092896" fill="#ffffff"/></g></g><g transform="matrix(1, 0, 0, 1, 92, 34)"><rect x="0" y="0" width="120" height="44" rx="12" fill="#007aff"/><g clip-path="url(#clip-22)"><path d="M 6.00 0.00 L 94.00 0.00 C 97.31 0.00 100.00 2.69 100.00 6.00 L 100.00 22.00 C 100.00 25.31 97.31 28.00 94.00 28.00 L 6.00 28.00 C 2.69 28.00 0.00 25.31 0.00 22.00 L 0.00 6.00 C 0.00 2.69 2.69 0.00 6.00 0.00" fill-rule="nonzero" transform="matrix(1, 0, 0, 1, 10, 8)" opacity="0.15000000596046448" fill="#ffffff"/></g></g></g></g><g transform="matrix(1, 0, 0, 1, 50, 650)"><path d="M 0.00 0.00 L 200.00 0.00 L 200.00 88.00 L 0.00 88.00 L 0.00 0.00" fill-rule="nonzero" fill="#ffffff"/><g clip-path="url(#clip-27)"><g transform="matrix(1, 0, 0, 1, 10, 10)"><rect x="0" y="0" width="180" height="68" rx="12" fill="#f2f2f7"/><g clip-path="url(#clip-26)"><g transform="matrix(1, 0, 0, 1, 10, 10)"><rect x="0" y="0" width="80" height="48" rx="8" fill="#007aff"/><g clip-path="url(#clip-24)"><path d="M 4.00 0.00 L 56.00 0.00 C 58.21 0.00 60.00 1.79 60.00 4.00 L 60.00 24.00 C 60.00 26.21 58.21 28.00 56.00 28.00 L 4.00 28.00 C 1.79 28.00 0.00 26.21 0.00 24.00 L 0.00 4.00 C 0.00 1.79 1.79 0.00 4.00 0.00" fill-rule="nonzero" transform="matrix(1, 0, 0, 1, 10, 10)" opacity="0.30000001192092896" fill="#ffffff"/></g></g><g transform="matrix(1, 0, 0, 1, 90, 10)"><rect x="0" y="0" width="80" height="48" rx="8" fill="#007aff"/><g clip-path="url(#clip-25)"><path d="M 4.00 0.00 L 56.00 0.00 C 58.21 0.00 60.00 1.79 60.00 4.00 L 60.00 24.00 C 60.00 26.21 58.21 28.00 56.00 28.00 L 4.00 28.00 C 1.79 28.00 0.00 26.21 0.00 24.00 L 0.00 4.00 C 0.00 1.79 1.79 0.00 4.00 0.00" fill-rule="nonzero" transform="matrix(1, 0, 0, 1, 10, 10)" opacity="0.30000001192092896" fill="#ffffff"/></g></g></g></g></g></g><g transform="matrix(1, 0, 0, 1, 280, 650)"><path d="M 0.00 0.00 L 240.00 0.00 L 240.00 128.00 L 0.00 128.00 L 0.00 0.00" fill-rule="nonzero" fill="#ffffff"/><g clip-path="url(#clip-32)"><g transform="matrix(1, 0, 0, 1, 10, 10)"><rect x="0" y="0" width="220" height="108" rx="16" fill="#ffffff"/><g clip-path="url(#clip-31)"><g transform="matrix(1, 0, 0, 1, 20, 10)"><rect x="0" y="0" width="180" height="68" rx="12" fill="#f2f2f7"/><g clip-path="url(#clip-30)"><g transform="matrix(1, 0, 0, 1, 10, 10)"><rect x="0" y="0" width="80" height="48" rx="8" fill="#007aff"/><g clip-path="url(#clip-28)"><path d="M 4.00 0.00 L 56.00 0.00 C 58.21 0.00 60.00 1.79 60.00 4.00 L 60.00 24.00 C 60.00 26.21 58.21 28.00 56.00 28.00 L 4.00 28.00 C 1.79 28.00 0.00 26.21 0.00 24.00 L 0.00 4.00 C 0.00 1.79 1.79 0.00 4.00 0.00" fill-rule="nonzero" transform="matrix(1, 0, 0, 1, 10, 10)" opacity="0.30000001192092896" fill="#ffffff"/></g></g><g transform="matrix(1, 0, 0, 1, 90, 10)"><rect x="0" y="0" width="80" height="48" rx="8" fill="#007aff"/><g clip-path="url(#clip-29)"><path d="M 4.00 0.00 L 56.00 0.00 C 58.21 0.00 60.00 1.79 60.00 4.00 L 60.00 24.00 C 60.00 26.21 58.21 28.00 56.00 28.00 L 4.00 28.00 C 1.79 28.00 0.00 26.21 0.00 24.00 L 0.00 4.00 C 0.00 1.79 1.79 0.00 4.00 0.00" fill-rule="nonzero" transform="matrix(1, 0, 0, 1, 10, 10)" opacity="0.30000001192092896" fill="#ffffff"/></g></g></g></g><path d="M 4.00 0.00 L 176.00 0.00 C 178.21 0.00 180.00 1.79 180.00 4.00 L 180.00 4.00 C 180.00 6.21 178.21 8.00 176.00 8.00 L 4.00 8.00 C 1.79 8.00 0.00 6.21 0.00 4.00 L 0.00 4.00 C 0.00 1.79 1.79 0.00 4.00 0.00" fill-rule="nonzero" transform="matrix(1, 0, 0, 1, 20, 86)" fill="#ff9500"/></g></g></g></g><g transform="matrix(1, 0, 0, 1, 550, 650)"><path d="M 0.00 0.00 L 280.00 0.00 L 280.00 160.00 L 0.00 160.00 L 0.00 0.00" fill-rule="nonzero" fill="#ffffff"/><g clip-path="url(#clip-39)"><g transform="matrix(1, 0, 0, 1, 10, 10)"><rect x="0" y="0" width="260" height="140" rx="20" fill="#f2f2f7"/><g clip-path="url(#clip-38)"><g transform="matrix(1, 0, 0, 1, 20, 16)"><rect x="0" y="0" width="220" height="108" rx="16" fill="#ffffff"/><g clip-path="url(#clip-36)"><g transform="matrix(1, 0, 0, 1, 20, 10)"><rect x="0" y="0" width="180" height="68" rx="12" fill="#f2f2f7"/><g clip-path="url(#clip-35)"><g transform="matrix(1, 0, 0, 1, 10, 10)"><rect x="0" y="0" width="80" height="48" rx="8" fill="#007aff"/><g clip-path="url(#clip-33)"><path d="M 4.00 0.00 L 56.00 0.00 C 58.21 0.00 60.00 1.79 60.00 4.00 L 60.00 24.00 C 60.00 26.21 58.21 28.00 56.00 28.00 L 4.00 28.00 C 1.79 28.00 0.00 26.21 0.00 24.00 L 0.00 4.00 C 0.00 1.79 1.79 0.00 4.00 0.00" fill-rule="nonzero" transform="matrix(1, 0, 0, 1, 10, 10)" opacity="0.30000001192092896" fill="#ffffff"/></g></g><g transform="matrix(1, 0, 0, 1, 90, 10)"><rect x="0" y="0" width="80" height="48" rx="8" fill="#007aff"/><g clip-path="url(#clip-34)"><path d="M 4.00 0.00 L 56.00 0.00 C 58.21 0.00 60.00 1.79 60.00 4.00 L 60.00 24.00 C 60.00 26.21 58.21 28.00 56.00 28.00 L 4.00 28.00 C 1.79 28.00 0.00 26.21 0.00 24.00 L 0.00 4.00 C 0.00 1.79 1.79 0.00 4.00 0.00" fill-rule="nonzero" transform="matrix(1, 0, 0, 1, 10, 10)" opacity="0.30000001192092896" fill="#ffffff"/></g></g></g></g><path d="M 4.00 0.00 L 176.00 0.00 C 178.21 0.00 180.00 1.79 180.00 4.00 L 180.00 4.00 C 180.00 6.21 178.21 8.00 176.00 8.00 L 4.00 8.00 C 1.79 8.00 0.00 6.21 0.00 4.00 L 0.00 4.00 C 0.00 1.79 1.79 0.00 4.00 0.00" fill-rule="nonzero" transform="matrix(1, 0, 0, 1, 20, 86)" fill="#ff9500"/></g></g><g transform="matrix(1, 0, 0, 1, 234, 8)"><rect x="0" y="0" width="18" height="18" rx="9" fill="#ff3b30"/><g clip-path="url(#clip-37)"><ellipse cx="3" cy="3" rx="3" ry="3" transform="matrix(1, 0, 0, 1, 6, 6)" fill="#ffffff"/></g></g></g></g></g></g><g transform="matrix(1, 0, 0, 1, 50, 840)"><path d="M 0.00 0.00 L 320.00 0.00 L 320.00 200.00 L 0.00 200.00 L 0.00 0.00" fill-rule="nonzero" fill="#f2f2f7"/><g clip-path="url(#clip-47)"><g transform="matrix(1, 0, 0, 1, 10, 10)"><rect x="0" y="0" width="300" height="180" rx="24" fill="#ffffff"/><g clip-path="url(#clip-46)"><g transform="matrix(1, 0, 0, 1, 20, 20)"><rect x="0" y="0" width="260" height="140" rx="20" fill="#f2f2f7"/><g clip-path="url(#clip-45)"><g transform="matrix(1, 0, 0, 1, 20, 16)"><rect x="0" y="0" width="220" height="108" rx="16" fill="#ffffff"/><g clip-path="url(#clip-43)"><g transform="matrix(1, 0, 0, 1, 20, 10)"><rect x="0" y="0" width="180" height="68" rx="12" fill="#f2f2f7"/><g clip-path="url(#clip-42)"><g transform="matrix(1, 0, 0, 1, 10, 10)"><rect x="0" y="0" width="80" height="48" rx="8" fill="#007aff"/><g clip-path="url(#clip-40)"><path d="M 4.00 0.00 L 56.00 0.00 C 58.21 0.00 60.00 1.79 60.00 4.00 L 60.00 24.00 C 60.00 26.21 58.21 28.00 56.00 28.00 L 4.00 28.00 C 1.79 28.00 0.00 26.21 0.00 24.00 L 0.00 4.00 C 0.00 1.79 1.79 0.00 4.00 0.00" fill-rule="nonzero" transform="matrix(1, 0, 0, 1, 10, 10)" opacity="0.30000001192092896" fill="#ffffff"/></g></g><g transform="matrix(1, 0, 0, 1, 90, 10)"><rect x="0" y="0" width="80" height="48" rx="8" fill="#007aff"/><g clip-path="url(#clip-41)"><path d="M 4.00 0.00 L 56.00 0.00 C 58.21 0.00 60.00 1.79 60.00 4.00 L 60.00 24.00 C 60.00 26.21 58.21 28.00 56.00 28.00 L 4.00 28.00 C 1.79 28.00 0.00 26.21 0.00 24.00 L 0.00 4.00 C 0.00 1.79 1.79 0.00 4.00 0.00" fill-rule="nonzero" transform="matrix(1, 0, 0, 1, 10, 10)" opacity="0.30000001192092896" fill="#ffffff"/></g></g></g></g><path d="M 4.00 0.00 L 176.00 0.00 C 178.21 0.00 180.00 1.79 180.00 4.00 L 180.00 4.00 C 180.00 6.21 178.21 8.00 176.00 8.00 L 4.00 8.00 C 1.79 8.00 0.00 6.21 0.00 4.00 L 0.00 4.00 C 0.00 1.79 1.79 0.00 4.00 0.00" fill-rule="nonzero" transform="matrix(1, 0, 0, 1, 20, 86)" fill="#ff9500"/></g></g><g transform="matrix(1, 0, 0, 1, 234, 8)"><rect x="0" y="0" width="18" height="18" rx="9" fill="#ff3b30"/><g clip-path="url(#clip-44)"><ellipse cx="3" cy="3" rx="3" ry="3" transform="matrix(1, 0, 0, 1, 6, 6)" fill="#ffffff"/></g></g></g></g><path d="M 22.00 0.00 L 258.00 0.00 C 270.15 0.00 280.00 9.85 280.00 22.00 L 280.00 138.00 C 280.00 150.15 270.15 160.00 258.00 160.00 L 22.00 160.00 C 9.85 160.00 0.00 150.15 0.00 138.00 L 0.00 22.00 C 0.00 9.85 9.85 0.00 22.00 0.00" fill-rule="nonzero" transform="matrix(1, 0, 0, 1, 10, 14)" fill="none" stroke="#c7c7cc" stroke-width="1"/></g></g></g></g><g transform="matrix(1, 0, 0, 1, 400, 840)"><path d="M 0.00 0.00 L 260.00 0.00 L 260.00 160.00 L 0.00 160.00 L 0.00 0.00" fill-rule="nonzero" fill="#f2f2f7"/><g clip-path="url(#clip-55)"><g transform="matrix(1, 0, 0, 1, 10, 10)"><rect x="0" y="0" width="300" height="180" rx="24" fill="#ffffff"/><g clip-path="url(#clip-54)"><g transform="matrix(1, 0, 0, 1, 20, 20)"><rect x="0" y="0" width="260" height="140" rx="20" fill="#f2f2f7"/><g clip-path="url(#clip-53)"><g transform="matrix(1, 0, 0, 1, 20, 16)"><rect x="0" y="0" width="220" height="108" rx="16" fill="#ffffff"/><g clip-path="url(#clip-51)"><g transform="matrix(1, 0, 0, 1, 20, 10)"><rect x="0" y="0" width="180" height="68" rx="12" fill="#f2f2f7"/><g clip-path="url(#clip-50)"><g transform="matrix(1, 0, 0, 1, 10, 10)"><rect x="0" y="0" width="80" height="48" rx="8" fill="#007aff"/><g clip-path="url(#clip-48)"><path d="M 4.00 0.00 L 56.00 0.00 C 58.21 0.00 60.00 1.79 60.00 4.00 L 60.00 24.00 C 60.00 26.21 58.21 28.00 56.00 28.00 L 4.00 28.00 C 1.79 28.00 0.00 26.21 0.00 24.00 L 0.00 4.00 C 0.00 1.79 1.79 0.00 4.00 0.00" fill-rule="nonzero" transform="matrix(1, 0, 0, 1, 10, 10)" opacity="0.30000001192092896" fill="#ffffff"/></g></g><g transform="matrix(1, 0, 0, 1, 90, 10)"><rect x="0" y="0" width="80" height="48" rx="8" fill="#007aff"/><g clip-path="url(#clip-49)"><path d="M 4.00 0.00 L 56.00 0.00 C 58.21 0.00 60.00 1.79 60.00 4.00 L 60.00 24.00 C 60.00 26.21 58.21 28.00 56.00 28.00 L 4.00 28.00 C 1.79 28.00 0.00 26.21 0.00 24.00 L 0.00 4.00 C 0.00 1.79 1.79 0.00 4.00 0.00" fill-rule="nonzero" transform="matrix(1, 0, 0, 1, 10, 10)" opacity="0.30000001192092896" fill="#ffffff"/></g></g></g></g><path d="M 4.00 0.00 L 176.00 0.00 C 178.21 0.00 180.00 1.79 180.00 4.00 L 180.00 4.00 C 180.00 6.21 178.21 8.00 176.00 8.00 L 4.00 8.00 C 1.79 8.00 0.00 6.21 0.00 4.00 L 0.00 4.00 C 0.00 1.79 1.79 0.00 4.00 0.00" fill-rule="nonzero" transform="matrix(1, 0, 0, 1, 20, 86)" fill="#ff9500"/></g></g><g transform="matrix(1, 0, 0, 1, 234, 8)"><rect x="0" y="0" width="18" height="18" rx="9" fill="#ff3b30"/><g clip-path="url(#clip-52)"><ellipse cx="3" cy="3" rx="3" ry="3" transform="matrix(1, 0, 0, 1, 6, 6)" fill="#ffffff"/></g></g></g></g><path d="M 22.00 0.00 L 258.00 0.00 C 270.15 0.00 280.00 9.85 280.00 22.00 L 280.00 138.00 C 280.00 150.15 270.15 160.00 258.00 160.00 L 22.00 160.00 C 9.85 160.00 0.00 150.15 0.00 138.00 L 0.00 22.00 C 0.00 9.85 9.85 0.00 22.00 0.00" fill-rule="nonzero" transform="matrix(1, 0, 0, 1, 10, 14)" fill="none" stroke="#c7c7cc" stroke-width="1"/></g></g></g></g><g transform="matrix(1, 0, 0, 1, 50, 1070)"><path d="M 0.00 0.00 L 180.00 0.00 L 180.00 120.00 L 0.00 120.00 L 0.00 0.00" fill-rule="nonzero" fill="#ffffff"/><g clip-path="url(#clip-59)"><g transform="matrix(1, 0, 0, 1, 10, 10)"><rect x="0" y="0" width="160" height="100" rx="12" fill="#ffffff"/><g clip-path="url(#clip-58)"><g transform="matrix(1, 0, 0, 1, 10, 26)"><rect x="0" y="0" width="80" height="48" rx="8" fill="#007aff"/><g clip-path="url(#clip-56)"><path d="M 4.00 0.00 L 56.00 0.00 C 58.21 0.00 60.00 1.79 60.00 4.00 L 60.00 24.00 C 60.00 26.21 58.21 28.00 56.00 28.00 L 4.00 28.00 C 1.79 28.00 0.00 26.21 0.00 24.00 L 0.00 4.00 C 0.00 1.79 1.79 0.00 4.00 0.00" fill-rule="nonzero" transform="matrix(1, 0, 0, 1, 10, 10)" opacity="0.30000001192092896" fill="#ffffff"/></g></g><g transform="matrix(1, 0, 0, 1, 92, 34)"><rect x="0" y="0" width="120" height="44" rx="12" fill="#007aff"/><g clip-path="url(#clip-57)"><path d="M 6.00 0.00 L 94.00 0.00 C 97.31 0.00 100.00 2.69 100.00 6.00 L 100.00 22.00 C 100.00 25.31 97.31 28.00 94.00 28.00 L 6.00 28.00 C 2.69 28.00 0.00 25.31 0.00 22.00 L 0.00 6.00 C 0.00 2.69 2.69 0.00 6.00 0.00" fill-rule="nonzero" transform="matrix(1, 0, 0, 1, 10, 8)" opacity="0.15000000596046448" fill="#ffffff"/></g></g></g></g></g></g><g transform="matrix(1, 0, 0, 1, 260, 1070)"><path d="M 0.00 0.00 L 280.00 0.00 L 280.00 160.00 L 0.00 160.00 L 0.00 0.00" fill-rule="nonzero" fill="#ffffff"/><g clip-path="url(#clip-66)"><g transform="matrix(1, 0, 0, 1, 10, 10)"><rect x="0" y="0" width="260" height="140" rx="20" fill="#f2f2f7"/><g clip-path="url(#clip-65)"><g transform="matrix(1, 0, 0, 1, 20, 16)"><rect x="0" y="0" width="220" height="108" rx="16" fill="#ffffff"/><g clip-path="url(#clip-63)"><g transform="matrix(1, 0, 0, 1, 20, 10)"><rect x="0" y="0" width="180" height="68" rx="12" fill="#f2f2f7"/><g clip-path="url(#clip-62)"><g transform="matrix(1, 0, 0, 1, 10, 10)"><rect x="0" y="0" width="80" height="48" rx="8" fill="#007aff"/><g clip-path="url(#clip-60)"><path d="M 4.00 0.00 L 56.00 0.00 C 58.21 0.00 60.00 1.79 60.00 4.00 L 60.00 24.00 C 60.00 26.21 58.21 28.00 56.00 28.00 L 4.00 28.00 C 1.79 28.00 0.00 26.21 0.00 24.00 L 0.00 4.00 C 0.00 1.79 1.79 0.00 4.00 0.00" fill-rule="nonzero" transform="matrix(1, 0, 0, 1, 10, 10)" opacity="0.30000001192092896" fill="#ffffff"/></g></g><g transform="matrix(1, 0, 0, 1, 90, 10)"><rect x="0" y="0" width="80" height="48" rx="8" fill="#007aff"/><g clip-path="url(#clip-61)"><path d="M 4.00 0.00 L 56.00 0.00 C 58.21 0.00 60.00 1.79 60.00 4.00 L 60.00 24.00 C 60.00 26.21 58.21 28.00 56.00 28.00 L 4.00 28.00 C 1.79 28.00 0.00 26.21 0.00 24.00 L 0.00 4.00 C 0.00 1.79 1.79 0.00 4.00 0.00" fill-rule="nonzero" transform="matrix(1, 0, 0, 1, 10, 10)" opacity="0.30000001192092896" fill="#ffffff"/></g></g></g></g><path d="M 4.00 0.00 L 176.00 0.00 C 178.21 0.00 180.00 1.79 180.00 4.00 L 180.00 4.00 C 180.00 6.21 178.21 8.00 176.00 8.00 L 4.00 8.00 C 1.79 8.00 0.00 6.21 0.00 4.00 L 0.00 4.00 C 0.00 1.79 1.79 0.00 4.00 0.00" fill-rule="nonzero" transform="matrix(1, 0, 0, 1, 20, 86)" fill="#ff9500"/></g></g><g transform="matrix(1, 0, 0, 1, 234, 8)"><rect x="0" y="0" width="18" height="18" rx="9" fill="#ff3b30"/><g clip-path="url(#clip-64)"><ellipse cx="3" cy="3" rx="3" ry="3" transform="matrix(1, 0, 0, 1, 6, 6)" fill="#ffffff"/></g></g></g></g></g></g><g transform="matrix(1, 0, 0, 1, 570, 1070)"><path d="M 0.00 0.00 L 380.00 0.00 L 380.00 200.00 L 0.00 200.00 L 0.00 0.00" fill-rule="nonzero" fill="#f2f2f7"/><g clip-path="url(#clip-81)"><g transform="matrix(1, 0, 0, 1, 10, 76)"><rect x="0" y="0" width="80" height="48" rx="8" fill="#007aff"/><g clip-path="url(#clip-67)"><path d="M 4.00 0.00 L 56.00 0.00 C 58.21 0.00 60.00 1.79 60.00 4.00 L 60.00 24.00 C 60.00 26.21 58.21 28.00 56.00 28.00 L 4.00 28.00 C 1.79 28.00 0.00 26.21 0.00 24.00 L 0.00 4.00 C 0.00 1.79 1.79 0.00 4.00 0.00" fill-rule="nonzero" transform="matrix(1, 0, 0, 1, 10, 10)" opacity="0.30000001192092896" fill="#ffffff"/></g></g><g transform="matrix(1, 0, 0, 1, 100, 74)"><rect x="0" y="0" width="180" height="68" rx="12" fill="#f2f2f7"/><g clip-path="url(#clip-70)"><g transform="matrix(1, 0, 0, 1, 10, 10)"><rect x="0" y="0" width="80" height="48" rx="8" fill="#007aff"/><g clip-path="url(#clip-68)"><path d="M 4.00 0.00 L 56.00 0.00 C 58.21 0.00 60.00 1.79 60.00 4.00 L 60.00 24.00 C 60.00 26.21 58.21 28.00 56.00 28.00 L 4.00 28.00 C 1.79 28.00 0.00 26.21 0.00 24.00 L 0.00 4.00 C 0.00 1.79 1.79 0.00 4.00 0.00" fill-rule="nonzero" transform="matrix(1, 0, 0, 1, 10, 10)" opacity="0.30000001192092896" fill="#ffffff"/></g></g><g transform="matrix(1, 0, 0, 1, 90, 10)"><rect x="0" y="0" width="80" height="48" rx="8" fill="#007aff"/><g clip-path="url(#clip-69)"><path d="M 4.00 0.00 L 56.00 0.00 C 58.21 0.00 60.00 1.79 60.00 4.00 L 60.00 24.00 C 60.00 26.21 58.21 28.00 56.00 28.00 L 4.00 28.00 C 1.79 28.00 0.00 26.21 0.00 24.00 L 0.00 4.00 C 0.00 1.79 1.79 0.00 4.00 0.00" fill-rule="nonzero" transform="matrix(1, 0, 0, 1, 10, 10)" opacity="0.30000001192092896" fill="#ffffff"/></g></g></g></g><g transform="matrix(1, 0, 0, 1, 250, 71)"><rect x="0" y="0" width="220" height="108" rx="16" fill="#ffffff"/><g clip-path="url(#clip-74)"><g transform="matrix(1, 0, 0, 1, 20, 10)"><rect x="0" y="0" width="180" height="68" rx="12" fill="#f2f2f7"/><g clip-path="url(#clip-73)"><g transform="matrix(1, 0, 0, 1, 10, 10)"><rect x="0" y="0" width="80" height="48" rx="8" fill="#007aff"/><g clip-path="url(#clip-71)"><path d="M 4.00 0.00 L 56.00 0.00 C 58.21 0.00 60.00 1.79 60.00 4.00 L 60.00 24.00 C 60.00 26.21 58.21 28.00 56.00 28.00 L 4.00 28.00 C 1.79 28.00 0.00 26.21 0.00 24.00 L 0.00 4.00 C 0.00 1.79 1.79 0.00 4.00 0.00" fill-rule="nonzero" transform="matrix(1, 0, 0, 1, 10, 10)" opacity="0.30000001192092896" fill="#ffffff"/></g></g><g transform="matrix(1, 0, 0, 1, 90, 10)"><rect x="0" y="0" width="80" height="48" rx="8" fill="#007aff"/><g clip-path="url(#clip-72)"><path d="M 4.00 0.00 L 56.00 0.00 C 58.21 0.00 60.00 1.79 60.00 4.00 L 60.00 24.00 C 60.00 26.21 58.21 28.00 56.00 28.00 L 4.00 28.00 C 1.79 28.00 0.00 26.21 0.00 24.00 L 0.00 4.00 C 0.00 1.79 1.79 0.00 4.00 0.00" fill-rule="nonzero" transform="matrix(1, 0, 0, 1, 10, 10)" opacity="0.30000001192092896" fill="#ffffff"/></g></g></g></g><path d="M 4.00 0.00 L 176.00 0.00 C 178.21 0.00 180.00 1.79 180.00 4.00 L 180.00 4.00 C 180.00 6.21 178.21 8.00 176.00 8.00 L 4.00 8.00 C 1.79 8.00 0.00 6.21 0.00 4.00 L 0.00 4.00 C 0.00 1.79 1.79 0.00 4.00 0.00" fill-rule="nonzero" transform="matrix(1, 0, 0, 1, 20, 86)" fill="#ff9500"/></g></g><g transform="matrix(1, 0, 0, 1, 10, 136)"><rect x="0" y="0" width="260" height="140" rx="20" fill="#f2f2f7"/><g clip-path="url(#clip-80)"><g transform="matrix(1, 0, 0, 1, 20, 16)"><rect x="0" y="0" width="220" height="108" rx="16" fill="#ffffff"/><g clip-path="url(#clip-78)"><g transform="matrix(1, 0, 0, 1, 20, 10)"><rect x="0" y="0" width="180" height="68" rx="12" fill="#f2f2f7"/><g clip-path="url(#clip-77)"><g transform="matrix(1, 0, 0, 1, 10, 10)"><rect x="0" y="0" width="80" height="48" rx="8" fill="#007aff"/><g clip-path="url(#clip-75)"><path d="M 4.00 0.00 L 56.00 0.00 C 58.21 0.00 60.00 1.79 60.00 4.00 L 60.00 24.00 C 60.00 26.21 58.21 28.00 56.00 28.00 L 4.00 28.00 C 1.79 28.00 0.00 26.21 0.00 24.00 L 0.00 4.00 C 0.00 1.79 1.79 0.00 4.00 0.00" fill-rule="nonzero" transform="matrix(1, 0, 0, 1, 10, 10)" opacity="0.30000001192092896" fill="#ffffff"/></g></g><g transform="matrix(1, 0, 0, 1, 90, 10)"><rect x="0" y="0" width="80" height="48" rx="8" fill="#007aff"/><g clip-path="url(#clip-76)"><path d="M 4.00 0.00 L 56.00 0.00 C 58.21 0.00 60.00 1.79 60.00 4.00 L 60.00 24.00 C 60.00 26.21 58.21 28.00 56.00 28.00 L 4.00 28.00 C 1.79 28.00 0.00 26.21 0.00 24.00 L 0.00 4.00 C 0.00 1.79 1.79 0.00 4.00 0.00" fill-rule="nonzero" transform="matrix(1, 0, 0, 1, 10, 10)" opacity="0.30000001192092896" fill="#ffffff"/></g></g></g></g><path d="M 4.00 0.00 L 176.00 0.00 C 178.21 0.00 180.00 1.79 180.00 4.00 L 180.00 4.00 C 180.00 6.21 178.21 8.00 176.00 8.00 L 4.00 8.00 C 1.79 8.00 0.00 6.21 0.00 4.00 L 0.00 4.00 C 0.00 1.79 1.79 0.00 4.00 0.00" fill-rule="nonzero" transform="matrix(1, 0, 0, 1, 20, 86)" fill="#ff9500"/></g></g><g transform="matrix(1, 0, 0, 1, 234, 8)"><rect x="0" y="0" width="18" height="18" rx="9" fill="#ff3b30"/><g clip-path="url(#clip-79)"><ellipse cx="3" cy="3" rx="3" ry="3" transform="matrix(1, 0, 0, 1, 6, 6)" fill="#ffffff"/></g></g></g></g></g></g><g transform="matrix(1, 0, 0, 1, 1800, 0)"><rect x="0" y="0" width="120" height="80" rx="12" fill="#ffffff"/><g clip-path="url(#clip-83)"><g filter="url(#shadow-82)"><path d="M 8.00 0.00 L 92.00 0.00 C 96.42 0.00 100.00 3.58 100.00 8.00 L 100.00 52.00 C 100.00 56.42 96.42 60.00 92.00 60.00 L 8.00 60.00 C 3.58 60.00 0.00 56.42 0.00 52.00 L 0.00 8.00 C 0.00 3.58 3.58 0.00 8.00 0.00" fill-rule="nonzero" transform="matrix(1, 0, 0, 1, 10, 10)" fill="#007aff"/></g></g></g><g transform="matrix(1, 0, 0, 1, 50, 1300)"><path d="M 0.00 0.00 L 140.00 0.00 L 140.00 100.00 L 0.00 100.00 L 0.00 0.00" fill-rule="nonzero" fill="#ffffff"/><g clip-path="url(#clip-86)"><g transform="matrix(1, 0, 0, 1, 10, 10)"><rect x="0" y="0" width="120" height="80" rx="12" fill="#ffffff"/><g clip-path="url(#clip-85)"><g filter="url(#shadow-84)"><path d="M 8.00 0.00 L 92.00 0.00 C 96.42 0.00 100.00 3.58 100.00 8.00 L 100.00 52.00 C 100.00 56.42 96.42 60.00 92.00 60.00 L 8.00 60.00 C 3.58 60.00 0.00 56.42 0.00 52.00 L 0.00 8.00 C 0.00 3.58 3.58 0.00 8.00 0.00" fill-rule="nonzero" transform="matrix(1, 0, 0, 1, 10, 10)" fill="#007aff"/></g></g></g></g></g><g transform="matrix(1, 0, 0, 1, 220, 1300)"><path d="M 0.00 0.00 L 280.00 0.00 L 280.00 100.00 L 0.00 100.00 L 0.00 0.00" fill-rule="nonzero" fill="#ffffff"/><g clip-path="url(#clip-93)"><g transform="matrix(1, 0, 0, 1, 10, 22)"><rect x="0" y="0" width="180" height="68" rx="12" fill="#f2f2f7"/><g clip-path="url(#clip-89)"><g transform="matrix(1, 0, 0, 1, 10, 10)"><rect x="0" y="0" width="80" height="48" rx="8" fill="#007aff"/><g clip-path="url(#clip-87)"><path d="M 4.00 0.00 L 56.00 0.00 C 58.21 0.00 60.00 1.79 60.00 4.00 L 60.00 24.00 C 60.00 26.21 58.21 28.00 56.00 28.00 L 4.00 28.00 C 1.79 28.00 0.00 26.21 0.00 24.00 L 0.00 4.00 C 0.00 1.79 1.79 0.00 4.00 0.00" fill-rule="nonzero" transform="matrix(1, 0, 0, 1, 10, 10)" opacity="0.30000001192092896" fill="#ffffff"/></g></g><g transform="matrix(1, 0, 0, 1, 90, 10)"><rect x="0" y="0" width="80" height="48" rx="8" fill="#007aff"/><g clip-path="url(#clip-88)"><path d="M 4.00 0.00 L 56.00 0.00 C 58.21 0.00 60.00 1.79 60.00 4.00 L 60.00 24.00 C 60.00 26.21 58.21 28.00 56.00 28.00 L 4.00 28.00 C 1.79 28.00 0.00 26.21 0.00 24.00 L 0.00 4.00 C 0.00 1.79 1.79 0.00 4.00 0.00" fill-rule="nonzero" transform="matrix(1, 0, 0, 1, 10, 10)" opacity="0.30000001192092896" fill="#ffffff"/></g></g></g></g><g transform="matrix(1, 0, 0, 1, 150, 22)"><rect x="0" y="0" width="180" height="68" rx="12" fill="#f2f2f7"/><g clip-path="url(#clip-92)"><g transform="matrix(1, 0, 0, 1, 10, 10)"><rect x="0" y="0" width="80" height="48" rx="8" fill="#007aff"/><g clip-path="url(#clip-90)"><path d="M 4.00 0.00 L 56.00 0.00 C 58.21 0.00 60.00 1.79 60.00 4.00 L 60.00 24.00 C 60.00 26.21 58.21 28.00 56.00 28.00 L 4.00 28.00 C 1.79 28.00 0.00 26.21 0.00 24.00 L 0.00 4.00 C 0.00 1.79 1.79 0.00 4.00 0.00" fill-rule="nonzero" transform="matrix(1, 0, 0, 1, 10, 10)" opacity="0.30000001192092896" fill="#ffffff"/></g></g><g transform="matrix(1, 0, 0, 1, 90, 10)"><rect x="0" y="0" width="80" height="48" rx="8" fill="#007aff"/><g clip-path="url(#clip-91)"><path d="M 4.00 0.00 L 56.00 0.00 C 58.21 0.00 60.00 1.79 60.00 4.00 L 60.00 24.00 C 60.00 26.21 58.21 28.00 56.00 28.00 L 4.00 28.00 C 1.79 28.00 0.00 26.21 0.00 24.00 L 0.00 4.00 C 0.00 1.79 1.79 0.00 4.00 0.00" fill-rule="nonzero" transform="matrix(1, 0, 0, 1, 10, 10)" opacity="0.30000001192092896" fill="#ffffff"/></g></g></g></g></g></g></svg>