<svg xmlns="http://www.w3.org/2000/svg" width="220" height="160" viewBox="0 0 220 160"><g><defs><clipPath id="clip-g5-1"><rect x="0" y="0" width="220" height="160"/></clipPath></defs><g clip-path="url(#clip-g5-1)"><rect x="0" y="0" width="220" height="160" fill="#f2f2f7"/><g transform="matrix(1,0,0,1,10,10)"><defs><clipPath id="clip-g5-0"><path d="M 24 0 L 176 0 C 189.25483399593904 0 200 10.745166004060959 200 24 L 200 116 C 200 129.25483399593904 189.25483399593904 140 176 140 L 24 140 C 10.745166004060959 140 0 129.25483399593904 0 116 L 0 24 C 0 10.745166004060959 10.745166004060959 0 24 0 Z"/></clipPath></defs><g clip-path="url(#clip-g5-0)"><path d="M 24 0 L 176 0 C 189.25483399593904 0 200 10.745166004060959 200 24 L 200 116 C 200 129.25483399593904 189.25483399593904 140 176 140 L 24 140 C 10.745166004060959 140 0 129.25483399593904 0 116 L 0 24 C 0 10.745166004060959 10.745166004060959 0 24 0 Z" fill="#ffffff"/><rect x="0" y="0" width="60" height="40" fill="#ff3b30"/><g transform="matrix(1,0,0,1,140,0)"><rect x="0" y="0" width="60" height="40" fill="#34c759"/></g><g transform="matrix(1,0,0,1,0,100)"><rect x="0" y="0" width="60" height="40" fill="#007aff"/></g><g transform="matrix(1,0,0,1,140,100)"><rect x="0" y="0" width="60" height="40" fill="#ff9500"/></g><g transform="matrix(1,0,0,1,60,40)"><ellipse cx="40" cy="30" rx="40" ry="30" fill="#af52de"/></g></g></g></g></g></svg>