<svg xmlns="http://www.w3.org/2000/svg" width="1200" height="800" viewBox="0 0 1200 800"><defs><clipPath id="clip-0"><rect x="0" y="0" width="300" height="50" fill="black"/></clipPath><clipPath id="clip-1"><rect x="0" y="0" width="300" height="50" fill="black"/></clipPath><clipPath id="clip-2"><rect x="0" y="0" width="300" height="50" fill="black"/></clipPath><clipPath id="clip-3"><rect x="0" y="0" width="300" height="50" fill="black"/></clipPath><clipPath id="clip-4"><rect x="0" y="0" width="300" height="50" fill="black"/></clipPath><clipPath id="clip-5"><rect x="0" y="0" width="300" height="50" fill="black"/></clipPath><clipPath id="clip-6"><rect x="0" y="0" width="300" height="50" fill="black"/></clipPath><clipPath id="clip-7"><rect x="0" y="0" width="300" height="50" fill="black"/></clipPath></defs><g><rect x="0" y="0" width="300" height="50" fill="#ffffff"/><g clip-path="url(#clip-0)"><text x="0" y="14" fill="#000000" font-family="Inter" font-size="14" font-weight="400" letter-spacing="-1.4000000000000001">LETTER SPACING</text></g></g><g transform="matrix(1, 0, 0, 1, 0, 65)"><rect x="0" y="0" width="300" height="50" fill="#ffffff"/><g clip-path="url(#clip-1)"><text x="0" y="14" fill="#000000" font-family="Inter" font-size="14" font-weight="400" letter-spacing="-0.7000000000000001">LETTER SPACING</text></g></g><g transform="matrix(1, 0, 0, 1, 0, 130)"><rect x="0" y="0" width="300" height="50" fill="#ffffff"/><g clip-path="url(#clip-2)"><text x="0" y="14" fill="#000000" font-family="Inter" font-size="14" font-weight="400">LETTER SPACING</text></g></g><g transform="matrix(1, 0, 0, 1, 0, 195)"><rect x="0" y="0" width="300" height="50" fill="#ffffff"/><g clip-path="url(#clip-3)"><text x="0" y="14" fill="#000000" font-family="Inter" font-size="14" font-weight="400" letter-spacing="0.7000000000000001">LETTER SPACING</text></g></g><g transform="matrix(1, 0, 0, 1, 0, 260)"><rect x="0" y="0" width="300" height="50" fill="#ffffff"/><g clip-path="url(#clip-4)"><text x="0" y="14" fill="#000000" font-family="Inter" font-size="14" font-weight="400" letter-spacing="1.4000000000000001">LETTER SPACING</text></g></g><g transform="matrix(1, 0, 0, 1, 0, 325)"><rect x="0" y="0" width="300" height="50" fill="#ffffff"/><g clip-path="url(#clip-5)"><text x="0" y="14" fill="#000000" font-family="Inter" font-size="14" font-weight="400" letter-spacing="2.8000000000000003">LETTER SPACING</text></g></g><g transform="matrix(1, 0, 0, 1, 0, 390)"><rect x="0" y="0" width="300" height="50" fill="#ffffff"/><g clip-path="url(#clip-6)"><text x="0" y="14" fill="#000000" font-family="Inter" font-size="14" font-weight="400" letter-spacing="7">LETTER SPACING</text></g></g><g transform="matrix(1, 0, 0, 1, 0, 455)"><rect x="0" y="0" width="300" height="50" fill="#ffffff"/><g clip-path="url(#clip-7)"><text x="0" y="14" fill="#000000" font-family="Inter" font-size="14" font-weight="400" letter-spacing="14">LETTER SPACING</text></g></g></svg>