<svg xmlns="http://www.w3.org/2000/svg" width="1200" height="800" viewBox="0 0 1200 800"><defs><clipPath id="clip-0"><rect x="0" y="0" width="200" height="50" fill="black"/></clipPath><clipPath id="clip-1"><rect x="0" y="0" width="200" height="50" fill="black"/></clipPath><clipPath id="clip-2"><rect x="0" y="0" width="200" height="50" fill="black"/></clipPath><clipPath id="clip-3"><rect x="0" y="0" width="200" height="50" fill="black"/></clipPath><clipPath id="clip-4"><rect x="0" y="0" width="200" height="50" fill="black"/></clipPath><clipPath id="clip-5"><rect x="0" y="0" width="200" height="50" fill="black"/></clipPath><clipPath id="clip-6"><rect x="0" y="0" width="200" height="50" fill="black"/></clipPath><clipPath id="clip-7"><rect x="0" y="0" width="200" height="50" fill="black"/></clipPath><clipPath id="clip-8"><rect x="0" y="0" width="200" height="50" fill="black"/></clipPath><clipPath id="clip-9"><rect x="0" y="0" width="200" height="50" fill="black"/></clipPath><clipPath id="clip-10"><rect x="0" y="0" width="200" height="50" fill="black"/></clipPath><clipPath id="clip-11"><rect x="0" y="0" width="200" height="50" fill="black"/></clipPath></defs><g><rect x="0" y="0" width="200" height="50" fill="#ffffff"/><g clip-path="url(#clip-0)"><text x="0" y="12" fill="#000000" font-family="Inter" font-size="12" font-weight="400">NONE text</text></g></g><g transform="matrix(1, 0, 0, 1, 0, 70)"><rect x="0" y="0" width="200" height="50" fill="#ffffff"/><g clip-path="url(#clip-1)"><text x="0" y="16" fill="#000000" font-family="Inter" font-size="16" font-weight="400">NONE text</text></g></g><g transform="matrix(1, 0, 0, 1, 0, 140)"><rect x="0" y="0" width="200" height="50" fill="#ffffff"/><g clip-path="url(#clip-2)"><text x="0" y="24" fill="#000000" font-family="Inter" font-size="24" font-weight="400">NONE text</text></g></g><g transform="matrix(1, 0, 0, 1, 0, 210)"><rect x="0" y="0" width="200" height="50" fill="#ffffff"/><g clip-path="url(#clip-3)"><text x="0" y="32" fill="#000000" font-family="Inter" font-size="32" font-weight="400">NONE text</text></g></g><g transform="matrix(1, 0, 0, 1, 220, 0)"><rect x="0" y="0" width="200" height="50" fill="#ffffff"/><g clip-path="url(#clip-4)"><text x="0" y="12" fill="#000000" font-family="Inter" font-size="12" font-weight="400">UNDERLINE text</text></g></g><g transform="matrix(1, 0, 0, 1, 220, 70)"><rect x="0" y="0" width="200" height="50" fill="#ffffff"/><g clip-path="url(#clip-5)"><text x="0" y="16" fill="#000000" font-family="Inter" font-size="16" font-weight="400">UNDERLINE text</text></g></g><g transform="matrix(1, 0, 0, 1, 220, 140)"><rect x="0" y="0" width="200" height="50" fill="#ffffff"/><g clip-path="url(#clip-6)"><text x="0" y="24" fill="#000000" font-family="Inter" font-size="24" font-weight="400">UNDERLINE text</text></g></g><g transform="matrix(1, 0, 0, 1, 220, 210)"><rect x="0" y="0" width="200" height="50" fill="#ffffff"/><g clip-path="url(#clip-7)"><text x="0" y="32" fill="#000000" font-family="Inter" font-size="32" font-weight="400">UNDERLINE text</text></g></g><g transform="matrix(1, 0, 0, 1, 440, 0)"><rect x="0" y="0" width="200" height="50" fill="#ffffff"/><g clip-path="url(#clip-8)"><text x="0" y="12" fill="#000000" font-family="Inter" font-size="12" font-weight="400">STRIKETHROUGH text</text></g></g><g transform="matrix(1, 0, 0, 1, 440, 70)"><rect x="0" y="0" width="200" height="50" fill="#ffffff"/><g clip-path="url(#clip-9)"><text x="0" y="16" fill="#000000" font-family="Inter" font-size="16" font-weight="400">STRIKETHROUGH text</text></g></g><g transform="matrix(1, 0, 0, 1, 440, 140)"><rect x="0" y="0" width="200" height="50" fill="#ffffff"/><g clip-path="url(#clip-10)"><text x="0" y="24" fill="#000000" font-family="Inter" font-size="24" font-weight="400">STRIKETHROUGH text</text></g></g><g transform="matrix(1, 0, 0, 1, 440, 210)"><rect x="0" y="0" width="200" height="50" fill="#ffffff"/><g clip-path="url(#clip-11)"><text x="0" y="32" fill="#000000" font-family="Inter" font-size="32" font-weight="400">STRIKETHROUGH text</text></g></g></svg>