<svg width="720" height="212" viewBox="0 0 720 212" fill="none" xmlns="http://www.w3.org/2000/svg">
<rect width="720" height="212" fill="#F7F7F7"/>
<path d="M25.4091 32V20.3636H32.3864V21.6136H26.8182V25.5455H31.8636V26.7955H26.8182V32H25.4091ZM34.6179 32V23.2727H35.9588V32H34.6179ZM35.2997 21.8182C35.0384 21.8182 34.813 21.7292 34.6236 21.5511C34.438 21.3731 34.3452 21.1591 34.3452 20.9091C34.3452 20.6591 34.438 20.4451 34.6236 20.267C34.813 20.089 35.0384 20 35.2997 20C35.5611 20 35.7846 20.089 35.9702 20.267C36.1596 20.4451 36.2543 20.6591 36.2543 20.9091C36.2543 21.1591 36.1596 21.3731 35.9702 21.5511C35.7846 21.7292 35.5611 21.8182 35.2997 21.8182ZM39.4148 23.2727L41.5057 26.8409L43.5966 23.2727H45.142L42.3239 27.6364L45.142 32H43.5966L41.5057 28.6136L39.4148 32H37.8693L40.642 27.6364L37.8693 23.2727H39.4148ZM50.3551 32.1818C49.5142 32.1818 48.7888 31.9962 48.179 31.625C47.5729 31.25 47.1051 30.7273 46.7756 30.0568C46.4498 29.3826 46.2869 28.5985 46.2869 27.7045C46.2869 26.8106 46.4498 26.0227 46.7756 25.3409C47.1051 24.6553 47.5634 24.1212 48.1506 23.7386C48.7415 23.3523 49.4309 23.1591 50.2188 23.1591C50.6733 23.1591 51.1222 23.2348 51.5653 23.3864C52.0085 23.5379 52.4119 23.7841 52.7756 24.125C53.1392 24.4621 53.429 24.9091 53.6449 25.4659C53.8608 26.0227 53.9688 26.7083 53.9688 27.5227V28.0909H47.2415V26.9318H52.6051C52.6051 26.4394 52.5066 26 52.3097 25.6136C52.1165 25.2273 51.84 24.9223 51.4801 24.6989C51.1241 24.4754 50.7036 24.3636 50.2188 24.3636C49.6847 24.3636 49.2225 24.4962 48.8324 24.7614C48.446 25.0227 48.1487 25.3636 47.9403 25.7841C47.732 26.2045 47.6278 26.6553 47.6278 27.1364V27.9091C47.6278 28.5682 47.7415 29.1269 47.9688 29.5852C48.1998 30.0398 48.5199 30.3864 48.929 30.625C49.3381 30.8598 49.8134 30.9773 50.3551 30.9773C50.7074 30.9773 51.0256 30.928 51.3097 30.8295C51.5975 30.7273 51.8456 30.5758 52.054 30.375C52.2623 30.1705 52.4233 29.9167 52.5369 29.6136L53.8324 29.9773C53.696 30.4167 53.4669 30.803 53.1449 31.1364C52.8229 31.4659 52.4252 31.7235 51.9517 31.9091C51.4782 32.0909 50.946 32.1818 50.3551 32.1818ZM59.304 32.1818C58.5767 32.1818 57.9347 31.9981 57.3778 31.6307C56.821 31.2595 56.3854 30.7367 56.071 30.0625C55.7566 29.3845 55.5994 28.5833 55.5994 27.6591C55.5994 26.7424 55.7566 25.947 56.071 25.2727C56.3854 24.5985 56.8229 24.0777 57.3835 23.7102C57.9441 23.3428 58.5919 23.1591 59.3267 23.1591C59.8949 23.1591 60.3438 23.2538 60.6733 23.4432C61.0066 23.6288 61.2604 23.8409 61.4347 24.0795C61.6127 24.3144 61.7509 24.5076 61.8494 24.6591H61.9631V20.3636H63.304V32H62.0085V30.6591H61.8494C61.7509 30.8182 61.6108 31.0189 61.429 31.2614C61.2472 31.5 60.9877 31.714 60.6506 31.9034C60.3134 32.089 59.8646 32.1818 59.304 32.1818ZM59.4858 30.9773C60.0237 30.9773 60.4782 30.8371 60.8494 30.5568C61.2206 30.2727 61.5028 29.8807 61.696 29.3807C61.8892 28.8769 61.9858 28.2955 61.9858 27.6364C61.9858 26.9848 61.8911 26.4148 61.7017 25.9261C61.5123 25.4337 61.232 25.0511 60.8608 24.7784C60.4896 24.5019 60.0313 24.3636 59.4858 24.3636C58.9176 24.3636 58.4441 24.5095 58.0653 24.8011C57.6903 25.089 57.4081 25.4811 57.2188 25.9773C57.0331 26.4697 56.9403 27.0227 56.9403 27.6364C56.9403 28.2576 57.035 28.822 57.2244 29.3295C57.4176 29.8333 57.7017 30.2348 58.0767 30.5341C58.4555 30.8295 58.9252 30.9773 59.4858 30.9773ZM76.6278 25.2273L75.4233 25.5682C75.3475 25.3674 75.2358 25.1723 75.0881 24.983C74.9441 24.7898 74.7472 24.6307 74.4972 24.5057C74.2472 24.3807 73.9271 24.3182 73.5369 24.3182C73.0028 24.3182 72.5578 24.4413 72.2017 24.6875C71.8494 24.9299 71.6733 25.2386 71.6733 25.6136C71.6733 25.947 71.7945 26.2102 72.0369 26.4034C72.2794 26.5966 72.6581 26.7576 73.1733 26.8864L74.4688 27.2045C75.2491 27.3939 75.8305 27.6837 76.2131 28.0739C76.5956 28.4602 76.7869 28.9583 76.7869 29.5682C76.7869 30.0682 76.643 30.5152 76.3551 30.9091C76.071 31.303 75.6733 31.6136 75.1619 31.8409C74.6506 32.0682 74.0559 32.1818 73.3778 32.1818C72.4877 32.1818 71.7509 31.9886 71.1676 31.6023C70.5843 31.2159 70.215 30.6515 70.0597 29.9091L71.3324 29.5909C71.4536 30.0606 71.6828 30.4129 72.0199 30.6477C72.3608 30.8826 72.8059 31 73.3551 31C73.9801 31 74.4763 30.8674 74.8438 30.6023C75.215 30.3333 75.4006 30.0114 75.4006 29.6364C75.4006 29.3333 75.2945 29.0795 75.0824 28.875C74.8703 28.6667 74.5445 28.5114 74.1051 28.4091L72.6506 28.0682C71.8513 27.8788 71.2642 27.5852 70.8892 27.1875C70.518 26.786 70.3324 26.2841 70.3324 25.6818C70.3324 25.1894 70.4706 24.7538 70.7472 24.375C71.0275 23.9962 71.4081 23.6989 71.8892 23.483C72.3741 23.267 72.9233 23.1591 73.5369 23.1591C74.4006 23.1591 75.0786 23.3485 75.571 23.7273C76.0672 24.1061 76.4195 24.6061 76.6278 25.2273ZM78.8054 32V23.2727H80.1463V32H78.8054ZM79.4872 21.8182C79.2259 21.8182 79.0005 21.7292 78.8111 21.5511C78.6255 21.3731 78.5327 21.1591 78.5327 20.9091C78.5327 20.6591 78.6255 20.4451 78.8111 20.267C79.0005 20.089 79.2259 20 79.4872 20C79.7486 20 79.9721 20.089 80.1577 20.267C80.3471 20.4451 80.4418 20.6591 80.4418 20.9091C80.4418 21.1591 80.3471 21.3731 80.1577 21.5511C79.9721 21.7292 79.7486 21.8182 79.4872 21.8182ZM82.3523 32V30.9773L87.3068 24.6136V24.5227H82.5114V23.2727H89.0341V24.3409L84.2159 30.6591V30.75H89.1932V32H82.3523ZM94.6676 32.1818C93.8267 32.1818 93.1013 31.9962 92.4915 31.625C91.8854 31.25 91.4176 30.7273 91.0881 30.0568C90.7623 29.3826 90.5994 28.5985 90.5994 27.7045C90.5994 26.8106 90.7623 26.0227 91.0881 25.3409C91.4176 24.6553 91.8759 24.1212 92.4631 23.7386C93.054 23.3523 93.7434 23.1591 94.5312 23.1591C94.9858 23.1591 95.4347 23.2348 95.8778 23.3864C96.321 23.5379 96.7244 23.7841 97.0881 24.125C97.4517 24.4621 97.7415 24.9091 97.9574 25.4659C98.1733 26.0227 98.2812 26.7083 98.2812 27.5227V28.0909H91.554V26.9318H96.9176C96.9176 26.4394 96.8191 26 96.6222 25.6136C96.429 25.2273 96.1525 24.9223 95.7926 24.6989C95.4366 24.4754 95.0161 24.3636 94.5312 24.3636C93.9972 24.3636 93.535 24.4962 93.1449 24.7614C92.7585 25.0227 92.4612 25.3636 92.2528 25.7841C92.0445 26.2045 91.9403 26.6553 91.9403 27.1364V27.9091C91.9403 28.5682 92.054 29.1269 92.2812 29.5852C92.5123 30.0398 92.8324 30.3864 93.2415 30.625C93.6506 30.8598 94.1259 30.9773 94.6676 30.9773C95.0199 30.9773 95.3381 30.928 95.6222 30.8295C95.91 30.7273 96.1581 30.5758 96.3665 30.375C96.5748 30.1705 96.7358 29.9167 96.8494 29.6136L98.1449 29.9773C98.0085 30.4167 97.7794 30.803 97.4574 31.1364C97.1354 31.4659 96.7377 31.7235 96.2642 31.9091C95.7907 32.0909 95.2585 32.1818 94.6676 32.1818ZM105.003 32V20.3636H106.344V24.6591H106.457C106.556 24.5076 106.692 24.3144 106.866 24.0795C107.045 23.8409 107.298 23.6288 107.628 23.4432C107.961 23.2538 108.412 23.1591 108.98 23.1591C109.715 23.1591 110.363 23.3428 110.923 23.7102C111.484 24.0777 111.921 24.5985 112.236 25.2727C112.55 25.947 112.707 26.7424 112.707 27.6591C112.707 28.5833 112.55 29.3845 112.236 30.0625C111.921 30.7367 111.486 31.2595 110.929 31.6307C110.372 31.9981 109.73 32.1818 109.003 32.1818C108.442 32.1818 107.993 32.089 107.656 31.9034C107.319 31.714 107.06 31.5 106.878 31.2614C106.696 31.0189 106.556 30.8182 106.457 30.6591H106.298V32H105.003ZM106.321 27.6364C106.321 28.2955 106.418 28.8769 106.611 29.3807C106.804 29.8807 107.086 30.2727 107.457 30.5568C107.829 30.8371 108.283 30.9773 108.821 30.9773C109.382 30.9773 109.849 30.8295 110.224 30.5341C110.603 30.2348 110.887 29.8333 111.077 29.3295C111.27 28.822 111.366 28.2576 111.366 27.6364C111.366 27.0227 111.272 26.4697 111.082 25.9773C110.897 25.4811 110.615 25.089 110.236 24.8011C109.861 24.5095 109.389 24.3636 108.821 24.3636C108.276 24.3636 107.817 24.5019 107.446 24.7784C107.075 25.0511 106.795 25.4337 106.605 25.9261C106.416 26.4148 106.321 26.9848 106.321 27.6364ZM118.304 32.1818C117.516 32.1818 116.825 31.9943 116.23 31.6193C115.639 31.2443 115.177 30.7197 114.844 30.0455C114.514 29.3712 114.349 28.5833 114.349 27.6818C114.349 26.7727 114.514 25.9792 114.844 25.3011C115.177 24.6231 115.639 24.0966 116.23 23.7216C116.825 23.3466 117.516 23.1591 118.304 23.1591C119.092 23.1591 119.781 23.3466 120.372 23.7216C120.967 24.0966 121.429 24.6231 121.759 25.3011C122.092 25.9792 122.259 26.7727 122.259 27.6818C122.259 28.5833 122.092 29.3712 121.759 30.0455C121.429 30.7197 120.967 31.2443 120.372 31.6193C119.781 31.9943 119.092 32.1818 118.304 32.1818ZM118.304 30.9773C118.902 30.9773 119.395 30.8239 119.781 30.517C120.168 30.2102 120.454 29.8068 120.639 29.3068C120.825 28.8068 120.918 28.2652 120.918 27.6818C120.918 27.0985 120.825 26.5549 120.639 26.0511C120.454 25.5473 120.168 25.1402 119.781 24.8295C119.395 24.5189 118.902 24.3636 118.304 24.3636C117.705 24.3636 117.213 24.5189 116.827 24.8295C116.44 25.1402 116.154 25.5473 115.969 26.0511C115.783 26.5549 115.69 27.0985 115.69 27.6818C115.69 28.2652 115.783 28.8068 115.969 29.3068C116.154 29.8068 116.44 30.2102 116.827 30.517C117.213 30.8239 117.705 30.9773 118.304 30.9773ZM124.946 23.2727L127.037 26.8409L129.128 23.2727H130.673L127.855 27.6364L130.673 32H129.128L127.037 28.6136L124.946 32H123.401L126.173 27.6364L123.401 23.2727H124.946Z" fill="#1A1A1A"/>
<path d="M25.8864 92H24.4091L28.6818 80.3636H30.1364L34.4091 92H32.9318L29.4545 82.2045H29.3636L25.8864 92ZM26.4318 87.4545H32.3864V88.7045H26.4318V87.4545ZM41.5398 88.4318V83.2727H42.8807V92H41.5398V90.5227H41.4489C41.2443 90.9659 40.9261 91.3428 40.4943 91.6534C40.0625 91.9602 39.517 92.1136 38.858 92.1136C38.3125 92.1136 37.8277 91.9943 37.4034 91.7557C36.9792 91.5133 36.6458 91.1496 36.4034 90.6648C36.161 90.1761 36.0398 89.5606 36.0398 88.8182V83.2727H37.3807V88.7273C37.3807 89.3636 37.5587 89.8712 37.9148 90.25C38.2746 90.6288 38.733 90.8182 39.2898 90.8182C39.6231 90.8182 39.9621 90.733 40.3068 90.5625C40.6553 90.392 40.947 90.1307 41.1818 89.7784C41.4205 89.4261 41.5398 88.9773 41.5398 88.4318ZM49.1321 83.2727V84.4091H44.6094V83.2727H49.1321ZM45.9276 81.1818H47.2685V89.5C47.2685 89.8788 47.3234 90.1629 47.4332 90.3523C47.5469 90.5379 47.6908 90.6629 47.8651 90.7273C48.0431 90.7879 48.2306 90.8182 48.4276 90.8182C48.5753 90.8182 48.6965 90.8106 48.7912 90.7955C48.8859 90.7765 48.9616 90.7614 49.0185 90.75L49.2912 91.9545C49.2003 91.9886 49.0734 92.0227 48.9105 92.0568C48.7476 92.0947 48.5412 92.1136 48.2912 92.1136C47.9124 92.1136 47.5412 92.0322 47.1776 91.8693C46.8177 91.7064 46.5185 91.4583 46.2798 91.125C46.045 90.7917 45.9276 90.3712 45.9276 89.8636V81.1818ZM54.6009 92.1818C53.813 92.1818 53.1217 91.9943 52.527 91.6193C51.9361 91.2443 51.474 90.7197 51.1406 90.0455C50.8111 89.3712 50.6463 88.5833 50.6463 87.6818C50.6463 86.7727 50.8111 85.9792 51.1406 85.3011C51.474 84.6231 51.9361 84.0966 52.527 83.7216C53.1217 83.3466 53.813 83.1591 54.6009 83.1591C55.3887 83.1591 56.0781 83.3466 56.669 83.7216C57.2637 84.0966 57.7259 84.6231 58.0554 85.3011C58.3887 85.9792 58.5554 86.7727 58.5554 87.6818C58.5554 88.5833 58.3887 89.3712 58.0554 90.0455C57.7259 90.7197 57.2637 91.2443 56.669 91.6193C56.0781 91.9943 55.3887 92.1818 54.6009 92.1818ZM54.6009 90.9773C55.1993 90.9773 55.6918 90.8239 56.0781 90.517C56.4645 90.2102 56.7505 89.8068 56.9361 89.3068C57.1217 88.8068 57.2145 88.2652 57.2145 87.6818C57.2145 87.0985 57.1217 86.5549 56.9361 86.0511C56.7505 85.5473 56.4645 85.1402 56.0781 84.8295C55.6918 84.5189 55.1993 84.3636 54.6009 84.3636C54.0024 84.3636 53.5099 84.5189 53.1236 84.8295C52.7372 85.1402 52.4512 85.5473 52.2656 86.0511C52.08 86.5549 51.9872 87.0985 51.9872 87.6818C51.9872 88.2652 52.08 88.8068 52.2656 89.3068C52.4512 89.8068 52.7372 90.2102 53.1236 90.517C53.5099 90.8239 54.0024 90.9773 54.6009 90.9773ZM67.0795 92L64.4205 83.2727H65.8295L67.7159 89.9545H67.8068L69.6705 83.2727H71.1023L72.9432 89.9318H73.0341L74.9205 83.2727H76.3295L73.6705 92H72.3523L70.4432 85.2955H70.3068L68.3977 92H67.0795ZM78.1023 92V83.2727H79.4432V92H78.1023ZM78.7841 81.8182C78.5227 81.8182 78.2973 81.7292 78.108 81.5511C77.9223 81.3731 77.8295 81.1591 77.8295 80.9091C77.8295 80.6591 77.9223 80.4451 78.108 80.267C78.2973 80.089 78.5227 80 78.7841 80C79.0455 80 79.2689 80.089 79.4545 80.267C79.6439 80.4451 79.7386 80.6591 79.7386 80.9091C79.7386 81.1591 79.6439 81.3731 79.4545 81.5511C79.2689 81.7292 79.0455 81.8182 78.7841 81.8182ZM85.1946 92.1818C84.4673 92.1818 83.8253 91.9981 83.2685 91.6307C82.7116 91.2595 82.276 90.7367 81.9616 90.0625C81.6473 89.3845 81.4901 88.5833 81.4901 87.6591C81.4901 86.7424 81.6473 85.947 81.9616 85.2727C82.276 84.5985 82.7135 84.0777 83.2741 83.7102C83.8348 83.3428 84.4825 83.1591 85.2173 83.1591C85.7855 83.1591 86.2344 83.2538 86.5639 83.4432C86.8973 83.6288 87.151 83.8409 87.3253 84.0795C87.5033 84.3144 87.6416 84.5076 87.7401 84.6591H87.8537V80.3636H89.1946V92H87.8991V90.6591H87.7401C87.6416 90.8182 87.5014 91.0189 87.3196 91.2614C87.1378 91.5 86.8783 91.714 86.5412 91.9034C86.2041 92.089 85.7552 92.1818 85.1946 92.1818ZM85.3764 90.9773C85.9143 90.9773 86.3688 90.8371 86.7401 90.5568C87.1113 90.2727 87.3935 89.8807 87.5866 89.3807C87.7798 88.8769 87.8764 88.2955 87.8764 87.6364C87.8764 86.9848 87.7817 86.4148 87.5923 85.9261C87.4029 85.4337 87.1226 85.0511 86.7514 84.7784C86.3802 84.5019 85.9219 84.3636 85.3764 84.3636C84.8082 84.3636 84.3348 84.5095 83.956 84.8011C83.581 85.089 83.2988 85.4811 83.1094 85.9773C82.9238 86.4697 82.831 87.0227 82.831 87.6364C82.831 88.2576 82.9257 88.822 83.1151 89.3295C83.3082 89.8333 83.5923 90.2348 83.9673 90.5341C84.3461 90.8295 84.8158 90.9773 85.3764 90.9773ZM95.6321 83.2727V84.4091H91.1094V83.2727H95.6321ZM92.4276 81.1818H93.7685V89.5C93.7685 89.8788 93.8234 90.1629 93.9332 90.3523C94.0469 90.5379 94.1908 90.6629 94.3651 90.7273C94.5431 90.7879 94.7306 90.8182 94.9276 90.8182C95.0753 90.8182 95.1965 90.8106 95.2912 90.7955C95.3859 90.7765 95.4616 90.7614 95.5185 90.75L95.7912 91.9545C95.7003 91.9886 95.5734 92.0227 95.4105 92.0568C95.2476 92.0947 95.0412 92.1136 94.7912 92.1136C94.4124 92.1136 94.0412 92.0322 93.6776 91.8693C93.3177 91.7064 93.0185 91.4583 92.7798 91.125C92.545 90.7917 92.4276 90.3712 92.4276 89.8636V81.1818ZM99.1776 86.75V92H97.8366V80.3636H99.1776V84.6364H99.2912C99.4957 84.1856 99.8026 83.8277 100.212 83.5625C100.625 83.2936 101.174 83.1591 101.859 83.1591C102.454 83.1591 102.975 83.2784 103.422 83.517C103.869 83.7519 104.215 84.1136 104.462 84.6023C104.712 85.0871 104.837 85.7045 104.837 86.4545V92H103.496V86.5455C103.496 85.8523 103.316 85.3163 102.956 84.9375C102.6 84.5549 102.106 84.3636 101.473 84.3636C101.034 84.3636 100.64 84.4564 100.291 84.642C99.9465 84.8277 99.6738 85.0985 99.473 85.4545C99.276 85.8106 99.1776 86.2424 99.1776 86.75ZM115.199 91.2045V83.7045H116.472V91.2045H115.199ZM112.085 88.0909V86.8182H119.585V88.0909H112.085ZM128.178 86.75V92H126.837V80.3636H128.178V84.6364H128.291C128.496 84.1856 128.803 83.8277 129.212 83.5625C129.625 83.2936 130.174 83.1591 130.859 83.1591C131.454 83.1591 131.975 83.2784 132.422 83.517C132.869 83.7519 133.215 84.1136 133.462 84.6023C133.712 85.0871 133.837 85.7045 133.837 86.4545V92H132.496V86.5455C132.496 85.8523 132.316 85.3163 131.956 84.9375C131.6 84.5549 131.106 84.3636 130.473 84.3636C130.034 84.3636 129.64 84.4564 129.291 84.642C128.946 84.8277 128.674 85.0985 128.473 85.4545C128.276 85.8106 128.178 86.2424 128.178 86.75ZM139.949 92.1818C139.108 92.1818 138.383 91.9962 137.773 91.625C137.167 91.25 136.699 90.7273 136.369 90.0568C136.044 89.3826 135.881 88.5985 135.881 87.7045C135.881 86.8106 136.044 86.0227 136.369 85.3409C136.699 84.6553 137.157 84.1212 137.744 83.7386C138.335 83.3523 139.025 83.1591 139.812 83.1591C140.267 83.1591 140.716 83.2348 141.159 83.3864C141.602 83.5379 142.006 83.7841 142.369 84.125C142.733 84.4621 143.023 84.9091 143.239 85.4659C143.455 86.0227 143.562 86.7083 143.562 87.5227V88.0909H136.835V86.9318H142.199C142.199 86.4394 142.1 86 141.903 85.6136C141.71 85.2273 141.434 84.9223 141.074 84.6989C140.718 84.4754 140.297 84.3636 139.812 84.3636C139.278 84.3636 138.816 84.4962 138.426 84.7614C138.04 85.0227 137.742 85.3636 137.534 85.7841C137.326 86.2045 137.222 86.6553 137.222 87.1364V87.9091C137.222 88.5682 137.335 89.1269 137.562 89.5852C137.794 90.0398 138.114 90.3864 138.523 90.625C138.932 90.8598 139.407 90.9773 139.949 90.9773C140.301 90.9773 140.619 90.928 140.903 90.8295C141.191 90.7273 141.439 90.5758 141.648 90.375C141.856 90.1705 142.017 89.9167 142.131 89.6136L143.426 89.9773C143.29 90.4167 143.061 90.803 142.739 91.1364C142.417 91.4659 142.019 91.7235 141.545 91.9091C141.072 92.0909 140.54 92.1818 139.949 92.1818ZM145.602 92V83.2727H146.943V92H145.602ZM146.284 81.8182C146.023 81.8182 145.797 81.7292 145.608 81.5511C145.422 81.3731 145.33 81.1591 145.33 80.9091C145.33 80.6591 145.422 80.4451 145.608 80.267C145.797 80.089 146.023 80 146.284 80C146.545 80 146.769 80.089 146.955 80.267C147.144 80.4451 147.239 80.6591 147.239 80.9091C147.239 81.1591 147.144 81.3731 146.955 81.5511C146.769 81.7292 146.545 81.8182 146.284 81.8182ZM152.922 95.4545C152.274 95.4545 151.717 95.3712 151.251 95.2045C150.786 95.0417 150.397 94.8258 150.087 94.5568C149.78 94.2917 149.536 94.0076 149.354 93.7045L150.422 92.9545C150.543 93.1136 150.696 93.2955 150.882 93.5C151.068 93.7083 151.321 93.8883 151.643 94.0398C151.969 94.1951 152.395 94.2727 152.922 94.2727C153.626 94.2727 154.208 94.1023 154.666 93.7614C155.125 93.4205 155.354 92.8864 155.354 92.1591V90.3864H155.24C155.142 90.5455 155.001 90.7424 154.82 90.9773C154.642 91.2083 154.384 91.4148 154.047 91.5966C153.714 91.7746 153.263 91.8636 152.695 91.8636C151.99 91.8636 151.357 91.697 150.797 91.3636C150.24 91.0303 149.799 90.5455 149.473 89.9091C149.151 89.2727 148.99 88.5 148.99 87.5909C148.99 86.697 149.147 85.9186 149.462 85.2557C149.776 84.589 150.214 84.0739 150.774 83.7102C151.335 83.3428 151.982 83.1591 152.717 83.1591C153.286 83.1591 153.736 83.2538 154.07 83.4432C154.407 83.6288 154.664 83.8409 154.842 84.0795C155.024 84.3144 155.164 84.5076 155.263 84.6591H155.399V83.2727H156.695V92.25C156.695 93 156.524 93.6098 156.183 94.0795C155.846 94.553 155.392 94.8996 154.82 95.1193C154.251 95.3428 153.619 95.4545 152.922 95.4545ZM152.876 90.6591C153.414 90.6591 153.869 90.536 154.24 90.2898C154.611 90.0436 154.893 89.6894 155.087 89.2273C155.28 88.7652 155.376 88.2121 155.376 87.5682C155.376 86.9394 155.282 86.3845 155.092 85.9034C154.903 85.4223 154.623 85.0455 154.251 84.7727C153.88 84.5 153.422 84.3636 152.876 84.3636C152.308 84.3636 151.835 84.5076 151.456 84.7955C151.081 85.0833 150.799 85.4697 150.609 85.9545C150.424 86.4394 150.331 86.9773 150.331 87.5682C150.331 88.1742 150.426 88.7102 150.615 89.1761C150.808 89.6383 151.092 90.0019 151.467 90.267C151.846 90.5284 152.316 90.6591 152.876 90.6591ZM160.49 86.75V92H159.149V80.3636H160.49V84.6364H160.604C160.808 84.1856 161.115 83.8277 161.524 83.5625C161.937 83.2936 162.486 83.1591 163.172 83.1591C163.767 83.1591 164.287 83.2784 164.734 83.517C165.181 83.7519 165.528 84.1136 165.774 84.6023C166.024 85.0871 166.149 85.7045 166.149 86.4545V92H164.808V86.5455C164.808 85.8523 164.628 85.3163 164.268 84.9375C163.912 84.5549 163.418 84.3636 162.786 84.3636C162.346 84.3636 161.952 84.4564 161.604 84.642C161.259 84.8277 160.986 85.0985 160.786 85.4545C160.589 85.8106 160.49 86.2424 160.49 86.75ZM172.398 83.2727V84.4091H167.875V83.2727H172.398ZM169.193 81.1818H170.534V89.5C170.534 89.8788 170.589 90.1629 170.699 90.3523C170.813 90.5379 170.956 90.6629 171.131 90.7273C171.309 90.7879 171.496 90.8182 171.693 90.8182C171.841 90.8182 171.962 90.8106 172.057 90.7955C172.152 90.7765 172.227 90.7614 172.284 90.75L172.557 91.9545C172.466 91.9886 172.339 92.0227 172.176 92.0568C172.013 92.0947 171.807 92.1136 171.557 92.1136C171.178 92.1136 170.807 92.0322 170.443 91.8693C170.083 91.7064 169.784 91.4583 169.545 91.125C169.311 90.7917 169.193 90.3712 169.193 89.8636V81.1818Z" fill="#1A1A1A"/>
<path d="M25.8864 152H24.4091L28.6818 140.364H30.1364L34.4091 152H32.9318L29.4545 142.205H29.3636L25.8864 152ZM26.4318 147.455H32.3864V148.705H26.4318V147.455ZM41.5398 148.432V143.273H42.8807V152H41.5398V150.523H41.4489C41.2443 150.966 40.9261 151.343 40.4943 151.653C40.0625 151.96 39.517 152.114 38.858 152.114C38.3125 152.114 37.8277 151.994 37.4034 151.756C36.9792 151.513 36.6458 151.15 36.4034 150.665C36.161 150.176 36.0398 149.561 36.0398 148.818V143.273H37.3807V148.727C37.3807 149.364 37.5587 149.871 37.9148 150.25C38.2746 150.629 38.733 150.818 39.2898 150.818C39.6231 150.818 39.9621 150.733 40.3068 150.562C40.6553 150.392 40.947 150.131 41.1818 149.778C41.4205 149.426 41.5398 148.977 41.5398 148.432ZM49.1321 143.273V144.409H44.6094V143.273H49.1321ZM45.9276 141.182H47.2685V149.5C47.2685 149.879 47.3234 150.163 47.4332 150.352C47.5469 150.538 47.6908 150.663 47.8651 150.727C48.0431 150.788 48.2306 150.818 48.4276 150.818C48.5753 150.818 48.6965 150.811 48.7912 150.795C48.8859 150.777 48.9616 150.761 49.0185 150.75L49.2912 151.955C49.2003 151.989 49.0734 152.023 48.9105 152.057C48.7476 152.095 48.5412 152.114 48.2912 152.114C47.9124 152.114 47.5412 152.032 47.1776 151.869C46.8177 151.706 46.5185 151.458 46.2798 151.125C46.045 150.792 45.9276 150.371 45.9276 149.864V141.182ZM54.6009 152.182C53.813 152.182 53.1217 151.994 52.527 151.619C51.9361 151.244 51.474 150.72 51.1406 150.045C50.8111 149.371 50.6463 148.583 50.6463 147.682C50.6463 146.773 50.8111 145.979 51.1406 145.301C51.474 144.623 51.9361 144.097 52.527 143.722C53.1217 143.347 53.813 143.159 54.6009 143.159C55.3887 143.159 56.0781 143.347 56.669 143.722C57.2637 144.097 57.7259 144.623 58.0554 145.301C58.3887 145.979 58.5554 146.773 58.5554 147.682C58.5554 148.583 58.3887 149.371 58.0554 150.045C57.7259 150.72 57.2637 151.244 56.669 151.619C56.0781 151.994 55.3887 152.182 54.6009 152.182ZM54.6009 150.977C55.1993 150.977 55.6918 150.824 56.0781 150.517C56.4645 150.21 56.7505 149.807 56.9361 149.307C57.1217 148.807 57.2145 148.265 57.2145 147.682C57.2145 147.098 57.1217 146.555 56.9361 146.051C56.7505 145.547 56.4645 145.14 56.0781 144.83C55.6918 144.519 55.1993 144.364 54.6009 144.364C54.0024 144.364 53.5099 144.519 53.1236 144.83C52.7372 145.14 52.4512 145.547 52.2656 146.051C52.08 146.555 51.9872 147.098 51.9872 147.682C51.9872 148.265 52.08 148.807 52.2656 149.307C52.4512 149.807 52.7372 150.21 53.1236 150.517C53.5099 150.824 54.0024 150.977 54.6009 150.977ZM66.4432 146.75V152H65.1023V140.364H66.4432V144.636H66.5568C66.7614 144.186 67.0682 143.828 67.4773 143.562C67.8902 143.294 68.4394 143.159 69.125 143.159C69.7197 143.159 70.2405 143.278 70.6875 143.517C71.1345 143.752 71.4811 144.114 71.7273 144.602C71.9773 145.087 72.1023 145.705 72.1023 146.455V152H70.7614V146.545C70.7614 145.852 70.5814 145.316 70.2216 144.938C69.8655 144.555 69.3712 144.364 68.7386 144.364C68.2992 144.364 67.9053 144.456 67.5568 144.642C67.2121 144.828 66.9394 145.098 66.7386 145.455C66.5417 145.811 66.4432 146.242 66.4432 146.75ZM78.2145 152.182C77.3736 152.182 76.6482 151.996 76.0384 151.625C75.4323 151.25 74.9645 150.727 74.6349 150.057C74.3092 149.383 74.1463 148.598 74.1463 147.705C74.1463 146.811 74.3092 146.023 74.6349 145.341C74.9645 144.655 75.4228 144.121 76.0099 143.739C76.6009 143.352 77.2902 143.159 78.0781 143.159C78.5327 143.159 78.9815 143.235 79.4247 143.386C79.8679 143.538 80.2713 143.784 80.6349 144.125C80.9986 144.462 81.2884 144.909 81.5043 145.466C81.7202 146.023 81.8281 146.708 81.8281 147.523V148.091H75.1009V146.932H80.4645C80.4645 146.439 80.366 146 80.169 145.614C79.9759 145.227 79.6993 144.922 79.3395 144.699C78.9834 144.475 78.563 144.364 78.0781 144.364C77.544 144.364 77.0819 144.496 76.6918 144.761C76.3054 145.023 76.008 145.364 75.7997 145.784C75.5914 146.205 75.4872 146.655 75.4872 147.136V147.909C75.4872 148.568 75.6009 149.127 75.8281 149.585C76.0592 150.04 76.3793 150.386 76.7884 150.625C77.1974 150.86 77.6728 150.977 78.2145 150.977C78.5668 150.977 78.8849 150.928 79.169 150.83C79.4569 150.727 79.705 150.576 79.9134 150.375C80.1217 150.17 80.2827 149.917 80.3963 149.614L81.6918 149.977C81.5554 150.417 81.3262 150.803 81.0043 151.136C80.6823 151.466 80.2846 151.723 79.8111 151.909C79.3376 152.091 78.8054 152.182 78.2145 152.182ZM83.8679 152V143.273H85.2088V152H83.8679ZM84.5497 141.818C84.2884 141.818 84.063 141.729 83.8736 141.551C83.688 141.373 83.5952 141.159 83.5952 140.909C83.5952 140.659 83.688 140.445 83.8736 140.267C84.063 140.089 84.2884 140 84.5497 140C84.8111 140 85.0346 140.089 85.2202 140.267C85.4096 140.445 85.5043 140.659 85.5043 140.909C85.5043 141.159 85.4096 141.373 85.2202 141.551C85.0346 141.729 84.8111 141.818 84.5497 141.818ZM91.1875 155.455C90.5398 155.455 89.983 155.371 89.517 155.205C89.0511 155.042 88.6629 154.826 88.3523 154.557C88.0455 154.292 87.8011 154.008 87.6193 153.705L88.6875 152.955C88.8087 153.114 88.9621 153.295 89.1477 153.5C89.3333 153.708 89.5871 153.888 89.9091 154.04C90.2348 154.195 90.661 154.273 91.1875 154.273C91.892 154.273 92.4735 154.102 92.9318 153.761C93.3902 153.42 93.6193 152.886 93.6193 152.159V150.386H93.5057C93.4072 150.545 93.267 150.742 93.0852 150.977C92.9072 151.208 92.6496 151.415 92.3125 151.597C91.9792 151.775 91.5284 151.864 90.9602 151.864C90.2557 151.864 89.6231 151.697 89.0625 151.364C88.5057 151.03 88.0644 150.545 87.7386 149.909C87.4167 149.273 87.2557 148.5 87.2557 147.591C87.2557 146.697 87.4129 145.919 87.7273 145.256C88.0417 144.589 88.4792 144.074 89.0398 143.71C89.6004 143.343 90.2481 143.159 90.983 143.159C91.5511 143.159 92.0019 143.254 92.3352 143.443C92.6723 143.629 92.9299 143.841 93.108 144.08C93.2898 144.314 93.4299 144.508 93.5284 144.659H93.6648V143.273H94.9602V152.25C94.9602 153 94.7898 153.61 94.4489 154.08C94.1117 154.553 93.6572 154.9 93.0852 155.119C92.517 155.343 91.8845 155.455 91.1875 155.455ZM91.142 150.659C91.6799 150.659 92.1345 150.536 92.5057 150.29C92.8769 150.044 93.1591 149.689 93.3523 149.227C93.5455 148.765 93.642 148.212 93.642 147.568C93.642 146.939 93.5473 146.384 93.358 145.903C93.1686 145.422 92.8883 145.045 92.517 144.773C92.1458 144.5 91.6875 144.364 91.142 144.364C90.5739 144.364 90.1004 144.508 89.7216 144.795C89.3466 145.083 89.0644 145.47 88.875 145.955C88.6894 146.439 88.5966 146.977 88.5966 147.568C88.5966 148.174 88.6913 148.71 88.8807 149.176C89.0739 149.638 89.358 150.002 89.733 150.267C90.1117 150.528 90.5814 150.659 91.142 150.659ZM98.7557 146.75V152H97.4148V140.364H98.7557V144.636H98.8693C99.0739 144.186 99.3807 143.828 99.7898 143.562C100.203 143.294 100.752 143.159 101.438 143.159C102.032 143.159 102.553 143.278 103 143.517C103.447 143.752 103.794 144.114 104.04 144.602C104.29 145.087 104.415 145.705 104.415 146.455V152H103.074V146.545C103.074 145.852 102.894 145.316 102.534 144.938C102.178 144.555 101.684 144.364 101.051 144.364C100.612 144.364 100.218 144.456 99.8693 144.642C99.5246 144.828 99.2519 145.098 99.0511 145.455C98.8542 145.811 98.7557 146.242 98.7557 146.75ZM110.663 143.273V144.409H106.141V143.273H110.663ZM107.459 141.182H108.8V149.5C108.8 149.879 108.855 150.163 108.964 150.352C109.078 150.538 109.222 150.663 109.396 150.727C109.574 150.788 109.762 150.818 109.959 150.818C110.107 150.818 110.228 150.811 110.322 150.795C110.417 150.777 110.493 150.761 110.55 150.75L110.822 151.955C110.732 151.989 110.605 152.023 110.442 152.057C110.279 152.095 110.072 152.114 109.822 152.114C109.444 152.114 109.072 152.032 108.709 151.869C108.349 151.706 108.05 151.458 107.811 151.125C107.576 150.792 107.459 150.371 107.459 149.864V141.182ZM120.726 152.182C119.938 152.182 119.247 151.994 118.652 151.619C118.061 151.244 117.599 150.72 117.266 150.045C116.936 149.371 116.771 148.583 116.771 147.682C116.771 146.773 116.936 145.979 117.266 145.301C117.599 144.623 118.061 144.097 118.652 143.722C119.247 143.347 119.938 143.159 120.726 143.159C121.514 143.159 122.203 143.347 122.794 143.722C123.389 144.097 123.851 144.623 124.18 145.301C124.514 145.979 124.68 146.773 124.68 147.682C124.68 148.583 124.514 149.371 124.18 150.045C123.851 150.72 123.389 151.244 122.794 151.619C122.203 151.994 121.514 152.182 120.726 152.182ZM120.726 150.977C121.324 150.977 121.817 150.824 122.203 150.517C122.589 150.21 122.875 149.807 123.061 149.307C123.247 148.807 123.339 148.265 123.339 147.682C123.339 147.098 123.247 146.555 123.061 146.051C122.875 145.547 122.589 145.14 122.203 144.83C121.817 144.519 121.324 144.364 120.726 144.364C120.127 144.364 119.635 144.519 119.249 144.83C118.862 145.14 118.576 145.547 118.391 146.051C118.205 146.555 118.112 147.098 118.112 147.682C118.112 148.265 118.205 148.807 118.391 149.307C118.576 149.807 118.862 150.21 119.249 150.517C119.635 150.824 120.127 150.977 120.726 150.977ZM128.068 146.75V152H126.727V143.273H128.023V144.636H128.136C128.341 144.193 128.652 143.837 129.068 143.568C129.485 143.295 130.023 143.159 130.682 143.159C131.273 143.159 131.79 143.28 132.233 143.523C132.676 143.761 133.021 144.125 133.267 144.614C133.513 145.098 133.636 145.712 133.636 146.455V152H132.295V146.545C132.295 145.86 132.117 145.326 131.761 144.943C131.405 144.557 130.917 144.364 130.295 144.364C129.867 144.364 129.485 144.456 129.148 144.642C128.814 144.828 128.551 145.098 128.358 145.455C128.165 145.811 128.068 146.242 128.068 146.75ZM137.428 140.364V152H136.087V140.364H137.428ZM140.747 155.273C140.52 155.273 140.317 155.254 140.139 155.216C139.961 155.182 139.838 155.148 139.77 155.114L140.111 153.932C140.437 154.015 140.724 154.045 140.974 154.023C141.224 154 141.446 153.888 141.639 153.688C141.836 153.491 142.016 153.17 142.179 152.727L142.429 152.045L139.202 143.273H140.656L143.065 150.227H143.156L145.565 143.273H147.02L143.315 153.273C143.149 153.723 142.942 154.097 142.696 154.392C142.45 154.691 142.164 154.913 141.838 155.057C141.516 155.201 141.152 155.273 140.747 155.273ZM168.062 146.386V147.636H152.062V146.386H168.062ZM177.585 143.273V144.409H173.062V143.273H177.585ZM174.381 141.182H175.722V149.5C175.722 149.879 175.777 150.163 175.886 150.352C176 150.538 176.144 150.663 176.318 150.727C176.496 150.788 176.684 150.818 176.881 150.818C177.028 150.818 177.15 150.811 177.244 150.795C177.339 150.777 177.415 150.761 177.472 150.75L177.744 151.955C177.653 151.989 177.527 152.023 177.364 152.057C177.201 152.095 176.994 152.114 176.744 152.114C176.366 152.114 175.994 152.032 175.631 151.869C175.271 151.706 174.972 151.458 174.733 151.125C174.498 150.792 174.381 150.371 174.381 149.864V141.182ZM183.168 152.182C182.327 152.182 181.601 151.996 180.991 151.625C180.385 151.25 179.918 150.727 179.588 150.057C179.262 149.383 179.099 148.598 179.099 147.705C179.099 146.811 179.262 146.023 179.588 145.341C179.918 144.655 180.376 144.121 180.963 143.739C181.554 143.352 182.243 143.159 183.031 143.159C183.486 143.159 183.935 143.235 184.378 143.386C184.821 143.538 185.224 143.784 185.588 144.125C185.952 144.462 186.241 144.909 186.457 145.466C186.673 146.023 186.781 146.708 186.781 147.523V148.091H180.054V146.932H185.418C185.418 146.439 185.319 146 185.122 145.614C184.929 145.227 184.652 144.922 184.293 144.699C183.937 144.475 183.516 144.364 183.031 144.364C182.497 144.364 182.035 144.496 181.645 144.761C181.259 145.023 180.961 145.364 180.753 145.784C180.545 146.205 180.44 146.655 180.44 147.136V147.909C180.44 148.568 180.554 149.127 180.781 149.585C181.012 150.04 181.332 150.386 181.741 150.625C182.151 150.86 182.626 150.977 183.168 150.977C183.52 150.977 183.838 150.928 184.122 150.83C184.41 150.727 184.658 150.576 184.866 150.375C185.075 150.17 185.236 149.917 185.349 149.614L186.645 149.977C186.509 150.417 186.279 150.803 185.957 151.136C185.635 151.466 185.238 151.723 184.764 151.909C184.291 152.091 183.759 152.182 183.168 152.182ZM189.587 143.273L191.678 146.841L193.768 143.273H195.314L192.496 147.636L195.314 152H193.768L191.678 148.614L189.587 152H188.041L190.814 147.636L188.041 143.273H189.587ZM201.023 143.273V144.409H196.5V143.273H201.023ZM197.818 141.182H199.159V149.5C199.159 149.879 199.214 150.163 199.324 150.352C199.438 150.538 199.581 150.663 199.756 150.727C199.934 150.788 200.121 150.818 200.318 150.818C200.466 150.818 200.587 150.811 200.682 150.795C200.777 150.777 200.852 150.761 200.909 150.75L201.182 151.955C201.091 151.989 200.964 152.023 200.801 152.057C200.638 152.095 200.432 152.114 200.182 152.114C199.803 152.114 199.432 152.032 199.068 151.869C198.708 151.706 198.409 151.458 198.17 151.125C197.936 150.792 197.818 150.371 197.818 149.864V141.182ZM209.517 152L206.858 143.273H208.267L210.153 149.955H210.244L212.108 143.273H213.54L215.381 149.932H215.472L217.358 143.273H218.767L216.108 152H214.79L212.881 145.295H212.744L210.835 152H209.517ZM220.54 152V143.273H221.835V144.591H221.926C222.085 144.159 222.373 143.809 222.79 143.54C223.206 143.271 223.676 143.136 224.199 143.136C224.297 143.136 224.42 143.138 224.568 143.142C224.716 143.146 224.828 143.152 224.903 143.159V144.523C224.858 144.511 224.754 144.494 224.591 144.472C224.432 144.445 224.263 144.432 224.085 144.432C223.661 144.432 223.282 144.521 222.949 144.699C222.619 144.873 222.358 145.116 222.165 145.426C221.975 145.733 221.881 146.083 221.881 146.477V152H220.54ZM229.061 152.205C228.508 152.205 228.006 152.1 227.555 151.892C227.105 151.68 226.747 151.375 226.482 150.977C226.216 150.576 226.084 150.091 226.084 149.523C226.084 149.023 226.182 148.617 226.379 148.307C226.576 147.992 226.839 147.746 227.169 147.568C227.499 147.39 227.862 147.258 228.26 147.17C228.661 147.08 229.065 147.008 229.47 146.955C230 146.886 230.43 146.835 230.76 146.801C231.093 146.763 231.336 146.701 231.487 146.614C231.643 146.527 231.72 146.375 231.72 146.159V146.114C231.72 145.553 231.567 145.117 231.26 144.807C230.957 144.496 230.497 144.341 229.879 144.341C229.239 144.341 228.737 144.481 228.374 144.761C228.01 145.042 227.754 145.341 227.607 145.659L226.334 145.205C226.561 144.674 226.864 144.261 227.243 143.966C227.625 143.667 228.042 143.458 228.493 143.341C228.947 143.22 229.394 143.159 229.834 143.159C230.114 143.159 230.436 143.193 230.8 143.261C231.167 143.326 231.521 143.46 231.862 143.665C232.207 143.869 232.493 144.178 232.72 144.591C232.947 145.004 233.061 145.557 233.061 146.25V152H231.72V150.818H231.652C231.561 151.008 231.41 151.21 231.197 151.426C230.985 151.642 230.703 151.826 230.351 151.977C229.999 152.129 229.569 152.205 229.061 152.205ZM229.266 151C229.796 151 230.243 150.896 230.607 150.688C230.974 150.479 231.25 150.21 231.436 149.881C231.625 149.551 231.72 149.205 231.72 148.841V147.614C231.663 147.682 231.538 147.744 231.345 147.801C231.156 147.854 230.936 147.902 230.686 147.943C230.44 147.981 230.199 148.015 229.964 148.045C229.733 148.072 229.546 148.095 229.402 148.114C229.054 148.159 228.728 148.233 228.425 148.335C228.125 148.434 227.883 148.583 227.697 148.784C227.516 148.981 227.425 149.25 227.425 149.591C227.425 150.057 227.597 150.409 227.942 150.648C228.29 150.883 228.732 151 229.266 151ZM235.509 155.273V143.273H236.804V144.659H236.963C237.062 144.508 237.198 144.314 237.372 144.08C237.55 143.841 237.804 143.629 238.134 143.443C238.467 143.254 238.918 143.159 239.486 143.159C240.221 143.159 240.868 143.343 241.429 143.71C241.99 144.078 242.427 144.598 242.741 145.273C243.056 145.947 243.213 146.742 243.213 147.659C243.213 148.583 243.056 149.384 242.741 150.062C242.427 150.737 241.991 151.259 241.435 151.631C240.878 151.998 240.236 152.182 239.509 152.182C238.948 152.182 238.499 152.089 238.162 151.903C237.825 151.714 237.565 151.5 237.384 151.261C237.202 151.019 237.062 150.818 236.963 150.659H236.849V155.273H235.509ZM236.827 147.636C236.827 148.295 236.923 148.877 237.116 149.381C237.31 149.881 237.592 150.273 237.963 150.557C238.334 150.837 238.789 150.977 239.327 150.977C239.887 150.977 240.355 150.83 240.73 150.534C241.109 150.235 241.393 149.833 241.582 149.33C241.776 148.822 241.872 148.258 241.872 147.636C241.872 147.023 241.777 146.47 241.588 145.977C241.402 145.481 241.12 145.089 240.741 144.801C240.366 144.509 239.895 144.364 239.327 144.364C238.781 144.364 238.323 144.502 237.952 144.778C237.58 145.051 237.3 145.434 237.111 145.926C236.921 146.415 236.827 146.985 236.827 147.636ZM251.44 145.227L250.236 145.568C250.16 145.367 250.048 145.172 249.901 144.983C249.757 144.79 249.56 144.631 249.31 144.506C249.06 144.381 248.74 144.318 248.349 144.318C247.815 144.318 247.37 144.441 247.014 144.688C246.662 144.93 246.486 145.239 246.486 145.614C246.486 145.947 246.607 146.21 246.849 146.403C247.092 146.597 247.471 146.758 247.986 146.886L249.281 147.205C250.062 147.394 250.643 147.684 251.026 148.074C251.408 148.46 251.599 148.958 251.599 149.568C251.599 150.068 251.455 150.515 251.168 150.909C250.884 151.303 250.486 151.614 249.974 151.841C249.463 152.068 248.868 152.182 248.19 152.182C247.3 152.182 246.563 151.989 245.98 151.602C245.397 151.216 245.027 150.652 244.872 149.909L246.145 149.591C246.266 150.061 246.495 150.413 246.832 150.648C247.173 150.883 247.618 151 248.168 151C248.793 151 249.289 150.867 249.656 150.602C250.027 150.333 250.213 150.011 250.213 149.636C250.213 149.333 250.107 149.08 249.895 148.875C249.683 148.667 249.357 148.511 248.918 148.409L247.463 148.068C246.664 147.879 246.077 147.585 245.702 147.188C245.33 146.786 245.145 146.284 245.145 145.682C245.145 145.189 245.283 144.754 245.56 144.375C245.84 143.996 246.221 143.699 246.702 143.483C247.187 143.267 247.736 143.159 248.349 143.159C249.213 143.159 249.891 143.348 250.384 143.727C250.88 144.106 251.232 144.606 251.44 145.227ZM258.118 152V143.273H259.459V152H258.118ZM258.8 141.818C258.538 141.818 258.313 141.729 258.124 141.551C257.938 141.373 257.845 141.159 257.845 140.909C257.845 140.659 257.938 140.445 258.124 140.267C258.313 140.089 258.538 140 258.8 140C259.061 140 259.285 140.089 259.47 140.267C259.66 140.445 259.754 140.659 259.754 140.909C259.754 141.159 259.66 141.373 259.47 141.551C259.285 141.729 259.061 141.818 258.8 141.818ZM263.256 146.75V152H261.915V143.273H263.21V144.636H263.324C263.528 144.193 263.839 143.837 264.256 143.568C264.672 143.295 265.21 143.159 265.869 143.159C266.46 143.159 266.977 143.28 267.42 143.523C267.864 143.761 268.208 144.125 268.455 144.614C268.701 145.098 268.824 145.712 268.824 146.455V152H267.483V146.545C267.483 145.86 267.305 145.326 266.949 144.943C266.593 144.557 266.104 144.364 265.483 144.364C265.055 144.364 264.672 144.456 264.335 144.642C264.002 144.828 263.739 145.098 263.545 145.455C263.352 145.811 263.256 146.242 263.256 146.75ZM277.456 145.227L276.251 145.568C276.176 145.367 276.064 145.172 275.916 144.983C275.772 144.79 275.575 144.631 275.325 144.506C275.075 144.381 274.755 144.318 274.365 144.318C273.831 144.318 273.386 144.441 273.03 144.688C272.678 144.93 272.501 145.239 272.501 145.614C272.501 145.947 272.623 146.21 272.865 146.403C273.107 146.597 273.486 146.758 274.001 146.886L275.297 147.205C276.077 147.394 276.659 147.684 277.041 148.074C277.424 148.46 277.615 148.958 277.615 149.568C277.615 150.068 277.471 150.515 277.183 150.909C276.899 151.303 276.501 151.614 275.99 151.841C275.479 152.068 274.884 152.182 274.206 152.182C273.316 152.182 272.579 151.989 271.996 151.602C271.412 151.216 271.043 150.652 270.888 149.909L272.161 149.591C272.282 150.061 272.511 150.413 272.848 150.648C273.189 150.883 273.634 151 274.183 151C274.808 151 275.304 150.867 275.672 150.602C276.043 150.333 276.229 150.011 276.229 149.636C276.229 149.333 276.123 149.08 275.911 148.875C275.698 148.667 275.373 148.511 274.933 148.409L273.479 148.068C272.679 147.879 272.092 147.585 271.717 147.188C271.346 146.786 271.161 146.284 271.161 145.682C271.161 145.189 271.299 144.754 271.575 144.375C271.856 143.996 272.236 143.699 272.717 143.483C273.202 143.267 273.751 143.159 274.365 143.159C275.229 143.159 275.907 143.348 276.399 143.727C276.895 144.106 277.248 144.606 277.456 145.227ZM279.634 152V143.273H280.974V152H279.634ZM280.315 141.818C280.054 141.818 279.829 141.729 279.639 141.551C279.454 141.373 279.361 141.159 279.361 140.909C279.361 140.659 279.454 140.445 279.639 140.267C279.829 140.089 280.054 140 280.315 140C280.577 140 280.8 140.089 280.986 140.267C281.175 140.445 281.27 140.659 281.27 140.909C281.27 141.159 281.175 141.373 280.986 141.551C280.8 141.729 280.577 141.818 280.315 141.818ZM286.726 152.182C285.999 152.182 285.357 151.998 284.8 151.631C284.243 151.259 283.807 150.737 283.493 150.062C283.179 149.384 283.021 148.583 283.021 147.659C283.021 146.742 283.179 145.947 283.493 145.273C283.807 144.598 284.245 144.078 284.805 143.71C285.366 143.343 286.014 143.159 286.749 143.159C287.317 143.159 287.766 143.254 288.095 143.443C288.429 143.629 288.682 143.841 288.857 144.08C289.035 144.314 289.173 144.508 289.271 144.659H289.385V140.364H290.726V152H289.43V150.659H289.271C289.173 150.818 289.033 151.019 288.851 151.261C288.669 151.5 288.41 151.714 288.072 151.903C287.735 152.089 287.286 152.182 286.726 152.182ZM286.908 150.977C287.446 150.977 287.9 150.837 288.271 150.557C288.643 150.273 288.925 149.881 289.118 149.381C289.311 148.877 289.408 148.295 289.408 147.636C289.408 146.985 289.313 146.415 289.124 145.926C288.934 145.434 288.654 145.051 288.283 144.778C287.911 144.502 287.453 144.364 286.908 144.364C286.339 144.364 285.866 144.509 285.487 144.801C285.112 145.089 284.83 145.481 284.641 145.977C284.455 146.47 284.362 147.023 284.362 147.636C284.362 148.258 284.457 148.822 284.646 149.33C284.839 149.833 285.124 150.235 285.499 150.534C285.877 150.83 286.347 150.977 286.908 150.977ZM297.027 152.182C296.186 152.182 295.461 151.996 294.851 151.625C294.245 151.25 293.777 150.727 293.447 150.057C293.122 149.383 292.959 148.598 292.959 147.705C292.959 146.811 293.122 146.023 293.447 145.341C293.777 144.655 294.235 144.121 294.822 143.739C295.413 143.352 296.103 143.159 296.891 143.159C297.345 143.159 297.794 143.235 298.237 143.386C298.68 143.538 299.084 143.784 299.447 144.125C299.811 144.462 300.101 144.909 300.317 145.466C300.533 146.023 300.641 146.708 300.641 147.523V148.091H293.913V146.932H299.277C299.277 146.439 299.179 146 298.982 145.614C298.788 145.227 298.512 144.922 298.152 144.699C297.796 144.475 297.375 144.364 296.891 144.364C296.357 144.364 295.894 144.496 295.504 144.761C295.118 145.023 294.821 145.364 294.612 145.784C294.404 146.205 294.3 146.655 294.3 147.136V147.909C294.3 148.568 294.413 149.127 294.641 149.585C294.872 150.04 295.192 150.386 295.601 150.625C296.01 150.86 296.485 150.977 297.027 150.977C297.379 150.977 297.697 150.928 297.982 150.83C298.269 150.727 298.518 150.576 298.726 150.375C298.934 150.17 299.095 149.917 299.209 149.614L300.504 149.977C300.368 150.417 300.139 150.803 299.817 151.136C299.495 151.466 299.097 151.723 298.624 151.909C298.15 152.091 297.618 152.182 297.027 152.182ZM29.0227 162.273V163.409H24.5V162.273H29.0227ZM25.8182 160.182H27.1591V168.5C27.1591 168.879 27.214 169.163 27.3239 169.352C27.4375 169.538 27.5814 169.663 27.7557 169.727C27.9337 169.788 28.1212 169.818 28.3182 169.818C28.4659 169.818 28.5871 169.811 28.6818 169.795C28.7765 169.777 28.8523 169.761 28.9091 169.75L29.1818 170.955C29.0909 170.989 28.964 171.023 28.8011 171.057C28.6383 171.095 28.4318 171.114 28.1818 171.114C27.803 171.114 27.4318 171.032 27.0682 170.869C26.7083 170.706 26.4091 170.458 26.1705 170.125C25.9356 169.792 25.8182 169.371 25.8182 168.864V160.182ZM32.5682 165.75V171H31.2273V159.364H32.5682V163.636H32.6818C32.8864 163.186 33.1932 162.828 33.6023 162.562C34.0152 162.294 34.5644 162.159 35.25 162.159C35.8447 162.159 36.3655 162.278 36.8125 162.517C37.2595 162.752 37.6061 163.114 37.8523 163.602C38.1023 164.087 38.2273 164.705 38.2273 165.455V171H36.8864V165.545C36.8864 164.852 36.7064 164.316 36.3466 163.938C35.9905 163.555 35.4962 163.364 34.8636 163.364C34.4242 163.364 34.0303 163.456 33.6818 163.642C33.3371 163.828 33.0644 164.098 32.8636 164.455C32.6667 164.811 32.5682 165.242 32.5682 165.75ZM44.3395 171.182C43.4986 171.182 42.7732 170.996 42.1634 170.625C41.5573 170.25 41.0895 169.727 40.7599 169.057C40.4342 168.383 40.2713 167.598 40.2713 166.705C40.2713 165.811 40.4342 165.023 40.7599 164.341C41.0895 163.655 41.5478 163.121 42.1349 162.739C42.7259 162.352 43.4152 162.159 44.2031 162.159C44.6577 162.159 45.1065 162.235 45.5497 162.386C45.9929 162.538 46.3963 162.784 46.7599 163.125C47.1236 163.462 47.4134 163.909 47.6293 164.466C47.8452 165.023 47.9531 165.708 47.9531 166.523V167.091H41.2259V165.932H46.5895C46.5895 165.439 46.491 165 46.294 164.614C46.1009 164.227 45.8243 163.922 45.4645 163.699C45.1084 163.475 44.688 163.364 44.2031 163.364C43.669 163.364 43.2069 163.496 42.8168 163.761C42.4304 164.023 42.133 164.364 41.9247 164.784C41.7164 165.205 41.6122 165.655 41.6122 166.136V166.909C41.6122 167.568 41.7259 168.127 41.9531 168.585C42.1842 169.04 42.5043 169.386 42.9134 169.625C43.3224 169.86 43.7978 169.977 44.3395 169.977C44.6918 169.977 45.0099 169.928 45.294 169.83C45.5819 169.727 45.83 169.576 46.0384 169.375C46.2467 169.17 46.4077 168.917 46.5213 168.614L47.8168 168.977C47.6804 169.417 47.4512 169.803 47.1293 170.136C46.8073 170.466 46.4096 170.723 45.9361 170.909C45.4626 171.091 44.9304 171.182 44.3395 171.182ZM58.3793 162.273V163.409H53.6747V162.273H58.3793ZM55.0838 171V161.068C55.0838 160.568 55.2012 160.152 55.4361 159.818C55.6709 159.485 55.9759 159.235 56.3509 159.068C56.7259 158.902 57.1217 158.818 57.5384 158.818C57.8679 158.818 58.1368 158.845 58.3452 158.898C58.5535 158.951 58.7088 159 58.8111 159.045L58.4247 160.205C58.3565 160.182 58.2618 160.153 58.1406 160.119C58.0232 160.085 57.8679 160.068 57.6747 160.068C57.2315 160.068 56.9115 160.18 56.7145 160.403C56.5213 160.627 56.4247 160.955 56.4247 161.386V171H55.0838ZM60.2585 171V162.273H61.5994V171H60.2585ZM60.9403 160.818C60.679 160.818 60.4536 160.729 60.2642 160.551C60.0786 160.373 59.9858 160.159 59.9858 159.909C59.9858 159.659 60.0786 159.445 60.2642 159.267C60.4536 159.089 60.679 159 60.9403 159C61.2017 159 61.4252 159.089 61.6108 159.267C61.8002 159.445 61.8949 159.659 61.8949 159.909C61.8949 160.159 61.8002 160.373 61.6108 160.551C61.4252 160.729 61.2017 160.818 60.9403 160.818ZM65.0554 162.273L67.1463 165.841L69.2372 162.273H70.7827L67.9645 166.636L70.7827 171H69.2372L67.1463 167.614L65.0554 171H63.5099L66.2827 166.636L63.5099 162.273H65.0554ZM75.9957 171.182C75.1548 171.182 74.4295 170.996 73.8196 170.625C73.2135 170.25 72.7457 169.727 72.4162 169.057C72.0904 168.383 71.9276 167.598 71.9276 166.705C71.9276 165.811 72.0904 165.023 72.4162 164.341C72.7457 163.655 73.2041 163.121 73.7912 162.739C74.3821 162.352 75.0715 162.159 75.8594 162.159C76.3139 162.159 76.7628 162.235 77.206 162.386C77.6491 162.538 78.0526 162.784 78.4162 163.125C78.7798 163.462 79.0696 163.909 79.2855 164.466C79.5014 165.023 79.6094 165.708 79.6094 166.523V167.091H72.8821V165.932H78.2457C78.2457 165.439 78.1473 165 77.9503 164.614C77.7571 164.227 77.4806 163.922 77.1207 163.699C76.7647 163.475 76.3442 163.364 75.8594 163.364C75.3253 163.364 74.8632 163.496 74.473 163.761C74.0866 164.023 73.7893 164.364 73.581 164.784C73.3726 165.205 73.2685 165.655 73.2685 166.136V166.909C73.2685 167.568 73.3821 168.127 73.6094 168.585C73.8404 169.04 74.1605 169.386 74.5696 169.625C74.9787 169.86 75.4541 169.977 75.9957 169.977C76.348 169.977 76.6662 169.928 76.9503 169.83C77.2382 169.727 77.4863 169.576 77.6946 169.375C77.9029 169.17 78.0639 168.917 78.1776 168.614L79.473 168.977C79.3366 169.417 79.1075 169.803 78.7855 170.136C78.4635 170.466 78.0658 170.723 77.5923 170.909C77.1188 171.091 76.5866 171.182 75.9957 171.182ZM84.9446 171.182C84.2173 171.182 83.5753 170.998 83.0185 170.631C82.4616 170.259 82.026 169.737 81.7116 169.062C81.3973 168.384 81.2401 167.583 81.2401 166.659C81.2401 165.742 81.3973 164.947 81.7116 164.273C82.026 163.598 82.4635 163.078 83.0241 162.71C83.5848 162.343 84.2325 162.159 84.9673 162.159C85.5355 162.159 85.9844 162.254 86.3139 162.443C86.6473 162.629 86.901 162.841 87.0753 163.08C87.2533 163.314 87.3916 163.508 87.4901 163.659H87.6037V159.364H88.9446V171H87.6491V169.659H87.4901C87.3916 169.818 87.2514 170.019 87.0696 170.261C86.8878 170.5 86.6283 170.714 86.2912 170.903C85.9541 171.089 85.5052 171.182 84.9446 171.182ZM85.1264 169.977C85.6643 169.977 86.1188 169.837 86.4901 169.557C86.8613 169.273 87.1435 168.881 87.3366 168.381C87.5298 167.877 87.6264 167.295 87.6264 166.636C87.6264 165.985 87.5317 165.415 87.3423 164.926C87.1529 164.434 86.8726 164.051 86.5014 163.778C86.1302 163.502 85.6719 163.364 85.1264 163.364C84.5582 163.364 84.0848 163.509 83.706 163.801C83.331 164.089 83.0488 164.481 82.8594 164.977C82.6738 165.47 82.581 166.023 82.581 166.636C82.581 167.258 82.6757 167.822 82.8651 168.33C83.0582 168.833 83.3423 169.235 83.7173 169.534C84.0961 169.83 84.5658 169.977 85.1264 169.977ZM98.0639 171L95.4048 162.273H96.8139L98.7003 168.955H98.7912L100.655 162.273H102.087L103.928 168.932H104.018L105.905 162.273H107.314L104.655 171H103.337L101.428 164.295H101.291L99.3821 171H98.0639ZM109.087 171V162.273H110.428V171H109.087ZM109.768 160.818C109.507 160.818 109.282 160.729 109.092 160.551C108.907 160.373 108.814 160.159 108.814 159.909C108.814 159.659 108.907 159.445 109.092 159.267C109.282 159.089 109.507 159 109.768 159C110.03 159 110.253 159.089 110.439 159.267C110.628 159.445 110.723 159.659 110.723 159.909C110.723 160.159 110.628 160.373 110.439 160.551C110.253 160.729 110.03 160.818 109.768 160.818ZM116.179 171.182C115.452 171.182 114.81 170.998 114.253 170.631C113.696 170.259 113.26 169.737 112.946 169.062C112.632 168.384 112.474 167.583 112.474 166.659C112.474 165.742 112.632 164.947 112.946 164.273C113.26 163.598 113.698 163.078 114.259 162.71C114.819 162.343 115.467 162.159 116.202 162.159C116.77 162.159 117.219 162.254 117.548 162.443C117.882 162.629 118.135 162.841 118.31 163.08C118.488 163.314 118.626 163.508 118.724 163.659H118.838V159.364H120.179V171H118.884V169.659H118.724C118.626 169.818 118.486 170.019 118.304 170.261C118.122 170.5 117.863 170.714 117.526 170.903C117.188 171.089 116.74 171.182 116.179 171.182ZM116.361 169.977C116.899 169.977 117.353 169.837 117.724 169.557C118.096 169.273 118.378 168.881 118.571 168.381C118.764 167.877 118.861 167.295 118.861 166.636C118.861 165.985 118.766 165.415 118.577 164.926C118.387 164.434 118.107 164.051 117.736 163.778C117.365 163.502 116.906 163.364 116.361 163.364C115.793 163.364 115.319 163.509 114.94 163.801C114.565 164.089 114.283 164.481 114.094 164.977C113.908 165.47 113.815 166.023 113.815 166.636C113.815 167.258 113.91 167.822 114.099 168.33C114.293 168.833 114.577 169.235 114.952 169.534C115.33 169.83 115.8 169.977 116.361 169.977ZM126.616 162.273V163.409H122.094V162.273H126.616ZM123.412 160.182H124.753V168.5C124.753 168.879 124.808 169.163 124.918 169.352C125.031 169.538 125.175 169.663 125.349 169.727C125.527 169.788 125.715 169.818 125.912 169.818C126.06 169.818 126.181 169.811 126.276 169.795C126.37 169.777 126.446 169.761 126.503 169.75L126.776 170.955C126.685 170.989 126.558 171.023 126.395 171.057C126.232 171.095 126.026 171.114 125.776 171.114C125.397 171.114 125.026 171.032 124.662 170.869C124.302 170.706 124.003 170.458 123.764 170.125C123.529 169.792 123.412 169.371 123.412 168.864V160.182ZM130.162 165.75V171H128.821V159.364H130.162V163.636H130.276C130.48 163.186 130.787 162.828 131.196 162.562C131.609 162.294 132.158 162.159 132.844 162.159C133.438 162.159 133.959 162.278 134.406 162.517C134.853 162.752 135.2 163.114 135.446 163.602C135.696 164.087 135.821 164.705 135.821 165.455V171H134.48V165.545C134.48 164.852 134.3 164.316 133.94 163.938C133.584 163.555 133.09 163.364 132.457 163.364C132.018 163.364 131.624 163.456 131.276 163.642C130.931 163.828 130.658 164.098 130.457 164.455C130.26 164.811 130.162 165.242 130.162 165.75Z" fill="#1A1A1A"/>
</svg>
