<svg width="720" height="212" viewBox="0 0 720 212" fill="none" xmlns="http://www.w3.org/2000/svg">
<rect width="720" height="212" fill="#F7F7F7"/>
<path d="M25.616 35V23.272H32.368V24.52H27.088V28.488H31.568V29.736H27.088V35H25.616ZM34.3001 35V26.312H35.7721V35H34.3001ZM35.0361 24.52C34.7481 24.52 34.5135 24.4347 34.3321 24.264C34.1615 24.0827 34.0761 23.8427 34.0761 23.544C34.0761 23.256 34.1615 23.0267 34.3321 22.856C34.5135 22.6853 34.7481 22.6 35.0361 22.6C35.3241 22.6 35.5588 22.6853 35.7401 22.856C35.9215 23.0267 36.0121 23.256 36.0121 23.544C36.0121 23.8427 35.9215 24.0827 35.7401 24.264C35.5588 24.4347 35.3241 24.52 35.0361 24.52ZM37.4744 35L40.3384 30.472L37.6984 26.312H39.2824L40.4504 28.216C40.5784 28.4613 40.7117 28.7067 40.8504 28.952C40.9997 29.1867 41.149 29.4267 41.2984 29.672H41.3784C41.4957 29.4267 41.6184 29.1867 41.7464 28.952C41.885 28.7067 42.0184 28.4613 42.1464 28.216L43.2184 26.312H44.7384L42.0984 30.616L44.9624 35H43.3624L42.0824 32.968C41.933 32.7013 41.7784 32.44 41.6184 32.184C41.469 31.9173 41.309 31.6613 41.1384 31.416H41.0584C40.9197 31.6613 40.7757 31.9173 40.6264 32.184C40.4877 32.44 40.3384 32.7013 40.1784 32.968L39.0104 35H37.4744ZM49.8514 35.208C49.0727 35.208 48.3687 35.0267 47.7394 34.664C47.11 34.3013 46.6087 33.784 46.2354 33.112C45.8727 32.4293 45.6914 31.6133 45.6914 30.664C45.6914 29.9493 45.798 29.3147 46.0114 28.76C46.2247 28.1947 46.5127 27.7147 46.8754 27.32C47.2487 26.9147 47.67 26.6107 48.1394 26.408C48.6087 26.1947 49.0887 26.088 49.5794 26.088C50.326 26.088 50.9554 26.2533 51.4674 26.584C51.9794 26.9147 52.3687 27.3893 52.6354 28.008C52.9127 28.616 53.0514 29.336 53.0514 30.168C53.0514 30.328 53.046 30.4773 53.0354 30.616C53.0247 30.7547 53.0087 30.8827 52.9874 31H47.1314C47.1634 31.6187 47.302 32.1573 47.5474 32.616C47.8034 33.064 48.1394 33.416 48.5554 33.672C48.9714 33.9173 49.4567 34.04 50.0114 34.04C50.438 34.04 50.822 33.9813 51.1634 33.864C51.5154 33.736 51.8567 33.5653 52.1874 33.352L52.6994 34.328C52.326 34.5733 51.9047 34.7813 51.4354 34.952C50.966 35.1227 50.438 35.208 49.8514 35.208ZM47.1154 29.96H51.7714C51.7714 29.0853 51.5794 28.4187 51.1954 27.96C50.822 27.4907 50.294 27.256 49.6114 27.256C49.206 27.256 48.822 27.3627 48.4594 27.576C48.1074 27.7893 47.8087 28.0933 47.5634 28.488C47.3287 28.8827 47.1794 29.3733 47.1154 29.96ZM58.1508 35.208C57.4254 35.208 56.7908 35.032 56.2468 34.68C55.7134 34.328 55.2974 33.816 54.9988 33.144C54.7108 32.4613 54.5668 31.6347 54.5668 30.664C54.5668 29.7253 54.7428 28.9147 55.0948 28.232C55.4468 27.5493 55.9054 27.0213 56.4708 26.648C57.0468 26.2747 57.6654 26.088 58.3268 26.088C58.8388 26.088 59.2761 26.1787 59.6388 26.36C60.0121 26.5307 60.3908 26.776 60.7748 27.096L60.6948 25.608V22.264H62.1667V35H60.9668L60.8388 33.976H60.7908C60.4494 34.3173 60.0548 34.6107 59.6068 34.856C59.1588 35.0907 58.6734 35.208 58.1508 35.208ZM58.4708 33.976C58.8761 33.976 59.2601 33.88 59.6228 33.688C59.9854 33.4853 60.3428 33.1867 60.6948 32.792V28.232C60.3321 27.9013 59.9801 27.6667 59.6388 27.528C59.2974 27.3893 58.9454 27.32 58.5828 27.32C58.1241 27.32 57.7028 27.464 57.3188 27.752C56.9454 28.0293 56.6414 28.4187 56.4068 28.92C56.1828 29.4107 56.0707 29.9867 56.0707 30.648C56.0707 31.3413 56.1668 31.9387 56.3588 32.44C56.5508 32.9413 56.8228 33.3253 57.1748 33.592C57.5374 33.848 57.9694 33.976 58.4708 33.976ZM70.9628 35.208C70.3548 35.208 69.7628 35.096 69.1868 34.872C68.6214 34.6373 68.1361 34.3493 67.7308 34.008L68.4348 33.032C68.8188 33.3413 69.2134 33.592 69.6188 33.784C70.0241 33.976 70.4881 34.072 71.0108 34.072C71.5868 34.072 72.0134 33.944 72.2908 33.688C72.5788 33.4213 72.7228 33.096 72.7228 32.712C72.7228 32.4133 72.6214 32.168 72.4188 31.976C72.2268 31.7733 71.9761 31.6027 71.6668 31.464C71.3681 31.3147 71.0588 31.1813 70.7388 31.064C70.3334 30.904 69.9334 30.728 69.5388 30.536C69.1548 30.3333 68.8348 30.0773 68.5788 29.768C68.3334 29.448 68.2108 29.0427 68.2108 28.552C68.2108 28.0827 68.3281 27.6667 68.5628 27.304C68.7974 26.9307 69.1388 26.6373 69.5868 26.424C70.0348 26.2 70.5734 26.088 71.2028 26.088C71.7361 26.088 72.2321 26.184 72.6908 26.376C73.1601 26.568 73.5601 26.8027 73.8908 27.08L73.1868 27.992C72.8881 27.7787 72.5788 27.5973 72.2588 27.448C71.9494 27.2987 71.6028 27.224 71.2188 27.224C70.6641 27.224 70.2534 27.352 69.9868 27.608C69.7308 27.8533 69.6028 28.1467 69.6028 28.488C69.6028 28.7547 69.6881 28.9787 69.8588 29.16C70.0401 29.3413 70.2748 29.496 70.5628 29.624C70.8508 29.7413 71.1548 29.864 71.4748 29.992C71.7948 30.1093 72.1094 30.2373 72.4188 30.376C72.7388 30.5147 73.0214 30.68 73.2668 30.872C73.5228 31.064 73.7254 31.304 73.8748 31.592C74.0348 31.8693 74.1148 32.216 74.1148 32.632C74.1148 33.1013 73.9921 33.5333 73.7468 33.928C73.5121 34.3227 73.1601 34.6373 72.6908 34.872C72.2321 35.096 71.6561 35.208 70.9628 35.208ZM76.1751 35V26.312H77.6471V35H76.1751ZM76.9111 24.52C76.6231 24.52 76.3885 24.4347 76.2071 24.264C76.0365 24.0827 75.9511 23.8427 75.9511 23.544C75.9511 23.256 76.0365 23.0267 76.2071 22.856C76.3885 22.6853 76.6231 22.6 76.9111 22.6C77.1991 22.6 77.4338 22.6853 77.6151 22.856C77.7965 23.0267 77.8871 23.256 77.8871 23.544C77.8871 23.8427 77.7965 24.0827 77.6151 24.264C77.4338 24.4347 77.1991 24.52 76.9111 24.52ZM79.6694 35V34.216L84.2454 27.496H80.1654V26.312H86.1014V27.096L81.5094 33.816H86.2454V35H79.6694ZM91.4764 35.208C90.6977 35.208 89.9937 35.0267 89.3644 34.664C88.735 34.3013 88.2337 33.784 87.8604 33.112C87.4977 32.4293 87.3164 31.6133 87.3164 30.664C87.3164 29.9493 87.423 29.3147 87.6364 28.76C87.8497 28.1947 88.1377 27.7147 88.5004 27.32C88.8737 26.9147 89.295 26.6107 89.7644 26.408C90.2337 26.1947 90.7137 26.088 91.2044 26.088C91.951 26.088 92.5804 26.2533 93.0924 26.584C93.6044 26.9147 93.9937 27.3893 94.2604 28.008C94.5377 28.616 94.6764 29.336 94.6764 30.168C94.6764 30.328 94.671 30.4773 94.6604 30.616C94.6497 30.7547 94.6337 30.8827 94.6124 31H88.7564C88.7884 31.6187 88.927 32.1573 89.1724 32.616C89.4284 33.064 89.7644 33.416 90.1804 33.672C90.5964 33.9173 91.0817 34.04 91.6364 34.04C92.063 34.04 92.447 33.9813 92.7884 33.864C93.1404 33.736 93.4817 33.5653 93.8124 33.352L94.3244 34.328C93.951 34.5733 93.5297 34.7813 93.0604 34.952C92.591 35.1227 92.063 35.208 91.4764 35.208ZM88.7404 29.96H93.3964C93.3964 29.0853 93.2044 28.4187 92.8204 27.96C92.447 27.4907 91.919 27.256 91.2364 27.256C90.831 27.256 90.447 27.3627 90.0844 27.576C89.7324 27.7893 89.4337 28.0933 89.1884 28.488C88.9537 28.8827 88.8044 29.3733 88.7404 29.96ZM104.218 35.208C103.823 35.208 103.407 35.112 102.97 34.92C102.533 34.728 102.127 34.456 101.754 34.104H101.69L101.562 35H100.394V22.264H101.866V25.752L101.802 27.304C102.197 26.9627 102.629 26.6747 103.098 26.44C103.567 26.2053 104.047 26.088 104.538 26.088C105.285 26.088 105.914 26.2747 106.426 26.648C106.938 27.0107 107.327 27.5227 107.594 28.184C107.861 28.8453 107.994 29.624 107.994 30.52C107.994 31.5013 107.813 32.344 107.45 33.048C107.098 33.752 106.634 34.2907 106.058 34.664C105.493 35.0267 104.879 35.208 104.218 35.208ZM103.978 33.976C104.458 33.976 104.885 33.8427 105.258 33.576C105.642 33.2987 105.941 32.904 106.154 32.392C106.367 31.8693 106.474 31.2507 106.474 30.536C106.474 29.896 106.394 29.336 106.234 28.856C106.085 28.3653 105.845 27.9867 105.514 27.72C105.183 27.4533 104.735 27.32 104.17 27.32C103.807 27.32 103.434 27.4213 103.05 27.624C102.666 27.8267 102.271 28.12 101.866 28.504V33.08C102.239 33.4107 102.613 33.6453 102.986 33.784C103.37 33.912 103.701 33.976 103.978 33.976ZM113.661 35.208C112.957 35.208 112.295 35.032 111.677 34.68C111.058 34.3173 110.562 33.8 110.189 33.128C109.826 32.4453 109.645 31.624 109.645 30.664C109.645 29.6933 109.826 28.872 110.189 28.2C110.562 27.5173 111.058 26.9947 111.677 26.632C112.295 26.2693 112.957 26.088 113.661 26.088C114.194 26.088 114.701 26.1893 115.181 26.392C115.671 26.5947 116.103 26.8933 116.477 27.288C116.85 27.6827 117.143 28.1627 117.357 28.728C117.57 29.2933 117.677 29.9387 117.677 30.664C117.677 31.624 117.49 32.4453 117.117 33.128C116.743 33.8 116.253 34.3173 115.645 34.68C115.037 35.032 114.375 35.208 113.661 35.208ZM113.661 33.992C114.162 33.992 114.599 33.8533 114.973 33.576C115.357 33.2987 115.655 32.9093 115.869 32.408C116.082 31.9067 116.189 31.3253 116.189 30.664C116.189 29.992 116.082 29.4053 115.869 28.904C115.655 28.4027 115.357 28.0133 114.973 27.736C114.599 27.4587 114.162 27.32 113.661 27.32C113.159 27.32 112.717 27.4587 112.333 27.736C111.959 28.0133 111.666 28.4027 111.453 28.904C111.25 29.4053 111.149 29.992 111.149 30.664C111.149 31.3253 111.25 31.9067 111.453 32.408C111.666 32.9093 111.959 33.2987 112.333 33.576C112.717 33.8533 113.159 33.992 113.661 33.992ZM118.412 35L121.276 30.472L118.636 26.312H120.22L121.388 28.216C121.516 28.4613 121.649 28.7067 121.788 28.952C121.937 29.1867 122.087 29.4267 122.236 29.672H122.316C122.433 29.4267 122.556 29.1867 122.684 28.952C122.823 28.7067 122.956 28.4613 123.084 28.216L124.156 26.312H125.676L123.036 30.616L125.9 35H124.3L123.02 32.968C122.871 32.7013 122.716 32.44 122.556 32.184C122.407 31.9173 122.247 31.6613 122.076 31.416H121.996C121.857 31.6613 121.713 31.9173 121.564 32.184C121.425 32.44 121.276 32.7013 121.116 32.968L119.948 35H118.412Z" fill="#1A1A1A"/>
<path d="M24.064 95L28.032 83.272H29.68L33.664 95H32.096L30.048 88.44C29.8347 87.768 29.632 87.112 29.44 86.472C29.248 85.8213 29.056 85.1547 28.864 84.472H28.8C28.6187 85.1547 28.4267 85.8213 28.224 86.472C28.032 87.112 27.8347 87.768 27.632 88.44L25.552 95H24.064ZM26.128 91.416V90.248H31.536V91.416H26.128ZM37.6098 95.208C36.6924 95.208 36.0151 94.92 35.5778 94.344C35.1511 93.768 34.9378 92.9253 34.9378 91.816V86.312H36.4098V91.64C36.4098 92.44 36.5378 93.0267 36.7938 93.4C37.0498 93.7627 37.4658 93.944 38.0418 93.944C38.4898 93.944 38.8898 93.8267 39.2418 93.592C39.5938 93.3573 39.9778 92.984 40.3938 92.472V86.312H41.8498V95H40.6338L40.5218 93.64H40.4738C40.0684 94.1093 39.6364 94.488 39.1778 94.776C38.7298 95.064 38.2071 95.208 37.6098 95.208ZM47.5045 95.208C46.8965 95.208 46.4112 95.0907 46.0485 94.856C45.6858 94.6107 45.4245 94.2693 45.2645 93.832C45.1152 93.3947 45.0405 92.888 45.0405 92.312V87.496H43.7445V86.392L45.1205 86.312L45.2805 83.864H46.4965V86.312H48.8645V87.496H46.4965V92.36C46.4965 92.8827 46.5925 93.2933 46.7845 93.592C46.9872 93.88 47.3392 94.024 47.8405 94.024C48.0005 94.024 48.1712 94.0027 48.3525 93.96C48.5338 93.9067 48.6938 93.848 48.8325 93.784L49.1205 94.888C48.8752 94.9733 48.6138 95.048 48.3365 95.112C48.0592 95.176 47.7818 95.208 47.5045 95.208ZM53.9105 95.208C53.2065 95.208 52.5452 95.032 51.9265 94.68C51.3078 94.3173 50.8118 93.8 50.4385 93.128C50.0758 92.4453 49.8945 91.624 49.8945 90.664C49.8945 89.6933 50.0758 88.872 50.4385 88.2C50.8118 87.5173 51.3078 86.9947 51.9265 86.632C52.5452 86.2693 53.2065 86.088 53.9105 86.088C54.4438 86.088 54.9505 86.1893 55.4305 86.392C55.9212 86.5947 56.3532 86.8933 56.7265 87.288C57.0998 87.6827 57.3932 88.1627 57.6065 88.728C57.8198 89.2933 57.9265 89.9387 57.9265 90.664C57.9265 91.624 57.7398 92.4453 57.3665 93.128C56.9932 93.8 56.5025 94.3173 55.8945 94.68C55.2865 95.032 54.6252 95.208 53.9105 95.208ZM53.9105 93.992C54.4118 93.992 54.8492 93.8533 55.2225 93.576C55.6065 93.2987 55.9052 92.9093 56.1185 92.408C56.3318 91.9067 56.4385 91.3253 56.4385 90.664C56.4385 89.992 56.3318 89.4053 56.1185 88.904C55.9052 88.4027 55.6065 88.0133 55.2225 87.736C54.8492 87.4587 54.4118 87.32 53.9105 87.32C53.4092 87.32 52.9665 87.4587 52.5825 87.736C52.2092 88.0133 51.9158 88.4027 51.7025 88.904C51.4998 89.4053 51.3985 89.992 51.3985 90.664C51.3985 91.3253 51.4998 91.9067 51.7025 92.408C51.9158 92.9093 52.2092 93.2987 52.5825 93.576C52.9665 93.8533 53.4092 93.992 53.9105 93.992ZM65.1918 95L62.7758 86.312H64.2638L65.5598 91.336C65.6558 91.752 65.7411 92.1573 65.8158 92.552C65.9011 92.9467 65.9864 93.3467 66.0718 93.752H66.1518C66.2478 93.3467 66.3384 92.9467 66.4238 92.552C66.5198 92.1573 66.6211 91.752 66.7278 91.336L68.0878 86.312H69.5118L70.8718 91.336C70.9784 91.752 71.0798 92.1573 71.1758 92.552C71.2824 92.9467 71.3838 93.3467 71.4798 93.752H71.5598C71.6451 93.3467 71.7304 92.9467 71.8158 92.552C71.9011 92.1573 71.9918 91.752 72.0878 91.336L73.3518 86.312H74.7598L72.4078 95H70.6318L69.3838 90.312C69.2771 89.9067 69.1758 89.5013 69.0798 89.096C68.9838 88.68 68.8878 88.2533 68.7918 87.816H68.7118C68.6158 88.2533 68.5198 88.68 68.4238 89.096C68.3384 89.512 68.2371 89.928 68.1198 90.344L66.8878 95H65.1918ZM76.6439 95V86.312H78.1159V95H76.6439ZM77.3799 84.52C77.0919 84.52 76.8572 84.4347 76.6759 84.264C76.5052 84.0827 76.4199 83.8427 76.4199 83.544C76.4199 83.256 76.5052 83.0267 76.6759 82.856C76.8572 82.6853 77.0919 82.6 77.3799 82.6C77.6679 82.6 77.9025 82.6853 78.0839 82.856C78.2652 83.0267 78.3559 83.256 78.3559 83.544C78.3559 83.8427 78.2652 84.0827 78.0839 84.264C77.9025 84.4347 77.6679 84.52 77.3799 84.52ZM84.0101 95.208C83.2848 95.208 82.6501 95.032 82.1061 94.68C81.5728 94.328 81.1568 93.816 80.8581 93.144C80.5701 92.4613 80.4261 91.6347 80.4261 90.664C80.4261 89.7253 80.6021 88.9147 80.9541 88.232C81.3061 87.5493 81.7648 87.0213 82.3301 86.648C82.9061 86.2747 83.5248 86.088 84.1861 86.088C84.6981 86.088 85.1355 86.1787 85.4981 86.36C85.8715 86.5307 86.2501 86.776 86.6341 87.096L86.5541 85.608V82.264H88.0261V95H86.8261L86.6981 93.976H86.6501C86.3088 94.3173 85.9141 94.6107 85.4661 94.856C85.0181 95.0907 84.5328 95.208 84.0101 95.208ZM84.3301 93.976C84.7355 93.976 85.1195 93.88 85.4821 93.688C85.8448 93.4853 86.2021 93.1867 86.5541 92.792V88.232C86.1915 87.9013 85.8395 87.6667 85.4981 87.528C85.1568 87.3893 84.8048 87.32 84.4421 87.32C83.9835 87.32 83.5621 87.464 83.1781 87.752C82.8048 88.0293 82.5008 88.4187 82.2661 88.92C82.0421 89.4107 81.9301 89.9867 81.9301 90.648C81.9301 91.3413 82.0261 91.9387 82.2181 92.44C82.4101 92.9413 82.6821 93.3253 83.0341 93.592C83.3968 93.848 83.8288 93.976 84.3301 93.976ZM93.692 95.208C93.084 95.208 92.5987 95.0907 92.236 94.856C91.8733 94.6107 91.612 94.2693 91.452 93.832C91.3027 93.3947 91.228 92.888 91.228 92.312V87.496H89.932V86.392L91.308 86.312L91.468 83.864H92.684V86.312H95.052V87.496H92.684V92.36C92.684 92.8827 92.78 93.2933 92.972 93.592C93.1747 93.88 93.5267 94.024 94.028 94.024C94.188 94.024 94.3587 94.0027 94.54 93.96C94.7213 93.9067 94.8813 93.848 95.02 93.784L95.308 94.888C95.0627 94.9733 94.8013 95.048 94.524 95.112C94.2467 95.176 93.9693 95.208 93.692 95.208ZM97.0033 95V82.264H98.4753V85.752L98.4113 87.544C98.8166 87.1387 99.2486 86.7973 99.7073 86.52C100.166 86.232 100.694 86.088 101.291 86.088C102.209 86.088 102.881 86.3813 103.307 86.968C103.734 87.544 103.947 88.3867 103.947 89.496V95H102.491V89.688C102.491 88.8667 102.358 88.2747 102.091 87.912C101.835 87.5493 101.419 87.368 100.843 87.368C100.395 87.368 99.9953 87.48 99.6432 87.704C99.2913 87.928 98.9019 88.2587 98.4753 88.696V95H97.0033ZM112.684 93.144V89.64H109.436V88.552H112.684V85.048H113.852V88.552H117.116V89.64H113.852V93.144H112.684ZM122.753 95V82.264H124.225V85.752L124.161 87.544C124.567 87.1387 124.999 86.7973 125.457 86.52C125.916 86.232 126.444 86.088 127.041 86.088C127.959 86.088 128.631 86.3813 129.057 86.968C129.484 87.544 129.697 88.3867 129.697 89.496V95H128.241V89.688C128.241 88.8667 128.108 88.2747 127.841 87.912C127.585 87.5493 127.169 87.368 126.593 87.368C126.145 87.368 125.745 87.48 125.393 87.704C125.041 87.928 124.652 88.2587 124.225 88.696V95H122.753ZM135.992 95.208C135.213 95.208 134.509 95.0267 133.88 94.664C133.251 94.3013 132.749 93.784 132.376 93.112C132.013 92.4293 131.832 91.6133 131.832 90.664C131.832 89.9493 131.939 89.3147 132.152 88.76C132.365 88.1947 132.653 87.7147 133.016 87.32C133.389 86.9147 133.811 86.6107 134.28 86.408C134.749 86.1947 135.229 86.088 135.72 86.088C136.467 86.088 137.096 86.2533 137.608 86.584C138.12 86.9147 138.509 87.3893 138.776 88.008C139.053 88.616 139.192 89.336 139.192 90.168C139.192 90.328 139.187 90.4773 139.176 90.616C139.165 90.7547 139.149 90.8827 139.128 91H133.272C133.304 91.6187 133.443 92.1573 133.688 92.616C133.944 93.064 134.28 93.416 134.696 93.672C135.112 93.9173 135.597 94.04 136.152 94.04C136.579 94.04 136.963 93.9813 137.304 93.864C137.656 93.736 137.997 93.5653 138.328 93.352L138.84 94.328C138.467 94.5733 138.045 94.7813 137.576 94.952C137.107 95.1227 136.579 95.208 135.992 95.208ZM133.256 89.96H137.912C137.912 89.0853 137.72 88.4187 137.336 87.96C136.963 87.4907 136.435 87.256 135.752 87.256C135.347 87.256 134.963 87.3627 134.6 87.576C134.248 87.7893 133.949 88.0933 133.704 88.488C133.469 88.8827 133.32 89.3733 133.256 89.96ZM141.331 95V86.312H142.803V95H141.331ZM142.067 84.52C141.779 84.52 141.545 84.4347 141.363 84.264C141.193 84.0827 141.107 83.8427 141.107 83.544C141.107 83.256 141.193 83.0267 141.363 82.856C141.545 82.6853 141.779 82.6 142.067 82.6C142.355 82.6 142.59 82.6853 142.771 82.856C142.953 83.0267 143.043 83.256 143.043 83.544C143.043 83.8427 142.953 84.0827 142.771 84.264C142.59 84.4347 142.355 84.52 142.067 84.52ZM148.666 99C147.962 99 147.338 98.9093 146.794 98.728C146.25 98.5467 145.828 98.28 145.53 97.928C145.231 97.5867 145.082 97.1707 145.082 96.68C145.082 96.3067 145.194 95.944 145.418 95.592C145.642 95.2507 145.956 94.9573 146.362 94.712V94.632C146.138 94.4933 145.951 94.3067 145.802 94.072C145.652 93.8373 145.578 93.5493 145.578 93.208C145.578 92.8453 145.679 92.5253 145.882 92.248C146.095 91.9707 146.314 91.752 146.538 91.592V91.528C146.25 91.304 145.988 90.9893 145.754 90.584C145.519 90.1787 145.402 89.7147 145.402 89.192C145.402 88.552 145.551 88.0027 145.85 87.544C146.148 87.0747 146.543 86.7173 147.034 86.472C147.535 86.216 148.074 86.088 148.65 86.088C148.906 86.088 149.135 86.1093 149.338 86.152C149.551 86.1947 149.732 86.248 149.882 86.312H152.906V87.432H151.13C151.343 87.6347 151.514 87.8907 151.642 88.2C151.77 88.5093 151.834 88.8507 151.834 89.224C151.834 89.8427 151.69 90.3813 151.402 90.84C151.124 91.288 150.746 91.6347 150.266 91.88C149.786 92.1253 149.247 92.248 148.65 92.248C148.447 92.248 148.228 92.2213 147.994 92.168C147.77 92.1147 147.562 92.04 147.37 91.944C147.21 92.072 147.076 92.216 146.97 92.376C146.863 92.536 146.81 92.7387 146.81 92.984C146.81 93.2507 146.916 93.4747 147.13 93.656C147.343 93.8373 147.743 93.928 148.33 93.928H150.042C151.044 93.928 151.796 94.0933 152.298 94.424C152.81 94.7547 153.066 95.2773 153.066 95.992C153.066 96.5253 152.884 97.0213 152.522 97.48C152.159 97.9387 151.647 98.3067 150.986 98.584C150.335 98.8613 149.562 99 148.666 99ZM148.65 91.256C148.991 91.256 149.3 91.1707 149.578 91C149.866 90.8293 150.09 90.5893 150.25 90.28C150.42 89.9707 150.506 89.608 150.506 89.192C150.506 88.7653 150.42 88.4027 150.25 88.104C150.09 87.7947 149.871 87.56 149.594 87.4C149.316 87.24 149.002 87.16 148.65 87.16C148.319 87.16 148.01 87.24 147.722 87.4C147.444 87.56 147.22 87.7893 147.05 88.088C146.89 88.3867 146.81 88.7547 146.81 89.192C146.81 89.608 146.895 89.9707 147.066 90.28C147.236 90.5893 147.46 90.8293 147.738 91C148.015 91.1707 148.319 91.256 148.65 91.256ZM148.874 97.992C149.428 97.992 149.908 97.9067 150.314 97.736C150.73 97.5653 151.05 97.3413 151.274 97.064C151.508 96.7973 151.626 96.52 151.626 96.232C151.626 95.816 151.476 95.528 151.178 95.368C150.879 95.208 150.442 95.128 149.866 95.128H148.362C148.202 95.128 148.02 95.1173 147.818 95.096C147.626 95.0853 147.434 95.0533 147.242 95C146.932 95.2133 146.708 95.448 146.57 95.704C146.431 95.9707 146.362 96.2267 146.362 96.472C146.362 96.9307 146.58 97.2987 147.018 97.576C147.466 97.8533 148.084 97.992 148.874 97.992ZM154.769 95V82.264H156.241V85.752L156.177 87.544C156.582 87.1387 157.014 86.7973 157.473 86.52C157.932 86.232 158.46 86.088 159.057 86.088C159.974 86.088 160.646 86.3813 161.073 86.968C161.5 87.544 161.713 88.3867 161.713 89.496V95H160.257V89.688C160.257 88.8667 160.124 88.2747 159.857 87.912C159.601 87.5493 159.185 87.368 158.609 87.368C158.161 87.368 157.761 87.48 157.409 87.704C157.057 87.928 156.668 88.2587 156.241 88.696V95H154.769ZM167.208 95.208C166.6 95.208 166.114 95.0907 165.752 94.856C165.389 94.6107 165.128 94.2693 164.968 93.832C164.818 93.3947 164.744 92.888 164.744 92.312V87.496H163.448V86.392L164.824 86.312L164.984 83.864H166.2V86.312H168.568V87.496H166.2V92.36C166.2 92.8827 166.296 93.2933 166.488 93.592C166.69 93.88 167.042 94.024 167.544 94.024C167.704 94.024 167.874 94.0027 168.056 93.96C168.237 93.9067 168.397 93.848 168.536 93.784L168.824 94.888C168.578 94.9733 168.317 95.048 168.04 95.112C167.762 95.176 167.485 95.208 167.208 95.208Z" fill="#1A1A1A"/>
<path d="M24.064 155L28.032 143.272H29.68L33.664 155H32.096L30.048 148.44C29.8347 147.768 29.632 147.112 29.44 146.472C29.248 145.821 29.056 145.155 28.864 144.472H28.8C28.6187 145.155 28.4267 145.821 28.224 146.472C28.032 147.112 27.8347 147.768 27.632 148.44L25.552 155H24.064ZM26.128 151.416V150.248H31.536V151.416H26.128ZM37.6098 155.208C36.6924 155.208 36.0151 154.92 35.5778 154.344C35.1511 153.768 34.9378 152.925 34.9378 151.816V146.312H36.4098V151.64C36.4098 152.44 36.5378 153.027 36.7938 153.4C37.0498 153.763 37.4658 153.944 38.0418 153.944C38.4898 153.944 38.8898 153.827 39.2418 153.592C39.5938 153.357 39.9778 152.984 40.3938 152.472V146.312H41.8498V155H40.6338L40.5218 153.64H40.4738C40.0684 154.109 39.6364 154.488 39.1778 154.776C38.7298 155.064 38.2071 155.208 37.6098 155.208ZM47.5045 155.208C46.8965 155.208 46.4112 155.091 46.0485 154.856C45.6858 154.611 45.4245 154.269 45.2645 153.832C45.1152 153.395 45.0405 152.888 45.0405 152.312V147.496H43.7445V146.392L45.1205 146.312L45.2805 143.864H46.4965V146.312H48.8645V147.496H46.4965V152.36C46.4965 152.883 46.5925 153.293 46.7845 153.592C46.9872 153.88 47.3392 154.024 47.8405 154.024C48.0005 154.024 48.1712 154.003 48.3525 153.96C48.5338 153.907 48.6938 153.848 48.8325 153.784L49.1205 154.888C48.8752 154.973 48.6138 155.048 48.3365 155.112C48.0592 155.176 47.7818 155.208 47.5045 155.208ZM53.9105 155.208C53.2065 155.208 52.5452 155.032 51.9265 154.68C51.3078 154.317 50.8118 153.8 50.4385 153.128C50.0758 152.445 49.8945 151.624 49.8945 150.664C49.8945 149.693 50.0758 148.872 50.4385 148.2C50.8118 147.517 51.3078 146.995 51.9265 146.632C52.5452 146.269 53.2065 146.088 53.9105 146.088C54.4438 146.088 54.9505 146.189 55.4305 146.392C55.9212 146.595 56.3532 146.893 56.7265 147.288C57.0998 147.683 57.3932 148.163 57.6065 148.728C57.8198 149.293 57.9265 149.939 57.9265 150.664C57.9265 151.624 57.7398 152.445 57.3665 153.128C56.9932 153.8 56.5025 154.317 55.8945 154.68C55.2865 155.032 54.6252 155.208 53.9105 155.208ZM53.9105 153.992C54.4118 153.992 54.8492 153.853 55.2225 153.576C55.6065 153.299 55.9052 152.909 56.1185 152.408C56.3318 151.907 56.4385 151.325 56.4385 150.664C56.4385 149.992 56.3318 149.405 56.1185 148.904C55.9052 148.403 55.6065 148.013 55.2225 147.736C54.8492 147.459 54.4118 147.32 53.9105 147.32C53.4092 147.32 52.9665 147.459 52.5825 147.736C52.2092 148.013 51.9158 148.403 51.7025 148.904C51.4998 149.405 51.3985 149.992 51.3985 150.664C51.3985 151.325 51.4998 151.907 51.7025 152.408C51.9158 152.909 52.2092 153.299 52.5825 153.576C52.9665 153.853 53.4092 153.992 53.9105 153.992ZM63.8158 155V142.264H65.2878V145.752L65.2238 147.544C65.6291 147.139 66.0611 146.797 66.5198 146.52C66.9784 146.232 67.5064 146.088 68.1038 146.088C69.0211 146.088 69.6931 146.381 70.1198 146.968C70.5464 147.544 70.7598 148.387 70.7598 149.496V155H69.3038V149.688C69.3038 148.867 69.1704 148.275 68.9038 147.912C68.6478 147.549 68.2318 147.368 67.6558 147.368C67.2078 147.368 66.8078 147.48 66.4557 147.704C66.1038 147.928 65.7144 148.259 65.2878 148.696V155H63.8158ZM77.0545 155.208C76.2758 155.208 75.5718 155.027 74.9425 154.664C74.3132 154.301 73.8118 153.784 73.4385 153.112C73.0758 152.429 72.8945 151.613 72.8945 150.664C72.8945 149.949 73.0012 149.315 73.2145 148.76C73.4278 148.195 73.7158 147.715 74.0785 147.32C74.4518 146.915 74.8732 146.611 75.3425 146.408C75.8118 146.195 76.2918 146.088 76.7825 146.088C77.5292 146.088 78.1585 146.253 78.6705 146.584C79.1825 146.915 79.5718 147.389 79.8385 148.008C80.1158 148.616 80.2545 149.336 80.2545 150.168C80.2545 150.328 80.2492 150.477 80.2385 150.616C80.2278 150.755 80.2118 150.883 80.1905 151H74.3345C74.3665 151.619 74.5052 152.157 74.7505 152.616C75.0065 153.064 75.3425 153.416 75.7585 153.672C76.1745 153.917 76.6598 154.04 77.2145 154.04C77.6412 154.04 78.0252 153.981 78.3665 153.864C78.7185 153.736 79.0598 153.565 79.3905 153.352L79.9025 154.328C79.5292 154.573 79.1078 154.781 78.6385 154.952C78.1692 155.123 77.6412 155.208 77.0545 155.208ZM74.3185 149.96H78.9745C78.9745 149.085 78.7825 148.419 78.3985 147.96C78.0252 147.491 77.4972 147.256 76.8145 147.256C76.4092 147.256 76.0252 147.363 75.6625 147.576C75.3105 147.789 75.0118 148.093 74.7665 148.488C74.5318 148.883 74.3825 149.373 74.3185 149.96ZM82.3939 155V146.312H83.8659V155H82.3939ZM83.1299 144.52C82.8419 144.52 82.6072 144.435 82.4259 144.264C82.2552 144.083 82.1699 143.843 82.1699 143.544C82.1699 143.256 82.2552 143.027 82.4259 142.856C82.6072 142.685 82.8419 142.6 83.1299 142.6C83.4179 142.6 83.6525 142.685 83.8339 142.856C84.0152 143.027 84.1059 143.256 84.1059 143.544C84.1059 143.843 84.0152 144.083 83.8339 144.264C83.6525 144.435 83.4179 144.52 83.1299 144.52ZM89.7281 159C89.0241 159 88.4001 158.909 87.8561 158.728C87.3121 158.547 86.8908 158.28 86.5921 157.928C86.2935 157.587 86.1441 157.171 86.1441 156.68C86.1441 156.307 86.2561 155.944 86.4801 155.592C86.7041 155.251 87.0188 154.957 87.4241 154.712V154.632C87.2001 154.493 87.0135 154.307 86.8641 154.072C86.7148 153.837 86.6401 153.549 86.6401 153.208C86.6401 152.845 86.7415 152.525 86.9441 152.248C87.1575 151.971 87.3761 151.752 87.6001 151.592V151.528C87.3121 151.304 87.0508 150.989 86.8161 150.584C86.5815 150.179 86.4641 149.715 86.4641 149.192C86.4641 148.552 86.6135 148.003 86.9121 147.544C87.2108 147.075 87.6055 146.717 88.0961 146.472C88.5975 146.216 89.1361 146.088 89.7121 146.088C89.9681 146.088 90.1975 146.109 90.4001 146.152C90.6135 146.195 90.7948 146.248 90.9441 146.312H93.9681V147.432H92.1921C92.4055 147.635 92.5761 147.891 92.7041 148.2C92.8321 148.509 92.8961 148.851 92.8961 149.224C92.8961 149.843 92.7521 150.381 92.4641 150.84C92.1868 151.288 91.8081 151.635 91.3281 151.88C90.8481 152.125 90.3095 152.248 89.7121 152.248C89.5095 152.248 89.2908 152.221 89.0561 152.168C88.8321 152.115 88.6241 152.04 88.4321 151.944C88.2721 152.072 88.1388 152.216 88.0321 152.376C87.9255 152.536 87.8721 152.739 87.8721 152.984C87.8721 153.251 87.9788 153.475 88.1921 153.656C88.4055 153.837 88.8055 153.928 89.3921 153.928H91.1041C92.1068 153.928 92.8588 154.093 93.3601 154.424C93.8721 154.755 94.1281 155.277 94.1281 155.992C94.1281 156.525 93.9468 157.021 93.5841 157.48C93.2215 157.939 92.7095 158.307 92.0481 158.584C91.3975 158.861 90.6241 159 89.7281 159ZM89.7121 151.256C90.0535 151.256 90.3628 151.171 90.6401 151C90.9281 150.829 91.1521 150.589 91.3121 150.28C91.4828 149.971 91.5681 149.608 91.5681 149.192C91.5681 148.765 91.4828 148.403 91.3121 148.104C91.1521 147.795 90.9335 147.56 90.6561 147.4C90.3788 147.24 90.0641 147.16 89.7121 147.16C89.3815 147.16 89.0721 147.24 88.7841 147.4C88.5068 147.56 88.2828 147.789 88.1121 148.088C87.9521 148.387 87.8721 148.755 87.8721 149.192C87.8721 149.608 87.9575 149.971 88.1281 150.28C88.2988 150.589 88.5228 150.829 88.8001 151C89.0775 151.171 89.3815 151.256 89.7121 151.256ZM89.9361 157.992C90.4908 157.992 90.9708 157.907 91.3761 157.736C91.7921 157.565 92.1121 157.341 92.3361 157.064C92.5708 156.797 92.6881 156.52 92.6881 156.232C92.6881 155.816 92.5388 155.528 92.2401 155.368C91.9415 155.208 91.5041 155.128 90.9281 155.128H89.4241C89.2641 155.128 89.0828 155.117 88.8801 155.096C88.6881 155.085 88.4961 155.053 88.3041 155C87.9948 155.213 87.7708 155.448 87.6321 155.704C87.4935 155.971 87.4241 156.227 87.4241 156.472C87.4241 156.931 87.6428 157.299 88.0801 157.576C88.5281 157.853 89.1468 157.992 89.9361 157.992ZM95.8314 155V142.264H97.3034V145.752L97.2394 147.544C97.6447 147.139 98.0767 146.797 98.5354 146.52C98.994 146.232 99.522 146.088 100.119 146.088C101.037 146.088 101.709 146.381 102.135 146.968C102.562 147.544 102.775 148.387 102.775 149.496V155H101.319V149.688C101.319 148.867 101.186 148.275 100.919 147.912C100.663 147.549 100.247 147.368 99.6714 147.368C99.2234 147.368 98.8234 147.48 98.4714 147.704C98.1194 147.928 97.73 148.259 97.3034 148.696V155H95.8314ZM108.27 155.208C107.662 155.208 107.177 155.091 106.814 154.856C106.451 154.611 106.19 154.269 106.03 153.832C105.881 153.395 105.806 152.888 105.806 152.312V147.496H104.51V146.392L105.886 146.312L106.046 143.864H107.262V146.312H109.63V147.496H107.262V152.36C107.262 152.883 107.358 153.293 107.55 153.592C107.753 153.88 108.105 154.024 108.606 154.024C108.766 154.024 108.937 154.003 109.118 153.96C109.299 153.907 109.459 153.848 109.598 153.784L109.886 154.888C109.641 154.973 109.379 155.048 109.102 155.112C108.825 155.176 108.547 155.208 108.27 155.208ZM118.536 155.208C117.832 155.208 117.17 155.032 116.552 154.68C115.933 154.317 115.437 153.8 115.064 153.128C114.701 152.445 114.52 151.624 114.52 150.664C114.52 149.693 114.701 148.872 115.064 148.2C115.437 147.517 115.933 146.995 116.552 146.632C117.17 146.269 117.832 146.088 118.536 146.088C119.069 146.088 119.576 146.189 120.056 146.392C120.546 146.595 120.978 146.893 121.352 147.288C121.725 147.683 122.018 148.163 122.232 148.728C122.445 149.293 122.552 149.939 122.552 150.664C122.552 151.624 122.365 152.445 121.992 153.128C121.618 153.8 121.128 154.317 120.52 154.68C119.912 155.032 119.25 155.208 118.536 155.208ZM118.536 153.992C119.037 153.992 119.474 153.853 119.848 153.576C120.232 153.299 120.53 152.909 120.744 152.408C120.957 151.907 121.064 151.325 121.064 150.664C121.064 149.992 120.957 149.405 120.744 148.904C120.53 148.403 120.232 148.013 119.848 147.736C119.474 147.459 119.037 147.32 118.536 147.32C118.034 147.32 117.592 147.459 117.208 147.736C116.834 148.013 116.541 148.403 116.328 148.904C116.125 149.405 116.024 149.992 116.024 150.664C116.024 151.325 116.125 151.907 116.328 152.408C116.541 152.909 116.834 153.299 117.208 153.576C117.592 153.853 118.034 153.992 118.536 153.992ZM124.863 155V146.312H126.063L126.207 147.576H126.239C126.655 147.16 127.092 146.808 127.551 146.52C128.02 146.232 128.553 146.088 129.151 146.088C130.068 146.088 130.74 146.381 131.167 146.968C131.593 147.544 131.807 148.387 131.807 149.496V155H130.351V149.688C130.351 148.867 130.217 148.275 129.951 147.912C129.695 147.549 129.279 147.368 128.703 147.368C128.255 147.368 127.855 147.48 127.503 147.704C127.151 147.928 126.761 148.259 126.335 148.696V155H124.863ZM136.164 155.208C135.802 155.208 135.508 155.133 135.284 154.984C135.06 154.835 134.895 154.616 134.788 154.328C134.682 154.029 134.628 153.677 134.628 153.272V142.264H136.1V153.368C136.1 153.592 136.138 153.752 136.212 153.848C136.298 153.944 136.394 153.992 136.5 153.992C136.543 153.992 136.586 153.992 136.628 153.992C136.671 153.981 136.73 153.971 136.804 153.96L137.012 155.08C136.906 155.112 136.788 155.139 136.66 155.16C136.532 155.192 136.367 155.208 136.164 155.208ZM139.319 158.744C139.116 158.744 138.93 158.728 138.759 158.696C138.588 158.664 138.434 158.621 138.295 158.568L138.583 157.4C138.668 157.432 138.77 157.464 138.887 157.496C139.004 157.528 139.127 157.544 139.255 157.544C139.746 157.544 140.146 157.363 140.455 157C140.775 156.648 141.026 156.205 141.207 155.672L141.399 155.016L137.911 146.312H139.431L141.191 151.128C141.33 151.512 141.468 151.917 141.607 152.344C141.756 152.771 141.906 153.187 142.055 153.592H142.135C142.252 153.187 142.37 152.776 142.487 152.36C142.615 151.933 142.732 151.523 142.839 151.128L144.407 146.312H145.831L142.567 155.736C142.364 156.301 142.119 156.808 141.831 157.256C141.543 157.715 141.196 158.077 140.791 158.344C140.386 158.611 139.895 158.744 139.319 158.744ZM150.361 151V150.008H163.177V151H150.361ZM171.692 155.208C171.084 155.208 170.599 155.091 170.236 154.856C169.873 154.611 169.612 154.269 169.452 153.832C169.303 153.395 169.228 152.888 169.228 152.312V147.496H167.932V146.392L169.308 146.312L169.468 143.864H170.684V146.312H173.052V147.496H170.684V152.36C170.684 152.883 170.78 153.293 170.972 153.592C171.175 153.88 171.527 154.024 172.028 154.024C172.188 154.024 172.359 154.003 172.54 153.96C172.721 153.907 172.881 153.848 173.02 153.784L173.308 154.888C173.063 154.973 172.801 155.048 172.524 155.112C172.247 155.176 171.969 155.208 171.692 155.208ZM178.242 155.208C177.463 155.208 176.759 155.027 176.13 154.664C175.501 154.301 174.999 153.784 174.626 153.112C174.263 152.429 174.082 151.613 174.082 150.664C174.082 149.949 174.189 149.315 174.402 148.76C174.615 148.195 174.903 147.715 175.266 147.32C175.639 146.915 176.061 146.611 176.53 146.408C176.999 146.195 177.479 146.088 177.97 146.088C178.717 146.088 179.346 146.253 179.858 146.584C180.37 146.915 180.759 147.389 181.026 148.008C181.303 148.616 181.442 149.336 181.442 150.168C181.442 150.328 181.437 150.477 181.426 150.616C181.415 150.755 181.399 150.883 181.378 151H175.522C175.554 151.619 175.693 152.157 175.938 152.616C176.194 153.064 176.53 153.416 176.946 153.672C177.362 153.917 177.847 154.04 178.402 154.04C178.829 154.04 179.213 153.981 179.554 153.864C179.906 153.736 180.247 153.565 180.578 153.352L181.09 154.328C180.717 154.573 180.295 154.781 179.826 154.952C179.357 155.123 178.829 155.208 178.242 155.208ZM175.506 149.96H180.162C180.162 149.085 179.97 148.419 179.586 147.96C179.213 147.491 178.685 147.256 178.002 147.256C177.597 147.256 177.213 147.363 176.85 147.576C176.498 147.789 176.199 148.093 175.954 148.488C175.719 148.883 175.57 149.373 175.506 149.96ZM182.178 155L185.042 150.472L182.402 146.312H183.986L185.154 148.216C185.282 148.461 185.415 148.707 185.554 148.952C185.703 149.187 185.852 149.427 186.002 149.672H186.082C186.199 149.427 186.322 149.187 186.45 148.952C186.588 148.707 186.722 148.461 186.85 148.216L187.922 146.312H189.442L186.802 150.616L189.666 155H188.066L186.786 152.968C186.636 152.701 186.482 152.44 186.322 152.184C186.172 151.917 186.012 151.661 185.842 151.416H185.762C185.623 151.661 185.479 151.917 185.33 152.184C185.191 152.44 185.042 152.701 184.882 152.968L183.714 155H182.178ZM193.63 155.208C193.022 155.208 192.536 155.091 192.174 154.856C191.811 154.611 191.55 154.269 191.39 153.832C191.24 153.395 191.166 152.888 191.166 152.312V147.496H189.87V146.392L191.246 146.312L191.406 143.864H192.622V146.312H194.99V147.496H192.622V152.36C192.622 152.883 192.718 153.293 192.91 153.592C193.112 153.88 193.464 154.024 193.966 154.024C194.126 154.024 194.296 154.003 194.478 153.96C194.659 153.907 194.819 153.848 194.958 153.784L195.246 154.888C195 154.973 194.739 155.048 194.462 155.112C194.184 155.176 193.907 155.208 193.63 155.208ZM201.895 155L199.479 146.312H200.967L202.263 151.336C202.359 151.752 202.444 152.157 202.519 152.552C202.604 152.947 202.69 153.347 202.775 153.752H202.855C202.951 153.347 203.042 152.947 203.127 152.552C203.223 152.157 203.324 151.752 203.431 151.336L204.791 146.312H206.215L207.575 151.336C207.682 151.752 207.783 152.157 207.879 152.552C207.986 152.947 208.087 153.347 208.183 153.752H208.263C208.348 153.347 208.434 152.947 208.519 152.552C208.604 152.157 208.695 151.752 208.791 151.336L210.055 146.312H211.463L209.111 155H207.335L206.087 150.312C205.98 149.907 205.879 149.501 205.783 149.096C205.687 148.68 205.591 148.253 205.495 147.816H205.415C205.319 148.253 205.223 148.68 205.127 149.096C205.042 149.512 204.94 149.928 204.823 150.344L203.591 155H201.895ZM213.347 155V146.312H214.547L214.691 147.896H214.723C215.022 147.341 215.384 146.904 215.811 146.584C216.248 146.253 216.707 146.088 217.187 146.088C217.39 146.088 217.56 146.104 217.699 146.136C217.848 146.157 217.987 146.205 218.115 146.28L217.843 147.544C217.694 147.501 217.56 147.469 217.443 147.448C217.326 147.416 217.176 147.4 216.995 147.4C216.643 147.4 216.264 147.555 215.859 147.864C215.454 148.163 215.107 148.68 214.819 149.416V155H213.347ZM221.081 155.208C220.601 155.208 220.169 155.112 219.785 154.92C219.401 154.728 219.097 154.451 218.873 154.088C218.66 153.715 218.553 153.267 218.553 152.744C218.553 151.795 218.975 151.069 219.817 150.568C220.671 150.056 222.025 149.699 223.881 149.496C223.881 149.123 223.828 148.771 223.721 148.44C223.625 148.099 223.449 147.827 223.193 147.624C222.937 147.411 222.569 147.304 222.089 147.304C221.588 147.304 221.113 147.405 220.665 147.608C220.228 147.8 219.833 148.008 219.481 148.232L218.921 147.224C219.188 147.053 219.497 146.883 219.849 146.712C220.201 146.531 220.585 146.381 221.001 146.264C221.417 146.147 221.86 146.088 222.329 146.088C223.033 146.088 223.604 146.237 224.041 146.536C224.489 146.835 224.815 147.251 225.017 147.784C225.231 148.307 225.337 148.931 225.337 149.656V155H224.137L224.009 153.96H223.961C223.556 154.301 223.108 154.595 222.617 154.84C222.137 155.085 221.625 155.208 221.081 155.208ZM221.497 154.024C221.913 154.024 222.308 153.928 222.681 153.736C223.065 153.544 223.465 153.261 223.881 152.888V150.472C222.911 150.579 222.137 150.733 221.561 150.936C220.985 151.128 220.575 151.368 220.329 151.656C220.084 151.933 219.961 152.264 219.961 152.648C219.961 153.149 220.111 153.507 220.409 153.72C220.708 153.923 221.071 154.024 221.497 154.024ZM228.097 158.664V146.312H229.297L229.441 147.32H229.473C229.868 146.989 230.3 146.701 230.769 146.456C231.249 146.211 231.74 146.088 232.241 146.088C232.988 146.088 233.617 146.275 234.129 146.648C234.652 147.011 235.041 147.523 235.297 148.184C235.564 148.845 235.697 149.624 235.697 150.52C235.697 151.512 235.516 152.36 235.153 153.064C234.801 153.757 234.337 154.291 233.761 154.664C233.196 155.027 232.582 155.208 231.921 155.208C231.526 155.208 231.126 155.123 230.721 154.952C230.316 154.771 229.916 154.52 229.521 154.2L229.569 155.72V158.664H228.097ZM231.681 153.976C232.161 153.976 232.588 153.843 232.961 153.576C233.345 153.299 233.644 152.904 233.857 152.392C234.07 151.869 234.177 151.251 234.177 150.536C234.177 149.896 234.097 149.336 233.937 148.856C233.788 148.365 233.548 147.987 233.217 147.72C232.886 147.453 232.438 147.32 231.873 147.32C231.51 147.32 231.137 147.421 230.753 147.624C230.38 147.827 229.985 148.12 229.569 148.504V153.08C229.953 153.411 230.332 153.645 230.705 153.784C231.078 153.912 231.404 153.976 231.681 153.976ZM240.213 155.208C239.605 155.208 239.013 155.096 238.437 154.872C237.871 154.637 237.386 154.349 236.981 154.008L237.685 153.032C238.069 153.341 238.463 153.592 238.869 153.784C239.274 153.976 239.738 154.072 240.261 154.072C240.837 154.072 241.263 153.944 241.541 153.688C241.829 153.421 241.973 153.096 241.973 152.712C241.973 152.413 241.871 152.168 241.669 151.976C241.477 151.773 241.226 151.603 240.917 151.464C240.618 151.315 240.309 151.181 239.989 151.064C239.583 150.904 239.183 150.728 238.789 150.536C238.405 150.333 238.085 150.077 237.829 149.768C237.583 149.448 237.461 149.043 237.461 148.552C237.461 148.083 237.578 147.667 237.813 147.304C238.047 146.931 238.389 146.637 238.837 146.424C239.285 146.2 239.823 146.088 240.453 146.088C240.986 146.088 241.482 146.184 241.941 146.376C242.41 146.568 242.81 146.803 243.141 147.08L242.437 147.992C242.138 147.779 241.829 147.597 241.509 147.448C241.199 147.299 240.853 147.224 240.469 147.224C239.914 147.224 239.503 147.352 239.237 147.608C238.981 147.853 238.853 148.147 238.853 148.488C238.853 148.755 238.938 148.979 239.109 149.16C239.29 149.341 239.525 149.496 239.813 149.624C240.101 149.741 240.405 149.864 240.725 149.992C241.045 150.109 241.359 150.237 241.669 150.376C241.989 150.515 242.271 150.68 242.517 150.872C242.773 151.064 242.975 151.304 243.125 151.592C243.285 151.869 243.365 152.216 243.365 152.632C243.365 153.101 243.242 153.533 242.997 153.928C242.762 154.323 242.41 154.637 241.941 154.872C241.482 155.096 240.906 155.208 240.213 155.208ZM249.003 155V146.312H250.475V155H249.003ZM249.739 144.52C249.451 144.52 249.217 144.435 249.035 144.264C248.865 144.083 248.779 143.843 248.779 143.544C248.779 143.256 248.865 143.027 249.035 142.856C249.217 142.685 249.451 142.6 249.739 142.6C250.027 142.6 250.262 142.685 250.443 142.856C250.625 143.027 250.715 143.256 250.715 143.544C250.715 143.843 250.625 144.083 250.443 144.264C250.262 144.435 250.027 144.52 249.739 144.52ZM253.41 155V146.312H254.61L254.754 147.576H254.786C255.202 147.16 255.639 146.808 256.098 146.52C256.567 146.232 257.1 146.088 257.698 146.088C258.615 146.088 259.287 146.381 259.714 146.968C260.14 147.544 260.354 148.387 260.354 149.496V155H258.898V149.688C258.898 148.867 258.764 148.275 258.498 147.912C258.242 147.549 257.826 147.368 257.25 147.368C256.802 147.368 256.402 147.48 256.049 147.704C255.698 147.928 255.308 148.259 254.882 148.696V155H253.41ZM265.447 155.208C264.839 155.208 264.247 155.096 263.671 154.872C263.106 154.637 262.62 154.349 262.215 154.008L262.919 153.032C263.303 153.341 263.698 153.592 264.103 153.784C264.508 153.976 264.972 154.072 265.495 154.072C266.071 154.072 266.498 153.944 266.775 153.688C267.063 153.421 267.207 153.096 267.207 152.712C267.207 152.413 267.106 152.168 266.903 151.976C266.711 151.773 266.46 151.603 266.151 151.464C265.852 151.315 265.543 151.181 265.223 151.064C264.818 150.904 264.418 150.728 264.023 150.536C263.639 150.333 263.319 150.077 263.063 149.768C262.818 149.448 262.695 149.043 262.695 148.552C262.695 148.083 262.812 147.667 263.047 147.304C263.282 146.931 263.623 146.637 264.071 146.424C264.519 146.2 265.058 146.088 265.687 146.088C266.22 146.088 266.716 146.184 267.175 146.376C267.644 146.568 268.044 146.803 268.375 147.08L267.671 147.992C267.372 147.779 267.063 147.597 266.743 147.448C266.434 147.299 266.087 147.224 265.703 147.224C265.148 147.224 264.738 147.352 264.471 147.608C264.215 147.853 264.087 148.147 264.087 148.488C264.087 148.755 264.172 148.979 264.343 149.16C264.524 149.341 264.759 149.496 265.047 149.624C265.335 149.741 265.639 149.864 265.959 149.992C266.279 150.109 266.594 150.237 266.903 150.376C267.223 150.515 267.506 150.68 267.751 150.872C268.007 151.064 268.21 151.304 268.359 151.592C268.519 151.869 268.599 152.216 268.599 152.632C268.599 153.101 268.476 153.533 268.231 153.928C267.996 154.323 267.644 154.637 267.175 154.872C266.716 155.096 266.14 155.208 265.447 155.208ZM270.66 155V146.312H272.132V155H270.66ZM271.396 144.52C271.108 144.52 270.873 144.435 270.692 144.264C270.521 144.083 270.436 143.843 270.436 143.544C270.436 143.256 270.521 143.027 270.692 142.856C270.873 142.685 271.108 142.6 271.396 142.6C271.684 142.6 271.918 142.685 272.1 142.856C272.281 143.027 272.372 143.256 272.372 143.544C272.372 143.843 272.281 144.083 272.1 144.264C271.918 144.435 271.684 144.52 271.396 144.52ZM278.026 155.208C277.3 155.208 276.666 155.032 276.122 154.68C275.588 154.328 275.172 153.816 274.874 153.144C274.586 152.461 274.442 151.635 274.442 150.664C274.442 149.725 274.618 148.915 274.97 148.232C275.322 147.549 275.78 147.021 276.346 146.648C276.922 146.275 277.54 146.088 278.202 146.088C278.714 146.088 279.151 146.179 279.514 146.36C279.887 146.531 280.266 146.776 280.65 147.096L280.57 145.608V142.264H282.042V155H280.842L280.714 153.976H280.666C280.324 154.317 279.93 154.611 279.482 154.856C279.034 155.091 278.548 155.208 278.026 155.208ZM278.346 153.976C278.751 153.976 279.135 153.88 279.498 153.688C279.86 153.485 280.218 153.187 280.57 152.792V148.232C280.207 147.901 279.855 147.667 279.514 147.528C279.172 147.389 278.82 147.32 278.458 147.32C277.999 147.32 277.578 147.464 277.194 147.752C276.82 148.029 276.516 148.419 276.282 148.92C276.058 149.411 275.946 149.987 275.946 150.648C275.946 151.341 276.042 151.939 276.234 152.44C276.426 152.941 276.698 153.325 277.05 153.592C277.412 153.848 277.844 153.976 278.346 153.976ZM288.508 155.208C287.729 155.208 287.025 155.027 286.396 154.664C285.766 154.301 285.265 153.784 284.892 153.112C284.529 152.429 284.348 151.613 284.348 150.664C284.348 149.949 284.454 149.315 284.668 148.76C284.881 148.195 285.169 147.715 285.532 147.32C285.905 146.915 286.326 146.611 286.796 146.408C287.265 146.195 287.745 146.088 288.236 146.088C288.982 146.088 289.612 146.253 290.124 146.584C290.636 146.915 291.025 147.389 291.292 148.008C291.569 148.616 291.708 149.336 291.708 150.168C291.708 150.328 291.702 150.477 291.692 150.616C291.681 150.755 291.665 150.883 291.644 151H285.788C285.82 151.619 285.958 152.157 286.204 152.616C286.46 153.064 286.796 153.416 287.212 153.672C287.628 153.917 288.113 154.04 288.668 154.04C289.094 154.04 289.478 153.981 289.82 153.864C290.172 153.736 290.513 153.565 290.844 153.352L291.356 154.328C290.982 154.573 290.561 154.781 290.092 154.952C289.622 155.123 289.094 155.208 288.508 155.208ZM285.772 149.96H290.428C290.428 149.085 290.236 148.419 289.852 147.96C289.478 147.491 288.95 147.256 288.268 147.256C287.862 147.256 287.478 147.363 287.116 147.576C286.764 147.789 286.465 148.093 286.22 148.488C285.985 148.883 285.836 149.373 285.772 149.96ZM28.192 179.208C27.584 179.208 27.0987 179.091 26.736 178.856C26.3733 178.611 26.112 178.269 25.952 177.832C25.8027 177.395 25.728 176.888 25.728 176.312V171.496H24.432V170.392L25.808 170.312L25.968 167.864H27.184V170.312H29.552V171.496H27.184V176.36C27.184 176.883 27.28 177.293 27.472 177.592C27.6747 177.88 28.0267 178.024 28.528 178.024C28.688 178.024 28.8587 178.003 29.04 177.96C29.2213 177.907 29.3813 177.848 29.52 177.784L29.808 178.888C29.5627 178.973 29.3013 179.048 29.024 179.112C28.7467 179.176 28.4693 179.208 28.192 179.208ZM31.5033 179V166.264H32.9753V169.752L32.9113 171.544C33.3166 171.139 33.7486 170.797 34.2073 170.52C34.6659 170.232 35.1939 170.088 35.7913 170.088C36.7086 170.088 37.3806 170.381 37.8073 170.968C38.2339 171.544 38.4473 172.387 38.4473 173.496V179H36.9913V173.688C36.9913 172.867 36.8579 172.275 36.5913 171.912C36.3353 171.549 35.9193 171.368 35.3433 171.368C34.8953 171.368 34.4953 171.48 34.1432 171.704C33.7913 171.928 33.4019 172.259 32.9753 172.696V179H31.5033ZM44.742 179.208C43.9633 179.208 43.2593 179.027 42.63 178.664C42.0007 178.301 41.4993 177.784 41.126 177.112C40.7633 176.429 40.582 175.613 40.582 174.664C40.582 173.949 40.6887 173.315 40.902 172.76C41.1153 172.195 41.4033 171.715 41.766 171.32C42.1393 170.915 42.5607 170.611 43.03 170.408C43.4993 170.195 43.9793 170.088 44.47 170.088C45.2167 170.088 45.846 170.253 46.358 170.584C46.87 170.915 47.2593 171.389 47.526 172.008C47.8033 172.616 47.942 173.336 47.942 174.168C47.942 174.328 47.9367 174.477 47.926 174.616C47.9153 174.755 47.8993 174.883 47.878 175H42.022C42.054 175.619 42.1927 176.157 42.438 176.616C42.694 177.064 43.03 177.416 43.446 177.672C43.862 177.917 44.3473 178.04 44.902 178.04C45.3287 178.04 45.7127 177.981 46.054 177.864C46.406 177.736 46.7473 177.565 47.078 177.352L47.59 178.328C47.2167 178.573 46.7953 178.781 46.326 178.952C45.8567 179.123 45.3287 179.208 44.742 179.208ZM42.006 173.96H46.662C46.662 173.085 46.47 172.419 46.086 171.96C45.7127 171.491 45.1847 171.256 44.502 171.256C44.0967 171.256 43.7127 171.363 43.35 171.576C42.998 171.789 42.6993 172.093 42.454 172.488C42.2193 172.883 42.07 173.373 42.006 173.96ZM53.8995 179V168.92C53.8995 168.333 53.9902 167.827 54.1715 167.4C54.3528 166.973 54.6302 166.643 55.0035 166.408C55.3768 166.173 55.8515 166.056 56.4275 166.056C56.6942 166.056 56.9502 166.083 57.1955 166.136C57.4515 166.189 57.6808 166.253 57.8835 166.328L57.5635 167.464C57.2435 167.304 56.9182 167.224 56.5875 167.224C56.1715 167.224 55.8622 167.368 55.6595 167.656C55.4568 167.944 55.3555 168.371 55.3555 168.936V179H53.8995ZM52.7155 171.496V170.392L53.9635 170.312H57.1955V171.496H52.7155ZM58.8595 179V170.312H60.3315V179H58.8595ZM59.5955 168.52C59.3182 168.52 59.0888 168.435 58.9075 168.264C58.7262 168.083 58.6355 167.843 58.6355 167.544C58.6355 167.256 58.7262 167.027 58.9075 166.856C59.0888 166.685 59.3182 166.6 59.5955 166.6C59.8835 166.6 60.1182 166.685 60.2995 166.856C60.4915 167.027 60.5875 167.256 60.5875 167.544C60.5875 167.843 60.4915 168.083 60.2995 168.264C60.1182 168.435 59.8835 168.52 59.5955 168.52ZM62.0213 179L64.8853 174.472L62.2453 170.312H63.8293L64.9973 172.216C65.1253 172.461 65.2586 172.707 65.3973 172.952C65.5466 173.187 65.6959 173.427 65.8453 173.672H65.9253C66.0426 173.427 66.1653 173.187 66.2933 172.952C66.4319 172.707 66.5653 172.461 66.6933 172.216L67.7653 170.312H69.2853L66.6453 174.616L69.5093 179H67.9093L66.6293 176.968C66.4799 176.701 66.3253 176.44 66.1653 176.184C66.0159 175.917 65.8559 175.661 65.6853 175.416H65.6053C65.4666 175.661 65.3226 175.917 65.1733 176.184C65.0346 176.44 64.8853 176.701 64.7253 176.968L63.5573 179H62.0213ZM74.3983 179.208C73.6196 179.208 72.9156 179.027 72.2863 178.664C71.6569 178.301 71.1556 177.784 70.7823 177.112C70.4196 176.429 70.2383 175.613 70.2383 174.664C70.2383 173.949 70.3449 173.315 70.5583 172.76C70.7716 172.195 71.0596 171.715 71.4223 171.32C71.7956 170.915 72.2169 170.611 72.6863 170.408C73.1556 170.195 73.6356 170.088 74.1263 170.088C74.8729 170.088 75.5023 170.253 76.0143 170.584C76.5263 170.915 76.9156 171.389 77.1823 172.008C77.4596 172.616 77.5983 173.336 77.5983 174.168C77.5983 174.328 77.5929 174.477 77.5823 174.616C77.5716 174.755 77.5556 174.883 77.5343 175H71.6783C71.7103 175.619 71.8489 176.157 72.0943 176.616C72.3503 177.064 72.6863 177.416 73.1023 177.672C73.5183 177.917 74.0036 178.04 74.5583 178.04C74.9849 178.04 75.3689 177.981 75.7103 177.864C76.0623 177.736 76.4036 177.565 76.7343 177.352L77.2463 178.328C76.8729 178.573 76.4516 178.781 75.9823 178.952C75.5129 179.123 74.9849 179.208 74.3983 179.208ZM71.6623 173.96H76.3183C76.3183 173.085 76.1263 172.419 75.7423 171.96C75.3689 171.491 74.8409 171.256 74.1583 171.256C73.7529 171.256 73.3689 171.363 73.0063 171.576C72.6543 171.789 72.3556 172.093 72.1103 172.488C71.8756 172.883 71.7263 173.373 71.6623 173.96ZM82.6976 179.208C81.9723 179.208 81.3376 179.032 80.7936 178.68C80.2603 178.328 79.8443 177.816 79.5456 177.144C79.2576 176.461 79.1136 175.635 79.1136 174.664C79.1136 173.725 79.2896 172.915 79.6416 172.232C79.9936 171.549 80.4523 171.021 81.0176 170.648C81.5936 170.275 82.2123 170.088 82.8736 170.088C83.3856 170.088 83.823 170.179 84.1856 170.36C84.559 170.531 84.9376 170.776 85.3216 171.096L85.2416 169.608V166.264H86.7136V179H85.5136L85.3856 177.976H85.3376C84.9963 178.317 84.6016 178.611 84.1536 178.856C83.7056 179.091 83.2203 179.208 82.6976 179.208ZM83.0176 177.976C83.423 177.976 83.807 177.88 84.1696 177.688C84.5323 177.485 84.8896 177.187 85.2416 176.792V172.232C84.879 171.901 84.527 171.667 84.1856 171.528C83.8443 171.389 83.4923 171.32 83.1296 171.32C82.671 171.32 82.2496 171.464 81.8656 171.752C81.4923 172.029 81.1883 172.419 80.9536 172.92C80.7296 173.411 80.6176 173.987 80.6176 174.648C80.6176 175.341 80.7136 175.939 80.9056 176.44C81.0976 176.941 81.3696 177.325 81.7216 177.592C82.0843 177.848 82.5163 177.976 83.0176 177.976ZM94.6136 179L92.1976 170.312H93.6856L94.9816 175.336C95.0776 175.752 95.163 176.157 95.2376 176.552C95.323 176.947 95.4083 177.347 95.4936 177.752H95.5736C95.6696 177.347 95.7603 176.947 95.8456 176.552C95.9416 176.157 96.043 175.752 96.1496 175.336L97.5096 170.312H98.9336L100.294 175.336C100.4 175.752 100.502 176.157 100.598 176.552C100.704 176.947 100.806 177.347 100.902 177.752H100.982C101.067 177.347 101.152 176.947 101.238 176.552C101.323 176.157 101.414 175.752 101.51 175.336L102.774 170.312H104.182L101.83 179H100.054L98.8056 174.312C98.699 173.907 98.5976 173.501 98.5016 173.096C98.4056 172.68 98.3096 172.253 98.2136 171.816H98.1336C98.0376 172.253 97.9416 172.68 97.8456 173.096C97.7603 173.512 97.659 173.928 97.5416 174.344L96.3096 179H94.6136ZM106.066 179V170.312H107.538V179H106.066ZM106.802 168.52C106.514 168.52 106.279 168.435 106.098 168.264C105.927 168.083 105.842 167.843 105.842 167.544C105.842 167.256 105.927 167.027 106.098 166.856C106.279 166.685 106.514 166.6 106.802 166.6C107.09 166.6 107.324 166.685 107.506 166.856C107.687 167.027 107.778 167.256 107.778 167.544C107.778 167.843 107.687 168.083 107.506 168.264C107.324 168.435 107.09 168.52 106.802 168.52ZM113.432 179.208C112.707 179.208 112.072 179.032 111.528 178.68C110.995 178.328 110.579 177.816 110.28 177.144C109.992 176.461 109.848 175.635 109.848 174.664C109.848 173.725 110.024 172.915 110.376 172.232C110.728 171.549 111.187 171.021 111.752 170.648C112.328 170.275 112.947 170.088 113.608 170.088C114.12 170.088 114.557 170.179 114.92 170.36C115.293 170.531 115.672 170.776 116.056 171.096L115.976 169.608V166.264H117.448V179H116.248L116.12 177.976H116.072C115.731 178.317 115.336 178.611 114.888 178.856C114.44 179.091 113.955 179.208 113.432 179.208ZM113.752 177.976C114.157 177.976 114.541 177.88 114.904 177.688C115.267 177.485 115.624 177.187 115.976 176.792V172.232C115.613 171.901 115.261 171.667 114.92 171.528C114.579 171.389 114.227 171.32 113.864 171.32C113.405 171.32 112.984 171.464 112.6 171.752C112.227 172.029 111.923 172.419 111.688 172.92C111.464 173.411 111.352 173.987 111.352 174.648C111.352 175.341 111.448 175.939 111.64 176.44C111.832 176.941 112.104 177.325 112.456 177.592C112.819 177.848 113.251 177.976 113.752 177.976ZM123.114 179.208C122.506 179.208 122.021 179.091 121.658 178.856C121.295 178.611 121.034 178.269 120.874 177.832C120.725 177.395 120.65 176.888 120.65 176.312V171.496H119.354V170.392L120.73 170.312L120.89 167.864H122.106V170.312H124.474V171.496H122.106V176.36C122.106 176.883 122.202 177.293 122.394 177.592C122.597 177.88 122.949 178.024 123.45 178.024C123.61 178.024 123.781 178.003 123.962 177.96C124.143 177.907 124.303 177.848 124.442 177.784L124.73 178.888C124.485 178.973 124.223 179.048 123.946 179.112C123.669 179.176 123.391 179.208 123.114 179.208ZM126.425 179V166.264H127.897V169.752L127.833 171.544C128.238 171.139 128.67 170.797 129.129 170.52C129.588 170.232 130.116 170.088 130.713 170.088C131.63 170.088 132.302 170.381 132.729 170.968C133.156 171.544 133.369 172.387 133.369 173.496V179H131.913V173.688C131.913 172.867 131.78 172.275 131.513 171.912C131.257 171.549 130.841 171.368 130.265 171.368C129.817 171.368 129.417 171.48 129.065 171.704C128.713 171.928 128.324 172.259 127.897 172.696V179H126.425Z" fill="#1A1A1A"/>
</svg>
