<svg width="720" height="140" viewBox="0 0 720 140" fill="none" xmlns="http://www.w3.org/2000/svg">
<rect width="720" height="140" fill="#F7F7F7"/>
<path d="M24.704 27.928H39.344V29.576H24.704V27.928ZM25.84 21.96H38.24V23.592H25.84V21.96ZM27.792 34.184H36.32V35.832H27.792V34.184ZM26.656 30.712H37.44V36.44H35.456V32.344H28.544V36.44H26.656V30.712ZM29.808 22.616H31.792C31.7067 23.1173 31.6053 23.6347 31.488 24.168C31.3813 24.7013 31.2693 25.2347 31.152 25.768C31.0453 26.3013 30.9333 26.808 30.816 27.288C30.7093 27.768 30.608 28.2 30.512 28.584H28.464C28.5813 28.1893 28.6987 27.7467 28.816 27.256C28.944 26.7653 29.0667 26.2533 29.184 25.72C29.3013 25.1867 29.4133 24.6587 29.52 24.136C29.6267 23.6027 29.7227 23.096 29.808 22.616ZM26.608 24.872H34.992V26.456H26.608V24.872ZM34.688 24.872H34.864L35.184 24.808L36.576 24.888C36.5547 25.5707 36.5173 26.2587 36.464 26.952C36.4107 27.6453 36.3573 28.2853 36.304 28.872L34.432 28.76C34.4747 28.3547 34.512 27.9227 34.544 27.464C34.576 27.0053 34.6027 26.568 34.624 26.152C34.656 25.7253 34.6773 25.368 34.688 25.08V24.872ZM41.536 27.912H54.576V29.112H41.536V27.912ZM49.728 22.248H54.768V23.352H49.728V22.248ZM49.776 23.848H54.496V24.904H49.776V23.848ZM41.344 22.248H46.384V23.352H41.344V22.248ZM41.712 23.848H46.384V24.904H41.712V23.848ZM49.776 25.416H55.072V26.504H49.776V25.416ZM40.912 33.88H55.088V35.128H40.912V33.88ZM48.784 21.416H50.576V27.544H48.784V21.416ZM47.056 27.032H48.96V36.424H47.056V27.032ZM40.88 25.528C41.5733 25.496 42.384 25.464 43.312 25.432C44.2507 25.3893 45.216 25.3413 46.208 25.288L46.192 26.312C45.264 26.376 44.3467 26.44 43.44 26.504C42.5333 26.5573 41.7173 26.6053 40.992 26.648L40.88 25.528ZM44.272 31.912V32.44H51.872V31.912H44.272ZM44.272 30.52V31.032H51.872V30.52H44.272ZM42.48 29.592H53.76V33.368H42.48V29.592ZM45.536 21.384H47.28V24.936C47.28 25.3413 47.216 25.7253 47.088 26.088C46.96 26.4507 46.7573 26.7867 46.48 27.096C46.2027 27.3947 45.8293 27.6613 45.36 27.896C44.8907 28.1307 44.3147 28.328 43.632 28.488C43.5787 28.3707 43.488 28.232 43.36 28.072C43.2427 27.9013 43.12 27.736 42.992 27.576C42.864 27.4053 42.7467 27.2667 42.64 27.16C43.28 27.1067 43.792 27.0107 44.176 26.872C44.5707 26.7227 44.864 26.552 45.056 26.36C45.248 26.168 45.376 25.9493 45.44 25.704C45.504 25.448 45.536 25.1867 45.536 24.92V21.384ZM62.256 25.176C62.7147 25.2187 63.1733 25.256 63.632 25.288C64.1013 25.3093 64.576 25.32 65.056 25.32C66.0373 25.32 67.0133 25.2773 67.984 25.192C68.9547 25.1067 69.8507 24.9733 70.672 24.792V26.792C69.84 26.9093 68.9387 27.0053 67.968 27.08C66.9973 27.144 66.0267 27.176 65.056 27.176C64.5867 27.176 64.1173 27.1707 63.648 27.16C63.1893 27.1387 62.7253 27.112 62.256 27.08V25.176ZM68.336 22.472C68.3147 22.6213 68.2933 22.7867 68.272 22.968C68.2613 23.1493 68.2507 23.3307 68.24 23.512C68.2293 23.6827 68.2187 23.912 68.208 24.2C68.1973 24.488 68.192 24.8133 68.192 25.176C68.192 25.528 68.192 25.9013 68.192 26.296C68.192 27.0213 68.2027 27.704 68.224 28.344C68.2453 28.9733 68.272 29.56 68.304 30.104C68.336 30.6373 68.3627 31.128 68.384 31.576C68.416 32.024 68.432 32.44 68.432 32.824C68.432 33.24 68.3733 33.624 68.256 33.976C68.1493 34.328 67.9733 34.6373 67.728 34.904C67.4827 35.1707 67.1573 35.3733 66.752 35.512C66.3573 35.6613 65.872 35.736 65.296 35.736C64.1867 35.736 63.312 35.512 62.672 35.064C62.032 34.616 61.712 33.9707 61.712 33.128C61.712 32.584 61.856 32.1093 62.144 31.704C62.432 31.288 62.8427 30.968 63.376 30.744C63.9093 30.5093 64.5387 30.392 65.264 30.392C66.0213 30.392 66.7093 30.472 67.328 30.632C67.9467 30.792 68.512 31.0053 69.024 31.272C69.536 31.5387 69.9893 31.832 70.384 32.152C70.7893 32.4613 71.152 32.76 71.472 33.048L70.368 34.728C69.76 34.152 69.168 33.656 68.592 33.24C68.016 32.824 67.44 32.504 66.864 32.28C66.2987 32.056 65.712 31.944 65.104 31.944C64.656 31.944 64.288 32.0293 64 32.2C63.7227 32.3707 63.584 32.6107 63.584 32.92C63.584 33.24 63.728 33.4747 64.016 33.624C64.304 33.7733 64.656 33.848 65.072 33.848C65.4027 33.848 65.664 33.7947 65.856 33.688C66.048 33.5707 66.1813 33.4053 66.256 33.192C66.3413 32.968 66.384 32.7013 66.384 32.392C66.384 32.1147 66.3733 31.752 66.352 31.304C66.3307 30.856 66.304 30.3547 66.272 29.8C66.2507 29.2453 66.2293 28.6693 66.208 28.072C66.1867 27.464 66.176 26.872 66.176 26.296C66.176 25.688 66.1707 25.1387 66.16 24.648C66.16 24.1467 66.16 23.7733 66.16 23.528C66.16 23.4107 66.1493 23.2453 66.128 23.032C66.1067 22.8187 66.08 22.632 66.048 22.472H68.336ZM60.528 22.648C60.496 22.7547 60.448 22.904 60.384 23.096C60.3307 23.288 60.2827 23.4747 60.24 23.656C60.208 23.8373 60.1813 23.976 60.16 24.072C60.1067 24.296 60.048 24.6 59.984 24.984C59.92 25.3573 59.8507 25.784 59.776 26.264C59.712 26.7333 59.648 27.2187 59.584 27.72C59.52 28.2107 59.472 28.68 59.44 29.128C59.408 29.5653 59.392 29.944 59.392 30.264C59.392 30.424 59.392 30.6 59.392 30.792C59.4027 30.9733 59.424 31.144 59.456 31.304C59.5307 31.112 59.6053 30.9253 59.68 30.744C59.7653 30.5627 59.8507 30.3813 59.936 30.2C60.0213 30.0187 60.1013 29.8373 60.176 29.656L61.152 30.456C61.0027 30.8933 60.848 31.352 60.688 31.832C60.5387 32.312 60.4 32.7653 60.272 33.192C60.1547 33.6187 60.064 33.976 60 34.264C59.9787 34.3707 59.9573 34.4987 59.936 34.648C59.9253 34.7973 59.92 34.92 59.92 35.016C59.92 35.1013 59.92 35.2027 59.92 35.32C59.9307 35.448 59.9413 35.5653 59.952 35.672L58.144 35.816C57.9733 35.2507 57.824 34.5307 57.696 33.656C57.568 32.7707 57.504 31.784 57.504 30.696C57.504 30.0987 57.5307 29.4747 57.584 28.824C57.6373 28.1627 57.696 27.528 57.76 26.92C57.8347 26.312 57.9093 25.7573 57.984 25.256C58.0587 24.744 58.1173 24.3333 58.16 24.024C58.192 23.8 58.224 23.5493 58.256 23.272C58.288 22.984 58.3093 22.712 58.32 22.456L60.528 22.648ZM77.696 23.496H87.328V25.224H77.696V23.496ZM79.552 21.4H81.392V27.032H79.552V21.4ZM83.568 21.4H85.424V27.032H83.568V21.4ZM78.224 27.528H86.832V36.264H85.008V29.192H79.968V36.344H78.224V27.528ZM79.216 30.712H85.792V32.344H79.216V30.712ZM79.264 33.912H85.84V35.592H79.264V33.912ZM81.6 28.344H83.312V35.144H81.6V28.344ZM72.752 22.696L74.096 21.688C74.8427 22.3173 75.44 22.968 75.888 23.64C76.3467 24.3013 76.688 24.984 76.912 25.688C77.136 26.392 77.2853 27.112 77.36 27.848C77.4453 28.584 77.488 29.3413 77.488 30.12C77.488 30.8453 77.4613 31.5547 77.408 32.248C77.3653 32.9413 77.2747 33.5653 77.136 34.12C77.008 34.6747 76.8267 35.1173 76.592 35.448C76.464 35.608 76.3147 35.7413 76.144 35.848C75.984 35.9547 75.8027 36.0293 75.6 36.072C75.3013 36.1467 74.9813 36.1893 74.64 36.2C74.3093 36.2107 73.9627 36.2107 73.6 36.2C73.6 35.8907 73.5573 35.5707 73.472 35.24C73.3867 34.92 73.264 34.6267 73.104 34.36C73.4773 34.392 73.7973 34.408 74.064 34.408C74.3413 34.3973 74.5547 34.3867 74.704 34.376C74.928 34.344 75.0933 34.2533 75.2 34.104C75.3173 33.9547 75.408 33.6827 75.472 33.288C75.536 32.8933 75.584 32.4187 75.616 31.864C75.648 31.3093 75.664 30.712 75.664 30.072C75.664 29.1013 75.5893 28.1947 75.44 27.352C75.3013 26.4987 75.024 25.688 74.608 24.92C74.2027 24.1413 73.584 23.4 72.752 22.696ZM75.776 27.224L77.184 28.072C76.928 28.5947 76.6027 29.1387 76.208 29.704C75.8133 30.2587 75.392 30.7867 74.944 31.288C74.5067 31.7787 74.0693 32.2 73.632 32.552C73.4827 32.3173 73.2853 32.0667 73.04 31.8C72.8053 31.5227 72.576 31.2987 72.352 31.128C72.7787 30.8507 73.2107 30.4987 73.648 30.072C74.0853 29.6453 74.4907 29.1867 74.864 28.696C75.2373 28.1947 75.5413 27.704 75.776 27.224ZM76.432 21.704L77.856 22.872C77.312 23.736 76.656 24.552 75.888 25.32C75.1307 26.088 74.3413 26.7493 73.52 27.304C73.392 27.1013 73.2053 26.8667 72.96 26.6C72.7253 26.3333 72.5067 26.1147 72.304 25.944C72.8373 25.6027 73.3547 25.2027 73.856 24.744C74.368 24.2747 74.8427 23.784 75.28 23.272C75.728 22.76 76.112 22.2373 76.432 21.704ZM89.104 24.024C89.424 24.0133 89.728 24.0027 90.016 23.992C90.304 23.9707 90.5227 23.9547 90.672 23.944C91.0027 23.9227 91.408 23.8907 91.888 23.848C92.3787 23.7947 92.9227 23.7413 93.52 23.688C94.128 23.6347 94.7733 23.5813 95.456 23.528C96.1387 23.4747 96.848 23.416 97.584 23.352C98.1387 23.2987 98.688 23.256 99.232 23.224C99.7867 23.1813 100.309 23.1493 100.8 23.128C101.301 23.096 101.739 23.0747 102.112 23.064L102.128 25.112C101.84 25.112 101.509 25.1173 101.136 25.128C100.763 25.1387 100.389 25.16 100.016 25.192C99.6533 25.2133 99.328 25.2613 99.04 25.336C98.56 25.464 98.112 25.6827 97.696 25.992C97.28 26.2907 96.9173 26.648 96.608 27.064C96.3093 27.4693 96.0747 27.912 95.904 28.392C95.7333 28.8613 95.648 29.336 95.648 29.816C95.648 30.3387 95.7387 30.8027 95.92 31.208C96.112 31.6027 96.368 31.944 96.688 32.232C97.0187 32.5093 97.4027 32.744 97.84 32.936C98.2773 33.1173 98.7467 33.256 99.248 33.352C99.76 33.448 100.288 33.512 100.832 33.544L100.08 35.736C99.408 35.6933 98.752 35.5867 98.112 35.416C97.4827 35.2453 96.8907 35.0107 96.336 34.712C95.7813 34.4133 95.296 34.0507 94.88 33.624C94.4747 33.1867 94.1493 32.6907 93.904 32.136C93.6693 31.5707 93.552 30.9413 93.552 30.248C93.552 29.48 93.6747 28.776 93.92 28.136C94.1653 27.4853 94.4693 26.92 94.832 26.44C95.2053 25.9493 95.5733 25.5707 95.936 25.304C95.6373 25.3467 95.2747 25.3893 94.848 25.432C94.432 25.4747 93.9787 25.528 93.488 25.592C93.008 25.6453 92.5173 25.704 92.016 25.768C91.5147 25.832 91.0293 25.9067 90.56 25.992C90.1013 26.0667 89.6853 26.1413 89.312 26.216L89.104 24.024ZM99.84 26.68C99.9787 26.872 100.123 27.1013 100.272 27.368C100.432 27.624 100.587 27.8853 100.736 28.152C100.885 28.408 101.013 28.6427 101.12 28.856L99.904 29.4C99.7013 28.952 99.504 28.5573 99.312 28.216C99.1307 27.8747 98.912 27.528 98.656 27.176L99.84 26.68ZM101.632 25.944C101.771 26.136 101.92 26.36 102.08 26.616C102.251 26.8613 102.416 27.1173 102.576 27.384C102.736 27.64 102.869 27.8693 102.976 28.072L101.776 28.648C101.563 28.2213 101.355 27.8427 101.152 27.512C100.96 27.1813 100.731 26.84 100.464 26.488L101.632 25.944ZM111.78 22.12C111.737 22.2693 111.694 22.4187 111.652 22.568C111.62 22.7067 111.588 22.84 111.556 22.968C111.46 23.4693 111.369 24.0453 111.284 24.696C111.198 25.336 111.129 26.008 111.076 26.712C111.022 27.4053 110.996 28.088 110.996 28.76C110.996 29.592 111.038 30.36 111.124 31.064C111.209 31.7573 111.326 32.4027 111.476 33C111.636 33.5867 111.806 34.1467 111.988 34.68L110.148 35.24C109.988 34.76 109.833 34.1893 109.684 33.528C109.545 32.8667 109.428 32.1573 109.332 31.4C109.236 30.632 109.188 29.8587 109.188 29.08C109.188 28.5467 109.204 28.0133 109.236 27.48C109.278 26.936 109.321 26.4027 109.364 25.88C109.406 25.3467 109.454 24.84 109.508 24.36C109.572 23.8693 109.625 23.4267 109.668 23.032C109.678 22.8827 109.689 22.7227 109.7 22.552C109.71 22.3707 109.71 22.2107 109.7 22.072L111.78 22.12ZM108.932 23.896C109.945 23.896 110.894 23.8747 111.78 23.832C112.676 23.7893 113.534 23.7147 114.356 23.608C115.188 23.5013 116.014 23.3467 116.836 23.144L116.852 25C116.297 25.096 115.684 25.1867 115.012 25.272C114.35 25.3467 113.657 25.4107 112.932 25.464C112.217 25.5173 111.513 25.56 110.82 25.592C110.126 25.6133 109.476 25.624 108.868 25.624C108.59 25.624 108.276 25.6187 107.924 25.608C107.582 25.5973 107.241 25.5867 106.9 25.576C106.569 25.5547 106.281 25.5387 106.036 25.528L105.988 23.672C106.169 23.6933 106.43 23.7253 106.772 23.768C107.113 23.8 107.476 23.832 107.86 23.864C108.254 23.8853 108.612 23.896 108.932 23.896ZM115.828 26.232C115.796 26.328 115.748 26.4613 115.684 26.632C115.62 26.8027 115.556 26.9787 115.492 27.16C115.438 27.3413 115.396 27.4853 115.364 27.592C115.054 28.552 114.676 29.432 114.228 30.232C113.79 31.0213 113.316 31.7147 112.804 32.312C112.292 32.8987 111.785 33.3787 111.284 33.752C110.761 34.1467 110.164 34.4933 109.492 34.792C108.82 35.08 108.142 35.224 107.46 35.224C107.076 35.224 106.718 35.144 106.388 34.984C106.057 34.824 105.79 34.5733 105.588 34.232C105.396 33.88 105.3 33.4373 105.3 32.904C105.3 32.328 105.417 31.7627 105.652 31.208C105.886 30.6533 106.212 30.1253 106.628 29.624C107.044 29.1227 107.529 28.68 108.084 28.296C108.638 27.9013 109.236 27.592 109.876 27.368C110.398 27.176 110.969 27.0213 111.588 26.904C112.217 26.7867 112.836 26.728 113.444 26.728C114.436 26.728 115.321 26.9093 116.1 27.272C116.889 27.6347 117.508 28.1307 117.956 28.76C118.404 29.3893 118.628 30.1253 118.628 30.968C118.628 31.5333 118.537 32.088 118.356 32.632C118.174 33.1653 117.876 33.6613 117.46 34.12C117.054 34.5787 116.516 34.9733 115.844 35.304C115.172 35.6347 114.345 35.8747 113.364 36.024L112.308 34.344C113.332 34.2267 114.164 33.9973 114.804 33.656C115.444 33.304 115.908 32.8827 116.196 32.392C116.494 31.9013 116.644 31.3947 116.644 30.872C116.644 30.4027 116.516 29.9813 116.26 29.608C116.014 29.2347 115.641 28.936 115.14 28.712C114.649 28.4773 114.041 28.36 113.316 28.36C112.59 28.36 111.94 28.44 111.364 28.6C110.798 28.76 110.324 28.9307 109.94 29.112C109.406 29.368 108.932 29.6933 108.516 30.088C108.1 30.472 107.774 30.8773 107.54 31.304C107.305 31.7307 107.188 32.1253 107.188 32.488C107.188 32.744 107.246 32.9413 107.364 33.08C107.481 33.208 107.668 33.272 107.924 33.272C108.308 33.272 108.75 33.1493 109.252 32.904C109.753 32.648 110.249 32.2907 110.74 31.832C111.316 31.2987 111.86 30.6587 112.372 29.912C112.884 29.1653 113.305 28.2373 113.636 27.128C113.668 27.0213 113.7 26.8827 113.732 26.712C113.764 26.5413 113.79 26.3707 113.812 26.2C113.844 26.0187 113.865 25.8747 113.876 25.768L115.828 26.232ZM123.364 22.808C123.588 22.84 123.828 22.8613 124.084 22.872C124.34 22.8827 124.585 22.888 124.82 22.888C124.99 22.888 125.246 22.888 125.588 22.888C125.929 22.8773 126.313 22.8667 126.74 22.856C127.177 22.8453 127.609 22.8347 128.036 22.824C128.462 22.8133 128.846 22.8027 129.188 22.792C129.54 22.7707 129.812 22.7547 130.004 22.744C130.334 22.712 130.596 22.6853 130.788 22.664C130.98 22.632 131.124 22.6 131.22 22.568L132.26 23.992C132.078 24.1093 131.892 24.2267 131.7 24.344C131.508 24.4613 131.321 24.5893 131.14 24.728C130.926 24.8773 130.67 25.0747 130.372 25.32C130.073 25.5547 129.753 25.8053 129.412 26.072C129.081 26.3387 128.756 26.6 128.436 26.856C128.126 27.112 127.844 27.3413 127.588 27.544C127.854 27.48 128.11 27.4373 128.356 27.416C128.601 27.384 128.852 27.368 129.108 27.368C130.014 27.368 130.825 27.544 131.54 27.896C132.265 28.248 132.836 28.728 133.252 29.336C133.678 29.9333 133.892 30.6213 133.892 31.4C133.892 32.2427 133.678 33.0053 133.252 33.688C132.825 34.3707 132.18 34.9147 131.316 35.32C130.462 35.7253 129.39 35.928 128.1 35.928C127.364 35.928 126.697 35.8213 126.1 35.608C125.513 35.3947 125.049 35.0907 124.708 34.696C124.366 34.3013 124.196 33.8373 124.196 33.304C124.196 32.8667 124.313 32.4613 124.548 32.088C124.793 31.704 125.129 31.3947 125.556 31.16C125.993 30.9253 126.494 30.808 127.06 30.808C127.796 30.808 128.414 30.9573 128.916 31.256C129.428 31.544 129.817 31.9333 130.084 32.424C130.361 32.9147 130.505 33.4533 130.516 34.04L128.644 34.296C128.633 33.7093 128.484 33.24 128.196 32.888C127.918 32.5253 127.545 32.344 127.076 32.344C126.777 32.344 126.537 32.424 126.356 32.584C126.174 32.7333 126.084 32.9093 126.084 33.112C126.084 33.4107 126.233 33.6507 126.532 33.832C126.83 34.0133 127.22 34.104 127.7 34.104C128.606 34.104 129.364 33.9973 129.972 33.784C130.58 33.56 131.033 33.2453 131.332 32.84C131.641 32.424 131.796 31.9333 131.796 31.368C131.796 30.888 131.646 30.4667 131.348 30.104C131.06 29.7413 130.665 29.4587 130.164 29.256C129.662 29.0533 129.097 28.952 128.468 28.952C127.849 28.952 127.284 29.032 126.772 29.192C126.26 29.3413 125.774 29.56 125.316 29.848C124.868 30.1253 124.425 30.4667 123.988 30.872C123.561 31.2667 123.134 31.7093 122.708 32.2L121.252 30.696C121.54 30.4613 121.865 30.2 122.228 29.912C122.59 29.6133 122.958 29.304 123.332 28.984C123.716 28.664 124.073 28.3653 124.404 28.088C124.745 27.8 125.033 27.56 125.268 27.368C125.492 27.1867 125.753 26.9733 126.052 26.728C126.35 26.4827 126.66 26.232 126.98 25.976C127.3 25.7093 127.604 25.4587 127.892 25.224C128.18 24.9787 128.42 24.7707 128.612 24.6C128.452 24.6 128.244 24.6053 127.988 24.616C127.732 24.6267 127.449 24.6373 127.14 24.648C126.841 24.6587 126.537 24.6693 126.228 24.68C125.929 24.6907 125.646 24.7067 125.38 24.728C125.124 24.7387 124.91 24.7493 124.74 24.76C124.526 24.7707 124.302 24.7867 124.068 24.808C123.833 24.8293 123.62 24.856 123.428 24.888L123.364 22.808ZM138.932 31.032C139.422 31.032 139.86 31.1493 140.244 31.384C140.628 31.6187 140.937 31.9333 141.172 32.328C141.406 32.712 141.524 33.144 141.524 33.624C141.524 34.0933 141.406 34.5253 141.172 34.92C140.937 35.3147 140.628 35.6293 140.244 35.864C139.86 36.0987 139.422 36.216 138.932 36.216C138.462 36.216 138.03 36.0987 137.636 35.864C137.241 35.6293 136.926 35.3147 136.692 34.92C136.468 34.5253 136.356 34.0933 136.356 33.624C136.356 33.144 136.468 32.712 136.692 32.328C136.926 31.9333 137.241 31.6187 137.636 31.384C138.03 31.1493 138.462 31.032 138.932 31.032ZM138.948 35.064C139.342 35.064 139.678 34.9253 139.956 34.648C140.233 34.36 140.372 34.0187 140.372 33.624C140.372 33.3573 140.308 33.1173 140.18 32.904C140.052 32.68 139.876 32.504 139.652 32.376C139.438 32.248 139.204 32.184 138.948 32.184C138.681 32.184 138.441 32.248 138.228 32.376C138.014 32.504 137.838 32.68 137.7 32.904C137.572 33.1173 137.508 33.3573 137.508 33.624C137.508 33.8907 137.572 34.136 137.7 34.36C137.838 34.5733 138.014 34.744 138.228 34.872C138.441 35 138.681 35.064 138.948 35.064ZM157.956 34.056H165.108V35.8H157.956V34.056ZM157.14 22.984H162.82V24.68H157.14V22.984ZM157.572 21.32L159.732 21.736C159.273 22.5147 158.745 23.272 158.148 24.008C157.561 24.7333 156.889 25.432 156.132 26.104C155.385 26.7653 154.532 27.3787 153.572 27.944C153.476 27.784 153.348 27.6133 153.188 27.432C153.028 27.24 152.862 27.0533 152.692 26.872C152.521 26.6907 152.361 26.5467 152.212 26.44C153.097 25.9707 153.881 25.4533 154.564 24.888C155.257 24.3227 155.854 23.736 156.356 23.128C156.857 22.5093 157.262 21.9067 157.572 21.32ZM162.212 22.984H162.564L162.884 22.888L164.212 23.576C163.742 24.824 163.134 25.9653 162.388 27C161.652 28.024 160.804 28.9467 159.844 29.768C158.894 30.5893 157.865 31.304 156.756 31.912C155.646 32.52 154.494 33.0267 153.3 33.432C153.225 33.2507 153.124 33.0533 152.996 32.84C152.868 32.6267 152.734 32.4187 152.596 32.216C152.457 32.0133 152.318 31.8427 152.18 31.704C153.289 31.3947 154.361 30.9733 155.396 30.44C156.441 29.896 157.406 29.2613 158.292 28.536C159.188 27.8107 159.972 27.0107 160.644 26.136C161.316 25.2507 161.838 24.3067 162.212 23.304V22.984ZM155.044 26.488L156.484 25.256C156.857 25.512 157.246 25.8 157.652 26.12C158.068 26.44 158.457 26.7653 158.82 27.096C159.193 27.416 159.497 27.72 159.732 28.008L158.18 29.384C157.977 29.1067 157.7 28.7973 157.348 28.456C156.996 28.104 156.617 27.7573 156.212 27.416C155.806 27.0747 155.417 26.7653 155.044 26.488ZM164.228 29.192H166.212V36.44H164.228V29.192ZM158.772 29.192H165.188V30.92H158.772V36.424H156.836V30.6L158.308 29.192H158.772ZM168.564 23.784H183.124V25.528H168.564V23.784ZM170.468 29.224H174.612V30.648H170.468V29.224ZM170.468 31.688H174.612V33.096H170.468V31.688ZM177.172 26.792H178.932V33.352H177.172V26.792ZM173.956 26.616H175.796V34.552C175.796 34.9467 175.748 35.2667 175.652 35.512C175.556 35.7573 175.374 35.9493 175.108 36.088C174.83 36.2267 174.505 36.312 174.132 36.344C173.769 36.376 173.342 36.392 172.852 36.392C172.798 36.1467 172.713 35.864 172.596 35.544C172.489 35.2347 172.372 34.9733 172.244 34.76C172.532 34.7707 172.82 34.7813 173.108 34.792C173.396 34.792 173.588 34.7867 173.684 34.776C173.78 34.776 173.849 34.7547 173.892 34.712C173.934 34.6693 173.956 34.6053 173.956 34.52V26.616ZM180.372 26.344H182.26V34.328C182.26 34.7973 182.201 35.16 182.084 35.416C181.977 35.6827 181.769 35.896 181.46 36.056C181.15 36.1947 180.777 36.2853 180.34 36.328C179.902 36.3707 179.39 36.3867 178.804 36.376C178.761 36.12 178.67 35.816 178.532 35.464C178.404 35.112 178.265 34.8133 178.116 34.568C178.532 34.5893 178.921 34.6 179.284 34.6C179.657 34.6 179.908 34.5947 180.036 34.584C180.164 34.584 180.249 34.568 180.292 34.536C180.345 34.4933 180.372 34.4187 180.372 34.312V26.344ZM170.772 22.024L172.596 21.384C172.884 21.704 173.172 22.056 173.46 22.44C173.748 22.824 173.961 23.1707 174.1 23.48L172.148 24.152C172.041 23.864 171.854 23.5173 171.588 23.112C171.332 22.7067 171.06 22.344 170.772 22.024ZM178.996 21.352L181.076 21.976C180.756 22.488 180.425 22.9893 180.084 23.48C179.753 23.96 179.444 24.376 179.156 24.728L177.428 24.136C177.62 23.88 177.812 23.592 178.004 23.272C178.196 22.952 178.377 22.6267 178.548 22.296C178.729 21.9547 178.878 21.64 178.996 21.352ZM169.444 26.616H174.484V28.232H171.252V36.344H169.444V26.616ZM190.1 25.176C190.558 25.2187 191.017 25.256 191.476 25.288C191.945 25.3093 192.42 25.32 192.9 25.32C193.881 25.32 194.857 25.2773 195.828 25.192C196.798 25.1067 197.694 24.9733 198.516 24.792V26.792C197.684 26.9093 196.782 27.0053 195.812 27.08C194.841 27.144 193.87 27.176 192.9 27.176C192.43 27.176 191.961 27.1707 191.492 27.16C191.033 27.1387 190.569 27.112 190.1 27.08V25.176ZM196.18 22.472C196.158 22.6213 196.137 22.7867 196.116 22.968C196.105 23.1493 196.094 23.3307 196.084 23.512C196.073 23.6827 196.062 23.912 196.052 24.2C196.041 24.488 196.036 24.8133 196.036 25.176C196.036 25.528 196.036 25.9013 196.036 26.296C196.036 27.0213 196.046 27.704 196.068 28.344C196.089 28.9733 196.116 29.56 196.148 30.104C196.18 30.6373 196.206 31.128 196.228 31.576C196.26 32.024 196.276 32.44 196.276 32.824C196.276 33.24 196.217 33.624 196.1 33.976C195.993 34.328 195.817 34.6373 195.572 34.904C195.326 35.1707 195.001 35.3733 194.596 35.512C194.201 35.6613 193.716 35.736 193.14 35.736C192.03 35.736 191.156 35.512 190.516 35.064C189.876 34.616 189.556 33.9707 189.556 33.128C189.556 32.584 189.7 32.1093 189.988 31.704C190.276 31.288 190.686 30.968 191.22 30.744C191.753 30.5093 192.382 30.392 193.108 30.392C193.865 30.392 194.553 30.472 195.172 30.632C195.79 30.792 196.356 31.0053 196.868 31.272C197.38 31.5387 197.833 31.832 198.228 32.152C198.633 32.4613 198.996 32.76 199.316 33.048L198.212 34.728C197.604 34.152 197.012 33.656 196.436 33.24C195.86 32.824 195.284 32.504 194.708 32.28C194.142 32.056 193.556 31.944 192.948 31.944C192.5 31.944 192.132 32.0293 191.844 32.2C191.566 32.3707 191.428 32.6107 191.428 32.92C191.428 33.24 191.572 33.4747 191.86 33.624C192.148 33.7733 192.5 33.848 192.916 33.848C193.246 33.848 193.508 33.7947 193.7 33.688C193.892 33.5707 194.025 33.4053 194.1 33.192C194.185 32.968 194.228 32.7013 194.228 32.392C194.228 32.1147 194.217 31.752 194.196 31.304C194.174 30.856 194.148 30.3547 194.116 29.8C194.094 29.2453 194.073 28.6693 194.052 28.072C194.03 27.464 194.02 26.872 194.02 26.296C194.02 25.688 194.014 25.1387 194.004 24.648C194.004 24.1467 194.004 23.7733 194.004 23.528C194.004 23.4107 193.993 23.2453 193.972 23.032C193.95 22.8187 193.924 22.632 193.892 22.472H196.18ZM188.372 22.648C188.34 22.7547 188.292 22.904 188.228 23.096C188.174 23.288 188.126 23.4747 188.084 23.656C188.052 23.8373 188.025 23.976 188.004 24.072C187.95 24.296 187.892 24.6 187.828 24.984C187.764 25.3573 187.694 25.784 187.62 26.264C187.556 26.7333 187.492 27.2187 187.428 27.72C187.364 28.2107 187.316 28.68 187.284 29.128C187.252 29.5653 187.236 29.944 187.236 30.264C187.236 30.424 187.236 30.6 187.236 30.792C187.246 30.9733 187.268 31.144 187.3 31.304C187.374 31.112 187.449 30.9253 187.524 30.744C187.609 30.5627 187.694 30.3813 187.78 30.2C187.865 30.0187 187.945 29.8373 188.02 29.656L188.996 30.456C188.846 30.8933 188.692 31.352 188.532 31.832C188.382 32.312 188.244 32.7653 188.116 33.192C187.998 33.6187 187.908 33.976 187.844 34.264C187.822 34.3707 187.801 34.4987 187.78 34.648C187.769 34.7973 187.764 34.92 187.764 35.016C187.764 35.1013 187.764 35.2027 187.764 35.32C187.774 35.448 187.785 35.5653 187.796 35.672L185.988 35.816C185.817 35.2507 185.668 34.5307 185.54 33.656C185.412 32.7707 185.348 31.784 185.348 30.696C185.348 30.0987 185.374 29.4747 185.428 28.824C185.481 28.1627 185.54 27.528 185.604 26.92C185.678 26.312 185.753 25.7573 185.828 25.256C185.902 24.744 185.961 24.3333 186.004 24.024C186.036 23.8 186.068 23.5493 186.1 23.272C186.132 22.984 186.153 22.712 186.164 22.456L188.372 22.648ZM209.396 22.056C209.374 22.216 209.353 22.3973 209.332 22.6C209.321 22.792 209.31 22.9893 209.3 23.192C209.289 23.4053 209.278 23.6933 209.268 24.056C209.257 24.408 209.252 24.7973 209.252 25.224C209.252 25.6507 209.252 26.072 209.252 26.488C209.252 26.904 209.252 27.2827 209.252 27.624C209.252 28.072 209.262 28.5733 209.284 29.128C209.305 29.672 209.332 30.2267 209.364 30.792C209.406 31.3467 209.438 31.8693 209.46 32.36C209.492 32.84 209.508 33.24 209.508 33.56C209.508 34.008 209.39 34.4187 209.156 34.792C208.921 35.1547 208.569 35.4427 208.1 35.656C207.641 35.8693 207.06 35.976 206.356 35.976C205.076 35.976 204.105 35.7413 203.444 35.272C202.782 34.8027 202.452 34.1467 202.452 33.304C202.452 32.76 202.606 32.2853 202.916 31.88C203.236 31.464 203.689 31.1387 204.276 30.904C204.873 30.6693 205.582 30.552 206.404 30.552C207.278 30.552 208.094 30.648 208.852 30.84C209.62 31.0213 210.318 31.2613 210.948 31.56C211.577 31.8587 212.137 32.1733 212.628 32.504C213.118 32.8347 213.534 33.1333 213.876 33.4L212.724 35.192C212.34 34.8293 211.908 34.472 211.428 34.12C210.958 33.768 210.441 33.448 209.876 33.16C209.321 32.872 208.729 32.6427 208.1 32.472C207.481 32.2907 206.825 32.2 206.132 32.2C205.577 32.2 205.145 32.296 204.836 32.488C204.537 32.68 204.388 32.9147 204.388 33.192C204.388 33.3947 204.452 33.5707 204.58 33.72C204.708 33.8693 204.894 33.9813 205.14 34.056C205.385 34.1307 205.694 34.168 206.068 34.168C206.356 34.168 206.601 34.136 206.804 34.072C207.017 34.008 207.182 33.8907 207.3 33.72C207.417 33.5493 207.476 33.3093 207.476 33C207.476 32.7653 207.465 32.4293 207.444 31.992C207.433 31.5547 207.417 31.0747 207.396 30.552C207.374 30.0187 207.353 29.496 207.332 28.984C207.31 28.472 207.3 28.0187 207.3 27.624C207.3 27.24 207.3 26.84 207.3 26.424C207.31 25.9973 207.316 25.576 207.316 25.16C207.316 24.744 207.316 24.3653 207.316 24.024C207.326 23.672 207.332 23.384 207.332 23.16C207.332 23.0107 207.321 22.8293 207.3 22.616C207.289 22.392 207.268 22.2053 207.236 22.056H209.396ZM202.756 23.56C203.044 23.6027 203.364 23.6453 203.716 23.688C204.068 23.7307 204.425 23.7733 204.788 23.816C205.161 23.848 205.513 23.8747 205.844 23.896C206.174 23.9067 206.462 23.912 206.708 23.912C207.796 23.912 208.878 23.88 209.956 23.816C211.044 23.7413 212.169 23.608 213.332 23.416L213.316 25.256C212.772 25.3307 212.142 25.4 211.428 25.464C210.713 25.528 209.95 25.5813 209.14 25.624C208.34 25.656 207.534 25.672 206.724 25.672C206.393 25.672 205.982 25.6613 205.492 25.64C205.012 25.608 204.532 25.5707 204.052 25.528C203.572 25.4747 203.156 25.4267 202.804 25.384L202.756 23.56ZM202.676 27.016C202.932 27.0587 203.236 27.1013 203.588 27.144C203.94 27.1867 204.297 27.2187 204.66 27.24C205.033 27.2613 205.385 27.2827 205.716 27.304C206.046 27.3147 206.318 27.32 206.532 27.32C207.524 27.32 208.42 27.2987 209.22 27.256C210.03 27.2133 210.788 27.16 211.492 27.096C212.196 27.032 212.873 26.9573 213.524 26.872L213.508 28.76C212.953 28.824 212.414 28.8773 211.892 28.92C211.38 28.9627 210.852 29 210.308 29.032C209.774 29.064 209.198 29.0853 208.58 29.096C207.961 29.1067 207.268 29.112 206.5 29.112C206.19 29.112 205.806 29.1067 205.348 29.096C204.889 29.0747 204.42 29.048 203.94 29.016C203.47 28.984 203.054 28.9467 202.692 28.904L202.676 27.016ZM222.948 22.408C222.884 22.632 222.814 22.8987 222.74 23.208C222.676 23.5067 222.628 23.7467 222.596 23.928C222.521 24.2907 222.425 24.7333 222.308 25.256C222.201 25.7787 222.084 26.3333 221.956 26.92C221.828 27.496 221.694 28.056 221.556 28.6C221.406 29.1547 221.23 29.7627 221.028 30.424C220.836 31.0853 220.622 31.752 220.388 32.424C220.164 33.096 219.934 33.7413 219.7 34.36C219.465 34.9787 219.236 35.528 219.012 36.008L216.772 35.256C217.017 34.8507 217.268 34.3547 217.524 33.768C217.79 33.1813 218.052 32.5573 218.308 31.896C218.564 31.224 218.798 30.5573 219.012 29.896C219.225 29.224 219.406 28.6107 219.556 28.056C219.652 27.672 219.748 27.2827 219.844 26.888C219.94 26.4933 220.025 26.1093 220.1 25.736C220.185 25.3627 220.254 25.016 220.308 24.696C220.372 24.3653 220.42 24.0827 220.452 23.848C220.484 23.5493 220.505 23.2507 220.516 22.952C220.526 22.6533 220.521 22.408 220.5 22.216L222.948 22.408ZM218.868 24.808C219.518 24.808 220.196 24.776 220.9 24.712C221.604 24.648 222.313 24.5573 223.028 24.44C223.742 24.312 224.452 24.168 225.156 24.008V26.008C224.494 26.168 223.79 26.3013 223.044 26.408C222.297 26.5147 221.561 26.6 220.836 26.664C220.11 26.7173 219.444 26.744 218.836 26.744C218.452 26.744 218.105 26.7387 217.796 26.728C217.486 26.7067 217.188 26.6907 216.9 26.68L216.852 24.68C217.268 24.7227 217.625 24.7547 217.924 24.776C218.222 24.7973 218.537 24.808 218.868 24.808ZM223.892 27.256C224.34 27.2027 224.836 27.1653 225.38 27.144C225.924 27.112 226.452 27.096 226.964 27.096C227.422 27.096 227.886 27.1067 228.356 27.128C228.836 27.1493 229.31 27.1867 229.78 27.24L229.732 29.16C229.337 29.1067 228.9 29.0587 228.42 29.016C227.95 28.9733 227.47 28.952 226.98 28.952C226.425 28.952 225.897 28.968 225.396 29C224.894 29.0213 224.393 29.064 223.892 29.128V27.256ZM224.756 31.272C224.692 31.496 224.638 31.7307 224.596 31.976C224.553 32.2213 224.532 32.4293 224.532 32.6C224.532 32.7813 224.569 32.9467 224.644 33.096C224.718 33.2453 224.836 33.3787 224.996 33.496C225.156 33.6027 225.374 33.688 225.652 33.752C225.94 33.8053 226.297 33.832 226.724 33.832C227.257 33.832 227.801 33.8053 228.356 33.752C228.91 33.6987 229.476 33.6187 230.052 33.512L229.972 35.544C229.524 35.608 229.028 35.6613 228.484 35.704C227.94 35.7573 227.348 35.784 226.708 35.784C225.364 35.784 224.334 35.56 223.62 35.112C222.916 34.664 222.564 34.04 222.564 33.24C222.564 32.8667 222.59 32.4933 222.644 32.12C222.708 31.7467 222.772 31.4053 222.836 31.096L224.756 31.272ZM228.068 22.872C228.206 23.064 228.35 23.2933 228.5 23.56C228.66 23.8267 228.814 24.0933 228.964 24.36C229.113 24.6267 229.236 24.8613 229.332 25.064L228.052 25.624C227.945 25.4 227.822 25.1547 227.684 24.888C227.545 24.6213 227.401 24.3547 227.252 24.088C227.102 23.8213 226.953 23.592 226.804 23.4L228.068 22.872ZM229.956 22.152C230.105 22.344 230.26 22.5787 230.42 22.856C230.58 23.1227 230.734 23.3893 230.884 23.656C231.044 23.912 231.166 24.136 231.252 24.328L229.988 24.872C229.817 24.5307 229.614 24.152 229.38 23.736C229.145 23.32 228.916 22.9627 228.692 22.664L229.956 22.152ZM235.604 21.4L237.492 21.96C237.204 22.5467 236.862 23.1227 236.468 23.688C236.073 24.2533 235.646 24.776 235.188 25.256C234.74 25.736 234.292 26.1573 233.844 26.52C233.737 26.392 233.588 26.248 233.396 26.088C233.204 25.928 233.006 25.7733 232.804 25.624C232.601 25.4747 232.425 25.352 232.276 25.256C232.958 24.808 233.598 24.2427 234.196 23.56C234.793 22.8773 235.262 22.1573 235.604 21.4ZM235.476 23.096H246.5V24.776H235.012L235.476 23.096ZM232.628 26.824H247.092V28.536H232.628V26.824ZM232.884 30.568H246.852V32.28H232.884V30.568ZM237.636 23.688H239.236V31.464H237.636V23.688ZM234.788 23.688H236.5V31.48H234.788V23.688ZM240.42 23.688H242.02V31.48H240.42V23.688ZM243.236 23.688H244.996V31.48H243.236V23.688ZM237.156 33.176L238.932 32.984C239.038 33.464 239.129 33.9867 239.204 34.552C239.289 35.1173 239.337 35.5973 239.348 35.992L237.46 36.264C237.46 36.008 237.444 35.704 237.412 35.352C237.39 35 237.358 34.632 237.316 34.248C237.273 33.864 237.22 33.5067 237.156 33.176ZM240.34 33.224L242.132 32.92C242.27 33.2293 242.404 33.5653 242.532 33.928C242.66 34.2907 242.772 34.6427 242.868 34.984C242.964 35.3253 243.033 35.6347 243.076 35.912L241.156 36.28C241.102 35.8853 240.996 35.4 240.836 34.824C240.686 34.248 240.521 33.7147 240.34 33.224ZM243.508 33.128L245.348 32.552C245.604 32.8827 245.86 33.24 246.116 33.624C246.372 34.008 246.617 34.392 246.852 34.776C247.086 35.1493 247.268 35.4853 247.396 35.784L245.428 36.44C245.31 36.152 245.145 35.816 244.932 35.432C244.729 35.048 244.5 34.6587 244.244 34.264C243.998 33.8587 243.753 33.48 243.508 33.128ZM234.276 32.616L236.132 33.08C235.95 33.688 235.7 34.296 235.38 34.904C235.06 35.512 234.702 36.0293 234.308 36.456L232.468 35.704C232.83 35.3627 233.177 34.9093 233.508 34.344C233.838 33.7787 234.094 33.2027 234.276 32.616ZM252.004 23.56C251.961 23.752 251.924 23.9707 251.892 24.216C251.87 24.4613 251.849 24.7013 251.828 24.936C251.817 25.1707 251.812 25.3627 251.812 25.512C251.801 25.864 251.796 26.2267 251.796 26.6C251.806 26.9733 251.817 27.3573 251.828 27.752C251.849 28.136 251.876 28.52 251.908 28.904C251.982 29.672 252.089 30.3493 252.228 30.936C252.366 31.5227 252.548 31.9813 252.772 32.312C252.996 32.632 253.278 32.792 253.62 32.792C253.801 32.792 253.977 32.6907 254.148 32.488C254.329 32.2853 254.489 32.024 254.628 31.704C254.777 31.3733 254.905 31.0267 255.012 30.664C255.129 30.3013 255.23 29.96 255.316 29.64L256.916 31.592C256.564 32.52 256.212 33.2613 255.86 33.816C255.518 34.36 255.161 34.7547 254.788 35C254.414 35.2347 254.009 35.352 253.572 35.352C252.996 35.352 252.446 35.16 251.924 34.776C251.412 34.392 250.974 33.7733 250.612 32.92C250.249 32.056 249.993 30.9093 249.844 29.48C249.79 28.9893 249.748 28.472 249.716 27.928C249.694 27.384 249.678 26.8667 249.668 26.376C249.668 25.8853 249.668 25.48 249.668 25.16C249.668 24.936 249.657 24.6693 249.636 24.36C249.614 24.0507 249.582 23.7733 249.54 23.528L252.004 23.56ZM260.004 23.928C260.302 24.2907 260.59 24.7333 260.868 25.256C261.145 25.7787 261.401 26.3387 261.636 26.936C261.87 27.5333 262.078 28.1467 262.26 28.776C262.441 29.3947 262.585 30.0027 262.692 30.6C262.809 31.1867 262.884 31.7253 262.916 32.216L260.804 33.032C260.75 32.3813 260.654 31.672 260.516 30.904C260.377 30.136 260.19 29.3627 259.956 28.584C259.721 27.8053 259.438 27.0693 259.108 26.376C258.788 25.6827 258.409 25.0853 257.972 24.584L260.004 23.928ZM266.932 31.032C267.422 31.032 267.86 31.1493 268.244 31.384C268.628 31.6187 268.937 31.9333 269.172 32.328C269.406 32.712 269.524 33.144 269.524 33.624C269.524 34.0933 269.406 34.5253 269.172 34.92C268.937 35.3147 268.628 35.6293 268.244 35.864C267.86 36.0987 267.422 36.216 266.932 36.216C266.462 36.216 266.03 36.0987 265.636 35.864C265.241 35.6293 264.926 35.3147 264.692 34.92C264.468 34.5253 264.356 34.0933 264.356 33.624C264.356 33.144 264.468 32.712 264.692 32.328C264.926 31.9333 265.241 31.6187 265.636 31.384C266.03 31.1493 266.462 31.032 266.932 31.032ZM266.948 35.064C267.342 35.064 267.678 34.9253 267.956 34.648C268.233 34.36 268.372 34.0187 268.372 33.624C268.372 33.3573 268.308 33.1173 268.18 32.904C268.052 32.68 267.876 32.504 267.652 32.376C267.438 32.248 267.204 32.184 266.948 32.184C266.681 32.184 266.441 32.248 266.228 32.376C266.014 32.504 265.838 32.68 265.7 32.904C265.572 33.1173 265.508 33.3573 265.508 33.624C265.508 33.8907 265.572 34.136 265.7 34.36C265.838 34.5733 266.014 34.744 266.228 34.872C266.441 35 266.681 35.064 266.948 35.064Z" fill="#1A1A1A"/>
<path d="M32.008 68.562C31.98 68.8607 31.9567 69.1033 31.938 69.29C31.9193 69.4673 31.91 69.654 31.91 69.85C31.91 69.9713 31.91 70.158 31.91 70.41C31.91 70.662 31.91 70.9233 31.91 71.194C31.91 71.4647 31.91 71.6887 31.91 71.866H29.964C29.964 71.67 29.964 71.4367 29.964 71.166C29.964 70.8953 29.964 70.6387 29.964 70.396C29.964 70.1533 29.964 69.9713 29.964 69.85C29.964 69.654 29.9547 69.4673 29.936 69.29C29.9267 69.1033 29.8987 68.8607 29.852 68.562H32.008ZM36.726 71.516C36.67 71.6653 36.614 71.8567 36.558 72.09C36.5113 72.314 36.474 72.496 36.446 72.636C36.39 72.9627 36.32 73.294 36.236 73.63C36.1613 73.966 36.068 74.302 35.956 74.638C35.8533 74.974 35.732 75.3053 35.592 75.632C35.4613 75.9587 35.312 76.2807 35.144 76.598C34.7707 77.2793 34.2947 77.9 33.716 78.46C33.1467 79.02 32.498 79.496 31.77 79.888C31.042 80.2707 30.2627 80.574 29.432 80.798L27.976 79.118C28.2933 79.062 28.6293 78.9873 28.984 78.894C29.3387 78.7913 29.6607 78.684 29.95 78.572C30.342 78.4227 30.7293 78.236 31.112 78.012C31.504 77.7787 31.8727 77.508 32.218 77.2C32.5633 76.892 32.8667 76.5513 33.128 76.178C33.3613 75.8327 33.562 75.464 33.73 75.072C33.898 74.6707 34.0333 74.26 34.136 73.84C34.2387 73.4107 34.318 72.9907 34.374 72.58H27.43C27.43 72.7013 27.43 72.8553 27.43 73.042C27.43 73.2193 27.43 73.4153 27.43 73.63C27.43 73.8353 27.43 74.0267 27.43 74.204C27.43 74.372 27.43 74.512 27.43 74.624C27.43 74.7827 27.4347 74.96 27.444 75.156C27.4533 75.352 27.4627 75.52 27.472 75.66H25.54C25.5587 75.4827 25.5727 75.2913 25.582 75.086C25.6007 74.8713 25.61 74.6707 25.61 74.484C25.61 74.372 25.61 74.2087 25.61 73.994C25.61 73.7793 25.61 73.5507 25.61 73.308C25.61 73.056 25.61 72.818 25.61 72.594C25.61 72.37 25.61 72.1927 25.61 72.062C25.61 71.9033 25.6053 71.7073 25.596 71.474C25.5867 71.2313 25.568 71.026 25.54 70.858C25.7827 70.886 26.016 70.9047 26.24 70.914C26.464 70.9233 26.7067 70.928 26.968 70.928H34.346C34.6353 70.928 34.8687 70.914 35.046 70.886C35.2327 70.8487 35.3867 70.8113 35.508 70.774L36.726 71.516ZM39.498 76.01C40.1047 75.8793 40.7207 75.702 41.346 75.478C41.9807 75.2447 42.5733 74.9973 43.124 74.736C43.6747 74.4653 44.1367 74.2227 44.51 74.008C44.9673 73.728 45.4153 73.4153 45.854 73.07C46.302 72.7153 46.7127 72.3607 47.086 72.006C47.4593 71.6513 47.7627 71.32 47.996 71.012L49.382 72.37C49.1113 72.678 48.752 73.0187 48.304 73.392C47.8653 73.756 47.3893 74.1247 46.876 74.498C46.3627 74.862 45.8493 75.1933 45.336 75.492C45.0187 75.688 44.6547 75.8887 44.244 76.094C43.8333 76.29 43.3993 76.486 42.942 76.682C42.494 76.8687 42.0413 77.046 41.584 77.214C41.136 77.382 40.716 77.5313 40.324 77.662L39.498 76.01ZM44.342 75.1L46.246 74.736V79.72C46.246 79.8787 46.246 80.0607 46.246 80.266C46.2553 80.4713 46.2693 80.658 46.288 80.826C46.3067 81.0033 46.3253 81.1387 46.344 81.232H44.272C44.2907 81.1387 44.3 81.0033 44.3 80.826C44.3093 80.658 44.3187 80.4713 44.328 80.266C44.3373 80.0607 44.342 79.8787 44.342 79.72V75.1ZM57.096 70.004C57.0587 69.7987 57.012 69.612 56.956 69.444C56.9093 69.276 56.8627 69.108 56.816 68.94L58.79 68.618C58.8087 68.758 58.8273 68.9353 58.846 69.15C58.874 69.3553 58.9067 69.542 58.944 69.71C58.9627 69.8407 59.0047 70.0833 59.07 70.438C59.1353 70.7927 59.2147 71.222 59.308 71.726C59.4013 72.23 59.504 72.776 59.616 73.364C59.7373 73.9427 59.854 74.5307 59.966 75.128C60.078 75.716 60.1853 76.276 60.288 76.808C60.4 77.34 60.4933 77.8113 60.568 78.222C60.652 78.6327 60.7127 78.936 60.75 79.132C60.7967 79.3373 60.8527 79.5613 60.918 79.804C60.9833 80.0467 61.0487 80.28 61.114 80.504L59.084 80.868C59.0467 80.6067 59.0187 80.3547 59 80.112C58.9813 79.8787 58.9487 79.6593 58.902 79.454C58.8647 79.2673 58.8087 78.9827 58.734 78.6C58.6687 78.208 58.5847 77.7507 58.482 77.228C58.3887 76.7053 58.286 76.15 58.174 75.562C58.062 74.974 57.95 74.386 57.838 73.798C57.726 73.21 57.6187 72.6593 57.516 72.146C57.4227 71.6327 57.3387 71.1893 57.264 70.816C57.1893 70.4333 57.1333 70.1627 57.096 70.004ZM53.274 71.782C53.498 71.7727 53.7173 71.7633 53.932 71.754C54.1467 71.7353 54.3613 71.712 54.576 71.684C54.7813 71.656 55.0707 71.6187 55.444 71.572C55.8173 71.516 56.2467 71.4553 56.732 71.39C57.2173 71.3153 57.7167 71.236 58.23 71.152C58.7527 71.068 59.2567 70.9887 59.742 70.914C60.2273 70.83 60.6567 70.7553 61.03 70.69C61.4127 70.6247 61.7113 70.5733 61.926 70.536C62.15 70.4893 62.3833 70.4427 62.626 70.396C62.8687 70.34 63.074 70.2887 63.242 70.242L63.578 72.076C63.4287 72.0853 63.228 72.1087 62.976 72.146C62.724 72.1833 62.4953 72.216 62.29 72.244C62.038 72.2813 61.7067 72.3327 61.296 72.398C60.8947 72.4633 60.4467 72.538 59.952 72.622C59.4573 72.6967 58.9533 72.776 58.44 72.86C57.9267 72.9347 57.4367 73.014 56.97 73.098C56.5033 73.1727 56.0927 73.238 55.738 73.294C55.3833 73.35 55.1173 73.392 54.94 73.42C54.716 73.4667 54.506 73.5133 54.31 73.56C54.114 73.5973 53.8947 73.6487 53.652 73.714L53.274 71.782ZM53.288 75.898C53.4747 75.8887 53.708 75.87 53.988 75.842C54.2773 75.8047 54.5293 75.772 54.744 75.744C54.996 75.7067 55.332 75.6553 55.752 75.59C56.172 75.5247 56.6433 75.45 57.166 75.366C57.698 75.282 58.244 75.198 58.804 75.114C59.364 75.0207 59.91 74.9273 60.442 74.834C60.974 74.7407 61.4593 74.6567 61.898 74.582C62.3367 74.5073 62.6913 74.4467 62.962 74.4C63.2327 74.344 63.4893 74.288 63.732 74.232C63.984 74.176 64.2033 74.12 64.39 74.064L64.768 75.912C64.5813 75.9213 64.3527 75.9493 64.082 75.996C63.8207 76.0333 63.5547 76.0753 63.284 76.122C62.9853 76.1687 62.612 76.2293 62.164 76.304C61.716 76.3787 61.2213 76.4627 60.68 76.556C60.148 76.64 59.602 76.7287 59.042 76.822C58.482 76.906 57.9453 76.9947 57.432 77.088C56.9187 77.172 56.4567 77.2467 56.046 77.312C55.6353 77.3773 55.3133 77.4333 55.08 77.48C54.7813 77.536 54.5107 77.5873 54.268 77.634C54.0347 77.6807 53.8387 77.7273 53.68 77.774L53.288 75.898ZM76.122 71.432C76.122 71.6747 76.206 71.8847 76.374 72.062C76.5513 72.23 76.7613 72.314 77.004 72.314C77.256 72.314 77.466 72.23 77.634 72.062C77.8113 71.8847 77.9 71.6747 77.9 71.432C77.9 71.18 77.8113 70.97 77.634 70.802C77.466 70.6247 77.256 70.536 77.004 70.536C76.7613 70.536 76.5513 70.6247 76.374 70.802C76.206 70.97 76.122 71.18 76.122 71.432ZM75.198 71.432C75.198 71.0867 75.2773 70.7787 75.436 70.508C75.604 70.2373 75.8233 70.0227 76.094 69.864C76.3647 69.696 76.668 69.612 77.004 69.612C77.3493 69.612 77.6573 69.696 77.928 69.864C78.1987 70.0227 78.4133 70.2373 78.572 70.508C78.74 70.7787 78.824 71.0867 78.824 71.432C78.824 71.7587 78.74 72.062 78.572 72.342C78.4133 72.6127 78.1987 72.832 77.928 73C77.6573 73.1587 77.3493 73.238 77.004 73.238C76.668 73.238 76.3647 73.1587 76.094 73C75.8233 72.832 75.604 72.6127 75.436 72.342C75.2773 72.062 75.198 71.7587 75.198 71.432ZM66.49 76.01C66.7047 75.8327 66.896 75.6647 67.064 75.506C67.232 75.3473 67.428 75.1607 67.652 74.946C67.8107 74.778 67.9927 74.5773 68.198 74.344C68.4033 74.1107 68.6227 73.8493 68.856 73.56C69.0987 73.2707 69.346 72.9767 69.598 72.678C69.85 72.37 70.0973 72.0713 70.34 71.782C70.7507 71.2873 71.1753 71.0167 71.614 70.97C72.0527 70.914 72.5427 71.1473 73.084 71.67C73.4013 71.9593 73.7233 72.272 74.05 72.608C74.386 72.944 74.7127 73.28 75.03 73.616C75.3567 73.952 75.66 74.274 75.94 74.582C76.2573 74.9087 76.612 75.2867 77.004 75.716C77.4053 76.1453 77.8113 76.584 78.222 77.032C78.642 77.48 79.0293 77.8953 79.384 78.278L77.844 79.93C77.536 79.538 77.2047 79.1273 76.85 78.698C76.4953 78.2687 76.15 77.8533 75.814 77.452C75.478 77.0413 75.17 76.6773 74.89 76.36C74.694 76.1173 74.47 75.8607 74.218 75.59C73.9753 75.31 73.7327 75.0347 73.49 74.764C73.2473 74.4933 73.0233 74.2507 72.818 74.036C72.6127 73.8213 72.4493 73.6487 72.328 73.518C72.0947 73.294 71.894 73.1913 71.726 73.21C71.5673 73.2193 71.3853 73.35 71.18 73.602C71.0493 73.7793 70.8907 73.9893 70.704 74.232C70.5173 74.4747 70.326 74.7313 70.13 75.002C69.934 75.2727 69.7427 75.534 69.556 75.786C69.3787 76.038 69.22 76.2573 69.08 76.444C68.9213 76.668 68.7627 76.8967 68.604 77.13C68.4453 77.354 68.3007 77.5593 68.17 77.746L66.49 76.01ZM82.632 69.43C82.856 69.4673 83.1033 69.4953 83.374 69.514C83.6447 69.5327 83.8967 69.542 84.13 69.542C84.3073 69.542 84.55 69.542 84.858 69.542C85.166 69.542 85.5067 69.542 85.88 69.542C86.2533 69.542 86.622 69.542 86.986 69.542C87.3593 69.542 87.7 69.542 88.008 69.542C88.316 69.542 88.5493 69.542 88.708 69.542C88.9507 69.542 89.2027 69.5327 89.464 69.514C89.7253 69.4953 89.9773 69.4673 90.22 69.43V71.236C89.9773 71.2173 89.7253 71.208 89.464 71.208C89.2027 71.1987 88.9507 71.194 88.708 71.194C88.5493 71.194 88.316 71.194 88.008 71.194C87.7 71.194 87.3593 71.194 86.986 71.194C86.622 71.194 86.2533 71.194 85.88 71.194C85.516 71.194 85.1753 71.194 84.858 71.194C84.55 71.194 84.3073 71.194 84.13 71.194C83.8873 71.194 83.6307 71.1987 83.36 71.208C83.0893 71.208 82.8467 71.2173 82.632 71.236V69.43ZM81.008 73.014C81.2133 73.042 81.4327 73.0653 81.666 73.084C81.9087 73.0933 82.1373 73.098 82.352 73.098C82.4733 73.098 82.716 73.098 83.08 73.098C83.444 73.098 83.8827 73.098 84.396 73.098C84.9187 73.098 85.474 73.098 86.062 73.098C86.65 73.098 87.238 73.098 87.826 73.098C88.4233 73.098 88.9787 73.098 89.492 73.098C90.0053 73.098 90.4393 73.098 90.794 73.098C91.158 73.098 91.4007 73.098 91.522 73.098C91.6713 73.098 91.872 73.0933 92.124 73.084C92.3853 73.0653 92.6093 73.042 92.796 73.014V74.834C92.628 74.8153 92.4227 74.806 92.18 74.806C91.9373 74.7967 91.718 74.792 91.522 74.792C91.4007 74.792 91.158 74.792 90.794 74.792C90.4393 74.792 90.0053 74.792 89.492 74.792C88.9787 74.792 88.4233 74.792 87.826 74.792C87.238 74.792 86.65 74.792 86.062 74.792C85.474 74.792 84.9187 74.792 84.396 74.792C83.8827 74.792 83.444 74.792 83.08 74.792C82.716 74.792 82.4733 74.792 82.352 74.792C82.1467 74.792 81.918 74.7967 81.666 74.806C81.4233 74.8153 81.204 74.8293 81.008 74.848V73.014ZM88.176 73.994C88.176 74.8993 88.0967 75.716 87.938 76.444C87.7793 77.1627 87.5507 77.8113 87.252 78.39C87.0933 78.7073 86.8693 79.034 86.58 79.37C86.3 79.706 85.978 80.0233 85.614 80.322C85.25 80.6207 84.858 80.8727 84.438 81.078L82.8 79.888C83.2947 79.7013 83.7707 79.426 84.228 79.062C84.6853 78.6887 85.054 78.2967 85.334 77.886C85.6887 77.354 85.9267 76.7613 86.048 76.108C86.1693 75.4547 86.23 74.75 86.23 73.994H88.176ZM91.06 68.464C91.1813 68.632 91.3073 68.8327 91.438 69.066C91.578 69.2993 91.7087 69.5327 91.83 69.766C91.9607 69.9993 92.0727 70.2047 92.166 70.382L91.046 70.872C90.8967 70.5827 90.7193 70.256 90.514 69.892C90.318 69.5187 90.1267 69.1967 89.94 68.926L91.06 68.464ZM92.712 67.834C92.8333 68.0113 92.964 68.2213 93.104 68.464C93.244 68.6973 93.3793 68.9307 93.51 69.164C93.65 69.388 93.762 69.5793 93.846 69.738L92.726 70.228C92.586 69.9293 92.4087 69.598 92.194 69.234C91.9887 68.87 91.7927 68.5573 91.606 68.296L92.712 67.834ZM94.5136 76.01C95.1203 75.8793 95.7363 75.702 96.3616 75.478C96.9963 75.2447 97.589 74.9973 98.1396 74.736C98.6903 74.4653 99.1523 74.2227 99.5256 74.008C99.983 73.728 100.431 73.4153 100.87 73.07C101.318 72.7153 101.728 72.3607 102.102 72.006C102.475 71.6513 102.778 71.32 103.012 71.012L104.398 72.37C104.127 72.678 103.768 73.0187 103.32 73.392C102.881 73.756 102.405 74.1247 101.892 74.498C101.378 74.862 100.865 75.1933 100.352 75.492C100.034 75.688 99.6703 75.8887 99.2596 76.094C98.849 76.29 98.415 76.486 97.9576 76.682C97.5096 76.8687 97.057 77.046 96.5996 77.214C96.1516 77.382 95.7316 77.5313 95.3396 77.662L94.5136 76.01ZM99.3576 75.1L101.262 74.736V79.72C101.262 79.8787 101.262 80.0607 101.262 80.266C101.271 80.4713 101.285 80.658 101.304 80.826C101.322 81.0033 101.341 81.1387 101.36 81.232H99.2876C99.3063 81.1387 99.3156 81.0033 99.3156 80.826C99.325 80.658 99.3343 80.4713 99.3436 80.266C99.353 80.0607 99.3576 79.8787 99.3576 79.72V75.1ZM120.386 70.522C120.311 70.6153 120.218 70.7367 120.106 70.886C119.994 71.026 119.905 71.1473 119.84 71.25C119.625 71.614 119.34 72.034 118.986 72.51C118.631 72.9767 118.239 73.4433 117.81 73.91C117.38 74.3673 116.937 74.7593 116.48 75.086L115.024 73.924C115.304 73.756 115.579 73.56 115.85 73.336C116.12 73.112 116.368 72.8787 116.592 72.636C116.825 72.384 117.026 72.146 117.194 71.922C117.371 71.698 117.506 71.4973 117.6 71.32C117.478 71.32 117.273 71.32 116.984 71.32C116.694 71.32 116.349 71.32 115.948 71.32C115.546 71.32 115.112 71.32 114.646 71.32C114.188 71.32 113.731 71.32 113.274 71.32C112.816 71.32 112.382 71.32 111.972 71.32C111.57 71.32 111.22 71.32 110.922 71.32C110.632 71.32 110.427 71.32 110.306 71.32C110.016 71.32 109.741 71.3293 109.48 71.348C109.218 71.3667 108.924 71.39 108.598 71.418V69.472C108.868 69.5093 109.148 69.542 109.438 69.57C109.727 69.598 110.016 69.612 110.306 69.612C110.427 69.612 110.642 69.612 110.95 69.612C111.258 69.612 111.622 69.612 112.042 69.612C112.471 69.612 112.924 69.612 113.4 69.612C113.885 69.612 114.366 69.612 114.842 69.612C115.327 69.612 115.775 69.612 116.186 69.612C116.606 69.612 116.96 69.612 117.25 69.612C117.548 69.612 117.749 69.612 117.852 69.612C117.982 69.612 118.141 69.6073 118.328 69.598C118.514 69.5887 118.696 69.5747 118.874 69.556C119.06 69.5373 119.196 69.514 119.28 69.486L120.386 70.522ZM114.674 72.412C114.674 73.1027 114.66 73.77 114.632 74.414C114.604 75.058 114.524 75.6787 114.394 76.276C114.272 76.864 114.072 77.424 113.792 77.956C113.521 78.488 113.143 78.992 112.658 79.468C112.172 79.944 111.552 80.3827 110.796 80.784L109.158 79.454C109.382 79.3793 109.62 79.2813 109.872 79.16C110.124 79.0293 110.376 78.8707 110.628 78.684C111.076 78.376 111.435 78.0493 111.706 77.704C111.986 77.3587 112.2 76.9853 112.35 76.584C112.499 76.1733 112.602 75.73 112.658 75.254C112.714 74.7687 112.742 74.2413 112.742 73.672C112.742 73.4573 112.737 73.252 112.728 73.056C112.718 72.8507 112.69 72.636 112.644 72.412H114.674ZM121.534 75.828C121.748 75.66 121.944 75.492 122.122 75.324C122.308 75.1467 122.509 74.9507 122.724 74.736C122.882 74.568 123.064 74.3627 123.27 74.12C123.475 73.868 123.694 73.5973 123.928 73.308C124.161 73.0187 124.394 72.7293 124.628 72.44C124.87 72.1413 125.099 71.866 125.314 71.614C125.808 71.054 126.289 70.7553 126.756 70.718C127.222 70.6713 127.712 70.9 128.226 71.404C128.543 71.712 128.87 72.062 129.206 72.454C129.551 72.846 129.887 73.238 130.214 73.63C130.54 74.022 130.844 74.3673 131.124 74.666C131.348 74.918 131.586 75.1793 131.838 75.45C132.099 75.7207 132.374 76.0053 132.664 76.304C132.953 76.6027 133.256 76.9013 133.574 77.2C133.891 77.4987 134.213 77.7973 134.54 78.096L133.098 79.776C132.771 79.4493 132.426 79.0947 132.062 78.712C131.698 78.3293 131.338 77.9373 130.984 77.536C130.638 77.1347 130.312 76.766 130.004 76.43C129.724 76.0847 129.425 75.7207 129.108 75.338C128.8 74.946 128.501 74.5727 128.212 74.218C127.922 73.8633 127.666 73.5647 127.442 73.322C127.283 73.1353 127.138 73.0187 127.008 72.972C126.886 72.9253 126.765 72.9347 126.644 73C126.532 73.0653 126.41 73.1867 126.28 73.364C126.14 73.5413 125.976 73.7513 125.79 73.994C125.612 74.2367 125.421 74.498 125.216 74.778C125.02 75.0487 124.828 75.3147 124.642 75.576C124.455 75.828 124.282 76.052 124.124 76.248C123.965 76.4813 123.806 76.7147 123.648 76.948C123.498 77.1813 123.363 77.3913 123.242 77.578L121.534 75.828ZM142.996 68.772C142.977 68.9027 142.958 69.066 142.94 69.262C142.921 69.4487 142.907 69.6447 142.898 69.85C142.888 70.046 142.879 70.2327 142.87 70.41C142.86 70.746 142.856 71.11 142.856 71.502C142.865 71.894 142.87 72.2907 142.87 72.692C142.87 73.084 142.879 73.546 142.898 74.078C142.926 74.6007 142.958 75.142 142.996 75.702C143.033 76.262 143.061 76.7847 143.08 77.27C143.108 77.746 143.122 78.1333 143.122 78.432C143.122 78.74 143.075 79.0387 142.982 79.328C142.888 79.6173 142.73 79.874 142.506 80.098C142.282 80.3313 141.978 80.5133 141.596 80.644C141.213 80.784 140.728 80.854 140.14 80.854C139.477 80.854 138.866 80.77 138.306 80.602C137.755 80.4433 137.316 80.1773 136.99 79.804C136.663 79.4307 136.5 78.9267 136.5 78.292C136.5 77.8067 136.64 77.368 136.92 76.976C137.2 76.5747 137.62 76.2573 138.18 76.024C138.749 75.7907 139.463 75.674 140.322 75.674C141.05 75.674 141.754 75.758 142.436 75.926C143.126 76.094 143.77 76.3133 144.368 76.584C144.974 76.8453 145.52 77.144 146.006 77.48C146.5 77.8067 146.925 78.138 147.28 78.474L146.202 80.14C145.856 79.7947 145.46 79.4493 145.012 79.104C144.573 78.7587 144.092 78.446 143.57 78.166C143.047 77.886 142.487 77.662 141.89 77.494C141.302 77.3167 140.69 77.228 140.056 77.228C139.514 77.228 139.085 77.3167 138.768 77.494C138.46 77.662 138.306 77.9 138.306 78.208C138.306 78.5533 138.464 78.796 138.782 78.936C139.099 79.076 139.505 79.146 140 79.146C140.438 79.146 140.751 79.0433 140.938 78.838C141.124 78.6233 141.218 78.2827 141.218 77.816C141.218 77.5733 141.208 77.2373 141.19 76.808C141.171 76.3693 141.152 75.898 141.134 75.394C141.115 74.8807 141.096 74.386 141.078 73.91C141.059 73.434 141.05 73.028 141.05 72.692C141.05 72.412 141.05 72.1367 141.05 71.866C141.05 71.5953 141.05 71.334 141.05 71.082C141.05 70.83 141.045 70.606 141.036 70.41C141.026 70.1767 141.012 69.9573 140.994 69.752C140.984 69.5467 140.97 69.36 140.952 69.192C140.942 69.024 140.919 68.884 140.882 68.772H142.996ZM141.918 71.446C142.123 71.446 142.417 71.446 142.8 71.446C143.182 71.4367 143.602 71.4227 144.06 71.404C144.526 71.3853 144.993 71.362 145.46 71.334C145.936 71.2967 146.374 71.2593 146.776 71.222L146.832 72.888C146.44 72.9253 146.006 72.958 145.53 72.986C145.054 73.014 144.582 73.0373 144.116 73.056C143.649 73.0653 143.22 73.0747 142.828 73.084C142.445 73.0933 142.146 73.098 141.932 73.098L141.918 71.446ZM158.606 75.422C158.606 75.114 158.526 74.834 158.368 74.582C158.218 74.33 157.99 74.1293 157.682 73.98C157.383 73.8213 157.01 73.742 156.562 73.742C156.058 73.742 155.568 73.784 155.092 73.868C154.625 73.952 154.205 74.05 153.832 74.162C153.468 74.2647 153.164 74.3533 152.922 74.428C152.716 74.484 152.488 74.5633 152.236 74.666C151.993 74.7593 151.769 74.8433 151.564 74.918L151.032 72.916C151.274 72.8973 151.536 72.8647 151.816 72.818C152.096 72.7713 152.348 72.7247 152.572 72.678C152.917 72.594 153.309 72.5053 153.748 72.412C154.196 72.3093 154.681 72.2207 155.204 72.146C155.726 72.0713 156.258 72.034 156.8 72.034C157.546 72.034 158.2 72.174 158.76 72.454C159.329 72.7247 159.772 73.1167 160.09 73.63C160.407 74.1433 160.566 74.764 160.566 75.492C160.566 76.2387 160.402 76.9153 160.076 77.522C159.749 78.1287 159.287 78.6607 158.69 79.118C158.092 79.566 157.388 79.9393 156.576 80.238C155.764 80.5367 154.872 80.7513 153.902 80.882L152.894 79.146C153.762 79.0433 154.546 78.894 155.246 78.698C155.955 78.502 156.557 78.2547 157.052 77.956C157.556 77.648 157.938 77.2887 158.2 76.878C158.47 76.458 158.606 75.9727 158.606 75.422ZM153.104 68.702C153.505 68.786 153.986 68.8653 154.546 68.94C155.115 69.0147 155.698 69.08 156.296 69.136C156.902 69.192 157.476 69.2387 158.018 69.276C158.568 69.304 159.026 69.3227 159.39 69.332L159.11 71.054C158.699 71.026 158.218 70.9887 157.668 70.942C157.117 70.8953 156.548 70.844 155.96 70.788C155.372 70.7227 154.802 70.6573 154.252 70.592C153.71 70.5173 153.234 70.4473 152.824 70.382L153.104 68.702ZM166.068 69.822C166.581 69.878 167.16 69.92 167.804 69.948C168.448 69.976 169.138 69.99 169.876 69.99C170.333 69.99 170.804 69.9807 171.29 69.962C171.784 69.9433 172.26 69.92 172.718 69.892C173.175 69.864 173.581 69.8313 173.936 69.794V71.656C173.609 71.684 173.212 71.712 172.746 71.74C172.288 71.768 171.808 71.7913 171.304 71.81C170.809 71.8193 170.338 71.824 169.89 71.824C169.162 71.824 168.485 71.81 167.86 71.782C167.234 71.754 166.637 71.7167 166.068 71.67V69.822ZM167.244 75.758C167.178 76.0007 167.122 76.2387 167.076 76.472C167.029 76.7053 167.006 76.9387 167.006 77.172C167.006 77.62 167.23 77.9887 167.678 78.278C168.135 78.5673 168.868 78.712 169.876 78.712C170.51 78.712 171.122 78.6887 171.71 78.642C172.298 78.5953 172.853 78.53 173.376 78.446C173.908 78.362 174.379 78.264 174.79 78.152L174.804 80.126C174.393 80.2193 173.936 80.2987 173.432 80.364C172.928 80.4387 172.382 80.4947 171.794 80.532C171.215 80.5787 170.599 80.602 169.946 80.602C168.882 80.602 167.99 80.4853 167.272 80.252C166.553 80.0187 166.016 79.6827 165.662 79.244C165.307 78.796 165.13 78.25 165.13 77.606C165.13 77.1953 165.162 76.822 165.228 76.486C165.293 76.15 165.354 75.8513 165.41 75.59L167.244 75.758ZM180.446 69.29C180.67 69.2993 180.889 69.3087 181.104 69.318C181.318 69.3273 181.542 69.332 181.776 69.332C181.906 69.332 182.098 69.3273 182.35 69.318C182.602 69.3087 182.891 69.2993 183.218 69.29C183.554 69.2713 183.89 69.2527 184.226 69.234C184.571 69.2153 184.884 69.1967 185.164 69.178C185.453 69.1593 185.686 69.1407 185.864 69.122C186.097 69.094 186.293 69.066 186.452 69.038C186.61 69.01 186.736 68.9773 186.83 68.94L187.936 70.228C187.786 70.3213 187.6 70.4473 187.376 70.606C187.161 70.7553 186.979 70.886 186.83 70.998C186.634 71.1567 186.424 71.3293 186.2 71.516C185.976 71.7027 185.742 71.894 185.5 72.09C185.266 72.2767 185.033 72.468 184.8 72.664C184.566 72.8507 184.338 73.0373 184.114 73.224C183.899 73.4013 183.694 73.56 183.498 73.7C184.123 73.6347 184.781 73.5787 185.472 73.532C186.172 73.476 186.858 73.434 187.53 73.406C188.211 73.378 188.836 73.364 189.406 73.364V75.016C188.743 74.9787 188.085 74.96 187.432 74.96C186.778 74.96 186.237 74.9927 185.808 75.058C185.481 75.0953 185.178 75.1793 184.898 75.31C184.618 75.4407 184.366 75.6087 184.142 75.814C183.927 76.01 183.759 76.234 183.638 76.486C183.516 76.7287 183.456 76.9947 183.456 77.284C183.456 77.648 183.544 77.9467 183.722 78.18C183.899 78.4133 184.146 78.5907 184.464 78.712C184.79 78.8333 185.159 78.9173 185.57 78.964C185.971 79.0107 186.363 79.034 186.746 79.034C187.128 79.034 187.45 79.0247 187.712 79.006L187.334 80.84C185.542 80.9147 184.146 80.6813 183.148 80.14C182.158 79.5987 181.664 78.7447 181.664 77.578C181.664 77.2887 181.71 77.0087 181.804 76.738C181.906 76.458 182.032 76.2013 182.182 75.968C182.34 75.7347 182.508 75.534 182.686 75.366C182.042 75.4127 181.346 75.4873 180.6 75.59C179.862 75.6927 179.139 75.8047 178.43 75.926L178.262 74.232C178.635 74.1947 179.046 74.148 179.494 74.092C179.942 74.036 180.352 73.9893 180.726 73.952C181.034 73.7467 181.37 73.504 181.734 73.224C182.098 72.944 182.462 72.6547 182.826 72.356C183.19 72.048 183.53 71.7587 183.848 71.488C184.174 71.208 184.445 70.97 184.66 70.774C184.548 70.7833 184.394 70.7927 184.198 70.802C184.011 70.8113 183.801 70.8253 183.568 70.844C183.344 70.8533 183.115 70.8673 182.882 70.886C182.648 70.8953 182.434 70.9093 182.238 70.928C182.051 70.9373 181.902 70.9467 181.79 70.956C181.612 70.9653 181.412 70.984 181.188 71.012C180.973 71.0307 180.754 71.054 180.53 71.082L180.446 69.29ZM193.718 76.528C194.147 76.528 194.53 76.6307 194.866 76.836C195.202 77.0413 195.472 77.3167 195.678 77.662C195.883 77.998 195.986 78.376 195.986 78.796C195.986 79.2067 195.883 79.5847 195.678 79.93C195.472 80.2753 195.202 80.5507 194.866 80.756C194.53 80.9613 194.147 81.064 193.718 81.064C193.307 81.064 192.929 80.9613 192.584 80.756C192.238 80.5507 191.963 80.2753 191.758 79.93C191.562 79.5847 191.464 79.2067 191.464 78.796C191.464 78.376 191.562 77.998 191.758 77.662C191.963 77.3167 192.238 77.0413 192.584 76.836C192.929 76.6307 193.307 76.528 193.718 76.528ZM193.732 80.056C194.077 80.056 194.371 79.9347 194.614 79.692C194.856 79.44 194.978 79.1413 194.978 78.796C194.978 78.5627 194.922 78.3527 194.81 78.166C194.698 77.97 194.544 77.816 194.348 77.704C194.161 77.592 193.956 77.536 193.732 77.536C193.498 77.536 193.288 77.592 193.102 77.704C192.915 77.816 192.761 77.97 192.64 78.166C192.528 78.3527 192.472 78.5627 192.472 78.796C192.472 79.0293 192.528 79.244 192.64 79.44C192.761 79.6267 192.915 79.776 193.102 79.888C193.288 80 193.498 80.056 193.732 80.056ZM212.072 73.574H218.05V75.072H212.072V73.574ZM212.072 76.262H218.05V77.76H212.072V76.262ZM212.058 79.034H218.61V80.588H212.058V79.034ZM214.508 71.362H216.076V79.846H214.508V71.362ZM215.516 68.296L217.266 68.688C217.107 69.0427 216.939 69.402 216.762 69.766C216.584 70.1207 216.407 70.4613 216.23 70.788C216.062 71.1147 215.903 71.404 215.754 71.656L214.368 71.264C214.508 70.9933 214.648 70.6853 214.788 70.34C214.937 69.9947 215.072 69.6447 215.194 69.29C215.324 68.926 215.432 68.5947 215.516 68.296ZM212.912 70.844H218.344V72.356H212.912V81.26H211.344V71.81L212.268 70.844H212.912ZM212.492 68.086L214.158 68.548C213.915 69.2293 213.621 69.9293 213.276 70.648C212.93 71.3667 212.548 72.0527 212.128 72.706C211.717 73.3593 211.278 73.9427 210.812 74.456C210.728 74.3253 210.625 74.176 210.504 74.008C210.392 73.84 210.275 73.6767 210.154 73.518C210.032 73.3593 209.92 73.2287 209.818 73.126C210.21 72.6967 210.578 72.1927 210.924 71.614C211.269 71.0353 211.577 70.438 211.848 69.822C212.128 69.206 212.342 68.6273 212.492 68.086ZM206.094 72.398H210.322V73.672H206.094V72.398ZM206.15 68.548H210.294V69.808H206.15V68.548ZM206.094 74.316H210.322V75.576H206.094V74.316ZM205.436 70.424H210.784V71.754H205.436V70.424ZM206.822 76.248H210.35V80.518H206.822V79.188H208.908V77.578H206.822V76.248ZM206.066 76.248H207.48V81.064H206.066V76.248ZM219.982 70.396C220.262 70.3867 220.528 70.3773 220.78 70.368C221.032 70.3493 221.223 70.3353 221.354 70.326C221.643 70.3073 221.998 70.2793 222.418 70.242C222.847 70.1953 223.323 70.1487 223.846 70.102C224.378 70.0553 224.942 70.0087 225.54 69.962C226.137 69.9153 226.758 69.864 227.402 69.808C227.887 69.7613 228.368 69.724 228.844 69.696C229.329 69.6587 229.786 69.6307 230.216 69.612C230.654 69.584 231.037 69.5653 231.364 69.556L231.378 71.348C231.126 71.348 230.836 71.3527 230.51 71.362C230.183 71.3713 229.856 71.39 229.53 71.418C229.212 71.4367 228.928 71.4787 228.676 71.544C228.256 71.656 227.864 71.8473 227.5 72.118C227.136 72.3793 226.818 72.692 226.548 73.056C226.286 73.4107 226.081 73.798 225.932 74.218C225.782 74.6287 225.708 75.044 225.708 75.464C225.708 75.9213 225.787 76.3273 225.946 76.682C226.114 77.0273 226.338 77.326 226.618 77.578C226.907 77.8207 227.243 78.026 227.626 78.194C228.008 78.3527 228.419 78.474 228.858 78.558C229.306 78.642 229.768 78.698 230.244 78.726L229.586 80.644C228.998 80.6067 228.424 80.5133 227.864 80.364C227.313 80.2147 226.795 80.0093 226.31 79.748C225.824 79.4867 225.4 79.1693 225.036 78.796C224.681 78.4133 224.396 77.9793 224.182 77.494C223.976 76.9993 223.874 76.4487 223.874 75.842C223.874 75.17 223.981 74.554 224.196 73.994C224.41 73.4247 224.676 72.93 224.994 72.51C225.32 72.0807 225.642 71.7493 225.96 71.516C225.698 71.5533 225.381 71.5907 225.008 71.628C224.644 71.6653 224.247 71.712 223.818 71.768C223.398 71.8147 222.968 71.866 222.53 71.922C222.091 71.978 221.666 72.0433 221.256 72.118C220.854 72.1833 220.49 72.2487 220.164 72.314L219.982 70.396ZM229.376 72.72C229.497 72.888 229.623 73.0887 229.754 73.322C229.894 73.546 230.029 73.7747 230.16 74.008C230.29 74.232 230.402 74.4373 230.496 74.624L229.432 75.1C229.254 74.708 229.082 74.3627 228.914 74.064C228.755 73.7653 228.564 73.462 228.34 73.154L229.376 72.72ZM230.944 72.076C231.065 72.244 231.196 72.44 231.336 72.664C231.485 72.8787 231.63 73.1027 231.77 73.336C231.91 73.56 232.026 73.7607 232.12 73.938L231.07 74.442C230.883 74.0687 230.701 73.7373 230.524 73.448C230.356 73.1587 230.155 72.86 229.922 72.552L230.944 72.076ZM239.582 68.786C239.526 69.038 239.479 69.262 239.442 69.458C239.404 69.654 239.372 69.8453 239.344 70.032C239.306 70.228 239.26 70.5127 239.204 70.886C239.157 71.25 239.101 71.6653 239.036 72.132C238.98 72.5893 238.919 73.07 238.854 73.574C238.798 74.0687 238.742 74.554 238.686 75.03C238.63 75.506 238.583 75.94 238.546 76.332C238.518 76.724 238.504 77.0367 238.504 77.27C238.504 77.8487 238.676 78.292 239.022 78.6C239.376 78.8987 239.899 79.048 240.59 79.048C241.243 79.048 241.794 78.9593 242.242 78.782C242.69 78.5953 243.03 78.348 243.264 78.04C243.497 77.732 243.614 77.3867 243.614 77.004C243.614 76.528 243.488 76.066 243.236 75.618C242.993 75.1607 242.638 74.7173 242.172 74.288L244.146 73.868C244.612 74.456 244.953 75.016 245.168 75.548C245.392 76.0707 245.504 76.6307 245.504 77.228C245.504 77.928 245.303 78.5533 244.902 79.104C244.5 79.6547 243.926 80.084 243.18 80.392C242.442 80.7 241.56 80.854 240.534 80.854C239.806 80.854 239.157 80.742 238.588 80.518C238.018 80.294 237.575 79.9393 237.258 79.454C236.94 78.9687 236.782 78.3387 236.782 77.564C236.782 77.2747 236.805 76.892 236.852 76.416C236.898 75.9307 236.954 75.3987 237.02 74.82C237.094 74.232 237.169 73.6393 237.244 73.042C237.318 72.4353 237.384 71.8613 237.44 71.32C237.505 70.7787 237.556 70.312 237.594 69.92C237.612 69.5933 237.622 69.346 237.622 69.178C237.631 69.0007 237.626 68.8327 237.608 68.674L239.582 68.786ZM234.584 70.522C235.004 70.6527 235.461 70.7647 235.956 70.858C236.45 70.942 236.959 71.0073 237.482 71.054C238.004 71.0913 238.499 71.11 238.966 71.11C239.516 71.11 240.03 71.0913 240.506 71.054C240.982 71.0167 241.397 70.97 241.752 70.914L241.696 72.58C241.276 72.6173 240.856 72.65 240.436 72.678C240.016 72.706 239.512 72.72 238.924 72.72C238.448 72.72 237.953 72.6967 237.44 72.65C236.926 72.594 236.418 72.524 235.914 72.44C235.41 72.3467 234.938 72.244 234.5 72.132L234.584 70.522ZM234.29 73.994C234.794 74.162 235.302 74.2927 235.816 74.386C236.338 74.4793 236.852 74.5447 237.356 74.582C237.869 74.61 238.359 74.624 238.826 74.624C239.255 74.624 239.717 74.61 240.212 74.582C240.716 74.554 241.192 74.512 241.64 74.456L241.598 76.122C241.206 76.1593 240.804 76.192 240.394 76.22C239.983 76.2387 239.558 76.248 239.12 76.248C238.186 76.248 237.29 76.2013 236.432 76.108C235.573 76.0053 234.826 75.8653 234.192 75.688L234.29 73.994ZM255.71 75.548H256.732V81.148H255.71V75.548ZM257.32 75.548H258.356V81.148H257.32V75.548ZM252.42 68.884H260.358V70.326H252.42V68.884ZM254.534 77.55H259.686V78.74H254.534V77.55ZM252.938 70.942H254.408V73.868C254.408 74.4 254.384 74.9833 254.338 75.618C254.3 76.2433 254.221 76.892 254.1 77.564C253.988 78.2267 253.824 78.8707 253.61 79.496C253.395 80.112 253.12 80.6767 252.784 81.19C252.7 81.0967 252.578 80.9893 252.42 80.868C252.27 80.756 252.116 80.644 251.958 80.532C251.799 80.42 251.664 80.3407 251.552 80.294C251.869 79.8273 252.121 79.3187 252.308 78.768C252.494 78.2173 252.63 77.6573 252.714 77.088C252.807 76.5093 252.868 75.9447 252.896 75.394C252.924 74.8433 252.938 74.33 252.938 73.854V70.942ZM253.554 70.942H260.022V74.512H253.554V73.182H258.412V72.258H253.554V70.942ZM253.988 75.114H259.84V76.374H255.15V81.26H253.988V75.114ZM258.944 75.114H260.316V79.832C260.316 80.1027 260.292 80.3313 260.246 80.518C260.199 80.714 260.092 80.8727 259.924 80.994C259.765 81.106 259.588 81.176 259.392 81.204C259.205 81.2413 258.986 81.26 258.734 81.26C258.706 81.064 258.65 80.8353 258.566 80.574C258.491 80.322 258.407 80.1073 258.314 79.93C258.426 79.9393 258.528 79.944 258.622 79.944C258.724 79.944 258.794 79.944 258.832 79.944C258.906 79.944 258.944 79.8973 258.944 79.804V75.114ZM249.522 68.114L250.95 68.618C250.763 68.982 250.567 69.3553 250.362 69.738C250.166 70.1113 249.97 70.4707 249.774 70.816C249.587 71.1613 249.405 71.4693 249.228 71.74L248.122 71.292C248.29 71.0027 248.458 70.676 248.626 70.312C248.803 69.948 248.971 69.57 249.13 69.178C249.298 68.786 249.428 68.4313 249.522 68.114ZM251.034 69.78L252.35 70.368C252.023 70.9 251.668 71.4553 251.286 72.034C250.912 72.6127 250.534 73.168 250.152 73.7C249.778 74.2227 249.424 74.6893 249.088 75.1L248.136 74.582C248.388 74.2647 248.644 73.91 248.906 73.518C249.176 73.1167 249.438 72.7013 249.69 72.272C249.951 71.8333 250.194 71.3993 250.418 70.97C250.651 70.5407 250.856 70.144 251.034 69.78ZM247.366 71.334L248.178 70.242C248.42 70.4567 248.663 70.6993 248.906 70.97C249.158 71.2313 249.386 71.4927 249.592 71.754C249.806 72.0153 249.97 72.2533 250.082 72.468L249.2 73.714C249.097 73.49 248.943 73.238 248.738 72.958C248.542 72.678 248.322 72.398 248.08 72.118C247.837 71.8287 247.599 71.5673 247.366 71.334ZM250.614 73.056L251.706 72.608C251.883 72.9347 252.046 73.2847 252.196 73.658C252.345 74.022 252.476 74.3813 252.588 74.736C252.709 75.0813 252.793 75.3987 252.84 75.688L251.65 76.192C251.622 75.912 251.552 75.5947 251.44 75.24C251.337 74.876 251.211 74.5027 251.062 74.12C250.922 73.7373 250.772 73.3827 250.614 73.056ZM247.324 74.246C247.921 74.218 248.621 74.1807 249.424 74.134C250.236 74.078 251.062 74.0267 251.902 73.98L251.93 75.352C251.155 75.4173 250.376 75.478 249.592 75.534C248.817 75.59 248.117 75.646 247.492 75.702L247.324 74.246ZM250.838 76.626L251.944 76.276C252.112 76.6773 252.261 77.116 252.392 77.592C252.522 78.0587 252.611 78.4693 252.658 78.824L251.482 79.202C251.444 78.8473 251.365 78.432 251.244 77.956C251.132 77.4707 250.996 77.0273 250.838 76.626ZM247.926 76.332L249.214 76.556C249.148 77.228 249.041 77.886 248.892 78.53C248.752 79.174 248.579 79.72 248.374 80.168C248.29 80.112 248.173 80.0513 248.024 79.986C247.884 79.9113 247.739 79.8413 247.59 79.776C247.44 79.7013 247.31 79.6453 247.198 79.608C247.403 79.188 247.562 78.684 247.674 78.096C247.786 77.508 247.87 76.92 247.926 76.332ZM249.354 75.002H250.768V81.26H249.354V75.002ZM261.688 76.724H274.344V78.054H261.688V76.724ZM264.376 71.502H272.86V72.594H264.376V71.502ZM264.376 73.182H272.888V74.288H264.376V73.182ZM264.04 69.626H273.56V70.928H264.04V69.626ZM267.54 70.452H269.15V75.366H267.54V70.452ZM267.148 75.828H268.814V81.246H267.148V75.828ZM267.008 77.27L268.268 77.9C267.913 78.2453 267.502 78.586 267.036 78.922C266.578 79.2487 266.084 79.5567 265.552 79.846C265.02 80.126 264.478 80.378 263.928 80.602C263.377 80.826 262.836 81.0127 262.304 81.162C262.173 80.9567 262.005 80.714 261.8 80.434C261.594 80.1633 261.403 79.944 261.226 79.776C261.758 79.664 262.299 79.524 262.85 79.356C263.4 79.1787 263.932 78.9827 264.446 78.768C264.968 78.544 265.449 78.306 265.888 78.054C266.326 77.802 266.7 77.5407 267.008 77.27ZM269.01 77.228C269.318 77.4987 269.682 77.76 270.102 78.012C270.531 78.264 270.998 78.502 271.502 78.726C272.015 78.9407 272.542 79.1367 273.084 79.314C273.625 79.482 274.157 79.6267 274.68 79.748C274.558 79.8507 274.432 79.9813 274.302 80.14C274.171 80.308 274.045 80.476 273.924 80.644C273.802 80.812 273.704 80.9613 273.63 81.092C273.098 80.9427 272.556 80.756 272.006 80.532C271.464 80.308 270.932 80.056 270.41 79.776C269.896 79.496 269.411 79.1973 268.954 78.88C268.496 78.5533 268.086 78.2173 267.722 77.872L269.01 77.228ZM268.226 68.1L270.116 68.338C269.901 68.7487 269.672 69.1453 269.43 69.528C269.196 69.9107 268.982 70.2327 268.786 70.494L267.302 70.214C267.47 69.906 267.642 69.556 267.82 69.164C267.997 68.772 268.132 68.4173 268.226 68.1ZM264.642 68.072L266.378 68.422C266.06 68.9633 265.71 69.5 265.328 70.032C264.945 70.564 264.52 71.0867 264.054 71.6C263.587 72.104 263.064 72.5847 262.486 73.042C262.402 72.9207 262.29 72.79 262.15 72.65C262.01 72.5007 261.86 72.3607 261.702 72.23C261.552 72.09 261.417 71.9827 261.296 71.908C261.818 71.5347 262.29 71.1333 262.71 70.704C263.139 70.2653 263.517 69.822 263.844 69.374C264.17 68.9167 264.436 68.4827 264.642 68.072ZM263.298 70.48H264.88V74.89H273.966V76.15H263.298V70.48ZM24.966 91.396C25.246 91.3867 25.512 91.3773 25.764 91.368C26.016 91.3493 26.2073 91.3353 26.338 91.326C26.6273 91.3073 26.982 91.2793 27.402 91.242C27.8313 91.1953 28.3073 91.1487 28.83 91.102C29.362 91.0553 29.9267 91.0087 30.524 90.962C31.1213 90.9153 31.742 90.864 32.386 90.808C32.8713 90.7613 33.352 90.724 33.828 90.696C34.3133 90.6587 34.7707 90.6307 35.2 90.612C35.6387 90.584 36.0213 90.5653 36.348 90.556L36.362 92.348C36.11 92.348 35.8207 92.3527 35.494 92.362C35.1673 92.3713 34.8407 92.39 34.514 92.418C34.1967 92.4367 33.912 92.4787 33.66 92.544C33.24 92.656 32.848 92.8473 32.484 93.118C32.12 93.3793 31.8027 93.692 31.532 94.056C31.2707 94.4107 31.0653 94.798 30.916 95.218C30.7667 95.6287 30.692 96.044 30.692 96.464C30.692 96.9213 30.7713 97.3273 30.93 97.682C31.098 98.0273 31.322 98.326 31.602 98.578C31.8913 98.8207 32.2273 99.026 32.61 99.194C32.9927 99.3527 33.4033 99.474 33.842 99.558C34.29 99.642 34.752 99.698 35.228 99.726L34.57 101.644C33.982 101.607 33.408 101.513 32.848 101.364C32.2973 101.215 31.7793 101.009 31.294 100.748C30.8087 100.487 30.384 100.169 30.02 99.796C29.6653 99.4133 29.3807 98.9793 29.166 98.494C28.9607 97.9993 28.858 97.4487 28.858 96.842C28.858 96.17 28.9653 95.554 29.18 94.994C29.3947 94.4247 29.6607 93.93 29.978 93.51C30.3047 93.0807 30.6267 92.7493 30.944 92.516C30.6827 92.5533 30.3653 92.5907 29.992 92.628C29.628 92.6653 29.2313 92.712 28.802 92.768C28.382 92.8147 27.9527 92.866 27.514 92.922C27.0753 92.978 26.6507 93.0433 26.24 93.118C25.8387 93.1833 25.4747 93.2487 25.148 93.314L24.966 91.396ZM34.36 93.72C34.4813 93.888 34.6073 94.0887 34.738 94.322C34.878 94.546 35.0133 94.7747 35.144 95.008C35.2747 95.232 35.3867 95.4373 35.48 95.624L34.416 96.1C34.2387 95.708 34.066 95.3627 33.898 95.064C33.7393 94.7653 33.548 94.462 33.324 94.154L34.36 93.72ZM35.928 93.076C36.0493 93.244 36.18 93.44 36.32 93.664C36.4693 93.8787 36.614 94.1027 36.754 94.336C36.894 94.56 37.0107 94.7607 37.104 94.938L36.054 95.442C35.8673 95.0687 35.6853 94.7373 35.508 94.448C35.34 94.1587 35.1393 93.86 34.906 93.552L35.928 93.076ZM40.296 90.948C41.3227 91.0693 42.2653 91.144 43.124 91.172C43.992 91.1907 44.7947 91.172 45.532 91.116C46.176 91.06 46.792 90.976 47.38 90.864C47.968 90.752 48.5467 90.6073 49.116 90.43L49.34 92.04C48.836 92.18 48.29 92.3013 47.702 92.404C47.114 92.5067 46.512 92.586 45.896 92.642C45.1773 92.698 44.3467 92.726 43.404 92.726C42.4707 92.7167 41.4673 92.6607 40.394 92.558L40.296 90.948ZM40.044 93.888C40.8933 93.9627 41.7053 94.014 42.48 94.042C43.2547 94.07 43.9827 94.07 44.664 94.042C45.3453 94.014 45.966 93.9767 46.526 93.93C47.282 93.8647 47.9307 93.7713 48.472 93.65C49.0133 93.5193 49.4847 93.398 49.886 93.286L50.166 94.938C49.746 95.0407 49.284 95.1387 48.78 95.232C48.276 95.3253 47.7393 95.4047 47.17 95.47C46.5727 95.526 45.8867 95.5727 45.112 95.61C44.3467 95.638 43.5393 95.6473 42.69 95.638C41.8407 95.6193 40.9913 95.5867 40.142 95.54L40.044 93.888ZM44.72 91.34C44.6547 91.0787 44.58 90.822 44.496 90.57C44.412 90.3087 44.3187 90.0427 44.216 89.772L46.106 89.562C46.162 90.0007 46.232 90.4347 46.316 90.864C46.4093 91.284 46.512 91.69 46.624 92.082C46.7453 92.474 46.862 92.852 46.974 93.216C47.086 93.5333 47.2307 93.8973 47.408 94.308C47.5947 94.7093 47.7953 95.1153 48.01 95.526C48.2247 95.9273 48.4393 96.2913 48.654 96.618C48.7473 96.7487 48.8407 96.8747 48.934 96.996C49.0367 97.108 49.1533 97.22 49.284 97.332L48.43 98.62C48.1687 98.564 47.842 98.508 47.45 98.452C47.0673 98.396 46.666 98.3447 46.246 98.298C45.8353 98.2513 45.4573 98.2093 45.112 98.172L45.252 96.842C45.5413 96.87 45.854 96.898 46.19 96.926C46.5353 96.954 46.8107 96.982 47.016 97.01C46.6427 96.3847 46.3207 95.7733 46.05 95.176C45.7887 94.5787 45.5693 94.0233 45.392 93.51C45.28 93.1833 45.1867 92.9033 45.112 92.67C45.0373 92.4273 44.9673 92.2033 44.902 91.998C44.846 91.7833 44.7853 91.564 44.72 91.34ZM42.732 97.136C42.564 97.3693 42.4193 97.612 42.298 97.864C42.1767 98.1067 42.116 98.382 42.116 98.69C42.116 99.2033 42.354 99.5767 42.83 99.81C43.3153 100.034 44.02 100.146 44.944 100.146C45.6067 100.146 46.232 100.118 46.82 100.062C47.4173 100.006 47.9633 99.9313 48.458 99.838L48.36 101.616C47.8747 101.7 47.3287 101.765 46.722 101.812C46.1153 101.859 45.5273 101.882 44.958 101.882C44.0247 101.882 43.2173 101.784 42.536 101.588C41.864 101.392 41.3413 101.089 40.968 100.678C40.5947 100.258 40.4033 99.7167 40.394 99.054C40.3847 98.606 40.4407 98.2047 40.562 97.85C40.6927 97.486 40.8373 97.136 40.996 96.8L42.732 97.136ZM54.8066 90.332C55.0026 90.36 55.2126 90.3787 55.4366 90.388C55.6606 90.3973 55.8752 90.402 56.0806 90.402C56.2299 90.402 56.4539 90.402 56.7526 90.402C57.0512 90.3927 57.3872 90.3833 57.7606 90.374C58.1432 90.3647 58.5212 90.3553 58.8946 90.346C59.2679 90.3367 59.6039 90.3273 59.9026 90.318C60.2106 90.2993 60.4486 90.2853 60.6166 90.276C60.9059 90.248 61.1346 90.2247 61.3026 90.206C61.4706 90.178 61.5966 90.15 61.6806 90.122L62.5906 91.368C62.4319 91.4707 62.2686 91.5733 62.1006 91.676C61.9326 91.7787 61.7692 91.8907 61.6106 92.012C61.4239 92.1427 61.1999 92.3153 60.9386 92.53C60.6772 92.7353 60.3972 92.9547 60.0986 93.188C59.8092 93.4213 59.5246 93.65 59.2446 93.874C58.9739 94.098 58.7266 94.2987 58.5026 94.476C58.7359 94.42 58.9599 94.3827 59.1746 94.364C59.3892 94.336 59.6086 94.322 59.8326 94.322C60.6259 94.322 61.3352 94.476 61.9606 94.784C62.5952 95.092 63.0946 95.512 63.4586 96.044C63.8319 96.5667 64.0186 97.1687 64.0186 97.85C64.0186 98.5873 63.8319 99.2547 63.4586 99.852C63.0852 100.449 62.5206 100.925 61.7646 101.28C61.0179 101.635 60.0799 101.812 58.9506 101.812C58.3066 101.812 57.7232 101.719 57.2006 101.532C56.6872 101.345 56.2812 101.079 55.9826 100.734C55.6839 100.389 55.5346 99.9827 55.5346 99.516C55.5346 99.1333 55.6372 98.7787 55.8426 98.452C56.0572 98.116 56.3512 97.8453 56.7246 97.64C57.1072 97.4347 57.5459 97.332 58.0406 97.332C58.6846 97.332 59.2259 97.4627 59.6646 97.724C60.1126 97.976 60.4532 98.3167 60.6866 98.746C60.9292 99.1753 61.0552 99.6467 61.0646 100.16L59.4266 100.384C59.4172 99.8707 59.2866 99.46 59.0346 99.152C58.7919 98.8347 58.4652 98.676 58.0546 98.676C57.7932 98.676 57.5832 98.746 57.4246 98.886C57.2659 99.0167 57.1866 99.1707 57.1866 99.348C57.1866 99.6093 57.3172 99.8193 57.5786 99.978C57.8399 100.137 58.1806 100.216 58.6006 100.216C59.3939 100.216 60.0566 100.123 60.5886 99.936C61.1206 99.74 61.5172 99.4647 61.7786 99.11C62.0492 98.746 62.1846 98.3167 62.1846 97.822C62.1846 97.402 62.0539 97.0333 61.7926 96.716C61.5406 96.3987 61.1952 96.1513 60.7566 95.974C60.3179 95.7967 59.8232 95.708 59.2726 95.708C58.7312 95.708 58.2366 95.778 57.7886 95.918C57.3406 96.0487 56.9159 96.24 56.5146 96.492C56.1226 96.7347 55.7352 97.0333 55.3526 97.388C54.9792 97.7333 54.6059 98.1207 54.2326 98.55L52.9586 97.234C53.2106 97.0287 53.4952 96.8 53.8126 96.548C54.1299 96.2867 54.4519 96.016 54.7786 95.736C55.1146 95.456 55.4272 95.1947 55.7166 94.952C56.0152 94.7 56.2672 94.49 56.4726 94.322C56.6686 94.1633 56.8972 93.9767 57.1586 93.762C57.4199 93.5473 57.6906 93.328 57.9706 93.104C58.2506 92.8707 58.5166 92.6513 58.7686 92.446C59.0206 92.2313 59.2306 92.0493 59.3986 91.9C59.2586 91.9 59.0766 91.9047 58.8526 91.914C58.6286 91.9233 58.3812 91.9327 58.1106 91.942C57.8492 91.9513 57.5832 91.9607 57.3126 91.97C57.0512 91.9793 56.8039 91.9933 56.5706 92.012C56.3466 92.0213 56.1599 92.0307 56.0106 92.04C55.8239 92.0493 55.6279 92.0633 55.4226 92.082C55.2172 92.1007 55.0306 92.124 54.8626 92.152L54.8066 90.332ZM78.1726 91.676C78.1072 91.8067 78.0466 91.9653 77.9906 92.152C77.9439 92.3293 77.9019 92.4973 77.8646 92.656C77.7899 92.992 77.6919 93.3747 77.5706 93.804C77.4492 94.2333 77.3046 94.6767 77.1366 95.134C76.9686 95.5913 76.7679 96.044 76.5346 96.492C76.3106 96.94 76.0539 97.36 75.7646 97.752C75.3446 98.3027 74.8546 98.8253 74.2946 99.32C73.7346 99.8053 73.1092 100.244 72.4186 100.636C71.7279 101.019 70.9672 101.345 70.1366 101.616L68.6106 99.95C69.5346 99.726 70.3326 99.4507 71.0046 99.124C71.6859 98.788 72.2786 98.4147 72.7826 98.004C73.2866 97.584 73.7252 97.136 74.0986 96.66C74.4066 96.268 74.6679 95.8433 74.8826 95.386C75.1066 94.9287 75.2886 94.4667 75.4286 94C75.5779 93.5333 75.6806 93.104 75.7366 92.712C75.5966 92.712 75.3632 92.712 75.0366 92.712C74.7192 92.712 74.3412 92.712 73.9026 92.712C73.4732 92.712 73.0206 92.712 72.5446 92.712C72.0779 92.712 71.6252 92.712 71.1866 92.712C70.7479 92.712 70.3512 92.712 69.9966 92.712C69.6512 92.712 69.3899 92.712 69.2126 92.712C68.8952 92.712 68.5826 92.7167 68.2746 92.726C67.9759 92.7353 67.7332 92.7493 67.5466 92.768V90.794C67.6959 90.8033 67.8686 90.8173 68.0646 90.836C68.2606 90.8547 68.4659 90.8733 68.6806 90.892C68.8952 90.9013 69.0772 90.906 69.2266 90.906C69.3666 90.906 69.5766 90.906 69.8566 90.906C70.1366 90.906 70.4586 90.906 70.8226 90.906C71.1866 90.906 71.5646 90.906 71.9566 90.906C72.3579 90.906 72.7546 90.906 73.1466 90.906C73.5386 90.906 73.9072 90.906 74.2526 90.906C74.5979 90.906 74.8966 90.906 75.1486 90.906C75.4099 90.906 75.5919 90.906 75.6946 90.906C75.8346 90.906 76.0072 90.9013 76.2126 90.892C76.4179 90.8733 76.6092 90.8407 76.7866 90.794L78.1726 91.676ZM90.9686 90.136C90.9592 90.332 90.9452 90.5467 90.9266 90.78C90.9172 91.004 90.9126 91.256 90.9126 91.536C90.9126 91.7787 90.9126 92.0727 90.9126 92.418C90.9126 92.7633 90.9126 93.1087 90.9126 93.454C90.9126 93.79 90.9126 94.0747 90.9126 94.308C90.9126 95.0547 90.8752 95.708 90.8006 96.268C90.7352 96.828 90.6326 97.318 90.4926 97.738C90.3526 98.158 90.1799 98.5313 89.9746 98.858C89.7786 99.1753 89.5499 99.4787 89.2886 99.768C88.9806 100.104 88.6259 100.407 88.2246 100.678C87.8232 100.939 87.4172 101.159 87.0066 101.336C86.6052 101.523 86.2319 101.672 85.8866 101.784L84.4166 100.244C85.1166 100.085 85.7466 99.866 86.3066 99.586C86.8759 99.2967 87.3706 98.928 87.7906 98.48C88.0332 98.2093 88.2292 97.9387 88.3786 97.668C88.5279 97.3973 88.6399 97.0987 88.7146 96.772C88.7986 96.436 88.8546 96.058 88.8826 95.638C88.9199 95.218 88.9386 94.7373 88.9386 94.196C88.9386 93.9533 88.9386 93.664 88.9386 93.328C88.9386 92.992 88.9386 92.6607 88.9386 92.334C88.9386 92.0073 88.9386 91.7413 88.9386 91.536C88.9386 91.256 88.9292 91.004 88.9106 90.78C88.9012 90.5467 88.8826 90.332 88.8546 90.136H90.9686ZM84.4726 90.248C84.4632 90.416 84.4539 90.584 84.4446 90.752C84.4352 90.9107 84.4306 91.102 84.4306 91.326C84.4306 91.4287 84.4306 91.5967 84.4306 91.83C84.4306 92.0633 84.4306 92.3387 84.4306 92.656C84.4306 92.964 84.4306 93.2907 84.4306 93.636C84.4306 93.972 84.4306 94.2987 84.4306 94.616C84.4306 94.9333 84.4306 95.2227 84.4306 95.484C84.4306 95.736 84.4306 95.9273 84.4306 96.058C84.4306 96.2353 84.4352 96.4407 84.4446 96.674C84.4539 96.9073 84.4632 97.108 84.4726 97.276H82.4426C82.4519 97.1453 82.4659 96.9587 82.4846 96.716C82.5032 96.4733 82.5126 96.2493 82.5126 96.044C82.5126 95.9133 82.5126 95.722 82.5126 95.47C82.5126 95.218 82.5126 94.9333 82.5126 94.616C82.5126 94.2893 82.5126 93.958 82.5126 93.622C82.5126 93.2767 82.5126 92.95 82.5126 92.642C82.5126 92.334 82.5126 92.0633 82.5126 91.83C82.5126 91.5967 82.5126 91.4287 82.5126 91.326C82.5126 91.1953 82.5079 91.0273 82.4986 90.822C82.4892 90.6073 82.4752 90.416 82.4566 90.248H84.4726ZM95.0146 94.518C95.1826 94.5273 95.3972 94.5413 95.6586 94.56C95.9199 94.5693 96.1906 94.5787 96.4706 94.588C96.7599 94.5973 97.0259 94.602 97.2686 94.602C97.5019 94.602 97.7912 94.602 98.1366 94.602C98.4819 94.602 98.8552 94.602 99.2566 94.602C99.6672 94.602 100.087 94.602 100.517 94.602C100.955 94.602 101.389 94.602 101.819 94.602C102.248 94.602 102.654 94.602 103.037 94.602C103.419 94.602 103.76 94.602 104.059 94.602C104.367 94.602 104.609 94.602 104.787 94.602C105.113 94.602 105.421 94.5927 105.711 94.574C106 94.546 106.238 94.5273 106.425 94.518V96.716C106.266 96.7067 106.028 96.6927 105.711 96.674C105.393 96.6553 105.085 96.646 104.787 96.646C104.609 96.646 104.367 96.646 104.059 96.646C103.751 96.646 103.405 96.646 103.023 96.646C102.64 96.646 102.234 96.646 101.805 96.646C101.385 96.646 100.955 96.646 100.517 96.646C100.078 96.646 99.6532 96.646 99.2426 96.646C98.8412 96.646 98.4679 96.646 98.1226 96.646C97.7866 96.646 97.5019 96.646 97.2686 96.646C96.8672 96.646 96.4566 96.6553 96.0366 96.674C95.6166 96.6833 95.2759 96.6973 95.0146 96.716V94.518ZM108.553 89.814H120.915V91.452H108.553V89.814ZM111.185 96.45H118.479V97.962H111.185V96.45ZM111.241 99.852H118.325V101.406H111.241V99.852ZM113.733 90.402L115.791 90.822C115.688 91.2047 115.581 91.592 115.469 91.984C115.357 92.3667 115.249 92.7353 115.147 93.09C115.053 93.4353 114.955 93.7433 114.853 94.014L113.257 93.608C113.331 93.3 113.401 92.964 113.467 92.6C113.532 92.2267 113.588 91.8487 113.635 91.466C113.691 91.0833 113.723 90.7287 113.733 90.402ZM109.953 93.048H119.655V102.246H117.863V94.602H111.661V102.246H109.953V93.048ZM124.317 90.416H125.941V102.246H124.317V90.416ZM122.189 93.048H127.789V94.602H122.189V93.048ZM124.401 93.678L125.381 94.098C125.25 94.602 125.091 95.1247 124.905 95.666C124.718 96.2073 124.513 96.744 124.289 97.276C124.065 97.7987 123.827 98.2933 123.575 98.76C123.323 99.2267 123.061 99.6327 122.791 99.978C122.707 99.7353 122.585 99.4647 122.427 99.166C122.277 98.858 122.137 98.5967 122.007 98.382C122.249 98.102 122.487 97.7753 122.721 97.402C122.963 97.0193 123.192 96.6133 123.407 96.184C123.621 95.7547 123.813 95.3253 123.981 94.896C124.149 94.4667 124.289 94.0607 124.401 93.678ZM126.809 89.226L127.747 90.598C127.261 90.7753 126.734 90.934 126.165 91.074C125.605 91.214 125.031 91.3353 124.443 91.438C123.855 91.5313 123.285 91.6107 122.735 91.676C122.707 91.4893 122.646 91.2747 122.553 91.032C122.459 90.78 122.371 90.5607 122.287 90.374C122.828 90.29 123.369 90.192 123.911 90.08C124.452 89.9587 124.975 89.828 125.479 89.688C125.983 89.5387 126.426 89.3847 126.809 89.226ZM125.899 94.686C125.992 94.77 126.123 94.9053 126.291 95.092C126.468 95.2787 126.655 95.4887 126.851 95.722C127.056 95.946 127.243 96.156 127.411 96.352C127.579 96.5387 127.695 96.6787 127.761 96.772L126.795 98.088C126.711 97.9013 126.599 97.6867 126.459 97.444C126.328 97.192 126.183 96.9353 126.025 96.674C125.866 96.4127 125.712 96.1653 125.563 95.932C125.413 95.6987 125.283 95.5073 125.171 95.358L125.899 94.686ZM132.059 89.086H133.725V102.232H132.059V89.086ZM127.551 98.13L135.111 96.828L135.377 98.41L127.817 99.726L127.551 98.13ZM128.461 90.892L129.553 89.954C129.814 90.1407 130.08 90.3507 130.351 90.584C130.631 90.8173 130.892 91.0553 131.135 91.298C131.387 91.5407 131.583 91.7647 131.723 91.97L130.547 93.02C130.425 92.8147 130.248 92.586 130.015 92.334C129.781 92.082 129.529 91.83 129.259 91.578C128.988 91.326 128.722 91.0973 128.461 90.892ZM127.943 94.588L129.021 93.622C129.291 93.8087 129.576 94.0233 129.875 94.266C130.173 94.4993 130.449 94.742 130.701 94.994C130.962 95.2367 131.172 95.456 131.331 95.652L130.183 96.744C130.043 96.5293 129.847 96.296 129.595 96.044C129.343 95.7827 129.072 95.526 128.783 95.274C128.493 95.022 128.213 94.7933 127.943 94.588ZM141.817 89.1H143.525V100.65C143.525 101.061 143.469 101.369 143.357 101.574C143.245 101.779 143.053 101.943 142.783 102.064C142.512 102.167 142.176 102.232 141.775 102.26C141.383 102.288 140.888 102.302 140.291 102.302C140.253 102.106 140.179 101.877 140.067 101.616C139.955 101.364 139.843 101.149 139.731 100.972C139.964 100.981 140.197 100.991 140.431 101C140.664 101 140.874 101 141.061 101C141.257 101 141.392 101 141.467 101C141.597 100.991 141.686 100.963 141.733 100.916C141.789 100.869 141.817 100.781 141.817 100.65V89.1ZM136.581 90.024H148.901V91.34H136.581V90.024ZM139.619 92.978V93.636H145.793V92.978H139.619ZM138.009 91.914H147.515V94.7H138.009V91.914ZM137.673 95.33H147.753V100.804H146.045V96.464H137.673V95.33ZM136.259 97.066H149.223V98.34H136.259V97.066ZM137.561 98.984H146.969V100.202H137.561V98.984ZM157.679 99.95L158.869 98.844C159.363 99.0773 159.867 99.3247 160.381 99.586C160.894 99.8473 161.379 100.109 161.837 100.37C162.303 100.631 162.695 100.865 163.013 101.07L161.459 102.204C161.179 101.989 160.829 101.751 160.409 101.49C159.998 101.229 159.555 100.963 159.079 100.692C158.612 100.421 158.145 100.174 157.679 99.95ZM150.161 97.43H163.279V99.012H150.161V97.43ZM152.373 94.028H160.997V95.568H152.373V94.028ZM154.459 89.058H156.027V98.13H154.459V89.058ZM157.385 89.058H158.981V98.144H157.385V89.058ZM151.547 90.71H162.019V98.018H160.311V92.264H153.171V98.018H151.547V90.71ZM154.291 98.858L155.831 99.894C155.467 100.183 155.037 100.477 154.543 100.776C154.057 101.065 153.549 101.336 153.017 101.588C152.485 101.849 151.976 102.069 151.491 102.246C151.341 102.069 151.136 101.859 150.875 101.616C150.623 101.383 150.389 101.187 150.175 101.028C150.679 100.869 151.192 100.669 151.715 100.426C152.237 100.174 152.723 99.9127 153.171 99.642C153.628 99.362 154.001 99.1007 154.291 98.858ZM164.693 91.396C164.973 91.3867 165.239 91.3773 165.491 91.368C165.743 91.3493 165.934 91.3353 166.065 91.326C166.354 91.3073 166.709 91.2793 167.129 91.242C167.558 91.1953 168.034 91.1487 168.557 91.102C169.089 91.0553 169.653 91.0087 170.251 90.962C170.848 90.9153 171.469 90.864 172.113 90.808C172.598 90.7613 173.079 90.724 173.555 90.696C174.04 90.6587 174.497 90.6307 174.927 90.612C175.365 90.584 175.748 90.5653 176.075 90.556L176.089 92.348C175.837 92.348 175.547 92.3527 175.221 92.362C174.894 92.3713 174.567 92.39 174.241 92.418C173.923 92.4367 173.639 92.4787 173.387 92.544C172.967 92.656 172.575 92.8473 172.211 93.118C171.847 93.3793 171.529 93.692 171.259 94.056C170.997 94.4107 170.792 94.798 170.643 95.218C170.493 95.6287 170.419 96.044 170.419 96.464C170.419 96.9213 170.498 97.3273 170.657 97.682C170.825 98.0273 171.049 98.326 171.329 98.578C171.618 98.8207 171.954 99.026 172.337 99.194C172.719 99.3527 173.13 99.474 173.569 99.558C174.017 99.642 174.479 99.698 174.955 99.726L174.297 101.644C173.709 101.607 173.135 101.513 172.575 101.364C172.024 101.215 171.506 101.009 171.021 100.748C170.535 100.487 170.111 100.169 169.747 99.796C169.392 99.4133 169.107 98.9793 168.893 98.494C168.687 97.9993 168.585 97.4487 168.585 96.842C168.585 96.17 168.692 95.554 168.907 94.994C169.121 94.4247 169.387 93.93 169.705 93.51C170.031 93.0807 170.353 92.7493 170.671 92.516C170.409 92.5533 170.092 92.5907 169.719 92.628C169.355 92.6653 168.958 92.712 168.529 92.768C168.109 92.8147 167.679 92.866 167.241 92.922C166.802 92.978 166.377 93.0433 165.967 93.118C165.565 93.1833 165.201 93.2487 164.875 93.314L164.693 91.396ZM174.087 93.72C174.208 93.888 174.334 94.0887 174.465 94.322C174.605 94.546 174.74 94.7747 174.871 95.008C175.001 95.232 175.113 95.4373 175.207 95.624L174.143 96.1C173.965 95.708 173.793 95.3627 173.625 95.064C173.466 94.7653 173.275 94.462 173.051 94.154L174.087 93.72ZM175.655 93.076C175.776 93.244 175.907 93.44 176.047 93.664C176.196 93.8787 176.341 94.1027 176.481 94.336C176.621 94.56 176.737 94.7607 176.831 94.938L175.781 95.442C175.594 95.0687 175.412 94.7373 175.235 94.448C175.067 94.1587 174.866 93.86 174.633 93.552L175.655 93.076ZM186.869 89.716C186.859 89.7907 186.845 89.912 186.827 90.08C186.817 90.2387 186.808 90.402 186.799 90.57C186.789 90.7287 186.78 90.8453 186.771 90.92C186.761 91.1067 186.757 91.3587 186.757 91.676C186.757 91.984 186.757 92.3293 186.757 92.712C186.757 93.0947 186.757 93.482 186.757 93.874C186.766 94.2567 186.771 94.6207 186.771 94.966C186.78 95.302 186.785 95.582 186.785 95.806L185.035 95.218C185.035 95.0407 185.035 94.8073 185.035 94.518C185.035 94.2193 185.035 93.8973 185.035 93.552C185.035 93.1973 185.03 92.8473 185.021 92.502C185.021 92.1567 185.016 91.844 185.007 91.564C184.997 91.284 184.988 91.074 184.979 90.934C184.96 90.6447 184.937 90.3927 184.909 90.178C184.881 89.954 184.857 89.8 184.839 89.716H186.869ZM178.959 91.452C179.369 91.452 179.836 91.4473 180.359 91.438C180.881 91.4287 181.427 91.4193 181.997 91.41C182.566 91.4007 183.126 91.3913 183.677 91.382C184.227 91.3727 184.745 91.368 185.231 91.368C185.716 91.3587 186.136 91.354 186.491 91.354C186.845 91.354 187.233 91.354 187.653 91.354C188.073 91.3447 188.488 91.34 188.899 91.34C189.309 91.34 189.683 91.34 190.019 91.34C190.364 91.34 190.63 91.34 190.817 91.34L190.803 92.992C190.364 92.9733 189.785 92.9593 189.067 92.95C188.348 92.9313 187.471 92.922 186.435 92.922C185.8 92.922 185.156 92.9313 184.503 92.95C183.849 92.9593 183.201 92.9733 182.557 92.992C181.913 93.0107 181.292 93.034 180.695 93.062C180.097 93.0807 179.533 93.1087 179.001 93.146L178.959 91.452ZM186.533 95.596C186.533 96.3613 186.439 96.996 186.253 97.5C186.075 98.004 185.805 98.3867 185.441 98.648C185.077 98.9 184.624 99.026 184.083 99.026C183.821 99.026 183.546 98.97 183.257 98.858C182.977 98.746 182.715 98.5827 182.473 98.368C182.23 98.1533 182.034 97.8873 181.885 97.57C181.745 97.2527 181.675 96.8793 181.675 96.45C181.675 95.918 181.801 95.4607 182.053 95.078C182.305 94.686 182.641 94.3827 183.061 94.168C183.49 93.944 183.961 93.832 184.475 93.832C185.091 93.832 185.604 93.972 186.015 94.252C186.435 94.5227 186.747 94.8913 186.953 95.358C187.167 95.8247 187.275 96.352 187.275 96.94C187.275 97.3973 187.2 97.8733 187.051 98.368C186.901 98.8627 186.654 99.348 186.309 99.824C185.973 100.291 185.515 100.715 184.937 101.098C184.367 101.481 183.653 101.793 182.795 102.036L181.297 100.552C181.894 100.431 182.449 100.272 182.963 100.076C183.476 99.88 183.924 99.6327 184.307 99.334C184.699 99.0353 185.002 98.6667 185.217 98.228C185.441 97.7893 185.553 97.262 185.553 96.646C185.553 96.198 185.441 95.862 185.217 95.638C185.002 95.414 184.741 95.302 184.433 95.302C184.255 95.302 184.083 95.344 183.915 95.428C183.747 95.512 183.611 95.638 183.509 95.806C183.406 95.974 183.355 96.1793 183.355 96.422C183.355 96.7393 183.462 96.996 183.677 97.192C183.901 97.3787 184.153 97.472 184.433 97.472C184.657 97.472 184.853 97.402 185.021 97.262C185.198 97.122 185.315 96.8887 185.371 96.562C185.427 96.2353 185.38 95.7967 185.231 95.246L186.533 95.596ZM193.034 97.528C193.463 97.528 193.846 97.6307 194.182 97.836C194.518 98.0413 194.789 98.3167 194.994 98.662C195.199 98.998 195.302 99.376 195.302 99.796C195.302 100.207 195.199 100.585 194.994 100.93C194.789 101.275 194.518 101.551 194.182 101.756C193.846 101.961 193.463 102.064 193.034 102.064C192.623 102.064 192.245 101.961 191.9 101.756C191.555 101.551 191.279 101.275 191.074 100.93C190.878 100.585 190.78 100.207 190.78 99.796C190.78 99.376 190.878 98.998 191.074 98.662C191.279 98.3167 191.555 98.0413 191.9 97.836C192.245 97.6307 192.623 97.528 193.034 97.528ZM193.048 101.056C193.393 101.056 193.687 100.935 193.93 100.692C194.173 100.44 194.294 100.141 194.294 99.796C194.294 99.5627 194.238 99.3527 194.126 99.166C194.014 98.97 193.86 98.816 193.664 98.704C193.477 98.592 193.272 98.536 193.048 98.536C192.815 98.536 192.605 98.592 192.418 98.704C192.231 98.816 192.077 98.97 191.956 99.166C191.844 99.3527 191.788 99.5627 191.788 99.796C191.788 100.029 191.844 100.244 191.956 100.44C192.077 100.627 192.231 100.776 192.418 100.888C192.605 101 192.815 101.056 193.048 101.056Z" fill="#1A1A1A"/>
</svg>
