<svg width="720" height="110" viewBox="0 0 720 110" fill="none" xmlns="http://www.w3.org/2000/svg">
<rect width="720" height="110" fill="#F7F7F7"/>
<path d="M26.424 44V26.408H30.816C32.624 26.408 34.144 26.752 35.376 27.44C36.608 28.112 37.536 29.096 38.16 30.392C38.784 31.688 39.096 33.272 39.096 35.144C39.096 37 38.784 38.592 38.16 39.92C37.536 41.248 36.616 42.264 35.4 42.968C34.184 43.656 32.688 44 30.912 44H26.424ZM28.632 42.176H30.624C32 42.176 33.144 41.904 34.056 41.36C34.984 40.8 35.672 39.992 36.12 38.936C36.584 37.88 36.816 36.616 36.816 35.144C36.816 33.64 36.584 32.376 36.12 31.352C35.672 30.328 34.984 29.552 34.056 29.024C33.144 28.48 32 28.208 30.624 28.208H28.632V42.176ZM48.0114 44.312C46.8434 44.312 45.7874 44.04 44.8434 43.496C43.8994 42.952 43.1474 42.176 42.5874 41.168C42.0434 40.144 41.7714 38.92 41.7714 37.496C41.7714 36.424 41.9314 35.472 42.2514 34.64C42.5714 33.792 43.0034 33.072 43.5474 32.48C44.1074 31.872 44.7394 31.416 45.4434 31.112C46.1474 30.792 46.8674 30.632 47.6034 30.632C48.7234 30.632 49.6674 30.88 50.4354 31.376C51.2034 31.872 51.7874 32.584 52.1874 33.512C52.6034 34.424 52.8114 35.504 52.8114 36.752C52.8114 36.992 52.8034 37.216 52.7874 37.424C52.7714 37.632 52.7474 37.824 52.7154 38H43.9314C43.9794 38.928 44.1874 39.736 44.5554 40.424C44.9394 41.096 45.4434 41.624 46.0674 42.008C46.6914 42.376 47.4194 42.56 48.2514 42.56C48.8914 42.56 49.4674 42.472 49.9794 42.296C50.5074 42.104 51.0194 41.848 51.5154 41.528L52.2834 42.992C51.7234 43.36 51.0914 43.672 50.3874 43.928C49.6834 44.184 48.8914 44.312 48.0114 44.312ZM43.9074 36.44H50.8914C50.8914 35.128 50.6034 34.128 50.0274 33.44C49.4674 32.736 48.6754 32.384 47.6514 32.384C47.0434 32.384 46.4674 32.544 45.9234 32.864C45.3954 33.184 44.9474 33.64 44.5794 34.232C44.2274 34.824 44.0034 35.56 43.9074 36.44ZM56.2633 44V28.88C56.2633 28 56.3993 27.24 56.6713 26.6C56.9433 25.96 57.3593 25.464 57.9193 25.112C58.4793 24.76 59.1913 24.584 60.0553 24.584C60.4553 24.584 60.8393 24.624 61.2073 24.704C61.5913 24.784 61.9353 24.88 62.2393 24.992L61.7593 26.696C61.2793 26.456 60.7913 26.336 60.2953 26.336C59.6713 26.336 59.2073 26.552 58.9033 26.984C58.5993 27.416 58.4473 28.056 58.4473 28.904V44H56.2633ZM54.4873 32.744V31.088L56.3593 30.968H61.2073V32.744H54.4873ZM66.0986 44.312C65.3786 44.312 64.7306 44.168 64.1546 43.88C63.5786 43.592 63.1226 43.176 62.7866 42.632C62.4666 42.072 62.3066 41.4 62.3066 40.616C62.3066 39.192 62.9386 38.104 64.2026 37.352C65.4826 36.584 67.5146 36.048 70.2986 35.744C70.2986 35.184 70.2186 34.656 70.0586 34.16C69.9146 33.648 69.6506 33.24 69.2666 32.936C68.8826 32.616 68.3306 32.456 67.6106 32.456C66.8586 32.456 66.1466 32.608 65.4746 32.912C64.8186 33.2 64.2266 33.512 63.6986 33.848L62.8586 32.336C63.2586 32.08 63.7226 31.824 64.2506 31.568C64.7786 31.296 65.3546 31.072 65.9786 30.896C66.6026 30.72 67.2666 30.632 67.9706 30.632C69.0266 30.632 69.8826 30.856 70.5386 31.304C71.2106 31.752 71.6986 32.376 72.0026 33.176C72.3226 33.96 72.4826 34.896 72.4826 35.984V44H70.6826L70.4906 42.44H70.4186C69.8106 42.952 69.1386 43.392 68.4026 43.76C67.6826 44.128 66.9146 44.312 66.0986 44.312ZM66.7226 42.536C67.3466 42.536 67.9386 42.392 68.4986 42.104C69.0746 41.816 69.6746 41.392 70.2986 40.832V37.208C68.8426 37.368 67.6826 37.6 66.8186 37.904C65.9546 38.192 65.3386 38.552 64.9706 38.984C64.6026 39.4 64.4186 39.896 64.4186 40.472C64.4186 41.224 64.6426 41.76 65.0906 42.08C65.5386 42.384 66.0826 42.536 66.7226 42.536ZM80.4381 44.312C79.0621 44.312 78.0461 43.88 77.3901 43.016C76.7501 42.152 76.4301 40.888 76.4301 39.224V30.968H78.6381V38.96C78.6381 40.16 78.8301 41.04 79.2141 41.6C79.5981 42.144 80.2221 42.416 81.0861 42.416C81.7581 42.416 82.3581 42.24 82.8861 41.888C83.4141 41.536 83.9901 40.976 84.6141 40.208V30.968H86.7981V44H84.9741L84.8061 41.96H84.7341C84.1261 42.664 83.4781 43.232 82.7901 43.664C82.1181 44.096 81.3341 44.312 80.4381 44.312ZM93.5042 44.312C92.9602 44.312 92.5202 44.2 92.1842 43.976C91.8482 43.752 91.6002 43.424 91.4402 42.992C91.2802 42.544 91.2002 42.016 91.2002 41.408V24.896H93.4082V41.552C93.4082 41.888 93.4642 42.128 93.5762 42.272C93.7042 42.416 93.8482 42.488 94.0082 42.488C94.0722 42.488 94.1362 42.488 94.2002 42.488C94.2642 42.472 94.3522 42.456 94.4642 42.44L94.7762 44.12C94.6162 44.168 94.4402 44.208 94.2482 44.24C94.0562 44.288 93.8082 44.312 93.5042 44.312ZM102.101 44.312C101.189 44.312 100.461 44.136 99.9165 43.784C99.3725 43.416 98.9805 42.904 98.7405 42.248C98.5165 41.592 98.4045 40.832 98.4045 39.968V32.744H96.4605V31.088L98.5245 30.968L98.7645 27.296H100.589V30.968H104.141V32.744H100.589V40.04C100.589 40.824 100.733 41.44 101.021 41.888C101.325 42.32 101.853 42.536 102.605 42.536C102.845 42.536 103.101 42.504 103.373 42.44C103.645 42.36 103.885 42.272 104.093 42.176L104.525 43.832C104.157 43.96 103.765 44.072 103.349 44.168C102.933 44.264 102.517 44.312 102.101 44.312ZM114.739 44.312C114.195 44.312 113.755 44.2 113.419 43.976C113.083 43.752 112.835 43.424 112.675 42.992C112.515 42.544 112.435 42.016 112.435 41.408V24.896H114.643V41.552C114.643 41.888 114.699 42.128 114.811 42.272C114.939 42.416 115.083 42.488 115.243 42.488C115.307 42.488 115.371 42.488 115.435 42.488C115.499 42.472 115.587 42.456 115.699 42.44L116.011 44.12C115.851 44.168 115.675 44.208 115.483 44.24C115.291 44.288 115.043 44.312 114.739 44.312ZM124.535 44.312C123.367 44.312 122.311 44.04 121.367 43.496C120.423 42.952 119.671 42.176 119.111 41.168C118.567 40.144 118.295 38.92 118.295 37.496C118.295 36.424 118.455 35.472 118.775 34.64C119.095 33.792 119.527 33.072 120.071 32.48C120.631 31.872 121.263 31.416 121.967 31.112C122.671 30.792 123.391 30.632 124.127 30.632C125.247 30.632 126.191 30.88 126.959 31.376C127.727 31.872 128.311 32.584 128.711 33.512C129.127 34.424 129.335 35.504 129.335 36.752C129.335 36.992 129.327 37.216 129.311 37.424C129.295 37.632 129.271 37.824 129.239 38H120.455C120.503 38.928 120.711 39.736 121.079 40.424C121.463 41.096 121.967 41.624 122.591 42.008C123.215 42.376 123.943 42.56 124.775 42.56C125.415 42.56 125.991 42.472 126.503 42.296C127.031 42.104 127.543 41.848 128.039 41.528L128.807 42.992C128.247 43.36 127.615 43.672 126.911 43.928C126.207 44.184 125.415 44.312 124.535 44.312ZM120.431 36.44H127.415C127.415 35.128 127.127 34.128 126.551 33.44C125.991 32.736 125.199 32.384 124.175 32.384C123.567 32.384 122.991 32.544 122.447 32.864C121.919 33.184 121.471 33.64 121.103 34.232C120.751 34.824 120.527 35.56 120.431 36.44ZM135.099 44.312C134.379 44.312 133.731 44.168 133.155 43.88C132.579 43.592 132.123 43.176 131.787 42.632C131.467 42.072 131.307 41.4 131.307 40.616C131.307 39.192 131.939 38.104 133.203 37.352C134.483 36.584 136.515 36.048 139.299 35.744C139.299 35.184 139.219 34.656 139.059 34.16C138.915 33.648 138.651 33.24 138.267 32.936C137.883 32.616 137.331 32.456 136.611 32.456C135.859 32.456 135.147 32.608 134.475 32.912C133.819 33.2 133.227 33.512 132.699 33.848L131.859 32.336C132.259 32.08 132.723 31.824 133.251 31.568C133.779 31.296 134.355 31.072 134.979 30.896C135.603 30.72 136.267 30.632 136.971 30.632C138.027 30.632 138.883 30.856 139.539 31.304C140.211 31.752 140.699 32.376 141.003 33.176C141.323 33.96 141.483 34.896 141.483 35.984V44H139.683L139.491 42.44H139.419C138.811 42.952 138.139 43.392 137.403 43.76C136.683 44.128 135.915 44.312 135.099 44.312ZM135.723 42.536C136.347 42.536 136.939 42.392 137.499 42.104C138.075 41.816 138.675 41.392 139.299 40.832V37.208C137.843 37.368 136.683 37.6 135.819 37.904C134.955 38.192 134.339 38.552 133.971 38.984C133.603 39.4 133.419 39.896 133.419 40.472C133.419 41.224 133.643 41.76 134.091 42.08C134.539 42.384 135.083 42.536 135.723 42.536ZM150.062 44.312C148.974 44.312 148.022 44.048 147.206 43.52C146.406 42.992 145.782 42.224 145.334 41.216C144.902 40.192 144.686 38.952 144.686 37.496C144.686 36.088 144.95 34.872 145.478 33.848C146.006 32.824 146.694 32.032 147.542 31.472C148.406 30.912 149.334 30.632 150.326 30.632C151.094 30.632 151.75 30.768 152.294 31.04C152.854 31.296 153.422 31.664 153.998 32.144L153.878 29.912V24.896H156.086V44H154.286L154.094 42.464H154.022C153.51 42.976 152.918 43.416 152.246 43.784C151.574 44.136 150.846 44.312 150.062 44.312ZM150.542 42.464C151.15 42.464 151.726 42.32 152.27 42.032C152.814 41.728 153.35 41.28 153.878 40.688V33.848C153.334 33.352 152.806 33 152.294 32.792C151.782 32.584 151.254 32.48 150.71 32.48C150.022 32.48 149.39 32.696 148.814 33.128C148.254 33.544 147.798 34.128 147.446 34.88C147.11 35.616 146.942 36.48 146.942 37.472C146.942 38.512 147.086 39.408 147.374 40.16C147.662 40.912 148.07 41.488 148.598 41.888C149.142 42.272 149.79 42.464 150.542 42.464ZM160.505 44V30.968H162.713V44H160.505ZM161.609 28.28C161.177 28.28 160.825 28.152 160.553 27.896C160.297 27.624 160.169 27.264 160.169 26.816C160.169 26.384 160.297 26.04 160.553 25.784C160.825 25.528 161.177 25.4 161.609 25.4C162.041 25.4 162.393 25.528 162.665 25.784C162.937 26.04 163.073 26.384 163.073 26.816C163.073 27.264 162.937 27.624 162.665 27.896C162.393 28.152 162.041 28.28 161.609 28.28ZM167.114 44V30.968H168.914L169.13 32.864H169.178C169.802 32.24 170.458 31.712 171.146 31.28C171.85 30.848 172.65 30.632 173.546 30.632C174.922 30.632 175.93 31.072 176.57 31.952C177.21 32.816 177.53 34.08 177.53 35.744V44H175.346V36.032C175.346 34.8 175.146 33.912 174.746 33.368C174.362 32.824 173.738 32.552 172.874 32.552C172.202 32.552 171.602 32.72 171.074 33.056C170.546 33.392 169.962 33.888 169.322 34.544V44H167.114ZM186.155 50C185.099 50 184.163 49.864 183.347 49.592C182.531 49.32 181.899 48.92 181.451 48.392C181.003 47.88 180.779 47.256 180.779 46.52C180.779 45.96 180.947 45.416 181.283 44.888C181.619 44.376 182.091 43.936 182.699 43.568V43.448C182.363 43.24 182.083 42.96 181.859 42.608C181.635 42.256 181.523 41.824 181.523 41.312C181.523 40.768 181.675 40.288 181.979 39.872C182.299 39.456 182.627 39.128 182.963 38.888V38.792C182.531 38.456 182.139 37.984 181.787 37.376C181.435 36.768 181.259 36.072 181.259 35.288C181.259 34.328 181.483 33.504 181.931 32.816C182.379 32.112 182.971 31.576 183.707 31.208C184.459 30.824 185.267 30.632 186.131 30.632C186.515 30.632 186.859 30.664 187.163 30.728C187.483 30.792 187.755 30.872 187.979 30.968H192.515V32.648H189.851C190.171 32.952 190.427 33.336 190.619 33.8C190.811 34.264 190.907 34.776 190.907 35.336C190.907 36.264 190.691 37.072 190.259 37.76C189.843 38.432 189.275 38.952 188.555 39.32C187.835 39.688 187.027 39.872 186.131 39.872C185.827 39.872 185.499 39.832 185.147 39.752C184.811 39.672 184.499 39.56 184.211 39.416C183.971 39.608 183.771 39.824 183.611 40.064C183.451 40.304 183.371 40.608 183.371 40.976C183.371 41.376 183.531 41.712 183.851 41.984C184.171 42.256 184.771 42.392 185.651 42.392H188.219C189.723 42.392 190.851 42.64 191.603 43.136C192.371 43.632 192.755 44.416 192.755 45.488C192.755 46.288 192.483 47.032 191.939 47.72C191.395 48.408 190.627 48.96 189.635 49.376C188.659 49.792 187.499 50 186.155 50ZM186.131 38.384C186.643 38.384 187.107 38.256 187.523 38C187.955 37.744 188.291 37.384 188.531 36.92C188.787 36.456 188.915 35.912 188.915 35.288C188.915 34.648 188.787 34.104 188.531 33.656C188.291 33.192 187.963 32.84 187.547 32.6C187.131 32.36 186.659 32.24 186.131 32.24C185.635 32.24 185.171 32.36 184.739 32.6C184.323 32.84 183.987 33.184 183.731 33.632C183.491 34.08 183.371 34.632 183.371 35.288C183.371 35.912 183.499 36.456 183.755 36.92C184.011 37.384 184.347 37.744 184.763 38C185.179 38.256 185.635 38.384 186.131 38.384ZM186.467 48.488C187.299 48.488 188.019 48.36 188.627 48.104C189.251 47.848 189.731 47.512 190.067 47.096C190.419 46.696 190.595 46.28 190.595 45.848C190.595 45.224 190.371 44.792 189.923 44.552C189.475 44.312 188.819 44.192 187.955 44.192H185.699C185.459 44.192 185.187 44.176 184.883 44.144C184.595 44.128 184.307 44.08 184.019 44C183.555 44.32 183.219 44.672 183.011 45.056C182.803 45.456 182.699 45.84 182.699 46.208C182.699 46.896 183.027 47.448 183.683 47.864C184.355 48.28 185.283 48.488 186.467 48.488Z" fill="#1A1A1A"/>
<path d="M33.048 88.312C31.96 88.312 30.944 88.112 30 87.712C29.072 87.296 28.264 86.696 27.576 85.912C26.888 85.128 26.352 84.176 25.968 83.056C25.584 81.92 25.392 80.64 25.392 79.216C25.392 77.792 25.584 76.52 25.968 75.4C26.368 74.264 26.92 73.304 27.624 72.52C28.328 71.736 29.152 71.136 30.096 70.72C31.04 70.304 32.072 70.096 33.192 70.096C34.264 70.096 35.208 70.32 36.024 70.768C36.84 71.2 37.504 71.696 38.016 72.256L36.816 73.696C36.352 73.2 35.824 72.8 35.232 72.496C34.64 72.192 33.968 72.04 33.216 72.04C32.112 72.04 31.144 72.328 30.312 72.904C29.48 73.48 28.832 74.304 28.368 75.376C27.904 76.432 27.672 77.688 27.672 79.144C27.672 80.632 27.896 81.92 28.344 83.008C28.792 84.08 29.424 84.912 30.24 85.504C31.056 86.08 32.024 86.368 33.144 86.368C33.976 86.368 34.72 86.192 35.376 85.84C36.048 85.488 36.664 85 37.224 84.376L38.448 85.792C37.76 86.592 36.976 87.216 36.096 87.664C35.216 88.096 34.2 88.312 33.048 88.312ZM44.5127 88.312C43.7927 88.312 43.1447 88.168 42.5687 87.88C41.9927 87.592 41.5367 87.176 41.2007 86.632C40.8807 86.072 40.7207 85.4 40.7207 84.616C40.7207 83.192 41.3527 82.104 42.6167 81.352C43.8967 80.584 45.9287 80.048 48.7127 79.744C48.7127 79.184 48.6327 78.656 48.4727 78.16C48.3287 77.648 48.0647 77.24 47.6807 76.936C47.2967 76.616 46.7447 76.456 46.0247 76.456C45.2727 76.456 44.5607 76.608 43.8887 76.912C43.2327 77.2 42.6407 77.512 42.1127 77.848L41.2727 76.336C41.6727 76.08 42.1367 75.824 42.6647 75.568C43.1927 75.296 43.7687 75.072 44.3927 74.896C45.0167 74.72 45.6807 74.632 46.3847 74.632C47.4407 74.632 48.2967 74.856 48.9527 75.304C49.6247 75.752 50.1127 76.376 50.4167 77.176C50.7367 77.96 50.8967 78.896 50.8967 79.984V88H49.0967L48.9047 86.44H48.8327C48.2247 86.952 47.5527 87.392 46.8167 87.76C46.0967 88.128 45.3287 88.312 44.5127 88.312ZM45.1367 86.536C45.7607 86.536 46.3527 86.392 46.9127 86.104C47.4887 85.816 48.0887 85.392 48.7127 84.832V81.208C47.2567 81.368 46.0967 81.6 45.2327 81.904C44.3687 82.192 43.7527 82.552 43.3847 82.984C43.0167 83.4 42.8327 83.896 42.8327 84.472C42.8327 85.224 43.0567 85.76 43.5047 86.08C43.9527 86.384 44.4967 86.536 45.1367 86.536ZM55.0361 93.496V74.968H56.8361L57.0521 76.48H57.1001C57.6921 75.984 58.3401 75.552 59.0441 75.184C59.7641 74.816 60.5001 74.632 61.2521 74.632C62.3721 74.632 63.3161 74.912 64.0841 75.472C64.8681 76.016 65.4521 76.784 65.8361 77.776C66.2361 78.768 66.4361 79.936 66.4361 81.28C66.4361 82.768 66.1641 84.04 65.6201 85.096C65.0921 86.136 64.3961 86.936 63.5321 87.496C62.6841 88.04 61.7641 88.312 60.7721 88.312C60.1801 88.312 59.5801 88.184 58.9721 87.928C58.3641 87.656 57.7641 87.28 57.1721 86.8L57.2441 89.08V93.496H55.0361ZM60.4121 86.464C61.1321 86.464 61.7721 86.264 62.3321 85.864C62.9081 85.448 63.3561 84.856 63.6761 84.088C63.9961 83.304 64.1561 82.376 64.1561 81.304C64.1561 80.344 64.0361 79.504 63.7961 78.784C63.5721 78.048 63.2121 77.48 62.7161 77.08C62.2201 76.68 61.5481 76.48 60.7001 76.48C60.1561 76.48 59.5961 76.632 59.0201 76.936C58.4601 77.24 57.8681 77.68 57.2441 78.256V85.12C57.8201 85.616 58.3881 85.968 58.9481 86.176C59.5081 86.368 59.9961 86.464 60.4121 86.464ZM68.9087 82.12V80.44H75.0767V82.12H68.9087ZM78.333 88V68.896H80.541V74.128L80.445 76.816C81.053 76.208 81.701 75.696 82.389 75.28C83.077 74.848 83.869 74.632 84.765 74.632C86.141 74.632 87.149 75.072 87.789 75.952C88.429 76.816 88.749 78.08 88.749 79.744V88H86.565V80.032C86.565 78.8 86.365 77.912 85.965 77.368C85.581 76.824 84.957 76.552 84.093 76.552C83.421 76.552 82.821 76.72 82.293 77.056C81.765 77.392 81.181 77.888 80.541 78.544V88H78.333ZM98.1911 88.312C97.0231 88.312 95.9671 88.04 95.0231 87.496C94.0791 86.952 93.3271 86.176 92.7671 85.168C92.2231 84.144 91.9511 82.92 91.9511 81.496C91.9511 80.424 92.1111 79.472 92.4311 78.64C92.7511 77.792 93.1831 77.072 93.7271 76.48C94.2871 75.872 94.9191 75.416 95.6231 75.112C96.3271 74.792 97.0471 74.632 97.7831 74.632C98.9031 74.632 99.8471 74.88 100.615 75.376C101.383 75.872 101.967 76.584 102.367 77.512C102.783 78.424 102.991 79.504 102.991 80.752C102.991 80.992 102.983 81.216 102.967 81.424C102.951 81.632 102.927 81.824 102.895 82H94.1111C94.1591 82.928 94.3671 83.736 94.7351 84.424C95.1191 85.096 95.6231 85.624 96.2471 86.008C96.8711 86.376 97.5991 86.56 98.4311 86.56C99.0711 86.56 99.6471 86.472 100.159 86.296C100.687 86.104 101.199 85.848 101.695 85.528L102.463 86.992C101.903 87.36 101.271 87.672 100.567 87.928C99.8631 88.184 99.0711 88.312 98.1911 88.312ZM94.0871 80.44H101.071C101.071 79.128 100.783 78.128 100.207 77.44C99.6471 76.736 98.8551 76.384 97.8311 76.384C97.2231 76.384 96.6471 76.544 96.1031 76.864C95.5751 77.184 95.1271 77.64 94.7591 78.232C94.4071 78.824 94.1831 79.56 94.0871 80.44ZM106.2 88V74.968H108.408V88H106.2ZM107.304 72.28C106.872 72.28 106.52 72.152 106.248 71.896C105.992 71.624 105.864 71.264 105.864 70.816C105.864 70.384 105.992 70.04 106.248 69.784C106.52 69.528 106.872 69.4 107.304 69.4C107.736 69.4 108.088 69.528 108.36 69.784C108.632 70.04 108.768 70.384 108.768 70.816C108.768 71.264 108.632 71.624 108.36 71.896C108.088 72.152 107.736 72.28 107.304 72.28ZM117.202 94C116.146 94 115.21 93.864 114.394 93.592C113.578 93.32 112.946 92.92 112.498 92.392C112.05 91.88 111.826 91.256 111.826 90.52C111.826 89.96 111.994 89.416 112.33 88.888C112.666 88.376 113.138 87.936 113.746 87.568V87.448C113.41 87.24 113.13 86.96 112.906 86.608C112.682 86.256 112.57 85.824 112.57 85.312C112.57 84.768 112.722 84.288 113.026 83.872C113.346 83.456 113.674 83.128 114.01 82.888V82.792C113.578 82.456 113.186 81.984 112.834 81.376C112.482 80.768 112.306 80.072 112.306 79.288C112.306 78.328 112.53 77.504 112.978 76.816C113.426 76.112 114.018 75.576 114.754 75.208C115.506 74.824 116.314 74.632 117.178 74.632C117.562 74.632 117.906 74.664 118.21 74.728C118.53 74.792 118.802 74.872 119.026 74.968H123.562V76.648H120.898C121.218 76.952 121.474 77.336 121.666 77.8C121.858 78.264 121.954 78.776 121.954 79.336C121.954 80.264 121.738 81.072 121.306 81.76C120.89 82.432 120.322 82.952 119.602 83.32C118.882 83.688 118.074 83.872 117.178 83.872C116.874 83.872 116.546 83.832 116.194 83.752C115.858 83.672 115.546 83.56 115.258 83.416C115.018 83.608 114.818 83.824 114.658 84.064C114.498 84.304 114.418 84.608 114.418 84.976C114.418 85.376 114.578 85.712 114.898 85.984C115.218 86.256 115.818 86.392 116.698 86.392H119.266C120.77 86.392 121.898 86.64 122.65 87.136C123.418 87.632 123.802 88.416 123.802 89.488C123.802 90.288 123.53 91.032 122.986 91.72C122.442 92.408 121.674 92.96 120.682 93.376C119.706 93.792 118.546 94 117.202 94ZM117.178 82.384C117.69 82.384 118.154 82.256 118.57 82C119.002 81.744 119.338 81.384 119.578 80.92C119.834 80.456 119.962 79.912 119.962 79.288C119.962 78.648 119.834 78.104 119.578 77.656C119.338 77.192 119.01 76.84 118.594 76.6C118.178 76.36 117.706 76.24 117.178 76.24C116.682 76.24 116.218 76.36 115.786 76.6C115.37 76.84 115.034 77.184 114.778 77.632C114.538 78.08 114.418 78.632 114.418 79.288C114.418 79.912 114.546 80.456 114.802 80.92C115.058 81.384 115.394 81.744 115.81 82C116.226 82.256 116.682 82.384 117.178 82.384ZM117.514 92.488C118.346 92.488 119.066 92.36 119.674 92.104C120.298 91.848 120.778 91.512 121.114 91.096C121.466 90.696 121.642 90.28 121.642 89.848C121.642 89.224 121.418 88.792 120.97 88.552C120.522 88.312 119.866 88.192 119.002 88.192H116.746C116.506 88.192 116.234 88.176 115.93 88.144C115.642 88.128 115.354 88.08 115.066 88C114.602 88.32 114.266 88.672 114.058 89.056C113.85 89.456 113.746 89.84 113.746 90.208C113.746 90.896 114.074 91.448 114.73 91.864C115.402 92.28 116.33 92.488 117.514 92.488ZM126.356 88V68.896H128.564V74.128L128.468 76.816C129.076 76.208 129.724 75.696 130.412 75.28C131.1 74.848 131.892 74.632 132.788 74.632C134.164 74.632 135.172 75.072 135.812 75.952C136.452 76.816 136.772 78.08 136.772 79.744V88H134.588V80.032C134.588 78.8 134.388 77.912 133.988 77.368C133.604 76.824 132.98 76.552 132.116 76.552C131.444 76.552 130.844 76.72 130.316 77.056C129.788 77.392 129.204 77.888 128.564 78.544V88H126.356ZM145.015 88.312C144.103 88.312 143.375 88.136 142.831 87.784C142.287 87.416 141.895 86.904 141.655 86.248C141.431 85.592 141.319 84.832 141.319 83.968V76.744H139.375V75.088L141.439 74.968L141.679 71.296H143.503V74.968H147.055V76.744H143.503V84.04C143.503 84.824 143.647 85.44 143.935 85.888C144.239 86.32 144.767 86.536 145.519 86.536C145.759 86.536 146.015 86.504 146.287 86.44C146.559 86.36 146.799 86.272 147.007 86.176L147.439 87.832C147.071 87.96 146.679 88.072 146.263 88.168C145.847 88.264 145.431 88.312 145.015 88.312ZM159.429 88.312C158.517 88.312 157.789 88.136 157.245 87.784C156.701 87.416 156.309 86.904 156.069 86.248C155.845 85.592 155.733 84.832 155.733 83.968V76.744H153.789V75.088L155.853 74.968L156.093 71.296H157.917V74.968H161.469V76.744H157.917V84.04C157.917 84.824 158.061 85.44 158.349 85.888C158.653 86.32 159.181 86.536 159.933 86.536C160.173 86.536 160.429 86.504 160.701 86.44C160.973 86.36 161.213 86.272 161.421 86.176L161.853 87.832C161.485 87.96 161.093 88.072 160.677 88.168C160.261 88.264 159.845 88.312 159.429 88.312ZM164.396 88V74.968H166.196L166.412 77.344H166.46C166.908 76.512 167.452 75.856 168.092 75.376C168.748 74.88 169.436 74.632 170.156 74.632C170.46 74.632 170.716 74.656 170.924 74.704C171.148 74.736 171.356 74.808 171.548 74.92L171.14 76.816C170.916 76.752 170.716 76.704 170.54 76.672C170.364 76.624 170.14 76.6 169.868 76.6C169.34 76.6 168.772 76.832 168.164 77.296C167.556 77.744 167.036 78.52 166.604 79.624V88H164.396ZM173.7 88V74.968H175.908V88H173.7ZM174.804 72.28C174.372 72.28 174.02 72.152 173.748 71.896C173.492 71.624 173.364 71.264 173.364 70.816C173.364 70.384 173.492 70.04 173.748 69.784C174.02 69.528 174.372 69.4 174.804 69.4C175.236 69.4 175.588 69.528 175.86 69.784C176.132 70.04 176.268 70.384 176.268 70.816C176.268 71.264 176.132 71.624 175.86 71.896C175.588 72.152 175.236 72.28 174.804 72.28ZM180.31 88V74.968H182.11L182.326 76.864H182.374C182.95 76.24 183.574 75.712 184.246 75.28C184.934 74.848 185.662 74.632 186.43 74.632C187.438 74.632 188.222 74.856 188.782 75.304C189.342 75.752 189.758 76.36 190.03 77.128C190.718 76.392 191.406 75.792 192.094 75.328C192.798 74.864 193.55 74.632 194.35 74.632C195.678 74.632 196.662 75.072 197.302 75.952C197.958 76.816 198.286 78.08 198.286 79.744V88H196.102V80.032C196.102 78.8 195.902 77.912 195.502 77.368C195.118 76.824 194.51 76.552 193.678 76.552C193.182 76.552 192.662 76.72 192.118 77.056C191.59 77.376 191.014 77.872 190.39 78.544V88H188.206V80.032C188.206 78.8 188.006 77.912 187.606 77.368C187.222 76.824 186.614 76.552 185.782 76.552C185.286 76.552 184.766 76.72 184.222 77.056C183.678 77.376 183.11 77.872 182.518 78.544V88H180.31ZM202.528 88V74.968H204.328L204.544 76.864H204.592C205.168 76.24 205.792 75.712 206.464 75.28C207.152 74.848 207.88 74.632 208.648 74.632C209.656 74.632 210.44 74.856 211 75.304C211.56 75.752 211.976 76.36 212.248 77.128C212.936 76.392 213.624 75.792 214.312 75.328C215.016 74.864 215.768 74.632 216.568 74.632C217.896 74.632 218.88 75.072 219.52 75.952C220.176 76.816 220.504 78.08 220.504 79.744V88H218.32V80.032C218.32 78.8 218.12 77.912 217.72 77.368C217.336 76.824 216.728 76.552 215.896 76.552C215.4 76.552 214.88 76.72 214.336 77.056C213.808 77.376 213.232 77.872 212.608 78.544V88H210.424V80.032C210.424 78.8 210.224 77.912 209.824 77.368C209.44 76.824 208.832 76.552 208 76.552C207.504 76.552 206.984 76.72 206.44 77.056C205.896 77.376 205.328 77.872 204.736 78.544V88H202.528ZM230.027 88.312C228.859 88.312 227.803 88.04 226.859 87.496C225.915 86.952 225.163 86.176 224.603 85.168C224.059 84.144 223.787 82.92 223.787 81.496C223.787 80.424 223.947 79.472 224.267 78.64C224.587 77.792 225.019 77.072 225.563 76.48C226.123 75.872 226.755 75.416 227.459 75.112C228.163 74.792 228.883 74.632 229.619 74.632C230.739 74.632 231.683 74.88 232.451 75.376C233.219 75.872 233.803 76.584 234.203 77.512C234.619 78.424 234.827 79.504 234.827 80.752C234.827 80.992 234.819 81.216 234.803 81.424C234.787 81.632 234.763 81.824 234.731 82H225.947C225.995 82.928 226.203 83.736 226.571 84.424C226.955 85.096 227.459 85.624 228.083 86.008C228.707 86.376 229.435 86.56 230.267 86.56C230.907 86.56 231.483 86.472 231.995 86.296C232.523 86.104 233.035 85.848 233.531 85.528L234.299 86.992C233.739 87.36 233.107 87.672 232.403 87.928C231.699 88.184 230.907 88.312 230.027 88.312ZM225.923 80.44H232.907C232.907 79.128 232.619 78.128 232.043 77.44C231.483 76.736 230.691 76.384 229.667 76.384C229.059 76.384 228.483 76.544 227.939 76.864C227.411 77.184 226.963 77.64 226.595 78.232C226.243 78.824 226.019 79.56 225.923 80.44ZM242.476 88.312C241.388 88.312 240.436 88.048 239.62 87.52C238.82 86.992 238.196 86.224 237.748 85.216C237.316 84.192 237.1 82.952 237.1 81.496C237.1 80.088 237.364 78.872 237.892 77.848C238.42 76.824 239.108 76.032 239.956 75.472C240.82 74.912 241.748 74.632 242.74 74.632C243.508 74.632 244.164 74.768 244.708 75.04C245.268 75.296 245.836 75.664 246.412 76.144L246.292 73.912V68.896H248.5V88H246.7L246.508 86.464H246.436C245.924 86.976 245.332 87.416 244.66 87.784C243.988 88.136 243.26 88.312 242.476 88.312ZM242.956 86.464C243.564 86.464 244.14 86.32 244.684 86.032C245.228 85.728 245.764 85.28 246.292 84.688V77.848C245.748 77.352 245.22 77 244.708 76.792C244.196 76.584 243.668 76.48 243.124 76.48C242.436 76.48 241.804 76.696 241.228 77.128C240.668 77.544 240.212 78.128 239.86 78.88C239.524 79.616 239.356 80.48 239.356 81.472C239.356 82.512 239.5 83.408 239.788 84.16C240.076 84.912 240.484 85.488 241.012 85.888C241.556 86.272 242.204 86.464 242.956 86.464Z" fill="#1A1A1A"/>
</svg>
