<svg width="720" height="140" viewBox="0 0 720 140" fill="none" xmlns="http://www.w3.org/2000/svg">
<rect width="720" height="140" fill="#F7F7F7"/>
<path d="M25.616 35V23.272H32.368V24.52H27.088V28.488H31.568V29.736H27.088V35H25.616ZM34.3001 35V26.312H35.7721V35H34.3001ZM35.0361 24.52C34.7481 24.52 34.5135 24.4347 34.3321 24.264C34.1615 24.0827 34.0761 23.8427 34.0761 23.544C34.0761 23.256 34.1615 23.0267 34.3321 22.856C34.5135 22.6853 34.7481 22.6 35.0361 22.6C35.3241 22.6 35.5588 22.6853 35.7401 22.856C35.9215 23.0267 36.0121 23.256 36.0121 23.544C36.0121 23.8427 35.9215 24.0827 35.7401 24.264C35.5588 24.4347 35.3241 24.52 35.0361 24.52ZM38.7064 35V26.312H39.9064L40.0504 27.896H40.0824C40.381 27.3413 40.7437 26.904 41.1704 26.584C41.6077 26.2533 42.0664 26.088 42.5464 26.088C42.749 26.088 42.9197 26.104 43.0584 26.136C43.2077 26.1573 43.3464 26.2053 43.4744 26.28L43.2024 27.544C43.053 27.5013 42.9197 27.4693 42.8024 27.448C42.685 27.416 42.5357 27.4 42.3544 27.4C42.0024 27.4 41.6237 27.5547 41.2184 27.864C40.813 28.1627 40.4664 28.68 40.1784 29.416V35H38.7064ZM47.0721 35.208C46.4641 35.208 45.8721 35.096 45.2961 34.872C44.7308 34.6373 44.2455 34.3493 43.8401 34.008L44.5441 33.032C44.9281 33.3413 45.3228 33.592 45.7281 33.784C46.1335 33.976 46.5975 34.072 47.1201 34.072C47.6961 34.072 48.1228 33.944 48.4001 33.688C48.6881 33.4213 48.8321 33.096 48.8321 32.712C48.8321 32.4133 48.7308 32.168 48.5281 31.976C48.3361 31.7733 48.0855 31.6027 47.7761 31.464C47.4775 31.3147 47.1681 31.1813 46.8481 31.064C46.4428 30.904 46.0428 30.728 45.6481 30.536C45.2641 30.3333 44.9441 30.0773 44.6881 29.768C44.4428 29.448 44.3201 29.0427 44.3201 28.552C44.3201 28.0827 44.4375 27.6667 44.6721 27.304C44.9068 26.9307 45.2481 26.6373 45.6961 26.424C46.1441 26.2 46.6828 26.088 47.3121 26.088C47.8455 26.088 48.3415 26.184 48.8001 26.376C49.2695 26.568 49.6695 26.8027 50.0001 27.08L49.2961 27.992C48.9975 27.7787 48.6881 27.5973 48.3681 27.448C48.0588 27.2987 47.7121 27.224 47.3281 27.224C46.7735 27.224 46.3628 27.352 46.0961 27.608C45.8401 27.8533 45.7121 28.1467 45.7121 28.488C45.7121 28.7547 45.7975 28.9787 45.9681 29.16C46.1495 29.3413 46.3841 29.496 46.6721 29.624C46.9601 29.7413 47.2641 29.864 47.5841 29.992C47.9041 30.1093 48.2188 30.2373 48.5281 30.376C48.8481 30.5147 49.1308 30.68 49.3761 30.872C49.6321 31.064 49.8348 31.304 49.9841 31.592C50.1441 31.8693 50.2241 32.216 50.2241 32.632C50.2241 33.1013 50.1015 33.5333 49.8561 33.928C49.6215 34.3227 49.2695 34.6373 48.8001 34.872C48.3415 35.096 47.7655 35.208 47.0721 35.208ZM54.5983 35.208C53.9903 35.208 53.5049 35.0907 53.1423 34.856C52.7796 34.6107 52.5183 34.2693 52.3583 33.832C52.2089 33.3947 52.1343 32.888 52.1343 32.312V27.496H50.8383V26.392L52.2143 26.312L52.3743 23.864H53.5903V26.312H55.9583V27.496H53.5903V32.36C53.5903 32.8827 53.6863 33.2933 53.8783 33.592C54.0809 33.88 54.4329 34.024 54.9343 34.024C55.0943 34.024 55.2649 34.0027 55.4463 33.96C55.6276 33.9067 55.7876 33.848 55.9263 33.784L56.2143 34.888C55.9689 34.9733 55.7076 35.048 55.4303 35.112C55.1529 35.176 54.8756 35.208 54.5983 35.208ZM61.4876 38.664V26.312H62.6876L62.8316 27.32H62.8636C63.2583 26.9893 63.6903 26.7013 64.1596 26.456C64.6396 26.2107 65.1303 26.088 65.6316 26.088C66.3783 26.088 67.0076 26.2747 67.5196 26.648C68.0423 27.0107 68.4316 27.5227 68.6876 28.184C68.9543 28.8453 69.0876 29.624 69.0876 30.52C69.0876 31.512 68.9063 32.36 68.5436 33.064C68.1916 33.7573 67.7276 34.2907 67.1516 34.664C66.5863 35.0267 65.973 35.208 65.3116 35.208C64.917 35.208 64.517 35.1227 64.1116 34.952C63.7063 34.7707 63.3063 34.52 62.9116 34.2L62.9596 35.72V38.664H61.4876ZM65.0716 33.976C65.5516 33.976 65.9783 33.8427 66.3516 33.576C66.7356 33.2987 67.0343 32.904 67.2476 32.392C67.461 31.8693 67.5676 31.2507 67.5676 30.536C67.5676 29.896 67.4876 29.336 67.3276 28.856C67.1783 28.3653 66.9383 27.9867 66.6076 27.72C66.277 27.4533 65.829 27.32 65.2636 27.32C64.901 27.32 64.5276 27.4213 64.1436 27.624C63.7703 27.8267 63.3756 28.12 62.9596 28.504V33.08C63.3436 33.4107 63.7223 33.6453 64.0956 33.784C64.469 33.912 64.7943 33.976 65.0716 33.976ZM73.1126 35.208C72.6326 35.208 72.2006 35.112 71.8166 34.92C71.4326 34.728 71.1286 34.4507 70.9046 34.088C70.6913 33.7147 70.5846 33.2667 70.5846 32.744C70.5846 31.7947 71.006 31.0693 71.8486 30.568C72.702 30.056 74.0566 29.6987 75.9126 29.496C75.9126 29.1227 75.8593 28.7707 75.7526 28.44C75.6566 28.0987 75.4806 27.8267 75.2246 27.624C74.9686 27.4107 74.6006 27.304 74.1206 27.304C73.6193 27.304 73.1446 27.4053 72.6966 27.608C72.2593 27.8 71.8646 28.008 71.5126 28.232L70.9526 27.224C71.2193 27.0533 71.5286 26.8827 71.8806 26.712C72.2326 26.5307 72.6166 26.3813 73.0326 26.264C73.4486 26.1467 73.8913 26.088 74.3606 26.088C75.0646 26.088 75.6353 26.2373 76.0726 26.536C76.5206 26.8347 76.846 27.2507 77.0486 27.784C77.262 28.3067 77.3686 28.9307 77.3686 29.656V35H76.1686L76.0406 33.96H75.9926C75.5873 34.3013 75.1393 34.5947 74.6486 34.84C74.1686 35.0853 73.6566 35.208 73.1126 35.208ZM73.5286 34.024C73.9446 34.024 74.3393 33.928 74.7126 33.736C75.0966 33.544 75.4966 33.2613 75.9126 32.888V30.472C74.942 30.5787 74.1686 30.7333 73.5926 30.936C73.0166 31.128 72.606 31.368 72.3606 31.656C72.1153 31.9333 71.9926 32.264 71.9926 32.648C71.9926 33.1493 72.142 33.5067 72.4406 33.72C72.7393 33.9227 73.102 34.024 73.5286 34.024ZM80.1283 35V26.312H81.3283L81.4723 27.896H81.5043C81.8029 27.3413 82.1656 26.904 82.5923 26.584C83.0296 26.2533 83.4883 26.088 83.9683 26.088C84.1709 26.088 84.3416 26.104 84.4803 26.136C84.6296 26.1573 84.7683 26.2053 84.8963 26.28L84.6243 27.544C84.4749 27.5013 84.3416 27.4693 84.2243 27.448C84.1069 27.416 83.9576 27.4 83.7763 27.4C83.4243 27.4 83.0456 27.5547 82.6403 27.864C82.2349 28.1627 81.8883 28.68 81.6003 29.416V35H80.1283ZM87.8626 35.208C87.3826 35.208 86.9506 35.112 86.5666 34.92C86.1826 34.728 85.8786 34.4507 85.6546 34.088C85.4413 33.7147 85.3346 33.2667 85.3346 32.744C85.3346 31.7947 85.756 31.0693 86.5986 30.568C87.452 30.056 88.8066 29.6987 90.6626 29.496C90.6626 29.1227 90.6093 28.7707 90.5026 28.44C90.4066 28.0987 90.2306 27.8267 89.9746 27.624C89.7186 27.4107 89.3506 27.304 88.8706 27.304C88.3693 27.304 87.8946 27.4053 87.4466 27.608C87.0093 27.8 86.6146 28.008 86.2626 28.232L85.7026 27.224C85.9693 27.0533 86.2786 26.8827 86.6306 26.712C86.9826 26.5307 87.3666 26.3813 87.7826 26.264C88.1986 26.1467 88.6413 26.088 89.1106 26.088C89.8146 26.088 90.3853 26.2373 90.8226 26.536C91.2706 26.8347 91.596 27.2507 91.7986 27.784C92.012 28.3067 92.1186 28.9307 92.1186 29.656V35H90.9186L90.7906 33.96H90.7426C90.3373 34.3013 89.8893 34.5947 89.3986 34.84C88.9186 35.0853 88.4066 35.208 87.8626 35.208ZM88.2786 34.024C88.6946 34.024 89.0893 33.928 89.4626 33.736C89.8466 33.544 90.2466 33.2613 90.6626 32.888V30.472C89.692 30.5787 88.9186 30.7333 88.3426 30.936C87.7666 31.128 87.356 31.368 87.1106 31.656C86.8653 31.9333 86.7426 32.264 86.7426 32.648C86.7426 33.1493 86.892 33.5067 87.1906 33.72C87.4893 33.9227 87.852 34.024 88.2786 34.024ZM97.8063 39C97.1023 39 96.4783 38.9093 95.9343 38.728C95.3903 38.5467 94.9689 38.28 94.6703 37.928C94.3716 37.5867 94.2223 37.1707 94.2223 36.68C94.2223 36.3067 94.3343 35.944 94.5583 35.592C94.7823 35.2507 95.0969 34.9573 95.5023 34.712V34.632C95.2783 34.4933 95.0916 34.3067 94.9423 34.072C94.7929 33.8373 94.7183 33.5493 94.7183 33.208C94.7183 32.8453 94.8196 32.5253 95.0223 32.248C95.2356 31.9707 95.4543 31.752 95.6783 31.592V31.528C95.3903 31.304 95.1289 30.9893 94.8943 30.584C94.6596 30.1787 94.5423 29.7147 94.5423 29.192C94.5423 28.552 94.6916 28.0027 94.9903 27.544C95.2889 27.0747 95.6836 26.7173 96.1743 26.472C96.6756 26.216 97.2143 26.088 97.7903 26.088C98.0463 26.088 98.2756 26.1093 98.4783 26.152C98.6916 26.1947 98.8729 26.248 99.0223 26.312H102.046V27.432H100.27C100.484 27.6347 100.654 27.8907 100.782 28.2C100.91 28.5093 100.974 28.8507 100.974 29.224C100.974 29.8427 100.83 30.3813 100.542 30.84C100.265 31.288 99.8863 31.6347 99.4063 31.88C98.9263 32.1253 98.3876 32.248 97.7903 32.248C97.5876 32.248 97.3689 32.2213 97.1343 32.168C96.9103 32.1147 96.7023 32.04 96.5103 31.944C96.3503 32.072 96.2169 32.216 96.1103 32.376C96.0036 32.536 95.9503 32.7387 95.9503 32.984C95.9503 33.2507 96.0569 33.4747 96.2703 33.656C96.4836 33.8373 96.8836 33.928 97.4703 33.928H99.1823C100.185 33.928 100.937 34.0933 101.438 34.424C101.95 34.7547 102.206 35.2773 102.206 35.992C102.206 36.5253 102.025 37.0213 101.662 37.48C101.3 37.9387 100.788 38.3067 100.126 38.584C99.4756 38.8613 98.7023 39 97.8063 39ZM97.7903 31.256C98.1316 31.256 98.4409 31.1707 98.7183 31C99.0063 30.8293 99.2303 30.5893 99.3903 30.28C99.5609 29.9707 99.6463 29.608 99.6463 29.192C99.6463 28.7653 99.5609 28.4027 99.3903 28.104C99.2303 27.7947 99.0116 27.56 98.7343 27.4C98.4569 27.24 98.1423 27.16 97.7903 27.16C97.4596 27.16 97.1503 27.24 96.8623 27.4C96.5849 27.56 96.3609 27.7893 96.1903 28.088C96.0303 28.3867 95.9503 28.7547 95.9503 29.192C95.9503 29.608 96.0356 29.9707 96.2063 30.28C96.3769 30.5893 96.6009 30.8293 96.8783 31C97.1556 31.1707 97.4596 31.256 97.7903 31.256ZM98.0143 37.992C98.5689 37.992 99.0489 37.9067 99.4543 37.736C99.8703 37.5653 100.19 37.3413 100.414 37.064C100.649 36.7973 100.766 36.52 100.766 36.232C100.766 35.816 100.617 35.528 100.318 35.368C100.02 35.208 99.5823 35.128 99.0063 35.128H97.5023C97.3423 35.128 97.1609 35.1173 96.9583 35.096C96.7663 35.0853 96.5743 35.0533 96.3823 35C96.0729 35.2133 95.8489 35.448 95.7103 35.704C95.5716 35.9707 95.5023 36.2267 95.5023 36.472C95.5023 36.9307 95.7209 37.2987 96.1583 37.576C96.6063 37.8533 97.2249 37.992 98.0143 37.992ZM103.91 35V26.312H105.11L105.254 27.896H105.286C105.584 27.3413 105.947 26.904 106.374 26.584C106.811 26.2533 107.27 26.088 107.75 26.088C107.952 26.088 108.123 26.104 108.262 26.136C108.411 26.1573 108.55 26.2053 108.678 26.28L108.406 27.544C108.256 27.5013 108.123 27.4693 108.006 27.448C107.888 27.416 107.739 27.4 107.558 27.4C107.206 27.4 106.827 27.5547 106.422 27.864C106.016 28.1627 105.67 28.68 105.382 29.416V35H103.91ZM111.644 35.208C111.164 35.208 110.732 35.112 110.348 34.92C109.964 34.728 109.66 34.4507 109.436 34.088C109.223 33.7147 109.116 33.2667 109.116 32.744C109.116 31.7947 109.537 31.0693 110.38 30.568C111.233 30.056 112.588 29.6987 114.444 29.496C114.444 29.1227 114.391 28.7707 114.284 28.44C114.188 28.0987 114.012 27.8267 113.756 27.624C113.5 27.4107 113.132 27.304 112.652 27.304C112.151 27.304 111.676 27.4053 111.228 27.608C110.791 27.8 110.396 28.008 110.044 28.232L109.484 27.224C109.751 27.0533 110.06 26.8827 110.412 26.712C110.764 26.5307 111.148 26.3813 111.564 26.264C111.98 26.1467 112.423 26.088 112.892 26.088C113.596 26.088 114.167 26.2373 114.604 26.536C115.052 26.8347 115.377 27.2507 115.58 27.784C115.793 28.3067 115.9 28.9307 115.9 29.656V35H114.7L114.572 33.96H114.524C114.119 34.3013 113.671 34.5947 113.18 34.84C112.7 35.0853 112.188 35.208 111.644 35.208ZM112.06 34.024C112.476 34.024 112.871 33.928 113.244 33.736C113.628 33.544 114.028 33.2613 114.444 32.888V30.472C113.473 30.5787 112.7 30.7333 112.124 30.936C111.548 31.128 111.137 31.368 110.892 31.656C110.647 31.9333 110.524 32.264 110.524 32.648C110.524 33.1493 110.673 33.5067 110.972 33.72C111.271 33.9227 111.633 34.024 112.06 34.024ZM118.66 38.664V26.312H119.86L120.004 27.32H120.036C120.43 26.9893 120.862 26.7013 121.332 26.456C121.812 26.2107 122.302 26.088 122.804 26.088C123.55 26.088 124.18 26.2747 124.692 26.648C125.214 27.0107 125.604 27.5227 125.86 28.184C126.126 28.8453 126.26 29.624 126.26 30.52C126.26 31.512 126.078 32.36 125.716 33.064C125.364 33.7573 124.9 34.2907 124.324 34.664C123.758 35.0267 123.145 35.208 122.484 35.208C122.089 35.208 121.689 35.1227 121.284 34.952C120.878 34.7707 120.478 34.52 120.084 34.2L120.132 35.72V38.664H118.66ZM122.244 33.976C122.724 33.976 123.15 33.8427 123.524 33.576C123.908 33.2987 124.206 32.904 124.42 32.392C124.633 31.8693 124.74 31.2507 124.74 30.536C124.74 29.896 124.66 29.336 124.5 28.856C124.35 28.3653 124.11 27.9867 123.78 27.72C123.449 27.4533 123.001 27.32 122.436 27.32C122.073 27.32 121.7 27.4213 121.316 27.624C120.942 27.8267 120.548 28.12 120.132 28.504V33.08C120.516 33.4107 120.894 33.6453 121.268 33.784C121.641 33.912 121.966 33.976 122.244 33.976ZM128.581 35V22.264H130.053V25.752L129.989 27.544C130.395 27.1387 130.827 26.7973 131.285 26.52C131.744 26.232 132.272 26.088 132.869 26.088C133.787 26.088 134.459 26.3813 134.885 26.968C135.312 27.544 135.525 28.3867 135.525 29.496V35H134.069V29.688C134.069 28.8667 133.936 28.2747 133.669 27.912C133.413 27.5493 132.997 27.368 132.421 27.368C131.973 27.368 131.573 27.48 131.221 27.704C130.869 27.928 130.48 28.2587 130.053 28.696V35H128.581ZM139.052 35.208C138.764 35.208 138.513 35.1067 138.3 34.904C138.097 34.6907 137.996 34.424 137.996 34.104C137.996 33.7627 138.097 33.4907 138.3 33.288C138.513 33.0853 138.764 32.984 139.052 32.984C139.34 32.984 139.585 33.0853 139.788 33.288C140.001 33.4907 140.108 33.7627 140.108 34.104C140.108 34.424 140.001 34.6907 139.788 34.904C139.585 35.1067 139.34 35.208 139.052 35.208ZM28.864 75.208C28.032 75.208 27.264 75.0533 26.56 74.744C25.8667 74.4347 25.2693 74.0133 24.768 73.48L25.648 72.456C26.064 72.8933 26.5547 73.2453 27.12 73.512C27.6853 73.7787 28.272 73.912 28.88 73.912C29.6587 73.912 30.2613 73.736 30.688 73.384C31.1253 73.032 31.344 72.5733 31.344 72.008C31.344 71.592 31.2533 71.2613 31.072 71.016C30.9013 70.7707 30.6667 70.568 30.368 70.408C30.08 70.2373 29.7493 70.072 29.376 69.912L27.696 69.176C27.3333 69.016 26.9653 68.8133 26.592 68.568C26.2293 68.3227 25.9253 68.0027 25.68 67.608C25.4347 67.2133 25.312 66.7333 25.312 66.168C25.312 65.56 25.472 65.0267 25.792 64.568C26.112 64.0987 26.5493 63.7307 27.104 63.464C27.6587 63.1973 28.2933 63.064 29.008 63.064C29.712 63.064 30.3573 63.1973 30.944 63.464C31.5413 63.7307 32.0427 64.0773 32.448 64.504L31.68 65.448C31.3173 65.1173 30.9173 64.856 30.48 64.664C30.0533 64.4613 29.5627 64.36 29.008 64.36C28.3467 64.36 27.8133 64.5147 27.408 64.824C27.0133 65.1227 26.816 65.5333 26.816 66.056C26.816 66.44 26.912 66.7547 27.104 67C27.3067 67.2453 27.5573 67.4427 27.856 67.592C28.1547 67.7413 28.4587 67.8853 28.768 68.024L30.432 68.744C30.88 68.936 31.2853 69.1653 31.648 69.432C32.0213 69.6987 32.3147 70.0293 32.528 70.424C32.7413 70.8187 32.848 71.304 32.848 71.88C32.848 72.4987 32.688 73.064 32.368 73.576C32.048 74.0773 31.5893 74.4773 30.992 74.776C30.3947 75.064 29.6853 75.208 28.864 75.208ZM38.5233 75.208C37.7446 75.208 37.0406 75.0267 36.4113 74.664C35.7819 74.3013 35.2806 73.784 34.9073 73.112C34.5446 72.4293 34.3633 71.6133 34.3633 70.664C34.3633 69.9493 34.4699 69.3147 34.6833 68.76C34.8966 68.1947 35.1846 67.7147 35.5473 67.32C35.9206 66.9147 36.3419 66.6107 36.8113 66.408C37.2806 66.1947 37.7606 66.088 38.2513 66.088C38.9979 66.088 39.6273 66.2533 40.1393 66.584C40.6513 66.9147 41.0406 67.3893 41.3073 68.008C41.5846 68.616 41.7233 69.336 41.7233 70.168C41.7233 70.328 41.7179 70.4773 41.7073 70.616C41.6966 70.7547 41.6806 70.8827 41.6593 71H35.8033C35.8353 71.6187 35.9739 72.1573 36.2193 72.616C36.4753 73.064 36.8113 73.416 37.2273 73.672C37.6433 73.9173 38.1286 74.04 38.6833 74.04C39.1099 74.04 39.4939 73.9813 39.8353 73.864C40.1873 73.736 40.5286 73.5653 40.8593 73.352L41.3713 74.328C40.9979 74.5733 40.5766 74.7813 40.1073 74.952C39.6379 75.1227 39.1099 75.208 38.5233 75.208ZM35.7873 69.96H40.4433C40.4433 69.0853 40.2513 68.4187 39.8673 67.96C39.4939 67.4907 38.9659 67.256 38.2833 67.256C37.8779 67.256 37.4939 67.3627 37.1313 67.576C36.7793 67.7893 36.4806 68.0933 36.2353 68.488C36.0006 68.8827 35.8513 69.3733 35.7873 69.96ZM47.2866 75.208C46.5186 75.208 45.8253 75.032 45.2066 74.68C44.5986 74.3173 44.1133 73.8 43.7506 73.128C43.3986 72.4453 43.2226 71.624 43.2226 70.664C43.2226 69.6933 43.4146 68.872 43.7986 68.2C44.1826 67.5173 44.6946 66.9947 45.3346 66.632C45.9746 66.2693 46.6626 66.088 47.3986 66.088C47.964 66.088 48.4493 66.1893 48.8546 66.392C49.2706 66.5947 49.628 66.8347 49.9266 67.112L49.1906 68.072C48.9453 67.848 48.6786 67.6667 48.3906 67.528C48.1133 67.3893 47.804 67.32 47.4626 67.32C46.94 67.32 46.4706 67.4587 46.0546 67.736C45.6386 68.0133 45.3133 68.4027 45.0786 68.904C44.844 69.4053 44.7266 69.992 44.7266 70.664C44.7266 71.3253 44.8386 71.9067 45.0626 72.408C45.2973 72.9093 45.612 73.2987 46.0066 73.576C46.412 73.8533 46.8813 73.992 47.4146 73.992C47.82 73.992 48.1933 73.912 48.5346 73.752C48.876 73.5813 49.1853 73.3733 49.4626 73.128L50.1026 74.12C49.708 74.4613 49.2706 74.728 48.7906 74.92C48.3106 75.112 47.8093 75.208 47.2866 75.208ZM54.973 75.208C54.269 75.208 53.6077 75.032 52.989 74.68C52.3703 74.3173 51.8743 73.8 51.501 73.128C51.1383 72.4453 50.957 71.624 50.957 70.664C50.957 69.6933 51.1383 68.872 51.501 68.2C51.8743 67.5173 52.3703 66.9947 52.989 66.632C53.6077 66.2693 54.269 66.088 54.973 66.088C55.5063 66.088 56.013 66.1893 56.493 66.392C56.9837 66.5947 57.4157 66.8933 57.789 67.288C58.1623 67.6827 58.4557 68.1627 58.669 68.728C58.8823 69.2933 58.989 69.9387 58.989 70.664C58.989 71.624 58.8023 72.4453 58.429 73.128C58.0557 73.8 57.565 74.3173 56.957 74.68C56.349 75.032 55.6877 75.208 54.973 75.208ZM54.973 73.992C55.4743 73.992 55.9117 73.8533 56.285 73.576C56.669 73.2987 56.9677 72.9093 57.181 72.408C57.3943 71.9067 57.501 71.3253 57.501 70.664C57.501 69.992 57.3943 69.4053 57.181 68.904C56.9677 68.4027 56.669 68.0133 56.285 67.736C55.9117 67.4587 55.4743 67.32 54.973 67.32C54.4717 67.32 54.029 67.4587 53.645 67.736C53.2717 68.0133 52.9783 68.4027 52.765 68.904C52.5623 69.4053 52.461 69.992 52.461 70.664C52.461 71.3253 52.5623 71.9067 52.765 72.408C52.9783 72.9093 53.2717 73.2987 53.645 73.576C54.029 73.8533 54.4717 73.992 54.973 73.992ZM61.3001 75V66.312H62.5001L62.6441 67.576H62.6761C63.0921 67.16 63.5295 66.808 63.9881 66.52C64.4575 66.232 64.9908 66.088 65.5881 66.088C66.5055 66.088 67.1775 66.3813 67.6041 66.968C68.0308 67.544 68.2441 68.3867 68.2441 69.496V75H66.7881V69.688C66.7881 68.8667 66.6548 68.2747 66.3881 67.912C66.1321 67.5493 65.7161 67.368 65.1401 67.368C64.6921 67.368 64.2921 67.48 63.9401 67.704C63.5881 67.928 63.1988 68.2587 62.7721 68.696V75H61.3001ZM74.0258 75.208C73.3004 75.208 72.6658 75.032 72.1218 74.68C71.5884 74.328 71.1724 73.816 70.8738 73.144C70.5858 72.4613 70.4418 71.6347 70.4418 70.664C70.4418 69.7253 70.6178 68.9147 70.9698 68.232C71.3218 67.5493 71.7804 67.0213 72.3458 66.648C72.9218 66.2747 73.5404 66.088 74.2018 66.088C74.7138 66.088 75.1511 66.1787 75.5138 66.36C75.8871 66.5307 76.2658 66.776 76.6498 67.096L76.5698 65.608V62.264H78.0417V75H76.8418L76.7138 73.976H76.6658C76.3244 74.3173 75.9298 74.6107 75.4818 74.856C75.0338 75.0907 74.5484 75.208 74.0258 75.208ZM74.3458 73.976C74.7511 73.976 75.1351 73.88 75.4978 73.688C75.8604 73.4853 76.2178 73.1867 76.5698 72.792V68.232C76.2071 67.9013 75.8551 67.6667 75.5138 67.528C75.1724 67.3893 74.8204 67.32 74.4578 67.32C73.9991 67.32 73.5778 67.464 73.1938 67.752C72.8204 68.0293 72.5164 68.4187 72.2818 68.92C72.0578 69.4107 71.9457 69.9867 71.9457 70.648C71.9457 71.3413 72.0418 71.9387 72.2338 72.44C72.4258 72.9413 72.6978 73.3253 73.0498 73.592C73.4124 73.848 73.8444 73.976 74.3458 73.976ZM84.5658 78.664V66.312H85.7658L85.9098 67.32H85.9418C86.3364 66.9893 86.7684 66.7013 87.2378 66.456C87.7178 66.2107 88.2084 66.088 88.7098 66.088C89.4564 66.088 90.0858 66.2747 90.5978 66.648C91.1204 67.0107 91.5098 67.5227 91.7658 68.184C92.0324 68.8453 92.1658 69.624 92.1658 70.52C92.1658 71.512 91.9844 72.36 91.6218 73.064C91.2698 73.7573 90.8058 74.2907 90.2298 74.664C89.6644 75.0267 89.0511 75.208 88.3898 75.208C87.9951 75.208 87.5951 75.1227 87.1898 74.952C86.7844 74.7707 86.3844 74.52 85.9898 74.2L86.0378 75.72V78.664H84.5658ZM88.1498 73.976C88.6298 73.976 89.0564 73.8427 89.4298 73.576C89.8138 73.2987 90.1124 72.904 90.3258 72.392C90.5391 71.8693 90.6458 71.2507 90.6458 70.536C90.6458 69.896 90.5658 69.336 90.4058 68.856C90.2564 68.3653 90.0164 67.9867 89.6858 67.72C89.3551 67.4533 88.9071 67.32 88.3418 67.32C87.9791 67.32 87.6058 67.4213 87.2218 67.624C86.8484 67.8267 86.4538 68.12 86.0378 68.504V73.08C86.4218 73.4107 86.8004 73.6453 87.1738 73.784C87.5471 73.912 87.8724 73.976 88.1498 73.976ZM96.1908 75.208C95.7108 75.208 95.2788 75.112 94.8948 74.92C94.5108 74.728 94.2068 74.4507 93.9828 74.088C93.7694 73.7147 93.6628 73.2667 93.6628 72.744C93.6628 71.7947 94.0841 71.0693 94.9268 70.568C95.7801 70.056 97.1348 69.6987 98.9908 69.496C98.9908 69.1227 98.9374 68.7707 98.8308 68.44C98.7348 68.0987 98.5588 67.8267 98.3028 67.624C98.0468 67.4107 97.6788 67.304 97.1988 67.304C96.6974 67.304 96.2228 67.4053 95.7748 67.608C95.3374 67.8 94.9428 68.008 94.5908 68.232L94.0308 67.224C94.2974 67.0533 94.6068 66.8827 94.9588 66.712C95.3108 66.5307 95.6948 66.3813 96.1108 66.264C96.5268 66.1467 96.9694 66.088 97.4388 66.088C98.1428 66.088 98.7134 66.2373 99.1508 66.536C99.5988 66.8347 99.9241 67.2507 100.127 67.784C100.34 68.3067 100.447 68.9307 100.447 69.656V75H99.2468L99.1188 73.96H99.0708C98.6654 74.3013 98.2174 74.5947 97.7268 74.84C97.2468 75.0853 96.7348 75.208 96.1908 75.208ZM96.6068 74.024C97.0228 74.024 97.4174 73.928 97.7908 73.736C98.1748 73.544 98.5748 73.2613 98.9908 72.888V70.472C98.0201 70.5787 97.2468 70.7333 96.6708 70.936C96.0948 71.128 95.6841 71.368 95.4388 71.656C95.1934 71.9333 95.0707 72.264 95.0707 72.648C95.0707 73.1493 95.2201 73.5067 95.5188 73.72C95.8174 73.9227 96.1801 74.024 96.6068 74.024ZM103.206 75V66.312H104.406L104.55 67.896H104.582C104.881 67.3413 105.244 66.904 105.67 66.584C106.108 66.2533 106.566 66.088 107.046 66.088C107.249 66.088 107.42 66.104 107.558 66.136C107.708 66.1573 107.846 66.2053 107.974 66.28L107.702 67.544C107.553 67.5013 107.42 67.4693 107.302 67.448C107.185 67.416 107.036 67.4 106.854 67.4C106.502 67.4 106.124 67.5547 105.718 67.864C105.313 68.1627 104.966 68.68 104.678 69.416V75H103.206ZM110.941 75.208C110.461 75.208 110.029 75.112 109.645 74.92C109.261 74.728 108.957 74.4507 108.733 74.088C108.519 73.7147 108.413 73.2667 108.413 72.744C108.413 71.7947 108.834 71.0693 109.677 70.568C110.53 70.056 111.885 69.6987 113.741 69.496C113.741 69.1227 113.687 68.7707 113.581 68.44C113.485 68.0987 113.309 67.8267 113.053 67.624C112.797 67.4107 112.429 67.304 111.949 67.304C111.447 67.304 110.973 67.4053 110.525 67.608C110.087 67.8 109.693 68.008 109.341 68.232L108.781 67.224C109.047 67.0533 109.357 66.8827 109.709 66.712C110.061 66.5307 110.445 66.3813 110.861 66.264C111.277 66.1467 111.719 66.088 112.189 66.088C112.893 66.088 113.463 66.2373 113.901 66.536C114.349 66.8347 114.674 67.2507 114.877 67.784C115.09 68.3067 115.197 68.9307 115.197 69.656V75H113.997L113.869 73.96H113.821C113.415 74.3013 112.967 74.5947 112.477 74.84C111.997 75.0853 111.485 75.208 110.941 75.208ZM111.357 74.024C111.773 74.024 112.167 73.928 112.541 73.736C112.925 73.544 113.325 73.2613 113.741 72.888V70.472C112.77 70.5787 111.997 70.7333 111.421 70.936C110.845 71.128 110.434 71.368 110.189 71.656C109.943 71.9333 109.821 72.264 109.821 72.648C109.821 73.1493 109.97 73.5067 110.269 73.72C110.567 73.9227 110.93 74.024 111.357 74.024ZM120.884 79C120.18 79 119.556 78.9093 119.012 78.728C118.468 78.5467 118.047 78.28 117.748 77.928C117.45 77.5867 117.3 77.1707 117.3 76.68C117.3 76.3067 117.412 75.944 117.636 75.592C117.86 75.2507 118.175 74.9573 118.58 74.712V74.632C118.356 74.4933 118.17 74.3067 118.02 74.072C117.871 73.8373 117.796 73.5493 117.796 73.208C117.796 72.8453 117.898 72.5253 118.1 72.248C118.314 71.9707 118.532 71.752 118.756 71.592V71.528C118.468 71.304 118.207 70.9893 117.972 70.584C117.738 70.1787 117.62 69.7147 117.62 69.192C117.62 68.552 117.77 68.0027 118.068 67.544C118.367 67.0747 118.762 66.7173 119.252 66.472C119.754 66.216 120.292 66.088 120.868 66.088C121.124 66.088 121.354 66.1093 121.556 66.152C121.77 66.1947 121.951 66.248 122.1 66.312H125.124V67.432H123.348C123.562 67.6347 123.732 67.8907 123.86 68.2C123.988 68.5093 124.052 68.8507 124.052 69.224C124.052 69.8427 123.908 70.3813 123.62 70.84C123.343 71.288 122.964 71.6347 122.484 71.88C122.004 72.1253 121.466 72.248 120.868 72.248C120.666 72.248 120.447 72.2213 120.212 72.168C119.988 72.1147 119.78 72.04 119.588 71.944C119.428 72.072 119.295 72.216 119.188 72.376C119.082 72.536 119.028 72.7387 119.028 72.984C119.028 73.2507 119.135 73.4747 119.348 73.656C119.562 73.8373 119.962 73.928 120.548 73.928H122.26C123.263 73.928 124.015 74.0933 124.516 74.424C125.028 74.7547 125.284 75.2773 125.284 75.992C125.284 76.5253 125.103 77.0213 124.74 77.48C124.378 77.9387 123.866 78.3067 123.204 78.584C122.554 78.8613 121.78 79 120.884 79ZM120.868 71.256C121.21 71.256 121.519 71.1707 121.796 71C122.084 70.8293 122.308 70.5893 122.468 70.28C122.639 69.9707 122.724 69.608 122.724 69.192C122.724 68.7653 122.639 68.4027 122.468 68.104C122.308 67.7947 122.09 67.56 121.812 67.4C121.535 67.24 121.22 67.16 120.868 67.16C120.538 67.16 120.228 67.24 119.94 67.4C119.663 67.56 119.439 67.7893 119.268 68.088C119.108 68.3867 119.028 68.7547 119.028 69.192C119.028 69.608 119.114 69.9707 119.284 70.28C119.455 70.5893 119.679 70.8293 119.956 71C120.234 71.1707 120.538 71.256 120.868 71.256ZM121.092 77.992C121.647 77.992 122.127 77.9067 122.532 77.736C122.948 77.5653 123.268 77.3413 123.492 77.064C123.727 76.7973 123.844 76.52 123.844 76.232C123.844 75.816 123.695 75.528 123.396 75.368C123.098 75.208 122.66 75.128 122.084 75.128H120.58C120.42 75.128 120.239 75.1173 120.036 75.096C119.844 75.0853 119.652 75.0533 119.46 75C119.151 75.2133 118.927 75.448 118.788 75.704C118.65 75.9707 118.58 76.2267 118.58 76.472C118.58 76.9307 118.799 77.2987 119.236 77.576C119.684 77.8533 120.303 77.992 121.092 77.992ZM126.988 75V66.312H128.188L128.332 67.896H128.364C128.662 67.3413 129.025 66.904 129.452 66.584C129.889 66.2533 130.348 66.088 130.828 66.088C131.03 66.088 131.201 66.104 131.34 66.136C131.489 66.1573 131.628 66.2053 131.756 66.28L131.484 67.544C131.334 67.5013 131.201 67.4693 131.084 67.448C130.966 67.416 130.817 67.4 130.636 67.4C130.284 67.4 129.905 67.5547 129.5 67.864C129.094 68.1627 128.748 68.68 128.46 69.416V75H126.988ZM134.722 75.208C134.242 75.208 133.81 75.112 133.426 74.92C133.042 74.728 132.738 74.4507 132.514 74.088C132.301 73.7147 132.194 73.2667 132.194 72.744C132.194 71.7947 132.615 71.0693 133.458 70.568C134.311 70.056 135.666 69.6987 137.522 69.496C137.522 69.1227 137.469 68.7707 137.362 68.44C137.266 68.0987 137.09 67.8267 136.834 67.624C136.578 67.4107 136.21 67.304 135.73 67.304C135.229 67.304 134.754 67.4053 134.306 67.608C133.869 67.8 133.474 68.008 133.122 68.232L132.562 67.224C132.829 67.0533 133.138 66.8827 133.49 66.712C133.842 66.5307 134.226 66.3813 134.642 66.264C135.058 66.1467 135.501 66.088 135.97 66.088C136.674 66.088 137.245 66.2373 137.682 66.536C138.13 66.8347 138.455 67.2507 138.658 67.784C138.871 68.3067 138.978 68.9307 138.978 69.656V75H137.778L137.65 73.96H137.602C137.197 74.3013 136.749 74.5947 136.258 74.84C135.778 75.0853 135.266 75.208 134.722 75.208ZM135.138 74.024C135.554 74.024 135.949 73.928 136.322 73.736C136.706 73.544 137.106 73.2613 137.522 72.888V70.472C136.551 70.5787 135.778 70.7333 135.202 70.936C134.626 71.128 134.215 71.368 133.97 71.656C133.725 71.9333 133.602 72.264 133.602 72.648C133.602 73.1493 133.751 73.5067 134.05 73.72C134.349 73.9227 134.711 74.024 135.138 74.024ZM141.738 78.664V66.312H142.938L143.082 67.32H143.114C143.508 66.9893 143.94 66.7013 144.41 66.456C144.89 66.2107 145.38 66.088 145.882 66.088C146.628 66.088 147.258 66.2747 147.77 66.648C148.292 67.0107 148.682 67.5227 148.938 68.184C149.204 68.8453 149.338 69.624 149.338 70.52C149.338 71.512 149.156 72.36 148.794 73.064C148.442 73.7573 147.978 74.2907 147.402 74.664C146.836 75.0267 146.223 75.208 145.562 75.208C145.167 75.208 144.767 75.1227 144.362 74.952C143.956 74.7707 143.556 74.52 143.162 74.2L143.21 75.72V78.664H141.738ZM145.322 73.976C145.802 73.976 146.228 73.8427 146.602 73.576C146.986 73.2987 147.284 72.904 147.498 72.392C147.711 71.8693 147.818 71.2507 147.818 70.536C147.818 69.896 147.738 69.336 147.578 68.856C147.428 68.3653 147.188 67.9867 146.858 67.72C146.527 67.4533 146.079 67.32 145.514 67.32C145.151 67.32 144.778 67.4213 144.394 67.624C144.02 67.8267 143.626 68.12 143.21 68.504V73.08C143.594 73.4107 143.972 73.6453 144.346 73.784C144.719 73.912 145.044 73.976 145.322 73.976ZM151.66 75V62.264H153.132V65.752L153.068 67.544C153.473 67.1387 153.905 66.7973 154.364 66.52C154.822 66.232 155.35 66.088 155.948 66.088C156.865 66.088 157.537 66.3813 157.964 66.968C158.39 67.544 158.604 68.3867 158.604 69.496V75H157.148V69.688C157.148 68.8667 157.014 68.2747 156.748 67.912C156.492 67.5493 156.076 67.368 155.5 67.368C155.052 67.368 154.652 67.48 154.299 67.704C153.948 67.928 153.558 68.2587 153.132 68.696V75H151.66ZM162.13 75.208C161.842 75.208 161.592 75.1067 161.378 74.904C161.176 74.6907 161.074 74.424 161.074 74.104C161.074 73.7627 161.176 73.4907 161.378 73.288C161.592 73.0853 161.842 72.984 162.13 72.984C162.418 72.984 162.664 73.0853 162.866 73.288C163.08 73.4907 163.186 73.7627 163.186 74.104C163.186 74.424 163.08 74.6907 162.866 74.904C162.664 75.1067 162.418 75.208 162.13 75.208ZM28.048 115V104.52H24.496V103.272H33.088V104.52H29.536V115H28.048ZM35.0501 115V102.264H36.5221V105.752L36.4581 107.544C36.8635 107.139 37.2955 106.797 37.7541 106.52C38.2128 106.232 38.7408 106.088 39.3381 106.088C40.2555 106.088 40.9275 106.381 41.3541 106.968C41.7808 107.544 41.9941 108.387 41.9941 109.496V115H40.5381V109.688C40.5381 108.867 40.4048 108.275 40.1381 107.912C39.8821 107.549 39.4661 107.368 38.8901 107.368C38.4421 107.368 38.0421 107.48 37.6901 107.704C37.3381 107.928 36.9488 108.259 36.5221 108.696V115H35.0501ZM44.7689 115V106.312H46.2409V115H44.7689ZM45.5049 104.52C45.2169 104.52 44.9822 104.435 44.8009 104.264C44.6302 104.083 44.5449 103.843 44.5449 103.544C44.5449 103.256 44.6302 103.027 44.8009 102.856C44.9822 102.685 45.2169 102.6 45.5049 102.6C45.7929 102.6 46.0275 102.685 46.2089 102.856C46.3902 103.027 46.4809 103.256 46.4809 103.544C46.4809 103.843 46.3902 104.083 46.2089 104.264C46.0275 104.435 45.7929 104.52 45.5049 104.52ZM49.1751 115V106.312H50.3751L50.5191 107.896H50.5511C50.8498 107.341 51.2125 106.904 51.6391 106.584C52.0765 106.253 52.5351 106.088 53.0151 106.088C53.2178 106.088 53.3885 106.104 53.5271 106.136C53.6765 106.157 53.8151 106.205 53.9431 106.28L53.6711 107.544C53.5218 107.501 53.3885 107.469 53.2711 107.448C53.1538 107.416 53.0045 107.4 52.8231 107.4C52.4711 107.4 52.0925 107.555 51.6871 107.864C51.2818 108.163 50.9351 108.68 50.6471 109.416V115H49.1751ZM58.1195 115.208C57.3942 115.208 56.7595 115.032 56.2155 114.68C55.6822 114.328 55.2662 113.816 54.9675 113.144C54.6795 112.461 54.5355 111.635 54.5355 110.664C54.5355 109.725 54.7115 108.915 55.0635 108.232C55.4155 107.549 55.8742 107.021 56.4395 106.648C57.0155 106.275 57.6342 106.088 58.2955 106.088C58.8075 106.088 59.2448 106.179 59.6075 106.36C59.9808 106.531 60.3595 106.776 60.7435 107.096L60.6635 105.608V102.264H62.1355V115H60.9355L60.8075 113.976H60.7595C60.4182 114.317 60.0235 114.611 59.5755 114.856C59.1275 115.091 58.6422 115.208 58.1195 115.208ZM58.4395 113.976C58.8448 113.976 59.2288 113.88 59.5915 113.688C59.9542 113.485 60.3115 113.187 60.6635 112.792V108.232C60.3008 107.901 59.9488 107.667 59.6075 107.528C59.2662 107.389 58.9142 107.32 58.5515 107.32C58.0928 107.32 57.6715 107.464 57.2875 107.752C56.9142 108.029 56.6102 108.419 56.3755 108.92C56.1515 109.411 56.0395 109.987 56.0395 110.648C56.0395 111.341 56.1355 111.939 56.3275 112.44C56.5195 112.941 56.7915 113.325 57.1435 113.592C57.5062 113.848 57.9382 113.976 58.4395 113.976ZM68.6595 118.664V106.312H69.8595L70.0035 107.32H70.0355C70.4302 106.989 70.8622 106.701 71.3315 106.456C71.8115 106.211 72.3022 106.088 72.8035 106.088C73.5502 106.088 74.1795 106.275 74.6915 106.648C75.2142 107.011 75.6035 107.523 75.8595 108.184C76.1262 108.845 76.2595 109.624 76.2595 110.52C76.2595 111.512 76.0782 112.36 75.7155 113.064C75.3635 113.757 74.8995 114.291 74.3235 114.664C73.7582 115.027 73.1448 115.208 72.4835 115.208C72.0888 115.208 71.6888 115.123 71.2835 114.952C70.8782 114.771 70.4782 114.52 70.0835 114.2L70.1315 115.72V118.664H68.6595ZM72.2435 113.976C72.7235 113.976 73.1502 113.843 73.5235 113.576C73.9075 113.299 74.2062 112.904 74.4195 112.392C74.6328 111.869 74.7395 111.251 74.7395 110.536C74.7395 109.896 74.6595 109.336 74.4995 108.856C74.3502 108.365 74.1102 107.987 73.7795 107.72C73.4488 107.453 73.0008 107.32 72.4355 107.32C72.0728 107.32 71.6995 107.421 71.3155 107.624C70.9422 107.827 70.5475 108.12 70.1315 108.504V113.08C70.5155 113.411 70.8942 113.645 71.2675 113.784C71.6408 113.912 71.9662 113.976 72.2435 113.976ZM80.2845 115.208C79.8045 115.208 79.3725 115.112 78.9885 114.92C78.6045 114.728 78.3005 114.451 78.0765 114.088C77.8632 113.715 77.7565 113.267 77.7565 112.744C77.7565 111.795 78.1778 111.069 79.0205 110.568C79.8738 110.056 81.2285 109.699 83.0845 109.496C83.0845 109.123 83.0312 108.771 82.9245 108.44C82.8285 108.099 82.6525 107.827 82.3965 107.624C82.1405 107.411 81.7725 107.304 81.2925 107.304C80.7912 107.304 80.3165 107.405 79.8685 107.608C79.4312 107.8 79.0365 108.008 78.6845 108.232L78.1245 107.224C78.3912 107.053 78.7005 106.883 79.0525 106.712C79.4045 106.531 79.7885 106.381 80.2045 106.264C80.6205 106.147 81.0632 106.088 81.5325 106.088C82.2365 106.088 82.8072 106.237 83.2445 106.536C83.6925 106.835 84.0178 107.251 84.2205 107.784C84.4338 108.307 84.5405 108.931 84.5405 109.656V115H83.3405L83.2125 113.96H83.1645C82.7592 114.301 82.3112 114.595 81.8205 114.84C81.3405 115.085 80.8285 115.208 80.2845 115.208ZM80.7005 114.024C81.1165 114.024 81.5112 113.928 81.8845 113.736C82.2685 113.544 82.6685 113.261 83.0845 112.888V110.472C82.1138 110.579 81.3405 110.733 80.7645 110.936C80.1885 111.128 79.7778 111.368 79.5325 111.656C79.2872 111.933 79.1645 112.264 79.1645 112.648C79.1645 113.149 79.3138 113.507 79.6125 113.72C79.9112 113.923 80.2738 114.024 80.7005 114.024ZM87.3001 115V106.312H88.5001L88.6441 107.896H88.6761C88.9748 107.341 89.3375 106.904 89.7641 106.584C90.2015 106.253 90.6601 106.088 91.1401 106.088C91.3428 106.088 91.5135 106.104 91.6521 106.136C91.8015 106.157 91.9401 106.205 92.0681 106.28L91.7961 107.544C91.6468 107.501 91.5135 107.469 91.3961 107.448C91.2788 107.416 91.1295 107.4 90.9481 107.4C90.5961 107.4 90.2175 107.555 89.8121 107.864C89.4068 108.163 89.0601 108.68 88.7721 109.416V115H87.3001ZM95.0345 115.208C94.5545 115.208 94.1225 115.112 93.7385 114.92C93.3545 114.728 93.0505 114.451 92.8265 114.088C92.6132 113.715 92.5065 113.267 92.5065 112.744C92.5065 111.795 92.9278 111.069 93.7705 110.568C94.6238 110.056 95.9785 109.699 97.8345 109.496C97.8345 109.123 97.7812 108.771 97.6745 108.44C97.5785 108.099 97.4025 107.827 97.1465 107.624C96.8905 107.411 96.5225 107.304 96.0425 107.304C95.5412 107.304 95.0665 107.405 94.6185 107.608C94.1812 107.8 93.7865 108.008 93.4345 108.232L92.8745 107.224C93.1412 107.053 93.4505 106.883 93.8025 106.712C94.1545 106.531 94.5385 106.381 94.9545 106.264C95.3705 106.147 95.8132 106.088 96.2825 106.088C96.9865 106.088 97.5572 106.237 97.9945 106.536C98.4425 106.835 98.7678 107.251 98.9705 107.784C99.1838 108.307 99.2905 108.931 99.2905 109.656V115H98.0905L97.9625 113.96H97.9145C97.5092 114.301 97.0612 114.595 96.5705 114.84C96.0905 115.085 95.5785 115.208 95.0345 115.208ZM95.4505 114.024C95.8665 114.024 96.2612 113.928 96.6345 113.736C97.0185 113.544 97.4185 113.261 97.8345 112.888V110.472C96.8638 110.579 96.0905 110.733 95.5145 110.936C94.9385 111.128 94.5278 111.368 94.2825 111.656C94.0372 111.933 93.9145 112.264 93.9145 112.648C93.9145 113.149 94.0638 113.507 94.3625 113.72C94.6612 113.923 95.0238 114.024 95.4505 114.024ZM104.978 119C104.274 119 103.65 118.909 103.106 118.728C102.562 118.547 102.141 118.28 101.842 117.928C101.543 117.587 101.394 117.171 101.394 116.68C101.394 116.307 101.506 115.944 101.73 115.592C101.954 115.251 102.269 114.957 102.674 114.712V114.632C102.45 114.493 102.263 114.307 102.114 114.072C101.965 113.837 101.89 113.549 101.89 113.208C101.89 112.845 101.991 112.525 102.194 112.248C102.407 111.971 102.626 111.752 102.85 111.592V111.528C102.562 111.304 102.301 110.989 102.066 110.584C101.831 110.179 101.714 109.715 101.714 109.192C101.714 108.552 101.863 108.003 102.162 107.544C102.461 107.075 102.855 106.717 103.346 106.472C103.847 106.216 104.386 106.088 104.962 106.088C105.218 106.088 105.447 106.109 105.65 106.152C105.863 106.195 106.045 106.248 106.194 106.312H109.218V107.432H107.442C107.655 107.635 107.826 107.891 107.954 108.2C108.082 108.509 108.146 108.851 108.146 109.224C108.146 109.843 108.002 110.381 107.714 110.84C107.437 111.288 107.058 111.635 106.578 111.88C106.098 112.125 105.559 112.248 104.962 112.248C104.759 112.248 104.541 112.221 104.306 112.168C104.082 112.115 103.874 112.04 103.682 111.944C103.522 112.072 103.389 112.216 103.282 112.376C103.175 112.536 103.122 112.739 103.122 112.984C103.122 113.251 103.229 113.475 103.442 113.656C103.655 113.837 104.055 113.928 104.642 113.928H106.354C107.357 113.928 108.109 114.093 108.61 114.424C109.122 114.755 109.378 115.277 109.378 115.992C109.378 116.525 109.197 117.021 108.834 117.48C108.471 117.939 107.959 118.307 107.298 118.584C106.647 118.861 105.874 119 104.978 119ZM104.962 111.256C105.303 111.256 105.613 111.171 105.89 111C106.178 110.829 106.402 110.589 106.562 110.28C106.733 109.971 106.818 109.608 106.818 109.192C106.818 108.765 106.733 108.403 106.562 108.104C106.402 107.795 106.183 107.56 105.906 107.4C105.629 107.24 105.314 107.16 104.962 107.16C104.631 107.16 104.322 107.24 104.034 107.4C103.757 107.56 103.533 107.789 103.362 108.088C103.202 108.387 103.122 108.755 103.122 109.192C103.122 109.608 103.207 109.971 103.378 110.28C103.549 110.589 103.773 110.829 104.05 111C104.327 111.171 104.631 111.256 104.962 111.256ZM105.186 117.992C105.741 117.992 106.221 117.907 106.626 117.736C107.042 117.565 107.362 117.341 107.586 117.064C107.821 116.797 107.938 116.52 107.938 116.232C107.938 115.816 107.789 115.528 107.49 115.368C107.191 115.208 106.754 115.128 106.178 115.128H104.674C104.514 115.128 104.333 115.117 104.13 115.096C103.938 115.085 103.746 115.053 103.554 115C103.245 115.213 103.021 115.448 102.882 115.704C102.743 115.971 102.674 116.227 102.674 116.472C102.674 116.931 102.893 117.299 103.33 117.576C103.778 117.853 104.397 117.992 105.186 117.992ZM111.081 115V106.312H112.281L112.425 107.896H112.457C112.756 107.341 113.119 106.904 113.545 106.584C113.983 106.253 114.441 106.088 114.921 106.088C115.124 106.088 115.295 106.104 115.433 106.136C115.583 106.157 115.721 106.205 115.849 106.28L115.577 107.544C115.428 107.501 115.295 107.469 115.177 107.448C115.06 107.416 114.911 107.4 114.729 107.4C114.377 107.4 113.999 107.555 113.593 107.864C113.188 108.163 112.841 108.68 112.553 109.416V115H111.081ZM118.816 115.208C118.336 115.208 117.904 115.112 117.52 114.92C117.136 114.728 116.832 114.451 116.608 114.088C116.394 113.715 116.288 113.267 116.288 112.744C116.288 111.795 116.709 111.069 117.552 110.568C118.405 110.056 119.76 109.699 121.616 109.496C121.616 109.123 121.562 108.771 121.456 108.44C121.36 108.099 121.184 107.827 120.928 107.624C120.672 107.411 120.304 107.304 119.824 107.304C119.322 107.304 118.848 107.405 118.4 107.608C117.962 107.8 117.568 108.008 117.216 108.232L116.656 107.224C116.922 107.053 117.232 106.883 117.584 106.712C117.936 106.531 118.32 106.381 118.736 106.264C119.152 106.147 119.594 106.088 120.064 106.088C120.768 106.088 121.338 106.237 121.776 106.536C122.224 106.835 122.549 107.251 122.752 107.784C122.965 108.307 123.072 108.931 123.072 109.656V115H121.872L121.744 113.96H121.696C121.29 114.301 120.842 114.595 120.352 114.84C119.872 115.085 119.36 115.208 118.816 115.208ZM119.232 114.024C119.648 114.024 120.042 113.928 120.416 113.736C120.8 113.544 121.2 113.261 121.616 112.888V110.472C120.645 110.579 119.872 110.733 119.296 110.936C118.72 111.128 118.309 111.368 118.064 111.656C117.818 111.933 117.696 112.264 117.696 112.648C117.696 113.149 117.845 113.507 118.144 113.72C118.442 113.923 118.805 114.024 119.232 114.024ZM125.831 118.664V106.312H127.031L127.175 107.32H127.207C127.602 106.989 128.034 106.701 128.503 106.456C128.983 106.211 129.474 106.088 129.975 106.088C130.722 106.088 131.351 106.275 131.863 106.648C132.386 107.011 132.775 107.523 133.031 108.184C133.298 108.845 133.431 109.624 133.431 110.52C133.431 111.512 133.25 112.36 132.887 113.064C132.535 113.757 132.071 114.291 131.495 114.664C130.93 115.027 130.317 115.208 129.655 115.208C129.261 115.208 128.861 115.123 128.455 114.952C128.05 114.771 127.65 114.52 127.255 114.2L127.303 115.72V118.664H125.831ZM129.415 113.976C129.895 113.976 130.322 113.843 130.695 113.576C131.079 113.299 131.378 112.904 131.591 112.392C131.805 111.869 131.911 111.251 131.911 110.536C131.911 109.896 131.831 109.336 131.671 108.856C131.522 108.365 131.282 107.987 130.951 107.72C130.621 107.453 130.173 107.32 129.607 107.32C129.245 107.32 128.871 107.421 128.487 107.624C128.114 107.827 127.719 108.12 127.303 108.504V113.08C127.687 113.411 128.066 113.645 128.439 113.784C128.813 113.912 129.138 113.976 129.415 113.976ZM135.753 115V102.264H137.225V105.752L137.161 107.544C137.567 107.139 137.999 106.797 138.457 106.52C138.916 106.232 139.444 106.088 140.041 106.088C140.959 106.088 141.631 106.381 142.057 106.968C142.484 107.544 142.697 108.387 142.697 109.496V115H141.241V109.688C141.241 108.867 141.108 108.275 140.841 107.912C140.585 107.549 140.169 107.368 139.593 107.368C139.145 107.368 138.745 107.48 138.393 107.704C138.041 107.928 137.652 108.259 137.225 108.696V115H135.753ZM146.224 115.208C145.936 115.208 145.685 115.107 145.472 114.904C145.269 114.691 145.168 114.424 145.168 114.104C145.168 113.763 145.269 113.491 145.472 113.288C145.685 113.085 145.936 112.984 146.224 112.984C146.512 112.984 146.757 113.085 146.96 113.288C147.173 113.491 147.28 113.763 147.28 114.104C147.28 114.424 147.173 114.691 146.96 114.904C146.757 115.107 146.512 115.208 146.224 115.208Z" fill="#1A1A1A"/>
</svg>
