<svg width="720" height="140" viewBox="0 0 720 140" fill="none" xmlns="http://www.w3.org/2000/svg">
<g clip-path="url(#clip0_1_124)">
<rect width="720" height="140" fill="#F7F7F7"/>
<path d="M25.616 35V23.272H32.368V24.52H27.088V28.488H31.568V29.736H27.088V35H25.616ZM34.3001 35V26.312H35.7721V35H34.3001ZM35.0361 24.52C34.7481 24.52 34.5135 24.4347 34.3321 24.264C34.1615 24.0827 34.0761 23.8427 34.0761 23.544C34.0761 23.256 34.1615 23.0267 34.3321 22.856C34.5135 22.6853 34.7481 22.6 35.0361 22.6C35.3241 22.6 35.5588 22.6853 35.7401 22.856C35.9215 23.0267 36.0121 23.256 36.0121 23.544C36.0121 23.8427 35.9215 24.0827 35.7401 24.264C35.5588 24.4347 35.3241 24.52 35.0361 24.52ZM38.7064 35V26.312H39.9064L40.0504 27.896H40.0824C40.381 27.3413 40.7437 26.904 41.1704 26.584C41.6077 26.2533 42.0664 26.088 42.5464 26.088C42.749 26.088 42.9197 26.104 43.0584 26.136C43.2077 26.1573 43.3464 26.2053 43.4744 26.28L43.2024 27.544C43.053 27.5013 42.9197 27.4693 42.8024 27.448C42.685 27.416 42.5357 27.4 42.3544 27.4C42.0024 27.4 41.6237 27.5547 41.2184 27.864C40.813 28.1627 40.4664 28.68 40.1784 29.416V35H38.7064ZM47.0721 35.208C46.4641 35.208 45.8721 35.096 45.2961 34.872C44.7308 34.6373 44.2455 34.3493 43.8401 34.008L44.5441 33.032C44.9281 33.3413 45.3228 33.592 45.7281 33.784C46.1335 33.976 46.5975 34.072 47.1201 34.072C47.6961 34.072 48.1228 33.944 48.4001 33.688C48.6881 33.4213 48.8321 33.096 48.8321 32.712C48.8321 32.4133 48.7308 32.168 48.5281 31.976C48.3361 31.7733 48.0855 31.6027 47.7761 31.464C47.4775 31.3147 47.1681 31.1813 46.8481 31.064C46.4428 30.904 46.0428 30.728 45.6481 30.536C45.2641 30.3333 44.9441 30.0773 44.6881 29.768C44.4428 29.448 44.3201 29.0427 44.3201 28.552C44.3201 28.0827 44.4375 27.6667 44.6721 27.304C44.9068 26.9307 45.2481 26.6373 45.6961 26.424C46.1441 26.2 46.6828 26.088 47.3121 26.088C47.8455 26.088 48.3415 26.184 48.8001 26.376C49.2695 26.568 49.6695 26.8027 50.0001 27.08L49.2961 27.992C48.9975 27.7787 48.6881 27.5973 48.3681 27.448C48.0588 27.2987 47.7121 27.224 47.3281 27.224C46.7735 27.224 46.3628 27.352 46.0961 27.608C45.8401 27.8533 45.7121 28.1467 45.7121 28.488C45.7121 28.7547 45.7975 28.9787 45.9681 29.16C46.1495 29.3413 46.3841 29.496 46.6721 29.624C46.9601 29.7413 47.2641 29.864 47.5841 29.992C47.9041 30.1093 48.2188 30.2373 48.5281 30.376C48.8481 30.5147 49.1308 30.68 49.3761 30.872C49.6321 31.064 49.8348 31.304 49.9841 31.592C50.1441 31.8693 50.2241 32.216 50.2241 32.632C50.2241 33.1013 50.1015 33.5333 49.8561 33.928C49.6215 34.3227 49.2695 34.6373 48.8001 34.872C48.3415 35.096 47.7655 35.208 47.0721 35.208ZM54.5983 35.208C53.9903 35.208 53.5049 35.0907 53.1423 34.856C52.7796 34.6107 52.5183 34.2693 52.3583 33.832C52.2089 33.3947 52.1343 32.888 52.1343 32.312V27.496H50.8383V26.392L52.2143 26.312L52.3743 23.864H53.5903V26.312H55.9583V27.496H53.5903V32.36C53.5903 32.8827 53.6863 33.2933 53.8783 33.592C54.0809 33.88 54.4329 34.024 54.9343 34.024C55.0943 34.024 55.2649 34.0027 55.4463 33.96C55.6276 33.9067 55.7876 33.848 55.9263 33.784L56.2143 34.888C55.9689 34.9733 55.7076 35.048 55.4303 35.112C55.1529 35.176 54.8756 35.208 54.5983 35.208ZM61.4876 38.664V26.312H62.6876L62.8316 27.32H62.8636C63.2583 26.9893 63.6903 26.7013 64.1596 26.456C64.6396 26.2107 65.1303 26.088 65.6316 26.088C66.3783 26.088 67.0076 26.2747 67.5196 26.648C68.0423 27.0107 68.4316 27.5227 68.6876 28.184C68.9543 28.8453 69.0876 29.624 69.0876 30.52C69.0876 31.512 68.9063 32.36 68.5436 33.064C68.1916 33.7573 67.7276 34.2907 67.1516 34.664C66.5863 35.0267 65.973 35.208 65.3116 35.208C64.917 35.208 64.517 35.1227 64.1116 34.952C63.7063 34.7707 63.3063 34.52 62.9116 34.2L62.9596 35.72V38.664H61.4876ZM65.0716 33.976C65.5516 33.976 65.9783 33.8427 66.3516 33.576C66.7356 33.2987 67.0343 32.904 67.2476 32.392C67.461 31.8693 67.5676 31.2507 67.5676 30.536C67.5676 29.896 67.4876 29.336 67.3276 28.856C67.1783 28.3653 66.9383 27.9867 66.6076 27.72C66.277 27.4533 65.829 27.32 65.2636 27.32C64.901 27.32 64.5276 27.4213 64.1436 27.624C63.7703 27.8267 63.3756 28.12 62.9596 28.504V33.08C63.3436 33.4107 63.7223 33.6453 64.0956 33.784C64.469 33.912 64.7943 33.976 65.0716 33.976ZM73.1126 35.208C72.6326 35.208 72.2006 35.112 71.8166 34.92C71.4326 34.728 71.1286 34.4507 70.9046 34.088C70.6913 33.7147 70.5846 33.2667 70.5846 32.744C70.5846 31.7947 71.006 31.0693 71.8486 30.568C72.702 30.056 74.0566 29.6987 75.9126 29.496C75.9126 29.1227 75.8593 28.7707 75.7526 28.44C75.6566 28.0987 75.4806 27.8267 75.2246 27.624C74.9686 27.4107 74.6006 27.304 74.1206 27.304C73.6193 27.304 73.1446 27.4053 72.6966 27.608C72.2593 27.8 71.8646 28.008 71.5126 28.232L70.9526 27.224C71.2193 27.0533 71.5286 26.8827 71.8806 26.712C72.2326 26.5307 72.6166 26.3813 73.0326 26.264C73.4486 26.1467 73.8913 26.088 74.3606 26.088C75.0646 26.088 75.6353 26.2373 76.0726 26.536C76.5206 26.8347 76.846 27.2507 77.0486 27.784C77.262 28.3067 77.3686 28.9307 77.3686 29.656V35H76.1686L76.0406 33.96H75.9926C75.5873 34.3013 75.1393 34.5947 74.6486 34.84C74.1686 35.0853 73.6566 35.208 73.1126 35.208ZM73.5286 34.024C73.9446 34.024 74.3393 33.928 74.7126 33.736C75.0966 33.544 75.4966 33.2613 75.9126 32.888V30.472C74.942 30.5787 74.1686 30.7333 73.5926 30.936C73.0166 31.128 72.606 31.368 72.3606 31.656C72.1153 31.9333 71.9926 32.264 71.9926 32.648C71.9926 33.1493 72.142 33.5067 72.4406 33.72C72.7393 33.9227 73.102 34.024 73.5286 34.024ZM80.1283 35V26.312H81.3283L81.4723 27.896H81.5043C81.8029 27.3413 82.1656 26.904 82.5923 26.584C83.0296 26.2533 83.4883 26.088 83.9683 26.088C84.1709 26.088 84.3416 26.104 84.4803 26.136C84.6296 26.1573 84.7683 26.2053 84.8963 26.28L84.6243 27.544C84.4749 27.5013 84.3416 27.4693 84.2243 27.448C84.1069 27.416 83.9576 27.4 83.7763 27.4C83.4243 27.4 83.0456 27.5547 82.6403 27.864C82.2349 28.1627 81.8883 28.68 81.6003 29.416V35H80.1283ZM87.8626 35.208C87.3826 35.208 86.9506 35.112 86.5666 34.92C86.1826 34.728 85.8786 34.4507 85.6546 34.088C85.4413 33.7147 85.3346 33.2667 85.3346 32.744C85.3346 31.7947 85.756 31.0693 86.5986 30.568C87.452 30.056 88.8066 29.6987 90.6626 29.496C90.6626 29.1227 90.6093 28.7707 90.5026 28.44C90.4066 28.0987 90.2306 27.8267 89.9746 27.624C89.7186 27.4107 89.3506 27.304 88.8706 27.304C88.3693 27.304 87.8946 27.4053 87.4466 27.608C87.0093 27.8 86.6146 28.008 86.2626 28.232L85.7026 27.224C85.9693 27.0533 86.2786 26.8827 86.6306 26.712C86.9826 26.5307 87.3666 26.3813 87.7826 26.264C88.1986 26.1467 88.6413 26.088 89.1106 26.088C89.8146 26.088 90.3853 26.2373 90.8226 26.536C91.2706 26.8347 91.596 27.2507 91.7986 27.784C92.012 28.3067 92.1186 28.9307 92.1186 29.656V35H90.9186L90.7906 33.96H90.7426C90.3373 34.3013 89.8893 34.5947 89.3986 34.84C88.9186 35.0853 88.4066 35.208 87.8626 35.208ZM88.2786 34.024C88.6946 34.024 89.0893 33.928 89.4626 33.736C89.8466 33.544 90.2466 33.2613 90.6626 32.888V30.472C89.692 30.5787 88.9186 30.7333 88.3426 30.936C87.7666 31.128 87.356 31.368 87.1106 31.656C86.8653 31.9333 86.7426 32.264 86.7426 32.648C86.7426 33.1493 86.892 33.5067 87.1906 33.72C87.4893 33.9227 87.852 34.024 88.2786 34.024ZM97.8063 39C97.1023 39 96.4783 38.9093 95.9343 38.728C95.3903 38.5467 94.9689 38.28 94.6703 37.928C94.3716 37.5867 94.2223 37.1707 94.2223 36.68C94.2223 36.3067 94.3343 35.944 94.5583 35.592C94.7823 35.2507 95.0969 34.9573 95.5023 34.712V34.632C95.2783 34.4933 95.0916 34.3067 94.9423 34.072C94.7929 33.8373 94.7183 33.5493 94.7183 33.208C94.7183 32.8453 94.8196 32.5253 95.0223 32.248C95.2356 31.9707 95.4543 31.752 95.6783 31.592V31.528C95.3903 31.304 95.1289 30.9893 94.8943 30.584C94.6596 30.1787 94.5423 29.7147 94.5423 29.192C94.5423 28.552 94.6916 28.0027 94.9903 27.544C95.2889 27.0747 95.6836 26.7173 96.1743 26.472C96.6756 26.216 97.2143 26.088 97.7903 26.088C98.0463 26.088 98.2756 26.1093 98.4783 26.152C98.6916 26.1947 98.8729 26.248 99.0223 26.312H102.046V27.432H100.27C100.484 27.6347 100.654 27.8907 100.782 28.2C100.91 28.5093 100.974 28.8507 100.974 29.224C100.974 29.8427 100.83 30.3813 100.542 30.84C100.265 31.288 99.8863 31.6347 99.4063 31.88C98.9263 32.1253 98.3876 32.248 97.7903 32.248C97.5876 32.248 97.3689 32.2213 97.1343 32.168C96.9103 32.1147 96.7023 32.04 96.5103 31.944C96.3503 32.072 96.2169 32.216 96.1103 32.376C96.0036 32.536 95.9503 32.7387 95.9503 32.984C95.9503 33.2507 96.0569 33.4747 96.2703 33.656C96.4836 33.8373 96.8836 33.928 97.4703 33.928H99.1823C100.185 33.928 100.937 34.0933 101.438 34.424C101.95 34.7547 102.206 35.2773 102.206 35.992C102.206 36.5253 102.025 37.0213 101.662 37.48C101.3 37.9387 100.788 38.3067 100.126 38.584C99.4756 38.8613 98.7023 39 97.8063 39ZM97.7903 31.256C98.1316 31.256 98.4409 31.1707 98.7183 31C99.0063 30.8293 99.2303 30.5893 99.3903 30.28C99.5609 29.9707 99.6463 29.608 99.6463 29.192C99.6463 28.7653 99.5609 28.4027 99.3903 28.104C99.2303 27.7947 99.0116 27.56 98.7343 27.4C98.4569 27.24 98.1423 27.16 97.7903 27.16C97.4596 27.16 97.1503 27.24 96.8623 27.4C96.5849 27.56 96.3609 27.7893 96.1903 28.088C96.0303 28.3867 95.9503 28.7547 95.9503 29.192C95.9503 29.608 96.0356 29.9707 96.2063 30.28C96.3769 30.5893 96.6009 30.8293 96.8783 31C97.1556 31.1707 97.4596 31.256 97.7903 31.256ZM98.0143 37.992C98.5689 37.992 99.0489 37.9067 99.4543 37.736C99.8703 37.5653 100.19 37.3413 100.414 37.064C100.649 36.7973 100.766 36.52 100.766 36.232C100.766 35.816 100.617 35.528 100.318 35.368C100.02 35.208 99.5823 35.128 99.0063 35.128H97.5023C97.3423 35.128 97.1609 35.1173 96.9583 35.096C96.7663 35.0853 96.5743 35.0533 96.3823 35C96.0729 35.2133 95.8489 35.448 95.7103 35.704C95.5716 35.9707 95.5023 36.2267 95.5023 36.472C95.5023 36.9307 95.7209 37.2987 96.1583 37.576C96.6063 37.8533 97.2249 37.992 98.0143 37.992ZM103.91 35V26.312H105.11L105.254 27.896H105.286C105.584 27.3413 105.947 26.904 106.374 26.584C106.811 26.2533 107.27 26.088 107.75 26.088C107.952 26.088 108.123 26.104 108.262 26.136C108.411 26.1573 108.55 26.2053 108.678 26.28L108.406 27.544C108.256 27.5013 108.123 27.4693 108.006 27.448C107.888 27.416 107.739 27.4 107.558 27.4C107.206 27.4 106.827 27.5547 106.422 27.864C106.016 28.1627 105.67 28.68 105.382 29.416V35H103.91ZM111.644 35.208C111.164 35.208 110.732 35.112 110.348 34.92C109.964 34.728 109.66 34.4507 109.436 34.088C109.223 33.7147 109.116 33.2667 109.116 32.744C109.116 31.7947 109.537 31.0693 110.38 30.568C111.233 30.056 112.588 29.6987 114.444 29.496C114.444 29.1227 114.391 28.7707 114.284 28.44C114.188 28.0987 114.012 27.8267 113.756 27.624C113.5 27.4107 113.132 27.304 112.652 27.304C112.151 27.304 111.676 27.4053 111.228 27.608C110.791 27.8 110.396 28.008 110.044 28.232L109.484 27.224C109.751 27.0533 110.06 26.8827 110.412 26.712C110.764 26.5307 111.148 26.3813 111.564 26.264C111.98 26.1467 112.423 26.088 112.892 26.088C113.596 26.088 114.167 26.2373 114.604 26.536C115.052 26.8347 115.377 27.2507 115.58 27.784C115.793 28.3067 115.9 28.9307 115.9 29.656V35H114.7L114.572 33.96H114.524C114.119 34.3013 113.671 34.5947 113.18 34.84C112.7 35.0853 112.188 35.208 111.644 35.208ZM112.06 34.024C112.476 34.024 112.871 33.928 113.244 33.736C113.628 33.544 114.028 33.2613 114.444 32.888V30.472C113.473 30.5787 112.7 30.7333 112.124 30.936C111.548 31.128 111.137 31.368 110.892 31.656C110.647 31.9333 110.524 32.264 110.524 32.648C110.524 33.1493 110.673 33.5067 110.972 33.72C111.271 33.9227 111.633 34.024 112.06 34.024ZM118.66 38.664V26.312H119.86L120.004 27.32H120.036C120.43 26.9893 120.862 26.7013 121.332 26.456C121.812 26.2107 122.302 26.088 122.804 26.088C123.55 26.088 124.18 26.2747 124.692 26.648C125.214 27.0107 125.604 27.5227 125.86 28.184C126.126 28.8453 126.26 29.624 126.26 30.52C126.26 31.512 126.078 32.36 125.716 33.064C125.364 33.7573 124.9 34.2907 124.324 34.664C123.758 35.0267 123.145 35.208 122.484 35.208C122.089 35.208 121.689 35.1227 121.284 34.952C120.878 34.7707 120.478 34.52 120.084 34.2L120.132 35.72V38.664H118.66ZM122.244 33.976C122.724 33.976 123.15 33.8427 123.524 33.576C123.908 33.2987 124.206 32.904 124.42 32.392C124.633 31.8693 124.74 31.2507 124.74 30.536C124.74 29.896 124.66 29.336 124.5 28.856C124.35 28.3653 124.11 27.9867 123.78 27.72C123.449 27.4533 123.001 27.32 122.436 27.32C122.073 27.32 121.7 27.4213 121.316 27.624C120.942 27.8267 120.548 28.12 120.132 28.504V33.08C120.516 33.4107 120.894 33.6453 121.268 33.784C121.641 33.912 121.966 33.976 122.244 33.976ZM128.581 35V22.264H130.053V25.752L129.989 27.544C130.395 27.1387 130.827 26.7973 131.285 26.52C131.744 26.232 132.272 26.088 132.869 26.088C133.787 26.088 134.459 26.3813 134.885 26.968C135.312 27.544 135.525 28.3867 135.525 29.496V35H134.069V29.688C134.069 28.8667 133.936 28.2747 133.669 27.912C133.413 27.5493 132.997 27.368 132.421 27.368C131.973 27.368 131.573 27.48 131.221 27.704C130.869 27.928 130.48 28.2587 130.053 28.696V35H128.581ZM143.254 35L140.838 26.312H142.326L143.622 31.336C143.718 31.752 143.804 32.1573 143.878 32.552C143.964 32.9467 144.049 33.3467 144.134 33.752H144.214C144.31 33.3467 144.401 32.9467 144.486 32.552C144.582 32.1573 144.684 31.752 144.79 31.336L146.15 26.312H147.574L148.934 31.336C149.041 31.752 149.142 32.1573 149.238 32.552C149.345 32.9467 149.446 33.3467 149.542 33.752H149.622C149.708 33.3467 149.793 32.9467 149.878 32.552C149.964 32.1573 150.054 31.752 150.15 31.336L151.414 26.312H152.822L150.47 35H148.694L147.446 30.312C147.34 29.9067 147.238 29.5013 147.142 29.096C147.046 28.68 146.95 28.2533 146.854 27.816H146.774C146.678 28.2533 146.582 28.68 146.486 29.096C146.401 29.512 146.3 29.928 146.182 30.344L144.95 35H143.254ZM154.706 35V26.312H156.178V35H154.706ZM155.442 24.52C155.154 24.52 154.92 24.4347 154.738 24.264C154.568 24.0827 154.482 23.8427 154.482 23.544C154.482 23.256 154.568 23.0267 154.738 22.856C154.92 22.6853 155.154 22.6 155.442 22.6C155.73 22.6 155.965 22.6853 156.146 22.856C156.328 23.0267 156.418 23.256 156.418 23.544C156.418 23.8427 156.328 24.0827 156.146 24.264C155.965 24.4347 155.73 24.52 155.442 24.52ZM161.833 35.208C161.225 35.208 160.739 35.0907 160.377 34.856C160.014 34.6107 159.753 34.2693 159.593 33.832C159.443 33.3947 159.369 32.888 159.369 32.312V27.496H158.073V26.392L159.449 26.312L159.609 23.864H160.825V26.312H163.193V27.496H160.825V32.36C160.825 32.8827 160.921 33.2933 161.113 33.592C161.315 33.88 161.667 34.024 162.169 34.024C162.329 34.024 162.499 34.0027 162.681 33.96C162.862 33.9067 163.022 33.848 163.161 33.784L163.449 34.888C163.203 34.9733 162.942 35.048 162.665 35.112C162.387 35.176 162.11 35.208 161.833 35.208ZM165.144 35V22.264H166.616V25.752L166.552 27.544C166.957 27.1387 167.389 26.7973 167.848 26.52C168.307 26.232 168.835 26.088 169.432 26.088C170.349 26.088 171.021 26.3813 171.448 26.968C171.875 27.544 172.088 28.3867 172.088 29.496V35H170.632V29.688C170.632 28.8667 170.499 28.2747 170.232 27.912C169.976 27.5493 169.56 27.368 168.984 27.368C168.536 27.368 168.136 27.48 167.784 27.704C167.432 27.928 167.043 28.2587 166.616 28.696V35H165.144ZM178.441 35V26.312H179.641L179.785 27.576H179.817C180.233 27.16 180.67 26.808 181.129 26.52C181.598 26.232 182.131 26.088 182.729 26.088C183.646 26.088 184.318 26.3813 184.745 26.968C185.171 27.544 185.385 28.3867 185.385 29.496V35H183.929V29.688C183.929 28.8667 183.795 28.2747 183.529 27.912C183.273 27.5493 182.857 27.368 182.281 27.368C181.833 27.368 181.433 27.48 181.081 27.704C180.729 27.928 180.339 28.2587 179.913 28.696V35H178.441ZM191.582 35.208C190.878 35.208 190.217 35.032 189.598 34.68C188.98 34.3173 188.484 33.8 188.11 33.128C187.748 32.4453 187.566 31.624 187.566 30.664C187.566 29.6933 187.748 28.872 188.11 28.2C188.484 27.5173 188.98 26.9947 189.598 26.632C190.217 26.2693 190.878 26.088 191.582 26.088C192.116 26.088 192.622 26.1893 193.102 26.392C193.593 26.5947 194.025 26.8933 194.398 27.288C194.772 27.6827 195.065 28.1627 195.278 28.728C195.492 29.2933 195.598 29.9387 195.598 30.664C195.598 31.624 195.412 32.4453 195.038 33.128C194.665 33.8 194.174 34.3173 193.566 34.68C192.958 35.032 192.297 35.208 191.582 35.208ZM191.582 33.992C192.084 33.992 192.521 33.8533 192.894 33.576C193.278 33.2987 193.577 32.9093 193.79 32.408C194.004 31.9067 194.11 31.3253 194.11 30.664C194.11 29.992 194.004 29.4053 193.79 28.904C193.577 28.4027 193.278 28.0133 192.894 27.736C192.521 27.4587 192.084 27.32 191.582 27.32C191.081 27.32 190.638 27.4587 190.254 27.736C189.881 28.0133 189.588 28.4027 189.374 28.904C189.172 29.4053 189.07 29.992 189.07 30.664C189.07 31.3253 189.172 31.9067 189.374 32.408C189.588 32.9093 189.881 33.2987 190.254 33.576C190.638 33.8533 191.081 33.992 191.582 33.992ZM201.488 35V26.312H202.96V35H201.488ZM202.224 24.52C201.936 24.52 201.701 24.4347 201.52 24.264C201.349 24.0827 201.264 23.8427 201.264 23.544C201.264 23.256 201.349 23.0267 201.52 22.856C201.701 22.6853 201.936 22.6 202.224 22.6C202.512 22.6 202.746 22.6853 202.928 22.856C203.109 23.0267 203.2 23.256 203.2 23.544C203.2 23.8427 203.109 24.0827 202.928 24.264C202.746 24.4347 202.512 24.52 202.224 24.52ZM205.894 35V26.312H207.094L207.238 27.576H207.27C207.686 27.16 208.123 26.808 208.582 26.52C209.051 26.232 209.585 26.088 210.182 26.088C211.099 26.088 211.771 26.3813 212.198 26.968C212.625 27.544 212.838 28.3867 212.838 29.496V35H211.382V29.688C211.382 28.8667 211.249 28.2747 210.982 27.912C210.726 27.5493 210.31 27.368 209.734 27.368C209.286 27.368 208.886 27.48 208.534 27.704C208.182 27.928 207.793 28.2587 207.366 28.696V35H205.894ZM218.62 35.208C217.894 35.208 217.26 35.032 216.716 34.68C216.182 34.328 215.766 33.816 215.468 33.144C215.18 32.4613 215.036 31.6347 215.036 30.664C215.036 29.7253 215.212 28.9147 215.564 28.232C215.916 27.5493 216.374 27.0213 216.94 26.648C217.516 26.2747 218.134 26.088 218.796 26.088C219.308 26.088 219.745 26.1787 220.108 26.36C220.481 26.5307 220.86 26.776 221.244 27.096L221.164 25.608V22.264H222.635V35H221.436L221.308 33.976H221.26C220.918 34.3173 220.524 34.6107 220.076 34.856C219.628 35.0907 219.142 35.208 218.62 35.208ZM218.94 33.976C219.345 33.976 219.729 33.88 220.092 33.688C220.454 33.4853 220.812 33.1867 221.164 32.792V28.232C220.801 27.9013 220.449 27.6667 220.108 27.528C219.766 27.3893 219.414 27.32 219.052 27.32C218.593 27.32 218.172 27.464 217.788 27.752C217.414 28.0293 217.11 28.4187 216.876 28.92C216.652 29.4107 216.539 29.9867 216.539 30.648C216.539 31.3413 216.636 31.9387 216.828 32.44C217.02 32.9413 217.292 33.3253 217.644 33.592C218.006 33.848 218.438 33.976 218.94 33.976ZM229.101 35.208C228.323 35.208 227.619 35.0267 226.989 34.664C226.36 34.3013 225.859 33.784 225.485 33.112C225.123 32.4293 224.941 31.6133 224.941 30.664C224.941 29.9493 225.048 29.3147 225.261 28.76C225.475 28.1947 225.763 27.7147 226.125 27.32C226.499 26.9147 226.92 26.6107 227.389 26.408C227.859 26.1947 228.339 26.088 228.829 26.088C229.576 26.088 230.205 26.2533 230.717 26.584C231.229 26.9147 231.619 27.3893 231.885 28.008C232.163 28.616 232.301 29.336 232.301 30.168C232.301 30.328 232.296 30.4773 232.285 30.616C232.275 30.7547 232.259 30.8827 232.237 31H226.381C226.413 31.6187 226.552 32.1573 226.797 32.616C227.053 33.064 227.389 33.416 227.805 33.672C228.221 33.9173 228.707 34.04 229.261 34.04C229.688 34.04 230.072 33.9813 230.413 33.864C230.765 33.736 231.107 33.5653 231.437 33.352L231.949 34.328C231.576 34.5733 231.155 34.7813 230.685 34.952C230.216 35.1227 229.688 35.208 229.101 35.208ZM226.365 29.96H231.021C231.021 29.0853 230.829 28.4187 230.445 27.96C230.072 27.4907 229.544 27.256 228.861 27.256C228.456 27.256 228.072 27.3627 227.709 27.576C227.357 27.7893 227.059 28.0933 226.813 28.488C226.579 28.8827 226.429 29.3733 226.365 29.96ZM234.441 35V26.312H235.641L235.785 27.576H235.817C236.233 27.16 236.67 26.808 237.129 26.52C237.598 26.232 238.131 26.088 238.729 26.088C239.646 26.088 240.318 26.3813 240.745 26.968C241.171 27.544 241.385 28.3867 241.385 29.496V35H239.929V29.688C239.929 28.8667 239.795 28.2747 239.529 27.912C239.273 27.5493 238.857 27.368 238.281 27.368C237.833 27.368 237.433 27.48 237.081 27.704C236.729 27.928 236.339 28.2587 235.913 28.696V35H234.441ZM246.926 35.208C246.318 35.208 245.833 35.0907 245.47 34.856C245.108 34.6107 244.846 34.2693 244.686 33.832C244.537 33.3947 244.462 32.888 244.462 32.312V27.496H243.166V26.392L244.542 26.312L244.702 23.864H245.918V26.312H248.286V27.496H245.918V32.36C245.918 32.8827 246.014 33.2933 246.206 33.592C246.409 33.88 246.761 34.024 247.262 34.024C247.422 34.024 247.593 34.0027 247.774 33.96C247.956 33.9067 248.116 33.848 248.254 33.784L248.542 34.888C248.297 34.9733 248.036 35.048 247.758 35.112C247.481 35.176 247.204 35.208 246.926 35.208ZM257.192 35.208C256.488 35.208 255.826 35.032 255.208 34.68C254.589 34.3173 254.093 33.8 253.72 33.128C253.357 32.4453 253.176 31.624 253.176 30.664C253.176 29.6933 253.357 28.872 253.72 28.2C254.093 27.5173 254.589 26.9947 255.208 26.632C255.826 26.2693 256.488 26.088 257.192 26.088C257.725 26.088 258.232 26.1893 258.712 26.392C259.202 26.5947 259.634 26.8933 260.008 27.288C260.381 27.6827 260.674 28.1627 260.888 28.728C261.101 29.2933 261.208 29.9387 261.208 30.664C261.208 31.624 261.021 32.4453 260.648 33.128C260.274 33.8 259.784 34.3173 259.176 34.68C258.568 35.032 257.906 35.208 257.192 35.208ZM257.192 33.992C257.693 33.992 258.13 33.8533 258.504 33.576C258.888 33.2987 259.186 32.9093 259.4 32.408C259.613 31.9067 259.72 31.3253 259.72 30.664C259.72 29.992 259.613 29.4053 259.4 28.904C259.186 28.4027 258.888 28.0133 258.504 27.736C258.13 27.4587 257.693 27.32 257.192 27.32C256.69 27.32 256.248 27.4587 255.864 27.736C255.49 28.0133 255.197 28.4027 254.984 28.904C254.781 29.4053 254.68 29.992 254.68 30.664C254.68 31.3253 254.781 31.9067 254.984 32.408C255.197 32.9093 255.49 33.2987 255.864 33.576C256.248 33.8533 256.69 33.992 257.192 33.992ZM263.519 35V26.312H264.719L264.863 27.576H264.895C265.311 27.16 265.748 26.808 266.207 26.52C266.676 26.232 267.21 26.088 267.807 26.088C268.724 26.088 269.396 26.3813 269.823 26.968C270.25 27.544 270.463 28.3867 270.463 29.496V35H269.007V29.688C269.007 28.8667 268.874 28.2747 268.607 27.912C268.351 27.5493 267.935 27.368 267.359 27.368C266.911 27.368 266.511 27.48 266.159 27.704C265.807 27.928 265.418 28.2587 264.991 28.696V35H263.519ZM28.192 59.208C27.584 59.208 27.0987 59.0907 26.736 58.856C26.3733 58.6107 26.112 58.2693 25.952 57.832C25.8027 57.3947 25.728 56.888 25.728 56.312V51.496H24.432V50.392L25.808 50.312L25.968 47.864H27.184V50.312H29.552V51.496H27.184V56.36C27.184 56.8827 27.28 57.2933 27.472 57.592C27.6747 57.88 28.0267 58.024 28.528 58.024C28.688 58.024 28.8587 58.0027 29.04 57.96C29.2213 57.9067 29.3813 57.848 29.52 57.784L29.808 58.888C29.5627 58.9733 29.3013 59.048 29.024 59.112C28.7467 59.176 28.4693 59.208 28.192 59.208ZM31.5033 59V46.264H32.9753V49.752L32.9113 51.544C33.3166 51.1387 33.7486 50.7973 34.2073 50.52C34.6659 50.232 35.1939 50.088 35.7913 50.088C36.7086 50.088 37.3806 50.3813 37.8073 50.968C38.2339 51.544 38.4473 52.3867 38.4473 53.496V59H36.9913V53.688C36.9913 52.8667 36.8579 52.2747 36.5913 51.912C36.3353 51.5493 35.9193 51.368 35.3433 51.368C34.8953 51.368 34.4953 51.48 34.1432 51.704C33.7913 51.928 33.4019 52.2587 32.9753 52.696V59H31.5033ZM44.742 59.208C43.9633 59.208 43.2593 59.0267 42.63 58.664C42.0007 58.3013 41.4993 57.784 41.126 57.112C40.7633 56.4293 40.582 55.6133 40.582 54.664C40.582 53.9493 40.6887 53.3147 40.902 52.76C41.1153 52.1947 41.4033 51.7147 41.766 51.32C42.1393 50.9147 42.5607 50.6107 43.03 50.408C43.4993 50.1947 43.9793 50.088 44.47 50.088C45.2167 50.088 45.846 50.2533 46.358 50.584C46.87 50.9147 47.2593 51.3893 47.526 52.008C47.8033 52.616 47.942 53.336 47.942 54.168C47.942 54.328 47.9367 54.4773 47.926 54.616C47.9153 54.7547 47.8993 54.8827 47.878 55H42.022C42.054 55.6187 42.1927 56.1573 42.438 56.616C42.694 57.064 43.03 57.416 43.446 57.672C43.862 57.9173 44.3473 58.04 44.902 58.04C45.3287 58.04 45.7127 57.9813 46.054 57.864C46.406 57.736 46.7473 57.5653 47.078 57.352L47.59 58.328C47.2167 58.5733 46.7953 58.7813 46.326 58.952C45.8567 59.1227 45.3287 59.208 44.742 59.208ZM42.006 53.96H46.662C46.662 53.0853 46.47 52.4187 46.086 51.96C45.7127 51.4907 45.1847 51.256 44.502 51.256C44.0967 51.256 43.7127 51.3627 43.35 51.576C42.998 51.7893 42.6993 52.0933 42.454 52.488C42.2193 52.8827 42.07 53.3733 42.006 53.96ZM53.8995 59V48.92C53.8995 48.3333 53.9902 47.8267 54.1715 47.4C54.3528 46.9733 54.6302 46.6427 55.0035 46.408C55.3768 46.1733 55.8515 46.056 56.4275 46.056C56.6942 46.056 56.9502 46.0827 57.1955 46.136C57.4515 46.1893 57.6808 46.2533 57.8835 46.328L57.5635 47.464C57.2435 47.304 56.9182 47.224 56.5875 47.224C56.1715 47.224 55.8622 47.368 55.6595 47.656C55.4568 47.944 55.3555 48.3707 55.3555 48.936V59H53.8995ZM52.7155 51.496V50.392L53.9635 50.312H57.1955V51.496H52.7155ZM58.8595 59V50.312H60.3315V59H58.8595ZM59.5955 48.52C59.3182 48.52 59.0888 48.4347 58.9075 48.264C58.7262 48.0827 58.6355 47.8427 58.6355 47.544C58.6355 47.256 58.7262 47.0267 58.9075 46.856C59.0888 46.6853 59.3182 46.6 59.5955 46.6C59.8835 46.6 60.1182 46.6853 60.2995 46.856C60.4915 47.0267 60.5875 47.256 60.5875 47.544C60.5875 47.8427 60.4915 48.0827 60.2995 48.264C60.1182 48.4347 59.8835 48.52 59.5955 48.52ZM63.2533 59V50.312H64.4533L64.5973 51.896H64.6293C64.9279 51.3413 65.2906 50.904 65.7173 50.584C66.1546 50.2533 66.6133 50.088 67.0933 50.088C67.2959 50.088 67.4666 50.104 67.6053 50.136C67.7546 50.1573 67.8933 50.2053 68.0213 50.28L67.7493 51.544C67.5999 51.5013 67.4666 51.4693 67.3493 51.448C67.2319 51.416 67.0826 51.4 66.9013 51.4C66.5493 51.4 66.1706 51.5547 65.7653 51.864C65.3599 52.1627 65.0133 52.68 64.7253 53.416V59H63.2533ZM71.619 59.208C71.011 59.208 70.419 59.096 69.843 58.872C69.2777 58.6373 68.7923 58.3493 68.387 58.008L69.091 57.032C69.475 57.3413 69.8697 57.592 70.275 57.784C70.6803 57.976 71.1443 58.072 71.667 58.072C72.243 58.072 72.6697 57.944 72.947 57.688C73.235 57.4213 73.379 57.096 73.379 56.712C73.379 56.4133 73.2777 56.168 73.075 55.976C72.883 55.7733 72.6323 55.6027 72.323 55.464C72.0243 55.3147 71.715 55.1813 71.395 55.064C70.9897 54.904 70.5897 54.728 70.195 54.536C69.811 54.3333 69.491 54.0773 69.235 53.768C68.9897 53.448 68.867 53.0427 68.867 52.552C68.867 52.0827 68.9843 51.6667 69.219 51.304C69.4537 50.9307 69.795 50.6373 70.243 50.424C70.691 50.2 71.2297 50.088 71.859 50.088C72.3923 50.088 72.8883 50.184 73.347 50.376C73.8163 50.568 74.2163 50.8027 74.547 51.08L73.843 51.992C73.5443 51.7787 73.235 51.5973 72.915 51.448C72.6057 51.2987 72.259 51.224 71.875 51.224C71.3203 51.224 70.9097 51.352 70.643 51.608C70.387 51.8533 70.259 52.1467 70.259 52.488C70.259 52.7547 70.3443 52.9787 70.515 53.16C70.6963 53.3413 70.931 53.496 71.219 53.624C71.507 53.7413 71.811 53.864 72.131 53.992C72.451 54.1093 72.7657 54.2373 73.075 54.376C73.395 54.5147 73.6777 54.68 73.923 54.872C74.179 55.064 74.3817 55.304 74.531 55.592C74.691 55.8693 74.771 56.216 74.771 56.632C74.771 57.1013 74.6483 57.5333 74.403 57.928C74.1683 58.3227 73.8163 58.6373 73.347 58.872C72.8883 59.096 72.3123 59.208 71.619 59.208ZM79.1451 59.208C78.5371 59.208 78.0518 59.0907 77.6891 58.856C77.3265 58.6107 77.0651 58.2693 76.9051 57.832C76.7558 57.3947 76.6811 56.888 76.6811 56.312V51.496H75.3851V50.392L76.7611 50.312L76.9211 47.864H78.1371V50.312H80.5051V51.496H78.1371V56.36C78.1371 56.8827 78.2331 57.2933 78.4251 57.592C78.6278 57.88 78.9798 58.024 79.4811 58.024C79.6411 58.024 79.8118 58.0027 79.9931 57.96C80.1745 57.9067 80.3345 57.848 80.4731 57.784L80.7611 58.888C80.5158 58.9733 80.2545 59.048 79.9771 59.112C79.6998 59.176 79.4225 59.208 79.1451 59.208ZM87.5705 59.208C87.2078 59.208 86.9145 59.1333 86.6905 58.984C86.4665 58.8347 86.3012 58.616 86.1945 58.328C86.0878 58.0293 86.0345 57.6773 86.0345 57.272V46.264H87.5065V57.368C87.5065 57.592 87.5438 57.752 87.6185 57.848C87.7038 57.944 87.7998 57.992 87.9065 57.992C87.9492 57.992 87.9918 57.992 88.0345 57.992C88.0772 57.9813 88.1358 57.9707 88.2105 57.96L88.4185 59.08C88.3118 59.112 88.1945 59.1387 88.0665 59.16C87.9385 59.192 87.7732 59.208 87.5705 59.208ZM90.5814 59V50.312H92.0534V59H90.5814ZM91.3174 48.52C91.0294 48.52 90.7947 48.4347 90.6134 48.264C90.4427 48.0827 90.3574 47.8427 90.3574 47.544C90.3574 47.256 90.4427 47.0267 90.6134 46.856C90.7947 46.6853 91.0294 46.6 91.3174 46.6C91.6054 46.6 91.84 46.6853 92.0214 46.856C92.2027 47.0267 92.2934 47.256 92.2934 47.544C92.2934 47.8427 92.2027 48.0827 92.0214 48.264C91.84 48.4347 91.6054 48.52 91.3174 48.52ZM94.9876 59V50.312H96.1876L96.3316 51.576H96.3636C96.7796 51.16 97.217 50.808 97.6756 50.52C98.145 50.232 98.6783 50.088 99.2756 50.088C100.193 50.088 100.865 50.3813 101.292 50.968C101.718 51.544 101.932 52.3867 101.932 53.496V59H100.476V53.688C100.476 52.8667 100.342 52.2747 100.076 51.912C99.8196 51.5493 99.4036 51.368 98.8276 51.368C98.3796 51.368 97.9796 51.48 97.6276 51.704C97.2756 51.928 96.8863 52.2587 96.4596 52.696V59H94.9876ZM108.273 59.208C107.495 59.208 106.791 59.0267 106.161 58.664C105.532 58.3013 105.031 57.784 104.657 57.112C104.295 56.4293 104.113 55.6133 104.113 54.664C104.113 53.9493 104.22 53.3147 104.433 52.76C104.647 52.1947 104.935 51.7147 105.297 51.32C105.671 50.9147 106.092 50.6107 106.561 50.408C107.031 50.1947 107.511 50.088 108.001 50.088C108.748 50.088 109.377 50.2533 109.889 50.584C110.401 50.9147 110.791 51.3893 111.057 52.008C111.335 52.616 111.473 53.336 111.473 54.168C111.473 54.328 111.468 54.4773 111.457 54.616C111.447 54.7547 111.431 54.8827 111.409 55H105.553C105.585 55.6187 105.724 56.1573 105.969 56.616C106.225 57.064 106.561 57.416 106.977 57.672C107.393 57.9173 107.879 58.04 108.433 58.04C108.86 58.04 109.244 57.9813 109.585 57.864C109.937 57.736 110.279 57.5653 110.609 57.352L111.121 58.328C110.748 58.5733 110.327 58.7813 109.857 58.952C109.388 59.1227 108.86 59.208 108.273 59.208ZM105.537 53.96H110.193C110.193 53.0853 110.001 52.4187 109.617 51.96C109.244 51.4907 108.716 51.256 108.033 51.256C107.628 51.256 107.244 51.3627 106.881 51.576C106.529 51.7893 106.231 52.0933 105.985 52.488C105.751 52.8827 105.601 53.3733 105.537 53.96ZM114.365 59.208C114.077 59.208 113.826 59.1067 113.613 58.904C113.41 58.6907 113.309 58.424 113.309 58.104C113.309 57.7627 113.41 57.4907 113.613 57.288C113.826 57.0853 114.077 56.984 114.365 56.984C114.653 56.984 114.898 57.0853 115.101 57.288C115.314 57.4907 115.421 57.7627 115.421 58.104C115.421 58.424 115.314 58.6907 115.101 58.904C114.898 59.1067 114.653 59.208 114.365 59.208ZM52.864 91.208C52.032 91.208 51.264 91.0533 50.56 90.744C49.8667 90.4347 49.2693 90.0133 48.768 89.48L49.648 88.456C50.064 88.8933 50.5547 89.2453 51.12 89.512C51.6853 89.7787 52.272 89.912 52.88 89.912C53.6587 89.912 54.2613 89.736 54.688 89.384C55.1253 89.032 55.344 88.5733 55.344 88.008C55.344 87.592 55.2533 87.2613 55.072 87.016C54.9013 86.7707 54.6667 86.568 54.368 86.408C54.08 86.2373 53.7493 86.072 53.376 85.912L51.696 85.176C51.3333 85.016 50.9653 84.8133 50.592 84.568C50.2293 84.3227 49.9253 84.0027 49.68 83.608C49.4347 83.2133 49.312 82.7333 49.312 82.168C49.312 81.56 49.472 81.0267 49.792 80.568C50.112 80.0987 50.5493 79.7307 51.104 79.464C51.6587 79.1973 52.2933 79.064 53.008 79.064C53.712 79.064 54.3573 79.1973 54.944 79.464C55.5413 79.7307 56.0427 80.0773 56.448 80.504L55.68 81.448C55.3173 81.1173 54.9173 80.856 54.48 80.664C54.0533 80.4613 53.5627 80.36 53.008 80.36C52.3467 80.36 51.8133 80.5147 51.408 80.824C51.0133 81.1227 50.816 81.5333 50.816 82.056C50.816 82.44 50.912 82.7547 51.104 83C51.3067 83.2453 51.5573 83.4427 51.856 83.592C52.1547 83.7413 52.4587 83.8853 52.768 84.024L54.432 84.744C54.88 84.936 55.2853 85.1653 55.648 85.432C56.0213 85.6987 56.3147 86.0293 56.528 86.424C56.7413 86.8187 56.848 87.304 56.848 87.88C56.848 88.4987 56.688 89.064 56.368 89.576C56.048 90.0773 55.5893 90.4773 54.992 90.776C54.3947 91.064 53.6853 91.208 52.864 91.208ZM62.5233 91.208C61.7446 91.208 61.0406 91.0267 60.4113 90.664C59.7819 90.3013 59.2806 89.784 58.9073 89.112C58.5446 88.4293 58.3633 87.6133 58.3633 86.664C58.3633 85.9493 58.4699 85.3147 58.6833 84.76C58.8966 84.1947 59.1846 83.7147 59.5473 83.32C59.9206 82.9147 60.3419 82.6107 60.8113 82.408C61.2806 82.1947 61.7606 82.088 62.2513 82.088C62.9979 82.088 63.6273 82.2533 64.1393 82.584C64.6513 82.9147 65.0406 83.3893 65.3073 84.008C65.5846 84.616 65.7233 85.336 65.7233 86.168C65.7233 86.328 65.7179 86.4773 65.7073 86.616C65.6966 86.7547 65.6806 86.8827 65.6593 87H59.8033C59.8353 87.6187 59.9739 88.1573 60.2193 88.616C60.4753 89.064 60.8113 89.416 61.2273 89.672C61.6433 89.9173 62.1286 90.04 62.6833 90.04C63.1099 90.04 63.4939 89.9813 63.8353 89.864C64.1873 89.736 64.5286 89.5653 64.8593 89.352L65.3713 90.328C64.9979 90.5733 64.5766 90.7813 64.1073 90.952C63.6379 91.1227 63.1099 91.208 62.5233 91.208ZM59.7873 85.96H64.4433C64.4433 85.0853 64.2513 84.4187 63.8673 83.96C63.4939 83.4907 62.9659 83.256 62.2833 83.256C61.8779 83.256 61.4939 83.3627 61.1313 83.576C60.7793 83.7893 60.4806 84.0933 60.2353 84.488C60.0006 84.8827 59.8513 85.3733 59.7873 85.96ZM71.2866 91.208C70.5186 91.208 69.8253 91.032 69.2066 90.68C68.5986 90.3173 68.1133 89.8 67.7506 89.128C67.3986 88.4453 67.2226 87.624 67.2226 86.664C67.2226 85.6933 67.4146 84.872 67.7986 84.2C68.1826 83.5173 68.6946 82.9947 69.3346 82.632C69.9746 82.2693 70.6626 82.088 71.3986 82.088C71.964 82.088 72.4493 82.1893 72.8546 82.392C73.2706 82.5947 73.628 82.8347 73.9266 83.112L73.1906 84.072C72.9453 83.848 72.6786 83.6667 72.3906 83.528C72.1133 83.3893 71.804 83.32 71.4626 83.32C70.94 83.32 70.4706 83.4587 70.0546 83.736C69.6386 84.0133 69.3133 84.4027 69.0786 84.904C68.844 85.4053 68.7266 85.992 68.7266 86.664C68.7266 87.3253 68.8386 87.9067 69.0626 88.408C69.2973 88.9093 69.612 89.2987 70.0066 89.576C70.412 89.8533 70.8813 89.992 71.4146 89.992C71.82 89.992 72.1933 89.912 72.5346 89.752C72.876 89.5813 73.1853 89.3733 73.4626 89.128L74.1026 90.12C73.708 90.4613 73.2706 90.728 72.7906 90.92C72.3106 91.112 71.8093 91.208 71.2866 91.208ZM78.973 91.208C78.269 91.208 77.6077 91.032 76.989 90.68C76.3703 90.3173 75.8743 89.8 75.501 89.128C75.1383 88.4453 74.957 87.624 74.957 86.664C74.957 85.6933 75.1383 84.872 75.501 84.2C75.8743 83.5173 76.3703 82.9947 76.989 82.632C77.6077 82.2693 78.269 82.088 78.973 82.088C79.5063 82.088 80.013 82.1893 80.493 82.392C80.9837 82.5947 81.4157 82.8933 81.789 83.288C82.1623 83.6827 82.4557 84.1627 82.669 84.728C82.8823 85.2933 82.989 85.9387 82.989 86.664C82.989 87.624 82.8023 88.4453 82.429 89.128C82.0557 89.8 81.565 90.3173 80.957 90.68C80.349 91.032 79.6877 91.208 78.973 91.208ZM78.973 89.992C79.4743 89.992 79.9117 89.8533 80.285 89.576C80.669 89.2987 80.9677 88.9093 81.181 88.408C81.3943 87.9067 81.501 87.3253 81.501 86.664C81.501 85.992 81.3943 85.4053 81.181 84.904C80.9677 84.4027 80.669 84.0133 80.285 83.736C79.9117 83.4587 79.4743 83.32 78.973 83.32C78.4717 83.32 78.029 83.4587 77.645 83.736C77.2717 84.0133 76.9783 84.4027 76.765 84.904C76.5623 85.4053 76.461 85.992 76.461 86.664C76.461 87.3253 76.5623 87.9067 76.765 88.408C76.9783 88.9093 77.2717 89.2987 77.645 89.576C78.029 89.8533 78.4717 89.992 78.973 89.992ZM85.3001 91V82.312H86.5001L86.6441 83.576H86.6761C87.0921 83.16 87.5295 82.808 87.9881 82.52C88.4575 82.232 88.9908 82.088 89.5881 82.088C90.5055 82.088 91.1775 82.3813 91.6041 82.968C92.0308 83.544 92.2441 84.3867 92.2441 85.496V91H90.7881V85.688C90.7881 84.8667 90.6548 84.2747 90.3881 83.912C90.1321 83.5493 89.7161 83.368 89.1401 83.368C88.6921 83.368 88.2921 83.48 87.9401 83.704C87.5881 83.928 87.1988 84.2587 86.7721 84.696V91H85.3001ZM98.0258 91.208C97.3004 91.208 96.6658 91.032 96.1218 90.68C95.5884 90.328 95.1724 89.816 94.8738 89.144C94.5858 88.4613 94.4418 87.6347 94.4418 86.664C94.4418 85.7253 94.6178 84.9147 94.9698 84.232C95.3218 83.5493 95.7804 83.0213 96.3458 82.648C96.9218 82.2747 97.5404 82.088 98.2018 82.088C98.7138 82.088 99.1511 82.1787 99.5138 82.36C99.8871 82.5307 100.266 82.776 100.65 83.096L100.57 81.608V78.264H102.042V91H100.842L100.714 89.976H100.666C100.324 90.3173 99.9298 90.6107 99.4818 90.856C99.0338 91.0907 98.5484 91.208 98.0258 91.208ZM98.3458 89.976C98.7511 89.976 99.1351 89.88 99.4978 89.688C99.8604 89.4853 100.218 89.1867 100.57 88.792V84.232C100.207 83.9013 99.8551 83.6667 99.5138 83.528C99.1724 83.3893 98.8204 83.32 98.4578 83.32C97.9991 83.32 97.5778 83.464 97.1938 83.752C96.8204 84.0293 96.5164 84.4187 96.2818 84.92C96.0578 85.4107 95.9457 85.9867 95.9457 86.648C95.9457 87.3413 96.0418 87.9387 96.2338 88.44C96.4258 88.9413 96.6978 89.3253 97.0498 89.592C97.4124 89.848 97.8444 89.976 98.3458 89.976ZM108.566 94.664V82.312H109.766L109.91 83.32H109.942C110.336 82.9893 110.768 82.7013 111.238 82.456C111.718 82.2107 112.208 82.088 112.71 82.088C113.456 82.088 114.086 82.2747 114.598 82.648C115.12 83.0107 115.51 83.5227 115.766 84.184C116.032 84.8453 116.166 85.624 116.166 86.52C116.166 87.512 115.984 88.36 115.622 89.064C115.27 89.7573 114.806 90.2907 114.23 90.664C113.664 91.0267 113.051 91.208 112.39 91.208C111.995 91.208 111.595 91.1227 111.19 90.952C110.784 90.7707 110.384 90.52 109.99 90.2L110.038 91.72V94.664H108.566ZM112.15 89.976C112.63 89.976 113.056 89.8427 113.43 89.576C113.814 89.2987 114.112 88.904 114.326 88.392C114.539 87.8693 114.646 87.2507 114.646 86.536C114.646 85.896 114.566 85.336 114.406 84.856C114.256 84.3653 114.016 83.9867 113.686 83.72C113.355 83.4533 112.907 83.32 112.342 83.32C111.979 83.32 111.606 83.4213 111.222 83.624C110.848 83.8267 110.454 84.12 110.038 84.504V89.08C110.422 89.4107 110.8 89.6453 111.174 89.784C111.547 89.912 111.872 89.976 112.15 89.976ZM120.191 91.208C119.711 91.208 119.279 91.112 118.895 90.92C118.511 90.728 118.207 90.4507 117.983 90.088C117.769 89.7147 117.663 89.2667 117.663 88.744C117.663 87.7947 118.084 87.0693 118.927 86.568C119.78 86.056 121.135 85.6987 122.991 85.496C122.991 85.1227 122.937 84.7707 122.831 84.44C122.735 84.0987 122.559 83.8267 122.303 83.624C122.047 83.4107 121.679 83.304 121.199 83.304C120.697 83.304 120.223 83.4053 119.775 83.608C119.337 83.8 118.943 84.008 118.591 84.232L118.031 83.224C118.297 83.0533 118.607 82.8827 118.959 82.712C119.311 82.5307 119.695 82.3813 120.111 82.264C120.527 82.1467 120.969 82.088 121.439 82.088C122.143 82.088 122.713 82.2373 123.151 82.536C123.599 82.8347 123.924 83.2507 124.127 83.784C124.34 84.3067 124.447 84.9307 124.447 85.656V91H123.247L123.119 89.96H123.071C122.665 90.3013 122.217 90.5947 121.727 90.84C121.247 91.0853 120.735 91.208 120.191 91.208ZM120.607 90.024C121.023 90.024 121.417 89.928 121.791 89.736C122.175 89.544 122.575 89.2613 122.991 88.888V86.472C122.02 86.5787 121.247 86.7333 120.671 86.936C120.095 87.128 119.684 87.368 119.439 87.656C119.193 87.9333 119.071 88.264 119.071 88.648C119.071 89.1493 119.22 89.5067 119.519 89.72C119.817 89.9227 120.18 90.024 120.607 90.024ZM127.206 91V82.312H128.406L128.55 83.896H128.582C128.881 83.3413 129.244 82.904 129.67 82.584C130.108 82.2533 130.566 82.088 131.046 82.088C131.249 82.088 131.42 82.104 131.558 82.136C131.708 82.1573 131.846 82.2053 131.974 82.28L131.702 83.544C131.553 83.5013 131.42 83.4693 131.302 83.448C131.185 83.416 131.036 83.4 130.854 83.4C130.502 83.4 130.124 83.5547 129.718 83.864C129.313 84.1627 128.966 84.68 128.678 85.416V91H127.206ZM134.941 91.208C134.461 91.208 134.029 91.112 133.645 90.92C133.261 90.728 132.957 90.4507 132.733 90.088C132.519 89.7147 132.413 89.2667 132.413 88.744C132.413 87.7947 132.834 87.0693 133.677 86.568C134.53 86.056 135.885 85.6987 137.741 85.496C137.741 85.1227 137.687 84.7707 137.581 84.44C137.485 84.0987 137.309 83.8267 137.053 83.624C136.797 83.4107 136.429 83.304 135.949 83.304C135.447 83.304 134.973 83.4053 134.525 83.608C134.087 83.8 133.693 84.008 133.341 84.232L132.781 83.224C133.047 83.0533 133.357 82.8827 133.709 82.712C134.061 82.5307 134.445 82.3813 134.861 82.264C135.277 82.1467 135.719 82.088 136.189 82.088C136.893 82.088 137.463 82.2373 137.901 82.536C138.349 82.8347 138.674 83.2507 138.877 83.784C139.09 84.3067 139.197 84.9307 139.197 85.656V91H137.997L137.869 89.96H137.821C137.415 90.3013 136.967 90.5947 136.477 90.84C135.997 91.0853 135.485 91.208 134.941 91.208ZM135.357 90.024C135.773 90.024 136.167 89.928 136.541 89.736C136.925 89.544 137.325 89.2613 137.741 88.888V86.472C136.77 86.5787 135.997 86.7333 135.421 86.936C134.845 87.128 134.434 87.368 134.189 87.656C133.943 87.9333 133.821 88.264 133.821 88.648C133.821 89.1493 133.97 89.5067 134.269 89.72C134.567 89.9227 134.93 90.024 135.357 90.024ZM144.884 95C144.18 95 143.556 94.9093 143.012 94.728C142.468 94.5467 142.047 94.28 141.748 93.928C141.45 93.5867 141.3 93.1707 141.3 92.68C141.3 92.3067 141.412 91.944 141.636 91.592C141.86 91.2507 142.175 90.9573 142.58 90.712V90.632C142.356 90.4933 142.17 90.3067 142.02 90.072C141.871 89.8373 141.796 89.5493 141.796 89.208C141.796 88.8453 141.898 88.5253 142.1 88.248C142.314 87.9707 142.532 87.752 142.756 87.592V87.528C142.468 87.304 142.207 86.9893 141.972 86.584C141.738 86.1787 141.62 85.7147 141.62 85.192C141.62 84.552 141.77 84.0027 142.068 83.544C142.367 83.0747 142.762 82.7173 143.252 82.472C143.754 82.216 144.292 82.088 144.868 82.088C145.124 82.088 145.354 82.1093 145.556 82.152C145.77 82.1947 145.951 82.248 146.1 82.312H149.124V83.432H147.348C147.562 83.6347 147.732 83.8907 147.86 84.2C147.988 84.5093 148.052 84.8507 148.052 85.224C148.052 85.8427 147.908 86.3813 147.62 86.84C147.343 87.288 146.964 87.6347 146.484 87.88C146.004 88.1253 145.466 88.248 144.868 88.248C144.666 88.248 144.447 88.2213 144.212 88.168C143.988 88.1147 143.78 88.04 143.588 87.944C143.428 88.072 143.295 88.216 143.188 88.376C143.082 88.536 143.028 88.7387 143.028 88.984C143.028 89.2507 143.135 89.4747 143.348 89.656C143.562 89.8373 143.962 89.928 144.548 89.928H146.26C147.263 89.928 148.015 90.0933 148.516 90.424C149.028 90.7547 149.284 91.2773 149.284 91.992C149.284 92.5253 149.103 93.0213 148.74 93.48C148.378 93.9387 147.866 94.3067 147.204 94.584C146.554 94.8613 145.78 95 144.884 95ZM144.868 87.256C145.21 87.256 145.519 87.1707 145.796 87C146.084 86.8293 146.308 86.5893 146.468 86.28C146.639 85.9707 146.724 85.608 146.724 85.192C146.724 84.7653 146.639 84.4027 146.468 84.104C146.308 83.7947 146.09 83.56 145.812 83.4C145.535 83.24 145.22 83.16 144.868 83.16C144.538 83.16 144.228 83.24 143.94 83.4C143.663 83.56 143.439 83.7893 143.268 84.088C143.108 84.3867 143.028 84.7547 143.028 85.192C143.028 85.608 143.114 85.9707 143.284 86.28C143.455 86.5893 143.679 86.8293 143.956 87C144.234 87.1707 144.538 87.256 144.868 87.256ZM145.092 93.992C145.647 93.992 146.127 93.9067 146.532 93.736C146.948 93.5653 147.268 93.3413 147.492 93.064C147.727 92.7973 147.844 92.52 147.844 92.232C147.844 91.816 147.695 91.528 147.396 91.368C147.098 91.208 146.66 91.128 146.084 91.128H144.58C144.42 91.128 144.239 91.1173 144.036 91.096C143.844 91.0853 143.652 91.0533 143.46 91C143.151 91.2133 142.927 91.448 142.788 91.704C142.65 91.9707 142.58 92.2267 142.58 92.472C142.58 92.9307 142.799 93.2987 143.236 93.576C143.684 93.8533 144.303 93.992 145.092 93.992ZM150.988 91V82.312H152.188L152.332 83.896H152.364C152.662 83.3413 153.025 82.904 153.452 82.584C153.889 82.2533 154.348 82.088 154.828 82.088C155.03 82.088 155.201 82.104 155.34 82.136C155.489 82.1573 155.628 82.2053 155.756 82.28L155.484 83.544C155.334 83.5013 155.201 83.4693 155.084 83.448C154.966 83.416 154.817 83.4 154.636 83.4C154.284 83.4 153.905 83.5547 153.5 83.864C153.094 84.1627 152.748 84.68 152.46 85.416V91H150.988ZM158.722 91.208C158.242 91.208 157.81 91.112 157.426 90.92C157.042 90.728 156.738 90.4507 156.514 90.088C156.301 89.7147 156.194 89.2667 156.194 88.744C156.194 87.7947 156.615 87.0693 157.458 86.568C158.311 86.056 159.666 85.6987 161.522 85.496C161.522 85.1227 161.469 84.7707 161.362 84.44C161.266 84.0987 161.09 83.8267 160.834 83.624C160.578 83.4107 160.21 83.304 159.73 83.304C159.229 83.304 158.754 83.4053 158.306 83.608C157.869 83.8 157.474 84.008 157.122 84.232L156.562 83.224C156.829 83.0533 157.138 82.8827 157.49 82.712C157.842 82.5307 158.226 82.3813 158.642 82.264C159.058 82.1467 159.501 82.088 159.97 82.088C160.674 82.088 161.245 82.2373 161.682 82.536C162.13 82.8347 162.455 83.2507 162.658 83.784C162.871 84.3067 162.978 84.9307 162.978 85.656V91H161.778L161.65 89.96H161.602C161.197 90.3013 160.749 90.5947 160.258 90.84C159.778 91.0853 159.266 91.208 158.722 91.208ZM159.138 90.024C159.554 90.024 159.949 89.928 160.322 89.736C160.706 89.544 161.106 89.2613 161.522 88.888V86.472C160.551 86.5787 159.778 86.7333 159.202 86.936C158.626 87.128 158.215 87.368 157.97 87.656C157.725 87.9333 157.602 88.264 157.602 88.648C157.602 89.1493 157.751 89.5067 158.05 89.72C158.349 89.9227 158.711 90.024 159.138 90.024ZM165.738 94.664V82.312H166.938L167.082 83.32H167.114C167.508 82.9893 167.94 82.7013 168.41 82.456C168.89 82.2107 169.38 82.088 169.882 82.088C170.628 82.088 171.258 82.2747 171.77 82.648C172.292 83.0107 172.682 83.5227 172.938 84.184C173.204 84.8453 173.338 85.624 173.338 86.52C173.338 87.512 173.156 88.36 172.794 89.064C172.442 89.7573 171.978 90.2907 171.402 90.664C170.836 91.0267 170.223 91.208 169.562 91.208C169.167 91.208 168.767 91.1227 168.362 90.952C167.956 90.7707 167.556 90.52 167.162 90.2L167.21 91.72V94.664H165.738ZM169.322 89.976C169.802 89.976 170.228 89.8427 170.602 89.576C170.986 89.2987 171.284 88.904 171.498 88.392C171.711 87.8693 171.818 87.2507 171.818 86.536C171.818 85.896 171.738 85.336 171.578 84.856C171.428 84.3653 171.188 83.9867 170.858 83.72C170.527 83.4533 170.079 83.32 169.514 83.32C169.151 83.32 168.778 83.4213 168.394 83.624C168.02 83.8267 167.626 84.12 167.21 84.504V89.08C167.594 89.4107 167.972 89.6453 168.346 89.784C168.719 89.912 169.044 89.976 169.322 89.976ZM175.66 91V78.264H177.132V81.752L177.068 83.544C177.473 83.1387 177.905 82.7973 178.364 82.52C178.822 82.232 179.35 82.088 179.948 82.088C180.865 82.088 181.537 82.3813 181.964 82.968C182.39 83.544 182.604 84.3867 182.604 85.496V91H181.148V85.688C181.148 84.8667 181.014 84.2747 180.748 83.912C180.492 83.5493 180.076 83.368 179.5 83.368C179.052 83.368 178.652 83.48 178.299 83.704C177.948 83.928 177.558 84.2587 177.132 84.696V91H175.66ZM188.22 87V86.008H201.036V87H188.22ZM206.831 91V82.312H208.031L208.175 83.576H208.207C208.623 83.16 209.061 82.808 209.519 82.52C209.989 82.232 210.522 82.088 211.119 82.088C212.037 82.088 212.709 82.3813 213.135 82.968C213.562 83.544 213.775 84.3867 213.775 85.496V91H212.319V85.688C212.319 84.8667 212.186 84.2747 211.919 83.912C211.663 83.5493 211.247 83.368 210.671 83.368C210.223 83.368 209.823 83.48 209.471 83.704C209.119 83.928 208.73 84.2587 208.303 84.696V91H206.831ZM219.973 91.208C219.269 91.208 218.608 91.032 217.989 90.68C217.37 90.3173 216.874 89.8 216.501 89.128C216.138 88.4453 215.957 87.624 215.957 86.664C215.957 85.6933 216.138 84.872 216.501 84.2C216.874 83.5173 217.37 82.9947 217.989 82.632C218.608 82.2693 219.269 82.088 219.973 82.088C220.506 82.088 221.013 82.1893 221.493 82.392C221.984 82.5947 222.416 82.8933 222.789 83.288C223.162 83.6827 223.456 84.1627 223.669 84.728C223.882 85.2933 223.989 85.9387 223.989 86.664C223.989 87.624 223.802 88.4453 223.429 89.128C223.056 89.8 222.565 90.3173 221.957 90.68C221.349 91.032 220.688 91.208 219.973 91.208ZM219.973 89.992C220.474 89.992 220.912 89.8533 221.285 89.576C221.669 89.2987 221.968 88.9093 222.181 88.408C222.394 87.9067 222.501 87.3253 222.501 86.664C222.501 85.992 222.394 85.4053 222.181 84.904C221.968 84.4027 221.669 84.0133 221.285 83.736C220.912 83.4587 220.474 83.32 219.973 83.32C219.472 83.32 219.029 83.4587 218.645 83.736C218.272 84.0133 217.978 84.4027 217.765 84.904C217.562 85.4053 217.461 85.992 217.461 86.664C217.461 87.3253 217.562 87.9067 217.765 88.408C217.978 88.9093 218.272 89.2987 218.645 89.576C219.029 89.8533 219.472 89.992 219.973 89.992ZM228.676 91.208C228.068 91.208 227.583 91.0907 227.22 90.856C226.858 90.6107 226.596 90.2693 226.436 89.832C226.287 89.3947 226.212 88.888 226.212 88.312V83.496H224.916V82.392L226.292 82.312L226.452 79.864H227.668V82.312H230.036V83.496H227.668V88.36C227.668 88.8827 227.764 89.2933 227.956 89.592C228.159 89.88 228.511 90.024 229.012 90.024C229.172 90.024 229.343 90.0027 229.524 89.96C229.706 89.9067 229.866 89.848 230.004 89.784L230.292 90.888C230.047 90.9733 229.786 91.048 229.508 91.112C229.231 91.176 228.954 91.208 228.676 91.208ZM235.226 91.208C234.448 91.208 233.744 91.0267 233.114 90.664C232.485 90.3013 231.984 89.784 231.61 89.112C231.248 88.4293 231.066 87.6133 231.066 86.664C231.066 85.9493 231.173 85.3147 231.386 84.76C231.6 84.1947 231.888 83.7147 232.25 83.32C232.624 82.9147 233.045 82.6107 233.514 82.408C233.984 82.1947 234.464 82.088 234.954 82.088C235.701 82.088 236.33 82.2533 236.842 82.584C237.354 82.9147 237.744 83.3893 238.01 84.008C238.288 84.616 238.426 85.336 238.426 86.168C238.426 86.328 238.421 86.4773 238.41 86.616C238.4 86.7547 238.384 86.8827 238.362 87H232.506C232.538 87.6187 232.677 88.1573 232.922 88.616C233.178 89.064 233.514 89.416 233.93 89.672C234.346 89.9173 234.832 90.04 235.386 90.04C235.813 90.04 236.197 89.9813 236.538 89.864C236.89 89.736 237.232 89.5653 237.562 89.352L238.074 90.328C237.701 90.5733 237.28 90.7813 236.81 90.952C236.341 91.1227 235.813 91.208 235.226 91.208ZM232.49 85.96H237.146C237.146 85.0853 236.954 84.4187 236.57 83.96C236.197 83.4907 235.669 83.256 234.986 83.256C234.581 83.256 234.197 83.3627 233.834 83.576C233.482 83.7893 233.184 84.0933 232.938 84.488C232.704 84.8827 232.554 85.3733 232.49 85.96ZM246.864 91.208C246.256 91.208 245.771 91.0907 245.408 90.856C245.045 90.6107 244.784 90.2693 244.624 89.832C244.475 89.3947 244.4 88.888 244.4 88.312V83.496H243.104V82.392L244.48 82.312L244.64 79.864H245.856V82.312H248.224V83.496H245.856V88.36C245.856 88.8827 245.952 89.2933 246.144 89.592C246.347 89.88 246.699 90.024 247.2 90.024C247.36 90.024 247.531 90.0027 247.712 89.96C247.893 89.9067 248.053 89.848 248.192 89.784L248.48 90.888C248.235 90.9733 247.973 91.048 247.696 91.112C247.419 91.176 247.141 91.208 246.864 91.208ZM250.175 91V78.264H251.647V81.752L251.583 83.544C251.988 83.1387 252.42 82.7973 252.879 82.52C253.338 82.232 253.866 82.088 254.463 82.088C255.38 82.088 256.052 82.3813 256.479 82.968C256.906 83.544 257.119 84.3867 257.119 85.496V91H255.663V85.688C255.663 84.8667 255.53 84.2747 255.263 83.912C255.007 83.5493 254.591 83.368 254.015 83.368C253.567 83.368 253.167 83.48 252.815 83.704C252.463 83.928 252.074 84.2587 251.647 84.696V91H250.175ZM263.414 91.208C262.635 91.208 261.931 91.0267 261.302 90.664C260.673 90.3013 260.171 89.784 259.798 89.112C259.435 88.4293 259.254 87.6133 259.254 86.664C259.254 85.9493 259.361 85.3147 259.574 84.76C259.787 84.1947 260.075 83.7147 260.438 83.32C260.811 82.9147 261.233 82.6107 261.702 82.408C262.171 82.1947 262.651 82.088 263.142 82.088C263.889 82.088 264.518 82.2533 265.03 82.584C265.542 82.9147 265.931 83.3893 266.198 84.008C266.475 84.616 266.614 85.336 266.614 86.168C266.614 86.328 266.609 86.4773 266.598 86.616C266.587 86.7547 266.571 86.8827 266.55 87H260.694C260.726 87.6187 260.865 88.1573 261.11 88.616C261.366 89.064 261.702 89.416 262.118 89.672C262.534 89.9173 263.019 90.04 263.574 90.04C264.001 90.04 264.385 89.9813 264.726 89.864C265.078 89.736 265.419 89.5653 265.75 89.352L266.262 90.328C265.889 90.5733 265.467 90.7813 264.998 90.952C264.529 91.1227 264.001 91.208 263.414 91.208ZM260.678 85.96H265.334C265.334 85.0853 265.142 84.4187 264.758 83.96C264.385 83.4907 263.857 83.256 263.174 83.256C262.769 83.256 262.385 83.3627 262.022 83.576C261.67 83.7893 261.371 84.0933 261.126 84.488C260.891 84.8827 260.742 85.3733 260.678 85.96ZM25.712 115V104.92C25.712 104.333 25.8027 103.827 25.984 103.4C26.1653 102.973 26.4427 102.643 26.816 102.408C27.1893 102.173 27.664 102.056 28.24 102.056C28.5067 102.056 28.7627 102.083 29.008 102.136C29.264 102.189 29.4933 102.253 29.696 102.328L29.376 103.464C29.056 103.304 28.7307 103.224 28.4 103.224C27.984 103.224 27.6747 103.368 27.472 103.656C27.2693 103.944 27.168 104.371 27.168 104.936V115H25.712ZM24.528 107.496V106.392L25.776 106.312H29.008V107.496H24.528ZM30.672 115V106.312H32.144V115H30.672ZM31.408 104.52C31.1307 104.52 30.9013 104.435 30.72 104.264C30.5387 104.083 30.448 103.843 30.448 103.544C30.448 103.256 30.5387 103.027 30.72 102.856C30.9013 102.685 31.1307 102.6 31.408 102.6C31.696 102.6 31.9307 102.685 32.112 102.856C32.304 103.027 32.4 103.256 32.4 103.544C32.4 103.843 32.304 104.083 32.112 104.264C31.9307 104.435 31.696 104.52 31.408 104.52ZM35.0658 115V106.312H36.2658L36.4098 107.896H36.4418C36.7404 107.341 37.1031 106.904 37.5298 106.584C37.9671 106.253 38.4258 106.088 38.9058 106.088C39.1084 106.088 39.2791 106.104 39.4178 106.136C39.5671 106.157 39.7058 106.205 39.8338 106.28L39.5618 107.544C39.4124 107.501 39.2791 107.469 39.1618 107.448C39.0444 107.416 38.8951 107.4 38.7138 107.4C38.3618 107.4 37.9831 107.555 37.5778 107.864C37.1724 108.163 36.8258 108.68 36.5378 109.416V115H35.0658ZM43.4315 115.208C42.8235 115.208 42.2315 115.096 41.6555 114.872C41.0902 114.637 40.6048 114.349 40.1995 114.008L40.9035 113.032C41.2875 113.341 41.6822 113.592 42.0875 113.784C42.4928 113.976 42.9568 114.072 43.4795 114.072C44.0555 114.072 44.4822 113.944 44.7595 113.688C45.0475 113.421 45.1915 113.096 45.1915 112.712C45.1915 112.413 45.0902 112.168 44.8875 111.976C44.6955 111.773 44.4448 111.603 44.1355 111.464C43.8368 111.315 43.5275 111.181 43.2075 111.064C42.8022 110.904 42.4022 110.728 42.0075 110.536C41.6235 110.333 41.3035 110.077 41.0475 109.768C40.8022 109.448 40.6795 109.043 40.6795 108.552C40.6795 108.083 40.7968 107.667 41.0315 107.304C41.2662 106.931 41.6075 106.637 42.0555 106.424C42.5035 106.2 43.0422 106.088 43.6715 106.088C44.2048 106.088 44.7008 106.184 45.1595 106.376C45.6288 106.568 46.0288 106.803 46.3595 107.08L45.6555 107.992C45.3568 107.779 45.0475 107.597 44.7275 107.448C44.4182 107.299 44.0715 107.224 43.6875 107.224C43.1328 107.224 42.7222 107.352 42.4555 107.608C42.1995 107.853 42.0715 108.147 42.0715 108.488C42.0715 108.755 42.1568 108.979 42.3275 109.16C42.5088 109.341 42.7435 109.496 43.0315 109.624C43.3195 109.741 43.6235 109.864 43.9435 109.992C44.2635 110.109 44.5782 110.237 44.8875 110.376C45.2075 110.515 45.4902 110.68 45.7355 110.872C45.9915 111.064 46.1942 111.304 46.3435 111.592C46.5035 111.869 46.5835 112.216 46.5835 112.632C46.5835 113.101 46.4608 113.533 46.2155 113.928C45.9808 114.323 45.6288 114.637 45.1595 114.872C44.7008 115.096 44.1248 115.208 43.4315 115.208ZM50.9576 115.208C50.3496 115.208 49.8643 115.091 49.5016 114.856C49.139 114.611 48.8776 114.269 48.7176 113.832C48.5683 113.395 48.4936 112.888 48.4936 112.312V107.496H47.1976V106.392L48.5736 106.312L48.7336 103.864H49.9496V106.312H52.3176V107.496H49.9496V112.36C49.9496 112.883 50.0456 113.293 50.2376 113.592C50.4403 113.88 50.7923 114.024 51.2936 114.024C51.4536 114.024 51.6243 114.003 51.8056 113.96C51.987 113.907 52.147 113.848 52.2856 113.784L52.5736 114.888C52.3283 114.973 52.067 115.048 51.7896 115.112C51.5123 115.176 51.235 115.208 50.9576 115.208ZM53.0329 111.08V109.96H57.1449V111.08H53.0329ZM60.8518 115.208C60.4891 115.208 60.1958 115.133 59.9718 114.984C59.7478 114.835 59.5824 114.616 59.4758 114.328C59.3691 114.029 59.3158 113.677 59.3158 113.272V102.264H60.7878V113.368C60.7878 113.592 60.8251 113.752 60.8998 113.848C60.9851 113.944 61.0811 113.992 61.1878 113.992C61.2304 113.992 61.2731 113.992 61.3158 113.992C61.3584 113.981 61.4171 113.971 61.4918 113.96L61.6998 115.08C61.5931 115.112 61.4758 115.139 61.3478 115.16C61.2198 115.192 61.0544 115.208 60.8518 115.208ZM63.8626 115V106.312H65.3346V115H63.8626ZM64.5986 104.52C64.3106 104.52 64.076 104.435 63.8946 104.264C63.724 104.083 63.6386 103.843 63.6386 103.544C63.6386 103.256 63.724 103.027 63.8946 102.856C64.076 102.685 64.3106 102.6 64.5986 102.6C64.8866 102.6 65.1213 102.685 65.3026 102.856C65.484 103.027 65.5746 103.256 65.5746 103.544C65.5746 103.843 65.484 104.083 65.3026 104.264C65.1213 104.435 64.8866 104.52 64.5986 104.52ZM68.2689 115V106.312H69.4689L69.6129 107.576H69.6449C70.0609 107.16 70.4982 106.808 70.9569 106.52C71.4262 106.232 71.9595 106.088 72.5569 106.088C73.4742 106.088 74.1462 106.381 74.5729 106.968C74.9995 107.544 75.2129 108.387 75.2129 109.496V115H73.7569V109.688C73.7569 108.867 73.6235 108.275 73.3569 107.912C73.1009 107.549 72.6849 107.368 72.1089 107.368C71.6609 107.368 71.2609 107.48 70.9089 107.704C70.5569 107.928 70.1675 108.259 69.7409 108.696V115H68.2689ZM81.5545 115.208C80.7758 115.208 80.0718 115.027 79.4425 114.664C78.8132 114.301 78.3118 113.784 77.9385 113.112C77.5758 112.429 77.3945 111.613 77.3945 110.664C77.3945 109.949 77.5012 109.315 77.7145 108.76C77.9278 108.195 78.2158 107.715 78.5785 107.32C78.9518 106.915 79.3732 106.611 79.8425 106.408C80.3118 106.195 80.7918 106.088 81.2825 106.088C82.0292 106.088 82.6585 106.253 83.1705 106.584C83.6825 106.915 84.0718 107.389 84.3385 108.008C84.6158 108.616 84.7545 109.336 84.7545 110.168C84.7545 110.328 84.7492 110.477 84.7385 110.616C84.7278 110.755 84.7118 110.883 84.6905 111H78.8345C78.8665 111.619 79.0052 112.157 79.2505 112.616C79.5065 113.064 79.8425 113.416 80.2585 113.672C80.6745 113.917 81.1598 114.04 81.7145 114.04C82.1412 114.04 82.5252 113.981 82.8665 113.864C83.2185 113.736 83.5598 113.565 83.8905 113.352L84.4025 114.328C84.0292 114.573 83.6078 114.781 83.1385 114.952C82.6692 115.123 82.1412 115.208 81.5545 115.208ZM78.8185 109.96H83.4745C83.4745 109.085 83.2825 108.419 82.8985 107.96C82.5252 107.491 81.9972 107.256 81.3145 107.256C80.9092 107.256 80.5252 107.363 80.1625 107.576C79.8105 107.789 79.5118 108.093 79.2665 108.488C79.0318 108.883 78.8825 109.373 78.8185 109.96ZM92.744 115.208C92.136 115.208 91.544 115.096 90.968 114.872C90.4027 114.637 89.9173 114.349 89.512 114.008L90.216 113.032C90.6 113.341 90.9947 113.592 91.4 113.784C91.8053 113.976 92.2693 114.072 92.792 114.072C93.368 114.072 93.7947 113.944 94.072 113.688C94.36 113.421 94.504 113.096 94.504 112.712C94.504 112.413 94.4027 112.168 94.2 111.976C94.008 111.773 93.7573 111.603 93.448 111.464C93.1493 111.315 92.84 111.181 92.52 111.064C92.1147 110.904 91.7147 110.728 91.32 110.536C90.936 110.333 90.616 110.077 90.36 109.768C90.1147 109.448 89.992 109.043 89.992 108.552C89.992 108.083 90.1093 107.667 90.344 107.304C90.5787 106.931 90.92 106.637 91.368 106.424C91.816 106.2 92.3547 106.088 92.984 106.088C93.5173 106.088 94.0133 106.184 94.472 106.376C94.9413 106.568 95.3413 106.803 95.672 107.08L94.968 107.992C94.6693 107.779 94.36 107.597 94.04 107.448C93.7307 107.299 93.384 107.224 93 107.224C92.4453 107.224 92.0347 107.352 91.768 107.608C91.512 107.853 91.384 108.147 91.384 108.488C91.384 108.755 91.4693 108.979 91.64 109.16C91.8213 109.341 92.056 109.496 92.344 109.624C92.632 109.741 92.936 109.864 93.256 109.992C93.576 110.109 93.8907 110.237 94.2 110.376C94.52 110.515 94.8027 110.68 95.048 110.872C95.304 111.064 95.5067 111.304 95.656 111.592C95.816 111.869 95.896 112.216 95.896 112.632C95.896 113.101 95.7733 113.533 95.528 113.928C95.2933 114.323 94.9413 114.637 94.472 114.872C94.0133 115.096 93.4373 115.208 92.744 115.208ZM97.9564 115V102.264H99.4284V105.752L99.3644 107.544C99.7697 107.139 100.202 106.797 100.66 106.52C101.119 106.232 101.647 106.088 102.244 106.088C103.162 106.088 103.834 106.381 104.26 106.968C104.687 107.544 104.9 108.387 104.9 109.496V115H103.444V109.688C103.444 108.867 103.311 108.275 103.044 107.912C102.788 107.549 102.372 107.368 101.796 107.368C101.348 107.368 100.948 107.48 100.596 107.704C100.244 107.928 99.855 108.259 99.4284 108.696V115H97.9564ZM107.675 115V106.312H109.147V115H107.675ZM108.411 104.52C108.123 104.52 107.888 104.435 107.707 104.264C107.536 104.083 107.451 103.843 107.451 103.544C107.451 103.256 107.536 103.027 107.707 102.856C107.888 102.685 108.123 102.6 108.411 102.6C108.699 102.6 108.934 102.685 109.115 102.856C109.296 103.027 109.387 103.256 109.387 103.544C109.387 103.843 109.296 104.083 109.115 104.264C108.934 104.435 108.699 104.52 108.411 104.52ZM112.321 115V104.92C112.321 104.333 112.412 103.827 112.593 103.4C112.775 102.973 113.052 102.643 113.425 102.408C113.799 102.173 114.273 102.056 114.849 102.056C115.116 102.056 115.372 102.083 115.617 102.136C115.873 102.189 116.103 102.253 116.305 102.328L115.985 103.464C115.665 103.304 115.34 103.224 115.009 103.224C114.593 103.224 114.284 103.368 114.081 103.656C113.879 103.944 113.777 104.371 113.777 104.936V115H112.321ZM111.137 107.496V106.392L112.385 106.312H115.617V107.496H111.137ZM120.005 115.208C119.397 115.208 118.911 115.091 118.549 114.856C118.186 114.611 117.925 114.269 117.765 113.832C117.615 113.395 117.541 112.888 117.541 112.312V107.496H116.245V106.392L117.621 106.312L117.781 103.864H118.997V106.312H121.365V107.496H118.997V112.36C118.997 112.883 119.093 113.293 119.285 113.592C119.487 113.88 119.839 114.024 120.341 114.024C120.501 114.024 120.671 114.003 120.853 113.96C121.034 113.907 121.194 113.848 121.333 113.784L121.621 114.888C121.375 114.973 121.114 115.048 120.837 115.112C120.559 115.176 120.282 115.208 120.005 115.208ZM124.162 115.208C123.874 115.208 123.623 115.107 123.41 114.904C123.207 114.691 123.106 114.424 123.106 114.104C123.106 113.763 123.207 113.491 123.41 113.288C123.623 113.085 123.874 112.984 124.162 112.984C124.45 112.984 124.695 113.085 124.898 113.288C125.111 113.491 125.218 113.763 125.218 114.104C125.218 114.424 125.111 114.691 124.898 114.904C124.695 115.107 124.45 115.208 124.162 115.208ZM52.048 147V136.52H48.496V135.272H57.088V136.52H53.536V147H52.048ZM59.0501 147V134.264H60.5221V137.752L60.4581 139.544C60.8635 139.139 61.2955 138.797 61.7541 138.52C62.2128 138.232 62.7408 138.088 63.3381 138.088C64.2555 138.088 64.9275 138.381 65.3541 138.968C65.7808 139.544 65.9941 140.387 65.9941 141.496V147H64.5381V141.688C64.5381 140.867 64.4048 140.275 64.1381 139.912C63.8821 139.549 63.4661 139.368 62.8901 139.368C62.4421 139.368 62.0421 139.48 61.6901 139.704C61.3381 139.928 60.9488 140.259 60.5221 140.696V147H59.0501ZM68.7689 147V138.312H70.2409V147H68.7689ZM69.5049 136.52C69.2169 136.52 68.9822 136.435 68.8009 136.264C68.6302 136.083 68.5449 135.843 68.5449 135.544C68.5449 135.256 68.6302 135.027 68.8009 134.856C68.9822 134.685 69.2169 134.6 69.5049 134.6C69.7929 134.6 70.0275 134.685 70.2089 134.856C70.3902 135.027 70.4809 135.256 70.4809 135.544C70.4809 135.843 70.3902 136.083 70.2089 136.264C70.0275 136.435 69.7929 136.52 69.5049 136.52ZM73.1751 147V138.312H74.3751L74.5191 139.896H74.5511C74.8498 139.341 75.2125 138.904 75.6391 138.584C76.0765 138.253 76.5351 138.088 77.0151 138.088C77.2178 138.088 77.3885 138.104 77.5271 138.136C77.6765 138.157 77.8151 138.205 77.9431 138.28L77.6711 139.544C77.5218 139.501 77.3885 139.469 77.2711 139.448C77.1538 139.416 77.0045 139.4 76.8231 139.4C76.4711 139.4 76.0925 139.555 75.6871 139.864C75.2818 140.163 74.9351 140.68 74.6471 141.416V147H73.1751ZM82.1195 147.208C81.3942 147.208 80.7595 147.032 80.2155 146.68C79.6822 146.328 79.2662 145.816 78.9675 145.144C78.6795 144.461 78.5355 143.635 78.5355 142.664C78.5355 141.725 78.7115 140.915 79.0635 140.232C79.4155 139.549 79.8742 139.021 80.4395 138.648C81.0155 138.275 81.6342 138.088 82.2955 138.088C82.8075 138.088 83.2448 138.179 83.6075 138.36C83.9808 138.531 84.3595 138.776 84.7435 139.096L84.6635 137.608V134.264H86.1355V147H84.9355L84.8075 145.976H84.7595C84.4182 146.317 84.0235 146.611 83.5755 146.856C83.1275 147.091 82.6422 147.208 82.1195 147.208ZM82.4395 145.976C82.8448 145.976 83.2288 145.88 83.5915 145.688C83.9542 145.485 84.3115 145.187 84.6635 144.792V140.232C84.3008 139.901 83.9488 139.667 83.6075 139.528C83.2662 139.389 82.9142 139.32 82.5515 139.32C82.0928 139.32 81.6715 139.464 81.2875 139.752C80.9142 140.029 80.6102 140.419 80.3755 140.92C80.1515 141.411 80.0395 141.987 80.0395 142.648C80.0395 143.341 80.1355 143.939 80.3275 144.44C80.5195 144.941 80.7915 145.325 81.1435 145.592C81.5062 145.848 81.9382 145.976 82.4395 145.976ZM92.6595 150.664V138.312H93.8595L94.0035 139.32H94.0355C94.4302 138.989 94.8622 138.701 95.3315 138.456C95.8115 138.211 96.3022 138.088 96.8035 138.088C97.5502 138.088 98.1795 138.275 98.6915 138.648C99.2142 139.011 99.6035 139.523 99.8595 140.184C100.126 140.845 100.26 141.624 100.26 142.52C100.26 143.512 100.078 144.36 99.7155 145.064C99.3635 145.757 98.8995 146.291 98.3235 146.664C97.7582 147.027 97.1448 147.208 96.4835 147.208C96.0888 147.208 95.6888 147.123 95.2835 146.952C94.8782 146.771 94.4782 146.52 94.0835 146.2L94.1315 147.72V150.664H92.6595ZM96.2435 145.976C96.7235 145.976 97.1502 145.843 97.5235 145.576C97.9075 145.299 98.2062 144.904 98.4195 144.392C98.6328 143.869 98.7395 143.251 98.7395 142.536C98.7395 141.896 98.6595 141.336 98.4995 140.856C98.3502 140.365 98.1102 139.987 97.7795 139.72C97.4488 139.453 97.0008 139.32 96.4355 139.32C96.0728 139.32 95.6995 139.421 95.3155 139.624C94.9422 139.827 94.5475 140.12 94.1315 140.504V145.08C94.5155 145.411 94.8942 145.645 95.2675 145.784C95.6408 145.912 95.9662 145.976 96.2435 145.976ZM104.285 147.208C103.805 147.208 103.373 147.112 102.989 146.92C102.605 146.728 102.301 146.451 102.077 146.088C101.863 145.715 101.757 145.267 101.757 144.744C101.757 143.795 102.178 143.069 103.021 142.568C103.874 142.056 105.229 141.699 107.085 141.496C107.085 141.123 107.031 140.771 106.925 140.44C106.829 140.099 106.653 139.827 106.397 139.624C106.141 139.411 105.773 139.304 105.293 139.304C104.791 139.304 104.317 139.405 103.869 139.608C103.431 139.8 103.037 140.008 102.685 140.232L102.125 139.224C102.391 139.053 102.701 138.883 103.053 138.712C103.405 138.531 103.789 138.381 104.205 138.264C104.621 138.147 105.063 138.088 105.533 138.088C106.237 138.088 106.807 138.237 107.245 138.536C107.693 138.835 108.018 139.251 108.221 139.784C108.434 140.307 108.541 140.931 108.541 141.656V147H107.341L107.213 145.96H107.165C106.759 146.301 106.311 146.595 105.821 146.84C105.341 147.085 104.829 147.208 104.285 147.208ZM104.701 146.024C105.117 146.024 105.511 145.928 105.885 145.736C106.269 145.544 106.669 145.261 107.085 144.888V142.472C106.114 142.579 105.341 142.733 104.765 142.936C104.189 143.128 103.778 143.368 103.533 143.656C103.287 143.933 103.164 144.264 103.164 144.648C103.164 145.149 103.314 145.507 103.613 145.72C103.911 145.923 104.274 146.024 104.701 146.024ZM111.3 147V138.312H112.5L112.644 139.896H112.676C112.975 139.341 113.337 138.904 113.764 138.584C114.201 138.253 114.66 138.088 115.14 138.088C115.343 138.088 115.513 138.104 115.652 138.136C115.801 138.157 115.94 138.205 116.068 138.28L115.796 139.544C115.647 139.501 115.513 139.469 115.396 139.448C115.279 139.416 115.129 139.4 114.948 139.4C114.596 139.4 114.217 139.555 113.812 139.864C113.407 140.163 113.06 140.68 112.772 141.416V147H111.3ZM119.035 147.208C118.555 147.208 118.123 147.112 117.739 146.92C117.355 146.728 117.051 146.451 116.827 146.088C116.613 145.715 116.507 145.267 116.507 144.744C116.507 143.795 116.928 143.069 117.771 142.568C118.624 142.056 119.979 141.699 121.835 141.496C121.835 141.123 121.781 140.771 121.675 140.44C121.579 140.099 121.403 139.827 121.147 139.624C120.891 139.411 120.523 139.304 120.043 139.304C119.541 139.304 119.067 139.405 118.619 139.608C118.181 139.8 117.787 140.008 117.435 140.232L116.875 139.224C117.141 139.053 117.451 138.883 117.803 138.712C118.155 138.531 118.539 138.381 118.955 138.264C119.371 138.147 119.813 138.088 120.283 138.088C120.987 138.088 121.557 138.237 121.995 138.536C122.443 138.835 122.768 139.251 122.971 139.784C123.184 140.307 123.291 140.931 123.291 141.656V147H122.091L121.963 145.96H121.915C121.509 146.301 121.061 146.595 120.571 146.84C120.091 147.085 119.579 147.208 119.035 147.208ZM119.451 146.024C119.867 146.024 120.261 145.928 120.635 145.736C121.019 145.544 121.419 145.261 121.835 144.888V142.472C120.864 142.579 120.091 142.733 119.515 142.936C118.939 143.128 118.528 143.368 118.283 143.656C118.037 143.933 117.914 144.264 117.914 144.648C117.914 145.149 118.064 145.507 118.363 145.72C118.661 145.923 119.024 146.024 119.451 146.024ZM128.978 151C128.274 151 127.65 150.909 127.106 150.728C126.562 150.547 126.141 150.28 125.842 149.928C125.543 149.587 125.394 149.171 125.394 148.68C125.394 148.307 125.506 147.944 125.73 147.592C125.954 147.251 126.269 146.957 126.674 146.712V146.632C126.45 146.493 126.263 146.307 126.114 146.072C125.965 145.837 125.89 145.549 125.89 145.208C125.89 144.845 125.991 144.525 126.194 144.248C126.407 143.971 126.626 143.752 126.85 143.592V143.528C126.562 143.304 126.301 142.989 126.066 142.584C125.831 142.179 125.714 141.715 125.714 141.192C125.714 140.552 125.863 140.003 126.162 139.544C126.461 139.075 126.855 138.717 127.346 138.472C127.847 138.216 128.386 138.088 128.962 138.088C129.218 138.088 129.447 138.109 129.65 138.152C129.863 138.195 130.045 138.248 130.194 138.312H133.218V139.432H131.442C131.655 139.635 131.826 139.891 131.954 140.2C132.082 140.509 132.146 140.851 132.146 141.224C132.146 141.843 132.002 142.381 131.714 142.84C131.437 143.288 131.058 143.635 130.578 143.88C130.098 144.125 129.559 144.248 128.962 144.248C128.759 144.248 128.541 144.221 128.306 144.168C128.082 144.115 127.874 144.04 127.682 143.944C127.522 144.072 127.389 144.216 127.282 144.376C127.175 144.536 127.122 144.739 127.122 144.984C127.122 145.251 127.229 145.475 127.442 145.656C127.655 145.837 128.055 145.928 128.642 145.928H130.354C131.357 145.928 132.109 146.093 132.61 146.424C133.122 146.755 133.378 147.277 133.378 147.992C133.378 148.525 133.197 149.021 132.834 149.48C132.471 149.939 131.959 150.307 131.298 150.584C130.647 150.861 129.874 151 128.978 151ZM128.962 143.256C129.303 143.256 129.613 143.171 129.89 143C130.178 142.829 130.402 142.589 130.562 142.28C130.733 141.971 130.818 141.608 130.818 141.192C130.818 140.765 130.733 140.403 130.562 140.104C130.402 139.795 130.183 139.56 129.906 139.4C129.629 139.24 129.314 139.16 128.962 139.16C128.631 139.16 128.322 139.24 128.034 139.4C127.757 139.56 127.533 139.789 127.362 140.088C127.202 140.387 127.122 140.755 127.122 141.192C127.122 141.608 127.207 141.971 127.378 142.28C127.549 142.589 127.773 142.829 128.05 143C128.327 143.171 128.631 143.256 128.962 143.256ZM129.186 149.992C129.741 149.992 130.221 149.907 130.626 149.736C131.042 149.565 131.362 149.341 131.586 149.064C131.821 148.797 131.938 148.52 131.938 148.232C131.938 147.816 131.789 147.528 131.49 147.368C131.191 147.208 130.754 147.128 130.178 147.128H128.674C128.514 147.128 128.333 147.117 128.13 147.096C127.938 147.085 127.746 147.053 127.554 147C127.245 147.213 127.021 147.448 126.882 147.704C126.743 147.971 126.674 148.227 126.674 148.472C126.674 148.931 126.893 149.299 127.33 149.576C127.778 149.853 128.397 149.992 129.186 149.992ZM135.081 147V138.312H136.281L136.425 139.896H136.457C136.756 139.341 137.119 138.904 137.545 138.584C137.983 138.253 138.441 138.088 138.921 138.088C139.124 138.088 139.295 138.104 139.433 138.136C139.583 138.157 139.721 138.205 139.849 138.28L139.577 139.544C139.428 139.501 139.295 139.469 139.177 139.448C139.06 139.416 138.911 139.4 138.729 139.4C138.377 139.4 137.999 139.555 137.593 139.864C137.188 140.163 136.841 140.68 136.553 141.416V147H135.081ZM142.816 147.208C142.336 147.208 141.904 147.112 141.52 146.92C141.136 146.728 140.832 146.451 140.608 146.088C140.394 145.715 140.288 145.267 140.288 144.744C140.288 143.795 140.709 143.069 141.552 142.568C142.405 142.056 143.76 141.699 145.616 141.496C145.616 141.123 145.562 140.771 145.456 140.44C145.36 140.099 145.184 139.827 144.928 139.624C144.672 139.411 144.304 139.304 143.824 139.304C143.322 139.304 142.848 139.405 142.4 139.608C141.962 139.8 141.568 140.008 141.216 140.232L140.656 139.224C140.922 139.053 141.232 138.883 141.584 138.712C141.936 138.531 142.32 138.381 142.736 138.264C143.152 138.147 143.594 138.088 144.064 138.088C144.768 138.088 145.338 138.237 145.776 138.536C146.224 138.835 146.549 139.251 146.752 139.784C146.965 140.307 147.072 140.931 147.072 141.656V147H145.872L145.744 145.96H145.696C145.29 146.301 144.842 146.595 144.352 146.84C143.872 147.085 143.36 147.208 142.816 147.208ZM143.232 146.024C143.648 146.024 144.042 145.928 144.416 145.736C144.8 145.544 145.2 145.261 145.616 144.888V142.472C144.645 142.579 143.872 142.733 143.296 142.936C142.72 143.128 142.309 143.368 142.064 143.656C141.818 143.933 141.696 144.264 141.696 144.648C141.696 145.149 141.845 145.507 142.144 145.72C142.442 145.923 142.805 146.024 143.232 146.024ZM149.831 150.664V138.312H151.031L151.175 139.32H151.207C151.602 138.989 152.034 138.701 152.503 138.456C152.983 138.211 153.474 138.088 153.975 138.088C154.722 138.088 155.351 138.275 155.863 138.648C156.386 139.011 156.775 139.523 157.031 140.184C157.298 140.845 157.431 141.624 157.431 142.52C157.431 143.512 157.25 144.36 156.887 145.064C156.535 145.757 156.071 146.291 155.495 146.664C154.93 147.027 154.317 147.208 153.655 147.208C153.261 147.208 152.861 147.123 152.455 146.952C152.05 146.771 151.65 146.52 151.255 146.2L151.303 147.72V150.664H149.831ZM153.415 145.976C153.895 145.976 154.322 145.843 154.695 145.576C155.079 145.299 155.378 144.904 155.591 144.392C155.805 143.869 155.911 143.251 155.911 142.536C155.911 141.896 155.831 141.336 155.671 140.856C155.522 140.365 155.282 139.987 154.951 139.72C154.621 139.453 154.173 139.32 153.607 139.32C153.245 139.32 152.871 139.421 152.487 139.624C152.114 139.827 151.719 140.12 151.303 140.504V145.08C151.687 145.411 152.066 145.645 152.439 145.784C152.813 145.912 153.138 145.976 153.415 145.976ZM159.753 147V134.264H161.225V137.752L161.161 139.544C161.567 139.139 161.999 138.797 162.457 138.52C162.916 138.232 163.444 138.088 164.041 138.088C164.959 138.088 165.631 138.381 166.057 138.968C166.484 139.544 166.697 140.387 166.697 141.496V147H165.241V141.688C165.241 140.867 165.108 140.275 164.841 139.912C164.585 139.549 164.169 139.368 163.593 139.368C163.145 139.368 162.745 139.48 162.393 139.704C162.041 139.928 161.652 140.259 161.225 140.696V147H159.753ZM175.05 147.208C174.57 147.208 174.138 147.112 173.754 146.92C173.37 146.728 173.066 146.451 172.842 146.088C172.629 145.715 172.522 145.267 172.522 144.744C172.522 143.795 172.943 143.069 173.786 142.568C174.639 142.056 175.994 141.699 177.85 141.496C177.85 141.123 177.797 140.771 177.69 140.44C177.594 140.099 177.418 139.827 177.162 139.624C176.906 139.411 176.538 139.304 176.058 139.304C175.557 139.304 175.082 139.405 174.634 139.608C174.197 139.8 173.802 140.008 173.45 140.232L172.89 139.224C173.157 139.053 173.466 138.883 173.818 138.712C174.17 138.531 174.554 138.381 174.97 138.264C175.386 138.147 175.829 138.088 176.298 138.088C177.002 138.088 177.573 138.237 178.01 138.536C178.458 138.835 178.783 139.251 178.986 139.784C179.199 140.307 179.306 140.931 179.306 141.656V147H178.106L177.978 145.96H177.93C177.525 146.301 177.077 146.595 176.586 146.84C176.106 147.085 175.594 147.208 175.05 147.208ZM175.466 146.024C175.882 146.024 176.277 145.928 176.65 145.736C177.034 145.544 177.434 145.261 177.85 144.888V142.472C176.879 142.579 176.106 142.733 175.53 142.936C174.954 143.128 174.543 143.368 174.298 143.656C174.053 143.933 173.93 144.264 173.93 144.648C173.93 145.149 174.079 145.507 174.378 145.72C174.677 145.923 175.039 146.024 175.466 146.024ZM183.602 147.208C183.239 147.208 182.946 147.133 182.722 146.984C182.498 146.835 182.332 146.616 182.226 146.328C182.119 146.029 182.066 145.677 182.066 145.272V134.264H183.538V145.368C183.538 145.592 183.575 145.752 183.65 145.848C183.735 145.944 183.831 145.992 183.938 145.992C183.98 145.992 184.023 145.992 184.066 145.992C184.108 145.981 184.167 145.971 184.242 145.96L184.45 147.08C184.343 147.112 184.226 147.139 184.098 147.16C183.97 147.192 183.804 147.208 183.602 147.208ZM188.885 147.208C188.277 147.208 187.685 147.096 187.109 146.872C186.543 146.637 186.058 146.349 185.653 146.008L186.357 145.032C186.741 145.341 187.135 145.592 187.541 145.784C187.946 145.976 188.41 146.072 188.933 146.072C189.509 146.072 189.935 145.944 190.213 145.688C190.501 145.421 190.645 145.096 190.645 144.712C190.645 144.413 190.543 144.168 190.341 143.976C190.149 143.773 189.898 143.603 189.589 143.464C189.29 143.315 188.981 143.181 188.661 143.064C188.255 142.904 187.855 142.728 187.461 142.536C187.077 142.333 186.757 142.077 186.501 141.768C186.255 141.448 186.133 141.043 186.133 140.552C186.133 140.083 186.25 139.667 186.485 139.304C186.719 138.931 187.061 138.637 187.509 138.424C187.957 138.2 188.495 138.088 189.125 138.088C189.658 138.088 190.154 138.184 190.613 138.376C191.082 138.568 191.482 138.803 191.813 139.08L191.109 139.992C190.81 139.779 190.501 139.597 190.181 139.448C189.871 139.299 189.525 139.224 189.141 139.224C188.586 139.224 188.175 139.352 187.909 139.608C187.653 139.853 187.525 140.147 187.525 140.488C187.525 140.755 187.61 140.979 187.781 141.16C187.962 141.341 188.197 141.496 188.485 141.624C188.773 141.741 189.077 141.864 189.397 141.992C189.717 142.109 190.031 142.237 190.341 142.376C190.661 142.515 190.943 142.68 191.189 142.872C191.445 143.064 191.647 143.304 191.797 143.592C191.957 143.869 192.037 144.216 192.037 144.632C192.037 145.101 191.914 145.533 191.669 145.928C191.434 146.323 191.082 146.637 190.613 146.872C190.154 147.096 189.578 147.208 188.885 147.208ZM197.473 147.208C196.769 147.208 196.108 147.032 195.489 146.68C194.87 146.317 194.374 145.8 194.001 145.128C193.638 144.445 193.457 143.624 193.457 142.664C193.457 141.693 193.638 140.872 194.001 140.2C194.374 139.517 194.87 138.995 195.489 138.632C196.108 138.269 196.769 138.088 197.473 138.088C198.006 138.088 198.513 138.189 198.993 138.392C199.484 138.595 199.916 138.893 200.289 139.288C200.662 139.683 200.956 140.163 201.169 140.728C201.382 141.293 201.489 141.939 201.489 142.664C201.489 143.624 201.302 144.445 200.929 145.128C200.556 145.8 200.065 146.317 199.457 146.68C198.849 147.032 198.188 147.208 197.473 147.208ZM197.473 145.992C197.974 145.992 198.412 145.853 198.785 145.576C199.169 145.299 199.468 144.909 199.681 144.408C199.894 143.907 200.001 143.325 200.001 142.664C200.001 141.992 199.894 141.405 199.681 140.904C199.468 140.403 199.169 140.013 198.785 139.736C198.412 139.459 197.974 139.32 197.473 139.32C196.972 139.32 196.529 139.459 196.145 139.736C195.772 140.013 195.478 140.403 195.265 140.904C195.062 141.405 194.961 141.992 194.961 142.664C194.961 143.325 195.062 143.907 195.265 144.408C195.478 144.909 195.772 145.299 196.145 145.576C196.529 145.853 196.972 145.992 197.473 145.992ZM209.65 147.208C209.042 147.208 208.45 147.096 207.874 146.872C207.309 146.637 206.824 146.349 206.418 146.008L207.122 145.032C207.506 145.341 207.901 145.592 208.306 145.784C208.712 145.976 209.176 146.072 209.698 146.072C210.274 146.072 210.701 145.944 210.978 145.688C211.266 145.421 211.41 145.096 211.41 144.712C211.41 144.413 211.309 144.168 211.106 143.976C210.914 143.773 210.664 143.603 210.354 143.464C210.056 143.315 209.746 143.181 209.426 143.064C209.021 142.904 208.621 142.728 208.226 142.536C207.842 142.333 207.522 142.077 207.266 141.768C207.021 141.448 206.898 141.043 206.898 140.552C206.898 140.083 207.016 139.667 207.25 139.304C207.485 138.931 207.826 138.637 208.274 138.424C208.722 138.2 209.261 138.088 209.89 138.088C210.424 138.088 210.92 138.184 211.378 138.376C211.848 138.568 212.248 138.803 212.578 139.08L211.874 139.992C211.576 139.779 211.266 139.597 210.946 139.448C210.637 139.299 210.29 139.224 209.906 139.224C209.352 139.224 208.941 139.352 208.674 139.608C208.418 139.853 208.29 140.147 208.29 140.488C208.29 140.755 208.376 140.979 208.546 141.16C208.728 141.341 208.962 141.496 209.25 141.624C209.538 141.741 209.842 141.864 210.162 141.992C210.482 142.109 210.797 142.237 211.106 142.376C211.426 142.515 211.709 142.68 211.954 142.872C212.21 143.064 212.413 143.304 212.562 143.592C212.722 143.869 212.802 144.216 212.802 144.632C212.802 145.101 212.68 145.533 212.434 145.928C212.2 146.323 211.848 146.637 211.378 146.872C210.92 147.096 210.344 147.208 209.65 147.208ZM214.863 147V134.264H216.335V137.752L216.271 139.544C216.676 139.139 217.108 138.797 217.567 138.52C218.025 138.232 218.553 138.088 219.151 138.088C220.068 138.088 220.74 138.381 221.167 138.968C221.593 139.544 221.807 140.387 221.807 141.496V147H220.351V141.688C220.351 140.867 220.217 140.275 219.951 139.912C219.695 139.549 219.279 139.368 218.703 139.368C218.255 139.368 217.855 139.48 217.503 139.704C217.151 139.928 216.761 140.259 216.335 140.696V147H214.863ZM224.581 147V138.312H226.053V147H224.581ZM225.317 136.52C225.029 136.52 224.795 136.435 224.613 136.264C224.443 136.083 224.357 135.843 224.357 135.544C224.357 135.256 224.443 135.027 224.613 134.856C224.795 134.685 225.029 134.6 225.317 134.6C225.605 134.6 225.84 134.685 226.021 134.856C226.203 135.027 226.293 135.256 226.293 135.544C226.293 135.843 226.203 136.083 226.021 136.264C225.84 136.435 225.605 136.52 225.317 136.52ZM229.228 147V136.92C229.228 136.333 229.318 135.827 229.5 135.4C229.681 134.973 229.958 134.643 230.332 134.408C230.705 134.173 231.18 134.056 231.756 134.056C232.022 134.056 232.278 134.083 232.524 134.136C232.78 134.189 233.009 134.253 233.212 134.328L232.892 135.464C232.572 135.304 232.246 135.224 231.916 135.224C231.5 135.224 231.19 135.368 230.988 135.656C230.785 135.944 230.684 136.371 230.684 136.936V147H229.228ZM228.044 139.496V138.392L229.292 138.312H232.524V139.496H228.044ZM236.911 147.208C236.303 147.208 235.817 147.091 235.455 146.856C235.092 146.611 234.831 146.269 234.671 145.832C234.521 145.395 234.447 144.888 234.447 144.312V139.496H233.151V138.392L234.527 138.312L234.687 135.864H235.903V138.312H238.271V139.496H235.903V144.36C235.903 144.883 235.999 145.293 236.191 145.592C236.393 145.88 236.745 146.024 237.247 146.024C237.407 146.024 237.577 146.003 237.759 145.96C237.94 145.907 238.1 145.848 238.239 145.784L238.527 146.888C238.281 146.973 238.02 147.048 237.743 147.112C237.465 147.176 237.188 147.208 236.911 147.208ZM243.461 147.208C242.682 147.208 241.978 147.027 241.349 146.664C240.719 146.301 240.218 145.784 239.845 145.112C239.482 144.429 239.301 143.613 239.301 142.664C239.301 141.949 239.407 141.315 239.621 140.76C239.834 140.195 240.122 139.715 240.485 139.32C240.858 138.915 241.279 138.611 241.749 138.408C242.218 138.195 242.698 138.088 243.189 138.088C243.935 138.088 244.565 138.253 245.077 138.584C245.589 138.915 245.978 139.389 246.245 140.008C246.522 140.616 246.661 141.336 246.661 142.168C246.661 142.328 246.655 142.477 246.645 142.616C246.634 142.755 246.618 142.883 246.597 143H240.741C240.773 143.619 240.911 144.157 241.157 144.616C241.413 145.064 241.749 145.416 242.165 145.672C242.581 145.917 243.066 146.04 243.621 146.04C244.047 146.04 244.431 145.981 244.773 145.864C245.125 145.736 245.466 145.565 245.797 145.352L246.309 146.328C245.935 146.573 245.514 146.781 245.045 146.952C244.575 147.123 244.047 147.208 243.461 147.208ZM240.725 141.96H245.381C245.381 141.085 245.189 140.419 244.805 139.96C244.431 139.491 243.903 139.256 243.221 139.256C242.815 139.256 242.431 139.363 242.069 139.576C241.717 139.789 241.418 140.093 241.173 140.488C240.938 140.883 240.789 141.373 240.725 141.96ZM251.76 147.208C251.035 147.208 250.4 147.032 249.856 146.68C249.323 146.328 248.907 145.816 248.608 145.144C248.32 144.461 248.176 143.635 248.176 142.664C248.176 141.725 248.352 140.915 248.704 140.232C249.056 139.549 249.515 139.021 250.08 138.648C250.656 138.275 251.275 138.088 251.936 138.088C252.448 138.088 252.885 138.179 253.248 138.36C253.621 138.531 254 138.776 254.384 139.096L254.304 137.608V134.264H255.776V147H254.576L254.448 145.976H254.4C254.059 146.317 253.664 146.611 253.216 146.856C252.768 147.091 252.283 147.208 251.76 147.208ZM252.08 145.976C252.485 145.976 252.869 145.88 253.232 145.688C253.595 145.485 253.952 145.187 254.304 144.792V140.232C253.941 139.901 253.589 139.667 253.248 139.528C252.907 139.389 252.555 139.32 252.192 139.32C251.733 139.32 251.312 139.464 250.928 139.752C250.555 140.029 250.251 140.419 250.016 140.92C249.792 141.411 249.68 141.987 249.68 142.648C249.68 143.341 249.776 143.939 249.968 144.44C250.16 144.941 250.432 145.325 250.784 145.592C251.147 145.848 251.579 145.976 252.08 145.976ZM259.474 147.208C259.186 147.208 258.935 147.107 258.722 146.904C258.519 146.691 258.418 146.424 258.418 146.104C258.418 145.763 258.519 145.491 258.722 145.288C258.935 145.085 259.186 144.984 259.474 144.984C259.762 144.984 260.007 145.085 260.21 145.288C260.423 145.491 260.53 145.763 260.53 146.104C260.53 146.424 260.423 146.691 260.21 146.904C260.007 147.107 259.762 147.208 259.474 147.208Z" fill="#1A1A1A"/>
</g>
<defs>
<clipPath id="clip0_1_124">
<rect width="720" height="140" fill="white"/>
</clipPath>
</defs>
</svg>
