<svg width="720" height="80" viewBox="0 0 720 80" fill="none" xmlns="http://www.w3.org/2000/svg">
<rect width="720" height="80" fill="#F7F7F7"/>
<path d="M25.616 43V31.272H29.28C30.08 31.272 30.784 31.3787 31.392 31.592C32.0107 31.7947 32.496 32.136 32.848 32.616C33.2 33.096 33.376 33.7413 33.376 34.552C33.376 35.3307 33.2 35.9813 32.848 36.504C32.496 37.016 32.0107 37.4 31.392 37.656C30.784 37.9013 30.08 38.024 29.28 38.024H27.088V43H25.616ZM27.088 36.84H29.056C29.9733 36.84 30.6773 36.6533 31.168 36.28C31.6587 35.896 31.904 35.32 31.904 34.552C31.904 33.784 31.6587 33.2453 31.168 32.936C30.6773 32.6267 29.9733 32.472 29.056 32.472H27.088V36.84ZM32.048 43L28.976 37.64L30.144 36.856L33.712 43H32.048ZM35.7723 43V31.272H42.5243V32.52H37.2443V36.2H41.6923V37.464H37.2443V41.736H42.7003V43H35.7723ZM45.1941 43V31.272H48.1221C49.3275 31.272 50.3408 31.5013 51.1621 31.96C51.9835 32.408 52.6021 33.064 53.0181 33.928C53.4341 34.792 53.6421 35.848 53.6421 37.096C53.6421 38.3333 53.4341 39.3947 53.0181 40.28C52.6021 41.1653 51.9888 41.8427 51.1781 42.312C50.3675 42.7707 49.3701 43 48.1861 43H45.1941ZM46.6661 41.784H47.9941C48.9115 41.784 49.6741 41.6027 50.2821 41.24C50.9008 40.8667 51.3595 40.328 51.6581 39.624C51.9675 38.92 52.1221 38.0773 52.1221 37.096C52.1221 36.0933 51.9675 35.2507 51.6581 34.568C51.3595 33.8853 50.9008 33.368 50.2821 33.016C49.6741 32.6533 48.9115 32.472 47.9941 32.472H46.6661V41.784Z" fill="#D92626"/>
<path d="M62.5719 47C61.8679 47 61.2439 46.9093 60.6999 46.728C60.1559 46.5467 59.7345 46.28 59.4359 45.928C59.1372 45.5867 58.9879 45.1707 58.9879 44.68C58.9879 44.3067 59.0999 43.944 59.3239 43.592C59.5479 43.2507 59.8625 42.9573 60.2679 42.712V42.632C60.0439 42.4933 59.8572 42.3067 59.7079 42.072C59.5585 41.8373 59.4839 41.5493 59.4839 41.208C59.4839 40.8453 59.5852 40.5253 59.7879 40.248C60.0012 39.9707 60.2199 39.752 60.4439 39.592V39.528C60.1559 39.304 59.8945 38.9893 59.6599 38.584C59.4252 38.1787 59.3079 37.7147 59.3079 37.192C59.3079 36.552 59.4572 36.0027 59.7559 35.544C60.0545 35.0747 60.4492 34.7173 60.9399 34.472C61.4412 34.216 61.9799 34.088 62.5559 34.088C62.8119 34.088 63.0412 34.1093 63.2439 34.152C63.4572 34.1947 63.6385 34.248 63.7879 34.312H66.8119V35.432H65.0359C65.2492 35.6347 65.4199 35.8907 65.5479 36.2C65.6759 36.5093 65.7399 36.8507 65.7399 37.224C65.7399 37.8427 65.5959 38.3813 65.3079 38.84C65.0305 39.288 64.6519 39.6347 64.1719 39.88C63.6919 40.1253 63.1532 40.248 62.5559 40.248C62.3532 40.248 62.1345 40.2213 61.8999 40.168C61.6759 40.1147 61.4679 40.04 61.2759 39.944C61.1159 40.072 60.9825 40.216 60.8759 40.376C60.7692 40.536 60.7159 40.7387 60.7159 40.984C60.7159 41.2507 60.8225 41.4747 61.0359 41.656C61.2492 41.8373 61.6492 41.928 62.2359 41.928H63.9479C64.9505 41.928 65.7025 42.0933 66.2039 42.424C66.7159 42.7547 66.9719 43.2773 66.9719 43.992C66.9719 44.5253 66.7905 45.0213 66.4279 45.48C66.0652 45.9387 65.5532 46.3067 64.8919 46.584C64.2412 46.8613 63.4679 47 62.5719 47ZM62.5559 39.256C62.8972 39.256 63.2065 39.1707 63.4839 39C63.7719 38.8293 63.9959 38.5893 64.1559 38.28C64.3265 37.9707 64.4119 37.608 64.4119 37.192C64.4119 36.7653 64.3265 36.4027 64.1559 36.104C63.9959 35.7947 63.7772 35.56 63.4999 35.4C63.2225 35.24 62.9079 35.16 62.5559 35.16C62.2252 35.16 61.9159 35.24 61.6279 35.4C61.3505 35.56 61.1265 35.7893 60.9559 36.088C60.7959 36.3867 60.7159 36.7547 60.7159 37.192C60.7159 37.608 60.8012 37.9707 60.9719 38.28C61.1425 38.5893 61.3665 38.8293 61.6439 39C61.9212 39.1707 62.2252 39.256 62.5559 39.256ZM62.7799 45.992C63.3345 45.992 63.8145 45.9067 64.2199 45.736C64.6359 45.5653 64.9559 45.3413 65.1799 45.064C65.4145 44.7973 65.5319 44.52 65.5319 44.232C65.5319 43.816 65.3825 43.528 65.0839 43.368C64.7852 43.208 64.3479 43.128 63.7719 43.128H62.2679C62.1079 43.128 61.9265 43.1173 61.7239 43.096C61.5319 43.0853 61.3399 43.0533 61.1479 43C60.8385 43.2133 60.6145 43.448 60.4759 43.704C60.3372 43.9707 60.2679 44.2267 60.2679 44.472C60.2679 44.9307 60.4865 45.2987 60.9239 45.576C61.3719 45.8533 61.9905 45.992 62.7799 45.992ZM68.6751 43V34.312H69.8751L70.0191 35.896H70.0511C70.3498 35.3413 70.7125 34.904 71.1391 34.584C71.5765 34.2533 72.0351 34.088 72.5151 34.088C72.7178 34.088 72.8885 34.104 73.0271 34.136C73.1765 34.1573 73.3151 34.2053 73.4431 34.28L73.1711 35.544C73.0218 35.5013 72.8885 35.4693 72.7711 35.448C72.6538 35.416 72.5045 35.4 72.3231 35.4C71.9711 35.4 71.5925 35.5547 71.1871 35.864C70.7818 36.1627 70.4351 36.68 70.1471 37.416V43H68.6751ZM78.1795 43.208C77.4008 43.208 76.6968 43.0267 76.0675 42.664C75.4382 42.3013 74.9368 41.784 74.5635 41.112C74.2008 40.4293 74.0195 39.6133 74.0195 38.664C74.0195 37.9493 74.1262 37.3147 74.3395 36.76C74.5528 36.1947 74.8408 35.7147 75.2035 35.32C75.5768 34.9147 75.9982 34.6107 76.4675 34.408C76.9368 34.1947 77.4168 34.088 77.9075 34.088C78.6542 34.088 79.2835 34.2533 79.7955 34.584C80.3075 34.9147 80.6968 35.3893 80.9635 36.008C81.2408 36.616 81.3795 37.336 81.3795 38.168C81.3795 38.328 81.3742 38.4773 81.3635 38.616C81.3528 38.7547 81.3368 38.8827 81.3155 39H75.4595C75.4915 39.6187 75.6302 40.1573 75.8755 40.616C76.1315 41.064 76.4675 41.416 76.8835 41.672C77.2995 41.9173 77.7848 42.04 78.3395 42.04C78.7662 42.04 79.1502 41.9813 79.4915 41.864C79.8435 41.736 80.1848 41.5653 80.5155 41.352L81.0275 42.328C80.6542 42.5733 80.2328 42.7813 79.7635 42.952C79.2942 43.1227 78.7662 43.208 78.1795 43.208ZM75.4435 37.96H80.0995C80.0995 37.0853 79.9075 36.4187 79.5235 35.96C79.1502 35.4907 78.6222 35.256 77.9395 35.256C77.5342 35.256 77.1502 35.3627 76.7875 35.576C76.4355 35.7893 76.1368 36.0933 75.8915 36.488C75.6568 36.8827 75.5075 37.3733 75.4435 37.96ZM87.0389 43.208C86.2602 43.208 85.5562 43.0267 84.9269 42.664C84.2975 42.3013 83.7962 41.784 83.4229 41.112C83.0602 40.4293 82.8789 39.6133 82.8789 38.664C82.8789 37.9493 82.9855 37.3147 83.1989 36.76C83.4122 36.1947 83.7002 35.7147 84.0629 35.32C84.4362 34.9147 84.8575 34.6107 85.3269 34.408C85.7962 34.1947 86.2762 34.088 86.7669 34.088C87.5135 34.088 88.1429 34.2533 88.6549 34.584C89.1669 34.9147 89.5562 35.3893 89.8229 36.008C90.1002 36.616 90.2389 37.336 90.2389 38.168C90.2389 38.328 90.2335 38.4773 90.2229 38.616C90.2122 38.7547 90.1962 38.8827 90.1749 39H84.3189C84.3509 39.6187 84.4895 40.1573 84.7349 40.616C84.9909 41.064 85.3269 41.416 85.7429 41.672C86.1589 41.9173 86.6442 42.04 87.1989 42.04C87.6255 42.04 88.0095 41.9813 88.3509 41.864C88.7029 41.736 89.0442 41.5653 89.3749 41.352L89.8869 42.328C89.5135 42.5733 89.0922 42.7813 88.6229 42.952C88.1535 43.1227 87.6255 43.208 87.0389 43.208ZM84.3029 37.96H88.9589C88.9589 37.0853 88.7669 36.4187 88.3829 35.96C88.0095 35.4907 87.4815 35.256 86.7989 35.256C86.3935 35.256 86.0095 35.3627 85.6469 35.576C85.2949 35.7893 84.9962 36.0933 84.7509 36.488C84.5162 36.8827 84.3669 37.3733 84.3029 37.96ZM92.3783 43V34.312H93.5783L93.7223 35.576H93.7543C94.1703 35.16 94.6076 34.808 95.0663 34.52C95.5356 34.232 96.0689 34.088 96.6663 34.088C97.5836 34.088 98.2556 34.3813 98.6823 34.968C99.1089 35.544 99.3223 36.3867 99.3223 37.496V43H97.8663V37.688C97.8663 36.8667 97.7329 36.2747 97.4663 35.912C97.2103 35.5493 96.7943 35.368 96.2183 35.368C95.7703 35.368 95.3703 35.48 95.0182 35.704C94.6663 35.928 94.2769 36.2587 93.8503 36.696V43H92.3783Z" fill="#26B326"/>
<path d="M105.866 43V31.272H109.338C110.138 31.272 110.837 31.368 111.434 31.56C112.042 31.752 112.517 32.056 112.858 32.472C113.199 32.888 113.37 33.4427 113.37 34.136C113.37 34.52 113.301 34.888 113.162 35.24C113.034 35.5813 112.842 35.88 112.586 36.136C112.33 36.3813 112.021 36.5627 111.658 36.68V36.76C112.351 36.888 112.922 37.1867 113.37 37.656C113.818 38.1253 114.042 38.76 114.042 39.56C114.042 40.328 113.85 40.968 113.466 41.48C113.093 41.9813 112.57 42.36 111.898 42.616C111.237 42.872 110.469 43 109.594 43H105.866ZM107.338 36.248H109.082C110.095 36.248 110.821 36.0773 111.258 35.736C111.695 35.3947 111.914 34.9253 111.914 34.328C111.914 33.6347 111.679 33.1493 111.21 32.872C110.751 32.584 110.063 32.44 109.146 32.44H107.338V36.248ZM107.338 41.816H109.386C110.389 41.816 111.173 41.6293 111.738 41.256C112.303 40.8827 112.586 40.3013 112.586 39.512C112.586 38.776 112.309 38.2427 111.754 37.912C111.199 37.5707 110.41 37.4 109.386 37.4H107.338V41.816ZM116.382 43V31.272H117.854V41.736H122.99V43H116.382ZM128.682 43.208C128.085 43.208 127.53 43.1227 127.018 42.952C126.506 42.7813 126.058 42.4987 125.674 42.104C125.301 41.7093 125.008 41.1867 124.794 40.536C124.581 39.8853 124.474 39.096 124.474 38.168V31.272H125.946V38.2C125.946 39.1387 126.069 39.88 126.314 40.424C126.56 40.9573 126.885 41.3413 127.29 41.576C127.706 41.8 128.17 41.912 128.682 41.912C129.205 41.912 129.674 41.8 130.09 41.576C130.506 41.3413 130.837 40.9573 131.082 40.424C131.338 39.88 131.466 39.1387 131.466 38.2V31.272H132.89V38.168C132.89 39.096 132.784 39.8853 132.57 40.536C132.368 41.1867 132.074 41.7093 131.69 42.104C131.306 42.4987 130.858 42.7813 130.346 42.952C129.834 43.1227 129.28 43.208 128.682 43.208ZM136.054 43V31.272H142.806V32.52H137.526V36.2H141.974V37.464H137.526V41.736H142.982V43H136.054Z" fill="#264DD9"/>
</svg>
