<svg width="720" height="80" viewBox="0 0 720 80" fill="none" xmlns="http://www.w3.org/2000/svg">
<rect width="720" height="80" fill="#F7F7F7"/>
<path d="M25.4091 40V28.3636H29.3409C30.25 28.3636 30.9962 28.5189 31.5795 28.8295C32.1629 29.1364 32.5947 29.5587 32.875 30.0966C33.1553 30.6345 33.2955 31.2462 33.2955 31.9318C33.2955 32.6174 33.1553 33.2254 32.875 33.7557C32.5947 34.286 32.1648 34.7027 31.5852 35.0057C31.0057 35.3049 30.2652 35.4545 29.3636 35.4545H26.1818V34.1818H29.3182C29.9394 34.1818 30.4394 34.0909 30.8182 33.9091C31.2008 33.7273 31.4773 33.4697 31.6477 33.1364C31.822 32.7992 31.9091 32.3977 31.9091 31.9318C31.9091 31.4659 31.822 31.0587 31.6477 30.7102C31.4735 30.3617 31.1951 30.0928 30.8125 29.9034C30.4299 29.7102 29.9242 29.6136 29.2955 29.6136H26.8182V40H25.4091ZM30.8864 34.7727L33.75 40H32.1136L29.2955 34.7727H30.8864ZM35.6435 40V28.3636H42.6662V29.6136H37.0526V33.5455H42.3026V34.7955H37.0526V38.75H42.7571V40H35.6435ZM48.7969 40H45.206V28.3636H48.956C50.0848 28.3636 51.0507 28.5966 51.8537 29.0625C52.6567 29.5246 53.2723 30.1894 53.7003 31.0568C54.1283 31.9205 54.3423 32.9545 54.3423 34.1591C54.3423 35.3712 54.1264 36.4148 53.6946 37.2898C53.2628 38.161 52.634 38.8314 51.8082 39.3011C50.9825 39.767 49.9787 40 48.7969 40ZM46.6151 38.75H48.706C49.6681 38.75 50.4654 38.5644 51.098 38.1932C51.7306 37.822 52.2022 37.2936 52.5128 36.608C52.8234 35.9223 52.9787 35.1061 52.9787 34.1591C52.9787 33.2197 52.8253 32.411 52.5185 31.733C52.2116 31.0511 51.7533 30.5284 51.1435 30.1648C50.5336 29.7973 49.7741 29.6136 48.8651 29.6136H46.6151V38.75Z" fill="#D92626"/>
<path d="M64.5469 43.4545C63.8991 43.4545 63.3423 43.3712 62.8764 43.2045C62.4105 43.0417 62.0223 42.8258 61.7116 42.5568C61.4048 42.2917 61.1605 42.0076 60.9787 41.7045L62.0469 40.9545C62.1681 41.1136 62.3215 41.2955 62.5071 41.5C62.6927 41.7083 62.9465 41.8883 63.2685 42.0398C63.5942 42.1951 64.0204 42.2727 64.5469 42.2727C65.2514 42.2727 65.8329 42.1023 66.2912 41.7614C66.7495 41.4205 66.9787 40.8864 66.9787 40.1591V38.3864H66.8651C66.7666 38.5455 66.6264 38.7424 66.4446 38.9773C66.2666 39.2083 66.009 39.4148 65.6719 39.5966C65.3385 39.7746 64.8878 39.8636 64.3196 39.8636C63.6151 39.8636 62.9825 39.697 62.4219 39.3636C61.8651 39.0303 61.4238 38.5455 61.098 37.9091C60.776 37.2727 60.6151 36.5 60.6151 35.5909C60.6151 34.697 60.7723 33.9186 61.0866 33.2557C61.401 32.589 61.8385 32.0739 62.3991 31.7102C62.9598 31.3428 63.6075 31.1591 64.3423 31.1591C64.9105 31.1591 65.3613 31.2538 65.6946 31.4432C66.0317 31.6288 66.2893 31.8409 66.4673 32.0795C66.6491 32.3144 66.7893 32.5076 66.8878 32.6591H67.0241V31.2727H68.3196V40.25C68.3196 41 68.1491 41.6098 67.8082 42.0795C67.4711 42.553 67.0166 42.8996 66.4446 43.1193C65.8764 43.3428 65.2438 43.4545 64.5469 43.4545ZM64.5014 38.6591C65.0393 38.6591 65.4938 38.536 65.8651 38.2898C66.2363 38.0436 66.5185 37.6894 66.7116 37.2273C66.9048 36.7652 67.0014 36.2121 67.0014 35.5682C67.0014 34.9394 66.9067 34.3845 66.7173 33.9034C66.5279 33.4223 66.2476 33.0455 65.8764 32.7727C65.5052 32.5 65.0469 32.3636 64.5014 32.3636C63.9332 32.3636 63.4598 32.5076 63.081 32.7955C62.706 33.0833 62.4238 33.4697 62.2344 33.9545C62.0488 34.4394 61.956 34.9773 61.956 35.5682C61.956 36.1742 62.0507 36.7102 62.2401 37.1761C62.4332 37.6383 62.7173 38.0019 63.0923 38.267C63.4711 38.5284 63.9408 38.6591 64.5014 38.6591ZM70.7741 40V31.2727H72.0696V32.5909H72.1605C72.3196 32.1591 72.6075 31.8087 73.0241 31.5398C73.4408 31.2708 73.9105 31.1364 74.4332 31.1364C74.5317 31.1364 74.6548 31.1383 74.8026 31.142C74.9503 31.1458 75.062 31.1515 75.1378 31.1591V32.5227C75.0923 32.5114 74.9882 32.4943 74.8253 32.4716C74.6662 32.4451 74.4976 32.4318 74.3196 32.4318C73.8954 32.4318 73.5166 32.5208 73.1832 32.6989C72.8537 32.8731 72.5923 33.1155 72.3991 33.4261C72.2098 33.733 72.1151 34.0833 72.1151 34.4773V40H70.7741ZM80.1207 40.1818C79.2798 40.1818 78.5545 39.9962 77.9446 39.625C77.3385 39.25 76.8707 38.7273 76.5412 38.0568C76.2154 37.3826 76.0526 36.5985 76.0526 35.7045C76.0526 34.8106 76.2154 34.0227 76.5412 33.3409C76.8707 32.6553 77.3291 32.1212 77.9162 31.7386C78.5071 31.3523 79.1965 31.1591 79.9844 31.1591C80.4389 31.1591 80.8878 31.2348 81.331 31.3864C81.7741 31.5379 82.1776 31.7841 82.5412 32.125C82.9048 32.4621 83.1946 32.9091 83.4105 33.4659C83.6264 34.0227 83.7344 34.7083 83.7344 35.5227V36.0909H77.0071V34.9318H82.3707C82.3707 34.4394 82.2723 34 82.0753 33.6136C81.8821 33.2273 81.6056 32.9223 81.2457 32.6989C80.8897 32.4754 80.4692 32.3636 79.9844 32.3636C79.4503 32.3636 78.9882 32.4962 78.598 32.7614C78.2116 33.0227 77.9143 33.3636 77.706 33.7841C77.4976 34.2045 77.3935 34.6553 77.3935 35.1364V35.9091C77.3935 36.5682 77.5071 37.1269 77.7344 37.5852C77.9654 38.0398 78.2855 38.3864 78.6946 38.625C79.1037 38.8598 79.5791 38.9773 80.1207 38.9773C80.473 38.9773 80.7912 38.928 81.0753 38.8295C81.3632 38.7273 81.6113 38.5758 81.8196 38.375C82.0279 38.1705 82.1889 37.9167 82.3026 37.6136L83.598 37.9773C83.4616 38.4167 83.2325 38.803 82.9105 39.1364C82.5885 39.4659 82.1908 39.7235 81.7173 39.9091C81.2438 40.0909 80.7116 40.1818 80.1207 40.1818ZM89.4332 40.1818C88.5923 40.1818 87.867 39.9962 87.2571 39.625C86.651 39.25 86.1832 38.7273 85.8537 38.0568C85.5279 37.3826 85.3651 36.5985 85.3651 35.7045C85.3651 34.8106 85.5279 34.0227 85.8537 33.3409C86.1832 32.6553 86.6416 32.1212 87.2287 31.7386C87.8196 31.3523 88.509 31.1591 89.2969 31.1591C89.7514 31.1591 90.2003 31.2348 90.6435 31.3864C91.0866 31.5379 91.4901 31.7841 91.8537 32.125C92.2173 32.4621 92.5071 32.9091 92.723 33.4659C92.9389 34.0227 93.0469 34.7083 93.0469 35.5227V36.0909H86.3196V34.9318H91.6832C91.6832 34.4394 91.5848 34 91.3878 33.6136C91.1946 33.2273 90.9181 32.9223 90.5582 32.6989C90.2022 32.4754 89.7817 32.3636 89.2969 32.3636C88.7628 32.3636 88.3007 32.4962 87.9105 32.7614C87.5241 33.0227 87.2268 33.3636 87.0185 33.7841C86.8101 34.2045 86.706 34.6553 86.706 35.1364V35.9091C86.706 36.5682 86.8196 37.1269 87.0469 37.5852C87.2779 38.0398 87.598 38.3864 88.0071 38.625C88.4162 38.8598 88.8916 38.9773 89.4332 38.9773C89.7855 38.9773 90.1037 38.928 90.3878 38.8295C90.6757 38.7273 90.9238 38.5758 91.1321 38.375C91.3404 38.1705 91.5014 37.9167 91.6151 37.6136L92.9105 37.9773C92.7741 38.4167 92.545 38.803 92.223 39.1364C91.901 39.4659 91.5033 39.7235 91.0298 39.9091C90.5563 40.0909 90.0241 40.1818 89.4332 40.1818ZM96.4276 34.75V40H95.0866V31.2727H96.3821V32.6364H96.4957C96.7003 32.1932 97.0109 31.8371 97.4276 31.5682C97.8442 31.2955 98.3821 31.1591 99.0412 31.1591C99.6321 31.1591 100.149 31.2803 100.592 31.5227C101.036 31.7614 101.38 32.125 101.626 32.6136C101.873 33.0985 101.996 33.7121 101.996 34.4545V40H100.655V34.5455C100.655 33.8598 100.477 33.3258 100.121 32.9432C99.7647 32.5568 99.276 32.3636 98.6548 32.3636C98.2268 32.3636 97.8442 32.4564 97.5071 32.642C97.1738 32.8277 96.9105 33.0985 96.7173 33.4545C96.5241 33.8106 96.4276 34.2424 96.4276 34.75Z" fill="#26B326"/>
<path d="M109.128 40V28.3636H113.196C114.007 28.3636 114.675 28.5038 115.202 28.7841C115.728 29.0606 116.12 29.4337 116.378 29.9034C116.635 30.3693 116.764 30.8864 116.764 31.4545C116.764 31.9545 116.675 32.3674 116.497 32.6932C116.323 33.0189 116.092 33.2765 115.804 33.4659C115.52 33.6553 115.211 33.7955 114.878 33.8864V34C115.234 34.0227 115.592 34.1477 115.952 34.375C116.312 34.6023 116.613 34.928 116.855 35.3523C117.098 35.7765 117.219 36.2955 117.219 36.9091C117.219 37.4924 117.086 38.017 116.821 38.483C116.556 38.9489 116.137 39.3182 115.565 39.5909C114.993 39.8636 114.249 40 113.332 40H109.128ZM110.537 38.75H113.332C114.253 38.75 114.906 38.572 115.293 38.2159C115.683 37.8561 115.878 37.4205 115.878 36.9091C115.878 36.5152 115.777 36.1515 115.577 35.8182C115.376 35.4811 115.09 35.2121 114.719 35.0114C114.348 34.8068 113.908 34.7045 113.401 34.7045H110.537V38.75ZM110.537 33.4773H113.151C113.575 33.4773 113.957 33.3939 114.298 33.2273C114.643 33.0606 114.916 32.8258 115.116 32.5227C115.321 32.2197 115.423 31.8636 115.423 31.4545C115.423 30.9432 115.245 30.5095 114.889 30.1534C114.533 29.7936 113.969 29.6136 113.196 29.6136H110.537V33.4773ZM119.534 40V28.3636H120.943V38.75H126.352V40H119.534ZM136.17 28.3636H137.58V36.0682C137.58 36.8636 137.392 37.5739 137.017 38.1989C136.646 38.8201 136.121 39.3106 135.443 39.6705C134.765 40.0265 133.97 40.2045 133.057 40.2045C132.144 40.2045 131.348 40.0265 130.67 39.6705C129.992 39.3106 129.466 38.8201 129.091 38.1989C128.72 37.5739 128.534 36.8636 128.534 36.0682V28.3636H129.943V35.9545C129.943 36.5227 130.068 37.0284 130.318 37.4716C130.568 37.911 130.924 38.2576 131.386 38.5114C131.852 38.7614 132.409 38.8864 133.057 38.8864C133.705 38.8864 134.261 38.7614 134.727 38.5114C135.193 38.2576 135.549 37.911 135.795 37.4716C136.045 37.0284 136.17 36.5227 136.17 35.9545V28.3636ZM140.393 40V28.3636H147.416V29.6136H141.803V33.5455H147.053V34.7955H141.803V38.75H147.507V40H140.393Z" fill="#264DD9"/>
</svg>
