<svg width="720" height="248" viewBox="0 0 720 248" fill="none" xmlns="http://www.w3.org/2000/svg">
<rect width="720" height="248" fill="#F7F7F7"/>
<path d="M35.2273 26.1818C35.2273 27.4091 35.0057 28.4697 34.5625 29.3636C34.1193 30.2576 33.5114 30.947 32.7386 31.4318C31.9659 31.9167 31.0833 32.1591 30.0909 32.1591C29.0985 32.1591 28.2159 31.9167 27.4432 31.4318C26.6705 30.947 26.0625 30.2576 25.6193 29.3636C25.1761 28.4697 24.9545 27.4091 24.9545 26.1818C24.9545 24.9545 25.1761 23.8939 25.6193 23C26.0625 22.1061 26.6705 21.4167 27.4432 20.9318C28.2159 20.447 29.0985 20.2045 30.0909 20.2045C31.0833 20.2045 31.9659 20.447 32.7386 20.9318C33.5114 21.4167 34.1193 22.1061 34.5625 23C35.0057 23.8939 35.2273 24.9545 35.2273 26.1818ZM33.8636 26.1818C33.8636 25.1742 33.6951 24.3239 33.358 23.6307C33.0246 22.9375 32.572 22.4129 32 22.0568C31.4318 21.7008 30.7955 21.5227 30.0909 21.5227C29.3864 21.5227 28.7481 21.7008 28.1761 22.0568C27.608 22.4129 27.1553 22.9375 26.8182 23.6307C26.4848 24.3239 26.3182 25.1742 26.3182 26.1818C26.3182 27.1894 26.4848 28.0398 26.8182 28.733C27.1553 29.4261 27.608 29.9508 28.1761 30.3068C28.7481 30.6629 29.3864 30.8409 30.0909 30.8409C30.7955 30.8409 31.4318 30.6629 32 30.3068C32.572 29.9508 33.0246 29.4261 33.358 28.733C33.6951 28.0398 33.8636 27.1894 33.8636 26.1818ZM37.4148 32V23.2727H38.7102V24.5909H38.8011C38.9602 24.1591 39.2481 23.8087 39.6648 23.5398C40.0814 23.2708 40.5511 23.1364 41.0739 23.1364C41.1723 23.1364 41.2955 23.1383 41.4432 23.142C41.5909 23.1458 41.7027 23.1515 41.7784 23.1591V24.5227C41.733 24.5114 41.6288 24.4943 41.4659 24.4716C41.3068 24.4451 41.1383 24.4318 40.9602 24.4318C40.536 24.4318 40.1572 24.5208 39.8239 24.6989C39.4943 24.8731 39.233 25.1155 39.0398 25.4261C38.8504 25.733 38.7557 26.0833 38.7557 26.4773V32H37.4148ZM43.3679 32V23.2727H44.7088V32H43.3679ZM44.0497 21.8182C43.7884 21.8182 43.563 21.7292 43.3736 21.5511C43.188 21.3731 43.0952 21.1591 43.0952 20.9091C43.0952 20.6591 43.188 20.4451 43.3736 20.267C43.563 20.089 43.7884 20 44.0497 20C44.3111 20 44.5346 20.089 44.7202 20.267C44.9096 20.4451 45.0043 20.6591 45.0043 20.9091C45.0043 21.1591 44.9096 21.3731 44.7202 21.5511C44.5346 21.7292 44.3111 21.8182 44.0497 21.8182ZM50.6875 35.4545C50.0398 35.4545 49.483 35.3712 49.017 35.2045C48.5511 35.0417 48.1629 34.8258 47.8523 34.5568C47.5455 34.2917 47.3011 34.0076 47.1193 33.7045L48.1875 32.9545C48.3087 33.1136 48.4621 33.2955 48.6477 33.5C48.8333 33.7083 49.0871 33.8883 49.4091 34.0398C49.7348 34.1951 50.161 34.2727 50.6875 34.2727C51.392 34.2727 51.9735 34.1023 52.4318 33.7614C52.8902 33.4205 53.1193 32.8864 53.1193 32.1591V30.3864H53.0057C52.9072 30.5455 52.767 30.7424 52.5852 30.9773C52.4072 31.2083 52.1496 31.4148 51.8125 31.5966C51.4792 31.7746 51.0284 31.8636 50.4602 31.8636C49.7557 31.8636 49.1231 31.697 48.5625 31.3636C48.0057 31.0303 47.5644 30.5455 47.2386 29.9091C46.9167 29.2727 46.7557 28.5 46.7557 27.5909C46.7557 26.697 46.9129 25.9186 47.2273 25.2557C47.5417 24.589 47.9792 24.0739 48.5398 23.7102C49.1004 23.3428 49.7481 23.1591 50.483 23.1591C51.0511 23.1591 51.5019 23.2538 51.8352 23.4432C52.1723 23.6288 52.4299 23.8409 52.608 24.0795C52.7898 24.3144 52.9299 24.5076 53.0284 24.6591H53.1648V23.2727H54.4602V32.25C54.4602 33 54.2898 33.6098 53.9489 34.0795C53.6117 34.553 53.1572 34.8996 52.5852 35.1193C52.017 35.3428 51.3845 35.4545 50.6875 35.4545ZM50.642 30.6591C51.1799 30.6591 51.6345 30.536 52.0057 30.2898C52.3769 30.0436 52.6591 29.6894 52.8523 29.2273C53.0455 28.7652 53.142 28.2121 53.142 27.5682C53.142 26.9394 53.0473 26.3845 52.858 25.9034C52.6686 25.4223 52.3883 25.0455 52.017 24.7727C51.6458 24.5 51.1875 24.3636 50.642 24.3636C50.0739 24.3636 49.6004 24.5076 49.2216 24.7955C48.8466 25.0833 48.5644 25.4697 48.375 25.9545C48.1894 26.4394 48.0966 26.9773 48.0966 27.5682C48.0966 28.1742 48.1913 28.7102 48.3807 29.1761C48.5739 29.6383 48.858 30.0019 49.233 30.267C49.6117 30.5284 50.0814 30.6591 50.642 30.6591ZM56.9148 32V23.2727H58.2557V32H56.9148ZM57.5966 21.8182C57.3352 21.8182 57.1098 21.7292 56.9205 21.5511C56.7348 21.3731 56.642 21.1591 56.642 20.9091C56.642 20.6591 56.7348 20.4451 56.9205 20.267C57.1098 20.089 57.3352 20 57.5966 20C57.858 20 58.0814 20.089 58.267 20.267C58.4564 20.4451 58.5511 20.6591 58.5511 20.9091C58.5511 21.1591 58.4564 21.3731 58.267 21.5511C58.0814 21.7292 57.858 21.8182 57.5966 21.8182ZM62.0526 26.75V32H60.7116V23.2727H62.0071V24.6364H62.1207C62.3253 24.1932 62.6359 23.8371 63.0526 23.5682C63.4692 23.2955 64.0071 23.1591 64.6662 23.1591C65.2571 23.1591 65.7741 23.2803 66.2173 23.5227C66.6605 23.7614 67.0052 24.125 67.2514 24.6136C67.4976 25.0985 67.6207 25.7121 67.6207 26.4545V32H66.2798V26.5455C66.2798 25.8598 66.1018 25.3258 65.7457 24.9432C65.3897 24.5568 64.901 24.3636 64.2798 24.3636C63.8518 24.3636 63.4692 24.4564 63.1321 24.642C62.7988 24.8277 62.5355 25.0985 62.3423 25.4545C62.1491 25.8106 62.0526 26.2424 62.0526 26.75ZM72.6392 32.2045C72.0862 32.2045 71.5843 32.1004 71.1335 31.892C70.6828 31.6799 70.3248 31.375 70.0597 30.9773C69.7945 30.5758 69.6619 30.0909 69.6619 29.5227C69.6619 29.0227 69.7604 28.6174 69.9574 28.3068C70.1544 27.9924 70.4176 27.7462 70.7472 27.5682C71.0767 27.3902 71.4403 27.2576 71.8381 27.1705C72.2396 27.0795 72.643 27.0076 73.0483 26.9545C73.5786 26.8864 74.0085 26.8352 74.3381 26.8011C74.6714 26.7633 74.9138 26.7008 75.0653 26.6136C75.2206 26.5265 75.2983 26.375 75.2983 26.1591V26.1136C75.2983 25.553 75.1449 25.1174 74.8381 24.8068C74.535 24.4962 74.0748 24.3409 73.4574 24.3409C72.8172 24.3409 72.3153 24.4811 71.9517 24.7614C71.5881 25.0417 71.3324 25.3409 71.1847 25.6591L69.9119 25.2045C70.1392 24.6742 70.4422 24.2614 70.821 23.9659C71.2036 23.6667 71.6203 23.4583 72.071 23.3409C72.5256 23.2197 72.9725 23.1591 73.4119 23.1591C73.6922 23.1591 74.0142 23.1932 74.3778 23.2614C74.7453 23.3258 75.0994 23.4602 75.4403 23.6648C75.785 23.8693 76.071 24.178 76.2983 24.5909C76.5256 25.0038 76.6392 25.5568 76.6392 26.25V32H75.2983V30.8182H75.2301C75.1392 31.0076 74.9877 31.2102 74.7756 31.4261C74.5634 31.642 74.2813 31.8258 73.929 31.9773C73.5767 32.1288 73.1468 32.2045 72.6392 32.2045ZM72.8438 31C73.3741 31 73.821 30.8958 74.1847 30.6875C74.5521 30.4792 74.8286 30.2102 75.0142 29.8807C75.2036 29.5511 75.2983 29.2045 75.2983 28.8409V27.6136C75.2415 27.6818 75.1165 27.7443 74.9233 27.8011C74.7339 27.8542 74.5142 27.9015 74.2642 27.9432C74.018 27.9811 73.7775 28.0152 73.5426 28.0455C73.3116 28.072 73.1241 28.0947 72.9801 28.1136C72.6316 28.1591 72.3059 28.233 72.0028 28.3352C71.7036 28.4337 71.4612 28.5833 71.2756 28.7841C71.0938 28.9811 71.0028 29.25 71.0028 29.5909C71.0028 30.0568 71.1752 30.4091 71.5199 30.6477C71.8684 30.8826 72.3097 31 72.8438 31ZM80.4276 20.3636V32H79.0866V20.3636H80.4276ZM96.929 24H95.5199C95.4366 23.5947 95.2907 23.2386 95.0824 22.9318C94.8778 22.625 94.6278 22.3674 94.3324 22.1591C94.0407 21.947 93.7169 21.7879 93.3608 21.6818C93.0047 21.5758 92.6335 21.5227 92.2472 21.5227C91.5426 21.5227 90.9044 21.7008 90.3324 22.0568C89.7642 22.4129 89.3116 22.9375 88.9744 23.6307C88.6411 24.3239 88.4744 25.1742 88.4744 26.1818C88.4744 27.1894 88.6411 28.0398 88.9744 28.733C89.3116 29.4261 89.7642 29.9508 90.3324 30.3068C90.9044 30.6629 91.5426 30.8409 92.2472 30.8409C92.6335 30.8409 93.0047 30.7879 93.3608 30.6818C93.7169 30.5758 94.0407 30.4186 94.3324 30.2102C94.6278 29.9981 94.8778 29.7386 95.0824 29.4318C95.2907 29.1212 95.4366 28.7652 95.5199 28.3636H96.929C96.8229 28.9583 96.6297 29.4905 96.3494 29.9602C96.0691 30.4299 95.7206 30.8295 95.304 31.1591C94.8873 31.4848 94.4195 31.733 93.9006 31.9034C93.3854 32.0739 92.8343 32.1591 92.2472 32.1591C91.2547 32.1591 90.3722 31.9167 89.5994 31.4318C88.8267 30.947 88.2188 30.2576 87.7756 29.3636C87.3324 28.4697 87.1108 27.4091 87.1108 26.1818C87.1108 24.9545 87.3324 23.8939 87.7756 23C88.2188 22.1061 88.8267 21.4167 89.5994 20.9318C90.3722 20.447 91.2547 20.2045 92.2472 20.2045C92.8343 20.2045 93.3854 20.2898 93.9006 20.4602C94.4195 20.6307 94.8873 20.8807 95.304 21.2102C95.7206 21.536 96.0691 21.9337 96.3494 22.4034C96.6297 22.8693 96.8229 23.4015 96.929 24ZM101.592 32.2045C101.039 32.2045 100.537 32.1004 100.087 31.892C99.6359 31.6799 99.2779 31.375 99.0128 30.9773C98.7476 30.5758 98.6151 30.0909 98.6151 29.5227C98.6151 29.0227 98.7135 28.6174 98.9105 28.3068C99.1075 27.9924 99.3707 27.7462 99.7003 27.5682C100.03 27.3902 100.393 27.2576 100.791 27.1705C101.193 27.0795 101.596 27.0076 102.001 26.9545C102.532 26.8864 102.962 26.8352 103.291 26.8011C103.625 26.7633 103.867 26.7008 104.018 26.6136C104.174 26.5265 104.251 26.375 104.251 26.1591V26.1136C104.251 25.553 104.098 25.1174 103.791 24.8068C103.488 24.4962 103.028 24.3409 102.411 24.3409C101.77 24.3409 101.268 24.4811 100.905 24.7614C100.541 25.0417 100.286 25.3409 100.138 25.6591L98.8651 25.2045C99.0923 24.6742 99.3954 24.2614 99.7741 23.9659C100.157 23.6667 100.573 23.4583 101.024 23.3409C101.479 23.2197 101.926 23.1591 102.365 23.1591C102.645 23.1591 102.967 23.1932 103.331 23.2614C103.698 23.3258 104.053 23.4602 104.393 23.6648C104.738 23.8693 105.024 24.178 105.251 24.5909C105.479 25.0038 105.592 25.5568 105.592 26.25V32H104.251V30.8182H104.183C104.092 31.0076 103.941 31.2102 103.729 31.4261C103.517 31.642 103.234 31.8258 102.882 31.9773C102.53 32.1288 102.1 32.2045 101.592 32.2045ZM101.797 31C102.327 31 102.774 30.8958 103.138 30.6875C103.505 30.4792 103.782 30.2102 103.967 29.8807C104.157 29.5511 104.251 29.2045 104.251 28.8409V27.6136C104.195 27.6818 104.07 27.7443 103.876 27.8011C103.687 27.8542 103.467 27.9015 103.217 27.9432C102.971 27.9811 102.731 28.0152 102.496 28.0455C102.265 28.072 102.077 28.0947 101.933 28.1136C101.585 28.1591 101.259 28.233 100.956 28.3352C100.657 28.4337 100.414 28.5833 100.229 28.7841C100.047 28.9811 99.956 29.25 99.956 29.5909C99.956 30.0568 100.128 30.4091 100.473 30.6477C100.821 30.8826 101.263 31 101.797 31ZM114.222 25.2273L113.017 25.5682C112.941 25.3674 112.83 25.1723 112.682 24.983C112.538 24.7898 112.341 24.6307 112.091 24.5057C111.841 24.3807 111.521 24.3182 111.131 24.3182C110.597 24.3182 110.152 24.4413 109.795 24.6875C109.443 24.9299 109.267 25.2386 109.267 25.6136C109.267 25.947 109.388 26.2102 109.631 26.4034C109.873 26.5966 110.252 26.7576 110.767 26.8864L112.062 27.2045C112.843 27.3939 113.424 27.6837 113.807 28.0739C114.189 28.4602 114.381 28.9583 114.381 29.5682C114.381 30.0682 114.237 30.5152 113.949 30.9091C113.665 31.303 113.267 31.6136 112.756 31.8409C112.244 32.0682 111.65 32.1818 110.972 32.1818C110.081 32.1818 109.345 31.9886 108.761 31.6023C108.178 31.2159 107.809 30.6515 107.653 29.9091L108.926 29.5909C109.047 30.0606 109.277 30.4129 109.614 30.6477C109.955 30.8826 110.4 31 110.949 31C111.574 31 112.07 30.8674 112.438 30.6023C112.809 30.3333 112.994 30.0114 112.994 29.6364C112.994 29.3333 112.888 29.0795 112.676 28.875C112.464 28.6667 112.138 28.5114 111.699 28.4091L110.244 28.0682C109.445 27.8788 108.858 27.5852 108.483 27.1875C108.112 26.786 107.926 26.2841 107.926 25.6818C107.926 25.1894 108.064 24.7538 108.341 24.375C108.621 23.9962 109.002 23.6989 109.483 23.483C109.968 23.267 110.517 23.1591 111.131 23.1591C111.994 23.1591 112.672 23.3485 113.165 23.7273C113.661 24.1061 114.013 24.6061 114.222 25.2273ZM120.058 32.1818C119.217 32.1818 118.492 31.9962 117.882 31.625C117.276 31.25 116.808 30.7273 116.479 30.0568C116.153 29.3826 115.99 28.5985 115.99 27.7045C115.99 26.8106 116.153 26.0227 116.479 25.3409C116.808 24.6553 117.267 24.1212 117.854 23.7386C118.445 23.3523 119.134 23.1591 119.922 23.1591C120.376 23.1591 120.825 23.2348 121.268 23.3864C121.712 23.5379 122.115 23.7841 122.479 24.125C122.842 24.4621 123.132 24.9091 123.348 25.4659C123.564 26.0227 123.672 26.7083 123.672 27.5227V28.0909H116.945V26.9318H122.308C122.308 26.4394 122.21 26 122.013 25.6136C121.82 25.2273 121.543 24.9223 121.183 24.6989C120.827 24.4754 120.407 24.3636 119.922 24.3636C119.388 24.3636 118.926 24.4962 118.536 24.7614C118.149 25.0227 117.852 25.3636 117.643 25.7841C117.435 26.2045 117.331 26.6553 117.331 27.1364V27.9091C117.331 28.5682 117.445 29.1269 117.672 29.5852C117.903 30.0398 118.223 30.3864 118.632 30.625C119.041 30.8598 119.517 30.9773 120.058 30.9773C120.411 30.9773 120.729 30.928 121.013 30.8295C121.301 30.7273 121.549 30.5758 121.757 30.375C121.965 30.1705 122.126 29.9167 122.24 29.6136L123.536 29.9773C123.399 30.4167 123.17 30.803 122.848 31.1364C122.526 31.4659 122.128 31.7235 121.655 31.9091C121.181 32.0909 120.649 32.1818 120.058 32.1818Z" fill="#1A1A1A"/>
<path d="M33.0455 56.3636H34.4545V64.0682C34.4545 64.8636 34.267 65.5739 33.892 66.1989C33.5208 66.8201 32.9962 67.3106 32.3182 67.6705C31.6402 68.0265 30.8447 68.2045 29.9318 68.2045C29.0189 68.2045 28.2235 68.0265 27.5455 67.6705C26.8674 67.3106 26.3409 66.8201 25.9659 66.1989C25.5947 65.5739 25.4091 64.8636 25.4091 64.0682V56.3636H26.8182V63.9545C26.8182 64.5227 26.9432 65.0284 27.1932 65.4716C27.4432 65.911 27.7992 66.2576 28.2614 66.5114C28.7273 66.7614 29.2841 66.8864 29.9318 66.8864C30.5795 66.8864 31.1364 66.7614 31.6023 66.5114C32.0682 66.2576 32.4242 65.911 32.6705 65.4716C32.9205 65.0284 33.0455 64.5227 33.0455 63.9545V56.3636ZM37.2685 68V56.3636H41.2003C42.1132 56.3636 42.8594 56.5284 43.4389 56.858C44.0223 57.1837 44.4541 57.625 44.7344 58.1818C45.0147 58.7386 45.1548 59.3598 45.1548 60.0455C45.1548 60.7311 45.0147 61.3542 44.7344 61.9148C44.4579 62.4754 44.0298 62.9223 43.4503 63.2557C42.8707 63.5852 42.1283 63.75 41.223 63.75H38.4048V62.5H41.1776C41.8026 62.5 42.3045 62.392 42.6832 62.1761C43.062 61.9602 43.3366 61.6686 43.5071 61.3011C43.6813 60.9299 43.7685 60.5114 43.7685 60.0455C43.7685 59.5795 43.6813 59.1629 43.5071 58.7955C43.3366 58.428 43.0601 58.1402 42.6776 57.9318C42.295 57.7197 41.7874 57.6136 41.1548 57.6136H38.6776V68H37.2685ZM47.4247 68V56.3636H51.3565C52.2694 56.3636 53.0156 56.5284 53.5952 56.858C54.1785 57.1837 54.6103 57.625 54.8906 58.1818C55.1709 58.7386 55.3111 59.3598 55.3111 60.0455C55.3111 60.7311 55.1709 61.3542 54.8906 61.9148C54.6141 62.4754 54.1861 62.9223 53.6065 63.2557C53.027 63.5852 52.2846 63.75 51.3793 63.75H48.5611V62.5H51.3338C51.9588 62.5 52.4607 62.392 52.8395 62.1761C53.2183 61.9602 53.4929 61.6686 53.6634 61.3011C53.8376 60.9299 53.9247 60.5114 53.9247 60.0455C53.9247 59.5795 53.8376 59.1629 53.6634 58.7955C53.4929 58.428 53.2164 58.1402 52.8338 57.9318C52.4512 57.7197 51.9437 57.6136 51.3111 57.6136H48.8338V68H47.4247ZM57.581 68V56.3636H64.6037V57.6136H58.9901V61.5455H64.2401V62.7955H58.9901V66.75H64.6946V68H57.581ZM67.1435 68V56.3636H71.0753C71.9844 56.3636 72.7306 56.5189 73.3139 56.8295C73.8973 57.1364 74.3291 57.5587 74.6094 58.0966C74.8897 58.6345 75.0298 59.2462 75.0298 59.9318C75.0298 60.6174 74.8897 61.2254 74.6094 61.7557C74.3291 62.286 73.8991 62.7027 73.3196 63.0057C72.7401 63.3049 71.9995 63.4545 71.098 63.4545H67.9162V62.1818H71.0526C71.6738 62.1818 72.1738 62.0909 72.5526 61.9091C72.9351 61.7273 73.2116 61.4697 73.3821 61.1364C73.5563 60.7992 73.6435 60.3977 73.6435 59.9318C73.6435 59.4659 73.5563 59.0587 73.3821 58.7102C73.2079 58.3617 72.9295 58.0928 72.5469 57.9034C72.1643 57.7102 71.6586 57.6136 71.0298 57.6136H68.5526V68H67.1435ZM72.6207 62.7727L75.4844 68H73.848L71.0298 62.7727H72.6207ZM91.2415 60H89.8324C89.7491 59.5947 89.6032 59.2386 89.3949 58.9318C89.1903 58.625 88.9403 58.3674 88.6449 58.1591C88.3532 57.947 88.0294 57.7879 87.6733 57.6818C87.3172 57.5758 86.946 57.5227 86.5597 57.5227C85.8551 57.5227 85.2169 57.7008 84.6449 58.0568C84.0767 58.4129 83.6241 58.9375 83.2869 59.6307C82.9536 60.3239 82.7869 61.1742 82.7869 62.1818C82.7869 63.1894 82.9536 64.0398 83.2869 64.733C83.6241 65.4261 84.0767 65.9508 84.6449 66.3068C85.2169 66.6629 85.8551 66.8409 86.5597 66.8409C86.946 66.8409 87.3172 66.7879 87.6733 66.6818C88.0294 66.5758 88.3532 66.4186 88.6449 66.2102C88.9403 65.9981 89.1903 65.7386 89.3949 65.4318C89.6032 65.1212 89.7491 64.7652 89.8324 64.3636H91.2415C91.1354 64.9583 90.9422 65.4905 90.6619 65.9602C90.3816 66.4299 90.0331 66.8295 89.6165 67.1591C89.1998 67.4848 88.732 67.733 88.2131 67.9034C87.6979 68.0739 87.1468 68.1591 86.5597 68.1591C85.5672 68.1591 84.6847 67.9167 83.9119 67.4318C83.1392 66.947 82.5313 66.2576 82.0881 65.3636C81.6449 64.4697 81.4233 63.4091 81.4233 62.1818C81.4233 60.9545 81.6449 59.8939 82.0881 59C82.5313 58.1061 83.1392 57.4167 83.9119 56.9318C84.6847 56.447 85.5672 56.2045 86.5597 56.2045C87.1468 56.2045 87.6979 56.2898 88.2131 56.4602C88.732 56.6307 89.1998 56.8807 89.6165 57.2102C90.0331 57.536 90.3816 57.9337 90.6619 58.4034C90.9422 58.8693 91.1354 59.4015 91.2415 60ZM93.9957 68H92.5185L96.7912 56.3636H98.2457L102.518 68H101.041L97.5639 58.2045H97.473L93.9957 68ZM94.5412 63.4545H100.496V64.7045H94.5412V63.4545ZM110.695 59.2727C110.626 58.697 110.35 58.25 109.865 57.9318C109.38 57.6136 108.786 57.4545 108.081 57.4545C107.566 57.4545 107.115 57.5379 106.729 57.7045C106.346 57.8712 106.047 58.1004 105.831 58.392C105.619 58.6837 105.513 59.0152 105.513 59.3864C105.513 59.697 105.587 59.964 105.734 60.1875C105.886 60.4072 106.079 60.5909 106.314 60.7386C106.549 60.8826 106.795 61.0019 107.053 61.0966C107.31 61.1875 107.547 61.2614 107.763 61.3182L108.945 61.6364C109.248 61.7159 109.585 61.8258 109.956 61.9659C110.331 62.1061 110.689 62.2973 111.03 62.5398C111.375 62.7784 111.659 63.0852 111.882 63.4602C112.106 63.8352 112.217 64.2955 112.217 64.8409C112.217 65.4697 112.053 66.0379 111.723 66.5455C111.397 67.053 110.92 67.4564 110.291 67.7557C109.666 68.0549 108.907 68.2045 108.013 68.2045C107.179 68.2045 106.458 68.0701 105.848 67.8011C105.242 67.5322 104.765 67.1572 104.416 66.6761C104.071 66.1951 103.876 65.6364 103.831 65H105.286C105.323 65.4394 105.471 65.803 105.729 66.0909C105.99 66.375 106.32 66.5871 106.717 66.7273C107.119 66.8636 107.551 66.9318 108.013 66.9318C108.551 66.9318 109.034 66.8447 109.462 66.6705C109.89 66.4924 110.229 66.2462 110.479 65.9318C110.729 65.6136 110.854 65.2424 110.854 64.8182C110.854 64.4318 110.746 64.1174 110.53 63.875C110.314 63.6326 110.03 63.4356 109.678 63.2841C109.325 63.1326 108.945 63 108.536 62.8864L107.104 62.4773C106.195 62.2159 105.475 61.8428 104.945 61.358C104.414 60.8731 104.149 60.2386 104.149 59.4545C104.149 58.803 104.325 58.2348 104.678 57.75C105.034 57.2614 105.511 56.8826 106.109 56.6136C106.712 56.3409 107.384 56.2045 108.126 56.2045C108.876 56.2045 109.543 56.339 110.126 56.608C110.71 56.8731 111.172 57.2367 111.513 57.6989C111.857 58.161 112.039 58.6856 112.058 59.2727H110.695ZM114.534 68V56.3636H121.557V57.6136H115.943V61.5455H121.193V62.7955H115.943V66.75H121.648V68H114.534Z" fill="#1A1A1A"/>
<path d="M26.5682 92.3636V104H25.2273V92.3636H26.5682ZM32.5696 104.182C31.7817 104.182 31.0904 103.994 30.4957 103.619C29.9048 103.244 29.4427 102.72 29.1094 102.045C28.7798 101.371 28.6151 100.583 28.6151 99.6818C28.6151 98.7727 28.7798 97.9792 29.1094 97.3011C29.4427 96.6231 29.9048 96.0966 30.4957 95.7216C31.0904 95.3466 31.7817 95.1591 32.5696 95.1591C33.3575 95.1591 34.0469 95.3466 34.6378 95.7216C35.2325 96.0966 35.6946 96.6231 36.0241 97.3011C36.3575 97.9792 36.5241 98.7727 36.5241 99.6818C36.5241 100.583 36.3575 101.371 36.0241 102.045C35.6946 102.72 35.2325 103.244 34.6378 103.619C34.0469 103.994 33.3575 104.182 32.5696 104.182ZM32.5696 102.977C33.1681 102.977 33.6605 102.824 34.0469 102.517C34.4332 102.21 34.7192 101.807 34.9048 101.307C35.0904 100.807 35.1832 100.265 35.1832 99.6818C35.1832 99.0985 35.0904 98.5549 34.9048 98.0511C34.7192 97.5473 34.4332 97.1402 34.0469 96.8295C33.6605 96.5189 33.1681 96.3636 32.5696 96.3636C31.9711 96.3636 31.4787 96.5189 31.0923 96.8295C30.706 97.1402 30.42 97.5473 30.2344 98.0511C30.0488 98.5549 29.956 99.0985 29.956 99.6818C29.956 100.265 30.0488 100.807 30.2344 101.307C30.42 101.807 30.706 102.21 31.0923 102.517C31.4787 102.824 31.9711 102.977 32.5696 102.977ZM40.2514 104L37.5923 95.2727H39.0014L40.8878 101.955H40.9787L42.8423 95.2727H44.2741L46.1151 101.932H46.206L48.0923 95.2727H49.5014L46.8423 104H45.5241L43.6151 97.2955H43.4787L41.5696 104H40.2514ZM54.6364 104.182C53.7955 104.182 53.0701 103.996 52.4602 103.625C51.8542 103.25 51.3864 102.727 51.0568 102.057C50.7311 101.383 50.5682 100.598 50.5682 99.7045C50.5682 98.8106 50.7311 98.0227 51.0568 97.3409C51.3864 96.6553 51.8447 96.1212 52.4318 95.7386C53.0227 95.3523 53.7121 95.1591 54.5 95.1591C54.9545 95.1591 55.4034 95.2348 55.8466 95.3864C56.2898 95.5379 56.6932 95.7841 57.0568 96.125C57.4205 96.4621 57.7102 96.9091 57.9261 97.4659C58.142 98.0227 58.25 98.7083 58.25 99.5227V100.091H51.5227V98.9318H56.8864C56.8864 98.4394 56.7879 98 56.5909 97.6136C56.3977 97.2273 56.1212 96.9223 55.7614 96.6989C55.4053 96.4754 54.9848 96.3636 54.5 96.3636C53.9659 96.3636 53.5038 96.4962 53.1136 96.7614C52.7273 97.0227 52.4299 97.3636 52.2216 97.7841C52.0133 98.2045 51.9091 98.6553 51.9091 99.1364V99.9091C51.9091 100.568 52.0227 101.127 52.25 101.585C52.4811 102.04 52.8011 102.386 53.2102 102.625C53.6193 102.86 54.0947 102.977 54.6364 102.977C54.9886 102.977 55.3068 102.928 55.5909 102.83C55.8788 102.727 56.1269 102.576 56.3352 102.375C56.5436 102.17 56.7045 101.917 56.8182 101.614L58.1136 101.977C57.9773 102.417 57.7481 102.803 57.4261 103.136C57.1042 103.466 56.7064 103.723 56.233 103.909C55.7595 104.091 55.2273 104.182 54.6364 104.182ZM60.2898 104V95.2727H61.5852V96.5909H61.6761C61.8352 96.1591 62.1231 95.8087 62.5398 95.5398C62.9564 95.2708 63.4261 95.1364 63.9489 95.1364C64.0473 95.1364 64.1705 95.1383 64.3182 95.142C64.4659 95.1458 64.5777 95.1515 64.6534 95.1591V96.5227C64.608 96.5114 64.5038 96.4943 64.3409 96.4716C64.1818 96.4451 64.0133 96.4318 63.8352 96.4318C63.411 96.4318 63.0322 96.5208 62.6989 96.6989C62.3693 96.8731 62.108 97.1155 61.9148 97.4261C61.7254 97.733 61.6307 98.0833 61.6307 98.4773V104H60.2898ZM74.2884 104.182C73.4702 104.182 72.7656 103.989 72.1747 103.602C71.5838 103.216 71.1293 102.684 70.8111 102.006C70.4929 101.328 70.3338 100.553 70.3338 99.6818C70.3338 98.7955 70.4967 98.0133 70.8224 97.3352C71.152 96.6534 71.6103 96.1212 72.1974 95.7386C72.7884 95.3523 73.4777 95.1591 74.2656 95.1591C74.8793 95.1591 75.4323 95.2727 75.9247 95.5C76.4171 95.7273 76.8205 96.0455 77.1349 96.4545C77.4493 96.8636 77.6444 97.3409 77.7202 97.8864H76.3793C76.277 97.4886 76.0497 97.1364 75.6974 96.8295C75.349 96.5189 74.8793 96.3636 74.2884 96.3636C73.7656 96.3636 73.3073 96.5 72.9134 96.7727C72.5232 97.0417 72.2183 97.4223 71.9986 97.9148C71.7827 98.4034 71.6747 98.9773 71.6747 99.6364C71.6747 100.311 71.7808 100.898 71.9929 101.398C72.2088 101.898 72.5118 102.286 72.902 102.562C73.2959 102.839 73.758 102.977 74.2884 102.977C74.6368 102.977 74.9531 102.917 75.2372 102.795C75.5213 102.674 75.7618 102.5 75.9588 102.273C76.1558 102.045 76.2959 101.773 76.3793 101.455H77.7202C77.6444 101.97 77.4569 102.434 77.1577 102.847C76.8622 103.256 76.4702 103.581 75.9815 103.824C75.4967 104.062 74.9323 104.182 74.2884 104.182ZM82.2486 104.205C81.6955 104.205 81.1937 104.1 80.7429 103.892C80.2921 103.68 79.9342 103.375 79.669 102.977C79.4039 102.576 79.2713 102.091 79.2713 101.523C79.2713 101.023 79.3698 100.617 79.5668 100.307C79.7637 99.9924 80.027 99.7462 80.3565 99.5682C80.6861 99.3902 81.0497 99.2576 81.4474 99.1705C81.849 99.0795 82.2524 99.0076 82.6577 98.9545C83.188 98.8864 83.6179 98.8352 83.9474 98.8011C84.2808 98.7633 84.5232 98.7008 84.6747 98.6136C84.83 98.5265 84.9077 98.375 84.9077 98.1591V98.1136C84.9077 97.553 84.7543 97.1174 84.4474 96.8068C84.1444 96.4962 83.6842 96.3409 83.0668 96.3409C82.4266 96.3409 81.9247 96.4811 81.5611 96.7614C81.1974 97.0417 80.9418 97.3409 80.794 97.6591L79.5213 97.2045C79.7486 96.6742 80.0516 96.2614 80.4304 95.9659C80.813 95.6667 81.2296 95.4583 81.6804 95.3409C82.1349 95.2197 82.5819 95.1591 83.0213 95.1591C83.3016 95.1591 83.6236 95.1932 83.9872 95.2614C84.3546 95.3258 84.7088 95.4602 85.0497 95.6648C85.3944 95.8693 85.6804 96.178 85.9077 96.5909C86.1349 97.0038 86.2486 97.5568 86.2486 98.25V104H84.9077V102.818H84.8395C84.7486 103.008 84.5971 103.21 84.3849 103.426C84.1728 103.642 83.8906 103.826 83.5384 103.977C83.1861 104.129 82.7562 104.205 82.2486 104.205ZM82.4531 103C82.9834 103 83.4304 102.896 83.794 102.688C84.1615 102.479 84.438 102.21 84.6236 101.881C84.813 101.551 84.9077 101.205 84.9077 100.841V99.6136C84.8509 99.6818 84.7259 99.7443 84.5327 99.8011C84.3433 99.8542 84.1236 99.9015 83.8736 99.9432C83.6274 99.9811 83.3868 100.015 83.152 100.045C82.9209 100.072 82.7334 100.095 82.5895 100.114C82.241 100.159 81.9152 100.233 81.6122 100.335C81.313 100.434 81.0705 100.583 80.8849 100.784C80.7031 100.981 80.6122 101.25 80.6122 101.591C80.6122 102.057 80.7846 102.409 81.1293 102.648C81.4777 102.883 81.919 103 82.4531 103ZM94.8778 97.2273L93.6733 97.5682C93.5975 97.3674 93.4858 97.1723 93.3381 96.983C93.1941 96.7898 92.9972 96.6307 92.7472 96.5057C92.4972 96.3807 92.1771 96.3182 91.7869 96.3182C91.2528 96.3182 90.8078 96.4413 90.4517 96.6875C90.0994 96.9299 89.9233 97.2386 89.9233 97.6136C89.9233 97.947 90.0445 98.2102 90.2869 98.4034C90.5294 98.5966 90.9081 98.7576 91.4233 98.8864L92.7188 99.2045C93.4991 99.3939 94.0805 99.6837 94.4631 100.074C94.8456 100.46 95.0369 100.958 95.0369 101.568C95.0369 102.068 94.893 102.515 94.6051 102.909C94.321 103.303 93.9233 103.614 93.4119 103.841C92.9006 104.068 92.3059 104.182 91.6278 104.182C90.7377 104.182 90.0009 103.989 89.4176 103.602C88.8343 103.216 88.465 102.652 88.3097 101.909L89.5824 101.591C89.7036 102.061 89.9328 102.413 90.2699 102.648C90.6108 102.883 91.0559 103 91.6051 103C92.2301 103 92.7263 102.867 93.0938 102.602C93.465 102.333 93.6506 102.011 93.6506 101.636C93.6506 101.333 93.5445 101.08 93.3324 100.875C93.1203 100.667 92.7945 100.511 92.3551 100.409L90.9006 100.068C90.1013 99.8788 89.5142 99.5852 89.1392 99.1875C88.768 98.786 88.5824 98.2841 88.5824 97.6818C88.5824 97.1894 88.7206 96.7538 88.9972 96.375C89.2775 95.9962 89.6581 95.6989 90.1392 95.483C90.6241 95.267 91.1733 95.1591 91.7869 95.1591C92.6506 95.1591 93.3286 95.3485 93.821 95.7273C94.3172 96.1061 94.6695 96.6061 94.8778 97.2273ZM100.714 104.182C99.8736 104.182 99.1482 103.996 98.5384 103.625C97.9323 103.25 97.4645 102.727 97.1349 102.057C96.8092 101.383 96.6463 100.598 96.6463 99.7045C96.6463 98.8106 96.8092 98.0227 97.1349 97.3409C97.4645 96.6553 97.9228 96.1212 98.5099 95.7386C99.1009 95.3523 99.7902 95.1591 100.578 95.1591C101.033 95.1591 101.482 95.2348 101.925 95.3864C102.368 95.5379 102.771 95.7841 103.135 96.125C103.499 96.4621 103.788 96.9091 104.004 97.4659C104.22 98.0227 104.328 98.7083 104.328 99.5227V100.091H97.6009V98.9318H102.964C102.964 98.4394 102.866 98 102.669 97.6136C102.476 97.2273 102.199 96.9223 101.839 96.6989C101.483 96.4754 101.063 96.3636 100.578 96.3636C100.044 96.3636 99.5819 96.4962 99.1918 96.7614C98.8054 97.0227 98.508 97.3636 98.2997 97.7841C98.0914 98.2045 97.9872 98.6553 97.9872 99.1364V99.9091C97.9872 100.568 98.1009 101.127 98.3281 101.585C98.5592 102.04 98.8793 102.386 99.2884 102.625C99.6974 102.86 100.173 102.977 100.714 102.977C101.067 102.977 101.385 102.928 101.669 102.83C101.957 102.727 102.205 102.576 102.413 102.375C102.622 102.17 102.783 101.917 102.896 101.614L104.192 101.977C104.055 102.417 103.826 102.803 103.504 103.136C103.182 103.466 102.785 103.723 102.311 103.909C101.838 104.091 101.305 104.182 100.714 104.182Z" fill="#1A1A1A"/>
<path d="M24.7727 129.614V128.364H33.5V129.614H29.8409V140H28.4318V129.614H24.7727ZM35.4929 140V131.273H36.8338V140H35.4929ZM36.1747 129.818C35.9134 129.818 35.688 129.729 35.4986 129.551C35.313 129.373 35.2202 129.159 35.2202 128.909C35.2202 128.659 35.313 128.445 35.4986 128.267C35.688 128.089 35.9134 128 36.1747 128C36.4361 128 36.6596 128.089 36.8452 128.267C37.0346 128.445 37.1293 128.659 37.1293 128.909C37.1293 129.159 37.0346 129.373 36.8452 129.551C36.6596 129.729 36.4361 129.818 36.1747 129.818ZM43.0852 131.273V132.409H38.5625V131.273H43.0852ZM39.8807 129.182H41.2216V137.5C41.2216 137.879 41.2765 138.163 41.3864 138.352C41.5 138.538 41.6439 138.663 41.8182 138.727C41.9962 138.788 42.1837 138.818 42.3807 138.818C42.5284 138.818 42.6496 138.811 42.7443 138.795C42.839 138.777 42.9148 138.761 42.9716 138.75L43.2443 139.955C43.1534 139.989 43.0265 140.023 42.8636 140.057C42.7008 140.095 42.4943 140.114 42.2443 140.114C41.8655 140.114 41.4943 140.032 41.1307 139.869C40.7708 139.706 40.4716 139.458 40.233 139.125C39.9981 138.792 39.8807 138.371 39.8807 137.864V129.182ZM46.6307 128.364V140H45.2898V128.364H46.6307ZM52.7457 140.182C51.9048 140.182 51.1795 139.996 50.5696 139.625C49.9635 139.25 49.4957 138.727 49.1662 138.057C48.8404 137.383 48.6776 136.598 48.6776 135.705C48.6776 134.811 48.8404 134.023 49.1662 133.341C49.4957 132.655 49.9541 132.121 50.5412 131.739C51.1321 131.352 51.8215 131.159 52.6094 131.159C53.0639 131.159 53.5128 131.235 53.956 131.386C54.3991 131.538 54.8026 131.784 55.1662 132.125C55.5298 132.462 55.8196 132.909 56.0355 133.466C56.2514 134.023 56.3594 134.708 56.3594 135.523V136.091H49.6321V134.932H54.9957C54.9957 134.439 54.8973 134 54.7003 133.614C54.5071 133.227 54.2306 132.922 53.8707 132.699C53.5147 132.475 53.0942 132.364 52.6094 132.364C52.0753 132.364 51.6132 132.496 51.223 132.761C50.8366 133.023 50.5393 133.364 50.331 133.784C50.1226 134.205 50.0185 134.655 50.0185 135.136V135.909C50.0185 136.568 50.1321 137.127 50.3594 137.585C50.5904 138.04 50.9105 138.386 51.3196 138.625C51.7287 138.86 52.2041 138.977 52.7457 138.977C53.098 138.977 53.4162 138.928 53.7003 138.83C53.9882 138.727 54.2363 138.576 54.4446 138.375C54.6529 138.17 54.8139 137.917 54.9276 137.614L56.223 137.977C56.0866 138.417 55.8575 138.803 55.5355 139.136C55.2135 139.466 54.8158 139.723 54.3423 139.909C53.8688 140.091 53.3366 140.182 52.7457 140.182ZM72.4446 132H71.0355C70.9522 131.595 70.8063 131.239 70.598 130.932C70.3935 130.625 70.1435 130.367 69.848 130.159C69.5563 129.947 69.2325 129.788 68.8764 129.682C68.5204 129.576 68.1491 129.523 67.7628 129.523C67.0582 129.523 66.42 129.701 65.848 130.057C65.2798 130.413 64.8272 130.938 64.4901 131.631C64.1567 132.324 63.9901 133.174 63.9901 134.182C63.9901 135.189 64.1567 136.04 64.4901 136.733C64.8272 137.426 65.2798 137.951 65.848 138.307C66.42 138.663 67.0582 138.841 67.7628 138.841C68.1491 138.841 68.5204 138.788 68.8764 138.682C69.2325 138.576 69.5563 138.419 69.848 138.21C70.1435 137.998 70.3935 137.739 70.598 137.432C70.8063 137.121 70.9522 136.765 71.0355 136.364H72.4446C72.3385 136.958 72.1454 137.491 71.8651 137.96C71.5848 138.43 71.2363 138.83 70.8196 139.159C70.4029 139.485 69.9351 139.733 69.4162 139.903C68.901 140.074 68.3499 140.159 67.7628 140.159C66.7704 140.159 65.8878 139.917 65.1151 139.432C64.3423 138.947 63.7344 138.258 63.2912 137.364C62.848 136.47 62.6264 135.409 62.6264 134.182C62.6264 132.955 62.848 131.894 63.2912 131C63.7344 130.106 64.3423 129.417 65.1151 128.932C65.8878 128.447 66.7704 128.205 67.7628 128.205C68.3499 128.205 68.901 128.29 69.4162 128.46C69.9351 128.631 70.4029 128.881 70.8196 129.21C71.2363 129.536 71.5848 129.934 71.8651 130.403C72.1454 130.869 72.3385 131.402 72.4446 132ZM77.108 140.205C76.5549 140.205 76.053 140.1 75.6023 139.892C75.1515 139.68 74.7936 139.375 74.5284 138.977C74.2633 138.576 74.1307 138.091 74.1307 137.523C74.1307 137.023 74.2292 136.617 74.4261 136.307C74.6231 135.992 74.8864 135.746 75.2159 135.568C75.5455 135.39 75.9091 135.258 76.3068 135.17C76.7083 135.08 77.1117 135.008 77.517 134.955C78.0473 134.886 78.4773 134.835 78.8068 134.801C79.1402 134.763 79.3826 134.701 79.5341 134.614C79.6894 134.527 79.767 134.375 79.767 134.159V134.114C79.767 133.553 79.6136 133.117 79.3068 132.807C79.0038 132.496 78.5436 132.341 77.9261 132.341C77.286 132.341 76.7841 132.481 76.4205 132.761C76.0568 133.042 75.8011 133.341 75.6534 133.659L74.3807 133.205C74.608 132.674 74.911 132.261 75.2898 131.966C75.6723 131.667 76.089 131.458 76.5398 131.341C76.9943 131.22 77.4413 131.159 77.8807 131.159C78.161 131.159 78.483 131.193 78.8466 131.261C79.214 131.326 79.5682 131.46 79.9091 131.665C80.2538 131.869 80.5398 132.178 80.767 132.591C80.9943 133.004 81.108 133.557 81.108 134.25V140H79.767V138.818H79.6989C79.608 139.008 79.4564 139.21 79.2443 139.426C79.0322 139.642 78.75 139.826 78.3977 139.977C78.0455 140.129 77.6155 140.205 77.108 140.205ZM77.3125 139C77.8428 139 78.2898 138.896 78.6534 138.688C79.0208 138.479 79.2973 138.21 79.483 137.881C79.6723 137.551 79.767 137.205 79.767 136.841V135.614C79.7102 135.682 79.5852 135.744 79.392 135.801C79.2027 135.854 78.983 135.902 78.733 135.943C78.4867 135.981 78.2462 136.015 78.0114 136.045C77.7803 136.072 77.5928 136.095 77.4489 136.114C77.1004 136.159 76.7746 136.233 76.4716 136.335C76.1723 136.434 75.9299 136.583 75.7443 136.784C75.5625 136.981 75.4716 137.25 75.4716 137.591C75.4716 138.057 75.6439 138.409 75.9886 138.648C76.3371 138.883 76.7784 139 77.3125 139ZM89.7372 133.227L88.5327 133.568C88.4569 133.367 88.3452 133.172 88.1974 132.983C88.0535 132.79 87.8565 132.631 87.6065 132.506C87.3565 132.381 87.0365 132.318 86.6463 132.318C86.1122 132.318 85.6671 132.441 85.3111 132.688C84.9588 132.93 84.7827 133.239 84.7827 133.614C84.7827 133.947 84.9039 134.21 85.1463 134.403C85.3887 134.597 85.7675 134.758 86.2827 134.886L87.5781 135.205C88.3584 135.394 88.9399 135.684 89.3224 136.074C89.705 136.46 89.8963 136.958 89.8963 137.568C89.8963 138.068 89.7524 138.515 89.4645 138.909C89.1804 139.303 88.7827 139.614 88.2713 139.841C87.7599 140.068 87.1652 140.182 86.4872 140.182C85.5971 140.182 84.8603 139.989 84.277 139.602C83.6937 139.216 83.3243 138.652 83.169 137.909L84.4418 137.591C84.563 138.061 84.7921 138.413 85.1293 138.648C85.4702 138.883 85.9152 139 86.4645 139C87.0895 139 87.5857 138.867 87.9531 138.602C88.3243 138.333 88.5099 138.011 88.5099 137.636C88.5099 137.333 88.4039 137.08 88.1918 136.875C87.9796 136.667 87.6539 136.511 87.2145 136.409L85.7599 136.068C84.9607 135.879 84.3736 135.585 83.9986 135.188C83.6274 134.786 83.4418 134.284 83.4418 133.682C83.4418 133.189 83.58 132.754 83.8565 132.375C84.1368 131.996 84.5175 131.699 84.9986 131.483C85.4834 131.267 86.0327 131.159 86.6463 131.159C87.5099 131.159 88.188 131.348 88.6804 131.727C89.1766 132.106 89.5289 132.606 89.7372 133.227ZM95.5739 140.182C94.733 140.182 94.0076 139.996 93.3977 139.625C92.7917 139.25 92.3239 138.727 91.9943 138.057C91.6686 137.383 91.5057 136.598 91.5057 135.705C91.5057 134.811 91.6686 134.023 91.9943 133.341C92.3239 132.655 92.7822 132.121 93.3693 131.739C93.9602 131.352 94.6496 131.159 95.4375 131.159C95.892 131.159 96.3409 131.235 96.7841 131.386C97.2273 131.538 97.6307 131.784 97.9943 132.125C98.358 132.462 98.6477 132.909 98.8636 133.466C99.0795 134.023 99.1875 134.708 99.1875 135.523V136.091H92.4602V134.932H97.8239C97.8239 134.439 97.7254 134 97.5284 133.614C97.3352 133.227 97.0587 132.922 96.6989 132.699C96.3428 132.475 95.9223 132.364 95.4375 132.364C94.9034 132.364 94.4413 132.496 94.0511 132.761C93.6648 133.023 93.3674 133.364 93.1591 133.784C92.9508 134.205 92.8466 134.655 92.8466 135.136V135.909C92.8466 136.568 92.9602 137.127 93.1875 137.585C93.4186 138.04 93.7386 138.386 94.1477 138.625C94.5568 138.86 95.0322 138.977 95.5739 138.977C95.9261 138.977 96.2443 138.928 96.5284 138.83C96.8163 138.727 97.0644 138.576 97.2727 138.375C97.4811 138.17 97.642 137.917 97.7557 137.614L99.0511 137.977C98.9148 138.417 98.6856 138.803 98.3636 139.136C98.0417 139.466 97.6439 139.723 97.1705 139.909C96.697 140.091 96.1648 140.182 95.5739 140.182ZM108.023 140L104.841 128.364H106.273L108.705 137.841H108.818L111.295 128.364H112.886L115.364 137.841H115.477L117.909 128.364H119.341L116.159 140H114.705L112.136 130.727H112.045L109.477 140H108.023ZM123.648 140.182C122.86 140.182 122.169 139.994 121.574 139.619C120.983 139.244 120.521 138.72 120.188 138.045C119.858 137.371 119.693 136.583 119.693 135.682C119.693 134.773 119.858 133.979 120.188 133.301C120.521 132.623 120.983 132.097 121.574 131.722C122.169 131.347 122.86 131.159 123.648 131.159C124.436 131.159 125.125 131.347 125.716 131.722C126.311 132.097 126.773 132.623 127.102 133.301C127.436 133.979 127.602 134.773 127.602 135.682C127.602 136.583 127.436 137.371 127.102 138.045C126.773 138.72 126.311 139.244 125.716 139.619C125.125 139.994 124.436 140.182 123.648 140.182ZM123.648 138.977C124.246 138.977 124.739 138.824 125.125 138.517C125.511 138.21 125.797 137.807 125.983 137.307C126.169 136.807 126.261 136.265 126.261 135.682C126.261 135.098 126.169 134.555 125.983 134.051C125.797 133.547 125.511 133.14 125.125 132.83C124.739 132.519 124.246 132.364 123.648 132.364C123.049 132.364 122.557 132.519 122.17 132.83C121.784 133.14 121.498 133.547 121.312 134.051C121.127 134.555 121.034 135.098 121.034 135.682C121.034 136.265 121.127 136.807 121.312 137.307C121.498 137.807 121.784 138.21 122.17 138.517C122.557 138.824 123.049 138.977 123.648 138.977ZM129.649 140V131.273H130.945V132.591H131.036C131.195 132.159 131.482 131.809 131.899 131.54C132.316 131.271 132.786 131.136 133.308 131.136C133.407 131.136 133.53 131.138 133.678 131.142C133.825 131.146 133.937 131.152 134.013 131.159V132.523C133.967 132.511 133.863 132.494 133.7 132.472C133.541 132.445 133.373 132.432 133.195 132.432C132.77 132.432 132.392 132.521 132.058 132.699C131.729 132.873 131.467 133.116 131.274 133.426C131.085 133.733 130.99 134.083 130.99 134.477V140H129.649ZM138.632 140.182C137.905 140.182 137.263 139.998 136.706 139.631C136.149 139.259 135.714 138.737 135.399 138.062C135.085 137.384 134.928 136.583 134.928 135.659C134.928 134.742 135.085 133.947 135.399 133.273C135.714 132.598 136.151 132.078 136.712 131.71C137.272 131.343 137.92 131.159 138.655 131.159C139.223 131.159 139.672 131.254 140.001 131.443C140.335 131.629 140.589 131.841 140.763 132.08C140.941 132.314 141.079 132.508 141.178 132.659H141.291V128.364H142.632V140H141.337V138.659H141.178C141.079 138.818 140.939 139.019 140.757 139.261C140.575 139.5 140.316 139.714 139.979 139.903C139.642 140.089 139.193 140.182 138.632 140.182ZM138.814 138.977C139.352 138.977 139.806 138.837 140.178 138.557C140.549 138.273 140.831 137.881 141.024 137.381C141.217 136.877 141.314 136.295 141.314 135.636C141.314 134.985 141.219 134.415 141.03 133.926C140.84 133.434 140.56 133.051 140.189 132.778C139.818 132.502 139.359 132.364 138.814 132.364C138.246 132.364 137.772 132.509 137.393 132.801C137.018 133.089 136.736 133.481 136.547 133.977C136.361 134.47 136.268 135.023 136.268 135.636C136.268 136.258 136.363 136.822 136.553 137.33C136.746 137.833 137.03 138.235 137.405 138.534C137.784 138.83 138.253 138.977 138.814 138.977ZM151.456 133.227L150.251 133.568C150.176 133.367 150.064 133.172 149.916 132.983C149.772 132.79 149.575 132.631 149.325 132.506C149.075 132.381 148.755 132.318 148.365 132.318C147.831 132.318 147.386 132.441 147.03 132.688C146.678 132.93 146.501 133.239 146.501 133.614C146.501 133.947 146.623 134.21 146.865 134.403C147.107 134.597 147.486 134.758 148.001 134.886L149.297 135.205C150.077 135.394 150.659 135.684 151.041 136.074C151.424 136.46 151.615 136.958 151.615 137.568C151.615 138.068 151.471 138.515 151.183 138.909C150.899 139.303 150.501 139.614 149.99 139.841C149.479 140.068 148.884 140.182 148.206 140.182C147.316 140.182 146.579 139.989 145.996 139.602C145.412 139.216 145.043 138.652 144.888 137.909L146.161 137.591C146.282 138.061 146.511 138.413 146.848 138.648C147.189 138.883 147.634 139 148.183 139C148.808 139 149.304 138.867 149.672 138.602C150.043 138.333 150.229 138.011 150.229 137.636C150.229 137.333 150.123 137.08 149.911 136.875C149.698 136.667 149.373 136.511 148.933 136.409L147.479 136.068C146.679 135.879 146.092 135.585 145.717 135.188C145.346 134.786 145.161 134.284 145.161 133.682C145.161 133.189 145.299 132.754 145.575 132.375C145.856 131.996 146.236 131.699 146.717 131.483C147.202 131.267 147.751 131.159 148.365 131.159C149.229 131.159 149.907 131.348 150.399 131.727C150.895 132.106 151.248 132.606 151.456 133.227Z" fill="#1A1A1A"/>
<path d="M31.7727 167.273C31.7045 166.697 31.428 166.25 30.9432 165.932C30.4583 165.614 29.8636 165.455 29.1591 165.455C28.6439 165.455 28.1932 165.538 27.8068 165.705C27.4242 165.871 27.125 166.1 26.9091 166.392C26.697 166.684 26.5909 167.015 26.5909 167.386C26.5909 167.697 26.6648 167.964 26.8125 168.188C26.964 168.407 27.1572 168.591 27.392 168.739C27.6269 168.883 27.8731 169.002 28.1307 169.097C28.3883 169.187 28.625 169.261 28.8409 169.318L30.0227 169.636C30.3258 169.716 30.6629 169.826 31.0341 169.966C31.4091 170.106 31.767 170.297 32.108 170.54C32.4527 170.778 32.7367 171.085 32.9602 171.46C33.1837 171.835 33.2955 172.295 33.2955 172.841C33.2955 173.47 33.1307 174.038 32.8011 174.545C32.4754 175.053 31.9981 175.456 31.3693 175.756C30.7443 176.055 29.9848 176.205 29.0909 176.205C28.2576 176.205 27.536 176.07 26.9261 175.801C26.3201 175.532 25.8428 175.157 25.4943 174.676C25.1496 174.195 24.9545 173.636 24.9091 173H26.3636C26.4015 173.439 26.5492 173.803 26.8068 174.091C27.0682 174.375 27.3977 174.587 27.7955 174.727C28.197 174.864 28.6288 174.932 29.0909 174.932C29.6288 174.932 30.1117 174.845 30.5398 174.67C30.9678 174.492 31.3068 174.246 31.5568 173.932C31.8068 173.614 31.9318 173.242 31.9318 172.818C31.9318 172.432 31.8239 172.117 31.608 171.875C31.392 171.633 31.108 171.436 30.7557 171.284C30.4034 171.133 30.0227 171 29.6136 170.886L28.1818 170.477C27.2727 170.216 26.553 169.843 26.0227 169.358C25.4924 168.873 25.2273 168.239 25.2273 167.455C25.2273 166.803 25.4034 166.235 25.7557 165.75C26.1117 165.261 26.589 164.883 27.1875 164.614C27.7898 164.341 28.4621 164.205 29.2045 164.205C29.9545 164.205 30.6212 164.339 31.2045 164.608C31.7879 164.873 32.25 165.237 32.5909 165.699C32.9356 166.161 33.1174 166.686 33.1364 167.273H31.7727ZM35.4304 176V167.273H36.7259V168.636H36.8395C37.0213 168.17 37.3149 167.809 37.7202 167.551C38.1255 167.29 38.6122 167.159 39.1804 167.159C39.7562 167.159 40.2353 167.29 40.6179 167.551C41.0043 167.809 41.3054 168.17 41.5213 168.636H41.6122C41.8357 168.186 42.1709 167.828 42.6179 167.562C43.0649 167.294 43.6009 167.159 44.2259 167.159C45.0062 167.159 45.6444 167.403 46.1406 167.892C46.6368 168.377 46.8849 169.133 46.8849 170.159V176H45.544V170.159C45.544 169.515 45.3679 169.055 45.0156 168.778C44.6634 168.502 44.2486 168.364 43.7713 168.364C43.1577 168.364 42.6823 168.549 42.3452 168.92C42.008 169.288 41.8395 169.754 41.8395 170.318V176H40.4759V170.023C40.4759 169.527 40.3149 169.127 39.9929 168.824C39.6709 168.517 39.2562 168.364 38.7486 168.364C38.4001 168.364 38.0743 168.456 37.7713 168.642C37.4721 168.828 37.2296 169.085 37.044 169.415C36.8622 169.741 36.7713 170.117 36.7713 170.545V176H35.4304ZM51.9048 176.205C51.3518 176.205 50.8499 176.1 50.3991 175.892C49.9484 175.68 49.5904 175.375 49.3253 174.977C49.0601 174.576 48.9276 174.091 48.9276 173.523C48.9276 173.023 49.026 172.617 49.223 172.307C49.42 171.992 49.6832 171.746 50.0128 171.568C50.3423 171.39 50.706 171.258 51.1037 171.17C51.5052 171.08 51.9086 171.008 52.3139 170.955C52.8442 170.886 53.2741 170.835 53.6037 170.801C53.937 170.763 54.1795 170.701 54.331 170.614C54.4863 170.527 54.5639 170.375 54.5639 170.159V170.114C54.5639 169.553 54.4105 169.117 54.1037 168.807C53.8007 168.496 53.3404 168.341 52.723 168.341C52.0829 168.341 51.581 168.481 51.2173 168.761C50.8537 169.042 50.598 169.341 50.4503 169.659L49.1776 169.205C49.4048 168.674 49.7079 168.261 50.0866 167.966C50.4692 167.667 50.8859 167.458 51.3366 167.341C51.7912 167.22 52.2382 167.159 52.6776 167.159C52.9579 167.159 53.2798 167.193 53.6435 167.261C54.0109 167.326 54.3651 167.46 54.706 167.665C55.0507 167.869 55.3366 168.178 55.5639 168.591C55.7912 169.004 55.9048 169.557 55.9048 170.25V176H54.5639V174.818H54.4957C54.4048 175.008 54.2533 175.21 54.0412 175.426C53.8291 175.642 53.5469 175.826 53.1946 175.977C52.8423 176.129 52.4124 176.205 51.9048 176.205ZM52.1094 175C52.6397 175 53.0866 174.896 53.4503 174.688C53.8177 174.479 54.0942 174.21 54.2798 173.881C54.4692 173.551 54.5639 173.205 54.5639 172.841V171.614C54.5071 171.682 54.3821 171.744 54.1889 171.801C53.9995 171.854 53.7798 171.902 53.5298 171.943C53.2836 171.981 53.0431 172.015 52.8082 172.045C52.5772 172.072 52.3897 172.095 52.2457 172.114C51.8973 172.159 51.5715 172.233 51.2685 172.335C50.9692 172.434 50.7268 172.583 50.5412 172.784C50.3594 172.981 50.2685 173.25 50.2685 173.591C50.2685 174.057 50.4408 174.409 50.7855 174.648C51.134 174.883 51.5753 175 52.1094 175ZM59.6932 164.364V176H58.3523V164.364H59.6932ZM63.4901 164.364V176H62.1491V164.364H63.4901ZM79.9915 168H78.5824C78.4991 167.595 78.3532 167.239 78.1449 166.932C77.9403 166.625 77.6903 166.367 77.3949 166.159C77.1032 165.947 76.7794 165.788 76.4233 165.682C76.0672 165.576 75.696 165.523 75.3097 165.523C74.6051 165.523 73.9669 165.701 73.3949 166.057C72.8267 166.413 72.3741 166.938 72.0369 167.631C71.7036 168.324 71.5369 169.174 71.5369 170.182C71.5369 171.189 71.7036 172.04 72.0369 172.733C72.3741 173.426 72.8267 173.951 73.3949 174.307C73.9669 174.663 74.6051 174.841 75.3097 174.841C75.696 174.841 76.0672 174.788 76.4233 174.682C76.7794 174.576 77.1032 174.419 77.3949 174.21C77.6903 173.998 77.9403 173.739 78.1449 173.432C78.3532 173.121 78.4991 172.765 78.5824 172.364H79.9915C79.8854 172.958 79.6922 173.491 79.4119 173.96C79.1316 174.43 78.7831 174.83 78.3665 175.159C77.9498 175.485 77.482 175.733 76.9631 175.903C76.4479 176.074 75.8968 176.159 75.3097 176.159C74.3172 176.159 73.4347 175.917 72.6619 175.432C71.8892 174.947 71.2813 174.258 70.8381 173.364C70.3949 172.47 70.1733 171.409 70.1733 170.182C70.1733 168.955 70.3949 167.894 70.8381 167C71.2813 166.106 71.8892 165.417 72.6619 164.932C73.4347 164.447 74.3172 164.205 75.3097 164.205C75.8968 164.205 76.4479 164.29 76.9631 164.46C77.482 164.631 77.9498 164.881 78.3665 165.21C78.7831 165.536 79.1316 165.934 79.4119 166.403C79.6922 166.869 79.8854 167.402 79.9915 168ZM84.6548 176.205C84.1018 176.205 83.5999 176.1 83.1491 175.892C82.6984 175.68 82.3404 175.375 82.0753 174.977C81.8101 174.576 81.6776 174.091 81.6776 173.523C81.6776 173.023 81.776 172.617 81.973 172.307C82.17 171.992 82.4332 171.746 82.7628 171.568C83.0923 171.39 83.456 171.258 83.8537 171.17C84.2552 171.08 84.6586 171.008 85.0639 170.955C85.5942 170.886 86.0241 170.835 86.3537 170.801C86.687 170.763 86.9295 170.701 87.081 170.614C87.2363 170.527 87.3139 170.375 87.3139 170.159V170.114C87.3139 169.553 87.1605 169.117 86.8537 168.807C86.5507 168.496 86.0904 168.341 85.473 168.341C84.8329 168.341 84.331 168.481 83.9673 168.761C83.6037 169.042 83.348 169.341 83.2003 169.659L81.9276 169.205C82.1548 168.674 82.4579 168.261 82.8366 167.966C83.2192 167.667 83.6359 167.458 84.0866 167.341C84.5412 167.22 84.9882 167.159 85.4276 167.159C85.7079 167.159 86.0298 167.193 86.3935 167.261C86.7609 167.326 87.1151 167.46 87.456 167.665C87.8007 167.869 88.0866 168.178 88.3139 168.591C88.5412 169.004 88.6548 169.557 88.6548 170.25V176H87.3139V174.818H87.2457C87.1548 175.008 87.0033 175.21 86.7912 175.426C86.5791 175.642 86.2969 175.826 85.9446 175.977C85.5923 176.129 85.1624 176.205 84.6548 176.205ZM84.8594 175C85.3897 175 85.8366 174.896 86.2003 174.688C86.5677 174.479 86.8442 174.21 87.0298 173.881C87.2192 173.551 87.3139 173.205 87.3139 172.841V171.614C87.2571 171.682 87.1321 171.744 86.9389 171.801C86.7495 171.854 86.5298 171.902 86.2798 171.943C86.0336 171.981 85.7931 172.015 85.5582 172.045C85.3272 172.072 85.1397 172.095 84.9957 172.114C84.6473 172.159 84.3215 172.233 84.0185 172.335C83.7192 172.434 83.4768 172.583 83.2912 172.784C83.1094 172.981 83.0185 173.25 83.0185 173.591C83.0185 174.057 83.1908 174.409 83.5355 174.648C83.884 174.883 84.3253 175 84.8594 175ZM91.1023 179.273V167.273H92.3977V168.659H92.5568C92.6553 168.508 92.7917 168.314 92.9659 168.08C93.1439 167.841 93.3977 167.629 93.7273 167.443C94.0606 167.254 94.5114 167.159 95.0795 167.159C95.8144 167.159 96.4621 167.343 97.0227 167.71C97.5833 168.078 98.0208 168.598 98.3352 169.273C98.6496 169.947 98.8068 170.742 98.8068 171.659C98.8068 172.583 98.6496 173.384 98.3352 174.062C98.0208 174.737 97.5852 175.259 97.0284 175.631C96.4716 175.998 95.8295 176.182 95.1023 176.182C94.5417 176.182 94.0928 176.089 93.7557 175.903C93.4186 175.714 93.1591 175.5 92.9773 175.261C92.7955 175.019 92.6553 174.818 92.5568 174.659H92.4432V179.273H91.1023ZM92.4205 171.636C92.4205 172.295 92.517 172.877 92.7102 173.381C92.9034 173.881 93.1856 174.273 93.5568 174.557C93.928 174.837 94.3826 174.977 94.9205 174.977C95.4811 174.977 95.9489 174.83 96.3239 174.534C96.7027 174.235 96.9867 173.833 97.1761 173.33C97.3693 172.822 97.4659 172.258 97.4659 171.636C97.4659 171.023 97.3712 170.47 97.1818 169.977C96.9962 169.481 96.714 169.089 96.3352 168.801C95.9602 168.509 95.4886 168.364 94.9205 168.364C94.375 168.364 93.9167 168.502 93.5455 168.778C93.1742 169.051 92.8939 169.434 92.7045 169.926C92.5152 170.415 92.4205 170.985 92.4205 171.636ZM107.034 169.227L105.83 169.568C105.754 169.367 105.642 169.172 105.494 168.983C105.35 168.79 105.153 168.631 104.903 168.506C104.653 168.381 104.333 168.318 103.943 168.318C103.409 168.318 102.964 168.441 102.608 168.688C102.256 168.93 102.08 169.239 102.08 169.614C102.08 169.947 102.201 170.21 102.443 170.403C102.686 170.597 103.064 170.758 103.58 170.886L104.875 171.205C105.655 171.394 106.237 171.684 106.619 172.074C107.002 172.46 107.193 172.958 107.193 173.568C107.193 174.068 107.049 174.515 106.761 174.909C106.477 175.303 106.08 175.614 105.568 175.841C105.057 176.068 104.462 176.182 103.784 176.182C102.894 176.182 102.157 175.989 101.574 175.602C100.991 175.216 100.621 174.652 100.466 173.909L101.739 173.591C101.86 174.061 102.089 174.413 102.426 174.648C102.767 174.883 103.212 175 103.761 175C104.386 175 104.883 174.867 105.25 174.602C105.621 174.333 105.807 174.011 105.807 173.636C105.807 173.333 105.701 173.08 105.489 172.875C105.277 172.667 104.951 172.511 104.511 172.409L103.057 172.068C102.258 171.879 101.67 171.585 101.295 171.188C100.924 170.786 100.739 170.284 100.739 169.682C100.739 169.189 100.877 168.754 101.153 168.375C101.434 167.996 101.814 167.699 102.295 167.483C102.78 167.267 103.33 167.159 103.943 167.159C104.807 167.159 105.485 167.348 105.977 167.727C106.473 168.106 106.826 168.606 107.034 169.227Z" fill="#1A1A1A"/>
<path d="M31.7727 203.273C31.7045 202.697 31.428 202.25 30.9432 201.932C30.4583 201.614 29.8636 201.455 29.1591 201.455C28.6439 201.455 28.1932 201.538 27.8068 201.705C27.4242 201.871 27.125 202.1 26.9091 202.392C26.697 202.684 26.5909 203.015 26.5909 203.386C26.5909 203.697 26.6648 203.964 26.8125 204.188C26.964 204.407 27.1572 204.591 27.392 204.739C27.6269 204.883 27.8731 205.002 28.1307 205.097C28.3883 205.187 28.625 205.261 28.8409 205.318L30.0227 205.636C30.3258 205.716 30.6629 205.826 31.0341 205.966C31.4091 206.106 31.767 206.297 32.108 206.54C32.4527 206.778 32.7367 207.085 32.9602 207.46C33.1837 207.835 33.2955 208.295 33.2955 208.841C33.2955 209.47 33.1307 210.038 32.8011 210.545C32.4754 211.053 31.9981 211.456 31.3693 211.756C30.7443 212.055 29.9848 212.205 29.0909 212.205C28.2576 212.205 27.536 212.07 26.9261 211.801C26.3201 211.532 25.8428 211.157 25.4943 210.676C25.1496 210.195 24.9545 209.636 24.9091 209H26.3636C26.4015 209.439 26.5492 209.803 26.8068 210.091C27.0682 210.375 27.3977 210.587 27.7955 210.727C28.197 210.864 28.6288 210.932 29.0909 210.932C29.6288 210.932 30.1117 210.845 30.5398 210.67C30.9678 210.492 31.3068 210.246 31.5568 209.932C31.8068 209.614 31.9318 209.242 31.9318 208.818C31.9318 208.432 31.8239 208.117 31.608 207.875C31.392 207.633 31.108 207.436 30.7557 207.284C30.4034 207.133 30.0227 207 29.6136 206.886L28.1818 206.477C27.2727 206.216 26.553 205.843 26.0227 205.358C25.4924 204.873 25.2273 204.239 25.2273 203.455C25.2273 202.803 25.4034 202.235 25.7557 201.75C26.1117 201.261 26.589 200.883 27.1875 200.614C27.7898 200.341 28.4621 200.205 29.2045 200.205C29.9545 200.205 30.6212 200.339 31.2045 200.608C31.7879 200.873 32.25 201.237 32.5909 201.699C32.9356 202.161 33.1174 202.686 33.1364 203.273H31.7727ZM35.4304 212V203.273H36.7259V204.636H36.8395C37.0213 204.17 37.3149 203.809 37.7202 203.551C38.1255 203.29 38.6122 203.159 39.1804 203.159C39.7562 203.159 40.2353 203.29 40.6179 203.551C41.0043 203.809 41.3054 204.17 41.5213 204.636H41.6122C41.8357 204.186 42.1709 203.828 42.6179 203.562C43.0649 203.294 43.6009 203.159 44.2259 203.159C45.0062 203.159 45.6444 203.403 46.1406 203.892C46.6368 204.377 46.8849 205.133 46.8849 206.159V212H45.544V206.159C45.544 205.515 45.3679 205.055 45.0156 204.778C44.6634 204.502 44.2486 204.364 43.7713 204.364C43.1577 204.364 42.6823 204.549 42.3452 204.92C42.008 205.288 41.8395 205.754 41.8395 206.318V212H40.4759V206.023C40.4759 205.527 40.3149 205.127 39.9929 204.824C39.6709 204.517 39.2562 204.364 38.7486 204.364C38.4001 204.364 38.0743 204.456 37.7713 204.642C37.4721 204.828 37.2296 205.085 37.044 205.415C36.8622 205.741 36.7713 206.117 36.7713 206.545V212H35.4304ZM51.9048 212.205C51.3518 212.205 50.8499 212.1 50.3991 211.892C49.9484 211.68 49.5904 211.375 49.3253 210.977C49.0601 210.576 48.9276 210.091 48.9276 209.523C48.9276 209.023 49.026 208.617 49.223 208.307C49.42 207.992 49.6832 207.746 50.0128 207.568C50.3423 207.39 50.706 207.258 51.1037 207.17C51.5052 207.08 51.9086 207.008 52.3139 206.955C52.8442 206.886 53.2741 206.835 53.6037 206.801C53.937 206.763 54.1795 206.701 54.331 206.614C54.4863 206.527 54.5639 206.375 54.5639 206.159V206.114C54.5639 205.553 54.4105 205.117 54.1037 204.807C53.8007 204.496 53.3404 204.341 52.723 204.341C52.0829 204.341 51.581 204.481 51.2173 204.761C50.8537 205.042 50.598 205.341 50.4503 205.659L49.1776 205.205C49.4048 204.674 49.7079 204.261 50.0866 203.966C50.4692 203.667 50.8859 203.458 51.3366 203.341C51.7912 203.22 52.2382 203.159 52.6776 203.159C52.9579 203.159 53.2798 203.193 53.6435 203.261C54.0109 203.326 54.3651 203.46 54.706 203.665C55.0507 203.869 55.3366 204.178 55.5639 204.591C55.7912 205.004 55.9048 205.557 55.9048 206.25V212H54.5639V210.818H54.4957C54.4048 211.008 54.2533 211.21 54.0412 211.426C53.8291 211.642 53.5469 211.826 53.1946 211.977C52.8423 212.129 52.4124 212.205 51.9048 212.205ZM52.1094 211C52.6397 211 53.0866 210.896 53.4503 210.688C53.8177 210.479 54.0942 210.21 54.2798 209.881C54.4692 209.551 54.5639 209.205 54.5639 208.841V207.614C54.5071 207.682 54.3821 207.744 54.1889 207.801C53.9995 207.854 53.7798 207.902 53.5298 207.943C53.2836 207.981 53.0431 208.015 52.8082 208.045C52.5772 208.072 52.3897 208.095 52.2457 208.114C51.8973 208.159 51.5715 208.233 51.2685 208.335C50.9692 208.434 50.7268 208.583 50.5412 208.784C50.3594 208.981 50.2685 209.25 50.2685 209.591C50.2685 210.057 50.4408 210.409 50.7855 210.648C51.134 210.883 51.5753 211 52.1094 211ZM59.6932 200.364V212H58.3523V200.364H59.6932ZM63.4901 200.364V212H62.1491V200.364H63.4901ZM79.9915 204H78.5824C78.4991 203.595 78.3532 203.239 78.1449 202.932C77.9403 202.625 77.6903 202.367 77.3949 202.159C77.1032 201.947 76.7794 201.788 76.4233 201.682C76.0672 201.576 75.696 201.523 75.3097 201.523C74.6051 201.523 73.9669 201.701 73.3949 202.057C72.8267 202.413 72.3741 202.938 72.0369 203.631C71.7036 204.324 71.5369 205.174 71.5369 206.182C71.5369 207.189 71.7036 208.04 72.0369 208.733C72.3741 209.426 72.8267 209.951 73.3949 210.307C73.9669 210.663 74.6051 210.841 75.3097 210.841C75.696 210.841 76.0672 210.788 76.4233 210.682C76.7794 210.576 77.1032 210.419 77.3949 210.21C77.6903 209.998 77.9403 209.739 78.1449 209.432C78.3532 209.121 78.4991 208.765 78.5824 208.364H79.9915C79.8854 208.958 79.6922 209.491 79.4119 209.96C79.1316 210.43 78.7831 210.83 78.3665 211.159C77.9498 211.485 77.482 211.733 76.9631 211.903C76.4479 212.074 75.8968 212.159 75.3097 212.159C74.3172 212.159 73.4347 211.917 72.6619 211.432C71.8892 210.947 71.2813 210.258 70.8381 209.364C70.3949 208.47 70.1733 207.409 70.1733 206.182C70.1733 204.955 70.3949 203.894 70.8381 203C71.2813 202.106 71.8892 201.417 72.6619 200.932C73.4347 200.447 74.3172 200.205 75.3097 200.205C75.8968 200.205 76.4479 200.29 76.9631 200.46C77.482 200.631 77.9498 200.881 78.3665 201.21C78.7831 201.536 79.1316 201.934 79.4119 202.403C79.6922 202.869 79.8854 203.402 79.9915 204ZM84.6548 212.205C84.1018 212.205 83.5999 212.1 83.1491 211.892C82.6984 211.68 82.3404 211.375 82.0753 210.977C81.8101 210.576 81.6776 210.091 81.6776 209.523C81.6776 209.023 81.776 208.617 81.973 208.307C82.17 207.992 82.4332 207.746 82.7628 207.568C83.0923 207.39 83.456 207.258 83.8537 207.17C84.2552 207.08 84.6586 207.008 85.0639 206.955C85.5942 206.886 86.0241 206.835 86.3537 206.801C86.687 206.763 86.9295 206.701 87.081 206.614C87.2363 206.527 87.3139 206.375 87.3139 206.159V206.114C87.3139 205.553 87.1605 205.117 86.8537 204.807C86.5507 204.496 86.0904 204.341 85.473 204.341C84.8329 204.341 84.331 204.481 83.9673 204.761C83.6037 205.042 83.348 205.341 83.2003 205.659L81.9276 205.205C82.1548 204.674 82.4579 204.261 82.8366 203.966C83.2192 203.667 83.6359 203.458 84.0866 203.341C84.5412 203.22 84.9882 203.159 85.4276 203.159C85.7079 203.159 86.0298 203.193 86.3935 203.261C86.7609 203.326 87.1151 203.46 87.456 203.665C87.8007 203.869 88.0866 204.178 88.3139 204.591C88.5412 205.004 88.6548 205.557 88.6548 206.25V212H87.3139V210.818H87.2457C87.1548 211.008 87.0033 211.21 86.7912 211.426C86.5791 211.642 86.2969 211.826 85.9446 211.977C85.5923 212.129 85.1624 212.205 84.6548 212.205ZM84.8594 211C85.3897 211 85.8366 210.896 86.2003 210.688C86.5677 210.479 86.8442 210.21 87.0298 209.881C87.2192 209.551 87.3139 209.205 87.3139 208.841V207.614C87.2571 207.682 87.1321 207.744 86.9389 207.801C86.7495 207.854 86.5298 207.902 86.2798 207.943C86.0336 207.981 85.7931 208.015 85.5582 208.045C85.3272 208.072 85.1397 208.095 84.9957 208.114C84.6473 208.159 84.3215 208.233 84.0185 208.335C83.7192 208.434 83.4768 208.583 83.2912 208.784C83.1094 208.981 83.0185 209.25 83.0185 209.591C83.0185 210.057 83.1908 210.409 83.5355 210.648C83.884 210.883 84.3253 211 84.8594 211ZM91.1023 215.273V203.273H92.3977V204.659H92.5568C92.6553 204.508 92.7917 204.314 92.9659 204.08C93.1439 203.841 93.3977 203.629 93.7273 203.443C94.0606 203.254 94.5114 203.159 95.0795 203.159C95.8144 203.159 96.4621 203.343 97.0227 203.71C97.5833 204.078 98.0208 204.598 98.3352 205.273C98.6496 205.947 98.8068 206.742 98.8068 207.659C98.8068 208.583 98.6496 209.384 98.3352 210.062C98.0208 210.737 97.5852 211.259 97.0284 211.631C96.4716 211.998 95.8295 212.182 95.1023 212.182C94.5417 212.182 94.0928 212.089 93.7557 211.903C93.4186 211.714 93.1591 211.5 92.9773 211.261C92.7955 211.019 92.6553 210.818 92.5568 210.659H92.4432V215.273H91.1023ZM92.4205 207.636C92.4205 208.295 92.517 208.877 92.7102 209.381C92.9034 209.881 93.1856 210.273 93.5568 210.557C93.928 210.837 94.3826 210.977 94.9205 210.977C95.4811 210.977 95.9489 210.83 96.3239 210.534C96.7027 210.235 96.9867 209.833 97.1761 209.33C97.3693 208.822 97.4659 208.258 97.4659 207.636C97.4659 207.023 97.3712 206.47 97.1818 205.977C96.9962 205.481 96.714 205.089 96.3352 204.801C95.9602 204.509 95.4886 204.364 94.9205 204.364C94.375 204.364 93.9167 204.502 93.5455 204.778C93.1742 205.051 92.8939 205.434 92.7045 205.926C92.5152 206.415 92.4205 206.985 92.4205 207.636ZM107.034 205.227L105.83 205.568C105.754 205.367 105.642 205.172 105.494 204.983C105.35 204.79 105.153 204.631 104.903 204.506C104.653 204.381 104.333 204.318 103.943 204.318C103.409 204.318 102.964 204.441 102.608 204.688C102.256 204.93 102.08 205.239 102.08 205.614C102.08 205.947 102.201 206.21 102.443 206.403C102.686 206.597 103.064 206.758 103.58 206.886L104.875 207.205C105.655 207.394 106.237 207.684 106.619 208.074C107.002 208.46 107.193 208.958 107.193 209.568C107.193 210.068 107.049 210.515 106.761 210.909C106.477 211.303 106.08 211.614 105.568 211.841C105.057 212.068 104.462 212.182 103.784 212.182C102.894 212.182 102.157 211.989 101.574 211.602C100.991 211.216 100.621 210.652 100.466 209.909L101.739 209.591C101.86 210.061 102.089 210.413 102.426 210.648C102.767 210.883 103.212 211 103.761 211C104.386 211 104.883 210.867 105.25 210.602C105.621 210.333 105.807 210.011 105.807 209.636C105.807 209.333 105.701 209.08 105.489 208.875C105.277 208.667 104.951 208.511 104.511 208.409L103.057 208.068C102.258 207.879 101.67 207.585 101.295 207.188C100.924 206.786 100.739 206.284 100.739 205.682C100.739 205.189 100.877 204.754 101.153 204.375C101.434 203.996 101.814 203.699 102.295 203.483C102.78 203.267 103.33 203.159 103.943 203.159C104.807 203.159 105.485 203.348 105.977 203.727C106.473 204.106 106.826 204.606 107.034 205.227ZM113.893 212V200.364H120.871V201.614H115.303V205.545H120.348V206.795H115.303V212H113.893ZM126.007 212.182C125.219 212.182 124.528 211.994 123.933 211.619C123.342 211.244 122.88 210.72 122.547 210.045C122.217 209.371 122.053 208.583 122.053 207.682C122.053 206.773 122.217 205.979 122.547 205.301C122.88 204.623 123.342 204.097 123.933 203.722C124.528 203.347 125.219 203.159 126.007 203.159C126.795 203.159 127.484 203.347 128.075 203.722C128.67 204.097 129.132 204.623 129.462 205.301C129.795 205.979 129.962 206.773 129.962 207.682C129.962 208.583 129.795 209.371 129.462 210.045C129.132 210.72 128.67 211.244 128.075 211.619C127.484 211.994 126.795 212.182 126.007 212.182ZM126.007 210.977C126.606 210.977 127.098 210.824 127.484 210.517C127.871 210.21 128.157 209.807 128.342 209.307C128.528 208.807 128.621 208.265 128.621 207.682C128.621 207.098 128.528 206.555 128.342 206.051C128.157 205.547 127.871 205.14 127.484 204.83C127.098 204.519 126.606 204.364 126.007 204.364C125.409 204.364 124.916 204.519 124.53 204.83C124.143 205.14 123.857 205.547 123.672 206.051C123.486 206.555 123.393 207.098 123.393 207.682C123.393 208.265 123.486 208.807 123.672 209.307C123.857 209.807 124.143 210.21 124.53 210.517C124.916 210.824 125.409 210.977 126.007 210.977ZM132.009 212V203.273H133.304V204.591H133.395C133.554 204.159 133.842 203.809 134.259 203.54C134.675 203.271 135.145 203.136 135.668 203.136C135.766 203.136 135.889 203.138 136.037 203.142C136.185 203.146 136.296 203.152 136.372 203.159V204.523C136.327 204.511 136.223 204.494 136.06 204.472C135.901 204.445 135.732 204.432 135.554 204.432C135.13 204.432 134.751 204.521 134.418 204.699C134.088 204.873 133.827 205.116 133.634 205.426C133.444 205.733 133.349 206.083 133.349 206.477V212H132.009ZM141.241 212.182C140.423 212.182 139.719 211.989 139.128 211.602C138.537 211.216 138.082 210.684 137.764 210.006C137.446 209.328 137.287 208.553 137.287 207.682C137.287 206.795 137.45 206.013 137.776 205.335C138.105 204.653 138.563 204.121 139.151 203.739C139.741 203.352 140.431 203.159 141.219 203.159C141.832 203.159 142.385 203.273 142.878 203.5C143.37 203.727 143.774 204.045 144.088 204.455C144.402 204.864 144.598 205.341 144.673 205.886H143.332C143.23 205.489 143.003 205.136 142.651 204.83C142.302 204.519 141.832 204.364 141.241 204.364C140.719 204.364 140.26 204.5 139.866 204.773C139.476 205.042 139.171 205.422 138.952 205.915C138.736 206.403 138.628 206.977 138.628 207.636C138.628 208.311 138.734 208.898 138.946 209.398C139.162 209.898 139.465 210.286 139.855 210.562C140.249 210.839 140.711 210.977 141.241 210.977C141.59 210.977 141.906 210.917 142.19 210.795C142.474 210.674 142.715 210.5 142.912 210.273C143.109 210.045 143.249 209.773 143.332 209.455H144.673C144.598 209.97 144.41 210.434 144.111 210.847C143.815 211.256 143.423 211.581 142.935 211.824C142.45 212.062 141.885 212.182 141.241 212.182ZM150.293 212.182C149.452 212.182 148.726 211.996 148.116 211.625C147.51 211.25 147.043 210.727 146.713 210.057C146.387 209.383 146.224 208.598 146.224 207.705C146.224 206.811 146.387 206.023 146.713 205.341C147.043 204.655 147.501 204.121 148.088 203.739C148.679 203.352 149.368 203.159 150.156 203.159C150.611 203.159 151.06 203.235 151.503 203.386C151.946 203.538 152.349 203.784 152.713 204.125C153.077 204.462 153.366 204.909 153.582 205.466C153.798 206.023 153.906 206.708 153.906 207.523V208.091H147.179V206.932H152.543C152.543 206.439 152.444 206 152.247 205.614C152.054 205.227 151.777 204.922 151.418 204.699C151.062 204.475 150.641 204.364 150.156 204.364C149.622 204.364 149.16 204.496 148.77 204.761C148.384 205.023 148.086 205.364 147.878 205.784C147.67 206.205 147.565 206.655 147.565 207.136V207.909C147.565 208.568 147.679 209.127 147.906 209.585C148.137 210.04 148.457 210.386 148.866 210.625C149.276 210.86 149.751 210.977 150.293 210.977C150.645 210.977 150.963 210.928 151.247 210.83C151.535 210.727 151.783 210.576 151.991 210.375C152.2 210.17 152.361 209.917 152.474 209.614L153.77 209.977C153.634 210.417 153.404 210.803 153.082 211.136C152.76 211.466 152.363 211.723 151.889 211.909C151.416 212.091 150.884 212.182 150.293 212.182ZM159.241 212.182C158.514 212.182 157.872 211.998 157.315 211.631C156.759 211.259 156.323 210.737 156.009 210.062C155.694 209.384 155.537 208.583 155.537 207.659C155.537 206.742 155.694 205.947 156.009 205.273C156.323 204.598 156.76 204.078 157.321 203.71C157.882 203.343 158.529 203.159 159.264 203.159C159.832 203.159 160.281 203.254 160.611 203.443C160.944 203.629 161.198 203.841 161.372 204.08C161.55 204.314 161.688 204.508 161.787 204.659H161.901V200.364H163.241V212H161.946V210.659H161.787C161.688 210.818 161.548 211.019 161.366 211.261C161.185 211.5 160.925 211.714 160.588 211.903C160.251 212.089 159.802 212.182 159.241 212.182ZM159.423 210.977C159.961 210.977 160.416 210.837 160.787 210.557C161.158 210.273 161.44 209.881 161.634 209.381C161.827 208.877 161.923 208.295 161.923 207.636C161.923 206.985 161.829 206.415 161.639 205.926C161.45 205.434 161.17 205.051 160.798 204.778C160.427 204.502 159.969 204.364 159.423 204.364C158.855 204.364 158.382 204.509 158.003 204.801C157.628 205.089 157.346 205.481 157.156 205.977C156.971 206.47 156.878 207.023 156.878 207.636C156.878 208.258 156.973 208.822 157.162 209.33C157.355 209.833 157.639 210.235 158.014 210.534C158.393 210.83 158.863 210.977 159.423 210.977Z" fill="#1A1A1A"/>
</svg>
