<svg width="720" height="140" viewBox="0 0 720 140" fill="none" xmlns="http://www.w3.org/2000/svg">
<rect width="720" height="140" fill="#F7F7F7"/>
<path d="M34.6364 20.3636V32H33.2727L26.9318 22.8636H26.8182V32H25.4091V20.3636H26.7727L33.1364 29.5227H33.25V20.3636H34.6364ZM40.8196 32.1818C40.0317 32.1818 39.3404 31.9943 38.7457 31.6193C38.1548 31.2443 37.6927 30.7197 37.3594 30.0455C37.0298 29.3712 36.8651 28.5833 36.8651 27.6818C36.8651 26.7727 37.0298 25.9792 37.3594 25.3011C37.6927 24.6231 38.1548 24.0966 38.7457 23.7216C39.3404 23.3466 40.0317 23.1591 40.8196 23.1591C41.6075 23.1591 42.2969 23.3466 42.8878 23.7216C43.4825 24.0966 43.9446 24.6231 44.2741 25.3011C44.6075 25.9792 44.7741 26.7727 44.7741 27.6818C44.7741 28.5833 44.6075 29.3712 44.2741 30.0455C43.9446 30.7197 43.4825 31.2443 42.8878 31.6193C42.2969 31.9943 41.6075 32.1818 40.8196 32.1818ZM40.8196 30.9773C41.4181 30.9773 41.9105 30.8239 42.2969 30.517C42.6832 30.2102 42.9692 29.8068 43.1548 29.3068C43.3404 28.8068 43.4332 28.2652 43.4332 27.6818C43.4332 27.0985 43.3404 26.5549 43.1548 26.0511C42.9692 25.5473 42.6832 25.1402 42.2969 24.8295C41.9105 24.5189 41.4181 24.3636 40.8196 24.3636C40.2211 24.3636 39.7287 24.5189 39.3423 24.8295C38.956 25.1402 38.67 25.5473 38.4844 26.0511C38.2988 26.5549 38.206 27.0985 38.206 27.6818C38.206 28.2652 38.2988 28.8068 38.4844 29.3068C38.67 29.8068 38.956 30.2102 39.3423 30.517C39.7287 30.8239 40.2211 30.9773 40.8196 30.9773ZM54.6165 32.1818C53.8892 32.1818 53.2472 31.9981 52.6903 31.6307C52.1335 31.2595 51.6979 30.7367 51.3835 30.0625C51.0691 29.3845 50.9119 28.5833 50.9119 27.6591C50.9119 26.7424 51.0691 25.947 51.3835 25.2727C51.6979 24.5985 52.1354 24.0777 52.696 23.7102C53.2566 23.3428 53.9044 23.1591 54.6392 23.1591C55.2074 23.1591 55.6563 23.2538 55.9858 23.4432C56.3191 23.6288 56.5729 23.8409 56.7472 24.0795C56.9252 24.3144 57.0634 24.5076 57.1619 24.6591H57.2756V20.3636H58.6165V32H57.321V30.6591H57.1619C57.0634 30.8182 56.9233 31.0189 56.7415 31.2614C56.5597 31.5 56.3002 31.714 55.9631 31.9034C55.6259 32.089 55.1771 32.1818 54.6165 32.1818ZM54.7983 30.9773C55.3362 30.9773 55.7907 30.8371 56.1619 30.5568C56.5331 30.2727 56.8153 29.8807 57.0085 29.3807C57.2017 28.8769 57.2983 28.2955 57.2983 27.6364C57.2983 26.9848 57.2036 26.4148 57.0142 25.9261C56.8248 25.4337 56.5445 25.0511 56.1733 24.7784C55.8021 24.5019 55.3438 24.3636 54.7983 24.3636C54.2301 24.3636 53.7566 24.5095 53.3778 24.8011C53.0028 25.089 52.7206 25.4811 52.5312 25.9773C52.3456 26.4697 52.2528 27.0227 52.2528 27.6364C52.2528 28.2576 52.3475 28.822 52.5369 29.3295C52.7301 29.8333 53.0142 30.2348 53.3892 30.5341C53.768 30.8295 54.2377 30.9773 54.7983 30.9773ZM64.9176 32.1818C64.0767 32.1818 63.3513 31.9962 62.7415 31.625C62.1354 31.25 61.6676 30.7273 61.3381 30.0568C61.0123 29.3826 60.8494 28.5985 60.8494 27.7045C60.8494 26.8106 61.0123 26.0227 61.3381 25.3409C61.6676 24.6553 62.1259 24.1212 62.7131 23.7386C63.304 23.3523 63.9934 23.1591 64.7812 23.1591C65.2358 23.1591 65.6847 23.2348 66.1278 23.3864C66.571 23.5379 66.9744 23.7841 67.3381 24.125C67.7017 24.4621 67.9915 24.9091 68.2074 25.4659C68.4233 26.0227 68.5312 26.7083 68.5312 27.5227V28.0909H61.804V26.9318H67.1676C67.1676 26.4394 67.0691 26 66.8722 25.6136C66.679 25.2273 66.4025 24.9223 66.0426 24.6989C65.6866 24.4754 65.2661 24.3636 64.7812 24.3636C64.2472 24.3636 63.785 24.4962 63.3949 24.7614C63.0085 25.0227 62.7112 25.3636 62.5028 25.7841C62.2945 26.2045 62.1903 26.6553 62.1903 27.1364V27.9091C62.1903 28.5682 62.304 29.1269 62.5312 29.5852C62.7623 30.0398 63.0824 30.3864 63.4915 30.625C63.9006 30.8598 64.3759 30.9773 64.9176 30.9773C65.2699 30.9773 65.5881 30.928 65.8722 30.8295C66.16 30.7273 66.4081 30.5758 66.6165 30.375C66.8248 30.1705 66.9858 29.9167 67.0994 29.6136L68.3949 29.9773C68.2585 30.4167 68.0294 30.803 67.7074 31.1364C67.3854 31.4659 66.9877 31.7235 66.5142 31.9091C66.0407 32.0909 65.5085 32.1818 64.9176 32.1818ZM74.1165 32.1818C73.2983 32.1818 72.5938 31.9886 72.0028 31.6023C71.4119 31.2159 70.9574 30.6837 70.6392 30.0057C70.321 29.3277 70.1619 28.553 70.1619 27.6818C70.1619 26.7955 70.3248 26.0133 70.6506 25.3352C70.9801 24.6534 71.4384 24.1212 72.0256 23.7386C72.6165 23.3523 73.3059 23.1591 74.0938 23.1591C74.7074 23.1591 75.2604 23.2727 75.7528 23.5C76.2453 23.7273 76.6487 24.0455 76.9631 24.4545C77.2775 24.8636 77.4725 25.3409 77.5483 25.8864H76.2074C76.1051 25.4886 75.8778 25.1364 75.5256 24.8295C75.1771 24.5189 74.7074 24.3636 74.1165 24.3636C73.5938 24.3636 73.1354 24.5 72.7415 24.7727C72.3513 25.0417 72.0464 25.4223 71.8267 25.9148C71.6108 26.4034 71.5028 26.9773 71.5028 27.6364C71.5028 28.3106 71.6089 28.8977 71.821 29.3977C72.0369 29.8977 72.34 30.286 72.7301 30.5625C73.1241 30.839 73.5862 30.9773 74.1165 30.9773C74.465 30.9773 74.7812 30.9167 75.0653 30.7955C75.3494 30.6742 75.59 30.5 75.7869 30.2727C75.9839 30.0455 76.1241 29.7727 76.2074 29.4545H77.5483C77.4725 29.9697 77.285 30.4337 76.9858 30.8466C76.6903 31.2557 76.2983 31.5814 75.8097 31.8239C75.3248 32.0625 74.7604 32.1818 74.1165 32.1818ZM83.054 32.1818C82.2661 32.1818 81.5748 31.9943 80.9801 31.6193C80.3892 31.2443 79.9271 30.7197 79.5938 30.0455C79.2642 29.3712 79.0994 28.5833 79.0994 27.6818C79.0994 26.7727 79.2642 25.9792 79.5938 25.3011C79.9271 24.6231 80.3892 24.0966 80.9801 23.7216C81.5748 23.3466 82.2661 23.1591 83.054 23.1591C83.8419 23.1591 84.5313 23.3466 85.1222 23.7216C85.7169 24.0966 86.179 24.6231 86.5085 25.3011C86.8419 25.9792 87.0085 26.7727 87.0085 27.6818C87.0085 28.5833 86.8419 29.3712 86.5085 30.0455C86.179 30.7197 85.7169 31.2443 85.1222 31.6193C84.5313 31.9943 83.8419 32.1818 83.054 32.1818ZM83.054 30.9773C83.6525 30.9773 84.1449 30.8239 84.5312 30.517C84.9176 30.2102 85.2036 29.8068 85.3892 29.3068C85.5748 28.8068 85.6676 28.2652 85.6676 27.6818C85.6676 27.0985 85.5748 26.5549 85.3892 26.0511C85.2036 25.5473 84.9176 25.1402 84.5312 24.8295C84.1449 24.5189 83.6525 24.3636 83.054 24.3636C82.4555 24.3636 81.9631 24.5189 81.5767 24.8295C81.1903 25.1402 80.9044 25.5473 80.7188 26.0511C80.5331 26.5549 80.4403 27.0985 80.4403 27.6818C80.4403 28.2652 80.5331 28.8068 80.7188 29.3068C80.9044 29.8068 81.1903 30.2102 81.5767 30.517C81.9631 30.8239 82.4555 30.9773 83.054 30.9773ZM89.0554 32V23.2727H90.3509V24.5909H90.4418C90.6009 24.1591 90.8887 23.8087 91.3054 23.5398C91.7221 23.2708 92.1918 23.1364 92.7145 23.1364C92.813 23.1364 92.9361 23.1383 93.0838 23.142C93.2315 23.1458 93.3433 23.1515 93.419 23.1591V24.5227C93.3736 24.5114 93.2694 24.4943 93.1065 24.4716C92.9474 24.4451 92.7789 24.4318 92.6009 24.4318C92.1766 24.4318 91.7978 24.5208 91.4645 24.6989C91.1349 24.8731 90.8736 25.1155 90.6804 25.4261C90.491 25.733 90.3963 26.0833 90.3963 26.4773V32H89.0554ZM97.5767 32.2045C97.0237 32.2045 96.5218 32.1004 96.071 31.892C95.6203 31.6799 95.2623 31.375 94.9972 30.9773C94.732 30.5758 94.5994 30.0909 94.5994 29.5227C94.5994 29.0227 94.6979 28.6174 94.8949 28.3068C95.0919 27.9924 95.3551 27.7462 95.6847 27.5682C96.0142 27.3902 96.3778 27.2576 96.7756 27.1705C97.1771 27.0795 97.5805 27.0076 97.9858 26.9545C98.5161 26.8864 98.946 26.8352 99.2756 26.8011C99.6089 26.7633 99.8513 26.7008 100.003 26.6136C100.158 26.5265 100.236 26.375 100.236 26.1591V26.1136C100.236 25.553 100.082 25.1174 99.7756 24.8068C99.4725 24.4962 99.0123 24.3409 98.3949 24.3409C97.7547 24.3409 97.2528 24.4811 96.8892 24.7614C96.5256 25.0417 96.2699 25.3409 96.1222 25.6591L94.8494 25.2045C95.0767 24.6742 95.3797 24.2614 95.7585 23.9659C96.1411 23.6667 96.5578 23.4583 97.0085 23.3409C97.4631 23.2197 97.91 23.1591 98.3494 23.1591C98.6297 23.1591 98.9517 23.1932 99.3153 23.2614C99.6828 23.3258 100.037 23.4602 100.378 23.6648C100.723 23.8693 101.009 24.178 101.236 24.5909C101.463 25.0038 101.577 25.5568 101.577 26.25V32H100.236V30.8182H100.168C100.077 31.0076 99.9252 31.2102 99.7131 31.4261C99.5009 31.642 99.2188 31.8258 98.8665 31.9773C98.5142 32.1288 98.0843 32.2045 97.5767 32.2045ZM97.7812 31C98.3116 31 98.7585 30.8958 99.1222 30.6875C99.4896 30.4792 99.7661 30.2102 99.9517 29.8807C100.141 29.5511 100.236 29.2045 100.236 28.8409V27.6136C100.179 27.6818 100.054 27.7443 99.8608 27.8011C99.6714 27.8542 99.4517 27.9015 99.2017 27.9432C98.9555 27.9811 98.715 28.0152 98.4801 28.0455C98.2491 28.072 98.0616 28.0947 97.9176 28.1136C97.5691 28.1591 97.2434 28.233 96.9403 28.3352C96.6411 28.4337 96.3987 28.5833 96.2131 28.7841C96.0313 28.9811 95.9403 29.25 95.9403 29.5909C95.9403 30.0568 96.1127 30.4091 96.4574 30.6477C96.8059 30.8826 97.2472 31 97.7812 31ZM107.82 23.2727V24.4091H103.297V23.2727H107.82ZM104.615 21.1818H105.956V29.5C105.956 29.8788 106.011 30.1629 106.121 30.3523C106.234 30.5379 106.378 30.6629 106.553 30.7273C106.731 30.7879 106.918 30.8182 107.115 30.8182C107.263 30.8182 107.384 30.8106 107.479 30.7955C107.573 30.7765 107.649 30.7614 107.706 30.75L107.979 31.9545C107.888 31.9886 107.761 32.0227 107.598 32.0568C107.435 32.0947 107.229 32.1136 106.979 32.1136C106.6 32.1136 106.229 32.0322 105.865 31.8693C105.505 31.7064 105.206 31.4583 104.967 31.125C104.732 30.7917 104.615 30.3712 104.615 29.8636V21.1818ZM109.837 32V23.2727H111.178V32H109.837ZM110.518 21.8182C110.257 21.8182 110.032 21.7292 109.842 21.5511C109.657 21.3731 109.564 21.1591 109.564 20.9091C109.564 20.6591 109.657 20.4451 109.842 20.267C110.032 20.089 110.257 20 110.518 20C110.78 20 111.003 20.089 111.189 20.267C111.378 20.4451 111.473 20.6591 111.473 20.9091C111.473 21.1591 111.378 21.3731 111.189 21.5511C111.003 21.7292 110.78 21.8182 110.518 21.8182ZM117.179 32.1818C116.391 32.1818 115.7 31.9943 115.105 31.6193C114.514 31.2443 114.052 30.7197 113.719 30.0455C113.389 29.3712 113.224 28.5833 113.224 27.6818C113.224 26.7727 113.389 25.9792 113.719 25.3011C114.052 24.6231 114.514 24.0966 115.105 23.7216C115.7 23.3466 116.391 23.1591 117.179 23.1591C117.967 23.1591 118.656 23.3466 119.247 23.7216C119.842 24.0966 120.304 24.6231 120.634 25.3011C120.967 25.9792 121.134 26.7727 121.134 27.6818C121.134 28.5833 120.967 29.3712 120.634 30.0455C120.304 30.7197 119.842 31.2443 119.247 31.6193C118.656 31.9943 117.967 32.1818 117.179 32.1818ZM117.179 30.9773C117.777 30.9773 118.27 30.8239 118.656 30.517C119.043 30.2102 119.329 29.8068 119.514 29.3068C119.7 28.8068 119.793 28.2652 119.793 27.6818C119.793 27.0985 119.7 26.5549 119.514 26.0511C119.329 25.5473 119.043 25.1402 118.656 24.8295C118.27 24.5189 117.777 24.3636 117.179 24.3636C116.58 24.3636 116.088 24.5189 115.702 24.8295C115.315 25.1402 115.029 25.5473 114.844 26.0511C114.658 26.5549 114.565 27.0985 114.565 27.6818C114.565 28.2652 114.658 28.8068 114.844 29.3068C115.029 29.8068 115.315 30.2102 115.702 30.517C116.088 30.8239 116.58 30.9773 117.179 30.9773ZM124.521 26.75V32H123.18V23.2727H124.476V24.6364H124.589C124.794 24.1932 125.105 23.8371 125.521 23.5682C125.938 23.2955 126.476 23.1591 127.135 23.1591C127.726 23.1591 128.243 23.2803 128.686 23.5227C129.129 23.7614 129.474 24.125 129.72 24.6136C129.966 25.0985 130.089 25.7121 130.089 26.4545V32H128.749V26.5455C128.749 25.8598 128.571 25.3258 128.214 24.9432C127.858 24.5568 127.37 24.3636 126.749 24.3636C126.321 24.3636 125.938 24.4564 125.601 24.642C125.268 24.8277 125.004 25.0985 124.811 25.4545C124.618 25.8106 124.521 26.2424 124.521 26.75Z" fill="#1A1A1A"/>
<path d="M33.0455 56.3636H34.4545V64.0682C34.4545 64.8636 34.267 65.5739 33.892 66.1989C33.5208 66.8201 32.9962 67.3106 32.3182 67.6705C31.6402 68.0265 30.8447 68.2045 29.9318 68.2045C29.0189 68.2045 28.2235 68.0265 27.5455 67.6705C26.8674 67.3106 26.3409 66.8201 25.9659 66.1989C25.5947 65.5739 25.4091 64.8636 25.4091 64.0682V56.3636H26.8182V63.9545C26.8182 64.5227 26.9432 65.0284 27.1932 65.4716C27.4432 65.911 27.7992 66.2576 28.2614 66.5114C28.7273 66.7614 29.2841 66.8864 29.9318 66.8864C30.5795 66.8864 31.1364 66.7614 31.6023 66.5114C32.0682 66.2576 32.4242 65.911 32.6705 65.4716C32.9205 65.0284 33.0455 64.5227 33.0455 63.9545V56.3636ZM38.4276 62.75V68H37.0866V59.2727H38.3821V60.6364H38.4957C38.7003 60.1932 39.0109 59.8371 39.4276 59.5682C39.8442 59.2955 40.3821 59.1591 41.0412 59.1591C41.6321 59.1591 42.1491 59.2803 42.5923 59.5227C43.0355 59.7614 43.3802 60.125 43.6264 60.6136C43.8726 61.0985 43.9957 61.7121 43.9957 62.4545V68H42.6548V62.5455C42.6548 61.8598 42.4768 61.3258 42.1207 60.9432C41.7647 60.5568 41.276 60.3636 40.6548 60.3636C40.2268 60.3636 39.8442 60.4564 39.5071 60.642C39.1738 60.8277 38.9105 61.0985 38.7173 61.4545C38.5241 61.8106 38.4276 62.2424 38.4276 62.75ZM49.7415 68.1818C49.0142 68.1818 48.3722 67.9981 47.8153 67.6307C47.2585 67.2595 46.8229 66.7367 46.5085 66.0625C46.1941 65.3845 46.0369 64.5833 46.0369 63.6591C46.0369 62.7424 46.1941 61.947 46.5085 61.2727C46.8229 60.5985 47.2604 60.0777 47.821 59.7102C48.3816 59.3428 49.0294 59.1591 49.7642 59.1591C50.3324 59.1591 50.7813 59.2538 51.1108 59.4432C51.4441 59.6288 51.6979 59.8409 51.8722 60.0795C52.0502 60.3144 52.1884 60.5076 52.2869 60.6591H52.4006V56.3636H53.7415V68H52.446V66.6591H52.2869C52.1884 66.8182 52.0483 67.0189 51.8665 67.2614C51.6847 67.5 51.4252 67.714 51.0881 67.9034C50.7509 68.089 50.3021 68.1818 49.7415 68.1818ZM49.9233 66.9773C50.4612 66.9773 50.9157 66.8371 51.2869 66.5568C51.6581 66.2727 51.9403 65.8807 52.1335 65.3807C52.3267 64.8769 52.4233 64.2955 52.4233 63.6364C52.4233 62.9848 52.3286 62.4148 52.1392 61.9261C51.9498 61.4337 51.6695 61.0511 51.2983 60.7784C50.9271 60.5019 50.4688 60.3636 49.9233 60.3636C49.3551 60.3636 48.8816 60.5095 48.5028 60.8011C48.1278 61.089 47.8456 61.4811 47.6562 61.9773C47.4706 62.4697 47.3778 63.0227 47.3778 63.6364C47.3778 64.2576 47.4725 64.822 47.6619 65.3295C47.8551 65.8333 48.1392 66.2348 48.5142 66.5341C48.893 66.8295 49.3627 66.9773 49.9233 66.9773ZM60.0426 68.1818C59.2017 68.1818 58.4763 67.9962 57.8665 67.625C57.2604 67.25 56.7926 66.7273 56.4631 66.0568C56.1373 65.3826 55.9744 64.5985 55.9744 63.7045C55.9744 62.8106 56.1373 62.0227 56.4631 61.3409C56.7926 60.6553 57.2509 60.1212 57.8381 59.7386C58.429 59.3523 59.1184 59.1591 59.9062 59.1591C60.3608 59.1591 60.8097 59.2348 61.2528 59.3864C61.696 59.5379 62.0994 59.7841 62.4631 60.125C62.8267 60.4621 63.1165 60.9091 63.3324 61.4659C63.5483 62.0227 63.6562 62.7083 63.6562 63.5227V64.0909H56.929V62.9318H62.2926C62.2926 62.4394 62.1941 62 61.9972 61.6136C61.804 61.2273 61.5275 60.9223 61.1676 60.6989C60.8116 60.4754 60.3911 60.3636 59.9062 60.3636C59.3722 60.3636 58.91 60.4962 58.5199 60.7614C58.1335 61.0227 57.8362 61.3636 57.6278 61.7841C57.4195 62.2045 57.3153 62.6553 57.3153 63.1364V63.9091C57.3153 64.5682 57.429 65.1269 57.6562 65.5852C57.8873 66.0398 58.2074 66.3864 58.6165 66.625C59.0256 66.8598 59.5009 66.9773 60.0426 66.9773C60.3949 66.9773 60.7131 66.928 60.9972 66.8295C61.285 66.7273 61.5331 66.5758 61.7415 66.375C61.9498 66.1705 62.1108 65.9167 62.2244 65.6136L63.5199 65.9773C63.3835 66.4167 63.1544 66.803 62.8324 67.1364C62.5104 67.4659 62.1127 67.7235 61.6392 67.9091C61.1657 68.0909 60.6335 68.1818 60.0426 68.1818ZM65.696 68V59.2727H66.9915V60.5909H67.0824C67.2415 60.1591 67.5294 59.8087 67.946 59.5398C68.3627 59.2708 68.8324 59.1364 69.3551 59.1364C69.4536 59.1364 69.5767 59.1383 69.7244 59.142C69.8722 59.1458 69.9839 59.1515 70.0597 59.1591V60.5227C70.0142 60.5114 69.91 60.4943 69.7472 60.4716C69.5881 60.4451 69.4195 60.4318 69.2415 60.4318C68.8172 60.4318 68.4384 60.5208 68.1051 60.6989C67.7756 60.8731 67.5142 61.1155 67.321 61.4261C67.1316 61.733 67.0369 62.0833 67.0369 62.4773V68H65.696ZM72.9901 56.3636V68H71.6491V56.3636H72.9901ZM75.446 68V59.2727H76.7869V68H75.446ZM76.1278 57.8182C75.8665 57.8182 75.6411 57.7292 75.4517 57.5511C75.2661 57.3731 75.1733 57.1591 75.1733 56.9091C75.1733 56.6591 75.2661 56.4451 75.4517 56.267C75.6411 56.089 75.8665 56 76.1278 56C76.3892 56 76.6127 56.089 76.7983 56.267C76.9877 56.4451 77.0824 56.6591 77.0824 56.9091C77.0824 57.1591 76.9877 57.3731 76.7983 57.5511C76.6127 57.7292 76.3892 57.8182 76.1278 57.8182ZM80.5838 62.75V68H79.2429V59.2727H80.5384V60.6364H80.652C80.8565 60.1932 81.1671 59.8371 81.5838 59.5682C82.0005 59.2955 82.5384 59.1591 83.1974 59.1591C83.7884 59.1591 84.3054 59.2803 84.7486 59.5227C85.1918 59.7614 85.5365 60.125 85.7827 60.6136C86.0289 61.0985 86.152 61.7121 86.152 62.4545V68H84.8111V62.5455C84.8111 61.8598 84.633 61.3258 84.277 60.9432C83.9209 60.5568 83.4323 60.3636 82.8111 60.3636C82.383 60.3636 82.0005 60.4564 81.6634 60.642C81.33 60.8277 81.0668 61.0985 80.8736 61.4545C80.6804 61.8106 80.5838 62.2424 80.5838 62.75ZM92.2614 68.1818C91.4205 68.1818 90.6951 67.9962 90.0852 67.625C89.4792 67.25 89.0114 66.7273 88.6818 66.0568C88.3561 65.3826 88.1932 64.5985 88.1932 63.7045C88.1932 62.8106 88.3561 62.0227 88.6818 61.3409C89.0114 60.6553 89.4697 60.1212 90.0568 59.7386C90.6477 59.3523 91.3371 59.1591 92.125 59.1591C92.5795 59.1591 93.0284 59.2348 93.4716 59.3864C93.9148 59.5379 94.3182 59.7841 94.6818 60.125C95.0455 60.4621 95.3352 60.9091 95.5511 61.4659C95.767 62.0227 95.875 62.7083 95.875 63.5227V64.0909H89.1477V62.9318H94.5114C94.5114 62.4394 94.4129 62 94.2159 61.6136C94.0227 61.2273 93.7462 60.9223 93.3864 60.6989C93.0303 60.4754 92.6098 60.3636 92.125 60.3636C91.5909 60.3636 91.1288 60.4962 90.7386 60.7614C90.3523 61.0227 90.0549 61.3636 89.8466 61.7841C89.6383 62.2045 89.5341 62.6553 89.5341 63.1364V63.9091C89.5341 64.5682 89.6477 65.1269 89.875 65.5852C90.1061 66.0398 90.4261 66.3864 90.8352 66.625C91.2443 66.8598 91.7197 66.9773 92.2614 66.9773C92.6136 66.9773 92.9318 66.928 93.2159 66.8295C93.5038 66.7273 93.7519 66.5758 93.9602 66.375C94.1686 66.1705 94.3295 65.9167 94.4432 65.6136L95.7386 65.9773C95.6023 66.4167 95.3731 66.803 95.0511 67.1364C94.7292 67.4659 94.3314 67.7235 93.858 67.9091C93.3845 68.0909 92.8523 68.1818 92.2614 68.1818ZM101.21 68.1818C100.483 68.1818 99.8409 67.9981 99.2841 67.6307C98.7273 67.2595 98.2917 66.7367 97.9773 66.0625C97.6629 65.3845 97.5057 64.5833 97.5057 63.6591C97.5057 62.7424 97.6629 61.947 97.9773 61.2727C98.2917 60.5985 98.7292 60.0777 99.2898 59.7102C99.8504 59.3428 100.498 59.1591 101.233 59.1591C101.801 59.1591 102.25 59.2538 102.58 59.4432C102.913 59.6288 103.167 59.8409 103.341 60.0795C103.519 60.3144 103.657 60.5076 103.756 60.6591H103.869V56.3636H105.21V68H103.915V66.6591H103.756C103.657 66.8182 103.517 67.0189 103.335 67.2614C103.153 67.5 102.894 67.714 102.557 67.9034C102.22 68.089 101.771 68.1818 101.21 68.1818ZM101.392 66.9773C101.93 66.9773 102.384 66.8371 102.756 66.5568C103.127 66.2727 103.409 65.8807 103.602 65.3807C103.795 64.8769 103.892 64.2955 103.892 63.6364C103.892 62.9848 103.797 62.4148 103.608 61.9261C103.419 61.4337 103.138 61.0511 102.767 60.7784C102.396 60.5019 101.938 60.3636 101.392 60.3636C100.824 60.3636 100.35 60.5095 99.9716 60.8011C99.5966 61.089 99.3144 61.4811 99.125 61.9773C98.9394 62.4697 98.8466 63.0227 98.8466 63.6364C98.8466 64.2576 98.9413 64.822 99.1307 65.3295C99.3239 65.8333 99.608 66.2348 99.983 66.5341C100.362 66.8295 100.831 66.9773 101.392 66.9773Z" fill="#1A1A1A"/>
<path d="M24 71.1818H106.619V72.2727H24V71.1818Z" fill="#1A1A1A"/>
<path d="M31.7727 95.2727C31.7045 94.697 31.428 94.25 30.9432 93.9318C30.4583 93.6136 29.8636 93.4545 29.1591 93.4545C28.6439 93.4545 28.1932 93.5379 27.8068 93.7045C27.4242 93.8712 27.125 94.1004 26.9091 94.392C26.697 94.6837 26.5909 95.0152 26.5909 95.3864C26.5909 95.697 26.6648 95.964 26.8125 96.1875C26.964 96.4072 27.1572 96.5909 27.392 96.7386C27.6269 96.8826 27.8731 97.0019 28.1307 97.0966C28.3883 97.1875 28.625 97.2614 28.8409 97.3182L30.0227 97.6364C30.3258 97.7159 30.6629 97.8258 31.0341 97.9659C31.4091 98.1061 31.767 98.2973 32.108 98.5398C32.4527 98.7784 32.7367 99.0852 32.9602 99.4602C33.1837 99.8352 33.2955 100.295 33.2955 100.841C33.2955 101.47 33.1307 102.038 32.8011 102.545C32.4754 103.053 31.9981 103.456 31.3693 103.756C30.7443 104.055 29.9848 104.205 29.0909 104.205C28.2576 104.205 27.536 104.07 26.9261 103.801C26.3201 103.532 25.8428 103.157 25.4943 102.676C25.1496 102.195 24.9545 101.636 24.9091 101H26.3636C26.4015 101.439 26.5492 101.803 26.8068 102.091C27.0682 102.375 27.3977 102.587 27.7955 102.727C28.197 102.864 28.6288 102.932 29.0909 102.932C29.6288 102.932 30.1117 102.845 30.5398 102.67C30.9678 102.492 31.3068 102.246 31.5568 101.932C31.8068 101.614 31.9318 101.242 31.9318 100.818C31.9318 100.432 31.8239 100.117 31.608 99.875C31.392 99.6326 31.108 99.4356 30.7557 99.2841C30.4034 99.1326 30.0227 99 29.6136 98.8864L28.1818 98.4773C27.2727 98.2159 26.553 97.8428 26.0227 97.358C25.4924 96.8731 25.2273 96.2386 25.2273 95.4545C25.2273 94.803 25.4034 94.2348 25.7557 93.75C26.1117 93.2614 26.589 92.8826 27.1875 92.6136C27.7898 92.3409 28.4621 92.2045 29.2045 92.2045C29.9545 92.2045 30.6212 92.339 31.2045 92.608C31.7879 92.8731 32.25 93.2367 32.5909 93.6989C32.9356 94.161 33.1174 94.6856 33.1364 95.2727H31.7727ZM39.2259 95.2727V96.4091H34.7031V95.2727H39.2259ZM36.0213 93.1818H37.3622V101.5C37.3622 101.879 37.4171 102.163 37.527 102.352C37.6406 102.538 37.7846 102.663 37.9588 102.727C38.1368 102.788 38.3243 102.818 38.5213 102.818C38.669 102.818 38.7902 102.811 38.8849 102.795C38.9796 102.777 39.0554 102.761 39.1122 102.75L39.3849 103.955C39.294 103.989 39.1671 104.023 39.0043 104.057C38.8414 104.095 38.6349 104.114 38.3849 104.114C38.0062 104.114 37.6349 104.032 37.2713 103.869C36.9115 103.706 36.6122 103.458 36.3736 103.125C36.1387 102.792 36.0213 102.371 36.0213 101.864V93.1818ZM41.2429 104V95.2727H42.5384V96.5909H42.6293C42.7884 96.1591 43.0762 95.8087 43.4929 95.5398C43.9096 95.2708 44.3793 95.1364 44.902 95.1364C45.0005 95.1364 45.1236 95.1383 45.2713 95.142C45.419 95.1458 45.5308 95.1515 45.6065 95.1591V96.5227C45.5611 96.5114 45.4569 96.4943 45.294 96.4716C45.1349 96.4451 44.9664 96.4318 44.7884 96.4318C44.3641 96.4318 43.9853 96.5208 43.652 96.6989C43.3224 96.8731 43.0611 97.1155 42.8679 97.4261C42.6785 97.733 42.5838 98.0833 42.5838 98.4773V104H41.2429ZM47.196 104V95.2727H48.5369V104H47.196ZM47.8778 93.8182C47.6165 93.8182 47.3911 93.7292 47.2017 93.5511C47.0161 93.3731 46.9233 93.1591 46.9233 92.9091C46.9233 92.6591 47.0161 92.4451 47.2017 92.267C47.3911 92.089 47.6165 92 47.8778 92C48.1392 92 48.3627 92.089 48.5483 92.267C48.7377 92.4451 48.8324 92.6591 48.8324 92.9091C48.8324 93.1591 48.7377 93.3731 48.5483 93.5511C48.3627 93.7292 48.1392 93.8182 47.8778 93.8182ZM52.2429 100.818L52.2202 99.1591H52.4929L56.3111 95.2727H57.9702L53.902 99.3864H53.7884L52.2429 100.818ZM50.9929 104V92.3636H52.3338V104H50.9929ZM56.5384 104L53.1293 99.6818L54.0838 98.75L58.2429 104H56.5384ZM62.9957 104.182C62.1548 104.182 61.4295 103.996 60.8196 103.625C60.2135 103.25 59.7457 102.727 59.4162 102.057C59.0904 101.383 58.9276 100.598 58.9276 99.7045C58.9276 98.8106 59.0904 98.0227 59.4162 97.3409C59.7457 96.6553 60.2041 96.1212 60.7912 95.7386C61.3821 95.3523 62.0715 95.1591 62.8594 95.1591C63.3139 95.1591 63.7628 95.2348 64.206 95.3864C64.6491 95.5379 65.0526 95.7841 65.4162 96.125C65.7798 96.4621 66.0696 96.9091 66.2855 97.4659C66.5014 98.0227 66.6094 98.7083 66.6094 99.5227V100.091H59.8821V98.9318H65.2457C65.2457 98.4394 65.1473 98 64.9503 97.6136C64.7571 97.2273 64.4806 96.9223 64.1207 96.6989C63.7647 96.4754 63.3442 96.3636 62.8594 96.3636C62.3253 96.3636 61.8632 96.4962 61.473 96.7614C61.0866 97.0227 60.7893 97.3636 60.581 97.7841C60.3726 98.2045 60.2685 98.6553 60.2685 99.1364V99.9091C60.2685 100.568 60.3821 101.127 60.6094 101.585C60.8404 102.04 61.1605 102.386 61.5696 102.625C61.9787 102.86 62.4541 102.977 62.9957 102.977C63.348 102.977 63.6662 102.928 63.9503 102.83C64.2382 102.727 64.4863 102.576 64.6946 102.375C64.9029 102.17 65.0639 101.917 65.1776 101.614L66.473 101.977C66.3366 102.417 66.1075 102.803 65.7855 103.136C65.4635 103.466 65.0658 103.723 64.5923 103.909C64.1188 104.091 63.5866 104.182 62.9957 104.182ZM72.4446 95.2727V96.4091H67.9219V95.2727H72.4446ZM69.2401 93.1818H70.581V101.5C70.581 101.879 70.6359 102.163 70.7457 102.352C70.8594 102.538 71.0033 102.663 71.1776 102.727C71.3556 102.788 71.5431 102.818 71.7401 102.818C71.8878 102.818 72.009 102.811 72.1037 102.795C72.1984 102.777 72.2741 102.761 72.331 102.75L72.6037 103.955C72.5128 103.989 72.3859 104.023 72.223 104.057C72.0601 104.095 71.8537 104.114 71.6037 104.114C71.2249 104.114 70.8537 104.032 70.4901 103.869C70.1302 103.706 69.831 103.458 69.5923 103.125C69.3575 102.792 69.2401 102.371 69.2401 101.864V93.1818ZM75.9901 98.75V104H74.6491V92.3636H75.9901V96.6364H76.1037C76.3082 96.1856 76.6151 95.8277 77.0241 95.5625C77.437 95.2936 77.9863 95.1591 78.6719 95.1591C79.2666 95.1591 79.7874 95.2784 80.2344 95.517C80.6813 95.7519 81.0279 96.1136 81.2741 96.6023C81.5241 97.0871 81.6491 97.7045 81.6491 98.4545V104H80.3082V98.5455C80.3082 97.8523 80.1283 97.3163 79.7685 96.9375C79.4124 96.5549 78.9181 96.3636 78.2855 96.3636C77.8461 96.3636 77.4522 96.4564 77.1037 96.642C76.759 96.8277 76.4863 97.0985 76.2855 97.4545C76.0885 97.8106 75.9901 98.2424 75.9901 98.75ZM84.1023 104V95.2727H85.3977V96.5909H85.4886C85.6477 96.1591 85.9356 95.8087 86.3523 95.5398C86.7689 95.2708 87.2386 95.1364 87.7614 95.1364C87.8598 95.1364 87.983 95.1383 88.1307 95.142C88.2784 95.1458 88.3902 95.1515 88.4659 95.1591V96.5227C88.4205 96.5114 88.3163 96.4943 88.1534 96.4716C87.9943 96.4451 87.8258 96.4318 87.6477 96.4318C87.2235 96.4318 86.8447 96.5208 86.5114 96.6989C86.1818 96.8731 85.9205 97.1155 85.7273 97.4261C85.5379 97.733 85.4432 98.0833 85.4432 98.4773V104H84.1023ZM93.3352 104.182C92.5473 104.182 91.8561 103.994 91.2614 103.619C90.6705 103.244 90.2083 102.72 89.875 102.045C89.5455 101.371 89.3807 100.583 89.3807 99.6818C89.3807 98.7727 89.5455 97.9792 89.875 97.3011C90.2083 96.6231 90.6705 96.0966 91.2614 95.7216C91.8561 95.3466 92.5473 95.1591 93.3352 95.1591C94.1231 95.1591 94.8125 95.3466 95.4034 95.7216C95.9981 96.0966 96.4602 96.6231 96.7898 97.3011C97.1231 97.9792 97.2898 98.7727 97.2898 99.6818C97.2898 100.583 97.1231 101.371 96.7898 102.045C96.4602 102.72 95.9981 103.244 95.4034 103.619C94.8125 103.994 94.1231 104.182 93.3352 104.182ZM93.3352 102.977C93.9337 102.977 94.4261 102.824 94.8125 102.517C95.1989 102.21 95.4848 101.807 95.6705 101.307C95.8561 100.807 95.9489 100.265 95.9489 99.6818C95.9489 99.0985 95.8561 98.5549 95.6705 98.0511C95.4848 97.5473 95.1989 97.1402 94.8125 96.8295C94.4261 96.5189 93.9337 96.3636 93.3352 96.3636C92.7367 96.3636 92.2443 96.5189 91.858 96.8295C91.4716 97.1402 91.1856 97.5473 91 98.0511C90.8144 98.5549 90.7216 99.0985 90.7216 99.6818C90.7216 100.265 90.8144 100.807 91 101.307C91.1856 101.807 91.4716 102.21 91.858 102.517C92.2443 102.824 92.7367 102.977 93.3352 102.977ZM104.837 100.432V95.2727H106.178V104H104.837V102.523H104.746C104.541 102.966 104.223 103.343 103.791 103.653C103.359 103.96 102.814 104.114 102.155 104.114C101.609 104.114 101.125 103.994 100.7 103.756C100.276 103.513 99.9427 103.15 99.7003 102.665C99.4579 102.176 99.3366 101.561 99.3366 100.818V95.2727H100.678V100.727C100.678 101.364 100.856 101.871 101.212 102.25C101.571 102.629 102.03 102.818 102.587 102.818C102.92 102.818 103.259 102.733 103.604 102.562C103.952 102.392 104.244 102.131 104.479 101.778C104.717 101.426 104.837 100.977 104.837 100.432ZM112.156 107.455C111.509 107.455 110.952 107.371 110.486 107.205C110.02 107.042 109.632 106.826 109.321 106.557C109.014 106.292 108.77 106.008 108.588 105.705L109.656 104.955C109.777 105.114 109.931 105.295 110.116 105.5C110.302 105.708 110.556 105.888 110.878 106.04C111.204 106.195 111.63 106.273 112.156 106.273C112.861 106.273 113.442 106.102 113.901 105.761C114.359 105.42 114.588 104.886 114.588 104.159V102.386H114.474C114.376 102.545 114.236 102.742 114.054 102.977C113.876 103.208 113.618 103.415 113.281 103.597C112.948 103.775 112.497 103.864 111.929 103.864C111.224 103.864 110.592 103.697 110.031 103.364C109.474 103.03 109.033 102.545 108.707 101.909C108.385 101.273 108.224 100.5 108.224 99.5909C108.224 98.697 108.382 97.9186 108.696 97.2557C109.01 96.589 109.448 96.0739 110.009 95.7102C110.569 95.3428 111.217 95.1591 111.952 95.1591C112.52 95.1591 112.971 95.2538 113.304 95.4432C113.641 95.6288 113.899 95.8409 114.077 96.0795C114.259 96.3144 114.399 96.5076 114.497 96.6591H114.634V95.2727H115.929V104.25C115.929 105 115.759 105.61 115.418 106.08C115.08 106.553 114.626 106.9 114.054 107.119C113.486 107.343 112.853 107.455 112.156 107.455ZM112.111 102.659C112.649 102.659 113.103 102.536 113.474 102.29C113.846 102.044 114.128 101.689 114.321 101.227C114.514 100.765 114.611 100.212 114.611 99.5682C114.611 98.9394 114.516 98.3845 114.327 97.9034C114.137 97.4223 113.857 97.0455 113.486 96.7727C113.115 96.5 112.656 96.3636 112.111 96.3636C111.543 96.3636 111.069 96.5076 110.69 96.7955C110.315 97.0833 110.033 97.4697 109.844 97.9545C109.658 98.4394 109.565 98.9773 109.565 99.5682C109.565 100.174 109.66 100.71 109.849 101.176C110.043 101.638 110.327 102.002 110.702 102.267C111.08 102.528 111.55 102.659 112.111 102.659ZM119.724 98.75V104H118.384V92.3636H119.724V96.6364H119.838C120.043 96.1856 120.349 95.8277 120.759 95.5625C121.171 95.2936 121.721 95.1591 122.406 95.1591C123.001 95.1591 123.522 95.2784 123.969 95.517C124.416 95.7519 124.762 96.1136 125.009 96.6023C125.259 97.0871 125.384 97.7045 125.384 98.4545V104H124.043V98.5455C124.043 97.8523 123.863 97.3163 123.503 96.9375C123.147 96.5549 122.652 96.3636 122.02 96.3636C121.58 96.3636 121.187 96.4564 120.838 96.642C120.493 96.8277 120.221 97.0985 120.02 97.4545C119.823 97.8106 119.724 98.2424 119.724 98.75Z" fill="#1A1A1A"/>
<path d="M24 98.7614H126.611V99.8523H24V98.7614Z" fill="#1A1A1A"/>
</svg>
