<svg width="720" height="248" viewBox="0 0 720 248" fill="none" xmlns="http://www.w3.org/2000/svg">
<rect width="720" height="248" fill="#F7F7F7"/>
<path d="M29.936 35.208C28.9547 35.208 28.0853 34.9627 27.328 34.472C26.5813 33.9707 25.9947 33.2613 25.568 32.344C25.1413 31.4267 24.928 30.344 24.928 29.096C24.928 27.8373 25.1413 26.76 25.568 25.864C25.9947 24.9573 26.5813 24.264 27.328 23.784C28.0853 23.304 28.9547 23.064 29.936 23.064C30.9173 23.064 31.7813 23.3093 32.528 23.8C33.2853 24.28 33.8773 24.968 34.304 25.864C34.7307 26.76 34.944 27.8373 34.944 29.096C34.944 30.344 34.7307 31.4267 34.304 32.344C33.8773 33.2613 33.2853 33.9707 32.528 34.472C31.7813 34.9627 30.9173 35.208 29.936 35.208ZM29.936 33.912C30.64 33.912 31.2533 33.7147 31.776 33.32C32.2987 32.9253 32.704 32.3653 32.992 31.64C33.28 30.9147 33.424 30.0667 33.424 29.096C33.424 28.1147 33.28 27.272 32.992 26.568C32.704 25.8533 32.2987 25.3093 31.776 24.936C31.2533 24.552 30.64 24.36 29.936 24.36C29.2427 24.36 28.6293 24.552 28.096 24.936C27.5733 25.3093 27.168 25.8533 26.88 26.568C26.592 27.272 26.448 28.1147 26.448 29.096C26.448 30.0667 26.592 30.9147 26.88 31.64C27.168 32.3653 27.5733 32.9253 28.096 33.32C28.6293 33.7147 29.2427 33.912 29.936 33.912ZM37.347 35V26.312H38.547L38.691 27.896H38.723C39.0217 27.3413 39.3843 26.904 39.811 26.584C40.2483 26.2533 40.707 26.088 41.187 26.088C41.3897 26.088 41.5603 26.104 41.699 26.136C41.8483 26.1573 41.987 26.2053 42.115 26.28L41.843 27.544C41.6937 27.5013 41.5603 27.4693 41.443 27.448C41.3257 27.416 41.1763 27.4 40.995 27.4C40.643 27.4 40.2643 27.5547 39.859 27.864C39.4537 28.1627 39.107 28.68 38.819 29.416V35H37.347ZM43.5501 35V26.312H45.0221V35H43.5501ZM44.2861 24.52C43.9981 24.52 43.7635 24.4347 43.5821 24.264C43.4115 24.0827 43.3261 23.8427 43.3261 23.544C43.3261 23.256 43.4115 23.0267 43.5821 22.856C43.7635 22.6853 43.9981 22.6 44.2861 22.6C44.5741 22.6 44.8088 22.6853 44.9901 22.856C45.1715 23.0267 45.2621 23.256 45.2621 23.544C45.2621 23.8427 45.1715 24.0827 44.9901 24.264C44.8088 24.4347 44.5741 24.52 44.2861 24.52ZM50.8844 39C50.1804 39 49.5564 38.9093 49.0124 38.728C48.4684 38.5467 48.047 38.28 47.7484 37.928C47.4497 37.5867 47.3004 37.1707 47.3004 36.68C47.3004 36.3067 47.4124 35.944 47.6364 35.592C47.8604 35.2507 48.175 34.9573 48.5804 34.712V34.632C48.3564 34.4933 48.1697 34.3067 48.0204 34.072C47.871 33.8373 47.7964 33.5493 47.7964 33.208C47.7964 32.8453 47.8977 32.5253 48.1004 32.248C48.3137 31.9707 48.5324 31.752 48.7564 31.592V31.528C48.4684 31.304 48.207 30.9893 47.9724 30.584C47.7377 30.1787 47.6204 29.7147 47.6204 29.192C47.6204 28.552 47.7697 28.0027 48.0684 27.544C48.367 27.0747 48.7617 26.7173 49.2524 26.472C49.7537 26.216 50.2924 26.088 50.8684 26.088C51.1244 26.088 51.3537 26.1093 51.5564 26.152C51.7697 26.1947 51.951 26.248 52.1004 26.312H55.1244V27.432H53.3484C53.5617 27.6347 53.7324 27.8907 53.8604 28.2C53.9884 28.5093 54.0524 28.8507 54.0524 29.224C54.0524 29.8427 53.9084 30.3813 53.6204 30.84C53.343 31.288 52.9644 31.6347 52.4844 31.88C52.0044 32.1253 51.4657 32.248 50.8684 32.248C50.6657 32.248 50.447 32.2213 50.2124 32.168C49.9884 32.1147 49.7804 32.04 49.5884 31.944C49.4284 32.072 49.295 32.216 49.1884 32.376C49.0817 32.536 49.0284 32.7387 49.0284 32.984C49.0284 33.2507 49.135 33.4747 49.3484 33.656C49.5617 33.8373 49.9617 33.928 50.5484 33.928H52.2604C53.263 33.928 54.015 34.0933 54.5164 34.424C55.0284 34.7547 55.2844 35.2773 55.2844 35.992C55.2844 36.5253 55.103 37.0213 54.7404 37.48C54.3777 37.9387 53.8657 38.3067 53.2044 38.584C52.5537 38.8613 51.7804 39 50.8844 39ZM50.8684 31.256C51.2097 31.256 51.519 31.1707 51.7964 31C52.0844 30.8293 52.3084 30.5893 52.4684 30.28C52.639 29.9707 52.7244 29.608 52.7244 29.192C52.7244 28.7653 52.639 28.4027 52.4684 28.104C52.3084 27.7947 52.0897 27.56 51.8124 27.4C51.535 27.24 51.2204 27.16 50.8684 27.16C50.5377 27.16 50.2284 27.24 49.9404 27.4C49.663 27.56 49.439 27.7893 49.2684 28.088C49.1084 28.3867 49.0284 28.7547 49.0284 29.192C49.0284 29.608 49.1137 29.9707 49.2844 30.28C49.455 30.5893 49.679 30.8293 49.9564 31C50.2337 31.1707 50.5377 31.256 50.8684 31.256ZM51.0924 37.992C51.647 37.992 52.127 37.9067 52.5324 37.736C52.9484 37.5653 53.2684 37.3413 53.4924 37.064C53.727 36.7973 53.8444 36.52 53.8444 36.232C53.8444 35.816 53.695 35.528 53.3964 35.368C53.0977 35.208 52.6604 35.128 52.0844 35.128H50.5804C50.4204 35.128 50.239 35.1173 50.0364 35.096C49.8444 35.0853 49.6524 35.0533 49.4604 35C49.151 35.2133 48.927 35.448 48.7884 35.704C48.6497 35.9707 48.5804 36.2267 48.5804 36.472C48.5804 36.9307 48.799 37.2987 49.2364 37.576C49.6844 37.8533 50.303 37.992 51.0924 37.992ZM56.9876 35V26.312H58.4596V35H56.9876ZM57.7236 24.52C57.4356 24.52 57.201 24.4347 57.0196 24.264C56.849 24.0827 56.7636 23.8427 56.7636 23.544C56.7636 23.256 56.849 23.0267 57.0196 22.856C57.201 22.6853 57.4356 22.6 57.7236 22.6C58.0116 22.6 58.2463 22.6853 58.4276 22.856C58.609 23.0267 58.6996 23.256 58.6996 23.544C58.6996 23.8427 58.609 24.0827 58.4276 24.264C58.2463 24.4347 58.0116 24.52 57.7236 24.52ZM61.3939 35V26.312H62.5939L62.7379 27.576H62.7699C63.1859 27.16 63.6232 26.808 64.0819 26.52C64.5512 26.232 65.0845 26.088 65.6819 26.088C66.5992 26.088 67.2712 26.3813 67.6979 26.968C68.1245 27.544 68.3379 28.3867 68.3379 29.496V35H66.8819V29.688C66.8819 28.8667 66.7485 28.2747 66.4819 27.912C66.2259 27.5493 65.8099 27.368 65.2339 27.368C64.7859 27.368 64.3859 27.48 64.0339 27.704C63.6819 27.928 63.2925 28.2587 62.8659 28.696V35H61.3939ZM73.1595 35.208C72.6795 35.208 72.2475 35.112 71.8635 34.92C71.4795 34.728 71.1755 34.4507 70.9515 34.088C70.7382 33.7147 70.6315 33.2667 70.6315 32.744C70.6315 31.7947 71.0528 31.0693 71.8955 30.568C72.7488 30.056 74.1035 29.6987 75.9595 29.496C75.9595 29.1227 75.9062 28.7707 75.7995 28.44C75.7035 28.0987 75.5275 27.8267 75.2715 27.624C75.0155 27.4107 74.6475 27.304 74.1675 27.304C73.6662 27.304 73.1915 27.4053 72.7435 27.608C72.3062 27.8 71.9115 28.008 71.5595 28.232L70.9995 27.224C71.2662 27.0533 71.5755 26.8827 71.9275 26.712C72.2795 26.5307 72.6635 26.3813 73.0795 26.264C73.4955 26.1467 73.9382 26.088 74.4075 26.088C75.1115 26.088 75.6822 26.2373 76.1195 26.536C76.5675 26.8347 76.8928 27.2507 77.0955 27.784C77.3088 28.3067 77.4155 28.9307 77.4155 29.656V35H76.2155L76.0875 33.96H76.0395C75.6342 34.3013 75.1862 34.5947 74.6955 34.84C74.2155 35.0853 73.7035 35.208 73.1595 35.208ZM73.5755 34.024C73.9915 34.024 74.3862 33.928 74.7595 33.736C75.1435 33.544 75.5435 33.2613 75.9595 32.888V30.472C74.9888 30.5787 74.2155 30.7333 73.6395 30.936C73.0635 31.128 72.6528 31.368 72.4075 31.656C72.1622 31.9333 72.0395 32.264 72.0395 32.648C72.0395 33.1493 72.1888 33.5067 72.4875 33.72C72.7862 33.9227 73.1488 34.024 73.5755 34.024ZM81.7111 35.208C81.3485 35.208 81.0551 35.1333 80.8311 34.984C80.6071 34.8347 80.4418 34.616 80.3351 34.328C80.2285 34.0293 80.1751 33.6773 80.1751 33.272V22.264H81.6471V33.368C81.6471 33.592 81.6845 33.752 81.7591 33.848C81.8445 33.944 81.9405 33.992 82.0471 33.992C82.0898 33.992 82.1325 33.992 82.1751 33.992C82.2178 33.9813 82.2765 33.9707 82.3511 33.96L82.5591 35.08C82.4525 35.112 82.3351 35.1387 82.2071 35.16C82.0791 35.192 81.9138 35.208 81.7111 35.208ZM92.8601 35.208C92.1348 35.208 91.4575 35.0747 90.8281 34.808C90.2095 34.5307 89.6708 34.1307 89.2121 33.608C88.7535 33.0853 88.3961 32.4507 88.1401 31.704C87.8841 30.9467 87.7561 30.0933 87.7561 29.144C87.7561 28.1947 87.8841 27.3467 88.1401 26.6C88.4068 25.8427 88.7748 25.2027 89.2441 24.68C89.7135 24.1573 90.2628 23.7573 90.8921 23.48C91.5215 23.2027 92.2095 23.064 92.9561 23.064C93.6708 23.064 94.3001 23.2133 94.8441 23.512C95.3881 23.8 95.8308 24.1307 96.1721 24.504L95.3721 25.464C95.0628 25.1333 94.7108 24.8667 94.3161 24.664C93.9215 24.4613 93.4735 24.36 92.9721 24.36C92.2361 24.36 91.5908 24.552 91.0361 24.936C90.4815 25.32 90.0495 25.8693 89.7401 26.584C89.4308 27.288 89.2761 28.1253 89.2761 29.096C89.2761 30.088 89.4255 30.9467 89.7241 31.672C90.0228 32.3867 90.4441 32.9413 90.9881 33.336C91.5321 33.72 92.1775 33.912 92.9241 33.912C93.4788 33.912 93.9748 33.7947 94.4121 33.56C94.8601 33.3253 95.2708 33 95.6441 32.584L96.4601 33.528C96.0015 34.0613 95.4788 34.4773 94.8921 34.776C94.3055 35.064 93.6281 35.208 92.8601 35.208ZM100.503 35.208C100.023 35.208 99.5913 35.112 99.2073 34.92C98.8233 34.728 98.5193 34.4507 98.2953 34.088C98.0819 33.7147 97.9753 33.2667 97.9753 32.744C97.9753 31.7947 98.3966 31.0693 99.2393 30.568C100.093 30.056 101.447 29.6987 103.303 29.496C103.303 29.1227 103.25 28.7707 103.143 28.44C103.047 28.0987 102.871 27.8267 102.615 27.624C102.359 27.4107 101.991 27.304 101.511 27.304C101.01 27.304 100.535 27.4053 100.087 27.608C99.6499 27.8 99.2553 28.008 98.9033 28.232L98.3433 27.224C98.6099 27.0533 98.9193 26.8827 99.2713 26.712C99.6233 26.5307 100.007 26.3813 100.423 26.264C100.839 26.1467 101.282 26.088 101.751 26.088C102.455 26.088 103.026 26.2373 103.463 26.536C103.911 26.8347 104.237 27.2507 104.439 27.784C104.653 28.3067 104.759 28.9307 104.759 29.656V35H103.559L103.431 33.96H103.383C102.978 34.3013 102.53 34.5947 102.039 34.84C101.559 35.0853 101.047 35.208 100.503 35.208ZM100.919 34.024C101.335 34.024 101.73 33.928 102.103 33.736C102.487 33.544 102.887 33.2613 103.303 32.888V30.472C102.333 30.5787 101.559 30.7333 100.983 30.936C100.407 31.128 99.9966 31.368 99.7513 31.656C99.5059 31.9333 99.3832 32.264 99.3832 32.648C99.3832 33.1493 99.5326 33.5067 99.8313 33.72C100.13 33.9227 100.493 34.024 100.919 34.024ZM109.791 35.208C109.183 35.208 108.591 35.096 108.015 34.872C107.45 34.6373 106.964 34.3493 106.559 34.008L107.263 33.032C107.647 33.3413 108.042 33.592 108.447 33.784C108.852 33.976 109.316 34.072 109.839 34.072C110.415 34.072 110.842 33.944 111.119 33.688C111.407 33.4213 111.551 33.096 111.551 32.712C111.551 32.4133 111.45 32.168 111.247 31.976C111.055 31.7733 110.804 31.6027 110.495 31.464C110.196 31.3147 109.887 31.1813 109.567 31.064C109.162 30.904 108.762 30.728 108.367 30.536C107.983 30.3333 107.663 30.0773 107.407 29.768C107.162 29.448 107.039 29.0427 107.039 28.552C107.039 28.0827 107.156 27.6667 107.391 27.304C107.626 26.9307 107.967 26.6373 108.415 26.424C108.863 26.2 109.402 26.088 110.031 26.088C110.564 26.088 111.06 26.184 111.519 26.376C111.988 26.568 112.388 26.8027 112.719 27.08L112.015 27.992C111.716 27.7787 111.407 27.5973 111.087 27.448C110.778 27.2987 110.431 27.224 110.047 27.224C109.492 27.224 109.082 27.352 108.815 27.608C108.559 27.8533 108.431 28.1467 108.431 28.488C108.431 28.7547 108.516 28.9787 108.687 29.16C108.868 29.3413 109.103 29.496 109.391 29.624C109.679 29.7413 109.983 29.864 110.303 29.992C110.623 30.1093 110.938 30.2373 111.247 30.376C111.567 30.5147 111.85 30.68 112.095 30.872C112.351 31.064 112.554 31.304 112.703 31.592C112.863 31.8693 112.943 32.216 112.943 32.632C112.943 33.1013 112.82 33.5333 112.575 33.928C112.34 34.3227 111.988 34.6373 111.519 34.872C111.06 35.096 110.484 35.208 109.791 35.208ZM118.523 35.208C117.745 35.208 117.041 35.0267 116.411 34.664C115.782 34.3013 115.281 33.784 114.907 33.112C114.545 32.4293 114.363 31.6133 114.363 30.664C114.363 29.9493 114.47 29.3147 114.683 28.76C114.897 28.1947 115.185 27.7147 115.547 27.32C115.921 26.9147 116.342 26.6107 116.811 26.408C117.281 26.1947 117.761 26.088 118.251 26.088C118.998 26.088 119.627 26.2533 120.139 26.584C120.651 26.9147 121.041 27.3893 121.307 28.008C121.585 28.616 121.723 29.336 121.723 30.168C121.723 30.328 121.718 30.4773 121.707 30.616C121.697 30.7547 121.681 30.8827 121.659 31H115.803C115.835 31.6187 115.974 32.1573 116.219 32.616C116.475 33.064 116.811 33.416 117.227 33.672C117.643 33.9173 118.129 34.04 118.683 34.04C119.11 34.04 119.494 33.9813 119.835 33.864C120.187 33.736 120.529 33.5653 120.859 33.352L121.371 34.328C120.998 34.5733 120.577 34.7813 120.107 34.952C119.638 35.1227 119.11 35.208 118.523 35.208ZM115.787 29.96H120.443C120.443 29.0853 120.251 28.4187 119.867 27.96C119.494 27.4907 118.966 27.256 118.283 27.256C117.878 27.256 117.494 27.3627 117.131 27.576C116.779 27.7893 116.481 28.0933 116.235 28.488C116.001 28.8827 115.851 29.3733 115.787 29.96Z" fill="#1A1A1A"/>
<path d="M29.776 71.208C29.1787 71.208 28.624 71.1227 28.112 70.952C27.6 70.7813 27.152 70.4987 26.768 70.104C26.3947 69.7093 26.1013 69.1867 25.888 68.536C25.6747 67.8853 25.568 67.096 25.568 66.168V59.272H27.04V66.2C27.04 67.1387 27.1627 67.88 27.408 68.424C27.6533 68.9573 27.9787 69.3413 28.384 69.576C28.8 69.8 29.264 69.912 29.776 69.912C30.2987 69.912 30.768 69.8 31.184 69.576C31.6 69.3413 31.9307 68.9573 32.176 68.424C32.432 67.88 32.56 67.1387 32.56 66.2V59.272H33.984V66.168C33.984 67.096 33.8773 67.8853 33.664 68.536C33.4613 69.1867 33.168 69.7093 32.784 70.104C32.4 70.4987 31.952 70.7813 31.44 70.952C30.928 71.1227 30.3733 71.208 29.776 71.208ZM37.1473 71V59.272H40.4913C41.3659 59.272 42.1339 59.384 42.7953 59.608C43.4566 59.8213 43.9686 60.1787 44.3313 60.68C44.6939 61.1813 44.8753 61.8587 44.8753 62.712C44.8753 63.5333 44.6939 64.2107 44.3313 64.744C43.9686 65.2773 43.4619 65.6773 42.8113 65.944C42.1606 66.2 41.4086 66.328 40.5553 66.328H38.6193V71H37.1473ZM38.6193 65.128H40.3633C41.3873 65.128 42.1499 64.936 42.6513 64.552C43.1526 64.168 43.4033 63.5547 43.4033 62.712C43.4033 61.8587 43.1419 61.272 42.6193 60.952C42.1073 60.632 41.3339 60.472 40.2993 60.472H38.6193V65.128ZM47.2723 71V59.272H50.6163C51.4909 59.272 52.2589 59.384 52.9203 59.608C53.5816 59.8213 54.0936 60.1787 54.4563 60.68C54.8189 61.1813 55.0003 61.8587 55.0003 62.712C55.0003 63.5333 54.8189 64.2107 54.4563 64.744C54.0936 65.2773 53.5869 65.6773 52.9363 65.944C52.2856 66.2 51.5336 66.328 50.6803 66.328H48.7443V71H47.2723ZM48.7443 65.128H50.4883C51.5123 65.128 52.2749 64.936 52.7763 64.552C53.2776 64.168 53.5283 63.5547 53.5283 62.712C53.5283 61.8587 53.2669 61.272 52.7443 60.952C52.2323 60.632 51.4589 60.472 50.4243 60.472H48.7443V65.128ZM57.3973 71V59.272H64.1493V60.52H58.8693V64.2H63.3173V65.464H58.8693V69.736H64.3253V71H57.3973ZM66.8191 71V59.272H70.4831C71.2831 59.272 71.9871 59.3787 72.5951 59.592C73.2138 59.7947 73.6991 60.136 74.0511 60.616C74.4031 61.096 74.5791 61.7413 74.5791 62.552C74.5791 63.3307 74.4031 63.9813 74.0511 64.504C73.6991 65.016 73.2138 65.4 72.5951 65.656C71.9871 65.9013 71.2831 66.024 70.4831 66.024H68.2911V71H66.8191ZM68.2911 64.84H70.2591C71.1765 64.84 71.8805 64.6533 72.3711 64.28C72.8618 63.896 73.1071 63.32 73.1071 62.552C73.1071 61.784 72.8618 61.2453 72.3711 60.936C71.8805 60.6267 71.1765 60.472 70.2591 60.472H68.2911V64.84ZM73.2511 71L70.1791 65.64L71.3471 64.856L74.9151 71H73.2511ZM84.9695 71.208C84.2442 71.208 83.5668 71.0747 82.9375 70.808C82.3188 70.5307 81.7802 70.1307 81.3215 69.608C80.8628 69.0853 80.5055 68.4507 80.2495 67.704C79.9935 66.9467 79.8655 66.0933 79.8655 65.144C79.8655 64.1947 79.9935 63.3467 80.2495 62.6C80.5162 61.8427 80.8842 61.2027 81.3535 60.68C81.8228 60.1573 82.3722 59.7573 83.0015 59.48C83.6308 59.2027 84.3188 59.064 85.0655 59.064C85.7802 59.064 86.4095 59.2133 86.9535 59.512C87.4975 59.8 87.9402 60.1307 88.2815 60.504L87.4815 61.464C87.1722 61.1333 86.8202 60.8667 86.4255 60.664C86.0308 60.4613 85.5828 60.36 85.0815 60.36C84.3455 60.36 83.7002 60.552 83.1455 60.936C82.5908 61.32 82.1588 61.8693 81.8495 62.584C81.5402 63.288 81.3855 64.1253 81.3855 65.096C81.3855 66.088 81.5348 66.9467 81.8335 67.672C82.1322 68.3867 82.5535 68.9413 83.0975 69.336C83.6415 69.72 84.2868 69.912 85.0335 69.912C85.5882 69.912 86.0842 69.7947 86.5215 69.56C86.9695 69.3253 87.3802 69 87.7535 68.584L88.5695 69.528C88.1108 70.0613 87.5882 70.4773 87.0015 70.776C86.4148 71.064 85.7375 71.208 84.9695 71.208ZM89.2046 71L93.1726 59.272H94.8206L98.8046 71H97.2366L95.1886 64.44C94.9753 63.768 94.7726 63.112 94.5806 62.472C94.3886 61.8213 94.1966 61.1547 94.0046 60.472H93.9406C93.7593 61.1547 93.5673 61.8213 93.3646 62.472C93.1726 63.112 92.9753 63.768 92.7726 64.44L90.6926 71H89.2046ZM91.2686 67.416V66.248H96.6766V67.416H91.2686ZM103.739 71.208C102.907 71.208 102.139 71.0533 101.435 70.744C100.742 70.4347 100.144 70.0133 99.643 69.48L100.523 68.456C100.939 68.8933 101.43 69.2453 101.995 69.512C102.56 69.7787 103.147 69.912 103.755 69.912C104.534 69.912 105.136 69.736 105.563 69.384C106 69.032 106.219 68.5733 106.219 68.008C106.219 67.592 106.128 67.2613 105.947 67.016C105.776 66.7707 105.542 66.568 105.243 66.408C104.955 66.2373 104.624 66.072 104.251 65.912L102.571 65.176C102.208 65.016 101.84 64.8133 101.467 64.568C101.104 64.3227 100.8 64.0027 100.555 63.608C100.31 63.2133 100.187 62.7333 100.187 62.168C100.187 61.56 100.347 61.0267 100.667 60.568C100.987 60.0987 101.424 59.7307 101.979 59.464C102.534 59.1973 103.168 59.064 103.883 59.064C104.587 59.064 105.232 59.1973 105.819 59.464C106.416 59.7307 106.918 60.0773 107.323 60.504L106.555 61.448C106.192 61.1173 105.792 60.856 105.355 60.664C104.928 60.4613 104.438 60.36 103.883 60.36C103.222 60.36 102.688 60.5147 102.283 60.824C101.888 61.1227 101.691 61.5333 101.691 62.056C101.691 62.44 101.787 62.7547 101.979 63C102.182 63.2453 102.432 63.4427 102.731 63.592C103.03 63.7413 103.334 63.8853 103.643 64.024L105.307 64.744C105.755 64.936 106.16 65.1653 106.523 65.432C106.896 65.6987 107.19 66.0293 107.403 66.424C107.616 66.8187 107.723 67.304 107.723 67.88C107.723 68.4987 107.563 69.064 107.243 69.576C106.923 70.0773 106.464 70.4773 105.867 70.776C105.27 71.064 104.56 71.208 103.739 71.208ZM110.022 71V59.272H116.774V60.52H111.494V64.2H115.942V65.464H111.494V69.736H116.95V71H110.022Z" fill="#1A1A1A"/>
<path d="M27.008 107.208C26.6453 107.208 26.352 107.133 26.128 106.984C25.904 106.835 25.7387 106.616 25.632 106.328C25.5253 106.029 25.472 105.677 25.472 105.272V94.264H26.944V105.368C26.944 105.592 26.9813 105.752 27.056 105.848C27.1413 105.944 27.2373 105.992 27.344 105.992C27.3867 105.992 27.4293 105.992 27.472 105.992C27.5147 105.981 27.5733 105.971 27.648 105.96L27.856 107.08C27.7493 107.112 27.632 107.139 27.504 107.16C27.376 107.192 27.2107 107.208 27.008 107.208ZM33.3949 107.208C32.6909 107.208 32.0295 107.032 31.4109 106.68C30.7922 106.317 30.2962 105.8 29.9229 105.128C29.5602 104.445 29.3789 103.624 29.3789 102.664C29.3789 101.693 29.5602 100.872 29.9229 100.2C30.2962 99.5173 30.7922 98.9947 31.4109 98.632C32.0295 98.2693 32.6909 98.088 33.3949 98.088C33.9282 98.088 34.4349 98.1893 34.9149 98.392C35.4055 98.5947 35.8375 98.8933 36.2109 99.288C36.5842 99.6827 36.8775 100.163 37.0909 100.728C37.3042 101.293 37.4109 101.939 37.4109 102.664C37.4109 103.624 37.2242 104.445 36.8509 105.128C36.4775 105.8 35.9869 106.317 35.3789 106.68C34.7709 107.032 34.1095 107.208 33.3949 107.208ZM33.3949 105.992C33.8962 105.992 34.3335 105.853 34.7069 105.576C35.0909 105.299 35.3895 104.909 35.6029 104.408C35.8162 103.907 35.9229 103.325 35.9229 102.664C35.9229 101.992 35.8162 101.405 35.6029 100.904C35.3895 100.403 35.0909 100.013 34.7069 99.736C34.3335 99.4587 33.8962 99.32 33.3949 99.32C32.8935 99.32 32.4509 99.4587 32.0669 99.736C31.6935 100.013 31.4002 100.403 31.1869 100.904C30.9842 101.405 30.8829 101.992 30.8829 102.664C30.8829 103.325 30.9842 103.907 31.1869 104.408C31.4002 104.909 31.6935 105.299 32.0669 105.576C32.4509 105.853 32.8935 105.992 33.3949 105.992ZM40.9886 107L38.5726 98.312H40.0606L41.3566 103.336C41.4526 103.752 41.538 104.157 41.6126 104.552C41.698 104.947 41.7833 105.347 41.8686 105.752H41.9486C42.0446 105.347 42.1353 104.947 42.2206 104.552C42.3166 104.157 42.418 103.752 42.5246 103.336L43.8846 98.312H45.3086L46.6686 103.336C46.7753 103.752 46.8766 104.157 46.9726 104.552C47.0793 104.947 47.1806 105.347 47.2766 105.752H47.3566C47.442 105.347 47.5273 104.947 47.6126 104.552C47.698 104.157 47.7886 103.752 47.8846 103.336L49.1486 98.312H50.5566L48.2046 107H46.4286L45.1806 102.312C45.074 101.907 44.9726 101.501 44.8766 101.096C44.7806 100.68 44.6846 100.253 44.5886 99.816H44.5086C44.4126 100.253 44.3166 100.68 44.2206 101.096C44.1353 101.512 44.034 101.928 43.9166 102.344L42.6846 107H40.9886ZM55.8514 107.208C55.0727 107.208 54.3687 107.027 53.7394 106.664C53.11 106.301 52.6087 105.784 52.2354 105.112C51.8727 104.429 51.6914 103.613 51.6914 102.664C51.6914 101.949 51.798 101.315 52.0114 100.76C52.2247 100.195 52.5127 99.7147 52.8754 99.32C53.2487 98.9147 53.67 98.6107 54.1394 98.408C54.6087 98.1947 55.0887 98.088 55.5794 98.088C56.326 98.088 56.9554 98.2533 57.4674 98.584C57.9794 98.9147 58.3687 99.3893 58.6354 100.008C58.9127 100.616 59.0514 101.336 59.0514 102.168C59.0514 102.328 59.046 102.477 59.0354 102.616C59.0247 102.755 59.0087 102.883 58.9874 103H53.1314C53.1634 103.619 53.302 104.157 53.5474 104.616C53.8034 105.064 54.1394 105.416 54.5554 105.672C54.9714 105.917 55.4567 106.04 56.0114 106.04C56.438 106.04 56.822 105.981 57.1634 105.864C57.5154 105.736 57.8567 105.565 58.1874 105.352L58.6994 106.328C58.326 106.573 57.9047 106.781 57.4354 106.952C56.966 107.123 56.438 107.208 55.8514 107.208ZM53.1154 101.96H57.7714C57.7714 101.085 57.5794 100.419 57.1954 99.96C56.822 99.4907 56.294 99.256 55.6114 99.256C55.206 99.256 54.822 99.3627 54.4594 99.576C54.1074 99.7893 53.8087 100.093 53.5634 100.488C53.3287 100.883 53.1794 101.373 53.1154 101.96ZM61.1908 107V98.312H62.3908L62.5348 99.896H62.5668C62.8654 99.3413 63.2281 98.904 63.6548 98.584C64.0921 98.2533 64.5508 98.088 65.0308 98.088C65.2334 98.088 65.4041 98.104 65.5428 98.136C65.6921 98.1573 65.8308 98.2053 65.9588 98.28L65.6868 99.544C65.5374 99.5013 65.4041 99.4693 65.2868 99.448C65.1694 99.416 65.0201 99.4 64.8388 99.4C64.4868 99.4 64.1081 99.5547 63.7028 99.864C63.2974 100.163 62.9508 100.68 62.6628 101.416V107H61.1908ZM74.396 107.208C73.628 107.208 72.9347 107.032 72.316 106.68C71.708 106.317 71.2227 105.8 70.86 105.128C70.508 104.445 70.332 103.624 70.332 102.664C70.332 101.693 70.524 100.872 70.908 100.2C71.292 99.5173 71.804 98.9947 72.444 98.632C73.084 98.2693 73.772 98.088 74.508 98.088C75.0733 98.088 75.5587 98.1893 75.964 98.392C76.38 98.5947 76.7373 98.8347 77.036 99.112L76.3 100.072C76.0547 99.848 75.788 99.6667 75.5 99.528C75.2227 99.3893 74.9133 99.32 74.572 99.32C74.0493 99.32 73.58 99.4587 73.164 99.736C72.748 100.013 72.4227 100.403 72.188 100.904C71.9533 101.405 71.836 101.992 71.836 102.664C71.836 103.325 71.948 103.907 72.172 104.408C72.4067 104.909 72.7213 105.299 73.116 105.576C73.5213 105.853 73.9907 105.992 74.524 105.992C74.9293 105.992 75.3027 105.912 75.644 105.752C75.9853 105.581 76.2947 105.373 76.572 105.128L77.212 106.12C76.8173 106.461 76.38 106.728 75.9 106.92C75.42 107.112 74.9187 107.208 74.396 107.208ZM80.9095 107.208C80.4295 107.208 79.9975 107.112 79.6135 106.92C79.2295 106.728 78.9255 106.451 78.7015 106.088C78.4882 105.715 78.3815 105.267 78.3815 104.744C78.3815 103.795 78.8028 103.069 79.6455 102.568C80.4988 102.056 81.8535 101.699 83.7095 101.496C83.7095 101.123 83.6562 100.771 83.5495 100.44C83.4535 100.099 83.2775 99.8267 83.0215 99.624C82.7655 99.4107 82.3975 99.304 81.9175 99.304C81.4162 99.304 80.9415 99.4053 80.4935 99.608C80.0562 99.8 79.6615 100.008 79.3095 100.232L78.7495 99.224C79.0162 99.0533 79.3255 98.8827 79.6775 98.712C80.0295 98.5307 80.4135 98.3813 80.8295 98.264C81.2455 98.1467 81.6882 98.088 82.1575 98.088C82.8615 98.088 83.4322 98.2373 83.8695 98.536C84.3175 98.8347 84.6428 99.2507 84.8455 99.784C85.0588 100.307 85.1655 100.931 85.1655 101.656V107H83.9655L83.8375 105.96H83.7895C83.3842 106.301 82.9362 106.595 82.4455 106.84C81.9655 107.085 81.4535 107.208 80.9095 107.208ZM81.3255 106.024C81.7415 106.024 82.1362 105.928 82.5095 105.736C82.8935 105.544 83.2935 105.261 83.7095 104.888V102.472C82.7388 102.579 81.9655 102.733 81.3895 102.936C80.8135 103.128 80.4028 103.368 80.1575 103.656C79.9122 103.933 79.7895 104.264 79.7895 104.648C79.7895 105.149 79.9388 105.507 80.2375 105.72C80.5362 105.923 80.8988 106.024 81.3255 106.024ZM90.1971 107.208C89.5891 107.208 88.9971 107.096 88.4211 106.872C87.8558 106.637 87.3705 106.349 86.9651 106.008L87.6691 105.032C88.0531 105.341 88.4478 105.592 88.8531 105.784C89.2585 105.976 89.7225 106.072 90.2451 106.072C90.8211 106.072 91.2478 105.944 91.5251 105.688C91.8131 105.421 91.9571 105.096 91.9571 104.712C91.9571 104.413 91.8558 104.168 91.6531 103.976C91.4611 103.773 91.2105 103.603 90.9011 103.464C90.6025 103.315 90.2931 103.181 89.9731 103.064C89.5678 102.904 89.1678 102.728 88.7731 102.536C88.3891 102.333 88.0691 102.077 87.8131 101.768C87.5678 101.448 87.4451 101.043 87.4451 100.552C87.4451 100.083 87.5625 99.6667 87.7971 99.304C88.0318 98.9307 88.3731 98.6373 88.8211 98.424C89.2691 98.2 89.8078 98.088 90.4371 98.088C90.9705 98.088 91.4665 98.184 91.9251 98.376C92.3945 98.568 92.7945 98.8027 93.1251 99.08L92.4211 99.992C92.1225 99.7787 91.8131 99.5973 91.4931 99.448C91.1838 99.2987 90.8371 99.224 90.4531 99.224C89.8985 99.224 89.4878 99.352 89.2211 99.608C88.9651 99.8533 88.8371 100.147 88.8371 100.488C88.8371 100.755 88.9225 100.979 89.0931 101.16C89.2745 101.341 89.5091 101.496 89.7971 101.624C90.0851 101.741 90.3891 101.864 90.7091 101.992C91.0291 102.109 91.3438 102.237 91.6531 102.376C91.9731 102.515 92.2558 102.68 92.5011 102.872C92.7571 103.064 92.9598 103.304 93.1091 103.592C93.2691 103.869 93.3491 104.216 93.3491 104.632C93.3491 105.101 93.2265 105.533 92.9811 105.928C92.7465 106.323 92.3945 106.637 91.9251 106.872C91.4665 107.096 90.8905 107.208 90.1971 107.208ZM98.9295 107.208C98.1508 107.208 97.4468 107.027 96.8175 106.664C96.1882 106.301 95.6868 105.784 95.3135 105.112C94.9508 104.429 94.7695 103.613 94.7695 102.664C94.7695 101.949 94.8762 101.315 95.0895 100.76C95.3028 100.195 95.5908 99.7147 95.9535 99.32C96.3268 98.9147 96.7482 98.6107 97.2175 98.408C97.6868 98.1947 98.1668 98.088 98.6575 98.088C99.4042 98.088 100.034 98.2533 100.546 98.584C101.058 98.9147 101.447 99.3893 101.714 100.008C101.991 100.616 102.13 101.336 102.13 102.168C102.13 102.328 102.124 102.477 102.114 102.616C102.103 102.755 102.087 102.883 102.066 103H96.2095C96.2415 103.619 96.3802 104.157 96.6255 104.616C96.8815 105.064 97.2175 105.416 97.6335 105.672C98.0495 105.917 98.5348 106.04 99.0895 106.04C99.5162 106.04 99.9002 105.981 100.242 105.864C100.594 105.736 100.935 105.565 101.266 105.352L101.778 106.328C101.404 106.573 100.983 106.781 100.514 106.952C100.044 107.123 99.5162 107.208 98.9295 107.208ZM96.1935 101.96H100.85C100.85 101.085 100.658 100.419 100.274 99.96C99.9002 99.4907 99.3722 99.256 98.6895 99.256C98.2842 99.256 97.9002 99.3627 97.5375 99.576C97.1855 99.7893 96.8868 100.093 96.6415 100.488C96.4068 100.883 96.2575 101.373 96.1935 101.96Z" fill="#1A1A1A"/>
<path d="M28.048 143V132.52H24.496V131.272H33.088V132.52H29.536V143H28.048ZM35.0501 143V134.312H36.5221V143H35.0501ZM35.7861 132.52C35.4981 132.52 35.2635 132.435 35.0821 132.264C34.9115 132.083 34.8261 131.843 34.8261 131.544C34.8261 131.256 34.9115 131.027 35.0821 130.856C35.2635 130.685 35.4981 130.6 35.7861 130.6C36.0741 130.6 36.3088 130.685 36.4901 130.856C36.6715 131.027 36.7621 131.256 36.7621 131.544C36.7621 131.843 36.6715 132.083 36.4901 132.264C36.3088 132.435 36.0741 132.52 35.7861 132.52ZM42.1764 143.208C41.5684 143.208 41.083 143.091 40.7204 142.856C40.3577 142.611 40.0964 142.269 39.9364 141.832C39.787 141.395 39.7124 140.888 39.7124 140.312V135.496H38.4164V134.392L39.7924 134.312L39.9524 131.864H41.1684V134.312H43.5364V135.496H41.1684V140.36C41.1684 140.883 41.2644 141.293 41.4564 141.592C41.659 141.88 42.011 142.024 42.5124 142.024C42.6724 142.024 42.843 142.003 43.0244 141.96C43.2057 141.907 43.3657 141.848 43.5044 141.784L43.7924 142.888C43.547 142.973 43.2857 143.048 43.0084 143.112C42.731 143.176 42.4537 143.208 42.1764 143.208ZM47.0236 143.208C46.661 143.208 46.3676 143.133 46.1436 142.984C45.9196 142.835 45.7543 142.616 45.6476 142.328C45.541 142.029 45.4876 141.677 45.4876 141.272V130.264H46.9596V141.368C46.9596 141.592 46.997 141.752 47.0716 141.848C47.157 141.944 47.253 141.992 47.3596 141.992C47.4023 141.992 47.445 141.992 47.4876 141.992C47.5303 141.981 47.589 141.971 47.6636 141.96L47.8716 143.08C47.765 143.112 47.6476 143.139 47.5196 143.16C47.3916 143.192 47.2263 143.208 47.0236 143.208ZM53.5545 143.208C52.7758 143.208 52.0718 143.027 51.4425 142.664C50.8132 142.301 50.3118 141.784 49.9385 141.112C49.5758 140.429 49.3945 139.613 49.3945 138.664C49.3945 137.949 49.5012 137.315 49.7145 136.76C49.9278 136.195 50.2158 135.715 50.5785 135.32C50.9518 134.915 51.3732 134.611 51.8425 134.408C52.3118 134.195 52.7918 134.088 53.2825 134.088C54.0292 134.088 54.6585 134.253 55.1705 134.584C55.6825 134.915 56.0718 135.389 56.3385 136.008C56.6158 136.616 56.7545 137.336 56.7545 138.168C56.7545 138.328 56.7492 138.477 56.7385 138.616C56.7278 138.755 56.7118 138.883 56.6905 139H50.8345C50.8665 139.619 51.0052 140.157 51.2505 140.616C51.5065 141.064 51.8425 141.416 52.2585 141.672C52.6745 141.917 53.1598 142.04 53.7145 142.04C54.1412 142.04 54.5252 141.981 54.8665 141.864C55.2185 141.736 55.5598 141.565 55.8905 141.352L56.4025 142.328C56.0292 142.573 55.6078 142.781 55.1385 142.952C54.6692 143.123 54.1412 143.208 53.5545 143.208ZM50.8185 137.96H55.4745C55.4745 137.085 55.2825 136.419 54.8985 135.96C54.5252 135.491 53.9972 135.256 53.3145 135.256C52.9092 135.256 52.5252 135.363 52.1625 135.576C51.8105 135.789 51.5118 136.093 51.2665 136.488C51.0318 136.883 50.8825 137.373 50.8185 137.96ZM67.032 143.208C66.3067 143.208 65.6293 143.075 65 142.808C64.3813 142.531 63.8427 142.131 63.384 141.608C62.9253 141.085 62.568 140.451 62.312 139.704C62.056 138.947 61.928 138.093 61.928 137.144C61.928 136.195 62.056 135.347 62.312 134.6C62.5787 133.843 62.9467 133.203 63.416 132.68C63.8853 132.157 64.4347 131.757 65.064 131.48C65.6933 131.203 66.3813 131.064 67.128 131.064C67.8427 131.064 68.472 131.213 69.016 131.512C69.56 131.8 70.0027 132.131 70.344 132.504L69.544 133.464C69.2347 133.133 68.8827 132.867 68.488 132.664C68.0933 132.461 67.6453 132.36 67.144 132.36C66.408 132.36 65.7627 132.552 65.208 132.936C64.6533 133.32 64.2213 133.869 63.912 134.584C63.6027 135.288 63.448 136.125 63.448 137.096C63.448 138.088 63.5973 138.947 63.896 139.672C64.1947 140.387 64.616 140.941 65.16 141.336C65.704 141.72 66.3493 141.912 67.096 141.912C67.6507 141.912 68.1467 141.795 68.584 141.56C69.032 141.325 69.4427 141 69.816 140.584L70.632 141.528C70.1733 142.061 69.6507 142.477 69.064 142.776C68.4773 143.064 67.8 143.208 67.032 143.208ZM74.6751 143.208C74.1951 143.208 73.7631 143.112 73.3791 142.92C72.9951 142.728 72.6911 142.451 72.4671 142.088C72.2538 141.715 72.1471 141.267 72.1471 140.744C72.1471 139.795 72.5685 139.069 73.4111 138.568C74.2645 138.056 75.6191 137.699 77.4751 137.496C77.4751 137.123 77.4218 136.771 77.3151 136.44C77.2191 136.099 77.0431 135.827 76.7871 135.624C76.5311 135.411 76.1631 135.304 75.6831 135.304C75.1818 135.304 74.7071 135.405 74.2591 135.608C73.8218 135.8 73.4271 136.008 73.0751 136.232L72.5151 135.224C72.7818 135.053 73.0911 134.883 73.4431 134.712C73.7951 134.531 74.1791 134.381 74.5951 134.264C75.0111 134.147 75.4538 134.088 75.9231 134.088C76.6271 134.088 77.1978 134.237 77.6351 134.536C78.0831 134.835 78.4085 135.251 78.6111 135.784C78.8245 136.307 78.9311 136.931 78.9311 137.656V143H77.7311L77.6031 141.96H77.5551C77.1498 142.301 76.7018 142.595 76.2111 142.84C75.7311 143.085 75.2191 143.208 74.6751 143.208ZM75.0911 142.024C75.5071 142.024 75.9018 141.928 76.2751 141.736C76.6591 141.544 77.0591 141.261 77.4751 140.888V138.472C76.5045 138.579 75.7311 138.733 75.1551 138.936C74.5791 139.128 74.1685 139.368 73.9231 139.656C73.6778 139.933 73.5551 140.264 73.5551 140.648C73.5551 141.149 73.7045 141.507 74.0031 141.72C74.3018 141.923 74.6645 142.024 75.0911 142.024ZM83.9628 143.208C83.3548 143.208 82.7628 143.096 82.1868 142.872C81.6214 142.637 81.1361 142.349 80.7308 142.008L81.4348 141.032C81.8188 141.341 82.2134 141.592 82.6188 141.784C83.0241 141.976 83.4881 142.072 84.0108 142.072C84.5868 142.072 85.0134 141.944 85.2908 141.688C85.5788 141.421 85.7228 141.096 85.7228 140.712C85.7228 140.413 85.6214 140.168 85.4188 139.976C85.2268 139.773 84.9761 139.603 84.6668 139.464C84.3681 139.315 84.0588 139.181 83.7388 139.064C83.3334 138.904 82.9334 138.728 82.5388 138.536C82.1548 138.333 81.8348 138.077 81.5788 137.768C81.3334 137.448 81.2108 137.043 81.2108 136.552C81.2108 136.083 81.3281 135.667 81.5628 135.304C81.7974 134.931 82.1388 134.637 82.5868 134.424C83.0348 134.2 83.5734 134.088 84.2028 134.088C84.7361 134.088 85.2321 134.184 85.6908 134.376C86.1601 134.568 86.5601 134.803 86.8908 135.08L86.1868 135.992C85.8881 135.779 85.5788 135.597 85.2588 135.448C84.9494 135.299 84.6028 135.224 84.2188 135.224C83.6641 135.224 83.2534 135.352 82.9868 135.608C82.7308 135.853 82.6028 136.147 82.6028 136.488C82.6028 136.755 82.6881 136.979 82.8588 137.16C83.0401 137.341 83.2748 137.496 83.5628 137.624C83.8508 137.741 84.1548 137.864 84.4748 137.992C84.7948 138.109 85.1094 138.237 85.4188 138.376C85.7388 138.515 86.0214 138.68 86.2668 138.872C86.5228 139.064 86.7254 139.304 86.8748 139.592C87.0348 139.869 87.1148 140.216 87.1148 140.632C87.1148 141.101 86.9921 141.533 86.7468 141.928C86.5121 142.323 86.1601 142.637 85.6908 142.872C85.2321 143.096 84.6561 143.208 83.9628 143.208ZM92.6951 143.208C91.9165 143.208 91.2125 143.027 90.5831 142.664C89.9538 142.301 89.4525 141.784 89.0791 141.112C88.7165 140.429 88.5351 139.613 88.5351 138.664C88.5351 137.949 88.6418 137.315 88.8551 136.76C89.0685 136.195 89.3565 135.715 89.7191 135.32C90.0925 134.915 90.5138 134.611 90.9831 134.408C91.4525 134.195 91.9325 134.088 92.4231 134.088C93.1698 134.088 93.7991 134.253 94.3111 134.584C94.8231 134.915 95.2125 135.389 95.4791 136.008C95.7565 136.616 95.8951 137.336 95.8951 138.168C95.8951 138.328 95.8898 138.477 95.8791 138.616C95.8685 138.755 95.8525 138.883 95.8311 139H89.9751C90.0071 139.619 90.1458 140.157 90.3911 140.616C90.6471 141.064 90.9831 141.416 91.3991 141.672C91.8151 141.917 92.3005 142.04 92.8551 142.04C93.2818 142.04 93.6658 141.981 94.0071 141.864C94.3591 141.736 94.7005 141.565 95.0311 141.352L95.5431 142.328C95.1698 142.573 94.7485 142.781 94.2791 142.952C93.8098 143.123 93.2818 143.208 92.6951 143.208ZM89.9591 137.96H94.6151C94.6151 137.085 94.4231 136.419 94.0391 135.96C93.6658 135.491 93.1378 135.256 92.4551 135.256C92.0498 135.256 91.6658 135.363 91.3031 135.576C90.9511 135.789 90.6525 136.093 90.4071 136.488C90.1725 136.883 90.0231 137.373 89.9591 137.96ZM103.037 143L100.557 131.272H102.077L103.309 137.656C103.426 138.285 103.543 138.92 103.661 139.56C103.778 140.189 103.895 140.824 104.013 141.464H104.077C104.215 140.824 104.354 140.189 104.493 139.56C104.631 138.92 104.77 138.285 104.909 137.656L106.525 131.272H107.885L109.517 137.656C109.655 138.285 109.794 138.92 109.933 139.56C110.071 140.189 110.215 140.824 110.365 141.464H110.445C110.551 140.824 110.658 140.189 110.765 139.56C110.871 138.92 110.978 138.285 111.085 137.656L112.349 131.272H113.757L111.341 143H109.549L107.773 135.928C107.666 135.459 107.565 135.011 107.469 134.584C107.383 134.147 107.293 133.704 107.197 133.256H107.133C107.047 133.704 106.951 134.147 106.845 134.584C106.738 135.011 106.637 135.459 106.541 135.928L104.797 143H103.037ZM119.036 143.208C118.332 143.208 117.67 143.032 117.052 142.68C116.433 142.317 115.937 141.8 115.564 141.128C115.201 140.445 115.02 139.624 115.02 138.664C115.02 137.693 115.201 136.872 115.564 136.2C115.937 135.517 116.433 134.995 117.052 134.632C117.67 134.269 118.332 134.088 119.036 134.088C119.569 134.088 120.076 134.189 120.556 134.392C121.046 134.595 121.478 134.893 121.852 135.288C122.225 135.683 122.518 136.163 122.732 136.728C122.945 137.293 123.052 137.939 123.052 138.664C123.052 139.624 122.865 140.445 122.492 141.128C122.118 141.8 121.628 142.317 121.02 142.68C120.412 143.032 119.75 143.208 119.036 143.208ZM119.036 141.992C119.537 141.992 119.974 141.853 120.348 141.576C120.732 141.299 121.03 140.909 121.244 140.408C121.457 139.907 121.564 139.325 121.564 138.664C121.564 137.992 121.457 137.405 121.244 136.904C121.03 136.403 120.732 136.013 120.348 135.736C119.974 135.459 119.537 135.32 119.036 135.32C118.534 135.32 118.092 135.459 117.708 135.736C117.334 136.013 117.041 136.403 116.828 136.904C116.625 137.405 116.524 137.992 116.524 138.664C116.524 139.325 116.625 139.907 116.828 140.408C117.041 140.909 117.334 141.299 117.708 141.576C118.092 141.853 118.534 141.992 119.036 141.992ZM125.363 143V134.312H126.563L126.707 135.896H126.739C127.037 135.341 127.4 134.904 127.827 134.584C128.264 134.253 128.723 134.088 129.203 134.088C129.405 134.088 129.576 134.104 129.715 134.136C129.864 134.157 130.003 134.205 130.131 134.28L129.859 135.544C129.709 135.501 129.576 135.469 129.459 135.448C129.341 135.416 129.192 135.4 129.011 135.4C128.659 135.4 128.28 135.555 127.875 135.864C127.469 136.163 127.123 136.68 126.835 137.416V143H125.363ZM134.307 143.208C133.582 143.208 132.947 143.032 132.403 142.68C131.87 142.328 131.454 141.816 131.155 141.144C130.867 140.461 130.723 139.635 130.723 138.664C130.723 137.725 130.899 136.915 131.251 136.232C131.603 135.549 132.062 135.021 132.627 134.648C133.203 134.275 133.822 134.088 134.483 134.088C134.995 134.088 135.432 134.179 135.795 134.36C136.168 134.531 136.547 134.776 136.931 135.096L136.851 133.608V130.264H138.323V143H137.123L136.995 141.976H136.947C136.606 142.317 136.211 142.611 135.763 142.856C135.315 143.091 134.83 143.208 134.307 143.208ZM134.627 141.976C135.032 141.976 135.416 141.88 135.779 141.688C136.142 141.485 136.499 141.187 136.851 140.792V136.232C136.488 135.901 136.136 135.667 135.795 135.528C135.454 135.389 135.102 135.32 134.739 135.32C134.28 135.32 133.859 135.464 133.475 135.752C133.102 136.029 132.798 136.419 132.563 136.92C132.339 137.411 132.227 137.987 132.227 138.648C132.227 139.341 132.323 139.939 132.515 140.44C132.707 140.941 132.979 141.325 133.331 141.592C133.694 141.848 134.126 141.976 134.627 141.976ZM143.541 143.208C142.933 143.208 142.341 143.096 141.765 142.872C141.2 142.637 140.714 142.349 140.309 142.008L141.013 141.032C141.397 141.341 141.792 141.592 142.197 141.784C142.602 141.976 143.066 142.072 143.589 142.072C144.165 142.072 144.592 141.944 144.869 141.688C145.157 141.421 145.301 141.096 145.301 140.712C145.301 140.413 145.2 140.168 144.997 139.976C144.805 139.773 144.554 139.603 144.245 139.464C143.946 139.315 143.637 139.181 143.317 139.064C142.912 138.904 142.512 138.728 142.117 138.536C141.733 138.333 141.413 138.077 141.157 137.768C140.912 137.448 140.789 137.043 140.789 136.552C140.789 136.083 140.906 135.667 141.141 135.304C141.376 134.931 141.717 134.637 142.165 134.424C142.613 134.2 143.152 134.088 143.781 134.088C144.314 134.088 144.81 134.184 145.269 134.376C145.738 134.568 146.138 134.803 146.469 135.08L145.765 135.992C145.466 135.779 145.157 135.597 144.837 135.448C144.528 135.299 144.181 135.224 143.797 135.224C143.242 135.224 142.832 135.352 142.565 135.608C142.309 135.853 142.181 136.147 142.181 136.488C142.181 136.755 142.266 136.979 142.437 137.16C142.618 137.341 142.853 137.496 143.141 137.624C143.429 137.741 143.733 137.864 144.053 137.992C144.373 138.109 144.688 138.237 144.997 138.376C145.317 138.515 145.6 138.68 145.845 138.872C146.101 139.064 146.304 139.304 146.453 139.592C146.613 139.869 146.693 140.216 146.693 140.632C146.693 141.101 146.57 141.533 146.325 141.928C146.09 142.323 145.738 142.637 145.269 142.872C144.81 143.096 144.234 143.208 143.541 143.208Z" fill="#1A1A1A"/>
<path d="M28.864 179.208C28.032 179.208 27.264 179.053 26.56 178.744C25.8667 178.435 25.2693 178.013 24.768 177.48L25.648 176.456C26.064 176.893 26.5547 177.245 27.12 177.512C27.6853 177.779 28.272 177.912 28.88 177.912C29.6587 177.912 30.2613 177.736 30.688 177.384C31.1253 177.032 31.344 176.573 31.344 176.008C31.344 175.592 31.2533 175.261 31.072 175.016C30.9013 174.771 30.6667 174.568 30.368 174.408C30.08 174.237 29.7493 174.072 29.376 173.912L27.696 173.176C27.3333 173.016 26.9653 172.813 26.592 172.568C26.2293 172.323 25.9253 172.003 25.68 171.608C25.4347 171.213 25.312 170.733 25.312 170.168C25.312 169.56 25.472 169.027 25.792 168.568C26.112 168.099 26.5493 167.731 27.104 167.464C27.6587 167.197 28.2933 167.064 29.008 167.064C29.712 167.064 30.3573 167.197 30.944 167.464C31.5413 167.731 32.0427 168.077 32.448 168.504L31.68 169.448C31.3173 169.117 30.9173 168.856 30.48 168.664C30.0533 168.461 29.5627 168.36 29.008 168.36C28.3467 168.36 27.8133 168.515 27.408 168.824C27.0133 169.123 26.816 169.533 26.816 170.056C26.816 170.44 26.912 170.755 27.104 171C27.3067 171.245 27.5573 171.443 27.856 171.592C28.1547 171.741 28.4587 171.885 28.768 172.024L30.432 172.744C30.88 172.936 31.2853 173.165 31.648 173.432C32.0213 173.699 32.3147 174.029 32.528 174.424C32.7413 174.819 32.848 175.304 32.848 175.88C32.848 176.499 32.688 177.064 32.368 177.576C32.048 178.077 31.5893 178.477 30.992 178.776C30.3947 179.064 29.6853 179.208 28.864 179.208ZM35.0033 179V170.312H36.2033L36.3473 171.576H36.3793C36.7633 171.16 37.1793 170.808 37.6273 170.52C38.0859 170.232 38.5713 170.088 39.0833 170.088C39.7553 170.088 40.2779 170.237 40.6513 170.536C41.0246 170.835 41.3019 171.24 41.4833 171.752C41.9419 171.261 42.4006 170.861 42.8593 170.552C43.3286 170.243 43.8299 170.088 44.3633 170.088C45.2486 170.088 45.9046 170.381 46.3313 170.968C46.7686 171.544 46.9873 172.387 46.9873 173.496V179H45.5313V173.688C45.5313 172.867 45.3979 172.275 45.1313 171.912C44.8753 171.549 44.4699 171.368 43.9153 171.368C43.5846 171.368 43.2379 171.48 42.8753 171.704C42.5233 171.917 42.1393 172.248 41.7233 172.696V179H40.2673V173.688C40.2673 172.867 40.1339 172.275 39.8673 171.912C39.6113 171.549 39.2059 171.368 38.6513 171.368C38.3206 171.368 37.9739 171.48 37.6113 171.704C37.2486 171.917 36.8699 172.248 36.4753 172.696V179H35.0033ZM51.8158 179.208C51.3358 179.208 50.9038 179.112 50.5198 178.92C50.1358 178.728 49.8318 178.451 49.6078 178.088C49.3944 177.715 49.2878 177.267 49.2878 176.744C49.2878 175.795 49.7091 175.069 50.5518 174.568C51.4051 174.056 52.7598 173.699 54.6158 173.496C54.6158 173.123 54.5624 172.771 54.4558 172.44C54.3598 172.099 54.1838 171.827 53.9278 171.624C53.6718 171.411 53.3038 171.304 52.8238 171.304C52.3224 171.304 51.8478 171.405 51.3998 171.608C50.9624 171.8 50.5678 172.008 50.2158 172.232L49.6558 171.224C49.9224 171.053 50.2318 170.883 50.5838 170.712C50.9358 170.531 51.3198 170.381 51.7358 170.264C52.1518 170.147 52.5944 170.088 53.0638 170.088C53.7678 170.088 54.3384 170.237 54.7758 170.536C55.2238 170.835 55.5491 171.251 55.7518 171.784C55.9651 172.307 56.0718 172.931 56.0718 173.656V179H54.8718L54.7438 177.96H54.6958C54.2904 178.301 53.8424 178.595 53.3518 178.84C52.8718 179.085 52.3598 179.208 51.8158 179.208ZM52.2318 178.024C52.6478 178.024 53.0424 177.928 53.4158 177.736C53.7998 177.544 54.1998 177.261 54.6158 176.888V174.472C53.6451 174.579 52.8718 174.733 52.2958 174.936C51.7198 175.128 51.3091 175.368 51.0638 175.656C50.8184 175.933 50.6957 176.264 50.6957 176.648C50.6957 177.149 50.8451 177.507 51.1438 177.72C51.4424 177.923 51.8051 178.024 52.2318 178.024ZM60.3674 179.208C60.0047 179.208 59.7114 179.133 59.4874 178.984C59.2634 178.835 59.098 178.616 58.9914 178.328C58.8847 178.029 58.8314 177.677 58.8314 177.272V166.264H60.3034V177.368C60.3034 177.592 60.3407 177.752 60.4154 177.848C60.5007 177.944 60.5967 177.992 60.7034 177.992C60.746 177.992 60.7887 177.992 60.8314 177.992C60.874 177.981 60.9327 177.971 61.0074 177.96L61.2154 179.08C61.1087 179.112 60.9914 179.139 60.8634 179.16C60.7354 179.192 60.57 179.208 60.3674 179.208ZM64.9143 179.208C64.5516 179.208 64.2583 179.133 64.0343 178.984C63.8103 178.835 63.6449 178.616 63.5383 178.328C63.4316 178.029 63.3783 177.677 63.3783 177.272V166.264H64.8503V177.368C64.8503 177.592 64.8876 177.752 64.9623 177.848C65.0476 177.944 65.1436 177.992 65.2503 177.992C65.2929 177.992 65.3356 177.992 65.3783 177.992C65.4209 177.981 65.4796 177.971 65.5543 177.96L65.7623 179.08C65.6556 179.112 65.5383 179.139 65.4103 179.16C65.2823 179.192 65.1169 179.208 64.9143 179.208ZM76.0633 179.208C75.3379 179.208 74.6606 179.075 74.0312 178.808C73.4126 178.531 72.8739 178.131 72.4153 177.608C71.9566 177.085 71.5993 176.451 71.3433 175.704C71.0873 174.947 70.9593 174.093 70.9593 173.144C70.9593 172.195 71.0873 171.347 71.3433 170.6C71.6099 169.843 71.9779 169.203 72.4473 168.68C72.9166 168.157 73.4659 167.757 74.0953 167.48C74.7246 167.203 75.4126 167.064 76.1593 167.064C76.8739 167.064 77.5033 167.213 78.0473 167.512C78.5913 167.8 79.0339 168.131 79.3753 168.504L78.5753 169.464C78.2659 169.133 77.9139 168.867 77.5193 168.664C77.1246 168.461 76.6766 168.36 76.1753 168.36C75.4393 168.36 74.7939 168.552 74.2393 168.936C73.6846 169.32 73.2526 169.869 72.9433 170.584C72.6339 171.288 72.4793 172.125 72.4793 173.096C72.4793 174.088 72.6286 174.947 72.9273 175.672C73.2259 176.387 73.6473 176.941 74.1913 177.336C74.7353 177.72 75.3806 177.912 76.1273 177.912C76.6819 177.912 77.1779 177.795 77.6153 177.56C78.0633 177.325 78.4739 177 78.8472 176.584L79.6633 177.528C79.2046 178.061 78.6819 178.477 78.0953 178.776C77.5086 179.064 76.8313 179.208 76.0633 179.208ZM83.7064 179.208C83.2264 179.208 82.7944 179.112 82.4104 178.92C82.0264 178.728 81.7224 178.451 81.4984 178.088C81.285 177.715 81.1784 177.267 81.1784 176.744C81.1784 175.795 81.5997 175.069 82.4424 174.568C83.2957 174.056 84.6504 173.699 86.5064 173.496C86.5064 173.123 86.453 172.771 86.3464 172.44C86.2504 172.099 86.0744 171.827 85.8184 171.624C85.5624 171.411 85.1944 171.304 84.7144 171.304C84.213 171.304 83.7384 171.405 83.2904 171.608C82.853 171.8 82.4584 172.008 82.1064 172.232L81.5464 171.224C81.813 171.053 82.1224 170.883 82.4744 170.712C82.8264 170.531 83.2104 170.381 83.6264 170.264C84.0424 170.147 84.485 170.088 84.9544 170.088C85.6584 170.088 86.229 170.237 86.6664 170.536C87.1144 170.835 87.4397 171.251 87.6424 171.784C87.8557 172.307 87.9624 172.931 87.9624 173.656V179H86.7624L86.6344 177.96H86.5864C86.181 178.301 85.733 178.595 85.2424 178.84C84.7624 179.085 84.2504 179.208 83.7064 179.208ZM84.1224 178.024C84.5384 178.024 84.933 177.928 85.3064 177.736C85.6904 177.544 86.0904 177.261 86.5064 176.888V174.472C85.5357 174.579 84.7624 174.733 84.1864 174.936C83.6104 175.128 83.1997 175.368 82.9544 175.656C82.709 175.933 82.5864 176.264 82.5864 176.648C82.5864 177.149 82.7357 177.507 83.0344 177.72C83.333 177.923 83.6957 178.024 84.1224 178.024ZM90.722 182.664V170.312H91.922L92.066 171.32H92.098C92.4927 170.989 92.9247 170.701 93.394 170.456C93.874 170.211 94.3647 170.088 94.866 170.088C95.6127 170.088 96.242 170.275 96.754 170.648C97.2767 171.011 97.666 171.523 97.922 172.184C98.1887 172.845 98.322 173.624 98.322 174.52C98.322 175.512 98.1407 176.36 97.778 177.064C97.426 177.757 96.962 178.291 96.386 178.664C95.8207 179.027 95.2073 179.208 94.546 179.208C94.1513 179.208 93.7513 179.123 93.346 178.952C92.9407 178.771 92.5407 178.52 92.146 178.2L92.194 179.72V182.664H90.722ZM94.306 177.976C94.786 177.976 95.2127 177.843 95.586 177.576C95.97 177.299 96.2687 176.904 96.482 176.392C96.6953 175.869 96.802 175.251 96.802 174.536C96.802 173.896 96.722 173.336 96.562 172.856C96.4127 172.365 96.1727 171.987 95.842 171.72C95.5113 171.453 95.0633 171.32 94.498 171.32C94.1353 171.32 93.762 171.421 93.378 171.624C93.0047 171.827 92.61 172.12 92.194 172.504V177.08C92.578 177.411 92.9567 177.645 93.33 177.784C93.7033 177.912 94.0287 177.976 94.306 177.976ZM102.838 179.208C102.23 179.208 101.638 179.096 101.062 178.872C100.496 178.637 100.011 178.349 99.6058 178.008L100.31 177.032C100.694 177.341 101.088 177.592 101.494 177.784C101.899 177.976 102.363 178.072 102.886 178.072C103.462 178.072 103.888 177.944 104.166 177.688C104.454 177.421 104.598 177.096 104.598 176.712C104.598 176.413 104.496 176.168 104.294 175.976C104.102 175.773 103.851 175.603 103.542 175.464C103.243 175.315 102.934 175.181 102.614 175.064C102.208 174.904 101.808 174.728 101.414 174.536C101.03 174.333 100.71 174.077 100.454 173.768C100.208 173.448 100.086 173.043 100.086 172.552C100.086 172.083 100.203 171.667 100.438 171.304C100.672 170.931 101.014 170.637 101.462 170.424C101.91 170.2 102.448 170.088 103.078 170.088C103.611 170.088 104.107 170.184 104.566 170.376C105.035 170.568 105.435 170.803 105.766 171.08L105.062 171.992C104.763 171.779 104.454 171.597 104.134 171.448C103.824 171.299 103.478 171.224 103.094 171.224C102.539 171.224 102.128 171.352 101.862 171.608C101.606 171.853 101.478 172.147 101.478 172.488C101.478 172.755 101.563 172.979 101.734 173.16C101.915 173.341 102.15 173.496 102.438 173.624C102.726 173.741 103.03 173.864 103.35 173.992C103.67 174.109 103.984 174.237 104.294 174.376C104.614 174.515 104.896 174.68 105.142 174.872C105.398 175.064 105.6 175.304 105.75 175.592C105.91 175.869 105.99 176.216 105.99 176.632C105.99 177.101 105.867 177.533 105.622 177.928C105.387 178.323 105.035 178.637 104.566 178.872C104.107 179.096 103.531 179.208 102.838 179.208Z" fill="#1A1A1A"/>
<path d="M28.864 215.208C28.032 215.208 27.264 215.053 26.56 214.744C25.8667 214.435 25.2693 214.013 24.768 213.48L25.648 212.456C26.064 212.893 26.5547 213.245 27.12 213.512C27.6853 213.779 28.272 213.912 28.88 213.912C29.6587 213.912 30.2613 213.736 30.688 213.384C31.1253 213.032 31.344 212.573 31.344 212.008C31.344 211.592 31.2533 211.261 31.072 211.016C30.9013 210.771 30.6667 210.568 30.368 210.408C30.08 210.237 29.7493 210.072 29.376 209.912L27.696 209.176C27.3333 209.016 26.9653 208.813 26.592 208.568C26.2293 208.323 25.9253 208.003 25.68 207.608C25.4347 207.213 25.312 206.733 25.312 206.168C25.312 205.56 25.472 205.027 25.792 204.568C26.112 204.099 26.5493 203.731 27.104 203.464C27.6587 203.197 28.2933 203.064 29.008 203.064C29.712 203.064 30.3573 203.197 30.944 203.464C31.5413 203.731 32.0427 204.077 32.448 204.504L31.68 205.448C31.3173 205.117 30.9173 204.856 30.48 204.664C30.0533 204.461 29.5627 204.36 29.008 204.36C28.3467 204.36 27.8133 204.515 27.408 204.824C27.0133 205.123 26.816 205.533 26.816 206.056C26.816 206.44 26.912 206.755 27.104 207C27.3067 207.245 27.5573 207.443 27.856 207.592C28.1547 207.741 28.4587 207.885 28.768 208.024L30.432 208.744C30.88 208.936 31.2853 209.165 31.648 209.432C32.0213 209.699 32.3147 210.029 32.528 210.424C32.7413 210.819 32.848 211.304 32.848 211.88C32.848 212.499 32.688 213.064 32.368 213.576C32.048 214.077 31.5893 214.477 30.992 214.776C30.3947 215.064 29.6853 215.208 28.864 215.208ZM35.0033 215V206.312H36.2033L36.3473 207.576H36.3793C36.7633 207.16 37.1793 206.808 37.6273 206.52C38.0859 206.232 38.5713 206.088 39.0833 206.088C39.7553 206.088 40.2779 206.237 40.6513 206.536C41.0246 206.835 41.3019 207.24 41.4833 207.752C41.9419 207.261 42.4006 206.861 42.8593 206.552C43.3286 206.243 43.8299 206.088 44.3633 206.088C45.2486 206.088 45.9046 206.381 46.3313 206.968C46.7686 207.544 46.9873 208.387 46.9873 209.496V215H45.5313V209.688C45.5313 208.867 45.3979 208.275 45.1313 207.912C44.8753 207.549 44.4699 207.368 43.9153 207.368C43.5846 207.368 43.2379 207.48 42.8753 207.704C42.5233 207.917 42.1393 208.248 41.7233 208.696V215H40.2673V209.688C40.2673 208.867 40.1339 208.275 39.8673 207.912C39.6113 207.549 39.2059 207.368 38.6513 207.368C38.3206 207.368 37.9739 207.48 37.6113 207.704C37.2486 207.917 36.8699 208.248 36.4753 208.696V215H35.0033ZM51.8158 215.208C51.3358 215.208 50.9038 215.112 50.5198 214.92C50.1358 214.728 49.8318 214.451 49.6078 214.088C49.3944 213.715 49.2878 213.267 49.2878 212.744C49.2878 211.795 49.7091 211.069 50.5518 210.568C51.4051 210.056 52.7598 209.699 54.6158 209.496C54.6158 209.123 54.5624 208.771 54.4558 208.44C54.3598 208.099 54.1838 207.827 53.9278 207.624C53.6718 207.411 53.3038 207.304 52.8238 207.304C52.3224 207.304 51.8478 207.405 51.3998 207.608C50.9624 207.8 50.5678 208.008 50.2158 208.232L49.6558 207.224C49.9224 207.053 50.2318 206.883 50.5838 206.712C50.9358 206.531 51.3198 206.381 51.7358 206.264C52.1518 206.147 52.5944 206.088 53.0638 206.088C53.7678 206.088 54.3384 206.237 54.7758 206.536C55.2238 206.835 55.5491 207.251 55.7518 207.784C55.9651 208.307 56.0718 208.931 56.0718 209.656V215H54.8718L54.7438 213.96H54.6958C54.2904 214.301 53.8424 214.595 53.3518 214.84C52.8718 215.085 52.3598 215.208 51.8158 215.208ZM52.2318 214.024C52.6478 214.024 53.0424 213.928 53.4158 213.736C53.7998 213.544 54.1998 213.261 54.6158 212.888V210.472C53.6451 210.579 52.8718 210.733 52.2958 210.936C51.7198 211.128 51.3091 211.368 51.0638 211.656C50.8184 211.933 50.6957 212.264 50.6957 212.648C50.6957 213.149 50.8451 213.507 51.1438 213.72C51.4424 213.923 51.8051 214.024 52.2318 214.024ZM60.3674 215.208C60.0047 215.208 59.7114 215.133 59.4874 214.984C59.2634 214.835 59.098 214.616 58.9914 214.328C58.8847 214.029 58.8314 213.677 58.8314 213.272V202.264H60.3034V213.368C60.3034 213.592 60.3407 213.752 60.4154 213.848C60.5007 213.944 60.5967 213.992 60.7034 213.992C60.746 213.992 60.7887 213.992 60.8314 213.992C60.874 213.981 60.9327 213.971 61.0074 213.96L61.2154 215.08C61.1087 215.112 60.9914 215.139 60.8634 215.16C60.7354 215.192 60.57 215.208 60.3674 215.208ZM64.9143 215.208C64.5516 215.208 64.2583 215.133 64.0343 214.984C63.8103 214.835 63.6449 214.616 63.5383 214.328C63.4316 214.029 63.3783 213.677 63.3783 213.272V202.264H64.8503V213.368C64.8503 213.592 64.8876 213.752 64.9623 213.848C65.0476 213.944 65.1436 213.992 65.2503 213.992C65.2929 213.992 65.3356 213.992 65.3783 213.992C65.4209 213.981 65.4796 213.971 65.5543 213.96L65.7623 215.08C65.6556 215.112 65.5383 215.139 65.4103 215.16C65.2823 215.192 65.1169 215.208 64.9143 215.208ZM76.0633 215.208C75.3379 215.208 74.6606 215.075 74.0312 214.808C73.4126 214.531 72.8739 214.131 72.4153 213.608C71.9566 213.085 71.5993 212.451 71.3433 211.704C71.0873 210.947 70.9593 210.093 70.9593 209.144C70.9593 208.195 71.0873 207.347 71.3433 206.6C71.6099 205.843 71.9779 205.203 72.4473 204.68C72.9166 204.157 73.4659 203.757 74.0953 203.48C74.7246 203.203 75.4126 203.064 76.1593 203.064C76.8739 203.064 77.5033 203.213 78.0473 203.512C78.5913 203.8 79.0339 204.131 79.3753 204.504L78.5753 205.464C78.2659 205.133 77.9139 204.867 77.5193 204.664C77.1246 204.461 76.6766 204.36 76.1753 204.36C75.4393 204.36 74.7939 204.552 74.2393 204.936C73.6846 205.32 73.2526 205.869 72.9433 206.584C72.6339 207.288 72.4793 208.125 72.4793 209.096C72.4793 210.088 72.6286 210.947 72.9273 211.672C73.2259 212.387 73.6473 212.941 74.1913 213.336C74.7353 213.72 75.3806 213.912 76.1273 213.912C76.6819 213.912 77.1779 213.795 77.6153 213.56C78.0633 213.325 78.4739 213 78.8472 212.584L79.6633 213.528C79.2046 214.061 78.6819 214.477 78.0953 214.776C77.5086 215.064 76.8313 215.208 76.0633 215.208ZM83.7064 215.208C83.2264 215.208 82.7944 215.112 82.4104 214.92C82.0264 214.728 81.7224 214.451 81.4984 214.088C81.285 213.715 81.1784 213.267 81.1784 212.744C81.1784 211.795 81.5997 211.069 82.4424 210.568C83.2957 210.056 84.6504 209.699 86.5064 209.496C86.5064 209.123 86.453 208.771 86.3464 208.44C86.2504 208.099 86.0744 207.827 85.8184 207.624C85.5624 207.411 85.1944 207.304 84.7144 207.304C84.213 207.304 83.7384 207.405 83.2904 207.608C82.853 207.8 82.4584 208.008 82.1064 208.232L81.5464 207.224C81.813 207.053 82.1224 206.883 82.4744 206.712C82.8264 206.531 83.2104 206.381 83.6264 206.264C84.0424 206.147 84.485 206.088 84.9544 206.088C85.6584 206.088 86.229 206.237 86.6664 206.536C87.1144 206.835 87.4397 207.251 87.6424 207.784C87.8557 208.307 87.9624 208.931 87.9624 209.656V215H86.7624L86.6344 213.96H86.5864C86.181 214.301 85.733 214.595 85.2424 214.84C84.7624 215.085 84.2504 215.208 83.7064 215.208ZM84.1224 214.024C84.5384 214.024 84.933 213.928 85.3064 213.736C85.6904 213.544 86.0904 213.261 86.5064 212.888V210.472C85.5357 210.579 84.7624 210.733 84.1864 210.936C83.6104 211.128 83.1997 211.368 82.9544 211.656C82.709 211.933 82.5864 212.264 82.5864 212.648C82.5864 213.149 82.7357 213.507 83.0344 213.72C83.333 213.923 83.6957 214.024 84.1224 214.024ZM90.722 218.664V206.312H91.922L92.066 207.32H92.098C92.4927 206.989 92.9247 206.701 93.394 206.456C93.874 206.211 94.3647 206.088 94.866 206.088C95.6127 206.088 96.242 206.275 96.754 206.648C97.2767 207.011 97.666 207.523 97.922 208.184C98.1887 208.845 98.322 209.624 98.322 210.52C98.322 211.512 98.1407 212.36 97.778 213.064C97.426 213.757 96.962 214.291 96.386 214.664C95.8207 215.027 95.2073 215.208 94.546 215.208C94.1513 215.208 93.7513 215.123 93.346 214.952C92.9407 214.771 92.5407 214.52 92.146 214.2L92.194 215.72V218.664H90.722ZM94.306 213.976C94.786 213.976 95.2127 213.843 95.586 213.576C95.97 213.299 96.2687 212.904 96.482 212.392C96.6953 211.869 96.802 211.251 96.802 210.536C96.802 209.896 96.722 209.336 96.562 208.856C96.4127 208.365 96.1727 207.987 95.842 207.72C95.5113 207.453 95.0633 207.32 94.498 207.32C94.1353 207.32 93.762 207.421 93.378 207.624C93.0047 207.827 92.61 208.12 92.194 208.504V213.08C92.578 213.411 92.9567 213.645 93.33 213.784C93.7033 213.912 94.0287 213.976 94.306 213.976ZM102.838 215.208C102.23 215.208 101.638 215.096 101.062 214.872C100.496 214.637 100.011 214.349 99.6058 214.008L100.31 213.032C100.694 213.341 101.088 213.592 101.494 213.784C101.899 213.976 102.363 214.072 102.886 214.072C103.462 214.072 103.888 213.944 104.166 213.688C104.454 213.421 104.598 213.096 104.598 212.712C104.598 212.413 104.496 212.168 104.294 211.976C104.102 211.773 103.851 211.603 103.542 211.464C103.243 211.315 102.934 211.181 102.614 211.064C102.208 210.904 101.808 210.728 101.414 210.536C101.03 210.333 100.71 210.077 100.454 209.768C100.208 209.448 100.086 209.043 100.086 208.552C100.086 208.083 100.203 207.667 100.438 207.304C100.672 206.931 101.014 206.637 101.462 206.424C101.91 206.2 102.448 206.088 103.078 206.088C103.611 206.088 104.107 206.184 104.566 206.376C105.035 206.568 105.435 206.803 105.766 207.08L105.062 207.992C104.763 207.779 104.454 207.597 104.134 207.448C103.824 207.299 103.478 207.224 103.094 207.224C102.539 207.224 102.128 207.352 101.862 207.608C101.606 207.853 101.478 208.147 101.478 208.488C101.478 208.755 101.563 208.979 101.734 209.16C101.915 209.341 102.15 209.496 102.438 209.624C102.726 209.741 103.03 209.864 103.35 209.992C103.67 210.109 103.984 210.237 104.294 210.376C104.614 210.515 104.896 210.68 105.142 210.872C105.398 211.064 105.6 211.304 105.75 211.592C105.91 211.869 105.99 212.216 105.99 212.632C105.99 213.101 105.867 213.533 105.622 213.928C105.387 214.323 105.035 214.637 104.566 214.872C104.107 215.096 103.531 215.208 102.838 215.208ZM111.772 215V203.272H118.524V204.52H113.244V208.488H117.724V209.736H113.244V215H111.772ZM123.551 215.208C122.847 215.208 122.186 215.032 121.567 214.68C120.948 214.317 120.452 213.8 120.079 213.128C119.716 212.445 119.535 211.624 119.535 210.664C119.535 209.693 119.716 208.872 120.079 208.2C120.452 207.517 120.948 206.995 121.567 206.632C122.186 206.269 122.847 206.088 123.551 206.088C124.084 206.088 124.591 206.189 125.071 206.392C125.562 206.595 125.994 206.893 126.367 207.288C126.74 207.683 127.034 208.163 127.247 208.728C127.46 209.293 127.567 209.939 127.567 210.664C127.567 211.624 127.38 212.445 127.007 213.128C126.634 213.8 126.143 214.317 125.535 214.68C124.927 215.032 124.266 215.208 123.551 215.208ZM123.551 213.992C124.052 213.992 124.49 213.853 124.863 213.576C125.247 213.299 125.546 212.909 125.759 212.408C125.972 211.907 126.079 211.325 126.079 210.664C126.079 209.992 125.972 209.405 125.759 208.904C125.546 208.403 125.247 208.013 124.863 207.736C124.49 207.459 124.052 207.32 123.551 207.32C123.05 207.32 122.607 207.459 122.223 207.736C121.85 208.013 121.556 208.403 121.343 208.904C121.14 209.405 121.039 209.992 121.039 210.664C121.039 211.325 121.14 211.907 121.343 212.408C121.556 212.909 121.85 213.299 122.223 213.576C122.607 213.853 123.05 213.992 123.551 213.992ZM129.878 215V206.312H131.078L131.222 207.896H131.254C131.553 207.341 131.916 206.904 132.342 206.584C132.78 206.253 133.238 206.088 133.718 206.088C133.921 206.088 134.092 206.104 134.23 206.136C134.38 206.157 134.518 206.205 134.646 206.28L134.374 207.544C134.225 207.501 134.092 207.469 133.974 207.448C133.857 207.416 133.708 207.4 133.526 207.4C133.174 207.4 132.796 207.555 132.39 207.864C131.985 208.163 131.638 208.68 131.35 209.416V215H129.878ZM139.287 215.208C138.519 215.208 137.825 215.032 137.207 214.68C136.599 214.317 136.113 213.8 135.751 213.128C135.399 212.445 135.223 211.624 135.223 210.664C135.223 209.693 135.415 208.872 135.799 208.2C136.183 207.517 136.695 206.995 137.335 206.632C137.975 206.269 138.663 206.088 139.399 206.088C139.964 206.088 140.449 206.189 140.855 206.392C141.271 206.595 141.628 206.835 141.927 207.112L141.191 208.072C140.945 207.848 140.679 207.667 140.391 207.528C140.113 207.389 139.804 207.32 139.463 207.32C138.94 207.32 138.471 207.459 138.055 207.736C137.639 208.013 137.313 208.403 137.079 208.904C136.844 209.405 136.727 209.992 136.727 210.664C136.727 211.325 136.839 211.907 137.063 212.408C137.297 212.909 137.612 213.299 138.007 213.576C138.412 213.853 138.881 213.992 139.415 213.992C139.82 213.992 140.193 213.912 140.535 213.752C140.876 213.581 141.185 213.373 141.463 213.128L142.103 214.12C141.708 214.461 141.271 214.728 140.791 214.92C140.311 215.112 139.809 215.208 139.287 215.208ZM147.117 215.208C146.338 215.208 145.634 215.027 145.005 214.664C144.376 214.301 143.874 213.784 143.501 213.112C143.138 212.429 142.957 211.613 142.957 210.664C142.957 209.949 143.064 209.315 143.277 208.76C143.49 208.195 143.778 207.715 144.141 207.32C144.514 206.915 144.936 206.611 145.405 206.408C145.874 206.195 146.354 206.088 146.845 206.088C147.592 206.088 148.221 206.253 148.733 206.584C149.245 206.915 149.634 207.389 149.901 208.008C150.178 208.616 150.317 209.336 150.317 210.168C150.317 210.328 150.312 210.477 150.301 210.616C150.29 210.755 150.274 210.883 150.253 211H144.397C144.429 211.619 144.568 212.157 144.813 212.616C145.069 213.064 145.405 213.416 145.821 213.672C146.237 213.917 146.722 214.04 147.277 214.04C147.704 214.04 148.088 213.981 148.429 213.864C148.781 213.736 149.122 213.565 149.453 213.352L149.965 214.328C149.592 214.573 149.17 214.781 148.701 214.952C148.232 215.123 147.704 215.208 147.117 215.208ZM144.381 209.96H149.037C149.037 209.085 148.845 208.419 148.461 207.96C148.088 207.491 147.56 207.256 146.877 207.256C146.472 207.256 146.088 207.363 145.725 207.576C145.373 207.789 145.074 208.093 144.829 208.488C144.594 208.883 144.445 209.373 144.381 209.96ZM155.416 215.208C154.691 215.208 154.056 215.032 153.512 214.68C152.979 214.328 152.563 213.816 152.264 213.144C151.976 212.461 151.832 211.635 151.832 210.664C151.832 209.725 152.008 208.915 152.36 208.232C152.712 207.549 153.171 207.021 153.736 206.648C154.312 206.275 154.931 206.088 155.592 206.088C156.104 206.088 156.542 206.179 156.904 206.36C157.278 206.531 157.656 206.776 158.04 207.096L157.96 205.608V202.264H159.432V215H158.232L158.104 213.976H158.056C157.715 214.317 157.32 214.611 156.872 214.856C156.424 215.091 155.939 215.208 155.416 215.208ZM155.736 213.976C156.142 213.976 156.526 213.88 156.888 213.688C157.251 213.485 157.608 213.187 157.96 212.792V208.232C157.598 207.901 157.246 207.667 156.904 207.528C156.563 207.389 156.211 207.32 155.848 207.32C155.39 207.32 154.968 207.464 154.584 207.752C154.211 208.029 153.907 208.419 153.672 208.92C153.448 209.411 153.336 209.987 153.336 210.648C153.336 211.341 153.432 211.939 153.624 212.44C153.816 212.941 154.088 213.325 154.44 213.592C154.803 213.848 155.235 213.976 155.736 213.976Z" fill="#1A1A1A"/>
</svg>
