<svg width="720" height="140" viewBox="0 0 720 140" fill="none" xmlns="http://www.w3.org/2000/svg">
<rect width="720" height="140" fill="#F7F7F7"/>
<path d="M25.616 35V23.272H27.12L31.408 30.664L32.672 33.08H32.752C32.6987 32.4933 32.6507 31.88 32.608 31.24C32.5653 30.6 32.544 29.976 32.544 29.368V23.272H33.952V35H32.432L28.16 27.592L26.896 25.192H26.832C26.864 25.7787 26.9013 26.3813 26.944 27C26.9867 27.608 27.008 28.2213 27.008 28.84V35H25.616ZM40.4105 35.208C39.7065 35.208 39.0452 35.032 38.4265 34.68C37.8078 34.3173 37.3118 33.8 36.9385 33.128C36.5758 32.4453 36.3945 31.624 36.3945 30.664C36.3945 29.6933 36.5758 28.872 36.9385 28.2C37.3118 27.5173 37.8078 26.9947 38.4265 26.632C39.0452 26.2693 39.7065 26.088 40.4105 26.088C40.9438 26.088 41.4505 26.1893 41.9305 26.392C42.4212 26.5947 42.8532 26.8933 43.2265 27.288C43.5998 27.6827 43.8932 28.1627 44.1065 28.728C44.3198 29.2933 44.4265 29.9387 44.4265 30.664C44.4265 31.624 44.2398 32.4453 43.8665 33.128C43.4932 33.8 43.0025 34.3173 42.3945 34.68C41.7865 35.032 41.1252 35.208 40.4105 35.208ZM40.4105 33.992C40.9118 33.992 41.3492 33.8533 41.7225 33.576C42.1065 33.2987 42.4052 32.9093 42.6185 32.408C42.8318 31.9067 42.9385 31.3253 42.9385 30.664C42.9385 29.992 42.8318 29.4053 42.6185 28.904C42.4052 28.4027 42.1065 28.0133 41.7225 27.736C41.3492 27.4587 40.9118 27.32 40.4105 27.32C39.9092 27.32 39.4665 27.4587 39.0825 27.736C38.7092 28.0133 38.4158 28.4027 38.2025 28.904C37.9998 29.4053 37.8985 29.992 37.8985 30.664C37.8985 31.3253 37.9998 31.9067 38.2025 32.408C38.4158 32.9093 38.7092 33.2987 39.0825 33.576C39.4665 33.8533 39.9092 33.992 40.4105 33.992ZM53.2758 35.208C52.5504 35.208 51.9158 35.032 51.3718 34.68C50.8384 34.328 50.4224 33.816 50.1238 33.144C49.8358 32.4613 49.6918 31.6347 49.6918 30.664C49.6918 29.7253 49.8678 28.9147 50.2198 28.232C50.5718 27.5493 51.0304 27.0213 51.5958 26.648C52.1718 26.2747 52.7904 26.088 53.4518 26.088C53.9638 26.088 54.4011 26.1787 54.7638 26.36C55.1371 26.5307 55.5158 26.776 55.8998 27.096L55.8198 25.608V22.264H57.2917V35H56.0918L55.9638 33.976H55.9158C55.5744 34.3173 55.1798 34.6107 54.7318 34.856C54.2838 35.0907 53.7984 35.208 53.2758 35.208ZM53.5958 33.976C54.0011 33.976 54.3851 33.88 54.7478 33.688C55.1104 33.4853 55.4678 33.1867 55.8198 32.792V28.232C55.4571 27.9013 55.1051 27.6667 54.7638 27.528C54.4224 27.3893 54.0704 27.32 53.7078 27.32C53.2491 27.32 52.8278 27.464 52.4438 27.752C52.0704 28.0293 51.7664 28.4187 51.5318 28.92C51.3078 29.4107 51.1957 29.9867 51.1957 30.648C51.1957 31.3413 51.2918 31.9387 51.4838 32.44C51.6758 32.9413 51.9478 33.3253 52.2998 33.592C52.6624 33.848 53.0944 33.976 53.5958 33.976ZM63.7576 35.208C62.979 35.208 62.275 35.0267 61.6456 34.664C61.0163 34.3013 60.515 33.784 60.1416 33.112C59.779 32.4293 59.5976 31.6133 59.5976 30.664C59.5976 29.9493 59.7043 29.3147 59.9176 28.76C60.131 28.1947 60.419 27.7147 60.7816 27.32C61.155 26.9147 61.5763 26.6107 62.0456 26.408C62.515 26.1947 62.995 26.088 63.4856 26.088C64.2323 26.088 64.8616 26.2533 65.3736 26.584C65.8856 26.9147 66.275 27.3893 66.5416 28.008C66.819 28.616 66.9576 29.336 66.9576 30.168C66.9576 30.328 66.9523 30.4773 66.9416 30.616C66.931 30.7547 66.915 30.8827 66.8936 31H61.0376C61.0696 31.6187 61.2083 32.1573 61.4536 32.616C61.7096 33.064 62.0456 33.416 62.4616 33.672C62.8776 33.9173 63.363 34.04 63.9176 34.04C64.3443 34.04 64.7283 33.9813 65.0696 33.864C65.4216 33.736 65.763 33.5653 66.0936 33.352L66.6056 34.328C66.2323 34.5733 65.811 34.7813 65.3416 34.952C64.8723 35.1227 64.3443 35.208 63.7576 35.208ZM61.0216 29.96H65.6776C65.6776 29.0853 65.4856 28.4187 65.1016 27.96C64.7283 27.4907 64.2003 27.256 63.5176 27.256C63.1123 27.256 62.7283 27.3627 62.3656 27.576C62.0136 27.7893 61.715 28.0933 61.4696 28.488C61.235 28.8827 61.0856 29.3733 61.0216 29.96ZM72.521 35.208C71.753 35.208 71.0597 35.032 70.441 34.68C69.833 34.3173 69.3477 33.8 68.985 33.128C68.633 32.4453 68.457 31.624 68.457 30.664C68.457 29.6933 68.649 28.872 69.033 28.2C69.417 27.5173 69.929 26.9947 70.569 26.632C71.209 26.2693 71.897 26.088 72.633 26.088C73.1983 26.088 73.6837 26.1893 74.089 26.392C74.505 26.5947 74.8623 26.8347 75.161 27.112L74.425 28.072C74.1797 27.848 73.913 27.6667 73.625 27.528C73.3477 27.3893 73.0383 27.32 72.697 27.32C72.1743 27.32 71.705 27.4587 71.289 27.736C70.873 28.0133 70.5477 28.4027 70.313 28.904C70.0783 29.4053 69.961 29.992 69.961 30.664C69.961 31.3253 70.073 31.9067 70.297 32.408C70.5317 32.9093 70.8463 33.2987 71.241 33.576C71.6463 33.8533 72.1157 33.992 72.649 33.992C73.0543 33.992 73.4277 33.912 73.769 33.752C74.1103 33.5813 74.4197 33.3733 74.697 33.128L75.337 34.12C74.9423 34.4613 74.505 34.728 74.025 34.92C73.545 35.112 73.0437 35.208 72.521 35.208ZM80.2074 35.208C79.5034 35.208 78.842 35.032 78.2234 34.68C77.6047 34.3173 77.1087 33.8 76.7354 33.128C76.3727 32.4453 76.1914 31.624 76.1914 30.664C76.1914 29.6933 76.3727 28.872 76.7354 28.2C77.1087 27.5173 77.6047 26.9947 78.2234 26.632C78.842 26.2693 79.5034 26.088 80.2074 26.088C80.7407 26.088 81.2474 26.1893 81.7274 26.392C82.218 26.5947 82.65 26.8933 83.0234 27.288C83.3967 27.6827 83.69 28.1627 83.9034 28.728C84.1167 29.2933 84.2234 29.9387 84.2234 30.664C84.2234 31.624 84.0367 32.4453 83.6634 33.128C83.29 33.8 82.7994 34.3173 82.1914 34.68C81.5834 35.032 80.922 35.208 80.2074 35.208ZM80.2074 33.992C80.7087 33.992 81.146 33.8533 81.5194 33.576C81.9034 33.2987 82.202 32.9093 82.4154 32.408C82.6287 31.9067 82.7354 31.3253 82.7354 30.664C82.7354 29.992 82.6287 29.4053 82.4154 28.904C82.202 28.4027 81.9034 28.0133 81.5194 27.736C81.146 27.4587 80.7087 27.32 80.2074 27.32C79.706 27.32 79.2634 27.4587 78.8794 27.736C78.506 28.0133 78.2127 28.4027 77.9994 28.904C77.7967 29.4053 77.6954 29.992 77.6954 30.664C77.6954 31.3253 77.7967 31.9067 77.9994 32.408C78.2127 32.9093 78.506 33.2987 78.8794 33.576C79.2634 33.8533 79.706 33.992 80.2074 33.992ZM86.5345 35V26.312H87.7345L87.8785 27.896H87.9105C88.2092 27.3413 88.5718 26.904 88.9985 26.584C89.4358 26.2533 89.8945 26.088 90.3745 26.088C90.5772 26.088 90.7478 26.104 90.8865 26.136C91.0358 26.1573 91.1745 26.2053 91.3025 26.28L91.0305 27.544C90.8812 27.5013 90.7478 27.4693 90.6305 27.448C90.5132 27.416 90.3638 27.4 90.1825 27.4C89.8305 27.4 89.4518 27.5547 89.0465 27.864C88.6412 28.1627 88.2945 28.68 88.0065 29.416V35H86.5345ZM94.2689 35.208C93.7889 35.208 93.3569 35.112 92.9729 34.92C92.5889 34.728 92.2849 34.4507 92.0609 34.088C91.8475 33.7147 91.7409 33.2667 91.7409 32.744C91.7409 31.7947 92.1622 31.0693 93.0049 30.568C93.8582 30.056 95.2129 29.6987 97.0689 29.496C97.0689 29.1227 97.0155 28.7707 96.9089 28.44C96.8129 28.0987 96.6369 27.8267 96.3809 27.624C96.1249 27.4107 95.7569 27.304 95.2769 27.304C94.7755 27.304 94.3009 27.4053 93.8529 27.608C93.4155 27.8 93.0209 28.008 92.6689 28.232L92.1089 27.224C92.3755 27.0533 92.6849 26.8827 93.0369 26.712C93.3889 26.5307 93.7729 26.3813 94.1889 26.264C94.6049 26.1467 95.0475 26.088 95.5169 26.088C96.2209 26.088 96.7915 26.2373 97.2289 26.536C97.6769 26.8347 98.0022 27.2507 98.2049 27.784C98.4182 28.3067 98.5249 28.9307 98.5249 29.656V35H97.3249L97.1969 33.96H97.1489C96.7435 34.3013 96.2955 34.5947 95.8049 34.84C95.3249 35.0853 94.8129 35.208 94.2689 35.208ZM94.6849 34.024C95.1009 34.024 95.4955 33.928 95.8689 33.736C96.2529 33.544 96.6529 33.2613 97.0689 32.888V30.472C96.0982 30.5787 95.3249 30.7333 94.7489 30.936C94.1729 31.128 93.7622 31.368 93.5169 31.656C93.2715 31.9333 93.1489 32.264 93.1489 32.648C93.1489 33.1493 93.2982 33.5067 93.5969 33.72C93.8955 33.9227 94.2582 34.024 94.6849 34.024ZM103.723 35.208C103.115 35.208 102.63 35.0907 102.267 34.856C101.905 34.6107 101.643 34.2693 101.483 33.832C101.334 33.3947 101.259 32.888 101.259 32.312V27.496H99.9633V26.392L101.339 26.312L101.499 23.864H102.715V26.312H105.083V27.496H102.715V32.36C102.715 32.8827 102.811 33.2933 103.003 33.592C103.206 33.88 103.558 34.024 104.059 34.024C104.219 34.024 104.39 34.0027 104.571 33.96C104.753 33.9067 104.913 33.848 105.051 33.784L105.339 34.888C105.094 34.9733 104.833 35.048 104.555 35.112C104.278 35.176 104.001 35.208 103.723 35.208ZM107.035 35V26.312H108.507V35H107.035ZM107.771 24.52C107.483 24.52 107.248 24.4347 107.067 24.264C106.896 24.0827 106.811 23.8427 106.811 23.544C106.811 23.256 106.896 23.0267 107.067 22.856C107.248 22.6853 107.483 22.6 107.771 22.6C108.059 22.6 108.293 22.6853 108.475 22.856C108.656 23.0267 108.747 23.256 108.747 23.544C108.747 23.8427 108.656 24.0827 108.475 24.264C108.293 24.4347 108.059 24.52 107.771 24.52ZM114.817 35.208C114.113 35.208 113.451 35.032 112.833 34.68C112.214 34.3173 111.718 33.8 111.345 33.128C110.982 32.4453 110.801 31.624 110.801 30.664C110.801 29.6933 110.982 28.872 111.345 28.2C111.718 27.5173 112.214 26.9947 112.833 26.632C113.451 26.2693 114.113 26.088 114.817 26.088C115.35 26.088 115.857 26.1893 116.337 26.392C116.827 26.5947 117.259 26.8933 117.633 27.288C118.006 27.6827 118.299 28.1627 118.513 28.728C118.726 29.2933 118.833 29.9387 118.833 30.664C118.833 31.624 118.646 32.4453 118.273 33.128C117.899 33.8 117.409 34.3173 116.801 34.68C116.193 35.032 115.531 35.208 114.817 35.208ZM114.817 33.992C115.318 33.992 115.755 33.8533 116.129 33.576C116.513 33.2987 116.811 32.9093 117.025 32.408C117.238 31.9067 117.345 31.3253 117.345 30.664C117.345 29.992 117.238 29.4053 117.025 28.904C116.811 28.4027 116.513 28.0133 116.129 27.736C115.755 27.4587 115.318 27.32 114.817 27.32C114.315 27.32 113.873 27.4587 113.489 27.736C113.115 28.0133 112.822 28.4027 112.609 28.904C112.406 29.4053 112.305 29.992 112.305 30.664C112.305 31.3253 112.406 31.9067 112.609 32.408C112.822 32.9093 113.115 33.2987 113.489 33.576C113.873 33.8533 114.315 33.992 114.817 33.992ZM121.144 35V26.312H122.344L122.488 27.576H122.52C122.936 27.16 123.373 26.808 123.832 26.52C124.301 26.232 124.835 26.088 125.432 26.088C126.349 26.088 127.021 26.3813 127.448 26.968C127.875 27.544 128.088 28.3867 128.088 29.496V35H126.632V29.688C126.632 28.8667 126.499 28.2747 126.232 27.912C125.976 27.5493 125.56 27.368 124.984 27.368C124.536 27.368 124.136 27.48 123.784 27.704C123.432 27.928 123.043 28.2587 122.616 28.696V35H121.144Z" fill="#1A1A1A"/>
<path d="M29.776 71.208C29.1787 71.208 28.624 71.1227 28.112 70.952C27.6 70.7813 27.152 70.4987 26.768 70.104C26.3947 69.7093 26.1013 69.1867 25.888 68.536C25.6747 67.8853 25.568 67.096 25.568 66.168V59.272H27.04V66.2C27.04 67.1387 27.1627 67.88 27.408 68.424C27.6533 68.9573 27.9787 69.3413 28.384 69.576C28.8 69.8 29.264 69.912 29.776 69.912C30.2987 69.912 30.768 69.8 31.184 69.576C31.6 69.3413 31.9307 68.9573 32.176 68.424C32.432 67.88 32.56 67.1387 32.56 66.2V59.272H33.984V66.168C33.984 67.096 33.8773 67.8853 33.664 68.536C33.4613 69.1867 33.168 69.7093 32.784 70.104C32.4 70.4987 31.952 70.7813 31.44 70.952C30.928 71.1227 30.3733 71.208 29.776 71.208ZM37.0033 71V62.312H38.2033L38.3473 63.576H38.3793C38.7953 63.16 39.2326 62.808 39.6913 62.52C40.1606 62.232 40.6939 62.088 41.2913 62.088C42.2086 62.088 42.8806 62.3813 43.3073 62.968C43.7339 63.544 43.9473 64.3867 43.9473 65.496V71H42.4913V65.688C42.4913 64.8667 42.3579 64.2747 42.0913 63.912C41.8353 63.5493 41.4193 63.368 40.8433 63.368C40.3953 63.368 39.9953 63.48 39.6432 63.704C39.2913 63.928 38.9019 64.2587 38.4753 64.696V71H37.0033ZM49.7289 71.208C49.0035 71.208 48.3689 71.032 47.8249 70.68C47.2915 70.328 46.8755 69.816 46.5769 69.144C46.2889 68.4613 46.1449 67.6347 46.1449 66.664C46.1449 65.7253 46.3209 64.9147 46.6729 64.232C47.0249 63.5493 47.4835 63.0213 48.0489 62.648C48.6249 62.2747 49.2435 62.088 49.9049 62.088C50.4169 62.088 50.8542 62.1787 51.2169 62.36C51.5902 62.5307 51.9689 62.776 52.3529 63.096L52.2729 61.608V58.264H53.7449V71H52.5449L52.4169 69.976H52.3689C52.0275 70.3173 51.6329 70.6107 51.1849 70.856C50.7369 71.0907 50.2515 71.208 49.7289 71.208ZM50.0489 69.976C50.4542 69.976 50.8382 69.88 51.2009 69.688C51.5635 69.4853 51.9209 69.1867 52.2729 68.792V64.232C51.9102 63.9013 51.5582 63.6667 51.2169 63.528C50.8755 63.3893 50.5235 63.32 50.1609 63.32C49.7022 63.32 49.2809 63.464 48.8969 63.752C48.5235 64.0293 48.2195 64.4187 47.9849 64.92C47.7609 65.4107 47.6489 65.9867 47.6489 66.648C47.6489 67.3413 47.7449 67.9387 47.9369 68.44C48.1289 68.9413 48.4009 69.3253 48.7529 69.592C49.1155 69.848 49.5475 69.976 50.0489 69.976ZM60.2108 71.208C59.4321 71.208 58.7281 71.0267 58.0988 70.664C57.4694 70.3013 56.9681 69.784 56.5948 69.112C56.2321 68.4293 56.0508 67.6133 56.0508 66.664C56.0508 65.9493 56.1574 65.3147 56.3708 64.76C56.5841 64.1947 56.8721 63.7147 57.2348 63.32C57.6081 62.9147 58.0294 62.6107 58.4988 62.408C58.9681 62.1947 59.4481 62.088 59.9388 62.088C60.6854 62.088 61.3148 62.2533 61.8268 62.584C62.3388 62.9147 62.7281 63.3893 62.9948 64.008C63.2721 64.616 63.4108 65.336 63.4108 66.168C63.4108 66.328 63.4054 66.4773 63.3948 66.616C63.3841 66.7547 63.3681 66.8827 63.3468 67H57.4908C57.5228 67.6187 57.6614 68.1573 57.9068 68.616C58.1628 69.064 58.4988 69.416 58.9148 69.672C59.3308 69.9173 59.8161 70.04 60.3708 70.04C60.7974 70.04 61.1814 69.9813 61.5228 69.864C61.8748 69.736 62.2161 69.5653 62.5468 69.352L63.0588 70.328C62.6854 70.5733 62.2641 70.7813 61.7948 70.952C61.3254 71.1227 60.7974 71.208 60.2108 71.208ZM57.4748 65.96H62.1308C62.1308 65.0853 61.9388 64.4187 61.5548 63.96C61.1814 63.4907 60.6534 63.256 59.9708 63.256C59.5654 63.256 59.1814 63.3627 58.8188 63.576C58.4668 63.7893 58.1681 64.0933 57.9228 64.488C57.6881 64.8827 57.5388 65.3733 57.4748 65.96ZM65.5501 71V62.312H66.7501L66.8941 63.896H66.9261C67.2248 63.3413 67.5875 62.904 68.0141 62.584C68.4515 62.2533 68.9101 62.088 69.3901 62.088C69.5928 62.088 69.7635 62.104 69.9021 62.136C70.0515 62.1573 70.1901 62.2053 70.3181 62.28L70.0461 63.544C69.8968 63.5013 69.7635 63.4693 69.6461 63.448C69.5288 63.416 69.3795 63.4 69.1981 63.4C68.8461 63.4 68.4675 63.5547 68.0621 63.864C67.6568 64.1627 67.3101 64.68 67.0221 65.416V71H65.5501ZM73.2893 71.208C72.9266 71.208 72.6333 71.1333 72.4093 70.984C72.1853 70.8347 72.0199 70.616 71.9133 70.328C71.8066 70.0293 71.7533 69.6773 71.7533 69.272V58.264H73.2253V69.368C73.2253 69.592 73.2626 69.752 73.3373 69.848C73.4226 69.944 73.5186 69.992 73.6253 69.992C73.6679 69.992 73.7106 69.992 73.7533 69.992C73.7959 69.9813 73.8546 69.9707 73.9293 69.96L74.1373 71.08C74.0306 71.112 73.9133 71.1387 73.7853 71.16C73.6573 71.192 73.4919 71.208 73.2893 71.208ZM76.3001 71V62.312H77.7721V71H76.3001ZM77.0361 60.52C76.7481 60.52 76.5135 60.4347 76.3321 60.264C76.1615 60.0827 76.0761 59.8427 76.0761 59.544C76.0761 59.256 76.1615 59.0267 76.3321 58.856C76.5135 58.6853 76.7481 58.6 77.0361 58.6C77.3241 58.6 77.5588 58.6853 77.7401 58.856C77.9215 59.0267 78.0121 59.256 78.0121 59.544C78.0121 59.8427 77.9215 60.0827 77.7401 60.264C77.5588 60.4347 77.3241 60.52 77.0361 60.52ZM80.7064 71V62.312H81.9064L82.0504 63.576H82.0824C82.4984 63.16 82.9357 62.808 83.3944 62.52C83.8637 62.232 84.397 62.088 84.9944 62.088C85.9117 62.088 86.5837 62.3813 87.0104 62.968C87.437 63.544 87.6504 64.3867 87.6504 65.496V71H86.1944V65.688C86.1944 64.8667 86.061 64.2747 85.7944 63.912C85.5384 63.5493 85.1224 63.368 84.5464 63.368C84.0984 63.368 83.6984 63.48 83.3464 63.704C82.9944 63.928 82.605 64.2587 82.1784 64.696V71H80.7064ZM93.992 71.208C93.2133 71.208 92.5093 71.0267 91.88 70.664C91.2507 70.3013 90.7493 69.784 90.376 69.112C90.0133 68.4293 89.832 67.6133 89.832 66.664C89.832 65.9493 89.9387 65.3147 90.152 64.76C90.3653 64.1947 90.6533 63.7147 91.016 63.32C91.3893 62.9147 91.8107 62.6107 92.28 62.408C92.7493 62.1947 93.2293 62.088 93.72 62.088C94.4667 62.088 95.096 62.2533 95.608 62.584C96.12 62.9147 96.5093 63.3893 96.776 64.008C97.0533 64.616 97.192 65.336 97.192 66.168C97.192 66.328 97.1867 66.4773 97.176 66.616C97.1653 66.7547 97.1493 66.8827 97.128 67H91.272C91.304 67.6187 91.4427 68.1573 91.688 68.616C91.944 69.064 92.28 69.416 92.696 69.672C93.112 69.9173 93.5973 70.04 94.152 70.04C94.5787 70.04 94.9627 69.9813 95.304 69.864C95.656 69.736 95.9973 69.5653 96.328 69.352L96.84 70.328C96.4667 70.5733 96.0453 70.7813 95.576 70.952C95.1067 71.1227 94.5787 71.208 93.992 71.208ZM91.256 65.96H95.912C95.912 65.0853 95.72 64.4187 95.336 63.96C94.9627 63.4907 94.4347 63.256 93.752 63.256C93.3467 63.256 92.9627 63.3627 92.6 63.576C92.248 63.7893 91.9493 64.0933 91.704 64.488C91.4693 64.8827 91.32 65.3733 91.256 65.96ZM102.291 71.208C101.566 71.208 100.931 71.032 100.387 70.68C99.854 70.328 99.438 69.816 99.1394 69.144C98.8514 68.4613 98.7074 67.6347 98.7074 66.664C98.7074 65.7253 98.8834 64.9147 99.2354 64.232C99.5874 63.5493 100.046 63.0213 100.611 62.648C101.187 62.2747 101.806 62.088 102.467 62.088C102.979 62.088 103.417 62.1787 103.779 62.36C104.153 62.5307 104.531 62.776 104.915 63.096L104.835 61.608V58.264H106.307V71H105.107L104.979 69.976H104.931C104.59 70.3173 104.195 70.6107 103.747 70.856C103.299 71.0907 102.814 71.208 102.291 71.208ZM102.611 69.976C103.017 69.976 103.401 69.88 103.763 69.688C104.126 69.4853 104.483 69.1867 104.835 68.792V64.232C104.473 63.9013 104.121 63.6667 103.779 63.528C103.438 63.3893 103.086 63.32 102.723 63.32C102.265 63.32 101.843 63.464 101.459 63.752C101.086 64.0293 100.782 64.4187 100.547 64.92C100.323 65.4107 100.211 65.9867 100.211 66.648C100.211 67.3413 100.307 67.9387 100.499 68.44C100.691 68.9413 100.963 69.3253 101.315 69.592C101.678 69.848 102.11 69.976 102.611 69.976Z" fill="#1A1A1A"/>
<path d="M24 73.4H107.779V74.2H24V73.4Z" fill="#1A1A1A"/>
<path d="M28.864 107.208C28.032 107.208 27.264 107.053 26.56 106.744C25.8667 106.435 25.2693 106.013 24.768 105.48L25.648 104.456C26.064 104.893 26.5547 105.245 27.12 105.512C27.6853 105.779 28.272 105.912 28.88 105.912C29.6587 105.912 30.2613 105.736 30.688 105.384C31.1253 105.032 31.344 104.573 31.344 104.008C31.344 103.592 31.2533 103.261 31.072 103.016C30.9013 102.771 30.6667 102.568 30.368 102.408C30.08 102.237 29.7493 102.072 29.376 101.912L27.696 101.176C27.3333 101.016 26.9653 100.813 26.592 100.568C26.2293 100.323 25.9253 100.003 25.68 99.608C25.4347 99.2133 25.312 98.7333 25.312 98.168C25.312 97.56 25.472 97.0267 25.792 96.568C26.112 96.0987 26.5493 95.7307 27.104 95.464C27.6587 95.1973 28.2933 95.064 29.008 95.064C29.712 95.064 30.3573 95.1973 30.944 95.464C31.5413 95.7307 32.0427 96.0773 32.448 96.504L31.68 97.448C31.3173 97.1173 30.9173 96.856 30.48 96.664C30.0533 96.4613 29.5627 96.36 29.008 96.36C28.3467 96.36 27.8133 96.5147 27.408 96.824C27.0133 97.1227 26.816 97.5333 26.816 98.056C26.816 98.44 26.912 98.7547 27.104 99C27.3067 99.2453 27.5573 99.4427 27.856 99.592C28.1547 99.7413 28.4587 99.8853 28.768 100.024L30.432 100.744C30.88 100.936 31.2853 101.165 31.648 101.432C32.0213 101.699 32.3147 102.029 32.528 102.424C32.7413 102.819 32.848 103.304 32.848 103.88C32.848 104.499 32.688 105.064 32.368 105.576C32.048 106.077 31.5893 106.477 30.992 106.776C30.3947 107.064 29.6853 107.208 28.864 107.208ZM37.2545 107.208C36.6465 107.208 36.1612 107.091 35.7985 106.856C35.4358 106.611 35.1745 106.269 35.0145 105.832C34.8652 105.395 34.7905 104.888 34.7905 104.312V99.496H33.4945V98.392L34.8705 98.312L35.0305 95.864H36.2465V98.312H38.6145V99.496H36.2465V104.36C36.2465 104.883 36.3425 105.293 36.5345 105.592C36.7372 105.88 37.0892 106.024 37.5905 106.024C37.7505 106.024 37.9212 106.003 38.1025 105.96C38.2838 105.907 38.4438 105.848 38.5825 105.784L38.8705 106.888C38.6252 106.973 38.3638 107.048 38.0865 107.112C37.8092 107.176 37.5318 107.208 37.2545 107.208ZM40.5658 107V98.312H41.7658L41.9098 99.896H41.9418C42.2404 99.3413 42.6031 98.904 43.0298 98.584C43.4671 98.2533 43.9258 98.088 44.4058 98.088C44.6084 98.088 44.7791 98.104 44.9178 98.136C45.0671 98.1573 45.2058 98.2053 45.3338 98.28L45.0618 99.544C44.9124 99.5013 44.7791 99.4693 44.6618 99.448C44.5444 99.416 44.3951 99.4 44.2138 99.4C43.8618 99.4 43.4831 99.5547 43.0778 99.864C42.6724 100.163 42.3258 100.68 42.0378 101.416V107H40.5658ZM46.7689 107V98.312H48.2409V107H46.7689ZM47.5049 96.52C47.2169 96.52 46.9822 96.4347 46.8009 96.264C46.6302 96.0827 46.5449 95.8427 46.5449 95.544C46.5449 95.256 46.6302 95.0267 46.8009 94.856C46.9822 94.6853 47.2169 94.6 47.5049 94.6C47.7929 94.6 48.0275 94.6853 48.2089 94.856C48.3902 95.0267 48.4809 95.256 48.4809 95.544C48.4809 95.8427 48.3902 96.0827 48.2089 96.264C48.0275 96.4347 47.7929 96.52 47.5049 96.52ZM51.1751 107V94.264H52.6151V102.888H52.6791L56.3591 98.312H57.9911L55.0951 101.816L58.3751 107H56.7911L54.2471 102.808L52.6151 104.712V107H51.1751ZM63.1639 107.208C62.3852 107.208 61.6812 107.027 61.0519 106.664C60.4225 106.301 59.9212 105.784 59.5479 105.112C59.1852 104.429 59.0039 103.613 59.0039 102.664C59.0039 101.949 59.1105 101.315 59.3239 100.76C59.5372 100.195 59.8252 99.7147 60.1879 99.32C60.5612 98.9147 60.9825 98.6107 61.4519 98.408C61.9212 98.1947 62.4012 98.088 62.8919 98.088C63.6385 98.088 64.2679 98.2533 64.7799 98.584C65.2919 98.9147 65.6812 99.3893 65.9479 100.008C66.2252 100.616 66.3639 101.336 66.3639 102.168C66.3639 102.328 66.3585 102.477 66.3479 102.616C66.3372 102.755 66.3212 102.883 66.2999 103H60.4439C60.4759 103.619 60.6145 104.157 60.8599 104.616C61.1159 105.064 61.4519 105.416 61.8679 105.672C62.2839 105.917 62.7692 106.04 63.3239 106.04C63.7505 106.04 64.1345 105.981 64.4759 105.864C64.8279 105.736 65.1692 105.565 65.4999 105.352L66.0119 106.328C65.6385 106.573 65.2172 106.781 64.7479 106.952C64.2785 107.123 63.7505 107.208 63.1639 107.208ZM60.4279 101.96H65.0839C65.0839 101.085 64.8919 100.419 64.5079 99.96C64.1345 99.4907 63.6065 99.256 62.9239 99.256C62.5185 99.256 62.1345 99.3627 61.7719 99.576C61.4199 99.7893 61.1212 100.093 60.8759 100.488C60.6412 100.883 60.4919 101.373 60.4279 101.96ZM71.0045 107.208C70.3965 107.208 69.9112 107.091 69.5485 106.856C69.1858 106.611 68.9245 106.269 68.7645 105.832C68.6152 105.395 68.5405 104.888 68.5405 104.312V99.496H67.2445V98.392L68.6205 98.312L68.7805 95.864H69.9965V98.312H72.3645V99.496H69.9965V104.36C69.9965 104.883 70.0925 105.293 70.2845 105.592C70.4872 105.88 70.8392 106.024 71.3405 106.024C71.5005 106.024 71.6712 106.003 71.8525 105.96C72.0338 105.907 72.1938 105.848 72.3325 105.784L72.6205 106.888C72.3752 106.973 72.1138 107.048 71.8365 107.112C71.5592 107.176 71.2818 107.208 71.0045 107.208ZM74.3158 107V94.264H75.7878V97.752L75.7238 99.544C76.1291 99.1387 76.5611 98.7973 77.0198 98.52C77.4784 98.232 78.0064 98.088 78.6038 98.088C79.5211 98.088 80.1931 98.3813 80.6198 98.968C81.0464 99.544 81.2598 100.387 81.2598 101.496V107H79.8038V101.688C79.8038 100.867 79.6704 100.275 79.4038 99.912C79.1478 99.5493 78.7318 99.368 78.1558 99.368C77.7078 99.368 77.3078 99.48 76.9557 99.704C76.6038 99.928 76.2144 100.259 75.7878 100.696V107H74.3158ZM84.0345 107V98.312H85.2345L85.3785 99.896H85.4105C85.7092 99.3413 86.0718 98.904 86.4985 98.584C86.9358 98.2533 87.3945 98.088 87.8745 98.088C88.0772 98.088 88.2478 98.104 88.3865 98.136C88.5358 98.1573 88.6745 98.2053 88.8025 98.28L88.5305 99.544C88.3812 99.5013 88.2478 99.4693 88.1305 99.448C88.0132 99.416 87.8638 99.4 87.6825 99.4C87.3305 99.4 86.9518 99.5547 86.5465 99.864C86.1412 100.163 85.7945 100.68 85.5065 101.416V107H84.0345ZM93.3949 107.208C92.6909 107.208 92.0295 107.032 91.4109 106.68C90.7922 106.317 90.2962 105.8 89.9229 105.128C89.5602 104.445 89.3789 103.624 89.3789 102.664C89.3789 101.693 89.5602 100.872 89.9229 100.2C90.2962 99.5173 90.7922 98.9947 91.4109 98.632C92.0295 98.2693 92.6909 98.088 93.3949 98.088C93.9282 98.088 94.4349 98.1893 94.9149 98.392C95.4055 98.5947 95.8375 98.8933 96.2109 99.288C96.5842 99.6827 96.8775 100.163 97.0909 100.728C97.3042 101.293 97.4109 101.939 97.4109 102.664C97.4109 103.624 97.2242 104.445 96.8509 105.128C96.4775 105.8 95.9869 106.317 95.3789 106.68C94.7709 107.032 94.1095 107.208 93.3949 107.208ZM93.3949 105.992C93.8962 105.992 94.3335 105.853 94.7069 105.576C95.0909 105.299 95.3895 104.909 95.6029 104.408C95.8162 103.907 95.9229 103.325 95.9229 102.664C95.9229 101.992 95.8162 101.405 95.6029 100.904C95.3895 100.403 95.0909 100.013 94.7069 99.736C94.3335 99.4587 93.8962 99.32 93.3949 99.32C92.8935 99.32 92.4509 99.4587 92.0669 99.736C91.6935 100.013 91.4002 100.403 91.1869 100.904C90.9842 101.405 90.8829 101.992 90.8829 102.664C90.8829 103.325 90.9842 103.907 91.1869 104.408C91.4002 104.909 91.6935 105.299 92.0669 105.576C92.4509 105.853 92.8935 105.992 93.3949 105.992ZM102.266 107.208C101.349 107.208 100.671 106.92 100.234 106.344C99.8073 105.768 99.594 104.925 99.594 103.816V98.312H101.066V103.64C101.066 104.44 101.194 105.027 101.45 105.4C101.706 105.763 102.122 105.944 102.698 105.944C103.146 105.944 103.546 105.827 103.898 105.592C104.25 105.357 104.634 104.984 105.05 104.472V98.312H106.506V107H105.29L105.178 105.64H105.13C104.725 106.109 104.293 106.488 103.834 106.776C103.386 107.064 102.863 107.208 102.266 107.208ZM112.369 111C111.665 111 111.041 110.909 110.497 110.728C109.953 110.547 109.531 110.28 109.233 109.928C108.934 109.587 108.785 109.171 108.785 108.68C108.785 108.307 108.897 107.944 109.121 107.592C109.345 107.251 109.659 106.957 110.065 106.712V106.632C109.841 106.493 109.654 106.307 109.505 106.072C109.355 105.837 109.281 105.549 109.281 105.208C109.281 104.845 109.382 104.525 109.585 104.248C109.798 103.971 110.017 103.752 110.241 103.592V103.528C109.953 103.304 109.691 102.989 109.457 102.584C109.222 102.179 109.105 101.715 109.105 101.192C109.105 100.552 109.254 100.003 109.553 99.544C109.851 99.0747 110.246 98.7173 110.737 98.472C111.238 98.216 111.777 98.088 112.353 98.088C112.609 98.088 112.838 98.1093 113.041 98.152C113.254 98.1947 113.435 98.248 113.585 98.312H116.609V99.432H114.833C115.046 99.6347 115.217 99.8907 115.345 100.2C115.473 100.509 115.537 100.851 115.537 101.224C115.537 101.843 115.393 102.381 115.105 102.84C114.827 103.288 114.449 103.635 113.969 103.88C113.489 104.125 112.95 104.248 112.353 104.248C112.15 104.248 111.931 104.221 111.697 104.168C111.473 104.115 111.265 104.04 111.073 103.944C110.913 104.072 110.779 104.216 110.673 104.376C110.566 104.536 110.513 104.739 110.513 104.984C110.513 105.251 110.619 105.475 110.833 105.656C111.046 105.837 111.446 105.928 112.033 105.928H113.745C114.747 105.928 115.499 106.093 116.001 106.424C116.513 106.755 116.769 107.277 116.769 107.992C116.769 108.525 116.587 109.021 116.225 109.48C115.862 109.939 115.35 110.307 114.689 110.584C114.038 110.861 113.265 111 112.369 111ZM112.353 103.256C112.694 103.256 113.003 103.171 113.281 103C113.569 102.829 113.793 102.589 113.953 102.28C114.123 101.971 114.209 101.608 114.209 101.192C114.209 100.765 114.123 100.403 113.953 100.104C113.793 99.7947 113.574 99.56 113.297 99.4C113.019 99.24 112.705 99.16 112.353 99.16C112.022 99.16 111.713 99.24 111.425 99.4C111.147 99.56 110.923 99.7893 110.753 100.088C110.593 100.387 110.513 100.755 110.513 101.192C110.513 101.608 110.598 101.971 110.769 102.28C110.939 102.589 111.163 102.829 111.441 103C111.718 103.171 112.022 103.256 112.353 103.256ZM112.577 109.992C113.131 109.992 113.611 109.907 114.017 109.736C114.433 109.565 114.753 109.341 114.977 109.064C115.211 108.797 115.329 108.52 115.329 108.232C115.329 107.816 115.179 107.528 114.881 107.368C114.582 107.208 114.145 107.128 113.569 107.128H112.065C111.905 107.128 111.723 107.117 111.521 107.096C111.329 107.085 111.137 107.053 110.945 107C110.635 107.213 110.411 107.448 110.273 107.704C110.134 107.971 110.065 108.227 110.065 108.472C110.065 108.931 110.283 109.299 110.721 109.576C111.169 109.853 111.787 109.992 112.577 109.992ZM118.472 107V94.264H119.944V97.752L119.88 99.544C120.285 99.1387 120.717 98.7973 121.176 98.52C121.635 98.232 122.163 98.088 122.76 98.088C123.677 98.088 124.349 98.3813 124.776 98.968C125.203 99.544 125.416 100.387 125.416 101.496V107H123.96V101.688C123.96 100.867 123.827 100.275 123.56 99.912C123.304 99.5493 122.888 99.368 122.312 99.368C121.864 99.368 121.464 99.48 121.112 99.704C120.76 99.928 120.371 100.259 119.944 100.696V107H118.472Z" fill="#1A1A1A"/>
<path d="M24 101.8H126.712V102.6H24V101.8Z" fill="#1A1A1A"/>
</svg>
