<svg width="720" height="80" viewBox="0 0 720 80" fill="none" xmlns="http://www.w3.org/2000/svg">
<rect width="720" height="80" fill="#F7F7F7"/>
<path d="M25.616 35V23.272H27.088V33.736H32.224V35H25.616ZM37.2855 35.208C36.5815 35.208 35.9202 35.032 35.3015 34.68C34.6828 34.3173 34.1868 33.8 33.8135 33.128C33.4508 32.4453 33.2695 31.624 33.2695 30.664C33.2695 29.6933 33.4508 28.872 33.8135 28.2C34.1868 27.5173 34.6828 26.9947 35.3015 26.632C35.9202 26.2693 36.5815 26.088 37.2855 26.088C37.8188 26.088 38.3255 26.1893 38.8055 26.392C39.2962 26.5947 39.7282 26.8933 40.1015 27.288C40.4748 27.6827 40.7682 28.1627 40.9815 28.728C41.1948 29.2933 41.3015 29.9387 41.3015 30.664C41.3015 31.624 41.1148 32.4453 40.7415 33.128C40.3682 33.8 39.8775 34.3173 39.2695 34.68C38.6615 35.032 38.0002 35.208 37.2855 35.208ZM37.2855 33.992C37.7868 33.992 38.2242 33.8533 38.5975 33.576C38.9815 33.2987 39.2802 32.9093 39.4935 32.408C39.7068 31.9067 39.8135 31.3253 39.8135 30.664C39.8135 29.992 39.7068 29.4053 39.4935 28.904C39.2802 28.4027 38.9815 28.0133 38.5975 27.736C38.2242 27.4587 37.7868 27.32 37.2855 27.32C36.7842 27.32 36.3415 27.4587 35.9575 27.736C35.5842 28.0133 35.2908 28.4027 35.0775 28.904C34.8748 29.4053 34.7735 29.992 34.7735 30.664C34.7735 31.3253 34.8748 31.9067 35.0775 32.408C35.2908 32.9093 35.5842 33.2987 35.9575 33.576C36.3415 33.8533 36.7842 33.992 37.2855 33.992ZM43.6126 35V26.312H44.8126L44.9566 27.896H44.9886C45.2873 27.3413 45.65 26.904 46.0766 26.584C46.514 26.2533 46.9726 26.088 47.4526 26.088C47.6553 26.088 47.826 26.104 47.9646 26.136C48.114 26.1573 48.2526 26.2053 48.3806 26.28L48.1086 27.544C47.9593 27.5013 47.826 27.4693 47.7086 27.448C47.5913 27.416 47.442 27.4 47.2606 27.4C46.9086 27.4 46.53 27.5547 46.1246 27.864C45.7193 28.1627 45.3726 28.68 45.0846 29.416V35H43.6126ZM53.117 35.208C52.3383 35.208 51.6343 35.0267 51.005 34.664C50.3757 34.3013 49.8743 33.784 49.501 33.112C49.1383 32.4293 48.957 31.6133 48.957 30.664C48.957 29.9493 49.0637 29.3147 49.277 28.76C49.4903 28.1947 49.7783 27.7147 50.141 27.32C50.5143 26.9147 50.9357 26.6107 51.405 26.408C51.8743 26.1947 52.3543 26.088 52.845 26.088C53.5917 26.088 54.221 26.2533 54.733 26.584C55.245 26.9147 55.6343 27.3893 55.901 28.008C56.1783 28.616 56.317 29.336 56.317 30.168C56.317 30.328 56.3117 30.4773 56.301 30.616C56.2903 30.7547 56.2743 30.8827 56.253 31H50.397C50.429 31.6187 50.5677 32.1573 50.813 32.616C51.069 33.064 51.405 33.416 51.821 33.672C52.237 33.9173 52.7223 34.04 53.277 34.04C53.7037 34.04 54.0877 33.9813 54.429 33.864C54.781 33.736 55.1223 33.5653 55.453 33.352L55.965 34.328C55.5917 34.5733 55.1703 34.7813 54.701 34.952C54.2317 35.1227 53.7037 35.208 53.117 35.208ZM50.381 29.96H55.037C55.037 29.0853 54.845 28.4187 54.461 27.96C54.0877 27.4907 53.5597 27.256 52.877 27.256C52.4717 27.256 52.0877 27.3627 51.725 27.576C51.373 27.7893 51.0743 28.0933 50.829 28.488C50.5943 28.8827 50.445 29.3733 50.381 29.96ZM58.4564 35V26.312H59.6564L59.8004 27.576H59.8324C60.2164 27.16 60.6324 26.808 61.0804 26.52C61.539 26.232 62.0244 26.088 62.5364 26.088C63.2084 26.088 63.731 26.2373 64.1044 26.536C64.4777 26.8347 64.755 27.24 64.9364 27.752C65.395 27.2613 65.8537 26.8613 66.3124 26.552C66.7817 26.2427 67.283 26.088 67.8164 26.088C68.7017 26.088 69.3577 26.3813 69.7844 26.968C70.2217 27.544 70.4404 28.3867 70.4404 29.496V35H68.9844V29.688C68.9844 28.8667 68.851 28.2747 68.5844 27.912C68.3284 27.5493 67.923 27.368 67.3684 27.368C67.0377 27.368 66.691 27.48 66.3284 27.704C65.9764 27.9173 65.5924 28.248 65.1764 28.696V35H63.7204V29.688C63.7204 28.8667 63.587 28.2747 63.3204 27.912C63.0644 27.5493 62.659 27.368 62.1044 27.368C61.7737 27.368 61.427 27.48 61.0644 27.704C60.7017 27.9173 60.323 28.248 59.9284 28.696V35H58.4564ZM76.847 35V26.312H78.319V35H76.847ZM77.583 24.52C77.295 24.52 77.0603 24.4347 76.879 24.264C76.7083 24.0827 76.623 23.8427 76.623 23.544C76.623 23.256 76.7083 23.0267 76.879 22.856C77.0603 22.6853 77.295 22.6 77.583 22.6C77.871 22.6 78.1057 22.6853 78.287 22.856C78.4683 23.0267 78.559 23.256 78.559 23.544C78.559 23.8427 78.4683 24.0827 78.287 24.264C78.1057 24.4347 77.871 24.52 77.583 24.52ZM81.2533 38.664V26.312H82.4533L82.5973 27.32H82.6293C83.0239 26.9893 83.4559 26.7013 83.9253 26.456C84.4053 26.2107 84.8959 26.088 85.3973 26.088C86.1439 26.088 86.7733 26.2747 87.2853 26.648C87.8079 27.0107 88.1973 27.5227 88.4533 28.184C88.7199 28.8453 88.8533 29.624 88.8533 30.52C88.8533 31.512 88.6719 32.36 88.3093 33.064C87.9573 33.7573 87.4933 34.2907 86.9173 34.664C86.3519 35.0267 85.7386 35.208 85.0773 35.208C84.6826 35.208 84.2826 35.1227 83.8773 34.952C83.4719 34.7707 83.0719 34.52 82.6773 34.2L82.7253 35.72V38.664H81.2533ZM84.8373 33.976C85.3173 33.976 85.7439 33.8427 86.1173 33.576C86.5013 33.2987 86.7999 32.904 87.0133 32.392C87.2266 31.8693 87.3333 31.2507 87.3333 30.536C87.3333 29.896 87.2533 29.336 87.0933 28.856C86.9439 28.3653 86.7039 27.9867 86.3733 27.72C86.0426 27.4533 85.5946 27.32 85.0293 27.32C84.6666 27.32 84.2933 27.4213 83.9093 27.624C83.5359 27.8267 83.1413 28.12 82.7253 28.504V33.08C83.1093 33.4107 83.4879 33.6453 83.8613 33.784C84.2346 33.912 84.5599 33.976 84.8373 33.976ZM93.369 35.208C92.761 35.208 92.169 35.096 91.593 34.872C91.0277 34.6373 90.5423 34.3493 90.137 34.008L90.841 33.032C91.225 33.3413 91.6197 33.592 92.025 33.784C92.4303 33.976 92.8943 34.072 93.417 34.072C93.993 34.072 94.4197 33.944 94.697 33.688C94.985 33.4213 95.129 33.096 95.129 32.712C95.129 32.4133 95.0277 32.168 94.825 31.976C94.633 31.7733 94.3823 31.6027 94.073 31.464C93.7743 31.3147 93.465 31.1813 93.145 31.064C92.7397 30.904 92.3397 30.728 91.945 30.536C91.561 30.3333 91.241 30.0773 90.985 29.768C90.7397 29.448 90.617 29.0427 90.617 28.552C90.617 28.0827 90.7343 27.6667 90.969 27.304C91.2037 26.9307 91.545 26.6373 91.993 26.424C92.441 26.2 92.9797 26.088 93.609 26.088C94.1423 26.088 94.6383 26.184 95.097 26.376C95.5663 26.568 95.9663 26.8027 96.297 27.08L95.593 27.992C95.2943 27.7787 94.985 27.5973 94.665 27.448C94.3557 27.2987 94.009 27.224 93.625 27.224C93.0703 27.224 92.6597 27.352 92.393 27.608C92.137 27.8533 92.009 28.1467 92.009 28.488C92.009 28.7547 92.0943 28.9787 92.265 29.16C92.4463 29.3413 92.681 29.496 92.969 29.624C93.257 29.7413 93.561 29.864 93.881 29.992C94.201 30.1093 94.5157 30.2373 94.825 30.376C95.145 30.5147 95.4277 30.68 95.673 30.872C95.929 31.064 96.1317 31.304 96.281 31.592C96.441 31.8693 96.521 32.216 96.521 32.632C96.521 33.1013 96.3983 33.5333 96.153 33.928C95.9183 34.3227 95.5663 34.6373 95.097 34.872C94.6383 35.096 94.0623 35.208 93.369 35.208ZM101.125 35.208C100.208 35.208 99.5307 34.92 99.0934 34.344C98.6667 33.768 98.4534 32.9253 98.4534 31.816V26.312H99.9254V31.64C99.9254 32.44 100.053 33.0267 100.309 33.4C100.565 33.7627 100.981 33.944 101.557 33.944C102.005 33.944 102.405 33.8267 102.757 33.592C103.109 33.3573 103.493 32.984 103.909 32.472V26.312H105.365V35H104.149L104.037 33.64H103.989C103.584 34.1093 103.152 34.488 102.693 34.776C102.245 35.064 101.723 35.208 101.125 35.208ZM108.3 35V26.312H109.5L109.644 27.576H109.676C110.06 27.16 110.476 26.808 110.924 26.52C111.383 26.232 111.868 26.088 112.38 26.088C113.052 26.088 113.575 26.2373 113.948 26.536C114.321 26.8347 114.599 27.24 114.78 27.752C115.239 27.2613 115.697 26.8613 116.156 26.552C116.625 26.2427 117.127 26.088 117.66 26.088C118.545 26.088 119.201 26.3813 119.628 26.968C120.065 27.544 120.284 28.3867 120.284 29.496V35H118.828V29.688C118.828 28.8667 118.695 28.2747 118.428 27.912C118.172 27.5493 117.767 27.368 117.212 27.368C116.881 27.368 116.535 27.48 116.172 27.704C115.82 27.9173 115.436 28.248 115.02 28.696V35H113.564V29.688C113.564 28.8667 113.431 28.2747 113.164 27.912C112.908 27.5493 112.503 27.368 111.948 27.368C111.617 27.368 111.271 27.48 110.908 27.704C110.545 27.9173 110.167 28.248 109.772 28.696V35H108.3ZM129.651 35.208C128.925 35.208 128.291 35.032 127.747 34.68C127.213 34.328 126.797 33.816 126.499 33.144C126.211 32.4613 126.067 31.6347 126.067 30.664C126.067 29.7253 126.243 28.9147 126.595 28.232C126.947 27.5493 127.405 27.0213 127.971 26.648C128.547 26.2747 129.165 26.088 129.827 26.088C130.339 26.088 130.776 26.1787 131.139 26.36C131.512 26.5307 131.891 26.776 132.275 27.096L132.195 25.608V22.264H133.667V35H132.467L132.339 33.976H132.291C131.949 34.3173 131.555 34.6107 131.107 34.856C130.659 35.0907 130.173 35.208 129.651 35.208ZM129.971 33.976C130.376 33.976 130.76 33.88 131.123 33.688C131.485 33.4853 131.843 33.1867 132.195 32.792V28.232C131.832 27.9013 131.48 27.6667 131.139 27.528C130.797 27.3893 130.445 27.32 130.083 27.32C129.624 27.32 129.203 27.464 128.819 27.752C128.445 28.0293 128.141 28.4187 127.907 28.92C127.683 29.4107 127.571 29.9867 127.571 30.648C127.571 31.3413 127.667 31.9387 127.859 32.44C128.051 32.9413 128.323 33.3253 128.675 33.592C129.037 33.848 129.469 33.976 129.971 33.976ZM139.989 35.208C139.285 35.208 138.623 35.032 138.005 34.68C137.386 34.3173 136.89 33.8 136.517 33.128C136.154 32.4453 135.973 31.624 135.973 30.664C135.973 29.6933 136.154 28.872 136.517 28.2C136.89 27.5173 137.386 26.9947 138.005 26.632C138.623 26.2693 139.285 26.088 139.989 26.088C140.522 26.088 141.029 26.1893 141.509 26.392C141.999 26.5947 142.431 26.8933 142.805 27.288C143.178 27.6827 143.471 28.1627 143.685 28.728C143.898 29.2933 144.005 29.9387 144.005 30.664C144.005 31.624 143.818 32.4453 143.445 33.128C143.071 33.8 142.581 34.3173 141.973 34.68C141.365 35.032 140.703 35.208 139.989 35.208ZM139.989 33.992C140.49 33.992 140.927 33.8533 141.301 33.576C141.685 33.2987 141.983 32.9093 142.197 32.408C142.41 31.9067 142.517 31.3253 142.517 30.664C142.517 29.992 142.41 29.4053 142.197 28.904C141.983 28.4027 141.685 28.0133 141.301 27.736C140.927 27.4587 140.49 27.32 139.989 27.32C139.487 27.32 139.045 27.4587 138.661 27.736C138.287 28.0133 137.994 28.4027 137.781 28.904C137.578 29.4053 137.477 29.992 137.477 30.664C137.477 31.3253 137.578 31.9067 137.781 32.408C137.994 32.9093 138.287 33.2987 138.661 33.576C139.045 33.8533 139.487 33.992 139.989 33.992ZM147.852 35.208C147.489 35.208 147.196 35.1333 146.972 34.984C146.748 34.8347 146.582 34.616 146.476 34.328C146.369 34.0293 146.316 33.6773 146.316 33.272V22.264H147.788V33.368C147.788 33.592 147.825 33.752 147.9 33.848C147.985 33.944 148.081 33.992 148.188 33.992C148.23 33.992 148.273 33.992 148.316 33.992C148.358 33.9813 148.417 33.9707 148.492 33.96L148.7 35.08C148.593 35.112 148.476 35.1387 148.348 35.16C148.22 35.192 148.054 35.208 147.852 35.208ZM154.239 35.208C153.535 35.208 152.873 35.032 152.255 34.68C151.636 34.3173 151.14 33.8 150.767 33.128C150.404 32.4453 150.223 31.624 150.223 30.664C150.223 29.6933 150.404 28.872 150.767 28.2C151.14 27.5173 151.636 26.9947 152.255 26.632C152.873 26.2693 153.535 26.088 154.239 26.088C154.772 26.088 155.279 26.1893 155.759 26.392C156.249 26.5947 156.681 26.8933 157.055 27.288C157.428 27.6827 157.721 28.1627 157.935 28.728C158.148 29.2933 158.255 29.9387 158.255 30.664C158.255 31.624 158.068 32.4453 157.695 33.128C157.321 33.8 156.831 34.3173 156.223 34.68C155.615 35.032 154.953 35.208 154.239 35.208ZM154.239 33.992C154.74 33.992 155.177 33.8533 155.551 33.576C155.935 33.2987 156.233 32.9093 156.447 32.408C156.66 31.9067 156.767 31.3253 156.767 30.664C156.767 29.992 156.66 29.4053 156.447 28.904C156.233 28.4027 155.935 28.0133 155.551 27.736C155.177 27.4587 154.74 27.32 154.239 27.32C153.737 27.32 153.295 27.4587 152.911 27.736C152.537 28.0133 152.244 28.4027 152.031 28.904C151.828 29.4053 151.727 29.992 151.727 30.664C151.727 31.3253 151.828 31.9067 152.031 32.408C152.244 32.9093 152.537 33.2987 152.911 33.576C153.295 33.8533 153.737 33.992 154.239 33.992ZM160.566 35V26.312H161.766L161.91 27.896H161.942C162.24 27.3413 162.603 26.904 163.03 26.584C163.467 26.2533 163.926 26.088 164.406 26.088C164.608 26.088 164.779 26.104 164.918 26.136C165.067 26.1573 165.206 26.2053 165.334 26.28L165.062 27.544C164.912 27.5013 164.779 27.4693 164.662 27.448C164.544 27.416 164.395 27.4 164.214 27.4C163.862 27.4 163.483 27.5547 163.078 27.864C162.672 28.1627 162.326 28.68 162.038 29.416V35H160.566ZM172.619 35.208C172.011 35.208 171.419 35.096 170.843 34.872C170.278 34.6373 169.792 34.3493 169.387 34.008L170.091 33.032C170.475 33.3413 170.87 33.592 171.275 33.784C171.68 33.976 172.144 34.072 172.667 34.072C173.243 34.072 173.67 33.944 173.947 33.688C174.235 33.4213 174.379 33.096 174.379 32.712C174.379 32.4133 174.278 32.168 174.075 31.976C173.883 31.7733 173.632 31.6027 173.323 31.464C173.024 31.3147 172.715 31.1813 172.395 31.064C171.99 30.904 171.59 30.728 171.195 30.536C170.811 30.3333 170.491 30.0773 170.235 29.768C169.99 29.448 169.867 29.0427 169.867 28.552C169.867 28.0827 169.984 27.6667 170.219 27.304C170.454 26.9307 170.795 26.6373 171.243 26.424C171.691 26.2 172.23 26.088 172.859 26.088C173.392 26.088 173.888 26.184 174.347 26.376C174.816 26.568 175.216 26.8027 175.547 27.08L174.843 27.992C174.544 27.7787 174.235 27.5973 173.915 27.448C173.606 27.2987 173.259 27.224 172.875 27.224C172.32 27.224 171.91 27.352 171.643 27.608C171.387 27.8533 171.259 28.1467 171.259 28.488C171.259 28.7547 171.344 28.9787 171.515 29.16C171.696 29.3413 171.931 29.496 172.219 29.624C172.507 29.7413 172.811 29.864 173.131 29.992C173.451 30.1093 173.766 30.2373 174.075 30.376C174.395 30.5147 174.678 30.68 174.923 30.872C175.179 31.064 175.382 31.304 175.531 31.592C175.691 31.8693 175.771 32.216 175.771 32.632C175.771 33.1013 175.648 33.5333 175.403 33.928C175.168 34.3227 174.816 34.6373 174.347 34.872C173.888 35.096 173.312 35.208 172.619 35.208ZM177.831 35V26.312H179.303V35H177.831ZM178.567 24.52C178.279 24.52 178.045 24.4347 177.863 24.264C177.693 24.0827 177.607 23.8427 177.607 23.544C177.607 23.256 177.693 23.0267 177.863 22.856C178.045 22.6853 178.279 22.6 178.567 22.6C178.855 22.6 179.09 22.6853 179.271 22.856C179.453 23.0267 179.543 23.256 179.543 23.544C179.543 23.8427 179.453 24.0827 179.271 24.264C179.09 24.4347 178.855 24.52 178.567 24.52ZM184.958 35.208C184.35 35.208 183.864 35.0907 183.502 34.856C183.139 34.6107 182.878 34.2693 182.718 33.832C182.568 33.3947 182.494 32.888 182.494 32.312V27.496H181.198V26.392L182.574 26.312L182.734 23.864H183.95V26.312H186.318V27.496H183.95V32.36C183.95 32.8827 184.046 33.2933 184.238 33.592C184.44 33.88 184.792 34.024 185.294 34.024C185.454 34.024 185.624 34.0027 185.806 33.96C185.987 33.9067 186.147 33.848 186.286 33.784L186.574 34.888C186.328 34.9733 186.067 35.048 185.79 35.112C185.512 35.176 185.235 35.208 184.958 35.208ZM193.847 35.208C193.367 35.208 192.935 35.112 192.551 34.92C192.167 34.728 191.863 34.4507 191.639 34.088C191.426 33.7147 191.319 33.2667 191.319 32.744C191.319 31.7947 191.74 31.0693 192.583 30.568C193.436 30.056 194.791 29.6987 196.647 29.496C196.647 29.1227 196.594 28.7707 196.487 28.44C196.391 28.0987 196.215 27.8267 195.959 27.624C195.703 27.4107 195.335 27.304 194.855 27.304C194.354 27.304 193.879 27.4053 193.431 27.608C192.994 27.8 192.599 28.008 192.247 28.232L191.687 27.224C191.954 27.0533 192.263 26.8827 192.615 26.712C192.967 26.5307 193.351 26.3813 193.767 26.264C194.183 26.1467 194.626 26.088 195.095 26.088C195.799 26.088 196.37 26.2373 196.807 26.536C197.255 26.8347 197.58 27.2507 197.783 27.784C197.996 28.3067 198.103 28.9307 198.103 29.656V35H196.903L196.775 33.96H196.727C196.322 34.3013 195.874 34.5947 195.383 34.84C194.903 35.0853 194.391 35.208 193.847 35.208ZM194.263 34.024C194.679 34.024 195.074 33.928 195.447 33.736C195.831 33.544 196.231 33.2613 196.647 32.888V30.472C195.676 30.5787 194.903 30.7333 194.327 30.936C193.751 31.128 193.34 31.368 193.095 31.656C192.85 31.9333 192.727 32.264 192.727 32.648C192.727 33.1493 192.876 33.5067 193.175 33.72C193.474 33.9227 193.836 34.024 194.263 34.024ZM200.863 35V26.312H202.063L202.207 27.576H202.239C202.623 27.16 203.039 26.808 203.487 26.52C203.945 26.232 204.431 26.088 204.943 26.088C205.615 26.088 206.137 26.2373 206.511 26.536C206.884 26.8347 207.161 27.24 207.343 27.752C207.801 27.2613 208.26 26.8613 208.719 26.552C209.188 26.2427 209.689 26.088 210.223 26.088C211.108 26.088 211.764 26.3813 212.191 26.968C212.628 27.544 212.847 28.3867 212.847 29.496V35H211.391V29.688C211.391 28.8667 211.257 28.2747 210.991 27.912C210.735 27.5493 210.329 27.368 209.775 27.368C209.444 27.368 209.097 27.48 208.735 27.704C208.383 27.9173 207.999 28.248 207.583 28.696V35H206.127V29.688C206.127 28.8667 205.993 28.2747 205.727 27.912C205.471 27.5493 205.065 27.368 204.511 27.368C204.18 27.368 203.833 27.48 203.471 27.704C203.108 27.9173 202.729 28.248 202.335 28.696V35H200.863ZM219.195 35.208C218.416 35.208 217.712 35.0267 217.083 34.664C216.454 34.3013 215.952 33.784 215.579 33.112C215.216 32.4293 215.035 31.6133 215.035 30.664C215.035 29.9493 215.142 29.3147 215.355 28.76C215.568 28.1947 215.856 27.7147 216.219 27.32C216.592 26.9147 217.014 26.6107 217.483 26.408C217.952 26.1947 218.432 26.088 218.923 26.088C219.67 26.088 220.299 26.2533 220.811 26.584C221.323 26.9147 221.712 27.3893 221.979 28.008C222.256 28.616 222.395 29.336 222.395 30.168C222.395 30.328 222.39 30.4773 222.379 30.616C222.368 30.7547 222.352 30.8827 222.331 31H216.475C216.507 31.6187 216.646 32.1573 216.891 32.616C217.147 33.064 217.483 33.416 217.899 33.672C218.315 33.9173 218.8 34.04 219.355 34.04C219.782 34.04 220.166 33.9813 220.507 33.864C220.859 33.736 221.2 33.5653 221.531 33.352L222.043 34.328C221.67 34.5733 221.248 34.7813 220.779 34.952C220.31 35.1227 219.782 35.208 219.195 35.208ZM216.459 29.96H221.115C221.115 29.0853 220.923 28.4187 220.539 27.96C220.166 27.4907 219.638 27.256 218.955 27.256C218.55 27.256 218.166 27.3627 217.803 27.576C217.451 27.7893 217.152 28.0933 216.907 28.488C216.672 28.8827 216.523 29.3733 216.459 29.96ZM227.036 35.208C226.428 35.208 225.942 35.0907 225.58 34.856C225.217 34.6107 224.956 34.2693 224.796 33.832C224.646 33.3947 224.572 32.888 224.572 32.312V27.496H223.276V26.392L224.652 26.312L224.812 23.864H226.028V26.312H228.396V27.496H226.028V32.36C226.028 32.8827 226.124 33.2933 226.316 33.592C226.518 33.88 226.87 34.024 227.372 34.024C227.532 34.024 227.702 34.0027 227.884 33.96C228.065 33.9067 228.225 33.848 228.364 33.784L228.652 34.888C228.406 34.9733 228.145 35.048 227.868 35.112C227.59 35.176 227.313 35.208 227.036 35.208ZM230.169 38.04L229.817 37.176C230.318 36.952 230.713 36.648 231.001 36.264C231.289 35.88 231.427 35.4427 231.417 34.952L231.257 33.64L231.977 34.712C231.87 34.8293 231.753 34.9147 231.625 34.968C231.507 35.0107 231.379 35.032 231.241 35.032C230.953 35.032 230.702 34.9413 230.489 34.76C230.275 34.5787 230.169 34.328 230.169 34.008C230.169 33.688 230.275 33.4373 230.489 33.256C230.713 33.0747 230.974 32.984 231.273 32.984C231.657 32.984 231.955 33.1387 232.169 33.448C232.393 33.7467 232.505 34.1627 232.505 34.696C232.505 35.464 232.291 36.136 231.865 36.712C231.449 37.288 230.883 37.7307 230.169 38.04ZM28.896 59.208C28.128 59.208 27.4347 59.032 26.816 58.68C26.208 58.3173 25.7227 57.8 25.36 57.128C25.008 56.4453 24.832 55.624 24.832 54.664C24.832 53.6933 25.024 52.872 25.408 52.2C25.792 51.5173 26.304 50.9947 26.944 50.632C27.584 50.2693 28.272 50.088 29.008 50.088C29.5733 50.088 30.0587 50.1893 30.464 50.392C30.88 50.5947 31.2373 50.8347 31.536 51.112L30.8 52.072C30.5547 51.848 30.288 51.6667 30 51.528C29.7227 51.3893 29.4133 51.32 29.072 51.32C28.5493 51.32 28.08 51.4587 27.664 51.736C27.248 52.0133 26.9227 52.4027 26.688 52.904C26.4533 53.4053 26.336 53.992 26.336 54.664C26.336 55.3253 26.448 55.9067 26.672 56.408C26.9067 56.9093 27.2213 57.2987 27.616 57.576C28.0213 57.8533 28.4907 57.992 29.024 57.992C29.4293 57.992 29.8027 57.912 30.144 57.752C30.4853 57.5813 30.7947 57.3733 31.072 57.128L31.712 58.12C31.3173 58.4613 30.88 58.728 30.4 58.92C29.92 59.112 29.4187 59.208 28.896 59.208ZM36.5824 59.208C35.8784 59.208 35.217 59.032 34.5984 58.68C33.9797 58.3173 33.4837 57.8 33.1104 57.128C32.7477 56.4453 32.5664 55.624 32.5664 54.664C32.5664 53.6933 32.7477 52.872 33.1104 52.2C33.4837 51.5173 33.9797 50.9947 34.5984 50.632C35.217 50.2693 35.8784 50.088 36.5824 50.088C37.1157 50.088 37.6224 50.1893 38.1024 50.392C38.593 50.5947 39.025 50.8933 39.3984 51.288C39.7717 51.6827 40.065 52.1627 40.2784 52.728C40.4917 53.2933 40.5984 53.9387 40.5984 54.664C40.5984 55.624 40.4117 56.4453 40.0384 57.128C39.665 57.8 39.1744 58.3173 38.5664 58.68C37.9584 59.032 37.297 59.208 36.5824 59.208ZM36.5824 57.992C37.0837 57.992 37.521 57.8533 37.8944 57.576C38.2784 57.2987 38.577 56.9093 38.7904 56.408C39.0037 55.9067 39.1104 55.3253 39.1104 54.664C39.1104 53.992 39.0037 53.4053 38.7904 52.904C38.577 52.4027 38.2784 52.0133 37.8944 51.736C37.521 51.4587 37.0837 51.32 36.5824 51.32C36.081 51.32 35.6384 51.4587 35.2544 51.736C34.881 52.0133 34.5877 52.4027 34.3744 52.904C34.1717 53.4053 34.0704 53.992 34.0704 54.664C34.0704 55.3253 34.1717 55.9067 34.3744 56.408C34.5877 56.9093 34.881 57.2987 35.2544 57.576C35.6384 57.8533 36.081 57.992 36.5824 57.992ZM42.9095 59V50.312H44.1095L44.2535 51.576H44.2855C44.7015 51.16 45.1388 50.808 45.5975 50.52C46.0668 50.232 46.6002 50.088 47.1975 50.088C48.1148 50.088 48.7868 50.3813 49.2135 50.968C49.6402 51.544 49.8535 52.3867 49.8535 53.496V59H48.3975V53.688C48.3975 52.8667 48.2642 52.2747 47.9975 51.912C47.7415 51.5493 47.3255 51.368 46.7495 51.368C46.3015 51.368 45.9015 51.48 45.5495 51.704C45.1975 51.928 44.8082 52.2587 44.3815 52.696V59H42.9095ZM54.9471 59.208C54.3391 59.208 53.7471 59.096 53.1711 58.872C52.6058 58.6373 52.1205 58.3493 51.7151 58.008L52.4191 57.032C52.8031 57.3413 53.1978 57.592 53.6031 57.784C54.0085 57.976 54.4725 58.072 54.9951 58.072C55.5711 58.072 55.9978 57.944 56.2751 57.688C56.5631 57.4213 56.7071 57.096 56.7071 56.712C56.7071 56.4133 56.6058 56.168 56.4031 55.976C56.2111 55.7733 55.9605 55.6027 55.6511 55.464C55.3525 55.3147 55.0431 55.1813 54.7231 55.064C54.3178 54.904 53.9178 54.728 53.5231 54.536C53.1391 54.3333 52.8191 54.0773 52.5631 53.768C52.3178 53.448 52.1951 53.0427 52.1951 52.552C52.1951 52.0827 52.3125 51.6667 52.5471 51.304C52.7818 50.9307 53.1231 50.6373 53.5711 50.424C54.0191 50.2 54.5578 50.088 55.1871 50.088C55.7205 50.088 56.2165 50.184 56.6751 50.376C57.1445 50.568 57.5445 50.8027 57.8751 51.08L57.1711 51.992C56.8725 51.7787 56.5631 51.5973 56.2431 51.448C55.9338 51.2987 55.5871 51.224 55.2031 51.224C54.6485 51.224 54.2378 51.352 53.9711 51.608C53.7151 51.8533 53.5871 52.1467 53.5871 52.488C53.5871 52.7547 53.6725 52.9787 53.8431 53.16C54.0245 53.3413 54.2591 53.496 54.5471 53.624C54.8351 53.7413 55.1391 53.864 55.4591 53.992C55.7791 54.1093 56.0938 54.2373 56.4031 54.376C56.7231 54.5147 57.0058 54.68 57.2511 54.872C57.5071 55.064 57.7098 55.304 57.8591 55.592C58.0191 55.8693 58.0991 56.216 58.0991 56.632C58.0991 57.1013 57.9765 57.5333 57.7311 57.928C57.4965 58.3227 57.1445 58.6373 56.6751 58.872C56.2165 59.096 55.6405 59.208 54.9471 59.208ZM63.6795 59.208C62.9008 59.208 62.1968 59.0267 61.5675 58.664C60.9382 58.3013 60.4368 57.784 60.0635 57.112C59.7008 56.4293 59.5195 55.6133 59.5195 54.664C59.5195 53.9493 59.6262 53.3147 59.8395 52.76C60.0528 52.1947 60.3408 51.7147 60.7035 51.32C61.0768 50.9147 61.4982 50.6107 61.9675 50.408C62.4368 50.1947 62.9168 50.088 63.4075 50.088C64.1542 50.088 64.7835 50.2533 65.2955 50.584C65.8075 50.9147 66.1968 51.3893 66.4635 52.008C66.7408 52.616 66.8795 53.336 66.8795 54.168C66.8795 54.328 66.8742 54.4773 66.8635 54.616C66.8528 54.7547 66.8368 54.8827 66.8155 55H60.9595C60.9915 55.6187 61.1302 56.1573 61.3755 56.616C61.6315 57.064 61.9675 57.416 62.3835 57.672C62.7995 57.9173 63.2848 58.04 63.8395 58.04C64.2662 58.04 64.6502 57.9813 64.9915 57.864C65.3435 57.736 65.6848 57.5653 66.0155 57.352L66.5275 58.328C66.1542 58.5733 65.7328 58.7813 65.2635 58.952C64.7942 59.1227 64.2662 59.208 63.6795 59.208ZM60.9435 53.96H65.5995C65.5995 53.0853 65.4075 52.4187 65.0235 51.96C64.6502 51.4907 64.1222 51.256 63.4395 51.256C63.0342 51.256 62.6502 51.3627 62.2875 51.576C61.9355 51.7893 61.6368 52.0933 61.3915 52.488C61.1568 52.8827 61.0075 53.3733 60.9435 53.96ZM72.4429 59.208C71.6749 59.208 70.9815 59.032 70.3629 58.68C69.7549 58.3173 69.2695 57.8 68.9069 57.128C68.5549 56.4453 68.3789 55.624 68.3789 54.664C68.3789 53.6933 68.5709 52.872 68.9549 52.2C69.3389 51.5173 69.8509 50.9947 70.4909 50.632C71.1309 50.2693 71.8189 50.088 72.5549 50.088C73.1202 50.088 73.6055 50.1893 74.0109 50.392C74.4269 50.5947 74.7842 50.8347 75.0829 51.112L74.3469 52.072C74.1015 51.848 73.8349 51.6667 73.5469 51.528C73.2695 51.3893 72.9602 51.32 72.6189 51.32C72.0962 51.32 71.6269 51.4587 71.2109 51.736C70.7949 52.0133 70.4695 52.4027 70.2349 52.904C70.0002 53.4053 69.8829 53.992 69.8829 54.664C69.8829 55.3253 69.9949 55.9067 70.2189 56.408C70.4535 56.9093 70.7682 57.2987 71.1629 57.576C71.5682 57.8533 72.0375 57.992 72.5709 57.992C72.9762 57.992 73.3495 57.912 73.6909 57.752C74.0322 57.5813 74.3415 57.3733 74.6189 57.128L75.2589 58.12C74.8642 58.4613 74.4269 58.728 73.9469 58.92C73.4669 59.112 72.9655 59.208 72.4429 59.208ZM79.6764 59.208C79.0684 59.208 78.583 59.0907 78.2204 58.856C77.8577 58.6107 77.5964 58.2693 77.4364 57.832C77.287 57.3947 77.2124 56.888 77.2124 56.312V51.496H75.9164V50.392L77.2924 50.312L77.4524 47.864H78.6684V50.312H81.0364V51.496H78.6684V56.36C78.6684 56.8827 78.7644 57.2933 78.9564 57.592C79.159 57.88 79.511 58.024 80.0124 58.024C80.1724 58.024 80.343 58.0027 80.5244 57.96C80.7057 57.9067 80.8657 57.848 81.0044 57.784L81.2924 58.888C81.047 58.9733 80.7857 59.048 80.5084 59.112C80.231 59.176 79.9537 59.208 79.6764 59.208ZM86.2264 59.208C85.4477 59.208 84.7437 59.0267 84.1144 58.664C83.485 58.3013 82.9837 57.784 82.6104 57.112C82.2477 56.4293 82.0664 55.6133 82.0664 54.664C82.0664 53.9493 82.173 53.3147 82.3864 52.76C82.5997 52.1947 82.8877 51.7147 83.2504 51.32C83.6237 50.9147 84.045 50.6107 84.5144 50.408C84.9837 50.1947 85.4637 50.088 85.9544 50.088C86.701 50.088 87.3304 50.2533 87.8424 50.584C88.3544 50.9147 88.7437 51.3893 89.0104 52.008C89.2877 52.616 89.4264 53.336 89.4264 54.168C89.4264 54.328 89.421 54.4773 89.4104 54.616C89.3997 54.7547 89.3837 54.8827 89.3624 55H83.5064C83.5384 55.6187 83.677 56.1573 83.9224 56.616C84.1784 57.064 84.5144 57.416 84.9304 57.672C85.3464 57.9173 85.8317 58.04 86.3864 58.04C86.813 58.04 87.197 57.9813 87.5384 57.864C87.8904 57.736 88.2317 57.5653 88.5624 57.352L89.0744 58.328C88.701 58.5733 88.2797 58.7813 87.8104 58.952C87.341 59.1227 86.813 59.208 86.2264 59.208ZM83.4904 53.96H88.1464C88.1464 53.0853 87.9544 52.4187 87.5704 51.96C87.197 51.4907 86.669 51.256 85.9864 51.256C85.581 51.256 85.197 51.3627 84.8344 51.576C84.4824 51.7893 84.1837 52.0933 83.9384 52.488C83.7037 52.8827 83.5544 53.3733 83.4904 53.96ZM94.067 59.208C93.459 59.208 92.9737 59.0907 92.611 58.856C92.2483 58.6107 91.987 58.2693 91.827 57.832C91.6777 57.3947 91.603 56.888 91.603 56.312V51.496H90.307V50.392L91.683 50.312L91.843 47.864H93.059V50.312H95.427V51.496H93.059V56.36C93.059 56.8827 93.155 57.2933 93.347 57.592C93.5497 57.88 93.9017 58.024 94.403 58.024C94.563 58.024 94.7337 58.0027 94.915 57.96C95.0963 57.9067 95.2563 57.848 95.395 57.784L95.683 58.888C95.4377 58.9733 95.1763 59.048 94.899 59.112C94.6217 59.176 94.3443 59.208 94.067 59.208ZM99.9223 59.208C99.0049 59.208 98.3276 58.92 97.8903 58.344C97.4636 57.768 97.2503 56.9253 97.2503 55.816V50.312H98.7223V55.64C98.7223 56.44 98.8503 57.0267 99.1063 57.4C99.3623 57.7627 99.7783 57.944 100.354 57.944C100.802 57.944 101.202 57.8267 101.554 57.592C101.906 57.3573 102.29 56.984 102.706 56.472V50.312H104.162V59H102.946L102.834 57.64H102.786C102.381 58.1093 101.949 58.488 101.49 58.776C101.042 59.064 100.52 59.208 99.9223 59.208ZM107.097 59V50.312H108.297L108.441 51.896H108.473C108.772 51.3413 109.134 50.904 109.561 50.584C109.998 50.2533 110.457 50.088 110.937 50.088C111.14 50.088 111.31 50.104 111.449 50.136C111.598 50.1573 111.737 50.2053 111.865 50.28L111.593 51.544C111.444 51.5013 111.31 51.4693 111.193 51.448C111.076 51.416 110.926 51.4 110.745 51.4C110.393 51.4 110.014 51.5547 109.609 51.864C109.204 52.1627 108.857 52.68 108.569 53.416V59H107.097ZM118.878 59.208C118.398 59.208 117.966 59.112 117.582 58.92C117.198 58.728 116.894 58.4507 116.67 58.088C116.457 57.7147 116.35 57.2667 116.35 56.744C116.35 55.7947 116.772 55.0693 117.614 54.568C118.468 54.056 119.822 53.6987 121.678 53.496C121.678 53.1227 121.625 52.7707 121.518 52.44C121.422 52.0987 121.246 51.8267 120.99 51.624C120.734 51.4107 120.366 51.304 119.886 51.304C119.385 51.304 118.91 51.4053 118.462 51.608C118.025 51.8 117.63 52.008 117.278 52.232L116.718 51.224C116.985 51.0533 117.294 50.8827 117.646 50.712C117.998 50.5307 118.382 50.3813 118.798 50.264C119.214 50.1467 119.657 50.088 120.126 50.088C120.83 50.088 121.401 50.2373 121.838 50.536C122.286 50.8347 122.612 51.2507 122.814 51.784C123.028 52.3067 123.134 52.9307 123.134 53.656V59H121.934L121.806 57.96H121.758C121.353 58.3013 120.905 58.5947 120.414 58.84C119.934 59.0853 119.422 59.208 118.878 59.208ZM119.294 58.024C119.71 58.024 120.105 57.928 120.478 57.736C120.862 57.544 121.262 57.2613 121.678 56.888V54.472C120.708 54.5787 119.934 54.7333 119.358 54.936C118.782 55.128 118.372 55.368 118.126 55.656C117.881 55.9333 117.758 56.264 117.758 56.648C117.758 57.1493 117.908 57.5067 118.206 57.72C118.505 57.9227 118.868 58.024 119.294 58.024ZM128.854 59.208C128.129 59.208 127.494 59.032 126.95 58.68C126.417 58.328 126.001 57.816 125.702 57.144C125.414 56.4613 125.27 55.6347 125.27 54.664C125.27 53.7253 125.446 52.9147 125.798 52.232C126.15 51.5493 126.609 51.0213 127.174 50.648C127.75 50.2747 128.369 50.088 129.03 50.088C129.542 50.088 129.979 50.1787 130.342 50.36C130.715 50.5307 131.094 50.776 131.478 51.096L131.398 49.608V46.264H132.87V59H131.67L131.542 57.976H131.494C131.153 58.3173 130.758 58.6107 130.31 58.856C129.862 59.0907 129.377 59.208 128.854 59.208ZM129.174 57.976C129.579 57.976 129.963 57.88 130.326 57.688C130.689 57.4853 131.046 57.1867 131.398 56.792V52.232C131.035 51.9013 130.683 51.6667 130.342 51.528C130.001 51.3893 129.649 51.32 129.286 51.32C128.827 51.32 128.406 51.464 128.022 51.752C127.649 52.0293 127.345 52.4187 127.11 52.92C126.886 53.4107 126.774 53.9867 126.774 54.648C126.774 55.3413 126.87 55.9387 127.062 56.44C127.254 56.9413 127.526 57.3253 127.878 57.592C128.241 57.848 128.673 57.976 129.174 57.976ZM135.816 59V50.312H137.288V59H135.816ZM136.552 48.52C136.264 48.52 136.029 48.4347 135.848 48.264C135.677 48.0827 135.592 47.8427 135.592 47.544C135.592 47.256 135.677 47.0267 135.848 46.856C136.029 46.6853 136.264 46.6 136.552 46.6C136.84 46.6 137.074 46.6853 137.256 46.856C137.437 47.0267 137.528 47.256 137.528 47.544C137.528 47.8427 137.437 48.0827 137.256 48.264C137.074 48.4347 136.84 48.52 136.552 48.52ZM140.222 62.664V50.312H141.422L141.566 51.32H141.598C141.993 50.9893 142.425 50.7013 142.894 50.456C143.374 50.2107 143.865 50.088 144.366 50.088C145.113 50.088 145.742 50.2747 146.254 50.648C146.777 51.0107 147.166 51.5227 147.422 52.184C147.689 52.8453 147.822 53.624 147.822 54.52C147.822 55.512 147.641 56.36 147.278 57.064C146.926 57.7573 146.462 58.2907 145.886 58.664C145.321 59.0267 144.707 59.208 144.046 59.208C143.651 59.208 143.251 59.1227 142.846 58.952C142.441 58.7707 142.041 58.52 141.646 58.2L141.694 59.72V62.664H140.222ZM143.806 57.976C144.286 57.976 144.713 57.8427 145.086 57.576C145.47 57.2987 145.769 56.904 145.982 56.392C146.195 55.8693 146.302 55.2507 146.302 54.536C146.302 53.896 146.222 53.336 146.062 52.856C145.913 52.3653 145.673 51.9867 145.342 51.72C145.011 51.4533 144.563 51.32 143.998 51.32C143.635 51.32 143.262 51.4213 142.878 51.624C142.505 51.8267 142.11 52.12 141.694 52.504V57.08C142.078 57.4107 142.457 57.6453 142.83 57.784C143.203 57.912 143.529 57.976 143.806 57.976ZM150.144 59V50.312H151.616V59H150.144ZM150.88 48.52C150.592 48.52 150.357 48.4347 150.176 48.264C150.005 48.0827 149.92 47.8427 149.92 47.544C149.92 47.256 150.005 47.0267 150.176 46.856C150.357 46.6853 150.592 46.6 150.88 46.6C151.168 46.6 151.403 46.6853 151.584 46.856C151.765 47.0267 151.856 47.256 151.856 47.544C151.856 47.8427 151.765 48.0827 151.584 48.264C151.403 48.4347 151.168 48.52 150.88 48.52ZM156.822 59.208C156.214 59.208 155.622 59.096 155.046 58.872C154.481 58.6373 153.995 58.3493 153.59 58.008L154.294 57.032C154.678 57.3413 155.073 57.592 155.478 57.784C155.883 57.976 156.347 58.072 156.87 58.072C157.446 58.072 157.873 57.944 158.15 57.688C158.438 57.4213 158.582 57.096 158.582 56.712C158.582 56.4133 158.481 56.168 158.278 55.976C158.086 55.7733 157.835 55.6027 157.526 55.464C157.227 55.3147 156.918 55.1813 156.598 55.064C156.193 54.904 155.793 54.728 155.398 54.536C155.014 54.3333 154.694 54.0773 154.438 53.768C154.193 53.448 154.07 53.0427 154.07 52.552C154.07 52.0827 154.187 51.6667 154.422 51.304C154.657 50.9307 154.998 50.6373 155.446 50.424C155.894 50.2 156.433 50.088 157.062 50.088C157.595 50.088 158.091 50.184 158.55 50.376C159.019 50.568 159.419 50.8027 159.75 51.08L159.046 51.992C158.747 51.7787 158.438 51.5973 158.118 51.448C157.809 51.2987 157.462 51.224 157.078 51.224C156.523 51.224 156.113 51.352 155.846 51.608C155.59 51.8533 155.462 52.1467 155.462 52.488C155.462 52.7547 155.547 52.9787 155.718 53.16C155.899 53.3413 156.134 53.496 156.422 53.624C156.71 53.7413 157.014 53.864 157.334 53.992C157.654 54.1093 157.969 54.2373 158.278 54.376C158.598 54.5147 158.881 54.68 159.126 54.872C159.382 55.064 159.585 55.304 159.734 55.592C159.894 55.8693 159.974 56.216 159.974 56.632C159.974 57.1013 159.851 57.5333 159.606 57.928C159.371 58.3227 159.019 58.6373 158.55 58.872C158.091 59.096 157.515 59.208 156.822 59.208ZM165.459 59.208C164.691 59.208 163.997 59.032 163.379 58.68C162.771 58.3173 162.285 57.8 161.923 57.128C161.571 56.4453 161.395 55.624 161.395 54.664C161.395 53.6933 161.587 52.872 161.971 52.2C162.355 51.5173 162.867 50.9947 163.507 50.632C164.147 50.2693 164.835 50.088 165.571 50.088C166.136 50.088 166.621 50.1893 167.027 50.392C167.443 50.5947 167.8 50.8347 168.099 51.112L167.363 52.072C167.117 51.848 166.851 51.6667 166.563 51.528C166.285 51.3893 165.976 51.32 165.635 51.32C165.112 51.32 164.643 51.4587 164.227 51.736C163.811 52.0133 163.485 52.4027 163.251 52.904C163.016 53.4053 162.899 53.992 162.899 54.664C162.899 55.3253 163.011 55.9067 163.235 56.408C163.469 56.9093 163.784 57.2987 164.179 57.576C164.584 57.8533 165.053 57.992 165.587 57.992C165.992 57.992 166.365 57.912 166.707 57.752C167.048 57.5813 167.357 57.3733 167.635 57.128L168.275 58.12C167.88 58.4613 167.443 58.728 166.963 58.92C166.483 59.112 165.981 59.208 165.459 59.208ZM170.191 59V50.312H171.663V59H170.191ZM170.927 48.52C170.639 48.52 170.404 48.4347 170.223 48.264C170.052 48.0827 169.967 47.8427 169.967 47.544C169.967 47.256 170.052 47.0267 170.223 46.856C170.404 46.6853 170.639 46.6 170.927 46.6C171.215 46.6 171.449 46.6853 171.631 46.856C171.812 47.0267 171.903 47.256 171.903 47.544C171.903 47.8427 171.812 48.0827 171.631 48.264C171.449 48.4347 171.215 48.52 170.927 48.52ZM174.597 59V50.312H175.797L175.941 51.576H175.973C176.389 51.16 176.826 50.808 177.285 50.52C177.754 50.232 178.288 50.088 178.885 50.088C179.802 50.088 180.474 50.3813 180.901 50.968C181.328 51.544 181.541 52.3867 181.541 53.496V59H180.085V53.688C180.085 52.8667 179.952 52.2747 179.685 51.912C179.429 51.5493 179.013 51.368 178.437 51.368C177.989 51.368 177.589 51.48 177.237 51.704C176.885 51.928 176.496 52.2587 176.069 52.696V59H174.597ZM187.291 63C186.587 63 185.963 62.9093 185.419 62.728C184.875 62.5467 184.453 62.28 184.155 61.928C183.856 61.5867 183.707 61.1707 183.707 60.68C183.707 60.3067 183.819 59.944 184.043 59.592C184.267 59.2507 184.581 58.9573 184.987 58.712V58.632C184.763 58.4933 184.576 58.3067 184.427 58.072C184.277 57.8373 184.203 57.5493 184.203 57.208C184.203 56.8453 184.304 56.5253 184.507 56.248C184.72 55.9707 184.939 55.752 185.163 55.592V55.528C184.875 55.304 184.613 54.9893 184.379 54.584C184.144 54.1787 184.027 53.7147 184.027 53.192C184.027 52.552 184.176 52.0027 184.475 51.544C184.773 51.0747 185.168 50.7173 185.659 50.472C186.16 50.216 186.699 50.088 187.275 50.088C187.531 50.088 187.76 50.1093 187.963 50.152C188.176 50.1947 188.357 50.248 188.507 50.312H191.531V51.432H189.755C189.968 51.6347 190.139 51.8907 190.267 52.2C190.395 52.5093 190.459 52.8507 190.459 53.224C190.459 53.8427 190.315 54.3813 190.027 54.84C189.749 55.288 189.371 55.6347 188.891 55.88C188.411 56.1253 187.872 56.248 187.275 56.248C187.072 56.248 186.853 56.2213 186.619 56.168C186.395 56.1147 186.187 56.04 185.995 55.944C185.835 56.072 185.701 56.216 185.595 56.376C185.488 56.536 185.435 56.7387 185.435 56.984C185.435 57.2507 185.541 57.4747 185.755 57.656C185.968 57.8373 186.368 57.928 186.955 57.928H188.667C189.669 57.928 190.421 58.0933 190.923 58.424C191.435 58.7547 191.691 59.2773 191.691 59.992C191.691 60.5253 191.509 61.0213 191.147 61.48C190.784 61.9387 190.272 62.3067 189.611 62.584C188.96 62.8613 188.187 63 187.291 63ZM187.275 55.256C187.616 55.256 187.925 55.1707 188.203 55C188.491 54.8293 188.715 54.5893 188.875 54.28C189.045 53.9707 189.131 53.608 189.131 53.192C189.131 52.7653 189.045 52.4027 188.875 52.104C188.715 51.7947 188.496 51.56 188.219 51.4C187.941 51.24 187.627 51.16 187.275 51.16C186.944 51.16 186.635 51.24 186.347 51.4C186.069 51.56 185.845 51.7893 185.675 52.088C185.515 52.3867 185.435 52.7547 185.435 53.192C185.435 53.608 185.52 53.9707 185.691 54.28C185.861 54.5893 186.085 54.8293 186.363 55C186.64 55.1707 186.944 55.256 187.275 55.256ZM187.499 61.992C188.053 61.992 188.533 61.9067 188.939 61.736C189.355 61.5653 189.675 61.3413 189.899 61.064C190.133 60.7973 190.251 60.52 190.251 60.232C190.251 59.816 190.101 59.528 189.803 59.368C189.504 59.208 189.067 59.128 188.491 59.128H186.987C186.827 59.128 186.645 59.1173 186.443 59.096C186.251 59.0853 186.059 59.0533 185.867 59C185.557 59.2133 185.333 59.448 185.195 59.704C185.056 59.9707 184.987 60.2267 184.987 60.472C184.987 60.9307 185.205 61.2987 185.643 61.576C186.091 61.8533 186.709 61.992 187.499 61.992ZM200.492 59.208C199.713 59.208 199.009 59.0267 198.38 58.664C197.751 58.3013 197.249 57.784 196.876 57.112C196.513 56.4293 196.332 55.6133 196.332 54.664C196.332 53.9493 196.439 53.3147 196.652 52.76C196.865 52.1947 197.153 51.7147 197.516 51.32C197.889 50.9147 198.311 50.6107 198.78 50.408C199.249 50.1947 199.729 50.088 200.22 50.088C200.967 50.088 201.596 50.2533 202.108 50.584C202.62 50.9147 203.009 51.3893 203.276 52.008C203.553 52.616 203.692 53.336 203.692 54.168C203.692 54.328 203.687 54.4773 203.676 54.616C203.665 54.7547 203.649 54.8827 203.628 55H197.772C197.804 55.6187 197.943 56.1573 198.188 56.616C198.444 57.064 198.78 57.416 199.196 57.672C199.612 57.9173 200.097 58.04 200.652 58.04C201.079 58.04 201.463 57.9813 201.804 57.864C202.156 57.736 202.497 57.5653 202.828 57.352L203.34 58.328C202.967 58.5733 202.545 58.7813 202.076 58.952C201.607 59.1227 201.079 59.208 200.492 59.208ZM197.756 53.96H202.412C202.412 53.0853 202.22 52.4187 201.836 51.96C201.463 51.4907 200.935 51.256 200.252 51.256C199.847 51.256 199.463 51.3627 199.1 51.576C198.748 51.7893 198.449 52.0933 198.204 52.488C197.969 52.8827 197.82 53.3733 197.756 53.96ZM207.367 59.208C207.005 59.208 206.711 59.1333 206.487 58.984C206.263 58.8347 206.098 58.616 205.991 58.328C205.885 58.0293 205.831 57.6773 205.831 57.272V46.264H207.303V57.368C207.303 57.592 207.341 57.752 207.415 57.848C207.501 57.944 207.597 57.992 207.703 57.992C207.746 57.992 207.789 57.992 207.831 57.992C207.874 57.9813 207.933 57.9707 208.007 57.96L208.215 59.08C208.109 59.112 207.991 59.1387 207.863 59.16C207.735 59.192 207.57 59.208 207.367 59.208ZM210.378 59V50.312H211.85V59H210.378ZM211.114 48.52C210.826 48.52 210.592 48.4347 210.41 48.264C210.24 48.0827 210.154 47.8427 210.154 47.544C210.154 47.256 210.24 47.0267 210.41 46.856C210.592 46.6853 210.826 46.6 211.114 46.6C211.402 46.6 211.637 46.6853 211.818 46.856C212 47.0267 212.09 47.256 212.09 47.544C212.09 47.8427 212 48.0827 211.818 48.264C211.637 48.4347 211.402 48.52 211.114 48.52ZM217.505 59.208C216.897 59.208 216.411 59.0907 216.049 58.856C215.686 58.6107 215.425 58.2693 215.265 57.832C215.115 57.3947 215.041 56.888 215.041 56.312V51.496H213.745V50.392L215.121 50.312L215.281 47.864H216.497V50.312H218.865V51.496H216.497V56.36C216.497 56.8827 216.593 57.2933 216.785 57.592C216.987 57.88 217.339 58.024 217.841 58.024C218.001 58.024 218.171 58.0027 218.353 57.96C218.534 57.9067 218.694 57.848 218.833 57.784L219.121 58.888C218.875 58.9733 218.614 59.048 218.337 59.112C218.059 59.176 217.782 59.208 217.505 59.208ZM221.662 59.208C221.374 59.208 221.123 59.1067 220.91 58.904C220.707 58.6907 220.606 58.424 220.606 58.104C220.606 57.7627 220.707 57.4907 220.91 57.288C221.123 57.0853 221.374 56.984 221.662 56.984C221.95 56.984 222.195 57.0853 222.398 57.288C222.611 57.4907 222.718 57.7627 222.718 58.104C222.718 58.424 222.611 58.6907 222.398 58.904C222.195 59.1067 221.95 59.208 221.662 59.208ZM226.563 51.864C226.861 51.864 227.112 51.9653 227.315 52.168C227.517 52.3707 227.619 52.6213 227.619 52.92C227.619 53.208 227.517 53.4587 227.315 53.672C227.112 53.8747 226.861 53.976 226.563 53.976C226.275 53.976 226.024 53.8747 225.811 53.672C225.608 53.4587 225.507 53.208 225.507 52.92C225.507 52.6213 225.608 52.3707 225.811 52.168C226.024 51.9653 226.275 51.864 226.563 51.864ZM231.891 51.864C232.189 51.864 232.44 51.9653 232.643 52.168C232.845 52.3707 232.947 52.6213 232.947 52.92C232.947 53.208 232.845 53.4587 232.643 53.672C232.44 53.8747 232.189 53.976 231.891 53.976C231.603 53.976 231.352 53.8747 231.139 53.672C230.936 53.4587 230.835 53.208 230.835 52.92C230.835 52.6213 230.936 52.3707 231.139 52.168C231.352 51.9653 231.603 51.864 231.891 51.864ZM237.219 51.864C237.517 51.864 237.768 51.9653 237.971 52.168C238.173 52.3707 238.275 52.6213 238.275 52.92C238.275 53.208 238.173 53.4587 237.971 53.672C237.768 53.8747 237.517 53.976 237.219 53.976C236.931 53.976 236.68 53.8747 236.467 53.672C236.264 53.4587 236.163 53.208 236.163 52.92C236.163 52.6213 236.264 52.3707 236.467 52.168C236.68 51.9653 236.931 51.864 237.219 51.864Z" fill="#1A1A1A"/>
</svg>
