<svg xmlns="http://www.w3.org/2000/svg" width="200" height="60" viewBox="0 0 200 60"><g><defs><clipPath id="clip-0"><rect x="0" y="0" width="200" height="60"/></clipPath></defs><g clip-path="url(#clip-0)"><g transform="matrix(1,0,0,1,10,15)"><path d="M7.24609375 14L1.23046875 14L1.23046875 3.814453125L2.529296875 3.814453125L2.529296875 12.8515625L7.24609375 12.8515625L7.24609375 14M12.208984375 14.1640625L12.208984375 14.1640625C11.470703125 14.1640625 10.833821684122086 14 10.29833984375 13.671875C9.762858003377914 13.34375 9.350423142313957 12.8857421875 9.06103515625 12.2978515625C8.771647118031979 11.7099609375 8.626953125 11.024088472127914 8.626953125 10.240234375C8.626953125 9.456380069255829 8.768229149281979 8.765950381755829 9.05078125 8.1689453125C9.333333298563957 7.571940243244171 9.733235746622086 7.104817569255829 10.25048828125 6.767578125C10.767740815877914 6.430338263511658 11.372721284627914 6.26171875 12.0654296875 6.26171875L12.0654296875 6.26171875C12.471028506755829 6.26171875 12.870930850505829 6.328939080238342 13.26513671875 6.46337890625C13.659342586994171 6.597818732261658 14.01708984375 6.814290642738342 14.33837890625 7.11279296875C14.65966796875 7.411295711994171 14.916015625 7.804362118244171 15.107421875 8.2919921875C15.298828125 8.779622256755829 15.39453125 9.376627743244171 15.39453125 10.0830078125L15.39453125 10.0830078125L15.39453125 10.595703125L9.87109375 10.595703125C9.889322847127914 11.087890625 9.9873046875 11.51171875 10.1650390625 11.8671875L10.1650390625 11.8671875C10.361002534627914 12.263671875 10.635579496622086 12.563313767313957 10.98876953125 12.76611328125C11.341959565877914 12.968912795186043 11.7509765625 13.0703125 12.2158203125 13.0703125L12.2158203125 13.0703125C12.5166015625 13.0703125 12.7900390625 13.027018263936043 13.0361328125 12.9404296875C13.2822265625 12.853841111063957 13.494140625 12.722819045186043 13.671875 12.54736328125C13.849609375 12.371907517313957 13.986328125 12.154296875 14.08203125 11.89453125L14.08203125 11.89453125L15.271484375 12.22265625C15.152994513511658 12.60546875 14.952474236488342 12.942708298563957 14.669921875 13.234375C14.387369930744171 13.526041649281979 14.03759765625 13.75390625 13.62060546875 13.91796875C13.20361328125 14.08203125 12.733073055744171 14.1640625 12.208984375 14.1640625M9.8779296875 9.556640625L9.8779296875 9.556640625L14.1435546875 9.556640625C14.111653506755829 9.210286319255829 14.038737118244171 8.891276180744171 13.9248046875 8.599609375L13.9248046875 8.599609375C13.765299618244171 8.212239444255829 13.530598819255829 7.908040225505829 13.220703125 7.68701171875C12.910807430744171 7.465983211994171 12.525716006755829 7.35546875 12.0654296875 7.35546875C11.605143368244171 7.35546875 11.2109375 7.46826171875 10.8828125 7.69384765625C10.5546875 7.91943359375 10.304036527872086 8.212239444255829 10.130859375 8.572265625L10.130859375 8.572265625C9.985025972127914 8.882161319255829 9.900716215372086 9.210286319255829 9.8779296875 9.556640625M18.94921875 6.357421875L20.712890625 6.357421875L20.712890625 7.41015625L18.94921875 7.41015625L18.94921875 14L17.71875 14L17.71875 7.41015625L16.21484375 7.41015625L16.21484375 6.357421875L17.71875 6.357421875L17.71875 5.3388671875C17.71875 4.896810173988342 17.822428420186043 4.527669548988342 18.02978515625 4.2314453125C18.237141996622086 3.9352210760116577 18.507161527872086 3.7119140625 18.83984375 3.5615234375C19.172525972127914 3.4111328125 19.5234375 3.3359375 19.892578125 3.3359375L19.892578125 3.3359375C20.18424493074417 3.3359375 20.42578125 3.35986328125 20.6171875 3.40771484375C20.80859375 3.45556640625 20.94986993074417 3.5 21.041015625 3.541015625L21.041015625 3.541015625L20.69921875 4.59375C20.63541680574417 4.570963263511658 20.55224609375 4.5458984375 20.44970703125 4.5185546875C20.34716796875 4.4912109375 20.20930975675583 4.4775390625 20.0361328125 4.4775390625L20.0361328125 4.4775390625C19.65787774324417 4.4775390625 19.382161527872086 4.574381232261658 19.208984375 4.76806640625C19.035807222127914 4.961751580238342 18.94921875 5.2431640625 18.94921875 5.6123046875L18.94921875 5.6123046875L18.94921875 6.357421875M23.775390625 6.357421875L25.34765625 6.357421875L25.34765625 7.41015625L23.775390625 7.41015625L23.775390625 12.017578125C23.775390625 12.359375 23.844889253377914 12.60888671875 23.98388671875 12.76611328125C24.122884184122086 12.92333984375 24.354166597127914 13.001953125 24.677734375 13.001953125L24.677734375 13.001953125C24.755208402872086 13.001953125 24.85432928800583 12.992838576436043 24.97509765625 12.974609375C25.09586602449417 12.956380173563957 25.20638006925583 12.938151076436043 25.306640625 12.919921875L25.306640625 12.919921875L25.5595703125 13.958984375C25.43196600675583 14.004557291802485 25.28727227449417 14.038736978080124 25.12548828125 14.0615234375C24.96370428800583 14.084309893660247 24.80305975675583 14.095703125 24.6435546875 14.095703125L24.6435546875 14.095703125C23.982747465372086 14.095703125 23.4677734375 13.92138671875 23.0986328125 13.57275390625C22.7294921875 13.22412109375 22.544921875 12.737630173563957 22.544921875 12.11328125L22.544921875 12.11328125L22.544921875 7.41015625L21.396484375 7.41015625L21.396484375 6.357421875L22.544921875 6.357421875L22.544921875 4.5390625L23.775390625 4.5390625L23.775390625 6.357421875M32.9970703125 14.177734375L32.9970703125 14.177734375C32.513997465372086 14.177734375 32.075358003377914 14.086588543839753 31.68115234375 13.904296875C31.286946579813957 13.72200519964099 30.9736328125 13.455403663218021 30.7412109375 13.1044921875C30.5087890625 12.753580763936043 30.392578125 12.327473923563957 30.392578125 11.826171875L30.392578125 11.826171875C30.392578125 11.388671875 30.47916664928198 11.033203125 30.65234375 10.759765625C30.825520798563957 10.486328125 31.056803420186043 10.27099609375 31.34619140625 10.11376953125C31.635579496622086 9.95654296875 31.955729097127914 9.839192569255829 32.306640625 9.76171875C32.657552152872086 9.684244930744171 33.0107421875 9.622721493244171 33.3662109375 9.5771484375L33.3662109375 9.5771484375C33.82194024324417 9.517903506755829 34.193359375 9.472330868244171 34.48046875 9.4404296875C34.767578125 9.408528506755829 34.98063164949417 9.353841006755829 35.11962890625 9.2763671875C35.25862616300583 9.198893368244171 35.328125 9.066731631755829 35.328125 8.8798828125L35.328125 8.8798828125L35.328125 8.8388671875C35.328125 8.519856631755829 35.26888006925583 8.249837100505829 35.150390625 8.02880859375C35.03190118074417 7.807780086994171 34.85416680574417 7.638020694255829 34.6171875 7.51953125C34.38020819425583 7.401041805744171 34.083984375 7.341796875 33.728515625 7.341796875L33.728515625 7.341796875C33.36393243074417 7.341796875 33.0517578125 7.398762881755829 32.7919921875 7.5126953125C32.5322265625 7.626627743244171 32.321451753377914 7.76904296875 32.15966796875 7.93994140625C31.997884184122086 8.11083984375 31.8759765625 8.28515625 31.7939453125 8.462890625L31.7939453125 8.462890625L30.611328125 8.0732421875C30.807291701436043 7.6083984375 31.071614548563957 7.244954288005829 31.404296875 6.98291015625C31.736979097127914 6.720865607261658 32.103841215372086 6.53515625 32.5048828125 6.42578125C32.905924409627914 6.31640625 33.30240899324417 6.26171875 33.6943359375 6.26171875L33.6943359375 6.26171875C33.94954413175583 6.26171875 34.24007147550583 6.29248046875 34.56591796875 6.35400390625C34.89176446199417 6.41552734375 35.20621758699417 6.537435173988342 35.50927734375 6.7197265625C35.81233710050583 6.902017951011658 36.06298828125 7.172037899494171 36.26123046875 7.52978515625C36.45947265625 7.887532413005829 36.55859375 8.364908993244171 36.55859375 8.9619140625L36.55859375 8.9619140625L36.55859375 14L35.3486328125 14L35.3486328125 12.9609375L35.2666015625 12.9609375C35.18001288175583 13.138671875 35.041015625 13.322102881968021 34.849609375 13.51123046875C34.658203125 13.70035808160901 34.40983086824417 13.858723962679505 34.1044921875 13.986328125C33.79915350675583 14.113932287320495 33.43001288175583 14.177734375 32.9970703125 14.177734375M33.208984375 13.0908203125L33.208984375 13.0908203125C33.66471368074417 13.0908203125 34.0498046875 13.001953125 34.3642578125 12.82421875C34.6787109375 12.646484375 34.91796875 12.415201857686043 35.08203125 12.13037109375C35.24609375 11.845540434122086 35.328125 11.548177152872086 35.328125 11.23828125L35.328125 11.23828125L35.328125 10.1787109375C35.27799493074417 10.237955868244171 35.16861993074417 10.29150390625 35 10.33935546875C34.83138006925583 10.38720703125 34.63883477449417 10.429362118244171 34.42236328125 10.4658203125C34.20589178800583 10.502278715372086 33.99625664949417 10.533040434122086 33.79345703125 10.55810546875C33.59065741300583 10.583170503377914 33.43001288175583 10.6025390625 33.3115234375 10.6162109375L33.3115234375 10.6162109375C33.015299409627914 10.652669340372086 32.738443940877914 10.71533203125 32.48095703125 10.80419921875C32.223470121622086 10.89306640625 32.017252534627914 11.02294921875 31.8623046875 11.19384765625C31.707356840372086 11.36474609375 31.6298828125 11.596028715372086 31.6298828125 11.8876953125L31.6298828125 11.8876953125C31.6298828125 12.152018159627914 31.6982421875 12.373046875 31.8349609375 12.55078125C31.9716796875 12.728515625 32.158528715372086 12.862955763936043 32.3955078125 12.9541015625C32.632486909627914 13.045247361063957 32.903645902872086 13.0908203125 33.208984375 13.0908203125M38.71875 3.814453125L39.94921875 3.814453125L39.94921875 14L38.71875 14L38.71875 3.814453125M43.33984375 14L42.109375 14L42.109375 6.357421875L43.33984375 6.357421875L43.33984375 14M42.7314453125 5.1064453125L42.7314453125 5.1064453125C42.4990234375 5.1064453125 42.29850263893604 5.026692986488342 42.1298828125 4.8671875C41.96126298606396 4.707682013511658 41.876953125 4.516275763511658 41.876953125 4.29296875L41.876953125 4.29296875C41.876953125 4.065103888511658 41.96126298606396 3.87255859375 42.1298828125 3.71533203125C42.29850263893604 3.55810546875 42.4990234375 3.4794921875 42.7314453125 3.4794921875L42.7314453125 3.4794921875C42.968424409627914 3.4794921875 43.171224027872086 3.55810546875 43.33984375 3.71533203125C43.508463472127914 3.87255859375 43.5927734375 4.065103888511658 43.5927734375 4.29296875L43.5927734375 4.29296875C43.5927734375 4.516275763511658 43.508463472127914 4.707682013511658 43.33984375 4.8671875C43.171224027872086 5.026692986488342 42.968424409627914 5.1064453125 42.7314453125 5.1064453125M48.5966796875 17.021484375L48.5966796875 17.021484375C48.03157538175583 17.021484375 47.542806059122086 16.94970703125 47.13037109375 16.80615234375C46.717936128377914 16.66259765625 46.375 16.472330659627914 46.1015625 16.2353515625C45.828125 15.998372465372086 45.61165361106396 15.740885451436043 45.4521484375 15.462890625L45.4521484375 15.462890625L46.4501953125 14.8203125C46.5595703125 14.966145798563957 46.695149809122086 15.1279296875 46.85693359375 15.3056640625C47.018717378377914 15.4833984375 47.237467378377914 15.634928420186043 47.51318359375 15.76025390625C47.788899809122086 15.885579496622086 48.15006524324417 15.9482421875 48.5966796875 15.9482421875L48.5966796875 15.9482421875C49.20735663175583 15.9482421875 49.70979803800583 15.802408784627914 50.10400390625 15.5107421875C50.49820977449417 15.219075486063957 50.6953125 14.7587890625 50.6953125 14.1298828125L50.6953125 14.1298828125L50.6953125 12.5986328125L50.5791015625 12.5986328125C50.49251288175583 12.744466111063957 50.37060546875 12.917643263936043 50.21337890625 13.1181640625C50.05615234375 13.318684913218021 49.83056640625 13.495279930531979 49.53662109375 13.64794921875C49.24267578125 13.800618493929505 48.849609375 13.876953125 48.357421875 13.876953125L48.357421875 13.876953125C47.746744722127914 13.876953125 47.197591215372086 13.73225910589099 46.7099609375 13.44287109375C46.222330659627914 13.153483055531979 45.83723954856396 12.730794236063957 45.5546875 12.1748046875C45.27213539928198 11.618815034627914 45.130859375 10.942057222127914 45.130859375 10.14453125L45.130859375 10.14453125C45.130859375 9.356119930744171 45.26985678821802 8.67138671875 45.5478515625 8.09033203125C45.82584638893604 7.50927734375 46.209798246622086 7.059244930744171 46.69970703125 6.740234375C47.189615815877914 6.421224236488342 47.751302152872086 6.26171875 48.384765625 6.26171875L48.384765625 6.26171875C48.876953125 6.26171875 49.27001953125 6.342610955238342 49.56396484375 6.50439453125C49.85791015625 6.666178107261658 50.08463555574417 6.851888298988342 50.244140625 7.0615234375C50.40364569425583 7.271158993244171 50.52669256925583 7.4443359375 50.61328125 7.5810546875L50.61328125 7.5810546875L50.7294921875 7.5810546875L50.7294921875 6.357421875L51.92578125 6.357421875L51.92578125 14.1982421875C51.92578125 14.8544921875 51.77766954898834 15.39111328125 51.4814453125 15.80810546875C51.18522149324417 16.22509765625 50.78531914949417 16.531575590372086 50.28173828125 16.7275390625C49.77815741300583 16.923502534627914 49.21647149324417 17.021484375 48.5966796875 17.021484375M48.5625 12.783203125L48.5625 12.783203125C49.02734375 12.783203125 49.41927069425583 12.67724609375 49.73828125 12.46533203125C50.05729180574417 12.25341796875 50.298828125 11.948079496622086 50.462890625 11.54931640625C50.626953125 11.150553315877914 50.708984375 10.673177152872086 50.708984375 10.1171875L50.708984375 10.1171875C50.708984375 9.574869930744171 50.62809258699417 9.097493350505829 50.46630859375 8.68505859375C50.30452460050583 8.272623836994171 50.06412774324417 7.949055850505829 49.7451171875 7.71435546875C49.42610663175583 7.479655086994171 49.03190118074417 7.3623046875 48.5625 7.3623046875L48.5625 7.3623046875C48.07942694425583 7.3623046875 47.676106840372086 7.486491024494171 47.3525390625 7.73486328125C47.028971284627914 7.983235538005829 46.786295503377914 8.314778506755829 46.62451171875 8.7294921875C46.462727934122086 9.144205868244171 46.3818359375 9.606770694255829 46.3818359375 10.1171875L46.3818359375 10.1171875C46.3818359375 10.641275972127914 46.4638671875 11.103841215372086 46.6279296875 11.5048828125C46.7919921875 11.905924409627914 47.035807222127914 12.21923828125 47.359375 12.44482421875C47.682942777872086 12.67041015625 48.083984375 12.783203125 48.5625 12.783203125M55.31640625 9.419921875L55.31640625 9.419921875L55.31640625 14L54.0859375 14L54.0859375 6.357421875L55.2685546875 6.357421875L55.275390625 7.7724609375C55.489583402872086 7.2939453125 55.765299409627914 6.9384765625 56.1025390625 6.7060546875L56.1025390625 6.7060546875C56.53092461824417 6.409830451011658 57.03450506925583 6.26171875 57.61328125 6.26171875L57.61328125 6.26171875C58.12825506925583 6.26171875 58.57942694425583 6.36767578125 58.966796875 6.57958984375C59.35416680574417 6.79150390625 59.65608710050583 7.110514461994171 59.87255859375 7.53662109375C60.08902966976166 7.962727725505829 60.197265625 8.499348819255829 60.197265625 9.146484375L60.197265625 9.146484375L60.197265625 14L58.966796875 14L58.966796875 9.2490234375C58.966796875 8.6611328125 58.81298828125 8.200846493244171 58.50537109375 7.8681640625C58.19775390625 7.535481631755829 57.77734375 7.369140625 57.244140625 7.369140625L57.244140625 7.369140625C56.87955743074417 7.369140625 56.55143243074417 7.448893368244171 56.259765625 7.6083984375C55.968099027872086 7.767903506755829 55.737955659627914 8.000325381755829 55.5693359375 8.3056640625C55.400716215372086 8.611002743244171 55.31640625 8.982421875 55.31640625 9.419921875M65.5703125 14.1640625L65.5703125 14.1640625C64.83203125 14.1640625 64.19514980912209 14 63.65966796875 13.671875C63.124186128377914 13.34375 62.71175126731396 12.8857421875 62.42236328125 12.2978515625C62.13297524303198 11.7099609375 61.98828125 11.024088472127914 61.98828125 10.240234375C61.98828125 9.456380069255829 62.12955727428198 8.765950381755829 62.412109375 8.1689453125C62.69466142356396 7.571940243244171 63.094563871622086 7.104817569255829 63.61181640625 6.767578125C64.12906894087791 6.430338263511658 64.73404940962791 6.26171875 65.4267578125 6.26171875L65.4267578125 6.26171875C65.83235663175583 6.26171875 66.23225897550583 6.328939080238342 66.62646484375 6.46337890625C67.02067071199417 6.597818732261658 67.37841796875 6.814290642738342 67.69970703125 7.11279296875C68.02099609375 7.411295711994171 68.27734375 7.804362118244171 68.46875 8.2919921875C68.66015625 8.779622256755829 68.755859375 9.376627743244171 68.755859375 10.0830078125L68.755859375 10.0830078125L68.755859375 10.595703125L63.232421875 10.595703125C63.250650972127914 11.087890625 63.3486328125 11.51171875 63.5263671875 11.8671875L63.5263671875 11.8671875C63.722330659627914 12.263671875 63.996907621622086 12.563313767313957 64.35009765625 12.76611328125C64.70328769087791 12.968912795186043 65.1123046875 13.0703125 65.5771484375 13.0703125L65.5771484375 13.0703125C65.8779296875 13.0703125 66.1513671875 13.027018263936043 66.3974609375 12.9404296875C66.6435546875 12.853841111063957 66.85546875 12.722819045186043 67.033203125 12.54736328125C67.2109375 12.371907517313957 67.34765625 12.154296875 67.443359375 11.89453125L67.443359375 11.89453125L68.6328125 12.22265625C68.51432263851166 12.60546875 68.31380236148834 12.942708298563957 68.03125 13.234375C67.74869805574417 13.526041649281979 67.39892578125 13.75390625 66.98193359375 13.91796875C66.56494140625 14.08203125 66.09440118074417 14.1640625 65.5703125 14.1640625M63.2392578125 9.556640625L63.2392578125 9.556640625L67.5048828125 9.556640625C67.47298163175583 9.210286319255829 67.40006524324417 8.891276180744171 67.2861328125 8.599609375L67.2861328125 8.599609375C67.12662774324417 8.212239444255829 66.89192694425583 7.908040225505829 66.58203125 7.68701171875C66.27213555574417 7.465983211994171 65.88704413175583 7.35546875 65.4267578125 7.35546875C64.96647149324417 7.35546875 64.572265625 7.46826171875 64.244140625 7.69384765625C63.916015625 7.91943359375 63.665364652872086 8.212239444255829 63.4921875 8.572265625L63.4921875 8.572265625C63.346354097127914 8.882161319255829 63.262044340372086 9.210286319255829 63.2392578125 9.556640625M73.3837890625 14.1640625L73.3837890625 14.1640625C72.75032559037209 14.1640625 72.18977871537209 14.002278645901242 71.7021484375 13.6787109375C71.21451815962791 13.355143211781979 70.833984375 12.897135451436043 70.560546875 12.3046875C70.287109375 11.712239652872086 70.150390625 11.010416597127914 70.150390625 10.19921875L70.150390625 10.19921875C70.150390625 9.392578125 70.28824868053198 8.694173038005829 70.56396484375 8.10400390625C70.83968095481396 7.513834774494171 71.22135409712791 7.059244930744171 71.708984375 6.740234375C72.19661465287209 6.421224236488342 72.75716152787209 6.26171875 73.390625 6.26171875L73.390625 6.26171875C73.88736993074417 6.26171875 74.28157538175583 6.34375 74.5732421875 6.5078125C74.86490899324417 6.671875 75.08935546875 6.857584357261658 75.24658203125 7.06494140625C75.40380859375 7.272298038005829 75.5234375 7.4443359375 75.60546875 7.5810546875L75.60546875 7.5810546875L75.701171875 7.5810546875L75.701171875 3.814453125L76.931640625 3.814453125L76.931640625 14L75.7421875 14L75.7421875 12.8173828125L75.60546875 12.8173828125C75.5234375 12.958658888936043 75.40153008699417 13.13525390625 75.23974609375 13.34716796875C75.07796210050583 13.55908203125 74.85009765625 13.74820964410901 74.55615234375 13.91455078125C74.26220703125 14.080891924910247 73.87141913175583 14.1640625 73.3837890625 14.1640625M73.568359375 13.0634765625L73.568359375 13.0634765625C74.033203125 13.0634765625 74.42513006925583 12.941569045186043 74.744140625 12.69775390625C75.06315118074417 12.453938767313957 75.3046875 12.115559965372086 75.46875 11.6826171875C75.6328125 11.249674409627914 75.71484375 10.750650972127914 75.71484375 10.185546875L75.71484375 10.185546875C75.71484375 9.620442569255829 75.63395196199417 9.127116024494171 75.47216796875 8.70556640625C75.31038397550583 8.284016788005829 75.06998711824417 7.954752743244171 74.7509765625 7.7177734375C74.43196600675583 7.480794131755829 74.03776055574417 7.3623046875 73.568359375 7.3623046875L73.568359375 7.3623046875C73.08528631925583 7.3623046875 72.68310546875 7.487630069255829 72.36181640625 7.73828125C72.04052734375 7.988932430744171 71.80013027787209 8.327311336994171 71.640625 8.75341796875C71.48111972212791 9.179524600505829 71.4013671875 9.656901180744171 71.4013671875 10.185546875L71.4013671875 10.185546875C71.4013671875 10.71875 71.48225918412209 11.202962309122086 71.64404296875 11.63818359375C71.80582675337791 12.073404878377914 72.04850253462791 12.419759079813957 72.3720703125 12.67724609375C72.69563809037209 12.934733107686043 73.09440118074417 13.0634765625 73.568359375 13.0634765625" fill="#000000"/></g></g></g></svg>