<svg xmlns="http://www.w3.org/2000/svg" width="200" height="60" viewBox="0 0 200 60"><g><defs><clipPath id="clip-0"><rect x="0" y="0" width="200" height="60"/></clipPath></defs><g clip-path="url(#clip-0)"><g transform="matrix(1,0,0,1,10,15)"><path d="M3.0078125 14L0.9228515625 14L0.9228515625 3.814453125L4.89453125 3.814453125C5.669270694255829 3.814453125 6.327799618244171 3.951171875 6.8701171875 4.224609375C7.412435173988342 4.498046875 7.826009392738342 4.883138298988342 8.11083984375 5.3798828125C8.395670294761658 5.876627326011658 8.5380859375 6.4599609375 8.5380859375 7.1298828125C8.5380859375 7.7998046875 8.393392205238342 8.37744140625 8.10400390625 8.86279296875C7.814615607261658 9.34814453125 7.396484375 9.718424618244171 6.849609375 9.9736328125L6.849609375 9.9736328125C6.80859375 9.991862118244171 6.769856631755829 10.010091006755829 6.7333984375 10.0283203125L6.7333984375 10.0283203125L8.900390625 14L6.58984375 14L4.6416015625 10.36328125L3.0078125 10.36328125L3.0078125 14M3.0078125 5.537109375L3.0078125 8.6748046875L4.51171875 8.6748046875C4.940104305744171 8.6748046875 5.291015625 8.61669921875 5.564453125 8.50048828125C5.837890625 8.38427734375 6.04296875 8.211100399494171 6.1796875 7.98095703125C6.31640625 7.750813663005829 6.384765625 7.467122256755829 6.384765625 7.1298828125L6.384765625 7.1298828125C6.384765625 6.783528923988342 6.31640625 6.493001580238342 6.1796875 6.25830078125C6.04296875 6.023599982261658 5.836751163005829 5.8447265625 5.56103515625 5.7216796875C5.285319149494171 5.5986328125 4.933268368244171 5.537109375 4.5048828125 5.537109375L4.5048828125 5.537109375L3.0078125 5.537109375M13.521484375 14.150390625L13.521484375 14.150390625C12.7421875 14.150390625 12.069986909627914 13.990885416395031 11.5048828125 13.671875C10.939778611063957 13.352864600718021 10.505696579813957 12.8994140625 10.20263671875 12.3115234375C9.899576805531979 11.7236328125 9.748046875 11.0263671875 9.748046875 10.2197265625L9.748046875 10.2197265625C9.748046875 9.431315243244171 9.8984375 8.740885555744171 10.19921875 8.1484375C10.5 7.555989444255829 10.926106736063957 7.093424618244171 11.4775390625 6.7607421875C12.028971284627914 6.428060173988342 12.676106840372086 6.26171875 13.4189453125 6.26171875L13.4189453125 6.26171875C13.920247256755829 6.26171875 14.387369930744171 6.341471076011658 14.8203125 6.5009765625C15.253255069255829 6.660482048988342 15.6337890625 6.90087890625 15.9619140625 7.22216796875C16.2900390625 7.54345703125 16.54638671875 7.945637881755829 16.73095703125 8.4287109375C16.91552734375 8.911783993244171 17.0078125 9.4814453125 17.0078125 10.1376953125L17.0078125 10.1376953125L17.0078125 10.7119140625L11.7783203125 10.7119140625C11.7919921875 11.099283784627914 11.8671875 11.4296875 12.00390625 11.703125L12.00390625 11.703125C12.149739652872086 12.00390625 12.35595703125 12.2294921875 12.62255859375 12.3798828125C12.88916015625 12.5302734375 13.2001953125 12.60546875 13.5556640625 12.60546875L13.5556640625 12.60546875C13.797200381755829 12.60546875 14.015950381755829 12.5712890625 14.2119140625 12.5029296875C14.407877743244171 12.4345703125 14.575358211994171 12.333170607686043 14.71435546875 12.19873046875C14.853352725505829 12.064290434122086 14.959309756755829 11.899088472127914 15.0322265625 11.703125L15.0322265625 11.703125L16.8916015625 12.0517578125C16.7685546875 12.471028611063957 16.554361701011658 12.839029982686043 16.2490234375 13.15576171875C15.943684756755829 13.472493506968021 15.56201171875 13.71744792535901 15.10400390625 13.890625C14.64599609375 14.063802081160247 14.118489444255829 14.150390625 13.521484375 14.150390625M11.7919921875 9.4267578125L11.7919921875 9.4267578125L15.0322265625 9.4267578125C15.0048828125 9.171549618244171 14.9501953125 8.939127743244171 14.8681640625 8.7294921875L14.8681640625 8.7294921875C14.7451171875 8.437825381755829 14.56396484375 8.211100399494171 14.32470703125 8.04931640625C14.08544921875 7.887532413005829 13.790364444255829 7.806640625 13.439453125 7.806640625L13.439453125 7.806640625C13.083984375 7.806640625 12.782063663005829 7.888671875 12.53369140625 8.052734375C12.285318940877914 8.216796875 12.097330659627914 8.437825381755829 11.9697265625 8.7158203125L11.9697265625 8.7158203125C11.8740234375 8.930012881755829 11.814778715372086 9.1669921875 11.7919921875 9.4267578125M21.1982421875 14.1298828125L21.1982421875 14.1298828125C20.614908784627914 14.1298828125 20.08740234375 13.978352864040062 19.61572265625 13.67529296875C19.14404296875 13.372233055531979 18.771484375 12.927897170186043 18.498046875 12.34228515625C18.224609375 11.756673246622086 18.087890625 11.0400390625 18.087890625 10.1923828125L18.087890625 10.1923828125C18.087890625 9.321940243244171 18.22916664928198 8.595051944255829 18.51171875 8.01171875C18.794270798563957 7.428385555744171 19.170247361063957 6.990885138511658 19.6396484375 6.69921875C20.109049409627914 6.407552361488342 20.626302152872086 6.26171875 21.19140625 6.26171875L21.19140625 6.26171875C21.62434881925583 6.26171875 21.984375 6.334635138511658 22.271484375 6.48046875C22.55859375 6.626302361488342 22.791015625 6.806314826011658 22.96875 7.0205078125C23.146484375 7.234700381755829 23.27864569425583 7.442057430744171 23.365234375 7.642578125L23.365234375 7.642578125L23.43359375 7.642578125L23.43359375 3.814453125L25.484375 3.814453125L25.484375 14L23.4677734375 14L23.4677734375 12.7763671875L23.365234375 12.7763671875C23.27408868074417 12.9814453125 23.13850897550583 13.187662743031979 22.95849609375 13.39501953125C22.77848321199417 13.60237629339099 22.544921875 13.77669269964099 22.2578125 13.91796875C21.970703125 14.059244793839753 21.61751288175583 14.1298828125 21.1982421875 14.1298828125M21.833984375 12.482421875L21.833984375 12.482421875C22.18033868074417 12.482421875 22.4765625 12.38671875 22.72265625 12.1953125C22.96875 12.00390625 23.15559881925583 11.736165434122086 23.283203125 11.39208984375C23.41080743074417 11.048014253377914 23.474609375 10.645833402872086 23.474609375 10.185546875L23.474609375 10.185546875C23.474609375 9.720703125 23.41194647550583 9.318522274494171 23.28662109375 8.97900390625C23.16129571199417 8.639485538005829 22.9755859375 8.375162899494171 22.7294921875 8.18603515625C22.4833984375 7.996907413005829 22.18489569425583 7.90234375 21.833984375 7.90234375L21.833984375 7.90234375C21.47395819425583 7.90234375 21.17203789949417 8.000325381755829 20.92822265625 8.1962890625C20.684407621622086 8.392252743244171 20.5009765625 8.6611328125 20.3779296875 9.0029296875C20.2548828125 9.3447265625 20.193359375 9.738932430744171 20.193359375 10.185546875L20.193359375 10.185546875C20.193359375 10.632161527872086 20.256022065877914 11.028645902872086 20.38134765625 11.375C20.506673246622086 11.721354097127914 20.691243559122086 11.992513090372086 20.93505859375 12.1884765625C21.17887383699417 12.384440138936043 21.478515625 12.482421875 21.833984375 12.482421875" fill="#e51a1a"/></g><g transform="matrix(1,0,0,1,70,15)"><path d="M5.4345703125 14.13671875L5.4345703125 14.13671875C4.482096493244171 14.13671875 3.64697265625 13.925944012589753 2.92919921875 13.50439453125C2.21142578125 13.082845017313957 1.65087890625 12.481282517313957 1.24755859375 11.69970703125C0.84423828125 10.918131440877914 0.642578125 9.991862118244171 0.642578125 8.9208984375L0.642578125 8.9208984375C0.642578125 7.818033993244171 0.8522135242819786 6.875814080238342 1.271484375 6.09423828125C1.6907551735639572 5.312662482261658 2.2581380903720856 4.714517951011658 2.9736328125 4.2998046875C3.689127743244171 3.8850914239883423 4.493489444255829 3.677734375 5.38671875 3.677734375L5.38671875 3.677734375C5.9609375 3.677734375 6.495280086994171 3.7609046697616577 6.98974609375 3.92724609375C7.484212517738342 4.093587517738342 7.923990607261658 4.329427361488342 8.30908203125 4.634765625C8.694173455238342 4.940103888511658 9.008626580238342 5.30126953125 9.25244140625 5.71826171875C9.496256232261658 6.13525390625 9.654622673988342 6.5966796875 9.7275390625 7.1025390625L9.7275390625 7.1025390625L7.6083984375 7.1025390625C7.535482048988342 6.8564453125 7.43408203125 6.636556267738342 7.30419921875 6.44287109375C7.17431640625 6.249185919761658 7.01708984375 6.083984375 6.83251953125 5.947265625C6.64794921875 5.810546875 6.437174618244171 5.706868767738342 6.2001953125 5.63623046875C5.963216006755829 5.565592169761658 5.703450381755829 5.5302734375 5.4208984375 5.5302734375L5.4208984375 5.5302734375C4.896809756755829 5.5302734375 4.434244930744171 5.661295294761658 4.033203125 5.92333984375C3.632161319255829 6.185384392738342 3.3199869096279144 6.567057013511658 3.0966796875 7.068359375C2.8733724653720856 7.569661319255829 2.76171875 8.180338680744171 2.76171875 8.900390625C2.76171875 9.620442569255829 2.8722330033779144 10.232258975505829 3.09326171875 10.73583984375C3.3142904341220856 11.239420503377914 3.625325381755829 11.623372465372086 4.0263671875 11.8876953125C4.427408993244171 12.152018159627914 4.9013671875 12.2841796875 5.4482421875 12.2841796875L5.4482421875 12.2841796875C5.9404296875 12.2841796875 6.361979305744171 12.1953125 6.712890625 12.017578125C7.063802361488342 11.83984375 7.3349609375 11.584635347127914 7.5263671875 11.251953125L7.5263671875 11.251953125C7.7041015625 10.9375 7.797525763511658 10.572916597127914 7.806640625 10.158203125L7.806640625 10.158203125L5.591796875 10.158203125L5.591796875 8.572265625L9.830078125 8.572265625L9.830078125 9.84375C9.830078125 10.736979097127914 9.640950798988342 11.503743559122086 9.2626953125 12.14404296875C8.884439826011658 12.784342482686043 8.364908576011658 13.276529930531979 7.7041015625 13.62060546875C7.043294548988342 13.964680990669876 6.286783993244171 14.13671875 5.4345703125 14.13671875M13.4326171875 14L11.3818359375 14L11.3818359375 6.357421875L13.3642578125 6.357421875L13.3642578125 7.6904296875L13.4462890625 7.6904296875C13.587565034627914 7.216471493244171 13.823404878377914 6.858724236488342 14.15380859375 6.6171875C14.484212100505829 6.375650763511658 14.863606631755829 6.2548828125 15.2919921875 6.2548828125L15.2919921875 6.2548828125C15.396809756755829 6.2548828125 15.5107421875 6.260579705238342 15.6337890625 6.27197265625C15.7568359375 6.283365607261658 15.863932430744171 6.300455451011658 15.955078125 6.3232421875L15.955078125 6.3232421875L15.955078125 8.1552734375C15.863932430744171 8.123372256755829 15.731770694255829 8.098307430744171 15.55859375 8.080078125C15.385416805744171 8.061848819255829 15.221354305744171 8.052734375 15.06640625 8.052734375L15.06640625 8.052734375C14.756510555744171 8.052734375 14.476237118244171 8.119954288005829 14.2255859375 8.25439453125C13.974934965372086 8.388834774494171 13.780110746622086 8.57568359375 13.64111328125 8.81494140625C13.502115815877914 9.05419921875 13.4326171875 9.333333194255829 13.4326171875 9.65234375L13.4326171875 9.65234375L13.4326171875 14M20.53515625 14.150390625L20.53515625 14.150390625C19.755859375 14.150390625 19.083658784627914 13.990885416395031 18.5185546875 13.671875C17.953450486063957 13.352864600718021 17.519368454813957 12.8994140625 17.21630859375 12.3115234375C16.91324868053198 11.7236328125 16.76171875 11.0263671875 16.76171875 10.2197265625L16.76171875 10.2197265625C16.76171875 9.431315243244171 16.912109375 8.740885555744171 17.212890625 8.1484375C17.513671875 7.555989444255829 17.939778611063957 7.093424618244171 18.4912109375 6.7607421875C19.042643159627914 6.428060173988342 19.689778715372086 6.26171875 20.4326171875 6.26171875L20.4326171875 6.26171875C20.93391913175583 6.26171875 21.40104180574417 6.341471076011658 21.833984375 6.5009765625C22.26692694425583 6.660482048988342 22.6474609375 6.90087890625 22.9755859375 7.22216796875C23.3037109375 7.54345703125 23.56005859375 7.945637881755829 23.74462890625 8.4287109375C23.92919921875 8.911783993244171 24.021484375 9.4814453125 24.021484375 10.1376953125L24.021484375 10.1376953125L24.021484375 10.7119140625L18.7919921875 10.7119140625C18.8056640625 11.099283784627914 18.880859375 11.4296875 19.017578125 11.703125L19.017578125 11.703125C19.163411527872086 12.00390625 19.36962890625 12.2294921875 19.63623046875 12.3798828125C19.90283203125 12.5302734375 20.2138671875 12.60546875 20.5693359375 12.60546875L20.5693359375 12.60546875C20.81087225675583 12.60546875 21.02962225675583 12.5712890625 21.2255859375 12.5029296875C21.42154961824417 12.4345703125 21.58903008699417 12.333170607686043 21.72802734375 12.19873046875C21.86702460050583 12.064290434122086 21.97298163175583 11.899088472127914 22.0458984375 11.703125L22.0458984375 11.703125L23.9052734375 12.0517578125C23.7822265625 12.471028611063957 23.568033576011658 12.839029982686043 23.2626953125 13.15576171875C22.95735663175583 13.472493506968021 22.57568359375 13.71744792535901 22.11767578125 13.890625C21.65966796875 14.063802081160247 21.13216131925583 14.150390625 20.53515625 14.150390625M18.8056640625 9.4267578125L18.8056640625 9.4267578125L22.0458984375 9.4267578125C22.0185546875 9.171549618244171 21.9638671875 8.939127743244171 21.8818359375 8.7294921875L21.8818359375 8.7294921875C21.7587890625 8.437825381755829 21.57763671875 8.211100399494171 21.33837890625 8.04931640625C21.09912109375 7.887532413005829 20.80403631925583 7.806640625 20.453125 7.806640625L20.453125 7.806640625C20.09765625 7.806640625 19.79573553800583 7.888671875 19.54736328125 8.052734375C19.298990815877914 8.216796875 19.111002534627914 8.437825381755829 18.9833984375 8.7158203125L18.9833984375 8.7158203125C18.8876953125 8.930012881755829 18.828450590372086 9.1669921875 18.8056640625 9.4267578125M28.875 14.150390625L28.875 14.150390625C28.095703125 14.150390625 27.423502534627914 13.990885416395031 26.8583984375 13.671875C26.293294236063957 13.352864600718021 25.859212204813957 12.8994140625 25.55615234375 12.3115234375C25.25309243053198 11.7236328125 25.1015625 11.0263671875 25.1015625 10.2197265625L25.1015625 10.2197265625C25.1015625 9.431315243244171 25.251953125 8.740885555744171 25.552734375 8.1484375C25.853515625 7.555989444255829 26.279622361063957 7.093424618244171 26.8310546875 6.7607421875C27.382486909627914 6.428060173988342 28.029622465372086 6.26171875 28.7724609375 6.26171875L28.7724609375 6.26171875C29.27376288175583 6.26171875 29.74088555574417 6.341471076011658 30.173828125 6.5009765625C30.60677069425583 6.660482048988342 30.9873046875 6.90087890625 31.3154296875 7.22216796875C31.6435546875 7.54345703125 31.89990234375 7.945637881755829 32.08447265625 8.4287109375C32.26904296875 8.911783993244171 32.361328125 9.4814453125 32.361328125 10.1376953125L32.361328125 10.1376953125L32.361328125 10.7119140625L27.1318359375 10.7119140625C27.1455078125 11.099283784627914 27.220703125 11.4296875 27.357421875 11.703125L27.357421875 11.703125C27.503255277872086 12.00390625 27.70947265625 12.2294921875 27.97607421875 12.3798828125C28.24267578125 12.5302734375 28.5537109375 12.60546875 28.9091796875 12.60546875L28.9091796875 12.60546875C29.15071600675583 12.60546875 29.36946600675583 12.5712890625 29.5654296875 12.5029296875C29.76139336824417 12.4345703125 29.92887383699417 12.333170607686043 30.06787109375 12.19873046875C30.20686835050583 12.064290434122086 30.31282538175583 11.899088472127914 30.3857421875 11.703125L30.3857421875 11.703125L32.2451171875 12.0517578125C32.1220703125 12.471028611063957 31.907877326011658 12.839029982686043 31.6025390625 13.15576171875C31.29720038175583 13.472493506968021 30.91552734375 13.71744792535901 30.45751953125 13.890625C29.99951171875 14.063802081160247 29.47200506925583 14.150390625 28.875 14.150390625M27.1455078125 9.4267578125L27.1455078125 9.4267578125L30.3857421875 9.4267578125C30.3583984375 9.171549618244171 30.3037109375 8.939127743244171 30.2216796875 8.7294921875L30.2216796875 8.7294921875C30.0986328125 8.437825381755829 29.91748046875 8.211100399494171 29.67822265625 8.04931640625C29.43896484375 7.887532413005829 29.14388006925583 7.806640625 28.79296875 7.806640625L28.79296875 7.806640625C28.4375 7.806640625 28.13557928800583 7.888671875 27.88720703125 8.052734375C27.638834565877914 8.216796875 27.450846284627914 8.437825381755829 27.3232421875 8.7158203125L27.3232421875 8.7158203125C27.2275390625 8.930012881755829 27.168294340372086 9.1669921875 27.1455078125 9.4267578125M35.8134765625 9.5771484375L35.8134765625 9.5771484375L35.8134765625 14L33.7626953125 14L33.7626953125 6.357421875L35.697265625 6.357421875L35.724609375 7.9365234375C35.920572847127914 7.453450381755829 36.187174409627914 7.068359375 36.5244140625 6.78125L36.5244140625 6.78125C36.93001288175583 6.434896111488342 37.45638006925583 6.26171875 38.103515625 6.26171875L38.103515625 6.26171875C38.63216131925583 6.26171875 39.09358710050583 6.376790642738342 39.48779296875 6.60693359375C39.88199883699417 6.837076544761658 40.18733751773834 7.16748046875 40.40380859375 7.59814453125C40.62027966976166 8.02880859375 40.728515625 8.542643368244171 40.728515625 9.1396484375L40.728515625 9.1396484375L40.728515625 14L38.677734375 14L38.677734375 9.4951171875C38.677734375 9.021158993244171 38.55582696199417 8.649739444255829 38.31201171875 8.380859375C38.06819647550583 8.111979305744171 37.72981756925583 7.9775390625 37.296875 7.9775390625L37.296875 7.9775390625C37.009765625 7.9775390625 36.75341796875 8.040201961994171 36.52783203125 8.16552734375C36.30224609375 8.290852725505829 36.126790434122086 8.472005069255829 36.00146484375 8.708984375C35.876139253377914 8.945963680744171 35.8134765625 9.2353515625 35.8134765625 9.5771484375" fill="#1ab21a"/></g><g transform="matrix(1,0,0,1,130,15)"><path d="M5.22265625 14L0.9228515625 14L0.9228515625 3.814453125L4.962890625 3.814453125C5.710286319255829 3.814453125 6.33349609375 3.92724609375 6.83251953125 4.15283203125C7.33154296875 4.37841796875 7.705240607261658 4.687174201011658 7.95361328125 5.0791015625C8.201985955238342 5.471028923988342 8.326171875 5.922200798988342 8.326171875 6.4326171875L8.326171875 6.4326171875C8.326171875 6.833658576011658 8.246419548988342 7.183430850505829 8.0869140625 7.48193359375C7.927408576011658 7.780436336994171 7.709798455238342 8.024251163005829 7.43408203125 8.21337890625C7.158365607261658 8.402506649494171 6.845051944255829 8.5380859375 6.494140625 8.6201171875L6.494140625 8.6201171875L6.494140625 8.72265625C6.876953125 8.736328125 7.238118767738342 8.844563663005829 7.57763671875 9.04736328125C7.917154669761658 9.250162899494171 8.19287109375 9.53271484375 8.40478515625 9.89501953125C8.61669921875 10.25732421875 8.72265625 10.689127534627914 8.72265625 11.1904296875L8.72265625 11.1904296875C8.72265625 11.728190034627914 8.590494513511658 12.208984375 8.326171875 12.6328125C8.061849236488342 13.056640625 7.671060919761658 13.390462256968021 7.15380859375 13.63427734375C6.636555850505829 13.878092443570495 5.992838680744171 14 5.22265625 14L5.22265625 14M3.0078125 9.5224609375L3.0078125 12.2841796875L4.8125 12.2841796875C5.423176944255829 12.2841796875 5.869791805744171 12.165690034627914 6.15234375 11.9287109375C6.434895694255829 11.691731840372086 6.576171875 11.379557222127914 6.576171875 10.9921875L6.576171875 10.9921875C6.576171875 10.705078125 6.506673038005829 10.451008975505829 6.36767578125 10.22998046875C6.228678524494171 10.008951961994171 6.031575381755829 9.835774600505829 5.7763671875 9.71044921875C5.521158993244171 9.585123836994171 5.218098819255829 9.5224609375 4.8671875 9.5224609375L4.8671875 9.5224609375L3.0078125 9.5224609375M3.0078125 5.5166015625L3.0078125 8.09375L4.6552734375 8.09375C4.951497256755829 8.09375 5.218098819255829 8.040201961994171 5.455078125 7.93310546875C5.692057430744171 7.826008975505829 5.877766788005829 7.67333984375 6.01220703125 7.47509765625C6.146647274494171 7.27685546875 6.2138671875 7.041015625 6.2138671875 6.767578125L6.2138671875 6.767578125C6.2138671875 6.3984375 6.082844913005829 6.09765625 5.82080078125 5.865234375C5.558756649494171 5.6328125 5.183919131755829 5.5166015625 4.6962890625 5.5166015625L4.6962890625 5.5166015625L3.0078125 5.5166015625M10.1376953125 3.814453125L12.1884765625 3.814453125L12.1884765625 14L10.1376953125 14L10.1376953125 3.814453125M16.5634765625 14.095703125L16.5634765625 14.095703125C16.034830659627914 14.095703125 15.572265625 13.980631510959938 15.17578125 13.75048828125C14.779296875 13.520345069468021 14.472819045186043 13.18994140625 14.25634765625 12.75927734375C14.039876267313957 12.32861328125 13.931640625 11.814778715372086 13.931640625 11.2177734375L13.931640625 11.2177734375L13.931640625 6.357421875L15.982421875 6.357421875L15.982421875 10.8623046875C15.982421875 11.336263090372086 16.10546875 11.707682222127914 16.3515625 11.9765625C16.59765625 12.245442777872086 16.93489569425583 12.3798828125 17.36328125 12.3798828125L17.36328125 12.3798828125C17.65494805574417 12.3798828125 17.91243475675583 12.317220017313957 18.1357421875 12.19189453125C18.35904961824417 12.066568940877914 18.53336602449417 11.88427734375 18.65869140625 11.64501953125C18.78401678800583 11.40576171875 18.8466796875 11.117513090372086 18.8466796875 10.7802734375L18.8466796875 10.7802734375L18.8466796875 6.357421875L20.904296875 6.357421875L20.904296875 14L18.962890625 14L18.9423828125 12.4072265625C18.74641913175583 12.8994140625 18.4775390625 13.2890625 18.1357421875 13.576171875L18.1357421875 13.576171875C17.72102850675583 13.922526043839753 17.19694024324417 14.095703125 16.5634765625 14.095703125M26.099609375 14.150390625L26.099609375 14.150390625C25.3203125 14.150390625 24.648111909627914 13.990885416395031 24.0830078125 13.671875C23.517903611063957 13.352864600718021 23.083821579813957 12.8994140625 22.78076171875 12.3115234375C22.47770180553198 11.7236328125 22.326171875 11.0263671875 22.326171875 10.2197265625L22.326171875 10.2197265625C22.326171875 9.431315243244171 22.4765625 8.740885555744171 22.77734375 8.1484375C23.078125 7.555989444255829 23.504231736063957 7.093424618244171 24.0556640625 6.7607421875C24.607096284627914 6.428060173988342 25.254231840372086 6.26171875 25.9970703125 6.26171875L25.9970703125 6.26171875C26.49837225675583 6.26171875 26.96549493074417 6.341471076011658 27.3984375 6.5009765625C27.83138006925583 6.660482048988342 28.2119140625 6.90087890625 28.5400390625 7.22216796875C28.8681640625 7.54345703125 29.12451171875 7.945637881755829 29.30908203125 8.4287109375C29.49365234375 8.911783993244171 29.5859375 9.4814453125 29.5859375 10.1376953125L29.5859375 10.1376953125L29.5859375 10.7119140625L24.3564453125 10.7119140625C24.3701171875 11.099283784627914 24.4453125 11.4296875 24.58203125 11.703125L24.58203125 11.703125C24.727864652872086 12.00390625 24.93408203125 12.2294921875 25.20068359375 12.3798828125C25.46728515625 12.5302734375 25.7783203125 12.60546875 26.1337890625 12.60546875L26.1337890625 12.60546875C26.37532538175583 12.60546875 26.59407538175583 12.5712890625 26.7900390625 12.5029296875C26.98600274324417 12.4345703125 27.15348321199417 12.333170607686043 27.29248046875 12.19873046875C27.43147772550583 12.064290434122086 27.53743475675583 11.899088472127914 27.6103515625 11.703125L27.6103515625 11.703125L29.4697265625 12.0517578125C29.3466796875 12.471028611063957 29.132486701011658 12.839029982686043 28.8271484375 13.15576171875C28.52180975675583 13.472493506968021 28.14013671875 13.71744792535901 27.68212890625 13.890625C27.22412109375 14.063802081160247 26.69661444425583 14.150390625 26.099609375 14.150390625M24.3701171875 9.4267578125L24.3701171875 9.4267578125L27.6103515625 9.4267578125C27.5830078125 9.171549618244171 27.5283203125 8.939127743244171 27.4462890625 8.7294921875L27.4462890625 8.7294921875C27.3232421875 8.437825381755829 27.14208984375 8.211100399494171 26.90283203125 8.04931640625C26.66357421875 7.887532413005829 26.36848944425583 7.806640625 26.017578125 7.806640625L26.017578125 7.806640625C25.662109375 7.806640625 25.36018866300583 7.888671875 25.11181640625 8.052734375C24.863443940877914 8.216796875 24.675455659627914 8.437825381755829 24.5478515625 8.7158203125L24.5478515625 8.7158203125C24.4521484375 8.930012881755829 24.392903715372086 9.1669921875 24.3701171875 9.4267578125" fill="#1a1ae5"/></g></g></g></svg>