<svg xmlns="http://www.w3.org/2000/svg" width="200" height="100" viewBox="0 0 200 100"><defs><clipPath id="clip-0"><path d="M 0.00 0.00 L 200.00 0.00 L 200.00 60.00 L 0.00 60.00 L 0.00 0.00" fill-rule="nonzero" fill="black"/></clipPath></defs><g><path d="M 0.00 0.00 L 200.00 0.00 L 200.00 60.00 L 0.00 60.00 L 0.00 0.00" fill-rule="nonzero" fill="#ffffff"/><g clip-path="url(#clip-0)"><g transform="matrix(1, 0, 0, 1, 10, 15)"><path d="M5.35254 14.13672L5.35254 14.13672C4.4821 14.13672 3.70622 13.92594 3.0249 13.50439C2.34359 13.08285 1.80811 12.48128 1.41846 11.69971C1.02881 10.91813 0.83398 9.98958 0.83398 8.91406L0.83398 8.91406C0.83398 7.83398 1.02881 6.90316 1.41846 6.12158C1.80811 5.34001 2.34359 4.7373 3.0249 4.31348C3.70622 3.88965 4.4821 3.67773 5.35254 3.67773L5.35254 3.67773C5.86751 3.67773 6.354 3.75293 6.81201 3.90332C7.27002 4.05371 7.68131 4.2736 8.0459 4.56299C8.41048 4.85238 8.71468 5.20329 8.9585 5.61572C9.20231 6.02816 9.36979 6.49642 9.46094 7.02051L9.46094 7.02051L8.16211 7.02051C8.08919 6.6696 7.96501 6.36198 7.78955 6.09766C7.6141 5.83333 7.3999 5.61003 7.14697 5.42773C6.89404 5.24544 6.61491 5.10872 6.30957 5.01758C6.00423 4.92643 5.68522 4.88086 5.35254 4.88086L5.35254 4.88086C4.74186 4.88086 4.19043 5.03581 3.69824 5.3457C3.20605 5.6556 2.81641 6.11019 2.5293 6.70947C2.24219 7.30876 2.09863 8.04362 2.09863 8.91406L2.09863 8.91406C2.09863 9.77995 2.24333 10.51253 2.53271 11.11182C2.8221 11.7111 3.21289 12.16455 3.70508 12.47217C4.19727 12.77979 4.74642 12.93359 5.35254 12.93359L5.35254 12.93359C5.68522 12.93359 6.00423 12.88688 6.30957 12.79346C6.61491 12.70003 6.89404 12.56331 7.14697 12.3833C7.3999 12.20329 7.6141 11.97998 7.78955 11.71338C7.96501 11.44678 8.08919 11.1403 8.16211 10.79395L8.16211 10.79395L9.46094 10.79395C9.37435 11.31348 9.20915 11.77832 8.96533 12.18848C8.72152 12.59863 8.41732 12.94954 8.05273 13.24121C7.68815 13.53288 7.27686 13.75505 6.81885 13.90771C6.36084 14.06038 5.87207 14.13672 5.35254 14.13672M14.51953 14.16406L14.51953 14.16406C13.78125 14.16406 13.14437 14 12.60889 13.67188C12.0734 13.34375 11.66097 12.88574 11.37158 12.29785C11.08219 11.70996 10.9375 11.02409 10.9375 10.24023C10.9375 9.45638 11.07878 8.76595 11.36133 8.16895C11.64388 7.57194 12.04378 7.10482 12.56104 6.76758C13.07829 6.43034 13.68327 6.26172 14.37598 6.26172L14.37598 6.26172C14.78158 6.26172 15.18148 6.32894 15.57568 6.46338C15.96989 6.59782 16.32764 6.81429 16.64893 7.11279C16.97021 7.4113 17.22656 7.80436 17.41797 8.29199C17.60938 8.77962 17.70508 9.37663 17.70508 10.08301L17.70508 10.08301L17.70508 10.5957L12.18164 10.5957C12.19987 11.08789 12.29785 11.51172 12.47559 11.86719L12.47559 11.86719C12.67155 12.26367 12.94613 12.56331 13.29932 12.76611C13.65251 12.96891 14.06152 13.07031 14.52637 13.07031L14.52637 13.07031C14.82715 13.07031 15.10059 13.02702 15.34668 12.94043C15.59277 12.85384 15.80469 12.72282 15.98242 12.54736C16.16016 12.37191 16.29688 12.1543 16.39258 11.89453L16.39258 11.89453L17.58203 12.22266C17.46354 12.60547 17.26302 12.94271 16.98047 13.23438C16.69792 13.52604 16.34814 13.75391 15.93115 13.91797C15.51416 14.08203 15.04362 14.16406 14.51953 14.16406M12.18848 9.55664L12.18848 9.55664L16.4541 9.55664C16.4222 9.21029 16.34928 8.89128 16.23535 8.59961L16.23535 8.59961C16.07585 8.21224 15.84115 7.90804 15.53125 7.68701C15.22135 7.46598 14.83626 7.35547 14.37598 7.35547C13.91569 7.35547 13.52148 7.46826 13.19336 7.69385C12.86523 7.91943 12.61458 8.21224 12.44141 8.57227L12.44141 8.57227C12.29557 8.88216 12.21126 9.21029 12.18848 9.55664M20.69922 9.41992L20.69922 9.41992L20.69922 14L19.46875 14L19.46875 6.35742L20.65137 6.35742L20.6582 7.77246C20.8724 7.29395 21.14811 6.93848 21.48535 6.70605L21.48535 6.70605C21.91374 6.40983 22.41732 6.26172 22.99609 6.26172L22.99609 6.26172C23.51107 6.26172 23.96224 6.36768 24.34961 6.57959C24.73698 6.7915 25.0389 7.11051 25.25537 7.53662C25.47184 7.96273 25.58008 8.49935 25.58008 9.14648L25.58008 9.14648L25.58008 14L24.34961 14L24.34961 9.24902C24.34961 8.66113 24.1958 8.20085 23.88818 7.86816C23.58057 7.53548 23.16016 7.36914 22.62695 7.36914L22.62695 7.36914C22.26237 7.36914 21.93424 7.44889 21.64258 7.6084C21.35091 7.7679 21.12077 8.00033 20.95215 8.30566C20.78353 8.611 20.69922 8.98242 20.69922 9.41992M29.17578 6.35742L30.74805 6.35742L30.74805 7.41016L29.17578 7.41016L29.17578 12.01758C29.17578 12.35938 29.24528 12.60889 29.38428 12.76611C29.52327 12.92334 29.75456 13.00195 30.07813 13.00195L30.07813 13.00195C30.1556 13.00195 30.25472 12.99284 30.37549 12.97461C30.49626 12.95638 30.60677 12.93815 30.70703 12.91992L30.70703 12.91992L30.95996 13.95898C30.83236 14.00456 30.68766 14.03874 30.52588 14.06152C30.36409 14.08431 30.20345 14.0957 30.04395 14.0957L30.04395 14.0957C29.38314 14.0957 28.86816 13.92139 28.49902 13.57275C28.12988 13.22412 27.94531 12.73763 27.94531 12.11328L27.94531 12.11328L27.94531 7.41016L26.79688 7.41016L26.79688 6.35742L27.94531 6.35742L27.94531 4.53906L29.17578 4.53906L29.17578 6.35742M35.5332 14.16406L35.5332 14.16406C34.79492 14.16406 34.15804 14 33.62256 13.67188C33.08708 13.34375 32.67464 12.88574 32.38525 12.29785C32.09587 11.70996 31.95117 11.02409 31.95117 10.24023C31.95117 9.45638 32.09245 8.76595 32.375 8.16895C32.65755 7.57194 33.05745 7.10482 33.57471 6.76758C34.09196 6.43034 34.69694 6.26172 35.38965 6.26172L35.38965 6.26172C35.79525 6.26172 36.19515 6.32894 36.58936 6.46338C36.98356 6.59782 37.34131 6.81429 37.6626 7.11279C37.98389 7.4113 38.24023 7.80436 38.43164 8.29199C38.62305 8.77962 38.71875 9.37663 38.71875 10.08301L38.71875 10.08301L38.71875 10.5957L33.19531 10.5957C33.21354 11.08789 33.31152 11.51172 33.48926 11.86719L33.48926 11.86719C33.68522 12.26367 33.9598 12.56331 34.31299 12.76611C34.66618 12.96891 35.0752 13.07031 35.54004 13.07031L35.54004 13.07031C35.84082 13.07031 36.11426 13.02702 36.36035 12.94043C36.60645 12.85384 36.81836 12.72282 36.99609 12.54736C37.17383 12.37191 37.31055 12.1543 37.40625 11.89453L37.40625 11.89453L38.5957 12.22266C38.47721 12.60547 38.27669 12.94271 37.99414 13.23438C37.71159 13.52604 37.36182 13.75391 36.94482 13.91797C36.52783 14.08203 36.05729 14.16406 35.5332 14.16406M33.20215 9.55664L33.20215 9.55664L37.46777 9.55664C37.43587 9.21029 37.36296 8.89128 37.24902 8.59961L37.24902 8.59961C37.08952 8.21224 36.85482 7.90804 36.54492 7.68701C36.23503 7.46598 35.84993 7.35547 35.38965 7.35547C34.92936 7.35547 34.53516 7.46826 34.20703 7.69385C33.87891 7.91943 33.62826 8.21224 33.45508 8.57227L33.45508 8.57227C33.30924 8.88216 33.22493 9.21029 33.20215 9.55664M41.71289 14L40.48242 14L40.48242 6.35742L41.67188 6.35742L41.67188 7.5332L41.75391 7.5332C41.89518 7.14583 42.14697 6.8348 42.50928 6.6001C42.87158 6.3654 43.2806 6.24805 43.73633 6.24805L43.73633 6.24805C43.82747 6.24805 43.93571 6.25033 44.06104 6.25488C44.18636 6.25944 44.28548 6.264 44.3584 6.26855L44.3584 6.26855L44.3584 7.50586C44.32194 7.49674 44.23079 7.48307 44.08496 7.46484C43.93913 7.44661 43.78418 7.4375 43.62012 7.4375L43.62012 7.4375C43.25553 7.4375 42.92855 7.51383 42.63916 7.6665C42.34977 7.81917 42.12305 8.02881 41.95898 8.29541C41.79492 8.56201 41.71289 8.86849 41.71289 9.21484L41.71289 9.21484L41.71289 14M51.83008 14.17773L51.83008 14.17773C51.34701 14.17773 50.90837 14.08659 50.51416 13.9043C50.11995 13.72201 49.80664 13.4554 49.57422 13.10449C49.3418 12.75358 49.22559 12.32747 49.22559 11.82617L49.22559 11.82617C49.22559 11.38867 49.31217 11.0332 49.48535 10.75977C49.65853 10.48633 49.88981 10.271 50.1792 10.11377C50.46859 9.95654 50.78874 9.83919 51.13965 9.76172C51.49056 9.68424 51.84375 9.62272 52.19922 9.57715L52.19922 9.57715C52.65495 9.5179 53.02637 9.47233 53.31348 9.44043C53.60059 9.40853 53.81364 9.35384 53.95264 9.27637C54.09163 9.19889 54.16113 9.06673 54.16113 8.87988L54.16113 8.87988L54.16113 8.83887C54.16113 8.51986 54.10189 8.24984 53.9834 8.02881C53.86491 7.80778 53.68717 7.63802 53.4502 7.51953C53.21322 7.40104 52.91699 7.3418 52.56152 7.3418L52.56152 7.3418C52.19694 7.3418 51.88477 7.39876 51.625 7.5127C51.36523 7.62663 51.15446 7.76904 50.99268 7.93994C50.83089 8.11084 50.70898 8.28516 50.62695 8.46289L50.62695 8.46289L49.44434 8.07324C49.6403 7.6084 49.90462 7.24495 50.2373 6.98291C50.56999 6.72087 50.93685 6.53516 51.33789 6.42578C51.73893 6.31641 52.13542 6.26172 52.52734 6.26172L52.52734 6.26172C52.78255 6.26172 53.07308 6.29248 53.39893 6.354C53.72477 6.41553 54.03923 6.53744 54.34229 6.71973C54.64534 6.90202 54.896 7.17204 55.09424 7.52979C55.29248 7.88753 55.3916 8.36491 55.3916 8.96191L55.3916 8.96191L55.3916 14L54.18164 14L54.18164 12.96094L54.09961 12.96094C54.01302 13.13867 53.87402 13.3221 53.68262 13.51123C53.49121 13.70036 53.24284 13.85872 52.9375 13.98633C52.63216 14.11393 52.26302 14.17773 51.83008 14.17773M52.04199 13.09082L52.04199 13.09082C52.49772 13.09082 52.88281 13.00195 53.19727 12.82422C53.51172 12.64648 53.75098 12.4152 53.91504 12.13037C54.0791 11.84554 54.16113 11.54818 54.16113 11.23828L54.16113 11.23828L54.16113 10.17871C54.111 10.23796 54.00163 10.2915 53.83301 10.33936C53.66439 10.38721 53.47184 10.42936 53.25537 10.46582C53.0389 10.50228 52.82926 10.53304 52.62646 10.55811C52.42367 10.58317 52.26302 10.60254 52.14453 10.61621L52.14453 10.61621C51.84831 10.65267 51.57145 10.71533 51.31396 10.8042C51.05648 10.89307 50.85026 11.02295 50.69531 11.19385C50.54036 11.36475 50.46289 11.59603 50.46289 11.8877L50.46289 11.8877C50.46289 12.15202 50.53125 12.37305 50.66797 12.55078C50.80469 12.72852 50.99154 12.86296 51.22852 12.9541C51.46549 13.04525 51.73665 13.09082 52.04199 13.09082M57.55176 3.81445L58.78223 3.81445L58.78223 14L57.55176 14L57.55176 3.81445M62.17285 14L60.94238 14L60.94238 6.35742L62.17285 6.35742L62.17285 14M61.56445 5.10645L61.56445 5.10645C61.33203 5.10645 61.13151 5.02669 60.96289 4.86719C60.79427 4.70768 60.70996 4.51628 60.70996 4.29297L60.70996 4.29297C60.70996 4.0651 60.79427 3.87256 60.96289 3.71533C61.13151 3.55811 61.33203 3.47949 61.56445 3.47949L61.56445 3.47949C61.80143 3.47949 62.00423 3.55811 62.17285 3.71533C62.34147 3.87256 62.42578 4.0651 62.42578 4.29297L62.42578 4.29297C62.42578 4.51628 62.34147 4.70768 62.17285 4.86719C62.00423 5.02669 61.80143 5.10645 61.56445 5.10645M67.42969 17.02148L67.42969 17.02148C66.86458 17.02148 66.37581 16.94971 65.96338 16.80615C65.55094 16.6626 65.20801 16.47233 64.93457 16.23535C64.66113 15.99837 64.44466 15.74089 64.28516 15.46289L64.28516 15.46289L65.2832 14.82031C65.39258 14.96615 65.52816 15.12793 65.68994 15.30566C65.85173 15.4834 66.07048 15.63493 66.34619 15.76025C66.62191 15.88558 66.98307 15.94824 67.42969 15.94824L67.42969 15.94824C68.04036 15.94824 68.54281 15.80241 68.93701 15.51074C69.33122 15.21908 69.52832 14.75879 69.52832 14.12988L69.52832 14.12988L69.52832 12.59863L69.41211 12.59863C69.32552 12.74447 69.20361 12.91764 69.04639 13.11816C68.88916 13.31868 68.66357 13.49528 68.36963 13.64795C68.07568 13.80062 67.68262 13.87695 67.19043 13.87695L67.19043 13.87695C66.57975 13.87695 66.0306 13.73226 65.54297 13.44287C65.05534 13.15348 64.67025 12.73079 64.3877 12.1748C64.10514 11.61882 63.96387 10.94206 63.96387 10.14453L63.96387 10.14453C63.96387 9.35612 64.10286 8.67139 64.38086 8.09033C64.65885 7.50928 65.04281 7.05924 65.53271 6.74023C66.02262 6.42122 66.58431 6.26172 67.21777 6.26172L67.21777 6.26172C67.70996 6.26172 68.10303 6.34261 68.39697 6.50439C68.69092 6.66618 68.91764 6.85189 69.07715 7.06152C69.23665 7.27116 69.3597 7.44434 69.44629 7.58105L69.44629 7.58105L69.5625 7.58105L69.5625 6.35742L70.75879 6.35742L70.75879 14.19824C70.75879 14.85449 70.61068 15.39111 70.31445 15.80811C70.01823 16.2251 69.61833 16.53158 69.11475 16.72754C68.61117 16.9235 68.04948 17.02148 67.42969 17.02148M67.39551 12.7832L67.39551 12.7832C67.86035 12.7832 68.25228 12.67725 68.57129 12.46533C68.8903 12.25342 69.13184 11.94808 69.2959 11.54932C69.45996 11.15055 69.54199 10.67318 69.54199 10.11719L69.54199 10.11719C69.54199 9.57487 69.4611 9.09749 69.29932 8.68506C69.13753 8.27262 68.89714 7.94906 68.57813 7.71436C68.25911 7.47966 67.86491 7.3623 67.39551 7.3623L67.39551 7.3623C66.91243 7.3623 66.50911 7.48649 66.18555 7.73486C65.86198 7.98324 65.6193 8.31478 65.45752 8.72949C65.29574 9.14421 65.21484 9.60677 65.21484 10.11719L65.21484 10.11719C65.21484 10.64128 65.29688 11.10384 65.46094 11.50488C65.625 11.90592 65.86882 12.21924 66.19238 12.44482C66.51595 12.67041 66.91699 12.7832 67.39551 12.7832M74.14941 9.41992L74.14941 9.41992L74.14941 14L72.91895 14L72.91895 6.35742L74.10156 6.35742L74.1084 7.77246C74.32259 7.29395 74.59831 6.93848 74.93555 6.70605L74.93555 6.70605C75.36393 6.40983 75.86751 6.26172 76.44629 6.26172L76.44629 6.26172C76.96126 6.26172 77.41243 6.36768 77.7998 6.57959C78.18717 6.7915 78.48909 7.11051 78.70557 7.53662C78.92204 7.96273 79.03027 8.49935 79.03027 9.14648L79.03027 9.14648L79.03027 14L77.7998 14L77.7998 9.24902C77.7998 8.66113 77.646 8.20085 77.33838 7.86816C77.03076 7.53548 76.61035 7.36914 76.07715 7.36914L76.07715 7.36914C75.71257 7.36914 75.38444 7.44889 75.09277 7.6084C74.80111 7.7679 74.57096 8.00033 74.40234 8.30566C74.23372 8.611 74.14941 8.98242 74.14941 9.41992M84.40332 14.16406L84.40332 14.16406C83.66504 14.16406 83.02816 14 82.49268 13.67188C81.95719 13.34375 81.54476 12.88574 81.25537 12.29785C80.96598 11.70996 80.82129 11.02409 80.82129 10.24023C80.82129 9.45638 80.96257 8.76595 81.24512 8.16895C81.52767 7.57194 81.92757 7.10482 82.44482 6.76758C82.96208 6.43034 83.56706 6.26172 84.25977 6.26172L84.25977 6.26172C84.66536 6.26172 85.06527 6.32894 85.45947 6.46338C85.85368 6.59782 86.21143 6.81429 86.53271 7.11279C86.854 7.4113 87.11035 7.80436 87.30176 8.29199C87.49316 8.77962 87.58887 9.37663 87.58887 10.08301L87.58887 10.08301L87.58887 10.5957L82.06543 10.5957C82.08366 11.08789 82.18164 11.51172 82.35938 11.86719L82.35938 11.86719C82.55534 12.26367 82.82992 12.56331 83.18311 12.76611C83.5363 12.96891 83.94531 13.07031 84.41016 13.07031L84.41016 13.07031C84.71094 13.07031 84.98438 13.02702 85.23047 12.94043C85.47656 12.85384 85.68848 12.72282 85.86621 12.54736C86.04395 12.37191 86.18066 12.1543 86.27637 11.89453L86.27637 11.89453L87.46582 12.22266C87.34733 12.60547 87.14681 12.94271 86.86426 13.23438C86.58171 13.52604 86.23193 13.75391 85.81494 13.91797C85.39795 14.08203 84.92741 14.16406 84.40332 14.16406M82.07227 9.55664L82.07227 9.55664L86.33789 9.55664C86.30599 9.21029 86.23307 8.89128 86.11914 8.59961L86.11914 8.59961C85.95964 8.21224 85.72493 7.90804 85.41504 7.68701C85.10514 7.46598 84.72005 7.35547 84.25977 7.35547C83.79948 7.35547 83.40527 7.46826 83.07715 7.69385C82.74902 7.91943 82.49837 8.21224 82.3252 8.57227L82.3252 8.57227C82.17936 8.88216 82.09505 9.21029 82.07227 9.55664M92.2168 14.16406L92.2168 14.16406C91.58333 14.16406 91.02279 14.00228 90.53516 13.67871C90.04753 13.35514 89.66699 12.89714 89.39355 12.30469C89.12012 11.71224 88.9834 11.01042 88.9834 10.19922L88.9834 10.19922C88.9834 9.39258 89.12126 8.69417 89.39697 8.104C89.67269 7.51383 90.05436 7.05924 90.54199 6.74023C91.02962 6.42122 91.59017 6.26172 92.22363 6.26172L92.22363 6.26172C92.72038 6.26172 93.11458 6.34375 93.40625 6.50781C93.69792 6.67188 93.92236 6.85758 94.07959 7.06494C94.23682 7.2723 94.35645 7.44434 94.43848 7.58105L94.43848 7.58105L94.53418 7.58105L94.53418 3.81445L95.76465 3.81445L95.76465 14L94.5752 14L94.5752 12.81738L94.43848 12.81738C94.35645 12.95866 94.23454 13.13525 94.07275 13.34717C93.91097 13.55908 93.68311 13.74821 93.38916 13.91455C93.09521 14.08089 92.70443 14.16406 92.2168 14.16406M92.40137 13.06348L92.40137 13.06348C92.86621 13.06348 93.25814 12.94157 93.57715 12.69775C93.89616 12.45394 94.1377 12.11556 94.30176 11.68262C94.46582 11.24967 94.54785 10.75065 94.54785 10.18555L94.54785 10.18555C94.54785 9.62044 94.46696 9.12712 94.30518 8.70557C94.14339 8.28402 93.90299 7.95475 93.58398 7.71777C93.26497 7.48079 92.87077 7.3623 92.40137 7.3623L92.40137 7.3623C91.91829 7.3623 91.51611 7.48763 91.19482 7.73828C90.87354 7.98893 90.63314 8.32731 90.47363 8.75342C90.31413 9.17952 90.23438 9.6569 90.23438 10.18555L90.23438 10.18555C90.23438 10.71875 90.31527 11.20296 90.47705 11.63818C90.63883 12.0734 90.88151 12.41976 91.20508 12.67725C91.52865 12.93473 91.92741 13.06348 92.40137 13.06348" fill="#000000"/></g></g></g></svg>