<svg xmlns="http://www.w3.org/2000/svg" width="200" height="100" viewBox="0 0 200 100"><defs><clipPath id="clip-0"><path d="M 0.00 0.00 L 200.00 0.00 L 200.00 60.00 L 0.00 60.00 L 0.00 0.00" fill-rule="nonzero" fill="black"/></clipPath></defs><g><path d="M 0.00 0.00 L 200.00 0.00 L 200.00 60.00 L 0.00 60.00 L 0.00 0.00" fill-rule="nonzero" fill="#ffffff"/><g clip-path="url(#clip-0)"><g transform="matrix(1, 0, 0, 1, 10, 15)"><path d="M3.00781 14L0.92285 14L0.92285 3.81445L4.89453 3.81445C5.66927 3.81445 6.3278 3.95117 6.87012 4.22461C7.41244 4.49805 7.82601 4.88314 8.11084 5.37988C8.39567 5.87663 8.53809 6.45996 8.53809 7.12988C8.53809 7.7998 8.39339 8.37744 8.104 8.86279C7.81462 9.34814 7.39648 9.71842 6.84961 9.97363L6.84961 9.97363C6.80859 9.99186 6.76986 10.01009 6.7334 10.02832L6.7334 10.02832L8.90039 14L6.58984 14L4.6416 10.36328L3.00781 10.36328L3.00781 14M3.00781 5.53711L3.00781 8.6748L4.51172 8.6748C4.9401 8.6748 5.29102 8.6167 5.56445 8.50049C5.83789 8.38428 6.04297 8.2111 6.17969 7.98096C6.31641 7.75081 6.38477 7.46712 6.38477 7.12988L6.38477 7.12988C6.38477 6.78353 6.31641 6.493 6.17969 6.2583C6.04297 6.0236 5.83675 5.84473 5.56104 5.72168C5.28532 5.59863 4.93327 5.53711 4.50488 5.53711L4.50488 5.53711L3.00781 5.53711M13.52148 14.15039L13.52148 14.15039C12.74219 14.15039 12.06999 13.99089 11.50488 13.67188C10.93978 13.35286 10.5057 12.89941 10.20264 12.31152C9.89958 11.72363 9.74805 11.02637 9.74805 10.21973L9.74805 10.21973C9.74805 9.43132 9.89844 8.74089 10.19922 8.14844C10.5 7.55599 10.92611 7.09342 11.47754 6.76074C12.02897 6.42806 12.67611 6.26172 13.41895 6.26172L13.41895 6.26172C13.92025 6.26172 14.38737 6.34147 14.82031 6.50098C15.25326 6.66048 15.63379 6.90088 15.96191 7.22217C16.29004 7.54346 16.54639 7.94564 16.73096 8.42871C16.91553 8.91178 17.00781 9.48145 17.00781 10.1377L17.00781 10.1377L17.00781 10.71191L11.77832 10.71191C11.79199 11.09928 11.86719 11.42969 12.00391 11.70313L12.00391 11.70313C12.14974 12.00391 12.35596 12.22949 12.62256 12.37988C12.88916 12.53027 13.2002 12.60547 13.55566 12.60547L13.55566 12.60547C13.7972 12.60547 14.01595 12.57129 14.21191 12.50293C14.40788 12.43457 14.57536 12.33317 14.71436 12.19873C14.85335 12.06429 14.95931 11.89909 15.03223 11.70313L15.03223 11.70313L16.8916 12.05176C16.76855 12.47103 16.55436 12.83903 16.24902 13.15576C15.94368 13.47249 15.56201 13.71745 15.104 13.89063C14.646 14.0638 14.11849 14.15039 13.52148 14.15039M11.79199 9.42676L11.79199 9.42676L15.03223 9.42676C15.00488 9.17155 14.9502 8.93913 14.86816 8.72949L14.86816 8.72949C14.74512 8.43783 14.56396 8.2111 14.32471 8.04932C14.08545 7.88753 13.79036 7.80664 13.43945 7.80664L13.43945 7.80664C13.08398 7.80664 12.78206 7.88867 12.53369 8.05273C12.28532 8.2168 12.09733 8.43783 11.96973 8.71582L11.96973 8.71582C11.87402 8.93001 11.81478 9.16699 11.79199 9.42676M21.19824 14.12988L21.19824 14.12988C20.61491 14.12988 20.0874 13.97835 19.61572 13.67529C19.14404 13.37223 18.77148 12.9279 18.49805 12.34229C18.22461 11.75667 18.08789 11.04004 18.08789 10.19238L18.08789 10.19238C18.08789 9.32194 18.22917 8.59505 18.51172 8.01172C18.79427 7.42839 19.17025 6.99089 19.63965 6.69922C20.10905 6.40755 20.6263 6.26172 21.19141 6.26172L21.19141 6.26172C21.62435 6.26172 21.98438 6.33464 22.27148 6.48047C22.55859 6.6263 22.79102 6.80631 22.96875 7.02051C23.14648 7.2347 23.27865 7.44206 23.36523 7.64258L23.36523 7.64258L23.43359 7.64258L23.43359 3.81445L25.48438 3.81445L25.48438 14L23.46777 14L23.46777 12.77637L23.36523 12.77637C23.27409 12.98145 23.13851 13.18766 22.9585 13.39502C22.77848 13.60238 22.54492 13.77669 22.25781 13.91797C21.9707 14.05924 21.61751 14.12988 21.19824 14.12988M21.83398 12.48242L21.83398 12.48242C22.18034 12.48242 22.47656 12.38672 22.72266 12.19531C22.96875 12.00391 23.1556 11.73617 23.2832 11.39209C23.41081 11.04801 23.47461 10.64583 23.47461 10.18555L23.47461 10.18555C23.47461 9.7207 23.41195 9.31852 23.28662 8.979C23.1613 8.63949 22.97559 8.37516 22.72949 8.18604C22.4834 7.99691 22.1849 7.90234 21.83398 7.90234L21.83398 7.90234C21.47396 7.90234 21.17204 8.00033 20.92822 8.19629C20.68441 8.39225 20.50098 8.66113 20.37793 9.00293C20.25488 9.34473 20.19336 9.73893 20.19336 10.18555L20.19336 10.18555C20.19336 10.63216 20.25602 11.02865 20.38135 11.375C20.50667 11.72135 20.69124 11.99251 20.93506 12.18848C21.17887 12.38444 21.47852 12.48242 21.83398 12.48242" fill="#e51a1a"/></g><g transform="matrix(1, 0, 0, 1, 70, 15)"><path d="M5.43457 14.13672L5.43457 14.13672C4.4821 14.13672 3.64697 13.92594 2.9292 13.50439C2.21143 13.08285 1.65088 12.48128 1.24756 11.69971C0.84424 10.91813 0.64258 9.99186 0.64258 8.9209L0.64258 8.9209C0.64258 7.81803 0.85221 6.87581 1.27148 6.09424C1.69076 5.31266 2.25814 4.71452 2.97363 4.2998C3.68913 3.88509 4.49349 3.67773 5.38672 3.67773L5.38672 3.67773C5.96094 3.67773 6.49528 3.7609 6.98975 3.92725C7.48421 4.09359 7.92399 4.32943 8.30908 4.63477C8.69417 4.9401 9.00863 5.30127 9.25244 5.71826C9.49626 6.13525 9.65462 6.59668 9.72754 7.10254L9.72754 7.10254L7.6084 7.10254C7.53548 6.85645 7.43408 6.63656 7.3042 6.44287C7.17432 6.24919 7.01709 6.08398 6.83252 5.94727C6.64795 5.81055 6.43717 5.70687 6.2002 5.63623C5.96322 5.56559 5.70345 5.53027 5.4209 5.53027L5.4209 5.53027C4.89681 5.53027 4.43424 5.6613 4.0332 5.92334C3.63216 6.18538 3.31999 6.56706 3.09668 7.06836C2.87337 7.56966 2.76172 8.18034 2.76172 8.90039C2.76172 9.62044 2.87223 10.23226 3.09326 10.73584C3.31429 11.23942 3.62533 11.62337 4.02637 11.8877C4.42741 12.15202 4.90137 12.28418 5.44824 12.28418L5.44824 12.28418C5.94043 12.28418 6.36198 12.19531 6.71289 12.01758C7.0638 11.83984 7.33496 11.58464 7.52637 11.25195L7.52637 11.25195C7.7041 10.9375 7.79753 10.57292 7.80664 10.1582L7.80664 10.1582L5.5918 10.1582L5.5918 8.57227L9.83008 8.57227L9.83008 9.84375C9.83008 10.73698 9.64095 11.50374 9.2627 12.14404C8.88444 12.78434 8.36491 13.27653 7.7041 13.62061C7.04329 13.96468 6.28678 14.13672 5.43457 14.13672M13.43262 14L11.38184 14L11.38184 6.35742L13.36426 6.35742L13.36426 7.69043L13.44629 7.69043C13.58757 7.21647 13.8234 6.85872 14.15381 6.61719C14.48421 6.37565 14.86361 6.25488 15.29199 6.25488L15.29199 6.25488C15.39681 6.25488 15.51074 6.26058 15.63379 6.27197C15.75684 6.28337 15.86393 6.30046 15.95508 6.32324L15.95508 6.32324L15.95508 8.15527C15.86393 8.12337 15.73177 8.09831 15.55859 8.08008C15.38542 8.06185 15.22135 8.05273 15.06641 8.05273L15.06641 8.05273C14.75651 8.05273 14.47624 8.11995 14.22559 8.25439C13.97493 8.38883 13.78011 8.57568 13.64111 8.81494C13.50212 9.0542 13.43262 9.33333 13.43262 9.65234L13.43262 9.65234L13.43262 14M20.53516 14.15039L20.53516 14.15039C19.75586 14.15039 19.08366 13.99089 18.51855 13.67188C17.95345 13.35286 17.51937 12.89941 17.21631 12.31152C16.91325 11.72363 16.76172 11.02637 16.76172 10.21973L16.76172 10.21973C16.76172 9.43132 16.91211 8.74089 17.21289 8.14844C17.51367 7.55599 17.93978 7.09342 18.49121 6.76074C19.04264 6.42806 19.68978 6.26172 20.43262 6.26172L20.43262 6.26172C20.93392 6.26172 21.40104 6.34147 21.83398 6.50098C22.26693 6.66048 22.64746 6.90088 22.97559 7.22217C23.30371 7.54346 23.56006 7.94564 23.74463 8.42871C23.9292 8.91178 24.02148 9.48145 24.02148 10.1377L24.02148 10.1377L24.02148 10.71191L18.79199 10.71191C18.80566 11.09928 18.88086 11.42969 19.01758 11.70313L19.01758 11.70313C19.16341 12.00391 19.36963 12.22949 19.63623 12.37988C19.90283 12.53027 20.21387 12.60547 20.56934 12.60547L20.56934 12.60547C20.81087 12.60547 21.02962 12.57129 21.22559 12.50293C21.42155 12.43457 21.58903 12.33317 21.72803 12.19873C21.86702 12.06429 21.97298 11.89909 22.0459 11.70313L22.0459 11.70313L23.90527 12.05176C23.78223 12.47103 23.56803 12.83903 23.2627 13.15576C22.95736 13.47249 22.57568 13.71745 22.11768 13.89063C21.65967 14.0638 21.13216 14.15039 20.53516 14.15039M18.80566 9.42676L18.80566 9.42676L22.0459 9.42676C22.01855 9.17155 21.96387 8.93913 21.88184 8.72949L21.88184 8.72949C21.75879 8.43783 21.57764 8.2111 21.33838 8.04932C21.09912 7.88753 20.80404 7.80664 20.45313 7.80664L20.45313 7.80664C20.09766 7.80664 19.79574 7.88867 19.54736 8.05273C19.29899 8.2168 19.111 8.43783 18.9834 8.71582L18.9834 8.71582C18.8877 8.93001 18.82845 9.16699 18.80566 9.42676M28.875 14.15039L28.875 14.15039C28.0957 14.15039 27.4235 13.99089 26.8584 13.67188C26.29329 13.35286 25.85921 12.89941 25.55615 12.31152C25.25309 11.72363 25.10156 11.02637 25.10156 10.21973L25.10156 10.21973C25.10156 9.43132 25.25195 8.74089 25.55273 8.14844C25.85352 7.55599 26.27962 7.09342 26.83105 6.76074C27.38249 6.42806 28.02962 6.26172 28.77246 6.26172L28.77246 6.26172C29.27376 6.26172 29.74089 6.34147 30.17383 6.50098C30.60677 6.66048 30.9873 6.90088 31.31543 7.22217C31.64355 7.54346 31.8999 7.94564 32.08447 8.42871C32.26904 8.91178 32.36133 9.48145 32.36133 10.1377L32.36133 10.1377L32.36133 10.71191L27.13184 10.71191C27.14551 11.09928 27.2207 11.42969 27.35742 11.70313L27.35742 11.70313C27.50326 12.00391 27.70947 12.22949 27.97607 12.37988C28.24268 12.53027 28.55371 12.60547 28.90918 12.60547L28.90918 12.60547C29.15072 12.60547 29.36947 12.57129 29.56543 12.50293C29.76139 12.43457 29.92887 12.33317 30.06787 12.19873C30.20687 12.06429 30.31283 11.89909 30.38574 11.70313L30.38574 11.70313L32.24512 12.05176C32.12207 12.47103 31.90788 12.83903 31.60254 13.15576C31.2972 13.47249 30.91553 13.71745 30.45752 13.89063C29.99951 14.0638 29.47201 14.15039 28.875 14.15039M27.14551 9.42676L27.14551 9.42676L30.38574 9.42676C30.3584 9.17155 30.30371 8.93913 30.22168 8.72949L30.22168 8.72949C30.09863 8.43783 29.91748 8.2111 29.67822 8.04932C29.43896 7.88753 29.14388 7.80664 28.79297 7.80664L28.79297 7.80664C28.4375 7.80664 28.13558 7.88867 27.88721 8.05273C27.63883 8.2168 27.45085 8.43783 27.32324 8.71582L27.32324 8.71582C27.22754 8.93001 27.16829 9.16699 27.14551 9.42676M35.81348 9.57715L35.81348 9.57715L35.81348 14L33.7627 14L33.7627 6.35742L35.69727 6.35742L35.72461 7.93652C35.92057 7.45345 36.18717 7.06836 36.52441 6.78125L36.52441 6.78125C36.93001 6.4349 37.45638 6.26172 38.10352 6.26172L38.10352 6.26172C38.63216 6.26172 39.09359 6.37679 39.48779 6.60693C39.882 6.83708 40.18734 7.16748 40.40381 7.59814C40.62028 8.02881 40.72852 8.54264 40.72852 9.13965L40.72852 9.13965L40.72852 14L38.67773 14L38.67773 9.49512C38.67773 9.02116 38.55583 8.64974 38.31201 8.38086C38.0682 8.11198 37.72982 7.97754 37.29688 7.97754L37.29688 7.97754C37.00977 7.97754 36.75342 8.0402 36.52783 8.16553C36.30225 8.29085 36.12679 8.47201 36.00146 8.70898C35.87614 8.94596 35.81348 9.23535 35.81348 9.57715" fill="#1ab21a"/></g><g transform="matrix(1, 0, 0, 1, 130, 15)"><path d="M5.22266 14L0.92285 14L0.92285 3.81445L4.96289 3.81445C5.71029 3.81445 6.3335 3.92725 6.83252 4.15283C7.33154 4.37842 7.70524 4.68717 7.95361 5.0791C8.20199 5.47103 8.32617 5.9222 8.32617 6.43262L8.32617 6.43262C8.32617 6.83366 8.24642 7.18343 8.08691 7.48193C7.92741 7.78044 7.7098 8.02425 7.43408 8.21338C7.15837 8.40251 6.84505 8.53809 6.49414 8.62012L6.49414 8.62012L6.49414 8.72266C6.87695 8.73633 7.23812 8.84456 7.57764 9.04736C7.91715 9.25016 8.19287 9.53271 8.40479 9.89502C8.6167 10.25732 8.72266 10.68913 8.72266 11.19043L8.72266 11.19043C8.72266 11.72819 8.59049 12.20898 8.32617 12.63281C8.06185 13.05664 7.67106 13.39046 7.15381 13.63428C6.63656 13.87809 5.99284 14 5.22266 14L5.22266 14M3.00781 9.52246L3.00781 12.28418L4.8125 12.28418C5.42318 12.28418 5.86979 12.16569 6.15234 11.92871C6.4349 11.69173 6.57617 11.37956 6.57617 10.99219L6.57617 10.99219C6.57617 10.70508 6.50667 10.45101 6.36768 10.22998C6.22868 10.00895 6.03158 9.83577 5.77637 9.71045C5.52116 9.58512 5.2181 9.52246 4.86719 9.52246L4.86719 9.52246L3.00781 9.52246M3.00781 5.5166L3.00781 8.09375L4.65527 8.09375C4.9515 8.09375 5.2181 8.0402 5.45508 7.93311C5.69206 7.82601 5.87777 7.67334 6.01221 7.4751C6.14665 7.27686 6.21387 7.04102 6.21387 6.76758L6.21387 6.76758C6.21387 6.39844 6.08284 6.09766 5.8208 5.86523C5.55876 5.63281 5.18392 5.5166 4.69629 5.5166L4.69629 5.5166L3.00781 5.5166M10.1377 3.81445L12.18848 3.81445L12.18848 14L10.1377 14L10.1377 3.81445M16.56348 14.0957L16.56348 14.0957C16.03483 14.0957 15.57227 13.98063 15.17578 13.75049C14.7793 13.52035 14.47282 13.18994 14.25635 12.75928C14.03988 12.32861 13.93164 11.81478 13.93164 11.21777L13.93164 11.21777L13.93164 6.35742L15.98242 6.35742L15.98242 10.8623C15.98242 11.33626 16.10547 11.70768 16.35156 11.97656C16.59766 12.24544 16.9349 12.37988 17.36328 12.37988L17.36328 12.37988C17.65495 12.37988 17.91243 12.31722 18.13574 12.19189C18.35905 12.06657 18.53337 11.88428 18.65869 11.64502C18.78402 11.40576 18.84668 11.11751 18.84668 10.78027L18.84668 10.78027L18.84668 6.35742L20.9043 6.35742L20.9043 14L18.96289 14L18.94238 12.40723C18.74642 12.89941 18.47754 13.28906 18.13574 13.57617L18.13574 13.57617C17.72103 13.92253 17.19694 14.0957 16.56348 14.0957M26.09961 14.15039L26.09961 14.15039C25.32031 14.15039 24.64811 13.99089 24.08301 13.67188C23.5179 13.35286 23.08382 12.89941 22.78076 12.31152C22.4777 11.72363 22.32617 11.02637 22.32617 10.21973L22.32617 10.21973C22.32617 9.43132 22.47656 8.74089 22.77734 8.14844C23.07813 7.55599 23.50423 7.09342 24.05566 6.76074C24.6071 6.42806 25.25423 6.26172 25.99707 6.26172L25.99707 6.26172C26.49837 6.26172 26.96549 6.34147 27.39844 6.50098C27.83138 6.66048 28.21191 6.90088 28.54004 7.22217C28.86816 7.54346 29.12451 7.94564 29.30908 8.42871C29.49365 8.91178 29.58594 9.48145 29.58594 10.1377L29.58594 10.1377L29.58594 10.71191L24.35645 10.71191C24.37012 11.09928 24.44531 11.42969 24.58203 11.70313L24.58203 11.70313C24.72786 12.00391 24.93408 12.22949 25.20068 12.37988C25.46729 12.53027 25.77832 12.60547 26.13379 12.60547L26.13379 12.60547C26.37533 12.60547 26.59408 12.57129 26.79004 12.50293C26.986 12.43457 27.15348 12.33317 27.29248 12.19873C27.43148 12.06429 27.53743 11.89909 27.61035 11.70313L27.61035 11.70313L29.46973 12.05176C29.34668 12.47103 29.13249 12.83903 28.82715 13.15576C28.52181 13.47249 28.14014 13.71745 27.68213 13.89063C27.22412 14.0638 26.69661 14.15039 26.09961 14.15039M24.37012 9.42676L24.37012 9.42676L27.61035 9.42676C27.58301 9.17155 27.52832 8.93913 27.44629 8.72949L27.44629 8.72949C27.32324 8.43783 27.14209 8.2111 26.90283 8.04932C26.66357 7.88753 26.36849 7.80664 26.01758 7.80664L26.01758 7.80664C25.66211 7.80664 25.36019 7.88867 25.11182 8.05273C24.86344 8.2168 24.67546 8.43783 24.54785 8.71582L24.54785 8.71582C24.45215 8.93001 24.3929 9.16699 24.37012 9.42676" fill="#1a1ae5"/></g></g></g></svg>