<svg xmlns="http://www.w3.org/2000/svg" width="200" height="40" viewBox="0 0 200 40"><g><defs><clipPath id="clip-0"><rect x="0" y="0" width="200" height="40"/></clipPath></defs><g clip-path="url(#clip-0)"><g transform="matrix(1,0,0,1,10,10)"><path d="M3.2080078125 10.126953125L3.2080078125 10.126953125C2.683919370174408 10.126953125 2.22900390625 10.042317709885538 1.84326171875 9.873046875C1.45751953125 9.70377603545785 1.155598983168602 9.466959647834301 0.9375 9.16259765625C0.719401016831398 8.858235701918602 0.595703125 8.502604216337204 0.56640625 8.095703125L0.56640625 8.095703125L1.5185546875 8.095703125C1.544596403837204 8.369140625 1.637369841337204 8.594563752412796 1.796875 8.77197265625C1.956380158662796 8.949381485581398 2.16064453125 9.081217423081398 2.40966796875 9.16748046875C2.65869140625 9.253743514418602 2.9248046875 9.296875 3.2080078125 9.296875L3.2080078125 9.296875C3.536783754825592 9.296875 3.832193911075592 9.2431640625 4.09423828125 9.1357421875C4.356282651424408 9.0283203125 4.563802182674408 8.876953125 4.716796875 8.681640625C4.869791567325592 8.486328125 4.9462890625 8.260091096162796 4.9462890625 8.0029296875L4.9462890625 8.0029296875C4.9462890625 7.7685546875 4.88037109375 7.578125 4.74853515625 7.431640625C4.61669921875 7.28515625 4.441731870174408 7.164713442325592 4.2236328125 7.0703125C4.005533754825592 6.975911557674408 3.766275942325592 6.892903745174408 3.505859375 6.8212890625L3.505859375 6.8212890625L2.626953125 6.572265625C2.041015625 6.40625 1.585286408662796 6.168619692325592 1.259765625 5.859375C0.934244766831398 5.550130307674408 0.771484375 5.154622495174408 0.771484375 4.6728515625L0.771484375 4.6728515625C0.771484375 4.2626953125 0.882161483168602 3.90380859375 1.103515625 3.59619140625C1.324869841337204 3.28857421875 1.624348908662796 3.050130009651184 2.001953125 2.880859375C2.379557341337204 2.711588740348816 2.802734375 2.626953125 3.271484375 2.626953125L3.271484375 2.626953125C3.75 2.626953125 4.173177182674408 2.711588740348816 4.541015625 2.880859375C4.908854067325592 3.050130009651184 5.199381709098816 3.280436396598816 5.41259765625 3.57177734375C5.625813603401184 3.863118290901184 5.738932490348816 4.192708134651184 5.751953125 4.560546875L5.751953125 4.560546875L4.84375 4.560546875C4.801432192325592 4.205729365348816 4.632161557674408 3.931477665901184 4.3359375 3.73779296875C4.039713442325592 3.544108271598816 3.675130307674408 3.447265625 3.2421875 3.447265625L3.2421875 3.447265625C2.9296875 3.447265625 2.655436098575592 3.49853515625 2.41943359375 3.60107421875C2.183430939912796 3.70361328125 2.000325471162796 3.843587040901184 1.8701171875 4.02099609375C1.739908903837204 4.198405146598816 1.6748046875 4.401041865348816 1.6748046875 4.62890625L1.6748046875 4.62890625C1.6748046875 4.8828125 1.753743439912796 5.087076723575592 1.91162109375 5.24169921875C2.069498747587204 5.396321713924408 2.256673127412796 5.516764223575592 2.47314453125 5.60302734375C2.689615786075592 5.689290463924408 2.8857421875 5.7568359375 3.0615234375 5.8056640625L3.0615234375 5.8056640625L3.7890625 6.005859375C3.984375 6.057942807674408 4.200032651424408 6.129557192325592 4.43603515625 6.220703125C4.672037661075592 6.311849057674408 4.8974609375 6.43310546875 5.1123046875 6.58447265625C5.3271484375 6.73583984375 5.503743290901184 6.927897036075592 5.64208984375 7.16064453125C5.780436396598816 7.393392026424408 5.849609375 7.679036408662796 5.849609375 8.017578125L5.849609375 8.017578125C5.849609375 8.414713591337204 5.746256709098816 8.772786483168602 5.53955078125 9.091796875C5.332844853401184 9.410807304084301 5.032551884651184 9.6630859375 4.638671875 9.8486328125C4.244791567325592 10.0341796875 3.767903745174408 10.126953125 3.2080078125 10.126953125M8.06640625 10L7.1875 10L7.1875 4.541015625L8.0419921875 4.541015625L8.046875 5.5419921875C8.118489533662796 5.340169370174408 8.214518278837204 5.167643129825592 8.3349609375 5.0244140625L8.3349609375 5.0244140625C8.494466096162796 4.832356572151184 8.682454377412796 4.6875 8.89892578125 4.58984375C9.115397036075592 4.4921875 9.3408203125 4.443359375 9.5751953125 4.443359375L9.5751953125 4.443359375C9.972330629825592 4.443359375 10.294596254825592 4.5654296875 10.5419921875 4.8095703125L10.5419921875 4.8095703125C10.740559995174408 5.008138120174408 10.882161557674408 5.255533754825592 10.966796875 5.5517578125L10.966796875 5.5517578125C11.03515625 5.369466245174408 11.131184995174408 5.206705629825592 11.2548828125 5.0634765625L11.2548828125 5.0634765625C11.427409052848816 4.864909052848816 11.636555790901184 4.7119140625 11.88232421875 4.6044921875C12.128092646598816 4.4970703125 12.395833134651184 4.443359375 12.685546875 4.443359375L12.685546875 4.443359375C13.001301884651184 4.443359375 13.289387822151184 4.51171875 13.5498046875 4.6484375C13.810221552848816 4.78515625 14.017741084098816 4.991862177848816 14.17236328125 5.2685546875C14.326985478401184 5.545247495174408 14.404296875 5.895182192325592 14.404296875 6.318359375L14.404296875 6.318359375L14.404296875 10L13.525390625 10L13.525390625 6.3427734375C13.525390625 5.948893129825592 13.414713740348816 5.667317807674408 13.193359375 5.498046875C12.972005009651184 5.328775942325592 12.71484375 5.244140625 12.421875 5.244140625L12.421875 5.244140625C12.177734375 5.244140625 11.966959834098816 5.29541015625 11.78955078125 5.39794921875C11.612141728401184 5.50048828125 11.475422978401184 5.641275942325592 11.37939453125 5.8203125C11.283365786075592 5.999349057674408 11.2353515625 6.204427182674408 11.2353515625 6.435546875L11.2353515625 6.435546875L11.2353515625 10L10.3564453125 10L10.3564453125 6.2548828125C10.3564453125 5.9521484375 10.255533754825592 5.7080078125 10.0537109375 5.5224609375C9.851888120174408 5.3369140625 9.596354067325592 5.244140625 9.287109375 5.244140625L9.287109375 5.244140625C9.075520932674408 5.244140625 8.876139372587204 5.293782651424408 8.68896484375 5.39306640625C8.501790314912796 5.492350161075592 8.351237028837204 5.6396484375 8.2373046875 5.8349609375C8.123372346162796 6.0302734375 8.06640625 6.272786557674408 8.06640625 6.5625L8.06640625 6.5625L8.06640625 10M17.4755859375 10.126953125L17.4755859375 10.126953125C17.130533903837204 10.126953125 16.817220002412796 10.061848959885538 16.53564453125 9.931640625C16.254068985581398 9.80143228545785 16.0302734375 9.611002616584301 15.8642578125 9.3603515625C15.6982421875 9.109700545668602 15.615234375 8.805338516831398 15.615234375 8.447265625L15.615234375 8.447265625C15.615234375 8.134765625 15.677083320915699 7.880859375 15.80078125 7.685546875C15.924479141831398 7.490234375 16.089681014418602 7.33642578125 16.29638671875 7.22412109375C16.503092497587204 7.11181640625 16.731770783662796 7.027994692325592 16.982421875 6.97265625C17.233072966337204 6.917317807674408 17.4853515625 6.873372495174408 17.7392578125 6.8408203125L17.7392578125 6.8408203125C18.064778745174408 6.798502504825592 18.330078125 6.765950620174408 18.53515625 6.7431640625C18.740234375 6.720377504825592 18.892415463924408 6.681315004825592 18.99169921875 6.6259765625C19.090982973575592 6.570638120174408 19.140625 6.476236879825592 19.140625 6.3427734375L19.140625 6.3427734375L19.140625 6.3134765625C19.140625 6.085611879825592 19.098307192325592 5.892740786075592 19.013671875 5.73486328125C18.929036557674408 5.576985776424408 18.802083432674408 5.455729067325592 18.6328125 5.37109375C18.463541567325592 5.286458432674408 18.251953125 5.244140625 17.998046875 5.244140625L17.998046875 5.244140625C17.737630307674408 5.244140625 17.5146484375 5.284830629825592 17.3291015625 5.3662109375C17.1435546875 5.447591245174408 16.993001252412796 5.54931640625 16.87744140625 5.67138671875C16.761881560087204 5.79345703125 16.6748046875 5.91796875 16.6162109375 6.044921875L16.6162109375 6.044921875L15.771484375 5.7666015625C15.911458358168602 5.4345703125 16.100260391831398 5.174967348575592 16.337890625 4.98779296875C16.575520783662796 4.800618290901184 16.837565153837204 4.66796875 17.1240234375 4.58984375C17.410481721162796 4.51171875 17.693684995174408 4.47265625 17.9736328125 4.47265625L17.9736328125 4.47265625C18.155924379825592 4.47265625 18.363443911075592 4.49462890625 18.59619140625 4.53857421875C18.828938901424408 4.58251953125 19.053548276424408 4.669596552848816 19.27001953125 4.7998046875C19.486490786075592 4.930012822151184 19.66552734375 5.122884213924408 19.80712890625 5.37841796875C19.94873046875 5.633951723575592 20.01953125 5.974934995174408 20.01953125 6.4013671875L20.01953125 6.4013671875L20.01953125 10L19.1552734375 10L19.1552734375 9.2578125L19.0966796875 9.2578125C19.034830629825592 9.384765625 18.935546875 9.515787772834301 18.798828125 9.65087890625C18.662109375 9.78597005829215 18.484700620174408 9.899088544771075 18.2666015625 9.990234375C18.048502504825592 10.081380205228925 17.784830629825592 10.126953125 17.4755859375 10.126953125M17.626953125 9.3505859375L17.626953125 9.3505859375C17.952474057674408 9.3505859375 18.2275390625 9.287109375 18.4521484375 9.16015625C18.6767578125 9.033203125 18.84765625 8.868001326918602 18.96484375 8.66455078125C19.08203125 8.461100310087204 19.140625 8.248697966337204 19.140625 8.02734375L19.140625 8.02734375L19.140625 7.2705078125C19.104817807674408 7.312825620174408 19.026692807674408 7.35107421875 18.90625 7.38525390625C18.785807192325592 7.41943359375 18.648274838924408 7.449544370174408 18.49365234375 7.4755859375C18.339029848575592 7.501627653837204 18.189290463924408 7.523600310087204 18.04443359375 7.54150390625C17.899576723575592 7.559407502412796 17.784830629825592 7.5732421875 17.7001953125 7.5830078125L17.7001953125 7.5830078125C17.488606721162796 7.609049528837204 17.290852814912796 7.65380859375 17.10693359375 7.71728515625C16.923014372587204 7.78076171875 16.775716096162796 7.87353515625 16.6650390625 7.99560546875C16.554362028837204 8.11767578125 16.4990234375 8.282877653837204 16.4990234375 8.4912109375L16.4990234375 8.4912109375C16.4990234375 8.680012971162796 16.5478515625 8.837890625 16.6455078125 8.96484375C16.7431640625 9.091796875 16.876627653837204 9.187825545668602 17.0458984375 9.2529296875C17.215169221162796 9.318033829331398 17.408854216337204 9.3505859375 17.626953125 9.3505859375M21.5625 2.724609375L22.44140625 2.724609375L22.44140625 10L21.5625 10L21.5625 2.724609375M23.984375 2.724609375L24.86328125 2.724609375L24.86328125 10L23.984375 10L23.984375 2.724609375M30.244140625 4.541015625L31.3671875 4.541015625L31.3671875 5.29296875L30.244140625 5.29296875L30.244140625 8.583984375C30.244140625 8.828125 30.293782502412796 9.00634765625 30.39306640625 9.11865234375C30.492350310087204 9.23095703125 30.657552033662796 9.287109375 30.888671875 9.287109375L30.888671875 9.287109375C30.944010466337204 9.287109375 31.014811098575592 9.280598983168602 31.10107421875 9.267578125C31.187337338924408 9.254557266831398 31.266275942325592 9.241536483168602 31.337890625 9.228515625L31.337890625 9.228515625L31.5185546875 9.970703125C31.427408754825592 10.003255208430346 31.324056088924408 10.027669270057231 31.20849609375 10.0439453125C31.092936098575592 10.060221352614462 30.978190004825592 10.068359375 30.8642578125 10.068359375L30.8642578125 10.068359375C30.392252653837204 10.068359375 30.0244140625 9.94384765625 29.7607421875 9.69482421875C29.4970703125 9.44580078125 29.365234375 9.098307266831398 29.365234375 8.65234375L29.365234375 8.65234375L29.365234375 5.29296875L28.544921875 5.29296875L28.544921875 4.541015625L29.365234375 4.541015625L29.365234375 3.2421875L30.244140625 3.2421875L30.244140625 4.541015625M34.78515625 10.1171875L34.78515625 10.1171875C34.2578125 10.1171875 33.802897185087204 10 33.42041015625 9.765625C33.037923127412796 9.53125 32.7433267980814 9.2041015625 32.53662109375 8.7841796875C32.3299153521657 8.3642578125 32.2265625 7.874348908662796 32.2265625 7.314453125C32.2265625 6.754557192325592 32.3274739459157 6.261393129825592 32.529296875 5.8349609375C32.7311197668314 5.408528745174408 33.016764372587204 5.074869692325592 33.38623046875 4.833984375C33.755696564912796 4.593098759651184 34.187825471162796 4.47265625 34.6826171875 4.47265625L34.6826171875 4.47265625C34.97233062982559 4.47265625 35.25797516107559 4.520670771598816 35.53955078125 4.61669921875C35.82112640142441 4.712727665901184 36.07666015625 4.867350459098816 36.30615234375 5.08056640625C36.53564453125 5.293782651424408 36.71875 5.574544370174408 36.85546875 5.9228515625C36.9921875 6.271158754825592 37.060546875 6.697591245174408 37.060546875 7.2021484375L37.060546875 7.2021484375L37.060546875 7.568359375L33.115234375 7.568359375C33.128255158662796 7.919921875 33.1982421875 8.22265625 33.3251953125 8.4765625L33.3251953125 8.4765625C33.465169221162796 8.759765625 33.661295622587204 8.973795548081398 33.91357421875 9.11865234375C34.165852814912796 9.263509139418602 34.4580078125 9.3359375 34.7900390625 9.3359375L34.7900390625 9.3359375C35.0048828125 9.3359375 35.2001953125 9.305013045668602 35.3759765625 9.2431640625C35.5517578125 9.181315079331398 35.703125 9.087727889418602 35.830078125 8.96240234375C35.95703125 8.837076798081398 36.0546875 8.681640625 36.123046875 8.49609375L36.123046875 8.49609375L36.97265625 8.73046875C36.888020634651184 9.00390625 36.744791865348816 9.244791641831398 36.54296875 9.453125C36.34114593267441 9.661458320915699 36.09130859375 9.82421875 35.79345703125 9.94140625C35.49560546875 10.05859375 35.15950530767441 10.1171875 34.78515625 10.1171875M33.1201171875 6.826171875L33.1201171875 6.826171875L36.1669921875 6.826171875C36.14420562982559 6.578775942325592 36.09212249517441 6.350911557674408 36.0107421875 6.142578125L36.0107421875 6.142578125C35.89680999517441 5.865885317325592 35.72916656732559 5.648600161075592 35.5078125 5.49072265625C35.28645843267441 5.332845151424408 35.01139312982559 5.25390625 34.6826171875 5.25390625C34.35384124517441 5.25390625 34.072265625 5.33447265625 33.837890625 5.49560546875C33.603515625 5.65673828125 33.424479216337204 5.865885317325592 33.30078125 6.123046875L33.30078125 6.123046875C33.196614533662796 6.344400942325592 33.136393278837204 6.578775942325592 33.1201171875 6.826171875M38.8818359375 10L37.8662109375 10L39.78515625 7.197265625L37.978515625 4.541015625L39.00390625 4.541015625L39.6826171875 5.6005859375C39.8583984375 5.8740234375 40.011393278837204 6.129557192325592 40.1416015625 6.3671875L40.1416015625 6.3671875C40.19368499517441 6.468099057674408 40.2490234375 6.569010317325592 40.3076171875 6.669921875L40.3076171875 6.669921875C40.35970062017441 6.569010317325592 40.41178375482559 6.468099057674408 40.4638671875 6.3671875L40.4638671875 6.3671875C40.57779937982559 6.129557192325592 40.72428375482559 5.8740234375 40.9033203125 5.6005859375L40.9033203125 5.6005859375L41.5966796875 4.541015625L42.6025390625 4.541015625L40.7763671875 7.24609375L42.6904296875 10L41.669921875 10L40.869140625 8.7744140625C40.69661468267441 8.507487028837204 40.54850250482559 8.258463591337204 40.4248046875 8.02734375L40.4248046875 8.02734375C40.37272125482559 7.936197966337204 40.32063812017441 7.8466796875 40.2685546875 7.7587890625L40.2685546875 7.7587890625C40.2197265625 7.8466796875 40.17252594232559 7.936197966337204 40.126953125 8.02734375L40.126953125 8.02734375C40.013020783662796 8.258463591337204 39.8681640625 8.507487028837204 39.6923828125 8.7744140625L39.6923828125 8.7744140625L38.8818359375 10M44.8046875 4.541015625L45.927734375 4.541015625L45.927734375 5.29296875L44.8046875 5.29296875L44.8046875 8.583984375C44.8046875 8.828125 44.854329377412796 9.00634765625 44.95361328125 9.11865234375C45.052897185087204 9.23095703125 45.218098908662796 9.287109375 45.44921875 9.287109375L45.44921875 9.287109375C45.504557341337204 9.287109375 45.57535797357559 9.280598983168602 45.66162109375 9.267578125C45.74788421392441 9.254557266831398 45.82682281732559 9.241536483168602 45.8984375 9.228515625L45.8984375 9.228515625L46.0791015625 9.970703125C45.98795562982559 10.003255208430346 45.88460296392441 10.027669270057231 45.76904296875 10.0439453125C45.65348297357559 10.060221352614462 45.53873687982559 10.068359375 45.4248046875 10.068359375L45.4248046875 10.068359375C44.952799528837204 10.068359375 44.5849609375 9.94384765625 44.3212890625 9.69482421875C44.0576171875 9.44580078125 43.92578125 9.098307266831398 43.92578125 8.65234375L43.92578125 8.65234375L43.92578125 5.29296875L43.10546875 5.29296875L43.10546875 4.541015625L43.92578125 4.541015625L43.92578125 3.2421875L44.8046875 3.2421875L44.8046875 4.541015625M51.3916015625 10.126953125L51.3916015625 10.126953125C51.046549528837204 10.126953125 50.733235627412796 10.061848959885538 50.45166015625 9.931640625C50.1700846105814 9.80143228545785 49.9462890625 9.611002616584301 49.7802734375 9.3603515625C49.6142578125 9.109700545668602 49.53125 8.805338516831398 49.53125 8.447265625L49.53125 8.447265625C49.53125 8.134765625 49.5930989459157 7.880859375 49.716796875 7.685546875C49.8404947668314 7.490234375 50.0056966394186 7.33642578125 50.21240234375 7.22412109375C50.419108122587204 7.11181640625 50.647786408662796 7.027994692325592 50.8984375 6.97265625C51.149088591337204 6.917317807674408 51.4013671875 6.873372495174408 51.6552734375 6.8408203125L51.6552734375 6.8408203125C51.98079437017441 6.798502504825592 52.24609375 6.765950620174408 52.451171875 6.7431640625C52.65625 6.720377504825592 52.80843108892441 6.681315004825592 52.90771484375 6.6259765625C53.00699859857559 6.570638120174408 53.056640625 6.476236879825592 53.056640625 6.3427734375L53.056640625 6.3427734375L53.056640625 6.3134765625C53.056640625 6.085611879825592 53.01432281732559 5.892740786075592 52.9296875 5.73486328125C52.84505218267441 5.576985776424408 52.71809905767441 5.455729067325592 52.548828125 5.37109375C52.37955719232559 5.286458432674408 52.16796875 5.244140625 51.9140625 5.244140625L51.9140625 5.244140625C51.65364593267441 5.244140625 51.4306640625 5.284830629825592 51.2451171875 5.3662109375C51.0595703125 5.447591245174408 50.909016877412796 5.54931640625 50.79345703125 5.67138671875C50.677897185087204 5.79345703125 50.5908203125 5.91796875 50.5322265625 6.044921875L50.5322265625 6.044921875L49.6875 5.7666015625C49.8274739831686 5.4345703125 50.0162760168314 5.174967348575592 50.25390625 4.98779296875C50.491536408662796 4.800618290901184 50.753580778837204 4.66796875 51.0400390625 4.58984375C51.326497346162796 4.51171875 51.60970062017441 4.47265625 51.8896484375 4.47265625L51.8896484375 4.47265625C52.07194000482559 4.47265625 52.27945953607559 4.49462890625 52.51220703125 4.53857421875C52.74495452642441 4.58251953125 52.96956390142441 4.669596552848816 53.18603515625 4.7998046875C53.40250641107559 4.930012822151184 53.58154296875 5.122884213924408 53.72314453125 5.37841796875C53.86474609375 5.633951723575592 53.935546875 5.974934995174408 53.935546875 6.4013671875L53.935546875 6.4013671875L53.935546875 10L53.0712890625 10L53.0712890625 9.2578125L53.0126953125 9.2578125C52.95084625482559 9.384765625 52.8515625 9.515787772834301 52.71484375 9.65087890625C52.578125 9.78597005829215 52.40071624517441 9.899088544771075 52.1826171875 9.990234375C51.96451812982559 10.081380205228925 51.70084625482559 10.126953125 51.3916015625 10.126953125M51.54296875 9.3505859375L51.54296875 9.3505859375C51.86848968267441 9.3505859375 52.1435546875 9.287109375 52.3681640625 9.16015625C52.5927734375 9.033203125 52.763671875 8.868001326918602 52.880859375 8.66455078125C52.998046875 8.461100310087204 53.056640625 8.248697966337204 53.056640625 8.02734375L53.056640625 8.02734375L53.056640625 7.2705078125C53.02083343267441 7.312825620174408 52.94270843267441 7.35107421875 52.822265625 7.38525390625C52.70182281732559 7.41943359375 52.56429046392441 7.449544370174408 52.40966796875 7.4755859375C52.25504547357559 7.501627653837204 52.10530608892441 7.523600310087204 51.96044921875 7.54150390625C51.81559234857559 7.559407502412796 51.70084625482559 7.5732421875 51.6162109375 7.5830078125L51.6162109375 7.5830078125C51.404622346162796 7.609049528837204 51.206868439912796 7.65380859375 51.02294921875 7.71728515625C50.839029997587204 7.78076171875 50.691731721162796 7.87353515625 50.5810546875 7.99560546875C50.470377653837204 8.11767578125 50.4150390625 8.282877653837204 50.4150390625 8.4912109375L50.4150390625 8.4912109375C50.4150390625 8.680012971162796 50.4638671875 8.837890625 50.5615234375 8.96484375C50.6591796875 9.091796875 50.792643278837204 9.187825545668602 50.9619140625 9.2529296875C51.131184846162796 9.318033829331398 51.324869841337204 9.3505859375 51.54296875 9.3505859375M56.50390625 4.541015625L57.626953125 4.541015625L57.626953125 5.29296875L56.50390625 5.29296875L56.50390625 8.583984375C56.50390625 8.828125 56.553548127412796 9.00634765625 56.65283203125 9.11865234375C56.752115935087204 9.23095703125 56.917317658662796 9.287109375 57.1484375 9.287109375L57.1484375 9.287109375C57.203776091337204 9.287109375 57.27457672357559 9.280598983168602 57.36083984375 9.267578125C57.44710296392441 9.254557266831398 57.52604156732559 9.241536483168602 57.59765625 9.228515625L57.59765625 9.228515625L57.7783203125 9.970703125C57.68717437982559 10.003255208430346 57.58382171392441 10.027669270057231 57.46826171875 10.0439453125C57.35270172357559 10.060221352614462 57.23795562982559 10.068359375 57.1240234375 10.068359375L57.1240234375 10.068359375C56.652018278837204 10.068359375 56.2841796875 9.94384765625 56.0205078125 9.69482421875C55.7568359375 9.44580078125 55.625 9.098307266831398 55.625 8.65234375L55.625 8.65234375L55.625 5.29296875L54.8046875 5.29296875L54.8046875 4.541015625L55.625 4.541015625L55.625 3.2421875L56.50390625 3.2421875L56.50390625 4.541015625M62.841796875 2.724609375L63.9794921875 2.724609375L63.9794921875 10L63.06640625 10L63.06640625 3.583984375L63.017578125 3.583984375L61.259765625 4.8876953125L61.259765625 3.8916015625L62.841796875 2.724609375M68.0126953125 10.09765625L68.0126953125 10.09765625C67.47233062982559 10.09765625 67.01171875 9.951171875 66.630859375 9.658203125C66.25 9.365234375 65.9586588293314 8.941243514418602 65.7568359375 8.38623046875C65.5550130456686 7.831217497587204 65.4541015625 7.158203125 65.4541015625 6.3671875L65.4541015625 6.3671875C65.4541015625 5.579427182674408 65.5558267980814 4.9072265625 65.75927734375 4.3505859375C65.9627278894186 3.7939453125 66.2548828125 3.367512822151184 66.6357421875 3.0712890625C67.0166015625 2.775065302848816 67.4755859375 2.626953125 68.0126953125 2.626953125L68.0126953125 2.626953125C68.5498046875 2.626953125 69.00960296392441 2.775065302848816 69.39208984375 3.0712890625C69.77457672357559 3.367512822151184 70.06673157215118 3.7939453125 70.2685546875 4.3505859375C70.47037780284882 4.9072265625 70.5712890625 5.579427182674408 70.5712890625 6.3671875L70.5712890625 6.3671875C70.5712890625 7.154947817325592 70.47119140625 7.8271484375 70.27099609375 8.3837890625C70.07080078125 8.9404296875 69.7802734375 9.365234375 69.3994140625 9.658203125C69.0185546875 9.951171875 68.55631500482559 10.09765625 68.0126953125 10.09765625M68.0126953125 9.287109375L68.0126953125 9.287109375C68.36751312017441 9.287109375 68.66861969232559 9.171549454331398 68.916015625 8.9404296875C69.16341155767441 8.709309846162796 69.35221344232559 8.37646484375 69.482421875 7.94189453125C69.61263030767441 7.50732421875 69.677734375 6.982421875 69.677734375 6.3671875L69.677734375 6.3671875C69.677734375 5.748697817325592 69.61263030767441 5.220540463924408 69.482421875 4.78271484375C69.35221344232559 4.344889521598816 69.16341155767441 4.010416865348816 68.916015625 3.779296875C68.66861969232559 3.548176884651184 68.36751312017441 3.4326171875 68.0126953125 3.4326171875L68.0126953125 3.4326171875C67.65787750482559 3.4326171875 67.3567707836628 3.548991084098816 67.109375 3.78173828125C66.8619792163372 4.014485478401184 66.6731770336628 4.348958134651184 66.54296875 4.78515625C66.4127604663372 5.221354067325592 66.34765625 5.748697817325592 66.34765625 6.3671875L66.34765625 6.3671875C66.34765625 6.982421875 66.4127604663372 7.50732421875 66.54296875 7.94189453125C66.6731770336628 8.37646484375 66.8619792163372 8.709309846162796 67.109375 8.9404296875C67.3567707836628 9.171549454331398 67.65787750482559 9.287109375 68.0126953125 9.287109375M72.8173828125 12.041015625L71.9384765625 12.041015625L71.9384765625 4.541015625L72.7880859375 4.541015625L72.7880859375 5.4150390625L72.8857421875 5.4150390625C72.9475910961628 5.3173828125 73.0338542163372 5.194498598575592 73.14453125 5.04638671875C73.2552082836628 4.898274540901184 73.4147135913372 4.765625 73.623046875 4.6484375C73.83138030767441 4.53125 74.11295562982559 4.47265625 74.4677734375 4.47265625L74.4677734375 4.47265625C74.92350250482559 4.47265625 75.32470703125 4.586588740348816 75.67138671875 4.814453125C76.01806640625 5.042317807674408 76.28987610340118 5.367024838924408 76.48681640625 5.78857421875C76.68375670909882 6.210123598575592 76.7822265625 6.708984375 76.7822265625 7.28515625L76.7822265625 7.28515625C76.7822265625 7.864583283662796 76.6845703125 8.365885466337204 76.4892578125 8.7890625C76.2939453125 9.212239608168602 76.02294921875 9.539388008415699 75.67626953125 9.7705078125C75.32958984375 10.001627604215173 74.92838531732559 10.1171875 74.47265625 10.1171875L74.47265625 10.1171875C74.12760406732559 10.1171875 73.84928375482559 10.057779946364462 73.6376953125 9.93896484375C73.4261067211628 9.82014974579215 73.2633464038372 9.68505859375 73.1494140625 9.53369140625C73.0354817211628 9.38232421875 72.9475910961628 9.256184920668602 72.8857421875 9.1552734375L72.8857421875 9.1552734375L72.8173828125 9.1552734375L72.8173828125 12.041015625M74.3408203125 9.3310546875L74.3408203125 9.3310546875C74.6826171875 9.3310546875 74.96826171875 9.239095076918602 75.19775390625 9.05517578125C75.42724609375 8.871256485581398 75.59977203607559 8.623860627412796 75.71533203125 8.31298828125C75.83089202642441 8.002115935087204 75.888671875 7.65625 75.888671875 7.275390625L75.888671875 7.275390625C75.888671875 6.897786557674408 75.83170562982559 6.556803286075592 75.7177734375 6.25244140625C75.60384124517441 5.948079526424408 75.43212890625 5.706380307674408 75.20263671875 5.52734375C74.97314453125 5.348307192325592 74.68587249517441 5.2587890625 74.3408203125 5.2587890625L74.3408203125 5.2587890625C74.00553375482559 5.2587890625 73.72395843267441 5.343424379825592 73.49609375 5.5126953125C73.2682292163372 5.681966245174408 73.0965168774128 5.917154848575592 72.98095703125 6.21826171875C72.8653971850872 6.519368588924408 72.8076171875 6.871744692325592 72.8076171875 7.275390625L72.8076171875 7.275390625C72.8076171875 7.679036408662796 72.8662109375 8.035481721162796 72.9833984375 8.3447265625C73.1005859375 8.653971403837204 73.27392578125 8.895670548081398 73.50341796875 9.06982421875C73.73291015625 9.243977889418602 74.01204437017441 9.3310546875 74.3408203125 9.3310546875M78.623046875 10L77.607421875 10L79.5263671875 7.197265625L77.7197265625 4.541015625L78.7451171875 4.541015625L79.423828125 5.6005859375C79.599609375 5.8740234375 79.7526042163372 6.129557192325592 79.8828125 6.3671875L79.8828125 6.3671875C79.93489593267441 6.468099057674408 79.990234375 6.569010317325592 80.048828125 6.669921875L80.048828125 6.669921875C80.10091155767441 6.569010317325592 80.15299469232559 6.468099057674408 80.205078125 6.3671875L80.205078125 6.3671875C80.31901031732559 6.129557192325592 80.46549469232559 5.8740234375 80.64453125 5.6005859375L80.64453125 5.6005859375L81.337890625 4.541015625L82.34375 4.541015625L80.517578125 7.24609375L82.431640625 10L81.4111328125 10L80.6103515625 8.7744140625C80.43782562017441 8.507487028837204 80.28971344232559 8.258463591337204 80.166015625 8.02734375L80.166015625 8.02734375C80.11393219232559 7.936197966337204 80.06184905767441 7.8466796875 80.009765625 7.7587890625L80.009765625 7.7587890625C79.9609375 7.8466796875 79.91373687982559 7.936197966337204 79.8681640625 8.02734375L79.8681640625 8.02734375C79.7542317211628 8.258463591337204 79.609375 8.507487028837204 79.43359375 8.7744140625L79.43359375 8.7744140625L78.623046875 10" fill="#000000"/></g></g></g></svg>