<svg xmlns="http://www.w3.org/2000/svg" width="200" height="100" viewBox="0 0 200 100"><defs><clipPath id="clip-0"><path d="M 0.00 0.00 L 200.00 0.00 L 200.00 60.00 L 0.00 60.00 L 0.00 0.00" fill-rule="nonzero" fill="black"/></clipPath></defs><g><path d="M 0.00 0.00 L 200.00 0.00 L 200.00 60.00 L 0.00 60.00 L 0.00 0.00" fill-rule="nonzero" fill="#ffffff"/><g clip-path="url(#clip-0)"><g transform="matrix(1, 0, 0, 1, 10, 15)"><path d="M2.89063 16L1.40625 16L1.40625 4.35938L2.89063 4.35938L2.89063 9.39063L9 9.39063L9 4.35938L10.48438 4.35938L10.48438 16L9 16L9 10.70313L2.89063 10.70313L2.89063 16M16.79688 16.1875L16.79688 16.1875C15.95313 16.1875 15.22526 16 14.61328 15.625C14.0013 15.25 13.52995 14.72656 13.19922 14.05469C12.86849 13.38281 12.70313 12.59896 12.70313 11.70313C12.70313 10.80729 12.86458 10.01823 13.1875 9.33594C13.51042 8.65365 13.96745 8.11979 14.55859 7.73438C15.14974 7.34896 15.84115 7.15625 16.63281 7.15625L16.63281 7.15625C17.09635 7.15625 17.55339 7.23307 18.00391 7.38672C18.45443 7.54036 18.86328 7.78776 19.23047 8.12891C19.59766 8.47005 19.89063 8.91927 20.10938 9.47656C20.32813 10.03385 20.4375 10.71615 20.4375 11.52344L20.4375 11.52344L20.4375 12.10938L14.125 12.10938C14.14583 12.67188 14.25781 13.15625 14.46094 13.5625L14.46094 13.5625C14.6849 14.01563 14.9987 14.35807 15.40234 14.58984C15.80599 14.82161 16.27344 14.9375 16.80469 14.9375L16.80469 14.9375C17.14844 14.9375 17.46094 14.88802 17.74219 14.78906C18.02344 14.6901 18.26563 14.54036 18.46875 14.33984C18.67188 14.13932 18.82813 13.89063 18.9375 13.59375L18.9375 13.59375L20.29688 13.96875C20.16146 14.40625 19.93229 14.79167 19.60938 15.125C19.28646 15.45833 18.88672 15.71875 18.41016 15.90625C17.93359 16.09375 17.39583 16.1875 16.79688 16.1875M14.13281 10.92188L14.13281 10.92188L19.00781 10.92188C18.97135 10.52604 18.88802 10.16146 18.75781 9.82813L18.75781 9.82813C18.57552 9.38542 18.30729 9.03776 17.95313 8.78516C17.59896 8.53255 17.15885 8.40625 16.63281 8.40625C16.10677 8.40625 15.65625 8.53516 15.28125 8.79297C14.90625 9.05078 14.61979 9.38542 14.42188 9.79688L14.42188 9.79688C14.25521 10.15104 14.15885 10.52604 14.13281 10.92188M22.45313 4.35938L23.85938 4.35938L23.85938 16L22.45313 16L22.45313 4.35938M26.32813 4.35938L27.73438 4.35938L27.73438 16L26.32813 16L26.32813 4.35938M33.75781 16.1875L33.75781 16.1875C32.96615 16.1875 32.27214 16 31.67578 15.625C31.07943 15.25 30.61458 14.72396 30.28125 14.04688C29.94792 13.36979 29.78125 12.58333 29.78125 11.6875L29.78125 11.6875C29.78125 10.77604 29.94792 9.98047 30.28125 9.30078C30.61458 8.62109 31.07943 8.09375 31.67578 7.71875C32.27214 7.34375 32.96615 7.15625 33.75781 7.15625L33.75781 7.15625C34.55469 7.15625 35.2526 7.34375 35.85156 7.71875C36.45052 8.09375 36.91667 8.62109 37.25 9.30078C37.58333 9.98047 37.75 10.77604 37.75 11.6875L37.75 11.6875C37.75 12.58333 37.58333 13.36979 37.25 14.04688C36.91667 14.72396 36.45052 15.25 35.85156 15.625C35.2526 16 34.55469 16.1875 33.75781 16.1875M33.75781 14.92969L33.75781 14.92969C34.34635 14.92969 34.83073 14.77865 35.21094 14.47656C35.59115 14.17448 35.8724 13.77734 36.05469 13.28516C36.23698 12.79297 36.32813 12.26042 36.32813 11.6875L36.32813 11.6875C36.32813 11.10938 36.23698 10.57161 36.05469 10.07422C35.8724 9.57682 35.59115 9.17578 35.21094 8.87109C34.83073 8.56641 34.34635 8.41406 33.75781 8.41406L33.75781 8.41406C33.17448 8.41406 32.69531 8.56641 32.32031 8.87109C31.94531 9.17578 31.66667 9.57552 31.48438 10.07031C31.30208 10.5651 31.21094 11.10417 31.21094 11.6875L31.21094 11.6875C31.21094 12.26042 31.30208 12.79297 31.48438 13.28516C31.66667 13.77734 31.94531 14.17448 32.32031 14.47656C32.69531 14.77865 33.17448 14.92969 33.75781 14.92969M48.375 16L46.64063 16L43.46875 4.35938L44.98438 4.35938L46.82813 11.5C46.92708 11.88021 47.02083 12.26693 47.10938 12.66016C47.19792 13.05339 47.28385 13.45052 47.36719 13.85156L47.36719 13.85156C47.41927 14.10156 47.46875 14.35417 47.51563 14.60938L47.51563 14.60938C47.5625 14.35417 47.61198 14.10156 47.66406 13.85156L47.66406 13.85156C47.7474 13.45052 47.83594 13.05339 47.92969 12.66016C48.02344 12.26693 48.11979 11.88021 48.21875 11.5L48.21875 11.5L50.10156 4.35938L51.78906 4.35938L53.65625 11.5C53.76042 11.88021 53.85807 12.26693 53.94922 12.66016C54.04036 13.05339 54.13021 13.45052 54.21875 13.85156L54.21875 13.85156C54.27083 14.08594 54.32031 14.32292 54.36719 14.5625L54.36719 14.5625C54.41406 14.32292 54.46094 14.08594 54.50781 13.85156L54.50781 13.85156C54.59115 13.45052 54.67969 13.05339 54.77344 12.66016C54.86719 12.26693 54.96094 11.88021 55.05469 11.5L55.05469 11.5L56.89063 4.35938L58.42188 4.35938L55.23438 16L53.50781 16L51.50781 8.625C51.3776 8.14583 51.2526 7.6224 51.13281 7.05469L51.13281 7.05469C51.0651 6.74219 51 6.40104 50.9375 6.03125L50.9375 6.03125C50.875 6.36458 50.8151 6.67708 50.75781 6.96875L50.75781 6.96875C50.64844 7.52083 50.51823 8.07292 50.36719 8.625L50.36719 8.625L48.375 16M63.61719 16.1875L63.61719 16.1875C62.82552 16.1875 62.13151 16 61.53516 15.625C60.9388 15.25 60.47396 14.72396 60.14063 14.04688C59.80729 13.36979 59.64063 12.58333 59.64063 11.6875L59.64063 11.6875C59.64063 10.77604 59.80729 9.98047 60.14063 9.30078C60.47396 8.62109 60.9388 8.09375 61.53516 7.71875C62.13151 7.34375 62.82552 7.15625 63.61719 7.15625L63.61719 7.15625C64.41406 7.15625 65.11198 7.34375 65.71094 7.71875C66.3099 8.09375 66.77604 8.62109 67.10938 9.30078C67.44271 9.98047 67.60938 10.77604 67.60938 11.6875L67.60938 11.6875C67.60938 12.58333 67.44271 13.36979 67.10938 14.04688C66.77604 14.72396 66.3099 15.25 65.71094 15.625C65.11198 16 64.41406 16.1875 63.61719 16.1875M63.61719 14.92969L63.61719 14.92969C64.20573 14.92969 64.6901 14.77865 65.07031 14.47656C65.45052 14.17448 65.73177 13.77734 65.91406 13.28516C66.09635 12.79297 66.1875 12.26042 66.1875 11.6875L66.1875 11.6875C66.1875 11.10938 66.09635 10.57161 65.91406 10.07422C65.73177 9.57682 65.45052 9.17578 65.07031 8.87109C64.6901 8.56641 64.20573 8.41406 63.61719 8.41406L63.61719 8.41406C63.03385 8.41406 62.55469 8.56641 62.17969 8.87109C61.80469 9.17578 61.52604 9.57552 61.34375 10.07031C61.16146 10.5651 61.07031 11.10417 61.07031 11.6875L61.07031 11.6875C61.07031 12.26042 61.16146 12.79297 61.34375 13.28516C61.52604 13.77734 61.80469 14.17448 62.17969 14.47656C62.55469 14.77865 63.03385 14.92969 63.61719 14.92969M71.0625 16L69.65625 16L69.65625 7.26563L71.01563 7.26563L71.01563 8.60938L71.10938 8.60938C71.27083 8.16667 71.55859 7.8112 71.97266 7.54297C72.38672 7.27474 72.85417 7.14063 73.375 7.14063L73.375 7.14063C73.47917 7.14063 73.60286 7.14323 73.74609 7.14844C73.88932 7.15365 74.0026 7.15885 74.08594 7.16406L74.08594 7.16406L74.08594 8.57813C74.04427 8.56771 73.9401 8.55208 73.77344 8.53125C73.60677 8.51042 73.42969 8.5 73.24219 8.5L73.24219 8.5C72.82552 8.5 72.45182 8.58724 72.12109 8.76172C71.79036 8.9362 71.53125 9.17578 71.34375 9.48047C71.15625 9.78516 71.0625 10.13542 71.0625 10.53125L71.0625 10.53125L71.0625 16M75.67969 4.35938L77.08594 4.35938L77.08594 16L75.67969 16L75.67969 4.35938M82.82813 16.1875L82.82813 16.1875C82.10417 16.1875 81.46354 16.0026 80.90625 15.63281C80.34896 15.26302 79.91406 14.73958 79.60156 14.0625C79.28906 13.38542 79.13281 12.58333 79.13281 11.65625L79.13281 11.65625C79.13281 10.73438 79.29036 9.9362 79.60547 9.26172C79.92057 8.58724 80.35677 8.06771 80.91406 7.70313C81.47135 7.33854 82.11198 7.15625 82.83594 7.15625L82.83594 7.15625C83.40365 7.15625 83.85417 7.25 84.1875 7.4375C84.52083 7.625 84.77734 7.83724 84.95703 8.07422C85.13672 8.3112 85.27344 8.50781 85.36719 8.66406L85.36719 8.66406L85.47656 8.66406L85.47656 4.35938L86.88281 4.35938L86.88281 16L85.52344 16L85.52344 14.64844L85.36719 14.64844C85.27344 14.8099 85.13411 15.01172 84.94922 15.25391C84.76432 15.49609 84.50391 15.71224 84.16797 15.90234C83.83203 16.09245 83.38542 16.1875 82.82813 16.1875M83.03906 14.92969L83.03906 14.92969C83.57031 14.92969 84.01823 14.79036 84.38281 14.51172C84.7474 14.23307 85.02344 13.84635 85.21094 13.35156C85.39844 12.85677 85.49219 12.28646 85.49219 11.64063L85.49219 11.64063C85.49219 10.99479 85.39974 10.43099 85.21484 9.94922C85.02995 9.46745 84.75521 9.09115 84.39063 8.82031C84.02604 8.54948 83.57552 8.41406 83.03906 8.41406L83.03906 8.41406C82.48698 8.41406 82.02734 8.55729 81.66016 8.84375C81.29297 9.13021 81.01823 9.51693 80.83594 10.00391C80.65365 10.49089 80.5625 11.03646 80.5625 11.64063L80.5625 11.64063C80.5625 12.25 80.65495 12.80339 80.83984 13.30078C81.02474 13.79818 81.30208 14.19401 81.67188 14.48828C82.04167 14.78255 82.4974 14.92969 83.03906 14.92969" fill="#000000"/></g></g></g></svg>