<svg xmlns="http://www.w3.org/2000/svg" width="200" height="100" viewBox="0 0 200 100"><defs><clipPath id="clip-0"><path d="M 0.00 0.00 L 200.00 0.00 L 200.00 80.00 L 0.00 80.00 L 0.00 0.00" fill-rule="nonzero" fill="black"/></clipPath></defs><g><path d="M 0.00 0.00 L 200.00 0.00 L 200.00 80.00 L 0.00 80.00 L 0.00 0.00" fill-rule="nonzero" fill="#ffffff"/><g clip-path="url(#clip-0)"><g transform="matrix(1, 0, 0, 1, 10, 10)"><path d="M17.90625 47L3.16406 47L3.16406 12.07813L17.01563 12.07813C19.57812 12.07813 21.71484 12.46484 23.42578 13.23828C25.13672 14.01172 26.41797 15.07031 27.26953 16.41406C28.12109 17.75781 28.54688 19.30469 28.54688 21.05469L28.54688 21.05469C28.54688 22.42969 28.27344 23.62891 27.72656 24.65234C27.17969 25.67578 26.43359 26.51172 25.48828 27.16016C24.54297 27.80859 23.46875 28.27344 22.26563 28.55469L22.26563 28.55469L22.26563 28.90625C23.57813 28.95313 24.81641 29.32422 25.98047 30.01953C27.14453 30.71484 28.08984 31.68359 28.81641 32.92578C29.54297 34.16797 29.90625 35.64844 29.90625 37.36719L29.90625 37.36719C29.90625 39.21094 29.45312 40.85938 28.54688 42.3125C27.64063 43.76563 26.30078 44.91016 24.52734 45.74609C22.75391 46.58203 20.54688 47 17.90625 47L17.90625 47M10.3125 31.64844L10.3125 41.11719L16.5 41.11719C18.59375 41.11719 20.125 40.71094 21.09375 39.89844C22.0625 39.08594 22.54688 38.01562 22.54688 36.6875L22.54688 36.6875C22.54688 35.70313 22.30859 34.83203 21.83203 34.07422C21.35547 33.31641 20.67969 32.72266 19.80469 32.29297C18.92969 31.86328 17.89062 31.64844 16.6875 31.64844L16.6875 31.64844L10.3125 31.64844M10.3125 17.91406L10.3125 26.75L15.96094 26.75C16.97656 26.75 17.89062 26.56641 18.70313 26.19922C19.51563 25.83203 20.15234 25.30859 20.61328 24.62891C21.07422 23.94922 21.30469 23.14063 21.30469 22.20313L21.30469 22.20313C21.30469 20.9375 20.85547 19.90625 19.95703 19.10938C19.05859 18.3125 17.77344 17.91406 16.10156 17.91406L16.10156 17.91406L10.3125 17.91406M41.78906 47L34.75781 47L34.75781 20.79688L41.78906 20.79688L41.78906 47M38.27344 17.375L38.27344 17.375C37.21094 17.375 36.30469 17.02344 35.55469 16.32031C34.80469 15.61719 34.42969 14.76562 34.42969 13.76563L34.42969 13.76563C34.42969 12.76563 34.80469 11.91406 35.55469 11.21094C36.30469 10.50781 37.21094 10.15625 38.27344 10.15625L38.27344 10.15625C39.33594 10.15625 40.24609 10.50391 41.00391 11.19922C41.76172 11.89453 42.14063 12.75 42.14063 13.76563L42.14063 13.76563C42.14063 14.76562 41.76172 15.61719 41.00391 16.32031C40.24609 17.02344 39.33594 17.375 38.27344 17.375M59.41406 57.35938L59.41406 57.35938C57.22656 57.35938 55.32031 57.08203 53.69531 56.52734C52.07031 55.97266 50.75 55.21094 49.73438 54.24219C48.71875 53.27344 48.01563 52.17188 47.625 50.9375L47.625 50.9375L53.67188 49.25C53.89063 49.73437 54.23047 50.20703 54.69141 50.66797C55.15234 51.12891 55.76563 51.50781 56.53125 51.80469C57.29688 52.10156 58.24219 52.25 59.36719 52.25L59.36719 52.25C61.16406 52.25 62.57422 51.83984 63.59766 51.01953C64.62109 50.19922 65.13281 48.92188 65.13281 47.1875L65.13281 47.1875L65.13281 42.35938L64.59375 42.35938C64.28125 43.0625 63.82812 43.74219 63.23438 44.39844C62.64063 45.05469 61.86328 45.58984 60.90234 46.00391C59.94141 46.41797 58.75 46.625 57.32813 46.625L57.32813 46.625C55.35938 46.625 53.57031 46.16406 51.96094 45.24219C50.35156 44.32031 49.06641 42.91406 48.10547 41.02344C47.14453 39.13281 46.66406 36.74219 46.66406 33.85156L46.66406 33.85156C46.66406 30.89844 47.15234 28.42969 48.12891 26.44531C49.10547 24.46094 50.40234 22.96875 52.01953 21.96875C53.63672 20.96875 55.41406 20.46875 57.35156 20.46875L57.35156 20.46875C58.82031 20.46875 60.05469 20.71484 61.05469 21.20703C62.05469 21.69922 62.86328 22.31641 63.48047 23.05859C64.09766 23.80078 64.5625 24.51563 64.875 25.20313L64.875 25.20313L65.17969 25.20313L65.17969 20.79688L72.09375 20.79688L72.09375 46.78906C72.09375 49.14844 71.55078 51.10937 70.46484 52.67188C69.37891 54.23437 67.88281 55.40625 65.97656 56.1875C64.07031 56.96875 61.88281 57.35938 59.41406 57.35938M59.53125 41.28125L59.53125 41.28125C60.73437 41.28125 61.75391 40.98438 62.58984 40.39063C63.42578 39.79687 64.0625 38.94141 64.5 37.82422C64.9375 36.70703 65.15625 35.36719 65.15625 33.80469L65.15625 33.80469C65.15625 32.25781 64.9375 30.90625 64.5 29.75C64.0625 28.59375 63.42578 27.69531 62.58984 27.05469C61.75391 26.41406 60.73437 26.09375 59.53125 26.09375L59.53125 26.09375C58.29687 26.09375 57.26172 26.42578 56.42578 27.08984C55.58984 27.75391 54.95703 28.66406 54.52734 29.82031C54.09766 30.97656 53.88281 32.30469 53.88281 33.80469L53.88281 33.80469C53.88281 35.33594 54.09766 36.66016 54.52734 37.77734C54.95703 38.89453 55.59375 39.75781 56.4375 40.36719C57.28125 40.97656 58.3125 41.28125 59.53125 41.28125" fill="#000000"/></g></g></g></svg>