<svg xmlns="http://www.w3.org/2000/svg" width="200" height="80" viewBox="0 0 200 80"><g><defs><clipPath id="clip-0"><rect x="0" y="0" width="200" height="80"/></clipPath></defs><g clip-path="url(#clip-0)"><g transform="matrix(1,0,0,1,10,10)"><path d="M17.90625 47L3.1640625 47L3.1640625 12.078125L17.015625 12.078125C19.578124523162842 12.078125 21.71484375 12.46484375 23.42578125 13.23828125C25.13671875 14.01171875 26.417967796325684 15.070311546325684 27.26953125 16.4140625C28.121094703674316 17.757813453674316 28.546875 19.304688453674316 28.546875 21.0546875L28.546875 21.0546875C28.546875 22.429686546325684 28.273438453674316 23.628905773162842 27.7265625 24.65234375C27.179686546325684 25.675781726837158 26.433594703674316 26.511718273162842 25.48828125 27.16015625C24.542967796325684 27.808594226837158 23.468749523162842 28.2734375 22.265625 28.5546875L22.265625 28.5546875L22.265625 28.90625C23.578125 28.953125 24.816407203674316 29.324218273162842 25.98046875 30.01953125C27.144530296325684 30.714844226837158 28.08984375 31.68359375 28.81640625 32.92578125C29.54296875 34.16796875 29.90625 35.64843726158142 29.90625 37.3671875L29.90625 37.3671875C29.90625 39.21093726158142 29.453124046325684 40.859375 28.546875 42.3125C27.640625953674316 43.765625 26.300780296325684 44.910156309604645 24.52734375 45.74609375C22.753905773162842 46.58203123509884 20.546875476837158 47 17.90625 47L17.90625 47M10.3125 31.6484375L10.3125 41.1171875L16.5 41.1171875C18.593749523162842 41.1171875 20.125000476837158 40.71093726158142 21.09375 39.8984375C22.062499523162842 39.08593773841858 22.546875 38.01562476158142 22.546875 36.6875L22.546875 36.6875C22.546875 35.703125 22.308593273162842 34.83203077316284 21.83203125 34.07421875C21.355469226837158 33.31640672683716 20.679687023162842 32.72265577316284 19.8046875 32.29296875C18.929687976837158 31.863281726837158 17.890624523162842 31.6484375 16.6875 31.6484375L16.6875 31.6484375L10.3125 31.6484375M10.3125 17.9140625L10.3125 26.75L15.9609375 26.75C16.976562023162842 26.75 17.890624523162842 26.566406726837158 18.703125 26.19921875C19.515625476837158 25.832030773162842 20.152343273162842 25.30859375 20.61328125 24.62890625C21.074219226837158 23.94921875 21.3046875 23.140625 21.3046875 22.203125L21.3046875 22.203125C21.3046875 20.9375 20.855468273162842 19.90625 19.95703125 19.109375C19.058594226837158 18.3125 17.773437023162842 17.9140625 16.1015625 17.9140625L16.1015625 17.9140625L10.3125 17.9140625M41.7890625 47L34.7578125 47L34.7578125 20.796875L41.7890625 20.796875L41.7890625 47M38.2734375 17.375L38.2734375 17.375C37.21093761920929 17.375 36.3046875 17.0234375 35.5546875 16.3203125C34.8046875 15.6171875 34.4296875 14.765624046325684 34.4296875 13.765625L34.4296875 13.765625C34.4296875 12.765625953674316 34.8046875 11.9140625 35.5546875 11.2109375C36.3046875 10.5078125 37.21093761920929 10.15625 38.2734375 10.15625L38.2734375 10.15625C39.33593773841858 10.15625 40.24609351158142 10.503907203674316 41.00390625 11.19921875C41.76171898841858 11.894530296325684 42.140625 12.749999046325684 42.140625 13.765625L42.140625 13.765625C42.140625 14.765624046325684 41.76171898841858 15.6171875 41.00390625 16.3203125C40.24609351158142 17.0234375 39.33593773841858 17.375 38.2734375 17.375M59.4140625 57.359375L59.4140625 57.359375C57.22656297683716 57.359375 55.32031273841858 57.08203101158142 53.6953125 56.52734375C52.07031226158142 55.97265648841858 50.74999988079071 55.21093773841858 49.734375 54.2421875C48.71875011920929 53.27343726158142 48.01562511920929 52.17187511920929 47.625 50.9375L47.625 50.9375L53.671875 49.25C53.89062523841858 49.734374940395355 54.23046898841858 50.20703113079071 54.69140625 50.66796875C55.15234351158142 51.12890636920929 55.76562523841858 51.50781238079071 56.53125 51.8046875C57.29687547683716 52.10156261920929 58.2421875 52.25 59.3671875 52.25L59.3671875 52.25C61.16406297683716 52.25 62.57421827316284 51.83984375 63.59765625 51.01953125C64.62109422683716 50.19921875 65.1328125 48.921875 65.1328125 47.1875L65.1328125 47.1875L65.1328125 42.359375L64.59375 42.359375C64.28125047683716 43.0625 63.82812452316284 43.7421875 63.234375 44.3984375C62.64062547683716 45.0546875 61.86328125 45.58984372019768 60.90234375 46.00390625C59.94140625 46.41796873509884 58.75000047683716 46.625 57.328125 46.625L57.328125 46.625C55.359375 46.625 53.57031226158142 46.16406247019768 51.9609375 45.2421875C50.35156238079071 44.320312440395355 49.06640625 42.91406261920929 48.10546875 41.0234375C47.14453125 39.13281273841858 46.6640625 36.74218773841858 46.6640625 33.8515625L46.6640625 33.8515625C46.6640625 30.8984375 47.152343809604645 28.429687976837158 48.12890625 26.4453125C49.10546886920929 24.460937023162842 50.40234375 22.968749046325684 52.01953125 21.96875C53.63671875 20.968750953674316 55.41406273841858 20.46875 57.3515625 20.46875L57.3515625 20.46875C58.82031297683716 20.46875 60.05468702316284 20.71484375 61.0546875 21.20703125C62.05468797683716 21.69921875 62.86328172683716 22.316407203674316 63.48046875 23.05859375C64.09765577316284 23.800781726837158 64.56250047683716 24.515625476837158 64.875 25.203125L64.875 25.203125L65.1796875 25.203125L65.1796875 20.796875L72.09375 20.796875L72.09375 46.7890625C72.09375 49.148437440395355 71.55078220367432 51.10937488079071 70.46484375 52.671875C69.37890529632568 54.23437476158142 67.88281202316284 55.40624976158142 65.9765625 56.1875C64.07031297683716 56.96875023841858 61.88281202316284 57.359375 59.4140625 57.359375M59.53125 41.28125L59.53125 41.28125C60.73437452316284 41.28125 61.75390577316284 40.98437523841858 62.58984375 40.390625C63.42578172683716 39.79687476158142 64.06249952316284 38.94140601158142 64.5 37.82421875C64.93750047683716 36.70703148841858 65.15625 35.36718726158142 65.15625 33.8046875L65.15625 33.8046875C65.15625 32.2578125 64.93750047683716 30.906249523162842 64.5 29.75C64.06249952316284 28.593750476837158 63.42578172683716 27.695312023162842 62.58984375 27.0546875C61.75390577316284 26.414062976837158 60.73437452316284 26.09375 59.53125 26.09375L59.53125 26.09375C58.29687452316284 26.09375 57.26171922683716 26.425781726837158 56.42578125 27.08984375C55.58984398841858 27.753905773162842 54.95703148841858 28.664062976837158 54.52734375 29.8203125C54.09765601158142 30.976562023162842 53.8828125 32.3046875 53.8828125 33.8046875L53.8828125 33.8046875C53.8828125 35.33593773841858 54.09765601158142 36.66015648841858 54.52734375 37.77734375C54.95703148841858 38.89453101158142 55.59375 39.7578125 56.4375 40.3671875C57.28125 40.9765625 58.3125 41.28125 59.53125 41.28125" fill="#000000"/></g></g></g></svg>