<svg xmlns="http://www.w3.org/2000/svg" width="120" height="120" viewBox="0 0 120 120"><g><defs><clipPath id="clip-g4-1"><rect x="0" y="0" width="120" height="120"/></clipPath></defs><g clip-path="url(#clip-g4-1)"><rect x="0" y="0" width="120" height="120" fill="#f2f2f2"/><g transform="matrix(1,0,0,1,20,20)"><defs><clipPath id="clip-g4-0"><path d="M 40 0 L 40 0 C 62.09138999323173 0 80 17.908610006768267 80 40 L 80 40 C 80 62.09138999323173 62.09138999323173 80 40 80 L 40 80 C 17.908610006768267 80 0 62.09138999323173 0 40 L 0 40 C 0 17.908610006768267 17.908610006768267 0 40 0 Z"/></clipPath></defs><g clip-path="url(#clip-g4-0)"><path d="M 40 0 L 40 0 C 62.09138999323173 0 80 17.908610006768267 80 40 L 80 40 C 80 62.09138999323173 62.09138999323173 80 40 80 L 40 80 C 17.908610006768267 80 0 62.09138999323173 0 40 L 0 40 C 0 17.908610006768267 17.908610006768267 0 40 0 Z" fill="#ffffff"/><rect x="0" y="0" width="80" height="80" fill="#3366e6"/><g transform="matrix(1,0,0,1,30,30)"><circle cx="20" cy="20" r="20" fill="#e63333"/></g></g></g></g></g></svg>