<svg xmlns="http://www.w3.org/2000/svg" width="260" height="80" viewBox="0 0 260 80"><g><defs><clipPath id="clip-g0-0"><rect x="0" y="0" width="260" height="80"/></clipPath></defs><g clip-path="url(#clip-g0-0)"><rect x="0" y="0" width="260" height="80" fill="#ffffff"/><g transform="matrix(1,0,0,1,10,15)"><rect x="0" y="0" width="50" height="50" fill="#e63333"/></g><g transform="matrix(1,0,0,1,70,15)"><rect x="0" y="0" width="50" height="50" fill="#33cc4d"/></g><g transform="matrix(1,0,0,1,130,15)"><rect x="0" y="0" width="50" height="50" fill="#3366e6"/></g><g transform="matrix(1,0,0,1,190,15)"><rect x="0" y="0" width="25" height="50" fill="#000000"/></g><g transform="matrix(1,0,0,1,225,15)"><rect x="0" y="0" width="25" height="50" fill="#ffffff" stroke="#cccccc" stroke-width="1"/></g></g></g></svg>