<svg xmlns="http://www.w3.org/2000/svg" width="200" height="80" viewBox="0 0 200 80"><g><defs><clipPath id="clip-g11-2"><rect x="0" y="0" width="200" height="80"/></clipPath></defs><g clip-path="url(#clip-g11-2)"><rect x="0" y="0" width="200" height="80" fill="#f0f0f0"/><g transform="matrix(1,0,0,1,15,15)"><rect x="0" y="0" width="50" height="50" fill="#e6e6e6" stroke="#000000" stroke-width="4"/></g><g transform="matrix(1,0,0,1,80,15)"><defs><mask id="stroke-mask-g11-0" style="mask-type:luminance"><g fill="white"><rect x="0" y="0" width="50" height="50"/></g></mask></defs><rect x="0" y="0" width="50" height="50" fill="#e6e6e6"/><g mask="url(#stroke-mask-g11-0)"><rect x="0" y="0" width="50" height="50" fill="none" stroke="#000000" stroke-width="8"/></g></g><g transform="matrix(1,0,0,1,145,15)"><defs><mask id="stroke-mask-g11-1" style="mask-type:luminance"><rect x="-100" y="-100" width="10000" height="10000" fill="white"/><g fill="black"><rect x="0" y="0" width="50" height="50"/></g></mask></defs><rect x="0" y="0" width="50" height="50" fill="#e6e6e6"/><g mask="url(#stroke-mask-g11-1)"><rect x="0" y="0" width="50" height="50" fill="none" stroke="#000000" stroke-width="8"/></g></g></g></g></svg>