<svg width="120" height="140" viewBox="0 0 120 140" fill="none" xmlns="http://www.w3.org/2000/svg">
<rect width="120" height="140" fill="white"/>
<path fill-rule="evenodd" clip-rule="evenodd" d="M50 15H70C81.0457 15 90 23.9543 90 35V65C90 70.9735 87.3812 76.3353 83.2291 80H100V90H20V80H36.7709C32.6188 76.3353 30 70.9735 30 65V35C30 23.9543 38.9543 15 50 15ZM70 105C70 99.4771 65.5228 95 60 95C54.4772 95 50 99.4771 50 105C50 110.523 54.4772 115 60 115C65.5228 115 70 110.523 70 105Z" fill="#E6801A"/>
</svg>
