<svg width="300" height="120" viewBox="0 0 300 120" fill="none" xmlns="http://www.w3.org/2000/svg">
<rect width="300" height="120" fill="white"/>
<path fill-rule="evenodd" clip-rule="evenodd" d="M90 45C90 31.1929 78.8071 20 65 20C54.7484 20 45.938 26.1705 42.0802 35H10V85H60V69.4999C61.6156 69.8278 63.2877 70 65 70C78.8071 70 90 58.8071 90 45Z" fill="#3366E6"/>
<path fill-rule="evenodd" clip-rule="evenodd" d="M170 60C170 48.9543 161.046 40 150 40C138.954 40 130 48.9543 130 60C130 71.0457 138.954 80 150 80C161.046 80 170 71.0457 170 60Z" fill="#E63333"/>
<path fill-rule="evenodd" clip-rule="evenodd" d="M260 30H210V90H260V84.4999C261.616 84.8279 263.288 85 265 85C278.807 85 290 73.8071 290 60C290 46.1929 278.807 35 265 35C263.288 35 261.616 35.1722 260 35.5001V30ZM260 35.5001C248.589 37.8164 240 47.9052 240 60C240 72.0948 248.589 82.1836 260 84.4999V35.5001Z" fill="#33B34D"/>
</svg>
